<?xml version="1.0" standalone="no"?>
<!DOCTYPE svg PUBLIC "-//W3C//DTD SVG 20010904//EN"
 "http://www.w3.org/TR/2001/REC-SVG-20010904/DTD/svg10.dtd">
<svg version="1.0" xmlns="http://www.w3.org/2000/svg"
 width="28.000000pt" height="35.000000pt" viewBox="0 0 28.000000 35.000000"
 preserveAspectRatio="xMidYMid meet">
<metadata>
Created by potrace 1.16, written by Peter Selinger 2001-2019
</metadata>
<g transform="translate(0.000000,35.000000) scale(0.100000,-0.100000)"
fill="#000000" stroke="none">
<path d="M2 209 l3 -144 46 -3 47 -3 6 -30 6 -29 39 0 39 0 7 30 7 30 39 0 39
0 0 66 0 66 -26 -5 -25 -4 -15 15 -15 15 13 8 13 9 28 0 27 0 0 43 0 42 -9 14
-9 13 -51 -7 -52 -7 2 -17 1 -16 -1 -11 -1 -12 -18 -4 -18 -5 -12 13 -12 13 0
26 0 25 -27 0 -28 0 -23 6 -23 6 3 -143z"/>
</g>
</svg>
