<?xml version="1.0" standalone="no"?>
<!DOCTYPE svg PUBLIC "-//W3C//DTD SVG 20010904//EN"
 "http://www.w3.org/TR/2001/REC-SVG-20010904/DTD/svg10.dtd">
<svg version="1.0" xmlns="http://www.w3.org/2000/svg"
 width="26.000000pt" height="33.000000pt" viewBox="0 0 26.000000 33.000000"
 preserveAspectRatio="xMidYMid meet">
<metadata>
Created by potrace 1.16, written by Peter Selinger 2001-2019
</metadata>
<g transform="translate(0.000000,33.000000) scale(0.100000,-0.100000)"
fill="#000000" stroke="none">
<path d="M4 307 l-5 -13 3 -115 3 -114 46 -3 47 -3 6 -30 6 -29 29 0 29 0 7
30 7 30 39 0 39 0 0 55 0 55 -24 -6 -23 -5 -17 16 -16 16 0 14 0 13 16 6 16 6
24 0 24 0 0 33 0 32 -8 13 -9 13 -41 -7 -42 -6 6 -9 5 -9 -6 -19 -6 -19 -25
-6 -25 -7 -14 15 -15 15 0 25 0 26 -35 0 -36 0 -5 -13z"/>
</g>
</svg>
