<?xml version="1.0" standalone="no"?>
<!DOCTYPE svg PUBLIC "-//W3C//DTD SVG 20010904//EN"
 "http://www.w3.org/TR/2001/REC-SVG-20010904/DTD/svg10.dtd">
<svg version="1.0" xmlns="http://www.w3.org/2000/svg"
 width="34.000000pt" height="29.000000pt" viewBox="0 0 34.000000 29.000000"
 preserveAspectRatio="xMidYMid meet">
<metadata>
Created by potrace 1.16, written by Peter Selinger 2001-2019
</metadata>
<g transform="translate(0.000000,29.000000) scale(0.100000,-0.100000)"
fill="#000000" stroke="none">
<path d="M7 273 l-7 -6 0 -119 0 -118 27 -11 27 -10 23 6 24 6 6 30 6 30 26
-3 26 -3 -2 -31 -3 -32 16 -6 16 -6 37 11 37 11 -4 34 -4 34 6 25 6 25 35 0
35 0 0 25 0 25 -30 -6 -29 -6 -16 15 -15 16 0 35 0 36 -34 0 -34 0 -7 -30 -7
-30 -29 0 -29 0 -6 30 -6 30 -43 0 -42 0 -6 -7z"/>
</g>
</svg>
