<?xml version="1.0" standalone="no"?>
<!DOCTYPE svg PUBLIC "-//W3C//DTD SVG 20010904//EN"
 "http://www.w3.org/TR/2001/REC-SVG-20010904/DTD/svg10.dtd">
<svg version="1.0" xmlns="http://www.w3.org/2000/svg"
 width="36.000000pt" height="31.000000pt" viewBox="0 0 36.000000 31.000000"
 preserveAspectRatio="xMidYMid meet">
<metadata>
Created by potrace 1.16, written by Peter Selinger 2001-2019
</metadata>
<g transform="translate(0.000000,31.000000) scale(0.100000,-0.100000)"
fill="#000000" stroke="none">
<path d="M2 169 l3 -143 32 -9 32 -10 26 7 26 7 6 30 6 30 16 -3 16 -3 -3 -32
-3 -31 21 -7 22 -7 44 12 44 13 -6 33 -6 34 6 25 6 25 35 0 35 0 0 36 0 37
-31 -7 -31 -6 -14 14 -14 15 0 35 0 36 -44 0 -44 0 -7 -30 -7 -30 -19 0 -19 0
-6 30 -6 30 -37 0 -36 0 -23 6 -23 6 3 -143z"/>
</g>
</svg>
