<?xml version="1.0" standalone="no"?>
<!DOCTYPE svg PUBLIC "-//W3C//DTD SVG 20010904//EN"
 "http://www.w3.org/TR/2001/REC-SVG-20010904/DTD/svg10.dtd">
<svg version="1.0" xmlns="http://www.w3.org/2000/svg"
 width="37.000000pt" height="29.000000pt" viewBox="0 0 37.000000 29.000000"
 preserveAspectRatio="xMidYMid meet">
<metadata>
Created by potrace 1.16, written by Peter Selinger 2001-2019
</metadata>
<g transform="translate(0.000000,29.000000) scale(0.100000,-0.100000)"
fill="#000000" stroke="none">
<path d="M0 145 l0 -145 134 0 134 0 16 6 16 6 0 39 0 39 21 0 20 0 15 14 14
15 0 26 0 26 -14 15 -15 14 -25 0 -26 0 0 31 0 32 -46 -7 -46 -6 -9 -6 -9 -5
0 -19 0 -18 -12 -5 -13 -4 -17 5 -18 4 0 34 0 34 -45 0 -45 0 0 10 0 10 -15 0
-15 0 0 -145z"/>
</g>
</svg>
