<?xml version="1.0" standalone="no"?>
<!DOCTYPE svg PUBLIC "-//W3C//DTD SVG 20010904//EN"
 "http://www.w3.org/TR/2001/REC-SVG-20010904/DTD/svg10.dtd">
<svg version="1.0" xmlns="http://www.w3.org/2000/svg"
 width="35.000000pt" height="27.000000pt" viewBox="0 0 35.000000 27.000000"
 preserveAspectRatio="xMidYMid meet">
<metadata>
Created by potrace 1.16, written by Peter Selinger 2001-2019
</metadata>
<g transform="translate(0.000000,27.000000) scale(0.100000,-0.100000)"
fill="#000000" stroke="none">
<path d="M0 125 l0 -125 124 0 124 0 16 6 16 6 0 39 0 39 21 0 20 0 15 14 14
15 0 16 0 16 -15 16 -16 15 -24 -6 -25 -6 0 36 0 36 -37 -7 -38 -7 -7 -4 -8
-5 0 -19 0 -18 -16 -6 -16 -6 -24 6 -24 6 0 34 0 34 -50 0 -50 0 0 -125z"/>
</g>
</svg>
