<?xml version="1.0" standalone="no"?>
<!DOCTYPE svg PUBLIC "-//W3C//DTD SVG 20010904//EN"
 "http://www.w3.org/TR/2001/REC-SVG-20010904/DTD/svg10.dtd">
<svg version="1.0" xmlns="http://www.w3.org/2000/svg"
 width="28.000000pt" height="38.000000pt" viewBox="0 0 28.000000 38.000000"
 preserveAspectRatio="xMidYMid meet">
<metadata>
Created by potrace 1.16, written by Peter Selinger 2001-2019
</metadata>
<g transform="translate(0.000000,38.000000) scale(0.100000,-0.100000)"
fill="#000000" stroke="none">
<path d="M2 233 l3 -148 35 -5 35 -5 3 -24 4 -24 13 -14 14 -13 23 0 23 0 23
6 22 6 0 39 0 39 31 0 32 0 -7 46 -6 46 -6 9 -5 9 -25 0 -24 0 0 9 0 9 6 16 6
16 40 6 39 7 -3 41 -3 41 -50 0 -50 0 0 -20 0 -20 -10 -11 -9 -11 -18 5 -17 4
-3 32 -3 31 -42 3 -43 3 0 10 0 9 -15 0 -16 0 3 -147z"/>
</g>
</svg>
