<?xml version="1.0" standalone="no"?>
<!DOCTYPE svg PUBLIC "-//W3C//DTD SVG 20010904//EN"
 "http://www.w3.org/TR/2001/REC-SVG-20010904/DTD/svg10.dtd">
<svg version="1.0" xmlns="http://www.w3.org/2000/svg"
 width="26.000000pt" height="36.000000pt" viewBox="0 0 26.000000 36.000000"
 preserveAspectRatio="xMidYMid meet">
<metadata>
Created by potrace 1.16, written by Peter Selinger 2001-2019
</metadata>
<g transform="translate(0.000000,36.000000) scale(0.100000,-0.100000)"
fill="#000000" stroke="none">
<path d="M5 327 l-6 -13 3 -114 3 -115 20 -3 20 -3 23 -5 23 -5 -6 -19 -6 -20
16 -16 16 -16 34 6 35 7 0 39 0 40 31 0 31 0 -7 37 -7 38 -4 7 -5 8 -25 0 -24
0 0 19 0 19 6 16 6 16 40 6 39 7 -3 31 -3 31 -40 0 -40 0 3 -18 3 -17 -15 -16
-15 -15 -25 7 -25 6 -3 31 -3 32 -43 3 -42 3 -5 -14z"/>
</g>
</svg>
