<?xml version="1.0" standalone="no"?>
<!DOCTYPE svg PUBLIC "-//W3C//DTD SVG 20010904//EN"
 "http://www.w3.org/TR/2001/REC-SVG-20010904/DTD/svg10.dtd">
<svg version="1.0" xmlns="http://www.w3.org/2000/svg"
 width="35.000000pt" height="36.000000pt" viewBox="0 0 35.000000 36.000000"
 preserveAspectRatio="xMidYMid meet">
<metadata>
Created by potrace 1.16, written by Peter Selinger 2001-2019
</metadata>
<g transform="translate(0.000000,36.000000) scale(0.100000,-0.100000)"
fill="#000000" stroke="none">
<path d="M197 348 l-39 -10 5 -19 5 -18 -15 -5 -15 -6 -25 0 -25 0 4 -23 4
-23 -14 -14 -15 -13 -33 1 -34 1 1 -64 2 -65 48 0 49 0 0 -31 0 -30 14 -15 15
-14 20 0 20 0 15 16 16 15 0 34 0 34 35 -6 35 -6 0 29 0 29 -10 15 -9 14 12 8
12 8 31 0 32 0 6 16 6 16 0 24 0 24 -34 0 -34 0 -6 16 -6 16 0 29 0 29 -17 -1
-18 -1 -38 -10z"/>
</g>
</svg>
