<?xml version="1.0" standalone="no"?>
<!DOCTYPE svg PUBLIC "-//W3C//DTD SVG 20010904//EN"
 "http://www.w3.org/TR/2001/REC-SVG-20010904/DTD/svg10.dtd">
<svg version="1.0" xmlns="http://www.w3.org/2000/svg"
 width="33.000000pt" height="34.000000pt" viewBox="0 0 33.000000 34.000000"
 preserveAspectRatio="xMidYMid meet">
<metadata>
Created by potrace 1.16, written by Peter Selinger 2001-2019
</metadata>
<g transform="translate(0.000000,34.000000) scale(0.100000,-0.100000)"
fill="#000000" stroke="none">
<path d="M198 328 l-37 -10 6 -15 6 -15 -14 -9 -14 -9 -28 0 -28 0 6 -20 6
-20 -17 -17 -17 -17 -34 0 -34 0 3 -53 3 -53 48 0 47 0 0 -31 0 -30 15 -15 15
-15 20 6 20 6 6 24 6 24 -7 22 -7 22 41 -7 41 -6 0 14 0 15 -11 25 -12 25 15
14 14 15 28 -5 28 -6 9 14 9 14 0 18 0 17 -34 0 -34 0 -6 16 -6 16 0 29 0 29
-7 -1 -8 -1 -37 -10z"/>
</g>
</svg>
