<?xml version="1.0" standalone="no"?>
<!DOCTYPE svg PUBLIC "-//W3C//DTD SVG 20010904//EN"
 "http://www.w3.org/TR/2001/REC-SVG-20010904/DTD/svg10.dtd">
<svg version="1.0" xmlns="http://www.w3.org/2000/svg"
 width="35.000000pt" height="35.000000pt" viewBox="0 0 35.000000 35.000000"
 preserveAspectRatio="xMidYMid meet">
<metadata>
Created by potrace 1.16, written by Peter Selinger 2001-2019
</metadata>
<g transform="translate(0.000000,35.000000) scale(0.100000,-0.100000)"
fill="#000000" stroke="none">
<path d="M113 342 l-33 -3 0 -35 0 -35 -15 -15 -14 -15 -26 7 -25 6 0 -25 0
-25 34 -6 34 -6 7 -55 6 -55 39 0 40 0 -7 -31 -6 -31 14 -9 14 -9 27 0 28 0 6
25 6 25 -4 25 -5 25 23 0 23 0 26 -12 25 -11 4 4 3 4 6 47 7 47 -28 -5 -27 -5
-22 21 -23 21 0 13 0 14 16 6 16 6 18 0 18 0 6 16 6 16 0 25 0 25 -22 -6 -23
-6 -17 0 -18 0 0 -16 0 -15 -14 -15 -15 -14 -18 0 -18 0 -14 9 -14 9 -6 33 -6
34 -32 -3z"/>
</g>
</svg>
