<?xml version="1.0" standalone="no"?>
<!DOCTYPE svg PUBLIC "-//W3C//DTD SVG 20010904//EN"
 "http://www.w3.org/TR/2001/REC-SVG-20010904/DTD/svg10.dtd">
<svg version="1.0" xmlns="http://www.w3.org/2000/svg"
 width="26.000000pt" height="36.000000pt" viewBox="0 0 26.000000 36.000000"
 preserveAspectRatio="xMidYMid meet">
<metadata>
Created by potrace 1.16, written by Peter Selinger 2001-2019
</metadata>
<g transform="translate(0.000000,36.000000) scale(0.100000,-0.100000)"
fill="#000000" stroke="none">
<path d="M166 336 l6 -25 -7 -20 -6 -20 -20 -6 -19 -6 -15 15 -15 15 0 30 0
31 -45 0 -45 0 0 -39 0 -38 40 -7 40 -6 0 -35 0 -35 -23 0 -22 0 -11 -33 -11
-32 -8 -17 -7 -18 42 0 41 0 -6 -11 -7 -10 12 -29 12 -29 19 -6 19 -6 16 16
16 16 -5 13 -6 14 37 7 37 6 13 8 12 7 -11 57 -12 57 -17 -5 -17 -5 -17 6 -16
6 0 24 0 24 23 4 22 5 20 3 20 3 3 41 3 41 -32 7 -31 6 -14 0 -14 0 6 -24z"/>
</g>
</svg>
