<?xml version="1.0" standalone="no"?>
<!DOCTYPE svg PUBLIC "-//W3C//DTD SVG 20010904//EN"
 "http://www.w3.org/TR/2001/REC-SVG-20010904/DTD/svg10.dtd">
<svg version="1.0" xmlns="http://www.w3.org/2000/svg"
 width="28.000000pt" height="38.000000pt" viewBox="0 0 28.000000 38.000000"
 preserveAspectRatio="xMidYMid meet">
<metadata>
Created by potrace 1.16, written by Peter Selinger 2001-2019
</metadata>
<g transform="translate(0.000000,38.000000) scale(0.100000,-0.100000)"
fill="#000000" stroke="none">
<path d="M164 346 l7 -34 -16 -16 -16 -16 -15 14 -14 15 0 30 0 31 -55 0 -55
0 0 -49 0 -48 40 -7 40 -6 0 -25 0 -25 -23 0 -22 0 -13 -37 -13 -38 -6 -23 -5
-22 35 0 35 0 5 -29 6 -29 16 -16 16 -16 20 0 20 0 15 14 14 15 0 14 0 15 45
11 45 11 0 13 0 14 -11 57 -12 57 -21 -2 -21 -1 -12 1 -13 1 0 14 0 14 16 6
16 6 24 0 25 0 3 13 4 12 6 46 5 45 -61 2 -60 2 6 -34z"/>
</g>
</svg>
