<?xml version="1.0" standalone="no"?>
<!DOCTYPE svg PUBLIC "-//W3C//DTD SVG 20010904//EN"
 "http://www.w3.org/TR/2001/REC-SVG-20010904/DTD/svg10.dtd">
<svg version="1.0" xmlns="http://www.w3.org/2000/svg"
 width="37.000000pt" height="37.000000pt" viewBox="0 0 37.000000 37.000000"
 preserveAspectRatio="xMidYMid meet">
<metadata>
Created by potrace 1.16, written by Peter Selinger 2001-2019
</metadata>
<g transform="translate(0.000000,37.000000) scale(0.100000,-0.100000)"
fill="#000000" stroke="none">
<path d="M113 363 l-33 -4 0 -35 0 -35 -12 -12 -12 -13 -28 4 -28 4 0 -35 0
-35 34 -6 34 -6 7 -55 6 -55 35 0 34 0 0 -34 0 -34 16 -6 16 -6 33 0 33 0 6
16 6 16 0 35 0 35 23 -7 22 -7 28 -5 27 -5 0 23 0 24 7 39 6 39 -30 -6 -30 -6
-23 21 -22 21 14 8 13 9 22 0 23 0 4 23 5 22 6 38 6 37 -16 0 -16 0 -15 -15
-15 -15 -25 0 -24 0 0 -16 0 -15 -14 -15 -15 -14 -10 0 -10 0 -15 16 -16 15 0
30 0 29 -12 -2 -13 -1 -32 -4z"/>
</g>
</svg>
