<?xml version="1.0" standalone="no"?>
<!DOCTYPE svg PUBLIC "-//W3C//DTD SVG 20010904//EN"
 "http://www.w3.org/TR/2001/REC-SVG-20010904/DTD/svg10.dtd">
<svg version="1.0" xmlns="http://www.w3.org/2000/svg"
 width="39.000000pt" height="30.000000pt" viewBox="0 0 39.000000 30.000000"
 preserveAspectRatio="xMidYMid meet">
<metadata>
Created by potrace 1.16, written by Peter Selinger 2001-2019
</metadata>
<g transform="translate(0.000000,30.000000) scale(0.100000,-0.100000)"
fill="#000000" stroke="none">
<path d="M253 282 l-43 -3 0 -24 0 -24 -16 -15 -15 -16 -9 0 -8 0 -16 6 -16 6
0 34 0 34 -55 0 -55 0 0 -34 0 -34 6 -16 6 -16 34 0 34 0 0 -17 0 -18 -9 -14
-9 -14 -28 6 -28 5 -14 -14 -14 -15 13 -32 12 -32 3 -3 2 -4 39 -9 38 -8 18 5
17 5 0 40 0 39 20 0 20 0 5 -25 5 -25 5 -26 6 -25 32 6 32 6 18 6 19 5 -6 24
-6 24 -6 24 -6 25 20 -6 21 -5 35 12 36 12 0 24 0 24 -40 6 -40 7 0 43 0 43
-7 3 -8 3 -42 -3z"/>
</g>
</svg>
