<?xml version="1.0" standalone="no"?>
<!DOCTYPE svg PUBLIC "-//W3C//DTD SVG 20010904//EN"
 "http://www.w3.org/TR/2001/REC-SVG-20010904/DTD/svg10.dtd">
<svg version="1.0" xmlns="http://www.w3.org/2000/svg"
 width="35.000000pt" height="30.000000pt" viewBox="0 0 35.000000 30.000000"
 preserveAspectRatio="xMidYMid meet">
<metadata>
Created by potrace 1.16, written by Peter Selinger 2001-2019
</metadata>
<g transform="translate(0.000000,30.000000) scale(0.100000,-0.100000)"
fill="#000000" stroke="none">
<path d="M0 266 l0 -34 6 -30 6 -30 28 -6 28 -5 -5 -21 -5 -20 -24 0 -24 0 0
-29 0 -29 -6 -31 -6 -31 51 0 52 0 15 14 14 15 0 15 0 16 14 0 15 0 6 -19 6
-19 31 -6 30 -6 25 0 24 0 -7 36 -7 36 14 9 14 9 22 0 23 0 6 25 6 25 -6 15
-5 15 -25 0 -24 0 -14 5 -13 5 4 47 3 46 -23 -7 -24 -6 -28 -7 -29 -6 -10 -22
-10 -23 -19 5 -19 5 0 29 0 29 -40 0 -40 0 0 10 0 10 -15 0 -15 0 0 -34z"/>
</g>
</svg>
