<?xml version="1.0" standalone="no"?>
<!DOCTYPE svg PUBLIC "-//W3C//DTD SVG 20010904//EN"
 "http://www.w3.org/TR/2001/REC-SVG-20010904/DTD/svg10.dtd">
<svg version="1.0" xmlns="http://www.w3.org/2000/svg"
 width="33.000000pt" height="28.000000pt" viewBox="0 0 33.000000 28.000000"
 preserveAspectRatio="xMidYMid meet">
<metadata>
Created by potrace 1.16, written by Peter Selinger 2001-2019
</metadata>
<g transform="translate(0.000000,28.000000) scale(0.100000,-0.100000)"
fill="#000000" stroke="none">
<path d="M0 246 l0 -13 6 -32 6 -31 17 0 16 0 13 -9 13 -8 -7 -26 -6 -27 -24
0 -24 0 0 -34 0 -34 -6 -16 -6 -16 42 0 41 0 15 14 14 15 0 15 0 16 24 0 25 0
6 -19 6 -19 31 -6 31 -6 11 0 12 0 -4 36 -4 36 13 9 14 9 22 0 22 0 6 20 6 20
-6 10 -6 10 -24 0 -23 0 -16 6 -15 6 6 43 6 44 -43 -13 -42 -12 -11 -20 -10
-19 -2 -3 -3 -3 -26 7 -26 6 0 29 0 29 -45 0 -45 0 0 -14z"/>
</g>
</svg>
