<?xml version="1.0" standalone="no"?>
<!DOCTYPE svg PUBLIC "-//W3C//DTD SVG 20010904//EN"
 "http://www.w3.org/TR/2001/REC-SVG-20010904/DTD/svg10.dtd">
<svg version="1.0" xmlns="http://www.w3.org/2000/svg"
 width="41.000000pt" height="32.000000pt" viewBox="0 0 41.000000 32.000000"
 preserveAspectRatio="xMidYMid meet">
<metadata>
Created by potrace 1.16, written by Peter Selinger 2001-2019
</metadata>
<g transform="translate(0.000000,32.000000) scale(0.100000,-0.100000)"
fill="#000000" stroke="none">
<path d="M33 305 l-13 -14 0 -40 0 -39 6 -16 6 -16 34 0 34 0 0 -7 0 -8 -9
-13 -8 -13 -26 6 -26 7 -16 -15 -15 -16 0 -15 0 -15 12 -28 13 -28 9 -7 9 -6
42 -6 42 -7 16 7 17 6 0 39 0 39 10 0 10 0 5 -25 5 -25 5 -26 6 -26 46 7 46 7
14 5 15 6 -7 43 -6 44 19 0 19 0 32 11 31 11 0 34 0 34 -40 6 -40 7 0 43 0 43
-7 4 -8 5 -52 -5 -53 -6 0 -23 0 -23 -15 -15 -16 -15 -14 5 -15 6 0 34 0 34
-40 0 -40 0 0 10 0 10 -12 0 -13 -1 -12 -14z"/>
</g>
</svg>
