<?xml version="1.0" standalone="no"?>
<!DOCTYPE svg PUBLIC "-//W3C//DTD SVG 20010904//EN"
 "http://www.w3.org/TR/2001/REC-SVG-20010904/DTD/svg10.dtd">
<svg version="1.0" xmlns="http://www.w3.org/2000/svg"
 width="43.000000pt" height="37.000000pt" viewBox="0 0 43.000000 37.000000"
 preserveAspectRatio="xMidYMid meet">
<metadata>
Created by potrace 1.16, written by Peter Selinger 2001-2019
</metadata>
<g transform="translate(0.000000,37.000000) scale(0.100000,-0.100000)"
fill="#000000" stroke="none">
<path d="M77 363 l-7 -6 0 -23 0 -23 -12 -26 -11 -25 -24 0 -23 0 0 -29 0 -29
36 -7 37 -6 -7 -55 -6 -54 35 0 35 0 0 -18 0 -19 19 -21 18 -22 22 0 21 0 0
10 0 10 15 0 14 0 7 35 6 35 38 0 38 0 6 16 6 16 0 28 0 27 39 7 39 6 6 16 6
16 0 15 0 14 -13 14 -14 13 -24 4 -24 3 -3 43 -3 42 -133 0 -133 0 -6 -7z"/>
</g>
</svg>
