<?xml version="1.0" standalone="no"?>
<!DOCTYPE svg PUBLIC "-//W3C//DTD SVG 20010904//EN"
 "http://www.w3.org/TR/2001/REC-SVG-20010904/DTD/svg10.dtd">
<svg version="1.0" xmlns="http://www.w3.org/2000/svg"
 width="41.000000pt" height="35.000000pt" viewBox="0 0 41.000000 35.000000"
 preserveAspectRatio="xMidYMid meet">
<metadata>
Created by potrace 1.16, written by Peter Selinger 2001-2019
</metadata>
<g transform="translate(0.000000,35.000000) scale(0.100000,-0.100000)"
fill="#000000" stroke="none">
<path d="M77 343 l-7 -6 0 -23 0 -23 -12 -26 -11 -25 -24 0 -23 0 0 -19 0 -19
36 -7 36 -6 -4 -55 -5 -54 34 0 33 0 0 -18 0 -19 19 -21 18 -22 12 0 11 0 0
10 0 10 14 0 14 0 6 25 7 26 -6 9 -6 10 46 0 46 0 -6 10 -6 10 10 0 11 0 0 41
0 41 16 -6 16 -6 23 6 24 6 6 19 6 19 -16 16 -16 16 -16 -6 -16 -7 -9 13 -8
13 0 38 0 37 -123 0 -124 0 -6 -7z"/>
</g>
</svg>
