<?xml version="1.0" standalone="no"?>
<!DOCTYPE svg PUBLIC "-//W3C//DTD SVG 20010904//EN"
 "http://www.w3.org/TR/2001/REC-SVG-20010904/DTD/svg10.dtd">
<svg version="1.0" xmlns="http://www.w3.org/2000/svg"
 width="27.000000pt" height="32.000000pt" viewBox="0 0 27.000000 32.000000"
 preserveAspectRatio="xMidYMid meet">
<metadata>
Created by potrace 1.16, written by Peter Selinger 2001-2019
</metadata>
<g transform="translate(0.000000,32.000000) scale(0.100000,-0.100000)"
fill="#000000" stroke="none">
<path d="M100 289 l0 -31 -50 4 -50 3 0 -132 0 -133 43 0 42 0 14 9 14 9 1 31
1 31 24 0 23 0 -6 -25 -7 -26 15 -14 15 -15 24 0 25 0 16 6 16 6 0 22 0 21 -6
22 -6 22 -18 6 -18 6 -5 18 -5 19 8 12 8 13 10 -7 10 -6 16 6 16 6 0 54 0 54
-34 0 -34 0 -16 6 -16 6 0 14 0 14 -35 0 -35 0 0 -31z"/>
</g>
</svg>
