<?xml version="1.0" standalone="no"?>
<!DOCTYPE svg PUBLIC "-//W3C//DTD SVG 20010904//EN"
 "http://www.w3.org/TR/2001/REC-SVG-20010904/DTD/svg10.dtd">
<svg version="1.0" xmlns="http://www.w3.org/2000/svg"
 width="29.000000pt" height="34.000000pt" viewBox="0 0 29.000000 34.000000"
 preserveAspectRatio="xMidYMid meet">
<metadata>
Created by potrace 1.16, written by Peter Selinger 2001-2019
</metadata>
<g transform="translate(0.000000,34.000000) scale(0.100000,-0.100000)"
fill="#000000" stroke="none">
<path d="M100 309 l0 -32 -50 6 -50 6 0 -144 0 -145 49 0 49 0 16 6 15 6 7 34
6 34 8 0 7 0 -4 -25 -5 -24 15 -16 16 -15 34 0 35 0 16 6 16 6 0 32 0 31 -6
22 -6 22 -19 6 -19 6 0 13 0 13 30 6 30 6 0 66 0 65 -34 0 -34 0 -16 6 -16 6
0 14 0 14 -45 0 -45 0 0 -31z"/>
</g>
</svg>
