<?xml version="1.0" standalone="no"?>
<!DOCTYPE svg PUBLIC "-//W3C//DTD SVG 20010904//EN"
 "http://www.w3.org/TR/2001/REC-SVG-20010904/DTD/svg10.dtd">
<svg version="1.0" xmlns="http://www.w3.org/2000/svg"
 width="26.000000pt" height="27.000000pt" viewBox="0 0 26.000000 27.000000"
 preserveAspectRatio="xMidYMid meet">
<metadata>
Created by potrace 1.16, written by Peter Selinger 2001-2019
</metadata>
<g transform="translate(0.000000,27.000000) scale(0.100000,-0.100000)"
fill="#000000" stroke="none">
<path d="M22 263 l-23 -5 3 -31 3 -32 35 -3 35 -4 7 -11 8 -12 0 -22 0 -21
-28 -6 -27 -7 -12 -37 -12 -37 -6 -17 -7 -18 40 0 40 0 16 6 16 6 0 35 0 34
22 -3 22 -3 8 -33 9 -32 13 0 14 0 31 -6 31 -7 0 52 0 51 -29 0 -30 0 -15 16
-16 15 0 13 0 13 19 22 20 23 20 -7 21 -6 0 35 0 36 -45 0 -45 0 0 -26 0 -25
-15 -15 -15 -15 -19 6 -20 6 -7 22 -8 22 3 18 2 17 -18 -1 -18 -2 -23 -4z"/>
</g>
</svg>
