<?xml version="1.0" standalone="no"?>
<!DOCTYPE svg PUBLIC "-//W3C//DTD SVG 20010904//EN"
 "http://www.w3.org/TR/2001/REC-SVG-20010904/DTD/svg10.dtd">
<svg version="1.0" xmlns="http://www.w3.org/2000/svg"
 width="28.000000pt" height="29.000000pt" viewBox="0 0 28.000000 29.000000"
 preserveAspectRatio="xMidYMid meet">
<metadata>
Created by potrace 1.16, written by Peter Selinger 2001-2019
</metadata>
<g transform="translate(0.000000,29.000000) scale(0.100000,-0.100000)"
fill="#000000" stroke="none">
<path d="M22 283 l-23 -5 3 -41 3 -42 35 -3 35 -4 7 -11 8 -12 0 -12 0 -11
-27 -7 -28 -6 -17 -53 -18 -53 0 -11 0 -12 49 0 49 0 16 6 16 6 0 35 0 35 12
-4 12 -4 8 -31 8 -30 37 -7 38 -6 18 0 17 0 0 60 0 60 -29 0 -30 0 -15 16 -16
16 7 11 7 12 10 11 10 10 23 -4 23 -4 0 46 0 46 -55 0 -55 0 0 -26 0 -25 -14
-15 -15 -14 -15 16 -16 15 0 30 0 29 -27 -1 -28 -2 -23 -4z"/>
</g>
</svg>
