<?xml version="1.0" standalone="no"?>
<!DOCTYPE svg PUBLIC "-//W3C//DTD SVG 20010904//EN"
 "http://www.w3.org/TR/2001/REC-SVG-20010904/DTD/svg10.dtd">
<svg version="1.0" xmlns="http://www.w3.org/2000/svg"
 width="37.000000pt" height="37.000000pt" viewBox="0 0 37.000000 37.000000"
 preserveAspectRatio="xMidYMid meet">
<metadata>
Created by potrace 1.16, written by Peter Selinger 2001-2019
</metadata>
<g transform="translate(0.000000,37.000000) scale(0.100000,-0.100000)"
fill="#000000" stroke="none">
<path d="M80 345 l0 -24 -12 -26 -11 -25 -29 0 -29 0 3 -37 3 -38 20 0 20 0
12 -20 12 -20 1 -38 0 -39 28 2 27 2 18 -1 17 -1 0 -34 0 -34 16 -6 16 -6 18
0 19 0 15 16 16 15 0 25 0 24 38 0 37 0 13 9 14 8 5 60 6 60 -24 6 -24 7 -22
0 -23 0 0 10 0 10 24 0 24 0 16 6 16 6 0 54 0 54 -12 0 -13 0 -45 -14 -45 -13
-3 -21 -3 -21 -20 -6 -19 -6 -15 15 -16 15 7 26 6 25 -51 0 -51 0 0 -25z"/>
</g>
</svg>
