<?xml version="1.0" standalone="no"?>
<!DOCTYPE svg PUBLIC "-//W3C//DTD SVG 20010904//EN"
 "http://www.w3.org/TR/2001/REC-SVG-20010904/DTD/svg10.dtd">
<svg version="1.0" xmlns="http://www.w3.org/2000/svg"
 width="35.000000pt" height="37.000000pt" viewBox="0 0 35.000000 37.000000"
 preserveAspectRatio="xMidYMid meet">
<metadata>
Created by potrace 1.16, written by Peter Selinger 2001-2019
</metadata>
<g transform="translate(0.000000,37.000000) scale(0.100000,-0.100000)"
fill="#000000" stroke="none">
<path d="M94 353 l-6 -18 -10 -27 -10 -27 -31 -3 -32 -3 -3 -31 -3 -31 29 -6
29 -6 6 -30 6 -31 -5 -15 -6 -14 17 -17 16 -16 35 5 34 6 0 -29 0 -29 16 -15
15 -16 20 0 20 0 15 14 14 15 0 25 0 26 45 0 45 0 0 19 0 18 -6 47 -7 46 -27
0 -28 0 -4 13 -5 12 4 12 4 12 35 7 34 6 0 45 0 46 -31 -7 -31 -6 -19 0 -19 0
0 -24 0 -25 -19 -6 -18 -5 -15 5 -14 6 4 28 4 28 -32 7 -32 6 -15 0 -14 0 -5
-17z"/>
</g>
</svg>
