<?xml version="1.0" standalone="no"?>
<!DOCTYPE svg PUBLIC "-//W3C//DTD SVG 20010904//EN"
 "http://www.w3.org/TR/2001/REC-SVG-20010904/DTD/svg10.dtd">
<svg version="1.0" xmlns="http://www.w3.org/2000/svg"
 width="35.000000pt" height="35.000000pt" viewBox="0 0 35.000000 35.000000"
 preserveAspectRatio="xMidYMid meet">
<metadata>
Created by potrace 1.16, written by Peter Selinger 2001-2019
</metadata>
<g transform="translate(0.000000,35.000000) scale(0.100000,-0.100000)"
fill="#000000" stroke="none">
<path d="M80 325 l0 -24 -12 -26 -11 -25 -29 0 -29 0 3 -27 3 -28 21 3 20 3
12 -26 12 -26 0 -36 0 -35 22 5 22 6 23 -5 23 -6 0 -33 0 -33 16 -6 16 -6 8 0
9 0 15 16 16 15 0 25 0 24 38 0 37 0 13 8 13 9 5 50 6 50 -23 6 -24 7 -22 0
-23 0 0 20 0 20 24 0 24 0 16 6 16 6 0 44 0 44 -2 0 -3 0 -45 -14 -45 -13 -4
-19 -3 -19 -12 -7 -11 -8 -18 0 -18 0 -16 15 -15 16 5 24 4 25 -38 0 -39 0 0
-25z"/>
</g>
</svg>
