<?xml version="1.0" standalone="no"?>
<!DOCTYPE svg PUBLIC "-//W3C//DTD SVG 20010904//EN"
 "http://www.w3.org/TR/2001/REC-SVG-20010904/DTD/svg10.dtd">
<svg version="1.0" xmlns="http://www.w3.org/2000/svg"
 width="33.000000pt" height="35.000000pt" viewBox="0 0 33.000000 35.000000"
 preserveAspectRatio="xMidYMid meet">
<metadata>
Created by potrace 1.16, written by Peter Selinger 2001-2019
</metadata>
<g transform="translate(0.000000,35.000000) scale(0.100000,-0.100000)"
fill="#000000" stroke="none">
<path d="M94 334 l-6 -19 -10 -27 -10 -27 -31 -3 -32 -3 -3 -21 -3 -21 30 -6
29 -6 7 -41 7 -41 -6 -6 -5 -5 14 -15 15 -14 35 7 35 6 0 -30 0 -31 16 -15 15
-16 10 0 10 0 15 14 14 15 0 25 0 26 46 0 47 0 -7 37 -6 38 0 18 0 17 -29 0
-30 0 -6 19 -5 18 6 16 6 16 34 7 34 6 0 35 0 35 -16 -6 -16 -6 -24 0 -24 0 0
-25 0 -25 -24 -6 -25 -6 -21 7 -21 7 6 29 7 29 -14 0 -13 0 -22 6 -23 6 -6
-18z"/>
</g>
</svg>
