<?xml version="1.0" standalone="no"?>
<!DOCTYPE svg PUBLIC "-//W3C//DTD SVG 20010904//EN"
 "http://www.w3.org/TR/2001/REC-SVG-20010904/DTD/svg10.dtd">
<svg version="1.0" xmlns="http://www.w3.org/2000/svg"
 width="40.000000pt" height="44.000000pt" viewBox="0 0 40.000000 44.000000"
 preserveAspectRatio="xMidYMid meet">
<metadata>
Created by potrace 1.16, written by Peter Selinger 2001-2019
</metadata>
<g transform="translate(0.000000,44.000000) scale(0.100000,-0.100000)"
fill="#000000" stroke="none">
<path d="M133 434 l-13 -6 0 -26 0 -27 -9 -13 -8 -14 -47 7 -46 7 0 -35 0 -34
6 -32 7 -31 38 0 39 0 0 -10 0 -10 -34 0 -34 0 -16 -6 -16 -6 0 -39 0 -38 12
-26 12 -26 25 2 26 1 21 -1 21 -1 -5 -26 -5 -26 14 -9 14 -9 27 0 26 0 16 6
16 6 0 24 0 24 28 0 29 0 22 19 23 20 -7 30 -7 31 26 0 26 0 0 10 0 10 15 0
14 0 7 35 6 34 -15 16 -16 15 -25 0 -26 0 0 44 0 43 -45 1 -46 1 -13 14 -14
13 -4 20 -3 19 -25 2 -25 2 -12 -5z"/>
</g>
</svg>
