<?xml version="1.0" standalone="no"?>
<!DOCTYPE svg PUBLIC "-//W3C//DTD SVG 20010904//EN"
 "http://www.w3.org/TR/2001/REC-SVG-20010904/DTD/svg10.dtd">
<svg version="1.0" xmlns="http://www.w3.org/2000/svg"
 width="31.000000pt" height="26.000000pt" viewBox="0 0 31.000000 26.000000"
 preserveAspectRatio="xMidYMid meet">
<metadata>
Created by potrace 1.16, written by Peter Selinger 2001-2019
</metadata>
<g transform="translate(0.000000,26.000000) scale(0.100000,-0.100000)"
fill="#000000" stroke="none">
<path d="M0 220 l0 -40 26 0 25 0 15 -14 14 -15 0 -9 0 -9 -19 -22 -20 -23
-20 7 -21 6 0 -50 0 -51 30 0 29 0 26 12 25 11 0 18 0 18 9 6 9 5 15 -15 15
-15 4 -9 3 -10 43 -7 42 -7 0 56 0 55 30 7 30 7 0 18 0 19 -23 7 -22 7 -7 11
-8 11 0 29 0 28 -16 -6 -16 -6 -24 0 -25 0 6 -21 7 -21 -13 -9 -14 -9 -27 0
-28 0 0 35 0 35 -50 0 -50 0 0 -40z"/>
</g>
</svg>
