<?xml version="1.0" standalone="no"?>
<!DOCTYPE svg PUBLIC "-//W3C//DTD SVG 20010904//EN"
 "http://www.w3.org/TR/2001/REC-SVG-20010904/DTD/svg10.dtd">
<svg version="1.0" xmlns="http://www.w3.org/2000/svg"
 width="38.000000pt" height="42.000000pt" viewBox="0 0 38.000000 42.000000"
 preserveAspectRatio="xMidYMid meet">
<metadata>
Created by potrace 1.16, written by Peter Selinger 2001-2019
</metadata>
<g transform="translate(0.000000,42.000000) scale(0.100000,-0.100000)"
fill="#000000" stroke="none">
<path d="M133 413 l-13 -5 0 -26 0 -27 -9 -14 -9 -14 -46 6 -46 7 0 -24 0 -24
6 -31 7 -31 38 0 39 0 0 -20 0 -20 -34 0 -34 0 -16 -6 -16 -6 0 -29 0 -28 12
-26 12 -26 19 5 20 5 29 -6 29 -6 -6 -27 -6 -28 21 -7 21 -7 25 6 24 6 0 25 0
25 28 0 29 0 20 18 20 17 -5 38 -4 38 26 -7 26 -6 0 11 0 11 14 0 14 0 6 25 7
26 -16 16 -16 15 -24 -5 -25 -4 0 46 0 46 -46 3 -46 2 -13 13 -13 13 -4 20 -3
19 -15 2 -15 2 -12 -6z"/>
</g>
</svg>
