<?xml version="1.0" standalone="no"?>
<!DOCTYPE svg PUBLIC "-//W3C//DTD SVG 20010904//EN"
 "http://www.w3.org/TR/2001/REC-SVG-20010904/DTD/svg10.dtd">
<svg version="1.0" xmlns="http://www.w3.org/2000/svg"
 width="33.000000pt" height="28.000000pt" viewBox="0 0 33.000000 28.000000"
 preserveAspectRatio="xMidYMid meet">
<metadata>
Created by potrace 1.16, written by Peter Selinger 2001-2019
</metadata>
<g transform="translate(0.000000,28.000000) scale(0.100000,-0.100000)"
fill="#000000" stroke="none">
<path d="M0 230 l0 -50 26 0 25 0 14 -14 14 -14 -17 -19 -17 -18 -22 3 -23 3
0 -60 0 -61 40 0 39 0 26 12 25 11 0 19 0 18 9 0 10 0 6 -19 6 -19 31 -6 31
-6 23 0 24 0 0 54 0 54 30 7 30 7 0 28 0 29 -22 7 -23 7 -7 11 -8 11 0 29 0
29 -31 -7 -31 -6 -20 0 -20 0 4 -24 5 -25 -14 -5 -15 -6 -14 0 -14 0 0 35 0
35 -60 0 -60 0 0 -50z"/>
</g>
</svg>
