<?xml version="1.0" standalone="no"?>
<!DOCTYPE svg PUBLIC "-//W3C//DTD SVG 20010904//EN"
 "http://www.w3.org/TR/2001/REC-SVG-20010904/DTD/svg10.dtd">
<svg version="1.0" xmlns="http://www.w3.org/2000/svg"
 width="46.000000pt" height="37.000000pt" viewBox="0 0 46.000000 37.000000"
 preserveAspectRatio="xMidYMid meet">
<metadata>
Created by potrace 1.16, written by Peter Selinger 2001-2019
</metadata>
<g transform="translate(0.000000,37.000000) scale(0.100000,-0.100000)"
fill="#000000" stroke="none">
<path d="M200 330 l0 -40 -12 -1 -13 -1 -42 2 -42 1 -3 -43 -3 -43 -20 -3 -20
-3 -22 -5 -23 -4 0 -34 0 -34 16 -6 16 -6 18 0 19 0 7 -37 7 -37 13 -13 13
-13 46 0 46 0 15 14 14 15 0 18 0 18 10 -15 10 -15 0 -22 0 -23 51 0 50 0 16
15 15 15 -7 40 -7 40 30 0 31 0 15 16 16 15 0 24 0 24 -35 7 -35 6 0 39 0 40
-13 5 -14 5 -41 -10 -42 -9 -5 24 -5 24 -5 25 -5 25 -30 0 -30 0 0 -40z"/>
</g>
</svg>
