<?xml version="1.0" standalone="no"?>
<!DOCTYPE svg PUBLIC "-//W3C//DTD SVG 20010904//EN"
 "http://www.w3.org/TR/2001/REC-SVG-20010904/DTD/svg10.dtd">
<svg version="1.0" xmlns="http://www.w3.org/2000/svg"
 width="34.000000pt" height="34.000000pt" viewBox="0 0 34.000000 34.000000"
 preserveAspectRatio="xMidYMid meet">
<metadata>
Created by potrace 1.16, written by Peter Selinger 2001-2019
</metadata>
<g transform="translate(0.000000,34.000000) scale(0.100000,-0.100000)"
fill="#000000" stroke="none">
<path d="M125 320 l6 -20 -16 -16 -16 -16 -45 4 -45 3 -6 -23 -5 -22 12 -30
12 -30 24 0 24 0 0 -20 0 -20 -15 0 -14 0 -11 -41 -11 -42 5 -23 6 -24 34 0
34 0 6 16 6 16 0 23 0 24 20 6 20 6 10 -6 10 -6 0 -15 0 -15 13 -13 12 -13 43
-6 42 -7 0 12 0 13 10 36 10 37 20 5 20 5 0 27 0 26 -20 -6 -20 -6 -15 15 -15
15 -1 48 -1 48 -5 -12 -5 -13 -44 0 -44 0 0 21 0 20 -10 20 -11 19 -15 0 -15
0 6 -20z"/>
</g>
</svg>
