<?xml version="1.0" standalone="no"?>
<!DOCTYPE svg PUBLIC "-//W3C//DTD SVG 20010904//EN"
 "http://www.w3.org/TR/2001/REC-SVG-20010904/DTD/svg10.dtd">
<svg version="1.0" xmlns="http://www.w3.org/2000/svg"
 width="44.000000pt" height="35.000000pt" viewBox="0 0 44.000000 35.000000"
 preserveAspectRatio="xMidYMid meet">
<metadata>
Created by potrace 1.16, written by Peter Selinger 2001-2019
</metadata>
<g transform="translate(0.000000,35.000000) scale(0.100000,-0.100000)"
fill="#000000" stroke="none">
<path d="M200 311 l0 -39 -14 -5 -14 -5 -40 5 -41 5 -3 -43 -3 -44 -20 -3 -20
-3 -22 -5 -23 -4 0 -24 0 -24 16 -6 17 -6 17 5 18 6 7 -43 7 -42 13 -13 14
-13 36 0 36 0 15 15 15 15 -6 20 -6 20 15 0 15 0 11 -19 10 -20 0 -20 0 -21
41 0 40 0 15 15 15 14 -7 28 -6 28 -5 18 -5 18 35 -6 34 -7 16 17 17 16 0 14
0 13 -25 6 -26 7 -9 -6 -9 -5 -3 47 -3 48 -18 -1 -17 -2 -35 -6 -34 -7 -6 28
-6 28 -5 23 -4 22 -20 0 -20 0 0 -39z"/>
</g>
</svg>
