<?xml version="1.0" standalone="no"?>
<!DOCTYPE svg PUBLIC "-//W3C//DTD SVG 20010904//EN"
 "http://www.w3.org/TR/2001/REC-SVG-20010904/DTD/svg10.dtd">
<svg version="1.0" xmlns="http://www.w3.org/2000/svg"
 width="36.000000pt" height="36.000000pt" viewBox="0 0 36.000000 36.000000"
 preserveAspectRatio="xMidYMid meet">
<metadata>
Created by potrace 1.16, written by Peter Selinger 2001-2019
</metadata>
<g transform="translate(0.000000,36.000000) scale(0.100000,-0.100000)"
fill="#000000" stroke="none">
<path d="M122 337 l4 -23 -14 -13 -14 -13 -43 5 -43 6 -6 -15 -6 -16 0 -23 0
-24 12 -26 11 -25 24 0 23 0 0 -10 0 -10 -15 0 -14 0 -10 -37 -11 -38 0 -22 0
-21 6 -16 6 -16 43 0 43 0 6 16 6 16 0 23 0 23 14 5 14 6 6 -6 6 -6 0 -14 0
-14 13 -14 13 -13 52 -7 52 -7 0 14 0 13 10 36 10 37 20 5 20 5 0 37 0 37 -23
-4 -23 -4 -12 12 -12 13 0 46 0 45 -15 0 -15 0 0 -10 0 -10 -35 0 -35 0 0 21
0 20 -10 20 -11 19 -26 0 -25 0 4 -23z"/>
</g>
</svg>
