<?xml version="1.0" standalone="no"?>
<!DOCTYPE svg PUBLIC "-//W3C//DTD SVG 20010904//EN"
 "http://www.w3.org/TR/2001/REC-SVG-20010904/DTD/svg10.dtd">
<svg version="1.0" xmlns="http://www.w3.org/2000/svg"
 width="38.000000pt" height="35.000000pt" viewBox="0 0 38.000000 35.000000"
 preserveAspectRatio="xMidYMid meet">
<metadata>
Created by potrace 1.16, written by Peter Selinger 2001-2019
</metadata>
<g transform="translate(0.000000,35.000000) scale(0.100000,-0.100000)"
fill="#000000" stroke="none">
<path d="M120 324 l0 -25 -15 -15 -15 -15 -46 7 -47 7 7 -59 7 -58 12 -8 12
-8 30 -1 30 -1 -27 -10 -27 -9 -11 -37 -10 -37 0 -27 0 -28 141 0 142 0 -7 40
-6 40 29 0 30 0 15 16 16 15 0 24 0 24 -16 15 -15 16 -20 0 -19 0 0 46 0 46
-49 -7 -48 -6 -17 16 -16 16 0 25 0 24 -30 0 -30 0 0 -26z"/>
</g>
</svg>
