<?xml version="1.0" standalone="no"?>
<!DOCTYPE svg PUBLIC "-//W3C//DTD SVG 20010904//EN"
 "http://www.w3.org/TR/2001/REC-SVG-20010904/DTD/svg10.dtd">
<svg version="1.0" xmlns="http://www.w3.org/2000/svg"
 width="36.000000pt" height="33.000000pt" viewBox="0 0 36.000000 33.000000"
 preserveAspectRatio="xMidYMid meet">
<metadata>
Created by potrace 1.16, written by Peter Selinger 2001-2019
</metadata>
<g transform="translate(0.000000,33.000000) scale(0.100000,-0.100000)"
fill="#000000" stroke="none">
<path d="M120 304 l0 -25 -16 -16 -15 -16 -46 7 -45 6 7 -48 7 -47 11 -7 12
-8 28 0 27 0 0 -14 0 -14 -25 -6 -24 -6 -10 -38 -11 -37 0 -17 0 -18 130 0
130 0 -6 40 -7 40 31 0 31 0 15 16 16 15 0 14 0 14 -16 15 -15 16 -23 0 -24 0
5 45 6 44 -50 -5 -49 -6 -17 17 -17 16 0 25 0 24 -20 0 -20 0 0 -26z"/>
</g>
</svg>
