<?xml version="1.0" standalone="no"?>
<!DOCTYPE svg PUBLIC "-//W3C//DTD SVG 20010904//EN"
 "http://www.w3.org/TR/2001/REC-SVG-20010904/DTD/svg10.dtd">
<svg version="1.0" xmlns="http://www.w3.org/2000/svg"
 width="27.000000pt" height="41.000000pt" viewBox="0 0 27.000000 41.000000"
 preserveAspectRatio="xMidYMid meet">
<metadata>
Created by potrace 1.16, written by Peter Selinger 2001-2019
</metadata>
<g transform="translate(0.000000,41.000000) scale(0.100000,-0.100000)"
fill="#000000" stroke="none">
<path d="M116 387 l5 -24 -30 -13 -31 -12 -30 4 -30 5 0 -118 0 -117 6 -16 6
-15 44 6 44 6 0 -41 0 -41 19 -6 19 -6 26 13 27 12 -5 22 -6 22 35 6 34 7 6
20 7 21 -6 32 -6 32 -30 11 -30 11 0 15 0 14 41 7 40 6 -3 52 -3 51 -15 8 -15
8 -27 5 -27 6 -15 15 -15 15 -20 0 -21 0 6 -23z"/>
</g>
</svg>
