<?xml version="1.0" standalone="no"?>
<!DOCTYPE svg PUBLIC "-//W3C//DTD SVG 20010904//EN"
 "http://www.w3.org/TR/2001/REC-SVG-20010904/DTD/svg10.dtd">
<svg version="1.0" xmlns="http://www.w3.org/2000/svg"
 width="29.000000pt" height="43.000000pt" viewBox="0 0 29.000000 43.000000"
 preserveAspectRatio="xMidYMid meet">
<metadata>
Created by potrace 1.16, written by Peter Selinger 2001-2019
</metadata>
<g transform="translate(0.000000,43.000000) scale(0.100000,-0.100000)"
fill="#000000" stroke="none">
<path d="M112 406 l5 -25 -28 -11 -28 -12 -30 7 -31 7 0 -134 0 -133 9 -14 9
-13 41 7 41 7 0 -41 0 -41 25 -6 25 -6 30 12 30 12 0 23 0 23 27 7 28 7 7 11
8 12 0 30 0 30 -6 21 -5 20 -32 13 -32 13 43 10 43 9 -3 61 -3 61 -15 8 -15 8
-27 5 -27 6 -15 15 -15 15 -31 0 -32 0 4 -24z"/>
</g>
</svg>
