<?xml version="1.0" standalone="no"?>
<!DOCTYPE svg PUBLIC "-//W3C//DTD SVG 20010904//EN"
 "http://www.w3.org/TR/2001/REC-SVG-20010904/DTD/svg10.dtd">
<svg version="1.0" xmlns="http://www.w3.org/2000/svg"
 width="30.000000pt" height="35.000000pt" viewBox="0 0 30.000000 35.000000"
 preserveAspectRatio="xMidYMid meet">
<metadata>
Created by potrace 1.16, written by Peter Selinger 2001-2019
</metadata>
<g transform="translate(0.000000,35.000000) scale(0.100000,-0.100000)"
fill="#000000" stroke="none">
<path d="M110 331 l0 -20 -15 -14 -15 -15 -40 5 -40 6 0 -135 0 -134 12 -12
12 -12 33 0 32 0 26 12 27 12 -4 28 -5 29 9 5 8 5 0 -30 0 -30 18 -5 17 -5 42
-6 43 -7 15 15 15 16 0 49 0 50 -16 6 -16 6 -24 0 -23 0 5 14 5 14 35 6 34 7
0 44 0 45 -23 5 -23 6 -25 -10 -26 -9 -9 6 -9 7 0 30 0 30 -37 3 -38 3 0 -20z"/>
</g>
</svg>
