<?xml version="1.0" standalone="no"?>
<!DOCTYPE svg PUBLIC "-//W3C//DTD SVG 20010904//EN"
 "http://www.w3.org/TR/2001/REC-SVG-20010904/DTD/svg10.dtd">
<svg version="1.0" xmlns="http://www.w3.org/2000/svg"
 width="28.000000pt" height="33.000000pt" viewBox="0 0 28.000000 33.000000"
 preserveAspectRatio="xMidYMid meet">
<metadata>
Created by potrace 1.16, written by Peter Selinger 2001-2019
</metadata>
<g transform="translate(0.000000,33.000000) scale(0.100000,-0.100000)"
fill="#000000" stroke="none">
<path d="M110 311 l0 -20 -16 -16 -17 -16 -38 6 -39 7 0 -124 0 -124 12 -12
12 -12 23 0 22 0 25 12 26 11 -3 31 -2 30 18 4 17 3 0 -30 0 -31 23 -4 22 -5
28 -6 28 -6 14 15 15 15 0 39 0 40 -16 6 -16 6 -24 0 -24 0 0 13 0 12 8 11 7
11 33 8 32 7 0 33 0 33 -15 6 -15 5 -26 -10 -27 -10 -18 6 -19 6 3 32 2 32
-27 3 -28 3 0 -20z"/>
</g>
</svg>
