<?xml version="1.0" standalone="no"?>
<!DOCTYPE svg PUBLIC "-//W3C//DTD SVG 20010904//EN"
 "http://www.w3.org/TR/2001/REC-SVG-20010904/DTD/svg10.dtd">
<svg version="1.0" xmlns="http://www.w3.org/2000/svg"
 width="37.000000pt" height="35.000000pt" viewBox="0 0 37.000000 35.000000"
 preserveAspectRatio="xMidYMid meet">
<metadata>
Created by potrace 1.16, written by Peter Selinger 2001-2019
</metadata>
<g transform="translate(0.000000,35.000000) scale(0.100000,-0.100000)"
fill="#000000" stroke="none">
<path d="M110 321 l0 -29 -16 -6 -16 -6 -39 0 -39 0 0 -140 0 -140 53 0 52 0
12 8 11 7 4 30 3 30 10 -5 9 -5 -3 -24 -3 -24 14 -8 13 -9 35 0 35 0 23 7 24
6 -5 26 -5 26 -7 23 -7 22 35 0 36 0 15 16 16 15 0 20 0 20 -14 15 -15 14 -25
0 -26 0 0 36 0 35 -13 13 -12 13 -33 1 -34 1 -17 20 -18 21 -27 0 -26 0 0 -29z"/>
</g>
</svg>
