<?xml version="1.0" standalone="no"?>
<!DOCTYPE svg PUBLIC "-//W3C//DTD SVG 20010904//EN"
 "http://www.w3.org/TR/2001/REC-SVG-20010904/DTD/svg10.dtd">
<svg version="1.0" xmlns="http://www.w3.org/2000/svg"
 width="36.000000pt" height="44.000000pt" viewBox="0 0 36.000000 44.000000"
 preserveAspectRatio="xMidYMid meet">
<metadata>
Created by potrace 1.16, written by Peter Selinger 2001-2019
</metadata>
<g transform="translate(0.000000,44.000000) scale(0.100000,-0.100000)"
fill="#000000" stroke="none">
<path d="M112 409 l1 -31 -14 -9 -14 -9 -42 0 -43 0 0 -127 0 -128 8 -12 7
-12 40 -3 40 -3 3 -32 3 -32 34 -7 34 -6 16 15 15 16 0 20 0 21 33 0 32 0 11
8 12 7 11 43 12 42 18 0 19 0 6 16 6 16 0 25 0 24 -13 14 -13 13 -20 4 -19 3
-3 44 -3 43 -44 -7 -45 -6 -13 12 -13 13 4 28 4 28 -35 0 -36 0 1 -31z"/>
</g>
</svg>
