<?xml version="1.0" standalone="no"?>
<!DOCTYPE svg PUBLIC "-//W3C//DTD SVG 20010904//EN"
 "http://www.w3.org/TR/2001/REC-SVG-20010904/DTD/svg10.dtd">
<svg version="1.0" xmlns="http://www.w3.org/2000/svg"
 width="31.000000pt" height="36.000000pt" viewBox="0 0 31.000000 36.000000"
 preserveAspectRatio="xMidYMid meet">
<metadata>
Created by potrace 1.16, written by Peter Selinger 2001-2019
</metadata>
<g transform="translate(0.000000,36.000000) scale(0.100000,-0.100000)"
fill="#000000" stroke="none">
<path d="M117 354 l-7 -7 0 -28 0 -27 -16 -6 -16 -6 -39 0 -39 0 0 -124 0
-124 6 -16 6 -16 50 0 49 0 15 14 14 15 0 21 0 21 10 -6 10 -6 0 -19 0 -20 28
-7 27 -7 37 0 37 -1 6 6 6 6 6 50 5 50 -37 9 -38 9 -5 13 -4 12 26 0 26 0 6
23 5 24 -3 39 -3 39 -35 -2 -35 -3 -20 5 -20 4 0 33 0 33 -25 3 -26 3 -7 -7z"/>
</g>
</svg>
