<?xml version="1.0" standalone="no"?>
<!DOCTYPE svg PUBLIC "-//W3C//DTD SVG 20010904//EN"
 "http://www.w3.org/TR/2001/REC-SVG-20010904/DTD/svg10.dtd">
<svg version="1.0" xmlns="http://www.w3.org/2000/svg"
 width="35.000000pt" height="33.000000pt" viewBox="0 0 35.000000 33.000000"
 preserveAspectRatio="xMidYMid meet">
<metadata>
Created by potrace 1.16, written by Peter Selinger 2001-2019
</metadata>
<g transform="translate(0.000000,33.000000) scale(0.100000,-0.100000)"
fill="#000000" stroke="none">
<path d="M110 301 l0 -29 -16 -6 -16 -6 -39 0 -39 0 0 -130 0 -130 43 0 42 0
12 8 11 7 4 30 3 30 20 0 20 0 -3 -32 -2 -33 25 -6 25 -6 36 7 36 6 -7 22 -7
22 -5 27 -5 28 35 0 36 0 15 16 16 15 0 10 0 10 -14 15 -15 14 -23 -2 -23 -3
-3 39 -3 39 -12 11 -12 11 -34 3 -34 2 -17 20 -17 20 -17 0 -16 0 0 -29z"/>
</g>
</svg>
