<?xml version="1.0" standalone="no"?>
<!DOCTYPE svg PUBLIC "-//W3C//DTD SVG 20010904//EN"
 "http://www.w3.org/TR/2001/REC-SVG-20010904/DTD/svg10.dtd">
<svg version="1.0" xmlns="http://www.w3.org/2000/svg"
 width="29.000000pt" height="34.000000pt" viewBox="0 0 29.000000 34.000000"
 preserveAspectRatio="xMidYMid meet">
<metadata>
Created by potrace 1.16, written by Peter Selinger 2001-2019
</metadata>
<g transform="translate(0.000000,34.000000) scale(0.100000,-0.100000)"
fill="#000000" stroke="none">
<path d="M114 326 l-6 -16 6 -15 5 -15 -19 -10 -19 -10 -40 0 -41 0 0 -114 0
-114 6 -16 6 -16 40 0 39 0 16 15 15 16 -6 14 -5 14 10 6 9 6 19 -6 19 -6 -5
-19 -5 -19 28 -7 29 -7 27 0 28 0 5 4 4 5 7 41 6 41 -38 9 -39 9 -3 27 -3 28
25 -7 25 -6 6 25 7 25 -4 28 -3 29 -34 -3 -33 -4 -24 6 -24 6 2 32 3 32 -18 4
-17 3 -6 -15z"/>
</g>
</svg>
