<?xml version="1.0" standalone="no"?>
<!DOCTYPE svg PUBLIC "-//W3C//DTD SVG 20010904//EN"
 "http://www.w3.org/TR/2001/REC-SVG-20010904/DTD/svg10.dtd">
<svg version="1.0" xmlns="http://www.w3.org/2000/svg"
 width="34.000000pt" height="42.000000pt" viewBox="0 0 34.000000 42.000000"
 preserveAspectRatio="xMidYMid meet">
<metadata>
Created by potrace 1.16, written by Peter Selinger 2001-2019
</metadata>
<g transform="translate(0.000000,42.000000) scale(0.100000,-0.100000)"
fill="#000000" stroke="none">
<path d="M114 389 l-1 -31 -14 -9 -14 -9 -42 0 -43 0 0 -117 0 -118 8 -12 7
-12 40 -3 40 -3 3 -32 3 -31 25 -6 25 -7 15 15 15 16 -3 17 -3 18 25 3 25 3
21 4 22 5 11 45 11 45 19 0 19 0 6 16 6 16 0 15 0 14 -15 16 -16 15 -13 -5
-14 -6 -6 15 -6 16 0 34 0 34 -44 -6 -45 -7 -16 16 -16 16 7 26 6 25 -23 0
-24 0 -1 -31z"/>
</g>
</svg>
