<?xml version="1.0" standalone="no"?>
<!DOCTYPE svg PUBLIC "-//W3C//DTD SVG 20010904//EN"
 "http://www.w3.org/TR/2001/REC-SVG-20010904/DTD/svg10.dtd">
<svg version="1.0" xmlns="http://www.w3.org/2000/svg"
 width="46.000000pt" height="44.000000pt" viewBox="0 0 46.000000 44.000000"
 preserveAspectRatio="xMidYMid meet">
<metadata>
Created by potrace 1.16, written by Peter Selinger 2001-2019
</metadata>
<g transform="translate(0.000000,44.000000) scale(0.100000,-0.100000)"
fill="#000000" stroke="none">
<path d="M200 407 l0 -35 -16 -6 -16 -6 -44 0 -44 0 0 -40 0 -40 -25 0 -25 0
0 -10 0 -10 -15 0 -15 0 0 -24 0 -25 16 -15 15 -16 25 0 24 0 0 -37 0 -38 9
-14 9 -13 35 4 35 4 6 -27 5 -27 16 -16 16 -16 24 0 24 0 15 16 16 15 0 20 0
19 23 0 24 0 21 19 22 18 0 37 0 36 26 0 25 0 15 14 14 15 0 20 0 20 -16 15
-15 16 -25 6 -24 6 0 33 0 33 -50 7 -50 7 -8 31 -8 32 -32 3 -32 3 0 -34z"/>
</g>
</svg>
