<?xml version="1.0" standalone="no"?>
<!DOCTYPE svg PUBLIC "-//W3C//DTD SVG 20010904//EN"
 "http://www.w3.org/TR/2001/REC-SVG-20010904/DTD/svg10.dtd">
<svg version="1.0" xmlns="http://www.w3.org/2000/svg"
 width="44.000000pt" height="42.000000pt" viewBox="0 0 44.000000 42.000000"
 preserveAspectRatio="xMidYMid meet">
<metadata>
Created by potrace 1.16, written by Peter Selinger 2001-2019
</metadata>
<g transform="translate(0.000000,42.000000) scale(0.100000,-0.100000)"
fill="#000000" stroke="none">
<path d="M200 387 l0 -35 -16 -6 -16 -6 -44 0 -44 0 0 -40 0 -40 -25 0 -25 0
0 -10 0 -10 -15 0 -15 0 0 -14 0 -15 16 -16 17 -16 23 5 24 6 0 -42 0 -43 9
-14 9 -13 42 7 43 7 -8 -12 -7 -11 12 -29 12 -29 15 -6 16 -5 18 5 18 6 6 19
6 20 -6 10 -6 10 29 0 29 0 21 19 22 18 0 37 0 36 26 0 25 0 15 15 15 15 -6
20 -6 19 -35 13 -34 12 0 32 0 32 -50 7 -50 7 -8 31 -8 32 -22 3 -22 3 0 -34z"/>
</g>
</svg>
