<?xml version="1.0" standalone="no"?>
<!DOCTYPE svg PUBLIC "-//W3C//DTD SVG 20010904//EN"
 "http://www.w3.org/TR/2001/REC-SVG-20010904/DTD/svg10.dtd">
<svg version="1.0" xmlns="http://www.w3.org/2000/svg"
 width="42.000000pt" height="36.000000pt" viewBox="0 0 42.000000 36.000000"
 preserveAspectRatio="xMidYMid meet">
<metadata>
Created by potrace 1.16, written by Peter Selinger 2001-2019
</metadata>
<g transform="translate(0.000000,36.000000) scale(0.100000,-0.100000)"
fill="#000000" stroke="none">
<path d="M77 306 l-6 -59 -13 -9 -13 -8 -23 5 -22 5 0 -24 0 -24 30 -5 30 -7
2 -32 2 -33 -1 -17 0 -18 47 0 47 0 -4 -25 -5 -24 15 -16 16 -15 18 0 18 0 11
8 12 7 3 19 4 19 48 14 48 14 -5 17 -5 17 -6 33 -7 33 25 -6 24 -6 16 15 16
16 10 0 11 0 0 10 0 9 -12 26 -12 26 -28 -6 -28 -7 0 41 0 40 -12 7 -13 8 -45
3 -46 3 4 -35 4 -34 -15 -16 -16 -15 -19 0 -20 0 -6 16 -6 16 6 24 6 24 -35 0
-35 0 -5 13 -4 12 -6 -59z"/>
</g>
</svg>
