<?xml version="1.0" standalone="no"?>
<!DOCTYPE svg PUBLIC "-//W3C//DTD SVG 20010904//EN"
 "http://www.w3.org/TR/2001/REC-SVG-20010904/DTD/svg10.dtd">
<svg version="1.0" xmlns="http://www.w3.org/2000/svg"
 width="30.000000pt" height="39.000000pt" viewBox="0 0 30.000000 39.000000"
 preserveAspectRatio="xMidYMid meet">
<metadata>
Created by potrace 1.16, written by Peter Selinger 2001-2019
</metadata>
<g transform="translate(0.000000,39.000000) scale(0.100000,-0.100000)"
fill="#000000" stroke="none">
<path d="M140 374 l0 -15 -14 -15 -15 -14 -51 0 -52 0 7 -42 8 -43 16 -12 16
-12 13 4 13 5 -3 -28 -3 -27 -30 2 -29 2 -8 -12 -8 -12 0 -21 0 -21 19 -21 18
-22 36 0 35 0 7 -29 6 -29 16 -6 16 -6 18 5 19 6 2 17 1 17 1 20 1 20 33 -3
32 -3 20 6 20 6 0 44 0 44 -32 9 -33 8 -3 17 -3 17 23 0 23 0 13 9 13 8 -3 44
-3 44 -47 8 -47 9 -6 19 -6 19 -25 0 -24 0 0 -16z"/>
</g>
</svg>
