<?xml version="1.0" standalone="no"?>
<!DOCTYPE svg PUBLIC "-//W3C//DTD SVG 20010904//EN"
 "http://www.w3.org/TR/2001/REC-SVG-20010904/DTD/svg10.dtd">
<svg version="1.0" xmlns="http://www.w3.org/2000/svg"
 width="31.000000pt" height="35.000000pt" viewBox="0 0 31.000000 35.000000"
 preserveAspectRatio="xMidYMid meet">
<metadata>
Created by potrace 1.16, written by Peter Selinger 2001-2019
</metadata>
<g transform="translate(0.000000,35.000000) scale(0.100000,-0.100000)"
fill="#000000" stroke="none">
<path d="M137 343 l-7 -6 0 -17 0 -18 -29 -12 -30 -12 -30 7 -31 7 -7 -18 -7
-18 12 -4 12 -4 0 -34 0 -34 34 0 34 0 6 -16 6 -16 0 -9 0 -9 -15 0 -15 0 0
-11 0 -11 -30 7 -30 7 0 -55 0 -55 16 -6 16 -6 35 0 34 0 15 14 14 15 0 25 0
26 10 0 10 0 0 -24 0 -25 16 -15 15 -16 40 0 40 0 15 14 14 15 0 19 0 20 -6
31 -7 32 -29 6 -28 6 -5 7 -5 8 39 6 39 6 6 16 6 16 0 42 0 43 -52 6 -53 7 -3
10 -4 10 -15 15 -14 15 -13 0 -13 0 -6 -7z"/>
</g>
</svg>
