<?xml version="1.0" standalone="no"?>
<!DOCTYPE svg PUBLIC "-//W3C//DTD SVG 20010904//EN"
 "http://www.w3.org/TR/2001/REC-SVG-20010904/DTD/svg10.dtd">
<svg version="1.0" xmlns="http://www.w3.org/2000/svg"
 width="29.000000pt" height="33.000000pt" viewBox="0 0 29.000000 33.000000"
 preserveAspectRatio="xMidYMid meet">
<metadata>
Created by potrace 1.16, written by Peter Selinger 2001-2019
</metadata>
<g transform="translate(0.000000,33.000000) scale(0.100000,-0.100000)"
fill="#000000" stroke="none">
<path d="M136 323 l-6 -6 0 -17 0 -18 -30 -12 -30 -12 -30 4 -31 5 -5 -9 -5
-8 10 0 11 0 0 -35 0 -35 34 0 34 0 6 -16 6 -16 0 -19 0 -19 -15 0 -15 0 0
-11 0 -11 -30 4 -30 5 0 -43 0 -42 16 -6 16 -6 25 0 24 0 15 14 14 15 0 25 0
26 20 0 20 0 0 -24 0 -25 16 -15 15 -16 30 0 30 0 16 15 15 15 -7 40 -7 40
-31 8 -32 8 0 18 0 19 34 2 34 3 8 13 9 14 0 38 0 37 -24 0 -23 0 -31 6 -31 6
-6 18 -6 18 -13 5 -14 6 -6 -6z"/>
</g>
</svg>
