<?xml version="1.0" standalone="no"?>
<!DOCTYPE svg PUBLIC "-//W3C//DTD SVG 20010904//EN"
 "http://www.w3.org/TR/2001/REC-SVG-20010904/DTD/svg10.dtd">
<svg version="1.0" xmlns="http://www.w3.org/2000/svg"
 width="32.000000pt" height="41.000000pt" viewBox="0 0 32.000000 41.000000"
 preserveAspectRatio="xMidYMid meet">
<metadata>
Created by potrace 1.16, written by Peter Selinger 2001-2019
</metadata>
<g transform="translate(0.000000,41.000000) scale(0.100000,-0.100000)"
fill="#000000" stroke="none">
<path d="M140 394 l0 -15 -14 -15 -15 -14 -52 0 -52 0 7 -52 7 -52 17 -13 17
-12 13 -1 14 0 -5 -12 -4 -13 -28 3 -28 4 -8 -14 -9 -13 0 -31 0 -31 19 -21
18 -22 36 0 35 0 7 -30 6 -29 20 -6 20 -7 24 6 24 6 7 35 6 35 33 0 33 0 16 6
16 6 0 54 0 55 -30 6 -30 6 -6 8 -5 9 23 0 23 0 13 9 13 8 -3 54 -3 54 -47 8
-47 9 -6 19 -6 19 -35 0 -34 0 0 -16z"/>
</g>
</svg>
