<?xml version="1.0" standalone="no"?>
<!DOCTYPE svg PUBLIC "-//W3C//DTD SVG 20010904//EN"
 "http://www.w3.org/TR/2001/REC-SVG-20010904/DTD/svg10.dtd">
<svg version="1.0" xmlns="http://www.w3.org/2000/svg"
 width="44.000000pt" height="38.000000pt" viewBox="0 0 44.000000 38.000000"
 preserveAspectRatio="xMidYMid meet">
<metadata>
Created by potrace 1.16, written by Peter Selinger 2001-2019
</metadata>
<g transform="translate(0.000000,38.000000) scale(0.100000,-0.100000)"
fill="#000000" stroke="none">
<path d="M77 323 l-6 -56 -11 -7 -11 -7 -25 5 -24 4 0 -35 0 -35 30 -5 30 -7
1 -32 1 -33 -1 -18 -2 -17 45 0 46 0 0 -26 0 -25 14 -15 15 -14 28 0 28 0 11
8 12 7 3 19 4 19 48 14 48 14 -7 44 -6 45 20 0 21 0 15 15 15 15 10 0 11 0 0
20 0 19 -12 26 -12 27 -28 -4 -28 -5 0 38 0 37 -12 10 -13 10 -58 1 -58 1 7
-35 6 -34 -15 -16 -16 -15 -10 0 -11 0 -1 13 -1 12 2 28 2 27 -36 0 -36 0 0
10 0 10 -14 0 -13 0 -6 -57z"/>
</g>
</svg>
