<?xml version="1.0" standalone="no"?>
<!DOCTYPE svg PUBLIC "-//W3C//DTD SVG 20010904//EN"
 "http://www.w3.org/TR/2001/REC-SVG-20010904/DTD/svg10.dtd">
<svg version="1.0" xmlns="http://www.w3.org/2000/svg"
 width="27.000000pt" height="37.000000pt" viewBox="0 0 27.000000 37.000000"
 preserveAspectRatio="xMidYMid meet">
<metadata>
Created by potrace 1.16, written by Peter Selinger 2001-2019
</metadata>
<g transform="translate(0.000000,37.000000) scale(0.100000,-0.100000)"
fill="#000000" stroke="none">
<path d="M161 353 l1 -18 -1 -17 -1 -18 -15 0 -15 0 0 -12 0 -11 -20 23 -20
23 0 19 0 18 -45 0 -45 0 0 -37 0 -38 8 -12 7 -11 35 -4 35 -3 3 -17 3 -18
-15 0 -16 0 0 -10 0 -10 -25 0 -25 0 0 -60 0 -60 40 0 40 0 0 -34 0 -34 16 -6
16 -6 18 0 19 0 15 16 16 15 0 25 0 24 41 0 41 0 -6 26 -7 26 -6 29 -5 29 -24
0 -24 0 0 24 0 25 16 15 15 16 20 0 19 0 0 50 0 50 -56 0 -55 0 2 -17z"/>
</g>
</svg>
