<?xml version="1.0" standalone="no"?>
<!DOCTYPE svg PUBLIC "-//W3C//DTD SVG 20010904//EN"
 "http://www.w3.org/TR/2001/REC-SVG-20010904/DTD/svg10.dtd">
<svg version="1.0" xmlns="http://www.w3.org/2000/svg"
 width="25.000000pt" height="34.000000pt" viewBox="0 0 25.000000 34.000000"
 preserveAspectRatio="xMidYMid meet">
<metadata>
Created by potrace 1.16, written by Peter Selinger 2001-2019
</metadata>
<g transform="translate(0.000000,34.000000) scale(0.100000,-0.100000)"
fill="#000000" stroke="none">
<path d="M0 296 l0 -44 34 -6 34 -7 11 -13 11 -13 -5 -15 -6 -15 -25 -11 -24
-12 0 -19 0 -19 -11 -4 -10 -3 6 -18 7 -17 35 0 35 0 -6 -24 -6 -24 6 -16 6
-16 20 0 19 0 16 15 15 16 -4 35 -4 36 37 -6 38 -6 5 8 5 8 -12 35 -12 36 -13
-5 -12 -4 -15 15 -15 16 0 14 0 15 6 16 6 16 39 0 39 0 0 35 0 35 -40 0 -41 0
-5 -30 -6 -29 -20 -7 -19 -6 -20 23 -20 23 4 18 5 18 -44 0 -44 0 0 -44z"/>
</g>
</svg>
