<?xml version="1.0" standalone="no"?>
<!DOCTYPE svg PUBLIC "-//W3C//DTD SVG 20010904//EN"
 "http://www.w3.org/TR/2001/REC-SVG-20010904/DTD/svg10.dtd">
<svg version="1.0" xmlns="http://www.w3.org/2000/svg"
 width="27.000000pt" height="36.000000pt" viewBox="0 0 27.000000 36.000000"
 preserveAspectRatio="xMidYMid meet">
<metadata>
Created by potrace 1.16, written by Peter Selinger 2001-2019
</metadata>
<g transform="translate(0.000000,36.000000) scale(0.100000,-0.100000)"
fill="#000000" stroke="none">
<path d="M0 307 l0 -53 37 -10 38 -9 3 -16 3 -15 -26 -12 -25 -12 0 -19 0 -19
-12 -4 -11 -4 7 -27 6 -27 35 0 34 0 -5 -15 -6 -15 6 -25 6 -25 31 0 30 0 15
14 14 15 0 35 0 35 34 -6 33 -5 8 11 7 12 -13 45 -14 45 -15 -4 -16 -4 -12 14
-13 13 6 20 6 20 40 0 39 0 0 45 0 45 -50 0 -50 0 -6 -27 -7 -28 -10 -7 -11
-7 -17 20 -17 20 5 19 5 20 -56 0 -56 0 0 -53z"/>
</g>
</svg>
