<?xml version="1.0" standalone="no"?>
<!DOCTYPE svg PUBLIC "-//W3C//DTD SVG 20010904//EN"
 "http://www.w3.org/TR/2001/REC-SVG-20010904/DTD/svg10.dtd">
<svg version="1.0" xmlns="http://www.w3.org/2000/svg"
 width="25.000000pt" height="35.000000pt" viewBox="0 0 25.000000 35.000000"
 preserveAspectRatio="xMidYMid meet">
<metadata>
Created by potrace 1.16, written by Peter Selinger 2001-2019
</metadata>
<g transform="translate(0.000000,35.000000) scale(0.100000,-0.100000)"
fill="#000000" stroke="none">
<path d="M165 340 l6 -9 -7 -26 -6 -25 -14 0 -14 0 0 -10 0 -10 -11 0 -12 0
-18 22 -19 21 0 19 0 18 -35 0 -35 0 0 -27 0 -28 9 -14 9 -14 30 6 30 6 6 -15
6 -16 0 -19 0 -19 -15 0 -15 0 0 -10 0 -10 -25 0 -25 0 0 -50 0 -50 40 0 40 0
0 -34 0 -34 16 -6 16 -6 8 0 9 0 15 16 16 15 0 25 0 24 39 0 38 0 -10 45 -10
45 -24 0 -23 0 0 34 0 35 16 15 15 16 20 0 19 0 0 40 0 40 -46 0 -45 0 6 -10z"/>
</g>
</svg>
