<?xml version="1.0" standalone="no"?>
<!DOCTYPE svg PUBLIC "-//W3C//DTD SVG 20010904//EN"
 "http://www.w3.org/TR/2001/REC-SVG-20010904/DTD/svg10.dtd">
<svg version="1.0" xmlns="http://www.w3.org/2000/svg"
 width="37.000000pt" height="38.000000pt" viewBox="0 0 37.000000 38.000000"
 preserveAspectRatio="xMidYMid meet">
<metadata>
Created by potrace 1.16, written by Peter Selinger 2001-2019
</metadata>
<g transform="translate(0.000000,38.000000) scale(0.100000,-0.100000)"
fill="#000000" stroke="none">
<path d="M322 365 l-13 -15 -30 0 -31 0 7 -29 6 -28 -15 -6 -16 -6 -15 5 -14
6 -8 21 -7 22 3 18 2 17 -19 0 -20 0 -31 -6 -31 -6 0 -38 0 -38 -16 -6 -16 -6
-29 0 -29 0 0 -39 0 -38 29 -6 29 -6 7 -43 7 -43 12 -7 11 -8 41 0 41 0 -4
-25 -5 -24 15 -16 16 -15 20 0 21 0 0 10 0 10 15 0 15 0 0 25 0 25 17 0 17 0
32 12 31 11 2 54 1 54 -33 -6 -32 -6 -24 20 -23 20 4 18 4 18 42 -3 42 -2 0
37 0 38 6 23 6 22 -13 0 -14 -1 -13 -14z"/>
</g>
</svg>
