<?xml version="1.0" standalone="no"?>
<!DOCTYPE svg PUBLIC "-//W3C//DTD SVG 20010904//EN"
 "http://www.w3.org/TR/2001/REC-SVG-20010904/DTD/svg10.dtd">
<svg version="1.0" xmlns="http://www.w3.org/2000/svg"
 width="40.000000pt" height="38.000000pt" viewBox="0 0 40.000000 38.000000"
 preserveAspectRatio="xMidYMid meet">
<metadata>
Created by potrace 1.16, written by Peter Selinger 2001-2019
</metadata>
<g transform="translate(0.000000,38.000000) scale(0.100000,-0.100000)"
fill="#000000" stroke="none">
<path d="M185 370 l-3 -5 0 -29 1 -28 -13 -8 -13 -8 -13 5 -13 5 -6 29 -7 29
-49 0 -49 0 0 -19 0 -18 6 -31 6 -30 34 -7 34 -6 0 -10 0 -10 -15 -15 -15 -15
-34 -6 -35 -5 3 -47 4 -46 1 -7 1 -8 45 0 45 0 0 -18 0 -19 19 -21 18 -22 19
0 19 0 11 8 12 7 3 25 4 25 43 3 42 3 0 10 0 9 15 0 15 0 11 45 11 45 24 0 24
0 6 24 6 25 -7 20 -6 20 -37 3 -37 3 -3 30 -2 30 -5 20 -4 21 -56 0 -56 0 -4
-6z"/>
</g>
</svg>
