<?xml version="1.0" standalone="no"?>
<!DOCTYPE svg PUBLIC "-//W3C//DTD SVG 20010904//EN"
 "http://www.w3.org/TR/2001/REC-SVG-20010904/DTD/svg10.dtd">
<svg version="1.0" xmlns="http://www.w3.org/2000/svg"
 width="38.000000pt" height="36.000000pt" viewBox="0 0 38.000000 36.000000"
 preserveAspectRatio="xMidYMid meet">
<metadata>
Created by potrace 1.16, written by Peter Selinger 2001-2019
</metadata>
<g transform="translate(0.000000,36.000000) scale(0.100000,-0.100000)"
fill="#000000" stroke="none">
<path d="M189 351 l-1 -6 -2 -15 -3 -15 -1 -17 -2 -17 -19 -6 -18 -5 -16 6
-16 6 -6 29 -7 29 -40 0 -40 0 6 -31 6 -32 0 -7 0 -8 35 -6 35 -7 0 -20 0 -20
-15 -15 -15 -15 -33 -6 -34 -5 3 -37 3 -36 0 -7 1 -8 49 0 49 0 -5 -18 -4 -18
20 -23 20 -23 20 7 20 6 3 27 3 27 43 3 42 3 0 10 0 9 15 0 15 0 11 45 11 45
23 0 23 0 6 16 6 17 -5 18 -6 18 -37 3 -37 3 -3 30 -2 30 -6 24 -5 24 -10 -10
-11 -11 -34 8 -34 8 -1 -7z"/>
</g>
</svg>
