<?xml version="1.0" standalone="no"?>
<!DOCTYPE svg PUBLIC "-//W3C//DTD SVG 20010904//EN"
 "http://www.w3.org/TR/2001/REC-SVG-20010904/DTD/svg10.dtd">
<svg version="1.0" xmlns="http://www.w3.org/2000/svg"
 width="35.000000pt" height="36.000000pt" viewBox="0 0 35.000000 36.000000"
 preserveAspectRatio="xMidYMid meet">
<metadata>
Created by potrace 1.16, written by Peter Selinger 2001-2019
</metadata>
<g transform="translate(0.000000,36.000000) scale(0.100000,-0.100000)"
fill="#000000" stroke="none">
<path d="M113 343 l-23 -4 0 -39 0 -38 -16 -6 -16 -6 -29 0 -29 0 0 -29 0 -28
29 -6 29 -6 7 -43 7 -43 12 -7 11 -8 44 0 43 0 -6 -25 -7 -26 15 -14 15 -15
10 0 11 0 0 10 0 10 16 0 16 0 -6 25 -6 25 24 0 24 0 28 13 29 12 3 41 3 40
-33 -4 -33 -4 -23 20 -22 19 0 25 0 26 -29 5 -28 6 -13 30 -12 30 7 10 6 11
-18 -1 -18 -2 -22 -4z M284 333 l-30 -4 4 -29 4 -30 18 0 18 0 16 -6 16 -6 0
41 0 41 -7 -2 -8 -1 -31 -4z"/>
</g>
</svg>
