<?xml version="1.0" standalone="no"?>
<!DOCTYPE svg PUBLIC "-//W3C//DTD SVG 20010904//EN"
 "http://www.w3.org/TR/2001/REC-SVG-20010904/DTD/svg10.dtd">
<svg version="1.0" xmlns="http://www.w3.org/2000/svg"
 width="36.000000pt" height="34.000000pt" viewBox="0 0 36.000000 34.000000"
 preserveAspectRatio="xMidYMid meet">
<metadata>
Created by potrace 1.16, written by Peter Selinger 2001-2019
</metadata>
<g transform="translate(0.000000,34.000000) scale(0.100000,-0.100000)"
fill="#000000" stroke="none">
<path d="M80 301 l0 -29 -6 -16 -6 -16 -18 0 -18 0 -16 -6 -16 -6 0 -14 0 -13
23 -21 22 -21 28 5 29 6 -7 -30 -6 -30 6 -20 6 -20 40 0 39 0 0 -29 0 -29 23
-6 22 -6 6 0 6 0 10 23 10 22 48 13 47 12 -6 16 -6 16 0 34 0 34 -29 0 -29 0
-6 16 -6 17 6 19 6 19 29 6 29 6 0 39 0 40 -22 -6 -23 -6 -23 0 -22 0 6 -25 6
-25 -16 0 -16 0 0 -10 0 -10 -11 0 -10 0 -15 15 -15 14 7 26 6 25 -56 0 -56 0
0 -29z"/>
</g>
</svg>
