<?xml version="1.0" standalone="no"?>
<!DOCTYPE svg PUBLIC "-//W3C//DTD SVG 20010904//EN"
 "http://www.w3.org/TR/2001/REC-SVG-20010904/DTD/svg10.dtd">
<svg version="1.0" xmlns="http://www.w3.org/2000/svg"
 width="38.000000pt" height="36.000000pt" viewBox="0 0 38.000000 36.000000"
 preserveAspectRatio="xMidYMid meet">
<metadata>
Created by potrace 1.16, written by Peter Selinger 2001-2019
</metadata>
<g transform="translate(0.000000,36.000000) scale(0.100000,-0.100000)"
fill="#000000" stroke="none">
<path d="M325 350 l-20 -9 -29 0 -28 -1 4 -25 5 -25 -13 0 -14 0 0 -10 0 -11
-13 12 -13 13 4 28 4 28 -66 0 -66 0 0 -29 0 -29 -6 -16 -6 -16 -18 0 -18 0
-16 -6 -16 -6 0 -24 0 -23 22 -21 22 -20 23 0 23 0 0 -29 0 -29 6 -16 6 -16
39 0 39 0 0 -29 0 -29 23 -6 22 -6 16 0 16 0 10 23 10 22 48 13 47 13 -6 31
-6 30 0 29 0 29 -29 0 -29 0 -6 15 -5 14 15 16 15 15 20 0 19 0 0 40 0 40 10
0 10 0 0 15 0 15 -17 -1 -18 0 -20 -9z"/>
</g>
</svg>
