<?xml version="1.0" standalone="no"?>
<!DOCTYPE svg PUBLIC "-//W3C//DTD SVG 20010904//EN"
 "http://www.w3.org/TR/2001/REC-SVG-20010904/DTD/svg10.dtd">
<svg version="1.0" xmlns="http://www.w3.org/2000/svg"
 width="36.000000pt" height="36.000000pt" viewBox="0 0 36.000000 36.000000"
 preserveAspectRatio="xMidYMid meet">
<metadata>
Created by potrace 1.16, written by Peter Selinger 2001-2019
</metadata>
<g transform="translate(0.000000,36.000000) scale(0.100000,-0.100000)"
fill="#000000" stroke="none">
<path d="M93 353 l-13 -5 0 -43 0 -43 -16 -6 -16 -6 -24 0 -24 0 0 -31 0 -31
25 4 25 5 9 -35 10 -34 -6 -29 -5 -29 56 0 56 0 0 -35 0 -35 34 0 34 0 16 6
16 6 0 24 0 24 20 0 19 0 26 12 25 11 0 51 0 51 -8 12 -7 11 -35 4 -35 3 1 10
0 10 20 3 19 3 23 5 22 4 0 50 0 49 -7 4 -8 5 -52 -5 -53 -6 0 -23 0 -23 -15
-15 -16 -15 -14 5 -15 6 0 33 0 33 -22 6 -23 6 -15 -1 -15 -1 -12 -5z"/>
</g>
</svg>
