<?xml version="1.0" standalone="no"?>
<!DOCTYPE svg PUBLIC "-//W3C//DTD SVG 20010904//EN"
 "http://www.w3.org/TR/2001/REC-SVG-20010904/DTD/svg10.dtd">
<svg version="1.0" xmlns="http://www.w3.org/2000/svg"
 width="34.000000pt" height="34.000000pt" viewBox="0 0 34.000000 34.000000"
 preserveAspectRatio="xMidYMid meet">
<metadata>
Created by potrace 1.16, written by Peter Selinger 2001-2019
</metadata>
<g transform="translate(0.000000,34.000000) scale(0.100000,-0.100000)"
fill="#000000" stroke="none">
<path d="M93 333 l-13 -5 0 -43 0 -43 -16 -6 -16 -6 -24 0 -24 0 0 -20 0 -20
24 6 25 6 11 -42 11 -43 -5 -23 -6 -24 55 0 55 0 0 -35 0 -35 28 0 27 0 14 9
13 9 -7 21 -6 21 25 0 25 0 26 12 25 11 0 38 0 37 -6 16 -6 16 -34 0 -35 0 -5
15 -6 15 12 15 13 15 17 -5 17 -5 17 6 16 6 0 37 0 37 -50 3 -50 2 0 -25 0
-25 -16 -15 -15 -16 -9 0 -8 0 -16 6 -16 6 0 33 0 33 -22 6 -23 6 -5 -1 -5 -1
-12 -5z"/>
</g>
</svg>
