<?xml version="1.0" standalone="no"?>
<!DOCTYPE svg PUBLIC "-//W3C//DTD SVG 20010904//EN"
 "http://www.w3.org/TR/2001/REC-SVG-20010904/DTD/svg10.dtd">
<svg version="1.0" xmlns="http://www.w3.org/2000/svg"
 width="29.000000pt" height="32.000000pt" viewBox="0 0 29.000000 32.000000"
 preserveAspectRatio="xMidYMid meet">
<metadata>
Created by potrace 1.16, written by Peter Selinger 2001-2019
</metadata>
<g transform="translate(0.000000,32.000000) scale(0.100000,-0.100000)"
fill="#000000" stroke="none">
<path d="M177 285 l-6 -35 -15 -16 -16 -15 -20 6 -20 6 0 35 0 34 -22 0 -23 0
-22 6 -23 6 0 -62 0 -62 25 6 25 6 14 -12 13 -12 -5 -18 -4 -18 -14 0 -14 0 0
-9 0 -8 -25 5 -25 4 0 -30 0 -29 6 -32 6 -31 53 0 53 0 6 16 6 16 0 24 0 24
15 0 15 0 0 -32 0 -33 9 -14 9 -14 38 7 39 7 18 5 17 5 0 17 0 17 -10 37 -11
37 -19 6 -20 6 0 20 0 19 16 0 15 0 15 14 14 15 0 50 0 51 -22 -2 -23 -1 -31
7 -31 7 -6 -36z"/>
</g>
</svg>
