<?xml version="1.0" standalone="no"?>
<!DOCTYPE svg PUBLIC "-//W3C//DTD SVG 20010904//EN"
 "http://www.w3.org/TR/2001/REC-SVG-20010904/DTD/svg10.dtd">
<svg version="1.0" xmlns="http://www.w3.org/2000/svg"
 width="38.000000pt" height="34.000000pt" viewBox="0 0 38.000000 34.000000"
 preserveAspectRatio="xMidYMid meet">
<metadata>
Created by potrace 1.16, written by Peter Selinger 2001-2019
</metadata>
<g transform="translate(0.000000,34.000000) scale(0.100000,-0.100000)"
fill="#000000" stroke="none">
<path d="M299 332 l-37 -3 5 -17 4 -18 -19 -22 -20 -23 -26 7 -25 6 -6 19 -6
19 5 9 6 9 -45 4 -45 3 0 -35 0 -35 -9 -14 -8 -13 -34 -3 -34 -2 0 -19 0 -18
32 -8 31 -8 7 -40 7 -39 -6 -10 -6 -10 20 -6 20 -6 30 6 30 7 0 -22 0 -21 15
-15 14 -15 26 7 25 6 0 12 0 11 41 13 41 13 15 15 15 14 10 37 10 36 -14 8
-13 9 -22 0 -21 0 -16 6 -16 6 0 14 0 14 29 0 29 0 6 16 6 16 -1 26 0 27 -7
15 -7 15 -36 -3z"/>
</g>
</svg>
