<?xml version="1.0" standalone="no"?>
<!DOCTYPE svg PUBLIC "-//W3C//DTD SVG 20010904//EN"
 "http://www.w3.org/TR/2001/REC-SVG-20010904/DTD/svg10.dtd">
<svg version="1.0" xmlns="http://www.w3.org/2000/svg"
 width="27.000000pt" height="30.000000pt" viewBox="0 0 27.000000 30.000000"
 preserveAspectRatio="xMidYMid meet">
<metadata>
Created by potrace 1.16, written by Peter Selinger 2001-2019
</metadata>
<g transform="translate(0.000000,30.000000) scale(0.100000,-0.100000)"
fill="#000000" stroke="none">
<path d="M177 264 l-6 -34 -15 -15 -15 -15 -14 0 -15 0 -16 6 -16 6 0 33 0 33
-35 4 -35 4 0 -47 0 -46 25 4 24 5 16 -15 16 -16 -7 -26 -6 -25 -14 0 -14 0 0
-11 0 -11 -25 6 -25 6 0 -19 0 -19 6 -31 6 -31 43 0 43 0 6 16 6 16 0 23 0 24
9 5 9 6 16 -6 16 -6 0 -32 0 -31 9 -13 8 -13 42 10 43 9 4 5 5 5 -11 40 -10
41 -20 6 -20 6 0 34 0 34 15 -5 14 -6 16 15 15 16 0 41 0 41 -10 -6 -10 -6
-34 9 -34 10 -5 -34z"/>
</g>
</svg>
