<?xml version="1.0" standalone="no"?>
<!DOCTYPE svg PUBLIC "-//W3C//DTD SVG 20010904//EN"
 "http://www.w3.org/TR/2001/REC-SVG-20010904/DTD/svg10.dtd">
<svg version="1.0" xmlns="http://www.w3.org/2000/svg"
 width="40.000000pt" height="36.000000pt" viewBox="0 0 40.000000 36.000000"
 preserveAspectRatio="xMidYMid meet">
<metadata>
Created by potrace 1.16, written by Peter Selinger 2001-2019
</metadata>
<g transform="translate(0.000000,36.000000) scale(0.100000,-0.100000)"
fill="#000000" stroke="none">
<path d="M297 353 l-39 -4 5 -19 5 -19 -17 -19 -16 -18 -17 4 -18 3 -1 12 -1
12 1 18 2 17 -33 0 -33 0 -23 6 -22 6 0 -38 0 -39 -9 -13 -8 -14 -34 -1 -34
-2 0 -29 0 -30 31 -8 31 -8 6 -28 6 -29 -6 -21 -5 -21 26 -7 26 -6 25 4 25 5
0 -19 0 -19 15 -16 16 -15 34 6 35 7 0 12 0 12 42 13 42 13 17 20 17 20 7 41
7 40 -13 9 -14 9 -25 0 -25 0 -15 10 -15 10 31 0 32 0 6 16 6 16 0 31 0 32 -6
23 -6 22 -12 -2 -11 -1 -38 -4z"/>
</g>
</svg>
