<?xml version="1.0" standalone="no"?>
<!DOCTYPE svg PUBLIC "-//W3C//DTD SVG 20010904//EN"
 "http://www.w3.org/TR/2001/REC-SVG-20010904/DTD/svg10.dtd">
<svg version="1.0" xmlns="http://www.w3.org/2000/svg"
 width="30.000000pt" height="34.000000pt" viewBox="0 0 30.000000 34.000000"
 preserveAspectRatio="xMidYMid meet">
<metadata>
Created by potrace 1.16, written by Peter Selinger 2001-2019
</metadata>
<g transform="translate(0.000000,34.000000) scale(0.100000,-0.100000)"
fill="#000000" stroke="none">
<path d="M27 333 l-7 -6 0 -31 0 -31 8 -13 9 -13 16 7 16 6 16 -16 16 -16 -6
-19 -6 -19 -24 -6 -23 -6 -15 6 -15 5 -3 -45 -4 -46 3 -10 4 -10 49 0 49 0 0
-22 0 -23 9 -14 9 -13 20 6 20 7 6 24 6 23 -6 15 -5 15 59 -5 59 -6 7 48 8 48
-14 8 -13 9 -18 0 -18 0 -20 10 -19 11 0 20 0 21 24 -6 24 -6 16 6 16 6 0 44
0 44 -123 0 -124 0 -6 -7z"/>
</g>
</svg>
