<?xml version="1.0" standalone="no"?>
<!DOCTYPE svg PUBLIC "-//W3C//DTD SVG 20010904//EN"
 "http://www.w3.org/TR/2001/REC-SVG-20010904/DTD/svg10.dtd">
<svg version="1.0" xmlns="http://www.w3.org/2000/svg"
 width="32.000000pt" height="36.000000pt" viewBox="0 0 32.000000 36.000000"
 preserveAspectRatio="xMidYMid meet">
<metadata>
Created by potrace 1.16, written by Peter Selinger 2001-2019
</metadata>
<g transform="translate(0.000000,36.000000) scale(0.100000,-0.100000)"
fill="#000000" stroke="none">
<path d="M27 353 l-7 -6 0 -41 0 -41 9 -14 9 -14 19 5 19 5 11 -12 11 -12 -8
-13 -8 -13 -35 1 -35 1 -5 -52 -5 -52 5 -12 5 -13 49 0 49 0 0 -19 0 -19 6
-16 6 -16 18 0 18 0 16 6 15 6 7 34 6 34 53 0 54 0 7 56 7 56 -14 9 -14 9 -18
0 -18 0 -20 10 -19 11 0 9 0 9 15 -5 15 -6 25 6 25 6 0 55 0 55 -133 0 -134 0
-6 -7z"/>
</g>
</svg>
