<?xml version="1.0" standalone="no"?>
<!DOCTYPE svg PUBLIC "-//W3C//DTD SVG 20010904//EN"
 "http://www.w3.org/TR/2001/REC-SVG-20010904/DTD/svg10.dtd">
<svg version="1.0" xmlns="http://www.w3.org/2000/svg"
 width="32.000000pt" height="33.000000pt" viewBox="0 0 32.000000 33.000000"
 preserveAspectRatio="xMidYMid meet">
<metadata>
Created by potrace 1.16, written by Peter Selinger 2001-2019
</metadata>
<g transform="translate(0.000000,33.000000) scale(0.100000,-0.100000)"
fill="#000000" stroke="none">
<path d="M23 323 l-13 -5 0 -32 0 -32 34 -12 35 -13 6 -19 6 -20 -15 -15 -15
-15 -25 0 -26 0 0 -34 0 -34 -6 -16 -6 -16 46 0 45 0 -5 -15 -6 -14 15 -16 16
-15 24 0 25 0 6 16 6 16 0 29 0 30 18 -5 17 -5 26 -6 26 -6 7 50 7 51 24 6 25
6 0 24 0 24 -27 6 -28 7 -7 11 -8 11 0 33 0 32 -40 0 -40 0 0 -21 0 -20 -15
-15 -14 -15 -26 7 -26 6 -6 29 -5 29 -22 -1 -21 -1 -12 -5z"/>
</g>
</svg>
