<?xml version="1.0" standalone="no"?>
<!DOCTYPE svg PUBLIC "-//W3C//DTD SVG 20010904//EN"
 "http://www.w3.org/TR/2001/REC-SVG-20010904/DTD/svg10.dtd">
<svg version="1.0" xmlns="http://www.w3.org/2000/svg"
 width="34.000000pt" height="35.000000pt" viewBox="0 0 34.000000 35.000000"
 preserveAspectRatio="xMidYMid meet">
<metadata>
Created by potrace 1.16, written by Peter Selinger 2001-2019
</metadata>
<g transform="translate(0.000000,35.000000) scale(0.100000,-0.100000)"
fill="#000000" stroke="none">
<path d="M23 343 l-13 -5 0 -43 0 -43 24 -6 25 -6 15 -16 16 -15 -14 -15 -15
-14 -25 0 -26 0 0 -29 0 -29 -6 -31 -6 -31 41 0 41 0 0 -16 0 -15 14 -15 15
-14 34 0 35 0 6 16 6 16 0 24 0 25 44 -6 43 -7 7 51 7 51 24 6 25 6 0 34 0 34
-27 6 -28 7 -7 11 -8 11 0 33 0 32 -50 0 -50 0 0 -20 0 -21 -12 -13 -12 -13
-19 5 -18 5 -6 28 -5 29 -32 -1 -31 -1 -12 -5z"/>
</g>
</svg>
