<?xml version="1.0" standalone="no"?>
<!DOCTYPE svg PUBLIC "-//W3C//DTD SVG 20010904//EN"
 "http://www.w3.org/TR/2001/REC-SVG-20010904/DTD/svg10.dtd">
<svg version="1.0" xmlns="http://www.w3.org/2000/svg"
 width="37.000000pt" height="26.000000pt" viewBox="0 0 37.000000 26.000000"
 preserveAspectRatio="xMidYMid meet">
<metadata>
Created by potrace 1.16, written by Peter Selinger 2001-2019
</metadata>
<g transform="translate(0.000000,26.000000) scale(0.100000,-0.100000)"
fill="#000000" stroke="none">
<path d="M48 253 l-28 -4 0 -24 0 -23 -6 -16 -6 -16 25 0 26 0 15 -16 16 -15
0 -14 0 -14 -16 -15 -15 -16 -30 0 -29 0 0 -17 0 -18 6 -22 6 -23 134 0 133 0
-6 50 -6 50 37 0 37 0 15 14 14 15 0 19 0 20 -16 6 -16 6 -29 0 -29 0 0 29 0
29 -13 5 -14 5 -36 -11 -37 -12 0 -11 0 -12 -25 -6 -26 -7 -14 15 -15 15 0 20
0 21 -12 -1 -13 -2 -27 -4z"/>
</g>
</svg>
