<?xml version="1.0" standalone="no"?>
<!DOCTYPE svg PUBLIC "-//W3C//DTD SVG 20010904//EN"
 "http://www.w3.org/TR/2001/REC-SVG-20010904/DTD/svg10.dtd">
<svg version="1.0" xmlns="http://www.w3.org/2000/svg"
 width="39.000000pt" height="28.000000pt" viewBox="0 0 39.000000 28.000000"
 preserveAspectRatio="xMidYMid meet">
<metadata>
Created by potrace 1.16, written by Peter Selinger 2001-2019
</metadata>
<g transform="translate(0.000000,28.000000) scale(0.100000,-0.100000)"
fill="#000000" stroke="none">
<path d="M48 273 l-28 -4 0 -18 0 -19 -6 -31 -6 -31 25 0 26 0 15 -16 16 -15
0 -4 0 -4 -16 -15 -15 -16 -30 0 -29 0 0 -27 0 -28 6 -23 6 -22 145 0 145 0
-7 50 -7 50 37 0 36 0 15 14 14 15 0 29 0 30 -16 6 -16 6 -29 0 -29 0 0 29 0
29 -17 6 -17 7 -43 -13 -43 -12 0 -12 0 -12 -18 -4 -18 -5 -12 13 -12 13 0 21
0 20 -22 -1 -23 -2 -27 -4z"/>
</g>
</svg>
