<?xml version="1.0" standalone="no"?>
<!DOCTYPE svg PUBLIC "-//W3C//DTD SVG 20010904//EN"
 "http://www.w3.org/TR/2001/REC-SVG-20010904/DTD/svg10.dtd">
<svg version="1.0" xmlns="http://www.w3.org/2000/svg"
 width="43.000000pt" height="35.000000pt" viewBox="0 0 43.000000 35.000000"
 preserveAspectRatio="xMidYMid meet">
<metadata>
Created by potrace 1.16, written by Peter Selinger 2001-2019
</metadata>
<g transform="translate(0.000000,35.000000) scale(0.100000,-0.100000)"
fill="#000000" stroke="none">
<path d="M80 306 l0 -44 -16 -6 -16 -6 -24 0 -24 0 0 -30 0 -30 23 0 22 0 24
-7 23 -6 -6 -36 -6 -36 -6 -24 -7 -23 42 7 41 7 0 -20 0 -21 16 -15 15 -16 25
0 24 0 0 10 0 10 15 0 15 0 0 20 0 20 35 0 35 0 20 17 20 17 0 33 0 33 14 0
15 0 15 16 16 15 0 20 0 20 -14 15 -15 14 -20 0 -21 0 0 39 0 40 -11 6 -10 7
-44 -13 -44 -13 -5 -22 -6 -22 -15 -5 -14 -6 -16 15 -15 15 0 25 0 24 -50 0
-50 0 0 -44z"/>
</g>
</svg>
