<?xml version="1.0" standalone="no"?>
<!DOCTYPE svg PUBLIC "-//W3C//DTD SVG 20010904//EN"
 "http://www.w3.org/TR/2001/REC-SVG-20010904/DTD/svg10.dtd">
<svg version="1.0" xmlns="http://www.w3.org/2000/svg"
 width="41.000000pt" height="33.000000pt" viewBox="0 0 41.000000 33.000000"
 preserveAspectRatio="xMidYMid meet">
<metadata>
Created by potrace 1.16, written by Peter Selinger 2001-2019
</metadata>
<g transform="translate(0.000000,33.000000) scale(0.100000,-0.100000)"
fill="#000000" stroke="none">
<path d="M80 286 l0 -44 -16 -6 -16 -6 -24 0 -24 0 0 -20 0 -20 23 0 22 0 23
-6 22 -6 0 -27 0 -26 -9 -31 -9 -32 38 5 37 5 6 -30 6 -30 23 -8 22 -7 4 12 4
11 15 0 15 0 -5 20 -5 20 39 0 39 0 20 17 20 17 0 32 0 32 24 6 25 6 6 20 6
20 -15 15 -15 15 -20 0 -21 0 0 39 0 40 -8 5 -8 4 -37 -11 -37 -12 0 -12 0
-12 -16 -15 -15 -16 -14 0 -14 0 -15 16 -16 15 0 23 0 22 -40 2 -40 3 0 -45z"/>
</g>
</svg>
