<?xml version="1.0" standalone="no"?>
<!DOCTYPE svg PUBLIC "-//W3C//DTD SVG 20010904//EN"
 "http://www.w3.org/TR/2001/REC-SVG-20010904/DTD/svg10.dtd">
<svg version="1.0" xmlns="http://www.w3.org/2000/svg"
 width="38.000000pt" height="30.000000pt" viewBox="0 0 38.000000 30.000000"
 preserveAspectRatio="xMidYMid meet">
<metadata>
Created by potrace 1.16, written by Peter Selinger 2001-2019
</metadata>
<g transform="translate(0.000000,30.000000) scale(0.100000,-0.100000)"
fill="#000000" stroke="none">
<path d="M184 286 l-5 -13 2 -9 3 -9 -8 -22 -7 -23 -9 0 -8 0 -16 6 -16 6 0
34 0 34 -45 0 -45 0 0 -54 0 -53 40 -7 40 -6 0 -14 0 -14 -31 -11 -31 -11 -24
6 -24 6 0 -16 0 -17 11 -44 11 -43 42 -6 43 -7 16 6 16 7 3 31 3 30 13 5 12 4
0 -15 0 -14 25 -11 26 -12 31 0 31 0 -6 44 -6 44 15 6 16 6 39 0 40 0 -3 27
-3 28 -20 3 -20 3 -22 5 -23 4 0 44 0 43 -37 7 -38 6 -13 0 -13 0 -5 -14z"/>
</g>
</svg>
