<?xml version="1.0" standalone="no"?>
<!DOCTYPE svg PUBLIC "-//W3C//DTD SVG 20010904//EN"
 "http://www.w3.org/TR/2001/REC-SVG-20010904/DTD/svg10.dtd">
<svg version="1.0" xmlns="http://www.w3.org/2000/svg"
 width="36.000000pt" height="28.000000pt" viewBox="0 0 36.000000 28.000000"
 preserveAspectRatio="xMidYMid meet">
<metadata>
Created by potrace 1.16, written by Peter Selinger 2001-2019
</metadata>
<g transform="translate(0.000000,28.000000) scale(0.100000,-0.100000)"
fill="#000000" stroke="none">
<path d="M189 274 l-1 -9 1 -9 2 -9 -12 -29 -11 -28 -22 0 -21 0 -14 9 -14 9
1 31 1 31 -35 0 -34 0 0 -44 0 -43 40 -7 40 -6 0 -24 0 -24 -36 -12 -35 -12
-20 5 -19 5 0 -5 0 -4 11 -43 11 -44 34 -5 35 -6 14 5 14 6 3 31 3 32 23 3 22
3 0 -14 0 -14 25 -11 26 -12 20 0 21 0 -7 41 -7 41 13 9 14 9 43 0 43 0 -3 17
-3 18 -20 3 -20 3 -22 5 -23 4 0 45 0 45 -17 0 -18 0 -22 6 -23 6 -1 -8z"/>
</g>
</svg>
