<?xml version="1.0" standalone="no"?>
<!DOCTYPE svg PUBLIC "-//W3C//DTD SVG 20010904//EN"
 "http://www.w3.org/TR/2001/REC-SVG-20010904/DTD/svg10.dtd">
<svg version="1.0" xmlns="http://www.w3.org/2000/svg"
 width="33.000000pt" height="35.000000pt" viewBox="0 0 33.000000 35.000000"
 preserveAspectRatio="xMidYMid meet">
<metadata>
Created by potrace 1.16, written by Peter Selinger 2001-2019
</metadata>
<g transform="translate(0.000000,35.000000) scale(0.100000,-0.100000)"
fill="#000000" stroke="none">
<path d="M2 298 l3 -53 35 -3 35 -4 6 -10 7 -11 -5 -14 -5 -13 -23 0 -23 0
-11 -44 -11 -45 0 -15 0 -16 35 0 35 0 0 -30 0 -30 24 -6 25 -6 20 7 20 6 7
34 6 34 37 3 36 3 -2 35 -1 35 11 7 12 8 21 0 22 0 6 16 6 16 0 19 0 19 -19 0
-19 0 -16 6 -16 6 0 45 0 46 -37 -7 -38 -6 -17 0 -18 0 0 -25 0 -25 -20 0 -20
0 -1 13 -1 12 2 23 1 22 -56 0 -56 0 3 -52z"/>
</g>
</svg>
