<?xml version="1.0" standalone="no"?>
<!DOCTYPE svg PUBLIC "-//W3C//DTD SVG 20010904//EN"
 "http://www.w3.org/TR/2001/REC-SVG-20010904/DTD/svg10.dtd">
<svg version="1.0" xmlns="http://www.w3.org/2000/svg"
 width="31.000000pt" height="33.000000pt" viewBox="0 0 31.000000 33.000000"
 preserveAspectRatio="xMidYMid meet">
<metadata>
Created by potrace 1.16, written by Peter Selinger 2001-2019
</metadata>
<g transform="translate(0.000000,33.000000) scale(0.100000,-0.100000)"
fill="#000000" stroke="none">
<path d="M2 288 l3 -43 37 -3 36 -3 6 -16 6 -16 -5 -18 -6 -19 -23 0 -24 0
-11 -44 -11 -45 0 -5 0 -6 35 0 35 0 0 -29 0 -29 16 -6 17 -6 17 5 18 6 6 24
6 23 -6 16 -6 15 44 -2 43 -2 -3 34 -4 34 14 8 13 9 21 0 22 0 6 16 6 16 0 9
0 9 -19 0 -19 0 -16 6 -16 6 0 45 0 45 -22 -6 -23 -6 -22 0 -23 0 0 -25 0 -25
-29 0 -29 0 -6 16 -6 17 5 18 6 19 -46 0 -46 0 3 -42z"/>
</g>
</svg>
