<?xml version="1.0" standalone="no"?>
<!DOCTYPE svg PUBLIC "-//W3C//DTD SVG 20010904//EN"
 "http://www.w3.org/TR/2001/REC-SVG-20010904/DTD/svg10.dtd">
<svg version="1.0" xmlns="http://www.w3.org/2000/svg"
 width="37.000000pt" height="34.000000pt" viewBox="0 0 37.000000 34.000000"
 preserveAspectRatio="xMidYMid meet">
<metadata>
Created by potrace 1.16, written by Peter Selinger 2001-2019
</metadata>
<g transform="translate(0.000000,34.000000) scale(0.100000,-0.100000)"
fill="#000000" stroke="none">
<path d="M127 333 l-7 -6 0 -28 0 -27 -14 -5 -15 -6 -33 5 -33 6 3 -51 4 -51
9 5 8 6 26 -7 25 -6 0 -13 0 -14 -17 -16 -16 -17 -33 7 -34 6 7 -33 7 -33 1
-22 0 -22 49 -7 48 -6 9 13 9 14 0 33 0 32 20 0 19 0 11 -40 11 -40 27 0 27 0
23 6 22 6 0 43 0 42 25 -4 24 -5 16 15 15 16 0 19 0 20 -16 6 -16 6 -24 0 -24
0 0 39 0 39 -6 16 -6 16 -29 0 -28 0 -26 12 -25 11 0 14 0 13 -18 0 -19 0 -6
-7z"/>
</g>
</svg>
