<?xml version="1.0" standalone="no"?>
<!DOCTYPE svg PUBLIC "-//W3C//DTD SVG 20010904//EN"
 "http://www.w3.org/TR/2001/REC-SVG-20010904/DTD/svg10.dtd">
<svg version="1.0" xmlns="http://www.w3.org/2000/svg"
 width="39.000000pt" height="36.000000pt" viewBox="0 0 39.000000 36.000000"
 preserveAspectRatio="xMidYMid meet">
<metadata>
Created by potrace 1.16, written by Peter Selinger 2001-2019
</metadata>
<g transform="translate(0.000000,36.000000) scale(0.100000,-0.100000)"
fill="#000000" stroke="none">
<path d="M127 353 l-7 -6 0 -29 0 -28 -12 -1 -13 -1 -39 2 -39 2 6 -24 7 -23
0 -37 0 -37 30 1 30 1 6 -5 5 -6 -16 -15 -15 -16 -36 6 -36 6 8 -44 7 -44 -1
-21 -2 -21 38 -7 37 -6 26 0 27 0 6 16 6 16 0 29 0 29 10 0 9 0 11 -40 11 -40
37 0 37 0 23 6 22 6 0 39 0 39 26 0 25 0 15 14 14 15 0 29 0 30 -16 6 -16 6
-24 0 -24 0 0 39 0 39 -6 16 -6 16 -29 0 -28 0 -26 12 -25 11 0 14 0 13 -28 0
-29 0 -6 -7z"/>
</g>
</svg>
