<?xml version="1.0" standalone="no"?>
<!DOCTYPE svg PUBLIC "-//W3C//DTD SVG 20010904//EN"
 "http://www.w3.org/TR/2001/REC-SVG-20010904/DTD/svg10.dtd">
<svg version="1.0" xmlns="http://www.w3.org/2000/svg"
 width="36.000000pt" height="42.000000pt" viewBox="0 0 36.000000 42.000000"
 preserveAspectRatio="xMidYMid meet">
<metadata>
Created by potrace 1.16, written by Peter Selinger 2001-2019
</metadata>
<g transform="translate(0.000000,42.000000) scale(0.100000,-0.100000)"
fill="#000000" stroke="none">
<path d="M136 404 l-6 -16 0 -24 0 -24 -59 0 -58 0 -6 -42 -6 -43 12 -7 12 -8
27 0 27 0 6 -10 6 -10 -6 -20 -6 -20 -19 0 -18 0 -16 -6 -16 -6 0 -28 0 -28 6
-16 6 -16 42 0 43 0 -4 -28 -4 -27 10 -14 9 -14 36 7 36 7 0 23 0 24 44 6 44
7 5 13 5 14 -5 38 -5 39 32 1 32 1 9 14 9 14 0 23 0 22 -15 0 -15 0 0 11 0 11
-20 -5 -20 -5 0 42 0 43 -30 -5 -30 -4 -31 12 -30 13 6 28 7 29 -20 0 -20 0
-6 -16z"/>
</g>
</svg>
