<?xml version="1.0" standalone="no"?>
<!DOCTYPE svg PUBLIC "-//W3C//DTD SVG 20010904//EN"
 "http://www.w3.org/TR/2001/REC-SVG-20010904/DTD/svg10.dtd">
<svg version="1.0" xmlns="http://www.w3.org/2000/svg"
 width="38.000000pt" height="44.000000pt" viewBox="0 0 38.000000 44.000000"
 preserveAspectRatio="xMidYMid meet">
<metadata>
Created by potrace 1.16, written by Peter Selinger 2001-2019
</metadata>
<g transform="translate(0.000000,44.000000) scale(0.100000,-0.100000)"
fill="#000000" stroke="none">
<path d="M136 424 l-6 -16 0 -24 0 -24 -59 0 -58 0 -7 -52 -7 -51 13 -8 13 -9
26 0 26 0 6 -6 6 -6 -6 -14 -5 -14 -18 0 -18 0 -16 -6 -16 -6 0 -38 0 -38 6
-16 6 -16 39 0 39 0 0 -24 0 -24 6 -16 6 -16 27 0 26 0 23 6 22 6 0 23 0 23
44 6 45 7 6 20 6 19 -6 29 -6 29 35 6 34 7 6 15 6 16 0 29 0 29 -15 0 -15 0 0
10 0 10 -20 0 -20 0 0 41 0 41 -31 -7 -30 -7 -28 12 -27 11 4 29 4 30 -30 0
-30 0 -6 -16z"/>
</g>
</svg>
