<?xml version="1.0" standalone="no"?>
<!DOCTYPE svg PUBLIC "-//W3C//DTD SVG 20010904//EN"
 "http://www.w3.org/TR/2001/REC-SVG-20010904/DTD/svg10.dtd">
<svg version="1.0" xmlns="http://www.w3.org/2000/svg"
 width="39.000000pt" height="37.000000pt" viewBox="0 0 39.000000 37.000000"
 preserveAspectRatio="xMidYMid meet">
<metadata>
Created by potrace 1.16, written by Peter Selinger 2001-2019
</metadata>
<g transform="translate(0.000000,37.000000) scale(0.100000,-0.100000)"
fill="#000000" stroke="none">
<path d="M207 363 l-7 -6 0 -26 0 -26 -9 -14 -9 -14 -51 7 -51 7 0 -40 0 -39
-35 -6 -35 -7 -6 -24 -6 -24 7 -20 6 -21 30 0 29 0 0 -24 0 -23 11 -32 11 -31
48 0 48 0 16 6 16 6 0 28 0 29 9 5 9 6 6 -25 6 -24 38 -10 37 -11 26 0 27 0 6
16 6 16 0 48 0 48 -22 6 -23 6 -22 0 -23 0 0 10 0 10 34 0 34 0 6 16 6 16 0
40 0 40 -50 -4 -50 -3 -5 13 -5 14 0 28 0 28 -16 6 -16 6 -12 0 -13 0 -6 -7z"/>
</g>
</svg>
