<?xml version="1.0" standalone="no"?>
<!DOCTYPE svg PUBLIC "-//W3C//DTD SVG 20010904//EN"
 "http://www.w3.org/TR/2001/REC-SVG-20010904/DTD/svg10.dtd">
<svg version="1.0" xmlns="http://www.w3.org/2000/svg"
 width="37.000000pt" height="35.000000pt" viewBox="0 0 37.000000 35.000000"
 preserveAspectRatio="xMidYMid meet">
<metadata>
Created by potrace 1.16, written by Peter Selinger 2001-2019
</metadata>
<g transform="translate(0.000000,35.000000) scale(0.100000,-0.100000)"
fill="#000000" stroke="none">
<path d="M207 343 l-7 -6 0 -26 0 -26 -9 -14 -9 -14 -51 5 -51 5 0 -37 0 -38
-34 -6 -35 -7 -6 -18 -5 -18 6 -17 6 -16 29 0 29 0 0 -24 0 -23 11 -32 11 -31
41 0 42 0 14 9 13 9 -4 13 -5 14 9 18 9 17 13 0 14 0 6 -25 6 -24 38 -10 37
-11 16 0 17 0 6 16 6 16 0 38 0 38 -22 6 -23 6 -23 0 -23 0 3 22 3 23 29 -3
29 -4 8 14 9 13 0 34 0 34 -49 -6 -49 -6 -6 15 -6 16 0 28 0 28 -16 6 -16 6
-2 0 -3 0 -6 -7z"/>
</g>
</svg>
