<?xml version="1.0" standalone="no"?>
<!DOCTYPE svg PUBLIC "-//W3C//DTD SVG 20010904//EN"
 "http://www.w3.org/TR/2001/REC-SVG-20010904/DTD/svg10.dtd">
<svg version="1.0" xmlns="http://www.w3.org/2000/svg"
 width="45.000000pt" height="36.000000pt" viewBox="0 0 45.000000 36.000000"
 preserveAspectRatio="xMidYMid meet">
<metadata>
Created by potrace 1.16, written by Peter Selinger 2001-2019
</metadata>
<g transform="translate(0.000000,36.000000) scale(0.100000,-0.100000)"
fill="#000000" stroke="none">
<path d="M203 353 l-13 -5 0 -23 0 -23 -5 -14 -5 -13 -55 3 -55 4 0 -40 0 -39
-30 -6 -29 -6 -7 -25 -6 -25 7 -20 6 -21 30 0 29 0 0 -34 0 -34 6 -16 6 -16
64 0 64 0 0 24 0 24 6 16 6 16 7 0 8 0 -5 -28 -4 -28 27 -12 26 -12 35 0 35 0
15 14 14 15 0 24 0 25 6 16 6 16 29 0 29 0 0 33 0 32 -9 14 -9 14 -26 -5 -26
-5 -5 21 -4 21 -3 25 -3 25 -52 3 -53 3 -8 32 -8 32 -15 2 -14 2 -12 -6z"/>
</g>
</svg>
