<?xml version="1.0" standalone="no"?>
<!DOCTYPE svg PUBLIC "-//W3C//DTD SVG 20010904//EN"
 "http://www.w3.org/TR/2001/REC-SVG-20010904/DTD/svg10.dtd">
<svg version="1.0" xmlns="http://www.w3.org/2000/svg"
 width="43.000000pt" height="34.000000pt" viewBox="0 0 43.000000 34.000000"
 preserveAspectRatio="xMidYMid meet">
<metadata>
Created by potrace 1.16, written by Peter Selinger 2001-2019
</metadata>
<g transform="translate(0.000000,34.000000) scale(0.100000,-0.100000)"
fill="#000000" stroke="none">
<path d="M203 333 l-13 -5 0 -23 0 -23 -6 -15 -6 -15 -54 5 -54 6 0 -40 0 -40
-29 -6 -29 -6 -6 -19 -6 -19 6 -17 6 -16 29 0 29 0 0 -34 0 -34 6 -16 6 -16
54 0 54 0 0 24 0 24 6 16 6 16 20 0 20 0 -7 -28 -6 -28 26 -12 26 -12 25 0 25
0 15 14 14 15 0 24 0 25 6 16 6 16 29 0 29 0 0 23 0 22 -9 13 -8 13 -26 -6
-26 -7 -5 24 -5 23 -3 25 -3 25 -53 3 -53 3 -6 30 -6 29 -6 4 -6 3 -12 -4z"/>
</g>
</svg>
