<?xml version="1.0" standalone="no"?>
<!DOCTYPE svg PUBLIC "-//W3C//DTD SVG 20010904//EN"
 "http://www.w3.org/TR/2001/REC-SVG-20010904/DTD/svg10.dtd">
<svg version="1.0" xmlns="http://www.w3.org/2000/svg"
 width="44.000000pt" height="40.000000pt" viewBox="0 0 44.000000 40.000000"
 preserveAspectRatio="xMidYMid meet">
<metadata>
Created by potrace 1.16, written by Peter Selinger 2001-2019
</metadata>
<g transform="translate(0.000000,40.000000) scale(0.100000,-0.100000)"
fill="#000000" stroke="none">
<path d="M202 384 l-9 -17 4 -18 5 -18 -26 -7 -26 -6 -35 4 -35 4 0 -39 0 -38
-21 6 -20 7 -20 -23 -19 -22 0 -13 0 -13 16 -15 15 -16 30 0 29 0 0 -50 0 -50
39 6 38 6 6 -30 6 -30 26 -6 26 -7 14 15 15 15 0 20 0 21 44 0 44 0 6 16 6 16
0 34 0 34 25 0 25 0 0 10 0 10 15 0 15 0 0 14 0 15 -16 16 -17 16 -23 -5 -24
-6 0 45 0 45 -17 0 -18 0 -37 11 -38 10 -6 24 -6 25 -14 0 -13 0 -9 -16z"/>
</g>
</svg>
