<?xml version="1.0" standalone="no"?>
<!DOCTYPE svg PUBLIC "-//W3C//DTD SVG 20010904//EN"
 "http://www.w3.org/TR/2001/REC-SVG-20010904/DTD/svg10.dtd">
<svg version="1.0" xmlns="http://www.w3.org/2000/svg"
 width="46.000000pt" height="42.000000pt" viewBox="0 0 46.000000 42.000000"
 preserveAspectRatio="xMidYMid meet">
<metadata>
Created by potrace 1.16, written by Peter Selinger 2001-2019
</metadata>
<g transform="translate(0.000000,42.000000) scale(0.100000,-0.100000)"
fill="#000000" stroke="none">
<path d="M200 399 l-12 -21 6 -14 5 -14 -24 -6 -25 -6 -35 6 -35 7 0 -36 0
-35 -21 0 -22 0 -18 -22 -19 -21 0 -23 0 -23 16 -15 15 -16 30 0 29 0 0 -51 0
-52 39 7 39 6 5 -30 6 -29 35 -7 35 -6 16 15 15 16 0 20 0 21 44 0 44 0 6 16
6 16 0 34 0 34 25 0 25 0 0 10 0 10 15 0 15 0 0 24 0 25 -16 15 -15 16 -25 0
-24 0 0 40 0 40 -17 0 -18 0 -37 11 -38 10 -6 24 -6 25 -24 0 -23 0 -11 -21z"/>
</g>
</svg>
