<?xml version="1.0" standalone="no"?>
<!DOCTYPE svg PUBLIC "-//W3C//DTD SVG 20010904//EN"
 "http://www.w3.org/TR/2001/REC-SVG-20010904/DTD/svg10.dtd">
<svg version="1.0" xmlns="http://www.w3.org/2000/svg"
 width="30.000000pt" height="42.000000pt" viewBox="0 0 30.000000 42.000000"
 preserveAspectRatio="xMidYMid meet">
<metadata>
Created by potrace 1.16, written by Peter Selinger 2001-2019
</metadata>
<g transform="translate(0.000000,42.000000) scale(0.100000,-0.100000)"
fill="#000000" stroke="none">
<path d="M120 388 l0 -33 -9 -14 -9 -13 -51 7 -51 7 0 -42 0 -41 15 -15 15
-15 20 6 20 6 0 -26 0 -27 -20 -5 -20 -5 -11 -41 -11 -40 14 -8 13 -9 28 0 27
0 0 -34 0 -34 16 -6 16 -6 15 0 14 0 15 15 15 15 6 34 5 34 34 -10 34 -9 14
14 14 13 6 32 7 31 -23 5 -23 5 -20 3 -20 3 -3 27 -3 27 40 11 41 11 0 22 0
22 -6 22 -6 22 -48 -6 -49 -6 -11 42 -11 41 -19 0 -20 0 0 -32z"/>
</g>
</svg>
