<?xml version="1.0" standalone="no"?>
<!DOCTYPE svg PUBLIC "-//W3C//DTD SVG 20010904//EN"
 "http://www.w3.org/TR/2001/REC-SVG-20010904/DTD/svg10.dtd">
<svg version="1.0" xmlns="http://www.w3.org/2000/svg"
 width="32.000000pt" height="44.000000pt" viewBox="0 0 32.000000 44.000000"
 preserveAspectRatio="xMidYMid meet">
<metadata>
Created by potrace 1.16, written by Peter Selinger 2001-2019
</metadata>
<g transform="translate(0.000000,44.000000) scale(0.100000,-0.100000)"
fill="#000000" stroke="none">
<path d="M120 411 l0 -29 -6 -16 -6 -16 -54 6 -54 7 0 -52 0 -52 14 -15 15
-14 20 0 21 0 0 -11 0 -11 -20 -5 -20 -5 -10 -37 -10 -36 0 -16 0 -17 16 -6
16 -6 24 0 24 0 0 -34 0 -34 16 -6 16 -6 25 0 24 0 15 14 14 15 6 31 7 30 33
-6 33 -6 15 15 15 15 7 41 6 40 -23 5 -24 5 -20 3 -20 3 -3 17 -3 17 40 11 41
11 0 32 0 32 -6 23 -7 24 -48 -7 -48 -7 -11 41 -11 41 -29 0 -30 0 0 -29z"/>
</g>
</svg>
