<?xml version="1.0" standalone="no"?>
<!DOCTYPE svg PUBLIC "-//W3C//DTD SVG 20010904//EN"
 "http://www.w3.org/TR/2001/REC-SVG-20010904/DTD/svg10.dtd">
<svg version="1.0" xmlns="http://www.w3.org/2000/svg"
 width="44.000000pt" height="37.000000pt" viewBox="0 0 44.000000 37.000000"
 preserveAspectRatio="xMidYMid meet">
<metadata>
Created by potrace 1.16, written by Peter Selinger 2001-2019
</metadata>
<g transform="translate(0.000000,37.000000) scale(0.100000,-0.100000)"
fill="#000000" stroke="none">
<path d="M264 353 l6 -15 -6 -23 -6 -24 -18 -6 -17 -5 -17 6 -16 6 0 28 0 28
-42 4 -43 5 -7 -4 -8 -4 0 -40 0 -39 -39 0 -39 0 -6 -16 -6 -16 0 -15 0 -14
15 -16 16 -15 13 5 14 6 5 -27 6 -27 19 -23 19 -22 37 0 36 0 0 -31 0 -30 14
-15 15 -14 14 0 15 0 16 6 16 6 0 23 0 23 16 6 16 6 19 0 19 0 0 10 0 10 15 0
15 0 0 15 0 15 10 0 10 0 0 19 0 20 25 27 25 27 0 23 0 23 -32 9 -33 8 -3 42
-3 42 -7 0 -7 1 -48 3 -48 4 5 -15z"/>
</g>
</svg>
