<?xml version="1.0" standalone="no"?>
<!DOCTYPE svg PUBLIC "-//W3C//DTD SVG 20010904//EN"
 "http://www.w3.org/TR/2001/REC-SVG-20010904/DTD/svg10.dtd">
<svg version="1.0" xmlns="http://www.w3.org/2000/svg"
 width="46.000000pt" height="39.000000pt" viewBox="0 0 46.000000 39.000000"
 preserveAspectRatio="xMidYMid meet">
<metadata>
Created by potrace 1.16, written by Peter Selinger 2001-2019
</metadata>
<g transform="translate(0.000000,39.000000) scale(0.100000,-0.100000)"
fill="#000000" stroke="none">
<path d="M262 354 l1 -36 -13 -8 -13 -8 -14 5 -13 5 0 28 0 27 -51 6 -52 6 -8
-5 -9 -5 0 -40 0 -39 -39 0 -39 0 -6 -16 -6 -16 0 -25 0 -24 14 -15 15 -14 14
0 15 0 6 -23 5 -23 19 -22 19 -22 37 0 36 0 0 -31 0 -30 14 -15 15 -14 24 0
25 0 16 6 16 6 0 23 0 23 16 6 16 6 19 0 19 0 0 10 0 10 15 0 15 0 0 15 0 15
10 0 10 0 0 19 0 20 25 27 25 27 0 33 0 33 -32 9 -33 8 -3 42 -3 42 -7 1 -7 1
-57 4 -57 3 1 -35z"/>
</g>
</svg>
