<?xml version="1.0" standalone="no"?>
<!DOCTYPE svg PUBLIC "-//W3C//DTD SVG 20010904//EN"
 "http://www.w3.org/TR/2001/REC-SVG-20010904/DTD/svg10.dtd">
<svg version="1.0" xmlns="http://www.w3.org/2000/svg"
 width="28.000000pt" height="35.000000pt" viewBox="0 0 28.000000 35.000000"
 preserveAspectRatio="xMidYMid meet">
<metadata>
Created by potrace 1.16, written by Peter Selinger 2001-2019
</metadata>
<g transform="translate(0.000000,35.000000) scale(0.100000,-0.100000)"
fill="#000000" stroke="none">
<path d="M174 333 l7 -21 -12 -26 -12 -26 -23 0 -24 0 -6 25 -6 25 6 15 5 15
-54 -2 -55 -2 0 -31 0 -30 8 -11 7 -11 23 -7 22 -7 0 -19 0 -18 -30 -7 -30 -7
0 -53 0 -53 23 -6 22 -6 33 0 33 0 -6 -10 -6 -10 6 -19 6 -19 25 -6 26 -7 20
23 19 22 -4 18 -5 18 33 0 34 0 6 21 7 20 -6 24 -6 24 -23 7 -22 7 -7 11 -8
11 0 13 0 12 24 0 24 0 16 6 16 6 0 49 0 49 -32 0 -33 0 -24 7 -23 6 6 -20z"/>
</g>
</svg>
