<?xml version="1.0" standalone="no"?>
<!DOCTYPE svg PUBLIC "-//W3C//DTD SVG 20010904//EN"
 "http://www.w3.org/TR/2001/REC-SVG-20010904/DTD/svg10.dtd">
<svg version="1.0" xmlns="http://www.w3.org/2000/svg"
 width="30.000000pt" height="37.000000pt" viewBox="0 0 30.000000 37.000000"
 preserveAspectRatio="xMidYMid meet">
<metadata>
Created by potrace 1.16, written by Peter Selinger 2001-2019
</metadata>
<g transform="translate(0.000000,37.000000) scale(0.100000,-0.100000)"
fill="#000000" stroke="none">
<path d="M171 349 l3 -24 -8 -22 -7 -23 -14 0 -13 0 -6 16 -6 16 6 24 6 24
-66 0 -66 0 0 -42 0 -43 8 -11 7 -11 23 -7 22 -7 0 -9 0 -8 -30 -7 -30 -7 0
-63 0 -63 23 -6 22 -6 26 0 27 0 5 -29 6 -30 36 -7 36 -6 19 22 20 23 0 19 0
18 29 0 29 0 6 16 6 16 0 28 0 29 -16 15 -15 16 -14 0 -13 0 -6 15 -5 15 23 0
24 0 16 6 16 6 0 59 0 59 -27 0 -28 0 -38 7 -39 6 3 -24z"/>
</g>
</svg>
