<?xml version="1.0" standalone="no"?>
<!DOCTYPE svg PUBLIC "-//W3C//DTD SVG 20010904//EN"
 "http://www.w3.org/TR/2001/REC-SVG-20010904/DTD/svg10.dtd">
<svg version="1.0" xmlns="http://www.w3.org/2000/svg"
 width="42.000000pt" height="38.000000pt" viewBox="0 0 42.000000 38.000000"
 preserveAspectRatio="xMidYMid meet">
<metadata>
Created by potrace 1.16, written by Peter Selinger 2001-2019
</metadata>
<g transform="translate(0.000000,38.000000) scale(0.100000,-0.100000)"
fill="#000000" stroke="none">
<path d="M247 374 l-5 -9 0 -29 1 -28 -14 -9 -13 -8 -8 12 -8 12 0 23 0 22
-65 0 -65 0 0 -35 0 -35 -19 0 -20 0 -15 -16 -16 -15 0 -45 0 -44 24 0 24 0 7
-37 7 -38 11 -7 12 -8 38 0 37 0 0 -34 0 -34 16 -6 16 -6 27 0 28 0 11 25 12
26 0 17 0 18 42 -4 41 -4 -6 50 -6 50 15 6 16 6 24 0 24 0 0 30 0 30 -19 0
-20 0 -15 16 -16 15 0 45 0 44 -19 0 -18 0 -31 6 -30 6 -5 -8z"/>
</g>
</svg>
