<?xml version="1.0" standalone="no"?>
<!DOCTYPE svg PUBLIC "-//W3C//DTD SVG 20010904//EN"
 "http://www.w3.org/TR/2001/REC-SVG-20010904/DTD/svg10.dtd">
<svg version="1.0" xmlns="http://www.w3.org/2000/svg"
 width="40.000000pt" height="36.000000pt" viewBox="0 0 40.000000 36.000000"
 preserveAspectRatio="xMidYMid meet">
<metadata>
Created by potrace 1.16, written by Peter Selinger 2001-2019
</metadata>
<g transform="translate(0.000000,36.000000) scale(0.100000,-0.100000)"
fill="#000000" stroke="none">
<path d="M249 354 l-1 -9 -2 -15 -3 -15 -1 -17 -2 -17 -21 -6 -21 -7 -9 13 -9
14 0 23 0 22 -55 0 -55 0 0 -35 0 -35 -19 0 -20 0 -15 -16 -16 -15 0 -35 0
-34 24 0 24 0 7 -37 7 -38 11 -7 12 -8 38 0 37 0 0 -34 0 -34 16 -6 16 -6 18
0 18 0 11 28 12 29 -3 14 -3 14 44 -3 44 -4 -8 48 -7 47 14 8 13 9 28 0 27 0
0 20 0 20 -19 0 -20 0 -15 16 -16 15 0 45 0 44 -24 0 -24 0 -16 6 -16 6 -1 -8z"/>
</g>
</svg>
