<?xml version="1.0" standalone="no"?>
<!DOCTYPE svg PUBLIC "-//W3C//DTD SVG 20010904//EN"
 "http://www.w3.org/TR/2001/REC-SVG-20010904/DTD/svg10.dtd">
<svg version="1.0" xmlns="http://www.w3.org/2000/svg"
 width="32.000000pt" height="33.000000pt" viewBox="0 0 32.000000 33.000000"
 preserveAspectRatio="xMidYMid meet">
<metadata>
Created by potrace 1.16, written by Peter Selinger 2001-2019
</metadata>
<g transform="translate(0.000000,33.000000) scale(0.100000,-0.100000)"
fill="#000000" stroke="none">
<path d="M103 300 l-6 -30 -23 -6 -24 -6 -25 4 -25 5 0 -118 0 -117 6 -16 6
-16 29 0 28 0 26 12 26 12 -6 23 -5 23 25 0 25 0 0 -8 0 -9 25 -11 26 -12 19
0 20 0 0 6 0 5 -11 20 -10 20 6 20 7 21 23 -6 23 -6 16 6 16 6 0 24 0 24 -23
-5 -23 -6 -12 26 -12 26 0 25 0 25 -38 -2 -38 -3 -12 8 -12 7 0 30 0 29 -20 0
-20 0 -7 -30z"/>
</g>
</svg>
