<?xml version="1.0" standalone="no"?>
<!DOCTYPE svg PUBLIC "-//W3C//DTD SVG 20010904//EN"
 "http://www.w3.org/TR/2001/REC-SVG-20010904/DTD/svg10.dtd">
<svg version="1.0" xmlns="http://www.w3.org/2000/svg"
 width="34.000000pt" height="35.000000pt" viewBox="0 0 34.000000 35.000000"
 preserveAspectRatio="xMidYMid meet">
<metadata>
Created by potrace 1.16, written by Peter Selinger 2001-2019
</metadata>
<g transform="translate(0.000000,35.000000) scale(0.100000,-0.100000)"
fill="#000000" stroke="none">
<path d="M104 320 l-6 -29 -19 -6 -19 -6 -30 6 -30 7 0 -130 0 -130 6 -16 6
-16 39 0 38 0 26 12 25 11 0 24 0 23 10 0 10 0 0 -8 0 -9 25 -11 26 -12 29 0
30 0 0 18 0 17 -9 14 -9 14 5 13 5 13 14 -6 14 -5 25 6 25 6 0 36 0 36 -24 -4
-24 -5 -11 24 -11 24 0 24 0 24 -47 3 -48 3 -3 33 -3 32 -30 0 -29 0 -6 -30z"/>
</g>
</svg>
