<?xml version="1.0" standalone="no"?>
<!DOCTYPE svg PUBLIC "-//W3C//DTD SVG 20010904//EN"
 "http://www.w3.org/TR/2001/REC-SVG-20010904/DTD/svg10.dtd">
<svg version="1.0" xmlns="http://www.w3.org/2000/svg"
 width="36.000000pt" height="37.000000pt" viewBox="0 0 36.000000 37.000000"
 preserveAspectRatio="xMidYMid meet">
<metadata>
Created by potrace 1.16, written by Peter Selinger 2001-2019
</metadata>
<g transform="translate(0.000000,37.000000) scale(0.100000,-0.100000)"
fill="#000000" stroke="none">
<path d="M110 343 l0 -28 -9 -14 -9 -14 -46 6 -46 7 0 -144 0 -143 57 -7 56
-7 9 13 8 13 0 28 0 27 14 0 15 0 6 -20 6 -20 41 -11 41 -10 23 5 24 6 0 40 0
40 30 0 30 0 0 45 0 44 -35 7 -35 6 0 45 0 44 -42 -6 -43 -6 -12 8 -11 8 -4
30 -3 30 -32 3 -33 3 0 -28z"/>
</g>
</svg>
