<?xml version="1.0" standalone="no"?>
<!DOCTYPE svg PUBLIC "-//W3C//DTD SVG 20010904//EN"
 "http://www.w3.org/TR/2001/REC-SVG-20010904/DTD/svg10.dtd">
<svg version="1.0" xmlns="http://www.w3.org/2000/svg"
 width="34.000000pt" height="35.000000pt" viewBox="0 0 34.000000 35.000000"
 preserveAspectRatio="xMidYMid meet">
<metadata>
Created by potrace 1.16, written by Peter Selinger 2001-2019
</metadata>
<g transform="translate(0.000000,35.000000) scale(0.100000,-0.100000)"
fill="#000000" stroke="none">
<path d="M110 323 l0 -28 -9 -14 -9 -13 -46 3 -46 4 0 -131 0 -131 47 -6 48
-5 7 11 8 12 0 28 0 27 24 0 25 0 6 -20 6 -20 39 -10 38 -10 16 6 16 6 0 39 0
39 30 0 30 0 0 35 0 34 -35 7 -35 6 0 44 0 44 -30 -6 -29 -6 -25 6 -25 6 -3
33 -3 32 -22 3 -23 3 0 -28z"/>
</g>
</svg>
