<?xml version="1.0" standalone="no"?>
<!DOCTYPE svg PUBLIC "-//W3C//DTD SVG 20010904//EN"
 "http://www.w3.org/TR/2001/REC-SVG-20010904/DTD/svg10.dtd">
<svg version="1.0" xmlns="http://www.w3.org/2000/svg"
 width="37.000000pt" height="43.000000pt" viewBox="0 0 37.000000 43.000000"
 preserveAspectRatio="xMidYMid meet">
<metadata>
Created by potrace 1.16, written by Peter Selinger 2001-2019
</metadata>
<g transform="translate(0.000000,43.000000) scale(0.100000,-0.100000)"
fill="#000000" stroke="none">
<path d="M114 415 l-6 -15 5 -19 5 -19 -25 -11 -25 -12 -34 7 -34 6 0 -135 0
-135 16 -6 16 -6 24 0 24 0 0 -21 0 -20 14 -15 15 -14 30 0 31 0 17 20 17 20
13 0 12 0 27 12 26 12 -4 53 -5 53 17 0 17 0 32 11 31 11 0 32 0 33 -25 11
-26 12 -14 0 -15 0 0 39 0 39 -40 0 -40 1 -20 6 -20 6 0 30 0 29 -25 0 -26 0
-5 -15z"/>
</g>
</svg>
