<?xml version="1.0" standalone="no"?>
<!DOCTYPE svg PUBLIC "-//W3C//DTD SVG 20010904//EN"
 "http://www.w3.org/TR/2001/REC-SVG-20010904/DTD/svg10.dtd">
<svg version="1.0" xmlns="http://www.w3.org/2000/svg"
 width="35.000000pt" height="41.000000pt" viewBox="0 0 35.000000 41.000000"
 preserveAspectRatio="xMidYMid meet">
<metadata>
Created by potrace 1.16, written by Peter Selinger 2001-2019
</metadata>
<g transform="translate(0.000000,41.000000) scale(0.100000,-0.100000)"
fill="#000000" stroke="none">
<path d="M115 400 l-6 -9 6 -24 6 -24 -30 -13 -31 -12 -30 6 -30 6 0 -125 0
-125 22 -4 23 -5 20 -3 20 -4 -3 -17 -3 -17 15 -15 15 -15 20 0 21 0 17 20 17
20 13 0 12 0 27 12 26 12 -7 59 -6 60 17 -7 17 -7 34 12 33 11 0 23 0 23 -29
12 -30 12 -10 -7 -11 -6 0 43 0 43 -37 2 -37 2 -23 6 -23 5 0 30 0 30 -14 0
-15 0 -6 -10z"/>
</g>
</svg>
