<?xml version="1.0" standalone="no"?>
<!DOCTYPE svg PUBLIC "-//W3C//DTD SVG 20010904//EN"
 "http://www.w3.org/TR/2001/REC-SVG-20010904/DTD/svg10.dtd">
<svg version="1.0" xmlns="http://www.w3.org/2000/svg"
 width="40.000000pt" height="35.000000pt" viewBox="0 0 40.000000 35.000000"
 preserveAspectRatio="xMidYMid meet">
<metadata>
Created by potrace 1.16, written by Peter Selinger 2001-2019
</metadata>
<g transform="translate(0.000000,35.000000) scale(0.100000,-0.100000)"
fill="#000000" stroke="none">
<path d="M70 306 l0 -44 -16 -6 -16 -6 -19 0 -20 0 3 -27 3 -27 34 -9 34 -8
-7 -55 -6 -54 45 0 45 0 0 -19 0 -19 6 -16 6 -16 39 0 39 0 0 24 0 23 50 7 50
7 -6 54 -7 54 34 8 34 9 3 37 3 37 -29 0 -30 0 -6 16 -6 16 0 25 0 26 -37 -7
-38 -6 -12 0 -13 0 0 -24 0 -24 -27 -6 -26 -7 -9 13 -8 13 6 28 6 27 -51 0
-51 0 0 -44z"/>
</g>
</svg>
