<?xml version="1.0" standalone="no"?>
<!DOCTYPE svg PUBLIC "-//W3C//DTD SVG 20010904//EN"
 "http://www.w3.org/TR/2001/REC-SVG-20010904/DTD/svg10.dtd">
<svg version="1.0" xmlns="http://www.w3.org/2000/svg"
 width="38.000000pt" height="33.000000pt" viewBox="0 0 38.000000 33.000000"
 preserveAspectRatio="xMidYMid meet">
<metadata>
Created by potrace 1.16, written by Peter Selinger 2001-2019
</metadata>
<g transform="translate(0.000000,33.000000) scale(0.100000,-0.100000)"
fill="#000000" stroke="none">
<path d="M70 286 l0 -44 -16 -6 -16 -6 -20 0 -19 0 3 -17 3 -17 34 -8 33 -9
-4 -55 -5 -54 49 0 49 0 -6 -19 -5 -18 6 -17 6 -16 29 0 29 0 0 24 0 23 49 7
50 7 -6 37 -6 37 -1 15 -1 14 35 12 35 11 3 27 3 26 -29 0 -30 0 -6 16 -6 16
0 25 0 25 -22 -6 -23 -6 -17 0 -18 0 0 -25 0 -24 -36 -7 -36 -7 -9 14 -10 14
4 28 4 27 -39 0 -38 0 0 -44z"/>
</g>
</svg>
