<?xml version="1.0" standalone="no"?>
<!DOCTYPE svg PUBLIC "-//W3C//DTD SVG 20010904//EN"
 "http://www.w3.org/TR/2001/REC-SVG-20010904/DTD/svg10.dtd">
<svg version="1.0" xmlns="http://www.w3.org/2000/svg"
 width="37.000000pt" height="36.000000pt" viewBox="0 0 37.000000 36.000000"
 preserveAspectRatio="xMidYMid meet">
<metadata>
Created by potrace 1.16, written by Peter Selinger 2001-2019
</metadata>
<g transform="translate(0.000000,36.000000) scale(0.100000,-0.100000)"
fill="#000000" stroke="none">
<path d="M20 309 l0 -51 29 4 29 4 11 -23 11 -23 -14 0 -14 0 -4 -12 -5 -13
-32 3 -33 2 7 -46 7 -47 5 -13 5 -14 39 0 39 0 0 -24 0 -25 16 -15 15 -16 24
0 24 0 15 16 16 15 0 13 0 12 45 13 45 13 0 18 0 18 -10 4 -10 3 -9 32 -10 33
22 5 22 5 30 2 30 3 3 26 3 26 -39 7 -40 6 -6 16 -6 16 0 29 0 29 -15 0 -15 0
0 -10 0 -10 -19 0 -19 0 -16 -6 -16 -6 0 -23 0 -24 -20 -6 -20 -6 -15 15 -15
15 0 30 0 31 -45 0 -45 0 0 -51z"/>
</g>
</svg>
