<?xml version="1.0" standalone="no"?>
<!DOCTYPE svg PUBLIC "-//W3C//DTD SVG 20010904//EN"
 "http://www.w3.org/TR/2001/REC-SVG-20010904/DTD/svg10.dtd">
<svg version="1.0" xmlns="http://www.w3.org/2000/svg"
 width="35.000000pt" height="34.000000pt" viewBox="0 0 35.000000 34.000000"
 preserveAspectRatio="xMidYMid meet">
<metadata>
Created by potrace 1.16, written by Peter Selinger 2001-2019
</metadata>
<g transform="translate(0.000000,34.000000) scale(0.100000,-0.100000)"
fill="#000000" stroke="none">
<path d="M20 299 l0 -41 28 7 28 6 12 -26 12 -26 0 -9 0 -10 -11 0 -10 0 -16
-16 -16 -15 -24 6 -25 6 7 -33 6 -33 5 -17 5 -18 40 0 39 0 0 -24 0 -25 16
-15 15 -16 14 0 14 0 15 16 16 15 0 13 0 12 45 13 45 13 0 9 0 9 -10 0 -9 0
-11 41 -11 41 6 6 6 6 47 6 47 5 3 16 3 16 -39 7 -40 6 -6 16 -6 16 -1 31 -1
32 -5 -12 -5 -13 -18 0 -18 0 -16 -6 -16 -6 0 -23 0 -23 -16 -6 -16 -6 -15 0
-14 0 -15 14 -14 15 0 30 0 31 -35 0 -35 0 0 -41z"/>
</g>
</svg>
