<?xml version="1.0" standalone="no"?>
<!DOCTYPE svg PUBLIC "-//W3C//DTD SVG 20010904//EN"
 "http://www.w3.org/TR/2001/REC-SVG-20010904/DTD/svg10.dtd">
<svg version="1.0" xmlns="http://www.w3.org/2000/svg"
 width="38.000000pt" height="30.000000pt" viewBox="0 0 38.000000 30.000000"
 preserveAspectRatio="xMidYMid meet">
<metadata>
Created by potrace 1.16, written by Peter Selinger 2001-2019
</metadata>
<g transform="translate(0.000000,30.000000) scale(0.100000,-0.100000)"
fill="#000000" stroke="none">
<path d="M270 271 l0 -29 -6 -16 -6 -16 -25 0 -24 0 -16 15 -15 16 6 14 5 15
-49 0 -50 0 0 -40 0 -39 -30 5 -29 6 -16 -15 -15 -16 0 -17 0 -17 22 -19 23
-20 33 4 34 4 -6 -35 -5 -36 7 -11 7 -11 41 -6 42 -7 6 16 6 16 0 23 0 23 15
5 14 6 4 -7 4 -7 7 -27 6 -28 43 0 42 0 13 8 13 9 5 35 6 35 -38 10 -39 9 -3
27 -3 27 26 0 26 0 15 14 14 15 -6 43 -7 43 -4 -12 -5 -13 -16 9 -17 8 -27 7
-28 6 0 -29z"/>
</g>
</svg>
