<?xml version="1.0" standalone="no"?>
<!DOCTYPE svg PUBLIC "-//W3C//DTD SVG 20010904//EN"
 "http://www.w3.org/TR/2001/REC-SVG-20010904/DTD/svg10.dtd">
<svg version="1.0" xmlns="http://www.w3.org/2000/svg"
 width="40.000000pt" height="32.000000pt" viewBox="0 0 40.000000 32.000000"
 preserveAspectRatio="xMidYMid meet">
<metadata>
Created by potrace 1.16, written by Peter Selinger 2001-2019
</metadata>
<g transform="translate(0.000000,32.000000) scale(0.100000,-0.100000)"
fill="#000000" stroke="none">
<path d="M270 292 l0 -30 -6 -16 -6 -16 -14 0 -15 0 -13 12 -13 12 5 18 4 18
-61 0 -61 0 0 -35 0 -35 -31 0 -30 0 -15 -14 -14 -15 0 -27 0 -27 22 -18 21
-19 34 0 33 0 -6 -24 -6 -25 6 -19 7 -19 51 -7 51 -7 8 13 9 13 0 28 0 27 9 0
9 0 6 -30 6 -30 52 0 53 0 14 9 13 9 5 44 5 45 -38 10 -39 9 -3 17 -3 17 26 0
26 0 16 15 15 15 -7 50 -7 50 -21 -2 -22 -1 -37 8 -38 7 0 -30z"/>
</g>
</svg>
