<?xml version="1.0" standalone="no"?>
<!DOCTYPE svg PUBLIC "-//W3C//DTD SVG 20010904//EN"
 "http://www.w3.org/TR/2001/REC-SVG-20010904/DTD/svg10.dtd">
<svg version="1.0" xmlns="http://www.w3.org/2000/svg"
 width="38.000000pt" height="34.000000pt" viewBox="0 0 38.000000 34.000000"
 preserveAspectRatio="xMidYMid meet">
<metadata>
Created by potrace 1.16, written by Peter Selinger 2001-2019
</metadata>
<g transform="translate(0.000000,34.000000) scale(0.100000,-0.100000)"
fill="#000000" stroke="none">
<path d="M97 333 l-7 -6 0 -38 0 -38 -19 -6 -18 -5 -15 5 -15 6 -13 -15 -12
-16 6 -15 5 -15 35 0 34 0 6 -16 6 -16 0 -43 0 -43 45 6 45 5 -6 -17 -6 -16 6
-25 6 -25 24 0 23 0 12 26 12 26 -6 19 -6 19 45 -6 45 -7 16 17 17 16 10 37
10 36 -14 8 -13 9 -33 0 -33 0 3 17 3 17 34 8 33 9 -6 42 -7 41 -2 1 -2 1 -51
-4 -52 -4 5 -19 5 -19 -15 0 -15 0 -4 -11 -4 -12 -22 7 -23 8 -6 29 -5 29 -28
0 -27 0 -6 -7z"/>
</g>
</svg>
