<?xml version="1.0" standalone="no"?>
<!DOCTYPE svg PUBLIC "-//W3C//DTD SVG 20010904//EN"
 "http://www.w3.org/TR/2001/REC-SVG-20010904/DTD/svg10.dtd">
<svg version="1.0" xmlns="http://www.w3.org/2000/svg"
 width="40.000000pt" height="36.000000pt" viewBox="0 0 40.000000 36.000000"
 preserveAspectRatio="xMidYMid meet">
<metadata>
Created by potrace 1.16, written by Peter Selinger 2001-2019
</metadata>
<g transform="translate(0.000000,36.000000) scale(0.100000,-0.100000)"
fill="#000000" stroke="none">
<path d="M97 353 l-7 -6 0 -39 0 -38 -12 -1 -13 -1 -21 1 -21 2 -12 -15 -13
-15 4 -23 3 -23 35 -3 35 -4 7 -11 8 -12 0 -48 0 -49 40 7 40 7 0 -25 0 -25 6
-16 6 -16 32 0 33 0 11 25 12 26 0 14 0 15 41 0 42 0 18 21 17 20 7 41 7 40
-13 9 -14 9 -33 0 -33 0 5 9 6 8 31 7 32 6 -6 51 -6 52 -3 3 -3 3 -63 -6 -64
-6 5 -18 5 -19 -13 0 -13 0 -4 -11 -4 -12 -17 17 -17 17 0 20 0 19 -38 0 -39
0 -6 -7z"/>
</g>
</svg>
