<?xml version="1.0" standalone="no"?>
<!DOCTYPE svg PUBLIC "-//W3C//DTD SVG 20010904//EN"
 "http://www.w3.org/TR/2001/REC-SVG-20010904/DTD/svg10.dtd">
<svg version="1.0" xmlns="http://www.w3.org/2000/svg"
 width="30.000000pt" height="37.000000pt" viewBox="0 0 30.000000 37.000000"
 preserveAspectRatio="xMidYMid meet">
<metadata>
Created by potrace 1.16, written by Peter Selinger 2001-2019
</metadata>
<g transform="translate(0.000000,37.000000) scale(0.100000,-0.100000)"
fill="#000000" stroke="none">
<path d="M4 348 l6 -23 0 -32 0 -33 21 0 20 0 15 -14 14 -15 -16 -15 -15 -16
-15 0 -14 0 0 -22 0 -23 -6 -38 -7 -37 42 0 41 0 0 -34 0 -34 16 -6 16 -6 25
0 24 0 15 14 14 15 0 15 0 15 40 11 40 11 0 38 0 39 -6 30 -6 31 -19 6 -19 6
0 9 0 8 35 6 35 7 0 55 0 55 -67 -3 -68 -3 -1 -28 -1 -29 -13 -8 -12 -8 -19 5
-19 5 6 34 6 34 -57 0 -57 0 6 -22z"/>
</g>
</svg>
