<?xml version="1.0" standalone="no"?>
<!DOCTYPE svg PUBLIC "-//W3C//DTD SVG 20010904//EN"
 "http://www.w3.org/TR/2001/REC-SVG-20010904/DTD/svg10.dtd">
<svg version="1.0" xmlns="http://www.w3.org/2000/svg"
 width="34.000000pt" height="36.000000pt" viewBox="0 0 34.000000 36.000000"
 preserveAspectRatio="xMidYMid meet">
<metadata>
Created by potrace 1.16, written by Peter Selinger 2001-2019
</metadata>
<g transform="translate(0.000000,36.000000) scale(0.100000,-0.100000)"
fill="#000000" stroke="none">
<path d="M65 330 l6 -30 -6 -20 -6 -20 -30 0 -29 0 0 -25 0 -25 28 -5 27 -6
22 -5 22 -4 -11 -33 -10 -32 -5 -22 -5 -23 40 0 40 0 6 -35 7 -35 26 -6 26 -7
19 23 18 22 0 24 0 24 40 0 40 0 0 60 0 60 -29 0 -29 0 -6 15 -5 15 14 0 15 0
0 10 0 10 25 0 25 0 0 46 0 47 -47 -7 -48 -6 -20 -24 -21 -25 -13 8 -12 8 7
26 6 27 -67 0 -67 0 7 -30z"/>
</g>
</svg>
