<?xml version="1.0" standalone="no"?>
<!DOCTYPE svg PUBLIC "-//W3C//DTD SVG 20010904//EN"
 "http://www.w3.org/TR/2001/REC-SVG-20010904/DTD/svg10.dtd">
<svg version="1.0" xmlns="http://www.w3.org/2000/svg"
 width="32.000000pt" height="34.000000pt" viewBox="0 0 32.000000 34.000000"
 preserveAspectRatio="xMidYMid meet">
<metadata>
Created by potrace 1.16, written by Peter Selinger 2001-2019
</metadata>
<g transform="translate(0.000000,34.000000) scale(0.100000,-0.100000)"
fill="#000000" stroke="none">
<path d="M68 315 l4 -25 -6 -25 -6 -25 -30 0 -30 0 0 -14 0 -14 16 -6 16 -6
21 0 22 0 13 -9 14 -8 -10 -34 -10 -34 -7 -18 -7 -17 47 0 46 0 -6 -10 -6 -9
7 -25 6 -25 16 -6 17 -6 17 21 18 22 0 24 0 24 40 0 40 0 0 50 0 50 -29 0 -29
0 -6 16 -6 16 0 9 0 9 15 0 15 0 0 10 0 10 25 0 25 0 0 36 0 36 -37 -7 -38 -7
-22 -25 -22 -25 -21 7 -22 7 4 29 5 29 -52 0 -52 0 5 -25z"/>
</g>
</svg>
