<?xml version="1.0" standalone="no"?>
<!DOCTYPE svg PUBLIC "-//W3C//DTD SVG 20010904//EN"
 "http://www.w3.org/TR/2001/REC-SVG-20010904/DTD/svg10.dtd">
<svg version="1.0" xmlns="http://www.w3.org/2000/svg"
 width="42.000000pt" height="34.000000pt" viewBox="0 0 42.000000 34.000000"
 preserveAspectRatio="xMidYMid meet">
<metadata>
Created by potrace 1.16, written by Peter Selinger 2001-2019
</metadata>
<g transform="translate(0.000000,34.000000) scale(0.100000,-0.100000)"
fill="#000000" stroke="none">
<path d="M284 332 l-51 -3 5 -24 4 -24 -15 -16 -16 -15 -10 0 -10 0 -16 16
-16 17 5 23 6 24 -45 0 -45 0 0 -37 0 -38 -9 -13 -8 -14 -29 4 -29 3 -3 -22
-3 -23 23 0 23 0 24 -7 23 -6 -4 -53 -5 -54 39 0 38 0 0 -19 0 -20 16 -15 15
-16 14 0 14 0 18 19 18 19 43 13 43 13 -6 48 -7 48 32 0 31 0 15 14 14 15 0
20 0 21 -15 0 -15 0 0 10 0 10 -26 0 -26 0 6 33 6 32 -8 10 -7 10 -51 -3z"/>
</g>
</svg>
