<?xml version="1.0" standalone="no"?>
<!DOCTYPE svg PUBLIC "-//W3C//DTD SVG 20010904//EN"
 "http://www.w3.org/TR/2001/REC-SVG-20010904/DTD/svg10.dtd">
<svg version="1.0" xmlns="http://www.w3.org/2000/svg"
 width="44.000000pt" height="36.000000pt" viewBox="0 0 44.000000 36.000000"
 preserveAspectRatio="xMidYMid meet">
<metadata>
Created by potrace 1.16, written by Peter Selinger 2001-2019
</metadata>
<g transform="translate(0.000000,36.000000) scale(0.100000,-0.100000)"
fill="#000000" stroke="none">
<path d="M282 353 l-54 -4 6 -25 7 -25 -15 -14 -15 -15 -14 14 -14 15 4 25 5
26 -66 0 -66 0 0 -15 0 -15 10 0 10 0 0 -22 0 -23 -8 -12 -8 -12 -29 2 -30 2
-3 -32 -3 -33 23 0 23 0 24 -7 23 -6 -6 -53 -6 -54 40 0 40 0 0 -19 0 -20 16
-15 15 -16 24 0 24 0 18 19 18 19 44 13 43 13 -5 48 -6 48 30 0 30 0 15 14 14
15 0 30 0 31 -15 0 -15 0 0 10 0 10 -26 0 -25 0 6 21 7 20 -6 25 -6 24 -13 -2
-12 -2 -53 -3z"/>
</g>
</svg>
