<?xml version="1.0" standalone="no"?>
<!DOCTYPE svg PUBLIC "-//W3C//DTD SVG 20010904//EN"
 "http://www.w3.org/TR/2001/REC-SVG-20010904/DTD/svg10.dtd">
<svg version="1.0" xmlns="http://www.w3.org/2000/svg"
 width="28.000000pt" height="35.000000pt" viewBox="0 0 28.000000 35.000000"
 preserveAspectRatio="xMidYMid meet">
<metadata>
Created by potrace 1.16, written by Peter Selinger 2001-2019
</metadata>
<g transform="translate(0.000000,35.000000) scale(0.100000,-0.100000)"
fill="#000000" stroke="none">
<path d="M8 305 l4 -45 20 0 19 0 15 -15 15 -15 -6 -20 -6 -20 -25 -6 -24 -6
0 -27 0 -26 -6 -21 -6 -22 35 0 36 0 9 -6 9 -6 -5 -26 -5 -26 14 -9 14 -9 18
0 18 0 16 15 15 16 -5 13 -6 14 45 11 44 11 0 29 0 28 -6 31 -6 30 -25 11 -25
11 4 12 5 13 36 8 37 9 0 43 0 42 -57 -1 -58 -1 3 -14 3 -13 -6 -18 -6 -18
-15 -6 -16 -6 -25 6 -25 7 5 33 6 34 -42 0 -42 0 3 -45z"/>
</g>
</svg>
