<?xml version="1.0" standalone="no"?>
<!DOCTYPE svg PUBLIC "-//W3C//DTD SVG 20010904//EN"
 "http://www.w3.org/TR/2001/REC-SVG-20010904/DTD/svg10.dtd">
<svg version="1.0" xmlns="http://www.w3.org/2000/svg"
 width="33.000000pt" height="37.000000pt" viewBox="0 0 33.000000 37.000000"
 preserveAspectRatio="xMidYMid meet">
<metadata>
Created by potrace 1.16, written by Peter Selinger 2001-2019
</metadata>
<g transform="translate(0.000000,37.000000) scale(0.100000,-0.100000)"
fill="#000000" stroke="none">
<path d="M192 363 l-33 -4 2 -17 1 -17 -1 -12 -1 -12 -15 -15 -16 -15 -14 5
-15 6 0 29 0 30 -12 4 -13 3 -38 7 -38 6 3 -52 3 -53 32 -8 33 -9 0 -13 0 -13
-25 -27 -25 -27 0 -20 0 -19 -10 0 -10 0 0 -19 0 -19 37 -9 37 -8 8 -33 9 -32
38 0 39 0 6 16 6 16 0 26 0 27 54 -3 55 -4 -1 30 -1 31 13 30 12 31 9 0 9 0 0
31 0 31 -18 -4 -18 -5 -13 14 -13 15 6 44 6 44 -28 -2 -27 -1 -33 -4z"/>
</g>
</svg>
