<?xml version="1.0" standalone="no"?>
<!DOCTYPE svg PUBLIC "-//W3C//DTD SVG 20010904//EN"
 "http://www.w3.org/TR/2001/REC-SVG-20010904/DTD/svg10.dtd">
<svg version="1.0" xmlns="http://www.w3.org/2000/svg"
 width="35.000000pt" height="27.000000pt" viewBox="0 0 35.000000 27.000000"
 preserveAspectRatio="xMidYMid meet">
<metadata>
Created by potrace 1.16, written by Peter Selinger 2001-2019
</metadata>
<g transform="translate(0.000000,27.000000) scale(0.100000,-0.100000)"
fill="#000000" stroke="none">
<path d="M17 263 l-7 -6 0 -39 0 -38 24 6 23 5 17 -16 16 -16 0 -15 0 -14 -15
0 -15 0 0 -10 0 -10 -24 0 -24 0 -4 -48 -5 -47 4 -7 4 -8 44 0 43 0 6 16 6 16
0 29 0 30 27 -3 27 -3 8 -31 8 -32 35 -6 36 -7 19 6 18 6 7 39 6 38 25 6 24 6
0 30 0 29 -19 6 -18 5 -17 -6 -16 -6 0 40 0 40 -15 6 -14 5 -33 -11 -33 -11
-18 -18 -18 -19 -14 0 -14 0 -15 16 -16 15 0 20 0 19 -33 0 -34 0 -6 -7z"/>
</g>
</svg>
