<?xml version="1.0" standalone="no"?>
<!DOCTYPE svg PUBLIC "-//W3C//DTD SVG 20010904//EN"
 "http://www.w3.org/TR/2001/REC-SVG-20010904/DTD/svg10.dtd">
<svg version="1.0" xmlns="http://www.w3.org/2000/svg"
 width="35.000000pt" height="27.000000pt" viewBox="0 0 35.000000 27.000000"
 preserveAspectRatio="xMidYMid meet">
<metadata>
Created by potrace 1.16, written by Peter Selinger 2001-2019
</metadata>
<g transform="translate(0.000000,27.000000) scale(0.100000,-0.100000)"
fill="#000000" stroke="none">
<path d="M87 263 l-7 -6 0 -38 0 -37 -16 -6 -16 -6 -24 6 -24 6 0 -21 0 -21
22 -10 23 -9 28 -6 28 -6 -6 -54 -7 -55 32 0 31 0 15 15 15 15 -2 12 -1 13 1
13 1 12 24 0 24 0 6 -24 6 -24 32 -7 32 -8 4 12 4 11 9 -6 9 -5 0 35 0 36 -25
6 -25 6 0 24 0 24 18 0 17 0 12 8 11 7 7 48 7 47 -129 0 -130 0 -6 -7z"/>
</g>
</svg>
