<?xml version="1.0" standalone="no"?>
<!DOCTYPE svg PUBLIC "-//W3C//DTD SVG 20010904//EN"
 "http://www.w3.org/TR/2001/REC-SVG-20010904/DTD/svg10.dtd">
<svg version="1.0" xmlns="http://www.w3.org/2000/svg"
 width="35.000000pt" height="37.000000pt" viewBox="0 0 35.000000 37.000000"
 preserveAspectRatio="xMidYMid meet">
<metadata>
Created by potrace 1.16, written by Peter Selinger 2001-2019
</metadata>
<g transform="translate(0.000000,37.000000) scale(0.100000,-0.100000)"
fill="#000000" stroke="none">
<path d="M20 312 l0 -60 16 -6 16 -6 23 0 24 0 6 -10 6 -10 -40 0 -39 0 -16
-6 -16 -6 0 -23 0 -23 6 -31 6 -31 14 0 14 0 0 -10 0 -10 39 0 39 0 6 -34 6
-34 23 -6 22 -6 17 0 17 0 15 16 16 15 0 25 0 24 31 0 30 0 12 12 12 13 13 28
12 28 0 18 0 19 -45 11 -46 12 5 8 6 8 30 6 30 6 0 56 0 55 -52 0 -53 0 -11
-8 -11 -7 -7 -27 -6 -28 -15 0 -15 0 -6 30 -6 29 -17 5 -16 4 -47 7 -48 6 0
-59z"/>
</g>
</svg>
