<?xml version="1.0" standalone="no"?>
<!DOCTYPE svg PUBLIC "-//W3C//DTD SVG 20010904//EN"
 "http://www.w3.org/TR/2001/REC-SVG-20010904/DTD/svg10.dtd">
<svg version="1.0" xmlns="http://www.w3.org/2000/svg"
 width="37.000000pt" height="29.000000pt" viewBox="0 0 37.000000 29.000000"
 preserveAspectRatio="xMidYMid meet">
<metadata>
Created by potrace 1.16, written by Peter Selinger 2001-2019
</metadata>
<g transform="translate(0.000000,29.000000) scale(0.100000,-0.100000)"
fill="#000000" stroke="none">
<path d="M87 283 l-7 -6 0 -39 0 -38 -12 -1 -13 -1 -27 2 -28 2 0 -31 0 -31
22 -10 23 -9 27 -5 27 -6 -6 -55 -6 -55 42 0 42 0 15 14 14 15 0 25 0 26 14 0
14 0 6 -25 6 -24 34 -7 34 -6 21 7 21 6 0 44 0 45 -25 6 -25 6 0 13 0 13 29 5
28 6 6 38 7 38 0 23 0 22 -138 0 -139 0 -6 -7z"/>
</g>
</svg>
