<?xml version="1.0" standalone="no"?>
<!DOCTYPE svg PUBLIC "-//W3C//DTD SVG 20010904//EN"
 "http://www.w3.org/TR/2001/REC-SVG-20010904/DTD/svg10.dtd">
<svg version="1.0" xmlns="http://www.w3.org/2000/svg"
 width="33.000000pt" height="36.000000pt" viewBox="0 0 33.000000 36.000000"
 preserveAspectRatio="xMidYMid meet">
<metadata>
Created by potrace 1.16, written by Peter Selinger 2001-2019
</metadata>
<g transform="translate(0.000000,36.000000) scale(0.100000,-0.100000)"
fill="#000000" stroke="none">
<path d="M60 305 l0 -36 -15 -16 -16 -15 -14 6 -15 5 0 -34 0 -34 20 -6 20 -6
11 -45 11 -44 44 0 44 0 -6 -24 -5 -23 16 -17 16 -16 10 0 10 0 16 15 15 16
-5 24 -4 25 47 0 48 0 6 16 6 16 0 28 0 29 -35 7 -34 6 -6 19 -6 19 6 10 6 10
24 0 23 0 16 6 16 6 0 44 0 44 -34 0 -34 0 -16 -6 -16 -6 0 -28 0 -28 -16 -6
-16 -6 -16 0 -17 0 -15 10 -14 9 -1 28 -2 28 -36 3 -37 3 0 -36z"/>
</g>
</svg>
