<?xml version="1.0" standalone="no"?>
<!DOCTYPE svg PUBLIC "-//W3C//DTD SVG 20010904//EN"
 "http://www.w3.org/TR/2001/REC-SVG-20010904/DTD/svg10.dtd">
<svg version="1.0" xmlns="http://www.w3.org/2000/svg"
 width="35.000000pt" height="38.000000pt" viewBox="0 0 35.000000 38.000000"
 preserveAspectRatio="xMidYMid meet">
<metadata>
Created by potrace 1.16, written by Peter Selinger 2001-2019
</metadata>
<g transform="translate(0.000000,38.000000) scale(0.100000,-0.100000)"
fill="#000000" stroke="none">
<path d="M56 336 l6 -44 -13 -15 -13 -14 -18 5 -18 4 0 -45 0 -46 20 -6 20 -6
11 -45 11 -44 39 0 39 0 0 -24 0 -25 16 -15 15 -16 20 0 20 0 15 14 14 15 0
25 0 26 44 0 44 0 6 16 6 16 0 38 0 38 -32 7 -33 8 -7 10 -7 11 5 8 5 8 24 0
23 0 16 6 16 6 0 54 0 54 -44 0 -44 0 -16 -6 -16 -6 0 -28 0 -29 -19 -6 -18
-5 -17 6 -16 6 -1 12 -1 11 -2 20 -1 20 -32 3 -33 3 0 10 0 9 -20 0 -20 0 6
-44z"/>
</g>
</svg>
