<?xml version="1.0" standalone="no"?>
<!DOCTYPE svg PUBLIC "-//W3C//DTD SVG 20010904//EN"
 "http://www.w3.org/TR/2001/REC-SVG-20010904/DTD/svg10.dtd">
<svg version="1.0" xmlns="http://www.w3.org/2000/svg"
 width="37.000000pt" height="36.000000pt" viewBox="0 0 37.000000 36.000000"
 preserveAspectRatio="xMidYMid meet">
<metadata>
Created by potrace 1.16, written by Peter Selinger 2001-2019
</metadata>
<g transform="translate(0.000000,36.000000) scale(0.100000,-0.100000)"
fill="#000000" stroke="none">
<path d="M87 354 l-7 -7 0 -43 0 -42 -16 -6 -16 -6 -24 0 -24 0 0 -19 0 -19 6
-16 6 -16 13 0 14 0 16 -16 16 -17 -5 -23 -6 -22 6 -16 6 -16 49 0 49 0 0 -29
0 -29 16 -6 16 -6 16 0 17 0 18 24 18 24 36 7 36 6 12 12 12 12 2 53 1 52 -30
0 -30 0 0 10 0 10 -15 0 -15 0 0 15 0 14 33 9 32 8 3 53 3 52 -38 -6 -38 -7
-17 -4 -17 -5 -7 -22 -7 -22 -10 -7 -10 -6 -14 5 -13 5 0 29 0 29 -22 0 -23 0
-20 6 -21 5 -7 -7z"/>
</g>
</svg>
