<?xml version="1.0" standalone="no"?>
<!DOCTYPE svg PUBLIC "-//W3C//DTD SVG 20010904//EN"
 "http://www.w3.org/TR/2001/REC-SVG-20010904/DTD/svg10.dtd">
<svg version="1.0" xmlns="http://www.w3.org/2000/svg"
 width="33.000000pt" height="35.000000pt" viewBox="0 0 33.000000 35.000000"
 preserveAspectRatio="xMidYMid meet">
<metadata>
Created by potrace 1.16, written by Peter Selinger 2001-2019
</metadata>
<g transform="translate(0.000000,35.000000) scale(0.100000,-0.100000)"
fill="#000000" stroke="none">
<path d="M20 300 l0 -50 23 -4 22 -5 20 -3 20 -3 3 -18 3 -17 -43 0 -43 0 -14
-9 -13 -9 7 -41 7 -41 14 0 14 0 0 -10 0 -10 43 0 42 0 1 -30 1 -30 4 -4 4 -4
26 -7 26 -6 17 16 16 16 0 25 0 24 31 0 30 0 12 13 12 12 13 28 12 28 0 8 0 9
-46 11 -45 12 3 16 3 17 33 8 32 9 0 44 0 45 -42 0 -43 0 -14 -9 -14 -9 7 -11
7 -11 -15 -15 -15 -15 -21 0 -20 0 -7 30 -6 30 -21 4 -21 5 -32 5 -33 6 0 -50z"/>
</g>
</svg>
