<?xml version="1.0" standalone="no"?>
<!DOCTYPE svg PUBLIC "-//W3C//DTD SVG 20010904//EN"
 "http://www.w3.org/TR/2001/REC-SVG-20010904/DTD/svg10.dtd">
<svg version="1.0" xmlns="http://www.w3.org/2000/svg"
 width="35.000000pt" height="34.000000pt" viewBox="0 0 35.000000 34.000000"
 preserveAspectRatio="xMidYMid meet">
<metadata>
Created by potrace 1.16, written by Peter Selinger 2001-2019
</metadata>
<g transform="translate(0.000000,34.000000) scale(0.100000,-0.100000)"
fill="#000000" stroke="none">
<path d="M85 331 l-5 -4 0 -43 0 -42 -16 -6 -16 -6 -24 0 -24 0 0 -9 0 -9 6
-16 6 -16 13 0 14 0 16 -16 16 -17 -1 -26 -2 -26 1 -12 1 -13 53 0 54 0 -5
-29 -4 -29 22 -7 21 -7 22 25 22 25 34 7 35 7 10 12 11 11 3 43 3 42 -30 0
-31 0 0 10 0 10 -15 0 -15 0 0 25 0 24 33 9 32 8 3 41 3 41 -42 -8 -41 -8 -9
-13 -9 -14 0 -12 0 -12 -19 -6 -18 -5 -17 6 -16 6 -2 17 -1 16 0 12 0 11 -34
4 -34 4 -4 -5z"/>
</g>
</svg>
