<?xml version="1.0" standalone="no"?>
<!DOCTYPE svg PUBLIC "-//W3C//DTD SVG 20010904//EN"
 "http://www.w3.org/TR/2001/REC-SVG-20010904/DTD/svg10.dtd">
<svg version="1.0" xmlns="http://www.w3.org/2000/svg"
 width="31.000000pt" height="35.000000pt" viewBox="0 0 31.000000 35.000000"
 preserveAspectRatio="xMidYMid meet">
<metadata>
Created by potrace 1.16, written by Peter Selinger 2001-2019
</metadata>
<g transform="translate(0.000000,35.000000) scale(0.100000,-0.100000)"
fill="#000000" stroke="none">
<path d="M192 343 l-32 -4 6 -10 6 -10 -12 -29 -12 -29 -15 -6 -16 -5 -18 5
-18 6 -3 32 -3 32 -38 6 -38 6 3 -40 3 -41 33 -8 32 -9 0 -23 0 -23 -25 -27
-25 -27 0 -20 0 -19 -10 0 -10 0 0 -9 0 -9 37 -9 37 -8 8 -33 9 -32 28 0 29 0
6 16 6 16 0 28 0 29 57 -6 56 -6 -7 11 -7 12 11 39 11 40 14 15 15 15 0 15 0
15 -15 -5 -14 -6 -17 16 -16 17 4 44 3 45 -15 -2 -15 -1 -33 -4z"/>
</g>
</svg>
