<?xml version="1.0" standalone="no"?>
<!DOCTYPE svg PUBLIC "-//W3C//DTD SVG 20010904//EN"
 "http://www.w3.org/TR/2001/REC-SVG-20010904/DTD/svg10.dtd">
<svg version="1.0" xmlns="http://www.w3.org/2000/svg"
 width="34.000000pt" height="41.000000pt" viewBox="0 0 34.000000 41.000000"
 preserveAspectRatio="xMidYMid meet">
<metadata>
Created by potrace 1.16, written by Peter Selinger 2001-2019
</metadata>
<g transform="translate(0.000000,41.000000) scale(0.100000,-0.100000)"
fill="#000000" stroke="none">
<path d="M110 386 l0 -24 -6 -16 -6 -15 -49 6 -50 6 3 -129 3 -129 38 -3 37
-3 0 -25 0 -25 15 -15 14 -15 25 7 25 6 6 19 6 19 -5 9 -6 9 49 7 49 7 -9 36
-8 37 5 18 5 17 39 -6 39 -6 6 25 7 26 -7 11 -7 12 -26 -5 -26 -5 -13 13 -13
14 0 40 0 40 -37 10 -38 10 -13 21 -12 20 -20 0 -20 0 0 -24z"/>
</g>
</svg>
