<?xml version="1.0" standalone="no"?>
<!DOCTYPE svg PUBLIC "-//W3C//DTD SVG 20010904//EN"
 "http://www.w3.org/TR/2001/REC-SVG-20010904/DTD/svg10.dtd">
<svg version="1.0" xmlns="http://www.w3.org/2000/svg"
 width="36.000000pt" height="43.000000pt" viewBox="0 0 36.000000 43.000000"
 preserveAspectRatio="xMidYMid meet">
<metadata>
Created by potrace 1.16, written by Peter Selinger 2001-2019
</metadata>
<g transform="translate(0.000000,43.000000) scale(0.100000,-0.100000)"
fill="#000000" stroke="none">
<path d="M110 406 l0 -24 -5 -14 -5 -13 -50 3 -51 4 3 -139 3 -138 38 -3 37
-3 0 -25 0 -25 15 -16 16 -15 35 6 35 7 6 29 5 29 44 7 44 6 -6 37 -6 36 0 5
0 5 1 10 1 11 40 -4 39 -4 6 25 7 25 -4 19 -3 18 -20 3 -20 3 -22 5 -23 4 0
45 0 44 -37 10 -38 10 -13 21 -12 20 -30 0 -30 0 0 -24z"/>
</g>
</svg>
