<?xml version="1.0" standalone="no"?>
<!DOCTYPE svg PUBLIC "-//W3C//DTD SVG 20010904//EN"
 "http://www.w3.org/TR/2001/REC-SVG-20010904/DTD/svg10.dtd">
<svg version="1.0" xmlns="http://www.w3.org/2000/svg"
 width="28.000000pt" height="37.000000pt" viewBox="0 0 28.000000 37.000000"
 preserveAspectRatio="xMidYMid meet">
<metadata>
Created by potrace 1.16, written by Peter Selinger 2001-2019
</metadata>
<g transform="translate(0.000000,37.000000) scale(0.100000,-0.100000)"
fill="#000000" stroke="none">
<path d="M120 341 l0 -30 -16 -15 -15 -16 -45 0 -44 0 0 -124 0 -124 6 -16 6
-16 43 0 44 0 15 16 16 15 0 25 0 24 14 0 13 0 -5 -26 -5 -26 14 -9 14 -9 42
0 42 0 6 10 6 10 -7 36 -7 36 -28 10 -29 10 0 20 0 19 14 15 15 14 25 0 26 0
-1 55 -2 55 -36 0 -36 1 -20 12 -20 12 0 20 0 20 -22 3 -23 3 0 -30z"/>
</g>
</svg>
