<?xml version="1.0" standalone="no"?>
<!DOCTYPE svg PUBLIC "-//W3C//DTD SVG 20010904//EN"
 "http://www.w3.org/TR/2001/REC-SVG-20010904/DTD/svg10.dtd">
<svg version="1.0" xmlns="http://www.w3.org/2000/svg"
 width="36.000000pt" height="36.000000pt" viewBox="0 0 36.000000 36.000000"
 preserveAspectRatio="xMidYMid meet">
<metadata>
Created by potrace 1.16, written by Peter Selinger 2001-2019
</metadata>
<g transform="translate(0.000000,36.000000) scale(0.100000,-0.100000)"
fill="#000000" stroke="none">
<path d="M110 336 l0 -25 -17 -16 -16 -17 -39 6 -38 6 0 -129 0 -129 6 -16 6
-16 53 0 53 0 6 16 6 16 0 25 0 25 13 -4 12 -5 3 -29 4 -29 11 -7 12 -8 37 0
36 0 16 6 16 6 0 27 0 26 8 11 7 11 28 7 27 6 0 44 0 45 -16 15 -15 16 -20 0
-19 0 0 28 0 27 -9 14 -9 13 -31 -7 -31 -6 -18 5 -19 6 5 30 4 30 -36 0 -36 0
0 -24z"/>
</g>
</svg>
