<?xml version="1.0" standalone="no"?>
<!DOCTYPE svg PUBLIC "-//W3C//DTD SVG 20010904//EN"
 "http://www.w3.org/TR/2001/REC-SVG-20010904/DTD/svg10.dtd">
<svg version="1.0" xmlns="http://www.w3.org/2000/svg"
 width="34.000000pt" height="34.000000pt" viewBox="0 0 34.000000 34.000000"
 preserveAspectRatio="xMidYMid meet">
<metadata>
Created by potrace 1.16, written by Peter Selinger 2001-2019
</metadata>
<g transform="translate(0.000000,34.000000) scale(0.100000,-0.100000)"
fill="#000000" stroke="none">
<path d="M110 316 l0 -25 -17 -16 -16 -17 -39 4 -38 4 0 -117 0 -117 6 -16 6
-16 43 0 43 0 6 16 6 16 0 25 0 24 23 -3 22 -3 3 -30 4 -30 11 -7 12 -8 27 0
26 0 16 6 16 6 0 27 0 26 8 11 7 11 28 7 27 6 0 34 0 35 -16 16 -17 17 -18 -5
-19 -5 0 28 0 28 -6 16 -6 15 -29 -6 -28 -5 -26 6 -26 7 6 29 7 30 -26 0 -26
0 0 -24z"/>
</g>
</svg>
