<?xml version="1.0" standalone="no"?>
<!DOCTYPE svg PUBLIC "-//W3C//DTD SVG 20010904//EN"
 "http://www.w3.org/TR/2001/REC-SVG-20010904/DTD/svg10.dtd">
<svg version="1.0" xmlns="http://www.w3.org/2000/svg"
 width="26.000000pt" height="35.000000pt" viewBox="0 0 26.000000 35.000000"
 preserveAspectRatio="xMidYMid meet">
<metadata>
Created by potrace 1.16, written by Peter Selinger 2001-2019
</metadata>
<g transform="translate(0.000000,35.000000) scale(0.100000,-0.100000)"
fill="#000000" stroke="none">
<path d="M120 322 l0 -31 -16 -15 -15 -16 -45 0 -44 0 0 -114 0 -114 6 -16 6
-16 33 0 34 0 15 16 16 15 0 25 0 24 26 0 26 0 -6 -27 -7 -26 13 -8 13 -9 32
0 32 0 4 8 5 7 -5 29 -6 28 -28 10 -29 10 0 30 0 29 14 15 15 14 25 0 26 0 -2
45 -3 45 -32 0 -32 0 -26 12 -26 12 3 19 3 20 -12 4 -13 5 0 -30z"/>
</g>
</svg>
