<?xml version="1.0" standalone="no"?>
<!DOCTYPE svg PUBLIC "-//W3C//DTD SVG 20010904//EN"
 "http://www.w3.org/TR/2001/REC-SVG-20010904/DTD/svg10.dtd">
<svg version="1.0" xmlns="http://www.w3.org/2000/svg"
 width="40.000000pt" height="34.000000pt" viewBox="0 0 40.000000 34.000000"
 preserveAspectRatio="xMidYMid meet">
<metadata>
Created by potrace 1.16, written by Peter Selinger 2001-2019
</metadata>
<g transform="translate(0.000000,34.000000) scale(0.100000,-0.100000)"
fill="#000000" stroke="none">
<path d="M77 301 l5 -40 -41 -11 -42 -11 3 -27 3 -27 20 -3 20 -3 22 -5 23 -4
-6 -44 -7 -45 33 -3 33 -3 2 -28 1 -28 14 -9 15 -10 17 0 16 0 16 6 16 6 0 28
0 28 16 6 16 6 34 0 34 0 0 10 0 10 -10 0 -11 0 6 38 7 37 5 18 5 18 25 -3 26
-3 4 13 5 12 -26 0 -26 0 0 10 0 10 -15 0 -15 0 0 41 0 42 -31 -7 -31 -6 -14
0 -14 0 0 -29 0 -29 -16 -6 -16 -6 -19 0 -19 0 -4 23 -5 22 -3 20 -3 20 -37 3
-36 3 5 -40z"/>
</g>
</svg>
