<?xml version="1.0" standalone="no"?>
<!DOCTYPE svg PUBLIC "-//W3C//DTD SVG 20010904//EN"
 "http://www.w3.org/TR/2001/REC-SVG-20010904/DTD/svg10.dtd">
<svg version="1.0" xmlns="http://www.w3.org/2000/svg"
 width="42.000000pt" height="36.000000pt" viewBox="0 0 42.000000 36.000000"
 preserveAspectRatio="xMidYMid meet">
<metadata>
Created by potrace 1.16, written by Peter Selinger 2001-2019
</metadata>
<g transform="translate(0.000000,36.000000) scale(0.100000,-0.100000)"
fill="#000000" stroke="none">
<path d="M75 321 l7 -40 -42 -11 -41 -11 3 -37 3 -37 20 -3 20 -3 20 -4 20 -4
-3 -46 -4 -45 31 0 31 0 0 -24 0 -25 16 -15 15 -16 29 0 28 0 16 6 16 6 0 28
0 28 16 6 16 6 34 0 34 0 0 20 0 20 -9 0 -9 0 3 18 4 17 5 25 5 26 28 -1 28 0
3 23 3 22 -25 0 -26 0 0 10 0 10 -15 0 -15 0 0 40 0 40 -17 0 -18 0 -37 -6
-38 -7 0 -28 0 -28 -21 -6 -21 -7 -5 6 -6 6 -6 37 -6 38 -49 3 -48 3 7 -40z"/>
</g>
</svg>
