<?xml version="1.0" standalone="no"?>
<!DOCTYPE svg PUBLIC "-//W3C//DTD SVG 20010904//EN"
 "http://www.w3.org/TR/2001/REC-SVG-20010904/DTD/svg10.dtd">
<svg version="1.0" xmlns="http://www.w3.org/2000/svg"
 width="29.000000pt" height="28.000000pt" viewBox="0 0 29.000000 28.000000"
 preserveAspectRatio="xMidYMid meet">
<metadata>
Created by potrace 1.16, written by Peter Selinger 2001-2019
</metadata>
<g transform="translate(0.000000,28.000000) scale(0.100000,-0.100000)"
fill="#000000" stroke="none">
<path d="M10 229 l0 -51 20 5 20 5 0 -9 0 -9 15 0 15 0 0 -12 0 -13 -9 -14 -9
-14 -31 1 -31 1 0 -28 0 -29 6 -31 6 -31 59 0 59 0 0 41 0 41 16 -6 16 -6 4 0
4 0 0 -14 0 -15 16 -15 15 -16 46 0 45 0 -6 23 -6 22 0 33 0 32 -21 0 -20 0
-15 14 -14 15 0 10 0 10 33 9 32 8 3 48 3 48 -30 -6 -31 -6 -30 -6 -30 -6 0
-19 0 -19 -12 0 -13 0 -10 8 -10 7 0 20 0 20 -52 3 -53 3 0 -52z"/>
</g>
</svg>
