<?xml version="1.0" standalone="no"?>
<!DOCTYPE svg PUBLIC "-//W3C//DTD SVG 20010904//EN"
 "http://www.w3.org/TR/2001/REC-SVG-20010904/DTD/svg10.dtd">
<svg version="1.0" xmlns="http://www.w3.org/2000/svg"
 width="27.000000pt" height="26.000000pt" viewBox="0 0 27.000000 26.000000"
 preserveAspectRatio="xMidYMid meet">
<metadata>
Created by potrace 1.16, written by Peter Selinger 2001-2019
</metadata>
<g transform="translate(0.000000,26.000000) scale(0.100000,-0.100000)"
fill="#000000" stroke="none">
<path d="M10 222 l0 -40 20 5 20 5 0 -11 0 -11 15 0 15 0 0 -22 0 -23 -9 -14
-9 -14 -31 -1 -31 -1 0 -16 0 -17 6 -31 6 -31 48 0 48 0 0 36 0 35 6 6 5 5 26
-6 25 -6 0 -14 0 -15 16 -15 15 -16 32 0 32 0 -3 45 -4 45 -20 0 -19 0 -15 14
-14 15 0 20 0 20 33 9 32 8 3 36 3 36 -43 -9 -43 -8 -7 -1 -8 0 0 -20 0 -20
-22 0 -23 0 -13 9 -14 8 4 19 3 19 -42 3 -43 3 0 -39z"/>
</g>
</svg>
