<?xml version="1.0" standalone="no"?>
<!DOCTYPE svg PUBLIC "-//W3C//DTD SVG 20010904//EN"
 "http://www.w3.org/TR/2001/REC-SVG-20010904/DTD/svg10.dtd">
<svg version="1.0" xmlns="http://www.w3.org/2000/svg"
 width="40.000000pt" height="26.000000pt" viewBox="0 0 40.000000 26.000000"
 preserveAspectRatio="xMidYMid meet">
<metadata>
Created by potrace 1.16, written by Peter Selinger 2001-2019
</metadata>
<g transform="translate(0.000000,26.000000) scale(0.100000,-0.100000)"
fill="#000000" stroke="none">
<path d="M75 230 l7 -30 -16 -15 -15 -15 -26 0 -26 0 3 -27 3 -27 39 -9 38
-10 -5 -31 -5 -31 -7 -17 -7 -18 30 0 31 0 26 12 25 11 0 29 0 29 23 -3 22 -3
-3 -21 -3 -22 32 -11 32 -11 20 0 19 0 -6 35 -7 36 6 19 6 19 42 -2 42 -2 0
20 0 20 -31 -2 -32 -3 -12 30 -12 30 6 23 6 24 -45 -10 -45 -10 0 -23 0 -23
-36 -7 -36 -7 -9 14 -9 14 6 28 6 27 -42 0 -42 0 7 -30z"/>
</g>
</svg>
