<?xml version="1.0" standalone="no"?>
<!DOCTYPE svg PUBLIC "-//W3C//DTD SVG 20010904//EN"
 "http://www.w3.org/TR/2001/REC-SVG-20010904/DTD/svg10.dtd">
<svg version="1.0" xmlns="http://www.w3.org/2000/svg"
 width="42.000000pt" height="28.000000pt" viewBox="0 0 42.000000 28.000000"
 preserveAspectRatio="xMidYMid meet">
<metadata>
Created by potrace 1.16, written by Peter Selinger 2001-2019
</metadata>
<g transform="translate(0.000000,28.000000) scale(0.100000,-0.100000)"
fill="#000000" stroke="none">
<path d="M72 248 l5 -32 -13 -13 -13 -13 -26 0 -26 0 3 -37 3 -37 38 -9 39 -9
-6 -22 -6 -21 -6 -27 -6 -28 40 0 41 0 26 12 25 11 0 29 0 28 10 0 10 0 0 -24
0 -24 31 -11 32 -11 30 0 30 0 -6 43 -6 42 7 10 7 10 40 0 40 0 0 30 0 30 -30
0 -30 0 -12 20 -12 20 6 34 6 34 -28 -7 -27 -7 -29 -6 -29 -5 0 -23 0 -23 -26
-6 -26 -7 -6 6 -6 6 2 34 3 35 -52 0 -51 0 4 -32z"/>
</g>
</svg>
