<?xml version="1.0" standalone="no"?>
<!DOCTYPE svg PUBLIC "-//W3C//DTD SVG 20010904//EN"
 "http://www.w3.org/TR/2001/REC-SVG-20010904/DTD/svg10.dtd">
<svg version="1.0" xmlns="http://www.w3.org/2000/svg"
 width="33.000000pt" height="37.000000pt" viewBox="0 0 33.000000 37.000000"
 preserveAspectRatio="xMidYMid meet">
<metadata>
Created by potrace 1.16, written by Peter Selinger 2001-2019
</metadata>
<g transform="translate(0.000000,37.000000) scale(0.100000,-0.100000)"
fill="#000000" stroke="none">
<path d="M0 315 l0 -55 24 0 24 0 16 -6 16 -6 0 -10 0 -9 -15 -15 -14 -15 -26
7 -25 6 0 -60 0 -61 37 -3 38 -3 3 -20 3 -20 5 -22 4 -23 29 0 29 0 16 6 16 6
0 27 0 28 48 9 47 9 -3 58 -4 57 31 6 31 7 0 28 0 29 -24 0 -24 0 -6 23 -6 22
0 28 0 27 -45 0 -45 0 0 -24 0 -25 -15 -15 -16 -15 -17 6 -17 7 -7 10 -7 11 6
22 5 23 -56 0 -56 0 0 -55z"/>
</g>
</svg>
