<?xml version="1.0" standalone="no"?>
<!DOCTYPE svg PUBLIC "-//W3C//DTD SVG 20010904//EN"
 "http://www.w3.org/TR/2001/REC-SVG-20010904/DTD/svg10.dtd">
<svg version="1.0" xmlns="http://www.w3.org/2000/svg"
 width="31.000000pt" height="35.000000pt" viewBox="0 0 31.000000 35.000000"
 preserveAspectRatio="xMidYMid meet">
<metadata>
Created by potrace 1.16, written by Peter Selinger 2001-2019
</metadata>
<g transform="translate(0.000000,35.000000) scale(0.100000,-0.100000)"
fill="#000000" stroke="none">
<path d="M0 305 l0 -45 24 0 24 0 16 -6 16 -6 0 -20 0 -19 -15 -16 -16 -15
-24 5 -25 4 0 -48 0 -48 37 -3 38 -3 3 -20 3 -20 5 -22 4 -23 19 0 19 0 16 6
16 6 0 27 0 28 48 9 47 9 -3 58 -4 57 31 6 31 7 0 18 0 19 -24 0 -24 0 -6 23
-6 22 0 28 0 27 -35 0 -35 0 0 -24 0 -25 -16 -16 -17 -16 -26 6 -26 7 -8 11
-7 12 3 23 4 22 -43 0 -44 0 0 -45z"/>
</g>
</svg>
