<?xml version="1.0" standalone="no"?>
<!DOCTYPE svg PUBLIC "-//W3C//DTD SVG 20010904//EN"
 "http://www.w3.org/TR/2001/REC-SVG-20010904/DTD/svg10.dtd">
<svg version="1.0" xmlns="http://www.w3.org/2000/svg"
 width="30.000000pt" height="40.000000pt" viewBox="0 0 30.000000 40.000000"
 preserveAspectRatio="xMidYMid meet">
<metadata>
Created by potrace 1.16, written by Peter Selinger 2001-2019
</metadata>
<g transform="translate(0.000000,40.000000) scale(0.100000,-0.100000)"
fill="#000000" stroke="none">
<path d="M126 369 l-6 -32 -50 5 -49 5 -6 -14 -5 -15 0 -38 0 -38 16 -6 16 -6
19 0 19 0 0 -9 0 -9 -6 -16 -6 -16 -22 0 -21 0 -14 -9 -14 -9 7 -36 7 -35 37
-6 37 -7 13 -3 12 -4 0 -30 0 -29 16 -6 17 -6 17 5 18 6 12 29 12 29 -7 10 -6
11 30 0 30 0 6 10 6 10 10 -5 9 -6 0 20 0 20 -12 26 -11 25 -14 0 -13 0 0 30
0 30 24 0 24 0 12 36 12 36 -13 9 -14 9 -15 -7 -15 -6 -27 -4 -27 -5 -11 41
-11 41 -18 0 -18 0 -7 -31z"/>
</g>
</svg>
