<?xml version="1.0" standalone="no"?>
<!DOCTYPE svg PUBLIC "-//W3C//DTD SVG 20010904//EN"
 "http://www.w3.org/TR/2001/REC-SVG-20010904/DTD/svg10.dtd">
<svg version="1.0" xmlns="http://www.w3.org/2000/svg"
 width="29.000000pt" height="43.000000pt" viewBox="0 0 29.000000 43.000000"
 preserveAspectRatio="xMidYMid meet">
<metadata>
Created by potrace 1.16, written by Peter Selinger 2001-2019
</metadata>
<g transform="translate(0.000000,43.000000) scale(0.100000,-0.100000)"
fill="#000000" stroke="none">
<path d="M120 398 l0 -33 -9 -14 -9 -14 -51 5 -51 5 0 -31 0 -31 8 -11 7 -11
28 -7 27 -6 0 -24 0 -24 -24 -6 -24 -6 -6 -35 -7 -36 6 -19 6 -20 40 0 41 0
-6 -28 -6 -27 9 -14 9 -14 36 7 36 7 0 24 0 23 40 7 40 7 15 15 15 14 0 39 0
38 -6 16 -6 16 -34 -6 -34 -6 0 25 0 26 38 3 37 3 0 45 0 45 -47 8 -48 9 -8
32 -8 31 -27 3 -27 3 0 -33z"/>
</g>
</svg>
