<?xml version="1.0" standalone="no"?>
<!DOCTYPE svg PUBLIC "-//W3C//DTD SVG 20010904//EN"
 "http://www.w3.org/TR/2001/REC-SVG-20010904/DTD/svg10.dtd">
<svg version="1.0" xmlns="http://www.w3.org/2000/svg"
 width="36.000000pt" height="42.000000pt" viewBox="0 0 36.000000 42.000000"
 preserveAspectRatio="xMidYMid meet">
<metadata>
Created by potrace 1.16, written by Peter Selinger 2001-2019
</metadata>
<g transform="translate(0.000000,42.000000) scale(0.100000,-0.100000)"
fill="#000000" stroke="none">
<path d="M100 392 l0 -29 -25 -11 -26 -12 -24 0 -25 0 0 -42 0 -43 9 -14 9
-14 25 5 26 5 5 -14 6 -15 0 -9 0 -9 -29 0 -30 0 -4 -17 -5 -18 -7 -47 -6 -48
40 0 41 0 0 -24 0 -24 16 -6 16 -6 29 0 29 0 0 20 0 19 38 6 37 7 19 5 19 5
-6 49 -6 49 30 0 30 0 15 14 14 15 0 30 0 31 -15 0 -15 0 0 10 0 10 -24 0 -23
0 1 38 1 37 -25 3 -25 2 -36 10 -36 10 1 22 1 23 -32 3 -33 3 0 -29z"/>
</g>
</svg>
