<?xml version="1.0" standalone="no"?>
<!DOCTYPE svg PUBLIC "-//W3C//DTD SVG 20010904//EN"
 "http://www.w3.org/TR/2001/REC-SVG-20010904/DTD/svg10.dtd">
<svg version="1.0" xmlns="http://www.w3.org/2000/svg"
 width="30.000000pt" height="36.000000pt" viewBox="0 0 30.000000 36.000000"
 preserveAspectRatio="xMidYMid meet">
<metadata>
Created by potrace 1.16, written by Peter Selinger 2001-2019
</metadata>
<g transform="translate(0.000000,36.000000) scale(0.100000,-0.100000)"
fill="#000000" stroke="none">
<path d="M134 349 l-7 -12 1 -28 1 -28 -57 -3 -57 -3 -3 -18 -4 -19 6 -24 6
-24 31 0 30 0 -3 -26 -3 -27 -35 -11 -35 -11 3 -40 4 -40 4 -4 4 -4 50 -5 50
-5 6 32 7 31 18 0 18 0 11 -40 11 -40 16 0 17 0 33 12 33 12 0 52 0 52 -16 6
-16 6 -19 0 -19 0 0 25 0 25 26 0 25 0 15 15 15 15 -3 32 -3 33 -43 6 -44 6
-9 14 -9 14 0 11 0 12 -16 6 -16 6 -8 0 -9 0 -7 -11z"/>
</g>
</svg>
