<?xml version="1.0" standalone="no"?>
<!DOCTYPE svg PUBLIC "-//W3C//DTD SVG 20010904//EN"
 "http://www.w3.org/TR/2001/REC-SVG-20010904/DTD/svg10.dtd">
<svg version="1.0" xmlns="http://www.w3.org/2000/svg"
 width="30.000000pt" height="41.000000pt" viewBox="0 0 30.000000 41.000000"
 preserveAspectRatio="xMidYMid meet">
<metadata>
Created by potrace 1.16, written by Peter Selinger 2001-2019
</metadata>
<g transform="translate(0.000000,41.000000) scale(0.100000,-0.100000)"
fill="#000000" stroke="none">
<path d="M129 398 l-1 -13 1 -13 2 -12 -16 -17 -16 -16 -45 7 -44 6 0 -44 0
-45 16 -15 15 -16 20 0 19 0 0 -20 0 -20 -27 0 -28 0 -14 -9 -13 -9 7 -40 7
-41 36 -7 37 -6 16 -4 17 -5 6 -29 5 -30 21 0 21 0 15 15 15 15 -7 11 -7 11
14 9 14 9 27 0 26 0 16 6 16 6 0 40 0 39 -15 15 -15 15 -17 -3 -18 -3 -3 28
-3 27 21 0 21 0 15 14 14 15 0 28 0 29 -19 16 -19 16 -5 -5 -6 -5 -30 7 -31 7
-6 24 -6 24 -24 0 -24 0 -1 -12z"/>
</g>
</svg>
