<?xml version="1.0" standalone="no"?>
<!DOCTYPE svg PUBLIC "-//W3C//DTD SVG 20010904//EN"
 "http://www.w3.org/TR/2001/REC-SVG-20010904/DTD/svg10.dtd">
<svg version="1.0" xmlns="http://www.w3.org/2000/svg"
 width="32.000000pt" height="42.000000pt" viewBox="0 0 32.000000 42.000000"
 preserveAspectRatio="xMidYMid meet">
<metadata>
Created by potrace 1.16, written by Peter Selinger 2001-2019
</metadata>
<g transform="translate(0.000000,42.000000) scale(0.100000,-0.100000)"
fill="#000000" stroke="none">
<path d="M126 389 l-6 -32 -49 7 -49 6 -6 -16 -6 -16 0 -48 0 -48 16 -6 16 -6
19 0 18 0 -5 -15 -6 -15 -22 0 -21 0 -14 -9 -14 -9 6 -42 5 -42 5 -4 4 -5 44
-7 44 -7 3 -30 4 -30 11 -7 12 -8 22 0 22 0 16 16 16 16 6 28 5 28 39 6 39 6
0 30 0 29 -12 26 -11 25 -14 0 -13 0 0 20 0 20 24 0 24 0 11 31 11 32 0 18 0
19 -24 6 -24 6 -20 -11 -21 -11 -10 0 -10 0 -11 40 -11 40 -28 0 -28 0 -7 -31z"/>
</g>
</svg>
