<?xml version="1.0" standalone="no"?>
<!DOCTYPE svg PUBLIC "-//W3C//DTD SVG 20010904//EN"
 "http://www.w3.org/TR/2001/REC-SVG-20010904/DTD/svg10.dtd">
<svg version="1.0" xmlns="http://www.w3.org/2000/svg"
 width="32.000000pt" height="43.000000pt" viewBox="0 0 32.000000 43.000000"
 preserveAspectRatio="xMidYMid meet">
<metadata>
Created by potrace 1.16, written by Peter Selinger 2001-2019
</metadata>
<g transform="translate(0.000000,43.000000) scale(0.100000,-0.100000)"
fill="#000000" stroke="none">
<path d="M125 409 l-7 -21 6 -5 5 -5 -14 -15 -15 -14 -45 7 -45 6 0 -55 0 -56
16 -15 15 -16 20 0 19 0 0 -10 0 -10 -24 0 -24 0 -16 -6 -16 -6 0 -23 0 -23 6
-31 6 -31 37 -6 36 -6 16 -4 17 -5 6 -29 6 -30 30 0 31 0 14 13 13 13 4 20 3
19 25 3 25 3 23 4 22 5 0 51 0 50 -14 15 -15 14 -20 0 -21 0 0 15 0 15 21 0
20 0 15 14 14 15 0 38 0 39 -20 17 -20 17 -17 -2 -18 -1 -17 1 -18 2 -6 25 -6
25 -33 0 -34 0 -6 -21z"/>
</g>
</svg>
