<?xml version="1.0" standalone="no"?>
<!DOCTYPE svg PUBLIC "-//W3C//DTD SVG 20010904//EN"
 "http://www.w3.org/TR/2001/REC-SVG-20010904/DTD/svg10.dtd">
<svg version="1.0" xmlns="http://www.w3.org/2000/svg"
 width="32.000000pt" height="38.000000pt" viewBox="0 0 32.000000 38.000000"
 preserveAspectRatio="xMidYMid meet">
<metadata>
Created by potrace 1.16, written by Peter Selinger 2001-2019
</metadata>
<g transform="translate(0.000000,38.000000) scale(0.100000,-0.100000)"
fill="#000000" stroke="none">
<path d="M129 353 l-10 -26 5 -13 5 -13 -57 -3 -57 -3 -3 -29 -4 -28 6 -24 6
-24 31 0 30 0 -3 -16 -3 -16 -35 -12 -35 -11 3 -50 4 -50 4 -4 4 -5 60 -4 60
-4 6 31 7 31 8 0 8 0 11 -40 11 -40 26 0 27 0 33 12 33 12 0 62 0 62 -16 6
-16 6 -19 0 -19 0 0 15 0 15 26 0 25 0 15 15 15 15 -3 42 -3 43 -43 6 -44 6
-9 14 -9 14 0 11 0 12 -16 6 -16 6 -19 0 -19 0 -11 -27z"/>
</g>
</svg>
