<?xml version="1.0" standalone="no"?>
<!DOCTYPE svg PUBLIC "-//W3C//DTD SVG 20010904//EN"
 "http://www.w3.org/TR/2001/REC-SVG-20010904/DTD/svg10.dtd">
<svg version="1.0" xmlns="http://www.w3.org/2000/svg"
 width="34.000000pt" height="40.000000pt" viewBox="0 0 34.000000 40.000000"
 preserveAspectRatio="xMidYMid meet">
<metadata>
Created by potrace 1.16, written by Peter Selinger 2001-2019
</metadata>
<g transform="translate(0.000000,40.000000) scale(0.100000,-0.100000)"
fill="#000000" stroke="none">
<path d="M100 372 l0 -29 -25 -11 -26 -12 -24 0 -25 0 0 -32 0 -33 9 -14 9
-13 22 7 22 7 9 -13 9 -14 0 -22 0 -23 -30 0 -30 0 -4 -23 -5 -22 -5 -32 -5
-32 42 -3 42 -3 -3 -19 -4 -19 14 -8 13 -9 23 0 22 0 0 20 0 19 38 6 37 7 18
5 19 5 -7 49 -7 49 32 0 31 0 15 14 14 15 0 20 0 21 -15 0 -15 0 0 11 0 11
-26 -6 -25 -7 3 43 3 43 -25 3 -25 2 -38 11 -38 10 3 22 3 22 -22 3 -23 3 0
-29z"/>
</g>
</svg>
