<?xml version="1.0" standalone="no"?>
<!DOCTYPE svg PUBLIC "-//W3C//DTD SVG 20010904//EN"
 "http://www.w3.org/TR/2001/REC-SVG-20010904/DTD/svg10.dtd">
<svg version="1.0" xmlns="http://www.w3.org/2000/svg"
 width="31.000000pt" height="45.000000pt" viewBox="0 0 31.000000 45.000000"
 preserveAspectRatio="xMidYMid meet">
<metadata>
Created by potrace 1.16, written by Peter Selinger 2001-2019
</metadata>
<g transform="translate(0.000000,45.000000) scale(0.100000,-0.100000)"
fill="#000000" stroke="none">
<path d="M120 418 l0 -33 -9 -14 -9 -14 -51 7 -51 7 0 -43 0 -43 8 -11 7 -11
28 -7 27 -6 0 -14 0 -14 -24 -6 -25 -6 -6 -44 -7 -44 7 -21 6 -21 39 0 39 0
-5 -15 -6 -15 6 -25 6 -25 28 0 27 0 23 6 22 6 0 23 0 23 40 7 40 7 15 15 15
14 0 52 0 52 -9 14 -9 14 -31 -6 -31 -6 0 14 0 14 38 3 37 3 0 55 0 55 -47 8
-48 9 -8 32 -8 31 -37 3 -37 3 0 -33z"/>
</g>
</svg>
