<?xml version="1.0" standalone="no"?>
<!DOCTYPE svg PUBLIC "-//W3C//DTD SVG 20010904//EN"
 "http://www.w3.org/TR/2001/REC-SVG-20010904/DTD/svg10.dtd">
<svg version="1.0" xmlns="http://www.w3.org/2000/svg"
 width="34.000000pt" height="41.000000pt" viewBox="0 0 34.000000 41.000000"
 preserveAspectRatio="xMidYMid meet">
<metadata>
Created by potrace 1.16, written by Peter Selinger 2001-2019
</metadata>
<g transform="translate(0.000000,41.000000) scale(0.100000,-0.100000)"
fill="#000000" stroke="none">
<path d="M117 404 l-6 -6 6 -14 5 -13 -16 -17 -17 -16 -44 4 -45 3 0 -117 0
-116 6 -16 6 -16 44 0 44 0 0 -34 0 -34 24 -6 24 -6 16 6 15 6 3 21 3 21 27 7
28 7 14 14 14 14 7 41 7 42 29 6 29 7 0 32 0 33 -25 -4 -24 -5 -16 15 -15 16
-6 31 -7 30 -26 6 -26 6 -18 5 -19 5 5 18 5 19 -15 5 -15 6 -7 0 -8 0 -6 -6z"/>
</g>
</svg>
