<?xml version="1.0" standalone="no"?>
<!DOCTYPE svg PUBLIC "-//W3C//DTD SVG 20010904//EN"
 "http://www.w3.org/TR/2001/REC-SVG-20010904/DTD/svg10.dtd">
<svg version="1.0" xmlns="http://www.w3.org/2000/svg"
 width="36.000000pt" height="43.000000pt" viewBox="0 0 36.000000 43.000000"
 preserveAspectRatio="xMidYMid meet">
<metadata>
Created by potrace 1.16, written by Peter Selinger 2001-2019
</metadata>
<g transform="translate(0.000000,43.000000) scale(0.100000,-0.100000)"
fill="#000000" stroke="none">
<path d="M113 415 l-5 -16 5 -6 6 -5 -15 -15 -15 -16 -45 7 -44 6 0 -129 0
-129 6 -16 6 -16 44 0 44 0 0 -34 0 -34 30 -7 30 -6 19 6 20 6 3 21 3 22 27 7
28 7 14 14 14 14 7 41 7 42 29 6 29 7 0 45 0 45 -25 -6 -26 -7 -15 15 -14 15
-6 31 -7 30 -26 6 -26 6 -17 4 -17 5 6 16 6 15 -14 9 -14 9 -23 0 -23 0 -6
-15z"/>
</g>
</svg>
