<?xml version="1.0" standalone="no"?>
<!DOCTYPE svg PUBLIC "-//W3C//DTD SVG 20010904//EN"
 "http://www.w3.org/TR/2001/REC-SVG-20010904/DTD/svg10.dtd">
<svg version="1.0" xmlns="http://www.w3.org/2000/svg"
 width="39.000000pt" height="36.000000pt" viewBox="0 0 39.000000 36.000000"
 preserveAspectRatio="xMidYMid meet">
<metadata>
Created by potrace 1.16, written by Peter Selinger 2001-2019
</metadata>
<g transform="translate(0.000000,36.000000) scale(0.100000,-0.100000)"
fill="#000000" stroke="none">
<path d="M200 332 l0 -30 -6 -16 -6 -16 -29 0 -28 0 -9 32 -8 32 -29 8 -30 8
-17 -6 -18 -5 0 -29 0 -28 6 -16 6 -16 40 -6 39 -7 -3 -16 -3 -16 -47 -5 -47
-6 -6 -6 -6 -6 9 -36 10 -36 15 -15 16 -15 35 0 35 0 -6 -34 -5 -33 25 -7 25
-6 16 6 15 6 6 18 6 18 -3 13 -3 14 50 0 50 0 7 10 8 10 0 48 0 47 24 -6 23
-5 17 16 16 16 0 13 0 13 -26 12 -26 12 -21 -7 -20 -6 6 51 6 51 -32 0 -32 0
-22 6 -23 6 0 -30z"/>
</g>
</svg>
