<?xml version="1.0" standalone="no"?>
<!DOCTYPE svg PUBLIC "-//W3C//DTD SVG 20010904//EN"
 "http://www.w3.org/TR/2001/REC-SVG-20010904/DTD/svg10.dtd">
<svg version="1.0" xmlns="http://www.w3.org/2000/svg"
 width="41.000000pt" height="38.000000pt" viewBox="0 0 41.000000 38.000000"
 preserveAspectRatio="xMidYMid meet">
<metadata>
Created by potrace 1.16, written by Peter Selinger 2001-2019
</metadata>
<g transform="translate(0.000000,38.000000) scale(0.100000,-0.100000)"
fill="#000000" stroke="none">
<path d="M200 352 l0 -30 -6 -16 -6 -16 -19 0 -18 0 -9 32 -8 32 -34 9 -33 8
-24 -5 -23 -6 0 -39 0 -39 6 -16 6 -16 39 -6 39 -6 -6 -9 -5 -9 -37 0 -37 0
-14 -9 -13 -9 7 -40 7 -41 17 -20 18 -21 32 0 31 0 0 -34 0 -34 23 -6 22 -6
17 0 17 0 15 16 16 15 0 26 0 26 49 -6 49 -6 6 15 6 16 0 39 0 39 24 0 25 0
15 16 16 15 0 23 0 23 -25 11 -26 12 -20 0 -20 0 7 45 6 45 -28 0 -29 0 -37 6
-38 7 0 -31z"/>
</g>
</svg>
