<?xml version="1.0" standalone="no"?>
<!DOCTYPE svg PUBLIC "-//W3C//DTD SVG 20010904//EN"
 "http://www.w3.org/TR/2001/REC-SVG-20010904/DTD/svg10.dtd">
<svg version="1.0" xmlns="http://www.w3.org/2000/svg"
 width="28.000000pt" height="26.000000pt" viewBox="0 0 28.000000 26.000000"
 preserveAspectRatio="xMidYMid meet">
<metadata>
Created by potrace 1.16, written by Peter Selinger 2001-2019
</metadata>
<g transform="translate(0.000000,26.000000) scale(0.100000,-0.100000)"
fill="#000000" stroke="none">
<path d="M170 237 l0 -25 -18 -22 -18 -23 -22 12 -21 11 -6 -10 -6 -10 10 0
11 0 0 -21 0 -20 -14 -15 -15 -14 -35 0 -36 0 0 -27 0 -28 6 -22 6 -23 130 0
131 0 -7 42 -7 42 -12 8 -12 8 -18 0 -18 0 3 22 3 22 32 8 33 9 6 23 6 24 -4
23 -3 24 -52 3 -53 3 0 -24z"/>
</g>
</svg>
