<?xml version="1.0" standalone="no"?>
<!DOCTYPE svg PUBLIC "-//W3C//DTD SVG 20010904//EN"
 "http://www.w3.org/TR/2001/REC-SVG-20010904/DTD/svg10.dtd">
<svg version="1.0" xmlns="http://www.w3.org/2000/svg"
 width="31.000000pt" height="34.000000pt" viewBox="0 0 31.000000 34.000000"
 preserveAspectRatio="xMidYMid meet">
<metadata>
Created by potrace 1.16, written by Peter Selinger 2001-2019
</metadata>
<g transform="translate(0.000000,34.000000) scale(0.100000,-0.100000)"
fill="#000000" stroke="none">
<path d="M77 332 l-17 -3 6 -39 6 -39 -33 -9 -34 -8 -3 -17 -3 -17 33 0 33 0
13 -9 14 -8 -11 -41 -11 -40 -13 -5 -12 -4 7 -7 6 -8 40 -5 39 -5 0 -12 0 -11
1 -17 2 -17 19 -6 18 -5 17 6 16 6 0 13 0 14 16 15 15 16 31 0 30 0 -6 23 -6
22 -6 37 -6 38 -9 -6 -9 -5 -20 6 -20 6 0 30 0 29 -27 0 -28 0 -13 9 -14 8 4
28 3 28 -25 7 -25 6 -18 -4z M259 318 l-37 -9 5 -20 5 -19 -13 0 -12 0 5 -6 6
-6 46 7 46 7 0 29 0 29 -7 -1 -8 -1 -36 -10z"/>
</g>
</svg>
