<?xml version="1.0" standalone="no"?>
<!DOCTYPE svg PUBLIC "-//W3C//DTD SVG 20010904//EN"
 "http://www.w3.org/TR/2001/REC-SVG-20010904/DTD/svg10.dtd">
<svg version="1.0" xmlns="http://www.w3.org/2000/svg"
 width="33.000000pt" height="36.000000pt" viewBox="0 0 33.000000 36.000000"
 preserveAspectRatio="xMidYMid meet">
<metadata>
Created by potrace 1.16, written by Peter Selinger 2001-2019
</metadata>
<g transform="translate(0.000000,36.000000) scale(0.100000,-0.100000)"
fill="#000000" stroke="none">
<path d="M76 353 l-18 -5 6 -39 6 -38 -32 -9 -33 -8 -3 -27 -3 -27 33 0 33 0
11 -8 11 -7 -9 -32 -9 -33 -9 0 -10 0 0 -20 0 -20 39 -6 40 -6 6 -29 7 -29 23
-6 24 -6 20 7 21 6 0 14 0 14 16 15 15 16 30 0 29 0 0 12 0 12 -12 58 -12 59
-16 -2 -15 -1 -12 1 -13 1 0 24 0 25 45 7 45 6 0 39 0 39 -11 0 -10 0 -45 -11
-46 -12 5 -16 4 -17 -14 -12 -13 -13 -21 6 -20 7 6 28 6 28 -8 5 -8 5 -30 5
-30 5 -19 -5z"/>
</g>
</svg>
