<?xml version="1.0" standalone="no"?>
<!DOCTYPE svg PUBLIC "-//W3C//DTD SVG 20010904//EN"
 "http://www.w3.org/TR/2001/REC-SVG-20010904/DTD/svg10.dtd">
<svg version="1.0" xmlns="http://www.w3.org/2000/svg"
 width="30.000000pt" height="28.000000pt" viewBox="0 0 30.000000 28.000000"
 preserveAspectRatio="xMidYMid meet">
<metadata>
Created by potrace 1.16, written by Peter Selinger 2001-2019
</metadata>
<g transform="translate(0.000000,28.000000) scale(0.100000,-0.100000)"
fill="#000000" stroke="none">
<path d="M170 260 l0 -21 -11 -20 -10 -20 -30 6 -29 7 -7 -18 -7 -18 12 -4 12
-4 0 -10 0 -9 -14 -15 -15 -14 -35 0 -36 0 0 -37 0 -38 6 -23 6 -22 139 0 139
0 0 24 0 23 -6 32 -7 32 -29 6 -29 6 4 10 3 11 32 8 32 9 6 23 5 23 -3 34 -3
34 -62 3 -63 3 0 -21z"/>
</g>
</svg>
