<?xml version="1.0" standalone="no"?>
<!DOCTYPE svg PUBLIC "-//W3C//DTD SVG 20010904//EN"
 "http://www.w3.org/TR/2001/REC-SVG-20010904/DTD/svg10.dtd">
<svg version="1.0" xmlns="http://www.w3.org/2000/svg"
 width="34.000000pt" height="28.000000pt" viewBox="0 0 34.000000 28.000000"
 preserveAspectRatio="xMidYMid meet">
<metadata>
Created by potrace 1.16, written by Peter Selinger 2001-2019
</metadata>
<g transform="translate(0.000000,28.000000) scale(0.100000,-0.100000)"
fill="#000000" stroke="none">
<path d="M50 265 l0 -15 9 0 10 0 -10 -30 -11 -30 -24 0 -24 0 0 -40 0 -40 14
0 14 0 10 -28 10 -27 6 -28 6 -27 55 0 55 0 7 30 6 30 10 0 10 0 17 -20 18
-21 51 -6 51 -6 0 52 0 51 -24 0 -25 0 -15 15 -15 16 5 14 6 14 35 7 35 7 -5
39 -5 40 -6 5 -5 5 -49 -7 -50 -7 -6 -24 -6 -24 -11 0 -10 0 -12 13 -12 12 0
20 0 20 -57 3 -58 3 0 -16z"/>
</g>
</svg>
