<?xml version="1.0" standalone="no"?>
<!DOCTYPE svg PUBLIC "-//W3C//DTD SVG 20010904//EN"
 "http://www.w3.org/TR/2001/REC-SVG-20010904/DTD/svg10.dtd">
<svg version="1.0" xmlns="http://www.w3.org/2000/svg"
 width="30.000000pt" height="36.000000pt" viewBox="0 0 30.000000 36.000000"
 preserveAspectRatio="xMidYMid meet">
<metadata>
Created by potrace 1.16, written by Peter Selinger 2001-2019
</metadata>
<g transform="translate(0.000000,36.000000) scale(0.100000,-0.100000)"
fill="#000000" stroke="none">
<path d="M11 310 l-1 -50 25 0 25 0 0 -10 0 -10 15 0 15 0 0 -11 0 -10 -14
-15 -15 -14 -30 0 -31 0 0 -22 0 -23 7 -39 6 -38 42 5 43 6 6 -39 6 -40 35 0
34 0 7 35 6 35 35 0 34 0 15 15 15 15 -7 47 -7 47 -13 13 -13 13 -21 0 -21 0
6 10 6 10 24 0 23 0 16 6 16 6 0 44 0 44 -29 0 -28 0 -32 -6 -31 -6 0 -14 0
-13 -19 -6 -18 -5 -17 6 -17 7 6 28 7 29 -55 0 -54 0 -2 -50z"/>
</g>
</svg>
