<?xml version="1.0" standalone="no"?>
<!DOCTYPE svg PUBLIC "-//W3C//DTD SVG 20010904//EN"
 "http://www.w3.org/TR/2001/REC-SVG-20010904/DTD/svg10.dtd">
<svg version="1.0" xmlns="http://www.w3.org/2000/svg"
 width="28.000000pt" height="34.000000pt" viewBox="0 0 28.000000 34.000000"
 preserveAspectRatio="xMidYMid meet">
<metadata>
Created by potrace 1.16, written by Peter Selinger 2001-2019
</metadata>
<g transform="translate(0.000000,34.000000) scale(0.100000,-0.100000)"
fill="#000000" stroke="none">
<path d="M13 300 l-3 -40 25 0 25 0 0 -10 0 -10 15 0 15 0 0 -21 0 -20 -14
-15 -15 -14 -30 0 -31 0 0 -12 0 -13 6 -38 7 -37 50 6 50 7 -7 -12 -7 -11 6
-30 7 -30 23 0 24 0 7 35 6 35 35 0 34 0 14 14 14 14 -6 38 -6 39 -13 13 -14
13 -17 -3 -18 -3 0 20 0 20 20 3 20 3 23 5 22 4 0 35 0 35 -19 0 -18 0 -32 -6
-31 -6 0 -14 0 -14 -24 -6 -25 -6 -21 7 -22 7 4 29 5 29 -41 0 -41 0 -2 -40z"/>
</g>
</svg>
