<?xml version="1.0" standalone="no"?>
<!DOCTYPE svg PUBLIC "-//W3C//DTD SVG 20010904//EN"
 "http://www.w3.org/TR/2001/REC-SVG-20010904/DTD/svg10.dtd">
<svg version="1.0" xmlns="http://www.w3.org/2000/svg"
 width="32.000000pt" height="26.000000pt" viewBox="0 0 32.000000 26.000000"
 preserveAspectRatio="xMidYMid meet">
<metadata>
Created by potrace 1.16, written by Peter Selinger 2001-2019
</metadata>
<g transform="translate(0.000000,26.000000) scale(0.100000,-0.100000)"
fill="#000000" stroke="none">
<path d="M62 215 l-12 -45 -25 0 -25 0 0 -30 0 -30 14 0 14 0 10 -27 10 -28 6
-27 6 -28 45 0 44 0 6 20 6 20 -5 9 -6 9 20 5 21 5 24 -24 24 -24 40 -6 41 -7
0 42 0 41 -24 0 -25 0 -15 16 -16 15 0 9 0 8 6 16 6 15 35 7 35 7 -6 30 -6 31
-4 3 -3 4 -41 -7 -40 -6 -6 -24 -6 -24 -21 0 -20 0 -15 15 -15 15 3 17 3 18
-35 3 -36 3 -12 -46z"/>
</g>
</svg>
