<?xml version="1.0" standalone="no"?>
<!DOCTYPE svg PUBLIC "-//W3C//DTD SVG 20010904//EN"
 "http://www.w3.org/TR/2001/REC-SVG-20010904/DTD/svg10.dtd">
<svg version="1.0" xmlns="http://www.w3.org/2000/svg"
 width="35.000000pt" height="29.000000pt" viewBox="0 0 35.000000 29.000000"
 preserveAspectRatio="xMidYMid meet">
<metadata>
Created by potrace 1.16, written by Peter Selinger 2001-2019
</metadata>
<g transform="translate(0.000000,29.000000) scale(0.100000,-0.100000)"
fill="#000000" stroke="none">
<path d="M76 282 l-5 -9 -7 -42 -7 -42 -28 -6 -29 -5 0 -33 0 -33 26 -6 26 -7
-6 -43 -7 -44 16 -6 17 -6 49 0 48 0 9 33 8 32 14 0 15 0 4 -20 3 -20 12 -7
11 -8 48 0 47 0 0 24 0 23 -6 31 -6 30 -25 11 -24 11 3 17 3 18 19 3 20 4 13
13 13 14 0 40 0 41 -134 0 -135 0 -5 -8z"/>
</g>
</svg>
