<?xml version="1.0" standalone="no"?>
<!DOCTYPE svg PUBLIC "-//W3C//DTD SVG 20010904//EN"
 "http://www.w3.org/TR/2001/REC-SVG-20010904/DTD/svg10.dtd">
<svg version="1.0" xmlns="http://www.w3.org/2000/svg"
 width="33.000000pt" height="27.000000pt" viewBox="0 0 33.000000 27.000000"
 preserveAspectRatio="xMidYMid meet">
<metadata>
Created by potrace 1.16, written by Peter Selinger 2001-2019
</metadata>
<g transform="translate(0.000000,27.000000) scale(0.100000,-0.100000)"
fill="#000000" stroke="none">
<path d="M76 262 l-5 -9 -7 -42 -7 -42 -28 -6 -29 -5 0 -23 0 -23 26 -6 26 -7
-4 -44 -5 -44 14 -5 15 -6 39 0 38 0 9 33 8 32 24 0 25 0 4 -20 3 -20 12 -7
11 -8 38 0 37 0 0 14 0 14 -6 30 -6 30 -25 11 -24 11 3 27 3 28 19 3 20 4 13
13 13 14 0 30 0 31 -124 0 -125 0 -5 -8z"/>
</g>
</svg>
