<?xml version="1.0" standalone="no"?>
<!DOCTYPE svg PUBLIC "-//W3C//DTD SVG 20010904//EN"
 "http://www.w3.org/TR/2001/REC-SVG-20010904/DTD/svg10.dtd">
<svg version="1.0" xmlns="http://www.w3.org/2000/svg"
 width="41.000000pt" height="28.000000pt" viewBox="0 0 41.000000 28.000000"
 preserveAspectRatio="xMidYMid meet">
<metadata>
Created by potrace 1.16, written by Peter Selinger 2001-2019
</metadata>
<g transform="translate(0.000000,28.000000) scale(0.100000,-0.100000)"
fill="#000000" stroke="none">
<path d="M78 238 l-3 -43 -37 -3 -38 -3 0 -36 0 -35 35 4 35 4 6 -19 6 -19 -7
-44 -6 -44 55 0 55 0 11 40 11 40 9 0 10 0 0 -24 0 -25 16 -15 15 -16 42 0 42
0 12 8 12 8 -1 19 -2 20 7 27 7 27 20 6 20 6 0 35 0 34 -29 0 -29 0 -6 16 -6
16 0 29 0 29 -50 0 -50 0 0 -24 0 -24 -19 -5 -20 -5 -11 29 -12 29 -49 0 -48
0 -3 -42z"/>
</g>
</svg>
