<?xml version="1.0" standalone="no"?>
<!DOCTYPE svg PUBLIC "-//W3C//DTD SVG 20010904//EN"
 "http://www.w3.org/TR/2001/REC-SVG-20010904/DTD/svg10.dtd">
<svg version="1.0" xmlns="http://www.w3.org/2000/svg"
 width="42.000000pt" height="27.000000pt" viewBox="0 0 42.000000 27.000000"
 preserveAspectRatio="xMidYMid meet">
<metadata>
Created by potrace 1.16, written by Peter Selinger 2001-2019
</metadata>
<g transform="translate(0.000000,27.000000) scale(0.100000,-0.100000)"
fill="#000000" stroke="none">
<path d="M80 238 l0 -33 -9 -13 -8 -13 -29 -8 -29 -7 -3 -31 -3 -30 30 -6 30
-6 6 -46 7 -45 135 0 135 0 -6 35 -7 36 6 17 5 18 35 -4 34 -4 7 26 6 26 -5
14 -5 13 -36 7 -36 7 0 41 0 41 -37 -7 -38 -6 -16 0 -17 0 -6 -25 -6 -24 -15
5 -14 6 -3 21 -3 22 -52 3 -53 3 0 -33z"/>
</g>
</svg>
