<?xml version="1.0" standalone="no"?>
<!DOCTYPE svg PUBLIC "-//W3C//DTD SVG 20010904//EN"
 "http://www.w3.org/TR/2001/REC-SVG-20010904/DTD/svg10.dtd">
<svg version="1.0" xmlns="http://www.w3.org/2000/svg"
 width="40.000000pt" height="25.000000pt" viewBox="0 0 40.000000 25.000000"
 preserveAspectRatio="xMidYMid meet">
<metadata>
Created by potrace 1.16, written by Peter Selinger 2001-2019
</metadata>
<g transform="translate(0.000000,25.000000) scale(0.100000,-0.100000)"
fill="#000000" stroke="none">
<path d="M80 218 l0 -33 -9 -13 -8 -13 -29 -8 -29 -7 -3 -21 -3 -20 30 -6 30
-6 6 -46 7 -45 124 0 124 0 -6 30 -6 29 6 26 7 26 33 -7 34 -6 7 21 6 21 -5 9
-6 9 -35 6 -35 7 0 41 0 40 -22 -6 -23 -6 -21 0 -22 0 -6 -25 -6 -25 -13 0
-12 0 -11 8 -12 7 -3 20 -4 20 -43 3 -42 3 0 -33z"/>
</g>
</svg>
