<?xml version="1.0" standalone="no"?>
<!DOCTYPE svg PUBLIC "-//W3C//DTD SVG 20010904//EN"
 "http://www.w3.org/TR/2001/REC-SVG-20010904/DTD/svg10.dtd">
<svg version="1.0" xmlns="http://www.w3.org/2000/svg"
 width="39.000000pt" height="26.000000pt" viewBox="0 0 39.000000 26.000000"
 preserveAspectRatio="xMidYMid meet">
<metadata>
Created by potrace 1.16, written by Peter Selinger 2001-2019
</metadata>
<g transform="translate(0.000000,26.000000) scale(0.100000,-0.100000)"
fill="#000000" stroke="none">
<path d="M78 218 l-3 -43 -37 -3 -38 -3 0 -26 0 -25 35 6 34 7 7 -26 6 -26 -5
-40 -5 -39 44 0 44 0 6 28 7 27 9 17 8 17 15 -5 15 -6 0 -23 0 -24 16 -15 15
-16 29 0 28 0 16 6 16 6 -6 9 -5 9 11 39 10 40 20 6 20 6 0 25 0 24 -29 0 -29
0 -6 16 -6 16 0 29 0 29 -40 0 -40 0 0 -24 0 -24 -22 -6 -23 -6 -6 0 -7 0 -12
30 -12 30 -39 0 -38 0 -3 -42z"/>
</g>
</svg>
