<?xml version="1.0" standalone="no"?>
<!DOCTYPE svg PUBLIC "-//W3C//DTD SVG 20010904//EN"
 "http://www.w3.org/TR/2001/REC-SVG-20010904/DTD/svg10.dtd">
<svg version="1.0" xmlns="http://www.w3.org/2000/svg"
 width="32.000000pt" height="43.000000pt" viewBox="0 0 32.000000 43.000000"
 preserveAspectRatio="xMidYMid meet">
<metadata>
Created by potrace 1.16, written by Peter Selinger 2001-2019
</metadata>
<g transform="translate(0.000000,43.000000) scale(0.100000,-0.100000)"
fill="#000000" stroke="none">
<path d="M117 423 l-18 -5 2 -16 1 -17 -1 -14 -1 -14 -50 6 -50 6 0 -50 0 -50
14 -15 15 -14 16 0 16 0 -15 -15 -15 -16 -11 -41 -11 -41 5 -23 6 -24 35 0 35
0 0 -15 0 -14 12 -26 11 -25 26 0 26 0 23 6 22 6 0 29 0 29 23 0 22 0 21 6 20
5 12 33 12 32 0 26 0 26 -16 6 -16 6 -23 0 -23 0 -6 15 -5 15 22 0 22 0 13 9
13 8 -3 54 -3 53 -44 9 -44 9 -24 24 -24 24 -12 -1 -12 -1 -18 -5z"/>
</g>
</svg>
