<?xml version="1.0" standalone="no"?>
<!DOCTYPE svg PUBLIC "-//W3C//DTD SVG 20010904//EN"
 "http://www.w3.org/TR/2001/REC-SVG-20010904/DTD/svg10.dtd">
<svg version="1.0" xmlns="http://www.w3.org/2000/svg"
 width="38.000000pt" height="40.000000pt" viewBox="0 0 38.000000 40.000000"
 preserveAspectRatio="xMidYMid meet">
<metadata>
Created by potrace 1.16, written by Peter Selinger 2001-2019
</metadata>
<g transform="translate(0.000000,40.000000) scale(0.100000,-0.100000)"
fill="#000000" stroke="none">
<path d="M185 377 l6 -24 -17 -18 -17 -17 -39 6 -38 6 0 -45 0 -45 -25 0 -25
0 0 -10 0 -10 -15 0 -15 0 0 -9 0 -9 6 -16 6 -16 29 0 29 0 0 -50 0 -49 33 -5
32 -6 25 -2 25 -3 4 -20 3 -20 12 -7 11 -8 12 0 13 0 6 25 6 25 23 0 22 0 30
10 30 11 12 40 12 41 -6 6 -6 6 -47 6 -47 5 0 20 0 20 29 3 29 4 14 13 13 14
0 35 0 36 -52 0 -53 0 -12 8 -12 8 2 29 2 30 -28 3 -28 3 6 -24z"/>
</g>
</svg>
