<?xml version="1.0" standalone="no"?>
<!DOCTYPE svg PUBLIC "-//W3C//DTD SVG 20010904//EN"
 "http://www.w3.org/TR/2001/REC-SVG-20010904/DTD/svg10.dtd">
<svg version="1.0" xmlns="http://www.w3.org/2000/svg"
 width="35.000000pt" height="36.000000pt" viewBox="0 0 35.000000 36.000000"
 preserveAspectRatio="xMidYMid meet">
<metadata>
Created by potrace 1.16, written by Peter Selinger 2001-2019
</metadata>
<g transform="translate(0.000000,36.000000) scale(0.100000,-0.100000)"
fill="#000000" stroke="none">
<path d="M250 350 l0 -10 -39 0 -39 0 -6 -35 -7 -35 -14 0 -15 0 -2 18 -1 17
2 23 2 22 -28 0 -28 0 -38 -6 -37 -7 0 -13 0 -14 10 0 10 0 0 -41 0 -40 23 1
22 2 13 -1 12 -1 0 -20 0 -20 -23 -6 -24 -5 -11 -50 -12 -51 0 -9 0 -9 39 0
39 0 12 -30 12 -30 17 0 16 0 23 6 22 6 0 24 0 24 46 0 46 0 -7 31 -7 30 12
28 11 27 22 0 22 -1 0 40 0 40 -20 1 -20 2 -12 1 -13 1 0 50 0 50 -15 0 -15 0
0 -10z"/>
</g>
</svg>
