<?xml version="1.0" standalone="no"?>
<!DOCTYPE svg PUBLIC "-//W3C//DTD SVG 20010904//EN"
 "http://www.w3.org/TR/2001/REC-SVG-20010904/DTD/svg10.dtd">
<svg version="1.0" xmlns="http://www.w3.org/2000/svg"
 width="33.000000pt" height="34.000000pt" viewBox="0 0 33.000000 34.000000"
 preserveAspectRatio="xMidYMid meet">
<metadata>
Created by potrace 1.16, written by Peter Selinger 2001-2019
</metadata>
<g transform="translate(0.000000,34.000000) scale(0.100000,-0.100000)"
fill="#000000" stroke="none">
<path d="M252 333 l-2 -13 -39 0 -39 0 -6 -35 -7 -35 -24 0 -23 0 -7 30 -6 30
6 10 6 10 -28 -1 -28 -1 -30 -8 -30 -8 13 -1 12 -1 0 -41 0 -40 19 6 18 5 17
-6 16 -6 0 -29 0 -29 -24 -6 -24 -6 -7 -35 -6 -34 -6 -15 -5 -14 40 0 40 0 12
-31 13 -31 21 6 21 6 8 0 7 0 0 25 0 25 43 0 44 0 -5 30 -4 30 12 31 13 30 21
-3 21 -3 0 30 0 30 -14 -3 -13 -3 -19 6 -18 6 -4 52 -3 52 -2 -12z"/>
</g>
</svg>
