<?xml version="1.0" standalone="no"?>
<!DOCTYPE svg PUBLIC "-//W3C//DTD SVG 20010904//EN"
 "http://www.w3.org/TR/2001/REC-SVG-20010904/DTD/svg10.dtd">
<svg version="1.0" xmlns="http://www.w3.org/2000/svg"
 width="40.000000pt" height="42.000000pt" viewBox="0 0 40.000000 42.000000"
 preserveAspectRatio="xMidYMid meet">
<metadata>
Created by potrace 1.16, written by Peter Selinger 2001-2019
</metadata>
<g transform="translate(0.000000,42.000000) scale(0.100000,-0.100000)"
fill="#000000" stroke="none">
<path d="M182 395 l5 -26 -14 -15 -14 -14 -40 6 -39 7 0 -47 0 -46 -25 0 -25
0 0 -10 0 -10 -15 0 -15 0 0 -19 0 -19 6 -16 6 -16 29 0 29 0 0 -50 0 -49 33
-5 32 -6 25 -2 25 -3 4 -20 3 -20 12 -7 11 -8 22 0 23 0 6 25 6 25 23 0 22 0
30 10 30 11 12 38 11 38 0 16 0 17 -22 5 -23 5 -30 2 -30 3 0 10 0 10 29 3 29
4 14 13 13 14 0 45 0 46 -52 0 -53 0 -10 8 -10 7 0 30 0 30 -39 3 -39 3 5 -26z"/>
</g>
</svg>
