<?xml version="1.0" standalone="no"?>
<!DOCTYPE svg PUBLIC "-//W3C//DTD SVG 20010904//EN"
 "http://www.w3.org/TR/2001/REC-SVG-20010904/DTD/svg10.dtd">
<svg version="1.0" xmlns="http://www.w3.org/2000/svg"
 width="46.000000pt" height="38.000000pt" viewBox="0 0 46.000000 38.000000"
 preserveAspectRatio="xMidYMid meet">
<metadata>
Created by potrace 1.16, written by Peter Selinger 2001-2019
</metadata>
<g transform="translate(0.000000,38.000000) scale(0.100000,-0.100000)"
fill="#000000" stroke="none">
<path d="M190 346 l0 -34 -16 -6 -16 -6 -43 0 -44 0 -3 -37 -3 -37 -33 -8 -32
-9 0 -30 0 -30 14 -15 15 -14 20 0 21 0 0 -36 0 -35 13 -13 13 -13 48 -7 49
-8 8 14 9 13 0 28 0 28 10 -6 10 -6 0 -24 0 -23 6 -16 6 -16 25 0 26 0 39 12
40 12 -5 43 -5 43 24 0 23 0 15 15 15 15 10 0 11 0 0 31 0 30 -14 15 -15 14
-30 0 -30 0 -3 37 -3 38 -51 8 -52 8 -6 30 -5 29 -31 0 -30 0 0 -34z"/>
</g>
</svg>
