<?xml version="1.0" standalone="no"?>
<!DOCTYPE svg PUBLIC "-//W3C//DTD SVG 20010904//EN"
 "http://www.w3.org/TR/2001/REC-SVG-20010904/DTD/svg10.dtd">
<svg version="1.0" xmlns="http://www.w3.org/2000/svg"
 width="41.000000pt" height="43.000000pt" viewBox="0 0 41.000000 43.000000"
 preserveAspectRatio="xMidYMid meet">
<metadata>
Created by potrace 1.16, written by Peter Selinger 2001-2019
</metadata>
<g transform="translate(0.000000,43.000000) scale(0.100000,-0.100000)"
fill="#000000" stroke="none">
<path d="M187 423 l-7 -6 0 -23 0 -22 -5 -14 -5 -13 -45 3 -45 4 0 -32 0 -31
-14 -15 -15 -14 -25 0 -26 0 0 -35 0 -35 19 0 19 0 16 -6 16 -6 0 -54 0 -54
40 0 40 0 0 -21 0 -20 14 -15 15 -14 30 0 31 0 6 24 6 24 49 7 49 7 0 13 0 14
-11 25 -12 25 6 23 6 23 33 0 33 0 3 26 3 27 -35 6 -36 7 0 51 0 50 -22 -6
-23 -6 -22 -6 -22 -6 -6 28 -6 29 -5 23 -4 22 -19 0 -18 0 -6 -7z"/>
</g>
</svg>
