<?xml version="1.0" standalone="no"?>
<!DOCTYPE svg PUBLIC "-//W3C//DTD SVG 20010904//EN"
 "http://www.w3.org/TR/2001/REC-SVG-20010904/DTD/svg10.dtd">
<svg version="1.0" xmlns="http://www.w3.org/2000/svg"
 width="42.000000pt" height="35.000000pt" viewBox="0 0 42.000000 35.000000"
 preserveAspectRatio="xMidYMid meet">
<metadata>
Created by potrace 1.16, written by Peter Selinger 2001-2019
</metadata>
<g transform="translate(0.000000,35.000000) scale(0.100000,-0.100000)"
fill="#000000" stroke="none">
<path d="M187 343 l-7 -6 0 -33 0 -34 -25 -6 -26 -6 -29 5 -29 6 -3 -41 -3
-42 -33 -8 -32 -9 0 -24 0 -25 15 0 15 0 0 -10 0 -10 31 0 32 0 -6 -36 -6 -36
14 -14 14 -14 20 0 20 0 16 16 16 17 -6 24 -6 24 28 -3 28 -3 -2 -30 -2 -29
12 -8 12 -8 51 0 51 0 16 38 15 37 6 18 5 17 16 0 15 0 0 25 0 25 -15 0 -15 0
-20 20 -20 20 0 34 0 34 -27 6 -28 7 -27 11 -28 10 0 24 0 24 -23 0 -24 0 -6
-7z"/>
</g>
</svg>
