<?xml version="1.0" standalone="no"?>
<!DOCTYPE svg PUBLIC "-//W3C//DTD SVG 20010904//EN"
 "http://www.w3.org/TR/2001/REC-SVG-20010904/DTD/svg10.dtd">
<svg version="1.0" xmlns="http://www.w3.org/2000/svg"
 width="39.000000pt" height="41.000000pt" viewBox="0 0 39.000000 41.000000"
 preserveAspectRatio="xMidYMid meet">
<metadata>
Created by potrace 1.16, written by Peter Selinger 2001-2019
</metadata>
<g transform="translate(0.000000,41.000000) scale(0.100000,-0.100000)"
fill="#000000" stroke="none">
<path d="M184 395 l-6 -15 4 -18 5 -18 -12 -11 -12 -11 -42 5 -41 6 0 -32 0
-32 -14 -15 -15 -14 -25 0 -26 0 0 -25 0 -25 19 0 19 0 16 -6 16 -6 0 -53 0
-54 43 -3 42 -3 -3 -18 -3 -17 15 -15 15 -15 20 0 21 0 6 24 6 24 50 7 49 7
-7 17 -7 16 -4 22 -5 23 6 25 6 25 32 -2 32 -3 4 16 3 17 -35 6 -36 7 0 49 0
50 -26 -10 -25 -10 -19 0 -20 0 -5 25 -5 25 -5 25 -5 25 -11 0 -10 0 -5 -15z"/>
</g>
</svg>
