<?xml version="1.0" standalone="no"?>
<!DOCTYPE svg PUBLIC "-//W3C//DTD SVG 20010904//EN"
 "http://www.w3.org/TR/2001/REC-SVG-20010904/DTD/svg10.dtd">
<svg version="1.0" xmlns="http://www.w3.org/2000/svg"
 width="44.000000pt" height="37.000000pt" viewBox="0 0 44.000000 37.000000"
 preserveAspectRatio="xMidYMid meet">
<metadata>
Created by potrace 1.16, written by Peter Selinger 2001-2019
</metadata>
<g transform="translate(0.000000,37.000000) scale(0.100000,-0.100000)"
fill="#000000" stroke="none">
<path d="M187 363 l-7 -6 0 -33 0 -33 -20 -6 -19 -6 -35 6 -35 7 -3 -43 -3
-43 -33 -8 -32 -9 0 -34 0 -35 15 0 15 0 0 -10 0 -10 30 0 31 0 -7 -35 -6 -34
15 -16 16 -15 30 0 30 0 15 16 16 15 0 26 0 25 13 -5 12 -4 -3 -28 -4 -28 14
-8 13 -9 61 0 61 0 16 38 15 37 6 18 5 17 16 0 15 0 0 35 0 35 -15 0 -15 0
-20 20 -20 20 0 34 0 34 -27 6 -28 7 -27 11 -28 10 0 24 0 24 -33 0 -34 0 -6
-7z"/>
</g>
</svg>
