<?xml version="1.0" standalone="no"?>
<!DOCTYPE svg PUBLIC "-//W3C//DTD SVG 20010904//EN"
 "http://www.w3.org/TR/2001/REC-SVG-20010904/DTD/svg10.dtd">
<svg version="1.0" xmlns="http://www.w3.org/2000/svg"
 width="39.000000pt" height="42.000000pt" viewBox="0 0 39.000000 42.000000"
 preserveAspectRatio="xMidYMid meet">
<metadata>
Created by potrace 1.16, written by Peter Selinger 2001-2019
</metadata>
<g transform="translate(0.000000,42.000000) scale(0.100000,-0.100000)"
fill="#000000" stroke="none">
<path d="M167 413 l-4 -8 -7 -27 -6 -28 -40 0 -40 0 0 -31 0 -30 -14 -15 -15
-14 -21 0 -21 0 3 -37 3 -38 20 0 20 0 12 -12 13 -12 0 -45 0 -46 40 0 40 0 0
-19 0 -20 16 -15 15 -16 24 0 23 0 6 16 6 16 0 19 0 19 50 0 50 0 -6 55 -7 55
32 6 31 7 0 33 0 34 -14 0 -15 0 -15 16 -16 15 0 35 0 34 -32 0 -33 0 -11 8
-12 7 -3 20 -4 20 -32 3 -31 3 -5 -8z"/>
</g>
</svg>
