<?xml version="1.0" standalone="no"?>
<!DOCTYPE svg PUBLIC "-//W3C//DTD SVG 20010904//EN"
 "http://www.w3.org/TR/2001/REC-SVG-20010904/DTD/svg10.dtd">
<svg version="1.0" xmlns="http://www.w3.org/2000/svg"
 width="31.000000pt" height="36.000000pt" viewBox="0 0 31.000000 36.000000"
 preserveAspectRatio="xMidYMid meet">
<metadata>
Created by potrace 1.16, written by Peter Selinger 2001-2019
</metadata>
<g transform="translate(0.000000,36.000000) scale(0.100000,-0.100000)"
fill="#000000" stroke="none">
<path d="M122 332 l4 -28 -12 -12 -12 -11 -51 6 -51 6 0 -39 0 -39 6 -22 6
-23 24 0 24 0 0 -9 0 -8 -30 -6 -30 -6 0 -50 0 -49 6 -16 6 -15 34 -7 34 -6
25 6 25 6 0 28 0 27 9 14 9 14 11 -7 11 -7 0 -19 0 -19 41 -11 42 -11 23 5 23
6 7 35 6 35 -6 26 -7 26 -30 -4 -30 -5 -5 9 -5 8 21 0 21 0 15 14 14 15 0 52
0 52 -32 -8 -33 -7 -22 -5 -23 -5 0 40 0 40 -16 6 -16 6 -20 0 -20 0 4 -28z"/>
</g>
</svg>
