<?xml version="1.0" standalone="no"?>
<!DOCTYPE svg PUBLIC "-//W3C//DTD SVG 20010904//EN"
 "http://www.w3.org/TR/2001/REC-SVG-20010904/DTD/svg10.dtd">
<svg version="1.0" xmlns="http://www.w3.org/2000/svg"
 width="44.000000pt" height="36.000000pt" viewBox="0 0 44.000000 36.000000"
 preserveAspectRatio="xMidYMid meet">
<metadata>
Created by potrace 1.16, written by Peter Selinger 2001-2019
</metadata>
<g transform="translate(0.000000,36.000000) scale(0.100000,-0.100000)"
fill="#000000" stroke="none">
<path d="M190 326 l0 -34 -16 -6 -16 -6 -43 0 -44 0 -3 -37 -3 -37 -33 -8 -32
-9 0 -20 0 -20 14 -15 15 -14 20 0 21 0 0 -36 0 -35 13 -13 12 -13 42 -6 43
-7 4 22 5 23 3 19 3 19 12 4 12 4 6 -25 5 -26 5 -25 5 -25 17 0 16 0 39 12 39
12 -6 48 -7 49 25 -6 24 -6 16 15 16 16 10 0 11 0 0 21 0 20 -15 16 -16 15
-29 -5 -29 -6 -3 42 -3 42 -51 8 -52 8 -6 30 -5 29 -21 0 -20 0 0 -34z"/>
</g>
</svg>
