<?xml version="1.0" standalone="no"?>
<!DOCTYPE svg PUBLIC "-//W3C//DTD SVG 20010904//EN"
 "http://www.w3.org/TR/2001/REC-SVG-20010904/DTD/svg10.dtd">
<svg version="1.0" xmlns="http://www.w3.org/2000/svg"
 width="29.000000pt" height="34.000000pt" viewBox="0 0 29.000000 34.000000"
 preserveAspectRatio="xMidYMid meet">
<metadata>
Created by potrace 1.16, written by Peter Selinger 2001-2019
</metadata>
<g transform="translate(0.000000,34.000000) scale(0.100000,-0.100000)"
fill="#000000" stroke="none">
<path d="M124 315 l7 -26 -16 -15 -15 -16 -50 7 -50 7 0 -29 0 -28 6 -22 6
-23 24 0 24 0 0 -19 0 -18 -30 -6 -30 -6 0 -43 0 -43 8 -12 7 -11 27 -7 27 -7
20 7 21 6 0 27 0 27 9 13 8 14 19 -4 19 -3 3 -22 3 -23 39 -10 38 -10 15 6 16
6 6 29 6 29 -6 20 -6 20 -32 -3 -31 -2 -4 17 -3 18 21 0 21 0 15 14 14 15 0
41 0 42 -17 -7 -18 -7 -37 -5 -38 -6 0 41 0 40 -16 6 -16 6 -10 0 -10 0 6 -25z"/>
</g>
</svg>
