<?xml version="1.0" standalone="no"?>
<!DOCTYPE svg PUBLIC "-//W3C//DTD SVG 20010904//EN"
 "http://www.w3.org/TR/2001/REC-SVG-20010904/DTD/svg10.dtd">
<svg version="1.0" xmlns="http://www.w3.org/2000/svg"
 width="41.000000pt" height="44.000000pt" viewBox="0 0 41.000000 44.000000"
 preserveAspectRatio="xMidYMid meet">
<metadata>
Created by potrace 1.16, written by Peter Selinger 2001-2019
</metadata>
<g transform="translate(0.000000,44.000000) scale(0.100000,-0.100000)"
fill="#000000" stroke="none">
<path d="M142 423 l-9 -18 -7 -27 -6 -28 -49 0 -49 0 -6 -16 -6 -16 0 -23 0
-24 12 -26 12 -26 28 3 28 3 -3 -10 -2 -10 -37 3 -37 3 -7 -25 -6 -26 7 -38 7
-37 11 -7 12 -8 38 0 37 0 0 -29 0 -29 30 -7 30 -6 22 7 23 7 7 11 8 11 0 21
0 21 41 7 41 7 -4 39 -4 40 39 0 38 0 15 14 14 15 0 19 0 19 -19 21 -18 22
-27 0 -26 0 0 41 0 40 -43 -6 -44 -7 -16 17 -17 16 0 24 0 23 -16 6 -16 6 -8
0 -9 0 -9 -17z"/>
</g>
</svg>
