<?xml version="1.0" standalone="no"?>
<!DOCTYPE svg PUBLIC "-//W3C//DTD SVG 20010904//EN"
 "http://www.w3.org/TR/2001/REC-SVG-20010904/DTD/svg10.dtd">
<svg version="1.0" xmlns="http://www.w3.org/2000/svg"
 width="39.000000pt" height="42.000000pt" viewBox="0 0 39.000000 42.000000"
 preserveAspectRatio="xMidYMid meet">
<metadata>
Created by potrace 1.16, written by Peter Selinger 2001-2019
</metadata>
<g transform="translate(0.000000,42.000000) scale(0.100000,-0.100000)"
fill="#000000" stroke="none">
<path d="M142 402 l-9 -17 -7 -27 -6 -28 -50 0 -50 0 -6 -25 -6 -25 12 -30 12
-30 32 3 31 2 0 -20 0 -20 -42 2 -42 2 -6 -20 -6 -19 7 -33 7 -32 11 -7 11 -8
38 0 37 0 0 -29 0 -29 24 -6 24 -6 19 7 18 7 7 10 8 11 0 21 0 21 41 7 41 7
-6 39 -6 40 41 0 40 0 15 14 14 15 0 9 0 9 -19 21 -18 22 -27 0 -26 0 0 39 0
39 -43 -5 -43 -5 -17 17 -17 16 0 24 0 23 -15 6 -15 5 -8 -17z"/>
</g>
</svg>
