<?xml version="1.0" standalone="no"?>
<!DOCTYPE svg PUBLIC "-//W3C//DTD SVG 20010904//EN"
 "http://www.w3.org/TR/2001/REC-SVG-20010904/DTD/svg10.dtd">
<svg version="1.0" xmlns="http://www.w3.org/2000/svg"
 width="39.000000pt" height="35.000000pt" viewBox="0 0 39.000000 35.000000"
 preserveAspectRatio="xMidYMid meet">
<metadata>
Created by potrace 1.16, written by Peter Selinger 2001-2019
</metadata>
<g transform="translate(0.000000,35.000000) scale(0.100000,-0.100000)"
fill="#000000" stroke="none">
<path d="M195 340 l-6 -10 6 -20 6 -20 -16 -16 -16 -16 -40 5 -39 5 0 -34 0
-34 -23 0 -24 0 -21 -19 -22 -18 0 -21 0 -21 20 -6 20 -6 10 6 10 6 0 -18 0
-18 10 -37 11 -37 34 -7 35 -6 24 6 25 6 3 38 3 37 28 3 27 3 0 -24 0 -25 28
-10 27 -11 26 -6 25 -6 12 26 12 26 0 19 0 20 -22 4 -23 5 -27 6 -28 5 0 25 0
25 40 0 40 0 0 44 0 45 -8 5 -8 4 -42 -11 -43 -11 -9 14 -10 15 0 38 0 37 -24
0 -25 0 -6 -10z"/>
</g>
</svg>
