<?xml version="1.0" standalone="no"?>
<!DOCTYPE svg PUBLIC "-//W3C//DTD SVG 20010904//EN"
 "http://www.w3.org/TR/2001/REC-SVG-20010904/DTD/svg10.dtd">
<svg version="1.0" xmlns="http://www.w3.org/2000/svg"
 width="41.000000pt" height="37.000000pt" viewBox="0 0 41.000000 37.000000"
 preserveAspectRatio="xMidYMid meet">
<metadata>
Created by potrace 1.16, written by Peter Selinger 2001-2019
</metadata>
<g transform="translate(0.000000,37.000000) scale(0.100000,-0.100000)"
fill="#000000" stroke="none">
<path d="M194 355 l-6 -15 4 -18 5 -18 -14 -13 -14 -13 -39 7 -40 7 0 -36 0
-36 -23 0 -24 0 -21 -19 -22 -18 0 -32 0 -32 29 -5 30 -6 6 -37 6 -36 8 -13 8
-14 41 -5 41 -5 25 6 25 6 3 37 3 38 18 3 17 3 0 -24 0 -24 25 -11 26 -12 37
-6 38 -6 12 27 12 26 0 29 0 30 -25 5 -25 5 -25 5 -25 5 0 15 0 15 40 0 40 0
0 55 0 56 -15 5 -14 6 -37 -12 -36 -12 -9 13 -9 14 0 38 0 37 -35 0 -36 0 -5
-15z"/>
</g>
</svg>
