<?xml version="1.0" standalone="no"?>
<!DOCTYPE svg PUBLIC "-//W3C//DTD SVG 20010904//EN"
 "http://www.w3.org/TR/2001/REC-SVG-20010904/DTD/svg10.dtd">
<svg version="1.0" xmlns="http://www.w3.org/2000/svg"
 width="35.000000pt" height="27.000000pt" viewBox="0 0 35.000000 27.000000"
 preserveAspectRatio="xMidYMid meet">
<metadata>
Created by potrace 1.16, written by Peter Selinger 2001-2019
</metadata>
<g transform="translate(0.000000,27.000000) scale(0.100000,-0.100000)"
fill="#000000" stroke="none">
<path d="M2 136 l3 -131 48 -3 47 -3 0 30 0 31 35 0 35 0 0 -14 0 -14 16 -6
16 -6 34 0 34 0 -6 40 -7 40 32 0 32 0 15 14 14 15 0 16 0 16 -15 16 -16 15
-24 -5 -25 -4 0 44 0 44 -135 -2 -136 -1 3 -132z"/>
</g>
</svg>
