<?xml version="1.0" standalone="no"?>
<!DOCTYPE svg PUBLIC "-//W3C//DTD SVG 20010904//EN"
 "http://www.w3.org/TR/2001/REC-SVG-20010904/DTD/svg10.dtd">
<svg version="1.0" xmlns="http://www.w3.org/2000/svg"
 width="37.000000pt" height="29.000000pt" viewBox="0 0 37.000000 29.000000"
 preserveAspectRatio="xMidYMid meet">
<metadata>
Created by potrace 1.16, written by Peter Selinger 2001-2019
</metadata>
<g transform="translate(0.000000,29.000000) scale(0.100000,-0.100000)"
fill="#000000" stroke="none">
<path d="M2 148 l3 -143 58 -3 57 -3 0 31 0 30 25 0 25 0 0 -14 0 -14 16 -6
16 -6 45 0 46 0 -7 40 -6 40 31 0 30 0 15 14 14 15 0 26 0 26 -14 15 -15 14
-25 0 -26 0 0 40 0 40 -145 0 -146 0 3 -142z"/>
</g>
</svg>
