<?xml version="1.0" standalone="no"?>
<!DOCTYPE svg PUBLIC "-//W3C//DTD SVG 20010904//EN"
 "http://www.w3.org/TR/2001/REC-SVG-20010904/DTD/svg10.dtd">
<svg version="1.0" xmlns="http://www.w3.org/2000/svg"
 width="32.000000pt" height="28.000000pt" viewBox="0 0 32.000000 28.000000"
 preserveAspectRatio="xMidYMid meet">
<metadata>
Created by potrace 1.16, written by Peter Selinger 2001-2019
</metadata>
<g transform="translate(0.000000,28.000000) scale(0.100000,-0.100000)"
fill="#000000" stroke="none">
<path d="M0 138 l0 -138 39 0 39 0 16 6 16 6 0 29 0 29 16 0 17 0 17 -20 17
-20 34 -2 34 -3 -3 20 -3 20 -6 26 -5 26 24 6 23 7 23 0 22 0 0 21 0 20 -21
-6 -20 -7 -14 19 -14 18 -1 31 0 32 -33 -12 -34 -11 -17 -18 -17 -17 -20 0
-20 0 -15 15 -15 15 3 17 3 18 -42 5 -43 6 0 -138z"/>
</g>
</svg>
