<?xml version="1.0" standalone="no"?>
<!DOCTYPE svg PUBLIC "-//W3C//DTD SVG 20010904//EN"
 "http://www.w3.org/TR/2001/REC-SVG-20010904/DTD/svg10.dtd">
<svg version="1.0" xmlns="http://www.w3.org/2000/svg"
 width="34.000000pt" height="30.000000pt" viewBox="0 0 34.000000 30.000000"
 preserveAspectRatio="xMidYMid meet">
<metadata>
Created by potrace 1.16, written by Peter Selinger 2001-2019
</metadata>
<g transform="translate(0.000000,30.000000) scale(0.100000,-0.100000)"
fill="#000000" stroke="none">
<path d="M0 150 l0 -150 49 0 49 0 16 6 16 6 0 29 0 29 6 0 7 0 17 -20 17 -19
41 -7 42 -7 6 17 6 16 -12 31 -13 30 6 5 5 6 41 5 41 6 0 29 0 30 -24 -4 -23
-5 -12 19 -11 18 0 30 0 30 -7 0 -8 0 -36 -13 -36 -12 -17 -18 -17 -17 -10 0
-10 0 -13 12 -13 12 5 18 4 18 -13 4 -14 4 -42 6 -43 6 0 -150z"/>
</g>
</svg>
