<?xml version="1.0" standalone="no"?>
<!DOCTYPE svg PUBLIC "-//W3C//DTD SVG 20010904//EN"
 "http://www.w3.org/TR/2001/REC-SVG-20010904/DTD/svg10.dtd">
<svg version="1.0" xmlns="http://www.w3.org/2000/svg"
 width="34.000000pt" height="42.000000pt" viewBox="0 0 34.000000 42.000000"
 preserveAspectRatio="xMidYMid meet">
<metadata>
Created by potrace 1.16, written by Peter Selinger 2001-2019
</metadata>
<g transform="translate(0.000000,42.000000) scale(0.100000,-0.100000)"
fill="#000000" stroke="none">
<path d="M116 404 l-6 -16 0 -23 0 -24 -20 -6 -19 -6 -36 7 -35 6 0 -46 0 -46
15 0 15 0 0 -10 0 -10 26 0 26 0 -5 -12 -4 -13 -26 3 -26 3 -6 -26 -5 -25 -5
-25 -6 -26 15 -14 15 -15 30 0 31 0 0 -28 0 -29 26 -12 26 -12 16 13 16 13 18
18 18 17 21 0 20 0 15 14 14 15 0 5 0 6 -14 0 -13 0 -6 37 -6 37 12 8 12 8 38
0 37 0 0 25 0 25 -40 0 -40 0 0 54 0 54 -44 11 -44 11 -6 25 -6 25 -19 0 -19
0 -6 -16z"/>
</g>
</svg>
