<?xml version="1.0" standalone="no"?>
<!DOCTYPE svg PUBLIC "-//W3C//DTD SVG 20010904//EN"
 "http://www.w3.org/TR/2001/REC-SVG-20010904/DTD/svg10.dtd">
<svg version="1.0" xmlns="http://www.w3.org/2000/svg"
 width="36.000000pt" height="44.000000pt" viewBox="0 0 36.000000 44.000000"
 preserveAspectRatio="xMidYMid meet">
<metadata>
Created by potrace 1.16, written by Peter Selinger 2001-2019
</metadata>
<g transform="translate(0.000000,44.000000) scale(0.100000,-0.100000)"
fill="#000000" stroke="none">
<path d="M116 424 l-6 -16 0 -23 0 -23 -14 -5 -14 -5 -41 5 -41 6 0 -57 0 -56
16 0 16 0 -7 -17 -8 -18 -9 -52 -10 -53 15 -15 16 -15 30 0 31 0 0 -28 0 -29
25 -11 26 -12 12 0 13 0 32 30 33 30 20 0 20 0 15 14 14 15 0 15 0 16 -14 0
-14 0 -4 30 -4 29 14 6 14 5 34 0 34 0 0 35 0 35 -41 0 -42 0 6 59 5 60 -27
-1 -26 -1 -22 7 -21 7 -6 24 -6 25 -29 0 -29 0 -6 -16z"/>
</g>
</svg>
