<?xml version="1.0" standalone="no"?>
<!DOCTYPE svg PUBLIC "-//W3C//DTD SVG 20010904//EN"
 "http://www.w3.org/TR/2001/REC-SVG-20010904/DTD/svg10.dtd">
<svg version="1.0" xmlns="http://www.w3.org/2000/svg"
 width="42.000000pt" height="30.000000pt" viewBox="0 0 42.000000 30.000000"
 preserveAspectRatio="xMidYMid meet">
<metadata>
Created by potrace 1.16, written by Peter Selinger 2001-2019
</metadata>
<g transform="translate(0.000000,30.000000) scale(0.100000,-0.100000)"
fill="#000000" stroke="none">
<path d="M70 255 l0 -44 -33 -9 -32 -8 -3 -27 -3 -26 45 -12 46 -11 -10 -18
-10 -19 0 -29 0 -30 23 -6 22 -6 28 0 28 0 15 14 14 15 0 20 0 21 10 0 10 0 0
-40 0 -40 34 0 35 0 26 10 26 10 -7 51 -7 51 14 9 14 9 33 0 32 0 0 31 0 30
-27 -3 -28 -3 -17 19 -18 19 0 34 0 33 -55 0 -55 0 0 -22 0 -23 -9 -13 -8 -13
-17 16 -16 16 0 20 0 19 -50 0 -50 0 0 -45z"/>
</g>
</svg>
