<?xml version="1.0" standalone="no"?>
<!DOCTYPE svg PUBLIC "-//W3C//DTD SVG 20010904//EN"
 "http://www.w3.org/TR/2001/REC-SVG-20010904/DTD/svg10.dtd">
<svg version="1.0" xmlns="http://www.w3.org/2000/svg"
 width="40.000000pt" height="29.000000pt" viewBox="0 0 40.000000 29.000000"
 preserveAspectRatio="xMidYMid meet">
<metadata>
Created by potrace 1.16, written by Peter Selinger 2001-2019
</metadata>
<g transform="translate(0.000000,29.000000) scale(0.100000,-0.100000)"
fill="#000000" stroke="none">
<path d="M239 284 l-1 -9 1 -9 2 -9 -12 -29 -11 -28 -11 0 -10 0 -18 22 -19
21 0 19 0 18 -40 0 -40 0 0 -44 0 -44 -37 -9 -36 -8 -5 -13 -4 -12 25 -11 25
-11 6 -30 6 -30 0 -23 0 -23 16 -6 16 -6 25 0 24 0 14 14 14 14 -2 28 -2 29
28 3 27 3 0 -35 0 -34 6 -16 6 -16 15 0 16 0 38 11 38 12 7 42 6 43 18 -5 18
-5 7 22 7 21 -6 25 -6 24 -28 0 -27 0 3 45 4 45 -35 0 -35 0 -16 6 -16 6 -1
-8z"/>
</g>
</svg>
