<?xml version="1.0" standalone="no"?>
<!DOCTYPE svg PUBLIC "-//W3C//DTD SVG 20010904//EN"
 "http://www.w3.org/TR/2001/REC-SVG-20010904/DTD/svg10.dtd">
<svg version="1.0" xmlns="http://www.w3.org/2000/svg"
 width="42.000000pt" height="31.000000pt" viewBox="0 0 42.000000 31.000000"
 preserveAspectRatio="xMidYMid meet">
<metadata>
Created by potrace 1.16, written by Peter Selinger 2001-2019
</metadata>
<g transform="translate(0.000000,31.000000) scale(0.100000,-0.100000)"
fill="#000000" stroke="none">
<path d="M235 298 l-6 -15 2 -9 3 -9 -8 -23 -8 -23 -19 22 -19 22 0 19 0 18
-50 0 -50 0 0 -44 0 -44 -38 -9 -37 -9 -3 -22 -3 -22 24 -11 25 -11 6 -30 6
-31 0 -22 0 -23 16 -6 16 -6 35 0 34 0 15 15 15 15 -3 27 -3 28 18 3 17 3 0
-34 0 -35 6 -16 6 -16 25 0 26 0 38 11 38 12 6 38 7 39 18 0 18 0 6 16 6 16 0
23 0 23 -6 16 -6 16 -24 0 -24 0 0 45 0 45 -29 0 -28 0 -32 6 -31 6 -5 -14z"/>
</g>
</svg>
