<?xml version="1.0" standalone="no"?>
<!DOCTYPE svg PUBLIC "-//W3C//DTD SVG 20010904//EN"
 "http://www.w3.org/TR/2001/REC-SVG-20010904/DTD/svg10.dtd">
<svg version="1.0" xmlns="http://www.w3.org/2000/svg"
 width="40.000000pt" height="28.000000pt" viewBox="0 0 40.000000 28.000000"
 preserveAspectRatio="xMidYMid meet">
<metadata>
Created by potrace 1.16, written by Peter Selinger 2001-2019
</metadata>
<g transform="translate(0.000000,28.000000) scale(0.100000,-0.100000)"
fill="#000000" stroke="none">
<path d="M70 235 l0 -44 -32 -9 -33 -8 -3 -17 -3 -16 46 -12 47 -12 -7 -21 -7
-21 -5 -26 -5 -26 24 -6 23 -7 18 0 18 0 15 15 15 14 -7 26 -6 25 10 0 10 0
16 -6 16 -6 0 -39 0 -39 24 0 25 0 24 9 24 9 -5 52 -5 52 14 9 14 9 33 0 32 0
0 21 0 21 -26 -6 -26 -7 -19 22 -19 22 0 34 0 33 -45 0 -45 0 0 -22 0 -23 -9
-14 -9 -13 -21 7 -22 7 -6 29 -6 29 -38 0 -39 0 0 -45z"/>
</g>
</svg>
