<?xml version="1.0" standalone="no"?>
<!DOCTYPE svg PUBLIC "-//W3C//DTD SVG 20010904//EN"
 "http://www.w3.org/TR/2001/REC-SVG-20010904/DTD/svg10.dtd">
<svg version="1.0" xmlns="http://www.w3.org/2000/svg"
 width="40.000000pt" height="33.000000pt" viewBox="0 0 40.000000 33.000000"
 preserveAspectRatio="xMidYMid meet">
<metadata>
Created by potrace 1.16, written by Peter Selinger 2001-2019
</metadata>
<g transform="translate(0.000000,33.000000) scale(0.100000,-0.100000)"
fill="#000000" stroke="none">
<path d="M90 286 l0 -44 -16 -6 -16 -6 -23 0 -24 0 -6 -10 -6 -10 6 -19 6 -19
34 -6 35 -7 0 -44 0 -45 43 0 44 0 -5 -30 -4 -29 25 -6 26 -7 20 7 21 6 0 14
0 13 40 7 40 7 6 26 6 27 9 36 9 37 20 5 20 5 0 20 0 20 -19 -5 -18 -5 -17 17
-16 16 0 31 0 31 -32 -7 -33 -6 -10 -13 -10 -12 -16 -13 -17 -13 -26 12 -26
12 0 29 0 28 -35 0 -35 0 0 -44z"/>
</g>
</svg>
