<?xml version="1.0" standalone="no"?>
<!DOCTYPE svg PUBLIC "-//W3C//DTD SVG 20010904//EN"
 "http://www.w3.org/TR/2001/REC-SVG-20010904/DTD/svg10.dtd">
<svg version="1.0" xmlns="http://www.w3.org/2000/svg"
 width="42.000000pt" height="35.000000pt" viewBox="0 0 42.000000 35.000000"
 preserveAspectRatio="xMidYMid meet">
<metadata>
Created by potrace 1.16, written by Peter Selinger 2001-2019
</metadata>
<g transform="translate(0.000000,35.000000) scale(0.100000,-0.100000)"
fill="#000000" stroke="none">
<path d="M90 306 l0 -44 -16 -6 -16 -6 -24 0 -25 0 -5 -15 -6 -15 6 -24 6 -24
35 -6 35 -7 0 -44 0 -45 40 0 40 0 0 -29 0 -29 16 -6 16 -6 23 0 23 0 16 6 16
6 0 13 0 13 40 7 40 7 6 26 6 27 9 36 9 37 20 5 20 5 0 32 0 32 -20 -5 -20 -5
-15 15 -15 14 0 31 0 31 -41 -6 -41 -5 -19 -21 -20 -21 -9 0 -8 0 -16 6 -16 6
0 29 0 29 -45 0 -45 0 0 -44z"/>
</g>
</svg>
