<?xml version="1.0" standalone="no"?>
<!DOCTYPE svg PUBLIC "-//W3C//DTD SVG 20010904//EN"
 "http://www.w3.org/TR/2001/REC-SVG-20010904/DTD/svg10.dtd">
<svg version="1.0" xmlns="http://www.w3.org/2000/svg"
 width="36.000000pt" height="28.000000pt" viewBox="0 0 36.000000 28.000000"
 preserveAspectRatio="xMidYMid meet">
<metadata>
Created by potrace 1.16, written by Peter Selinger 2001-2019
</metadata>
<g transform="translate(0.000000,28.000000) scale(0.100000,-0.100000)"
fill="#000000" stroke="none">
<path d="M223 272 l-33 -3 0 -22 0 -22 -8 -11 -7 -10 -18 -7 -19 -7 -24 6 -24
6 0 29 0 29 -34 0 -34 0 -6 -22 -6 -23 0 -18 0 -17 25 6 25 6 0 -11 0 -11 15
0 15 0 0 -21 0 -20 -14 -15 -15 -14 -30 0 -31 0 0 -12 0 -13 6 -38 7 -37 37 0
38 0 16 6 16 6 0 34 0 34 20 0 20 0 6 -29 6 -30 39 -6 39 -7 14 15 14 14 4 29
3 29 24 3 24 4 14 13 13 14 0 19 0 20 -37 9 -38 9 -3 41 -3 41 -12 4 -12 3
-32 -3z"/>
</g>
</svg>
