<?xml version="1.0" standalone="no"?>
<!DOCTYPE svg PUBLIC "-//W3C//DTD SVG 20010904//EN"
 "http://www.w3.org/TR/2001/REC-SVG-20010904/DTD/svg10.dtd">
<svg version="1.0" xmlns="http://www.w3.org/2000/svg"
 width="38.000000pt" height="30.000000pt" viewBox="0 0 38.000000 30.000000"
 preserveAspectRatio="xMidYMid meet">
<metadata>
Created by potrace 1.16, written by Peter Selinger 2001-2019
</metadata>
<g transform="translate(0.000000,30.000000) scale(0.100000,-0.100000)"
fill="#000000" stroke="none">
<path d="M223 293 l-33 -4 0 -22 0 -22 -8 -12 -7 -11 -15 -2 -15 -2 -17 1 -18
1 0 30 0 30 -44 0 -44 0 -6 -22 -6 -23 0 -29 0 -28 25 4 25 5 0 -8 0 -9 15 0
15 0 0 -11 0 -10 -14 -15 -15 -14 -30 0 -31 0 0 -22 0 -23 6 -38 7 -37 47 0
48 0 16 6 16 6 0 34 0 34 10 0 11 0 5 -29 6 -29 30 -6 30 -6 20 0 19 0 14 13
13 14 4 29 3 29 24 3 24 4 14 13 13 14 0 29 0 30 -37 9 -38 9 -3 39 -3 40 -12
7 -12 8 -10 -2 -10 -1 -32 -4z"/>
</g>
</svg>
