<?xml version="1.0" standalone="no"?>
<!DOCTYPE svg PUBLIC "-//W3C//DTD SVG 20010904//EN"
 "http://www.w3.org/TR/2001/REC-SVG-20010904/DTD/svg10.dtd">
<svg version="1.0" xmlns="http://www.w3.org/2000/svg"
 width="25.000000pt" height="34.000000pt" viewBox="0 0 25.000000 34.000000"
 preserveAspectRatio="xMidYMid meet">
<metadata>
Created by potrace 1.16, written by Peter Selinger 2001-2019
</metadata>
<g transform="translate(0.000000,34.000000) scale(0.100000,-0.100000)"
fill="#000000" stroke="none">
<path d="M6 324 l-6 -16 0 -29 0 -30 19 6 19 6 26 -12 26 -12 0 -13 0 -13 -16
-16 -17 -16 -23 5 -22 6 -4 -55 -3 -55 43 0 42 0 0 -18 0 -19 19 -21 18 -22
10 0 11 0 11 28 12 29 -3 14 -3 14 43 -3 44 -4 -6 19 -5 18 -6 26 -7 27 -17
-5 -18 -5 -13 32 -13 32 14 9 14 9 21 0 22 0 6 16 6 16 0 32 0 32 -38 -4 -38
-4 4 -28 4 -29 -37 -7 -37 -7 -9 14 -10 14 -6 28 -6 27 -32 0 -33 0 -6 -16z"/>
</g>
</svg>
