<?xml version="1.0" standalone="no"?>
<!DOCTYPE svg PUBLIC "-//W3C//DTD SVG 20010904//EN"
 "http://www.w3.org/TR/2001/REC-SVG-20010904/DTD/svg10.dtd">
<svg version="1.0" xmlns="http://www.w3.org/2000/svg"
 width="27.000000pt" height="36.000000pt" viewBox="0 0 27.000000 36.000000"
 preserveAspectRatio="xMidYMid meet">
<metadata>
Created by potrace 1.16, written by Peter Selinger 2001-2019
</metadata>
<g transform="translate(0.000000,36.000000) scale(0.100000,-0.100000)"
fill="#000000" stroke="none">
<path d="M6 344 l-6 -16 0 -40 0 -40 24 4 24 5 22 -12 22 -12 -16 -15 -15 -15
-25 4 -26 5 0 -43 0 -44 -6 -22 -6 -23 46 0 46 0 0 -18 0 -19 19 -21 18 -22
20 0 20 0 11 25 12 26 0 14 0 15 40 0 40 0 0 11 0 10 -11 45 -12 46 -17 -5
-18 -5 -10 23 -11 23 15 6 16 6 18 0 18 0 6 16 6 16 0 45 0 45 -22 -6 -23 -6
-28 0 -29 0 7 -29 6 -29 -27 -6 -27 -7 -9 13 -9 13 -6 28 -5 27 -43 0 -43 0
-6 -16z"/>
</g>
</svg>
