<?xml version="1.0" standalone="no"?>
<!DOCTYPE svg PUBLIC "-//W3C//DTD SVG 20010904//EN"
 "http://www.w3.org/TR/2001/REC-SVG-20010904/DTD/svg10.dtd">
<svg version="1.0" xmlns="http://www.w3.org/2000/svg"
 width="30.000000pt" height="36.000000pt" viewBox="0 0 30.000000 36.000000"
 preserveAspectRatio="xMidYMid meet">
<metadata>
Created by potrace 1.16, written by Peter Selinger 2001-2019
</metadata>
<g transform="translate(0.000000,36.000000) scale(0.100000,-0.100000)"
fill="#000000" stroke="none">
<path d="M0 313 l0 -48 9 -13 8 -13 29 -9 29 -9 -22 -6 -23 -7 -10 -37 -10
-36 0 -27 0 -27 43 -3 42 -3 -3 -29 -4 -29 14 -8 13 -9 32 0 32 0 15 16 16 15
0 20 0 19 43 0 43 0 2 71 1 71 -34 -6 -35 -7 0 10 0 10 -17 3 -17 3 18 18 17
17 30 0 29 0 0 45 0 46 -57 -3 -58 -3 0 -20 0 -20 -10 -11 -9 -11 -16 4 -16 4
4 28 4 28 -24 6 -23 7 -42 0 -43 0 0 -47z"/>
</g>
</svg>
