<?xml version="1.0" standalone="no"?>
<!DOCTYPE svg PUBLIC "-//W3C//DTD SVG 20010904//EN"
 "http://www.w3.org/TR/2001/REC-SVG-20010904/DTD/svg10.dtd">
<svg version="1.0" xmlns="http://www.w3.org/2000/svg"
 width="28.000000pt" height="34.000000pt" viewBox="0 0 28.000000 34.000000"
 preserveAspectRatio="xMidYMid meet">
<metadata>
Created by potrace 1.16, written by Peter Selinger 2001-2019
</metadata>
<g transform="translate(0.000000,34.000000) scale(0.100000,-0.100000)"
fill="#000000" stroke="none">
<path d="M0 299 l0 -38 16 -16 17 -17 18 5 19 5 0 -20 0 -20 -20 -5 -20 -5
-10 -37 -10 -36 0 -17 0 -17 43 -3 42 -3 -2 -32 -3 -32 21 -6 20 -7 25 6 25 7
6 29 6 30 41 0 41 0 2 59 1 59 -34 -5 -34 -6 0 12 0 11 -15 0 -15 0 0 14 0 15
16 15 15 16 30 0 29 0 0 36 0 35 -47 -3 -48 -3 3 -18 3 -17 -15 -16 -15 -15
-26 7 -26 6 6 29 6 28 -33 6 -33 5 -22 -2 -23 -2 0 -37z"/>
</g>
</svg>
