<?xml version="1.0" standalone="no"?>
<!DOCTYPE svg PUBLIC "-//W3C//DTD SVG 20010904//EN"
 "http://www.w3.org/TR/2001/REC-SVG-20010904/DTD/svg10.dtd">
<svg version="1.0" xmlns="http://www.w3.org/2000/svg"
 width="34.000000pt" height="27.000000pt" viewBox="0 0 34.000000 27.000000"
 preserveAspectRatio="xMidYMid meet">
<metadata>
Created by potrace 1.16, written by Peter Selinger 2001-2019
</metadata>
<g transform="translate(0.000000,27.000000) scale(0.100000,-0.100000)"
fill="#000000" stroke="none">
<path d="M77 263 l-7 -6 0 -24 0 -24 -13 -14 -13 -13 -20 -4 -19 -3 -3 -28 -3
-27 24 -11 25 -11 9 -47 8 -46 34 -3 34 -3 23 5 24 6 0 41 0 40 19 -6 20 -6
19 12 20 13 -5 33 -6 33 31 0 30 0 16 6 16 6 0 28 0 28 -6 16 -6 16 -122 0
-123 0 -6 -7z"/>
</g>
</svg>
