<?xml version="1.0" standalone="no"?>
<!DOCTYPE svg PUBLIC "-//W3C//DTD SVG 20010904//EN"
 "http://www.w3.org/TR/2001/REC-SVG-20010904/DTD/svg10.dtd">
<svg version="1.0" xmlns="http://www.w3.org/2000/svg"
 width="36.000000pt" height="29.000000pt" viewBox="0 0 36.000000 29.000000"
 preserveAspectRatio="xMidYMid meet">
<metadata>
Created by potrace 1.16, written by Peter Selinger 2001-2019
</metadata>
<g transform="translate(0.000000,29.000000) scale(0.100000,-0.100000)"
fill="#000000" stroke="none">
<path d="M70 270 l0 -20 10 0 10 0 0 -25 0 -25 -22 -4 -23 -5 -20 -3 -20 -3 0
-30 0 -30 20 0 20 0 13 -12 12 -12 2 -43 1 -43 11 -7 11 -8 48 0 48 0 15 14
14 15 0 25 0 26 9 0 9 0 6 -25 6 -24 38 -10 37 -11 18 0 17 0 0 54 0 54 -29 7
-29 6 -5 12 -4 12 11 10 11 10 20 0 20 0 3 53 3 52 -49 0 -50 0 -5 -29 -6 -29
-20 -7 -21 -6 -12 8 -13 8 0 30 0 30 -57 3 -58 3 0 -21z"/>
</g>
</svg>
