<?xml version="1.0" standalone="no"?>
<!DOCTYPE svg PUBLIC "-//W3C//DTD SVG 20010904//EN"
 "http://www.w3.org/TR/2001/REC-SVG-20010904/DTD/svg10.dtd">
<svg version="1.0" xmlns="http://www.w3.org/2000/svg"
 width="31.000000pt" height="36.000000pt" viewBox="0 0 31.000000 36.000000"
 preserveAspectRatio="xMidYMid meet">
<metadata>
Created by potrace 1.16, written by Peter Selinger 2001-2019
</metadata>
<g transform="translate(0.000000,36.000000) scale(0.100000,-0.100000)"
fill="#000000" stroke="none">
<path d="M7 354 l-7 -7 0 -38 0 -37 6 -16 6 -16 29 0 29 0 0 -14 0 -15 -20 -6
-20 -6 -11 -41 -10 -41 5 -23 6 -23 43 -3 42 -3 3 -32 3 -33 39 0 38 0 6 16 6
16 0 26 0 27 55 -3 55 -4 0 56 0 55 -32 9 -32 8 -3 11 -4 11 36 6 35 7 0 43 0
42 -13 16 -12 16 -52 -5 -53 -6 0 -23 0 -23 -15 -15 -16 -15 -14 5 -14 6 -7
34 -6 34 -27 0 -26 0 -20 6 -21 5 -7 -7z"/>
</g>
</svg>
