<?xml version="1.0" standalone="no"?>
<!DOCTYPE svg PUBLIC "-//W3C//DTD SVG 20010904//EN"
 "http://www.w3.org/TR/2001/REC-SVG-20010904/DTD/svg10.dtd">
<svg version="1.0" xmlns="http://www.w3.org/2000/svg"
 width="36.000000pt" height="29.000000pt" viewBox="0 0 36.000000 29.000000"
 preserveAspectRatio="xMidYMid meet">
<metadata>
Created by potrace 1.16, written by Peter Selinger 2001-2019
</metadata>
<g transform="translate(0.000000,29.000000) scale(0.100000,-0.100000)"
fill="#000000" stroke="none">
<path d="M77 283 l-7 -6 0 -24 0 -24 -13 -14 -13 -13 -20 -4 -19 -3 -3 -38 -3
-37 25 -11 24 -11 9 -47 8 -46 44 -3 44 -3 24 6 23 5 0 35 0 35 23 0 22 1 18
14 19 14 -7 30 -7 31 30 0 30 0 16 6 16 6 0 38 0 38 -6 16 -6 16 -132 0 -133
0 -6 -7z"/>
</g>
</svg>
