<?xml version="1.0" standalone="no"?>
<!DOCTYPE svg PUBLIC "-//W3C//DTD SVG 20010904//EN"
 "http://www.w3.org/TR/2001/REC-SVG-20010904/DTD/svg10.dtd">
<svg version="1.0" xmlns="http://www.w3.org/2000/svg"
 width="29.000000pt" height="27.000000pt" viewBox="0 0 29.000000 27.000000"
 preserveAspectRatio="xMidYMid meet">
<metadata>
Created by potrace 1.16, written by Peter Selinger 2001-2019
</metadata>
<g transform="translate(0.000000,27.000000) scale(0.100000,-0.100000)"
fill="#000000" stroke="none">
<path d="M22 226 l3 -40 38 -9 37 -9 0 -20 0 -19 -13 -14 -14 -13 -24 -4 -24
-3 -3 -30 -4 -30 -11 -7 -12 -8 15 -10 15 -10 40 0 40 0 13 9 13 8 -7 26 -6
27 30 0 30 0 6 -24 6 -23 30 -6 30 -6 15 5 15 6 0 17 0 16 6 22 6 22 -33 -5
-34 -6 -23 21 -24 20 7 21 7 21 30 6 30 6 9 23 8 24 -5 14 -5 14 -33 -8 -34
-7 -11 -7 -11 -7 0 -14 0 -13 -14 -5 -14 -6 -20 6 -21 5 -6 28 -6 28 -35 4
-35 4 3 -40z"/>
</g>
</svg>
