<?xml version="1.0" standalone="no"?>
<!DOCTYPE svg PUBLIC "-//W3C//DTD SVG 20010904//EN"
 "http://www.w3.org/TR/2001/REC-SVG-20010904/DTD/svg10.dtd">
<svg version="1.0" xmlns="http://www.w3.org/2000/svg"
 width="29.000000pt" height="34.000000pt" viewBox="0 0 29.000000 34.000000"
 preserveAspectRatio="xMidYMid meet">
<metadata>
Created by potrace 1.16, written by Peter Selinger 2001-2019
</metadata>
<g transform="translate(0.000000,34.000000) scale(0.100000,-0.100000)"
fill="#000000" stroke="none">
<path d="M4 331 l-4 -4 0 -28 0 -27 6 -16 6 -16 29 0 29 0 0 -24 0 -25 -20 -6
-20 -6 -10 -39 -10 -38 6 -15 6 -16 41 -3 42 -3 3 -32 3 -33 29 0 30 0 6 24 6
25 -7 20 -6 21 60 -7 61 -6 0 46 0 46 -32 9 -33 8 -3 21 -3 21 35 6 36 7 0 30
0 30 -9 17 -9 17 -46 -3 -46 -4 0 -23 0 -24 -16 -15 -15 -16 -9 0 -8 0 -16 6
-15 6 -7 33 -6 33 -39 4 -40 4 -5 -5z"/>
</g>
</svg>
