<?xml version="1.0" standalone="no"?>
<!DOCTYPE svg PUBLIC "-//W3C//DTD SVG 20010904//EN"
 "http://www.w3.org/TR/2001/REC-SVG-20010904/DTD/svg10.dtd">
<svg version="1.0" xmlns="http://www.w3.org/2000/svg"
 width="34.000000pt" height="27.000000pt" viewBox="0 0 34.000000 27.000000"
 preserveAspectRatio="xMidYMid meet">
<metadata>
Created by potrace 1.16, written by Peter Selinger 2001-2019
</metadata>
<g transform="translate(0.000000,27.000000) scale(0.100000,-0.100000)"
fill="#000000" stroke="none">
<path d="M70 259 l0 -9 10 0 10 0 0 -35 0 -35 -22 -4 -23 -5 -20 -3 -20 -3 0
-20 0 -20 18 3 17 3 14 -14 14 -14 4 -44 3 -44 10 -7 10 -8 38 0 38 0 15 14
14 15 0 25 0 26 19 0 19 0 6 -25 6 -24 38 -10 37 -11 8 0 7 0 0 44 0 44 -30 7
-29 6 -6 20 -6 19 15 16 16 15 17 -3 18 -3 3 43 3 42 -39 0 -40 0 -5 -29 -6
-29 -21 -7 -21 -7 -25 6 -24 6 2 33 3 32 -47 1 -48 2 0 -9z"/>
</g>
</svg>
