<?xml version="1.0" standalone="no"?>
<!DOCTYPE svg PUBLIC "-//W3C//DTD SVG 20010904//EN"
 "http://www.w3.org/TR/2001/REC-SVG-20010904/DTD/svg10.dtd">
<svg version="1.0" xmlns="http://www.w3.org/2000/svg"
 width="31.000000pt" height="29.000000pt" viewBox="0 0 31.000000 29.000000"
 preserveAspectRatio="xMidYMid meet">
<metadata>
Created by potrace 1.16, written by Peter Selinger 2001-2019
</metadata>
<g transform="translate(0.000000,29.000000) scale(0.100000,-0.100000)"
fill="#000000" stroke="none">
<path d="M22 239 l3 -53 38 -9 37 -9 0 -10 0 -9 -13 -14 -14 -13 -24 -4 -24
-3 -3 -33 -3 -32 -10 0 -9 0 0 -19 0 -19 16 -6 16 -6 46 0 47 0 14 9 14 9 -5
26 -5 26 17 0 18 0 6 -24 6 -24 35 -6 36 -7 18 6 18 6 7 37 6 37 0 14 0 13
-33 -6 -34 -6 -22 19 -22 19 16 16 16 16 20 0 19 0 11 27 10 27 -6 24 -6 23
-37 -7 -37 -7 -17 -9 -18 -9 0 -14 0 -15 -24 0 -24 0 -7 30 -7 30 -21 0 -22 0
-23 6 -23 7 3 -54z"/>
</g>
</svg>
