<?xml version="1.0" standalone="no"?>
<!DOCTYPE svg PUBLIC "-//W3C//DTD SVG 20010904//EN"
 "http://www.w3.org/TR/2001/REC-SVG-20010904/DTD/svg10.dtd">
<svg version="1.0" xmlns="http://www.w3.org/2000/svg"
 width="34.000000pt" height="34.000000pt" viewBox="0 0 34.000000 34.000000"
 preserveAspectRatio="xMidYMid meet">
<metadata>
Created by potrace 1.16, written by Peter Selinger 2001-2019
</metadata>
<g transform="translate(0.000000,34.000000) scale(0.100000,-0.100000)"
fill="#000000" stroke="none">
<path d="M241 333 l-1 -13 -41 0 -40 0 6 -21 7 -21 -13 -9 -14 -9 -21 0 -22 0
-6 16 -6 16 0 19 0 19 -39 0 -39 0 -4 -45 -3 -45 27 0 28 0 6 -24 6 -25 -7
-21 -7 -22 -17 5 -18 4 -10 -49 -10 -50 29 6 28 6 24 -10 24 -9 -5 -19 -5 -20
23 -7 23 -8 4 12 4 11 15 0 16 0 -6 36 -6 36 27 -7 27 -6 16 -5 17 -5 6 46 7
45 32 8 32 8 3 28 4 29 -30 -6 -30 -6 -13 16 -13 15 -7 47 -6 46 -2 -12z"/>
</g>
</svg>
