<?xml version="1.0" standalone="no"?>
<!DOCTYPE svg PUBLIC "-//W3C//DTD SVG 20010904//EN"
 "http://www.w3.org/TR/2001/REC-SVG-20010904/DTD/svg10.dtd">
<svg version="1.0" xmlns="http://www.w3.org/2000/svg"
 width="36.000000pt" height="36.000000pt" viewBox="0 0 36.000000 36.000000"
 preserveAspectRatio="xMidYMid meet">
<metadata>
Created by potrace 1.16, written by Peter Selinger 2001-2019
</metadata>
<g transform="translate(0.000000,36.000000) scale(0.100000,-0.100000)"
fill="#000000" stroke="none">
<path d="M240 350 l0 -10 -41 0 -41 0 4 -25 5 -25 -20 -6 -19 -6 -9 13 -9 14
0 23 0 22 -50 0 -50 0 0 -32 0 -33 -6 -22 -6 -23 30 0 31 0 6 -19 5 -18 -5
-15 -6 -16 -18 5 -18 5 -7 -39 -6 -38 -6 -23 -7 -24 34 2 34 2 18 -1 17 -1 0
-24 0 -24 16 -6 16 -6 19 0 19 0 0 10 0 10 15 0 15 0 0 31 0 31 39 -7 39 -6 6
45 7 46 32 8 32 8 3 37 3 37 -35 0 -35 0 -11 19 -10 20 0 35 0 36 -15 0 -15 0
0 -10z"/>
</g>
</svg>
