<?xml version="1.0" standalone="no"?>
<!DOCTYPE svg PUBLIC "-//W3C//DTD SVG 20010904//EN"
 "http://www.w3.org/TR/2001/REC-SVG-20010904/DTD/svg10.dtd">
<svg version="1.0" xmlns="http://www.w3.org/2000/svg"
 width="36.000000pt" height="42.000000pt" viewBox="0 0 36.000000 42.000000"
 preserveAspectRatio="xMidYMid meet">
<metadata>
Created by potrace 1.16, written by Peter Selinger 2001-2019
</metadata>
<g transform="translate(0.000000,42.000000) scale(0.100000,-0.100000)"
fill="#000000" stroke="none">
<path d="M185 397 l6 -24 -16 -17 -16 -16 -35 0 -34 0 0 -36 0 -35 -13 -14
-14 -13 -29 -4 -29 -3 0 -20 0 -20 47 -5 47 -6 7 -6 6 -7 -11 -32 -11 -32 0
-14 0 -15 40 7 40 7 0 -40 0 -41 21 -6 20 -7 20 23 20 23 -7 29 -6 30 36 -7
37 -7 19 6 20 6 0 44 0 43 -16 6 -16 6 -19 0 -19 0 0 21 0 21 29 -7 29 -6 5
18 5 18 6 28 7 28 -16 15 -15 15 -16 -15 -15 -16 -22 0 -22 0 -13 9 -13 8 3
39 3 39 -28 3 -28 3 6 -24z"/>
</g>
</svg>
