<?xml version="1.0" standalone="no"?>
<!DOCTYPE svg PUBLIC "-//W3C//DTD SVG 20010904//EN"
 "http://www.w3.org/TR/2001/REC-SVG-20010904/DTD/svg10.dtd">
<svg version="1.0" xmlns="http://www.w3.org/2000/svg"
 width="38.000000pt" height="44.000000pt" viewBox="0 0 38.000000 44.000000"
 preserveAspectRatio="xMidYMid meet">
<metadata>
Created by potrace 1.16, written by Peter Selinger 2001-2019
</metadata>
<g transform="translate(0.000000,44.000000) scale(0.100000,-0.100000)"
fill="#000000" stroke="none">
<path d="M182 415 l5 -26 -14 -15 -14 -14 -35 0 -34 0 0 -36 0 -35 -13 -14
-14 -13 -29 -4 -29 -3 0 -30 0 -30 30 -3 30 -2 22 -5 22 -5 -9 -26 -10 -25 0
-26 0 -26 40 6 40 5 0 -38 0 -38 16 -6 16 -6 15 0 16 0 19 22 20 23 -4 27 -4
27 27 -6 28 -5 26 6 25 6 0 54 0 54 -16 6 -16 6 -19 0 -19 0 0 8 0 9 29 -5 29
-4 5 19 6 18 7 37 6 37 -15 16 -16 15 -15 0 -16 0 0 -9 0 -10 -19 -6 -18 -5
-16 6 -16 6 2 41 2 42 -39 3 -39 3 5 -26z"/>
</g>
</svg>
