<?xml version="1.0" standalone="no"?>
<!DOCTYPE svg PUBLIC "-//W3C//DTD SVG 20010904//EN"
 "http://www.w3.org/TR/2001/REC-SVG-20010904/DTD/svg10.dtd">
<svg version="1.0" xmlns="http://www.w3.org/2000/svg"
 width="31.000000pt" height="35.000000pt" viewBox="0 0 31.000000 35.000000"
 preserveAspectRatio="xMidYMid meet">
<metadata>
Created by potrace 1.16, written by Peter Selinger 2001-2019
</metadata>
<g transform="translate(0.000000,35.000000) scale(0.100000,-0.100000)"
fill="#000000" stroke="none">
<path d="M114 335 l-6 -15 5 -14 6 -14 -15 -6 -16 -6 -39 0 -39 0 0 -51 0 -51
31 6 31 6 14 -14 14 -15 0 -10 0 -11 -14 0 -14 0 -4 -12 -5 -13 -31 3 -32 2 0
-22 0 -23 6 -38 7 -37 49 0 49 0 14 13 13 14 5 29 4 29 2 -27 1 -27 38 -10 37
-11 27 0 27 0 15 16 16 15 0 29 0 28 -6 16 -6 16 -38 0 -39 0 -6 10 -6 10 28
0 28 0 11 8 11 7 8 23 7 24 -7 45 -6 44 -22 -1 -22 -2 -22 1 -23 1 -6 25 -6
25 -34 0 -35 0 -5 -15z"/>
</g>
</svg>
