<?xml version="1.0" standalone="no"?>
<!DOCTYPE svg PUBLIC "-//W3C//DTD SVG 20010904//EN"
 "http://www.w3.org/TR/2001/REC-SVG-20010904/DTD/svg10.dtd">
<svg version="1.0" xmlns="http://www.w3.org/2000/svg"
 width="29.000000pt" height="33.000000pt" viewBox="0 0 29.000000 33.000000"
 preserveAspectRatio="xMidYMid meet">
<metadata>
Created by potrace 1.16, written by Peter Selinger 2001-2019
</metadata>
<g transform="translate(0.000000,33.000000) scale(0.100000,-0.100000)"
fill="#000000" stroke="none">
<path d="M116 321 l-6 -9 6 -17 7 -17 -14 -9 -14 -9 -42 0 -43 0 0 -40 0 -39
30 5 29 6 16 -15 15 -16 0 -20 0 -21 -11 0 -10 0 -16 -16 -16 -15 -25 6 -25 6
6 -38 7 -38 0 -12 0 -13 41 0 40 0 16 15 15 16 -5 24 -4 25 18 0 19 0 0 -25 0
-24 41 -11 42 -11 23 5 24 6 6 24 6 25 -7 20 -6 20 -42 3 -42 3 -3 18 -3 17
28 0 28 0 11 8 11 7 7 22 7 22 -7 36 -6 36 -14 -5 -14 -5 -30 6 -30 6 -6 23
-6 24 -23 0 -24 0 -5 -9z"/>
</g>
</svg>
