<?xml version="1.0" standalone="no"?>
<!DOCTYPE svg PUBLIC "-//W3C//DTD SVG 20010904//EN"
 "http://www.w3.org/TR/2001/REC-SVG-20010904/DTD/svg10.dtd">
<svg version="1.0" xmlns="http://www.w3.org/2000/svg"
 width="29.000000pt" height="38.000000pt" viewBox="0 0 29.000000 38.000000"
 preserveAspectRatio="xMidYMid meet">
<metadata>
Created by potrace 1.16, written by Peter Selinger 2001-2019
</metadata>
<g transform="translate(0.000000,38.000000) scale(0.100000,-0.100000)"
fill="#000000" stroke="none">
<path d="M100 339 l-11 -41 -45 7 -44 6 0 -45 0 -46 20 -20 20 -20 15 0 15 0
0 -14 0 -15 -16 -3 -16 -3 -15 -40 -15 -40 -5 -23 -5 -22 45 0 46 0 15 16 16
15 0 26 0 25 12 -4 13 -5 -3 -38 -4 -38 14 -8 13 -9 31 0 31 0 21 19 22 18 0
24 0 24 -11 37 -10 38 -24 6 -25 6 6 9 5 9 25 0 25 0 15 14 14 15 0 38 0 39
-21 17 -20 18 -19 -6 -18 -6 -26 12 -26 12 0 19 0 18 -25 0 -24 0 -11 -41z"/>
</g>
</svg>
