<?xml version="1.0" standalone="no"?>
<!DOCTYPE svg PUBLIC "-//W3C//DTD SVG 20010904//EN"
 "http://www.w3.org/TR/2001/REC-SVG-20010904/DTD/svg10.dtd">
<svg version="1.0" xmlns="http://www.w3.org/2000/svg"
 width="27.000000pt" height="36.000000pt" viewBox="0 0 27.000000 36.000000"
 preserveAspectRatio="xMidYMid meet">
<metadata>
Created by potrace 1.16, written by Peter Selinger 2001-2019
</metadata>
<g transform="translate(0.000000,36.000000) scale(0.100000,-0.100000)"
fill="#000000" stroke="none">
<path d="M100 319 l-11 -41 -45 5 -44 5 0 -34 0 -34 20 -20 20 -20 15 0 15 0
0 -24 0 -25 -16 -3 -16 -3 -13 -35 -12 -35 -8 -17 -7 -18 35 0 36 0 16 16 16
17 -6 24 -6 24 28 -3 28 -3 -3 -39 -3 -39 13 -8 13 -9 21 0 21 0 21 19 22 18
0 14 0 14 -11 37 -10 38 -25 6 -25 6 3 17 3 16 29 3 29 4 14 13 13 14 0 28 0
29 -17 14 -18 15 -18 -3 -19 -4 -29 12 -29 12 0 19 0 19 -15 0 -14 0 -11 -41z"/>
</g>
</svg>
