<?xml version="1.0" standalone="no"?>
<!DOCTYPE svg PUBLIC "-//W3C//DTD SVG 20010904//EN"
 "http://www.w3.org/TR/2001/REC-SVG-20010904/DTD/svg10.dtd">
<svg version="1.0" xmlns="http://www.w3.org/2000/svg"
 width="31.000000pt" height="42.000000pt" viewBox="0 0 31.000000 42.000000"
 preserveAspectRatio="xMidYMid meet">
<metadata>
Created by potrace 1.16, written by Peter Selinger 2001-2019
</metadata>
<g transform="translate(0.000000,42.000000) scale(0.100000,-0.100000)"
fill="#000000" stroke="none">
<path d="M152 412 l-23 -4 6 -28 6 -29 -25 -7 -26 -6 -35 4 -35 4 0 -53 0 -53
40 0 40 0 0 -25 0 -25 -37 0 -38 0 -12 -8 -12 -8 6 -37 6 -37 13 0 14 0 0 -10
0 -10 23 0 22 0 23 -6 23 -7 -6 -27 -6 -28 26 -6 26 -7 15 15 15 16 -3 17 -3
18 47 5 47 6 7 6 6 7 5 44 5 44 -23 6 -24 7 -22 0 -23 0 0 25 0 25 33 0 33 0
12 34 12 33 -6 17 -6 16 -4 0 -4 0 -41 -16 -41 -17 -9 14 -9 14 0 37 0 37 -7
3 -8 4 -23 -4z"/>
</g>
</svg>
