<?xml version="1.0" standalone="no"?>
<!DOCTYPE svg PUBLIC "-//W3C//DTD SVG 20010904//EN"
 "http://www.w3.org/TR/2001/REC-SVG-20010904/DTD/svg10.dtd">
<svg version="1.0" xmlns="http://www.w3.org/2000/svg"
 width="33.000000pt" height="44.000000pt" viewBox="0 0 33.000000 44.000000"
 preserveAspectRatio="xMidYMid meet">
<metadata>
Created by potrace 1.16, written by Peter Selinger 2001-2019
</metadata>
<g transform="translate(0.000000,44.000000) scale(0.100000,-0.100000)"
fill="#000000" stroke="none">
<path d="M151 433 l-23 -5 4 -29 5 -29 -24 -6 -23 -6 -35 6 -35 7 0 -66 0 -65
40 0 40 0 0 -15 0 -15 -37 0 -38 0 -13 -9 -14 -8 7 -47 7 -46 14 0 14 0 0 -10
0 -10 23 0 22 0 21 -6 20 -5 -4 -29 -4 -29 36 -6 35 -7 16 15 15 16 0 20 0 21
38 0 37 0 14 9 14 9 5 55 4 54 -23 6 -24 7 -22 0 -23 0 0 15 0 15 33 0 34 0
13 39 12 38 -7 22 -6 21 -15 0 -15 0 -34 -14 -35 -15 -5 22 -5 22 -2 30 -3 30
-15 1 -15 1 -24 -4z"/>
</g>
</svg>
