<?xml version="1.0" standalone="no"?>
<!DOCTYPE svg PUBLIC "-//W3C//DTD SVG 20010904//EN"
 "http://www.w3.org/TR/2001/REC-SVG-20010904/DTD/svg10.dtd">
<svg version="1.0" xmlns="http://www.w3.org/2000/svg"
 width="33.000000pt" height="36.000000pt" viewBox="0 0 33.000000 36.000000"
 preserveAspectRatio="xMidYMid meet">
<metadata>
Created by potrace 1.16, written by Peter Selinger 2001-2019
</metadata>
<g transform="translate(0.000000,36.000000) scale(0.100000,-0.100000)"
fill="#000000" stroke="none">
<path d="M134 335 l7 -26 -15 -14 -15 -15 -50 0 -51 0 0 -60 0 -59 35 -7 35
-6 -5 -8 -5 -7 -26 5 -26 5 -9 -14 -9 -14 0 -40 0 -40 9 -13 8 -14 41 -5 41
-5 25 6 26 6 0 35 0 35 15 0 15 0 0 -21 0 -20 13 -13 13 -14 31 -6 30 -7 26 6
25 7 7 48 7 49 -7 21 -7 21 -39 -6 -39 -7 0 15 0 15 35 6 34 7 7 36 7 36 -10
16 -10 16 -19 3 -19 4 -37 9 -38 10 0 24 0 25 -31 0 -31 0 6 -25z"/>
</g>
</svg>
