<?xml version="1.0" standalone="no"?>
<!DOCTYPE svg PUBLIC "-//W3C//DTD SVG 20010904//EN"
 "http://www.w3.org/TR/2001/REC-SVG-20010904/DTD/svg10.dtd">
<svg version="1.0" xmlns="http://www.w3.org/2000/svg"
 width="29.000000pt" height="43.000000pt" viewBox="0 0 29.000000 43.000000"
 preserveAspectRatio="xMidYMid meet">
<metadata>
Created by potrace 1.16, written by Peter Selinger 2001-2019
</metadata>
<g transform="translate(0.000000,43.000000) scale(0.100000,-0.100000)"
fill="#000000" stroke="none">
<path d="M130 401 l0 -29 -6 -17 -6 -16 -59 7 -59 7 0 -35 0 -35 19 -22 19
-22 26 7 26 6 0 -21 0 -21 -29 0 -29 0 -16 -6 -16 -6 0 -38 0 -38 6 -16 6 -16
45 0 45 0 -6 -24 -6 -24 6 -16 6 -15 34 -7 33 -6 16 16 16 15 -7 26 -6 25 36
0 36 0 6 24 5 23 -11 42 -11 41 -24 0 -25 0 0 14 0 13 39 7 39 6 4 31 5 31 -4
22 -4 21 -39 1 -38 1 -27 7 -26 7 6 29 7 30 -16 0 -16 0 0 -29z"/>
</g>
</svg>
