<?xml version="1.0" standalone="no"?>
<!DOCTYPE svg PUBLIC "-//W3C//DTD SVG 20010904//EN"
 "http://www.w3.org/TR/2001/REC-SVG-20010904/DTD/svg10.dtd">
<svg version="1.0" xmlns="http://www.w3.org/2000/svg"
 width="31.000000pt" height="45.000000pt" viewBox="0 0 31.000000 45.000000"
 preserveAspectRatio="xMidYMid meet">
<metadata>
Created by potrace 1.16, written by Peter Selinger 2001-2019
</metadata>
<g transform="translate(0.000000,45.000000) scale(0.100000,-0.100000)"
fill="#000000" stroke="none">
<path d="M130 421 l0 -29 -6 -15 -5 -15 -60 5 -59 6 0 -45 0 -45 20 -23 19
-22 26 4 25 5 0 -8 0 -9 -29 0 -29 0 -16 -6 -16 -6 0 -48 0 -48 6 -16 6 -16
42 0 43 0 -4 -28 -4 -27 9 -13 9 -14 41 -5 41 -5 17 16 16 17 -5 24 -4 25 32
0 33 0 6 16 6 16 0 21 0 22 -11 38 -10 37 -27 1 -27 1 41 9 41 10 6 35 6 36
-6 28 -5 28 -44 0 -43 0 -19 6 -19 6 5 30 4 30 -26 0 -26 0 0 -29z"/>
</g>
</svg>
