<?xml version="1.0" standalone="no"?>
<!DOCTYPE svg PUBLIC "-//W3C//DTD SVG 20010904//EN"
 "http://www.w3.org/TR/2001/REC-SVG-20010904/DTD/svg10.dtd">
<svg version="1.0" xmlns="http://www.w3.org/2000/svg"
 width="31.000000pt" height="34.000000pt" viewBox="0 0 31.000000 34.000000"
 preserveAspectRatio="xMidYMid meet">
<metadata>
Created by potrace 1.16, written by Peter Selinger 2001-2019
</metadata>
<g transform="translate(0.000000,34.000000) scale(0.100000,-0.100000)"
fill="#000000" stroke="none">
<path d="M137 315 l5 -24 -15 -16 -16 -15 -50 0 -51 0 0 -50 0 -49 36 -7 35
-6 -3 -17 -4 -16 -29 2 -29 2 -8 -12 -8 -12 0 -27 0 -26 6 -16 6 -15 34 -7 34
-6 26 6 25 7 -3 32 -3 32 30 0 30 0 -3 -18 -3 -17 13 -13 13 -13 25 -7 24 -6
22 5 22 6 6 42 7 43 -6 15 -6 16 -40 -5 -39 -6 0 26 0 25 34 6 35 7 6 30 7 30
-11 13 -12 14 -44 7 -45 6 -14 15 -15 15 5 14 6 15 -20 0 -19 0 4 -25z"/>
</g>
</svg>
