<?xml version="1.0" standalone="no"?>
<!DOCTYPE svg PUBLIC "-//W3C//DTD SVG 20010904//EN"
 "http://www.w3.org/TR/2001/REC-SVG-20010904/DTD/svg10.dtd">
<svg version="1.0" xmlns="http://www.w3.org/2000/svg"
 width="38.000000pt" height="36.000000pt" viewBox="0 0 38.000000 36.000000"
 preserveAspectRatio="xMidYMid meet">
<metadata>
Created by potrace 1.16, written by Peter Selinger 2001-2019
</metadata>
<g transform="translate(0.000000,36.000000) scale(0.100000,-0.100000)"
fill="#000000" stroke="none">
<path d="M186 351 l-7 -10 7 -25 6 -24 -21 -7 -20 -6 -35 6 -35 7 -6 -25 -7
-26 6 -19 7 -20 -35 -6 -34 -7 -6 -15 -6 -16 0 -18 0 -19 16 -15 15 -16 25 0
24 0 0 -45 0 -45 49 0 49 0 16 6 16 6 0 29 0 29 14 0 14 0 6 -24 6 -23 31 -7
32 -6 22 0 23 0 6 16 6 16 -6 38 -6 38 -27 13 -26 12 19 5 20 4 11 12 12 11 6
34 7 33 -6 23 -6 24 -38 -1 -39 0 -13 13 -13 14 0 20 0 20 -37 3 -36 3 -6 -10z"/>
</g>
</svg>
