<?xml version="1.0" standalone="no"?>
<!DOCTYPE svg PUBLIC "-//W3C//DTD SVG 20010904//EN"
 "http://www.w3.org/TR/2001/REC-SVG-20010904/DTD/svg10.dtd">
<svg version="1.0" xmlns="http://www.w3.org/2000/svg"
 width="41.000000pt" height="34.000000pt" viewBox="0 0 41.000000 34.000000"
 preserveAspectRatio="xMidYMid meet">
<metadata>
Created by potrace 1.16, written by Peter Selinger 2001-2019
</metadata>
<g transform="translate(0.000000,34.000000) scale(0.100000,-0.100000)"
fill="#000000" stroke="none">
<path d="M168 314 l5 -26 -14 -9 -14 -9 -37 0 -38 0 0 -44 0 -45 -20 -6 -20
-6 -9 6 -10 5 -6 -10 -6 -10 6 -20 6 -20 24 0 23 0 16 -6 16 -6 0 -20 0 -19
-10 -19 -10 -19 6 -15 6 -16 33 0 33 0 6 16 6 16 0 29 0 29 36 0 37 0 -7 -39
-6 -39 16 -6 16 -6 38 0 39 0 10 37 11 38 0 23 0 22 30 0 30 0 0 28 0 27 -9
13 -8 13 -26 -6 -26 -7 -5 24 -5 23 -3 20 -3 19 -45 9 -44 9 -12 16 -12 17 4
7 5 8 -29 0 -29 0 5 -26z"/>
</g>
</svg>
