<?xml version="1.0" standalone="no"?>
<!DOCTYPE svg PUBLIC "-//W3C//DTD SVG 20010904//EN"
 "http://www.w3.org/TR/2001/REC-SVG-20010904/DTD/svg10.dtd">
<svg version="1.0" xmlns="http://www.w3.org/2000/svg"
 width="36.000000pt" height="42.000000pt" viewBox="0 0 36.000000 42.000000"
 preserveAspectRatio="xMidYMid meet">
<metadata>
Created by potrace 1.16, written by Peter Selinger 2001-2019
</metadata>
<g transform="translate(0.000000,42.000000) scale(0.100000,-0.100000)"
fill="#000000" stroke="none">
<path d="M130 394 l0 -25 -16 -16 -15 -15 -50 4 -49 5 0 -43 0 -43 19 -6 19
-6 13 3 14 3 0 -30 0 -30 -21 3 -20 3 -12 -26 -12 -26 0 -28 0 -29 22 -6 23
-6 21 0 22 0 6 -34 7 -34 15 -6 16 -6 8 0 9 0 15 16 16 15 0 25 0 24 36 0 35
0 14 13 13 13 7 41 6 41 35 6 34 7 0 12 0 12 -9 14 -9 14 -31 1 -31 1 0 48 0
47 -12 0 -13 0 -36 10 -36 10 -11 25 -12 25 -15 0 -15 0 0 -26z"/>
</g>
</svg>
