<?xml version="1.0" standalone="no"?>
<!DOCTYPE svg PUBLIC "-//W3C//DTD SVG 20010904//EN"
 "http://www.w3.org/TR/2001/REC-SVG-20010904/DTD/svg10.dtd">
<svg version="1.0" xmlns="http://www.w3.org/2000/svg"
 width="43.000000pt" height="36.000000pt" viewBox="0 0 43.000000 36.000000"
 preserveAspectRatio="xMidYMid meet">
<metadata>
Created by potrace 1.16, written by Peter Selinger 2001-2019
</metadata>
<g transform="translate(0.000000,36.000000) scale(0.100000,-0.100000)"
fill="#000000" stroke="none">
<path d="M164 333 l7 -26 -13 -8 -13 -9 -37 0 -38 0 0 -45 0 -45 -12 -1 -13
-1 -18 1 -17 2 -6 -15 -6 -16 6 -25 6 -25 28 0 27 0 14 -9 14 -9 -12 -30 -13
-31 7 -20 6 -21 44 0 43 0 6 16 6 16 0 29 0 29 25 0 26 0 -7 -36 -7 -36 14 -9
14 -9 52 0 52 0 10 37 11 38 0 23 0 22 30 0 30 0 0 38 0 37 -9 14 -9 14 -26
-5 -26 -5 -5 21 -4 21 -3 20 -3 20 -48 9 -47 8 -6 24 -6 24 -40 0 -40 0 6 -27z"/>
</g>
</svg>
