<?xml version="1.0" standalone="no"?>
<!DOCTYPE svg PUBLIC "-//W3C//DTD SVG 20010904//EN"
 "http://www.w3.org/TR/2001/REC-SVG-20010904/DTD/svg10.dtd">
<svg version="1.0" xmlns="http://www.w3.org/2000/svg"
 width="36.000000pt" height="34.000000pt" viewBox="0 0 36.000000 34.000000"
 preserveAspectRatio="xMidYMid meet">
<metadata>
Created by potrace 1.16, written by Peter Selinger 2001-2019
</metadata>
<g transform="translate(0.000000,34.000000) scale(0.100000,-0.100000)"
fill="#000000" stroke="none">
<path d="M189 333 l-1 -8 2 -27 1 -27 -26 -7 -26 -6 -28 5 -29 6 -6 -15 -5
-14 5 -29 6 -28 -35 -7 -35 -7 -6 -15 -6 -16 0 -8 0 -9 16 -15 15 -16 25 0 24
0 0 -45 0 -45 43 0 42 0 14 9 14 9 -5 26 -5 26 27 0 28 0 6 -24 6 -24 41 -7
41 -7 9 13 9 14 -5 13 -5 14 0 17 0 18 -25 11 -25 12 0 15 0 15 16 0 15 0 14
13 13 14 3 29 2 29 -1 15 -2 15 -39 1 -40 1 -16 16 -16 17 3 17 3 18 -27 3
-28 3 -1 -8z"/>
</g>
</svg>
