<?xml version="1.0" standalone="no"?>
<!DOCTYPE svg PUBLIC "-//W3C//DTD SVG 20010904//EN"
 "http://www.w3.org/TR/2001/REC-SVG-20010904/DTD/svg10.dtd">
<svg version="1.0" xmlns="http://www.w3.org/2000/svg"
 width="38.000000pt" height="44.000000pt" viewBox="0 0 38.000000 44.000000"
 preserveAspectRatio="xMidYMid meet">
<metadata>
Created by potrace 1.16, written by Peter Selinger 2001-2019
</metadata>
<g transform="translate(0.000000,44.000000) scale(0.100000,-0.100000)"
fill="#000000" stroke="none">
<path d="M130 414 l0 -25 -16 -16 -15 -15 -50 6 -49 7 0 -55 0 -54 16 -6 16
-6 19 0 19 0 0 -15 0 -15 -23 0 -24 0 -11 -25 -12 -26 0 -38 0 -39 22 -6 23
-6 21 0 22 0 6 -34 7 -34 15 -6 16 -6 18 0 19 0 15 16 16 15 0 25 0 24 36 0
35 0 14 13 13 13 7 41 6 41 35 6 34 7 0 19 0 18 -6 16 -6 15 -34 7 -34 6 0 44
0 44 -12 0 -13 0 -36 10 -36 10 -11 25 -12 25 -25 0 -25 0 0 -26z"/>
</g>
</svg>
