<?xml version="1.0" standalone="no"?>
<!DOCTYPE svg PUBLIC "-//W3C//DTD SVG 20010904//EN"
 "http://www.w3.org/TR/2001/REC-SVG-20010904/DTD/svg10.dtd">
<svg version="1.0" xmlns="http://www.w3.org/2000/svg"
 width="29.000000pt" height="37.000000pt" viewBox="0 0 29.000000 37.000000"
 preserveAspectRatio="xMidYMid meet">
<metadata>
Created by potrace 1.16, written by Peter Selinger 2001-2019
</metadata>
<g transform="translate(0.000000,37.000000) scale(0.100000,-0.100000)"
fill="#000000" stroke="none">
<path d="M173 340 l6 -30 -5 -15 -6 -15 -18 0 -19 0 -3 33 -3 32 -52 3 -53 3
0 -45 0 -46 26 0 27 0 18 -21 18 -21 -14 -14 -14 -14 -40 0 -39 0 1 -54 1 -55
21 -5 20 -6 22 0 21 0 7 -29 6 -29 25 -6 26 -7 19 6 19 6 0 14 0 14 19 11 20
10 18 0 18 0 14 9 15 9 -12 39 -11 38 -6 23 -6 22 -14 0 -13 0 -5 14 -6 14 6
6 6 6 23 0 22 0 6 34 7 35 -6 24 -7 25 -36 6 -37 6 -19 0 -18 0 5 -30z"/>
</g>
</svg>
