<?xml version="1.0" standalone="no"?>
<!DOCTYPE svg PUBLIC "-//W3C//DTD SVG 20010904//EN"
 "http://www.w3.org/TR/2001/REC-SVG-20010904/DTD/svg10.dtd">
<svg version="1.0" xmlns="http://www.w3.org/2000/svg"
 width="39.000000pt" height="43.000000pt" viewBox="0 0 39.000000 43.000000"
 preserveAspectRatio="xMidYMid meet">
<metadata>
Created by potrace 1.16, written by Peter Selinger 2001-2019
</metadata>
<g transform="translate(0.000000,43.000000) scale(0.100000,-0.100000)"
fill="#000000" stroke="none">
<path d="M190 398 l0 -33 -9 -13 -8 -14 -47 7 -46 7 0 -35 0 -35 -6 -16 -6
-16 -18 0 -18 0 -16 -6 -16 -6 0 -19 0 -18 12 -26 11 -25 18 0 18 0 11 -40 11
-40 49 0 50 0 0 -19 0 -19 6 -16 6 -16 28 0 28 0 16 6 16 6 0 24 0 24 31 0 30
0 15 14 14 15 0 13 0 13 -11 37 -10 38 -18 0 -18 0 -6 6 -6 6 6 14 5 14 20 0
19 0 16 16 16 15 1 37 1 37 -35 3 -35 2 -20 5 -21 4 4 41 4 40 -46 0 -46 0 0
-32z"/>
</g>
</svg>
