<?xml version="1.0" standalone="no"?>
<!DOCTYPE svg PUBLIC "-//W3C//DTD SVG 20010904//EN"
 "http://www.w3.org/TR/2001/REC-SVG-20010904/DTD/svg10.dtd">
<svg version="1.0" xmlns="http://www.w3.org/2000/svg"
 width="27.000000pt" height="35.000000pt" viewBox="0 0 27.000000 35.000000"
 preserveAspectRatio="xMidYMid meet">
<metadata>
Created by potrace 1.16, written by Peter Selinger 2001-2019
</metadata>
<g transform="translate(0.000000,35.000000) scale(0.100000,-0.100000)"
fill="#000000" stroke="none">
<path d="M175 327 l7 -26 -7 -20 -6 -21 -29 0 -29 0 -3 33 -3 32 -42 3 -43 3
0 -35 0 -36 26 0 27 0 18 -22 19 -21 0 -9 0 -9 -14 -15 -15 -14 -40 0 -40 0 2
-43 2 -42 15 -7 15 -7 27 0 26 -1 7 -29 6 -29 21 -5 20 -6 14 6 14 5 0 14 0
13 19 11 20 10 18 0 18 0 13 9 13 8 -10 24 -10 24 -5 28 -6 27 -11 0 -10 0
-16 15 -15 16 12 14 12 15 23 0 23 0 5 29 6 28 -6 22 -5 21 -13 0 -12 0 -32 6
-32 7 6 -26z"/>
</g>
</svg>
