<?xml version="1.0" standalone="no"?>
<!DOCTYPE svg PUBLIC "-//W3C//DTD SVG 20010904//EN"
 "http://www.w3.org/TR/2001/REC-SVG-20010904/DTD/svg10.dtd">
<svg version="1.0" xmlns="http://www.w3.org/2000/svg"
 width="37.000000pt" height="41.000000pt" viewBox="0 0 37.000000 41.000000"
 preserveAspectRatio="xMidYMid meet">
<metadata>
Created by potrace 1.16, written by Peter Selinger 2001-2019
</metadata>
<g transform="translate(0.000000,41.000000) scale(0.100000,-0.100000)"
fill="#000000" stroke="none">
<path d="M190 378 l0 -33 -9 -14 -9 -14 -46 6 -46 7 0 -34 0 -34 -6 -16 -6
-16 -22 0 -21 0 -14 -9 -14 -9 13 -32 13 -32 18 5 17 5 11 -44 11 -44 50 0 50
0 0 -19 0 -19 6 -16 6 -16 22 0 21 0 14 9 13 9 -7 21 -6 21 36 0 36 0 15 15
15 14 -11 41 -11 40 -19 0 -19 0 -6 10 -6 10 6 20 6 20 20 0 20 0 15 15 15 15
2 27 2 28 -35 3 -35 2 -23 5 -22 5 6 40 7 40 -37 0 -36 0 0 -32z"/>
</g>
</svg>
