<?xml version="1.0" standalone="no"?>
<!DOCTYPE svg PUBLIC "-//W3C//DTD SVG 20010904//EN"
 "http://www.w3.org/TR/2001/REC-SVG-20010904/DTD/svg10.dtd">
<svg version="1.0" xmlns="http://www.w3.org/2000/svg"
 width="37.000000pt" height="31.000000pt" viewBox="0 0 37.000000 31.000000"
 preserveAspectRatio="xMidYMid meet">
<metadata>
Created by potrace 1.16, written by Peter Selinger 2001-2019
</metadata>
<g transform="translate(0.000000,31.000000) scale(0.100000,-0.100000)"
fill="#000000" stroke="none">
<path d="M244 277 l7 -37 -16 0 -15 0 0 -10 0 -9 -14 5 -14 5 5 19 5 20 -28
10 -29 11 -32 -6 -33 -6 0 -44 0 -45 -40 0 -40 0 0 -34 0 -34 16 -6 16 -6 21
0 22 0 14 -9 13 -9 -13 -36 -13 -37 14 -9 15 -10 42 0 42 0 13 43 12 42 3 -21
4 -21 25 -12 25 -11 27 0 27 0 14 9 13 9 -7 40 -7 41 -29 6 -30 7 3 16 3 17
35 3 35 4 7 11 8 12 0 43 0 42 -26 10 -25 10 -41 6 -41 7 7 -36z"/>
</g>
</svg>
