<?xml version="1.0" standalone="no"?>
<!DOCTYPE svg PUBLIC "-//W3C//DTD SVG 20010904//EN"
 "http://www.w3.org/TR/2001/REC-SVG-20010904/DTD/svg10.dtd">
<svg version="1.0" xmlns="http://www.w3.org/2000/svg"
 width="35.000000pt" height="29.000000pt" viewBox="0 0 35.000000 29.000000"
 preserveAspectRatio="xMidYMid meet">
<metadata>
Created by potrace 1.16, written by Peter Selinger 2001-2019
</metadata>
<g transform="translate(0.000000,29.000000) scale(0.100000,-0.100000)"
fill="#000000" stroke="none">
<path d="M247 256 l6 -36 -16 0 -15 0 -4 -11 -4 -12 -23 8 -23 7 5 20 5 19
-24 10 -25 9 -25 -6 -24 -6 0 -44 0 -44 -40 0 -40 0 0 -25 0 -25 25 -5 25 -5
25 -5 25 -5 0 -21 0 -20 -11 -21 -11 -21 13 -8 14 -9 32 0 32 0 11 40 11 40
14 0 15 0 0 -18 0 -19 25 -11 26 -12 17 0 17 0 13 8 12 8 -6 32 -6 31 -30 6
-29 7 3 26 3 27 35 3 35 4 7 11 8 12 0 33 0 32 -22 9 -23 8 -32 7 -32 7 6 -35z"/>
</g>
</svg>
