<?xml version="1.0" standalone="no"?>
<!DOCTYPE svg PUBLIC "-//W3C//DTD SVG 20010904//EN"
 "http://www.w3.org/TR/2001/REC-SVG-20010904/DTD/svg10.dtd">
<svg version="1.0" xmlns="http://www.w3.org/2000/svg"
 width="34.000000pt" height="31.000000pt" viewBox="0 0 34.000000 31.000000"
 preserveAspectRatio="xMidYMid meet">
<metadata>
Created by potrace 1.16, written by Peter Selinger 2001-2019
</metadata>
<g transform="translate(0.000000,31.000000) scale(0.100000,-0.100000)"
fill="#000000" stroke="none">
<path d="M70 269 l0 -40 -14 -15 -15 -14 -21 0 -21 0 3 -27 3 -28 33 0 32 0 5
-16 6 -16 -11 -27 -10 -27 0 -15 0 -14 53 0 52 0 14 9 14 9 -5 26 -5 26 18 0
19 0 0 -34 0 -34 6 -16 6 -16 18 0 18 0 36 15 36 15 0 20 0 20 -10 0 -10 0 0
23 0 22 -8 11 -7 11 -22 7 -23 7 0 15 0 15 14 15 15 14 26 0 26 0 -3 43 -3 42
-49 3 -48 3 4 -29 4 -28 -13 -12 -13 -12 -25 6 -25 6 -1 12 -1 11 2 28 2 27
-51 0 -51 0 0 -41z"/>
</g>
</svg>
