<?xml version="1.0" standalone="no"?>
<!DOCTYPE svg PUBLIC "-//W3C//DTD SVG 20010904//EN"
 "http://www.w3.org/TR/2001/REC-SVG-20010904/DTD/svg10.dtd">
<svg version="1.0" xmlns="http://www.w3.org/2000/svg"
 width="31.000000pt" height="39.000000pt" viewBox="0 0 31.000000 39.000000"
 preserveAspectRatio="xMidYMid meet">
<metadata>
Created by potrace 1.16, written by Peter Selinger 2001-2019
</metadata>
<g transform="translate(0.000000,39.000000) scale(0.100000,-0.100000)"
fill="#000000" stroke="none">
<path d="M186 381 l-6 -8 -25 5 -25 4 0 -40 0 -41 -21 -6 -21 -7 -44 7 -44 6
0 -45 0 -45 16 -15 15 -16 15 0 14 0 0 -14 0 -13 -30 -6 -30 -6 0 -53 0 -53 8
-11 7 -12 58 -7 58 -7 12 15 12 16 45 -9 45 -9 17 -1 17 0 15 16 16 15 0 44 0
43 -16 6 -16 6 -24 0 -24 0 0 10 0 10 21 0 20 0 15 14 14 15 6 44 6 44 -20 19
-19 19 -7 38 -7 37 -34 0 -34 0 -5 -9z"/>
</g>
</svg>
