<?xml version="1.0" standalone="no"?>
<!DOCTYPE svg PUBLIC "-//W3C//DTD SVG 20010904//EN"
 "http://www.w3.org/TR/2001/REC-SVG-20010904/DTD/svg10.dtd">
<svg version="1.0" xmlns="http://www.w3.org/2000/svg"
 width="29.000000pt" height="37.000000pt" viewBox="0 0 29.000000 37.000000"
 preserveAspectRatio="xMidYMid meet">
<metadata>
Created by potrace 1.16, written by Peter Selinger 2001-2019
</metadata>
<g transform="translate(0.000000,37.000000) scale(0.100000,-0.100000)"
fill="#000000" stroke="none">
<path d="M196 355 l6 -14 -7 -11 -7 -12 -19 21 -20 21 -9 0 -10 0 0 -40 0 -40
-26 -6 -25 -6 -40 5 -39 5 0 -33 0 -34 16 -15 15 -16 15 0 14 0 0 -24 0 -23
-30 -6 -30 -6 0 -43 0 -43 8 -11 7 -11 49 -7 49 -8 8 14 9 13 0 33 0 32 16 0
16 0 -7 -29 -6 -29 18 -5 18 -5 37 -6 36 -7 16 16 16 16 0 34 0 33 -16 6 -16
6 -24 0 -24 0 0 26 0 25 20 -6 20 -6 14 14 15 14 6 35 7 35 -17 16 -16 17 -22
0 -22 0 -15 10 -14 9 6 6 6 7 22 -12 22 -12 5 5 5 6 -7 30 -7 31 -23 0 -24 0
5 -15z"/>
</g>
</svg>
