<?xml version="1.0" standalone="no"?>
<!DOCTYPE svg PUBLIC "-//W3C//DTD SVG 20010904//EN"
 "http://www.w3.org/TR/2001/REC-SVG-20010904/DTD/svg10.dtd">
<svg version="1.0" xmlns="http://www.w3.org/2000/svg"
 width="32.000000pt" height="29.000000pt" viewBox="0 0 32.000000 29.000000"
 preserveAspectRatio="xMidYMid meet">
<metadata>
Created by potrace 1.16, written by Peter Selinger 2001-2019
</metadata>
<g transform="translate(0.000000,29.000000) scale(0.100000,-0.100000)"
fill="#000000" stroke="none">
<path d="M70 249 l0 -40 -14 -15 -15 -14 -21 0 -21 0 3 -17 4 -18 32 3 32 2 6
-25 6 -25 -11 -31 -11 -32 0 -3 0 -4 43 0 42 0 13 9 13 8 -6 25 -6 25 22 6 22
6 9 -5 8 -5 0 -37 0 -37 9 -14 9 -14 34 13 33 13 10 10 10 9 -12 5 -13 5 0 21
0 22 -8 11 -7 11 -22 7 -23 7 0 25 0 25 14 15 15 14 26 0 26 0 -3 33 -3 32
-39 3 -39 3 7 -26 7 -26 -16 -15 -16 -16 -33 6 -34 7 -6 15 -6 16 6 24 6 24
-41 0 -41 0 0 -41z"/>
</g>
</svg>
