<?xml version="1.0" standalone="no"?>
<!DOCTYPE svg PUBLIC "-//W3C//DTD SVG 20010904//EN"
 "http://www.w3.org/TR/2001/REC-SVG-20010904/DTD/svg10.dtd">
<svg version="1.0" xmlns="http://www.w3.org/2000/svg"
 width="38.000000pt" height="27.000000pt" viewBox="0 0 38.000000 27.000000"
 preserveAspectRatio="xMidYMid meet">
<metadata>
Created by potrace 1.16, written by Peter Selinger 2001-2019
</metadata>
<g transform="translate(0.000000,27.000000) scale(0.100000,-0.100000)"
fill="#000000" stroke="none">
<path d="M185 242 l6 -28 -20 -23 -20 -23 -20 7 -21 6 0 39 0 38 -50 -1 -50
-2 0 -42 0 -42 35 -7 35 -6 6 -9 5 -9 -6 -21 -7 -21 -33 6 -33 6 -6 -16 -6
-16 0 -23 0 -23 6 -16 6 -16 135 0 136 0 -6 43 -6 42 38 -3 38 -4 16 17 17 16
0 24 0 24 -37 7 -38 7 -7 11 -8 11 0 38 0 37 -10 0 -10 0 0 -9 0 -10 -32 10
-33 9 -13 0 -14 0 7 -28z"/>
</g>
</svg>
