<?xml version="1.0" standalone="no"?>
<!DOCTYPE svg PUBLIC "-//W3C//DTD SVG 20010904//EN"
 "http://www.w3.org/TR/2001/REC-SVG-20010904/DTD/svg10.dtd">
<svg version="1.0" xmlns="http://www.w3.org/2000/svg"
 width="40.000000pt" height="29.000000pt" viewBox="0 0 40.000000 29.000000"
 preserveAspectRatio="xMidYMid meet">
<metadata>
Created by potrace 1.16, written by Peter Selinger 2001-2019
</metadata>
<g transform="translate(0.000000,29.000000) scale(0.100000,-0.100000)"
fill="#000000" stroke="none">
<path d="M182 256 l2 -34 -15 -14 -14 -15 -13 5 -12 4 0 38 0 39 -60 -1 -60
-1 0 -53 0 -52 32 -7 33 -7 7 -4 7 -5 -5 -14 -6 -14 -30 6 -30 6 -9 -14 -9
-14 0 -37 0 -36 6 -16 6 -16 144 0 144 0 0 40 0 40 34 0 35 0 15 16 16 15 0
34 0 34 -37 7 -38 7 -7 11 -8 11 0 36 0 36 -65 1 -66 1 3 -33z"/>
</g>
</svg>
