<?xml version="1.0" standalone="no"?>
<!DOCTYPE svg PUBLIC "-//W3C//DTD SVG 20010904//EN"
 "http://www.w3.org/TR/2001/REC-SVG-20010904/DTD/svg10.dtd">
<svg version="1.0" xmlns="http://www.w3.org/2000/svg"
 width="43.000000pt" height="29.000000pt" viewBox="0 0 43.000000 29.000000"
 preserveAspectRatio="xMidYMid meet">
<metadata>
Created by potrace 1.16, written by Peter Selinger 2001-2019
</metadata>
<g transform="translate(0.000000,29.000000) scale(0.100000,-0.100000)"
fill="#000000" stroke="none">
<path d="M87 284 l-7 -7 0 -49 0 -48 -40 -6 -40 -7 0 -23 0 -24 25 0 24 0 10
-37 9 -38 4 -20 3 -20 44 -3 44 -3 24 6 23 5 1 38 2 37 4 -27 4 -26 31 -11 31
-11 34 0 33 0 -6 40 -6 39 23 5 24 5 20 3 20 3 3 39 3 39 -26 -5 -26 -5 -15
14 -14 14 0 35 0 34 -20 0 -19 0 -28 -12 -28 -13 -16 -17 -16 -18 -22 19 -21
18 0 17 0 16 -22 0 -23 0 -20 6 -21 5 -7 -7z"/>
</g>
</svg>
