<?xml version="1.0" standalone="no"?>
<!DOCTYPE svg PUBLIC "-//W3C//DTD SVG 20010904//EN"
 "http://www.w3.org/TR/2001/REC-SVG-20010904/DTD/svg10.dtd">
<svg version="1.0" xmlns="http://www.w3.org/2000/svg"
 width="28.000000pt" height="36.000000pt" viewBox="0 0 28.000000 36.000000"
 preserveAspectRatio="xMidYMid meet">
<metadata>
Created by potrace 1.16, written by Peter Selinger 2001-2019
</metadata>
<g transform="translate(0.000000,36.000000) scale(0.100000,-0.100000)"
fill="#000000" stroke="none">
<path d="M17 354 l-7 -7 0 -53 0 -53 31 1 31 1 9 -14 9 -14 -34 -9 -34 -9 -11
-55 -11 -55 0 -9 0 -8 40 0 40 0 0 -19 0 -20 16 -15 15 -16 28 0 27 0 22 20
22 21 0 19 0 20 30 0 30 0 0 18 0 17 -6 37 -7 38 -14 0 -14 0 -15 15 -15 15 6
19 6 20 32 3 32 3 3 49 3 49 -23 -7 -23 -6 -34 0 -33 0 4 -23 4 -23 -10 -10
-11 -10 -17 4 -18 3 0 30 0 29 -27 0 -28 0 -20 6 -21 5 -7 -7z"/>
</g>
</svg>
