<?xml version="1.0" standalone="no"?>
<!DOCTYPE svg PUBLIC "-//W3C//DTD SVG 20010904//EN"
 "http://www.w3.org/TR/2001/REC-SVG-20010904/DTD/svg10.dtd">
<svg version="1.0" xmlns="http://www.w3.org/2000/svg"
 width="43.000000pt" height="35.000000pt" viewBox="0 0 43.000000 35.000000"
 preserveAspectRatio="xMidYMid meet">
<metadata>
Created by potrace 1.16, written by Peter Selinger 2001-2019
</metadata>
<g transform="translate(0.000000,35.000000) scale(0.100000,-0.100000)"
fill="#000000" stroke="none">
<path d="M60 305 l0 -46 -14 -15 -15 -14 -15 0 -16 0 0 -25 0 -25 25 -12 24
-11 3 -46 3 -46 30 -3 30 -2 23 -5 22 -5 0 -19 0 -19 16 -6 16 -6 18 0 18 0 6
16 6 16 0 20 0 20 25 -6 25 -6 25 6 25 6 0 39 0 39 26 0 27 0 18 22 19 21 0
23 0 24 -40 6 -40 7 0 49 0 50 -27 -7 -28 -7 -38 -5 -38 -5 2 -17 1 -16 -1
-12 -1 -12 -17 -3 -18 -4 -16 18 -17 19 5 19 5 20 -28 0 -29 0 -22 6 -23 6 0
-47z"/>
</g>
</svg>
