<?xml version="1.0" standalone="no"?>
<!DOCTYPE svg PUBLIC "-//W3C//DTD SVG 20010904//EN"
 "http://www.w3.org/TR/2001/REC-SVG-20010904/DTD/svg10.dtd">
<svg version="1.0" xmlns="http://www.w3.org/2000/svg"
 width="40.000000pt" height="38.000000pt" viewBox="0 0 40.000000 38.000000"
 preserveAspectRatio="xMidYMid meet">
<metadata>
Created by potrace 1.16, written by Peter Selinger 2001-2019
</metadata>
<g transform="translate(0.000000,38.000000) scale(0.100000,-0.100000)"
fill="#000000" stroke="none">
<path d="M60 362 l0 -18 10 -10 9 -9 -5 -22 -6 -23 -34 -6 -34 -6 0 -34 0 -33
43 -3 42 -3 -3 -57 -4 -58 31 0 31 0 0 -18 0 -19 20 -23 19 -22 36 6 36 7 6
30 6 29 26 0 26 0 13 8 12 8 -9 46 -8 47 36 8 36 9 3 36 3 36 -36 6 -35 7 6
41 7 41 -33 -6 -32 -7 -19 0 -19 0 0 -12 0 -13 -9 -13 -8 -13 -25 6 -25 6 5
25 4 24 -41 0 -41 0 0 10 0 10 -20 0 -20 0 0 -18z"/>
</g>
</svg>
