<?xml version="1.0" standalone="no"?>
<!DOCTYPE svg PUBLIC "-//W3C//DTD SVG 20010904//EN"
 "http://www.w3.org/TR/2001/REC-SVG-20010904/DTD/svg10.dtd">
<svg version="1.0" xmlns="http://www.w3.org/2000/svg"
 width="41.000000pt" height="33.000000pt" viewBox="0 0 41.000000 33.000000"
 preserveAspectRatio="xMidYMid meet">
<metadata>
Created by potrace 1.16, written by Peter Selinger 2001-2019
</metadata>
<g transform="translate(0.000000,33.000000) scale(0.100000,-0.100000)"
fill="#000000" stroke="none">
<path d="M62 283 l0 -43 -15 -15 -16 -15 -15 0 -16 0 0 -15 0 -15 25 -12 25
-11 1 -26 2 -26 1 -20 1 -20 30 -3 30 -2 23 -5 22 -5 0 -20 0 -19 21 -6 21 -7
9 13 9 14 -5 23 -6 24 38 -2 38 -3 18 2 17 1 0 40 0 40 26 0 27 0 18 22 19 21
0 14 0 13 -17 2 -18 1 -20 1 -20 1 -3 54 -3 53 -17 -8 -17 -7 -37 -5 -38 -4 6
-9 5 -9 -6 -19 -6 -19 -25 -6 -26 -7 -20 23 -19 22 4 17 5 17 -38 4 -37 3 -1
-42z"/>
</g>
</svg>
