<?xml version="1.0" standalone="no"?>
<!DOCTYPE svg PUBLIC "-//W3C//DTD SVG 20010904//EN"
 "http://www.w3.org/TR/2001/REC-SVG-20010904/DTD/svg10.dtd">
<svg version="1.0" xmlns="http://www.w3.org/2000/svg"
 width="41.000000pt" height="29.000000pt" viewBox="0 0 41.000000 29.000000"
 preserveAspectRatio="xMidYMid meet">
<metadata>
Created by potrace 1.16, written by Peter Selinger 2001-2019
</metadata>
<g transform="translate(0.000000,29.000000) scale(0.100000,-0.100000)"
fill="#000000" stroke="none">
<path d="M342 284 l-2 -12 -46 6 -47 5 7 -11 7 -11 -7 -25 -6 -25 -20 -7 -20
-6 -9 13 -9 14 3 20 2 20 -46 5 -47 6 -9 -3 -9 -3 4 -40 4 -40 -30 0 -31 0
-15 -16 -16 -15 0 -15 0 -14 15 0 15 0 0 -11 0 -12 36 6 36 6 -7 -45 -6 -44
15 -15 15 -15 39 0 40 0 6 16 6 16 0 22 0 23 6 5 5 6 19 -5 18 -5 6 -29 6 -29
39 0 39 0 -5 44 -5 45 36 7 37 6 -3 22 -3 21 -22 -3 -22 -3 -6 23 -5 23 -3 45
-4 45 -1 -11z"/>
</g>
</svg>
