<?xml version="1.0" standalone="no"?>
<!DOCTYPE svg PUBLIC "-//W3C//DTD SVG 20010904//EN"
 "http://www.w3.org/TR/2001/REC-SVG-20010904/DTD/svg10.dtd">
<svg version="1.0" xmlns="http://www.w3.org/2000/svg"
 width="37.000000pt" height="35.000000pt" viewBox="0 0 37.000000 35.000000"
 preserveAspectRatio="xMidYMid meet">
<metadata>
Created by potrace 1.16, written by Peter Selinger 2001-2019
</metadata>
<g transform="translate(0.000000,35.000000) scale(0.100000,-0.100000)"
fill="#000000" stroke="none">
<path d="M87 343 l-7 -7 6 -34 7 -34 -14 -9 -14 -9 -32 0 -33 0 0 -29 0 -29 6
-16 6 -16 14 0 13 0 7 -35 6 -36 15 -14 14 -15 45 0 44 0 0 -24 0 -24 16 -6
16 -6 28 0 29 0 12 35 13 35 27 0 27 0 16 6 16 6 0 54 0 53 -35 7 -35 6 0 8 0
8 29 5 28 6 7 23 6 23 0 38 0 37 -138 0 -139 0 -6 -7z"/>
</g>
</svg>
