<?xml version="1.0" standalone="no"?>
<!DOCTYPE svg PUBLIC "-//W3C//DTD SVG 20010904//EN"
 "http://www.w3.org/TR/2001/REC-SVG-20010904/DTD/svg10.dtd">
<svg version="1.0" xmlns="http://www.w3.org/2000/svg"
 width="26.000000pt" height="34.000000pt" viewBox="0 0 26.000000 34.000000"
 preserveAspectRatio="xMidYMid meet">
<metadata>
Created by potrace 1.16, written by Peter Selinger 2001-2019
</metadata>
<g transform="translate(0.000000,34.000000) scale(0.100000,-0.100000)"
fill="#000000" stroke="none">
<path d="M14 331 l-4 -4 0 -41 0 -41 31 -1 31 -1 9 -14 9 -14 0 -12 0 -12 -34
-6 -34 -7 -7 -36 -6 -37 -5 -17 -5 -18 44 0 45 0 -5 -19 -5 -18 17 -17 16 -16
18 0 17 0 23 21 23 21 -5 19 -5 19 35 0 35 0 -6 31 -6 31 0 14 0 14 -16 0 -15
0 -15 14 -14 15 0 18 0 18 8 12 7 11 30 4 30 3 3 35 3 35 -46 -3 -46 -4 6 -19
6 -19 -15 -15 -15 -16 -26 7 -25 6 0 28 0 28 -41 4 -40 4 -5 -5z"/>
</g>
</svg>
