<?xml version="1.0" standalone="no"?>
<!DOCTYPE svg PUBLIC "-//W3C//DTD SVG 20010904//EN"
 "http://www.w3.org/TR/2001/REC-SVG-20010904/DTD/svg10.dtd">
<svg version="1.0" xmlns="http://www.w3.org/2000/svg"
 width="35.000000pt" height="33.000000pt" viewBox="0 0 35.000000 33.000000"
 preserveAspectRatio="xMidYMid meet">
<metadata>
Created by potrace 1.16, written by Peter Selinger 2001-2019
</metadata>
<g transform="translate(0.000000,33.000000) scale(0.100000,-0.100000)"
fill="#000000" stroke="none">
<path d="M89 323 l-1 -8 2 -34 2 -34 -14 -8 -13 -9 -32 0 -33 0 0 -19 0 -19 6
-16 6 -16 14 0 13 0 7 -35 6 -36 15 -14 14 -15 45 0 44 0 0 -24 0 -24 16 -6
16 -6 18 0 18 0 12 29 12 30 -7 11 -8 12 32 -7 31 -6 20 6 20 6 0 44 0 44 -35
7 -35 6 0 23 0 23 18 -4 17 -4 14 9 13 9 5 46 6 46 -132 0 -131 0 -1 -7z"/>
</g>
</svg>
