<?xml version="1.0" standalone="no"?>
<!DOCTYPE svg PUBLIC "-//W3C//DTD SVG 20010904//EN"
 "http://www.w3.org/TR/2001/REC-SVG-20010904/DTD/svg10.dtd">
<svg version="1.0" xmlns="http://www.w3.org/2000/svg"
 width="38.000000pt" height="36.000000pt" viewBox="0 0 38.000000 36.000000"
 preserveAspectRatio="xMidYMid meet">
<metadata>
Created by potrace 1.16, written by Peter Selinger 2001-2019
</metadata>
<g transform="translate(0.000000,36.000000) scale(0.100000,-0.100000)"
fill="#000000" stroke="none">
<path d="M60 349 l0 -10 10 6 10 6 0 5 0 4 -10 0 -10 0 0 -11z M75 330 l6 -10
-6 -30 -6 -29 -35 -7 -34 -6 0 -25 0 -26 39 6 40 5 6 -15 5 -16 -6 -48 -7 -49
36 0 35 0 -5 -18 -4 -18 19 -22 20 -23 26 7 25 6 6 19 6 19 -6 10 -6 10 30 0
29 0 15 6 14 5 -8 46 -9 46 2 3 3 2 35 9 35 9 3 26 3 26 -37 6 -36 7 6 41 7
40 -17 -6 -16 -6 -23 0 -23 0 -6 -25 -6 -25 -18 0 -17 0 -23 6 -23 7 5 23 6
24 -45 0 -46 0 6 -10z"/>
</g>
</svg>
