<?xml version="1.0" standalone="no"?>
<!DOCTYPE svg PUBLIC "-//W3C//DTD SVG 20010904//EN"
 "http://www.w3.org/TR/2001/REC-SVG-20010904/DTD/svg10.dtd">
<svg version="1.0" xmlns="http://www.w3.org/2000/svg"
 width="43.000000pt" height="31.000000pt" viewBox="0 0 43.000000 31.000000"
 preserveAspectRatio="xMidYMid meet">
<metadata>
Created by potrace 1.16, written by Peter Selinger 2001-2019
</metadata>
<g transform="translate(0.000000,31.000000) scale(0.100000,-0.100000)"
fill="#000000" stroke="none">
<path d="M298 303 l-47 -4 1 -30 1 -31 -14 -8 -13 -9 -5 4 -4 5 -1 27 -1 28
-54 7 -54 6 -13 -5 -14 -5 6 -39 7 -39 -31 0 -31 0 -15 -16 -16 -15 0 -25 0
-24 15 0 15 0 0 -10 0 -10 34 0 34 0 -5 -39 -5 -40 15 -15 16 -16 49 0 50 0 6
16 6 16 0 24 0 24 14 0 14 0 6 -30 6 -30 50 0 51 0 -6 44 -7 45 37 7 36 6 -3
32 -3 31 -20 0 -20 0 -7 10 -8 10 0 53 0 52 -12 -2 -13 -2 -47 -3z"/>
</g>
</svg>
