<?xml version="1.0" standalone="no"?>
<!DOCTYPE svg PUBLIC "-//W3C//DTD SVG 20010904//EN"
 "http://www.w3.org/TR/2001/REC-SVG-20010904/DTD/svg10.dtd">
<svg version="1.0" xmlns="http://www.w3.org/2000/svg"
 width="41.000000pt" height="27.000000pt" viewBox="0 0 41.000000 27.000000"
 preserveAspectRatio="xMidYMid meet">
<metadata>
Created by potrace 1.16, written by Peter Selinger 2001-2019
</metadata>
<g transform="translate(0.000000,27.000000) scale(0.100000,-0.100000)"
fill="#000000" stroke="none">
<path d="M84 256 l-3 -11 1 -15 1 -15 -1 -27 -2 -28 -40 -6 -40 -7 0 -13 0
-14 25 0 24 0 10 -37 9 -38 4 -20 3 -20 34 -3 34 -3 23 5 24 6 0 36 0 35 18
-3 17 -3 -3 -22 -3 -21 32 -11 32 -11 21 0 22 0 -4 40 -4 39 23 5 24 5 20 3
20 3 3 28 3 28 -24 -6 -24 -6 -17 16 -16 16 0 35 0 34 -10 0 -9 0 -28 -12 -28
-13 -16 -17 -16 -18 -10 0 -10 0 -21 19 -22 18 0 16 0 15 -36 4 -36 4 -4 -10z"/>
</g>
</svg>
