<?xml version="1.0" standalone="no"?>
<!DOCTYPE svg PUBLIC "-//W3C//DTD SVG 20010904//EN"
 "http://www.w3.org/TR/2001/REC-SVG-20010904/DTD/svg10.dtd">
<svg version="1.0" xmlns="http://www.w3.org/2000/svg"
 width="37.000000pt" height="32.000000pt" viewBox="0 0 37.000000 32.000000"
 preserveAspectRatio="xMidYMid meet">
<metadata>
Created by potrace 1.16, written by Peter Selinger 2001-2019
</metadata>
<g transform="translate(0.000000,32.000000) scale(0.100000,-0.100000)"
fill="#000000" stroke="none">
<path d="M213 313 l-33 -4 0 -39 0 -38 -25 -6 -25 -6 -13 12 -13 12 4 22 4 22
-19 5 -18 5 -38 7 -38 6 3 -148 3 -148 34 -3 34 -3 22 5 22 6 6 30 7 30 10 0
10 0 0 -30 0 -29 19 -11 19 -10 53 10 53 10 7 12 8 13 6 37 7 38 24 6 24 6 0
32 0 31 -9 13 -8 14 -29 -4 -29 -3 -3 40 -3 40 -11 12 -10 13 -12 -2 -11 -1
-32 -4z"/>
</g>
</svg>
