<?xml version="1.0" standalone="no"?>
<!DOCTYPE svg PUBLIC "-//W3C//DTD SVG 20010904//EN"
 "http://www.w3.org/TR/2001/REC-SVG-20010904/DTD/svg10.dtd">
<svg version="1.0" xmlns="http://www.w3.org/2000/svg"
 width="35.000000pt" height="30.000000pt" viewBox="0 0 35.000000 30.000000"
 preserveAspectRatio="xMidYMid meet">
<metadata>
Created by potrace 1.16, written by Peter Selinger 2001-2019
</metadata>
<g transform="translate(0.000000,30.000000) scale(0.100000,-0.100000)"
fill="#000000" stroke="none">
<path d="M240 293 l0 -10 -30 5 -30 4 0 -40 0 -41 -35 -7 -34 -6 -16 16 -16
16 6 20 6 19 -28 6 -28 6 -18 4 -18 3 3 -136 3 -137 24 -3 23 -4 23 6 22 6 6
30 7 30 20 0 20 0 0 -30 0 -29 16 -9 16 -9 46 9 46 8 7 12 8 13 6 37 7 38 24
6 24 6 0 22 0 21 -8 12 -8 12 -29 -2 -30 -2 -3 42 -3 41 -15 12 -14 12 0 -9z"/>
</g>
</svg>
