<?xml version="1.0" standalone="no"?>
<!DOCTYPE svg PUBLIC "-//W3C//DTD SVG 20010904//EN"
 "http://www.w3.org/TR/2001/REC-SVG-20010904/DTD/svg10.dtd">
<svg version="1.0" xmlns="http://www.w3.org/2000/svg"
 width="42.000000pt" height="29.000000pt" viewBox="0 0 42.000000 29.000000"
 preserveAspectRatio="xMidYMid meet">
<metadata>
Created by potrace 1.16, written by Peter Selinger 2001-2019
</metadata>
<g transform="translate(0.000000,29.000000) scale(0.100000,-0.100000)"
fill="#000000" stroke="none">
<path d="M97 283 l-7 -6 0 -31 0 -31 -8 -12 -7 -11 -35 -4 -35 -3 -3 -37 -3
-36 30 -7 31 -7 1 -21 1 -22 -2 -19 -2 -19 14 -8 13 -9 37 0 37 0 26 12 25 11
1 31 2 31 4 -22 4 -21 31 -11 31 -11 33 0 34 0 0 28 0 27 8 10 7 10 28 13 28
12 -3 38 -3 37 -32 3 -33 3 0 45 0 44 -56 0 -56 0 7 -29 6 -29 -16 -15 -16
-16 -14 5 -15 6 -1 17 -1 16 1 16 2 16 -23 7 -23 6 -21 0 -21 0 -6 -7z"/>
</g>
</svg>
