<?xml version="1.0" standalone="no"?>
<!DOCTYPE svg PUBLIC "-//W3C//DTD SVG 20010904//EN"
 "http://www.w3.org/TR/2001/REC-SVG-20010904/DTD/svg10.dtd">
<svg version="1.0" xmlns="http://www.w3.org/2000/svg"
 width="40.000000pt" height="27.000000pt" viewBox="0 0 40.000000 27.000000"
 preserveAspectRatio="xMidYMid meet">
<metadata>
Created by potrace 1.16, written by Peter Selinger 2001-2019
</metadata>
<g transform="translate(0.000000,27.000000) scale(0.100000,-0.100000)"
fill="#000000" stroke="none">
<path d="M97 263 l-7 -6 0 -31 0 -31 -8 -12 -7 -11 -35 -4 -35 -3 -3 -27 -3
-26 29 -7 30 -6 6 -31 6 -30 -6 -10 -7 -10 14 -9 14 -9 27 0 27 0 26 12 25 11
0 29 0 28 19 0 19 0 -5 -19 -5 -18 33 -12 32 -11 23 0 24 0 0 28 0 27 8 10 7
10 28 13 28 12 -3 28 -3 27 -35 5 -35 5 3 43 4 42 -44 0 -45 0 5 -28 4 -29
-17 -16 -16 -17 -12 0 -12 0 -13 8 -13 9 -2 29 -2 29 -15 7 -15 7 -16 0 -16 1
-6 -7z"/>
</g>
</svg>
