<?xml version="1.0" standalone="no"?>
<!DOCTYPE svg PUBLIC "-//W3C//DTD SVG 20010904//EN"
 "http://www.w3.org/TR/2001/REC-SVG-20010904/DTD/svg10.dtd">
<svg version="1.0" xmlns="http://www.w3.org/2000/svg"
 width="29.000000pt" height="26.000000pt" viewBox="0 0 29.000000 26.000000"
 preserveAspectRatio="xMidYMid meet">
<metadata>
Created by potrace 1.16, written by Peter Selinger 2001-2019
</metadata>
<g transform="translate(0.000000,26.000000) scale(0.100000,-0.100000)"
fill="#000000" stroke="none">
<path d="M262 253 l-2 -11 -40 -7 -40 -7 0 -13 0 -13 -16 -6 -16 -6 -24 6 -24
6 0 24 0 24 -40 0 -40 0 0 -27 0 -28 8 -11 7 -11 38 -7 37 -7 0 -24 0 -24 -17
-16 -16 -17 -39 4 -38 4 6 -36 7 -35 4 -7 4 -8 123 0 124 0 11 44 11 45 0 4 0
4 -40 7 -40 6 0 23 0 22 9 14 9 14 16 -6 17 -7 5 14 5 14 -4 34 -4 33 -1 -12z"/>
</g>
</svg>
