<?xml version="1.0" standalone="no"?>
<!DOCTYPE svg PUBLIC "-//W3C//DTD SVG 20010904//EN"
 "http://www.w3.org/TR/2001/REC-SVG-20010904/DTD/svg10.dtd">
<svg version="1.0" xmlns="http://www.w3.org/2000/svg"
 width="31.000000pt" height="28.000000pt" viewBox="0 0 31.000000 28.000000"
 preserveAspectRatio="xMidYMid meet">
<metadata>
Created by potrace 1.16, written by Peter Selinger 2001-2019
</metadata>
<g transform="translate(0.000000,28.000000) scale(0.100000,-0.100000)"
fill="#000000" stroke="none">
<path d="M260 271 l0 -9 -40 -7 -40 -7 0 -13 0 -13 -12 -5 -13 -4 -17 5 -18 4
0 24 0 24 -50 0 -50 0 0 -37 0 -38 8 -11 7 -11 37 -7 38 -7 0 -14 0 -14 -17
-16 -16 -17 -40 6 -39 7 7 -48 7 -48 5 -7 4 -8 133 0 134 0 11 44 11 45 0 14
0 14 -40 7 -40 6 0 13 0 12 8 10 7 10 20 0 20 0 3 53 3 52 -15 0 -16 0 0 -9z"/>
</g>
</svg>
