<?xml version="1.0" standalone="no"?>
<!DOCTYPE svg PUBLIC "-//W3C//DTD SVG 20010904//EN"
 "http://www.w3.org/TR/2001/REC-SVG-20010904/DTD/svg10.dtd">
<svg version="1.0" xmlns="http://www.w3.org/2000/svg"
 width="37.000000pt" height="35.000000pt" viewBox="0 0 37.000000 35.000000"
 preserveAspectRatio="xMidYMid meet">
<metadata>
Created by potrace 1.16, written by Peter Selinger 2001-2019
</metadata>
<g transform="translate(0.000000,35.000000) scale(0.100000,-0.100000)"
fill="#000000" stroke="none">
<path d="M81 328 l2 -23 -8 -27 -7 -28 -34 0 -34 0 0 -35 0 -35 23 0 22 0 23
-6 23 -7 -3 -46 -3 -46 43 -3 42 -3 0 -19 0 -18 6 -16 6 -16 18 0 18 0 16 6
15 6 7 35 7 35 33 -7 34 -6 15 15 15 15 0 40 0 40 -35 7 -35 6 0 24 0 24 24 0
24 0 16 6 16 6 0 44 0 44 -65 0 -65 0 0 -24 0 -24 -15 -6 -15 -5 -8 32 -8 32
-58 3 -58 3 3 -23z"/>
</g>
</svg>
