<?xml version="1.0" standalone="no"?>
<!DOCTYPE svg PUBLIC "-//W3C//DTD SVG 20010904//EN"
 "http://www.w3.org/TR/2001/REC-SVG-20010904/DTD/svg10.dtd">
<svg version="1.0" xmlns="http://www.w3.org/2000/svg"
 width="35.000000pt" height="33.000000pt" viewBox="0 0 35.000000 33.000000"
 preserveAspectRatio="xMidYMid meet">
<metadata>
Created by potrace 1.16, written by Peter Selinger 2001-2019
</metadata>
<g transform="translate(0.000000,33.000000) scale(0.100000,-0.100000)"
fill="#000000" stroke="none">
<path d="M84 314 l6 -17 -12 -33 -12 -34 -33 0 -33 0 0 -25 0 -25 23 0 22 0
23 -7 24 -6 -4 -46 -3 -46 45 -5 45 -5 -2 -20 -3 -20 9 -14 9 -13 20 6 20 7 6
25 7 25 -7 11 -7 11 44 -5 45 -5 12 13 12 13 0 30 0 30 -35 7 -35 6 0 34 0 34
24 0 24 0 16 6 16 6 0 34 0 34 -55 0 -55 0 0 -24 0 -24 -16 -6 -16 -6 -9 0 -8
0 -9 33 -8 32 -48 3 -49 3 7 -17z"/>
</g>
</svg>
