<?xml version="1.0" standalone="no"?>
<!DOCTYPE svg PUBLIC "-//W3C//DTD SVG 20010904//EN"
 "http://www.w3.org/TR/2001/REC-SVG-20010904/DTD/svg10.dtd">
<svg version="1.0" xmlns="http://www.w3.org/2000/svg"
 width="43.000000pt" height="35.000000pt" viewBox="0 0 43.000000 35.000000"
 preserveAspectRatio="xMidYMid meet">
<metadata>
Created by potrace 1.16, written by Peter Selinger 2001-2019
</metadata>
<g transform="translate(0.000000,35.000000) scale(0.100000,-0.100000)"
fill="#000000" stroke="none">
<path d="M209 348 l-1 -3 -4 -29 -3 -29 -13 -8 -13 -9 -49 0 -48 0 6 -15 5
-15 -8 -24 -9 -23 -30 -6 -30 -6 -7 -21 -7 -21 24 -20 23 -21 32 5 32 6 -6
-50 -6 -49 46 0 46 0 7 23 6 22 10 11 9 12 19 -5 20 -5 0 -28 0 -28 17 -6 16
-7 33 11 33 11 -5 42 -6 42 32 1 32 1 9 14 9 14 0 12 0 12 -16 16 -16 16 -21
-7 -20 -6 7 40 6 40 -5 14 -6 14 -30 -4 -29 -4 -30 12 -30 12 0 24 0 24 -15 0
-15 0 -1 -2z"/>
</g>
</svg>
