<?xml version="1.0" standalone="no"?>
<!DOCTYPE svg PUBLIC "-//W3C//DTD SVG 20010904//EN"
 "http://www.w3.org/TR/2001/REC-SVG-20010904/DTD/svg10.dtd">
<svg version="1.0" xmlns="http://www.w3.org/2000/svg"
 width="31.000000pt" height="43.000000pt" viewBox="0 0 31.000000 43.000000"
 preserveAspectRatio="xMidYMid meet">
<metadata>
Created by potrace 1.16, written by Peter Selinger 2001-2019
</metadata>
<g transform="translate(0.000000,43.000000) scale(0.100000,-0.100000)"
fill="#000000" stroke="none">
<path d="M122 400 l5 -30 -20 -6 -19 -6 -44 7 -44 6 0 -43 0 -44 16 -23 17
-23 29 6 29 6 -3 -17 -3 -17 -31 -8 -31 -8 -7 -31 -6 -32 0 -23 0 -23 20 -6
20 -6 9 5 9 6 15 -6 15 -5 6 -34 7 -33 15 -6 16 -6 18 0 19 0 15 16 16 15 0
30 0 29 39 0 39 0 11 44 11 45 0 15 0 16 -27 0 -28 0 -21 6 -22 6 5 19 5 19
34 6 34 6 0 49 0 49 -9 0 -8 0 -33 -11 -32 -12 -9 14 -9 14 0 28 0 27 -36 0
-36 0 4 -30z"/>
</g>
</svg>
