<?xml version="1.0" standalone="no"?>
<!DOCTYPE svg PUBLIC "-//W3C//DTD SVG 20010904//EN"
 "http://www.w3.org/TR/2001/REC-SVG-20010904/DTD/svg10.dtd">
<svg version="1.0" xmlns="http://www.w3.org/2000/svg"
 width="29.000000pt" height="41.000000pt" viewBox="0 0 29.000000 41.000000"
 preserveAspectRatio="xMidYMid meet">
<metadata>
Created by potrace 1.16, written by Peter Selinger 2001-2019
</metadata>
<g transform="translate(0.000000,41.000000) scale(0.100000,-0.100000)"
fill="#000000" stroke="none">
<path d="M125 380 l6 -29 -26 -7 -26 -6 -40 5 -39 5 0 -32 0 -32 15 -21 16
-22 30 6 31 6 -4 -29 -3 -28 -32 -8 -31 -8 -7 -41 -7 -41 13 -9 13 -8 8 5 8 5
28 -6 27 -6 1 -30 1 -31 14 -9 14 -9 12 0 12 0 16 17 17 16 -4 29 -5 28 43 0
42 0 11 44 11 45 0 4 0 4 -45 6 -46 5 -5 5 -5 5 7 26 6 25 34 7 34 6 0 38 0
37 -41 -11 -40 -10 -9 14 -10 15 0 28 0 27 -26 0 -26 0 7 -30z"/>
</g>
</svg>
