<?xml version="1.0" standalone="no"?>
<!DOCTYPE svg PUBLIC "-//W3C//DTD SVG 20010904//EN"
 "http://www.w3.org/TR/2001/REC-SVG-20010904/DTD/svg10.dtd">
<svg version="1.0" xmlns="http://www.w3.org/2000/svg"
 width="45.000000pt" height="37.000000pt" viewBox="0 0 45.000000 37.000000"
 preserveAspectRatio="xMidYMid meet">
<metadata>
Created by potrace 1.16, written by Peter Selinger 2001-2019
</metadata>
<g transform="translate(0.000000,37.000000) scale(0.100000,-0.100000)"
fill="#000000" stroke="none">
<path d="M207 363 l-7 -6 0 -28 0 -27 -16 -6 -16 -6 -43 0 -44 0 -3 -37 -3
-37 -29 -7 -29 -8 -8 -13 -9 -13 0 -19 0 -19 22 -18 21 -19 29 0 28 0 0 -45 0
-45 54 0 54 0 11 30 10 30 15 0 16 0 0 -30 0 -30 24 -6 25 -6 37 12 36 12 -6
38 -6 38 35 6 35 7 6 24 6 24 -7 21 -7 21 -29 6 -29 5 6 24 6 24 -6 26 -7 25
-30 -6 -30 -7 -30 12 -29 12 0 24 0 24 -23 0 -24 0 -6 -7z"/>
</g>
</svg>
