<?xml version="1.0" standalone="no"?>
<!DOCTYPE svg PUBLIC "-//W3C//DTD SVG 20010904//EN"
 "http://www.w3.org/TR/2001/REC-SVG-20010904/DTD/svg10.dtd">
<svg version="1.0" xmlns="http://www.w3.org/2000/svg"
 width="44.000000pt" height="36.000000pt" viewBox="0 0 44.000000 36.000000"
 preserveAspectRatio="xMidYMid meet">
<metadata>
Created by potrace 1.16, written by Peter Selinger 2001-2019
</metadata>
<g transform="translate(0.000000,36.000000) scale(0.100000,-0.100000)"
fill="#000000" stroke="none">
<path d="M190 332 l0 -29 -25 -11 -26 -12 -24 0 -25 0 0 -31 0 -30 -13 -14
-14 -13 -29 -4 -29 -3 -3 -26 -3 -27 25 -6 25 -6 10 -38 11 -37 0 -16 0 -17
16 -6 16 -6 35 0 34 0 15 14 14 15 0 21 0 21 9 -5 8 -6 6 -30 7 -30 47 0 48 0
22 6 22 6 6 32 6 31 5 18 5 17 10 0 10 0 15 14 14 15 0 18 0 18 -8 12 -7 11
-28 7 -27 7 0 39 0 39 -27 5 -28 6 -37 10 -36 9 5 20 5 20 -31 0 -31 0 0 -28z"/>
</g>
</svg>
