<?xml version="1.0" standalone="no"?>
<!DOCTYPE svg PUBLIC "-//W3C//DTD SVG 20010904//EN"
 "http://www.w3.org/TR/2001/REC-SVG-20010904/DTD/svg10.dtd">
<svg version="1.0" xmlns="http://www.w3.org/2000/svg"
 width="42.000000pt" height="34.000000pt" viewBox="0 0 42.000000 34.000000"
 preserveAspectRatio="xMidYMid meet">
<metadata>
Created by potrace 1.16, written by Peter Selinger 2001-2019
</metadata>
<g transform="translate(0.000000,34.000000) scale(0.100000,-0.100000)"
fill="#000000" stroke="none">
<path d="M190 312 l0 -29 -25 -11 -26 -12 -24 0 -25 0 0 -31 0 -30 -13 -14
-14 -13 -29 -4 -29 -3 -3 -16 -3 -17 25 -6 25 -6 10 -38 11 -37 0 -16 0 -17
16 -6 16 -6 25 0 24 0 15 15 15 15 -3 17 -3 18 19 0 20 0 8 -32 9 -33 37 0 37
0 22 6 22 6 6 32 6 31 5 18 5 17 10 0 10 0 15 15 15 15 -6 19 -6 20 -29 6 -30
7 0 39 0 39 -27 5 -28 6 -38 10 -39 10 5 20 5 19 -19 0 -19 0 0 -28z"/>
</g>
</svg>
