<?xml version="1.0" standalone="no"?>
<!DOCTYPE svg PUBLIC "-//W3C//DTD SVG 20010904//EN"
 "http://www.w3.org/TR/2001/REC-SVG-20010904/DTD/svg10.dtd">
<svg version="1.0" xmlns="http://www.w3.org/2000/svg"
 width="43.000000pt" height="35.000000pt" viewBox="0 0 43.000000 35.000000"
 preserveAspectRatio="xMidYMid meet">
<metadata>
Created by potrace 1.16, written by Peter Selinger 2001-2019
</metadata>
<g transform="translate(0.000000,35.000000) scale(0.100000,-0.100000)"
fill="#000000" stroke="none">
<path d="M206 335 l-6 -17 0 -24 0 -24 -26 -6 -25 -6 -41 5 -40 5 6 -20 5 -21
-6 -28 -6 -29 -22 0 -23 0 -12 -15 -12 -14 15 -16 16 -15 10 0 11 0 6 -28 6
-27 10 -27 10 -28 42 0 41 0 12 8 11 7 4 30 3 30 18 3 17 3 0 -24 0 -24 25
-11 26 -12 24 0 23 0 16 6 16 6 0 38 0 38 30 7 29 6 6 20 6 19 -15 15 -15 15
-26 0 -26 0 3 43 3 42 -35 3 -35 2 -22 5 -22 5 -3 32 -3 31 -11 4 -12 4 -6
-16z"/>
</g>
</svg>
