<?xml version="1.0" standalone="no"?>
<!DOCTYPE svg PUBLIC "-//W3C//DTD SVG 20010904//EN"
 "http://www.w3.org/TR/2001/REC-SVG-20010904/DTD/svg10.dtd">
<svg version="1.0" xmlns="http://www.w3.org/2000/svg"
 width="39.000000pt" height="39.000000pt" viewBox="0 0 39.000000 39.000000"
 preserveAspectRatio="xMidYMid meet">
<metadata>
Created by potrace 1.16, written by Peter Selinger 2001-2019
</metadata>
<g transform="translate(0.000000,39.000000) scale(0.100000,-0.100000)"
fill="#000000" stroke="none">
<path d="M168 384 l-7 -6 6 -14 5 -13 -17 -17 -16 -16 -40 5 -39 5 0 -9 0 -9
11 0 11 0 -7 -32 -6 -33 -6 -18 -5 -18 -29 6 -29 7 0 -21 0 -21 19 0 19 0 16
-6 16 -6 0 -54 0 -54 40 0 40 0 0 -24 0 -24 24 -6 24 -6 16 6 16 6 0 13 0 13
41 7 41 7 -6 51 -7 50 13 8 13 9 26 0 27 0 6 16 6 16 0 3 0 3 -27 7 -28 7 -7
11 -8 12 0 40 0 40 -45 -3 -44 -4 -13 14 -13 13 0 20 0 20 -15 3 -16 3 -6 -7z"/>
</g>
</svg>
