<?xml version="1.0" standalone="no"?>
<!DOCTYPE svg PUBLIC "-//W3C//DTD SVG 20010904//EN"
 "http://www.w3.org/TR/2001/REC-SVG-20010904/DTD/svg10.dtd">
<svg version="1.0" xmlns="http://www.w3.org/2000/svg"
 width="41.000000pt" height="41.000000pt" viewBox="0 0 41.000000 41.000000"
 preserveAspectRatio="xMidYMid meet">
<metadata>
Created by potrace 1.16, written by Peter Selinger 2001-2019
</metadata>
<g transform="translate(0.000000,41.000000) scale(0.100000,-0.100000)"
fill="#000000" stroke="none">
<path d="M164 395 l-6 -16 5 -6 6 -5 -15 -15 -14 -15 -40 7 -40 7 0 -21 0 -21
10 0 9 0 -3 -12 -4 -13 -6 -26 -6 -26 -30 5 -30 4 0 -31 0 -31 19 0 19 0 16
-6 16 -6 0 -54 0 -54 40 0 40 0 0 -24 0 -24 30 -7 30 -6 20 6 20 6 0 14 0 13
41 7 42 7 -6 53 -5 53 15 6 15 6 23 0 23 0 6 16 6 16 0 13 0 13 -27 7 -28 7
-7 11 -8 12 0 42 0 42 -49 -6 -50 -6 -8 34 -9 34 -27 3 -27 3 -6 -16z"/>
</g>
</svg>
