<?xml version="1.0" standalone="no"?>
<!DOCTYPE svg PUBLIC "-//W3C//DTD SVG 20010904//EN"
 "http://www.w3.org/TR/2001/REC-SVG-20010904/DTD/svg10.dtd">
<svg version="1.0" xmlns="http://www.w3.org/2000/svg"
 width="45.000000pt" height="37.000000pt" viewBox="0 0 45.000000 37.000000"
 preserveAspectRatio="xMidYMid meet">
<metadata>
Created by potrace 1.16, written by Peter Selinger 2001-2019
</metadata>
<g transform="translate(0.000000,37.000000) scale(0.100000,-0.100000)"
fill="#000000" stroke="none">
<path d="M206 355 l-6 -17 0 -23 0 -24 -21 -6 -21 -7 -45 7 -45 6 2 -28 2 -28
-1 -22 -1 -23 -23 0 -23 0 -12 -12 -12 -12 0 -14 0 -13 14 -15 15 -14 10 0 11
0 6 -28 6 -27 10 -27 10 -28 48 0 48 0 16 6 16 6 0 28 0 29 10 6 10 6 0 -24 0
-24 25 -11 26 -12 34 0 33 0 16 6 16 6 0 38 0 38 27 7 28 7 7 11 8 12 0 18 0
18 -14 15 -15 14 -25 0 -25 0 2 43 2 42 -35 3 -35 2 -22 5 -22 5 -3 33 -3 32
-21 3 -21 3 -7 -16z"/>
</g>
</svg>
