<?xml version="1.0" standalone="no"?>
<!DOCTYPE svg PUBLIC "-//W3C//DTD SVG 20010904//EN"
 "http://www.w3.org/TR/2001/REC-SVG-20010904/DTD/svg10.dtd">
<svg version="1.0" xmlns="http://www.w3.org/2000/svg"
 width="45.000000pt" height="38.000000pt" viewBox="0 0 45.000000 38.000000"
 preserveAspectRatio="xMidYMid meet">
<metadata>
Created by potrace 1.16, written by Peter Selinger 2001-2019
</metadata>
<g transform="translate(0.000000,38.000000) scale(0.100000,-0.100000)"
fill="#000000" stroke="none">
<path d="M190 351 l0 -29 -6 -16 -6 -16 -34 0 -34 0 0 10 0 10 -15 0 -15 0 2
-39 1 -39 -16 -16 -16 -16 -20 0 -21 0 -6 -25 -6 -25 6 -15 5 -15 20 0 21 0 7
-28 7 -27 -2 -20 -1 -19 12 -8 12 -8 50 0 50 0 14 9 14 9 -5 26 -5 26 13 0 14
0 0 -24 0 -24 6 -16 6 -16 25 0 26 0 39 12 39 12 -6 48 -7 48 31 0 31 0 0 10
0 10 15 0 15 0 0 33 0 34 -25 11 -26 12 -14 0 -14 0 -3 33 -3 32 -25 -1 -25
-2 -22 -7 -22 -7 -6 26 -5 26 -5 25 -5 25 -30 0 -30 0 0 -29z"/>
</g>
</svg>
