<?xml version="1.0" standalone="no"?>
<!DOCTYPE svg PUBLIC "-//W3C//DTD SVG 20010904//EN"
 "http://www.w3.org/TR/2001/REC-SVG-20010904/DTD/svg10.dtd">
<svg version="1.0" xmlns="http://www.w3.org/2000/svg"
 width="43.000000pt" height="36.000000pt" viewBox="0 0 43.000000 36.000000"
 preserveAspectRatio="xMidYMid meet">
<metadata>
Created by potrace 1.16, written by Peter Selinger 2001-2019
</metadata>
<g transform="translate(0.000000,36.000000) scale(0.100000,-0.100000)"
fill="#000000" stroke="none">
<path d="M192 328 l5 -32 -13 -13 -13 -13 -39 0 -40 0 -5 13 -4 12 1 -41 1
-41 -17 -16 -17 -17 -20 0 -20 0 -6 -20 -6 -20 6 -10 6 -10 19 0 19 0 11 -40
11 -40 -5 -9 -6 -9 16 -6 16 -6 36 0 37 0 13 9 13 8 -7 26 -6 27 26 0 26 0 0
-24 0 -24 6 -16 6 -16 15 0 16 0 38 11 38 12 -6 48 -6 49 32 0 31 0 0 10 0 10
15 0 15 0 0 23 0 24 -25 11 -26 12 -17 0 -17 0 0 33 0 32 -20 -3 -20 -3 -27
-6 -27 -5 -6 28 -6 29 -5 23 -4 22 -21 0 -21 0 4 -32z"/>
</g>
</svg>
