<?xml version="1.0" standalone="no"?>
<!DOCTYPE svg PUBLIC "-//W3C//DTD SVG 20010904//EN"
 "http://www.w3.org/TR/2001/REC-SVG-20010904/DTD/svg10.dtd">
<svg version="1.0" xmlns="http://www.w3.org/2000/svg"
 width="43.000000pt" height="39.000000pt" viewBox="0 0 43.000000 39.000000"
 preserveAspectRatio="xMidYMid meet">
<metadata>
Created by potrace 1.16, written by Peter Selinger 2001-2019
</metadata>
<g transform="translate(0.000000,39.000000) scale(0.100000,-0.100000)"
fill="#000000" stroke="none">
<path d="M192 376 l-10 -11 -6 -22 -7 -23 -42 0 -42 0 0 -45 0 -46 -15 -9 -15
-10 -28 0 -28 0 3 -17 3 -18 40 -3 40 -3 8 -12 8 -12 -6 -42 -6 -43 41 0 40 0
-6 -24 -5 -23 23 -7 23 -6 17 0 18 0 6 25 6 25 22 0 21 0 24 7 23 6 -6 49 -7
50 11 -7 11 -7 34 6 33 7 6 25 7 26 -18 13 -18 14 -22 -6 -23 -5 0 45 0 46 -9
5 -9 6 -27 -10 -28 -11 -18 6 -19 6 0 29 0 28 -20 5 -19 5 -9 -12z"/>
</g>
</svg>
