<?xml version="1.0" standalone="no"?>
<!DOCTYPE svg PUBLIC "-//W3C//DTD SVG 20010904//EN"
 "http://www.w3.org/TR/2001/REC-SVG-20010904/DTD/svg10.dtd">
<svg version="1.0" xmlns="http://www.w3.org/2000/svg"
 width="38.000000pt" height="43.000000pt" viewBox="0 0 38.000000 43.000000"
 preserveAspectRatio="xMidYMid meet">
<metadata>
Created by potrace 1.16, written by Peter Selinger 2001-2019
</metadata>
<g transform="translate(0.000000,43.000000) scale(0.100000,-0.100000)"
fill="#000000" stroke="none">
<path d="M200 396 l0 -35 -21 -6 -21 -7 -45 7 -46 7 7 -46 7 -46 -26 0 -26 0
-15 -14 -14 -15 0 -35 0 -35 23 -7 22 -7 7 -11 8 -11 0 -18 0 -18 14 -14 13
-14 49 -3 48 -3 8 -32 9 -33 18 0 19 0 16 6 16 6 0 24 0 24 49 0 49 0 6 16 6
16 0 49 0 49 -30 0 -30 0 0 20 0 20 24 0 24 0 6 16 6 16 0 49 0 49 -34 0 -33
0 -30 10 -30 11 1 22 1 22 -27 3 -28 3 0 -35z"/>
</g>
</svg>
