<?xml version="1.0" standalone="no"?>
<!DOCTYPE svg PUBLIC "-//W3C//DTD SVG 20010904//EN"
 "http://www.w3.org/TR/2001/REC-SVG-20010904/DTD/svg10.dtd">
<svg version="1.0" xmlns="http://www.w3.org/2000/svg"
 width="45.000000pt" height="44.000000pt" viewBox="0 0 45.000000 44.000000"
 preserveAspectRatio="xMidYMid meet">
<metadata>
Created by potrace 1.16, written by Peter Selinger 2001-2019
</metadata>
<g transform="translate(0.000000,44.000000) scale(0.100000,-0.100000)"
fill="#000000" stroke="none">
<path d="M197 433 l-7 -6 0 -23 0 -22 -6 -16 -6 -16 -34 0 -34 0 0 10 0 10
-14 0 -14 0 -6 -16 -6 -16 0 -34 0 -34 -21 0 -20 0 -15 -14 -14 -15 0 -18 0
-18 8 -12 7 -11 28 -7 27 -7 0 -43 0 -43 23 -6 22 -6 28 0 27 0 0 -30 0 -29
35 -7 34 -6 16 15 15 16 0 20 0 21 28 0 27 0 23 6 22 6 0 43 0 42 40 7 40 6 0
29 0 29 -6 16 -6 16 -34 0 -34 0 0 50 0 50 -50 0 -50 0 -6 29 -6 29 -22 6 -21
6 -6 0 -6 0 -6 -7z"/>
</g>
</svg>
