<?xml version="1.0" standalone="no"?>
<!DOCTYPE svg PUBLIC "-//W3C//DTD SVG 20010904//EN"
 "http://www.w3.org/TR/2001/REC-SVG-20010904/DTD/svg10.dtd">
<svg version="1.0" xmlns="http://www.w3.org/2000/svg"
 width="43.000000pt" height="42.000000pt" viewBox="0 0 43.000000 42.000000"
 preserveAspectRatio="xMidYMid meet">
<metadata>
Created by potrace 1.16, written by Peter Selinger 2001-2019
</metadata>
<g transform="translate(0.000000,42.000000) scale(0.100000,-0.100000)"
fill="#000000" stroke="none">
<path d="M196 412 l-6 -5 0 -23 0 -22 -6 -16 -6 -16 -44 0 -44 0 0 12 0 11 -7
-7 -7 -7 -6 -47 -5 -47 -18 3 -17 3 -16 -15 -15 -16 6 -19 6 -20 29 -6 30 -7
0 -43 0 -43 23 -6 22 -6 28 0 27 0 0 -29 0 -29 25 -6 26 -7 15 16 15 15 -6 20
-6 20 33 0 33 0 23 6 22 6 0 43 0 42 40 7 40 6 0 23 0 22 -9 13 -8 14 -29 -4
-29 -3 -3 53 -3 52 -48 0 -49 0 -8 18 -7 17 2 11 1 12 -19 5 -20 5 -5 -6z"/>
</g>
</svg>
