<?xml version="1.0" standalone="no"?>
<!DOCTYPE svg PUBLIC "-//W3C//DTD SVG 20010904//EN"
 "http://www.w3.org/TR/2001/REC-SVG-20010904/DTD/svg10.dtd">
<svg version="1.0" xmlns="http://www.w3.org/2000/svg"
 width="36.000000pt" height="41.000000pt" viewBox="0 0 36.000000 41.000000"
 preserveAspectRatio="xMidYMid meet">
<metadata>
Created by potrace 1.16, written by Peter Selinger 2001-2019
</metadata>
<g transform="translate(0.000000,41.000000) scale(0.100000,-0.100000)"
fill="#000000" stroke="none">
<path d="M200 376 l0 -36 -26 -6 -25 -6 -39 5 -39 5 6 -44 6 -44 -27 0 -27 0
-15 -14 -14 -15 0 -25 0 -25 23 -7 22 -7 7 -11 8 -11 0 -18 0 -18 14 -14 13
-14 49 -3 48 -3 8 -32 9 -33 8 0 9 0 16 6 16 6 0 24 0 24 49 0 49 0 6 16 6 16
0 39 0 39 -29 0 -29 0 -4 18 -5 17 4 13 5 12 23 0 23 0 6 16 6 16 0 39 0 39
-34 0 -33 0 -32 11 -32 11 3 21 3 22 -17 3 -18 3 0 -35z"/>
</g>
</svg>
