<?xml version="1.0" standalone="no"?>
<!DOCTYPE svg PUBLIC "-//W3C//DTD SVG 20010904//EN"
 "http://www.w3.org/TR/2001/REC-SVG-20010904/DTD/svg10.dtd">
<svg version="1.0" xmlns="http://www.w3.org/2000/svg"
 width="45.000000pt" height="41.000000pt" viewBox="0 0 45.000000 41.000000"
 preserveAspectRatio="xMidYMid meet">
<metadata>
Created by potrace 1.16, written by Peter Selinger 2001-2019
</metadata>
<g transform="translate(0.000000,41.000000) scale(0.100000,-0.100000)"
fill="#000000" stroke="none">
<path d="M192 398 l-10 -13 -6 -22 -7 -23 -44 0 -43 0 1 -45 2 -46 -15 -9 -15
-10 -28 0 -28 0 3 -27 3 -28 40 -3 40 -3 7 -12 7 -12 -6 -42 -6 -43 37 0 36 0
0 -24 0 -24 23 -6 22 -6 27 0 28 0 6 25 6 25 22 0 21 0 23 7 24 6 -4 43 -3 44
20 0 20 0 22 6 23 6 6 35 6 34 -18 15 -19 14 -22 -4 -23 -3 0 44 0 44 -15 5
-15 6 -27 -9 -28 -10 -12 4 -13 5 0 28 0 28 -22 6 -23 6 -6 0 -7 0 -10 -12z"/>
</g>
</svg>
