<?xml version="1.0" standalone="no"?>
<!DOCTYPE svg PUBLIC "-//W3C//DTD SVG 20010904//EN"
 "http://www.w3.org/TR/2001/REC-SVG-20010904/DTD/svg10.dtd">
<svg version="1.0" xmlns="http://www.w3.org/2000/svg"
 width="34.000000pt" height="35.000000pt" viewBox="0 0 34.000000 35.000000"
 preserveAspectRatio="xMidYMid meet">
<metadata>
Created by potrace 1.16, written by Peter Selinger 2001-2019
</metadata>
<g transform="translate(0.000000,35.000000) scale(0.100000,-0.100000)"
fill="#000000" stroke="none">
<path d="M244 341 l8 -12 -12 -30 -12 -29 -18 0 -18 0 -16 6 -16 6 0 24 0 24
-42 0 -43 0 -1 -40 -2 -39 -16 -16 -16 -16 -20 6 -20 6 0 -25 0 -26 28 0 27 0
14 -9 14 -9 -6 -40 -5 -41 15 -5 15 -6 24 0 24 0 0 -16 0 -17 22 -18 21 -19
10 0 10 0 16 18 16 19 48 18 47 18 0 8 0 9 -10 0 -10 0 0 35 0 35 -34 0 -34 0
-6 16 -6 16 0 18 0 18 16 6 16 6 18 0 18 0 6 16 6 16 0 34 0 34 -17 0 -18 0
-24 7 -24 6 7 -12z"/>
</g>
</svg>
