<?xml version="1.0" standalone="no"?>
<!DOCTYPE svg PUBLIC "-//W3C//DTD SVG 20010904//EN"
 "http://www.w3.org/TR/2001/REC-SVG-20010904/DTD/svg10.dtd">
<svg version="1.0" xmlns="http://www.w3.org/2000/svg"
 width="36.000000pt" height="37.000000pt" viewBox="0 0 36.000000 37.000000"
 preserveAspectRatio="xMidYMid meet">
<metadata>
Created by potrace 1.16, written by Peter Selinger 2001-2019
</metadata>
<g transform="translate(0.000000,37.000000) scale(0.100000,-0.100000)"
fill="#000000" stroke="none">
<path d="M241 352 l3 -17 -8 -22 -7 -23 -9 0 -8 0 -16 6 -16 6 0 24 0 24 -54
0 -53 0 0 -39 0 -39 -14 -14 -13 -14 -23 4 -23 4 0 -36 0 -36 28 0 27 0 14 -9
14 -9 -7 -37 -7 -38 13 -8 13 -9 28 0 27 0 0 -16 0 -17 22 -18 21 -19 20 0 20
0 16 18 16 19 48 18 47 18 0 18 0 19 -10 0 -10 0 0 35 0 35 -34 0 -35 0 -6 21
-7 21 13 9 14 9 22 0 23 0 4 23 5 22 5 40 6 41 -56 1 -55 1 2 -16z"/>
</g>
</svg>
