<?xml version="1.0" standalone="no"?>
<!DOCTYPE svg PUBLIC "-//W3C//DTD SVG 20010904//EN"
 "http://www.w3.org/TR/2001/REC-SVG-20010904/DTD/svg10.dtd">
<svg version="1.0" xmlns="http://www.w3.org/2000/svg"
 width="34.000000pt" height="29.000000pt" viewBox="0 0 34.000000 29.000000"
 preserveAspectRatio="xMidYMid meet">
<metadata>
Created by potrace 1.16, written by Peter Selinger 2001-2019
</metadata>
<g transform="translate(0.000000,29.000000) scale(0.100000,-0.100000)"
fill="#000000" stroke="none">
<path d="M155 268 l5 -23 -9 -14 -9 -13 -21 7 -21 6 0 19 0 18 -16 6 -16 6
-34 0 -34 0 0 -27 0 -28 9 -14 9 -13 22 7 22 7 9 -13 9 -14 0 -27 0 -28 -29 0
-28 0 -7 -46 -6 -47 0 -13 0 -14 41 0 40 0 13 13 13 13 -5 32 -4 32 21 0 21 0
5 -25 5 -25 5 -25 5 -25 20 0 19 0 26 12 25 11 0 44 0 43 25 0 25 0 0 10 0 10
15 0 15 0 0 23 0 22 -8 13 -8 12 -25 -2 -24 -3 -5 44 -5 45 -58 3 -57 3 5 -22z"/>
</g>
</svg>
