<?xml version="1.0" standalone="no"?>
<!DOCTYPE svg PUBLIC "-//W3C//DTD SVG 20010904//EN"
 "http://www.w3.org/TR/2001/REC-SVG-20010904/DTD/svg10.dtd">
<svg version="1.0" xmlns="http://www.w3.org/2000/svg"
 width="36.000000pt" height="31.000000pt" viewBox="0 0 36.000000 31.000000"
 preserveAspectRatio="xMidYMid meet">
<metadata>
Created by potrace 1.16, written by Peter Selinger 2001-2019
</metadata>
<g transform="translate(0.000000,31.000000) scale(0.100000,-0.100000)"
fill="#000000" stroke="none">
<path d="M150 288 l2 -23 -1 -12 -1 -12 -15 5 -15 6 0 18 0 18 -16 6 -16 6
-44 0 -44 0 0 -37 0 -38 9 -14 9 -14 25 5 26 5 5 -14 6 -15 0 -14 0 -14 -29 0
-28 0 -7 -46 -6 -47 0 -23 0 -24 51 0 50 0 15 15 16 15 -7 30 -7 30 11 0 11 0
5 -25 5 -25 5 -25 5 -25 30 0 29 0 26 12 25 11 0 44 0 43 25 0 25 0 0 10 0 10
15 0 15 0 0 29 0 29 -6 16 -6 16 -28 0 -29 0 -3 43 -3 42 -68 3 -69 3 2 -23z"/>
</g>
</svg>
