<?xml version="1.0" standalone="no"?>
<!DOCTYPE svg PUBLIC "-//W3C//DTD SVG 20010904//EN"
 "http://www.w3.org/TR/2001/REC-SVG-20010904/DTD/svg10.dtd">
<svg version="1.0" xmlns="http://www.w3.org/2000/svg"
 width="35.000000pt" height="27.000000pt" viewBox="0 0 35.000000 27.000000"
 preserveAspectRatio="xMidYMid meet">
<metadata>
Created by potrace 1.16, written by Peter Selinger 2001-2019
</metadata>
<g transform="translate(0.000000,27.000000) scale(0.100000,-0.100000)"
fill="#000000" stroke="none">
<path d="M237 252 l5 -20 -23 -21 -23 -21 -17 0 -18 0 -16 16 -17 17 5 18 5
19 -38 0 -38 0 5 -44 5 -45 -36 -7 -37 -6 3 -21 3 -21 33 -8 34 -9 -4 -50 -3
-49 37 0 36 0 16 6 16 6 0 27 0 26 9 14 9 14 11 -7 11 -7 0 -29 0 -28 16 -6
16 -6 35 0 36 0 18 22 19 21 0 23 0 24 -22 5 -23 5 -30 2 -30 3 -3 23 -3 22 8
1 8 1 28 2 28 2 10 14 9 15 -2 35 -3 35 -47 3 -47 3 6 -19z"/>
</g>
</svg>
