<?xml version="1.0" standalone="no"?>
<!DOCTYPE svg PUBLIC "-//W3C//DTD SVG 20010904//EN"
 "http://www.w3.org/TR/2001/REC-SVG-20010904/DTD/svg10.dtd">
<svg version="1.0" xmlns="http://www.w3.org/2000/svg"
 width="37.000000pt" height="29.000000pt" viewBox="0 0 37.000000 29.000000"
 preserveAspectRatio="xMidYMid meet">
<metadata>
Created by potrace 1.16, written by Peter Selinger 2001-2019
</metadata>
<g transform="translate(0.000000,29.000000) scale(0.100000,-0.100000)"
fill="#000000" stroke="none">
<path d="M233 270 l5 -21 -21 -19 -21 -20 -7 0 -8 0 -14 15 -15 15 5 20 5 20
-51 0 -52 0 6 -44 7 -45 -37 -7 -36 -6 3 -31 3 -31 34 -9 34 -8 -6 -50 -6 -49
49 0 48 0 16 6 16 6 0 28 0 29 10 6 10 6 0 -29 0 -30 16 -6 16 -6 45 0 46 0
18 22 19 21 0 33 0 34 -22 5 -23 5 -29 2 -29 3 -5 13 -4 12 30 0 31 0 16 16
16 16 -3 47 -3 46 -59 3 -59 3 6 -21z"/>
</g>
</svg>
