<?xml version="1.0" standalone="no"?>
<!DOCTYPE svg PUBLIC "-//W3C//DTD SVG 20010904//EN"
 "http://www.w3.org/TR/2001/REC-SVG-20010904/DTD/svg10.dtd">
<svg version="1.0" xmlns="http://www.w3.org/2000/svg"
 width="40.000000pt" height="27.000000pt" viewBox="0 0 40.000000 27.000000"
 preserveAspectRatio="xMidYMid meet">
<metadata>
Created by potrace 1.16, written by Peter Selinger 2001-2019
</metadata>
<g transform="translate(0.000000,27.000000) scale(0.100000,-0.100000)"
fill="#000000" stroke="none">
<path d="M78 234 l4 -36 -13 -9 -14 -9 -27 0 -28 0 0 -34 0 -34 36 -7 36 -6
-5 -44 -4 -44 20 -7 20 -6 38 12 39 13 0 29 0 28 20 0 20 0 0 -24 0 -24 6 -16
6 -16 45 0 45 0 -7 55 -6 54 23 5 23 5 20 3 20 3 3 28 3 28 -24 -6 -24 -6 -17
16 -16 16 0 30 0 29 -35 0 -35 0 -6 -25 -6 -24 -18 -6 -17 -5 -17 6 -16 6 0
23 0 23 -16 6 -16 6 -32 0 -32 0 4 -36z"/>
</g>
</svg>
