<?xml version="1.0" standalone="no"?>
<!DOCTYPE svg PUBLIC "-//W3C//DTD SVG 20010904//EN"
 "http://www.w3.org/TR/2001/REC-SVG-20010904/DTD/svg10.dtd">
<svg version="1.0" xmlns="http://www.w3.org/2000/svg"
 width="30.000000pt" height="29.000000pt" viewBox="0 0 30.000000 29.000000"
 preserveAspectRatio="xMidYMid meet">
<metadata>
Created by potrace 1.16, written by Peter Selinger 2001-2019
</metadata>
<g transform="translate(0.000000,29.000000) scale(0.100000,-0.100000)"
fill="#000000" stroke="none">
<path d="M3 245 l0 -45 18 0 18 0 26 -12 25 -11 0 -14 0 -13 -15 0 -15 0 0
-10 0 -10 -30 0 -30 0 0 -34 0 -33 6 -32 6 -31 48 0 48 0 16 6 16 6 0 29 0 29
10 0 10 0 0 -20 0 -19 41 -11 42 -11 23 5 24 6 0 49 0 49 -6 16 -6 16 -39 0
-38 0 5 15 6 15 32 0 31 0 14 9 13 9 -7 41 -7 41 -64 0 -64 0 0 -34 0 -34 -12
-4 -13 -5 -11 11 -11 11 4 12 5 11 -12 21 -11 21 -48 0 -48 0 0 -45z"/>
</g>
</svg>
