<?xml version="1.0" standalone="no"?>
<!DOCTYPE svg PUBLIC "-//W3C//DTD SVG 20010904//EN"
 "http://www.w3.org/TR/2001/REC-SVG-20010904/DTD/svg10.dtd">
<svg version="1.0" xmlns="http://www.w3.org/2000/svg"
 width="42.000000pt" height="29.000000pt" viewBox="0 0 42.000000 29.000000"
 preserveAspectRatio="xMidYMid meet">
<metadata>
Created by potrace 1.16, written by Peter Selinger 2001-2019
</metadata>
<g transform="translate(0.000000,29.000000) scale(0.100000,-0.100000)"
fill="#000000" stroke="none">
<path d="M76 254 l7 -36 -14 -9 -14 -9 -27 0 -28 0 0 -44 0 -44 36 -7 36 -6
-6 -43 -7 -44 16 -6 17 -6 21 0 21 0 33 12 33 12 0 28 0 28 10 0 10 0 0 -24 0
-24 6 -16 6 -16 55 0 56 0 -6 55 -6 55 22 5 22 4 20 3 20 3 3 39 3 39 -26 -5
-26 -5 -15 14 -14 14 0 30 0 29 -44 0 -45 0 -7 -22 -7 -23 -10 -7 -10 -6 -14
5 -13 5 0 23 0 23 -16 6 -16 6 -44 0 -45 0 7 -36z"/>
</g>
</svg>
