<?xml version="1.0" standalone="no"?>
<!DOCTYPE svg PUBLIC "-//W3C//DTD SVG 20010904//EN"
 "http://www.w3.org/TR/2001/REC-SVG-20010904/DTD/svg10.dtd">
<svg version="1.0" xmlns="http://www.w3.org/2000/svg"
 width="28.000000pt" height="27.000000pt" viewBox="0 0 28.000000 27.000000"
 preserveAspectRatio="xMidYMid meet">
<metadata>
Created by potrace 1.16, written by Peter Selinger 2001-2019
</metadata>
<g transform="translate(0.000000,27.000000) scale(0.100000,-0.100000)"
fill="#000000" stroke="none">
<path d="M5 235 l0 -35 17 0 17 0 26 -12 25 -11 0 -24 0 -23 -15 0 -15 0 0
-10 0 -10 -30 0 -30 0 0 -24 0 -24 6 -31 6 -31 38 0 38 0 16 6 16 6 0 35 0 35
16 -6 16 -6 4 0 4 0 0 -20 0 -19 39 -11 39 -10 16 6 16 6 0 42 0 41 -8 11 -7
11 -32 0 -33 0 -6 6 -6 5 7 21 6 21 32 0 32 0 13 8 12 8 -6 32 -7 32 -53 0
-54 0 0 -34 0 -35 -20 -6 -20 -6 -16 15 -16 16 5 13 4 12 -9 18 -9 17 -37 0
-37 0 0 -35z"/>
</g>
</svg>
