<?xml version="1.0" standalone="no"?>
<!DOCTYPE svg PUBLIC "-//W3C//DTD SVG 20010904//EN"
 "http://www.w3.org/TR/2001/REC-SVG-20010904/DTD/svg10.dtd">
<svg version="1.0" xmlns="http://www.w3.org/2000/svg"
 width="35.000000pt" height="28.000000pt" viewBox="0 0 35.000000 28.000000"
 preserveAspectRatio="xMidYMid meet">
<metadata>
Created by potrace 1.16, written by Peter Selinger 2001-2019
</metadata>
<g transform="translate(0.000000,28.000000) scale(0.100000,-0.100000)"
fill="#000000" stroke="none">
<path d="M75 268 l-3 -13 -7 -37 -6 -37 -19 -6 -20 -6 -10 6 -10 6 0 -24 0
-25 36 -7 36 -6 -4 -55 -5 -54 44 0 43 0 0 10 0 10 16 0 16 0 -6 25 -6 25 25
0 25 0 0 -24 0 -24 6 -16 6 -16 15 0 16 0 37 11 38 12 7 34 6 34 -6 20 -7 20
-31 -6 -32 -5 -14 9 -14 9 6 16 6 16 26 0 26 0 14 14 13 13 -5 42 -6 41 -124
0 -124 0 -4 -12z"/>
</g>
</svg>
