<?xml version="1.0" standalone="no"?>
<!DOCTYPE svg PUBLIC "-//W3C//DTD SVG 20010904//EN"
 "http://www.w3.org/TR/2001/REC-SVG-20010904/DTD/svg10.dtd">
<svg version="1.0" xmlns="http://www.w3.org/2000/svg"
 width="37.000000pt" height="30.000000pt" viewBox="0 0 37.000000 30.000000"
 preserveAspectRatio="xMidYMid meet">
<metadata>
Created by potrace 1.16, written by Peter Selinger 2001-2019
</metadata>
<g transform="translate(0.000000,30.000000) scale(0.100000,-0.100000)"
fill="#000000" stroke="none">
<path d="M75 288 l-3 -13 -7 -37 -6 -38 -12 -1 -12 -1 -17 1 -18 2 0 -34 0
-35 36 -7 37 -6 -7 -55 -6 -54 55 0 55 0 0 10 0 10 15 0 15 0 0 25 0 25 10 0
10 0 0 -24 0 -24 6 -16 6 -16 25 0 26 0 38 11 38 12 7 42 6 43 -7 22 -7 22
-32 -5 -31 -4 -13 4 -12 5 6 9 5 9 25 0 25 0 15 15 15 14 -7 51 -7 50 -134 0
-134 0 -4 -12z"/>
</g>
</svg>
