<?xml version="1.0" standalone="no"?>
<!DOCTYPE svg PUBLIC "-//W3C//DTD SVG 20010904//EN"
 "http://www.w3.org/TR/2001/REC-SVG-20010904/DTD/svg10.dtd">
<svg version="1.0" xmlns="http://www.w3.org/2000/svg"
 width="37.000000pt" height="38.000000pt" viewBox="0 0 37.000000 38.000000"
 preserveAspectRatio="xMidYMid meet">
<metadata>
Created by potrace 1.16, written by Peter Selinger 2001-2019
</metadata>
<g transform="translate(0.000000,38.000000) scale(0.100000,-0.100000)"
fill="#000000" stroke="none">
<path d="M6 334 l6 -49 4 -14 4 -13 25 4 24 5 5 -14 6 -15 0 -9 0 -9 -15 0
-15 0 0 -10 0 -10 -25 0 -25 0 0 -54 0 -55 43 -3 42 -3 3 -29 4 -29 13 -14 14
-13 14 0 15 0 16 6 16 6 0 34 0 34 43 0 42 0 14 9 14 9 -6 41 -5 41 18 0 19 0
26 12 25 11 0 38 0 37 -37 9 -38 9 -3 29 -4 30 -8 8 -8 9 -56 -13 -56 -14 0
-21 0 -22 -19 -5 -20 -5 -5 15 -6 15 0 24 0 24 -32 0 -33 0 -22 6 -23 6 6 -48z"/>
</g>
</svg>
