<?xml version="1.0" standalone="no"?>
<!DOCTYPE svg PUBLIC "-//W3C//DTD SVG 20010904//EN"
 "http://www.w3.org/TR/2001/REC-SVG-20010904/DTD/svg10.dtd">
<svg version="1.0" xmlns="http://www.w3.org/2000/svg"
 width="35.000000pt" height="36.000000pt" viewBox="0 0 35.000000 36.000000"
 preserveAspectRatio="xMidYMid meet">
<metadata>
Created by potrace 1.16, written by Peter Selinger 2001-2019
</metadata>
<g transform="translate(0.000000,36.000000) scale(0.100000,-0.100000)"
fill="#000000" stroke="none">
<path d="M12 308 l3 -43 24 3 25 2 8 -12 8 -13 0 -22 0 -23 -15 0 -15 0 0 -10
0 -10 -25 0 -25 0 0 -45 0 -45 40 0 39 0 9 -18 9 -17 -4 -12 -5 -13 16 -16 16
-15 20 6 20 6 0 35 0 34 43 0 42 0 13 9 14 8 -7 48 -8 47 21 -6 20 -7 26 12
26 12 0 28 0 27 -37 9 -38 9 -5 34 -5 35 -10 -1 -10 0 -42 -9 -43 -8 0 -22 0
-23 -27 -6 -26 -7 -8 13 -9 13 0 28 0 27 -41 0 -40 0 3 -42z"/>
</g>
</svg>
