<?xml version="1.0" standalone="no"?>
<!DOCTYPE svg PUBLIC "-//W3C//DTD SVG 20010904//EN"
 "http://www.w3.org/TR/2001/REC-SVG-20010904/DTD/svg10.dtd">
<svg version="1.0" xmlns="http://www.w3.org/2000/svg"
 width="34.000000pt" height="34.000000pt" viewBox="0 0 34.000000 34.000000"
 preserveAspectRatio="xMidYMid meet">
<metadata>
Created by potrace 1.16, written by Peter Selinger 2001-2019
</metadata>
<g transform="translate(0.000000,34.000000) scale(0.100000,-0.100000)"
fill="#000000" stroke="none">
<path d="M12 293 l3 -48 20 -1 20 -1 18 -1 17 -2 0 -13 0 -14 -19 -21 -18 -22
-27 0 -26 0 0 -39 0 -39 16 -6 16 -6 29 0 29 0 0 -27 0 -28 9 -13 8 -13 26 7
27 6 0 24 0 24 16 0 17 0 38 12 39 11 0 22 0 22 6 31 6 31 30 6 29 7 -3 21 -3
22 -35 3 -35 4 -7 11 -8 12 0 33 0 32 -46 0 -45 0 6 -10 6 -9 -7 -26 -6 -25
-28 0 -28 0 -6 16 -6 16 0 19 0 19 -41 0 -40 0 3 -47z"/>
</g>
</svg>
