<?xml version="1.0" standalone="no"?>
<!DOCTYPE svg PUBLIC "-//W3C//DTD SVG 20010904//EN"
 "http://www.w3.org/TR/2001/REC-SVG-20010904/DTD/svg10.dtd">
<svg version="1.0" xmlns="http://www.w3.org/2000/svg"
 width="41.000000pt" height="35.000000pt" viewBox="0 0 41.000000 35.000000"
 preserveAspectRatio="xMidYMid meet">
<metadata>
Created by potrace 1.16, written by Peter Selinger 2001-2019
</metadata>
<g transform="translate(0.000000,35.000000) scale(0.100000,-0.100000)"
fill="#000000" stroke="none">
<path d="M70 316 l0 -34 -6 -16 -6 -16 -23 0 -23 0 -6 -16 -6 -16 6 -24 6 -24
30 0 31 0 -6 -50 -6 -50 34 0 33 0 16 -6 16 -6 0 -23 0 -24 21 -6 20 -7 24 6
23 6 6 24 6 25 38 3 37 3 3 30 3 30 10 26 10 26 25 -5 24 -4 0 46 0 46 -40 0
-40 0 0 41 0 42 -37 -7 -38 -6 -19 0 -18 0 4 -23 4 -23 -12 -12 -13 -12 -15
16 -16 15 -1 12 -1 12 1 18 2 17 -50 0 -51 0 0 -34z"/>
</g>
</svg>
