<?xml version="1.0" standalone="no"?>
<!DOCTYPE svg PUBLIC "-//W3C//DTD SVG 20010904//EN"
 "http://www.w3.org/TR/2001/REC-SVG-20010904/DTD/svg10.dtd">
<svg version="1.0" xmlns="http://www.w3.org/2000/svg"
 width="36.000000pt" height="36.000000pt" viewBox="0 0 36.000000 36.000000"
 preserveAspectRatio="xMidYMid meet">
<metadata>
Created by potrace 1.16, written by Peter Selinger 2001-2019
</metadata>
<g transform="translate(0.000000,36.000000) scale(0.100000,-0.100000)"
fill="#000000" stroke="none">
<path d="M12 303 l3 -58 33 -2 34 -1 4 -5 4 -4 -19 -21 -18 -22 -27 0 -26 0 0
-49 0 -49 16 -6 16 -6 29 0 29 0 0 -27 0 -28 9 -14 9 -14 36 7 36 7 0 24 0 25
16 0 17 0 38 12 39 11 0 22 0 23 6 30 6 31 30 6 29 7 -3 31 -3 32 -35 3 -35 4
-7 11 -8 12 0 33 0 32 -56 0 -55 0 2 -17 1 -18 -1 -17 -1 -18 -19 0 -19 0 -6
16 -6 16 0 19 0 19 -50 0 -51 0 3 -57z"/>
</g>
</svg>
