<?xml version="1.0" standalone="no"?>
<!DOCTYPE svg PUBLIC "-//W3C//DTD SVG 20010904//EN"
 "http://www.w3.org/TR/2001/REC-SVG-20010904/DTD/svg10.dtd">
<svg version="1.0" xmlns="http://www.w3.org/2000/svg"
 width="39.000000pt" height="33.000000pt" viewBox="0 0 39.000000 33.000000"
 preserveAspectRatio="xMidYMid meet">
<metadata>
Created by potrace 1.16, written by Peter Selinger 2001-2019
</metadata>
<g transform="translate(0.000000,33.000000) scale(0.100000,-0.100000)"
fill="#000000" stroke="none">
<path d="M70 296 l0 -34 -6 -16 -6 -16 -23 0 -23 0 -5 -12 -4 -13 5 -17 4 -18
30 0 30 0 -4 -50 -3 -50 32 0 31 0 16 -6 16 -6 0 -23 0 -23 16 -6 17 -6 17 5
18 6 6 24 6 24 38 3 37 3 3 30 3 30 11 28 11 28 24 -5 23 -6 0 35 0 35 -40 0
-40 0 0 41 0 41 -22 -6 -23 -6 -23 0 -23 0 6 -20 6 -20 -15 -16 -16 -15 -19 6
-19 6 -12 29 -12 29 7 10 6 11 -40 0 -41 0 0 -34z"/>
</g>
</svg>
