<?xml version="1.0" standalone="no"?>
<!DOCTYPE svg PUBLIC "-//W3C//DTD SVG 20010904//EN"
 "http://www.w3.org/TR/2001/REC-SVG-20010904/DTD/svg10.dtd">
<svg version="1.0" xmlns="http://www.w3.org/2000/svg"
 width="37.000000pt" height="42.000000pt" viewBox="0 0 37.000000 42.000000"
 preserveAspectRatio="xMidYMid meet">
<metadata>
Created by potrace 1.16, written by Peter Selinger 2001-2019
</metadata>
<g transform="translate(0.000000,42.000000) scale(0.100000,-0.100000)"
fill="#000000" stroke="none">
<path d="M117 413 l-4 -8 -7 -27 -6 -28 -45 0 -45 0 0 -39 0 -40 16 -16 17
-16 24 6 24 6 -3 -28 -3 -28 -20 -3 -20 -3 -23 -5 -22 -4 0 -28 0 -28 20 -17
20 -17 36 0 35 0 -6 -11 -7 -10 12 -29 12 -29 19 -6 19 -6 16 15 15 16 -6 19
-5 18 45 7 46 6 13 13 13 13 7 47 7 47 30 0 29 0 0 25 0 25 -40 6 -40 7 0 38
0 38 -8 5 -8 5 -44 -10 -43 -10 -8 13 -9 13 0 33 0 32 -24 0 -25 0 -4 -7z"/>
</g>
</svg>
