<?xml version="1.0" standalone="no"?>
<!DOCTYPE svg PUBLIC "-//W3C//DTD SVG 20010904//EN"
 "http://www.w3.org/TR/2001/REC-SVG-20010904/DTD/svg10.dtd">
<svg version="1.0" xmlns="http://www.w3.org/2000/svg"
 width="45.000000pt" height="35.000000pt" viewBox="0 0 45.000000 35.000000"
 preserveAspectRatio="xMidYMid meet">
<metadata>
Created by potrace 1.16, written by Peter Selinger 2001-2019
</metadata>
<g transform="translate(0.000000,35.000000) scale(0.100000,-0.100000)"
fill="#000000" stroke="none">
<path d="M177 343 l-7 -6 0 -28 0 -28 -20 -6 -19 -6 -36 7 -35 6 0 -41 0 -41
-24 0 -24 0 -6 -16 -6 -16 0 -29 0 -29 39 -6 39 -6 -9 -32 -9 -31 0 -17 0 -18
155 0 155 0 0 31 0 30 10 20 11 19 24 0 23 0 7 30 7 31 -12 14 -11 14 -32 3
-32 3 -3 43 -3 43 -35 -7 -36 -7 -23 13 -24 13 5 9 5 8 -6 20 -6 20 -28 0 -28
0 -6 -7z"/>
</g>
</svg>
