<?xml version="1.0" standalone="no"?>
<!DOCTYPE svg PUBLIC "-//W3C//DTD SVG 20010904//EN"
 "http://www.w3.org/TR/2001/REC-SVG-20010904/DTD/svg10.dtd">
<svg version="1.0" xmlns="http://www.w3.org/2000/svg"
 width="39.000000pt" height="44.000000pt" viewBox="0 0 39.000000 44.000000"
 preserveAspectRatio="xMidYMid meet">
<metadata>
Created by potrace 1.16, written by Peter Selinger 2001-2019
</metadata>
<g transform="translate(0.000000,44.000000) scale(0.100000,-0.100000)"
fill="#000000" stroke="none">
<path d="M117 433 l-4 -8 -7 -27 -6 -28 -45 0 -45 0 0 -49 0 -50 16 -15 15
-16 26 0 25 0 -4 -12 -5 -13 -19 -3 -19 -3 -23 -5 -22 -4 0 -38 0 -38 20 -17
20 -17 29 0 29 0 5 -29 6 -29 16 -16 16 -16 20 0 20 0 15 14 14 15 0 19 0 19
41 7 41 7 13 12 12 13 7 47 7 47 30 0 29 0 0 35 0 35 -40 6 -40 7 0 39 0 39
-13 5 -14 5 -41 -9 -41 -10 -5 15 -6 15 0 29 0 29 -34 0 -35 0 -4 -7z"/>
</g>
</svg>
