<?xml version="1.0" standalone="no"?>
<!DOCTYPE svg PUBLIC "-//W3C//DTD SVG 20010904//EN"
 "http://www.w3.org/TR/2001/REC-SVG-20010904/DTD/svg10.dtd">
<svg version="1.0" xmlns="http://www.w3.org/2000/svg"
 width="43.000000pt" height="33.000000pt" viewBox="0 0 43.000000 33.000000"
 preserveAspectRatio="xMidYMid meet">
<metadata>
Created by potrace 1.16, written by Peter Selinger 2001-2019
</metadata>
<g transform="translate(0.000000,33.000000) scale(0.100000,-0.100000)"
fill="#000000" stroke="none">
<path d="M179 328 l-1 -3 -4 -29 -3 -29 -13 -9 -13 -9 -42 4 -42 4 -3 -41 -3
-41 -19 3 -19 4 -8 -14 -9 -13 0 -22 0 -23 41 -6 40 -7 -5 -23 -6 -24 -6 -25
-6 -25 146 0 146 0 0 31 0 30 10 20 11 19 23 0 24 0 5 22 6 22 -10 12 -10 13
-32 3 -32 3 -3 40 -3 41 -35 -4 -36 -4 -24 13 -25 13 2 15 1 16 -1 13 -1 12
-20 0 -20 0 -1 -2z"/>
</g>
</svg>
