<?xml version="1.0" standalone="no"?>
<!DOCTYPE svg PUBLIC "-//W3C//DTD SVG 20010904//EN"
 "http://www.w3.org/TR/2001/REC-SVG-20010904/DTD/svg10.dtd">
<svg version="1.0" xmlns="http://www.w3.org/2000/svg"
 width="38.000000pt" height="36.000000pt" viewBox="0 0 38.000000 36.000000"
 preserveAspectRatio="xMidYMid meet">
<metadata>
Created by potrace 1.16, written by Peter Selinger 2001-2019
</metadata>
<g transform="translate(0.000000,36.000000) scale(0.100000,-0.100000)"
fill="#000000" stroke="none">
<path d="M210 326 l0 -35 -21 -6 -21 -7 -44 7 -44 6 0 -39 0 -40 -35 -6 -34
-7 -7 -35 -6 -35 5 -6 6 -5 44 -5 44 -5 -11 -45 -10 -45 15 -9 14 -9 27 0 27
0 25 11 25 12 6 28 7 29 34 0 34 0 6 25 6 25 -5 15 -6 14 29 -5 29 -6 16 15
15 16 0 60 0 60 -32 -1 -33 -1 -22 7 -23 7 0 19 0 18 -16 6 -16 6 -14 0 -14 0
0 -34z"/>
</g>
</svg>
