<?xml version="1.0" standalone="no"?>
<!DOCTYPE svg PUBLIC "-//W3C//DTD SVG 20010904//EN"
 "http://www.w3.org/TR/2001/REC-SVG-20010904/DTD/svg10.dtd">
<svg version="1.0" xmlns="http://www.w3.org/2000/svg"
 width="36.000000pt" height="34.000000pt" viewBox="0 0 36.000000 34.000000"
 preserveAspectRatio="xMidYMid meet">
<metadata>
Created by potrace 1.16, written by Peter Selinger 2001-2019
</metadata>
<g transform="translate(0.000000,34.000000) scale(0.100000,-0.100000)"
fill="#000000" stroke="none">
<path d="M210 305 l0 -35 -26 -6 -25 -6 -40 5 -39 5 0 -38 0 -38 -34 -6 -34
-7 -6 -25 -7 -26 5 -5 5 -5 46 -6 46 -5 -6 -26 -6 -26 -6 -22 -5 -22 26 -7 26
-6 30 12 30 12 6 33 6 33 36 -5 35 -6 -7 11 -7 12 11 0 12 0 -7 31 -7 32 32
-6 32 -7 14 14 14 15 0 51 0 52 -16 -6 -16 -6 -39 10 -39 11 0 18 0 19 -16 6
-16 6 -4 0 -4 0 0 -35z"/>
</g>
</svg>
