<?xml version="1.0" standalone="no"?>
<!DOCTYPE svg PUBLIC "-//W3C//DTD SVG 20010904//EN"
 "http://www.w3.org/TR/2001/REC-SVG-20010904/DTD/svg10.dtd">
<svg version="1.0" xmlns="http://www.w3.org/2000/svg"
 width="36.000000pt" height="41.000000pt" viewBox="0 0 36.000000 41.000000"
 preserveAspectRatio="xMidYMid meet">
<metadata>
Created by potrace 1.16, written by Peter Selinger 2001-2019
</metadata>
<g transform="translate(0.000000,41.000000) scale(0.100000,-0.100000)"
fill="#000000" stroke="none">
<path d="M203 404 l-12 -5 6 -14 5 -14 -16 -17 -17 -16 -44 4 -44 3 -3 -35 -3
-35 -30 -3 -30 -4 -7 -11 -8 -12 0 -18 0 -18 14 -15 15 -14 14 0 15 0 6 -44 7
-44 15 -6 16 -6 39 0 39 0 0 -24 0 -24 6 -16 6 -16 20 0 19 0 16 16 16 16 1
29 1 29 38 0 38 0 -6 10 -6 10 10 0 11 0 0 23 0 22 -8 12 -7 11 -28 7 -28 7 3
26 3 26 38 9 37 9 0 43 0 42 -50 -5 -49 -4 -7 28 -7 29 -11 7 -11 8 -5 -1 -5
-1 -12 -4z"/>
</g>
</svg>
