<?xml version="1.0" standalone="no"?>
<!DOCTYPE svg PUBLIC "-//W3C//DTD SVG 20010904//EN"
 "http://www.w3.org/TR/2001/REC-SVG-20010904/DTD/svg10.dtd">
<svg version="1.0" xmlns="http://www.w3.org/2000/svg"
 width="38.000000pt" height="43.000000pt" viewBox="0 0 38.000000 43.000000"
 preserveAspectRatio="xMidYMid meet">
<metadata>
Created by potrace 1.16, written by Peter Selinger 2001-2019
</metadata>
<g transform="translate(0.000000,43.000000) scale(0.100000,-0.100000)"
fill="#000000" stroke="none">
<path d="M201 421 l-13 -9 4 -13 5 -14 -14 -14 -14 -14 -44 6 -44 6 -3 -37 -3
-37 -30 -3 -30 -4 -7 -11 -8 -12 0 -28 0 -28 14 -15 15 -14 14 0 15 0 6 -44 7
-44 15 -6 16 -6 39 0 39 0 0 -24 0 -24 6 -16 6 -16 30 0 29 0 15 14 14 15 6
30 7 31 32 0 33 0 6 16 6 16 0 26 0 27 -8 12 -7 11 -28 7 -28 7 3 16 3 16 38
9 37 9 0 54 0 55 -50 -7 -49 -6 -7 28 -7 29 -11 7 -11 8 -15 0 -15 0 -14 -9z"/>
</g>
</svg>
