<?xml version="1.0" standalone="no"?>
<!DOCTYPE svg PUBLIC "-//W3C//DTD SVG 20010904//EN"
 "http://www.w3.org/TR/2001/REC-SVG-20010904/DTD/svg10.dtd">
<svg version="1.0" xmlns="http://www.w3.org/2000/svg"
 width="32.000000pt" height="34.000000pt" viewBox="0 0 32.000000 34.000000"
 preserveAspectRatio="xMidYMid meet">
<metadata>
Created by potrace 1.16, written by Peter Selinger 2001-2019
</metadata>
<g transform="translate(0.000000,34.000000) scale(0.100000,-0.100000)"
fill="#000000" stroke="none">
<path d="M137 333 l-7 -6 0 -19 0 -19 -16 -16 -15 -15 -40 5 -39 5 0 -41 0
-42 8 -12 7 -11 28 -7 28 -7 -5 -15 -6 -15 0 -4 0 -4 -27 0 -28 0 -14 -9 -13
-9 7 -40 7 -41 34 -7 34 -6 24 6 25 6 3 33 3 32 23 3 22 3 1 -13 1 -13 -1 -13
-2 -14 18 -14 18 -13 33 -1 33 0 15 15 15 15 6 33 5 34 -23 6 -24 7 -22 0 -23
0 0 30 0 30 21 0 20 0 15 14 14 15 0 30 0 30 -9 5 -9 6 -31 -11 -31 -11 -26 6
-26 7 6 24 6 23 -6 16 -6 16 -12 0 -13 0 -6 -7z"/>
</g>
</svg>
