<?xml version="1.0" standalone="no"?>
<!DOCTYPE svg PUBLIC "-//W3C//DTD SVG 20010904//EN"
 "http://www.w3.org/TR/2001/REC-SVG-20010904/DTD/svg10.dtd">
<svg version="1.0" xmlns="http://www.w3.org/2000/svg"
 width="34.000000pt" height="36.000000pt" viewBox="0 0 34.000000 36.000000"
 preserveAspectRatio="xMidYMid meet">
<metadata>
Created by potrace 1.16, written by Peter Selinger 2001-2019
</metadata>
<g transform="translate(0.000000,36.000000) scale(0.100000,-0.100000)"
fill="#000000" stroke="none">
<path d="M137 353 l-7 -6 0 -19 0 -19 -15 -16 -15 -15 -40 7 -40 7 0 -54 0
-53 8 -11 7 -11 22 -7 23 -7 0 -10 0 -9 -27 0 -28 0 -14 -9 -14 -9 7 -48 6
-47 4 -5 4 -4 41 -5 40 -5 25 6 25 6 3 32 3 31 13 5 12 4 0 -28 0 -27 18 -13
17 -13 43 -1 43 0 16 16 16 15 4 43 5 43 -23 6 -24 7 -22 0 -23 0 0 20 0 20
21 0 20 0 15 14 14 15 0 41 0 41 -15 5 -14 6 -34 -11 -34 -12 -16 7 -16 6 6
14 5 14 -6 25 -6 25 -24 0 -23 0 -6 -7z"/>
</g>
</svg>
