<?xml version="1.0" standalone="no"?>
<!DOCTYPE svg PUBLIC "-//W3C//DTD SVG 20010904//EN"
 "http://www.w3.org/TR/2001/REC-SVG-20010904/DTD/svg10.dtd">
<svg version="1.0" xmlns="http://www.w3.org/2000/svg"
 width="37.000000pt" height="35.000000pt" viewBox="0 0 37.000000 35.000000"
 preserveAspectRatio="xMidYMid meet">
<metadata>
Created by potrace 1.16, written by Peter Selinger 2001-2019
</metadata>
<g transform="translate(0.000000,35.000000) scale(0.100000,-0.100000)"
fill="#000000" stroke="none">
<path d="M112 327 l4 -23 -12 -12 -13 -12 -36 0 -35 0 0 -55 0 -55 24 0 24 0
15 -6 15 -5 -5 -19 -5 -18 -21 -6 -21 -5 -25 6 -24 6 6 -48 7 -48 0 -13 0 -14
44 0 44 0 16 6 16 6 0 29 0 29 15 0 15 0 0 -20 0 -19 38 -10 37 -11 28 0 27 0
0 23 0 22 10 36 10 36 30 -5 30 -4 0 36 0 36 -39 0 -39 0 -6 23 -6 22 0 23 0
22 -36 0 -35 0 -20 10 -19 11 0 24 0 25 -31 0 -31 0 4 -23z"/>
</g>
</svg>
