<?xml version="1.0" standalone="no"?>
<!DOCTYPE svg PUBLIC "-//W3C//DTD SVG 20010904//EN"
 "http://www.w3.org/TR/2001/REC-SVG-20010904/DTD/svg10.dtd">
<svg version="1.0" xmlns="http://www.w3.org/2000/svg"
 width="31.000000pt" height="43.000000pt" viewBox="0 0 31.000000 43.000000"
 preserveAspectRatio="xMidYMid meet">
<metadata>
Created by potrace 1.16, written by Peter Selinger 2001-2019
</metadata>
<g transform="translate(0.000000,43.000000) scale(0.100000,-0.100000)"
fill="#000000" stroke="none">
<path d="M130 402 l0 -28 -32 -11 -33 -12 -28 6 -27 5 0 -50 0 -50 6 -16 6
-16 24 0 24 0 0 -9 0 -9 -35 -6 -35 -7 0 -44 0 -44 16 -15 15 -16 40 0 39 0 0
-24 0 -25 16 -15 15 -16 17 0 17 0 22 6 22 6 3 21 3 21 38 9 37 9 0 58 0 58
-16 6 -16 6 -19 0 -19 0 0 15 0 15 35 0 35 0 6 23 5 24 -3 39 -3 39 -49 -3
-49 -4 -8 14 -9 13 0 28 0 27 -30 0 -30 0 0 -28z"/>
</g>
</svg>
