<?xml version="1.0" standalone="no"?>
<!DOCTYPE svg PUBLIC "-//W3C//DTD SVG 20010904//EN"
 "http://www.w3.org/TR/2001/REC-SVG-20010904/DTD/svg10.dtd">
<svg version="1.0" xmlns="http://www.w3.org/2000/svg"
 width="28.000000pt" height="36.000000pt" viewBox="0 0 28.000000 36.000000"
 preserveAspectRatio="xMidYMid meet">
<metadata>
Created by potrace 1.16, written by Peter Selinger 2001-2019
</metadata>
<g transform="translate(0.000000,36.000000) scale(0.100000,-0.100000)"
fill="#000000" stroke="none">
<path d="M90 338 l0 -23 -9 -14 -9 -14 -36 7 -36 7 0 -49 0 -50 27 -7 28 -7 6
-10 7 -11 -13 -14 -14 -13 -9 0 -10 0 -6 -15 -5 -15 -7 -50 -7 -50 42 0 42 0
15 14 14 15 0 20 0 20 10 6 10 6 1 -13 1 -13 -2 -24 -2 -24 14 -8 13 -9 24 0
24 0 39 12 40 12 -7 45 -7 46 -10 13 -10 12 -19 0 -19 0 0 14 0 14 35 6 35 7
0 56 0 56 -50 -7 -50 -7 -13 12 -13 13 4 28 4 28 -36 0 -36 0 0 -22z"/>
</g>
</svg>
