<?xml version="1.0" standalone="no"?>
<!DOCTYPE svg PUBLIC "-//W3C//DTD SVG 20010904//EN"
 "http://www.w3.org/TR/2001/REC-SVG-20010904/DTD/svg10.dtd">
<svg version="1.0" xmlns="http://www.w3.org/2000/svg"
 width="35.000000pt" height="33.000000pt" viewBox="0 0 35.000000 33.000000"
 preserveAspectRatio="xMidYMid meet">
<metadata>
Created by potrace 1.16, written by Peter Selinger 2001-2019
</metadata>
<g transform="translate(0.000000,33.000000) scale(0.100000,-0.100000)"
fill="#000000" stroke="none">
<path d="M115 310 l6 -20 -15 -15 -15 -15 -35 0 -36 0 0 -46 0 -46 23 5 22 6
18 -14 18 -13 -7 -26 -6 -25 -33 -7 -34 -6 -12 8 -12 7 6 -33 7 -32 0 -19 0
-19 34 0 34 0 16 6 16 6 0 29 0 29 29 0 29 0 -5 -19 -5 -20 39 -10 38 -11 18
0 17 0 0 23 0 22 11 38 10 38 30 -6 29 -7 0 26 0 26 -39 0 -39 0 -6 23 -6 22
0 23 0 22 -36 0 -35 0 -20 10 -19 11 0 24 0 25 -21 0 -20 0 6 -20z"/>
</g>
</svg>
