<?xml version="1.0" standalone="no"?>
<!DOCTYPE svg PUBLIC "-//W3C//DTD SVG 20010904//EN"
 "http://www.w3.org/TR/2001/REC-SVG-20010904/DTD/svg10.dtd">
<svg version="1.0" xmlns="http://www.w3.org/2000/svg"
 width="29.000000pt" height="41.000000pt" viewBox="0 0 29.000000 41.000000"
 preserveAspectRatio="xMidYMid meet">
<metadata>
Created by potrace 1.16, written by Peter Selinger 2001-2019
</metadata>
<g transform="translate(0.000000,41.000000) scale(0.100000,-0.100000)"
fill="#000000" stroke="none">
<path d="M130 382 l0 -29 -39 -13 -38 -12 -22 7 -21 6 0 -43 0 -43 9 -13 8
-14 19 4 19 3 3 -21 3 -22 -35 -6 -36 -7 0 -34 0 -34 16 -15 15 -16 40 0 39 0
0 -24 0 -25 16 -16 17 -17 21 6 21 6 7 0 7 0 3 22 3 22 38 9 37 9 0 48 0 48
-16 6 -16 6 -19 0 -19 0 0 25 0 25 35 0 35 0 6 24 6 24 -4 28 -3 28 -49 -3
-49 -3 -8 14 -9 13 0 28 0 27 -20 0 -20 0 0 -28z"/>
</g>
</svg>
