<?xml version="1.0" standalone="no"?>
<!DOCTYPE svg PUBLIC "-//W3C//DTD SVG 20010904//EN"
 "http://www.w3.org/TR/2001/REC-SVG-20010904/DTD/svg10.dtd">
<svg version="1.0" xmlns="http://www.w3.org/2000/svg"
 width="26.000000pt" height="34.000000pt" viewBox="0 0 26.000000 34.000000"
 preserveAspectRatio="xMidYMid meet">
<metadata>
Created by potrace 1.16, written by Peter Selinger 2001-2019
</metadata>
<g transform="translate(0.000000,34.000000) scale(0.100000,-0.100000)"
fill="#000000" stroke="none">
<path d="M90 318 l0 -23 -9 -14 -9 -13 -36 4 -36 4 0 -37 0 -37 30 -7 29 -6 6
-20 6 -19 -15 -15 -15 -15 -10 0 -10 0 -5 -17 -5 -18 -7 -37 -6 -38 32 0 31 0
15 14 14 15 0 21 0 21 16 6 16 6 9 -14 9 -14 -6 -27 -5 -26 21 -7 22 -7 44 12
44 13 -6 36 -7 36 -10 13 -9 12 -19 0 -19 0 0 31 0 30 10 -6 9 -6 26 7 25 6 0
44 0 45 -49 -7 -50 -6 -16 15 -16 16 7 26 6 25 -26 0 -26 0 0 -22z"/>
</g>
</svg>
