<?xml version="1.0" standalone="no"?>
<!DOCTYPE svg PUBLIC "-//W3C//DTD SVG 20010904//EN"
 "http://www.w3.org/TR/2001/REC-SVG-20010904/DTD/svg10.dtd">
<svg version="1.0" xmlns="http://www.w3.org/2000/svg"
 width="37.000000pt" height="35.000000pt" viewBox="0 0 37.000000 35.000000"
 preserveAspectRatio="xMidYMid meet">
<metadata>
Created by potrace 1.16, written by Peter Selinger 2001-2019
</metadata>
<g transform="translate(0.000000,35.000000) scale(0.100000,-0.100000)"
fill="#000000" stroke="none">
<path d="M206 325 l6 -25 -16 0 -16 0 0 -11 0 -11 -50 4 -50 3 0 -32 0 -31 -6
-16 -6 -16 -18 0 -18 0 -16 -6 -16 -6 0 -18 0 -18 6 -16 6 -16 34 0 34 0 0
-31 0 -30 14 -15 15 -14 31 0 31 0 -6 10 -6 10 10 0 10 0 3 23 3 22 28 3 27 3
0 -33 0 -33 8 -13 9 -13 49 11 48 11 8 12 8 12 0 27 0 26 -6 16 -6 16 -34 -6
-34 -6 0 26 0 26 21 0 20 0 15 14 14 15 0 41 0 42 -46 -7 -47 -7 -8 14 -9 13
0 28 0 27 -25 0 -25 0 6 -25z"/>
</g>
</svg>
