<?xml version="1.0" standalone="no"?>
<!DOCTYPE svg PUBLIC "-//W3C//DTD SVG 20010904//EN"
 "http://www.w3.org/TR/2001/REC-SVG-20010904/DTD/svg10.dtd">
<svg version="1.0" xmlns="http://www.w3.org/2000/svg"
 width="31.000000pt" height="38.000000pt" viewBox="0 0 31.000000 38.000000"
 preserveAspectRatio="xMidYMid meet">
<metadata>
Created by potrace 1.16, written by Peter Selinger 2001-2019
</metadata>
<g transform="translate(0.000000,38.000000) scale(0.100000,-0.100000)"
fill="#000000" stroke="none">
<path d="M126 348 l-6 -35 -25 -11 -25 -12 -30 6 -30 7 -2 -32 -2 -31 0 -22
-1 -23 35 -5 35 -5 3 -17 3 -18 -28 -12 -28 -13 -7 -10 -8 -10 0 -41 0 -42 22
-6 23 -6 36 0 37 0 6 16 6 16 0 19 0 19 14 0 13 0 -4 -25 -5 -24 15 -16 16
-15 40 0 40 0 15 16 16 15 0 44 0 44 -16 15 -15 16 -10 0 -9 0 0 15 0 15 24 0
24 0 6 16 6 16 0 36 0 37 -9 14 -9 14 -36 -7 -36 -7 0 36 0 35 -14 0 -13 0
-30 6 -30 6 -7 -34z"/>
</g>
</svg>
