<?xml version="1.0" standalone="no"?>
<!DOCTYPE svg PUBLIC "-//W3C//DTD SVG 20010904//EN"
 "http://www.w3.org/TR/2001/REC-SVG-20010904/DTD/svg10.dtd">
<svg version="1.0" xmlns="http://www.w3.org/2000/svg"
 width="39.000000pt" height="37.000000pt" viewBox="0 0 39.000000 37.000000"
 preserveAspectRatio="xMidYMid meet">
<metadata>
Created by potrace 1.16, written by Peter Selinger 2001-2019
</metadata>
<g transform="translate(0.000000,37.000000) scale(0.100000,-0.100000)"
fill="#000000" stroke="none">
<path d="M202 345 l5 -25 -13 0 -14 0 0 -11 0 -12 -50 6 -50 6 0 -34 0 -33 -6
-16 -6 -16 -18 0 -18 0 -16 -6 -16 -6 0 -28 0 -28 6 -16 6 -16 34 0 34 0 0
-31 0 -30 14 -15 15 -14 40 0 40 0 9 32 8 33 17 3 17 3 0 -33 0 -33 9 -14 9
-14 58 11 58 12 8 13 8 12 0 40 0 40 -9 14 -9 14 -31 -6 -31 -6 0 14 0 15 21
0 20 0 15 14 14 15 0 52 0 52 -49 -6 -49 -6 -6 15 -6 16 0 24 0 24 -36 0 -36
0 4 -25z"/>
</g>
</svg>
