<?xml version="1.0" standalone="no"?>
<!DOCTYPE svg PUBLIC "-//W3C//DTD SVG 20010904//EN"
 "http://www.w3.org/TR/2001/REC-SVG-20010904/DTD/svg10.dtd">
<svg version="1.0" xmlns="http://www.w3.org/2000/svg"
 width="38.000000pt" height="42.000000pt" viewBox="0 0 38.000000 42.000000"
 preserveAspectRatio="xMidYMid meet">
<metadata>
Created by potrace 1.16, written by Peter Selinger 2001-2019
</metadata>
<g transform="translate(0.000000,42.000000) scale(0.100000,-0.100000)"
fill="#000000" stroke="none">
<path d="M130 391 l0 -29 -16 -6 -16 -6 -38 0 -38 0 -6 -22 -6 -23 0 -27 0
-27 36 -7 35 -6 -3 -16 -3 -16 -38 -9 -39 -9 7 -52 7 -51 4 -4 4 -4 50 -5 50
-5 0 -17 0 -18 6 -16 6 -16 39 0 38 0 7 35 6 35 44 0 43 0 7 51 7 50 28 6 29
6 0 37 0 37 -40 7 -40 6 0 45 0 45 -12 0 -13 0 -37 10 -36 10 5 20 5 20 -41 0
-41 0 0 -29z"/>
</g>
</svg>
