<?xml version="1.0" standalone="no"?>
<!DOCTYPE svg PUBLIC "-//W3C//DTD SVG 20010904//EN"
 "http://www.w3.org/TR/2001/REC-SVG-20010904/DTD/svg10.dtd">
<svg version="1.0" xmlns="http://www.w3.org/2000/svg"
 width="36.000000pt" height="40.000000pt" viewBox="0 0 36.000000 40.000000"
 preserveAspectRatio="xMidYMid meet">
<metadata>
Created by potrace 1.16, written by Peter Selinger 2001-2019
</metadata>
<g transform="translate(0.000000,40.000000) scale(0.100000,-0.100000)"
fill="#000000" stroke="none">
<path d="M130 371 l0 -29 -16 -6 -16 -6 -38 0 -38 0 -6 -22 -6 -23 0 -17 0
-17 36 -7 35 -6 -3 -26 -3 -26 -37 -9 -38 -9 6 -41 7 -42 3 -4 4 -4 50 -5 50
-5 0 -17 0 -18 6 -16 6 -16 28 0 28 0 6 25 7 26 -6 9 -6 10 50 0 50 0 7 51 7
50 28 6 29 6 0 27 0 27 -40 7 -40 6 0 45 0 45 -12 0 -13 0 -38 11 -39 10 5 20
5 19 -29 0 -29 0 0 -29z"/>
</g>
</svg>
