<?xml version="1.0" standalone="no"?>
<!DOCTYPE svg PUBLIC "-//W3C//DTD SVG 20010904//EN"
 "http://www.w3.org/TR/2001/REC-SVG-20010904/DTD/svg10.dtd">
<svg version="1.0" xmlns="http://www.w3.org/2000/svg"
 width="29.000000pt" height="36.000000pt" viewBox="0 0 29.000000 36.000000"
 preserveAspectRatio="xMidYMid meet">
<metadata>
Created by potrace 1.16, written by Peter Selinger 2001-2019
</metadata>
<g transform="translate(0.000000,36.000000) scale(0.100000,-0.100000)"
fill="#000000" stroke="none">
<path d="M126 327 l-6 -35 -30 -12 -30 -12 -25 6 -25 6 -2 -30 -1 -30 -1 -12
-1 -13 35 -5 35 -5 3 -27 3 -28 -28 -12 -28 -13 -7 -10 -8 -10 0 -31 0 -32 23
-6 22 -6 26 0 27 0 6 16 6 16 0 19 0 19 26 0 26 0 -6 -25 -7 -26 15 -14 15
-15 30 0 30 0 15 16 16 15 0 34 0 34 -16 15 -15 16 -10 0 -9 0 0 31 0 30 21
-6 21 -7 9 13 9 14 0 27 0 26 -6 16 -6 16 -39 -6 -39 -7 0 36 0 36 -17 -1 -18
-1 -16 7 -17 7 -6 -34z"/>
</g>
</svg>
