<?xml version="1.0" standalone="no"?>
<!DOCTYPE svg PUBLIC "-//W3C//DTD SVG 20010904//EN"
 "http://www.w3.org/TR/2001/REC-SVG-20010904/DTD/svg10.dtd">
<svg version="1.0" xmlns="http://www.w3.org/2000/svg"
 width="37.000000pt" height="29.000000pt" viewBox="0 0 37.000000 29.000000"
 preserveAspectRatio="xMidYMid meet">
<metadata>
Created by potrace 1.16, written by Peter Selinger 2001-2019
</metadata>
<g transform="translate(0.000000,29.000000) scale(0.100000,-0.100000)"
fill="#000000" stroke="none">
<path d="M17 283 l-7 -6 0 -50 0 -49 25 6 26 7 14 -15 15 -15 0 -6 0 -6 -14
-15 -15 -14 -30 0 -31 0 0 -22 0 -23 6 -38 7 -37 47 0 48 0 16 6 16 6 0 29 0
29 10 0 10 0 0 -21 0 -20 14 -15 15 -14 34 0 35 0 16 6 16 6 0 39 0 39 25 0
25 0 0 10 0 10 15 0 15 0 0 31 0 30 -14 15 -15 14 -20 0 -21 0 0 45 0 45 -138
0 -139 0 -6 -7z"/>
</g>
</svg>
