<?xml version="1.0" standalone="no"?>
<!DOCTYPE svg PUBLIC "-//W3C//DTD SVG 20010904//EN"
 "http://www.w3.org/TR/2001/REC-SVG-20010904/DTD/svg10.dtd">
<svg version="1.0" xmlns="http://www.w3.org/2000/svg"
 width="35.000000pt" height="27.000000pt" viewBox="0 0 35.000000 27.000000"
 preserveAspectRatio="xMidYMid meet">
<metadata>
Created by potrace 1.16, written by Peter Selinger 2001-2019
</metadata>
<g transform="translate(0.000000,27.000000) scale(0.100000,-0.100000)"
fill="#000000" stroke="none">
<path d="M17 263 l-7 -6 0 -37 0 -37 25 4 24 5 16 -15 15 -16 0 -16 0 -16 -14
-15 -15 -14 -30 0 -31 0 0 -12 0 -13 6 -38 7 -37 41 0 41 0 13 9 14 8 -2 14
-2 14 1 13 1 13 23 -3 22 -3 -3 -18 -3 -17 15 -15 15 -15 24 0 25 0 16 6 16 6
0 39 0 39 25 0 25 0 0 10 0 10 15 0 15 0 0 21 0 20 -15 15 -15 15 -20 -6 -20
-6 0 50 0 51 -128 0 -129 0 -6 -7z"/>
</g>
</svg>
