<?xml version="1.0" standalone="no"?>
<!DOCTYPE svg PUBLIC "-//W3C//DTD SVG 20010904//EN"
 "http://www.w3.org/TR/2001/REC-SVG-20010904/DTD/svg10.dtd">
<svg version="1.0" xmlns="http://www.w3.org/2000/svg"
 width="30.000000pt" height="34.000000pt" viewBox="0 0 30.000000 34.000000"
 preserveAspectRatio="xMidYMid meet">
<metadata>
Created by potrace 1.16, written by Peter Selinger 2001-2019
</metadata>
<g transform="translate(0.000000,34.000000) scale(0.100000,-0.100000)"
fill="#000000" stroke="none">
<path d="M0 326 l0 -14 12 -4 12 -4 5 -50 6 -49 30 0 30 0 7 -10 8 -10 0 -11
0 -11 -24 -11 -23 -10 -12 -46 -11 -45 0 -15 0 -16 26 0 25 0 22 11 22 12 7
11 8 11 0 23 0 24 13 -4 12 -5 7 -24 7 -24 6 -28 5 -27 19 0 18 0 32 11 31 11
0 59 0 59 -30 0 -30 0 0 15 0 15 -10 0 -10 0 0 11 0 10 15 15 14 15 26 -7 25
-6 0 46 0 46 -27 0 -28 0 -23 -7 -24 -6 5 -18 5 -19 -23 -6 -24 -6 -21 7 -21
7 6 29 7 29 -40 0 -41 0 -15 15 -15 15 -10 0 -11 0 0 -14z"/>
</g>
</svg>
