<?xml version="1.0" standalone="no"?>
<!DOCTYPE svg PUBLIC "-//W3C//DTD SVG 20010904//EN"
 "http://www.w3.org/TR/2001/REC-SVG-20010904/DTD/svg10.dtd">
<svg version="1.0" xmlns="http://www.w3.org/2000/svg"
 width="28.000000pt" height="32.000000pt" viewBox="0 0 28.000000 32.000000"
 preserveAspectRatio="xMidYMid meet">
<metadata>
Created by potrace 1.16, written by Peter Selinger 2001-2019
</metadata>
<g transform="translate(0.000000,32.000000) scale(0.100000,-0.100000)"
fill="#000000" stroke="none">
<path d="M32 248 l3 -43 30 2 29 2 8 -12 8 -12 0 -22 0 -23 -11 0 -10 0 7 -12
7 -11 -17 6 -17 7 -8 -23 -8 -22 -8 -32 -7 -33 16 0 15 0 25 12 26 11 6 20 6
20 -16 12 -16 12 0 6 0 7 33 -6 32 -6 13 -16 12 -16 0 -25 0 -26 9 -14 9 -13
36 12 36 12 0 49 0 49 -30 0 -30 0 0 15 0 15 -10 0 -10 0 0 21 0 20 15 16 16
15 24 -5 25 -4 0 33 0 34 -17 0 -18 0 -22 -6 -22 -6 6 -15 6 -15 -14 -9 -14
-9 -30 0 -30 0 -14 9 -14 9 5 26 5 26 -39 0 -39 0 3 -42z"/>
</g>
</svg>
