<?xml version="1.0" standalone="no"?>
<!DOCTYPE svg PUBLIC "-//W3C//DTD SVG 20010904//EN"
 "http://www.w3.org/TR/2001/REC-SVG-20010904/DTD/svg10.dtd">
<svg version="1.0" xmlns="http://www.w3.org/2000/svg"
 width="43.000000pt" height="36.000000pt" viewBox="0 0 43.000000 36.000000"
 preserveAspectRatio="xMidYMid meet">
<metadata>
Created by potrace 1.16, written by Peter Selinger 2001-2019
</metadata>
<g transform="translate(0.000000,36.000000) scale(0.100000,-0.100000)"
fill="#000000" stroke="none">
<path d="M80 311 l0 -51 -40 -6 -40 -7 0 -24 0 -25 30 -11 30 -11 6 -36 6 -35
5 -18 5 -18 38 6 37 6 6 -28 6 -28 10 -14 9 -14 36 7 36 7 0 41 0 40 46 -7 47
-7 -7 55 -7 54 23 7 23 6 23 0 22 0 0 31 0 31 -28 -4 -28 -4 -12 13 -12 12 0
36 0 36 -47 -3 -48 -3 1 -22 1 -23 -13 0 -12 0 -4 -11 -4 -12 -21 7 -22 7 -3
32 -3 32 -47 3 -48 3 0 -50z"/>
</g>
</svg>
