<?xml version="1.0" standalone="no"?>
<!DOCTYPE svg PUBLIC "-//W3C//DTD SVG 20010904//EN"
 "http://www.w3.org/TR/2001/REC-SVG-20010904/DTD/svg10.dtd">
<svg version="1.0" xmlns="http://www.w3.org/2000/svg"
 width="41.000000pt" height="34.000000pt" viewBox="0 0 41.000000 34.000000"
 preserveAspectRatio="xMidYMid meet">
<metadata>
Created by potrace 1.16, written by Peter Selinger 2001-2019
</metadata>
<g transform="translate(0.000000,34.000000) scale(0.100000,-0.100000)"
fill="#000000" stroke="none">
<path d="M80 291 l0 -51 -40 -6 -40 -7 0 -14 0 -15 30 -11 30 -11 6 -36 6 -35
4 -16 5 -16 46 5 46 5 -6 -17 -6 -16 11 -26 12 -25 20 5 21 6 8 0 7 0 0 41 0
42 45 -5 45 -6 -6 53 -6 52 23 6 24 7 23 0 22 0 0 21 0 21 -25 -6 -26 -7 -14
15 -15 15 0 36 0 36 -37 -3 -38 -3 3 -22 3 -23 -15 0 -16 0 0 -10 0 -10 -22 0
-23 0 -12 8 -11 7 -4 30 -3 30 -37 3 -38 3 0 -50z"/>
</g>
</svg>
