<?xml version="1.0" standalone="no"?>
<!DOCTYPE svg PUBLIC "-//W3C//DTD SVG 20010904//EN"
 "http://www.w3.org/TR/2001/REC-SVG-20010904/DTD/svg10.dtd">
<svg version="1.0" xmlns="http://www.w3.org/2000/svg"
 width="35.000000pt" height="37.000000pt" viewBox="0 0 35.000000 37.000000"
 preserveAspectRatio="xMidYMid meet">
<metadata>
Created by potrace 1.16, written by Peter Selinger 2001-2019
</metadata>
<g transform="translate(0.000000,37.000000) scale(0.100000,-0.100000)"
fill="#000000" stroke="none">
<path d="M73 364 l-13 -6 0 -14 0 -14 10 0 10 0 0 -24 0 -24 -32 -7 -33 -8 -7
-11 -8 -11 0 -22 0 -23 28 0 27 0 14 -9 14 -9 -7 -51 -7 -51 46 0 45 0 0 -34
0 -34 16 -6 16 -6 19 0 19 0 0 10 0 10 15 0 15 0 0 25 0 25 46 0 46 0 -6 23
-6 22 0 36 0 36 -40 12 -40 12 0 15 0 15 30 6 31 6 9 18 10 18 0 30 0 31 -10
0 -10 0 -40 -12 -40 -13 0 -13 0 -13 -15 -15 -15 -15 -20 6 -20 6 -1 17 -1 17
2 23 1 22 -23 0 -23 0 -20 5 -20 4 -12 -5z"/>
</g>
</svg>
