<?xml version="1.0" standalone="no"?>
<!DOCTYPE svg PUBLIC "-//W3C//DTD SVG 20010904//EN"
 "http://www.w3.org/TR/2001/REC-SVG-20010904/DTD/svg10.dtd">
<svg version="1.0" xmlns="http://www.w3.org/2000/svg"
 width="33.000000pt" height="35.000000pt" viewBox="0 0 33.000000 35.000000"
 preserveAspectRatio="xMidYMid meet">
<metadata>
Created by potrace 1.16, written by Peter Selinger 2001-2019
</metadata>
<g transform="translate(0.000000,35.000000) scale(0.100000,-0.100000)"
fill="#000000" stroke="none">
<path d="M67 338 l-12 -8 13 0 12 0 0 -34 0 -34 -32 -7 -33 -8 -7 -11 -8 -11
0 -12 0 -13 28 0 27 0 14 -9 14 -9 -5 -51 -5 -51 48 0 48 0 -6 -34 -5 -34 23
-7 23 -8 4 12 4 11 15 0 15 0 -6 25 -6 25 47 0 48 0 -3 49 -4 48 -39 12 -39
12 0 25 0 25 30 6 31 6 9 18 10 18 0 21 0 22 -17 -7 -18 -8 -22 -4 -23 -5 0
-15 0 -14 -14 -15 -15 -14 -18 0 -18 0 -15 9 -14 10 0 34 0 35 -33 4 -33 4
-13 -8z"/>
</g>
</svg>
