<?xml version="1.0" standalone="no"?>
<!DOCTYPE svg PUBLIC "-//W3C//DTD SVG 20010904//EN"
 "http://www.w3.org/TR/2001/REC-SVG-20010904/DTD/svg10.dtd">
<svg version="1.0" xmlns="http://www.w3.org/2000/svg"
 width="33.000000pt" height="35.000000pt" viewBox="0 0 33.000000 35.000000"
 preserveAspectRatio="xMidYMid meet">
<metadata>
Created by potrace 1.16, written by Peter Selinger 2001-2019
</metadata>
<g transform="translate(0.000000,35.000000) scale(0.100000,-0.100000)"
fill="#000000" stroke="none">
<path d="M22 308 l3 -43 23 3 23 2 15 -14 14 -15 0 -10 0 -10 -16 -15 -15 -16
-36 0 -35 0 6 -33 7 -32 2 -23 2 -24 41 7 41 6 7 -40 6 -40 21 -6 20 -7 20 23
19 22 0 19 0 18 41 0 42 0 -5 49 -5 48 13 17 12 17 18 -3 18 -3 4 18 3 17 -24
0 -25 0 -6 16 -6 16 0 35 0 35 -22 -6 -23 -6 -27 -6 -27 -6 -6 -19 -6 -19 -14
0 -14 0 -16 16 -17 17 5 18 5 19 -45 0 -44 0 3 -42z"/>
</g>
</svg>
