<?xml version="1.0" standalone="no"?>
<!DOCTYPE svg PUBLIC "-//W3C//DTD SVG 20010904//EN"
 "http://www.w3.org/TR/2001/REC-SVG-20010904/DTD/svg10.dtd">
<svg version="1.0" xmlns="http://www.w3.org/2000/svg"
 width="35.000000pt" height="37.000000pt" viewBox="0 0 35.000000 37.000000"
 preserveAspectRatio="xMidYMid meet">
<metadata>
Created by potrace 1.16, written by Peter Selinger 2001-2019
</metadata>
<g transform="translate(0.000000,37.000000) scale(0.100000,-0.100000)"
fill="#000000" stroke="none">
<path d="M22 318 l3 -53 26 0 26 1 11 -13 12 -12 -16 -15 -15 -16 -36 0 -35 0
6 -42 6 -43 0 -24 0 -24 44 5 44 5 6 -37 6 -38 16 -6 16 -6 15 0 16 0 18 22
19 21 0 19 0 18 40 0 40 0 0 53 0 52 8 10 7 10 20 0 20 0 3 28 3 27 -24 0 -25
0 -6 16 -6 16 0 34 0 34 -15 0 -15 0 -44 -12 -45 -12 -8 -19 -9 -20 -16 17
-16 16 5 20 5 20 -56 0 -57 0 3 -52z"/>
</g>
</svg>
