<?xml version="1.0" standalone="no"?>
<!DOCTYPE svg PUBLIC "-//W3C//DTD SVG 20010904//EN"
 "http://www.w3.org/TR/2001/REC-SVG-20010904/DTD/svg10.dtd">
<svg version="1.0" xmlns="http://www.w3.org/2000/svg"
 width="39.000000pt" height="28.000000pt" viewBox="0 0 39.000000 28.000000"
 preserveAspectRatio="xMidYMid meet">
<metadata>
Created by potrace 1.16, written by Peter Selinger 2001-2019
</metadata>
<g transform="translate(0.000000,28.000000) scale(0.100000,-0.100000)"
fill="#000000" stroke="none">
<path d="M0 259 l0 -19 10 0 10 0 0 -36 0 -36 27 5 27 5 13 -13 13 -14 0 -6 0
-6 -14 -15 -15 -14 -20 0 -21 0 0 -55 0 -55 139 0 139 0 13 44 13 43 19 -5 19
-5 9 14 9 14 0 28 0 28 -14 15 -15 14 -28 6 -28 6 3 40 4 41 -28 -7 -29 -8
-37 -5 -36 -5 -6 -24 -6 -24 -11 0 -10 0 -15 14 -14 15 0 19 0 19 -60 1 -60 1
0 -20z"/>
</g>
</svg>
