<?xml version="1.0" standalone="no"?>
<!DOCTYPE svg PUBLIC "-//W3C//DTD SVG 20010904//EN"
 "http://www.w3.org/TR/2001/REC-SVG-20010904/DTD/svg10.dtd">
<svg version="1.0" xmlns="http://www.w3.org/2000/svg"
 width="37.000000pt" height="26.000000pt" viewBox="0 0 37.000000 26.000000"
 preserveAspectRatio="xMidYMid meet">
<metadata>
Created by potrace 1.16, written by Peter Selinger 2001-2019
</metadata>
<g transform="translate(0.000000,26.000000) scale(0.100000,-0.100000)"
fill="#000000" stroke="none">
<path d="M0 248 l0 -8 10 0 10 0 0 -35 0 -35 25 6 24 6 16 -15 15 -16 0 -16 0
-16 -14 -15 -15 -14 -20 0 -21 0 0 -45 0 -45 129 0 129 0 13 45 14 46 21 -5
22 -6 6 16 6 16 0 15 0 14 -16 16 -16 16 -29 1 -29 1 6 44 7 44 -19 -8 -19 -8
-37 -5 -36 -4 -6 -24 -6 -24 -21 0 -20 0 -15 14 -14 15 0 18 0 18 -50 0 -50 1
0 -8z"/>
</g>
</svg>
