<?xml version="1.0" standalone="no"?>
<!DOCTYPE svg PUBLIC "-//W3C//DTD SVG 20010904//EN"
 "http://www.w3.org/TR/2001/REC-SVG-20010904/DTD/svg10.dtd">
<svg version="1.0" xmlns="http://www.w3.org/2000/svg"
 width="34.000000pt" height="29.000000pt" viewBox="0 0 34.000000 29.000000"
 preserveAspectRatio="xMidYMid meet">
<metadata>
Created by potrace 1.16, written by Peter Selinger 2001-2019
</metadata>
<g transform="translate(0.000000,29.000000) scale(0.100000,-0.100000)"
fill="#000000" stroke="none">
<path d="M179 281 l-1 -6 2 -37 1 -37 -25 -7 -25 -6 -20 7 -21 6 0 34 0 35
-32 -7 -33 -6 -2 -1 -2 -2 -7 -43 -7 -43 20 6 21 7 16 -16 16 -16 0 -12 0 -12
-9 -14 -9 -14 -31 -1 -31 -1 0 -16 0 -17 6 -31 6 -31 40 0 39 0 15 15 15 15
-6 20 -6 20 20 0 21 0 0 -19 0 -20 16 -15 15 -16 43 0 42 0 14 49 13 50 24 6
23 5 0 31 0 31 -28 -7 -28 -6 -12 26 -12 26 0 28 0 29 -40 10 -40 10 -1 -7z"/>
</g>
</svg>
