<?xml version="1.0" standalone="no"?>
<!DOCTYPE svg PUBLIC "-//W3C//DTD SVG 20010904//EN"
 "http://www.w3.org/TR/2001/REC-SVG-20010904/DTD/svg10.dtd">
<svg version="1.0" xmlns="http://www.w3.org/2000/svg"
 width="35.000000pt" height="37.000000pt" viewBox="0 0 35.000000 37.000000"
 preserveAspectRatio="xMidYMid meet">
<metadata>
Created by potrace 1.16, written by Peter Selinger 2001-2019
</metadata>
<g transform="translate(0.000000,37.000000) scale(0.100000,-0.100000)"
fill="#000000" stroke="none">
<path d="M164 343 l6 -28 -8 -11 -7 -10 -17 -7 -18 -6 -1 12 -1 12 -2 20 -1
19 -49 9 -48 8 -5 -4 -4 -4 -6 -52 -6 -51 27 0 27 0 14 -13 13 -14 -7 -11 -6
-10 -28 -7 -27 -7 0 -28 0 -28 -6 -31 -6 -31 41 0 41 0 0 -29 0 -29 16 -6 16
-6 23 0 23 0 16 6 16 6 0 39 0 39 39 -6 38 -6 6 23 7 24 0 23 0 22 31 7 31 6
5 13 5 14 -6 25 -6 25 -19 0 -19 0 -16 6 -16 6 0 43 0 43 -16 6 -16 6 -40 0
-40 0 6 -27z"/>
</g>
</svg>
