<?xml version="1.0" standalone="no"?>
<!DOCTYPE svg PUBLIC "-//W3C//DTD SVG 20010904//EN"
 "http://www.w3.org/TR/2001/REC-SVG-20010904/DTD/svg10.dtd">
<svg version="1.0" xmlns="http://www.w3.org/2000/svg"
 width="33.000000pt" height="35.000000pt" viewBox="0 0 33.000000 35.000000"
 preserveAspectRatio="xMidYMid meet">
<metadata>
Created by potrace 1.16, written by Peter Selinger 2001-2019
</metadata>
<g transform="translate(0.000000,35.000000) scale(0.100000,-0.100000)"
fill="#000000" stroke="none">
<path d="M166 335 l6 -15 -6 -24 -6 -24 -26 -6 -27 -7 -9 13 -8 13 3 20 2 19
-40 7 -40 7 -2 -2 -2 -2 -7 -42 -7 -42 27 0 27 0 15 -15 15 -15 -6 -19 -6 -20
-29 -6 -30 -7 0 -33 0 -33 -7 -18 -6 -17 41 6 42 5 0 -34 0 -34 24 -6 25 -6
21 7 21 7 -2 41 -3 42 10 -1 9 -2 31 -6 31 -7 7 23 6 23 0 23 0 22 30 7 30 6
6 8 5 9 -6 20 -6 20 -19 0 -18 0 -16 6 -16 6 0 43 0 43 -16 6 -16 6 -29 0 -28
0 5 -15z"/>
</g>
</svg>
