<?xml version="1.0" standalone="no"?>
<!DOCTYPE svg PUBLIC "-//W3C//DTD SVG 20010904//EN"
 "http://www.w3.org/TR/2001/REC-SVG-20010904/DTD/svg10.dtd">
<svg version="1.0" xmlns="http://www.w3.org/2000/svg"
 width="36.000000pt" height="31.000000pt" viewBox="0 0 36.000000 31.000000"
 preserveAspectRatio="xMidYMid meet">
<metadata>
Created by potrace 1.16, written by Peter Selinger 2001-2019
</metadata>
<g transform="translate(0.000000,31.000000) scale(0.100000,-0.100000)"
fill="#000000" stroke="none">
<path d="M177 303 l-7 -6 6 -38 6 -37 -19 -6 -20 -6 -17 6 -16 6 0 35 0 35
-42 -7 -43 -7 -3 -3 -3 -2 -6 -52 -6 -51 31 0 30 0 5 -13 5 -14 -8 -13 -8 -13
-31 1 -31 1 0 -28 0 -28 6 -32 6 -31 50 0 49 0 15 14 14 15 1 23 1 23 8 -29 9
-29 13 -8 13 -9 51 0 50 0 14 49 13 50 24 6 23 5 0 41 0 41 -29 -4 -29 -4 -11
23 -11 24 0 28 0 29 -44 11 -45 11 -4 0 -4 0 -6 -7z"/>
</g>
</svg>
