<?xml version="1.0" standalone="no"?>
<!DOCTYPE svg PUBLIC "-//W3C//DTD SVG 20010904//EN"
 "http://www.w3.org/TR/2001/REC-SVG-20010904/DTD/svg10.dtd">
<svg version="1.0" xmlns="http://www.w3.org/2000/svg"
 width="43.000000pt" height="35.000000pt" viewBox="0 0 43.000000 35.000000"
 preserveAspectRatio="xMidYMid meet">
<metadata>
Created by potrace 1.16, written by Peter Selinger 2001-2019
</metadata>
<g transform="translate(0.000000,35.000000) scale(0.100000,-0.100000)"
fill="#000000" stroke="none">
<path d="M295 340 l-40 -5 -2 -28 -2 -27 -15 -15 -15 -15 -19 0 -20 0 -6 16
-6 16 0 24 0 24 -40 0 -40 0 0 -32 0 -33 -10 -15 -9 -14 -28 -2 -28 -2 -8 -1
-8 -1 3 -22 3 -23 30 -3 30 -2 22 -5 23 -5 0 -24 0 -25 -16 -16 -16 -16 4 -5
5 -5 44 -7 44 -8 -2 -19 -3 -20 8 -13 9 -13 27 7 26 6 6 24 6 24 -6 16 -6 17
49 -6 49 -6 6 15 6 16 0 29 0 29 25 0 25 0 0 10 0 10 15 0 15 0 0 21 0 20 -14
15 -15 14 -25 0 -26 0 0 33 0 32 -8 10 -7 10 -40 -5z"/>
</g>
</svg>
