<?xml version="1.0" standalone="no"?>
<!DOCTYPE svg PUBLIC "-//W3C//DTD SVG 20010904//EN"
 "http://www.w3.org/TR/2001/REC-SVG-20010904/DTD/svg10.dtd">
<svg version="1.0" xmlns="http://www.w3.org/2000/svg"
 width="45.000000pt" height="37.000000pt" viewBox="0 0 45.000000 37.000000"
 preserveAspectRatio="xMidYMid meet">
<metadata>
Created by potrace 1.16, written by Peter Selinger 2001-2019
</metadata>
<g transform="translate(0.000000,37.000000) scale(0.100000,-0.100000)"
fill="#000000" stroke="none">
<path d="M293 363 l-42 -4 1 -29 1 -28 -16 -16 -16 -16 -9 0 -10 0 -6 16 -6
16 0 24 0 24 -50 0 -50 0 0 -34 0 -35 -16 -15 -16 -16 -9 6 -9 5 -21 -6 -20
-7 3 -31 3 -32 30 -3 30 -2 22 -5 23 -5 0 -14 0 -15 -15 -15 -15 -15 0 -14 0
-15 23 -6 22 -6 23 0 22 0 0 -22 0 -23 9 -14 9 -14 35 7 35 7 6 15 6 16 0 25
0 25 41 -7 41 -7 9 13 9 14 0 33 0 32 25 0 25 0 0 10 0 10 15 0 15 0 0 31 0
30 -14 15 -15 14 -25 0 -26 0 0 29 0 29 -6 16 -6 16 -12 -2 -11 -1 -42 -4z"/>
</g>
</svg>
