<?xml version="1.0" standalone="no"?>
<!DOCTYPE svg PUBLIC "-//W3C//DTD SVG 20010904//EN"
 "http://www.w3.org/TR/2001/REC-SVG-20010904/DTD/svg10.dtd">
<svg version="1.0" xmlns="http://www.w3.org/2000/svg"
 width="34.000000pt" height="29.000000pt" viewBox="0 0 34.000000 29.000000"
 preserveAspectRatio="xMidYMid meet">
<metadata>
Created by potrace 1.16, written by Peter Selinger 2001-2019
</metadata>
<g transform="translate(0.000000,29.000000) scale(0.100000,-0.100000)"
fill="#000000" stroke="none">
<path d="M12 233 l3 -58 30 2 29 2 8 -12 8 -12 0 -12 0 -13 -40 -6 -40 -7 0
-36 0 -36 -6 -22 -6 -23 52 0 51 0 15 14 14 15 0 15 0 16 14 0 13 0 6 -30 6
-30 48 0 48 0 11 8 12 7 0 27 -1 28 13 30 12 30 15 0 14 0 -3 33 -3 32 -25 0
-25 0 -7 10 -8 10 0 33 0 33 -37 -7 -38 -7 -7 -4 -8 -4 0 -18 0 -19 -20 -5
-20 -5 -15 15 -15 14 0 25 0 24 -50 0 -51 0 3 -57z"/>
</g>
</svg>
