<?xml version="1.0" standalone="no"?>
<!DOCTYPE svg PUBLIC "-//W3C//DTD SVG 20010904//EN"
 "http://www.w3.org/TR/2001/REC-SVG-20010904/DTD/svg10.dtd">
<svg version="1.0" xmlns="http://www.w3.org/2000/svg"
 width="32.000000pt" height="27.000000pt" viewBox="0 0 32.000000 27.000000"
 preserveAspectRatio="xMidYMid meet">
<metadata>
Created by potrace 1.16, written by Peter Selinger 2001-2019
</metadata>
<g transform="translate(0.000000,27.000000) scale(0.100000,-0.100000)"
fill="#000000" stroke="none">
<path d="M12 223 l3 -48 29 3 29 4 8 -14 9 -13 0 -22 0 -23 -39 -6 -39 -6 -4
-49 -3 -49 38 0 38 0 16 15 15 16 -5 13 -6 14 15 6 14 5 14 -5 14 -5 6 -30 6
-29 37 0 38 0 10 8 10 7 2 30 2 29 12 28 11 28 15 0 14 0 -3 23 -3 22 -24 -3
-25 -2 -8 12 -8 13 0 31 0 31 -32 -6 -33 -7 -3 -21 -3 -21 -22 -6 -22 -6 -7 0
-7 0 -15 16 -16 15 0 25 0 24 -41 0 -40 0 3 -47z"/>
</g>
</svg>
