<?xml version="1.0" standalone="no"?>
<!DOCTYPE svg PUBLIC "-//W3C//DTD SVG 20010904//EN"
 "http://www.w3.org/TR/2001/REC-SVG-20010904/DTD/svg10.dtd">
<svg version="1.0" xmlns="http://www.w3.org/2000/svg"
 width="36.000000pt" height="35.000000pt" viewBox="0 0 36.000000 35.000000"
 preserveAspectRatio="xMidYMid meet">
<metadata>
Created by potrace 1.16, written by Peter Selinger 2001-2019
</metadata>
<g transform="translate(0.000000,35.000000) scale(0.100000,-0.100000)"
fill="#000000" stroke="none">
<path d="M70 335 l0 -15 9 0 9 0 4 -24 5 -25 -14 -5 -15 -6 -28 0 -28 0 -6
-16 -6 -16 0 -18 0 -18 30 -7 30 -6 9 5 9 6 6 -16 6 -16 0 -43 0 -43 39 -7 39
-6 6 -30 6 -29 45 0 45 0 6 24 6 24 39 6 39 6 0 60 0 60 -27 0 -28 0 -14 9
-13 9 7 21 6 21 35 0 34 0 0 55 0 55 -55 0 -55 0 0 -21 0 -20 -13 -13 -13 -13
-10 11 -11 11 5 14 4 13 -13 9 -14 9 -57 0 -58 0 0 -15z"/>
</g>
</svg>
