<?xml version="1.0" standalone="no"?>
<!DOCTYPE svg PUBLIC "-//W3C//DTD SVG 20010904//EN"
 "http://www.w3.org/TR/2001/REC-SVG-20010904/DTD/svg10.dtd">
<svg version="1.0" xmlns="http://www.w3.org/2000/svg"
 width="29.000000pt" height="33.000000pt" viewBox="0 0 29.000000 33.000000"
 preserveAspectRatio="xMidYMid meet">
<metadata>
Created by potrace 1.16, written by Peter Selinger 2001-2019
</metadata>
<g transform="translate(0.000000,33.000000) scale(0.100000,-0.100000)"
fill="#000000" stroke="none">
<path d="M9 293 l6 -37 38 -9 37 -9 0 -27 0 -28 -26 -12 -26 -12 -21 7 -20 6
6 -38 7 -39 0 -12 0 -13 34 0 34 0 16 -6 15 -6 -6 -14 -5 -13 15 -16 16 -15 6
0 6 0 15 14 14 15 0 20 0 21 49 0 49 0 11 31 11 32 0 17 0 18 -22 6 -23 6 -22
0 -23 0 0 25 0 25 24 0 24 0 16 6 16 6 0 45 0 45 -22 -7 -23 -7 -32 -5 -33 -5
0 -23 0 -23 -24 -6 -24 -6 -16 6 -16 6 6 34 6 34 -49 0 -50 0 6 -37z"/>
</g>
</svg>
