<?xml version="1.0" standalone="no"?>
<!DOCTYPE svg PUBLIC "-//W3C//DTD SVG 20010904//EN"
 "http://www.w3.org/TR/2001/REC-SVG-20010904/DTD/svg10.dtd">
<svg version="1.0" xmlns="http://www.w3.org/2000/svg"
 width="34.000000pt" height="33.000000pt" viewBox="0 0 34.000000 33.000000"
 preserveAspectRatio="xMidYMid meet">
<metadata>
Created by potrace 1.16, written by Peter Selinger 2001-2019
</metadata>
<g transform="translate(0.000000,33.000000) scale(0.100000,-0.100000)"
fill="#000000" stroke="none">
<path d="M94 291 l6 -39 -16 -6 -16 -6 -28 0 -29 0 -6 -21 -7 -21 6 -5 6 -6
33 0 32 0 7 -11 8 -11 0 -47 0 -46 39 -7 39 -6 6 -30 6 -29 35 0 35 0 6 24 6
24 39 6 39 6 0 50 0 50 -24 0 -24 0 -16 6 -16 6 0 18 0 18 6 16 6 16 34 0 34
0 0 45 0 45 -45 0 -45 0 0 -21 0 -20 -14 -15 -15 -14 -6 0 -6 0 -16 15 -15 16
5 13 6 14 -15 6 -16 6 -35 0 -36 0 7 -39z"/>
</g>
</svg>
