<?xml version="1.0" standalone="no"?>
<!DOCTYPE svg PUBLIC "-//W3C//DTD SVG 20010904//EN"
 "http://www.w3.org/TR/2001/REC-SVG-20010904/DTD/svg10.dtd">
<svg version="1.0" xmlns="http://www.w3.org/2000/svg"
 width="31.000000pt" height="35.000000pt" viewBox="0 0 31.000000 35.000000"
 preserveAspectRatio="xMidYMid meet">
<metadata>
Created by potrace 1.16, written by Peter Selinger 2001-2019
</metadata>
<g transform="translate(0.000000,35.000000) scale(0.100000,-0.100000)"
fill="#000000" stroke="none">
<path d="M5 313 l7 -38 3 -11 3 -11 36 -7 36 -7 0 -19 0 -19 -22 -7 -23 -8
-22 3 -23 2 0 -23 0 -23 6 -37 6 -37 42 -3 41 -3 3 -19 4 -20 13 -13 14 -13
16 0 16 0 15 14 14 15 0 20 0 21 49 0 49 0 11 31 11 32 0 27 0 28 -22 6 -23 6
-22 0 -23 0 0 15 0 15 24 0 24 0 16 6 16 6 0 55 0 55 -32 -6 -33 -7 -32 -6
-33 -5 0 -23 0 -23 -17 -4 -18 -5 -10 4 -11 3 4 35 4 35 -61 0 -62 0 6 -37z"/>
</g>
</svg>
