<?xml version="1.0" standalone="no"?>
<!DOCTYPE svg PUBLIC "-//W3C//DTD SVG 20010904//EN"
 "http://www.w3.org/TR/2001/REC-SVG-20010904/DTD/svg10.dtd">
<svg version="1.0" xmlns="http://www.w3.org/2000/svg"
 width="35.000000pt" height="27.000000pt" viewBox="0 0 35.000000 27.000000"
 preserveAspectRatio="xMidYMid meet">
<metadata>
Created by potrace 1.16, written by Peter Selinger 2001-2019
</metadata>
<g transform="translate(0.000000,27.000000) scale(0.100000,-0.100000)"
fill="#000000" stroke="none">
<path d="M84 255 l-6 -15 6 -25 7 -26 -15 -14 -15 -15 -26 0 -26 0 -6 -16 -6
-16 14 -9 14 -9 31 5 32 5 6 -17 7 -16 -7 -44 -6 -43 26 0 26 0 0 10 0 10 15
0 15 0 0 26 0 25 28 -3 27 -3 -3 -18 -3 -17 16 -16 16 -16 40 5 41 5 3 4 4 3
-6 42 -5 41 -24 6 -24 6 0 19 0 19 29 7 29 6 6 31 6 30 0 24 0 24 -130 0 -131
0 -5 -15z"/>
</g>
</svg>
