<?xml version="1.0" standalone="no"?>
<!DOCTYPE svg PUBLIC "-//W3C//DTD SVG 20010904//EN"
 "http://www.w3.org/TR/2001/REC-SVG-20010904/DTD/svg10.dtd">
<svg version="1.0" xmlns="http://www.w3.org/2000/svg"
 width="37.000000pt" height="29.000000pt" viewBox="0 0 37.000000 29.000000"
 preserveAspectRatio="xMidYMid meet">
<metadata>
Created by potrace 1.16, written by Peter Selinger 2001-2019
</metadata>
<g transform="translate(0.000000,29.000000) scale(0.100000,-0.100000)"
fill="#000000" stroke="none">
<path d="M84 275 l-6 -15 4 -28 4 -28 -12 -11 -11 -11 -29 -4 -29 -3 -3 -27
-3 -27 26 -7 25 -6 20 5 19 5 4 -12 5 -11 -6 -48 -5 -47 37 0 36 0 0 10 0 10
15 0 15 0 0 25 0 25 15 0 15 0 0 -21 0 -20 16 -16 15 -15 50 4 49 5 6 5 5 6
-7 50 -6 50 -24 6 -24 6 0 9 0 9 29 7 29 6 6 31 6 30 0 34 0 34 -140 0 -141 0
-5 -15z"/>
</g>
</svg>
