<?xml version="1.0" standalone="no"?>
<!DOCTYPE svg PUBLIC "-//W3C//DTD SVG 20010904//EN"
 "http://www.w3.org/TR/2001/REC-SVG-20010904/DTD/svg10.dtd">
<svg version="1.0" xmlns="http://www.w3.org/2000/svg"
 width="42.000000pt" height="37.000000pt" viewBox="0 0 42.000000 37.000000"
 preserveAspectRatio="xMidYMid meet">
<metadata>
Created by potrace 1.16, written by Peter Selinger 2001-2019
</metadata>
<g transform="translate(0.000000,37.000000) scale(0.100000,-0.100000)"
fill="#000000" stroke="none">
<path d="M90 325 l0 -46 -12 -12 -11 -13 -33 4 -33 4 1 -46 1 -46 22 0 23 0 7
-32 7 -32 13 -12 12 -13 39 -3 39 -3 3 -30 4 -30 11 -7 12 -8 22 0 22 0 15 16
16 15 0 25 0 24 45 0 46 0 -2 44 -3 43 14 15 14 15 18 -5 18 -4 0 41 0 41 -23
0 -24 0 -11 25 -12 26 0 21 0 21 -31 -7 -31 -6 -13 0 -13 0 -6 -25 -6 -25 -25
0 -25 0 -6 29 -6 29 -30 6 -30 6 -19 0 -19 0 0 -45z"/>
</g>
</svg>
