<?xml version="1.0" standalone="no"?>
<!DOCTYPE svg PUBLIC "-//W3C//DTD SVG 20010904//EN"
 "http://www.w3.org/TR/2001/REC-SVG-20010904/DTD/svg10.dtd">
<svg version="1.0" xmlns="http://www.w3.org/2000/svg"
 width="40.000000pt" height="35.000000pt" viewBox="0 0 40.000000 35.000000"
 preserveAspectRatio="xMidYMid meet">
<metadata>
Created by potrace 1.16, written by Peter Selinger 2001-2019
</metadata>
<g transform="translate(0.000000,35.000000) scale(0.100000,-0.100000)"
fill="#000000" stroke="none">
<path d="M90 304 l0 -45 -14 -15 -14 -14 -31 6 -30 6 2 -36 2 -37 21 6 22 5 7
-37 6 -36 12 -12 12 -12 33 -1 32 -1 10 -6 10 -6 0 -29 0 -28 16 -6 16 -6 8 0
9 0 16 16 16 17 -5 23 -6 24 51 0 52 0 -7 39 -6 38 20 23 19 22 16 -6 15 -5 0
29 0 30 -23 0 -24 0 -11 25 -12 26 0 21 0 20 -16 -6 -16 -6 -18 0 -18 0 -6
-25 -6 -25 -35 0 -35 0 -6 29 -6 29 -30 6 -30 6 -9 0 -9 0 0 -46z"/>
</g>
</svg>
