<?xml version="1.0" standalone="no"?>
<!DOCTYPE svg PUBLIC "-//W3C//DTD SVG 20010904//EN"
 "http://www.w3.org/TR/2001/REC-SVG-20010904/DTD/svg10.dtd">
<svg version="1.0" xmlns="http://www.w3.org/2000/svg"
 width="25.000000pt" height="25.000000pt" viewBox="0 0 25.000000 25.000000"
 preserveAspectRatio="xMidYMid meet">
<metadata>
Created by potrace 1.16, written by Peter Selinger 2001-2019
</metadata>
<g transform="translate(0.000000,25.000000) scale(0.100000,-0.100000)"
fill="#000000" stroke="none">
<path d="M2 213 l3 -38 32 -3 32 -3 10 -13 10 -12 -6 -22 -5 -22 -24 0 -23 0
-11 -19 -10 -20 0 -30 0 -31 110 0 110 0 0 26 0 25 -10 20 -11 19 -19 0 -19 0
-6 19 -5 18 5 16 6 15 29 12 29 12 10 -7 11 -6 0 41 0 41 -19 -11 -20 -10 -18
0 -19 0 -17 -20 -17 -20 -25 0 -25 0 -7 30 -6 30 -39 0 -39 0 3 -37z"/>
</g>
</svg>
