<?xml version="1.0" standalone="no"?>
<!DOCTYPE svg PUBLIC "-//W3C//DTD SVG 20010904//EN"
 "http://www.w3.org/TR/2001/REC-SVG-20010904/DTD/svg10.dtd">
<svg version="1.0" xmlns="http://www.w3.org/2000/svg"
 width="27.000000pt" height="27.000000pt" viewBox="0 0 27.000000 27.000000"
 preserveAspectRatio="xMidYMid meet">
<metadata>
Created by potrace 1.16, written by Peter Selinger 2001-2019
</metadata>
<g transform="translate(0.000000,27.000000) scale(0.100000,-0.100000)"
fill="#000000" stroke="none">
<path d="M2 223 l3 -48 35 -5 35 -5 3 -22 3 -23 -25 0 -25 0 -11 -19 -10 -20
0 -40 0 -41 120 0 120 0 0 36 0 35 -10 20 -11 19 -18 0 -19 0 -6 15 -5 14 15
16 15 15 12 1 12 1 18 -1 17 -2 0 52 0 51 -22 -7 -23 -7 -25 -5 -25 -6 -18
-18 -18 -19 -15 0 -14 0 -6 30 -6 30 -50 0 -49 0 3 -47z"/>
</g>
</svg>
