<?xml version="1.0" standalone="no"?>
<!DOCTYPE svg PUBLIC "-//W3C//DTD SVG 20010904//EN"
 "http://www.w3.org/TR/2001/REC-SVG-20010904/DTD/svg10.dtd">
<svg version="1.0" xmlns="http://www.w3.org/2000/svg"
 width="30.000000pt" height="29.000000pt" viewBox="0 0 30.000000 29.000000"
 preserveAspectRatio="xMidYMid meet">
<metadata>
Created by potrace 1.16, written by Peter Selinger 2001-2019
</metadata>
<g transform="translate(0.000000,29.000000) scale(0.100000,-0.100000)"
fill="#000000" stroke="none">
<path d="M37 283 l-27 -4 0 -45 0 -44 26 0 25 0 15 -14 14 -15 0 -10 0 -11
-15 0 -15 0 0 -10 0 -10 -24 0 -23 0 -6 -51 -6 -52 5 -8 5 -9 39 0 39 0 26 12
26 12 6 28 6 28 7 0 7 0 -5 -29 -4 -30 40 -12 40 -12 26 7 26 6 0 18 0 17 -10
36 -10 37 -20 5 -20 5 0 21 0 21 19 0 20 0 15 16 16 15 0 45 0 44 -7 -1 -8 0
-60 -13 -60 -12 -3 -27 -3 -27 -19 0 -18 0 -6 16 -6 16 6 24 6 24 -28 -1 -29
-2 -28 -4z"/>
</g>
</svg>
