<?xml version="1.0" standalone="no"?>
<!DOCTYPE svg PUBLIC "-//W3C//DTD SVG 20010904//EN"
 "http://www.w3.org/TR/2001/REC-SVG-20010904/DTD/svg10.dtd">
<svg version="1.0" xmlns="http://www.w3.org/2000/svg"
 width="28.000000pt" height="27.000000pt" viewBox="0 0 28.000000 27.000000"
 preserveAspectRatio="xMidYMid meet">
<metadata>
Created by potrace 1.16, written by Peter Selinger 2001-2019
</metadata>
<g transform="translate(0.000000,27.000000) scale(0.100000,-0.100000)"
fill="#000000" stroke="none">
<path d="M37 263 l-27 -4 0 -35 0 -34 26 0 25 0 15 -14 14 -15 0 -20 0 -21
-15 0 -15 0 0 -10 0 -10 -24 0 -24 0 -4 -42 -5 -43 4 -7 4 -8 30 0 30 0 22 11
22 12 8 11 7 11 -5 24 -6 24 16 -7 17 -6 10 0 10 0 -7 -29 -6 -29 32 -11 32
-11 11 0 11 0 13 9 14 8 -11 40 -11 41 -20 5 -20 5 0 31 0 31 19 0 20 0 15 16
16 15 0 33 0 32 -57 -11 -58 -11 -3 -27 -3 -27 -29 0 -30 0 -6 25 -6 25 6 15
5 15 -17 -1 -17 -2 -28 -4z"/>
</g>
</svg>
