<?xml version="1.0" standalone="no"?>
<!DOCTYPE svg PUBLIC "-//W3C//DTD SVG 20010904//EN"
 "http://www.w3.org/TR/2001/REC-SVG-20010904/DTD/svg10.dtd">
<svg version="1.0" xmlns="http://www.w3.org/2000/svg"
 width="34.000000pt" height="33.000000pt" viewBox="0 0 34.000000 33.000000"
 preserveAspectRatio="xMidYMid meet">
<metadata>
Created by potrace 1.16, written by Peter Selinger 2001-2019
</metadata>
<g transform="translate(0.000000,33.000000) scale(0.100000,-0.100000)"
fill="#000000" stroke="none">
<path d="M125 301 l6 -29 -21 -7 -21 -7 -39 7 -40 7 0 -35 0 -36 16 -16 17
-16 24 6 24 6 -3 -28 -3 -28 -20 -3 -20 -3 -23 -5 -22 -4 0 -18 0 -17 11 -38
10 -37 33 0 33 0 21 19 22 18 0 22 0 21 25 0 25 0 -6 -24 -6 -24 19 -5 18 -6
33 -6 32 -7 0 46 0 45 33 9 32 8 3 27 3 26 -24 6 -24 7 -12 24 -11 25 0 19 0
19 -35 7 -35 6 -6 24 -6 24 -35 0 -35 0 7 -29z"/>
</g>
</svg>
