<?xml version="1.0" standalone="no"?>
<!DOCTYPE svg PUBLIC "-//W3C//DTD SVG 20010904//EN"
 "http://www.w3.org/TR/2001/REC-SVG-20010904/DTD/svg10.dtd">
<svg version="1.0" xmlns="http://www.w3.org/2000/svg"
 width="37.000000pt" height="43.000000pt" viewBox="0 0 37.000000 43.000000"
 preserveAspectRatio="xMidYMid meet">
<metadata>
Created by potrace 1.16, written by Peter Selinger 2001-2019
</metadata>
<g transform="translate(0.000000,43.000000) scale(0.100000,-0.100000)"
fill="#000000" stroke="none">
<path d="M110 394 l0 -37 -39 7 -39 6 -16 -6 -16 -6 0 -42 0 -41 8 -12 7 -11
34 -4 34 -3 4 -12 4 -11 -29 -7 -30 -6 -6 -31 -6 -30 0 -34 0 -34 44 0 45 0
-6 -34 -5 -34 21 -7 21 -6 30 6 30 7 0 24 0 24 25 0 24 0 26 12 25 11 0 49 0
48 20 0 20 0 0 10 0 10 15 0 15 0 0 29 0 29 -6 16 -6 16 -28 0 -29 0 -3 38 -3
37 -30 -3 -30 -2 -22 5 -22 5 -3 28 -3 27 -37 3 -38 3 0 -37z"/>
</g>
</svg>
