<?xml version="1.0" standalone="no"?>
<!DOCTYPE svg PUBLIC "-//W3C//DTD SVG 20010904//EN"
 "http://www.w3.org/TR/2001/REC-SVG-20010904/DTD/svg10.dtd">
<svg version="1.0" xmlns="http://www.w3.org/2000/svg"
 width="36.000000pt" height="35.000000pt" viewBox="0 0 36.000000 35.000000"
 preserveAspectRatio="xMidYMid meet">
<metadata>
Created by potrace 1.16, written by Peter Selinger 2001-2019
</metadata>
<g transform="translate(0.000000,35.000000) scale(0.100000,-0.100000)"
fill="#000000" stroke="none">
<path d="M122 320 l4 -29 -13 -5 -13 -6 -45 7 -45 6 0 -46 0 -46 16 -15 15
-16 26 0 25 0 -4 -12 -5 -13 -19 -3 -19 -3 -23 -5 -22 -4 0 -28 0 -27 11 -37
10 -38 43 0 43 0 21 19 22 18 0 22 0 21 10 0 10 0 0 -24 0 -24 14 -5 13 -5 47
-7 46 -7 0 46 0 45 33 9 32 8 3 37 3 36 -24 6 -24 7 -12 24 -11 25 0 19 0 19
-35 7 -35 6 -6 24 -6 24 -45 0 -45 0 4 -30z"/>
</g>
</svg>
