<?xml version="1.0" standalone="no"?>
<!DOCTYPE svg PUBLIC "-//W3C//DTD SVG 20010904//EN"
 "http://www.w3.org/TR/2001/REC-SVG-20010904/DTD/svg10.dtd">
<svg version="1.0" xmlns="http://www.w3.org/2000/svg"
 width="35.000000pt" height="41.000000pt" viewBox="0 0 35.000000 41.000000"
 preserveAspectRatio="xMidYMid meet">
<metadata>
Created by potrace 1.16, written by Peter Selinger 2001-2019
</metadata>
<g transform="translate(0.000000,41.000000) scale(0.100000,-0.100000)"
fill="#000000" stroke="none">
<path d="M110 375 l0 -37 -42 2 -43 3 -12 -2 -13 -1 0 -32 0 -33 8 -12 7 -11
35 -4 35 -3 3 -22 3 -21 -29 -7 -30 -6 -6 -31 -6 -30 0 -24 0 -24 46 0 46 0
-6 -34 -6 -34 16 -6 16 -6 24 6 24 6 0 24 0 24 25 0 24 0 26 12 25 11 0 49 0
48 20 0 20 0 0 10 0 10 15 0 15 0 0 19 0 19 -6 16 -6 16 -28 0 -29 0 -3 37 -3
38 -40 -3 -40 -2 -11 7 -12 8 -3 25 -4 25 -27 3 -28 3 0 -36z"/>
</g>
</svg>
