<?xml version="1.0" standalone="no"?>
<!DOCTYPE svg PUBLIC "-//W3C//DTD SVG 20010904//EN"
 "http://www.w3.org/TR/2001/REC-SVG-20010904/DTD/svg10.dtd">
<svg version="1.0" xmlns="http://www.w3.org/2000/svg"
 width="28.000000pt" height="35.000000pt" viewBox="0 0 28.000000 35.000000"
 preserveAspectRatio="xMidYMid meet">
<metadata>
Created by potrace 1.16, written by Peter Selinger 2001-2019
</metadata>
<g transform="translate(0.000000,35.000000) scale(0.100000,-0.100000)"
fill="#000000" stroke="none">
<path d="M112 333 l5 -19 -13 -12 -13 -12 -47 0 -46 0 6 -22 6 -23 0 -31 0
-31 40 -7 40 -6 0 -15 0 -15 -29 0 -29 0 -11 -62 -11 -62 13 -8 12 -8 38 0 38
0 15 15 15 15 -3 25 -3 24 10 1 10 1 3 -18 3 -18 5 -22 4 -23 43 0 42 0 12 8
13 8 -11 63 -11 63 -22 -4 -22 -4 -12 12 -12 13 16 15 15 16 30 0 29 0 0 51 0
50 -44 -6 -45 -7 -9 33 -8 34 -33 3 -34 3 5 -18z"/>
</g>
</svg>
