<?xml version="1.0" standalone="no"?>
<!DOCTYPE svg PUBLIC "-//W3C//DTD SVG 20010904//EN"
 "http://www.w3.org/TR/2001/REC-SVG-20010904/DTD/svg10.dtd">
<svg version="1.0" xmlns="http://www.w3.org/2000/svg"
 width="37.000000pt" height="42.000000pt" viewBox="0 0 37.000000 42.000000"
 preserveAspectRatio="xMidYMid meet">
<metadata>
Created by potrace 1.16, written by Peter Selinger 2001-2019
</metadata>
<g transform="translate(0.000000,42.000000) scale(0.100000,-0.100000)"
fill="#000000" stroke="none">
<path d="M180 399 l0 -22 -22 -18 -21 -19 -29 0 -28 0 0 -34 0 -34 -6 -16 -6
-16 -34 0 -34 0 0 -25 0 -25 23 0 22 0 12 -8 12 -7 3 -45 3 -44 25 -1 25 -1
23 -2 22 -2 0 -24 0 -24 6 -16 6 -16 23 0 23 0 12 36 12 35 -5 19 -5 18 53 -5
53 -6 11 35 12 35 -7 16 -6 17 -39 -6 -39 -7 0 37 0 36 19 0 19 0 16 6 16 6 0
38 0 38 -53 6 -52 7 -14 8 -13 9 7 21 6 21 -25 0 -26 0 0 -21z"/>
</g>
</svg>
