<?xml version="1.0" standalone="no"?>
<!DOCTYPE svg PUBLIC "-//W3C//DTD SVG 20010904//EN"
 "http://www.w3.org/TR/2001/REC-SVG-20010904/DTD/svg10.dtd">
<svg version="1.0" xmlns="http://www.w3.org/2000/svg"
 width="31.000000pt" height="37.000000pt" viewBox="0 0 31.000000 37.000000"
 preserveAspectRatio="xMidYMid meet">
<metadata>
Created by potrace 1.16, written by Peter Selinger 2001-2019
</metadata>
<g transform="translate(0.000000,37.000000) scale(0.100000,-0.100000)"
fill="#000000" stroke="none">
<path d="M124 356 l-6 -16 4 -18 5 -18 -13 -12 -13 -12 -48 3 -48 2 -3 -52 -3
-53 40 0 41 0 0 -20 0 -20 -23 0 -24 0 -11 -25 -12 -26 0 -38 0 -39 22 -6 23
-6 30 0 30 0 14 9 14 9 -5 26 -5 26 22 0 23 0 6 -24 6 -24 35 -6 36 -7 19 6
20 6 0 54 0 53 -16 6 -16 6 -24 0 -24 0 0 15 0 15 29 0 29 0 16 6 16 6 0 55 0
55 -55 -7 -54 -6 -5 23 -5 23 -3 20 -3 20 -28 3 -27 3 -6 -15z"/>
</g>
</svg>
