<?xml version="1.0" standalone="no"?>
<!DOCTYPE svg PUBLIC "-//W3C//DTD SVG 20010904//EN"
 "http://www.w3.org/TR/2001/REC-SVG-20010904/DTD/svg10.dtd">
<svg version="1.0" xmlns="http://www.w3.org/2000/svg"
 width="39.000000pt" height="44.000000pt" viewBox="0 0 39.000000 44.000000"
 preserveAspectRatio="xMidYMid meet">
<metadata>
Created by potrace 1.16, written by Peter Selinger 2001-2019
</metadata>
<g transform="translate(0.000000,44.000000) scale(0.100000,-0.100000)"
fill="#000000" stroke="none">
<path d="M180 419 l0 -22 -22 -18 -21 -19 -29 0 -28 0 0 -34 0 -34 -6 -16 -6
-16 -34 0 -34 0 0 -35 0 -35 23 0 22 0 12 -8 12 -7 3 -45 3 -45 25 -1 25 -1
23 -2 22 -1 0 -24 0 -24 6 -16 6 -16 33 0 33 0 11 31 11 32 0 18 0 19 49 0 49
0 12 36 12 35 -7 26 -6 25 -39 -6 -40 -6 0 25 0 25 19 0 19 0 16 6 16 6 0 48
0 47 -50 7 -50 7 -14 5 -13 5 5 25 4 24 -36 0 -36 0 0 -21z"/>
</g>
</svg>
