<?xml version="1.0" standalone="no"?>
<!DOCTYPE svg PUBLIC "-//W3C//DTD SVG 20010904//EN"
 "http://www.w3.org/TR/2001/REC-SVG-20010904/DTD/svg10.dtd">
<svg version="1.0" xmlns="http://www.w3.org/2000/svg"
 width="29.000000pt" height="34.000000pt" viewBox="0 0 29.000000 34.000000"
 preserveAspectRatio="xMidYMid meet">
<metadata>
Created by potrace 1.16, written by Peter Selinger 2001-2019
</metadata>
<g transform="translate(0.000000,34.000000) scale(0.100000,-0.100000)"
fill="#000000" stroke="none">
<path d="M127 315 l5 -24 -16 -17 -17 -16 -50 4 -49 5 0 -43 0 -44 40 -6 40
-7 0 -27 0 -27 -29 -6 -28 -6 -6 -43 -6 -43 4 -3 4 -4 46 -5 45 -6 0 37 0 37
28 -3 27 -3 4 -25 3 -25 12 -7 11 -8 28 0 28 0 15 14 14 15 0 36 0 36 -15 16
-16 15 -14 -6 -15 -5 0 23 0 24 27 7 28 7 7 11 8 12 0 30 0 30 -45 -3 -44 -4
-16 15 -15 16 0 25 0 26 -24 0 -23 0 4 -25z"/>
</g>
</svg>
