<?xml version="1.0" standalone="no"?>
<!DOCTYPE svg PUBLIC "-//W3C//DTD SVG 20010904//EN"
 "http://www.w3.org/TR/2001/REC-SVG-20010904/DTD/svg10.dtd">
<svg version="1.0" xmlns="http://www.w3.org/2000/svg"
 width="31.000000pt" height="36.000000pt" viewBox="0 0 31.000000 36.000000"
 preserveAspectRatio="xMidYMid meet">
<metadata>
Created by potrace 1.16, written by Peter Selinger 2001-2019
</metadata>
<g transform="translate(0.000000,36.000000) scale(0.100000,-0.100000)"
fill="#000000" stroke="none">
<path d="M124 335 l7 -26 -16 -16 -16 -15 -50 6 -49 7 0 -56 0 -55 40 -6 40
-7 0 -17 0 -17 -29 -6 -28 -6 -7 -52 -7 -51 6 -6 5 -5 55 -5 55 -4 0 36 0 37
18 -3 17 -3 4 -25 3 -25 12 -7 11 -8 38 0 38 0 15 14 14 15 0 46 0 46 -14 15
-15 14 -15 0 -16 0 0 9 0 9 27 7 28 7 7 11 8 12 0 42 0 43 -44 -6 -45 -7 -15
16 -16 16 0 25 0 26 -36 0 -36 0 6 -25z"/>
</g>
</svg>
