<?xml version="1.0" standalone="no"?>
<!DOCTYPE svg PUBLIC "-//W3C//DTD SVG 20010904//EN"
 "http://www.w3.org/TR/2001/REC-SVG-20010904/DTD/svg10.dtd">
<svg version="1.0" xmlns="http://www.w3.org/2000/svg"
 width="26.000000pt" height="33.000000pt" viewBox="0 0 26.000000 33.000000"
 preserveAspectRatio="xMidYMid meet">
<metadata>
Created by potrace 1.16, written by Peter Selinger 2001-2019
</metadata>
<g transform="translate(0.000000,33.000000) scale(0.100000,-0.100000)"
fill="#000000" stroke="none">
<path d="M116 316 l6 -15 -15 -16 -16 -15 -43 0 -43 0 3 -44 4 -44 39 -6 39
-6 0 -25 0 -25 -29 0 -29 0 -9 -52 -9 -53 11 -7 10 -8 28 0 28 0 14 14 14 14
-2 28 -2 29 20 0 20 0 3 -20 3 -20 5 -22 4 -23 33 0 32 0 10 8 11 7 -9 53 -9
53 -19 -6 -19 -6 -15 15 -15 15 0 10 0 10 16 15 15 16 30 0 29 0 0 39 0 39
-44 -5 -45 -5 -8 33 -9 34 -22 3 -22 3 6 -15z"/>
</g>
</svg>
