<?xml version="1.0" standalone="no"?>
<!DOCTYPE svg PUBLIC "-//W3C//DTD SVG 20010904//EN"
 "http://www.w3.org/TR/2001/REC-SVG-20010904/DTD/svg10.dtd">
<svg version="1.0" xmlns="http://www.w3.org/2000/svg"
 width="29.000000pt" height="35.000000pt" viewBox="0 0 29.000000 35.000000"
 preserveAspectRatio="xMidYMid meet">
<metadata>
Created by potrace 1.16, written by Peter Selinger 2001-2019
</metadata>
<g transform="translate(0.000000,35.000000) scale(0.100000,-0.100000)"
fill="#000000" stroke="none">
<path d="M125 340 l-6 -10 6 -20 6 -20 -15 -16 -16 -16 -48 4 -47 3 -3 -42 -3
-43 40 0 41 0 0 -35 0 -35 -23 5 -23 6 -12 -26 -12 -26 0 -29 0 -29 34 -6 34
-7 22 7 21 7 -6 29 -7 29 35 0 35 0 6 -24 6 -23 30 -6 30 -6 15 5 15 6 0 43 0
43 -16 6 -16 6 -24 0 -24 0 0 25 0 25 29 0 29 0 16 6 16 6 0 44 0 44 -54 -6
-55 -7 -5 24 -5 24 -3 20 -3 20 -17 3 -16 3 -7 -11z"/>
</g>
</svg>
