<?xml version="1.0" standalone="no"?>
<!DOCTYPE svg PUBLIC "-//W3C//DTD SVG 20010904//EN"
 "http://www.w3.org/TR/2001/REC-SVG-20010904/DTD/svg10.dtd">
<svg version="1.0" xmlns="http://www.w3.org/2000/svg"
 width="31.000000pt" height="37.000000pt" viewBox="0 0 31.000000 37.000000"
 preserveAspectRatio="xMidYMid meet">
<metadata>
Created by potrace 1.16, written by Peter Selinger 2001-2019
</metadata>
<g transform="translate(0.000000,37.000000) scale(0.100000,-0.100000)"
fill="#000000" stroke="none">
<path d="M130 348 l2 -23 -1 -11 -1 -12 -29 -11 -28 -12 -37 6 -36 7 0 -55 0
-55 16 -6 16 -6 18 0 18 0 5 -15 6 -14 -7 -4 -7 -4 -26 -6 -26 -7 -7 -51 -7
-51 5 -5 4 -5 41 -5 40 -5 25 6 26 6 0 36 0 35 10 -6 10 -6 0 -19 0 -19 17
-16 17 -17 53 4 53 5 5 5 6 6 -7 51 -7 52 -28 6 -29 6 0 13 0 14 16 0 17 0 19
22 19 22 -3 41 -3 40 -35 1 -35 0 -21 7 -21 7 5 29 4 28 -24 6 -23 7 -13 0
-13 0 1 -22z"/>
</g>
</svg>
