<?xml version="1.0" standalone="no"?>
<!DOCTYPE svg PUBLIC "-//W3C//DTD SVG 20010904//EN"
 "http://www.w3.org/TR/2001/REC-SVG-20010904/DTD/svg10.dtd">
<svg version="1.0" xmlns="http://www.w3.org/2000/svg"
 width="29.000000pt" height="35.000000pt" viewBox="0 0 29.000000 35.000000"
 preserveAspectRatio="xMidYMid meet">
<metadata>
Created by potrace 1.16, written by Peter Selinger 2001-2019
</metadata>
<g transform="translate(0.000000,35.000000) scale(0.100000,-0.100000)"
fill="#000000" stroke="none">
<path d="M134 333 l6 -20 -5 -16 -6 -15 -30 -12 -29 -13 -35 6 -35 6 0 -44 0
-43 16 -6 16 -6 18 0 19 0 6 -20 6 -20 -5 -9 -6 -8 -30 -6 -30 -6 0 -23 0 -23
-6 -22 -6 -22 36 -6 36 -7 26 6 25 7 -3 32 -3 32 19 0 20 0 8 -32 9 -33 24 -6
25 -6 36 7 36 6 -6 22 -6 22 0 23 0 23 -30 6 -30 6 0 23 0 24 16 0 17 0 19 22
19 22 -3 31 -3 30 -24 -3 -25 -2 -33 11 -34 11 6 29 7 29 -10 0 -10 0 -17 7
-17 6 6 -20z"/>
</g>
</svg>
