<?xml version="1.0" standalone="no"?>
<!DOCTYPE svg PUBLIC "-//W3C//DTD SVG 20010904//EN"
 "http://www.w3.org/TR/2001/REC-SVG-20010904/DTD/svg10.dtd">
<svg version="1.0" xmlns="http://www.w3.org/2000/svg"
 width="36.000000pt" height="41.000000pt" viewBox="0 0 36.000000 41.000000"
 preserveAspectRatio="xMidYMid meet">
<metadata>
Created by potrace 1.16, written by Peter Selinger 2001-2019
</metadata>
<g transform="translate(0.000000,41.000000) scale(0.100000,-0.100000)"
fill="#000000" stroke="none">
<path d="M170 391 l0 -19 -6 -16 -6 -16 -44 0 -44 0 0 -31 0 -30 -14 -15 -15
-14 -20 0 -21 0 0 -40 0 -40 23 0 22 0 23 -7 24 -6 -6 -21 -6 -21 -6 -27 -6
-28 40 0 40 0 6 -30 6 -30 35 0 35 0 17 20 17 20 18 0 17 0 26 12 25 11 0 63
0 62 -16 6 -16 6 -19 0 -19 0 0 15 0 15 29 0 29 0 12 29 12 29 -4 28 -3 29
-25 -1 -25 -1 -27 -7 -27 -8 -11 41 -11 41 -29 0 -30 0 0 -19z"/>
</g>
</svg>
