<?xml version="1.0" standalone="no"?>
<!DOCTYPE svg PUBLIC "-//W3C//DTD SVG 20010904//EN"
 "http://www.w3.org/TR/2001/REC-SVG-20010904/DTD/svg10.dtd">
<svg version="1.0" xmlns="http://www.w3.org/2000/svg"
 width="34.000000pt" height="39.000000pt" viewBox="0 0 34.000000 39.000000"
 preserveAspectRatio="xMidYMid meet">
<metadata>
Created by potrace 1.16, written by Peter Selinger 2001-2019
</metadata>
<g transform="translate(0.000000,39.000000) scale(0.100000,-0.100000)"
fill="#000000" stroke="none">
<path d="M170 371 l0 -19 -6 -16 -6 -16 -44 0 -44 0 0 -31 0 -30 -14 -15 -15
-14 -20 0 -21 0 0 -30 0 -30 23 0 22 0 24 -7 23 -6 -5 -31 -5 -31 -7 -17 -7
-18 40 0 40 0 6 -30 6 -30 25 0 25 0 17 20 17 20 18 0 17 0 26 12 25 11 0 53
0 52 -16 6 -16 6 -18 0 -18 0 -5 13 -4 12 4 16 4 15 28 -4 28 -4 12 30 13 30
-4 19 -4 18 -19 -3 -20 -2 -32 -6 -32 -6 -11 41 -11 41 -19 0 -20 0 0 -19z"/>
</g>
</svg>
