<?xml version="1.0" standalone="no"?>
<!DOCTYPE svg PUBLIC "-//W3C//DTD SVG 20010904//EN"
 "http://www.w3.org/TR/2001/REC-SVG-20010904/DTD/svg10.dtd">
<svg version="1.0" xmlns="http://www.w3.org/2000/svg"
 width="42.000000pt" height="36.000000pt" viewBox="0 0 42.000000 36.000000"
 preserveAspectRatio="xMidYMid meet">
<metadata>
Created by potrace 1.16, written by Peter Selinger 2001-2019
</metadata>
<g transform="translate(0.000000,36.000000) scale(0.100000,-0.100000)"
fill="#000000" stroke="none">
<path d="M160 336 l0 -26 -15 0 -15 0 0 -10 0 -11 -35 7 -35 6 6 -45 7 -46
-16 -15 -16 -16 -20 0 -21 0 0 -36 0 -36 35 4 35 4 5 -18 6 -17 -7 -36 -6 -35
52 0 51 0 15 14 14 15 0 16 0 16 9 -5 8 -6 7 -31 6 -31 55 4 55 5 6 5 6 6 5
41 6 41 14 0 14 0 15 14 14 15 0 31 0 31 -14 15 -15 14 -20 0 -21 0 0 41 0 41
-45 -6 -45 -7 -13 13 -12 13 0 20 0 20 -37 3 -38 3 0 -25z"/>
</g>
</svg>
