<?xml version="1.0" standalone="no"?>
<!DOCTYPE svg PUBLIC "-//W3C//DTD SVG 20010904//EN"
 "http://www.w3.org/TR/2001/REC-SVG-20010904/DTD/svg10.dtd">
<svg version="1.0" xmlns="http://www.w3.org/2000/svg"
 width="40.000000pt" height="34.000000pt" viewBox="0 0 40.000000 34.000000"
 preserveAspectRatio="xMidYMid meet">
<metadata>
Created by potrace 1.16, written by Peter Selinger 2001-2019
</metadata>
<g transform="translate(0.000000,34.000000) scale(0.100000,-0.100000)"
fill="#000000" stroke="none">
<path d="M160 316 l0 -26 -15 0 -15 0 0 -11 0 -12 -32 6 -33 5 3 -44 4 -43
-15 -16 -16 -15 -20 0 -21 0 0 -26 0 -26 35 6 34 7 7 -26 6 -26 -6 -29 -5 -30
40 0 40 0 16 15 15 16 -6 15 -6 15 22 -3 22 -3 9 -34 8 -33 45 5 45 5 5 5 6 5
5 41 6 41 14 0 14 0 15 14 14 15 0 21 0 21 -15 15 -15 15 -17 -3 -18 -3 -3 42
-3 42 -44 -6 -44 -6 -16 16 -16 17 3 17 3 18 -27 3 -28 3 0 -25z"/>
</g>
</svg>
