<?xml version="1.0" standalone="no"?>
<!DOCTYPE svg PUBLIC "-//W3C//DTD SVG 20010904//EN"
 "http://www.w3.org/TR/2001/REC-SVG-20010904/DTD/svg10.dtd">
<svg version="1.0" xmlns="http://www.w3.org/2000/svg"
 width="34.000000pt" height="34.000000pt" viewBox="0 0 34.000000 34.000000"
 preserveAspectRatio="xMidYMid meet">
<metadata>
Created by potrace 1.16, written by Peter Selinger 2001-2019
</metadata>
<g transform="translate(0.000000,34.000000) scale(0.100000,-0.100000)"
fill="#000000" stroke="none">
<path d="M119 333 l-1 -8 2 -27 1 -27 -25 -7 -26 -6 -35 6 -35 7 0 -30 0 -30
12 -26 12 -26 28 6 28 7 0 -31 0 -31 -23 -5 -22 -6 -13 -41 -13 -40 5 -5 4 -5
41 -5 40 -5 16 16 16 16 -3 17 -3 18 27 3 28 3 -6 -15 -6 -15 14 -14 13 -14
43 -7 43 -6 -6 21 -7 21 6 33 7 34 29 6 30 7 0 23 0 22 -40 7 -40 6 0 40 0 40
-33 0 -33 0 -16 13 -17 12 -3 25 -3 25 -17 3 -18 3 -1 -8z"/>
</g>
</svg>
