<?xml version="1.0" standalone="no"?>
<!DOCTYPE svg PUBLIC "-//W3C//DTD SVG 20010904//EN"
 "http://www.w3.org/TR/2001/REC-SVG-20010904/DTD/svg10.dtd">
<svg version="1.0" xmlns="http://www.w3.org/2000/svg"
 width="36.000000pt" height="36.000000pt" viewBox="0 0 36.000000 36.000000"
 preserveAspectRatio="xMidYMid meet">
<metadata>
Created by potrace 1.16, written by Peter Selinger 2001-2019
</metadata>
<g transform="translate(0.000000,36.000000) scale(0.100000,-0.100000)"
fill="#000000" stroke="none">
<path d="M116 351 l-7 -10 6 -24 6 -24 -17 -7 -17 -7 -44 7 -43 6 0 -40 0 -41
12 -26 12 -27 28 4 28 5 0 -19 0 -18 -23 -5 -22 -6 -13 -39 -12 -40 0 -14 0
-14 22 -6 23 -6 33 0 33 0 15 14 14 15 0 20 0 21 10 0 10 0 0 -16 0 -15 13
-14 13 -13 54 -7 53 -7 -6 32 -7 32 6 23 6 24 29 6 29 7 0 33 0 32 -40 7 -40
6 0 40 0 40 -33 0 -33 0 -16 13 -17 12 -3 25 -3 25 -27 3 -26 3 -6 -10z"/>
</g>
</svg>
