<?xml version="1.0" standalone="no"?>
<!DOCTYPE svg PUBLIC "-//W3C//DTD SVG 20010904//EN"
 "http://www.w3.org/TR/2001/REC-SVG-20010904/DTD/svg10.dtd">
<svg version="1.0" xmlns="http://www.w3.org/2000/svg"
 width="35.000000pt" height="34.000000pt" viewBox="0 0 35.000000 34.000000"
 preserveAspectRatio="xMidYMid meet">
<metadata>
Created by potrace 1.16, written by Peter Selinger 2001-2019
</metadata>
<g transform="translate(0.000000,34.000000) scale(0.100000,-0.100000)"
fill="#000000" stroke="none">
<path d="M173 334 l-12 -5 6 -14 5 -14 -15 -16 -16 -15 -35 0 -36 0 0 -44 0
-44 -25 -6 -26 -7 -9 6 -10 6 0 -30 0 -31 19 0 19 0 10 -12 10 -13 7 -42 7
-43 43 0 43 0 6 16 6 16 0 19 0 19 20 0 19 0 11 -40 11 -40 16 0 16 0 38 11
38 12 6 40 7 39 -13 9 -14 9 -25 0 -25 0 -13 9 -14 8 4 24 3 24 29 -2 28 -2
15 14 14 15 -3 32 -3 32 -49 18 -50 17 -8 16 -9 15 -17 -1 -17 -1 -12 -4z"/>
</g>
</svg>
