<?xml version="1.0" standalone="no"?>
<!DOCTYPE svg PUBLIC "-//W3C//DTD SVG 20010904//EN"
 "http://www.w3.org/TR/2001/REC-SVG-20010904/DTD/svg10.dtd">
<svg version="1.0" xmlns="http://www.w3.org/2000/svg"
 width="34.000000pt" height="40.000000pt" viewBox="0 0 34.000000 40.000000"
 preserveAspectRatio="xMidYMid meet">
<metadata>
Created by potrace 1.16, written by Peter Selinger 2001-2019
</metadata>
<g transform="translate(0.000000,40.000000) scale(0.100000,-0.100000)"
fill="#000000" stroke="none">
<path d="M190 384 l0 -17 -22 -18 -21 -19 -34 0 -33 0 0 -39 0 -39 -38 -9 -37
-9 -3 -26 -3 -26 30 -7 31 -7 6 -22 5 -23 -1 -14 -2 -14 1 -14 1 -14 50 7 50
7 -6 -16 -6 -15 6 -25 6 -25 30 0 29 0 3 27 3 28 50 8 50 8 -3 54 -4 55 -22
-6 -22 -5 -22 19 -22 19 0 11 0 11 16 15 15 16 24 0 23 0 6 16 6 16 0 22 0 23
-28 -5 -29 -4 -16 17 -17 16 0 20 0 19 -25 0 -25 0 0 -16z"/>
</g>
</svg>
