<?xml version="1.0" standalone="no"?>
<!DOCTYPE svg PUBLIC "-//W3C//DTD SVG 20010904//EN"
 "http://www.w3.org/TR/2001/REC-SVG-20010904/DTD/svg10.dtd">
<svg version="1.0" xmlns="http://www.w3.org/2000/svg"
 width="31.000000pt" height="27.000000pt" viewBox="0 0 31.000000 27.000000"
 preserveAspectRatio="xMidYMid meet">
<metadata>
Created by potrace 1.16, written by Peter Selinger 2001-2019
</metadata>
<g transform="translate(0.000000,27.000000) scale(0.100000,-0.100000)"
fill="#000000" stroke="none">
<path d="M73 263 l-13 -5 0 -31 0 -32 -9 -14 -9 -13 -21 7 -21 6 0 -30 0 -31
9 0 10 0 15 -16 16 -15 0 -45 0 -44 41 0 40 0 16 15 15 16 -5 13 -6 14 15 6
16 6 19 0 19 0 0 -13 0 -14 25 -11 26 -12 15 0 15 0 -3 48 -3 47 -22 -3 -21
-3 -7 21 -6 20 15 15 15 15 20 0 21 0 0 40 0 40 -50 0 -50 0 6 -24 5 -23 -16
-17 -16 -16 -12 0 -12 0 -12 8 -11 7 -4 29 -3 30 -25 6 -25 7 -12 -4z"/>
</g>
</svg>
