<?xml version="1.0" standalone="no"?>
<!DOCTYPE svg PUBLIC "-//W3C//DTD SVG 20010904//EN"
 "http://www.w3.org/TR/2001/REC-SVG-20010904/DTD/svg10.dtd">
<svg version="1.0" xmlns="http://www.w3.org/2000/svg"
 width="37.000000pt" height="36.000000pt" viewBox="0 0 37.000000 36.000000"
 preserveAspectRatio="xMidYMid meet">
<metadata>
Created by potrace 1.16, written by Peter Selinger 2001-2019
</metadata>
<g transform="translate(0.000000,36.000000) scale(0.100000,-0.100000)"
fill="#000000" stroke="none">
<path d="M171 351 l-13 -9 4 -13 5 -14 -13 -12 -13 -13 -35 0 -36 0 0 -45 0
-45 -17 -1 -18 -1 -17 1 -18 2 0 -40 0 -41 19 0 19 0 10 -12 10 -13 7 -42 7
-43 53 0 53 0 6 16 6 16 0 19 0 19 10 0 9 0 11 -40 11 -40 26 0 26 0 37 11 38
12 6 30 6 29 0 24 0 24 -25 5 -25 5 -26 5 -25 6 3 17 3 17 28 -3 27 -3 16 15
15 16 -3 42 -3 42 -49 18 -50 17 -8 16 -9 15 -27 0 -27 0 -14 -9z"/>
</g>
</svg>
