<?xml version="1.0" standalone="no"?>
<!DOCTYPE svg PUBLIC "-//W3C//DTD SVG 20010904//EN"
 "http://www.w3.org/TR/2001/REC-SVG-20010904/DTD/svg10.dtd">
<svg version="1.0" xmlns="http://www.w3.org/2000/svg"
 width="33.000000pt" height="29.000000pt" viewBox="0 0 33.000000 29.000000"
 preserveAspectRatio="xMidYMid meet">
<metadata>
Created by potrace 1.16, written by Peter Selinger 2001-2019
</metadata>
<g transform="translate(0.000000,29.000000) scale(0.100000,-0.100000)"
fill="#000000" stroke="none">
<path d="M73 283 l-13 -5 0 -28 0 -28 -6 -15 -5 -14 -25 5 -24 4 0 -41 0 -41
9 0 10 0 15 -16 16 -15 0 -45 0 -44 51 0 50 0 14 13 13 13 4 20 3 19 18 3 17
3 0 -14 0 -14 25 -11 26 -12 25 0 25 0 -3 58 -3 57 -20 0 -20 0 -7 9 -6 9 13
14 14 13 20 0 21 0 0 50 0 50 -61 0 -61 0 5 -26 4 -25 -14 -14 -14 -14 -14 5
-15 6 0 28 0 29 -7 4 -8 5 -30 5 -30 6 -12 -6z"/>
</g>
</svg>
