<?xml version="1.0" standalone="no"?>
<!DOCTYPE svg PUBLIC "-//W3C//DTD SVG 20010904//EN"
 "http://www.w3.org/TR/2001/REC-SVG-20010904/DTD/svg10.dtd">
<svg version="1.0" xmlns="http://www.w3.org/2000/svg"
 width="36.000000pt" height="42.000000pt" viewBox="0 0 36.000000 42.000000"
 preserveAspectRatio="xMidYMid meet">
<metadata>
Created by potrace 1.16, written by Peter Selinger 2001-2019
</metadata>
<g transform="translate(0.000000,42.000000) scale(0.100000,-0.100000)"
fill="#000000" stroke="none">
<path d="M190 404 l0 -17 -22 -18 -21 -19 -34 0 -33 0 0 -39 0 -39 -38 -9 -37
-9 -3 -36 -3 -36 30 -7 30 -6 6 -20 6 -19 -6 -10 -6 -10 6 -21 7 -21 44 4 44
3 0 -22 0 -21 6 -16 6 -16 38 0 39 0 3 27 3 28 53 8 54 9 -6 21 -6 22 0 44 0
43 -25 -4 -25 -5 -20 17 -21 18 16 16 16 16 24 0 23 0 6 16 6 16 0 35 0 35
-29 -7 -29 -6 -16 16 -16 16 0 20 0 19 -35 0 -35 0 0 -16z"/>
</g>
</svg>
