<?xml version="1.0" standalone="no"?>
<!DOCTYPE svg PUBLIC "-//W3C//DTD SVG 20010904//EN"
 "http://www.w3.org/TR/2001/REC-SVG-20010904/DTD/svg10.dtd">
<svg version="1.0" xmlns="http://www.w3.org/2000/svg"
 width="35.000000pt" height="33.000000pt" viewBox="0 0 35.000000 33.000000"
 preserveAspectRatio="xMidYMid meet">
<metadata>
Created by potrace 1.16, written by Peter Selinger 2001-2019
</metadata>
<g transform="translate(0.000000,33.000000) scale(0.100000,-0.100000)"
fill="#000000" stroke="none">
<path d="M127 324 l-6 -6 6 -14 5 -13 -17 -17 -16 -17 -45 7 -45 6 -5 -15 -6
-15 6 -35 7 -35 39 0 40 0 0 -26 0 -26 -29 7 -30 6 -11 -42 -11 -42 5 -23 6
-24 41 0 40 0 16 15 15 16 -5 24 -4 25 23 0 24 0 0 -26 0 -25 14 -15 15 -14
40 0 41 0 5 25 5 25 5 25 5 25 25 6 25 6 0 33 0 33 -27 7 -28 7 -7 11 -8 12 0
21 0 22 -22 6 -23 6 -18 0 -18 0 -16 15 -15 16 6 14 5 15 -23 0 -23 0 -6 -6z"/>
</g>
</svg>
