<?xml version="1.0" standalone="no"?>
<!DOCTYPE svg PUBLIC "-//W3C//DTD SVG 20010904//EN"
 "http://www.w3.org/TR/2001/REC-SVG-20010904/DTD/svg10.dtd">
<svg version="1.0" xmlns="http://www.w3.org/2000/svg"
 width="37.000000pt" height="35.000000pt" viewBox="0 0 37.000000 35.000000"
 preserveAspectRatio="xMidYMid meet">
<metadata>
Created by potrace 1.16, written by Peter Selinger 2001-2019
</metadata>
<g transform="translate(0.000000,35.000000) scale(0.100000,-0.100000)"
fill="#000000" stroke="none">
<path d="M123 335 l-5 -16 5 -6 6 -5 -14 -14 -14 -14 -48 3 -48 2 -3 -24 -4
-24 7 -33 6 -34 39 0 40 0 0 -13 0 -14 -29 5 -29 4 -11 -38 -11 -39 0 -22 0
-21 6 -16 6 -16 50 0 49 0 15 14 14 15 0 25 0 26 10 0 10 0 0 -26 0 -25 14
-15 15 -14 50 0 51 0 5 25 5 25 5 25 5 25 25 6 25 6 0 43 0 43 -27 7 -28 7 -7
11 -8 12 0 21 0 22 -22 6 -23 6 -18 0 -18 0 -13 12 -13 12 5 18 4 18 -36 0
-37 0 -6 -15z"/>
</g>
</svg>
