<?xml version="1.0" standalone="no"?>
<!DOCTYPE svg PUBLIC "-//W3C//DTD SVG 20010904//EN"
 "http://www.w3.org/TR/2001/REC-SVG-20010904/DTD/svg10.dtd">
<svg version="1.0" xmlns="http://www.w3.org/2000/svg"
 width="35.000000pt" height="31.000000pt" viewBox="0 0 35.000000 31.000000"
 preserveAspectRatio="xMidYMid meet">
<metadata>
Created by potrace 1.16, written by Peter Selinger 2001-2019
</metadata>
<g transform="translate(0.000000,31.000000) scale(0.100000,-0.100000)"
fill="#000000" stroke="none">
<path d="M183 288 l7 -26 -11 -31 -11 -31 -13 0 -13 0 -6 16 -6 16 0 23 0 23
-36 6 -36 7 -29 -6 -29 -7 0 -38 0 -38 6 -16 6 -16 29 0 29 0 0 -10 0 -10 -14
0 -14 0 -10 -27 -11 -28 -7 -27 -6 -27 7 -20 6 -21 43 0 43 0 21 19 22 18 0
17 0 16 15 0 15 0 0 -19 0 -20 16 -15 15 -16 32 0 32 0 11 8 12 7 7 42 7 42
19 6 19 6 0 40 0 39 -19 0 -20 0 -16 17 -17 16 6 39 6 38 -17 0 -18 0 -39 7
-39 6 6 -25z"/>
</g>
</svg>
