<?xml version="1.0" standalone="no"?>
<!DOCTYPE svg PUBLIC "-//W3C//DTD SVG 20010904//EN"
 "http://www.w3.org/TR/2001/REC-SVG-20010904/DTD/svg10.dtd">
<svg version="1.0" xmlns="http://www.w3.org/2000/svg"
 width="33.000000pt" height="29.000000pt" viewBox="0 0 33.000000 29.000000"
 preserveAspectRatio="xMidYMid meet">
<metadata>
Created by potrace 1.16, written by Peter Selinger 2001-2019
</metadata>
<g transform="translate(0.000000,29.000000) scale(0.100000,-0.100000)"
fill="#000000" stroke="none">
<path d="M187 272 l5 -21 -12 -35 -12 -36 -23 0 -23 0 -6 16 -6 16 0 23 0 23
-31 6 -31 6 -24 -6 -24 -6 0 -32 0 -31 8 -13 8 -12 25 2 24 3 3 -23 3 -22 -14
0 -15 0 -10 -27 -11 -28 -6 -21 -5 -21 6 -17 6 -16 33 0 32 0 21 19 22 18 0
17 0 16 24 0 24 0 5 -30 6 -29 25 -7 25 -6 19 6 20 7 6 44 7 44 20 6 19 6 0
30 0 29 -19 0 -20 0 -16 17 -17 16 4 39 4 38 -21 0 -20 0 -22 6 -22 6 6 -20z"/>
</g>
</svg>
