<?xml version="1.0" standalone="no"?>
<!DOCTYPE svg PUBLIC "-//W3C//DTD SVG 20010904//EN"
 "http://www.w3.org/TR/2001/REC-SVG-20010904/DTD/svg10.dtd">
<svg version="1.0" xmlns="http://www.w3.org/2000/svg"
 width="38.000000pt" height="30.000000pt" viewBox="0 0 38.000000 30.000000"
 preserveAspectRatio="xMidYMid meet">
<metadata>
Created by potrace 1.16, written by Peter Selinger 2001-2019
</metadata>
<g transform="translate(0.000000,30.000000) scale(0.100000,-0.100000)"
fill="#000000" stroke="none">
<path d="M6 285 l-6 -17 0 -23 0 -24 12 -26 11 -25 24 0 23 0 0 -15 0 -15 -16
0 -17 0 -19 -22 -20 -23 6 -33 5 -32 15 -15 15 -15 40 0 40 0 11 40 11 40 7 0
6 0 21 -23 20 -23 41 -13 41 -13 22 7 21 6 0 24 0 23 6 16 6 16 18 0 18 0 6
16 6 16 0 25 0 24 -15 16 -16 15 -19 -5 -20 -5 0 44 0 44 -60 0 -60 0 0 -26 0
-25 -14 -15 -15 -14 -9 0 -9 0 -11 25 -12 26 0 14 0 15 -24 0 -23 0 -30 6 -30
6 -7 -17z"/>
</g>
</svg>
