<?xml version="1.0" standalone="no"?>
<!DOCTYPE svg PUBLIC "-//W3C//DTD SVG 20010904//EN"
 "http://www.w3.org/TR/2001/REC-SVG-20010904/DTD/svg10.dtd">
<svg version="1.0" xmlns="http://www.w3.org/2000/svg"
 width="36.000000pt" height="28.000000pt" viewBox="0 0 36.000000 28.000000"
 preserveAspectRatio="xMidYMid meet">
<metadata>
Created by potrace 1.16, written by Peter Selinger 2001-2019
</metadata>
<g transform="translate(0.000000,28.000000) scale(0.100000,-0.100000)"
fill="#000000" stroke="none">
<path d="M4 256 l-6 -26 12 -30 12 -30 24 0 24 0 0 -30 0 -29 -15 5 -16 6 -20
-23 -20 -23 6 -24 6 -24 14 -14 14 -14 30 0 30 0 11 40 11 40 17 0 16 0 21
-23 20 -22 36 -13 36 -12 17 6 16 6 0 23 0 23 6 16 6 16 18 0 18 0 6 16 6 16
0 15 0 14 -14 14 -13 14 -22 -6 -21 -5 0 46 0 46 -50 0 -50 0 0 -26 0 -25 -14
-15 -15 -14 -19 0 -19 0 -11 25 -12 26 0 14 0 15 -29 0 -29 0 -16 6 -15 6 -7
-26z"/>
</g>
</svg>
