<?xml version="1.0" standalone="no"?>
<!DOCTYPE svg PUBLIC "-//W3C//DTD SVG 20010904//EN"
 "http://www.w3.org/TR/2001/REC-SVG-20010904/DTD/svg10.dtd">
<svg version="1.0" xmlns="http://www.w3.org/2000/svg"
 width="35.000000pt" height="36.000000pt" viewBox="0 0 35.000000 36.000000"
 preserveAspectRatio="xMidYMid meet">
<metadata>
Created by potrace 1.16, written by Peter Selinger 2001-2019
</metadata>
<g transform="translate(0.000000,36.000000) scale(0.100000,-0.100000)"
fill="#000000" stroke="none">
<path d="M77 353 l-4 -8 -7 -47 -7 -47 -30 -6 -29 -7 0 -29 0 -29 24 -6 24 -6
6 -49 7 -49 44 0 45 0 0 -19 0 -19 6 -16 6 -16 39 0 39 0 0 35 0 35 41 0 40 0
15 14 14 15 0 49 0 50 -16 6 -16 6 -19 0 -19 0 0 15 0 15 19 0 19 0 16 6 16 6
0 54 0 54 -134 0 -135 0 -4 -7z"/>
</g>
</svg>
