<?xml version="1.0" standalone="no"?>
<!DOCTYPE svg PUBLIC "-//W3C//DTD SVG 20010904//EN"
 "http://www.w3.org/TR/2001/REC-SVG-20010904/DTD/svg10.dtd">
<svg version="1.0" xmlns="http://www.w3.org/2000/svg"
 width="41.000000pt" height="38.000000pt" viewBox="0 0 41.000000 38.000000"
 preserveAspectRatio="xMidYMid meet">
<metadata>
Created by potrace 1.16, written by Peter Selinger 2001-2019
</metadata>
<g transform="translate(0.000000,38.000000) scale(0.100000,-0.100000)"
fill="#000000" stroke="none">
<path d="M240 354 l0 -25 -14 -15 -15 -14 -6 0 -6 0 -15 14 -14 15 0 20 0 21
-45 0 -45 0 0 -44 0 -44 -16 -6 -16 -6 -24 0 -24 0 0 -35 0 -35 23 0 22 0 22
-6 22 -6 -6 -48 -6 -49 44 -3 44 -3 -3 -27 -3 -28 15 -15 15 -15 18 0 18 0 11
8 11 7 12 22 11 22 0 20 0 21 35 0 35 0 0 36 0 35 13 13 12 13 14 -5 13 -4 9
13 9 14 0 22 0 22 -20 6 -20 6 -9 -5 -9 -6 -6 16 -6 16 0 38 0 38 -22 6 -23 6
-27 0 -28 0 0 -26z"/>
</g>
</svg>
