<?xml version="1.0" standalone="no"?>
<!DOCTYPE svg PUBLIC "-//W3C//DTD SVG 20010904//EN"
 "http://www.w3.org/TR/2001/REC-SVG-20010904/DTD/svg10.dtd">
<svg version="1.0" xmlns="http://www.w3.org/2000/svg"
 width="39.000000pt" height="36.000000pt" viewBox="0 0 39.000000 36.000000"
 preserveAspectRatio="xMidYMid meet">
<metadata>
Created by potrace 1.16, written by Peter Selinger 2001-2019
</metadata>
<g transform="translate(0.000000,36.000000) scale(0.100000,-0.100000)"
fill="#000000" stroke="none">
<path d="M240 334 l0 -25 -14 -15 -15 -14 -16 0 -16 0 -15 14 -14 15 0 20 0
21 -35 0 -35 0 0 -44 0 -44 -16 -6 -16 -6 -24 0 -24 0 0 -25 0 -25 23 0 22 0
23 -6 24 -7 -7 -48 -7 -48 44 -3 43 -3 -2 -29 -2 -28 14 -15 15 -14 19 6 19 6
12 29 12 30 -5 20 -5 20 39 -6 39 -7 0 37 0 37 15 16 16 15 14 -6 14 -5 7 21
6 20 -13 8 -12 8 -15 -5 -14 -6 -9 14 -9 14 0 41 0 42 -22 6 -23 6 -17 0 -18
0 0 -26z"/>
</g>
</svg>
