<?xml version="1.0" standalone="no"?>
<!DOCTYPE svg PUBLIC "-//W3C//DTD SVG 20010904//EN"
 "http://www.w3.org/TR/2001/REC-SVG-20010904/DTD/svg10.dtd">
<svg version="1.0" xmlns="http://www.w3.org/2000/svg"
 width="26.000000pt" height="43.000000pt" viewBox="0 0 26.000000 43.000000"
 preserveAspectRatio="xMidYMid meet">
<metadata>
Created by potrace 1.16, written by Peter Selinger 2001-2019
</metadata>
<g transform="translate(0.000000,43.000000) scale(0.100000,-0.100000)"
fill="#000000" stroke="none">
<path d="M108 405 l5 -26 -19 -14 -19 -14 -37 -1 -38 0 0 -22 0 -23 8 -12 7
-11 28 -7 27 -7 0 -34 0 -34 -14 0 -15 0 -15 -16 -16 -15 0 -40 0 -39 40 0 41
0 -7 -36 -7 -36 14 -9 14 -9 18 0 18 0 17 16 16 17 0 33 0 33 44 -6 44 -6 -5
19 -5 19 -7 38 -6 37 -24 0 -25 0 0 21 0 20 14 15 15 14 15 0 16 0 0 41 0 41
-35 -6 -36 -7 -20 6 -21 7 6 23 6 23 -6 16 -6 16 -18 0 -17 0 5 -25z"/>
</g>
</svg>
