<?xml version="1.0" standalone="no"?>
<!DOCTYPE svg PUBLIC "-//W3C//DTD SVG 20010904//EN"
 "http://www.w3.org/TR/2001/REC-SVG-20010904/DTD/svg10.dtd">
<svg version="1.0" xmlns="http://www.w3.org/2000/svg"
 width="28.000000pt" height="45.000000pt" viewBox="0 0 28.000000 45.000000"
 preserveAspectRatio="xMidYMid meet">
<metadata>
Created by potrace 1.16, written by Peter Selinger 2001-2019
</metadata>
<g transform="translate(0.000000,45.000000) scale(0.100000,-0.100000)"
fill="#000000" stroke="none">
<path d="M104 424 l7 -26 -18 -14 -18 -13 -37 -1 -38 0 0 -32 0 -33 8 -12 7
-11 28 -7 27 -7 0 -24 0 -24 -14 0 -15 0 -15 -16 -16 -15 0 -50 0 -49 38 0 38
0 -4 -36 -4 -36 13 -9 14 -9 28 0 28 0 15 14 14 15 6 30 7 31 39 0 40 0 -6 38
-7 37 -5 28 -6 27 -24 0 -24 0 0 11 0 10 14 15 15 14 15 0 16 0 0 51 0 52 -41
-6 -41 -5 -14 5 -13 5 6 14 5 14 -6 25 -6 25 -31 0 -31 0 6 -26z"/>
</g>
</svg>
