<?xml version="1.0" standalone="no"?>
<!DOCTYPE svg PUBLIC "-//W3C//DTD SVG 20010904//EN"
 "http://www.w3.org/TR/2001/REC-SVG-20010904/DTD/svg10.dtd">
<svg version="1.0" xmlns="http://www.w3.org/2000/svg"
 width="36.000000pt" height="34.000000pt" viewBox="0 0 36.000000 34.000000"
 preserveAspectRatio="xMidYMid meet">
<metadata>
Created by potrace 1.16, written by Peter Selinger 2001-2019
</metadata>
<g transform="translate(0.000000,34.000000) scale(0.100000,-0.100000)"
fill="#000000" stroke="none">
<path d="M125 310 l6 -29 -26 -7 -26 -6 -40 5 -39 5 0 -33 0 -34 16 -15 15
-16 20 0 19 0 0 -29 0 -30 -19 -6 -19 -6 -6 -31 -6 -31 0 -12 0 -13 30 -7 30
-6 20 6 20 6 0 40 0 39 20 0 19 0 11 -20 10 -20 -6 -24 -6 -24 23 -7 22 -7 38
12 38 13 13 45 13 45 23 10 22 10 0 23 0 24 -27 6 -28 7 -7 11 -8 11 0 37 0
38 -30 -6 -29 -6 -25 6 -26 6 -6 25 -6 25 -25 0 -25 0 7 -30z"/>
</g>
</svg>
