<?xml version="1.0" standalone="no"?>
<!DOCTYPE svg PUBLIC "-//W3C//DTD SVG 20010904//EN"
 "http://www.w3.org/TR/2001/REC-SVG-20010904/DTD/svg10.dtd">
<svg version="1.0" xmlns="http://www.w3.org/2000/svg"
 width="38.000000pt" height="37.000000pt" viewBox="0 0 38.000000 37.000000"
 preserveAspectRatio="xMidYMid meet">
<metadata>
Created by potrace 1.16, written by Peter Selinger 2001-2019
</metadata>
<g transform="translate(0.000000,37.000000) scale(0.100000,-0.100000)"
fill="#000000" stroke="none">
<path d="M122 330 l3 -40 -14 -5 -14 -5 -48 6 -49 7 0 -31 0 -31 11 -25 12
-24 24 -7 24 -6 -3 -16 -3 -17 -33 -8 -32 -9 0 -53 0 -54 22 -6 23 -6 22 0 22
0 26 12 25 11 0 24 0 23 10 0 10 0 0 -11 0 -10 14 -15 15 -14 46 -7 47 -6 9
14 9 14 0 33 0 32 34 0 34 0 6 16 6 16 0 29 0 29 -27 6 -28 7 -7 11 -8 11 0
33 0 32 -35 0 -34 0 -26 12 -25 11 0 29 0 28 -36 0 -36 0 4 -40z"/>
</g>
</svg>
