<?xml version="1.0" standalone="no"?>
<!DOCTYPE svg PUBLIC "-//W3C//DTD SVG 20010904//EN"
 "http://www.w3.org/TR/2001/REC-SVG-20010904/DTD/svg10.dtd">
<svg version="1.0" xmlns="http://www.w3.org/2000/svg"
 width="38.000000pt" height="36.000000pt" viewBox="0 0 38.000000 36.000000"
 preserveAspectRatio="xMidYMid meet">
<metadata>
Created by potrace 1.16, written by Peter Selinger 2001-2019
</metadata>
<g transform="translate(0.000000,36.000000) scale(0.100000,-0.100000)"
fill="#000000" stroke="none">
<path d="M122 330 l5 -30 -20 -6 -19 -6 -44 7 -44 6 0 -45 0 -45 16 -15 15
-16 20 0 19 0 0 -19 0 -20 -19 -6 -19 -6 -6 -31 -6 -31 0 -23 0 -23 35 -7 35
-6 25 6 25 6 0 40 0 40 9 0 10 0 7 -12 8 -12 -2 -30 -3 -29 13 -9 13 -8 24 0
25 0 32 12 33 12 13 44 13 45 23 10 22 10 0 33 0 34 -27 6 -28 7 -7 11 -8 11
0 38 0 38 -43 -6 -44 -7 -16 17 -17 16 0 15 0 14 -36 0 -36 0 4 -30z"/>
</g>
</svg>
