<?xml version="1.0" standalone="no"?>
<!DOCTYPE svg PUBLIC "-//W3C//DTD SVG 20010904//EN"
 "http://www.w3.org/TR/2001/REC-SVG-20010904/DTD/svg10.dtd">
<svg version="1.0" xmlns="http://www.w3.org/2000/svg"
 width="35.000000pt" height="34.000000pt" viewBox="0 0 35.000000 34.000000"
 preserveAspectRatio="xMidYMid meet">
<metadata>
Created by potrace 1.16, written by Peter Selinger 2001-2019
</metadata>
<g transform="translate(0.000000,34.000000) scale(0.100000,-0.100000)"
fill="#000000" stroke="none">
<path d="M183 328 l-10 -13 -7 -29 -7 -28 -45 5 -44 5 0 -44 0 -44 -21 0 -20
0 -15 -15 -15 -15 6 -20 7 -21 21 3 22 3 3 -50 3 -50 12 -7 12 -8 27 0 26 0
16 6 16 6 0 30 0 29 33 -3 32 -3 -3 -21 -3 -21 30 -13 31 -12 25 6 25 6 0 33
0 32 -8 11 -7 11 -22 7 -23 7 0 26 0 25 14 -5 14 -6 21 20 21 20 0 45 0 45
-10 -6 -10 -6 -38 13 -37 13 -20 22 -21 23 -11 0 -11 0 -9 -12z"/>
</g>
</svg>
