<?xml version="1.0" standalone="no"?>
<!DOCTYPE svg PUBLIC "-//W3C//DTD SVG 20010904//EN"
 "http://www.w3.org/TR/2001/REC-SVG-20010904/DTD/svg10.dtd">
<svg version="1.0" xmlns="http://www.w3.org/2000/svg"
 width="46.000000pt" height="45.000000pt" viewBox="0 0 46.000000 45.000000"
 preserveAspectRatio="xMidYMid meet">
<metadata>
Created by potrace 1.16, written by Peter Selinger 2001-2019
</metadata>
<g transform="translate(0.000000,45.000000) scale(0.100000,-0.100000)"
fill="#000000" stroke="none">
<path d="M200 411 l0 -39 -14 -5 -14 -5 -41 5 -41 6 0 -26 0 -25 -6 -16 -6
-16 -23 0 -24 0 -15 -16 -16 -15 0 -21 0 -21 22 -18 21 -19 24 0 23 0 0 -44 0
-44 16 -6 16 -6 29 0 29 0 0 -34 0 -34 16 -6 16 -6 30 0 29 0 15 14 14 15 0
36 0 36 35 -7 34 -6 17 16 16 16 10 36 10 36 19 5 19 5 0 23 0 24 -16 15 -15
16 -20 0 -19 0 0 40 0 41 -16 6 -15 6 -26 -12 -25 -12 -18 6 -17 5 4 24 5 24
-11 21 -12 21 -29 0 -30 0 0 -39z"/>
</g>
</svg>
