<?xml version="1.0" standalone="no"?>
<!DOCTYPE svg PUBLIC "-//W3C//DTD SVG 20010904//EN"
 "http://www.w3.org/TR/2001/REC-SVG-20010904/DTD/svg10.dtd">
<svg version="1.0" xmlns="http://www.w3.org/2000/svg"
 width="37.000000pt" height="36.000000pt" viewBox="0 0 37.000000 36.000000"
 preserveAspectRatio="xMidYMid meet">
<metadata>
Created by potrace 1.16, written by Peter Selinger 2001-2019
</metadata>
<g transform="translate(0.000000,36.000000) scale(0.100000,-0.100000)"
fill="#000000" stroke="none">
<path d="M183 348 l-10 -13 -7 -29 -7 -28 -44 7 -45 6 0 -45 0 -46 -21 0 -20
0 -15 -14 -14 -15 0 -14 0 -15 6 -16 6 -16 24 0 24 0 0 -49 0 -49 16 -6 16 -6
33 0 33 0 16 6 16 6 0 29 0 29 20 0 20 0 0 -23 0 -24 25 -11 26 -12 24 0 23 0
16 6 16 6 0 42 0 41 -8 11 -7 11 -22 7 -23 7 0 10 0 9 13 0 13 0 22 20 22 21
0 55 0 55 -17 -2 -18 -2 -31 8 -31 7 -18 24 -18 24 -22 0 -23 0 -9 -12z"/>
</g>
</svg>
