<?xml version="1.0" standalone="no"?>
<!DOCTYPE svg PUBLIC "-//W3C//DTD SVG 20010904//EN"
 "http://www.w3.org/TR/2001/REC-SVG-20010904/DTD/svg10.dtd">
<svg version="1.0" xmlns="http://www.w3.org/2000/svg"
 width="44.000000pt" height="43.000000pt" viewBox="0 0 44.000000 43.000000"
 preserveAspectRatio="xMidYMid meet">
<metadata>
Created by potrace 1.16, written by Peter Selinger 2001-2019
</metadata>
<g transform="translate(0.000000,43.000000) scale(0.100000,-0.100000)"
fill="#000000" stroke="none">
<path d="M200 391 l0 -40 -20 -6 -19 -6 -36 7 -35 6 0 -25 0 -25 -6 -16 -6
-16 -23 0 -24 0 -15 -16 -16 -15 0 -11 0 -11 22 -19 22 -19 23 6 23 5 0 -50 0
-50 24 -6 23 -5 19 3 19 3 3 -35 4 -35 11 -7 12 -8 23 0 23 0 15 14 14 15 0
37 0 37 36 -6 36 -6 15 15 15 14 10 36 10 36 19 5 19 5 0 13 0 14 -16 15 -15
16 -20 0 -19 0 0 39 0 40 -9 6 -10 5 -25 -11 -25 -12 -26 7 -27 7 6 25 6 24
-10 20 -11 20 -19 0 -20 0 0 -39z"/>
</g>
</svg>
