<?xml version="1.0" standalone="no"?>
<!DOCTYPE svg PUBLIC "-//W3C//DTD SVG 20010904//EN"
 "http://www.w3.org/TR/2001/REC-SVG-20010904/DTD/svg10.dtd">
<svg version="1.0" xmlns="http://www.w3.org/2000/svg"
 width="36.000000pt" height="35.000000pt" viewBox="0 0 36.000000 35.000000"
 preserveAspectRatio="xMidYMid meet">
<metadata>
Created by potrace 1.16, written by Peter Selinger 2001-2019
</metadata>
<g transform="translate(0.000000,35.000000) scale(0.100000,-0.100000)"
fill="#000000" stroke="none">
<path d="M124 311 l6 -40 -21 -6 -21 -7 -44 7 -44 6 0 -20 0 -20 11 -25 12
-24 24 -7 24 -6 -3 -26 -3 -27 -32 -8 -33 -9 0 -43 0 -44 31 -7 30 -7 30 12
29 12 0 24 0 24 20 0 20 0 0 -11 0 -10 14 -14 13 -14 38 -7 37 -7 9 14 9 14 0
37 0 38 31 -7 31 -6 9 14 9 14 0 22 0 23 -27 6 -28 7 -7 11 -8 11 0 33 0 32
-35 0 -34 0 -26 12 -25 11 0 29 0 28 -26 0 -27 0 7 -39z"/>
</g>
</svg>
