<?xml version="1.0" standalone="no"?>
<!DOCTYPE svg PUBLIC "-//W3C//DTD SVG 20010904//EN"
 "http://www.w3.org/TR/2001/REC-SVG-20010904/DTD/svg10.dtd">
<svg version="1.0" xmlns="http://www.w3.org/2000/svg"
 width="44.000000pt" height="41.000000pt" viewBox="0 0 44.000000 41.000000"
 preserveAspectRatio="xMidYMid meet">
<metadata>
Created by potrace 1.16, written by Peter Selinger 2001-2019
</metadata>
<g transform="translate(0.000000,41.000000) scale(0.100000,-0.100000)"
fill="#000000" stroke="none">
<path d="M210 375 l0 -35 -24 -6 -24 -6 -33 4 -34 3 -3 -42 -3 -43 -29 0 -29
0 -15 -16 -16 -15 0 -10 0 -10 15 -15 15 -15 19 6 20 6 7 -48 7 -48 11 -7 11
-8 48 0 48 0 -6 -20 -6 -20 15 -15 15 -15 16 0 16 0 15 14 14 15 0 14 0 15 33
7 32 6 17 5 16 5 7 41 7 40 19 5 18 5 6 18 5 17 -6 17 -7 17 -28 6 -29 6 0 44
0 45 -36 -7 -37 -6 -28 12 -29 11 0 29 0 29 -15 0 -15 0 0 -35z"/>
</g>
</svg>
