<?xml version="1.0" standalone="no"?>
<!DOCTYPE svg PUBLIC "-//W3C//DTD SVG 20010904//EN"
 "http://www.w3.org/TR/2001/REC-SVG-20010904/DTD/svg10.dtd">
<svg version="1.0" xmlns="http://www.w3.org/2000/svg"
 width="46.000000pt" height="43.000000pt" viewBox="0 0 46.000000 43.000000"
 preserveAspectRatio="xMidYMid meet">
<metadata>
Created by potrace 1.16, written by Peter Selinger 2001-2019
</metadata>
<g transform="translate(0.000000,43.000000) scale(0.100000,-0.100000)"
fill="#000000" stroke="none">
<path d="M210 395 l0 -35 -22 -5 -23 -5 -35 3 -35 2 -3 -42 -3 -43 -29 0 -29
0 -15 -16 -16 -15 0 -20 0 -20 14 -15 15 -14 19 0 20 0 6 -22 6 -23 0 -21 0
-22 16 -6 16 -6 39 0 39 0 0 -21 0 -20 14 -15 15 -14 26 0 26 0 15 14 14 15 0
14 0 15 33 7 32 6 17 5 16 5 7 41 7 40 19 5 19 5 6 23 6 24 -7 21 -7 21 -29 6
-29 6 0 45 0 45 -41 -6 -41 -5 -24 10 -24 11 0 29 0 28 -25 0 -25 0 0 -35z"/>
</g>
</svg>
