<?xml version="1.0" standalone="no"?>
<!DOCTYPE svg PUBLIC "-//W3C//DTD SVG 20010904//EN"
 "http://www.w3.org/TR/2001/REC-SVG-20010904/DTD/svg10.dtd">
<svg version="1.0" xmlns="http://www.w3.org/2000/svg"
 width="40.000000pt" height="36.000000pt" viewBox="0 0 40.000000 36.000000"
 preserveAspectRatio="xMidYMid meet">
<metadata>
Created by potrace 1.16, written by Peter Selinger 2001-2019
</metadata>
<g transform="translate(0.000000,36.000000) scale(0.100000,-0.100000)"
fill="#000000" stroke="none">
<path d="M200 339 l-11 -20 4 -12 4 -12 -13 -12 -13 -13 -40 0 -41 0 0 -35 0
-35 -15 0 -14 0 -26 -12 -25 -11 -6 -23 -6 -23 7 -20 6 -21 19 0 19 0 11 -19
10 -20 0 -19 0 -20 23 -6 22 -6 137 0 137 0 7 56 7 56 -14 9 -14 9 -27 0 -28
0 0 10 0 10 35 0 35 0 0 65 0 65 -59 0 -59 0 -6 16 -6 16 0 24 0 24 -25 0 -24
0 -11 -21z"/>
</g>
</svg>
