<?xml version="1.0" standalone="no"?>
<!DOCTYPE svg PUBLIC "-//W3C//DTD SVG 20010904//EN"
 "http://www.w3.org/TR/2001/REC-SVG-20010904/DTD/svg10.dtd">
<svg version="1.0" xmlns="http://www.w3.org/2000/svg"
 width="38.000000pt" height="34.000000pt" viewBox="0 0 38.000000 34.000000"
 preserveAspectRatio="xMidYMid meet">
<metadata>
Created by potrace 1.16, written by Peter Selinger 2001-2019
</metadata>
<g transform="translate(0.000000,34.000000) scale(0.100000,-0.100000)"
fill="#000000" stroke="none">
<path d="M202 323 l-9 -18 4 -12 5 -13 -15 -15 -16 -15 -40 0 -41 0 0 -41 0
-40 -11 6 -10 7 -29 -12 -29 -12 -6 -18 -5 -17 6 -17 6 -16 19 0 18 0 11 -19
10 -20 0 -19 0 -20 23 -6 22 -6 126 0 127 0 7 46 7 47 -14 8 -13 9 -26 0 -27
0 -5 14 -6 14 6 6 6 6 34 0 33 0 0 53 0 53 -57 2 -56 1 -9 13 -8 13 0 28 0 27
-15 0 -14 0 -9 -17z"/>
</g>
</svg>
