<?xml version="1.0" standalone="no"?>
<!DOCTYPE svg PUBLIC "-//W3C//DTD SVG 20010904//EN"
 "http://www.w3.org/TR/2001/REC-SVG-20010904/DTD/svg10.dtd">
<svg version="1.0" xmlns="http://www.w3.org/2000/svg"
 width="33.000000pt" height="40.000000pt" viewBox="0 0 33.000000 40.000000"
 preserveAspectRatio="xMidYMid meet">
<metadata>
Created by potrace 1.16, written by Peter Selinger 2001-2019
</metadata>
<g transform="translate(0.000000,40.000000) scale(0.100000,-0.100000)"
fill="#000000" stroke="none">
<path d="M113 393 l-13 -5 0 -23 0 -23 -16 -6 -16 -6 -34 0 -34 0 0 -35 0 -35
29 0 29 0 6 -16 6 -16 0 -19 0 -19 -15 0 -15 0 0 -10 0 -10 -20 0 -20 0 0 -50
0 -50 40 0 40 0 0 -21 0 -20 14 -15 15 -14 16 0 16 0 15 14 14 15 0 27 0 27
36 -6 35 -6 14 5 14 6 -6 14 -5 14 6 24 6 24 24 6 24 6 6 25 7 26 -6 9 -6 10
-39 0 -39 0 6 55 6 55 -17 -6 -16 -6 -23 6 -24 6 -11 25 -12 25 -12 -1 -13 -1
-12 -5z"/>
</g>
</svg>
