<?xml version="1.0" standalone="no"?>
<!DOCTYPE svg PUBLIC "-//W3C//DTD SVG 20010904//EN"
 "http://www.w3.org/TR/2001/REC-SVG-20010904/DTD/svg10.dtd">
<svg version="1.0" xmlns="http://www.w3.org/2000/svg"
 width="42.000000pt" height="35.000000pt" viewBox="0 0 42.000000 35.000000"
 preserveAspectRatio="xMidYMid meet">
<metadata>
Created by potrace 1.16, written by Peter Selinger 2001-2019
</metadata>
<g transform="translate(0.000000,35.000000) scale(0.100000,-0.100000)"
fill="#000000" stroke="none">
<path d="M160 327 l0 -24 -25 -11 -26 -12 -19 0 -20 0 0 -34 0 -34 -16 -6 -16
-6 -19 0 -19 0 0 -46 0 -46 40 4 40 4 4 -11 3 -10 -13 -34 -14 -33 0 -14 0
-14 53 0 52 0 14 9 14 9 -5 26 -5 26 13 0 14 0 0 -14 0 -15 16 -15 15 -16 44
0 44 0 15 16 16 15 0 33 0 34 30 6 30 6 0 31 0 32 -22 18 -21 19 -14 0 -13 0
0 39 0 39 -49 -1 -49 -1 -16 16 -16 17 0 10 0 11 -30 0 -30 0 0 -23z"/>
</g>
</svg>
