<?xml version="1.0" standalone="no"?>
<!DOCTYPE svg PUBLIC "-//W3C//DTD SVG 20010904//EN"
 "http://www.w3.org/TR/2001/REC-SVG-20010904/DTD/svg10.dtd">
<svg version="1.0" xmlns="http://www.w3.org/2000/svg"
 width="40.000000pt" height="33.000000pt" viewBox="0 0 40.000000 33.000000"
 preserveAspectRatio="xMidYMid meet">
<metadata>
Created by potrace 1.16, written by Peter Selinger 2001-2019
</metadata>
<g transform="translate(0.000000,33.000000) scale(0.100000,-0.100000)"
fill="#000000" stroke="none">
<path d="M160 307 l0 -24 -25 -11 -26 -12 -19 0 -20 0 0 -34 0 -34 -16 -6 -16
-6 -19 0 -19 0 0 -36 0 -37 39 7 40 6 6 -19 6 -20 -16 -36 -15 -37 0 -4 0 -4
43 0 42 0 13 9 13 8 -7 26 -6 27 26 0 26 0 0 -14 0 -15 16 -15 15 -16 34 0 34
0 15 16 16 15 0 33 0 34 30 6 30 6 0 21 0 22 -22 19 -22 19 -17 -4 -16 -4 4
41 5 41 -53 1 -53 1 -4 11 -4 12 -9 -6 -9 -5 0 20 0 21 -20 0 -20 0 0 -23z"/>
</g>
</svg>
