<?xml version="1.0" standalone="no"?>
<!DOCTYPE svg PUBLIC "-//W3C//DTD SVG 20010904//EN"
 "http://www.w3.org/TR/2001/REC-SVG-20010904/DTD/svg10.dtd">
<svg version="1.0" xmlns="http://www.w3.org/2000/svg"
 width="35.000000pt" height="42.000000pt" viewBox="0 0 35.000000 42.000000"
 preserveAspectRatio="xMidYMid meet">
<metadata>
Created by potrace 1.16, written by Peter Selinger 2001-2019
</metadata>
<g transform="translate(0.000000,42.000000) scale(0.100000,-0.100000)"
fill="#000000" stroke="none">
<path d="M113 413 l-13 -5 0 -23 0 -23 -16 -6 -16 -6 -34 0 -34 0 0 -45 0 -45
29 0 29 0 6 -16 6 -16 0 -9 0 -9 -15 0 -15 0 0 -10 0 -10 -20 0 -20 0 0 -60 0
-60 40 0 40 0 0 -21 0 -20 14 -15 15 -14 26 0 26 0 15 14 14 15 0 26 0 27 30
-7 30 -6 21 6 21 7 -6 23 -6 23 6 15 5 15 24 6 24 6 7 34 6 35 -7 10 -6 11
-37 0 -37 0 3 56 4 56 -29 -6 -28 -6 -11 8 -11 7 -12 23 -12 22 -22 -1 -22 -1
-12 -5z"/>
</g>
</svg>
