<?xml version="1.0" standalone="no"?>
<!DOCTYPE svg PUBLIC "-//W3C//DTD SVG 20010904//EN"
 "http://www.w3.org/TR/2001/REC-SVG-20010904/DTD/svg10.dtd">
<svg version="1.0" xmlns="http://www.w3.org/2000/svg"
 width="31.000000pt" height="36.000000pt" viewBox="0 0 31.000000 36.000000"
 preserveAspectRatio="xMidYMid meet">
<metadata>
Created by potrace 1.16, written by Peter Selinger 2001-2019
</metadata>
<g transform="translate(0.000000,36.000000) scale(0.100000,-0.100000)"
fill="#000000" stroke="none">
<path d="M120 338 l0 -23 -9 -14 -9 -14 -51 7 -51 7 0 -56 0 -55 40 -6 40 -7
0 -12 0 -13 -29 -7 -29 -6 -6 -22 -6 -22 0 -27 0 -26 6 -16 6 -16 47 0 46 1
17 13 18 13 0 28 0 28 7 -7 7 -7 -2 -34 -3 -33 22 -7 21 -7 46 7 47 7 7 11 8
12 0 37 0 36 -6 16 -6 15 -34 7 -35 6 4 12 4 11 23 3 23 4 14 13 13 14 0 44 0
45 -41 7 -41 7 -21 24 -21 24 -33 0 -33 0 0 -22z"/>
</g>
</svg>
