<?xml version="1.0" standalone="no"?>
<!DOCTYPE svg PUBLIC "-//W3C//DTD SVG 20010904//EN"
 "http://www.w3.org/TR/2001/REC-SVG-20010904/DTD/svg10.dtd">
<svg version="1.0" xmlns="http://www.w3.org/2000/svg"
 width="41.000000pt" height="40.000000pt" viewBox="0 0 41.000000 40.000000"
 preserveAspectRatio="xMidYMid meet">
<metadata>
Created by potrace 1.16, written by Peter Selinger 2001-2019
</metadata>
<g transform="translate(0.000000,40.000000) scale(0.100000,-0.100000)"
fill="#000000" stroke="none">
<path d="M170 372 l0 -30 -16 -6 -16 -6 -24 0 -24 0 0 -31 0 -30 -14 -14 -14
-14 -28 2 -29 2 -3 -27 -3 -27 25 -6 26 -5 26 -5 26 -6 -7 -51 -7 -51 41 7 41
6 0 -26 0 -25 14 -15 15 -14 9 0 9 0 23 20 22 19 -4 26 -5 25 43 0 44 0 0 33
0 32 8 10 7 10 28 12 27 13 0 16 0 16 -24 -6 -24 -6 -16 6 -16 6 0 53 0 53
-20 -5 -20 -5 -30 12 -31 13 3 21 3 21 -32 3 -33 3 0 -29z"/>
</g>
</svg>
