<?xml version="1.0" standalone="no"?>
<!DOCTYPE svg PUBLIC "-//W3C//DTD SVG 20010904//EN"
 "http://www.w3.org/TR/2001/REC-SVG-20010904/DTD/svg10.dtd">
<svg version="1.0" xmlns="http://www.w3.org/2000/svg"
 width="43.000000pt" height="42.000000pt" viewBox="0 0 43.000000 42.000000"
 preserveAspectRatio="xMidYMid meet">
<metadata>
Created by potrace 1.16, written by Peter Selinger 2001-2019
</metadata>
<g transform="translate(0.000000,42.000000) scale(0.100000,-0.100000)"
fill="#000000" stroke="none">
<path d="M170 392 l0 -30 -16 -6 -16 -6 -24 0 -24 0 0 -31 0 -30 -12 -12 -13
-12 -30 0 -30 0 -3 -37 -3 -37 23 -5 23 -5 27 -5 27 -6 -6 -51 -6 -51 41 4 42
4 0 -24 0 -23 14 -15 15 -14 19 0 19 0 21 19 22 18 0 27 0 26 40 0 40 0 0 33
0 32 8 10 7 10 28 12 27 13 0 26 0 26 -27 -2 -28 -2 -12 1 -13 1 0 56 0 56
-27 -6 -28 -6 -20 13 -20 12 0 20 0 20 -42 3 -43 3 0 -29z"/>
</g>
</svg>
