<?xml version="1.0" standalone="no"?>
<!DOCTYPE svg PUBLIC "-//W3C//DTD SVG 20010904//EN"
 "http://www.w3.org/TR/2001/REC-SVG-20010904/DTD/svg10.dtd">
<svg version="1.0" xmlns="http://www.w3.org/2000/svg"
 width="29.000000pt" height="34.000000pt" viewBox="0 0 29.000000 34.000000"
 preserveAspectRatio="xMidYMid meet">
<metadata>
Created by potrace 1.16, written by Peter Selinger 2001-2019
</metadata>
<g transform="translate(0.000000,34.000000) scale(0.100000,-0.100000)"
fill="#000000" stroke="none">
<path d="M120 318 l0 -23 -9 -14 -9 -14 -51 5 -51 5 0 -43 0 -44 40 -6 40 -7
0 -22 0 -23 -30 -7 -29 -6 -7 -34 -6 -33 7 -21 6 -21 37 0 37 1 19 14 19 14
-5 26 -5 25 17 0 18 0 6 -16 6 -16 -6 -23 -6 -23 21 -7 20 -6 38 7 38 7 7 11
8 11 0 27 0 26 -6 16 -6 15 -35 7 -34 6 3 22 3 21 24 3 24 4 14 13 13 14 0 34
0 35 -41 7 -41 7 -21 24 -21 24 -23 0 -23 0 0 -22z"/>
</g>
</svg>
