<?xml version="1.0" standalone="no"?>
<!DOCTYPE svg PUBLIC "-//W3C//DTD SVG 20010904//EN"
 "http://www.w3.org/TR/2001/REC-SVG-20010904/DTD/svg10.dtd">
<svg version="1.0" xmlns="http://www.w3.org/2000/svg"
 width="25.000000pt" height="26.000000pt" viewBox="0 0 25.000000 26.000000"
 preserveAspectRatio="xMidYMid meet">
<metadata>
Created by potrace 1.16, written by Peter Selinger 2001-2019
</metadata>
<g transform="translate(0.000000,26.000000) scale(0.100000,-0.100000)"
fill="#000000" stroke="none">
<path d="M2 223 l3 -38 18 3 17 3 15 -15 15 -15 0 -21 0 -21 -14 -15 -15 -14
-14 0 -15 0 -4 -37 -5 -38 11 -7 11 -8 27 0 26 0 16 6 16 6 0 34 0 34 15 0 15
0 0 -29 0 -29 30 -12 30 -12 26 6 26 7 -6 14 -5 14 -7 35 -6 36 -24 0 -24 0 0
25 0 24 35 7 35 6 0 44 0 44 -45 0 -46 0 2 -12 1 -13 -1 -22 -1 -23 -29 0 -29
0 -6 16 -6 16 0 19 0 19 -46 0 -45 0 3 -37z"/>
</g>
</svg>
