<?xml version="1.0" standalone="no"?>
<!DOCTYPE svg PUBLIC "-//W3C//DTD SVG 20010904//EN"
 "http://www.w3.org/TR/2001/REC-SVG-20010904/DTD/svg10.dtd">
<svg version="1.0" xmlns="http://www.w3.org/2000/svg"
 width="27.000000pt" height="28.000000pt" viewBox="0 0 27.000000 28.000000"
 preserveAspectRatio="xMidYMid meet">
<metadata>
Created by potrace 1.16, written by Peter Selinger 2001-2019
</metadata>
<g transform="translate(0.000000,28.000000) scale(0.100000,-0.100000)"
fill="#000000" stroke="none">
<path d="M2 233 l3 -48 20 0 20 0 13 -12 12 -12 0 -11 0 -11 -14 -15 -15 -14
-14 0 -14 0 -7 -47 -6 -47 12 -8 13 -8 37 0 36 0 16 6 16 6 2 37 1 36 4 -31 4
-31 25 -12 25 -11 27 0 27 0 14 9 13 8 -13 57 -12 56 -24 0 -23 0 0 15 0 14
35 7 35 6 0 54 0 54 -55 0 -55 0 0 -35 0 -35 -19 0 -19 0 -6 16 -6 16 0 19 0
19 -56 0 -55 0 3 -47z"/>
</g>
</svg>
