<?xml version="1.0" standalone="no"?>
<!DOCTYPE svg PUBLIC "-//W3C//DTD SVG 20010904//EN"
 "http://www.w3.org/TR/2001/REC-SVG-20010904/DTD/svg10.dtd">
<svg version="1.0" xmlns="http://www.w3.org/2000/svg"
 width="39.000000pt" height="27.000000pt" viewBox="0 0 39.000000 27.000000"
 preserveAspectRatio="xMidYMid meet">
<metadata>
Created by potrace 1.16, written by Peter Selinger 2001-2019
</metadata>
<g transform="translate(0.000000,27.000000) scale(0.100000,-0.100000)"
fill="#000000" stroke="none">
<path d="M234 237 l0 -34 -16 -17 -17 -16 -18 0 -18 0 -14 9 -14 9 7 36 7 36
-41 0 -40 0 0 -27 0 -28 -8 -12 -7 -11 -28 -7 -27 -7 0 -24 0 -23 15 5 14 6
17 -17 16 -16 -4 -50 -5 -49 38 0 37 0 16 6 16 6 0 23 0 24 22 7 21 6 13 -18
13 -19 11 -13 11 -12 24 0 25 0 0 50 0 50 33 0 32 0 13 9 14 8 -4 24 -3 24
-20 1 -20 1 -17 2 -18 1 0 40 0 40 -17 0 -18 0 -20 6 -21 5 0 -34z"/>
</g>
</svg>
