<?xml version="1.0" standalone="no"?>
<!DOCTYPE svg PUBLIC "-//W3C//DTD SVG 20010904//EN"
 "http://www.w3.org/TR/2001/REC-SVG-20010904/DTD/svg10.dtd">
<svg version="1.0" xmlns="http://www.w3.org/2000/svg"
 width="45.000000pt" height="30.000000pt" viewBox="0 0 45.000000 30.000000"
 preserveAspectRatio="xMidYMid meet">
<metadata>
Created by potrace 1.16, written by Peter Selinger 2001-2019
</metadata>
<g transform="translate(0.000000,30.000000) scale(0.100000,-0.100000)"
fill="#000000" stroke="none">
<path d="M254 274 l7 -26 -22 -19 -21 -18 -14 14 -14 14 0 25 0 26 -12 0 -13
0 -38 -6 -37 -7 0 -18 0 -18 -12 -26 -12 -26 -27 6 -27 6 -6 -25 -6 -24 6 -16
6 -16 18 0 18 0 16 -6 16 -6 0 -54 0 -54 46 0 45 0 15 14 14 15 0 25 0 25 10
6 10 6 0 -28 0 -28 8 -11 7 -11 48 -6 49 -7 15 15 15 16 -4 33 -4 33 42 12 43
13 5 15 6 15 0 18 0 18 -16 6 -16 6 -27 0 -28 0 5 25 4 25 -6 25 -6 25 -56 0
-56 0 6 -26z"/>
</g>
</svg>
