<?xml version="1.0" standalone="no"?>
<!DOCTYPE svg PUBLIC "-//W3C//DTD SVG 20010904//EN"
 "http://www.w3.org/TR/2001/REC-SVG-20010904/DTD/svg10.dtd">
<svg version="1.0" xmlns="http://www.w3.org/2000/svg"
 width="37.000000pt" height="36.000000pt" viewBox="0 0 37.000000 36.000000"
 preserveAspectRatio="xMidYMid meet">
<metadata>
Created by potrace 1.16, written by Peter Selinger 2001-2019
</metadata>
<g transform="translate(0.000000,36.000000) scale(0.100000,-0.100000)"
fill="#000000" stroke="none">
<path d="M267 341 l5 -21 -12 -30 -12 -29 -19 -6 -19 -6 -15 14 -14 15 2 28 2
29 -52 3 -53 3 0 -45 0 -46 -34 0 -34 0 -6 -16 -6 -16 0 -18 0 -18 16 -6 16
-6 24 0 24 0 0 -39 0 -39 16 -6 16 -6 29 0 29 0 0 -15 0 -14 12 -26 11 -25 19
0 19 0 15 14 14 15 0 25 0 26 43 0 44 0 11 25 12 26 0 28 0 29 -16 6 -16 6
-29 0 -29 0 0 25 0 25 24 0 24 0 16 6 16 6 0 44 0 44 -27 0 -28 0 -22 6 -22 6
6 -21z"/>
</g>
</svg>
