<?xml version="1.0" standalone="no"?>
<!DOCTYPE svg PUBLIC "-//W3C//DTD SVG 20010904//EN"
 "http://www.w3.org/TR/2001/REC-SVG-20010904/DTD/svg10.dtd">
<svg version="1.0" xmlns="http://www.w3.org/2000/svg"
 width="43.000000pt" height="28.000000pt" viewBox="0 0 43.000000 28.000000"
 preserveAspectRatio="xMidYMid meet">
<metadata>
Created by potrace 1.16, written by Peter Selinger 2001-2019
</metadata>
<g transform="translate(0.000000,28.000000) scale(0.100000,-0.100000)"
fill="#000000" stroke="none">
<path d="M258 255 l4 -26 -22 -19 -23 -20 -9 0 -9 0 -15 14 -14 15 0 26 0 27
-22 -6 -23 -6 -17 0 -18 0 0 -20 0 -19 -12 -26 -12 -27 -27 4 -28 4 -4 -15 -4
-16 4 -12 5 -13 18 0 18 0 16 -6 16 -6 0 -54 0 -54 36 0 35 0 16 15 15 15 -5
13 -4 12 9 18 9 17 14 0 15 0 0 -27 0 -28 8 -11 7 -11 40 -5 40 -5 13 14 14
14 -7 41 -7 41 15 -6 16 -6 30 12 31 11 6 19 6 19 -13 9 -14 9 -33 0 -34 0 7
30 6 30 -6 20 -6 20 -43 0 -43 0 5 -25z"/>
</g>
</svg>
