<?xml version="1.0" standalone="no"?>
<!DOCTYPE svg PUBLIC "-//W3C//DTD SVG 20010904//EN"
 "http://www.w3.org/TR/2001/REC-SVG-20010904/DTD/svg10.dtd">
<svg version="1.0" xmlns="http://www.w3.org/2000/svg"
 width="41.000000pt" height="29.000000pt" viewBox="0 0 41.000000 29.000000"
 preserveAspectRatio="xMidYMid meet">
<metadata>
Created by potrace 1.16, written by Peter Selinger 2001-2019
</metadata>
<g transform="translate(0.000000,29.000000) scale(0.100000,-0.100000)"
fill="#000000" stroke="none">
<path d="M232 256 l1 -34 -16 -17 -17 -16 -20 6 -20 6 6 40 7 39 -52 0 -51 0
0 -27 0 -28 -8 -12 -7 -11 -28 -7 -27 -7 0 -35 0 -35 18 4 18 5 13 -14 13 -15
-6 -49 -7 -49 50 0 49 0 16 6 16 6 0 23 0 23 15 6 15 5 11 -22 12 -22 11 -7
11 -8 33 0 32 0 0 50 0 50 33 0 32 0 13 9 13 8 -3 34 -3 34 -37 3 -38 3 0 38
0 38 -37 7 -38 6 -12 0 -12 0 1 -34z"/>
</g>
</svg>
