<?xml version="1.0" standalone="no"?>
<!DOCTYPE svg PUBLIC "-//W3C//DTD SVG 20010904//EN"
 "http://www.w3.org/TR/2001/REC-SVG-20010904/DTD/svg10.dtd">
<svg version="1.0" xmlns="http://www.w3.org/2000/svg"
 width="40.000000pt" height="27.000000pt" viewBox="0 0 40.000000 27.000000"
 preserveAspectRatio="xMidYMid meet">
<metadata>
Created by potrace 1.16, written by Peter Selinger 2001-2019
</metadata>
<g transform="translate(0.000000,27.000000) scale(0.100000,-0.100000)"
fill="#000000" stroke="none">
<path d="M274 262 l-41 -3 5 -24 4 -24 -15 -16 -16 -15 -21 0 -21 0 -16 15
-15 16 5 24 4 25 -38 0 -39 0 0 -28 0 -29 -19 -21 -18 -22 -17 0 -16 0 0 -24
0 -23 30 -6 30 -6 2 -33 2 -33 -1 -17 0 -18 43 0 42 0 6 16 6 16 0 19 0 19 29
0 30 0 6 -20 6 -20 40 -10 40 -11 15 16 16 15 9 35 10 35 13 0 14 0 6 16 6 16
0 19 0 19 -40 6 -40 7 6 32 6 33 -9 3 -8 4 -41 -3z"/>
</g>
</svg>
