<?xml version="1.0" standalone="no"?>
<!DOCTYPE svg PUBLIC "-//W3C//DTD SVG 20010904//EN"
 "http://www.w3.org/TR/2001/REC-SVG-20010904/DTD/svg10.dtd">
<svg version="1.0" xmlns="http://www.w3.org/2000/svg"
 width="39.000000pt" height="38.000000pt" viewBox="0 0 39.000000 38.000000"
 preserveAspectRatio="xMidYMid meet">
<metadata>
Created by potrace 1.16, written by Peter Selinger 2001-2019
</metadata>
<g transform="translate(0.000000,38.000000) scale(0.100000,-0.100000)"
fill="#000000" stroke="none">
<path d="M264 357 l6 -26 -11 -25 -12 -25 -11 -4 -11 -4 -10 11 -10 11 0 30 0
30 -62 3 -63 3 0 -46 0 -45 -34 0 -34 0 -6 -16 -6 -16 0 -28 0 -28 16 -6 16
-6 24 0 24 0 0 -39 0 -39 16 -6 16 -6 29 0 29 0 0 -15 0 -14 12 -26 11 -25 29
0 29 0 15 14 14 15 0 25 0 26 43 0 44 0 11 25 12 26 0 38 0 39 -16 6 -16 6
-29 0 -29 0 0 15 0 15 24 0 24 0 16 6 16 6 0 54 0 54 -22 0 -23 0 -39 7 -39 6
7 -26z"/>
</g>
</svg>
