<?xml version="1.0" standalone="no"?>
<!DOCTYPE svg PUBLIC "-//W3C//DTD SVG 20010904//EN"
 "http://www.w3.org/TR/2001/REC-SVG-20010904/DTD/svg10.dtd">
<svg version="1.0" xmlns="http://www.w3.org/2000/svg"
 width="42.000000pt" height="29.000000pt" viewBox="0 0 42.000000 29.000000"
 preserveAspectRatio="xMidYMid meet">
<metadata>
Created by potrace 1.16, written by Peter Selinger 2001-2019
</metadata>
<g transform="translate(0.000000,29.000000) scale(0.100000,-0.100000)"
fill="#000000" stroke="none">
<path d="M272 283 l-44 -4 6 -25 7 -25 -15 -14 -15 -15 -11 0 -11 0 -15 15
-15 14 7 26 6 25 -51 0 -51 0 0 -28 0 -29 -19 -21 -18 -22 -17 0 -16 0 0 -34
0 -34 30 -6 30 -6 1 -32 1 -33 -1 -17 -2 -18 54 0 55 0 6 16 6 16 0 19 0 19
19 0 20 0 6 -20 6 -19 37 -11 37 -10 13 0 13 0 16 15 15 15 9 35 10 35 13 0
14 0 6 16 6 16 0 29 0 29 -37 6 -38 6 0 36 0 37 -15 1 -15 1 -43 -4z"/>
</g>
</svg>
