<?xml version="1.0" standalone="no"?>
<!DOCTYPE svg PUBLIC "-//W3C//DTD SVG 20010904//EN"
 "http://www.w3.org/TR/2001/REC-SVG-20010904/DTD/svg10.dtd">
<svg version="1.0" xmlns="http://www.w3.org/2000/svg"
 width="42.000000pt" height="29.000000pt" viewBox="0 0 42.000000 29.000000"
 preserveAspectRatio="xMidYMid meet">
<metadata>
Created by potrace 1.16, written by Peter Selinger 2001-2019
</metadata>
<g transform="translate(0.000000,29.000000) scale(0.100000,-0.100000)"
fill="#000000" stroke="none">
<path d="M90 246 l0 -44 -16 -6 -16 -6 -29 0 -29 0 0 -35 0 -35 24 0 24 0 16
-6 16 -6 0 -48 0 -48 16 -6 16 -6 36 0 37 0 14 9 14 9 -7 36 -7 36 16 0 15 0
0 -28 0 -29 25 -11 26 -12 40 0 40 0 -2 28 -2 27 1 25 2 26 30 11 30 11 0 26
0 26 -19 0 -19 0 -16 6 -16 6 0 44 0 44 -22 0 -23 0 -22 -6 -23 -6 0 -15 0
-14 -14 -15 -15 -14 -6 0 -6 0 -13 12 -12 12 4 23 4 23 -56 0 -56 0 0 -44z"/>
</g>
</svg>
