<?xml version="1.0" standalone="no"?>
<!DOCTYPE svg PUBLIC "-//W3C//DTD SVG 20010904//EN"
 "http://www.w3.org/TR/2001/REC-SVG-20010904/DTD/svg10.dtd">
<svg version="1.0" xmlns="http://www.w3.org/2000/svg"
 width="40.000000pt" height="27.000000pt" viewBox="0 0 40.000000 27.000000"
 preserveAspectRatio="xMidYMid meet">
<metadata>
Created by potrace 1.16, written by Peter Selinger 2001-2019
</metadata>
<g transform="translate(0.000000,27.000000) scale(0.100000,-0.100000)"
fill="#000000" stroke="none">
<path d="M90 226 l0 -44 -16 -6 -16 -6 -29 0 -29 0 0 -25 0 -25 24 0 24 0 16
-6 16 -6 0 -48 0 -48 16 -6 16 -6 23 0 23 0 16 6 16 6 -6 39 -7 39 27 0 26 0
0 -28 0 -29 25 -11 26 -12 31 0 30 0 -6 16 -6 16 6 37 6 37 29 11 29 11 0 16
0 16 -19 0 -19 0 -16 6 -16 6 0 44 0 44 -17 -1 -18 0 -18 -8 -18 -7 2 -8 2 -8
-14 -19 -13 -19 -19 0 -18 0 -15 15 -15 15 6 20 6 20 -45 0 -46 0 0 -44z"/>
</g>
</svg>
