<?xml version="1.0" standalone="no"?>
<!DOCTYPE svg PUBLIC "-//W3C//DTD SVG 20010904//EN"
 "http://www.w3.org/TR/2001/REC-SVG-20010904/DTD/svg10.dtd">
<svg version="1.0" xmlns="http://www.w3.org/2000/svg"
 width="43.000000pt" height="38.000000pt" viewBox="0 0 43.000000 38.000000"
 preserveAspectRatio="xMidYMid meet">
<metadata>
Created by potrace 1.16, written by Peter Selinger 2001-2019
</metadata>
<g transform="translate(0.000000,38.000000) scale(0.100000,-0.100000)"
fill="#000000" stroke="none">
<path d="M240 344 l0 -35 -15 -16 -16 -15 -24 6 -25 6 0 35 0 34 -8 5 -9 5
-36 -6 -37 -6 0 -28 0 -28 -16 -15 -15 -16 -20 0 -19 0 0 -41 0 -41 20 -5 20
-5 10 -37 10 -36 0 -12 0 -13 40 0 40 0 0 -26 0 -25 14 -15 15 -14 31 0 31 0
15 14 14 15 0 25 0 26 34 0 34 0 6 16 6 16 0 34 0 34 29 0 30 0 15 16 16 15 0
19 0 18 -6 16 -6 16 -35 0 -36 0 6 44 6 44 -37 6 -37 6 -22 0 -23 0 0 -36z"/>
</g>
</svg>
