<?xml version="1.0" standalone="no"?>
<!DOCTYPE svg PUBLIC "-//W3C//DTD SVG 20010904//EN"
 "http://www.w3.org/TR/2001/REC-SVG-20010904/DTD/svg10.dtd">
<svg version="1.0" xmlns="http://www.w3.org/2000/svg"
 width="41.000000pt" height="36.000000pt" viewBox="0 0 41.000000 36.000000"
 preserveAspectRatio="xMidYMid meet">
<metadata>
Created by potrace 1.16, written by Peter Selinger 2001-2019
</metadata>
<g transform="translate(0.000000,36.000000) scale(0.100000,-0.100000)"
fill="#000000" stroke="none">
<path d="M240 325 l0 -36 -14 -15 -15 -14 -19 0 -20 0 -16 6 -16 6 0 32 0 33
-5 5 -5 5 -30 -5 -30 -4 0 -28 0 -29 -16 -15 -15 -16 -20 0 -19 0 0 -31 0 -31
20 -5 20 -5 10 -37 10 -36 0 -12 0 -13 44 0 43 0 -4 -25 -5 -24 15 -16 16 -15
21 0 21 0 16 15 15 16 -5 24 -4 25 37 0 38 0 6 16 6 16 0 34 0 34 29 0 30 0
15 16 16 15 0 9 0 8 -6 16 -6 16 -35 0 -35 0 4 44 3 44 -15 1 -15 0 -32 7 -33
6 0 -37z"/>
</g>
</svg>
