<?xml version="1.0" standalone="no"?>
<!DOCTYPE svg PUBLIC "-//W3C//DTD SVG 20010904//EN"
 "http://www.w3.org/TR/2001/REC-SVG-20010904/DTD/svg10.dtd">
<svg version="1.0" xmlns="http://www.w3.org/2000/svg"
 width="26.000000pt" height="35.000000pt" viewBox="0 0 26.000000 35.000000"
 preserveAspectRatio="xMidYMid meet">
<metadata>
Created by potrace 1.16, written by Peter Selinger 2001-2019
</metadata>
<g transform="translate(0.000000,35.000000) scale(0.100000,-0.100000)"
fill="#000000" stroke="none">
<path d="M4 331 l-4 -4 0 -31 0 -31 8 -11 7 -11 28 -7 27 -6 0 -24 0 -23 -21
-9 -21 -10 -14 -39 -14 -40 0 -12 0 -12 43 -3 42 -3 3 -22 3 -21 15 -6 16 -6
24 6 24 6 0 14 0 14 19 0 20 0 15 15 15 15 11 0 12 0 -6 38 -7 37 -5 18 -6 19
-24 -6 -24 -6 0 31 0 31 27 -6 26 -7 8 13 9 13 0 43 0 42 -35 2 -35 1 -17 1
-18 1 3 -19 3 -19 -5 -23 -6 -24 -30 0 -30 0 -6 25 -6 25 5 14 6 14 -40 4 -40
4 -5 -5z"/>
</g>
</svg>
