<?xml version="1.0" standalone="no"?>
<!DOCTYPE svg PUBLIC "-//W3C//DTD SVG 20010904//EN"
 "http://www.w3.org/TR/2001/REC-SVG-20010904/DTD/svg10.dtd">
<svg version="1.0" xmlns="http://www.w3.org/2000/svg"
 width="44.000000pt" height="30.000000pt" viewBox="0 0 44.000000 30.000000"
 preserveAspectRatio="xMidYMid meet">
<metadata>
Created by potrace 1.16, written by Peter Selinger 2001-2019
</metadata>
<g transform="translate(0.000000,30.000000) scale(0.100000,-0.100000)"
fill="#000000" stroke="none">
<path d="M77 293 l-7 -6 0 -38 0 -37 -16 -6 -16 -6 -19 0 -19 0 0 -35 0 -35
19 0 19 0 16 -6 16 -6 0 -54 0 -54 24 0 23 0 31 -6 31 -6 11 41 11 41 9 0 9 0
12 -23 12 -22 11 -7 11 -8 46 0 46 0 11 25 12 26 0 13 0 14 24 6 24 6 6 22 6
23 0 17 0 17 -16 15 -15 16 -30 0 -29 0 0 40 0 40 -133 0 -134 0 -6 -7z"/>
</g>
</svg>
