<?xml version="1.0" standalone="no"?>
<!DOCTYPE svg PUBLIC "-//W3C//DTD SVG 20010904//EN"
 "http://www.w3.org/TR/2001/REC-SVG-20010904/DTD/svg10.dtd">
<svg version="1.0" xmlns="http://www.w3.org/2000/svg"
 width="34.000000pt" height="28.000000pt" viewBox="0 0 34.000000 28.000000"
 preserveAspectRatio="xMidYMid meet">
<metadata>
Created by potrace 1.16, written by Peter Selinger 2001-2019
</metadata>
<g transform="translate(0.000000,28.000000) scale(0.100000,-0.100000)"
fill="#000000" stroke="none">
<path d="M5 272 l-5 -5 0 -43 0 -42 16 -6 16 -6 19 0 19 0 0 -16 0 -16 -29
-11 -29 -11 -6 -37 -6 -37 6 -16 6 -16 40 0 39 0 16 15 15 16 -5 14 -6 14 12
4 12 4 13 -5 12 -4 0 -28 0 -28 23 -6 22 -6 23 0 23 0 15 14 14 14 -6 46 -7
46 31 0 31 0 6 21 7 21 -13 9 -14 9 -17 0 -18 0 0 45 0 45 -45 0 -45 0 0 -21
0 -20 -14 -15 -15 -14 -21 0 -20 0 -7 30 -6 30 -21 5 -21 4 -27 4 -28 4 -5 -5z"/>
</g>
</svg>
