<?xml version="1.0" standalone="no"?>
<!DOCTYPE svg PUBLIC "-//W3C//DTD SVG 20010904//EN"
 "http://www.w3.org/TR/2001/REC-SVG-20010904/DTD/svg10.dtd">
<svg version="1.0" xmlns="http://www.w3.org/2000/svg"
 width="44.000000pt" height="31.000000pt" viewBox="0 0 44.000000 31.000000"
 preserveAspectRatio="xMidYMid meet">
<metadata>
Created by potrace 1.16, written by Peter Selinger 2001-2019
</metadata>
<g transform="translate(0.000000,31.000000) scale(0.100000,-0.100000)"
fill="#000000" stroke="none">
<path d="M80 275 l0 -36 -13 -14 -14 -13 -24 -4 -24 -3 -3 -31 -3 -32 35 -6
35 -7 6 -19 6 -19 -7 -36 -6 -35 50 0 50 0 16 6 16 6 0 29 0 29 10 0 10 0 -6
-40 -6 -39 26 -7 26 -6 35 6 34 7 16 15 15 15 0 45 0 44 26 0 25 0 15 14 14
15 0 19 0 20 -37 9 -38 9 -3 42 -3 42 -13 0 -13 0 -47 -6 -46 -7 0 -23 0 -23
-21 -6 -21 -7 -8 12 -7 11 5 25 4 24 -33 0 -34 0 -22 6 -23 6 0 -37z"/>
</g>
</svg>
