<?xml version="1.0" standalone="no"?>
<!DOCTYPE svg PUBLIC "-//W3C//DTD SVG 20010904//EN"
 "http://www.w3.org/TR/2001/REC-SVG-20010904/DTD/svg10.dtd">
<svg version="1.0" xmlns="http://www.w3.org/2000/svg"
 width="32.000000pt" height="37.000000pt" viewBox="0 0 32.000000 37.000000"
 preserveAspectRatio="xMidYMid meet">
<metadata>
Created by potrace 1.16, written by Peter Selinger 2001-2019
</metadata>
<g transform="translate(0.000000,37.000000) scale(0.100000,-0.100000)"
fill="#000000" stroke="none">
<path d="M13 363 l-13 -5 0 -53 0 -53 6 -16 6 -16 30 0 29 0 -6 -10 -6 -10
-15 0 -15 0 -15 -14 -14 -15 0 -36 0 -36 14 -15 15 -14 35 0 36 0 0 -29 0 -29
16 -6 16 -6 23 0 23 0 16 6 16 6 0 23 0 23 44 6 43 7 12 25 11 25 0 39 0 40
-22 5 -23 5 -30 3 -30 4 31 2 31 1 11 25 12 26 0 41 0 40 -22 -5 -23 -6 -38
-7 -39 -7 -10 -22 -10 -23 -19 5 -19 5 0 29 0 29 -35 0 -35 0 0 10 0 10 -12
-1 -13 -1 -12 -5z"/>
</g>
</svg>
