<?xml version="1.0" standalone="no"?>
<!DOCTYPE svg PUBLIC "-//W3C//DTD SVG 20010904//EN"
 "http://www.w3.org/TR/2001/REC-SVG-20010904/DTD/svg10.dtd">
<svg version="1.0" xmlns="http://www.w3.org/2000/svg"
 width="30.000000pt" height="35.000000pt" viewBox="0 0 30.000000 35.000000"
 preserveAspectRatio="xMidYMid meet">
<metadata>
Created by potrace 1.16, written by Peter Selinger 2001-2019
</metadata>
<g transform="translate(0.000000,35.000000) scale(0.100000,-0.100000)"
fill="#000000" stroke="none">
<path d="M0 294 l0 -49 9 -14 9 -14 14 6 15 5 12 -8 13 -8 -6 -20 -7 -21 -14
5 -14 6 -16 -15 -15 -16 0 -26 0 -26 14 -15 15 -14 35 0 36 0 0 -29 0 -30 21
-6 20 -7 25 6 24 6 0 24 0 24 44 6 43 7 12 25 11 25 0 28 0 29 -16 6 -16 6
-34 0 -34 0 0 15 0 15 28 0 29 0 11 25 12 26 0 28 0 28 -51 -10 -51 -10 -11
-24 -11 -24 -20 5 -21 6 -7 0 -8 0 0 30 0 30 -34 0 -34 0 -16 6 -16 6 0 -48z"/>
</g>
</svg>
