<?xml version="1.0" standalone="no"?>
<!DOCTYPE svg PUBLIC "-//W3C//DTD SVG 20010904//EN"
 "http://www.w3.org/TR/2001/REC-SVG-20010904/DTD/svg10.dtd">
<svg version="1.0" xmlns="http://www.w3.org/2000/svg"
 width="36.000000pt" height="30.000000pt" viewBox="0 0 36.000000 30.000000"
 preserveAspectRatio="xMidYMid meet">
<metadata>
Created by potrace 1.16, written by Peter Selinger 2001-2019
</metadata>
<g transform="translate(0.000000,30.000000) scale(0.100000,-0.100000)"
fill="#000000" stroke="none">
<path d="M7 293 l-7 -6 0 -53 0 -54 28 -6 27 -6 10 -3 10 -3 -32 -13 -31 -13
-7 -43 -6 -43 6 -20 6 -20 50 0 50 0 15 14 14 15 0 15 0 16 10 0 10 0 0 -29 0
-29 23 -6 22 -6 33 0 33 0 16 15 15 16 -7 44 -6 45 29 0 30 0 6 16 6 16 0 19
0 20 -30 6 -30 6 0 43 0 44 -55 0 -55 0 0 -21 0 -20 -14 -15 -15 -14 -11 0
-10 0 -7 30 -6 30 -21 5 -21 4 -36 6 -35 5 -7 -7z"/>
</g>
</svg>
