<?xml version="1.0" standalone="no"?>
<!DOCTYPE svg PUBLIC "-//W3C//DTD SVG 20010904//EN"
 "http://www.w3.org/TR/2001/REC-SVG-20010904/DTD/svg10.dtd">
<svg version="1.0" xmlns="http://www.w3.org/2000/svg"
 width="42.000000pt" height="28.000000pt" viewBox="0 0 42.000000 28.000000"
 preserveAspectRatio="xMidYMid meet">
<metadata>
Created by potrace 1.16, written by Peter Selinger 2001-2019
</metadata>
<g transform="translate(0.000000,28.000000) scale(0.100000,-0.100000)"
fill="#000000" stroke="none">
<path d="M77 273 l-7 -6 0 -38 0 -37 -16 -6 -16 -6 -19 0 -19 0 0 -25 0 -25
19 0 19 0 16 -6 16 -6 0 -54 0 -54 29 0 29 0 16 -6 15 -6 11 41 11 41 19 0 19
0 12 -22 12 -23 11 -7 11 -8 36 0 36 0 11 25 12 26 0 14 0 15 13 0 12 0 12 8
11 7 7 26 6 26 -16 17 -16 16 -30 0 -29 0 0 40 0 40 -123 0 -124 0 -6 -7z"/>
</g>
</svg>
