<?xml version="1.0" standalone="no"?>
<!DOCTYPE svg PUBLIC "-//W3C//DTD SVG 20010904//EN"
 "http://www.w3.org/TR/2001/REC-SVG-20010904/DTD/svg10.dtd">
<svg version="1.0" xmlns="http://www.w3.org/2000/svg"
 width="28.000000pt" height="37.000000pt" viewBox="0 0 28.000000 37.000000"
 preserveAspectRatio="xMidYMid meet">
<metadata>
Created by potrace 1.16, written by Peter Selinger 2001-2019
</metadata>
<g transform="translate(0.000000,37.000000) scale(0.100000,-0.100000)"
fill="#000000" stroke="none">
<path d="M0 318 l0 -53 8 -11 7 -11 28 -7 27 -6 0 -14 0 -13 -21 -9 -21 -10
-14 -39 -14 -40 0 -22 0 -22 43 -3 42 -3 3 -22 3 -22 20 -6 19 -6 30 6 30 7 0
14 0 14 19 0 20 0 15 15 15 15 12 0 12 0 -7 50 -7 50 -5 15 -6 15 -24 0 -24 0
0 14 0 13 26 -5 26 -5 9 14 9 14 0 51 0 51 -56 7 -55 6 -10 -6 -11 -6 6 -23 6
-23 -6 -16 -6 -16 -18 0 -18 0 -6 16 -6 16 6 24 6 24 -35 0 -36 0 -6 10 -6 10
-15 0 -14 0 0 -52z"/>
</g>
</svg>
