<?xml version="1.0" standalone="no"?>
<!DOCTYPE svg PUBLIC "-//W3C//DTD SVG 20010904//EN"
 "http://www.w3.org/TR/2001/REC-SVG-20010904/DTD/svg10.dtd">
<svg version="1.0" xmlns="http://www.w3.org/2000/svg"
 width="42.000000pt" height="29.000000pt" viewBox="0 0 42.000000 29.000000"
 preserveAspectRatio="xMidYMid meet">
<metadata>
Created by potrace 1.16, written by Peter Selinger 2001-2019
</metadata>
<g transform="translate(0.000000,29.000000) scale(0.100000,-0.100000)"
fill="#000000" stroke="none">
<path d="M80 252 l0 -33 -13 -14 -14 -13 -24 -4 -24 -3 -3 -21 -3 -22 35 -6
36 -7 6 -25 6 -25 -6 -29 -5 -30 38 0 39 0 16 6 16 6 0 29 0 29 21 0 22 0 -7
-40 -6 -40 24 -6 25 -6 35 12 36 12 6 24 6 25 -6 29 -5 30 30 0 30 0 15 14 14
15 0 9 0 10 -37 9 -38 9 -3 43 -3 43 -31 -6 -30 -6 -19 0 -19 0 0 -24 0 -24
-16 -6 -16 -6 -18 0 -19 0 -6 19 -5 18 5 16 6 15 -45 4 -46 3 0 -33z"/>
</g>
</svg>
