<?xml version="1.0" standalone="no"?>
<!DOCTYPE svg PUBLIC "-//W3C//DTD SVG 20010904//EN"
 "http://www.w3.org/TR/2001/REC-SVG-20010904/DTD/svg10.dtd">
<svg version="1.0" xmlns="http://www.w3.org/2000/svg"
 width="28.000000pt" height="36.000000pt" viewBox="0 0 28.000000 36.000000"
 preserveAspectRatio="xMidYMid meet">
<metadata>
Created by potrace 1.16, written by Peter Selinger 2001-2019
</metadata>
<g transform="translate(0.000000,36.000000) scale(0.100000,-0.100000)"
fill="#000000" stroke="none">
<path d="M17 354 l-7 -7 0 -49 0 -48 34 0 34 0 6 -15 5 -14 -15 -16 -15 -15
-30 0 -29 0 0 -61 0 -61 45 4 45 3 0 -22 0 -22 16 -16 16 -16 22 3 21 3 10 23
10 22 14 0 15 0 33 12 33 12 0 58 0 58 -39 0 -39 0 -6 16 -6 17 5 18 6 19 35
0 34 0 0 46 0 47 -31 -7 -31 -6 -19 0 -19 0 0 -24 0 -25 -21 -6 -21 -7 -9 13
-9 14 0 23 0 22 -22 0 -23 0 -20 6 -21 5 -7 -7z"/>
</g>
</svg>
