<?xml version="1.0" standalone="no"?>
<!DOCTYPE svg PUBLIC "-//W3C//DTD SVG 20010904//EN"
 "http://www.w3.org/TR/2001/REC-SVG-20010904/DTD/svg10.dtd">
<svg version="1.0" xmlns="http://www.w3.org/2000/svg"
 width="26.000000pt" height="34.000000pt" viewBox="0 0 26.000000 34.000000"
 preserveAspectRatio="xMidYMid meet">
<metadata>
Created by potrace 1.16, written by Peter Selinger 2001-2019
</metadata>
<g transform="translate(0.000000,34.000000) scale(0.100000,-0.100000)"
fill="#000000" stroke="none">
<path d="M15 331 l-5 -4 0 -39 0 -38 34 0 34 0 6 -16 6 -16 0 -8 0 -9 -16 -15
-15 -16 -30 0 -29 0 0 -51 0 -52 45 6 45 7 0 -24 0 -25 16 -16 16 -16 12 4 11
3 10 22 10 22 14 0 15 0 33 12 33 12 0 48 0 48 -40 0 -40 0 -6 24 -6 25 7 20
6 21 35 0 34 0 0 36 0 36 -16 -6 -16 -6 -24 0 -24 0 0 -24 0 -24 -16 -6 -16
-6 -18 0 -18 0 -6 16 -6 16 0 18 0 18 -35 4 -36 4 -4 -5z"/>
</g>
</svg>
