<?xml version="1.0" standalone="no"?>
<!DOCTYPE svg PUBLIC "-//W3C//DTD SVG 20010904//EN"
 "http://www.w3.org/TR/2001/REC-SVG-20010904/DTD/svg10.dtd">
<svg version="1.0" xmlns="http://www.w3.org/2000/svg"
 width="29.000000pt" height="30.000000pt" viewBox="0 0 29.000000 30.000000"
 preserveAspectRatio="xMidYMid meet">
<metadata>
Created by potrace 1.16, written by Peter Selinger 2001-2019
</metadata>
<g transform="translate(0.000000,30.000000) scale(0.100000,-0.100000)"
fill="#000000" stroke="none">
<path d="M49 293 l-27 -4 -6 -37 -6 -37 0 -12 0 -13 33 0 32 0 12 -8 12 -8 -8
-13 -8 -13 -41 -5 -42 -6 3 -56 2 -56 10 -7 10 -8 51 0 52 0 6 16 6 16 0 24 0
24 10 0 9 0 11 -19 10 -20 0 -25 0 -26 43 0 42 0 11 8 11 7 2 58 1 57 -25 0
-25 0 0 10 0 10 -15 0 -15 0 0 15 0 14 33 9 32 8 3 48 3 49 -23 -7 -23 -6 -27
-6 -28 -6 0 -12 0 -11 -9 -14 -9 -13 -21 7 -21 6 0 35 0 34 -22 -1 -23 -2 -26
-4z"/>
</g>
</svg>
