<?xml version="1.0" standalone="no"?>
<!DOCTYPE svg PUBLIC "-//W3C//DTD SVG 20010904//EN"
 "http://www.w3.org/TR/2001/REC-SVG-20010904/DTD/svg10.dtd">
<svg version="1.0" xmlns="http://www.w3.org/2000/svg"
 width="27.000000pt" height="28.000000pt" viewBox="0 0 27.000000 28.000000"
 preserveAspectRatio="xMidYMid meet">
<metadata>
Created by potrace 1.16, written by Peter Selinger 2001-2019
</metadata>
<g transform="translate(0.000000,28.000000) scale(0.100000,-0.100000)"
fill="#000000" stroke="none">
<path d="M48 273 l-28 -4 0 -17 0 -17 -6 -22 -6 -23 33 0 34 0 14 -9 13 -9 -6
-19 -6 -19 -31 -11 -30 -12 -15 6 -14 5 2 -48 3 -49 10 -7 10 -8 41 0 42 0 6
16 6 16 0 24 0 24 20 0 19 0 11 -19 10 -20 0 -25 0 -26 33 0 32 0 10 8 10 7 3
48 2 47 -25 0 -25 0 0 10 0 10 -15 0 -15 0 0 25 0 24 33 9 32 8 3 36 3 36 -40
-11 -40 -11 -6 -23 -5 -23 -19 0 -19 0 -16 6 -16 6 0 34 0 34 -12 -1 -13 -2
-27 -4z"/>
</g>
</svg>
