<?xml version="1.0" standalone="no"?>
<!DOCTYPE svg PUBLIC "-//W3C//DTD SVG 20010904//EN"
 "http://www.w3.org/TR/2001/REC-SVG-20010904/DTD/svg10.dtd">
<svg version="1.0" xmlns="http://www.w3.org/2000/svg"
 width="34.000000pt" height="35.000000pt" viewBox="0 0 34.000000 35.000000"
 preserveAspectRatio="xMidYMid meet">
<metadata>
Created by potrace 1.16, written by Peter Selinger 2001-2019
</metadata>
<g transform="translate(0.000000,35.000000) scale(0.100000,-0.100000)"
fill="#000000" stroke="none">
<path d="M114 325 l7 -26 -16 -15 -15 -16 -38 4 -37 3 -3 -42 -3 -43 18 -1 18
-2 20 -1 20 -1 3 -24 4 -24 -14 -8 -13 -9 -32 0 -33 0 0 -45 0 -45 15 0 15 0
0 -9 0 -8 30 -6 30 -6 15 5 15 6 0 23 0 23 6 16 6 16 19 0 19 0 0 -24 0 -24 6
-16 6 -16 38 0 38 0 14 5 13 5 -3 50 -4 50 31 6 31 7 0 17 0 18 -30 7 -30 7
-6 24 -6 24 4 25 5 24 -28 -6 -28 -5 -27 6 -26 7 6 21 5 22 -11 13 -10 13 -25
0 -25 0 6 -25z"/>
</g>
</svg>
