<?xml version="1.0" standalone="no"?>
<!DOCTYPE svg PUBLIC "-//W3C//DTD SVG 20010904//EN"
 "http://www.w3.org/TR/2001/REC-SVG-20010904/DTD/svg10.dtd">
<svg version="1.0" xmlns="http://www.w3.org/2000/svg"
 width="36.000000pt" height="37.000000pt" viewBox="0 0 36.000000 37.000000"
 preserveAspectRatio="xMidYMid meet">
<metadata>
Created by potrace 1.16, written by Peter Selinger 2001-2019
</metadata>
<g transform="translate(0.000000,37.000000) scale(0.100000,-0.100000)"
fill="#000000" stroke="none">
<path d="M112 342 l4 -28 -13 -13 -13 -12 -38 3 -37 3 -3 -52 -3 -53 40 -6 41
-7 0 -12 0 -13 -16 -6 -16 -6 -29 0 -29 0 0 -55 0 -55 15 0 15 0 0 -9 0 -9 35
-6 36 -7 19 6 20 6 0 24 0 23 6 16 6 16 9 0 9 0 0 -24 0 -24 6 -16 6 -16 48 0
48 0 16 6 15 6 -6 49 -6 49 32 6 31 7 0 27 0 28 -30 7 -29 6 -6 20 -6 19 6 32
7 31 -36 -7 -37 -7 -18 6 -19 6 5 19 5 20 -12 15 -12 15 -35 0 -35 0 4 -28z"/>
</g>
</svg>
