<?xml version="1.0" standalone="no"?>
<!DOCTYPE svg PUBLIC "-//W3C//DTD SVG 20010904//EN"
 "http://www.w3.org/TR/2001/REC-SVG-20010904/DTD/svg10.dtd">
<svg version="1.0" xmlns="http://www.w3.org/2000/svg"
 width="41.000000pt" height="33.000000pt" viewBox="0 0 41.000000 33.000000"
 preserveAspectRatio="xMidYMid meet">
<metadata>
Created by potrace 1.16, written by Peter Selinger 2001-2019
</metadata>
<g transform="translate(0.000000,33.000000) scale(0.100000,-0.100000)"
fill="#000000" stroke="none">
<path d="M80 291 l0 -39 -16 -6 -16 -6 -24 0 -24 0 0 -25 0 -25 33 0 32 0 14
-9 13 -9 -4 -33 -5 -34 -8 -17 -7 -18 47 0 47 0 -6 -27 -7 -26 13 -8 13 -9 20
0 20 0 19 25 19 25 18 0 17 0 16 6 16 6 0 59 0 59 23 4 22 5 20 3 20 3 0 10 0
10 -29 3 -29 4 -14 13 -13 14 0 41 0 42 -16 -6 -16 -6 -19 0 -19 0 0 -25 0
-25 -24 -6 -25 -6 -20 7 -21 6 0 30 0 29 -40 0 -40 0 0 -39z"/>
</g>
</svg>
