<?xml version="1.0" standalone="no"?>
<!DOCTYPE svg PUBLIC "-//W3C//DTD SVG 20010904//EN"
 "http://www.w3.org/TR/2001/REC-SVG-20010904/DTD/svg10.dtd">
<svg version="1.0" xmlns="http://www.w3.org/2000/svg"
 width="43.000000pt" height="35.000000pt" viewBox="0 0 43.000000 35.000000"
 preserveAspectRatio="xMidYMid meet">
<metadata>
Created by potrace 1.16, written by Peter Selinger 2001-2019
</metadata>
<g transform="translate(0.000000,35.000000) scale(0.100000,-0.100000)"
fill="#000000" stroke="none">
<path d="M80 311 l0 -39 -16 -6 -16 -6 -24 0 -24 0 0 -35 0 -35 33 0 32 0 14
-9 14 -9 -7 -26 -6 -26 -6 -25 -6 -25 44 0 45 0 -5 -26 -5 -26 14 -9 14 -9 30
0 30 0 19 25 19 25 18 0 17 0 16 6 16 6 0 59 0 59 23 4 22 5 20 3 20 3 0 20 0
20 -29 3 -29 4 -14 13 -13 14 0 42 0 42 -31 -7 -31 -6 -14 0 -14 0 0 -24 0
-25 -19 -6 -18 -5 -17 6 -16 6 0 29 0 29 -50 0 -50 0 0 -39z"/>
</g>
</svg>
