<?xml version="1.0" standalone="no"?>
<!DOCTYPE svg PUBLIC "-//W3C//DTD SVG 20010904//EN"
 "http://www.w3.org/TR/2001/REC-SVG-20010904/DTD/svg10.dtd">
<svg version="1.0" xmlns="http://www.w3.org/2000/svg"
 width="38.000000pt" height="43.000000pt" viewBox="0 0 38.000000 43.000000"
 preserveAspectRatio="xMidYMid meet">
<metadata>
Created by potrace 1.16, written by Peter Selinger 2001-2019
</metadata>
<g transform="translate(0.000000,43.000000) scale(0.100000,-0.100000)"
fill="#000000" stroke="none">
<path d="M121 421 l-13 -9 4 -13 5 -14 -13 -12 -13 -13 -35 0 -36 0 0 -39 0
-39 6 -16 6 -16 17 0 16 0 14 -9 13 -9 -7 -21 -7 -22 -32 7 -33 6 -5 -54 -6
-53 12 -7 11 -8 43 0 42 0 0 -40 0 -40 40 0 40 0 0 15 0 15 10 0 10 0 0 30 0
30 24 -6 25 -6 21 7 22 7 -4 38 -3 38 37 6 37 6 7 35 6 34 -15 16 -16 15 -25
0 -26 0 0 41 0 41 -34 -6 -35 -7 -25 7 -26 6 0 28 0 28 -16 6 -16 6 -6 0 -7 0
-14 -9z"/>
</g>
</svg>
