<?xml version="1.0" standalone="no"?>
<!DOCTYPE svg PUBLIC "-//W3C//DTD SVG 20010904//EN"
 "http://www.w3.org/TR/2001/REC-SVG-20010904/DTD/svg10.dtd">
<svg version="1.0" xmlns="http://www.w3.org/2000/svg"
 width="36.000000pt" height="41.000000pt" viewBox="0 0 36.000000 41.000000"
 preserveAspectRatio="xMidYMid meet">
<metadata>
Created by potrace 1.16, written by Peter Selinger 2001-2019
</metadata>
<g transform="translate(0.000000,41.000000) scale(0.100000,-0.100000)"
fill="#000000" stroke="none">
<path d="M123 403 l-12 -4 6 -14 5 -14 -15 -16 -16 -15 -35 0 -36 0 0 -32 0
-33 8 -11 7 -11 28 -7 27 -6 0 -23 0 -22 -9 -14 -9 -14 -30 6 -30 6 -4 -44 -3
-45 13 -5 14 -5 39 0 39 0 0 -40 0 -40 30 0 30 0 0 15 0 15 10 0 10 0 0 31 0
31 33 -6 32 -6 14 9 14 9 -7 35 -6 34 39 7 39 6 6 25 7 26 -16 16 -16 15 -24
-5 -25 -4 0 44 0 43 -25 -6 -25 -6 -35 6 -35 7 0 28 0 29 -12 4 -13 5 -12 -4z"/>
</g>
</svg>
