<?xml version="1.0" standalone="no"?>
<!DOCTYPE svg PUBLIC "-//W3C//DTD SVG 20010904//EN"
 "http://www.w3.org/TR/2001/REC-SVG-20010904/DTD/svg10.dtd">
<svg version="1.0" xmlns="http://www.w3.org/2000/svg"
 width="30.000000pt" height="43.000000pt" viewBox="0 0 30.000000 43.000000"
 preserveAspectRatio="xMidYMid meet">
<metadata>
Created by potrace 1.16, written by Peter Selinger 2001-2019
</metadata>
<g transform="translate(0.000000,43.000000) scale(0.100000,-0.100000)"
fill="#000000" stroke="none">
<path d="M110 389 l-11 -41 -50 7 -49 7 0 -65 0 -65 16 -6 16 -6 21 -1 22 0
-25 -12 -25 -11 -7 -11 -8 -10 0 -54 0 -53 45 4 45 3 0 -31 0 -32 16 -6 16 -6
29 0 29 0 5 23 6 23 45 12 44 12 0 39 0 38 -6 32 -6 31 -17 0 -16 1 20 11 20
11 7 11 8 11 0 48 0 47 -23 0 -22 0 -33 -9 -32 -10 -5 25 -5 24 -5 25 -5 25
-25 0 -24 0 -11 -41z"/>
</g>
</svg>
