<?xml version="1.0" standalone="no"?>
<!DOCTYPE svg PUBLIC "-//W3C//DTD SVG 20010904//EN"
 "http://www.w3.org/TR/2001/REC-SVG-20010904/DTD/svg10.dtd">
<svg version="1.0" xmlns="http://www.w3.org/2000/svg"
 width="28.000000pt" height="41.000000pt" viewBox="0 0 28.000000 41.000000"
 preserveAspectRatio="xMidYMid meet">
<metadata>
Created by potrace 1.16, written by Peter Selinger 2001-2019
</metadata>
<g transform="translate(0.000000,41.000000) scale(0.100000,-0.100000)"
fill="#000000" stroke="none">
<path d="M110 369 l-11 -42 -50 6 -49 6 0 -53 0 -54 16 -6 16 -6 24 6 24 6 0
-16 0 -16 -27 -13 -28 -12 -7 -10 -8 -10 0 -44 0 -44 45 6 45 7 0 -34 0 -34
16 -6 16 -6 19 0 19 0 5 23 6 23 45 12 44 12 0 29 0 28 -6 31 -6 31 -29 6 -29
7 0 14 0 14 24 -6 23 -5 17 16 16 16 0 41 0 41 -29 -6 -29 -6 -25 -6 -26 -7
-6 26 -5 26 -5 25 -5 25 -15 0 -14 0 -11 -41z"/>
</g>
</svg>
