<?xml version="1.0" standalone="no"?>
<!DOCTYPE svg PUBLIC "-//W3C//DTD SVG 20010904//EN"
 "http://www.w3.org/TR/2001/REC-SVG-20010904/DTD/svg10.dtd">
<svg version="1.0" xmlns="http://www.w3.org/2000/svg"
 width="38.000000pt" height="41.000000pt" viewBox="0 0 38.000000 41.000000"
 preserveAspectRatio="xMidYMid meet">
<metadata>
Created by potrace 1.16, written by Peter Selinger 2001-2019
</metadata>
<g transform="translate(0.000000,41.000000) scale(0.100000,-0.100000)"
fill="#000000" stroke="none">
<path d="M126 394 l-6 -16 0 -23 0 -23 -14 -5 -14 -5 -41 5 -41 6 0 -24 0 -24
-6 -22 -6 -23 40 0 41 0 6 -10 6 -9 -7 -25 -6 -25 -21 -7 -22 -7 -7 -11 -8
-11 0 -18 0 -18 14 -15 15 -14 30 0 31 0 0 -30 0 -30 8 0 7 0 21 -6 20 -5 12
25 11 25 44 6 45 7 11 24 11 25 0 34 0 35 24 0 24 0 16 6 16 6 0 20 0 19 -14
15 -15 14 -30 0 -31 0 0 39 0 38 -51 -5 -51 -5 -9 14 -9 14 0 28 0 27 -19 0
-19 0 -6 -16z"/>
</g>
</svg>
