<?xml version="1.0" standalone="no"?>
<!DOCTYPE svg PUBLIC "-//W3C//DTD SVG 20010904//EN"
 "http://www.w3.org/TR/2001/REC-SVG-20010904/DTD/svg10.dtd">
<svg version="1.0" xmlns="http://www.w3.org/2000/svg"
 width="40.000000pt" height="43.000000pt" viewBox="0 0 40.000000 43.000000"
 preserveAspectRatio="xMidYMid meet">
<metadata>
Created by potrace 1.16, written by Peter Selinger 2001-2019
</metadata>
<g transform="translate(0.000000,43.000000) scale(0.100000,-0.100000)"
fill="#000000" stroke="none">
<path d="M126 414 l-6 -16 0 -24 0 -24 -12 -1 -13 -1 -42 2 -43 2 0 -19 0 -18
-6 -37 -7 -38 40 0 40 0 5 -6 6 -5 -5 -19 -5 -19 -22 -7 -21 -7 -7 -11 -8 -11
0 -28 0 -28 14 -15 15 -14 30 0 31 0 0 -29 0 -29 22 -6 23 -6 16 0 16 0 11 24
11 25 44 6 45 7 11 24 11 25 0 34 0 35 24 0 24 0 16 6 16 6 0 30 0 29 -14 15
-15 14 -30 0 -31 0 0 40 0 41 -51 -7 -51 -7 -9 14 -9 14 0 28 0 27 -29 0 -29
0 -6 -16z"/>
</g>
</svg>
