<?xml version="1.0" standalone="no"?>
<!DOCTYPE svg PUBLIC "-//W3C//DTD SVG 20010904//EN"
 "http://www.w3.org/TR/2001/REC-SVG-20010904/DTD/svg10.dtd">
<svg version="1.0" xmlns="http://www.w3.org/2000/svg"
 width="34.000000pt" height="33.000000pt" viewBox="0 0 34.000000 33.000000"
 preserveAspectRatio="xMidYMid meet">
<metadata>
Created by potrace 1.16, written by Peter Selinger 2001-2019
</metadata>
<g transform="translate(0.000000,33.000000) scale(0.100000,-0.100000)"
fill="#000000" stroke="none">
<path d="M180 301 l0 -29 -16 -6 -16 -6 -44 0 -44 0 0 -40 0 -40 -16 0 -15 0
-15 -14 -14 -15 0 -20 0 -21 24 0 24 0 6 -22 6 -23 0 -18 0 -18 14 -15 15 -14
26 0 26 0 15 15 15 14 -7 26 -6 25 25 0 25 0 11 -14 11 -13 -6 -18 -7 -17 14
-9 14 -9 30 0 30 0 13 9 14 8 -13 42 -12 41 -13 0 -12 0 -6 16 -6 16 0 19 0
20 10 -6 10 -6 20 6 19 6 7 35 7 35 -10 10 -9 9 -32 -11 -32 -11 -25 6 -25 6
6 40 7 40 -22 0 -21 0 0 -29z"/>
</g>
</svg>
