<?xml version="1.0" standalone="no"?>
<!DOCTYPE svg PUBLIC "-//W3C//DTD SVG 20010904//EN"
 "http://www.w3.org/TR/2001/REC-SVG-20010904/DTD/svg10.dtd">
<svg version="1.0" xmlns="http://www.w3.org/2000/svg"
 width="36.000000pt" height="35.000000pt" viewBox="0 0 36.000000 35.000000"
 preserveAspectRatio="xMidYMid meet">
<metadata>
Created by potrace 1.16, written by Peter Selinger 2001-2019
</metadata>
<g transform="translate(0.000000,35.000000) scale(0.100000,-0.100000)"
fill="#000000" stroke="none">
<path d="M180 321 l0 -29 -16 -6 -16 -6 -44 0 -44 0 0 -40 0 -40 -16 0 -15 0
-15 -14 -14 -15 0 -30 0 -31 24 0 24 0 6 -23 6 -22 0 -18 0 -18 14 -15 15 -14
36 0 36 0 16 15 15 16 -5 25 -4 25 16 -3 16 -3 3 -30 4 -30 11 -7 12 -8 37 0
36 0 16 6 16 6 0 15 0 16 -12 38 -11 39 -13 0 -12 0 -6 16 -6 16 0 3 0 3 29 5
28 6 7 23 6 23 0 28 0 28 -15 5 -14 6 -34 -11 -34 -12 -14 6 -14 5 3 40 4 40
-31 0 -31 0 0 -29z"/>
</g>
</svg>
