<?xml version="1.0" standalone="no"?>
<!DOCTYPE svg PUBLIC "-//W3C//DTD SVG 20010904//EN"
 "http://www.w3.org/TR/2001/REC-SVG-20010904/DTD/svg10.dtd">
<svg version="1.0" xmlns="http://www.w3.org/2000/svg"
 width="37.000000pt" height="42.000000pt" viewBox="0 0 37.000000 42.000000"
 preserveAspectRatio="xMidYMid meet">
<metadata>
Created by potrace 1.16, written by Peter Selinger 2001-2019
</metadata>
<g transform="translate(0.000000,42.000000) scale(0.100000,-0.100000)"
fill="#000000" stroke="none">
<path d="M113 413 l-13 -5 0 -23 0 -24 -20 -6 -20 -6 -30 6 -30 7 0 -56 0 -56
19 0 20 0 15 -15 15 -16 -5 -13 -5 -14 -18 -5 -18 -4 -6 -33 -7 -33 0 -23 0
-24 28 0 27 0 11 -8 11 -7 7 -27 6 -28 31 0 30 0 15 14 14 15 0 20 0 21 33 0
32 0 13 9 14 8 5 42 6 41 28 0 29 0 0 15 0 15 10 0 10 0 0 25 0 25 -22 4 -23
5 -20 3 -20 3 -5 45 -5 44 -42 12 -42 13 -23 20 -22 21 -10 -1 -11 -1 -12 -5z"/>
</g>
</svg>
