<?xml version="1.0" standalone="no"?>
<!DOCTYPE svg PUBLIC "-//W3C//DTD SVG 20010904//EN"
 "http://www.w3.org/TR/2001/REC-SVG-20010904/DTD/svg10.dtd">
<svg version="1.0" xmlns="http://www.w3.org/2000/svg"
 width="43.000000pt" height="37.000000pt" viewBox="0 0 43.000000 37.000000"
 preserveAspectRatio="xMidYMid meet">
<metadata>
Created by potrace 1.16, written by Peter Selinger 2001-2019
</metadata>
<g transform="translate(0.000000,37.000000) scale(0.100000,-0.100000)"
fill="#000000" stroke="none">
<path d="M160 341 l0 -29 -16 -6 -16 -6 -29 0 -29 0 0 -34 0 -35 -16 -15 -15
-16 -20 0 -19 0 0 -34 0 -35 23 -7 22 -7 7 -11 8 -11 0 -31 0 -32 16 -6 16 -6
38 0 39 0 11 42 12 41 9 -14 9 -14 0 -25 0 -25 9 -14 9 -14 60 13 60 12 16 42
16 42 0 11 0 11 25 6 25 6 0 35 0 35 -40 6 -40 7 0 40 0 40 -45 -6 -44 -7 -11
40 -11 40 -39 0 -40 0 0 -29z"/>
</g>
</svg>
