<?xml version="1.0" standalone="no"?>
<!DOCTYPE svg PUBLIC "-//W3C//DTD SVG 20010904//EN"
 "http://www.w3.org/TR/2001/REC-SVG-20010904/DTD/svg10.dtd">
<svg version="1.0" xmlns="http://www.w3.org/2000/svg"
 width="41.000000pt" height="35.000000pt" viewBox="0 0 41.000000 35.000000"
 preserveAspectRatio="xMidYMid meet">
<metadata>
Created by potrace 1.16, written by Peter Selinger 2001-2019
</metadata>
<g transform="translate(0.000000,35.000000) scale(0.100000,-0.100000)"
fill="#000000" stroke="none">
<path d="M160 321 l0 -29 -16 -6 -16 -6 -29 0 -29 0 0 -35 0 -34 -21 -20 -21
-20 -14 6 -14 5 0 -25 0 -26 23 -7 22 -7 7 -11 8 -11 0 -31 0 -32 16 -6 16 -6
28 0 29 0 11 40 11 40 13 0 14 0 6 -16 6 -16 0 -21 0 -22 8 -13 8 -12 51 11
51 12 16 41 16 42 0 11 0 11 25 6 25 6 0 25 0 25 -17 2 -18 1 -20 1 -20 1 -3
43 -3 43 -44 -7 -44 -6 -11 41 -11 41 -29 0 -30 0 0 -29z"/>
</g>
</svg>
