<?xml version="1.0" standalone="no"?>
<!DOCTYPE svg PUBLIC "-//W3C//DTD SVG 20010904//EN"
 "http://www.w3.org/TR/2001/REC-SVG-20010904/DTD/svg10.dtd">
<svg version="1.0" xmlns="http://www.w3.org/2000/svg"
 width="35.000000pt" height="40.000000pt" viewBox="0 0 35.000000 40.000000"
 preserveAspectRatio="xMidYMid meet">
<metadata>
Created by potrace 1.16, written by Peter Selinger 2001-2019
</metadata>
<g transform="translate(0.000000,40.000000) scale(0.100000,-0.100000)"
fill="#000000" stroke="none">
<path d="M113 393 l-13 -5 0 -24 0 -24 -25 -6 -25 -6 -25 4 -25 5 0 -42 0 -42
29 -6 29 -6 6 -19 6 -19 -6 -17 -6 -16 -13 0 -14 0 -5 -8 -5 -9 -7 -41 -7 -42
29 0 29 0 11 -8 11 -7 7 -27 6 -28 21 0 20 0 15 14 14 15 0 20 0 21 33 0 32 0
13 9 14 8 5 42 6 41 28 0 29 0 0 15 0 15 10 0 10 0 0 15 0 15 -22 4 -23 5 -20
3 -20 3 -5 45 -5 44 -44 13 -45 13 -5 7 -6 8 -15 11 -15 11 -12 -4z"/>
</g>
</svg>
