<?xml version="1.0" standalone="no"?>
<!DOCTYPE svg PUBLIC "-//W3C//DTD SVG 20010904//EN"
 "http://www.w3.org/TR/2001/REC-SVG-20010904/DTD/svg10.dtd">
<svg version="1.0" xmlns="http://www.w3.org/2000/svg"
 width="44.000000pt" height="35.000000pt" viewBox="0 0 44.000000 35.000000"
 preserveAspectRatio="xMidYMid meet">
<metadata>
Created by potrace 1.16, written by Peter Selinger 2001-2019
</metadata>
<g transform="translate(0.000000,35.000000) scale(0.100000,-0.100000)"
fill="#000000" stroke="none">
<path d="M180 326 l0 -24 -6 -16 -6 -16 -44 0 -44 0 0 -50 0 -50 -34 0 -35 0
-6 -10 -6 -10 6 -20 6 -20 24 0 23 0 16 -6 15 -6 -6 -49 -6 -49 126 0 125 0
16 6 16 6 0 34 0 34 34 0 34 0 6 16 6 16 0 34 0 34 -39 6 -40 6 -3 37 -3 36
-47 -3 -48 -3 0 26 0 26 -10 20 -11 19 -29 0 -30 0 0 -24z"/>
</g>
</svg>
