<?xml version="1.0" standalone="no"?>
<!DOCTYPE svg PUBLIC "-//W3C//DTD SVG 20010904//EN"
 "http://www.w3.org/TR/2001/REC-SVG-20010904/DTD/svg10.dtd">
<svg version="1.0" xmlns="http://www.w3.org/2000/svg"
 width="41.000000pt" height="33.000000pt" viewBox="0 0 41.000000 33.000000"
 preserveAspectRatio="xMidYMid meet">
<metadata>
Created by potrace 1.16, written by Peter Selinger 2001-2019
</metadata>
<g transform="translate(0.000000,33.000000) scale(0.100000,-0.100000)"
fill="#000000" stroke="none">
<path d="M190 292 l-10 -39 -55 5 -55 4 0 -45 0 -45 -35 -6 -35 -7 0 -24 0
-25 25 0 25 0 0 -12 0 -13 10 -37 11 -37 34 -7 35 -6 25 6 25 6 0 24 0 24 15
6 15 6 21 -21 21 -21 34 -10 34 -9 9 5 9 6 6 44 7 44 25 6 25 7 -4 12 -4 12
-36 8 -37 9 0 54 0 54 -25 0 -24 0 -21 22 -20 22 0 8 0 8 -20 0 -19 0 -11 -38z"/>
</g>
</svg>
