<?xml version="1.0" standalone="no"?>
<!DOCTYPE svg PUBLIC "-//W3C//DTD SVG 20010904//EN"
 "http://www.w3.org/TR/2001/REC-SVG-20010904/DTD/svg10.dtd">
<svg version="1.0" xmlns="http://www.w3.org/2000/svg"
 width="43.000000pt" height="35.000000pt" viewBox="0 0 43.000000 35.000000"
 preserveAspectRatio="xMidYMid meet">
<metadata>
Created by potrace 1.16, written by Peter Selinger 2001-2019
</metadata>
<g transform="translate(0.000000,35.000000) scale(0.100000,-0.100000)"
fill="#000000" stroke="none">
<path d="M192 318 l-8 -33 -57 -3 -57 -3 0 -43 0 -44 -35 -6 -35 -7 0 -34 0
-35 24 0 24 0 7 -38 6 -37 8 -13 8 -14 41 -5 41 -5 25 6 26 6 0 25 0 25 13 0
13 0 16 -19 16 -19 41 -7 40 -7 9 6 10 6 6 44 7 44 25 6 25 7 -3 22 -3 21 -37
9 -38 9 0 54 0 54 -25 0 -24 0 -21 22 -20 22 0 8 0 8 -30 0 -29 0 -9 -32z"/>
</g>
</svg>
