<?xml version="1.0" standalone="no"?>
<!DOCTYPE svg PUBLIC "-//W3C//DTD SVG 20010904//EN"
 "http://www.w3.org/TR/2001/REC-SVG-20010904/DTD/svg10.dtd">
<svg version="1.0" xmlns="http://www.w3.org/2000/svg"
 width="42.000000pt" height="33.000000pt" viewBox="0 0 42.000000 33.000000"
 preserveAspectRatio="xMidYMid meet">
<metadata>
Created by potrace 1.16, written by Peter Selinger 2001-2019
</metadata>
<g transform="translate(0.000000,33.000000) scale(0.100000,-0.100000)"
fill="#000000" stroke="none">
<path d="M180 306 l0 -24 -6 -16 -6 -16 -44 0 -44 0 0 -50 0 -50 -33 0 -34 0
-6 -6 -6 -6 6 -14 5 -14 27 0 26 0 13 -9 14 -8 -7 -47 -7 -46 118 0 119 0 14
9 14 9 -7 34 -6 34 36 -4 36 -4 9 13 9 14 0 27 0 28 -39 6 -40 6 -3 37 -3 36
-47 -3 -48 -4 -1 19 -1 18 1 8 1 8 -10 19 -11 20 -19 0 -20 0 0 -24z"/>
</g>
</svg>
