<?xml version="1.0" standalone="no"?>
<!DOCTYPE svg PUBLIC "-//W3C//DTD SVG 20010904//EN"
 "http://www.w3.org/TR/2001/REC-SVG-20010904/DTD/svg10.dtd">
<svg version="1.0" xmlns="http://www.w3.org/2000/svg"
 width="39.000000pt" height="27.000000pt" viewBox="0 0 39.000000 27.000000"
 preserveAspectRatio="xMidYMid meet">
<metadata>
Created by potrace 1.16, written by Peter Selinger 2001-2019
</metadata>
<g transform="translate(0.000000,27.000000) scale(0.100000,-0.100000)"
fill="#000000" stroke="none">
<path d="M83 263 l-23 -4 0 -37 0 -37 -9 -14 -9 -13 -22 7 -22 7 4 -28 3 -28
38 -9 37 -9 0 -17 0 -16 -9 -33 -10 -32 40 0 40 0 15 14 14 15 0 26 0 26 18
-3 17 -3 -3 -22 -3 -22 38 -10 38 -11 18 0 17 0 0 33 0 34 19 22 19 22 19 -3
18 -3 3 24 4 24 -27 -7 -26 -7 -14 15 -15 15 0 40 0 41 -40 0 -40 0 0 -18 0
-19 -19 -21 -18 -22 -11 0 -11 0 -15 16 -16 15 0 30 0 29 -17 -1 -18 -2 -22
-4z"/>
</g>
</svg>
