<?xml version="1.0" standalone="no"?>
<!DOCTYPE svg PUBLIC "-//W3C//DTD SVG 20010904//EN"
 "http://www.w3.org/TR/2001/REC-SVG-20010904/DTD/svg10.dtd">
<svg version="1.0" xmlns="http://www.w3.org/2000/svg"
 width="41.000000pt" height="29.000000pt" viewBox="0 0 41.000000 29.000000"
 preserveAspectRatio="xMidYMid meet">
<metadata>
Created by potrace 1.16, written by Peter Selinger 2001-2019
</metadata>
<g transform="translate(0.000000,29.000000) scale(0.100000,-0.100000)"
fill="#000000" stroke="none">
<path d="M83 283 l-23 -4 0 -34 0 -33 -6 -15 -5 -14 -25 5 -25 5 3 -39 3 -38
38 -9 39 -9 -6 -24 -6 -24 -6 -25 -6 -25 52 0 51 0 14 13 13 14 5 29 4 29 2
-27 1 -27 38 -10 37 -11 28 0 27 0 0 33 0 34 18 19 17 19 20 0 20 0 3 34 3 33
-29 -4 -28 -4 -12 13 -12 12 0 41 0 40 -50 0 -50 0 0 -18 0 -19 -19 -22 -19
-22 -16 16 -16 16 0 30 0 29 -27 -1 -28 -2 -22 -4z"/>
</g>
</svg>
