<?xml version="1.0" standalone="no"?>
<!DOCTYPE svg PUBLIC "-//W3C//DTD SVG 20010904//EN"
 "http://www.w3.org/TR/2001/REC-SVG-20010904/DTD/svg10.dtd">
<svg version="1.0" xmlns="http://www.w3.org/2000/svg"
 width="32.000000pt" height="35.000000pt" viewBox="0 0 32.000000 35.000000"
 preserveAspectRatio="xMidYMid meet">
<metadata>
Created by potrace 1.16, written by Peter Selinger 2001-2019
</metadata>
<g transform="translate(0.000000,35.000000) scale(0.100000,-0.100000)"
fill="#000000" stroke="none">
<path d="M180 320 l0 -30 -10 0 -10 0 0 -15 0 -15 -30 0 -30 0 0 40 0 40 -45
0 -45 0 0 -24 0 -24 -6 -15 -6 -16 19 5 19 5 22 -19 22 -19 0 -22 0 -21 -29
-6 -29 -6 -4 -39 -4 -39 10 -10 10 -10 33 0 32 0 -5 -15 -6 -15 6 -25 6 -25
30 0 30 0 6 24 5 23 -3 19 -3 19 48 -3 47 -4 0 19 0 18 11 38 10 39 20 -5 19
-5 0 24 0 24 -21 0 -20 0 -15 14 -14 15 0 39 0 40 -22 6 -23 6 -12 0 -13 0 0
-30z"/>
</g>
</svg>
