<?xml version="1.0" standalone="no"?>
<!DOCTYPE svg PUBLIC "-//W3C//DTD SVG 20010904//EN"
 "http://www.w3.org/TR/2001/REC-SVG-20010904/DTD/svg10.dtd">
<svg version="1.0" xmlns="http://www.w3.org/2000/svg"
 width="34.000000pt" height="37.000000pt" viewBox="0 0 34.000000 37.000000"
 preserveAspectRatio="xMidYMid meet">
<metadata>
Created by potrace 1.16, written by Peter Selinger 2001-2019
</metadata>
<g transform="translate(0.000000,37.000000) scale(0.100000,-0.100000)"
fill="#000000" stroke="none">
<path d="M180 340 l0 -30 -10 0 -10 0 0 -15 0 -15 -20 0 -20 0 0 40 0 40 -55
0 -55 0 0 -19 0 -19 -7 -32 -6 -33 21 5 21 6 21 -18 20 -17 0 -12 0 -11 -29
-6 -29 -6 -5 -47 -5 -46 10 -12 10 -13 29 0 29 0 0 -24 0 -24 6 -16 6 -16 38
0 38 0 6 16 6 16 0 26 0 27 45 -3 45 -4 0 18 0 19 10 37 10 36 20 -5 20 -5 0
36 0 36 -21 0 -20 0 -15 14 -14 15 0 39 0 40 -22 6 -23 6 -22 0 -23 0 0 -30z"/>
</g>
</svg>
