<?xml version="1.0" standalone="no"?>
<!DOCTYPE svg PUBLIC "-//W3C//DTD SVG 20010904//EN"
 "http://www.w3.org/TR/2001/REC-SVG-20010904/DTD/svg10.dtd">
<svg version="1.0" xmlns="http://www.w3.org/2000/svg"
 width="32.000000pt" height="28.000000pt" viewBox="0 0 32.000000 28.000000"
 preserveAspectRatio="xMidYMid meet">
<metadata>
Created by potrace 1.16, written by Peter Selinger 2001-2019
</metadata>
<g transform="translate(0.000000,28.000000) scale(0.100000,-0.100000)"
fill="#000000" stroke="none">
<path d="M0 234 l0 -46 21 5 22 6 13 -14 14 -14 0 -14 0 -15 -6 -16 -6 -16
-19 0 -19 0 -5 -25 -5 -25 -5 -25 -5 -25 29 0 29 0 16 6 16 6 0 29 0 29 30 0
29 0 11 -40 11 -40 20 0 20 0 20 10 19 11 0 54 0 54 35 7 35 6 0 14 0 14 -24
0 -25 0 -15 16 -16 15 0 34 0 35 -32 -7 -33 -6 -21 -23 -21 -24 -19 0 -19 0
-13 9 -13 8 7 26 6 27 -41 0 -41 0 0 -46z"/>
</g>
</svg>
