<?xml version="1.0" standalone="no"?>
<!DOCTYPE svg PUBLIC "-//W3C//DTD SVG 20010904//EN"
 "http://www.w3.org/TR/2001/REC-SVG-20010904/DTD/svg10.dtd">
<svg version="1.0" xmlns="http://www.w3.org/2000/svg"
 width="35.000000pt" height="36.000000pt" viewBox="0 0 35.000000 36.000000"
 preserveAspectRatio="xMidYMid meet">
<metadata>
Created by potrace 1.16, written by Peter Selinger 2001-2019
</metadata>
<g transform="translate(0.000000,36.000000) scale(0.100000,-0.100000)"
fill="#000000" stroke="none">
<path d="M39 353 l-27 -4 -6 -31 -6 -31 0 -12 0 -12 40 -7 40 -6 0 -9 0 -9 -6
-16 -6 -16 -14 0 -13 0 -11 -40 -11 -40 -9 0 -10 0 0 -19 0 -19 16 -6 16 -6
29 0 29 0 0 -19 0 -19 6 -16 6 -16 28 0 28 0 16 6 16 6 0 24 0 24 28 0 27 0
14 9 14 9 -7 41 -6 40 39 11 40 10 6 19 5 18 -6 17 -7 18 -23 -5 -22 -4 -11
24 -11 24 0 31 0 30 -22 -6 -23 -7 -32 -6 -33 -6 0 -14 0 -14 -16 -6 -16 -6
-9 14 -9 14 0 23 0 22 -22 -1 -23 -2 -26 -4z"/>
</g>
</svg>
