<?xml version="1.0" standalone="no"?>
<!DOCTYPE svg PUBLIC "-//W3C//DTD SVG 20010904//EN"
 "http://www.w3.org/TR/2001/REC-SVG-20010904/DTD/svg10.dtd">
<svg version="1.0" xmlns="http://www.w3.org/2000/svg"
 width="34.000000pt" height="30.000000pt" viewBox="0 0 34.000000 30.000000"
 preserveAspectRatio="xMidYMid meet">
<metadata>
Created by potrace 1.16, written by Peter Selinger 2001-2019
</metadata>
<g transform="translate(0.000000,30.000000) scale(0.100000,-0.100000)"
fill="#000000" stroke="none">
<path d="M0 245 l0 -55 23 0 22 0 14 -9 13 -9 -7 -21 -6 -21 -19 0 -19 0 -5
-17 -5 -18 -6 -42 -7 -43 40 0 40 0 16 6 16 6 0 29 0 29 20 0 19 0 11 -40 11
-40 30 0 30 0 20 10 19 11 0 54 0 54 35 7 35 6 0 24 0 24 -24 0 -25 0 -15 16
-16 15 0 36 0 35 -42 -7 -43 -7 -22 -25 -22 -25 -19 6 -19 6 5 30 4 30 -51 0
-51 0 0 -55z"/>
</g>
</svg>
