<?xml version="1.0" standalone="no"?>
<!DOCTYPE svg PUBLIC "-//W3C//DTD SVG 20010904//EN"
 "http://www.w3.org/TR/2001/REC-SVG-20010904/DTD/svg10.dtd">
<svg version="1.0" xmlns="http://www.w3.org/2000/svg"
 width="33.000000pt" height="34.000000pt" viewBox="0 0 33.000000 34.000000"
 preserveAspectRatio="xMidYMid meet">
<metadata>
Created by potrace 1.16, written by Peter Selinger 2001-2019
</metadata>
<g transform="translate(0.000000,34.000000) scale(0.100000,-0.100000)"
fill="#000000" stroke="none">
<path d="M37 333 l-27 -4 0 -12 0 -12 -6 -21 -6 -21 41 -7 41 -6 0 -19 0 -19
-6 -16 -6 -16 -14 0 -13 0 -11 -39 -10 -39 -13 -5 -12 -5 15 -11 15 -11 38 0
38 0 -6 -19 -5 -18 6 -17 6 -16 18 0 18 0 16 6 16 6 0 24 0 24 28 0 27 0 13 9
13 8 -6 36 -7 36 15 16 16 15 14 -6 14 -5 16 16 16 16 -5 14 -6 15 -22 -6 -22
-5 -12 26 -12 26 0 28 0 27 -43 -10 -44 -10 -9 -20 -9 -20 -11 -3 -12 -4 -16
16 -16 16 0 25 0 24 -12 -1 -13 -2 -28 -4z"/>
</g>
</svg>
