<?xml version="1.0" standalone="no"?>
<!DOCTYPE svg PUBLIC "-//W3C//DTD SVG 20010904//EN"
 "http://www.w3.org/TR/2001/REC-SVG-20010904/DTD/svg10.dtd">
<svg version="1.0" xmlns="http://www.w3.org/2000/svg"
 width="28.000000pt" height="34.000000pt" viewBox="0 0 28.000000 34.000000"
 preserveAspectRatio="xMidYMid meet">
<metadata>
Created by potrace 1.16, written by Peter Selinger 2001-2019
</metadata>
<g transform="translate(0.000000,34.000000) scale(0.100000,-0.100000)"
fill="#000000" stroke="none">
<path d="M244 332 l7 -11 -36 -7 -35 -6 0 -13 0 -13 -24 -6 -24 -6 -16 6 -15
6 -3 21 -3 22 -42 3 -43 3 0 -40 0 -41 19 0 20 0 15 -16 16 -15 0 -14 0 -13
-19 -5 -20 -5 -10 -40 -11 -40 -13 -5 -12 -4 7 -7 6 -8 41 -5 41 -6 0 -17 0
-18 6 -16 6 -16 18 0 18 0 16 6 16 6 0 24 0 24 26 0 25 0 22 11 22 12 7 11 8
11 0 42 0 43 -40 6 -40 7 0 13 0 14 26 0 25 0 16 16 16 16 -9 36 -9 35 -14 5
-14 5 7 -11z"/>
</g>
</svg>
