<?xml version="1.0" standalone="no"?>
<!DOCTYPE svg PUBLIC "-//W3C//DTD SVG 20010904//EN"
 "http://www.w3.org/TR/2001/REC-SVG-20010904/DTD/svg10.dtd">
<svg version="1.0" xmlns="http://www.w3.org/2000/svg"
 width="30.000000pt" height="36.000000pt" viewBox="0 0 30.000000 36.000000"
 preserveAspectRatio="xMidYMid meet">
<metadata>
Created by potrace 1.16, written by Peter Selinger 2001-2019
</metadata>
<g transform="translate(0.000000,36.000000) scale(0.100000,-0.100000)"
fill="#000000" stroke="none">
<path d="M232 345 l-13 -15 -19 0 -20 0 0 -14 0 -14 -19 -5 -19 -5 -10 7 -10
6 -3 20 -4 20 -53 3 -52 3 0 -50 0 -51 19 0 20 0 16 -17 17 -17 -20 -7 -21 -8
-11 -40 -11 -41 -9 0 -10 0 0 -19 0 -19 23 -6 22 -6 23 0 22 0 0 -19 0 -19 6
-16 6 -16 28 0 28 0 16 6 16 6 0 24 0 24 26 0 25 0 22 11 22 12 7 11 8 11 0
52 0 52 -42 9 -43 10 28 1 28 1 15 14 14 15 0 25 0 25 -10 25 -10 26 -17 0
-18 -1 -13 -14z"/>
</g>
</svg>
