<?xml version="1.0" standalone="no"?>
<!DOCTYPE svg PUBLIC "-//W3C//DTD SVG 20010904//EN"
 "http://www.w3.org/TR/2001/REC-SVG-20010904/DTD/svg10.dtd">
<svg version="1.0" xmlns="http://www.w3.org/2000/svg"
 width="41.000000pt" height="29.000000pt" viewBox="0 0 41.000000 29.000000"
 preserveAspectRatio="xMidYMid meet">
<metadata>
Created by potrace 1.16, written by Peter Selinger 2001-2019
</metadata>
<g transform="translate(0.000000,29.000000) scale(0.100000,-0.100000)"
fill="#000000" stroke="none">
<path d="M64 250 l1 -41 -14 -8 -13 -9 -19 5 -19 5 0 -30 0 -30 6 -16 6 -16
12 0 12 0 15 -47 15 -48 44 -7 45 -8 23 5 22 5 1 38 2 37 4 -25 5 -24 16 -13
17 -12 48 -1 47 0 0 44 0 44 6 16 6 16 30 0 29 0 -3 28 -3 27 -20 1 -20 2 -18
1 -19 1 7 50 7 50 -20 0 -19 0 -32 -6 -31 -6 0 -19 0 -18 -19 -6 -18 -5 -17 6
-16 6 0 24 0 24 -54 0 -53 0 1 -40z"/>
</g>
</svg>
