<?xml version="1.0" standalone="no"?>
<!DOCTYPE svg PUBLIC "-//W3C//DTD SVG 20010904//EN"
 "http://www.w3.org/TR/2001/REC-SVG-20010904/DTD/svg10.dtd">
<svg version="1.0" xmlns="http://www.w3.org/2000/svg"
 width="35.000000pt" height="33.000000pt" viewBox="0 0 35.000000 33.000000"
 preserveAspectRatio="xMidYMid meet">
<metadata>
Created by potrace 1.16, written by Peter Selinger 2001-2019
</metadata>
<g transform="translate(0.000000,33.000000) scale(0.100000,-0.100000)"
fill="#000000" stroke="none">
<path d="M0 289 l0 -38 16 -15 15 -16 25 0 24 0 0 -14 0 -14 -35 -6 -35 -7 0
-54 0 -55 10 -1 10 -1 10 -3 10 -2 29 -2 29 -1 6 -30 6 -30 34 0 35 0 3 22 3
22 34 7 34 7 8 14 8 13 -6 39 -6 38 22 -7 21 -6 15 14 14 15 7 26 6 26 -31 6
-31 7 0 38 0 39 -16 0 -15 0 -43 -11 -44 -11 5 -19 5 -19 -15 0 -15 0 -4 -11
-4 -12 -22 7 -22 7 0 34 0 34 -19 6 -18 6 -32 -3 -31 -2 0 -37z"/>
</g>
</svg>
