<?xml version="1.0" standalone="no"?>
<!DOCTYPE svg PUBLIC "-//W3C//DTD SVG 20010904//EN"
 "http://www.w3.org/TR/2001/REC-SVG-20010904/DTD/svg10.dtd">
<svg version="1.0" xmlns="http://www.w3.org/2000/svg"
 width="28.000000pt" height="29.000000pt" viewBox="0 0 28.000000 29.000000"
 preserveAspectRatio="xMidYMid meet">
<metadata>
Created by potrace 1.16, written by Peter Selinger 2001-2019
</metadata>
<g transform="translate(0.000000,29.000000) scale(0.100000,-0.100000)"
fill="#000000" stroke="none">
<path d="M4 259 l6 -31 0 -28 0 -27 40 -7 40 -6 0 -18 0 -17 -9 -14 -9 -14
-37 7 -38 7 6 -38 7 -38 0 -17 0 -18 135 0 135 0 0 56 0 56 -20 -5 -20 -5 -15
15 -15 14 0 15 0 14 15 0 15 0 0 9 0 9 20 -5 20 -5 0 51 0 51 -50 0 -50 0 0
-21 0 -20 -14 -15 -15 -14 -9 0 -10 0 -6 16 -6 16 0 19 0 19 -45 0 -45 0 0 10
0 10 -16 0 -17 0 7 -31z"/>
</g>
</svg>
