<?xml version="1.0" standalone="no"?>
<!DOCTYPE svg PUBLIC "-//W3C//DTD SVG 20010904//EN"
 "http://www.w3.org/TR/2001/REC-SVG-20010904/DTD/svg10.dtd">
<svg version="1.0" xmlns="http://www.w3.org/2000/svg"
 width="26.000000pt" height="27.000000pt" viewBox="0 0 26.000000 27.000000"
 preserveAspectRatio="xMidYMid meet">
<metadata>
Created by potrace 1.16, written by Peter Selinger 2001-2019
</metadata>
<g transform="translate(0.000000,27.000000) scale(0.100000,-0.100000)"
fill="#000000" stroke="none">
<path d="M10 211 l0 -38 40 -7 40 -6 0 -28 0 -27 -9 -14 -9 -13 -37 4 -36 4 5
-20 6 -21 0 -22 0 -23 125 0 125 0 0 44 0 44 -19 -5 -18 -5 -17 17 -16 16 0
25 0 24 15 0 15 0 0 11 0 11 20 -5 20 -5 0 39 0 39 -40 0 -40 0 0 -21 0 -20
-14 -15 -15 -14 -19 0 -20 0 -6 16 -6 16 0 19 0 19 -45 0 -45 0 0 -39z"/>
</g>
</svg>
