<?xml version="1.0" standalone="no"?>
<!DOCTYPE svg PUBLIC "-//W3C//DTD SVG 20010904//EN"
 "http://www.w3.org/TR/2001/REC-SVG-20010904/DTD/svg10.dtd">
<svg version="1.0" xmlns="http://www.w3.org/2000/svg"
 width="39.000000pt" height="27.000000pt" viewBox="0 0 39.000000 27.000000"
 preserveAspectRatio="xMidYMid meet">
<metadata>
Created by potrace 1.16, written by Peter Selinger 2001-2019
</metadata>
<g transform="translate(0.000000,27.000000) scale(0.100000,-0.100000)"
fill="#000000" stroke="none">
<path d="M64 229 l0 -40 -15 -10 -14 -9 -17 4 -18 4 0 -18 0 -18 6 -16 6 -16
12 0 12 0 15 -47 15 -48 39 -7 40 -7 18 5 17 5 0 29 0 28 6 16 6 16 9 -6 9 -5
0 -26 0 -26 18 -13 17 -13 38 -1 37 0 0 44 0 44 6 16 6 16 30 0 29 0 -3 17 -3
18 -20 1 -20 1 -19 1 -19 2 6 51 6 51 -31 -6 -30 -6 -9 0 -9 0 0 -20 0 -20
-24 -6 -25 -6 -20 7 -21 6 0 25 0 24 -42 0 -43 0 -1 -41z"/>
</g>
</svg>
