<?xml version="1.0" standalone="no"?>
<!DOCTYPE svg PUBLIC "-//W3C//DTD SVG 20010904//EN"
 "http://www.w3.org/TR/2001/REC-SVG-20010904/DTD/svg10.dtd">
<svg version="1.0" xmlns="http://www.w3.org/2000/svg"
 width="34.000000pt" height="28.000000pt" viewBox="0 0 34.000000 28.000000"
 preserveAspectRatio="xMidYMid meet">
<metadata>
Created by potrace 1.16, written by Peter Selinger 2001-2019
</metadata>
<g transform="translate(0.000000,28.000000) scale(0.100000,-0.100000)"
fill="#000000" stroke="none">
<path d="M20 239 l0 -40 11 6 10 7 30 -12 29 -12 0 -23 0 -23 -33 -11 -34 -12
-18 7 -18 7 6 -39 7 -39 0 -22 0 -23 54 0 54 0 6 16 6 16 0 22 0 23 6 6 7 6
19 -10 20 -11 -6 -24 -7 -25 15 -14 14 -14 36 6 36 6 -6 49 -7 50 14 9 14 9
21 0 22 0 6 16 6 16 0 8 0 8 -27 7 -28 7 -7 11 -8 12 0 28 0 27 -45 0 -45 0 6
-25 6 -25 -15 0 -15 0 -4 -11 -4 -12 -23 8 -23 7 5 34 6 34 -50 0 -49 0 0 -41z"/>
</g>
</svg>
