<?xml version="1.0" standalone="no"?>
<!DOCTYPE svg PUBLIC "-//W3C//DTD SVG 20010904//EN"
 "http://www.w3.org/TR/2001/REC-SVG-20010904/DTD/svg10.dtd">
<svg version="1.0" xmlns="http://www.w3.org/2000/svg"
 width="36.000000pt" height="30.000000pt" viewBox="0 0 36.000000 30.000000"
 preserveAspectRatio="xMidYMid meet">
<metadata>
Created by potrace 1.16, written by Peter Selinger 2001-2019
</metadata>
<g transform="translate(0.000000,30.000000) scale(0.100000,-0.100000)"
fill="#000000" stroke="none">
<path d="M20 249 l0 -50 18 2 17 3 23 -8 22 -7 0 -14 0 -14 -23 -7 -22 -7 -27
1 -28 2 0 -17 0 -18 6 -53 7 -52 62 0 63 0 6 16 6 16 0 25 0 25 13 -5 12 -4
-3 -26 -3 -27 15 -16 16 -15 46 7 46 7 -6 50 -7 50 13 8 13 9 21 0 22 0 6 16
6 16 0 18 0 18 -27 7 -28 7 -7 11 -8 12 0 28 0 27 -56 0 -56 0 4 -25 5 -25
-13 0 -14 0 0 -10 0 -9 -15 5 -15 6 6 34 6 34 -61 0 -61 0 0 -51z"/>
</g>
</svg>
