<?xml version="1.0" standalone="no"?>
<!DOCTYPE svg PUBLIC "-//W3C//DTD SVG 20010904//EN"
 "http://www.w3.org/TR/2001/REC-SVG-20010904/DTD/svg10.dtd">
<svg version="1.0" xmlns="http://www.w3.org/2000/svg"
 width="38.000000pt" height="36.000000pt" viewBox="0 0 38.000000 36.000000"
 preserveAspectRatio="xMidYMid meet">
<metadata>
Created by potrace 1.16, written by Peter Selinger 2001-2019
</metadata>
<g transform="translate(0.000000,36.000000) scale(0.100000,-0.100000)"
fill="#000000" stroke="none">
<path d="M0 345 l0 -15 9 0 10 0 3 -42 3 -43 20 -1 20 -2 18 -1 17 -1 0 -15 0
-15 -23 -5 -22 -6 -13 -39 -12 -40 0 -26 0 -27 40 6 40 5 0 -33 0 -33 16 -6
16 -6 23 0 23 0 16 6 16 6 0 18 0 18 32 7 32 7 14 14 13 14 -7 45 -6 45 25 0
25 0 16 6 16 6 0 32 0 31 -9 14 -9 14 -25 -7 -26 -6 -3 42 -3 43 -20 -2 -20
-2 -35 -8 -35 -9 -3 -22 -3 -22 -25 0 -25 0 -5 29 -6 29 -45 6 -46 6 -18 0
-19 0 0 -15z"/>
</g>
</svg>
