<?xml version="1.0" standalone="no"?>
<!DOCTYPE svg PUBLIC "-//W3C//DTD SVG 20010904//EN"
 "http://www.w3.org/TR/2001/REC-SVG-20010904/DTD/svg10.dtd">
<svg version="1.0" xmlns="http://www.w3.org/2000/svg"
 width="40.000000pt" height="35.000000pt" viewBox="0 0 40.000000 35.000000"
 preserveAspectRatio="xMidYMid meet">
<metadata>
Created by potrace 1.16, written by Peter Selinger 2001-2019
</metadata>
<g transform="translate(0.000000,35.000000) scale(0.100000,-0.100000)"
fill="#000000" stroke="none">
<path d="M70 308 l0 -43 -9 -13 -8 -13 -26 7 -27 6 0 -31 0 -31 25 6 24 6 7
-29 8 -28 0 -33 1 -33 20 2 20 1 24 -1 23 -1 -6 -25 -7 -26 15 -14 15 -15 14
0 15 0 16 6 16 6 0 19 0 20 13 3 12 4 28 6 27 6 0 30 0 29 -11 25 -12 25 15
14 14 15 39 -2 39 -1 4 18 3 17 -24 0 -25 0 -16 6 -16 6 0 47 0 47 -40 -4 -40
-4 6 -9 5 -9 -6 -19 -6 -19 -15 -6 -16 -6 -24 6 -25 6 6 28 6 27 -23 7 -23 6
-27 0 -28 0 0 -42z"/>
</g>
</svg>
