<?xml version="1.0" standalone="no"?>
<!DOCTYPE svg PUBLIC "-//W3C//DTD SVG 20010904//EN"
 "http://www.w3.org/TR/2001/REC-SVG-20010904/DTD/svg10.dtd">
<svg version="1.0" xmlns="http://www.w3.org/2000/svg"
 width="36.000000pt" height="38.000000pt" viewBox="0 0 36.000000 38.000000"
 preserveAspectRatio="xMidYMid meet">
<metadata>
Created by potrace 1.16, written by Peter Selinger 2001-2019
</metadata>
<g transform="translate(0.000000,38.000000) scale(0.100000,-0.100000)"
fill="#000000" stroke="none">
<path d="M16 364 l-6 -16 0 -33 0 -34 12 -26 11 -25 24 0 23 0 0 -10 0 -10
-26 0 -25 0 -15 -14 -14 -15 0 -25 0 -25 12 -26 11 -25 49 0 48 0 0 -34 0 -35
20 -6 20 -6 31 6 30 7 6 28 5 29 39 6 38 7 -6 46 -5 47 31 12 31 11 0 37 0 37
-18 -4 -18 -5 -12 13 -12 13 0 41 0 40 -7 0 -8 0 -45 -14 -45 -13 -3 -26 -3
-25 -14 -6 -13 -5 -22 19 -21 18 7 28 7 27 -37 -6 -36 -6 0 10 0 9 -19 0 -19
0 -6 -16z"/>
</g>
</svg>
