<?xml version="1.0" standalone="no"?>
<!DOCTYPE svg PUBLIC "-//W3C//DTD SVG 20010904//EN"
 "http://www.w3.org/TR/2001/REC-SVG-20010904/DTD/svg10.dtd">
<svg version="1.0" xmlns="http://www.w3.org/2000/svg"
 width="35.000000pt" height="30.000000pt" viewBox="0 0 35.000000 30.000000"
 preserveAspectRatio="xMidYMid meet">
<metadata>
Created by potrace 1.16, written by Peter Selinger 2001-2019
</metadata>
<g transform="translate(0.000000,30.000000) scale(0.100000,-0.100000)"
fill="#000000" stroke="none">
<path d="M7 293 l-7 -6 0 -44 0 -43 29 0 30 0 14 -15 15 -15 -5 -20 -5 -20
-22 -6 -22 -5 -13 -46 -14 -45 14 -9 14 -9 32 0 32 0 15 16 16 15 0 24 0 24
14 -5 15 -6 3 -30 3 -31 16 -10 16 -10 45 12 45 13 17 34 16 35 0 14 0 15 15
0 15 0 0 33 0 32 -8 12 -7 11 -28 7 -27 7 6 39 7 39 -140 0 -140 0 -6 -7z"/>
</g>
</svg>
