<?xml version="1.0" standalone="no"?>
<!DOCTYPE svg PUBLIC "-//W3C//DTD SVG 20010904//EN"
 "http://www.w3.org/TR/2001/REC-SVG-20010904/DTD/svg10.dtd">
<svg version="1.0" xmlns="http://www.w3.org/2000/svg"
 width="36.000000pt" height="39.000000pt" viewBox="0 0 36.000000 39.000000"
 preserveAspectRatio="xMidYMid meet">
<metadata>
Created by potrace 1.16, written by Peter Selinger 2001-2019
</metadata>
<g transform="translate(0.000000,39.000000) scale(0.100000,-0.100000)"
fill="#000000" stroke="none">
<path d="M13 383 l-13 -5 0 -14 0 -14 10 0 10 0 0 -44 0 -43 30 -6 30 -6 -6
-16 -6 -15 -29 0 -29 0 0 -27 0 -28 6 -38 7 -37 32 0 33 0 5 -29 6 -29 16 -16
16 -16 24 0 24 0 16 16 16 16 6 29 6 29 33 0 34 0 0 13 0 12 -9 30 -8 30 11
11 11 11 12 -4 12 -4 20 11 21 11 0 34 0 35 -25 0 -25 0 0 10 0 10 -15 0 -16
0 7 37 7 36 -24 -6 -24 -7 -28 0 -28 0 2 -17 1 -18 -1 -12 -1 -12 -19 -6 -18
-5 -17 6 -16 6 6 34 6 34 -41 0 -41 0 0 10 0 10 -12 -1 -13 -1 -12 -5z"/>
</g>
</svg>
