<?xml version="1.0" standalone="no"?>
<!DOCTYPE svg PUBLIC "-//W3C//DTD SVG 20010904//EN"
 "http://www.w3.org/TR/2001/REC-SVG-20010904/DTD/svg10.dtd">
<svg version="1.0" xmlns="http://www.w3.org/2000/svg"
 width="37.000000pt" height="34.000000pt" viewBox="0 0 37.000000 34.000000"
 preserveAspectRatio="xMidYMid meet">
<metadata>
Created by potrace 1.16, written by Peter Selinger 2001-2019
</metadata>
<g transform="translate(0.000000,34.000000) scale(0.100000,-0.100000)"
fill="#000000" stroke="none">
<path d="M108 323 l-28 -4 0 -39 0 -39 -16 -16 -17 -16 -23 5 -24 6 0 -14 0
-14 29 -7 29 -6 6 -31 6 -30 0 -29 0 -29 55 0 54 0 -5 -15 -6 -14 15 -16 16
-15 6 0 6 0 16 15 15 16 -5 26 -5 25 39 -5 39 -5 18 5 18 4 12 33 12 33 -6 16
-5 15 -36 0 -36 0 -8 14 -9 13 3 14 2 15 29 7 29 8 8 13 9 13 0 24 0 23 -14
-5 -15 -6 -34 -6 -35 -7 5 -18 5 -19 -25 -6 -26 -7 -20 7 -21 6 0 35 0 34 -17
-1 -18 -2 -27 -4z"/>
</g>
</svg>
