<?xml version="1.0" standalone="no"?>
<!DOCTYPE svg PUBLIC "-//W3C//DTD SVG 20010904//EN"
 "http://www.w3.org/TR/2001/REC-SVG-20010904/DTD/svg10.dtd">
<svg version="1.0" xmlns="http://www.w3.org/2000/svg"
 width="34.000000pt" height="36.000000pt" viewBox="0 0 34.000000 36.000000"
 preserveAspectRatio="xMidYMid meet">
<metadata>
Created by potrace 1.16, written by Peter Selinger 2001-2019
</metadata>
<g transform="translate(0.000000,36.000000) scale(0.100000,-0.100000)"
fill="#000000" stroke="none">
<path d="M16 344 l-6 -16 0 -23 0 -24 12 -26 12 -26 22 5 22 6 6 -15 5 -14
-16 -16 -16 -16 -14 5 -14 6 -15 -14 -14 -15 0 -15 0 -15 12 -26 11 -25 49 0
48 0 0 -34 0 -34 16 -6 16 -6 23 6 24 6 6 19 6 19 -5 9 -6 9 43 6 42 6 -3 48
-4 47 31 12 31 11 0 26 0 25 -15 -5 -14 -6 -16 15 -15 16 0 39 0 40 -42 -13
-43 -12 -4 -24 -3 -24 -12 -7 -11 -8 -11 0 -11 0 -23 20 -22 19 4 26 5 25 -40
-7 -40 -6 7 11 7 12 -9 0 -10 0 -6 -16z"/>
</g>
</svg>
