<?xml version="1.0" standalone="no"?>
<!DOCTYPE svg PUBLIC "-//W3C//DTD SVG 20010904//EN"
 "http://www.w3.org/TR/2001/REC-SVG-20010904/DTD/svg10.dtd">
<svg version="1.0" xmlns="http://www.w3.org/2000/svg"
 width="42.000000pt" height="37.000000pt" viewBox="0 0 42.000000 37.000000"
 preserveAspectRatio="xMidYMid meet">
<metadata>
Created by potrace 1.16, written by Peter Selinger 2001-2019
</metadata>
<g transform="translate(0.000000,37.000000) scale(0.100000,-0.100000)"
fill="#000000" stroke="none">
<path d="M70 331 l0 -39 -5 -14 -6 -14 -29 4 -30 4 0 -42 0 -42 25 4 25 5 6
-21 7 -20 0 -38 0 -38 42 0 42 0 -4 -25 -5 -24 15 -16 16 -15 24 0 25 0 16 6
16 6 0 19 0 20 13 3 12 4 28 6 27 6 0 41 0 40 -9 17 -9 17 12 10 11 10 40 0
40 0 3 28 3 27 -25 0 -24 0 -16 6 -16 6 0 50 0 50 -22 -6 -23 -6 -29 0 -28 0
5 -20 5 -20 -14 -14 -14 -14 -18 5 -18 4 4 28 4 28 -24 6 -23 7 -37 0 -38 0 0
-39z"/>
</g>
</svg>
