<?xml version="1.0" standalone="no"?>
<!DOCTYPE svg PUBLIC "-//W3C//DTD SVG 20010904//EN"
 "http://www.w3.org/TR/2001/REC-SVG-20010904/DTD/svg10.dtd">
<svg version="1.0" xmlns="http://www.w3.org/2000/svg"
 width="34.000000pt" height="37.000000pt" viewBox="0 0 34.000000 37.000000"
 preserveAspectRatio="xMidYMid meet">
<metadata>
Created by potrace 1.16, written by Peter Selinger 2001-2019
</metadata>
<g transform="translate(0.000000,37.000000) scale(0.100000,-0.100000)"
fill="#000000" stroke="none">
<path d="M20 305 l0 -45 18 0 17 0 14 -9 13 -9 -7 -21 -6 -21 -30 0 -29 0 0
-17 0 -18 6 -38 7 -37 39 0 39 0 -6 -11 -7 -10 12 -29 12 -29 15 -6 16 -5 17
5 18 6 12 29 12 29 -7 10 -6 11 41 0 41 0 -5 20 -6 20 -6 20 -5 20 15 16 16
16 13 -5 12 -4 18 9 17 9 0 24 0 25 -25 0 -25 0 0 10 0 10 -16 0 -17 0 6 33 5
32 -38 -3 -38 -4 5 -17 5 -18 -17 -17 -16 -16 -22 0 -22 0 -14 9 -14 9 6 31 7
31 -45 0 -45 0 0 -45z"/>
</g>
</svg>
