<?xml version="1.0" standalone="no"?>
<!DOCTYPE svg PUBLIC "-//W3C//DTD SVG 20010904//EN"
 "http://www.w3.org/TR/2001/REC-SVG-20010904/DTD/svg10.dtd">
<svg version="1.0" xmlns="http://www.w3.org/2000/svg"
 width="39.000000pt" height="36.000000pt" viewBox="0 0 39.000000 36.000000"
 preserveAspectRatio="xMidYMid meet">
<metadata>
Created by potrace 1.16, written by Peter Selinger 2001-2019
</metadata>
<g transform="translate(0.000000,36.000000) scale(0.100000,-0.100000)"
fill="#000000" stroke="none">
<path d="M80 311 l0 -50 -14 -14 -15 -14 -25 4 -26 5 0 -25 0 -25 29 -7 29 -6
6 -31 6 -31 0 -28 0 -29 50 0 50 0 0 -16 0 -15 14 -15 15 -14 16 0 16 0 15 14
14 15 0 26 0 27 26 -6 27 -7 27 6 27 6 13 38 12 38 -7 22 -6 21 -39 0 -38 0
-5 14 -6 14 6 6 6 6 18 0 18 0 15 16 16 15 0 35 0 34 -9 0 -9 0 -52 -12 -51
-12 4 -18 5 -17 -18 -6 -17 -5 -17 6 -16 6 0 35 0 36 -40 -6 -40 -5 0 9 0 9
-15 0 -15 0 0 -49z"/>
</g>
</svg>
