<?xml version="1.0" standalone="no"?>
<!DOCTYPE svg PUBLIC "-//W3C//DTD SVG 20010904//EN"
 "http://www.w3.org/TR/2001/REC-SVG-20010904/DTD/svg10.dtd">
<svg version="1.0" xmlns="http://www.w3.org/2000/svg"
 width="33.000000pt" height="28.000000pt" viewBox="0 0 33.000000 28.000000"
 preserveAspectRatio="xMidYMid meet">
<metadata>
Created by potrace 1.16, written by Peter Selinger 2001-2019
</metadata>
<g transform="translate(0.000000,28.000000) scale(0.100000,-0.100000)"
fill="#000000" stroke="none">
<path d="M7 273 l-7 -6 0 -34 0 -33 29 0 30 0 16 -16 16 -17 -6 -26 -7 -26
-11 -7 -12 -8 -10 0 -10 0 -12 -37 -12 -38 12 -7 12 -8 22 0 22 0 16 16 17 17
-5 18 -5 19 9 6 9 5 20 -6 20 -6 0 -28 0 -29 14 -11 15 -12 39 12 39 11 17 35
16 34 0 14 0 15 15 0 15 0 0 23 0 22 -8 12 -7 11 -29 8 -28 7 6 38 6 39 -128
0 -129 0 -6 -7z"/>
</g>
</svg>
