<?xml version="1.0" standalone="no"?>
<!DOCTYPE svg PUBLIC "-//W3C//DTD SVG 20010904//EN"
 "http://www.w3.org/TR/2001/REC-SVG-20010904/DTD/svg10.dtd">
<svg version="1.0" xmlns="http://www.w3.org/2000/svg"
 width="36.000000pt" height="34.000000pt" viewBox="0 0 36.000000 34.000000"
 preserveAspectRatio="xMidYMid meet">
<metadata>
Created by potrace 1.16, written by Peter Selinger 2001-2019
</metadata>
<g transform="translate(0.000000,34.000000) scale(0.100000,-0.100000)"
fill="#000000" stroke="none">
<path d="M29 329 l-10 -6 3 -39 3 -39 20 -1 20 -1 18 -1 17 -2 0 -25 0 -25
-23 -5 -22 -6 -13 -39 -12 -40 0 -16 0 -16 40 7 40 7 0 -36 0 -36 24 -6 25 -6
21 7 22 7 -5 18 -5 18 36 7 35 6 12 13 13 13 -5 46 -6 47 26 0 25 0 16 6 16 6
0 18 0 18 -6 16 -6 15 -28 -6 -29 -5 -3 43 -3 44 -15 -4 -15 -4 -30 -6 -30 -7
-3 -22 -3 -22 -35 0 -34 0 -6 29 -6 29 -34 4 -34 4 -11 -7z"/>
</g>
</svg>
