<?xml version="1.0" standalone="no"?>
<!DOCTYPE svg PUBLIC "-//W3C//DTD SVG 20010904//EN"
 "http://www.w3.org/TR/2001/REC-SVG-20010904/DTD/svg10.dtd">
<svg version="1.0" xmlns="http://www.w3.org/2000/svg"
 width="34.000000pt" height="34.000000pt" viewBox="0 0 34.000000 34.000000"
 preserveAspectRatio="xMidYMid meet">
<metadata>
Created by potrace 1.16, written by Peter Selinger 2001-2019
</metadata>
<g transform="translate(0.000000,34.000000) scale(0.100000,-0.100000)"
fill="#000000" stroke="none">
<path d="M12 288 l3 -52 37 -9 38 -9 -15 -14 -14 -14 -28 0 -29 0 0 -65 0 -65
43 0 43 0 0 -24 0 -24 16 -6 16 -6 23 0 23 0 16 6 16 6 0 18 0 19 45 7 46 6
-2 17 -1 16 1 31 1 32 25 6 25 6 0 39 0 39 -36 7 -36 6 6 41 7 41 -38 -7 -38
-6 -14 0 -13 0 5 -19 5 -19 -7 -10 -6 -10 -15 -2 -15 -2 -12 1 -13 1 0 35 0
35 -56 0 -55 0 3 -52z"/>
</g>
</svg>
