<?xml version="1.0" standalone="no"?>
<!DOCTYPE svg PUBLIC "-//W3C//DTD SVG 20010904//EN"
 "http://www.w3.org/TR/2001/REC-SVG-20010904/DTD/svg10.dtd">
<svg version="1.0" xmlns="http://www.w3.org/2000/svg"
 width="32.000000pt" height="32.000000pt" viewBox="0 0 32.000000 32.000000"
 preserveAspectRatio="xMidYMid meet">
<metadata>
Created by potrace 1.16, written by Peter Selinger 2001-2019
</metadata>
<g transform="translate(0.000000,32.000000) scale(0.100000,-0.100000)"
fill="#000000" stroke="none">
<path d="M12 278 l3 -42 38 -9 37 -9 0 -10 0 -9 -14 -15 -15 -14 -28 0 -28 0
0 -55 0 -55 43 0 42 0 0 -25 0 -25 24 -6 25 -6 20 7 21 6 0 19 0 19 43 6 43 7
0 16 0 17 2 31 2 32 25 6 25 6 0 29 0 29 -36 7 -36 6 4 40 4 40 -21 -5 -20 -6
-18 0 -18 0 6 -10 6 -10 -6 -19 -6 -19 -24 -6 -23 -6 -16 6 -16 6 0 34 0 34
-46 0 -45 0 3 -42z"/>
</g>
</svg>
