<?xml version="1.0" standalone="no"?>
<!DOCTYPE svg PUBLIC "-//W3C//DTD SVG 20010904//EN"
 "http://www.w3.org/TR/2001/REC-SVG-20010904/DTD/svg10.dtd">
<svg version="1.0" xmlns="http://www.w3.org/2000/svg"
 width="30.000000pt" height="43.000000pt" viewBox="0 0 30.000000 43.000000"
 preserveAspectRatio="xMidYMid meet">
<metadata>
Created by potrace 1.16, written by Peter Selinger 2001-2019
</metadata>
<g transform="translate(0.000000,43.000000) scale(0.100000,-0.100000)"
fill="#000000" stroke="none">
<path d="M103 410 l5 -20 -15 -15 -14 -15 -35 0 -34 0 0 -45 0 -45 31 0 30 0
15 -14 14 -15 0 -9 0 -10 -16 -6 -16 -6 -23 0 -23 0 -5 -42 -5 -43 -7 -22 -7
-23 44 0 45 0 -4 -25 -5 -24 16 -17 17 -16 34 6 35 7 0 14 0 15 10 0 10 0 0
20 0 20 33 0 32 0 12 8 11 7 7 46 7 46 -40 7 -40 6 -5 19 -5 19 27 7 26 7 7
11 8 12 0 43 0 42 -8 0 -7 0 -33 -9 -32 -10 -5 22 -4 22 -3 20 -3 20 -44 3
-44 3 6 -21z"/>
</g>
</svg>
