<?xml version="1.0" standalone="no"?>
<!DOCTYPE svg PUBLIC "-//W3C//DTD SVG 20010904//EN"
 "http://www.w3.org/TR/2001/REC-SVG-20010904/DTD/svg10.dtd">
<svg version="1.0" xmlns="http://www.w3.org/2000/svg"
 width="28.000000pt" height="41.000000pt" viewBox="0 0 28.000000 41.000000"
 preserveAspectRatio="xMidYMid meet">
<metadata>
Created by potrace 1.16, written by Peter Selinger 2001-2019
</metadata>
<g transform="translate(0.000000,41.000000) scale(0.100000,-0.100000)"
fill="#000000" stroke="none">
<path d="M107 392 l5 -19 -17 -17 -16 -16 -35 0 -34 0 0 -35 0 -35 31 0 30 0
15 -14 14 -15 0 -19 0 -20 -16 -6 -16 -6 -24 0 -24 0 0 -36 0 -35 -10 -20 -11
-19 47 0 46 0 -6 -25 -7 -26 15 -15 15 -15 26 7 25 6 0 14 0 14 11 0 11 0 -5
20 -5 20 36 0 37 0 11 8 11 7 7 36 6 36 -39 7 -39 6 -6 22 -6 23 0 6 0 7 27 7
28 7 7 11 8 12 0 32 0 31 -36 -10 -36 -9 -5 5 -6 6 -6 37 -6 38 -32 3 -31 3 5
-19z"/>
</g>
</svg>
