<?xml version="1.0" standalone="no"?>
<!DOCTYPE svg PUBLIC "-//W3C//DTD SVG 20010904//EN"
 "http://www.w3.org/TR/2001/REC-SVG-20010904/DTD/svg10.dtd">
<svg version="1.0" xmlns="http://www.w3.org/2000/svg"
 width="39.000000pt" height="36.000000pt" viewBox="0 0 39.000000 36.000000"
 preserveAspectRatio="xMidYMid meet">
<metadata>
Created by potrace 1.16, written by Peter Selinger 2001-2019
</metadata>
<g transform="translate(0.000000,36.000000) scale(0.100000,-0.100000)"
fill="#000000" stroke="none">
<path d="M194 345 l-6 -15 5 -20 5 -19 -20 -7 -20 -6 -45 7 -46 7 7 -41 6 -41
-26 0 -25 0 -15 -14 -14 -15 0 -39 0 -40 30 -11 30 -10 0 -19 0 -19 19 -21 18
-22 42 0 41 0 18 20 17 20 7 23 6 22 1 -27 1 -26 6 -16 6 -16 47 0 46 0 21 6
22 6 6 46 6 46 -9 9 -10 10 -38 6 -38 6 0 20 0 20 27 -3 28 -3 15 15 15 15 0
50 0 50 -28 -1 -28 -1 -35 13 -36 13 5 19 4 18 -31 0 -32 0 -5 -15z"/>
</g>
</svg>
