<?xml version="1.0" standalone="no"?>
<!DOCTYPE svg PUBLIC "-//W3C//DTD SVG 20010904//EN"
 "http://www.w3.org/TR/2001/REC-SVG-20010904/DTD/svg10.dtd">
<svg version="1.0" xmlns="http://www.w3.org/2000/svg"
 width="37.000000pt" height="34.000000pt" viewBox="0 0 37.000000 34.000000"
 preserveAspectRatio="xMidYMid meet">
<metadata>
Created by potrace 1.16, written by Peter Selinger 2001-2019
</metadata>
<g transform="translate(0.000000,34.000000) scale(0.100000,-0.100000)"
fill="#000000" stroke="none">
<path d="M195 330 l-6 -9 7 -25 6 -25 -27 -7 -26 -6 -40 5 -39 5 6 -39 7 -39
-27 0 -27 0 -15 -14 -14 -15 0 -29 0 -30 30 -11 30 -10 0 -19 0 -19 19 -21 18
-22 31 0 31 0 21 22 20 22 -2 15 -3 15 18 4 17 3 0 -24 0 -25 6 -16 6 -16 37
0 36 0 22 6 21 6 5 36 4 37 -8 9 -8 9 -38 6 -38 6 0 30 0 30 29 -2 28 -2 14
14 14 14 0 41 0 41 -10 -6 -11 -7 -55 18 -55 17 4 19 5 18 -18 0 -19 0 -6 -10z"/>
</g>
</svg>
