<?xml version="1.0" standalone="no"?>
<!DOCTYPE svg PUBLIC "-//W3C//DTD SVG 20010904//EN"
 "http://www.w3.org/TR/2001/REC-SVG-20010904/DTD/svg10.dtd">
<svg version="1.0" xmlns="http://www.w3.org/2000/svg"
 width="37.000000pt" height="41.000000pt" viewBox="0 0 37.000000 41.000000"
 preserveAspectRatio="xMidYMid meet">
<metadata>
Created by potrace 1.16, written by Peter Selinger 2001-2019
</metadata>
<g transform="translate(0.000000,41.000000) scale(0.100000,-0.100000)"
fill="#000000" stroke="none">
<path d="M130 402 l0 -9 -19 -22 -20 -23 -43 4 -43 3 -3 -38 -3 -37 16 -16 16
-16 29 6 30 6 0 -25 0 -25 -34 0 -34 0 -6 -16 -6 -16 0 -38 0 -38 22 -6 23 -6
21 0 20 0 0 -36 0 -35 15 -10 14 -9 18 0 18 0 15 14 14 15 0 13 0 14 46 13 46
14 -5 49 -6 48 23 -6 24 -6 26 27 26 26 0 14 0 14 -17 16 -16 17 -29 -4 -30
-5 6 32 6 33 -15 6 -16 6 -19 -10 -19 -10 -19 0 -20 0 -6 16 -6 16 0 24 0 24
-20 0 -20 0 0 -8z"/>
</g>
</svg>
