<?xml version="1.0" standalone="no"?>
<!DOCTYPE svg PUBLIC "-//W3C//DTD SVG 20010904//EN"
 "http://www.w3.org/TR/2001/REC-SVG-20010904/DTD/svg10.dtd">
<svg version="1.0" xmlns="http://www.w3.org/2000/svg"
 width="39.000000pt" height="43.000000pt" viewBox="0 0 39.000000 43.000000"
 preserveAspectRatio="xMidYMid meet">
<metadata>
Created by potrace 1.16, written by Peter Selinger 2001-2019
</metadata>
<g transform="translate(0.000000,43.000000) scale(0.100000,-0.100000)"
fill="#000000" stroke="none">
<path d="M130 422 l0 -9 -19 -22 -19 -22 -43 3 -44 3 -3 -48 -3 -47 15 -15 15
-15 30 0 31 0 0 -10 0 -10 -34 0 -34 0 -6 -16 -6 -16 0 -49 0 -49 39 -6 39 -6
6 -38 6 -38 16 -6 16 -6 25 0 24 0 15 14 14 15 0 13 0 14 45 13 45 13 0 44 0
44 20 0 19 0 26 25 25 26 0 24 0 24 -16 15 -15 16 -28 0 -28 0 5 29 4 29 -22
7 -21 7 -31 -13 -30 -12 -9 14 -9 14 0 28 0 27 -30 0 -30 0 0 -8z"/>
</g>
</svg>
