<?xml version="1.0" standalone="no"?>
<!DOCTYPE svg PUBLIC "-//W3C//DTD SVG 20010904//EN"
 "http://www.w3.org/TR/2001/REC-SVG-20010904/DTD/svg10.dtd">
<svg version="1.0" xmlns="http://www.w3.org/2000/svg"
 width="31.000000pt" height="44.000000pt" viewBox="0 0 31.000000 44.000000"
 preserveAspectRatio="xMidYMid meet">
<metadata>
Created by potrace 1.16, written by Peter Selinger 2001-2019
</metadata>
<g transform="translate(0.000000,44.000000) scale(0.100000,-0.100000)"
fill="#000000" stroke="none">
<path d="M110 400 l-11 -42 -50 7 -49 7 0 -52 0 -51 14 -15 15 -14 28 -1 28
-1 -20 -5 -20 -4 -23 -5 -22 -4 0 -65 0 -65 34 0 34 0 16 -6 16 -6 0 -33 0
-33 16 -6 16 -6 19 0 19 0 0 10 0 10 15 0 15 0 0 19 0 20 55 16 55 16 0 52 0
52 -9 14 -9 14 -31 -5 -31 -5 0 14 0 13 34 0 34 0 6 16 6 16 0 50 0 50 -47 -6
-48 -6 -12 7 -11 8 -4 30 -3 30 -32 3 -32 3 -11 -41z"/>
</g>
</svg>
