<?xml version="1.0" standalone="no"?>
<!DOCTYPE svg PUBLIC "-//W3C//DTD SVG 20010904//EN"
 "http://www.w3.org/TR/2001/REC-SVG-20010904/DTD/svg10.dtd">
<svg version="1.0" xmlns="http://www.w3.org/2000/svg"
 width="29.000000pt" height="42.000000pt" viewBox="0 0 29.000000 42.000000"
 preserveAspectRatio="xMidYMid meet">
<metadata>
Created by potrace 1.16, written by Peter Selinger 2001-2019
</metadata>
<g transform="translate(0.000000,42.000000) scale(0.100000,-0.100000)"
fill="#000000" stroke="none">
<path d="M110 379 l-11 -42 -50 6 -49 6 0 -40 0 -40 13 -14 14 -13 27 -4 27
-3 0 -10 0 -10 -18 -3 -18 -3 -23 -5 -22 -4 0 -55 0 -55 34 0 34 0 16 -6 16
-6 0 -33 0 -34 22 -7 22 -7 4 12 4 11 15 0 15 0 -5 19 -4 18 58 17 59 16 0 43
0 42 -9 14 -9 13 -31 -7 -31 -7 0 26 0 26 34 0 34 0 6 16 6 16 0 39 0 40 -35
-7 -35 -6 -24 6 -25 6 -3 33 -3 32 -22 3 -22 3 -11 -42z"/>
</g>
</svg>
