<?xml version="1.0" standalone="no"?>
<!DOCTYPE svg PUBLIC "-//W3C//DTD SVG 20010904//EN"
 "http://www.w3.org/TR/2001/REC-SVG-20010904/DTD/svg10.dtd">
<svg version="1.0" xmlns="http://www.w3.org/2000/svg"
 width="29.000000pt" height="37.000000pt" viewBox="0 0 29.000000 37.000000"
 preserveAspectRatio="xMidYMid meet">
<metadata>
Created by potrace 1.16, written by Peter Selinger 2001-2019
</metadata>
<g transform="translate(0.000000,37.000000) scale(0.100000,-0.100000)"
fill="#000000" stroke="none">
<path d="M136 354 l-6 -16 0 -28 0 -28 -12 -5 -13 -4 -52 5 -53 5 0 -34 0 -34
8 -12 7 -11 28 -7 27 -7 0 -18 0 -17 -30 -6 -30 -6 0 -40 0 -39 6 -16 6 -16
33 0 34 0 16 16 17 17 -5 19 -5 19 31 -3 32 -3 6 -38 6 -37 5 -6 6 -5 40 10
40 11 6 16 6 16 0 26 0 27 -9 14 -9 13 -21 -7 -22 -7 -14 12 -15 12 0 19 0 19
45 0 45 0 0 54 0 54 -41 -5 -40 -6 -25 13 -24 13 0 28 0 28 -9 5 -9 6 -6 -16z"/>
</g>
</svg>
