<?xml version="1.0" standalone="no"?>
<!DOCTYPE svg PUBLIC "-//W3C//DTD SVG 20010904//EN"
 "http://www.w3.org/TR/2001/REC-SVG-20010904/DTD/svg10.dtd">
<svg version="1.0" xmlns="http://www.w3.org/2000/svg"
 width="31.000000pt" height="39.000000pt" viewBox="0 0 31.000000 39.000000"
 preserveAspectRatio="xMidYMid meet">
<metadata>
Created by potrace 1.16, written by Peter Selinger 2001-2019
</metadata>
<g transform="translate(0.000000,39.000000) scale(0.100000,-0.100000)"
fill="#000000" stroke="none">
<path d="M136 375 l-6 -17 0 -29 0 -29 -12 -1 -13 -1 -53 2 -52 1 0 -43 0 -43
8 -12 7 -11 28 -7 27 -7 0 -8 0 -7 -30 -6 -30 -6 0 -50 0 -49 6 -16 6 -16 43
0 44 0 15 16 16 15 0 20 0 20 17 -3 18 -3 6 -38 6 -37 6 -6 6 -6 41 7 40 7 15
15 15 14 0 42 0 42 -9 13 -8 14 -24 -3 -24 -3 -12 7 -13 8 0 10 0 9 45 0 45 0
0 65 0 66 -47 -6 -48 -6 -17 14 -16 13 -4 29 -3 30 -16 3 -16 3 -7 -16z"/>
</g>
</svg>
