<?xml version="1.0" standalone="no"?>
<!DOCTYPE svg PUBLIC "-//W3C//DTD SVG 20010904//EN"
 "http://www.w3.org/TR/2001/REC-SVG-20010904/DTD/svg10.dtd">
<svg version="1.0" xmlns="http://www.w3.org/2000/svg"
 width="31.000000pt" height="42.000000pt" viewBox="0 0 31.000000 42.000000"
 preserveAspectRatio="xMidYMid meet">
<metadata>
Created by potrace 1.16, written by Peter Selinger 2001-2019
</metadata>
<g transform="translate(0.000000,42.000000) scale(0.100000,-0.100000)"
fill="#000000" stroke="none">
<path d="M136 404 l-6 -16 0 -24 0 -24 -26 -6 -25 -6 -40 5 -39 5 0 -40 0 -39
14 -15 15 -14 20 0 21 0 0 -24 0 -24 -19 5 -20 5 -10 -39 -11 -38 0 -17 0 -18
33 0 32 0 23 -6 23 -7 -6 -27 -6 -28 25 -6 24 -6 16 6 15 6 6 19 6 19 -5 9 -6
8 46 6 45 5 5 5 6 5 9 43 10 42 -13 8 -13 9 -25 0 -25 0 -14 9 -13 9 7 21 6
21 25 0 24 0 0 15 0 15 10 0 10 0 0 26 0 26 -55 -7 -54 -6 -6 25 -5 26 -5 25
-5 25 -9 0 -9 0 -6 -16z"/>
</g>
</svg>
