<?xml version="1.0" standalone="no"?>
<!DOCTYPE svg PUBLIC "-//W3C//DTD SVG 20010904//EN"
 "http://www.w3.org/TR/2001/REC-SVG-20010904/DTD/svg10.dtd">
<svg version="1.0" xmlns="http://www.w3.org/2000/svg"
 width="31.000000pt" height="43.000000pt" viewBox="0 0 31.000000 43.000000"
 preserveAspectRatio="xMidYMid meet">
<metadata>
Created by potrace 1.16, written by Peter Selinger 2001-2019
</metadata>
<g transform="translate(0.000000,43.000000) scale(0.100000,-0.100000)"
fill="#000000" stroke="none">
<path d="M124 415 l-6 -14 6 -10 6 -9 -15 -16 -15 -15 -50 6 -50 6 0 -66 0
-65 38 -10 37 -10 -22 -7 -22 -7 -7 -43 -6 -43 6 -20 7 -21 31 -3 32 -3 8 -32
9 -33 28 0 29 0 16 6 16 6 0 34 0 34 45 0 45 0 0 44 0 45 -16 15 -15 16 -20 0
-20 0 3 18 3 17 29 3 29 4 14 13 13 14 0 41 0 41 -15 5 -15 6 -29 -10 -29 -10
-11 11 -11 11 0 27 0 27 -16 6 -16 6 -19 0 -20 0 -5 -15z"/>
</g>
</svg>
