<?xml version="1.0" standalone="no"?>
<!DOCTYPE svg PUBLIC "-//W3C//DTD SVG 20010904//EN"
 "http://www.w3.org/TR/2001/REC-SVG-20010904/DTD/svg10.dtd">
<svg version="1.0" xmlns="http://www.w3.org/2000/svg"
 width="29.000000pt" height="41.000000pt" viewBox="0 0 29.000000 41.000000"
 preserveAspectRatio="xMidYMid meet">
<metadata>
Created by potrace 1.16, written by Peter Selinger 2001-2019
</metadata>
<g transform="translate(0.000000,41.000000) scale(0.100000,-0.100000)"
fill="#000000" stroke="none">
<path d="M129 408 l-1 -3 -2 -28 -2 -28 -14 -10 -15 -9 -47 6 -48 6 0 -55 0
-55 37 -9 36 -8 4 -12 4 -12 -24 -6 -25 -7 -7 -34 -6 -35 6 -19 6 -19 31 -3
32 -3 8 -33 9 -32 22 0 22 0 14 9 13 9 -4 35 -4 36 48 -6 48 -6 0 36 0 36 -16
15 -15 16 -20 0 -20 0 3 28 3 27 29 3 29 4 14 13 13 14 0 30 0 30 -9 5 -9 6
-31 -11 -31 -11 -15 12 -15 12 0 28 0 28 -16 6 -16 6 -9 0 -9 0 -1 -2z"/>
</g>
</svg>
