<?xml version="1.0" standalone="no"?>
<!DOCTYPE svg PUBLIC "-//W3C//DTD SVG 20010904//EN"
 "http://www.w3.org/TR/2001/REC-SVG-20010904/DTD/svg10.dtd">
<svg version="1.0" xmlns="http://www.w3.org/2000/svg"
 width="33.000000pt" height="44.000000pt" viewBox="0 0 33.000000 44.000000"
 preserveAspectRatio="xMidYMid meet">
<metadata>
Created by potrace 1.16, written by Peter Selinger 2001-2019
</metadata>
<g transform="translate(0.000000,44.000000) scale(0.100000,-0.100000)"
fill="#000000" stroke="none">
<path d="M136 424 l-6 -16 0 -23 0 -24 -21 -6 -21 -7 -44 7 -44 6 0 -51 0 -51
14 -15 15 -14 20 0 21 0 0 -10 0 -10 -20 0 -19 0 -10 -37 -11 -38 0 -27 0 -28
33 0 32 0 21 -6 20 -5 -4 -29 -4 -28 31 -7 31 -6 20 6 21 7 6 29 6 29 21 0 21
0 22 6 22 6 5 13 4 12 7 46 7 46 -26 6 -26 5 -25 5 -24 5 5 15 6 15 24 0 24 0
0 15 0 15 10 0 10 0 0 36 0 37 -55 -6 -55 -6 -6 27 -5 27 -5 23 -4 22 -19 0
-19 0 -6 -16z"/>
</g>
</svg>
