<?xml version="1.0" standalone="no"?>
<!DOCTYPE svg PUBLIC "-//W3C//DTD SVG 20010904//EN"
 "http://www.w3.org/TR/2001/REC-SVG-20010904/DTD/svg10.dtd">
<svg version="1.0" xmlns="http://www.w3.org/2000/svg"
 width="35.000000pt" height="35.000000pt" viewBox="0 0 35.000000 35.000000"
 preserveAspectRatio="xMidYMid meet">
<metadata>
Created by potrace 1.16, written by Peter Selinger 2001-2019
</metadata>
<g transform="translate(0.000000,35.000000) scale(0.100000,-0.100000)"
fill="#000000" stroke="none">
<path d="M248 325 l4 -24 -15 -16 -16 -15 -6 0 -6 0 -16 15 -15 16 6 14 5 15
-59 0 -59 0 -3 -37 -3 -37 -32 -8 -33 -9 0 -24 0 -25 15 0 15 0 0 -10 0 -10
26 0 27 0 -6 -36 -6 -36 14 -14 14 -14 40 0 41 0 0 -19 0 -19 6 -16 6 -16 20
0 19 0 15 14 14 15 0 20 0 21 39 0 39 0 6 31 6 31 0 14 0 14 -19 0 -19 0 -16
6 -16 6 0 13 0 13 -11 4 -12 4 7 22 7 21 34 7 33 6 4 41 3 42 -51 2 -51 3 5
-25z"/>
</g>
</svg>
