<?xml version="1.0" standalone="no"?>
<!DOCTYPE svg PUBLIC "-//W3C//DTD SVG 20010904//EN"
 "http://www.w3.org/TR/2001/REC-SVG-20010904/DTD/svg10.dtd">
<svg version="1.0" xmlns="http://www.w3.org/2000/svg"
 width="37.000000pt" height="37.000000pt" viewBox="0 0 37.000000 37.000000"
 preserveAspectRatio="xMidYMid meet">
<metadata>
Created by potrace 1.16, written by Peter Selinger 2001-2019
</metadata>
<g transform="translate(0.000000,37.000000) scale(0.100000,-0.100000)"
fill="#000000" stroke="none">
<path d="M244 345 l6 -25 -12 -14 -12 -13 -12 11 -11 10 5 18 4 18 -70 0 -71
0 -3 -37 -3 -37 -32 -8 -33 -9 0 -34 0 -35 15 0 15 0 0 -10 0 -10 25 0 26 0
-7 -35 -6 -34 15 -16 16 -15 40 0 41 0 0 -19 0 -19 6 -16 6 -16 30 0 29 0 15
14 14 15 0 20 0 21 39 0 39 0 6 31 6 31 0 24 0 24 -19 0 -19 0 -16 6 -16 6 0
14 0 14 -10 0 -9 0 5 15 6 14 34 7 34 6 0 32 0 31 6 21 6 22 -67 1 -67 1 6
-25z"/>
</g>
</svg>
