<?xml version="1.0" standalone="no"?>
<!DOCTYPE svg PUBLIC "-//W3C//DTD SVG 20010904//EN"
 "http://www.w3.org/TR/2001/REC-SVG-20010904/DTD/svg10.dtd">
<svg version="1.0" xmlns="http://www.w3.org/2000/svg"
 width="29.000000pt" height="38.000000pt" viewBox="0 0 29.000000 38.000000"
 preserveAspectRatio="xMidYMid meet">
<metadata>
Created by potrace 1.16, written by Peter Selinger 2001-2019
</metadata>
<g transform="translate(0.000000,38.000000) scale(0.100000,-0.100000)"
fill="#000000" stroke="none">
<path d="M5 328 l7 -53 3 -12 4 -13 28 0 28 0 15 -10 15 -10 -12 0 -13 0 0
-15 0 -15 -29 0 -28 0 -6 -45 -7 -45 6 -15 6 -15 34 0 34 0 0 -34 0 -34 16 -6
16 -6 28 0 29 0 15 16 16 15 0 20 0 19 24 0 24 0 16 6 16 6 0 19 0 19 -9 0 -9
0 -11 45 -11 45 -25 0 -25 0 0 15 0 15 28 0 28 0 12 12 12 12 0 53 0 53 -22 0
-23 0 -38 7 -38 6 7 -38 7 -37 -14 -9 -14 -9 -12 0 -12 0 -9 33 -8 32 -32 3
-32 3 0 10 0 9 -20 0 -21 0 6 -52z"/>
</g>
</svg>
