<?xml version="1.0" standalone="no"?>
<!DOCTYPE svg PUBLIC "-//W3C//DTD SVG 20010904//EN"
 "http://www.w3.org/TR/2001/REC-SVG-20010904/DTD/svg10.dtd">
<svg version="1.0" xmlns="http://www.w3.org/2000/svg"
 width="27.000000pt" height="36.000000pt" viewBox="0 0 27.000000 36.000000"
 preserveAspectRatio="xMidYMid meet">
<metadata>
Created by potrace 1.16, written by Peter Selinger 2001-2019
</metadata>
<g transform="translate(0.000000,36.000000) scale(0.100000,-0.100000)"
fill="#000000" stroke="none">
<path d="M7 318 l5 -43 4 -12 3 -13 25 0 24 0 16 -6 16 -6 0 -14 0 -14 -10 0
-10 0 0 -15 0 -15 -29 0 -29 0 -4 -37 -5 -38 5 -12 4 -13 39 0 38 0 -6 -31 -6
-31 14 -9 14 -9 22 0 22 0 16 16 17 17 -5 18 -5 19 31 0 32 0 15 10 15 10 -11
8 -12 7 -11 43 -12 42 -24 0 -25 0 0 25 0 25 18 2 17 1 10 1 10 2 13 7 12 8 0
45 0 44 -27 0 -28 0 -21 6 -20 5 4 -36 4 -37 -13 -9 -14 -9 -22 0 -22 0 -9 33
-8 32 -32 3 -32 3 0 10 0 9 -9 0 -9 0 5 -42z"/>
</g>
</svg>
