<?xml version="1.0" standalone="no"?>
<!DOCTYPE svg PUBLIC "-//W3C//DTD SVG 20010904//EN"
 "http://www.w3.org/TR/2001/REC-SVG-20010904/DTD/svg10.dtd">
<svg version="1.0" xmlns="http://www.w3.org/2000/svg"
 width="29.000000pt" height="30.000000pt" viewBox="0 0 29.000000 30.000000"
 preserveAspectRatio="xMidYMid meet">
<metadata>
Created by potrace 1.16, written by Peter Selinger 2001-2019
</metadata>
<g transform="translate(0.000000,30.000000) scale(0.100000,-0.100000)"
fill="#000000" stroke="none">
<path d="M10 244 l0 -56 25 6 25 6 14 -12 13 -12 -5 -18 -4 -18 -40 -7 -40 -6
6 -36 6 -36 0 -22 0 -23 49 0 49 0 16 6 16 6 0 29 0 29 10 0 10 0 0 -27 0 -28
9 -14 9 -14 57 8 57 7 -6 30 -6 30 0 28 0 28 -30 6 -30 6 0 20 0 21 30 6 30 6
0 53 0 54 -51 0 -50 0 2 -17 3 -18 -7 -22 -8 -21 -14 -6 -14 -5 -16 15 -15 15
-1 12 -1 12 1 18 2 17 -50 0 -51 0 0 -56z"/>
</g>
</svg>
