<?xml version="1.0" standalone="no"?>
<!DOCTYPE svg PUBLIC "-//W3C//DTD SVG 20010904//EN"
 "http://www.w3.org/TR/2001/REC-SVG-20010904/DTD/svg10.dtd">
<svg version="1.0" xmlns="http://www.w3.org/2000/svg"
 width="27.000000pt" height="28.000000pt" viewBox="0 0 27.000000 28.000000"
 preserveAspectRatio="xMidYMid meet">
<metadata>
Created by potrace 1.16, written by Peter Selinger 2001-2019
</metadata>
<g transform="translate(0.000000,28.000000) scale(0.100000,-0.100000)"
fill="#000000" stroke="none">
<path d="M10 236 l0 -43 25 4 24 5 16 -15 16 -16 -7 -26 -6 -25 -40 -6 -40 -7
6 -21 6 -21 0 -27 0 -28 39 0 39 0 16 6 16 6 0 27 0 26 10 15 10 15 10 -15 10
-15 0 -25 0 -25 9 -13 8 -14 47 7 47 7 -5 15 -6 15 0 33 0 33 -30 6 -30 6 0
30 0 30 30 7 30 6 0 43 0 44 -41 0 -40 0 6 -11 7 -10 -12 -29 -12 -29 -18 -6
-17 -5 -16 5 -15 6 -12 29 -12 29 7 10 6 11 -40 0 -41 0 0 -44z"/>
</g>
</svg>
