<?xml version="1.0" standalone="no"?>
<!DOCTYPE svg PUBLIC "-//W3C//DTD SVG 20010904//EN"
 "http://www.w3.org/TR/2001/REC-SVG-20010904/DTD/svg10.dtd">
<svg version="1.0" xmlns="http://www.w3.org/2000/svg"
 width="46.000000pt" height="39.000000pt" viewBox="0 0 46.000000 39.000000"
 preserveAspectRatio="xMidYMid meet">
<metadata>
Created by potrace 1.16, written by Peter Selinger 2001-2019
</metadata>
<g transform="translate(0.000000,39.000000) scale(0.100000,-0.100000)"
fill="#000000" stroke="none">
<path d="M263 361 l6 -29 -17 -20 -17 -19 -13 13 -12 13 0 19 0 19 -57 6 -57
6 -8 -5 -8 -5 0 -35 0 -34 -34 0 -34 0 -6 -16 -6 -16 0 -23 0 -23 6 -16 6 -16
39 0 39 0 0 -36 0 -35 14 -15 15 -14 25 0 26 0 0 -21 0 -22 22 -18 21 -19 21
0 21 0 11 8 12 7 3 24 4 24 53 15 52 15 5 23 5 24 5 25 5 25 11 0 10 0 15 14
14 15 0 20 0 21 -15 0 -15 0 0 10 0 10 -26 0 -27 0 7 39 6 40 -14 14 -15 14
-52 2 -51 1 5 -29z"/>
</g>
</svg>
