<?xml version="1.0" standalone="no"?>
<!DOCTYPE svg PUBLIC "-//W3C//DTD SVG 20010904//EN"
 "http://www.w3.org/TR/2001/REC-SVG-20010904/DTD/svg10.dtd">
<svg version="1.0" xmlns="http://www.w3.org/2000/svg"
 width="44.000000pt" height="37.000000pt" viewBox="0 0 44.000000 37.000000"
 preserveAspectRatio="xMidYMid meet">
<metadata>
Created by potrace 1.16, written by Peter Selinger 2001-2019
</metadata>
<g transform="translate(0.000000,37.000000) scale(0.100000,-0.100000)"
fill="#000000" stroke="none">
<path d="M266 342 l6 -27 -20 -23 -19 -22 -7 0 -7 0 -15 14 -14 15 0 19 0 20
-47 4 -48 5 -7 -4 -8 -4 0 -35 0 -34 -34 0 -35 0 -6 -21 -7 -20 6 -25 6 -24
40 0 40 0 0 -36 0 -35 15 -15 15 -16 29 7 28 6 -5 -26 -4 -26 22 -19 23 -20
11 0 11 0 11 8 12 7 3 24 4 24 53 15 52 15 5 23 5 24 5 25 5 25 11 0 10 0 15
14 14 15 0 10 0 11 -15 0 -15 0 0 10 0 10 -25 0 -26 0 2 45 3 45 -6 5 -6 6
-46 5 -46 4 6 -28z"/>
</g>
</svg>
