<?xml version="1.0" standalone="no"?>
<!DOCTYPE svg PUBLIC "-//W3C//DTD SVG 20010904//EN"
 "http://www.w3.org/TR/2001/REC-SVG-20010904/DTD/svg10.dtd">
<svg version="1.0" xmlns="http://www.w3.org/2000/svg"
 width="37.000000pt" height="41.000000pt" viewBox="0 0 37.000000 41.000000"
 preserveAspectRatio="xMidYMid meet">
<metadata>
Created by potrace 1.16, written by Peter Selinger 2001-2019
</metadata>
<g transform="translate(0.000000,41.000000) scale(0.100000,-0.100000)"
fill="#000000" stroke="none">
<path d="M210 378 l0 -33 -10 -15 -9 -14 -42 11 -42 11 -13 -5 -12 -4 5 -38 5
-38 -40 -6 -40 -7 -6 -16 -6 -16 0 -18 0 -19 26 -3 26 -3 13 -38 13 -38 6 -6
5 -5 44 -5 44 -5 -5 -25 -5 -25 14 -9 14 -9 30 0 30 0 14 9 14 9 -6 15 -6 15
22 6 22 6 21 0 22 0 6 16 6 16 0 38 0 38 -16 6 -16 6 -24 0 -24 0 0 25 0 25
26 0 25 0 15 14 14 15 0 41 0 41 -44 -6 -44 -7 -21 7 -21 6 3 32 2 31 -17 4
-18 3 0 -33z"/>
</g>
</svg>
