<?xml version="1.0" standalone="no"?>
<!DOCTYPE svg PUBLIC "-//W3C//DTD SVG 20010904//EN"
 "http://www.w3.org/TR/2001/REC-SVG-20010904/DTD/svg10.dtd">
<svg version="1.0" xmlns="http://www.w3.org/2000/svg"
 width="39.000000pt" height="43.000000pt" viewBox="0 0 39.000000 43.000000"
 preserveAspectRatio="xMidYMid meet">
<metadata>
Created by potrace 1.16, written by Peter Selinger 2001-2019
</metadata>
<g transform="translate(0.000000,43.000000) scale(0.100000,-0.100000)"
fill="#000000" stroke="none">
<path d="M210 398 l0 -33 -9 -14 -9 -13 -36 12 -36 11 -21 -6 -20 -7 6 -38 6
-37 -39 -7 -40 -6 -6 -16 -6 -16 0 -28 0 -29 26 -3 26 -3 13 -38 13 -38 5 -6
5 -5 41 -5 41 -6 0 -27 0 -28 16 -6 16 -6 33 0 33 0 16 6 16 6 0 18 0 18 16 6
16 6 23 0 23 0 6 16 6 16 0 48 0 48 -16 6 -16 6 -24 0 -24 0 0 15 0 15 26 0
25 0 15 14 14 15 0 51 0 52 -52 -6 -53 -6 -10 7 -10 8 0 30 0 30 -27 3 -28 3
0 -33z"/>
</g>
</svg>
