<?xml version="1.0" standalone="no"?>
<!DOCTYPE svg PUBLIC "-//W3C//DTD SVG 20010904//EN"
 "http://www.w3.org/TR/2001/REC-SVG-20010904/DTD/svg10.dtd">
<svg version="1.0" xmlns="http://www.w3.org/2000/svg"
 width="33.000000pt" height="28.000000pt" viewBox="0 0 33.000000 28.000000"
 preserveAspectRatio="xMidYMid meet">
<metadata>
Created by potrace 1.16, written by Peter Selinger 2001-2019
</metadata>
<g transform="translate(0.000000,28.000000) scale(0.100000,-0.100000)"
fill="#000000" stroke="none">
<path d="M284 272 l-42 -3 5 -20 5 -19 -11 0 -11 0 0 -14 0 -14 -25 -6 -26 -7
-15 15 -15 15 7 26 6 25 -41 0 -41 0 0 -30 0 -29 -12 -26 -11 -25 -29 0 -28 0
0 -15 0 -15 38 0 37 0 14 -9 13 -9 -5 -33 -5 -34 -4 -20 -3 -20 37 -3 37 -3
11 41 11 41 22 -3 22 -3 3 -30 4 -30 11 -7 12 -8 33 0 32 0 0 10 0 10 -12 40
-13 39 -22 6 -23 5 0 35 0 34 36 7 36 7 5 12 4 13 -3 29 -3 28 -41 -3z"/>
</g>
</svg>
