<?xml version="1.0" standalone="no"?>
<!DOCTYPE svg PUBLIC "-//W3C//DTD SVG 20010904//EN"
 "http://www.w3.org/TR/2001/REC-SVG-20010904/DTD/svg10.dtd">
<svg version="1.0" xmlns="http://www.w3.org/2000/svg"
 width="35.000000pt" height="30.000000pt" viewBox="0 0 35.000000 30.000000"
 preserveAspectRatio="xMidYMid meet">
<metadata>
Created by potrace 1.16, written by Peter Selinger 2001-2019
</metadata>
<g transform="translate(0.000000,30.000000) scale(0.100000,-0.100000)"
fill="#000000" stroke="none">
<path d="M281 293 l-43 -4 5 -20 5 -19 -9 0 -9 0 0 -14 0 -15 -17 -3 -18 -4
-11 10 -10 10 4 28 4 28 -51 0 -51 0 0 -30 0 -29 -12 -26 -11 -25 -29 0 -28 0
0 -25 0 -25 38 0 37 0 14 -9 14 -9 -7 -28 -7 -29 -2 -25 -2 -25 47 -3 47 -3
11 41 11 41 12 -4 12 -4 3 -29 4 -29 11 -7 12 -8 43 0 42 0 0 20 0 20 -12 40
-13 39 -22 6 -23 5 0 24 0 24 38 9 37 9 3 52 3 52 -13 -2 -13 -1 -44 -4z"/>
</g>
</svg>
