<?xml version="1.0" standalone="no"?>
<!DOCTYPE svg PUBLIC "-//W3C//DTD SVG 20010904//EN"
 "http://www.w3.org/TR/2001/REC-SVG-20010904/DTD/svg10.dtd">
<svg version="1.0" xmlns="http://www.w3.org/2000/svg"
 width="42.000000pt" height="34.000000pt" viewBox="0 0 42.000000 34.000000"
 preserveAspectRatio="xMidYMid meet">
<metadata>
Created by potrace 1.16, written by Peter Selinger 2001-2019
</metadata>
<g transform="translate(0.000000,34.000000) scale(0.100000,-0.100000)"
fill="#000000" stroke="none">
<path d="M87 332 l-18 -4 7 -33 6 -34 -15 -16 -16 -15 -25 0 -26 0 0 -14 0
-13 41 -7 41 -7 -4 -57 -3 -57 43 -3 42 -3 0 -20 0 -20 14 -15 15 -14 7 0 7 0
19 22 20 23 -6 29 -6 28 33 -6 32 -6 14 9 14 9 -7 37 -7 38 16 -7 17 -6 39 11
39 12 0 11 0 11 -8 12 -7 11 -35 9 -35 9 0 39 0 38 -14 5 -14 5 7 -11 6 -11
-42 -8 -43 -9 -4 -19 -3 -20 -12 -7 -11 -8 -18 0 -18 0 -15 15 -15 14 6 24 7
24 -24 5 -23 4 -18 -4z"/>
</g>
</svg>
