<?xml version="1.0" standalone="no"?>
<!DOCTYPE svg PUBLIC "-//W3C//DTD SVG 20010904//EN"
 "http://www.w3.org/TR/2001/REC-SVG-20010904/DTD/svg10.dtd">
<svg version="1.0" xmlns="http://www.w3.org/2000/svg"
 width="44.000000pt" height="36.000000pt" viewBox="0 0 44.000000 36.000000"
 preserveAspectRatio="xMidYMid meet">
<metadata>
Created by potrace 1.16, written by Peter Selinger 2001-2019
</metadata>
<g transform="translate(0.000000,36.000000) scale(0.100000,-0.100000)"
fill="#000000" stroke="none">
<path d="M86 353 l-18 -5 5 -35 6 -35 -14 -14 -14 -14 -25 0 -26 0 0 -24 0
-23 41 -7 41 -7 -4 -57 -3 -57 43 -3 42 -3 0 -20 0 -20 14 -15 15 -14 17 0 17
0 18 22 19 21 0 28 0 28 15 -5 15 -6 25 6 25 6 0 33 0 33 50 13 50 13 0 21 0
22 -8 12 -7 11 -35 9 -35 9 0 39 0 40 -19 3 -19 4 -7 -12 -7 -12 -34 -7 -34
-7 -3 -21 -3 -22 -19 -6 -20 -6 -13 12 -13 13 4 28 4 28 -13 0 -14 0 -20 4
-20 4 -19 -5z"/>
</g>
</svg>
