<?xml version="1.0" standalone="no"?>
<!DOCTYPE svg PUBLIC "-//W3C//DTD SVG 20010904//EN"
 "http://www.w3.org/TR/2001/REC-SVG-20010904/DTD/svg10.dtd">
<svg version="1.0" xmlns="http://www.w3.org/2000/svg"
 width="28.000000pt" height="36.000000pt" viewBox="0 0 28.000000 36.000000"
 preserveAspectRatio="xMidYMid meet">
<metadata>
Created by potrace 1.16, written by Peter Selinger 2001-2019
</metadata>
<g transform="translate(0.000000,36.000000) scale(0.100000,-0.100000)"
fill="#000000" stroke="none">
<path d="M17 349 l-17 -10 0 -44 0 -45 25 0 25 0 0 -10 0 -10 16 0 15 0 -15
-15 -15 -15 -10 0 -10 0 -5 -17 -5 -18 -7 -48 -6 -47 36 0 36 0 0 -21 0 -20
14 -15 15 -14 27 0 27 0 18 22 19 21 0 24 0 23 35 0 35 0 0 11 0 10 -11 45
-12 45 -16 -2 -16 -1 -12 1 -13 1 0 15 0 15 28 7 27 7 19 -3 19 -3 -8 49 -7
48 -3 3 -3 3 -37 -7 -38 -7 -18 -18 -19 -19 -19 0 -19 0 -6 16 -6 16 0 19 0
19 -32 0 -33 -1 -18 -10z"/>
</g>
</svg>
