<?xml version="1.0" standalone="no"?>
<!DOCTYPE svg PUBLIC "-//W3C//DTD SVG 20010904//EN"
 "http://www.w3.org/TR/2001/REC-SVG-20010904/DTD/svg10.dtd">
<svg version="1.0" xmlns="http://www.w3.org/2000/svg"
 width="33.000000pt" height="34.000000pt" viewBox="0 0 33.000000 34.000000"
 preserveAspectRatio="xMidYMid meet">
<metadata>
Created by potrace 1.16, written by Peter Selinger 2001-2019
</metadata>
<g transform="translate(0.000000,34.000000) scale(0.100000,-0.100000)"
fill="#000000" stroke="none">
<path d="M20 296 l0 -43 31 -7 31 -6 -6 -26 -7 -26 -14 -15 -15 -14 -20 6 -20
6 0 -13 0 -13 6 -38 7 -38 26 2 26 2 23 -1 22 -2 0 -36 0 -36 23 6 22 6 8 0 7
0 0 19 0 18 45 13 45 12 6 49 6 48 29 6 29 7 0 24 0 24 -21 0 -20 0 -15 14
-14 15 0 35 0 36 -40 0 -40 0 0 -19 0 -19 -6 -16 -6 -16 -29 0 -29 0 -6 40 -7
40 -38 0 -39 0 0 -44z"/>
</g>
</svg>
