<?xml version="1.0" standalone="no"?>
<!DOCTYPE svg PUBLIC "-//W3C//DTD SVG 20010904//EN"
 "http://www.w3.org/TR/2001/REC-SVG-20010904/DTD/svg10.dtd">
<svg version="1.0" xmlns="http://www.w3.org/2000/svg"
 width="26.000000pt" height="34.000000pt" viewBox="0 0 26.000000 34.000000"
 preserveAspectRatio="xMidYMid meet">
<metadata>
Created by potrace 1.16, written by Peter Selinger 2001-2019
</metadata>
<g transform="translate(0.000000,34.000000) scale(0.100000,-0.100000)"
fill="#000000" stroke="none">
<path d="M17 329 l-17 -10 0 -34 0 -35 25 0 25 0 0 -10 0 -10 15 0 15 0 0 -11
0 -10 -14 -15 -15 -14 -10 0 -10 0 -4 -17 -5 -18 -7 -37 -6 -38 36 0 35 0 0
-21 0 -20 14 -15 15 -14 17 0 17 0 19 22 20 23 -4 26 -4 27 39 -6 39 -5 -5 19
-6 19 -7 27 -6 28 -9 -6 -9 -5 -20 6 -20 6 0 24 0 23 35 12 35 11 10 -6 11 -7
-7 39 -7 38 -1 2 -2 2 -38 -10 -37 -10 -6 -15 -5 -14 -30 0 -29 0 -14 14 -14
13 6 22 5 21 -23 0 -24 -1 -18 -10z"/>
</g>
</svg>
