<?xml version="1.0" standalone="no"?>
<!DOCTYPE svg PUBLIC "-//W3C//DTD SVG 20010904//EN"
 "http://www.w3.org/TR/2001/REC-SVG-20010904/DTD/svg10.dtd">
<svg version="1.0" xmlns="http://www.w3.org/2000/svg"
 width="35.000000pt" height="36.000000pt" viewBox="0 0 35.000000 36.000000"
 preserveAspectRatio="xMidYMid meet">
<metadata>
Created by potrace 1.16, written by Peter Selinger 2001-2019
</metadata>
<g transform="translate(0.000000,36.000000) scale(0.100000,-0.100000)"
fill="#000000" stroke="none">
<path d="M0 345 l0 -15 10 0 10 0 0 -39 0 -38 30 -6 30 -6 -7 -18 -7 -18 -10
-11 -10 -10 -23 4 -23 4 0 -23 0 -24 6 -37 7 -38 48 0 49 0 0 -35 0 -35 18 0
17 0 23 6 22 6 0 18 0 17 45 13 45 12 6 49 6 48 29 6 29 7 0 34 0 34 -21 0
-20 0 -15 14 -14 15 0 35 0 36 -50 0 -50 0 0 -19 0 -19 -6 -16 -6 -16 -19 0
-19 0 -6 40 -7 40 -58 0 -59 0 0 -15z"/>
</g>
</svg>
