<?xml version="1.0" standalone="no"?>
<!DOCTYPE svg PUBLIC "-//W3C//DTD SVG 20010904//EN"
 "http://www.w3.org/TR/2001/REC-SVG-20010904/DTD/svg10.dtd">
<svg version="1.0" xmlns="http://www.w3.org/2000/svg"
 width="34.000000pt" height="36.000000pt" viewBox="0 0 34.000000 36.000000"
 preserveAspectRatio="xMidYMid meet">
<metadata>
Created by potrace 1.16, written by Peter Selinger 2001-2019
</metadata>
<g transform="translate(0.000000,36.000000) scale(0.100000,-0.100000)"
fill="#000000" stroke="none">
<path d="M10 341 l-10 -20 0 -19 0 -20 27 -7 28 -7 7 -11 8 -12 0 -22 0 -23
-13 0 -12 0 -13 -37 -13 -38 -2 -15 -2 -15 31 -3 32 -3 6 -30 6 -30 14 -15 15
-14 6 0 6 0 15 14 14 15 0 30 0 31 33 0 32 0 23 6 22 6 0 27 0 26 6 23 6 22
29 0 29 0 0 24 0 24 -16 6 -16 6 -19 0 -19 0 0 50 0 50 -125 0 -124 0 -11 -19z"/>
</g>
</svg>
