<?xml version="1.0" standalone="no"?>
<!DOCTYPE svg PUBLIC "-//W3C//DTD SVG 20010904//EN"
 "http://www.w3.org/TR/2001/REC-SVG-20010904/DTD/svg10.dtd">
<svg version="1.0" xmlns="http://www.w3.org/2000/svg"
 width="41.000000pt" height="34.000000pt" viewBox="0 0 41.000000 34.000000"
 preserveAspectRatio="xMidYMid meet">
<metadata>
Created by potrace 1.16, written by Peter Selinger 2001-2019
</metadata>
<g transform="translate(0.000000,34.000000) scale(0.100000,-0.100000)"
fill="#000000" stroke="none">
<path d="M77 303 l6 -33 -12 0 -11 0 0 -15 0 -15 -24 0 -25 0 -6 -21 -7 -21
13 -9 14 -9 22 0 21 0 16 -6 15 -6 -6 -48 -5 -47 35 -7 35 -6 6 -30 6 -30 34
0 35 0 6 20 6 20 -6 10 -6 10 40 0 40 0 6 20 6 20 -6 31 -7 31 20 -6 20 -7 26
12 26 12 0 33 0 33 -35 7 -35 6 0 40 0 40 -12 -6 -13 -5 -42 -11 -42 -12 6
-14 5 -13 -15 -16 -16 -15 -10 0 -10 0 -15 16 -16 15 0 29 0 28 -44 3 -44 4 5
-32z"/>
</g>
</svg>
