<?xml version="1.0" standalone="no"?>
<!DOCTYPE svg PUBLIC "-//W3C//DTD SVG 20010904//EN"
 "http://www.w3.org/TR/2001/REC-SVG-20010904/DTD/svg10.dtd">
<svg version="1.0" xmlns="http://www.w3.org/2000/svg"
 width="43.000000pt" height="36.000000pt" viewBox="0 0 43.000000 36.000000"
 preserveAspectRatio="xMidYMid meet">
<metadata>
Created by potrace 1.16, written by Peter Selinger 2001-2019
</metadata>
<g transform="translate(0.000000,36.000000) scale(0.100000,-0.100000)"
fill="#000000" stroke="none">
<path d="M74 327 l7 -37 -11 0 -10 0 0 -15 0 -15 -24 0 -24 0 -6 -16 -6 -16 0
-19 0 -19 22 -4 23 -5 25 -5 25 -5 -3 -49 -4 -49 35 -7 35 -6 6 -30 6 -30 45
0 46 0 6 30 6 30 32 0 33 0 6 16 6 16 0 29 0 29 15 0 14 0 26 12 25 11 0 43 0
43 -35 7 -35 6 0 39 0 39 -10 0 -9 0 -56 -17 -56 -17 4 -16 4 -16 -13 -12 -13
-12 -15 16 -16 15 0 30 0 29 -32 0 -33 0 -24 7 -24 6 7 -36z"/>
</g>
</svg>
