<?xml version="1.0" standalone="no"?>
<!DOCTYPE svg PUBLIC "-//W3C//DTD SVG 20010904//EN"
 "http://www.w3.org/TR/2001/REC-SVG-20010904/DTD/svg10.dtd">
<svg version="1.0" xmlns="http://www.w3.org/2000/svg"
 width="33.000000pt" height="38.000000pt" viewBox="0 0 33.000000 38.000000"
 preserveAspectRatio="xMidYMid meet">
<metadata>
Created by potrace 1.16, written by Peter Selinger 2001-2019
</metadata>
<g transform="translate(0.000000,38.000000) scale(0.100000,-0.100000)"
fill="#000000" stroke="none">
<path d="M43 365 l-13 -14 0 -55 0 -54 16 -6 16 -6 24 0 25 0 -6 -10 -7 -11
-33 7 -34 6 -17 -16 -16 -17 6 -24 6 -25 6 -27 7 -28 11 -7 11 -8 38 0 37 0 0
-29 0 -29 16 -6 16 -6 29 0 29 0 6 25 6 25 16 0 16 0 33 12 33 12 0 26 0 25
-10 36 -10 37 -28 7 -27 8 31 8 31 9 11 25 12 26 0 41 0 41 -31 -7 -31 -6 -30
0 -29 0 2 -17 1 -18 -1 -12 -1 -13 -25 0 -25 0 -6 30 -6 30 -34 6 -34 6 0 9 0
9 -12 0 -13 -1 -12 -14z"/>
</g>
</svg>
