<?xml version="1.0" standalone="no"?>
<!DOCTYPE svg PUBLIC "-//W3C//DTD SVG 20010904//EN"
 "http://www.w3.org/TR/2001/REC-SVG-20010904/DTD/svg10.dtd">
<svg version="1.0" xmlns="http://www.w3.org/2000/svg"
 width="42.000000pt" height="30.000000pt" viewBox="0 0 42.000000 30.000000"
 preserveAspectRatio="xMidYMid meet">
<metadata>
Created by potrace 1.16, written by Peter Selinger 2001-2019
</metadata>
<g transform="translate(0.000000,30.000000) scale(0.100000,-0.100000)"
fill="#000000" stroke="none">
<path d="M283 293 l-43 -4 0 -30 0 -30 -14 -15 -15 -14 -6 0 -6 0 -15 14 -14
15 -6 30 -6 31 -34 0 -34 0 0 -31 0 -30 -13 -14 -14 -13 -29 -4 -29 -3 -3 -26
-3 -26 30 -6 30 -6 6 -26 5 -25 5 -24 5 -23 31 -7 31 -6 13 13 13 13 4 20 3
19 30 0 30 0 6 -38 6 -37 6 -6 6 -7 33 14 33 13 12 12 12 12 -6 36 -6 36 26 0
26 0 15 16 16 15 0 24 0 24 -32 9 -33 8 -3 42 -3 42 -12 -2 -12 -1 -42 -4z"/>
</g>
</svg>
