<?xml version="1.0" standalone="no"?>
<!DOCTYPE svg PUBLIC "-//W3C//DTD SVG 20010904//EN"
 "http://www.w3.org/TR/2001/REC-SVG-20010904/DTD/svg10.dtd">
<svg version="1.0" xmlns="http://www.w3.org/2000/svg"
 width="31.000000pt" height="36.000000pt" viewBox="0 0 31.000000 36.000000"
 preserveAspectRatio="xMidYMid meet">
<metadata>
Created by potrace 1.16, written by Peter Selinger 2001-2019
</metadata>
<g transform="translate(0.000000,36.000000) scale(0.100000,-0.100000)"
fill="#000000" stroke="none">
<path d="M43 344 l-13 -13 0 -45 0 -44 16 -6 16 -6 25 0 24 0 -3 -17 -4 -18
-39 1 -39 2 -14 -15 -15 -14 12 -25 11 -25 0 -19 0 -20 24 -6 23 -5 14 1 14 2
13 -1 12 -1 0 -29 0 -29 16 -6 16 -6 19 0 19 0 6 25 6 25 16 0 16 0 33 12 33
12 0 16 0 15 -10 35 -10 36 -30 11 -30 11 0 16 0 16 23 -5 22 -5 11 7 11 8 12
22 11 22 0 31 0 32 -16 -6 -16 -6 -34 0 -35 0 6 -10 6 -10 -6 -20 -6 -20 -35
0 -34 0 -6 29 -6 30 -32 7 -31 7 -5 7 -5 8 -12 -14z"/>
</g>
</svg>
