<?xml version="1.0" standalone="no"?>
<!DOCTYPE svg PUBLIC "-//W3C//DTD SVG 20010904//EN"
 "http://www.w3.org/TR/2001/REC-SVG-20010904/DTD/svg10.dtd">
<svg version="1.0" xmlns="http://www.w3.org/2000/svg"
 width="44.000000pt" height="32.000000pt" viewBox="0 0 44.000000 32.000000"
 preserveAspectRatio="xMidYMid meet">
<metadata>
Created by potrace 1.16, written by Peter Selinger 2001-2019
</metadata>
<g transform="translate(0.000000,32.000000) scale(0.100000,-0.100000)"
fill="#000000" stroke="none">
<path d="M85 287 l7 -36 -14 -15 -15 -14 -29 -4 -29 -3 -3 -36 -3 -36 30 -6
30 -6 6 -26 5 -25 5 -24 5 -24 40 -7 40 -7 14 14 14 14 4 20 3 19 20 0 20 0 3
-20 3 -20 5 -23 4 -22 20 0 19 0 28 12 28 13 14 13 13 13 -6 34 -7 35 25 0 25
0 15 16 16 15 0 34 0 34 -32 9 -33 8 -3 43 -3 43 -37 -6 -37 -6 -27 0 -28 0 0
-30 0 -31 -12 -13 -12 -13 -13 13 -13 13 -6 30 -6 31 -27 0 -26 0 -23 6 -23 7
6 -36z"/>
</g>
</svg>
