<?xml version="1.0" standalone="no"?>
<!DOCTYPE svg PUBLIC "-//W3C//DTD SVG 20010904//EN"
 "http://www.w3.org/TR/2001/REC-SVG-20010904/DTD/svg10.dtd">
<svg version="1.0" xmlns="http://www.w3.org/2000/svg"
 width="38.000000pt" height="36.000000pt" viewBox="0 0 38.000000 36.000000"
 preserveAspectRatio="xMidYMid meet">
<metadata>
Created by potrace 1.16, written by Peter Selinger 2001-2019
</metadata>
<g transform="translate(0.000000,36.000000) scale(0.100000,-0.100000)"
fill="#000000" stroke="none">
<path d="M147 353 l-7 -6 0 -28 0 -28 -21 -6 -21 -7 -44 7 -44 6 0 -51 0 -51
15 -16 16 -15 24 6 24 6 5 -9 6 -9 -6 -16 -6 -16 -38 6 -37 6 -7 -18 -7 -17 7
-43 6 -42 21 -6 22 -6 46 0 47 0 6 16 6 16 0 24 0 24 8 0 9 0 -5 -28 -4 -28
27 -12 26 -12 39 0 39 0 15 16 16 15 0 30 0 29 19 0 19 0 6 16 6 16 0 28 0 29
-16 15 -15 16 -17 0 -17 0 0 37 0 38 -35 3 -35 2 -22 5 -22 5 6 17 6 16 -18
13 -19 14 -11 0 -12 0 -6 -7z"/>
</g>
</svg>
