<?xml version="1.0" standalone="no"?>
<!DOCTYPE svg PUBLIC "-//W3C//DTD SVG 20010904//EN"
 "http://www.w3.org/TR/2001/REC-SVG-20010904/DTD/svg10.dtd">
<svg version="1.0" xmlns="http://www.w3.org/2000/svg"
 width="36.000000pt" height="34.000000pt" viewBox="0 0 36.000000 34.000000"
 preserveAspectRatio="xMidYMid meet">
<metadata>
Created by potrace 1.16, written by Peter Selinger 2001-2019
</metadata>
<g transform="translate(0.000000,34.000000) scale(0.100000,-0.100000)"
fill="#000000" stroke="none">
<path d="M146 333 l-6 -6 0 -28 0 -29 -26 -6 -25 -6 -40 5 -39 5 0 -40 0 -39
13 -14 13 -13 26 5 26 5 7 -12 7 -11 -7 -26 -6 -25 -38 6 -39 6 -5 -14 -6 -15
6 -35 5 -34 22 -6 21 -6 36 0 37 0 6 16 6 16 0 24 0 24 21 0 21 0 -7 -28 -6
-28 26 -12 26 -12 29 0 29 0 15 16 16 15 0 34 0 34 16 -6 16 -6 9 14 9 14 0
22 0 22 -16 16 -17 17 -19 -5 -18 -5 2 41 3 41 -32 2 -32 2 -27 6 -26 7 5 20
5 19 -18 10 -17 9 -7 -6z"/>
</g>
</svg>
