<?xml version="1.0" standalone="no"?>
<!DOCTYPE svg PUBLIC "-//W3C//DTD SVG 20010904//EN"
 "http://www.w3.org/TR/2001/REC-SVG-20010904/DTD/svg10.dtd">
<svg version="1.0" xmlns="http://www.w3.org/2000/svg"
 width="41.000000pt" height="27.000000pt" viewBox="0 0 41.000000 27.000000"
 preserveAspectRatio="xMidYMid meet">
<metadata>
Created by potrace 1.16, written by Peter Selinger 2001-2019
</metadata>
<g transform="translate(0.000000,27.000000) scale(0.100000,-0.100000)"
fill="#000000" stroke="none">
<path d="M93 263 l-13 -5 0 -21 0 -22 -9 -13 -8 -13 -29 -8 -29 -7 -2 -15 -3
-14 9 -13 8 -14 36 0 36 0 6 -19 6 -18 -10 -20 -11 -20 0 -20 0 -21 41 0 40 0
15 15 15 14 -7 26 -6 25 13 0 14 0 13 -8 13 -9 -7 -17 -7 -18 14 -9 14 -9 32
0 32 0 5 9 6 9 -11 31 -11 32 5 6 6 5 45 5 45 6 6 18 6 19 -6 11 -7 11 -25 -6
-24 -7 -14 15 -15 15 0 35 0 36 -35 0 -35 0 0 -19 0 -20 -16 -15 -15 -16 -14
0 -14 0 -15 16 -16 15 0 25 0 24 -27 -1 -28 -1 -12 -5z"/>
</g>
</svg>
