<?xml version="1.0" standalone="no"?>
<!DOCTYPE svg PUBLIC "-//W3C//DTD SVG 20010904//EN"
 "http://www.w3.org/TR/2001/REC-SVG-20010904/DTD/svg10.dtd">
<svg version="1.0" xmlns="http://www.w3.org/2000/svg"
 width="43.000000pt" height="29.000000pt" viewBox="0 0 43.000000 29.000000"
 preserveAspectRatio="xMidYMid meet">
<metadata>
Created by potrace 1.16, written by Peter Selinger 2001-2019
</metadata>
<g transform="translate(0.000000,29.000000) scale(0.100000,-0.100000)"
fill="#000000" stroke="none">
<path d="M93 283 l-13 -5 0 -21 0 -22 -9 -13 -8 -13 -29 -8 -29 -7 -3 -25 -2
-24 8 -12 8 -12 34 -3 35 -3 7 -9 7 -10 -10 -17 -9 -18 0 -30 0 -31 51 0 50 0
14 13 13 14 5 24 4 24 2 -26 1 -27 16 -6 16 -6 39 0 40 0 5 15 6 15 -10 29
-10 29 21 6 22 6 27 0 28 0 6 25 6 25 -6 16 -6 16 -28 -4 -28 -4 -12 13 -12
12 0 36 0 35 -44 0 -43 0 -6 -29 -6 -28 -15 -6 -15 -6 -16 15 -15 15 0 25 0
24 -37 -1 -38 -1 -12 -5z"/>
</g>
</svg>
