<?xml version="1.0" standalone="no"?>
<!DOCTYPE svg PUBLIC "-//W3C//DTD SVG 20010904//EN"
 "http://www.w3.org/TR/2001/REC-SVG-20010904/DTD/svg10.dtd">
<svg version="1.0" xmlns="http://www.w3.org/2000/svg"
 width="35.000000pt" height="36.000000pt" viewBox="0 0 35.000000 36.000000"
 preserveAspectRatio="xMidYMid meet">
<metadata>
Created by potrace 1.16, written by Peter Selinger 2001-2019
</metadata>
<g transform="translate(0.000000,36.000000) scale(0.100000,-0.100000)"
fill="#000000" stroke="none">
<path d="M28 353 l-18 -4 0 -50 0 -49 30 0 31 0 6 -16 6 -16 -14 -9 -14 -9
-27 0 -28 0 0 -34 0 -34 6 -31 7 -32 38 6 39 7 0 -25 0 -26 16 -15 15 -16 24
0 24 0 15 16 16 15 0 20 0 19 35 0 36 0 4 12 4 13 6 47 6 47 30 6 29 7 0 23 0
22 -40 7 -40 6 0 45 0 45 -16 0 -17 0 -38 -12 -39 -11 0 -17 0 -18 -20 -5 -20
-5 0 33 0 33 -31 6 -31 6 -7 -1 -6 -1 -17 -5z"/>
</g>
</svg>
