<?xml version="1.0" standalone="no"?>
<!DOCTYPE svg PUBLIC "-//W3C//DTD SVG 20010904//EN"
 "http://www.w3.org/TR/2001/REC-SVG-20010904/DTD/svg10.dtd">
<svg version="1.0" xmlns="http://www.w3.org/2000/svg"
 width="38.000000pt" height="41.000000pt" viewBox="0 0 38.000000 41.000000"
 preserveAspectRatio="xMidYMid meet">
<metadata>
Created by potrace 1.16, written by Peter Selinger 2001-2019
</metadata>
<g transform="translate(0.000000,41.000000) scale(0.100000,-0.100000)"
fill="#000000" stroke="none">
<path d="M187 404 l-7 -7 0 -23 0 -23 -20 -6 -20 -6 -30 6 -29 6 -3 -43 -3
-42 -37 -9 -38 -9 0 -34 0 -34 24 -6 24 -6 5 -28 6 -28 16 -16 16 -16 43 0 43
0 -4 -25 -5 -24 15 -16 16 -15 19 0 19 0 10 23 11 22 42 13 42 13 13 12 13 13
7 32 6 32 -6 20 -6 20 -40 -6 -39 -7 0 22 0 21 29 0 29 0 6 16 6 16 0 37 0 37
-35 -4 -35 -4 -24 6 -25 6 -3 33 -3 32 -20 3 -21 3 -7 -7z"/>
</g>
</svg>
