<?xml version="1.0" standalone="no"?>
<!DOCTYPE svg PUBLIC "-//W3C//DTD SVG 20010904//EN"
 "http://www.w3.org/TR/2001/REC-SVG-20010904/DTD/svg10.dtd">
<svg version="1.0" xmlns="http://www.w3.org/2000/svg"
 width="40.000000pt" height="43.000000pt" viewBox="0 0 40.000000 43.000000"
 preserveAspectRatio="xMidYMid meet">
<metadata>
Created by potrace 1.16, written by Peter Selinger 2001-2019
</metadata>
<g transform="translate(0.000000,43.000000) scale(0.100000,-0.100000)"
fill="#000000" stroke="none">
<path d="M187 424 l-7 -7 0 -23 0 -22 -14 -5 -15 -6 -35 6 -35 5 -3 -43 -3
-43 -37 -9 -38 -9 0 -44 0 -44 24 -6 24 -6 5 -28 6 -28 16 -16 16 -16 40 0 39
0 0 -26 0 -25 14 -15 15 -14 29 0 29 0 10 23 11 22 42 13 42 13 13 13 14 13 6
36 7 37 -6 26 -7 26 -39 -6 -40 -6 0 10 0 10 29 0 29 0 6 16 6 16 0 49 0 50
-35 -7 -35 -6 -24 6 -25 6 -3 33 -3 32 -30 3 -31 3 -7 -7z"/>
</g>
</svg>
