<?xml version="1.0" standalone="no"?>
<!DOCTYPE svg PUBLIC "-//W3C//DTD SVG 20010904//EN"
 "http://www.w3.org/TR/2001/REC-SVG-20010904/DTD/svg10.dtd">
<svg version="1.0" xmlns="http://www.w3.org/2000/svg"
 width="33.000000pt" height="34.000000pt" viewBox="0 0 33.000000 34.000000"
 preserveAspectRatio="xMidYMid meet">
<metadata>
Created by potrace 1.16, written by Peter Selinger 2001-2019
</metadata>
<g transform="translate(0.000000,34.000000) scale(0.100000,-0.100000)"
fill="#000000" stroke="none">
<path d="M28 333 l-18 -4 0 -41 0 -40 29 5 29 6 6 -15 6 -16 0 -18 0 -18 -16
-6 -16 -6 -24 0 -24 0 0 -24 0 -24 6 -30 6 -30 39 5 39 6 0 -26 0 -26 16 -15
15 -16 14 0 14 0 15 16 16 15 0 20 0 19 35 0 36 0 4 12 4 13 6 47 6 47 30 6
29 7 0 13 0 12 -40 7 -40 6 0 45 0 45 -6 0 -7 0 -38 -12 -39 -11 0 -17 0 -18
-22 -6 -23 -6 -7 0 -8 0 0 35 0 35 -14 0 -14 0 -14 4 -13 4 -17 -5z"/>
</g>
</svg>
