<?xml version="1.0" standalone="no"?>
<!DOCTYPE svg PUBLIC "-//W3C//DTD SVG 20010904//EN"
 "http://www.w3.org/TR/2001/REC-SVG-20010904/DTD/svg10.dtd">
<svg version="1.0" xmlns="http://www.w3.org/2000/svg"
 width="30.000000pt" height="38.000000pt" viewBox="0 0 30.000000 38.000000"
 preserveAspectRatio="xMidYMid meet">
<metadata>
Created by potrace 1.16, written by Peter Selinger 2001-2019
</metadata>
<g transform="translate(0.000000,38.000000) scale(0.100000,-0.100000)"
fill="#000000" stroke="none">
<path d="M133 374 l-13 -6 0 -33 0 -34 -20 -6 -20 -6 -30 6 -30 7 -10 -27 -10
-26 0 -39 0 -39 43 -9 42 -10 -31 -1 -32 -1 -6 -16 -6 -16 0 -48 0 -48 16 -6
16 -6 36 0 37 0 11 8 12 7 3 20 4 20 10 -2 10 -2 3 -20 3 -20 15 -11 14 -12
44 6 43 7 7 46 6 46 0 20 0 19 -26 -5 -25 -4 -15 14 -15 15 5 6 6 5 27 1 28 1
3 68 3 67 -20 0 -20 0 -25 11 -25 12 -3 21 -3 21 -25 2 -25 2 -12 -5z"/>
</g>
</svg>
