<?xml version="1.0" standalone="no"?>
<!DOCTYPE svg PUBLIC "-//W3C//DTD SVG 20010904//EN"
 "http://www.w3.org/TR/2001/REC-SVG-20010904/DTD/svg10.dtd">
<svg version="1.0" xmlns="http://www.w3.org/2000/svg"
 width="28.000000pt" height="36.000000pt" viewBox="0 0 28.000000 36.000000"
 preserveAspectRatio="xMidYMid meet">
<metadata>
Created by potrace 1.16, written by Peter Selinger 2001-2019
</metadata>
<g transform="translate(0.000000,36.000000) scale(0.100000,-0.100000)"
fill="#000000" stroke="none">
<path d="M134 352 l-12 -7 0 -29 1 -28 -14 -9 -14 -9 -39 2 -39 2 -8 -19 -8
-20 0 -32 -1 -33 18 -2 17 -1 20 -1 20 -1 3 -18 3 -17 -29 0 -30 0 -6 -16 -6
-16 0 -38 0 -38 16 -6 16 -6 26 0 27 0 11 8 12 7 3 20 4 20 20 0 20 0 3 -22 3
-22 14 -11 13 -11 36 7 36 6 0 17 0 16 7 38 6 38 -25 -6 -25 -6 -17 16 -16 16
0 14 0 14 19 6 19 6 13 -3 14 -3 3 58 3 57 -20 0 -20 0 -25 11 -25 12 -3 21
-3 21 -15 2 -15 3 -11 -8z"/>
</g>
</svg>
