<?xml version="1.0" standalone="no"?>
<!DOCTYPE svg PUBLIC "-//W3C//DTD SVG 20010904//EN"
 "http://www.w3.org/TR/2001/REC-SVG-20010904/DTD/svg10.dtd">
<svg version="1.0" xmlns="http://www.w3.org/2000/svg"
 width="36.000000pt" height="35.000000pt" viewBox="0 0 36.000000 35.000000"
 preserveAspectRatio="xMidYMid meet">
<metadata>
Created by potrace 1.16, written by Peter Selinger 2001-2019
</metadata>
<g transform="translate(0.000000,35.000000) scale(0.100000,-0.100000)"
fill="#000000" stroke="none">
<path d="M187 344 l-7 -7 0 -14 0 -14 -11 -12 -12 -12 -38 3 -38 4 -3 -43 -3
-43 -37 -9 -38 -9 0 -34 0 -34 25 0 24 0 11 -42 12 -41 11 -12 12 -12 38 -6
38 -6 25 11 24 11 0 29 0 28 9 0 10 0 6 -20 6 -19 37 -11 37 -10 18 0 19 0 -7
43 -6 42 -5 18 -5 17 -24 0 -23 0 -6 15 -5 15 39 6 40 7 0 48 0 49 -21 0 -20
0 -19 -10 -20 -10 -4 22 -5 23 -3 20 -3 20 -35 3 -36 3 -7 -7z"/>
</g>
</svg>
