<?xml version="1.0" standalone="no"?>
<!DOCTYPE svg PUBLIC "-//W3C//DTD SVG 20010904//EN"
 "http://www.w3.org/TR/2001/REC-SVG-20010904/DTD/svg10.dtd">
<svg version="1.0" xmlns="http://www.w3.org/2000/svg"
 width="43.000000pt" height="36.000000pt" viewBox="0 0 43.000000 36.000000"
 preserveAspectRatio="xMidYMid meet">
<metadata>
Created by potrace 1.16, written by Peter Selinger 2001-2019
</metadata>
<g transform="translate(0.000000,36.000000) scale(0.100000,-0.100000)"
fill="#000000" stroke="none">
<path d="M193 353 l-13 -5 0 -33 0 -34 -20 -6 -20 -6 -33 3 -32 3 -3 -25 -3
-25 -4 -22 -5 -21 -31 -7 -31 -7 6 -21 6 -22 0 -7 0 -8 40 -6 40 -7 -6 -37 -6
-38 22 -7 21 -7 25 6 24 6 0 31 0 30 28 -3 27 -3 3 -30 4 -30 11 -7 12 -8 41
0 42 0 5 14 6 15 -6 35 -6 36 31 0 31 0 15 16 16 15 0 14 0 14 -16 16 -17 16
-23 -5 -24 -6 0 50 0 50 -30 -6 -29 -6 -26 6 -25 6 0 34 0 34 -16 6 -16 6 -1
-1 -2 -1 -12 -5z"/>
</g>
</svg>
