<?xml version="1.0" standalone="no"?>
<!DOCTYPE svg PUBLIC "-//W3C//DTD SVG 20010904//EN"
 "http://www.w3.org/TR/2001/REC-SVG-20010904/DTD/svg10.dtd">
<svg version="1.0" xmlns="http://www.w3.org/2000/svg"
 width="34.000000pt" height="33.000000pt" viewBox="0 0 34.000000 33.000000"
 preserveAspectRatio="xMidYMid meet">
<metadata>
Created by potrace 1.16, written by Peter Selinger 2001-2019
</metadata>
<g transform="translate(0.000000,33.000000) scale(0.100000,-0.100000)"
fill="#000000" stroke="none">
<path d="M187 324 l-7 -7 0 -14 0 -14 -14 -14 -14 -14 -36 6 -36 6 0 -41 0
-41 -12 -8 -13 -7 -10 -2 -10 -1 -17 -1 -18 -2 0 -25 0 -25 25 0 24 0 11 -42
12 -41 12 -13 13 -12 29 -3 29 -3 23 8 22 7 0 30 0 29 19 0 20 0 6 -20 6 -19
37 -11 37 -10 8 0 7 0 -5 25 -5 25 -5 25 -5 25 -24 0 -24 0 -6 16 -6 16 0 9 0
9 40 6 40 7 0 38 0 39 -10 0 -9 0 -26 -12 -25 -11 -7 6 -6 7 -6 37 -6 38 -25
3 -26 3 -7 -7z"/>
</g>
</svg>
