<?xml version="1.0" standalone="no"?>
<!DOCTYPE svg PUBLIC "-//W3C//DTD SVG 20010904//EN"
 "http://www.w3.org/TR/2001/REC-SVG-20010904/DTD/svg10.dtd">
<svg version="1.0" xmlns="http://www.w3.org/2000/svg"
 width="45.000000pt" height="38.000000pt" viewBox="0 0 45.000000 38.000000"
 preserveAspectRatio="xMidYMid meet">
<metadata>
Created by potrace 1.16, written by Peter Selinger 2001-2019
</metadata>
<g transform="translate(0.000000,38.000000) scale(0.100000,-0.100000)"
fill="#000000" stroke="none">
<path d="M193 373 l-13 -5 0 -34 0 -34 -22 -5 -23 -5 -30 2 -30 3 -3 -25 -3
-25 -4 -22 -5 -21 -30 -7 -30 -7 0 -16 0 -17 6 -23 6 -22 37 -6 37 -6 -4 -35
-4 -35 13 -9 14 -9 27 0 26 0 16 6 16 6 0 30 0 29 18 -3 17 -3 3 -30 4 -30 11
-7 12 -8 52 0 52 0 6 20 6 20 -6 30 -7 30 30 0 31 0 15 16 16 15 0 24 0 24
-16 15 -15 16 -25 0 -24 0 0 46 0 46 -35 -6 -36 -7 -19 6 -20 6 0 34 0 33 -16
6 -16 6 -11 -1 -12 -1 -12 -5z"/>
</g>
</svg>
