<?xml version="1.0" standalone="no"?>
<!DOCTYPE svg PUBLIC "-//W3C//DTD SVG 20010904//EN"
 "http://www.w3.org/TR/2001/REC-SVG-20010904/DTD/svg10.dtd">
<svg version="1.0" xmlns="http://www.w3.org/2000/svg"
 width="39.000000pt" height="42.000000pt" viewBox="0 0 39.000000 42.000000"
 preserveAspectRatio="xMidYMid meet">
<metadata>
Created by potrace 1.16, written by Peter Selinger 2001-2019
</metadata>
<g transform="translate(0.000000,42.000000) scale(0.100000,-0.100000)"
fill="#000000" stroke="none">
<path d="M140 391 l0 -29 -16 -6 -16 -6 -43 0 -43 0 -6 -16 -6 -16 0 -29 0
-29 15 0 15 0 0 -10 0 -10 26 0 25 0 -3 -17 -3 -18 -29 -3 -29 -4 -14 -13 -13
-14 0 -13 0 -13 10 -37 11 -37 47 -3 47 -3 3 -19 4 -20 13 -13 14 -13 20 0 20
0 15 16 16 15 0 29 0 30 31 -7 31 -6 9 14 9 14 0 28 0 27 29 0 29 0 16 6 16 6
0 43 0 43 -16 6 -16 6 -19 0 -19 0 0 40 0 41 -12 4 -13 4 -42 11 -42 10 -6 20
-6 20 -30 0 -29 0 0 -29z"/>
</g>
</svg>
