<?xml version="1.0" standalone="no"?>
<!DOCTYPE svg PUBLIC "-//W3C//DTD SVG 20010904//EN"
 "http://www.w3.org/TR/2001/REC-SVG-20010904/DTD/svg10.dtd">
<svg version="1.0" xmlns="http://www.w3.org/2000/svg"
 width="37.000000pt" height="40.000000pt" viewBox="0 0 37.000000 40.000000"
 preserveAspectRatio="xMidYMid meet">
<metadata>
Created by potrace 1.16, written by Peter Selinger 2001-2019
</metadata>
<g transform="translate(0.000000,40.000000) scale(0.100000,-0.100000)"
fill="#000000" stroke="none">
<path d="M140 371 l0 -30 -22 -7 -23 -8 -34 3 -34 3 -8 -14 -9 -13 0 -22 0
-23 15 0 15 0 0 -10 0 -10 25 0 25 0 0 -25 0 -24 -17 -9 -18 -9 -12 4 -13 5
-15 -16 -16 -15 11 -40 10 -40 48 -3 47 -3 3 -19 4 -20 13 -13 14 -13 10 0 10
0 15 16 16 15 0 31 0 30 34 -6 34 -6 6 16 6 16 0 24 0 24 29 0 29 0 16 6 16 6
0 33 0 33 -16 6 -16 6 -19 0 -19 0 0 40 0 41 -12 4 -13 4 -42 11 -42 10 -6 20
-6 20 -20 0 -19 0 0 -29z"/>
</g>
</svg>
