<?xml version="1.0" standalone="no"?>
<!DOCTYPE svg PUBLIC "-//W3C//DTD SVG 20010904//EN"
 "http://www.w3.org/TR/2001/REC-SVG-20010904/DTD/svg10.dtd">
<svg version="1.0" xmlns="http://www.w3.org/2000/svg"
 width="43.000000pt" height="34.000000pt" viewBox="0 0 43.000000 34.000000"
 preserveAspectRatio="xMidYMid meet">
<metadata>
Created by potrace 1.16, written by Peter Selinger 2001-2019
</metadata>
<g transform="translate(0.000000,34.000000) scale(0.100000,-0.100000)"
fill="#000000" stroke="none">
<path d="M204 315 l7 -26 -16 -16 -16 -15 -50 4 -49 5 0 -37 0 -38 -34 -6 -35
-7 -7 -21 -7 -22 12 -4 11 -4 0 -13 0 -13 16 -6 16 -6 20 0 21 0 -7 -39 -6
-39 16 -6 16 -6 26 0 27 0 13 9 13 8 8 29 7 29 20 0 19 0 3 -30 4 -30 11 -7
12 -8 27 0 26 0 16 6 16 6 0 39 0 39 25 0 25 0 0 15 0 15 10 0 10 0 0 13 0 14
-19 21 -18 22 -17 0 -16 0 0 34 0 35 -12 8 -13 7 -27 -3 -28 -2 -21 6 -21 7 6
23 6 23 -16 6 -16 6 -10 0 -10 0 6 -25z"/>
</g>
</svg>
