<?xml version="1.0" standalone="no"?>
<!DOCTYPE svg PUBLIC "-//W3C//DTD SVG 20010904//EN"
 "http://www.w3.org/TR/2001/REC-SVG-20010904/DTD/svg10.dtd">
<svg version="1.0" xmlns="http://www.w3.org/2000/svg"
 width="45.000000pt" height="36.000000pt" viewBox="0 0 45.000000 36.000000"
 preserveAspectRatio="xMidYMid meet">
<metadata>
Created by potrace 1.16, written by Peter Selinger 2001-2019
</metadata>
<g transform="translate(0.000000,36.000000) scale(0.100000,-0.100000)"
fill="#000000" stroke="none">
<path d="M202 332 l4 -28 -14 -13 -14 -13 -49 6 -49 7 0 -40 0 -39 -34 -6 -34
-7 -6 -15 -6 -16 0 -19 0 -19 10 0 10 0 0 -14 0 -14 16 -6 16 -6 19 0 20 0 -7
-36 -7 -36 14 -9 14 -9 40 0 40 0 13 9 13 8 8 29 7 29 10 0 9 0 3 -30 4 -30
11 -7 12 -8 37 0 36 0 16 6 16 6 0 39 0 39 25 0 25 0 0 15 0 15 10 0 10 0 0
23 0 24 -19 21 -18 22 -17 0 -16 0 0 34 0 34 -14 11 -14 12 -25 -6 -26 -7 -19
6 -20 7 5 20 6 21 -14 9 -14 9 -24 0 -23 0 4 -28z"/>
</g>
</svg>
