<?xml version="1.0" standalone="no"?>
<!DOCTYPE svg PUBLIC "-//W3C//DTD SVG 20010904//EN"
 "http://www.w3.org/TR/2001/REC-SVG-20010904/DTD/svg10.dtd">
<svg version="1.0" xmlns="http://www.w3.org/2000/svg"
 width="39.000000pt" height="44.000000pt" viewBox="0 0 39.000000 44.000000"
 preserveAspectRatio="xMidYMid meet">
<metadata>
Created by potrace 1.16, written by Peter Selinger 2001-2019
</metadata>
<g transform="translate(0.000000,44.000000) scale(0.100000,-0.100000)"
fill="#000000" stroke="none">
<path d="M130 418 l2 -23 -1 -11 -1 -11 -22 -10 -23 -10 -32 4 -33 5 0 -40 0
-41 12 -26 11 -25 24 0 23 0 0 -10 0 -10 -12 -1 -13 -1 -27 2 -26 1 -7 -22 -7
-22 13 -39 12 -38 21 -5 21 -4 25 -3 25 -3 3 -30 4 -30 11 -7 12 -8 33 0 32 0
0 10 0 10 15 0 15 0 0 25 0 25 38 0 39 0 11 24 11 24 6 36 7 36 14 0 14 0 6
24 6 25 -7 20 -6 21 -25 6 -24 6 0 34 0 34 -14 0 -14 0 -36 -15 -36 -15 -5 27
-6 28 -7 25 -7 25 -38 3 -39 3 2 -23z"/>
</g>
</svg>
