<?xml version="1.0" standalone="no"?>
<!DOCTYPE svg PUBLIC "-//W3C//DTD SVG 20010904//EN"
 "http://www.w3.org/TR/2001/REC-SVG-20010904/DTD/svg10.dtd">
<svg version="1.0" xmlns="http://www.w3.org/2000/svg"
 width="37.000000pt" height="42.000000pt" viewBox="0 0 37.000000 42.000000"
 preserveAspectRatio="xMidYMid meet">
<metadata>
Created by potrace 1.16, written by Peter Selinger 2001-2019
</metadata>
<g transform="translate(0.000000,42.000000) scale(0.100000,-0.100000)"
fill="#000000" stroke="none">
<path d="M135 398 l5 -23 -7 -11 -8 -11 -23 -12 -23 -12 -30 6 -29 7 0 -31 0
-30 12 -26 12 -26 23 6 23 5 0 -24 0 -24 -16 -6 -16 -6 -22 6 -23 5 -7 -17 -6
-17 12 -34 12 -34 21 -4 20 -4 25 -3 25 -3 3 -30 4 -30 11 -7 12 -8 23 0 22 0
0 10 0 10 16 0 15 0 -3 23 -3 22 41 3 41 3 11 24 11 23 6 36 7 36 13 0 14 0 6
19 5 18 -6 17 -7 17 -27 6 -28 5 5 36 6 35 -19 -7 -19 -8 -29 -10 -28 -11 -9
14 -9 14 0 23 0 23 -10 20 -11 19 -25 0 -24 0 5 -22z"/>
</g>
</svg>
