<?xml version="1.0" standalone="no"?>
<!DOCTYPE svg PUBLIC "-//W3C//DTD SVG 20010904//EN"
 "http://www.w3.org/TR/2001/REC-SVG-20010904/DTD/svg10.dtd">
<svg version="1.0" xmlns="http://www.w3.org/2000/svg"
 width="35.000000pt" height="36.000000pt" viewBox="0 0 35.000000 36.000000"
 preserveAspectRatio="xMidYMid meet">
<metadata>
Created by potrace 1.16, written by Peter Selinger 2001-2019
</metadata>
<g transform="translate(0.000000,36.000000) scale(0.100000,-0.100000)"
fill="#000000" stroke="none">
<path d="M107 353 l-7 -6 0 -18 0 -18 -16 -15 -15 -16 -35 0 -34 0 0 -46 0
-46 20 5 20 5 15 -15 15 -14 0 -25 0 -24 -27 -6 -28 -7 -7 -11 -8 -11 0 -42 0
-43 44 0 45 0 15 16 16 15 0 25 0 25 18 -3 17 -3 3 -22 3 -22 37 -11 37 -10
13 0 13 0 15 14 14 15 0 30 0 31 16 0 15 0 15 14 14 15 0 31 0 31 -14 15 -15
14 -15 0 -16 0 0 36 0 35 -56 -7 -56 -7 -9 14 -9 14 0 28 0 27 -23 0 -24 0 -6
-7z"/>
</g>
</svg>
