<?xml version="1.0" standalone="no"?>
<!DOCTYPE svg PUBLIC "-//W3C//DTD SVG 20010904//EN"
 "http://www.w3.org/TR/2001/REC-SVG-20010904/DTD/svg10.dtd">
<svg version="1.0" xmlns="http://www.w3.org/2000/svg"
 width="33.000000pt" height="34.000000pt" viewBox="0 0 33.000000 34.000000"
 preserveAspectRatio="xMidYMid meet">
<metadata>
Created by potrace 1.16, written by Peter Selinger 2001-2019
</metadata>
<g transform="translate(0.000000,34.000000) scale(0.100000,-0.100000)"
fill="#000000" stroke="none">
<path d="M107 334 l-6 -6 5 -12 4 -12 -20 -22 -21 -22 -34 0 -35 0 0 -34 0
-34 19 5 18 5 17 -17 16 -16 0 -35 0 -34 -27 -6 -28 -7 -7 -11 -8 -11 0 -32 0
-33 33 0 32 0 15 10 14 9 2 28 1 28 29 0 29 0 3 -22 3 -23 40 -10 40 -11 14
15 15 15 0 35 0 35 15 -5 14 -6 16 15 15 16 0 21 0 21 -15 15 -15 15 -20 -6
-20 -6 6 40 6 40 -57 -6 -57 -6 -9 14 -9 14 0 28 0 27 -13 0 -14 0 -6 -6z"/>
</g>
</svg>
