<?xml version="1.0" standalone="no"?>
<!DOCTYPE svg PUBLIC "-//W3C//DTD SVG 20010904//EN"
 "http://www.w3.org/TR/2001/REC-SVG-20010904/DTD/svg10.dtd">
<svg version="1.0" xmlns="http://www.w3.org/2000/svg"
 width="44.000000pt" height="35.000000pt" viewBox="0 0 44.000000 35.000000"
 preserveAspectRatio="xMidYMid meet">
<metadata>
Created by potrace 1.16, written by Peter Selinger 2001-2019
</metadata>
<g transform="translate(0.000000,35.000000) scale(0.100000,-0.100000)"
fill="#000000" stroke="none">
<path d="M197 344 l-7 -7 0 -18 0 -18 -17 -16 -16 -17 -44 7 -43 6 0 -40 0
-41 -20 0 -20 0 0 -10 0 -10 -15 0 -15 0 0 -34 0 -35 16 -15 15 -16 20 0 19 0
0 -35 0 -35 23 -5 22 -6 125 3 125 3 3 43 3 42 20 0 20 0 15 14 14 15 0 30 0
30 -35 7 -35 6 0 45 0 44 -42 -6 -43 -6 -12 8 -11 8 -4 30 -3 30 -25 3 -26 3
-7 -7z"/>
</g>
</svg>
