<?xml version="1.0" standalone="no"?>
<!DOCTYPE svg PUBLIC "-//W3C//DTD SVG 20010904//EN"
 "http://www.w3.org/TR/2001/REC-SVG-20010904/DTD/svg10.dtd">
<svg version="1.0" xmlns="http://www.w3.org/2000/svg"
 width="32.000000pt" height="36.000000pt" viewBox="0 0 32.000000 36.000000"
 preserveAspectRatio="xMidYMid meet">
<metadata>
Created by potrace 1.16, written by Peter Selinger 2001-2019
</metadata>
<g transform="translate(0.000000,36.000000) scale(0.100000,-0.100000)"
fill="#000000" stroke="none">
<path d="M133 353 l-13 -5 0 -21 0 -22 -9 -14 -9 -14 -37 7 -37 7 -14 -12 -14
-11 0 -44 0 -43 35 -7 35 -6 0 -19 0 -19 -24 -6 -24 -6 -6 -50 -7 -51 13 -8
13 -9 37 0 36 0 16 6 16 6 0 33 0 33 14 5 14 6 6 -6 6 -6 0 -17 0 -17 25 -11
26 -12 39 0 40 0 0 33 0 32 -6 23 -7 23 -28 6 -29 5 6 9 5 9 36 0 36 0 -7 38
-6 37 0 28 0 27 -44 0 -44 0 -16 6 -16 6 6 9 5 9 -6 20 -6 20 -22 -1 -22 -1
-12 -5z"/>
</g>
</svg>
