<?xml version="1.0" standalone="no"?>
<!DOCTYPE svg PUBLIC "-//W3C//DTD SVG 20010904//EN"
 "http://www.w3.org/TR/2001/REC-SVG-20010904/DTD/svg10.dtd">
<svg version="1.0" xmlns="http://www.w3.org/2000/svg"
 width="42.000000pt" height="33.000000pt" viewBox="0 0 42.000000 33.000000"
 preserveAspectRatio="xMidYMid meet">
<metadata>
Created by potrace 1.16, written by Peter Selinger 2001-2019
</metadata>
<g transform="translate(0.000000,33.000000) scale(0.100000,-0.100000)"
fill="#000000" stroke="none">
<path d="M197 323 l-4 -8 -7 -27 -6 -28 -26 -6 -25 -6 -29 6 -30 6 0 -44 0
-44 -20 5 -20 5 0 -11 0 -11 -15 0 -15 0 0 -24 0 -25 16 -16 17 -17 18 5 19 5
0 -39 0 -39 23 -5 22 -6 115 3 115 3 2 30 1 30 1 13 1 12 21 0 20 0 15 14 14
15 0 20 0 20 -35 7 -35 6 0 44 0 44 -30 -6 -29 -6 -25 6 -25 6 -3 32 -3 33
-17 3 -16 3 -5 -8z"/>
</g>
</svg>
