<?xml version="1.0" standalone="no"?>
<!DOCTYPE svg PUBLIC "-//W3C//DTD SVG 20010904//EN"
 "http://www.w3.org/TR/2001/REC-SVG-20010904/DTD/svg10.dtd">
<svg version="1.0" xmlns="http://www.w3.org/2000/svg"
 width="30.000000pt" height="34.000000pt" viewBox="0 0 30.000000 34.000000"
 preserveAspectRatio="xMidYMid meet">
<metadata>
Created by potrace 1.16, written by Peter Selinger 2001-2019
</metadata>
<g transform="translate(0.000000,34.000000) scale(0.100000,-0.100000)"
fill="#000000" stroke="none">
<path d="M133 333 l-13 -5 0 -21 0 -22 -9 -14 -9 -14 -40 5 -40 6 -11 -11 -11
-11 0 -33 0 -32 35 -7 35 -6 0 -29 0 -29 -24 -6 -24 -6 -5 -41 -6 -42 12 -7
12 -8 27 0 26 0 16 6 16 6 0 33 0 34 20 6 20 6 10 -6 10 -6 0 -18 0 -18 25
-11 26 -12 29 0 30 0 0 23 0 22 -6 23 -7 23 -29 6 -28 6 -6 9 -7 10 14 9 14 9
34 0 33 0 -6 23 -6 22 0 33 0 32 -47 0 -48 0 -13 9 -14 8 2 14 2 14 -1 13 -1
12 -12 -1 -13 -1 -12 -5z"/>
</g>
</svg>
