<?xml version="1.0" standalone="no"?>
<!DOCTYPE svg PUBLIC "-//W3C//DTD SVG 20010904//EN"
 "http://www.w3.org/TR/2001/REC-SVG-20010904/DTD/svg10.dtd">
<svg version="1.0" xmlns="http://www.w3.org/2000/svg"
 width="43.000000pt" height="32.000000pt" viewBox="0 0 43.000000 32.000000"
 preserveAspectRatio="xMidYMid meet">
<metadata>
Created by potrace 1.16, written by Peter Selinger 2001-2019
</metadata>
<g transform="translate(0.000000,32.000000) scale(0.100000,-0.100000)"
fill="#000000" stroke="none">
<path d="M187 314 l-7 -7 0 -18 0 -17 -16 -6 -16 -6 -29 0 -29 0 0 -50 0 -50
-45 0 -45 0 0 -19 0 -19 15 -12 14 -12 22 7 21 7 9 -13 9 -14 0 -42 0 -43 29
0 29 0 16 6 16 6 0 33 0 33 15 6 15 5 15 -5 15 -6 0 -33 0 -33 16 -6 16 -6 26
0 27 0 13 9 14 8 -4 44 -3 43 20 1 20 2 17 1 17 2 6 20 6 20 -15 15 -15 16
-26 -7 -25 -6 0 47 0 48 -49 -7 -48 -6 -12 14 -13 15 -2 18 -3 18 -14 3 -15 3
-7 -7z"/>
</g>
</svg>
