<?xml version="1.0" standalone="no"?>
<!DOCTYPE svg PUBLIC "-//W3C//DTD SVG 20010904//EN"
 "http://www.w3.org/TR/2001/REC-SVG-20010904/DTD/svg10.dtd">
<svg version="1.0" xmlns="http://www.w3.org/2000/svg"
 width="45.000000pt" height="34.000000pt" viewBox="0 0 45.000000 34.000000"
 preserveAspectRatio="xMidYMid meet">
<metadata>
Created by potrace 1.16, written by Peter Selinger 2001-2019
</metadata>
<g transform="translate(0.000000,34.000000) scale(0.100000,-0.100000)"
fill="#000000" stroke="none">
<path d="M187 333 l-7 -6 0 -18 0 -17 -16 -6 -16 -6 -29 0 -29 0 0 -50 0 -50
-45 0 -45 0 0 -29 0 -29 15 -12 15 -12 24 4 25 5 5 -14 6 -15 0 -39 0 -39 39
0 39 0 16 6 16 6 0 34 0 34 20 0 20 0 0 -34 0 -34 16 -6 16 -6 36 0 37 0 14 9
13 9 -4 40 -3 40 36 6 37 6 6 16 6 16 0 15 0 14 -15 16 -16 15 -24 -5 -25 -4
0 44 0 45 -51 -4 -52 -3 -8 15 -8 15 -5 18 -5 17 -24 0 -24 0 -6 -7z"/>
</g>
</svg>
