<?xml version="1.0" standalone="no"?>
<!DOCTYPE svg PUBLIC "-//W3C//DTD SVG 20010904//EN"
 "http://www.w3.org/TR/2001/REC-SVG-20010904/DTD/svg10.dtd">
<svg version="1.0" xmlns="http://www.w3.org/2000/svg"
 width="30.000000pt" height="31.000000pt" viewBox="0 0 30.000000 31.000000"
 preserveAspectRatio="xMidYMid meet">
<metadata>
Created by potrace 1.16, written by Peter Selinger 2001-2019
</metadata>
<g transform="translate(0.000000,31.000000) scale(0.100000,-0.100000)"
fill="#000000" stroke="none">
<path d="M184 283 l7 -29 -19 -22 -19 -22 -7 0 -7 0 -15 14 -14 15 0 20 0 21
-24 0 -24 0 -31 6 -31 7 0 -52 0 -52 14 -15 15 -14 15 0 16 0 0 -11 0 -11 -30
-11 -30 -11 0 -52 0 -52 23 -6 22 -6 36 0 37 0 6 16 6 16 0 18 0 18 15 6 15 5
0 -28 0 -29 16 -6 16 -6 52 0 52 0 1 56 1 55 -21 -2 -22 -3 -22 8 -23 7 0 9 0
8 5 14 6 14 29 -4 30 -4 0 66 0 66 -19 0 -18 0 -33 6 -32 7 6 -30z"/>
</g>
</svg>
