<?xml version="1.0" standalone="no"?>
<!DOCTYPE svg PUBLIC "-//W3C//DTD SVG 20010904//EN"
 "http://www.w3.org/TR/2001/REC-SVG-20010904/DTD/svg10.dtd">
<svg version="1.0" xmlns="http://www.w3.org/2000/svg"
 width="28.000000pt" height="29.000000pt" viewBox="0 0 28.000000 29.000000"
 preserveAspectRatio="xMidYMid meet">
<metadata>
Created by potrace 1.16, written by Peter Selinger 2001-2019
</metadata>
<g transform="translate(0.000000,29.000000) scale(0.100000,-0.100000)"
fill="#000000" stroke="none">
<path d="M187 263 l5 -28 -20 -23 -19 -22 -17 0 -17 0 -15 14 -14 15 0 20 0
21 -29 0 -29 0 -16 6 -16 6 0 -42 0 -41 15 -16 16 -15 14 6 15 5 0 -25 0 -26
-30 -11 -30 -11 0 -42 0 -42 23 -6 22 -6 26 0 27 0 6 16 6 16 0 18 0 19 21 6
21 7 8 -13 8 -12 -5 -15 -6 -14 14 -9 14 -9 45 0 45 0 1 45 2 46 -18 -6 -18
-6 -26 12 -26 12 0 21 0 21 9 13 8 13 26 -7 27 -6 0 56 0 56 -24 0 -24 0 -15
5 -14 6 4 -28z"/>
</g>
</svg>
