<?xml version="1.0" standalone="no"?>
<!DOCTYPE svg PUBLIC "-//W3C//DTD SVG 20010904//EN"
 "http://www.w3.org/TR/2001/REC-SVG-20010904/DTD/svg10.dtd">
<svg version="1.0" xmlns="http://www.w3.org/2000/svg"
 width="38.000000pt" height="39.000000pt" viewBox="0 0 38.000000 39.000000"
 preserveAspectRatio="xMidYMid meet">
<metadata>
Created by potrace 1.16, written by Peter Selinger 2001-2019
</metadata>
<g transform="translate(0.000000,39.000000) scale(0.100000,-0.100000)"
fill="#000000" stroke="none">
<path d="M240 362 l0 -31 -16 -15 -15 -16 -14 13 -13 13 -4 20 -3 19 -58 3
-57 3 0 -44 0 -44 -30 -6 -30 -6 0 -41 0 -40 30 -6 30 -6 0 -38 0 -38 23 -6
22 -6 28 0 27 0 0 -29 0 -30 16 -15 15 -16 20 0 20 0 15 14 14 15 0 15 0 15
38 11 37 10 11 7 11 8 12 22 11 22 0 28 0 28 -9 14 -9 14 -30 -6 -30 -6 -6 15
-6 16 0 4 0 4 29 0 29 0 6 16 6 16 0 43 0 44 -8 5 -8 5 -52 7 -52 7 0 -31z"/>
</g>
</svg>
