<?xml version="1.0" standalone="no"?>
<!DOCTYPE svg PUBLIC "-//W3C//DTD SVG 20010904//EN"
 "http://www.w3.org/TR/2001/REC-SVG-20010904/DTD/svg10.dtd">
<svg version="1.0" xmlns="http://www.w3.org/2000/svg"
 width="36.000000pt" height="37.000000pt" viewBox="0 0 36.000000 37.000000"
 preserveAspectRatio="xMidYMid meet">
<metadata>
Created by potrace 1.16, written by Peter Selinger 2001-2019
</metadata>
<g transform="translate(0.000000,37.000000) scale(0.100000,-0.100000)"
fill="#000000" stroke="none">
<path d="M240 342 l0 -31 -16 -15 -15 -16 -10 0 -10 0 -14 13 -13 13 -4 20 -3
19 -48 3 -47 3 0 -44 0 -44 -30 -6 -30 -7 0 -30 0 -30 30 -6 30 -6 0 -38 0
-38 22 -6 23 -6 28 0 27 0 0 -29 0 -30 16 -15 15 -16 10 0 10 0 16 15 15 16
-5 13 -6 14 27 6 27 7 27 10 26 11 12 29 12 29 -6 25 -7 26 -34 -7 -34 -6 -7
27 -7 27 13 8 13 8 15 -5 14 -6 9 14 9 14 0 37 0 37 -7 4 -8 5 -42 7 -43 7 0
-30z"/>
</g>
</svg>
