<?xml version="1.0" standalone="no"?>
<!DOCTYPE svg PUBLIC "-//W3C//DTD SVG 20010904//EN"
 "http://www.w3.org/TR/2001/REC-SVG-20010904/DTD/svg10.dtd">
<svg version="1.0" xmlns="http://www.w3.org/2000/svg"
 width="38.000000pt" height="35.000000pt" viewBox="0 0 38.000000 35.000000"
 preserveAspectRatio="xMidYMid meet">
<metadata>
Created by potrace 1.16, written by Peter Selinger 2001-2019
</metadata>
<g transform="translate(0.000000,35.000000) scale(0.100000,-0.100000)"
fill="#000000" stroke="none">
<path d="M53 343 l-23 -4 -6 -24 -6 -23 4 -23 3 -23 37 -9 36 -9 6 -13 5 -14
-32 -7 -32 -8 -22 3 -22 2 2 -53 2 -53 13 -14 13 -13 33 6 34 7 -5 -20 -5 -20
15 -16 16 -15 35 0 36 0 20 20 20 20 20 0 19 0 25 24 24 25 7 40 6 39 25 6 24
6 0 34 0 34 -16 6 -16 6 -19 0 -19 0 0 34 0 35 -10 6 -10 6 -55 -13 -55 -13 0
-10 0 -10 -9 -14 -9 -13 -21 7 -21 6 0 29 0 28 -16 6 -16 6 -6 -1 -7 -2 -22
-4z"/>
</g>
</svg>
