<?xml version="1.0" standalone="no"?>
<!DOCTYPE svg PUBLIC "-//W3C//DTD SVG 20010904//EN"
 "http://www.w3.org/TR/2001/REC-SVG-20010904/DTD/svg10.dtd">
<svg version="1.0" xmlns="http://www.w3.org/2000/svg"
 width="42.000000pt" height="36.000000pt" viewBox="0 0 42.000000 36.000000"
 preserveAspectRatio="xMidYMid meet">
<metadata>
Created by potrace 1.16, written by Peter Selinger 2001-2019
</metadata>
<g transform="translate(0.000000,36.000000) scale(0.100000,-0.100000)"
fill="#000000" stroke="none">
<path d="M80 321 l0 -39 -6 -16 -6 -16 -34 0 -34 0 0 -36 0 -37 34 6 34 5 6
-15 6 -15 0 -39 0 -39 39 0 38 0 7 -40 6 -40 39 0 39 0 6 16 6 16 0 19 0 19
34 0 34 0 16 6 16 6 0 14 0 14 10 0 10 0 0 18 0 19 20 23 20 23 0 34 0 33 -34
0 -34 0 -6 23 -6 22 0 24 0 23 -22 -6 -23 -6 -28 -7 -29 -6 -10 -23 -11 -24
-9 0 -9 0 -15 15 -15 14 7 26 6 25 -51 0 -51 0 0 -39z"/>
</g>
</svg>
