<?xml version="1.0" standalone="no"?>
<!DOCTYPE svg PUBLIC "-//W3C//DTD SVG 20010904//EN"
 "http://www.w3.org/TR/2001/REC-SVG-20010904/DTD/svg10.dtd">
<svg version="1.0" xmlns="http://www.w3.org/2000/svg"
 width="36.000000pt" height="33.000000pt" viewBox="0 0 36.000000 33.000000"
 preserveAspectRatio="xMidYMid meet">
<metadata>
Created by potrace 1.16, written by Peter Selinger 2001-2019
</metadata>
<g transform="translate(0.000000,33.000000) scale(0.100000,-0.100000)"
fill="#000000" stroke="none">
<path d="M53 322 l-23 -3 -6 -25 -6 -24 5 -14 5 -13 35 -7 35 -7 6 -15 6 -16
0 -7 0 -8 -39 -12 -39 -11 -15 6 -16 6 2 -44 2 -43 11 -12 12 -12 37 6 38 6
-6 -23 -6 -23 14 -13 14 -14 25 0 26 0 20 20 20 20 20 0 19 0 25 24 24 25 7
40 6 39 25 6 24 6 0 24 0 24 -16 6 -16 6 -23 0 -24 0 6 34 5 33 -8 6 -9 5 -47
-11 -47 -11 -6 -23 -5 -23 -19 0 -19 0 -16 6 -16 6 0 28 0 28 -12 4 -13 4 -22
-4z"/>
</g>
</svg>
