<?xml version="1.0" standalone="no"?>
<!DOCTYPE svg PUBLIC "-//W3C//DTD SVG 20010904//EN"
 "http://www.w3.org/TR/2001/REC-SVG-20010904/DTD/svg10.dtd">
<svg version="1.0" xmlns="http://www.w3.org/2000/svg"
 width="40.000000pt" height="34.000000pt" viewBox="0 0 40.000000 34.000000"
 preserveAspectRatio="xMidYMid meet">
<metadata>
Created by potrace 1.16, written by Peter Selinger 2001-2019
</metadata>
<g transform="translate(0.000000,34.000000) scale(0.100000,-0.100000)"
fill="#000000" stroke="none">
<path d="M80 301 l0 -39 -6 -16 -6 -16 -34 0 -34 0 0 -26 0 -26 31 7 31 7 9
-13 9 -14 0 -42 0 -43 39 0 38 0 7 -40 6 -40 29 0 29 0 6 16 6 16 0 19 0 19
34 0 34 0 16 6 16 6 0 14 0 14 10 0 10 0 0 18 0 19 20 23 20 23 0 24 0 23 -34
0 -34 0 -6 23 -6 22 0 21 0 22 -42 -12 -42 -13 -9 -21 -10 -22 -19 0 -19 0
-16 15 -15 16 5 24 4 25 -38 0 -39 0 0 -39z"/>
</g>
</svg>
