<?xml version="1.0" standalone="no"?>
<!DOCTYPE svg PUBLIC "-//W3C//DTD SVG 20010904//EN"
 "http://www.w3.org/TR/2001/REC-SVG-20010904/DTD/svg10.dtd">
<svg version="1.0" xmlns="http://www.w3.org/2000/svg"
 width="44.000000pt" height="38.000000pt" viewBox="0 0 44.000000 38.000000"
 preserveAspectRatio="xMidYMid meet">
<metadata>
Created by potrace 1.16, written by Peter Selinger 2001-2019
</metadata>
<g transform="translate(0.000000,38.000000) scale(0.100000,-0.100000)"
fill="#000000" stroke="none">
<path d="M200 353 l0 -28 -9 -13 -8 -14 -54 4 -54 3 3 -47 3 -48 -25 0 -24 0
-16 -6 -16 -6 0 -23 0 -24 16 -15 15 -16 25 0 24 0 0 -44 0 -44 16 -6 16 -6
35 0 36 0 18 22 19 21 0 9 0 8 10 0 10 0 0 -24 0 -24 6 -16 6 -16 29 0 28 0
28 12 28 13 8 10 7 10 -5 33 -6 32 21 0 21 0 15 14 14 15 0 26 0 26 -14 15
-15 14 -18 0 -18 0 4 46 3 47 -37 -7 -38 -7 -26 11 -27 11 4 29 4 30 -31 0
-31 0 0 -27z"/>
</g>
</svg>
