<?xml version="1.0" standalone="no"?>
<!DOCTYPE svg PUBLIC "-//W3C//DTD SVG 20010904//EN"
 "http://www.w3.org/TR/2001/REC-SVG-20010904/DTD/svg10.dtd">
<svg version="1.0" xmlns="http://www.w3.org/2000/svg"
 width="42.000000pt" height="36.000000pt" viewBox="0 0 42.000000 36.000000"
 preserveAspectRatio="xMidYMid meet">
<metadata>
Created by potrace 1.16, written by Peter Selinger 2001-2019
</metadata>
<g transform="translate(0.000000,36.000000) scale(0.100000,-0.100000)"
fill="#000000" stroke="none">
<path d="M200 333 l0 -28 -9 -14 -8 -13 -54 3 -54 4 3 -47 4 -48 -25 0 -25 0
-16 -6 -16 -6 0 -13 0 -14 16 -16 17 -16 23 5 24 6 0 -49 0 -49 16 -6 16 -6
25 0 26 0 18 22 19 21 0 9 0 8 20 0 20 0 0 -24 0 -24 6 -16 6 -16 19 0 18 0
28 12 28 13 6 9 7 9 -6 39 -5 40 22 -7 21 -6 15 15 15 15 0 16 0 16 -15 15
-15 15 -17 -3 -18 -3 3 47 4 47 -36 -6 -36 -6 -30 13 -31 13 6 28 7 29 -21 0
-21 0 0 -27z"/>
</g>
</svg>
