<?xml version="1.0" standalone="no"?>
<!DOCTYPE svg PUBLIC "-//W3C//DTD SVG 20010904//EN"
 "http://www.w3.org/TR/2001/REC-SVG-20010904/DTD/svg10.dtd">
<svg version="1.0" xmlns="http://www.w3.org/2000/svg"
 width="39.000000pt" height="42.000000pt" viewBox="0 0 39.000000 42.000000"
 preserveAspectRatio="xMidYMid meet">
<metadata>
Created by potrace 1.16, written by Peter Selinger 2001-2019
</metadata>
<g transform="translate(0.000000,42.000000) scale(0.100000,-0.100000)"
fill="#000000" stroke="none">
<path d="M130 395 l0 -26 -16 -16 -15 -15 -51 6 -51 7 5 -45 5 -45 16 -15 16
-16 25 0 26 0 0 -19 0 -19 -29 -7 -29 -6 -6 -31 -6 -31 0 -22 0 -23 16 -6 16
-6 24 0 24 0 0 -16 0 -15 14 -15 15 -14 30 0 31 0 6 25 6 25 33 0 32 0 20 18
20 17 7 33 8 32 20 0 19 0 15 14 14 15 0 30 0 31 -15 0 -15 0 0 10 0 10 -27 0
-28 0 0 42 0 43 -25 3 -25 3 -36 10 -36 9 1 22 1 23 -27 3 -28 3 0 -26z"/>
</g>
</svg>
