<?xml version="1.0" standalone="no"?>
<!DOCTYPE svg PUBLIC "-//W3C//DTD SVG 20010904//EN"
 "http://www.w3.org/TR/2001/REC-SVG-20010904/DTD/svg10.dtd">
<svg version="1.0" xmlns="http://www.w3.org/2000/svg"
 width="37.000000pt" height="40.000000pt" viewBox="0 0 37.000000 40.000000"
 preserveAspectRatio="xMidYMid meet">
<metadata>
Created by potrace 1.16, written by Peter Selinger 2001-2019
</metadata>
<g transform="translate(0.000000,40.000000) scale(0.100000,-0.100000)"
fill="#000000" stroke="none">
<path d="M130 375 l0 -26 -16 -16 -15 -15 -51 4 -50 5 5 -33 6 -34 16 -16 16
-16 24 5 25 4 0 -33 0 -32 -29 -7 -29 -6 -7 -41 -7 -40 13 -10 14 -9 28 5 27
6 0 -21 0 -20 14 -15 15 -14 20 0 21 0 6 25 6 25 33 0 32 0 21 18 20 18 7 37
7 38 19 -6 19 -6 15 15 15 15 0 20 0 21 -15 0 -15 0 0 10 0 10 -29 0 -30 0 2
43 2 42 -25 3 -25 3 -38 10 -38 10 3 22 3 22 -17 3 -18 3 0 -26z"/>
</g>
</svg>
