<?xml version="1.0" standalone="no"?>
<!DOCTYPE svg PUBLIC "-//W3C//DTD SVG 20010904//EN"
 "http://www.w3.org/TR/2001/REC-SVG-20010904/DTD/svg10.dtd">
<svg version="1.0" xmlns="http://www.w3.org/2000/svg"
 width="34.000000pt" height="34.000000pt" viewBox="0 0 34.000000 34.000000"
 preserveAspectRatio="xMidYMid meet">
<metadata>
Created by potrace 1.16, written by Peter Selinger 2001-2019
</metadata>
<g transform="translate(0.000000,34.000000) scale(0.100000,-0.100000)"
fill="#000000" stroke="none">
<path d="M90 311 l0 -29 -16 -6 -16 -6 -29 0 -29 0 0 -29 0 -29 6 -16 6 -15
14 6 13 5 16 -15 15 -16 0 -14 0 -15 -6 -16 -6 -16 -19 0 -18 0 -10 -37 -11
-37 13 -8 12 -8 34 -6 33 -7 9 14 9 14 0 33 0 33 18 -3 17 -4 -3 -32 -2 -32
25 -6 25 -6 35 6 35 7 0 43 0 44 34 6 35 7 6 19 6 20 -15 15 -15 15 -25 0 -26
0 6 40 7 40 -7 0 -6 0 -41 -16 -41 -17 -9 14 -9 14 0 22 0 21 -6 16 -6 16 -29
0 -29 0 0 -29z"/>
</g>
</svg>
