<?xml version="1.0" standalone="no"?>
<!DOCTYPE svg PUBLIC "-//W3C//DTD SVG 20010904//EN"
 "http://www.w3.org/TR/2001/REC-SVG-20010904/DTD/svg10.dtd">
<svg version="1.0" xmlns="http://www.w3.org/2000/svg"
 width="36.000000pt" height="36.000000pt" viewBox="0 0 36.000000 36.000000"
 preserveAspectRatio="xMidYMid meet">
<metadata>
Created by potrace 1.16, written by Peter Selinger 2001-2019
</metadata>
<g transform="translate(0.000000,36.000000) scale(0.100000,-0.100000)"
fill="#000000" stroke="none">
<path d="M90 331 l0 -29 -16 -6 -16 -6 -29 0 -29 0 0 -42 0 -43 9 -14 9 -13
13 4 14 5 13 -14 13 -13 -6 -20 -6 -20 -19 0 -19 0 -10 -37 -11 -38 0 -12 0
-11 31 -11 32 -11 27 0 28 0 6 16 6 16 0 29 0 30 9 -5 8 -6 -5 -26 -5 -26 14
-9 14 -9 35 0 35 0 23 6 22 6 0 43 0 43 34 6 34 7 6 15 6 16 0 15 0 14 -14 15
-15 14 -23 0 -24 0 4 40 4 40 -16 0 -17 0 -34 -14 -35 -15 -4 22 -5 22 -6 28
-5 27 -40 0 -40 0 0 -29z"/>
</g>
</svg>
