<?xml version="1.0" standalone="no"?>
<!DOCTYPE svg PUBLIC "-//W3C//DTD SVG 20010904//EN"
 "http://www.w3.org/TR/2001/REC-SVG-20010904/DTD/svg10.dtd">
<svg version="1.0" xmlns="http://www.w3.org/2000/svg"
 width="27.000000pt" height="33.000000pt" viewBox="0 0 27.000000 33.000000"
 preserveAspectRatio="xMidYMid meet">
<metadata>
Created by potrace 1.16, written by Peter Selinger 2001-2019
</metadata>
<g transform="translate(0.000000,33.000000) scale(0.100000,-0.100000)"
fill="#000000" stroke="none">
<path d="M169 323 l-1 -8 -2 -15 -3 -15 -1 -17 -2 -18 -31 0 -32 0 6 35 6 35
-50 0 -49 0 0 -24 0 -24 -6 -16 -6 -16 25 0 25 0 16 -6 16 -6 0 -24 0 -24 -23
-6 -24 -5 -11 -47 -10 -47 4 -4 4 -4 37 -6 38 -6 3 -22 3 -22 18 -6 18 -5 16
5 15 6 6 24 6 23 -7 18 -6 17 29 -7 29 -7 16 -5 16 -5 7 32 6 31 0 14 0 14
-23 0 -24 0 -22 19 -23 20 7 20 6 21 17 2 17 1 18 -1 17 -2 0 39 0 39 -16 6
-16 6 -29 0 -29 0 -1 -7z"/>
</g>
</svg>
