<?xml version="1.0" standalone="no"?>
<!DOCTYPE svg PUBLIC "-//W3C//DTD SVG 20010904//EN"
 "http://www.w3.org/TR/2001/REC-SVG-20010904/DTD/svg10.dtd">
<svg version="1.0" xmlns="http://www.w3.org/2000/svg"
 width="29.000000pt" height="35.000000pt" viewBox="0 0 29.000000 35.000000"
 preserveAspectRatio="xMidYMid meet">
<metadata>
Created by potrace 1.16, written by Peter Selinger 2001-2019
</metadata>
<g transform="translate(0.000000,35.000000) scale(0.100000,-0.100000)"
fill="#000000" stroke="none">
<path d="M4 296 l-1 -56 23 0 22 0 16 -6 16 -6 0 -14 0 -14 -24 -6 -23 -5 -12
-56 -13 -55 6 -5 6 -6 37 -6 38 -6 3 -22 3 -22 20 -6 20 -7 24 6 24 6 7 36 6
35 38 -6 37 -6 7 32 6 32 0 23 0 24 -23 0 -24 0 -20 18 -20 17 4 13 5 12 34 0
34 0 0 50 0 50 -24 6 -23 5 -34 -3 -34 -3 -1 -20 -2 -20 -1 -17 -1 -18 -20 0
-21 0 7 35 6 35 -43 0 -44 0 -20 6 -21 5 0 -55z"/>
</g>
</svg>
