<?xml version="1.0" standalone="no"?>
<!DOCTYPE svg PUBLIC "-//W3C//DTD SVG 20010904//EN"
 "http://www.w3.org/TR/2001/REC-SVG-20010904/DTD/svg10.dtd">
<svg version="1.0" xmlns="http://www.w3.org/2000/svg"
 width="29.000000pt" height="37.000000pt" viewBox="0 0 29.000000 37.000000"
 preserveAspectRatio="xMidYMid meet">
<metadata>
Created by potrace 1.16, written by Peter Selinger 2001-2019
</metadata>
<g transform="translate(0.000000,37.000000) scale(0.100000,-0.100000)"
fill="#000000" stroke="none">
<path d="M20 311 l0 -59 35 -6 35 -7 0 -24 0 -24 -23 -7 -22 -8 -24 3 -24 3 8
-47 7 -48 5 -13 5 -14 33 0 33 0 12 -30 12 -30 32 0 31 0 18 24 18 24 41 6 40
7 -6 22 -6 22 0 43 0 42 -26 0 -25 0 -15 14 -14 15 0 9 0 10 16 6 16 6 24 0
24 0 0 14 0 13 6 32 7 31 -62 0 -61 0 0 -29 0 -29 -14 -5 -14 -6 -6 15 -6 16
0 18 0 18 -16 6 -16 6 -24 0 -24 0 0 10 0 10 -15 0 -15 0 0 -59z"/>
</g>
</svg>
