<?xml version="1.0" standalone="no"?>
<!DOCTYPE svg PUBLIC "-//W3C//DTD SVG 20010904//EN"
 "http://www.w3.org/TR/2001/REC-SVG-20010904/DTD/svg10.dtd">
<svg version="1.0" xmlns="http://www.w3.org/2000/svg"
 width="29.000000pt" height="37.000000pt" viewBox="0 0 29.000000 37.000000"
 preserveAspectRatio="xMidYMid meet">
<metadata>
Created by potrace 1.16, written by Peter Selinger 2001-2019
</metadata>
<g transform="translate(0.000000,37.000000) scale(0.100000,-0.100000)"
fill="#000000" stroke="none">
<path d="M242 355 l-13 -15 -29 0 -28 0 -7 -29 -6 -29 -14 -6 -13 -5 -6 15 -6
16 0 23 0 23 -57 5 -58 4 -2 -1 -1 -1 5 -47 6 -48 15 0 15 0 19 -22 19 -23
-10 -3 -11 -4 0 -14 0 -14 -25 0 -25 0 0 -55 0 -55 40 0 40 0 0 -19 0 -19 6
-16 6 -16 30 0 29 0 15 14 14 15 0 14 0 15 40 7 40 7 0 28 0 27 -6 33 -7 32
-23 10 -24 11 0 9 0 9 14 15 15 14 20 0 21 0 0 33 0 32 6 23 6 22 -18 0 -19
-1 -13 -14z"/>
</g>
</svg>
