<?xml version="1.0" standalone="no"?>
<!DOCTYPE svg PUBLIC "-//W3C//DTD SVG 20010904//EN"
 "http://www.w3.org/TR/2001/REC-SVG-20010904/DTD/svg10.dtd">
<svg version="1.0" xmlns="http://www.w3.org/2000/svg"
 width="37.000000pt" height="35.000000pt" viewBox="0 0 37.000000 35.000000"
 preserveAspectRatio="xMidYMid meet">
<metadata>
Created by potrace 1.16, written by Peter Selinger 2001-2019
</metadata>
<g transform="translate(0.000000,35.000000) scale(0.100000,-0.100000)"
fill="#000000" stroke="none">
<path d="M222 343 l-42 -4 5 -10 6 -9 -6 -19 -6 -19 -15 -6 -16 -6 -24 6 -24
6 0 29 0 29 -40 0 -40 0 0 -46 0 -46 25 6 26 7 15 -16 15 -15 -6 -20 -6 -20
-17 -2 -17 -1 -20 -1 -20 -1 1 -18 1 -17 1 -34 2 -35 43 -3 42 -3 -2 -31 -3
-32 16 -6 16 -6 24 6 24 6 0 23 0 23 40 7 40 7 15 15 15 14 6 27 6 27 4 13 3
12 25 0 24 0 6 23 6 22 0 7 0 7 -37 7 -38 7 -7 11 -8 11 0 38 0 37 -7 -2 -8
-1 -43 -4z"/>
</g>
</svg>
