<?xml version="1.0" standalone="no"?>
<!DOCTYPE svg PUBLIC "-//W3C//DTD SVG 20010904//EN"
 "http://www.w3.org/TR/2001/REC-SVG-20010904/DTD/svg10.dtd">
<svg version="1.0" xmlns="http://www.w3.org/2000/svg"
 width="27.000000pt" height="35.000000pt" viewBox="0 0 27.000000 35.000000"
 preserveAspectRatio="xMidYMid meet">
<metadata>
Created by potrace 1.16, written by Peter Selinger 2001-2019
</metadata>
<g transform="translate(0.000000,35.000000) scale(0.100000,-0.100000)"
fill="#000000" stroke="none">
<path d="M242 335 l-13 -15 -29 0 -28 0 -7 -30 -6 -29 -21 -7 -20 -6 -9 13 -9
14 0 28 0 27 -45 0 -45 0 0 -35 0 -35 16 0 17 0 18 -22 19 -21 0 -14 0 -13
-10 0 -10 0 0 -15 0 -15 -25 0 -25 0 0 -45 0 -45 40 0 40 0 0 -19 0 -19 6 -16
6 -16 20 0 19 0 16 15 15 16 -5 13 -6 14 45 7 44 6 0 18 0 18 -6 33 -7 32 -23
10 -24 11 0 19 0 19 14 15 15 14 19 0 20 0 4 45 3 45 -5 0 -5 -1 -13 -14z"/>
</g>
</svg>
