<?xml version="1.0" standalone="no"?>
<!DOCTYPE svg PUBLIC "-//W3C//DTD SVG 20010904//EN"
 "http://www.w3.org/TR/2001/REC-SVG-20010904/DTD/svg10.dtd">
<svg version="1.0" xmlns="http://www.w3.org/2000/svg"
 width="27.000000pt" height="35.000000pt" viewBox="0 0 27.000000 35.000000"
 preserveAspectRatio="xMidYMid meet">
<metadata>
Created by potrace 1.16, written by Peter Selinger 2001-2019
</metadata>
<g transform="translate(0.000000,35.000000) scale(0.100000,-0.100000)"
fill="#000000" stroke="none">
<path d="M20 291 l0 -39 35 -6 35 -7 0 -33 0 -33 -26 -12 -26 -12 -20 7 -20 6
7 -34 6 -33 5 -16 5 -17 12 1 12 0 21 -1 22 -2 12 -30 12 -30 22 0 21 0 18 24
18 24 37 6 37 5 -3 56 -4 55 -25 0 -24 0 -15 14 -14 15 0 19 0 20 16 6 16 6
24 0 24 0 0 19 0 19 6 16 6 16 -51 0 -51 0 0 -29 0 -30 -21 -6 -21 -7 -9 13
-9 14 0 21 0 22 -16 6 -16 6 -29 0 -29 0 0 -39z"/>
</g>
</svg>
