<?xml version="1.0" standalone="no"?>
<!DOCTYPE svg PUBLIC "-//W3C//DTD SVG 20010904//EN"
 "http://www.w3.org/TR/2001/REC-SVG-20010904/DTD/svg10.dtd">
<svg version="1.0" xmlns="http://www.w3.org/2000/svg"
 width="34.000000pt" height="35.000000pt" viewBox="0 0 34.000000 35.000000"
 preserveAspectRatio="xMidYMid meet">
<metadata>
Created by potrace 1.16, written by Peter Selinger 2001-2019
</metadata>
<g transform="translate(0.000000,35.000000) scale(0.100000,-0.100000)"
fill="#000000" stroke="none">
<path d="M7 343 l-7 -6 0 -44 0 -43 19 0 19 0 16 -6 16 -6 0 -24 0 -24 -29 0
-29 0 -6 -22 -6 -23 0 -32 0 -33 35 0 35 0 0 -26 0 -25 14 -15 15 -14 14 0 15
0 16 6 16 6 0 14 0 14 11 0 11 0 -5 20 -5 20 30 0 29 0 15 14 14 15 0 36 0 36
18 -5 18 -6 22 20 22 21 0 13 0 14 -16 6 -16 6 -18 0 -18 0 -6 16 -6 16 0 34
0 34 -123 0 -124 0 -6 -7z"/>
</g>
</svg>
