<?xml version="1.0" standalone="no"?>
<!DOCTYPE svg PUBLIC "-//W3C//DTD SVG 20010904//EN"
 "http://www.w3.org/TR/2001/REC-SVG-20010904/DTD/svg10.dtd">
<svg version="1.0" xmlns="http://www.w3.org/2000/svg"
 width="36.000000pt" height="37.000000pt" viewBox="0 0 36.000000 37.000000"
 preserveAspectRatio="xMidYMid meet">
<metadata>
Created by potrace 1.16, written by Peter Selinger 2001-2019
</metadata>
<g transform="translate(0.000000,37.000000) scale(0.100000,-0.100000)"
fill="#000000" stroke="none">
<path d="M7 363 l-7 -6 0 -54 0 -53 19 0 19 0 16 -6 16 -6 0 -14 0 -14 -29 0
-29 0 -6 -22 -6 -23 0 -42 0 -43 35 0 35 0 0 -26 0 -25 14 -15 15 -14 24 0 25
0 16 6 16 6 0 14 0 14 10 0 10 0 0 20 0 20 26 0 25 0 15 14 14 15 0 30 0 31
18 0 18 0 22 20 22 21 0 23 0 24 -16 6 -16 6 -18 0 -18 0 -6 16 -6 16 0 34 0
34 -133 0 -134 0 -6 -7z"/>
</g>
</svg>
