<?xml version="1.0" standalone="no"?>
<!DOCTYPE svg PUBLIC "-//W3C//DTD SVG 20010904//EN"
 "http://www.w3.org/TR/2001/REC-SVG-20010904/DTD/svg10.dtd">
<svg version="1.0" xmlns="http://www.w3.org/2000/svg"
 width="39.000000pt" height="37.000000pt" viewBox="0 0 39.000000 37.000000"
 preserveAspectRatio="xMidYMid meet">
<metadata>
Created by potrace 1.16, written by Peter Selinger 2001-2019
</metadata>
<g transform="translate(0.000000,37.000000) scale(0.100000,-0.100000)"
fill="#000000" stroke="none">
<path d="M0 356 l0 -16 10 0 10 0 0 -46 0 -46 28 4 28 4 11 -12 11 -11 -8 -13
-8 -13 -31 1 -31 1 -5 -9 -5 -9 6 -55 7 -55 41 -3 41 -3 -3 -32 -3 -31 21 -7
20 -6 30 6 30 7 0 23 0 23 40 7 40 7 15 15 15 14 6 27 6 27 4 13 3 12 25 0 24
0 6 23 6 22 0 17 0 17 -37 7 -38 7 -7 11 -8 11 0 39 0 39 -31 -7 -31 -6 -30 0
-30 0 5 -20 5 -20 -14 -14 -14 -14 -20 5 -20 5 0 29 0 29 -29 0 -28 0 -32 6
-31 7 0 -17z"/>
</g>
</svg>
