<?xml version="1.0" standalone="no"?>
<!DOCTYPE svg PUBLIC "-//W3C//DTD SVG 20010904//EN"
 "http://www.w3.org/TR/2001/REC-SVG-20010904/DTD/svg10.dtd">
<svg version="1.0" xmlns="http://www.w3.org/2000/svg"
 width="36.000000pt" height="43.000000pt" viewBox="0 0 36.000000 43.000000"
 preserveAspectRatio="xMidYMid meet">
<metadata>
Created by potrace 1.16, written by Peter Selinger 2001-2019
</metadata>
<g transform="translate(0.000000,43.000000) scale(0.100000,-0.100000)"
fill="#000000" stroke="none">
<path d="M43 399 l-5 -29 -9 0 -9 0 0 -10 0 -10 43 0 42 -1 -18 -10 -19 -11
-34 6 -34 7 0 -41 0 -41 14 -15 15 -14 20 0 21 0 0 -24 0 -24 -29 -7 -29 -6
-5 -42 -6 -42 11 -6 11 -7 37 5 38 5 0 -25 0 -26 15 -15 16 -16 10 0 10 0 15
16 16 15 0 25 0 24 28 0 27 0 23 6 22 6 0 39 0 39 18 0 19 0 22 19 23 20 -6
19 -6 19 -33 9 -32 10 -3 37 -3 37 -42 0 -42 0 -12 8 -11 7 -4 30 -3 30 -25 0
-25 0 -5 -30 -6 -30 -7 18 -7 19 0 17 0 17 -20 1 -21 2 -6 -30z"/>
</g>
</svg>
