<?xml version="1.0" standalone="no"?>
<!DOCTYPE svg PUBLIC "-//W3C//DTD SVG 20010904//EN"
 "http://www.w3.org/TR/2001/REC-SVG-20010904/DTD/svg10.dtd">
<svg version="1.0" xmlns="http://www.w3.org/2000/svg"
 width="38.000000pt" height="45.000000pt" viewBox="0 0 38.000000 45.000000"
 preserveAspectRatio="xMidYMid meet">
<metadata>
Created by potrace 1.16, written by Peter Selinger 2001-2019
</metadata>
<g transform="translate(0.000000,45.000000) scale(0.100000,-0.100000)"
fill="#000000" stroke="none">
<path d="M44 420 l-6 -30 -9 0 -9 0 0 -15 0 -15 -10 0 -10 0 0 -51 0 -50 14
-15 15 -14 20 0 21 0 0 -14 0 -14 -29 -7 -29 -6 -6 -51 -7 -51 13 -9 13 -8 31
5 32 5 6 -26 7 -26 14 -14 14 -14 20 0 20 0 15 16 16 15 0 25 0 24 28 0 27 0
23 6 22 6 0 39 0 39 18 0 19 0 21 19 22 18 0 19 0 19 -8 11 -7 11 -30 10 -30
10 -3 36 -3 37 -42 0 -42 0 -12 8 -11 7 -4 30 -3 30 -38 0 -37 0 0 8 0 7 -30
0 -30 0 -6 -30z"/>
</g>
</svg>
