<?xml version="1.0" standalone="no"?>
<!DOCTYPE svg PUBLIC "-//W3C//DTD SVG 20010904//EN"
 "http://www.w3.org/TR/2001/REC-SVG-20010904/DTD/svg10.dtd">
<svg version="1.0" xmlns="http://www.w3.org/2000/svg"
 width="33.000000pt" height="34.000000pt" viewBox="0 0 33.000000 34.000000"
 preserveAspectRatio="xMidYMid meet">
<metadata>
Created by potrace 1.16, written by Peter Selinger 2001-2019
</metadata>
<g transform="translate(0.000000,34.000000) scale(0.100000,-0.100000)"
fill="#000000" stroke="none">
<path d="M70 303 l0 -38 -9 -14 -9 -14 -14 6 -15 5 -13 -8 -13 -8 7 -27 7 -27
34 6 33 7 7 -20 6 -20 -7 -36 -6 -35 25 0 25 0 16 -6 16 -6 0 -22 0 -21 9 -14
9 -13 21 7 21 6 0 30 0 29 49 0 48 0 7 37 6 38 0 15 0 15 -29 1 -29 1 -17 16
-16 17 6 20 6 20 32 8 32 8 3 18 4 17 -5 14 -6 13 -39 -10 -40 -10 -6 -29 -6
-29 -28 0 -28 0 -12 12 -12 12 0 33 0 33 -35 0 -35 0 0 -37z"/>
</g>
</svg>
