<?xml version="1.0" standalone="no"?>
<!DOCTYPE svg PUBLIC "-//W3C//DTD SVG 20010904//EN"
 "http://www.w3.org/TR/2001/REC-SVG-20010904/DTD/svg10.dtd">
<svg version="1.0" xmlns="http://www.w3.org/2000/svg"
 width="35.000000pt" height="36.000000pt" viewBox="0 0 35.000000 36.000000"
 preserveAspectRatio="xMidYMid meet">
<metadata>
Created by potrace 1.16, written by Peter Selinger 2001-2019
</metadata>
<g transform="translate(0.000000,36.000000) scale(0.100000,-0.100000)"
fill="#000000" stroke="none">
<path d="M70 326 l0 -34 -6 -16 -6 -16 -9 6 -9 5 -20 -6 -20 -6 0 -27 0 -27 9
-14 9 -14 31 5 30 4 5 -12 4 -12 -5 -41 -6 -41 26 0 25 0 16 -6 16 -6 0 -18 0
-18 6 -16 6 -16 18 0 18 0 16 6 16 6 0 29 0 29 49 0 48 0 7 37 6 38 0 27 0 27
-29 -1 -29 -1 -15 15 -15 15 7 12 8 12 29 8 29 7 3 33 3 34 -9 9 -9 9 -45 -11
-46 -12 -6 -29 -6 -29 -18 0 -18 0 -12 12 -12 12 0 33 0 33 -45 0 -45 0 0 -34z"/>
</g>
</svg>
