<?xml version="1.0" standalone="no"?>
<!DOCTYPE svg PUBLIC "-//W3C//DTD SVG 20010904//EN"
 "http://www.w3.org/TR/2001/REC-SVG-20010904/DTD/svg10.dtd">
<svg version="1.0" xmlns="http://www.w3.org/2000/svg"
 width="34.000000pt" height="36.000000pt" viewBox="0 0 34.000000 36.000000"
 preserveAspectRatio="xMidYMid meet">
<metadata>
Created by potrace 1.16, written by Peter Selinger 2001-2019
</metadata>
<g transform="translate(0.000000,36.000000) scale(0.100000,-0.100000)"
fill="#000000" stroke="none">
<path d="M179 348 l-1 -13 2 -14 2 -14 -14 -8 -13 -9 -42 0 -43 0 0 -44 0 -44
-16 -6 -16 -6 -10 6 -10 7 -8 -13 -8 -12 5 -19 5 -18 19 -6 18 -6 6 -37 7 -37
3 -13 4 -12 30 0 29 0 16 6 16 6 0 29 0 29 29 0 29 0 6 -16 6 -16 0 -21 0 -22
9 -14 9 -14 34 13 33 14 13 12 12 13 0 39 0 40 -16 6 -16 6 -24 0 -24 0 0 28
0 29 28 -5 29 -4 12 30 13 30 -4 24 -3 23 -47 -3 -48 -4 0 12 0 11 -11 -7 -11
-6 4 28 3 29 -22 3 -23 3 -1 -13z"/>
</g>
</svg>
