<?xml version="1.0" standalone="no"?>
<!DOCTYPE svg PUBLIC "-//W3C//DTD SVG 20010904//EN"
 "http://www.w3.org/TR/2001/REC-SVG-20010904/DTD/svg10.dtd">
<svg version="1.0" xmlns="http://www.w3.org/2000/svg"
 width="27.000000pt" height="34.000000pt" viewBox="0 0 27.000000 34.000000"
 preserveAspectRatio="xMidYMid meet">
<metadata>
Created by potrace 1.16, written by Peter Selinger 2001-2019
</metadata>
<g transform="translate(0.000000,34.000000) scale(0.100000,-0.100000)"
fill="#000000" stroke="none">
<path d="M99 338 l-1 -3 -2 -28 -2 -28 -14 -9 -15 -10 -32 0 -33 0 0 -39 0
-39 35 -6 35 -7 0 -34 0 -35 -30 0 -30 0 0 -34 0 -34 -6 -16 -6 -16 40 0 40 0
16 6 16 6 0 27 0 28 6 6 7 6 17 -9 18 -10 -5 -19 -5 -20 23 -6 24 -5 20 -2 20
-1 18 1 17 2 0 39 0 39 -12 10 -13 10 -20 4 -20 3 -3 23 -3 22 16 -6 16 -6 20
23 20 23 -3 35 -3 35 -48 12 -49 12 -5 5 -5 5 -2 19 -3 18 -26 3 -27 3 -1 -3z"/>
</g>
</svg>
