<?xml version="1.0" standalone="no"?>
<!DOCTYPE svg PUBLIC "-//W3C//DTD SVG 20010904//EN"
 "http://www.w3.org/TR/2001/REC-SVG-20010904/DTD/svg10.dtd">
<svg version="1.0" xmlns="http://www.w3.org/2000/svg"
 width="29.000000pt" height="36.000000pt" viewBox="0 0 29.000000 36.000000"
 preserveAspectRatio="xMidYMid meet">
<metadata>
Created by potrace 1.16, written by Peter Selinger 2001-2019
</metadata>
<g transform="translate(0.000000,36.000000) scale(0.100000,-0.100000)"
fill="#000000" stroke="none">
<path d="M94 346 l-6 -15 6 -10 6 -9 -16 -16 -15 -16 -35 0 -34 0 0 -49 0 -49
35 -6 35 -7 0 -24 0 -25 -30 0 -30 0 0 -29 0 -29 -6 -31 -6 -31 50 0 50 0 16
6 16 6 0 29 0 29 10 0 10 0 0 -25 0 -25 28 -6 27 -6 17 -4 16 -5 27 7 26 6 -3
51 -3 50 -15 8 -15 8 -20 7 -20 7 20 5 20 4 17 21 18 20 0 44 0 44 -12 4 -13
4 -42 11 -42 10 -3 23 -3 22 -38 3 -37 3 -6 -15z"/>
</g>
</svg>
