<?xml version="1.0" standalone="no"?>
<!DOCTYPE svg PUBLIC "-//W3C//DTD SVG 20010904//EN"
 "http://www.w3.org/TR/2001/REC-SVG-20010904/DTD/svg10.dtd">
<svg version="1.0" xmlns="http://www.w3.org/2000/svg"
 width="36.000000pt" height="38.000000pt" viewBox="0 0 36.000000 38.000000"
 preserveAspectRatio="xMidYMid meet">
<metadata>
Created by potrace 1.16, written by Peter Selinger 2001-2019
</metadata>
<g transform="translate(0.000000,38.000000) scale(0.100000,-0.100000)"
fill="#000000" stroke="none">
<path d="M175 361 l-6 -21 5 -9 6 -9 -16 -6 -16 -6 -39 0 -39 0 0 -45 0 -45
-29 0 -29 0 -6 -16 -6 -16 6 -23 6 -24 19 -6 18 -6 6 -37 7 -37 3 -12 4 -13
40 0 39 0 16 6 16 6 0 29 0 29 20 0 20 0 5 -27 6 -28 5 -22 4 -23 20 0 19 0
28 12 28 13 13 12 12 12 0 49 0 50 -16 6 -16 6 -24 0 -24 0 0 15 0 15 29 0 29
0 12 29 11 29 -3 33 -3 34 -43 -3 -43 -2 -12 12 -12 13 0 20 0 20 -32 3 -31 3
-7 -20z"/>
</g>
</svg>
