<?xml version="1.0" standalone="no"?>
<!DOCTYPE svg PUBLIC "-//W3C//DTD SVG 20010904//EN"
 "http://www.w3.org/TR/2001/REC-SVG-20010904/DTD/svg10.dtd">
<svg version="1.0" xmlns="http://www.w3.org/2000/svg"
 width="36.000000pt" height="41.000000pt" viewBox="0 0 36.000000 41.000000"
 preserveAspectRatio="xMidYMid meet">
<metadata>
Created by potrace 1.16, written by Peter Selinger 2001-2019
</metadata>
<g transform="translate(0.000000,41.000000) scale(0.100000,-0.100000)"
fill="#000000" stroke="none">
<path d="M156 403 l-6 -6 0 -23 0 -22 -6 -16 -6 -16 -59 0 -59 0 0 -32 1 -33
14 -18 14 -19 20 7 21 6 0 -20 0 -21 -22 0 -23 0 -22 -6 -23 -6 0 -14 0 -14
12 -40 13 -40 51 0 52 0 -5 -19 -5 -18 17 -17 16 -16 14 0 14 0 5 18 6 18 49
13 49 12 6 31 6 30 0 28 0 28 30 7 30 7 0 14 0 14 -21 0 -20 0 -15 14 -14 15
0 37 0 37 -36 -6 -36 -6 -14 14 -15 14 7 25 6 24 -20 11 -19 10 -7 -6z"/>
</g>
</svg>
