<?xml version="1.0" standalone="no"?>
<!DOCTYPE svg PUBLIC "-//W3C//DTD SVG 20010904//EN"
 "http://www.w3.org/TR/2001/REC-SVG-20010904/DTD/svg10.dtd">
<svg version="1.0" xmlns="http://www.w3.org/2000/svg"
 width="38.000000pt" height="43.000000pt" viewBox="0 0 38.000000 43.000000"
 preserveAspectRatio="xMidYMid meet">
<metadata>
Created by potrace 1.16, written by Peter Selinger 2001-2019
</metadata>
<g transform="translate(0.000000,43.000000) scale(0.100000,-0.100000)"
fill="#000000" stroke="none">
<path d="M157 423 l-7 -6 0 -23 0 -22 -6 -16 -6 -16 -59 0 -59 0 0 -42 1 -43
13 -17 13 -18 24 -1 24 -1 -10 -3 -10 -3 -37 -7 -38 -6 0 -25 0 -24 12 -40 13
-40 47 0 48 0 0 -19 0 -20 16 -15 15 -16 24 0 24 0 5 18 6 18 49 13 49 12 6
31 6 30 0 28 0 28 30 7 30 7 0 24 0 24 -21 0 -20 0 -15 14 -14 15 0 36 0 37
-39 -4 -38 -3 -9 10 -9 10 3 24 4 25 -18 13 -18 13 -11 0 -12 0 -6 -7z"/>
</g>
</svg>
