<?xml version="1.0" standalone="no"?>
<!DOCTYPE svg PUBLIC "-//W3C//DTD SVG 20010904//EN"
 "http://www.w3.org/TR/2001/REC-SVG-20010904/DTD/svg10.dtd">
<svg version="1.0" xmlns="http://www.w3.org/2000/svg"
 width="28.000000pt" height="37.000000pt" viewBox="0 0 28.000000 37.000000"
 preserveAspectRatio="xMidYMid meet">
<metadata>
Created by potrace 1.16, written by Peter Selinger 2001-2019
</metadata>
<g transform="translate(0.000000,37.000000) scale(0.100000,-0.100000)"
fill="#000000" stroke="none">
<path d="M10 315 l0 -56 23 1 22 2 11 -1 12 -1 6 -15 5 -14 -15 -16 -15 -15
-30 0 -29 0 1 -55 2 -55 38 0 39 0 0 -26 0 -27 22 -18 21 -19 23 0 23 0 15 16
16 15 0 25 0 24 34 0 35 0 6 10 6 10 -13 55 -13 55 -18 0 -18 0 -15 14 -14 15
0 6 0 6 14 15 15 14 30 0 31 0 0 46 0 46 -26 -6 -26 -7 -29 -6 -29 -5 0 -23 0
-23 -19 -5 -19 -5 -8 7 -9 6 0 30 0 30 -52 3 -53 3 0 -56z"/>
</g>
</svg>
