<?xml version="1.0" standalone="no"?>
<!DOCTYPE svg PUBLIC "-//W3C//DTD SVG 20010904//EN"
 "http://www.w3.org/TR/2001/REC-SVG-20010904/DTD/svg10.dtd">
<svg version="1.0" xmlns="http://www.w3.org/2000/svg"
 width="28.000000pt" height="27.000000pt" viewBox="0 0 28.000000 27.000000"
 preserveAspectRatio="xMidYMid meet">
<metadata>
Created by potrace 1.16, written by Peter Selinger 2001-2019
</metadata>
<g transform="translate(0.000000,27.000000) scale(0.100000,-0.100000)"
fill="#000000" stroke="none">
<path d="M10 221 l0 -49 35 -6 35 -7 0 -10 0 -10 -14 -15 -15 -14 -19 0 -20 0
-5 -14 -5 -14 5 -41 6 -41 133 0 134 0 0 50 0 50 -22 0 -23 0 -11 8 -11 7 -8
24 -7 23 13 9 14 9 21 0 22 0 7 36 6 37 -9 9 -10 10 -52 -7 -52 -7 5 -17 4
-17 -13 -12 -13 -12 -10 0 -9 0 -6 16 -6 16 0 19 0 19 -50 0 -50 0 0 -49z"/>
</g>
</svg>
