<?xml version="1.0" standalone="no"?>
<!DOCTYPE svg PUBLIC "-//W3C//DTD SVG 20010904//EN"
 "http://www.w3.org/TR/2001/REC-SVG-20010904/DTD/svg10.dtd">
<svg version="1.0" xmlns="http://www.w3.org/2000/svg"
 width="41.000000pt" height="27.000000pt" viewBox="0 0 41.000000 27.000000"
 preserveAspectRatio="xMidYMid meet">
<metadata>
Created by potrace 1.16, written by Peter Selinger 2001-2019
</metadata>
<g transform="translate(0.000000,27.000000) scale(0.100000,-0.100000)"
fill="#000000" stroke="none">
<path d="M70 231 l0 -39 -6 -16 -6 -16 -29 0 -29 0 0 -21 0 -22 39 7 39 6 6
-16 6 -17 -6 -48 -7 -49 19 0 18 0 33 12 33 12 -3 30 -2 31 19 0 20 0 8 -31 8
-31 41 -6 41 -5 14 5 14 5 10 38 10 38 25 6 25 6 0 33 0 32 -9 13 -8 13 -29
-3 -29 -3 -3 38 -3 39 -15 -6 -16 -6 -29 0 -29 0 0 -24 0 -25 -16 -15 -15 -16
-13 0 -13 0 -23 20 -22 19 4 26 5 25 -38 0 -39 0 0 -39z"/>
</g>
</svg>
