<?xml version="1.0" standalone="no"?>
<!DOCTYPE svg PUBLIC "-//W3C//DTD SVG 20010904//EN"
 "http://www.w3.org/TR/2001/REC-SVG-20010904/DTD/svg10.dtd">
<svg version="1.0" xmlns="http://www.w3.org/2000/svg"
 width="43.000000pt" height="29.000000pt" viewBox="0 0 43.000000 29.000000"
 preserveAspectRatio="xMidYMid meet">
<metadata>
Created by potrace 1.16, written by Peter Selinger 2001-2019
</metadata>
<g transform="translate(0.000000,29.000000) scale(0.100000,-0.100000)"
fill="#000000" stroke="none">
<path d="M70 251 l0 -39 -6 -16 -6 -16 -29 0 -29 0 0 -31 0 -31 40 4 40 4 4
-11 3 -10 -5 -52 -5 -53 28 0 29 0 33 12 34 12 -3 26 -2 25 9 3 10 2 7 -29 8
-28 49 -7 48 -6 17 6 16 6 10 38 10 38 25 6 25 6 0 39 0 39 -6 16 -6 16 -34 0
-34 0 0 36 0 37 -31 -7 -31 -6 -24 0 -24 0 0 -24 0 -25 -16 -15 -15 -16 -3 0
-3 0 -22 19 -22 19 7 26 6 26 -51 0 -51 0 0 -39z"/>
</g>
</svg>
