<?xml version="1.0" standalone="no"?>
<!DOCTYPE svg PUBLIC "-//W3C//DTD SVG 20010904//EN"
 "http://www.w3.org/TR/2001/REC-SVG-20010904/DTD/svg10.dtd">
<svg version="1.0" xmlns="http://www.w3.org/2000/svg"
 width="26.000000pt" height="35.000000pt" viewBox="0 0 26.000000 35.000000"
 preserveAspectRatio="xMidYMid meet">
<metadata>
Created by potrace 1.16, written by Peter Selinger 2001-2019
</metadata>
<g transform="translate(0.000000,35.000000) scale(0.100000,-0.100000)"
fill="#000000" stroke="none">
<path d="M10 305 l0 -45 24 6 23 5 17 -16 16 -16 0 -14 0 -14 -16 -15 -15 -16
-30 0 -29 0 2 -45 3 -45 41 0 41 0 -5 -25 -4 -26 22 -19 23 -20 13 0 13 0 15
16 16 15 0 25 0 24 34 0 35 0 4 8 5 7 -11 47 -12 48 -18 0 -18 0 -15 14 -14
15 0 16 0 16 14 15 15 14 30 0 31 0 0 34 0 33 -45 -10 -45 -10 0 -23 0 -22
-24 -6 -24 -6 -16 6 -16 6 3 32 2 31 -42 3 -43 3 0 -46z"/>
</g>
</svg>
