<?xml version="1.0" standalone="no"?>
<!DOCTYPE svg PUBLIC "-//W3C//DTD SVG 20010904//EN"
 "http://www.w3.org/TR/2001/REC-SVG-20010904/DTD/svg10.dtd">
<svg version="1.0" xmlns="http://www.w3.org/2000/svg"
 width="42.000000pt" height="40.000000pt" viewBox="0 0 42.000000 40.000000"
 preserveAspectRatio="xMidYMid meet">
<metadata>
Created by potrace 1.16, written by Peter Selinger 2001-2019
</metadata>
<g transform="translate(0.000000,40.000000) scale(0.100000,-0.100000)"
fill="#000000" stroke="none">
<path d="M187 393 l-4 -8 -7 -29 -7 -29 -50 6 -49 6 0 -51 0 -50 -27 6 -26 7
-8 -13 -9 -13 0 -21 0 -21 26 -12 26 -12 20 7 20 6 -7 -31 -6 -31 6 -20 6 -20
45 0 44 0 0 -29 0 -30 20 -6 20 -6 16 16 16 16 -6 30 -6 30 46 -7 46 -7 9 14
9 14 0 26 0 27 27 7 28 7 7 11 8 12 0 18 0 18 -15 15 -15 15 -17 -3 -18 -3 -3
40 -3 41 -34 -4 -35 -4 -26 6 -25 7 2 17 1 17 -1 13 -1 12 -19 0 -20 0 -4 -7z"/>
</g>
</svg>
