<?xml version="1.0" standalone="no"?>
<!DOCTYPE svg PUBLIC "-//W3C//DTD SVG 20010904//EN"
 "http://www.w3.org/TR/2001/REC-SVG-20010904/DTD/svg10.dtd">
<svg version="1.0" xmlns="http://www.w3.org/2000/svg"
 width="44.000000pt" height="42.000000pt" viewBox="0 0 44.000000 42.000000"
 preserveAspectRatio="xMidYMid meet">
<metadata>
Created by potrace 1.16, written by Peter Selinger 2001-2019
</metadata>
<g transform="translate(0.000000,42.000000) scale(0.100000,-0.100000)"
fill="#000000" stroke="none">
<path d="M187 413 l-4 -8 -7 -28 -7 -29 -49 7 -50 7 0 -50 0 -49 -26 5 -26 5
-9 -14 -9 -14 0 -31 0 -31 25 -11 26 -12 14 0 15 0 0 -29 0 -29 6 -16 6 -16
44 0 44 0 0 -29 0 -29 16 -6 16 -6 15 0 14 0 15 14 14 15 0 28 0 29 41 -4 41
-4 9 13 9 14 0 26 0 27 27 7 28 7 7 11 8 12 0 28 0 28 -14 15 -15 14 -20 0
-21 0 0 40 0 41 -35 -7 -35 -6 -25 6 -26 7 6 9 6 10 -6 20 -6 20 -29 0 -29 0
-4 -7z"/>
</g>
</svg>
