<?xml version="1.0" standalone="no"?>
<!DOCTYPE svg PUBLIC "-//W3C//DTD SVG 20010904//EN"
 "http://www.w3.org/TR/2001/REC-SVG-20010904/DTD/svg10.dtd">
<svg version="1.0" xmlns="http://www.w3.org/2000/svg"
 width="31.000000pt" height="42.000000pt" viewBox="0 0 31.000000 42.000000"
 preserveAspectRatio="xMidYMid meet">
<metadata>
Created by potrace 1.16, written by Peter Selinger 2001-2019
</metadata>
<g transform="translate(0.000000,42.000000) scale(0.100000,-0.100000)"
fill="#000000" stroke="none">
<path d="M147 413 l-7 -6 0 -18 0 -18 -17 -16 -16 -17 -44 7 -43 6 0 -41 0
-41 15 -15 14 -15 24 7 25 6 7 -11 6 -11 -6 -19 -6 -18 -45 -6 -45 -5 -5 -5
-5 -5 12 -40 12 -40 21 -6 21 -6 33 0 32 0 0 -27 0 -28 9 -14 9 -13 20 6 21 7
6 29 7 30 28 0 29 0 15 16 16 15 0 13 0 13 -6 30 -6 29 -29 11 -29 11 0 15 0
15 15 6 15 5 15 -5 14 -6 16 15 15 16 0 29 0 29 -17 19 -18 19 -33 3 -34 2
-14 14 -14 15 0 10 0 11 -13 0 -14 0 -6 -7z"/>
</g>
</svg>
