<?xml version="1.0" standalone="no"?>
<!DOCTYPE svg PUBLIC "-//W3C//DTD SVG 20010904//EN"
 "http://www.w3.org/TR/2001/REC-SVG-20010904/DTD/svg10.dtd">
<svg version="1.0" xmlns="http://www.w3.org/2000/svg"
 width="33.000000pt" height="44.000000pt" viewBox="0 0 33.000000 44.000000"
 preserveAspectRatio="xMidYMid meet">
<metadata>
Created by potrace 1.16, written by Peter Selinger 2001-2019
</metadata>
<g transform="translate(0.000000,44.000000) scale(0.100000,-0.100000)"
fill="#000000" stroke="none">
<path d="M147 433 l-7 -6 0 -18 0 -18 -15 -15 -16 -15 -44 6 -45 6 0 -52 0
-52 15 -15 15 -15 25 3 24 3 1 -7 0 -8 0 -9 0 -8 -45 -6 -46 -5 -6 -6 -7 -7
13 -47 12 -46 4 -5 5 -4 50 -5 50 -5 0 -22 0 -23 6 -16 6 -16 22 0 21 0 12 8
11 7 7 28 7 27 28 0 29 0 15 16 16 15 0 23 0 24 -6 29 -6 29 -31 14 -32 13 34
4 34 4 13 14 14 14 0 39 0 39 -17 20 -18 20 -33 1 -32 1 -15 15 -15 15 0 10 0
11 -23 0 -24 0 -6 -7z"/>
</g>
</svg>
