<?xml version="1.0" standalone="no"?>
<!DOCTYPE svg PUBLIC "-//W3C//DTD SVG 20010904//EN"
 "http://www.w3.org/TR/2001/REC-SVG-20010904/DTD/svg10.dtd">
<svg version="1.0" xmlns="http://www.w3.org/2000/svg"
 width="35.000000pt" height="34.000000pt" viewBox="0 0 35.000000 34.000000"
 preserveAspectRatio="xMidYMid meet">
<metadata>
Created by potrace 1.16, written by Peter Selinger 2001-2019
</metadata>
<g transform="translate(0.000000,34.000000) scale(0.100000,-0.100000)"
fill="#000000" stroke="none">
<path d="M126 331 l-7 -10 6 -23 6 -24 -34 -12 -33 -12 -17 0 -17 0 0 10 0 10
-9 0 -10 0 -6 -21 -7 -21 7 -34 6 -34 36 0 36 0 -7 -38 -6 -38 42 -3 42 -2 8
-5 8 -5 0 -29 0 -28 16 -6 16 -6 25 0 24 0 14 14 14 14 -6 36 -6 36 26 0 25 0
16 6 16 6 0 23 0 23 -16 6 -16 6 -19 0 -19 0 0 48 0 49 -17 0 -18 -1 -32 2
-32 2 -9 32 -8 33 -16 3 -16 3 -6 -10z"/>
</g>
</svg>
