<?xml version="1.0" standalone="no"?>
<!DOCTYPE svg PUBLIC "-//W3C//DTD SVG 20010904//EN"
 "http://www.w3.org/TR/2001/REC-SVG-20010904/DTD/svg10.dtd">
<svg version="1.0" xmlns="http://www.w3.org/2000/svg"
 width="37.000000pt" height="36.000000pt" viewBox="0 0 37.000000 36.000000"
 preserveAspectRatio="xMidYMid meet">
<metadata>
Created by potrace 1.16, written by Peter Selinger 2001-2019
</metadata>
<g transform="translate(0.000000,36.000000) scale(0.100000,-0.100000)"
fill="#000000" stroke="none">
<path d="M124 346 l-6 -16 5 -19 4 -18 -35 -13 -36 -13 -4 12 -4 11 -18 0 -18
0 -6 -16 -6 -16 0 -26 0 -27 6 -22 6 -23 34 0 34 0 -6 -39 -6 -40 48 -3 49 -3
3 -30 4 -30 11 -7 12 -8 38 0 38 0 16 15 15 16 -6 34 -7 35 25 0 24 0 16 6 16
6 0 33 0 33 -16 6 -16 6 -19 0 -19 0 0 51 0 50 -17 -2 -18 -1 -32 1 -32 1 -9
33 -8 32 -27 3 -27 3 -6 -15z"/>
</g>
</svg>
