<?xml version="1.0" standalone="no"?>
<!DOCTYPE svg PUBLIC "-//W3C//DTD SVG 20010904//EN"
 "http://www.w3.org/TR/2001/REC-SVG-20010904/DTD/svg10.dtd">
<svg version="1.0" xmlns="http://www.w3.org/2000/svg"
 width="35.000000pt" height="40.000000pt" viewBox="0 0 35.000000 40.000000"
 preserveAspectRatio="xMidYMid meet">
<metadata>
Created by potrace 1.16, written by Peter Selinger 2001-2019
</metadata>
<g transform="translate(0.000000,40.000000) scale(0.100000,-0.100000)"
fill="#000000" stroke="none">
<path d="M185 370 l6 -29 -25 -7 -26 -6 -35 4 -34 4 -3 -51 -3 -50 -14 3 -13
3 -19 -6 -19 -6 0 -14 0 -14 16 -16 17 -16 24 6 25 6 -7 -49 -7 -49 24 -7 23
-6 28 0 27 0 0 -29 0 -29 24 -6 24 -6 16 6 15 6 6 19 6 19 -6 10 -6 10 39 0
40 0 6 16 6 16 -10 38 -10 39 -23 3 -22 3 -3 28 -3 27 28 0 28 0 13 9 13 8 -3
34 -3 34 -44 -3 -44 -4 -8 14 -9 13 0 28 0 27 -31 0 -31 0 7 -30z"/>
</g>
</svg>
