<?xml version="1.0" standalone="no"?>
<!DOCTYPE svg PUBLIC "-//W3C//DTD SVG 20010904//EN"
 "http://www.w3.org/TR/2001/REC-SVG-20010904/DTD/svg10.dtd">
<svg version="1.0" xmlns="http://www.w3.org/2000/svg"
 width="37.000000pt" height="41.000000pt" viewBox="0 0 37.000000 41.000000"
 preserveAspectRatio="xMidYMid meet">
<metadata>
Created by potrace 1.16, written by Peter Selinger 2001-2019
</metadata>
<g transform="translate(0.000000,41.000000) scale(0.100000,-0.100000)"
fill="#000000" stroke="none">
<path d="M190 381 l0 -31 -25 -6 -26 -6 -29 6 -30 6 0 -49 0 -48 -40 -7 -40
-6 0 -9 0 -9 6 -16 6 -16 24 0 24 0 5 -25 5 -25 5 -25 5 -25 28 -5 27 -6 25
-8 25 -7 -3 -13 -3 -13 6 -19 6 -19 24 0 23 0 16 6 16 6 0 22 0 22 45 12 44
12 7 35 6 35 -6 25 -6 25 -32 -2 -32 -3 -4 16 -3 16 30 6 30 6 11 40 10 39 -6
16 -6 16 -5 0 -4 0 -15 -15 -15 -15 -20 0 -20 0 -14 14 -14 14 2 28 2 29 -32
3 -33 3 0 -30z"/>
</g>
</svg>
