<?xml version="1.0" standalone="no"?>
<!DOCTYPE svg PUBLIC "-//W3C//DTD SVG 20010904//EN"
 "http://www.w3.org/TR/2001/REC-SVG-20010904/DTD/svg10.dtd">
<svg version="1.0" xmlns="http://www.w3.org/2000/svg"
 width="37.000000pt" height="42.000000pt" viewBox="0 0 37.000000 42.000000"
 preserveAspectRatio="xMidYMid meet">
<metadata>
Created by potrace 1.16, written by Peter Selinger 2001-2019
</metadata>
<g transform="translate(0.000000,42.000000) scale(0.100000,-0.100000)"
fill="#000000" stroke="none">
<path d="M182 390 l5 -30 -24 -6 -23 -6 -35 6 -35 7 0 -51 0 -50 -19 0 -19 0
-16 -6 -16 -6 0 -23 0 -24 16 -15 15 -16 23 0 24 0 -5 -44 -5 -43 23 -6 24 -7
28 0 27 0 0 -29 0 -29 30 -7 30 -6 20 6 21 7 6 29 6 29 33 0 34 0 6 24 5 23
-10 41 -11 41 -23 3 -22 3 -3 18 -3 17 28 0 28 0 13 9 13 8 -3 44 -3 44 -44
-3 -44 -3 -9 13 -8 13 0 28 0 27 -41 0 -41 0 4 -30z"/>
</g>
</svg>
