<?xml version="1.0" standalone="no"?>
<!DOCTYPE svg PUBLIC "-//W3C//DTD SVG 20010904//EN"
 "http://www.w3.org/TR/2001/REC-SVG-20010904/DTD/svg10.dtd">
<svg version="1.0" xmlns="http://www.w3.org/2000/svg"
 width="39.000000pt" height="43.000000pt" viewBox="0 0 39.000000 43.000000"
 preserveAspectRatio="xMidYMid meet">
<metadata>
Created by potrace 1.16, written by Peter Selinger 2001-2019
</metadata>
<g transform="translate(0.000000,43.000000) scale(0.100000,-0.100000)"
fill="#000000" stroke="none">
<path d="M190 401 l0 -30 -20 -6 -19 -6 -36 7 -35 6 0 -50 0 -49 -40 -7 -40
-6 0 -19 0 -19 6 -16 6 -16 24 0 24 0 5 -25 5 -25 5 -25 5 -25 28 -5 27 -6 23
-5 22 -4 0 -19 0 -19 6 -16 6 -16 33 0 33 0 16 6 16 6 0 22 0 22 44 12 43 11
7 23 6 23 0 35 0 35 -9 14 -9 14 -26 -5 -26 -5 -5 7 -5 8 30 5 29 6 11 42 11
42 -5 23 -6 24 -20 0 -20 0 0 -9 0 -10 -20 -6 -20 -6 -13 13 -12 13 0 30 0 30
-42 3 -43 3 0 -30z"/>
</g>
</svg>
