<?xml version="1.0" standalone="no"?>
<!DOCTYPE svg PUBLIC "-//W3C//DTD SVG 20010904//EN"
 "http://www.w3.org/TR/2001/REC-SVG-20010904/DTD/svg10.dtd">
<svg version="1.0" xmlns="http://www.w3.org/2000/svg"
 width="45.000000pt" height="31.000000pt" viewBox="0 0 45.000000 31.000000"
 preserveAspectRatio="xMidYMid meet">
<metadata>
Created by potrace 1.16, written by Peter Selinger 2001-2019
</metadata>
<g transform="translate(0.000000,31.000000) scale(0.100000,-0.100000)"
fill="#000000" stroke="none">
<path d="M233 281 l7 -33 -13 -12 -12 -13 -13 5 -12 4 0 29 0 29 -56 0 -56 0
4 -50 3 -50 -30 0 -30 0 -13 -9 -14 -8 4 -19 3 -18 31 -8 32 -8 6 -24 6 -24
-6 -31 -6 -31 53 0 54 0 14 9 14 9 -5 26 -5 26 18 0 19 0 0 -24 0 -24 6 -16 6
-16 39 0 38 0 26 12 25 11 10 39 11 38 14 0 14 0 15 16 16 15 0 34 0 34 -37 7
-38 7 -7 11 -8 11 0 27 0 27 -7 4 -8 5 -59 7 -59 8 6 -32z"/>
</g>
</svg>
