<?xml version="1.0" standalone="no"?>
<!DOCTYPE svg PUBLIC "-//W3C//DTD SVG 20010904//EN"
 "http://www.w3.org/TR/2001/REC-SVG-20010904/DTD/svg10.dtd">
<svg version="1.0" xmlns="http://www.w3.org/2000/svg"
 width="43.000000pt" height="29.000000pt" viewBox="0 0 43.000000 29.000000"
 preserveAspectRatio="xMidYMid meet">
<metadata>
Created by potrace 1.16, written by Peter Selinger 2001-2019
</metadata>
<g transform="translate(0.000000,29.000000) scale(0.100000,-0.100000)"
fill="#000000" stroke="none">
<path d="M236 261 l6 -30 -16 -16 -16 -16 -20 6 -20 6 0 30 0 29 -46 0 -47 0
6 -50 6 -50 -32 0 -32 0 -14 -9 -14 -9 7 -10 6 -9 29 -6 30 -6 6 -35 7 -34 -7
-21 -6 -21 43 0 43 0 13 9 13 8 -7 26 -6 27 31 0 31 0 0 -24 0 -24 6 -16 6
-16 29 0 28 0 26 12 25 11 10 39 11 38 14 0 14 0 15 16 16 15 0 24 0 24 -37 7
-38 7 -7 11 -8 11 0 27 0 27 -7 4 -8 4 -47 7 -48 7 6 -30z"/>
</g>
</svg>
