<?xml version="1.0" standalone="no"?>
<!DOCTYPE svg PUBLIC "-//W3C//DTD SVG 20010904//EN"
 "http://www.w3.org/TR/2001/REC-SVG-20010904/DTD/svg10.dtd">
<svg version="1.0" xmlns="http://www.w3.org/2000/svg"
 width="28.000000pt" height="30.000000pt" viewBox="0 0 28.000000 30.000000"
 preserveAspectRatio="xMidYMid meet">
<metadata>
Created by potrace 1.16, written by Peter Selinger 2001-2019
</metadata>
<g transform="translate(0.000000,30.000000) scale(0.100000,-0.100000)"
fill="#000000" stroke="none">
<path d="M12 253 l3 -47 33 -8 32 -9 0 -14 0 -14 -16 -15 -15 -16 -25 0 -24 0
0 -24 0 -24 6 -31 6 -31 38 0 38 0 16 6 16 6 0 30 0 29 23 -3 22 -3 -3 -27 -3
-28 15 -15 15 -15 24 0 25 0 16 6 16 6 0 18 0 18 -12 51 -11 51 -19 0 -18 0 0
15 0 14 33 9 32 8 0 50 0 49 -49 3 -49 3 6 -20 5 -21 -9 0 -9 0 0 -14 0 -15
-20 -6 -20 -6 -15 15 -15 15 0 25 0 26 -46 0 -45 0 3 -47z"/>
</g>
</svg>
