<?xml version="1.0" standalone="no"?>
<!DOCTYPE svg PUBLIC "-//W3C//DTD SVG 20010904//EN"
 "http://www.w3.org/TR/2001/REC-SVG-20010904/DTD/svg10.dtd">
<svg version="1.0" xmlns="http://www.w3.org/2000/svg"
 width="26.000000pt" height="28.000000pt" viewBox="0 0 26.000000 28.000000"
 preserveAspectRatio="xMidYMid meet">
<metadata>
Created by potrace 1.16, written by Peter Selinger 2001-2019
</metadata>
<g transform="translate(0.000000,28.000000) scale(0.100000,-0.100000)"
fill="#000000" stroke="none">
<path d="M12 243 l3 -37 33 -8 32 -9 0 -24 0 -24 -16 -15 -15 -16 -25 0 -24 0
0 -14 0 -14 6 -31 6 -31 28 0 28 0 16 6 16 6 0 30 0 29 33 -3 32 -3 -2 -29 -2
-28 14 -14 14 -14 18 0 18 0 14 9 13 8 -13 57 -12 56 -19 0 -18 0 0 25 0 24
33 9 32 8 0 40 0 39 -36 3 -36 3 5 -27 5 -27 -12 7 -11 7 0 -14 0 -15 -16 -6
-16 -6 -15 0 -14 0 -15 14 -14 15 0 25 0 26 -36 0 -35 0 3 -37z"/>
</g>
</svg>
