<?xml version="1.0" standalone="no"?>
<!DOCTYPE svg PUBLIC "-//W3C//DTD SVG 20010904//EN"
 "http://www.w3.org/TR/2001/REC-SVG-20010904/DTD/svg10.dtd">
<svg version="1.0" xmlns="http://www.w3.org/2000/svg"
 width="34.000000pt" height="35.000000pt" viewBox="0 0 34.000000 35.000000"
 preserveAspectRatio="xMidYMid meet">
<metadata>
Created by potrace 1.16, written by Peter Selinger 2001-2019
</metadata>
<g transform="translate(0.000000,35.000000) scale(0.100000,-0.100000)"
fill="#000000" stroke="none">
<path d="M30 310 l0 -40 19 0 19 0 16 -6 16 -6 0 -33 0 -33 -16 -6 -16 -6 -28
0 -28 0 -4 -37 -5 -38 11 -7 11 -8 38 0 37 0 0 -33 0 -33 12 -12 12 -12 28 0
29 0 5 29 6 29 44 11 44 11 0 60 0 61 30 6 30 6 0 18 0 19 -29 0 -29 0 -6 16
-6 16 0 30 0 30 -22 -6 -23 -6 -12 0 -13 0 0 -24 0 -24 -16 -6 -16 -6 -23 0
-24 0 -6 20 -6 20 6 9 6 10 -20 10 -20 11 -25 0 -26 0 0 -40z"/>
</g>
</svg>
