<?xml version="1.0" standalone="no"?>
<!DOCTYPE svg PUBLIC "-//W3C//DTD SVG 20010904//EN"
 "http://www.w3.org/TR/2001/REC-SVG-20010904/DTD/svg10.dtd">
<svg version="1.0" xmlns="http://www.w3.org/2000/svg"
 width="36.000000pt" height="37.000000pt" viewBox="0 0 36.000000 37.000000"
 preserveAspectRatio="xMidYMid meet">
<metadata>
Created by potrace 1.16, written by Peter Selinger 2001-2019
</metadata>
<g transform="translate(0.000000,37.000000) scale(0.100000,-0.100000)"
fill="#000000" stroke="none">
<path d="M30 320 l0 -50 19 0 19 0 16 -6 16 -6 0 -23 0 -23 -16 -6 -16 -6 -27
0 -28 0 -7 -47 -6 -47 12 -8 13 -8 38 0 37 0 0 -33 0 -33 12 -12 12 -12 38 0
38 0 6 29 6 29 44 11 44 11 0 60 0 61 30 6 30 6 0 28 0 29 -29 0 -29 0 -6 16
-6 16 0 29 0 29 -14 0 -13 0 -32 -6 -31 -6 0 -24 0 -24 -26 -6 -26 -7 -8 13
-8 13 6 15 5 15 -18 13 -19 14 -38 0 -38 0 0 -50z"/>
</g>
</svg>
