<?xml version="1.0" standalone="no"?>
<!DOCTYPE svg PUBLIC "-//W3C//DTD SVG 20010904//EN"
 "http://www.w3.org/TR/2001/REC-SVG-20010904/DTD/svg10.dtd">
<svg version="1.0" xmlns="http://www.w3.org/2000/svg"
 width="38.000000pt" height="29.000000pt" viewBox="0 0 38.000000 29.000000"
 preserveAspectRatio="xMidYMid meet">
<metadata>
Created by potrace 1.16, written by Peter Selinger 2001-2019
</metadata>
<g transform="translate(0.000000,29.000000) scale(0.100000,-0.100000)"
fill="#000000" stroke="none">
<path d="M263 275 l7 -17 -6 -23 -6 -24 -18 -6 -17 -5 -17 6 -16 6 0 18 0 19
-7 4 -8 4 -49 8 -49 7 6 -51 6 -52 -10 6 -9 6 -35 -11 -35 -12 0 -23 0 -24 20
-6 20 -6 9 5 9 6 12 -49 12 -49 21 -6 22 -6 27 0 27 0 9 33 8 32 22 3 22 3 1
-13 1 -13 -2 -14 -2 -14 14 -8 13 -9 42 0 42 0 15 16 16 15 0 35 0 34 -22 4
-23 5 -20 3 -20 3 0 20 0 19 38 9 37 9 0 44 0 44 -22 9 -23 8 -34 8 -34 7 6
-17z"/>
</g>
</svg>
