<?xml version="1.0" standalone="no"?>
<!DOCTYPE svg PUBLIC "-//W3C//DTD SVG 20010904//EN"
 "http://www.w3.org/TR/2001/REC-SVG-20010904/DTD/svg10.dtd">
<svg version="1.0" xmlns="http://www.w3.org/2000/svg"
 width="40.000000pt" height="31.000000pt" viewBox="0 0 40.000000 31.000000"
 preserveAspectRatio="xMidYMid meet">
<metadata>
Created by potrace 1.16, written by Peter Selinger 2001-2019
</metadata>
<g transform="translate(0.000000,31.000000) scale(0.100000,-0.100000)"
fill="#000000" stroke="none">
<path d="M262 275 l1 -37 -13 -8 -13 -8 -14 5 -13 5 0 18 0 19 -7 4 -8 5 -57
7 -58 7 0 -44 0 -45 -40 -12 -40 -12 0 -35 0 -34 30 -7 30 -6 11 -42 11 -43
21 -6 22 -6 37 0 37 0 9 32 8 32 12 4 12 4 0 -30 0 -30 16 -6 16 -6 48 0 49 0
15 16 16 15 0 45 0 44 -22 4 -23 5 -19 3 -20 3 2 10 1 10 35 8 36 9 0 54 0 54
-26 10 -25 10 -39 6 -39 6 1 -37z"/>
</g>
</svg>
