<?xml version="1.0" standalone="no"?>
<!DOCTYPE svg PUBLIC "-//W3C//DTD SVG 20010904//EN"
 "http://www.w3.org/TR/2001/REC-SVG-20010904/DTD/svg10.dtd">
<svg version="1.0" xmlns="http://www.w3.org/2000/svg"
 width="35.000000pt" height="34.000000pt" viewBox="0 0 35.000000 34.000000"
 preserveAspectRatio="xMidYMid meet">
<metadata>
Created by potrace 1.16, written by Peter Selinger 2001-2019
</metadata>
<g transform="translate(0.000000,34.000000) scale(0.100000,-0.100000)"
fill="#000000" stroke="none">
<path d="M97 334 l-7 -7 0 -24 0 -24 -11 -22 -12 -22 -11 -8 -11 -7 -23 5 -22
5 0 -16 0 -16 30 -11 30 -12 11 -40 10 -40 4 -13 4 -12 50 0 50 0 -6 -35 -6
-35 32 0 31 0 2 18 1 17 2 20 1 20 49 -1 50 -1 0 48 0 49 -27 0 -26 0 -16 6
-16 6 0 30 0 29 15 16 16 15 16 -6 16 -7 9 13 8 13 0 23 0 23 -37 -7 -38 -6
-21 -24 -21 -24 -20 0 -21 0 -12 30 -12 30 -13 0 -13 0 -14 5 -14 6 -7 -7z"/>
</g>
</svg>
