<?xml version="1.0" standalone="no"?>
<!DOCTYPE svg PUBLIC "-//W3C//DTD SVG 20010904//EN"
 "http://www.w3.org/TR/2001/REC-SVG-20010904/DTD/svg10.dtd">
<svg version="1.0" xmlns="http://www.w3.org/2000/svg"
 width="37.000000pt" height="36.000000pt" viewBox="0 0 37.000000 36.000000"
 preserveAspectRatio="xMidYMid meet">
<metadata>
Created by potrace 1.16, written by Peter Selinger 2001-2019
</metadata>
<g transform="translate(0.000000,36.000000) scale(0.100000,-0.100000)"
fill="#000000" stroke="none">
<path d="M97 353 l-7 -6 0 -23 0 -23 -12 -26 -11 -25 -11 -1 -11 -1 -22 2 -23
1 0 -26 0 -27 30 -11 30 -12 11 -40 10 -40 4 -13 4 -12 46 0 45 0 0 -35 0 -35
40 0 40 0 6 41 7 40 47 -6 47 -6 0 60 0 61 -28 0 -27 0 -16 6 -16 6 0 19 0 20
12 13 12 13 19 -5 19 -5 9 14 9 14 0 34 0 33 -47 -7 -48 -7 -21 -24 -21 -24
-10 0 -11 0 -12 29 -12 29 -30 6 -30 6 -8 0 -7 0 -6 -7z"/>
</g>
</svg>
