<?xml version="1.0" standalone="no"?>
<!DOCTYPE svg PUBLIC "-//W3C//DTD SVG 20010904//EN"
 "http://www.w3.org/TR/2001/REC-SVG-20010904/DTD/svg10.dtd">
<svg version="1.0" xmlns="http://www.w3.org/2000/svg"
 width="29.000000pt" height="28.000000pt" viewBox="0 0 29.000000 28.000000"
 preserveAspectRatio="xMidYMid meet">
<metadata>
Created by potrace 1.16, written by Peter Selinger 2001-2019
</metadata>
<g transform="translate(0.000000,28.000000) scale(0.100000,-0.100000)"
fill="#000000" stroke="none">
<path d="M223 272 l-43 -3 0 -24 0 -24 -16 -15 -15 -16 -10 0 -10 0 -16 16
-15 15 0 25 0 24 -18 0 -18 0 -31 -6 -31 -6 0 -44 0 -44 40 -6 40 -7 0 -12 0
-13 -29 -7 -29 -6 -6 -31 -6 -31 0 -22 0 -23 30 -7 30 -6 20 6 20 6 8 32 8 32
17 3 17 3 0 -11 0 -11 13 -13 13 -14 30 -6 29 -6 13 8 12 8 -6 32 -7 32 -23 6
-23 6 -6 19 -6 19 6 10 6 10 24 0 23 0 16 6 16 6 0 35 0 34 -12 12 -13 12 -42
-3z"/>
</g>
</svg>
