<?xml version="1.0" standalone="no"?>
<!DOCTYPE svg PUBLIC "-//W3C//DTD SVG 20010904//EN"
 "http://www.w3.org/TR/2001/REC-SVG-20010904/DTD/svg10.dtd">
<svg version="1.0" xmlns="http://www.w3.org/2000/svg"
 width="31.000000pt" height="30.000000pt" viewBox="0 0 31.000000 30.000000"
 preserveAspectRatio="xMidYMid meet">
<metadata>
Created by potrace 1.16, written by Peter Selinger 2001-2019
</metadata>
<g transform="translate(0.000000,30.000000) scale(0.100000,-0.100000)"
fill="#000000" stroke="none">
<path d="M223 293 l-43 -4 0 -24 0 -24 -16 -15 -15 -16 -15 14 -14 15 0 25 0
26 -29 0 -29 0 -31 -6 -31 -6 0 -54 0 -53 43 -9 42 -8 -31 -8 -32 -7 -6 -31
-6 -31 0 -33 0 -33 35 -7 35 -6 25 6 26 7 6 29 6 30 8 6 9 5 0 -11 0 -11 14
-14 14 -14 39 -6 38 -6 14 9 13 10 -7 40 -7 41 -21 7 -22 7 -7 10 -7 11 5 8 5
8 24 0 23 0 16 6 16 6 0 45 0 44 -14 15 -15 14 -8 -2 -8 -1 -42 -4z"/>
</g>
</svg>
