<?xml version="1.0" standalone="no"?>
<!DOCTYPE svg PUBLIC "-//W3C//DTD SVG 20010904//EN"
 "http://www.w3.org/TR/2001/REC-SVG-20010904/DTD/svg10.dtd">
<svg version="1.0" xmlns="http://www.w3.org/2000/svg"
 width="28.000000pt" height="34.000000pt" viewBox="0 0 28.000000 34.000000"
 preserveAspectRatio="xMidYMid meet">
<metadata>
Created by potrace 1.16, written by Peter Selinger 2001-2019
</metadata>
<g transform="translate(0.000000,34.000000) scale(0.100000,-0.100000)"
fill="#000000" stroke="none">
<path d="M24 331 l-4 -4 0 -44 0 -43 19 0 19 0 16 -6 16 -6 0 -23 0 -23 -16
-6 -16 -6 -25 0 -26 0 7 -40 6 -40 -10 0 -10 0 0 -10 0 -10 33 0 32 0 21 -6
22 -6 6 -29 6 -29 35 0 35 0 6 24 6 24 35 7 35 6 -6 14 -5 14 -6 34 -7 35 -23
6 -23 6 -5 21 -6 21 11 24 12 25 27 -6 27 -6 4 45 3 46 -7 0 -8 0 0 -9 0 -9
-35 -6 -34 -7 6 -15 6 -16 -14 -9 -14 -9 -18 0 -18 0 -15 14 -14 15 0 19 0 20
-41 4 -40 4 -5 -5z"/>
</g>
</svg>
