<?xml version="1.0" standalone="no"?>
<!DOCTYPE svg PUBLIC "-//W3C//DTD SVG 20010904//EN"
 "http://www.w3.org/TR/2001/REC-SVG-20010904/DTD/svg10.dtd">
<svg version="1.0" xmlns="http://www.w3.org/2000/svg"
 width="37.000000pt" height="36.000000pt" viewBox="0 0 37.000000 36.000000"
 preserveAspectRatio="xMidYMid meet">
<metadata>
Created by potrace 1.16, written by Peter Selinger 2001-2019
</metadata>
<g transform="translate(0.000000,36.000000) scale(0.100000,-0.100000)"
fill="#000000" stroke="none">
<path d="M250 350 l0 -10 -40 0 -40 0 0 -19 0 -20 -15 -15 -16 -15 -14 5 -15
6 0 29 0 29 -27 0 -28 0 -23 6 -23 7 3 -54 3 -54 20 0 20 0 13 -12 13 -13 -6
-19 -6 -20 -28 -6 -28 -6 -7 -46 -6 -45 6 -9 5 -9 35 0 34 0 0 -16 0 -15 14
-15 15 -14 24 0 25 0 16 6 16 6 0 18 0 18 16 6 16 6 28 0 28 0 6 16 6 16 0 34
0 34 26 0 25 0 15 14 14 15 0 30 0 30 -35 7 -35 6 0 37 0 37 -12 12 -12 12
-13 0 -13 0 0 -10z"/>
</g>
</svg>
