<?xml version="1.0" standalone="no"?>
<!DOCTYPE svg PUBLIC "-//W3C//DTD SVG 20010904//EN"
 "http://www.w3.org/TR/2001/REC-SVG-20010904/DTD/svg10.dtd">
<svg version="1.0" xmlns="http://www.w3.org/2000/svg"
 width="43.000000pt" height="28.000000pt" viewBox="0 0 43.000000 28.000000"
 preserveAspectRatio="xMidYMid meet">
<metadata>
Created by potrace 1.16, written by Peter Selinger 2001-2019
</metadata>
<g transform="translate(0.000000,28.000000) scale(0.100000,-0.100000)"
fill="#000000" stroke="none">
<path d="M86 245 l6 -34 -15 -15 -15 -15 -5 6 -6 5 -26 -6 -25 -6 0 -26 0 -26
29 -11 29 -11 7 -35 6 -36 5 -17 5 -18 37 0 37 0 23 6 22 6 0 29 0 29 15 0 15
0 0 -13 0 -14 25 -11 26 -12 38 -6 38 -6 7 44 7 44 29 11 30 11 0 36 0 36 -24
0 -25 0 -15 16 -16 15 0 26 0 26 -47 -7 -48 -6 -12 -16 -12 -17 -4 -10 -3 -10
-20 7 -21 6 5 30 4 30 -56 0 -57 0 7 -35z"/>
</g>
</svg>
