<?xml version="1.0" standalone="no"?>
<!DOCTYPE svg PUBLIC "-//W3C//DTD SVG 20010904//EN"
 "http://www.w3.org/TR/2001/REC-SVG-20010904/DTD/svg10.dtd">
<svg version="1.0" xmlns="http://www.w3.org/2000/svg"
 width="35.000000pt" height="34.000000pt" viewBox="0 0 35.000000 34.000000"
 preserveAspectRatio="xMidYMid meet">
<metadata>
Created by potrace 1.16, written by Peter Selinger 2001-2019
</metadata>
<g transform="translate(0.000000,34.000000) scale(0.100000,-0.100000)"
fill="#000000" stroke="none">
<path d="M250 331 l0 -11 -39 0 -38 0 -6 -29 -6 -28 -17 -7 -17 -6 -18 5 -19
6 0 29 0 28 -40 4 -41 4 3 -41 3 -40 18 3 17 3 15 -15 15 -15 0 -18 0 -18 -8
-12 -7 -11 -27 -7 -26 -7 -5 -36 -4 -37 4 -7 4 -8 39 0 39 0 -5 -15 -6 -14 15
-16 16 -15 14 0 15 0 16 6 16 6 0 18 0 18 16 6 16 6 28 0 28 0 6 16 6 16 0 34
0 34 26 0 25 0 15 14 14 15 0 20 0 20 -35 7 -35 6 0 38 0 38 -15 12 -15 12 0
-11z"/>
</g>
</svg>
