<?xml version="1.0" standalone="no"?>
<!DOCTYPE svg PUBLIC "-//W3C//DTD SVG 20010904//EN"
 "http://www.w3.org/TR/2001/REC-SVG-20010904/DTD/svg10.dtd">
<svg version="1.0" xmlns="http://www.w3.org/2000/svg"
 width="41.000000pt" height="26.000000pt" viewBox="0 0 41.000000 26.000000"
 preserveAspectRatio="xMidYMid meet">
<metadata>
Created by potrace 1.16, written by Peter Selinger 2001-2019
</metadata>
<g transform="translate(0.000000,26.000000) scale(0.100000,-0.100000)"
fill="#000000" stroke="none">
<path d="M88 225 l4 -34 -16 -17 -17 -16 -14 6 -15 5 -15 -5 -15 -6 0 -15 0
-15 29 -11 29 -11 7 -35 6 -36 5 -17 5 -18 27 0 27 0 23 6 22 6 0 29 0 29 25
0 25 0 0 -14 0 -14 28 -10 27 -11 26 -6 26 -7 7 44 7 44 29 11 30 11 0 26 0
26 -24 0 -25 0 -15 16 -16 15 0 26 0 25 -37 -7 -38 -6 -12 -17 -13 -16 0 -8 0
-8 -22 0 -23 0 -13 9 -13 8 7 26 6 27 -44 0 -44 0 4 -35z"/>
</g>
</svg>
