<?xml version="1.0" standalone="no"?>
<!DOCTYPE svg PUBLIC "-//W3C//DTD SVG 20010904//EN"
 "http://www.w3.org/TR/2001/REC-SVG-20010904/DTD/svg10.dtd">
<svg version="1.0" xmlns="http://www.w3.org/2000/svg"
 width="29.000000pt" height="28.000000pt" viewBox="0 0 29.000000 28.000000"
 preserveAspectRatio="xMidYMid meet">
<metadata>
Created by potrace 1.16, written by Peter Selinger 2001-2019
</metadata>
<g transform="translate(0.000000,28.000000) scale(0.100000,-0.100000)"
fill="#000000" stroke="none">
<path d="M11 272 l-11 -4 0 -33 0 -33 6 -16 6 -16 29 0 29 0 0 -19 0 -18 -30
-6 -30 -6 0 -43 0 -43 8 -12 7 -11 27 -7 27 -7 21 7 21 7 -6 29 -7 29 25 0 24
0 6 -30 6 -30 40 0 39 0 16 6 16 6 0 44 0 45 -30 6 -30 6 0 22 0 23 35 6 35 7
0 42 0 43 -52 -6 -53 -5 3 -18 3 -17 -15 -15 -15 -15 -18 0 -18 0 -12 8 -12 8
2 29 2 30 -41 5 -41 6 -12 -4z"/>
</g>
</svg>
