<?xml version="1.0" standalone="no"?>
<!DOCTYPE svg PUBLIC "-//W3C//DTD SVG 20010904//EN"
 "http://www.w3.org/TR/2001/REC-SVG-20010904/DTD/svg10.dtd">
<svg version="1.0" xmlns="http://www.w3.org/2000/svg"
 width="37.000000pt" height="37.000000pt" viewBox="0 0 37.000000 37.000000"
 preserveAspectRatio="xMidYMid meet">
<metadata>
Created by potrace 1.16, written by Peter Selinger 2001-2019
</metadata>
<g transform="translate(0.000000,37.000000) scale(0.100000,-0.100000)"
fill="#000000" stroke="none">
<path d="M7 363 l-7 -6 0 -38 0 -37 6 -16 6 -16 22 0 21 0 13 -9 13 -8 -16
-17 -16 -16 -25 0 -24 0 0 -59 0 -60 43 -3 42 -3 -3 -29 -4 -29 14 -8 13 -9
31 0 31 0 11 25 12 26 0 24 0 25 46 -7 46 -6 9 14 9 14 10 36 10 37 25 6 25 6
0 33 0 32 -9 13 -8 14 -29 -4 -29 -3 -3 43 -3 42 -138 0 -138 0 -6 -7z"/>
</g>
</svg>
