<?xml version="1.0" standalone="no"?>
<!DOCTYPE svg PUBLIC "-//W3C//DTD SVG 20010904//EN"
 "http://www.w3.org/TR/2001/REC-SVG-20010904/DTD/svg10.dtd">
<svg version="1.0" xmlns="http://www.w3.org/2000/svg"
 width="35.000000pt" height="35.000000pt" viewBox="0 0 35.000000 35.000000"
 preserveAspectRatio="xMidYMid meet">
<metadata>
Created by potrace 1.16, written by Peter Selinger 2001-2019
</metadata>
<g transform="translate(0.000000,35.000000) scale(0.100000,-0.100000)"
fill="#000000" stroke="none">
<path d="M7 343 l-7 -6 0 -28 0 -27 6 -16 6 -16 18 0 18 0 16 -6 16 -6 0 -14
0 -13 -22 -21 -22 -20 -18 6 -18 5 0 -50 0 -50 43 -3 42 -3 -2 -30 -2 -29 12
-8 12 -8 21 0 21 0 11 25 12 26 0 25 0 26 48 -7 49 -6 11 28 11 28 6 22 6 21
24 6 25 6 0 23 0 22 -8 12 -8 12 -29 -2 -30 -2 -3 43 -3 42 -128 0 -128 0 -6
-7z"/>
</g>
</svg>
