<?xml version="1.0" standalone="no"?>
<!DOCTYPE svg PUBLIC "-//W3C//DTD SVG 20010904//EN"
 "http://www.w3.org/TR/2001/REC-SVG-20010904/DTD/svg10.dtd">
<svg version="1.0" xmlns="http://www.w3.org/2000/svg"
 width="31.000000pt" height="30.000000pt" viewBox="0 0 31.000000 30.000000"
 preserveAspectRatio="xMidYMid meet">
<metadata>
Created by potrace 1.16, written by Peter Selinger 2001-2019
</metadata>
<g transform="translate(0.000000,30.000000) scale(0.100000,-0.100000)"
fill="#000000" stroke="none">
<path d="M13 293 l-13 -5 0 -43 0 -43 6 -16 6 -16 29 0 29 0 0 -9 0 -8 -30 -6
-30 -6 0 -50 0 -49 6 -16 6 -15 34 -7 34 -6 26 6 26 7 -4 29 -5 30 12 0 13 0
6 -30 6 -30 49 0 49 0 16 6 16 6 0 54 0 55 -30 6 -30 6 0 12 0 13 35 6 35 7 0
54 0 54 -52 -5 -53 -6 -14 -4 -13 -4 4 -18 5 -18 -14 -12 -13 -13 -18 6 -19 5
5 30 4 30 -13 4 -14 4 -40 5 -40 5 -12 -5z"/>
</g>
</svg>
