<?xml version="1.0" standalone="no"?>
<!DOCTYPE svg PUBLIC "-//W3C//DTD SVG 20010904//EN"
 "http://www.w3.org/TR/2001/REC-SVG-20010904/DTD/svg10.dtd">
<svg version="1.0" xmlns="http://www.w3.org/2000/svg"
 width="30.000000pt" height="36.000000pt" viewBox="0 0 30.000000 36.000000"
 preserveAspectRatio="xMidYMid meet">
<metadata>
Created by potrace 1.16, written by Peter Selinger 2001-2019
</metadata>
<g transform="translate(0.000000,36.000000) scale(0.100000,-0.100000)"
fill="#000000" stroke="none">
<path d="M27 354 l-7 -7 0 -54 0 -53 19 0 19 0 16 -6 16 -6 0 -13 0 -13 -16
-6 -16 -6 -25 0 -25 0 4 -40 4 -40 -8 0 -8 0 0 -20 0 -20 33 0 32 0 21 -6 22
-6 6 -29 6 -29 45 0 45 0 6 24 6 24 34 6 34 7 0 9 0 8 -12 51 -11 50 -24 5
-23 6 0 19 0 19 5 14 6 14 29 -4 30 -4 0 33 0 34 6 23 6 22 -21 0 -21 0 0 -9
0 -9 -36 -7 -36 -6 5 -19 5 -19 -19 -6 -19 -6 -15 15 -15 15 0 20 0 21 -27 0
-28 0 -20 6 -21 5 -7 -7z"/>
</g>
</svg>
