<?xml version="1.0" standalone="no"?>
<!DOCTYPE svg PUBLIC "-//W3C//DTD SVG 20010904//EN"
 "http://www.w3.org/TR/2001/REC-SVG-20010904/DTD/svg10.dtd">
<svg version="1.0" xmlns="http://www.w3.org/2000/svg"
 width="41.000000pt" height="34.000000pt" viewBox="0 0 41.000000 34.000000"
 preserveAspectRatio="xMidYMid meet">
<metadata>
Created by potrace 1.16, written by Peter Selinger 2001-2019
</metadata>
<g transform="translate(0.000000,34.000000) scale(0.100000,-0.100000)"
fill="#000000" stroke="none">
<path d="M98 333 l-18 -4 0 -44 0 -43 -37 -9 -38 -9 0 -19 0 -20 20 -3 20 -3
24 -5 24 -5 -6 -50 -6 -49 34 0 35 0 0 -29 0 -30 19 -6 18 -5 17 6 17 7 6 28
5 29 35 0 34 0 15 14 14 15 0 35 0 36 24 0 25 0 15 16 16 15 0 14 0 14 -16 16
-17 17 -18 -5 -19 -5 0 34 0 34 -19 0 -18 0 -31 -6 -31 -6 -6 -19 -6 -19 -19
0 -18 0 -16 6 -16 6 0 29 0 29 -22 -1 -23 -1 -17 -5z"/>
</g>
</svg>
