<?xml version="1.0" standalone="no"?>
<!DOCTYPE svg PUBLIC "-//W3C//DTD SVG 20010904//EN"
 "http://www.w3.org/TR/2001/REC-SVG-20010904/DTD/svg10.dtd">
<svg version="1.0" xmlns="http://www.w3.org/2000/svg"
 width="43.000000pt" height="36.000000pt" viewBox="0 0 43.000000 36.000000"
 preserveAspectRatio="xMidYMid meet">
<metadata>
Created by potrace 1.16, written by Peter Selinger 2001-2019
</metadata>
<g transform="translate(0.000000,36.000000) scale(0.100000,-0.100000)"
fill="#000000" stroke="none">
<path d="M77 310 l5 -47 -38 -10 -39 -9 0 -29 0 -30 20 -3 20 -3 23 -5 24 -5
-7 -49 -7 -50 36 0 36 0 0 -29 0 -30 21 -6 20 -7 25 6 25 7 6 29 6 30 34 0 34
0 15 14 14 15 0 35 0 36 24 0 25 0 15 16 16 15 0 24 0 24 -16 15 -15 16 -20 0
-19 0 0 31 0 32 -57 -6 -56 -6 -8 -13 -9 -13 -3 -9 -3 -9 -22 7 -22 7 0 30 0
29 -54 -1 -55 -2 6 -47z"/>
</g>
</svg>
