<?xml version="1.0" standalone="no"?>
<!DOCTYPE svg PUBLIC "-//W3C//DTD SVG 20010904//EN"
 "http://www.w3.org/TR/2001/REC-SVG-20010904/DTD/svg10.dtd">
<svg version="1.0" xmlns="http://www.w3.org/2000/svg"
 width="27.000000pt" height="28.000000pt" viewBox="0 0 27.000000 28.000000"
 preserveAspectRatio="xMidYMid meet">
<metadata>
Created by potrace 1.16, written by Peter Selinger 2001-2019
</metadata>
<g transform="translate(0.000000,28.000000) scale(0.100000,-0.100000)"
fill="#000000" stroke="none">
<path d="M0 253 l0 -28 8 -11 7 -11 38 -7 37 -7 0 -24 0 -24 -16 -15 -15 -16
-14 0 -14 0 -6 -22 -7 -23 -4 -17 -5 -16 34 -11 34 -12 16 7 16 6 -1 29 -1 29
6 6 5 6 21 -7 21 -6 0 -40 0 -39 30 0 29 0 26 12 25 11 0 9 0 8 -10 0 -10 0 0
44 0 44 -19 -5 -18 -5 -17 17 -16 16 0 14 0 14 35 7 35 6 0 44 0 44 -29 0 -29
0 -16 -6 -16 -6 0 -18 0 -18 -16 -6 -16 -6 -15 0 -14 0 -16 15 -15 16 6 14 5
15 -39 0 -40 0 0 -27z"/>
</g>
</svg>
