<?xml version="1.0" standalone="no"?>
<!DOCTYPE svg PUBLIC "-//W3C//DTD SVG 20010904//EN"
 "http://www.w3.org/TR/2001/REC-SVG-20010904/DTD/svg10.dtd">
<svg version="1.0" xmlns="http://www.w3.org/2000/svg"
 width="29.000000pt" height="30.000000pt" viewBox="0 0 29.000000 30.000000"
 preserveAspectRatio="xMidYMid meet">
<metadata>
Created by potrace 1.16, written by Peter Selinger 2001-2019
</metadata>
<g transform="translate(0.000000,30.000000) scale(0.100000,-0.100000)"
fill="#000000" stroke="none">
<path d="M0 263 l0 -38 8 -11 7 -11 38 -7 37 -7 0 -14 0 -14 -16 -15 -15 -16
-14 0 -14 0 -10 -37 -11 -38 0 -12 0 -11 36 -12 35 -12 25 6 24 6 0 35 0 34
15 -5 15 -6 0 -39 0 -39 40 0 39 0 26 12 25 11 0 19 0 18 -10 0 -10 0 0 46 0
46 -20 -5 -20 -5 -17 16 -17 17 37 9 37 10 0 53 0 53 -39 0 -39 0 -16 -6 -16
-6 0 -18 0 -19 -20 -6 -20 -6 -13 13 -14 12 5 18 4 18 -51 0 -51 0 0 -37z"/>
</g>
</svg>
