<?xml version="1.0" standalone="no"?>
<!DOCTYPE svg PUBLIC "-//W3C//DTD SVG 20010904//EN"
 "http://www.w3.org/TR/2001/REC-SVG-20010904/DTD/svg10.dtd">
<svg version="1.0" xmlns="http://www.w3.org/2000/svg"
 width="27.000000pt" height="33.000000pt" viewBox="0 0 27.000000 33.000000"
 preserveAspectRatio="xMidYMid meet">
<metadata>
Created by potrace 1.16, written by Peter Selinger 2001-2019
</metadata>
<g transform="translate(0.000000,33.000000) scale(0.100000,-0.100000)"
fill="#000000" stroke="none">
<path d="M2 293 l3 -38 29 3 29 3 8 -13 9 -13 0 -32 0 -33 -25 -6 -25 -6 -9
-36 -10 -35 5 -9 5 -8 35 0 34 0 0 -21 0 -20 14 -15 15 -14 18 0 18 0 14 9 14
9 -6 15 -6 16 32 7 31 6 12 13 12 12 -5 41 -5 40 -24 6 -24 6 0 25 0 25 23 0
24 0 11 25 12 26 0 19 0 20 -15 0 -16 0 -34 -14 -35 -15 0 -19 0 -20 -16 -6
-16 -6 -17 0 -18 0 -12 26 -12 26 6 19 6 19 -46 0 -46 0 3 -37z"/>
</g>
</svg>
