<?xml version="1.0" standalone="no"?>
<!DOCTYPE svg PUBLIC "-//W3C//DTD SVG 20010904//EN"
 "http://www.w3.org/TR/2001/REC-SVG-20010904/DTD/svg10.dtd">
<svg version="1.0" xmlns="http://www.w3.org/2000/svg"
 width="29.000000pt" height="35.000000pt" viewBox="0 0 29.000000 35.000000"
 preserveAspectRatio="xMidYMid meet">
<metadata>
Created by potrace 1.16, written by Peter Selinger 2001-2019
</metadata>
<g transform="translate(0.000000,35.000000) scale(0.100000,-0.100000)"
fill="#000000" stroke="none">
<path d="M2 303 l3 -48 30 1 30 1 7 -11 8 -11 0 -22 0 -23 -25 -6 -25 -6 -11
-40 -10 -40 5 -14 5 -14 36 0 35 0 0 -21 0 -20 14 -15 15 -14 24 0 25 0 16 6
16 6 0 19 0 19 27 6 28 7 13 13 13 13 -7 50 -6 49 -24 6 -24 6 0 15 0 15 23 0
24 0 11 25 12 26 0 29 0 30 -25 0 -26 0 -34 -14 -35 -15 0 -19 0 -20 -16 -6
-16 -6 -8 0 -9 0 -7 23 -8 22 3 23 2 22 -56 0 -56 0 3 -47z"/>
</g>
</svg>
