<?xml version="1.0" standalone="no"?>
<!DOCTYPE svg PUBLIC "-//W3C//DTD SVG 20010904//EN"
 "http://www.w3.org/TR/2001/REC-SVG-20010904/DTD/svg10.dtd">
<svg version="1.0" xmlns="http://www.w3.org/2000/svg"
 width="38.000000pt" height="42.000000pt" viewBox="0 0 38.000000 42.000000"
 preserveAspectRatio="xMidYMid meet">
<metadata>
Created by potrace 1.16, written by Peter Selinger 2001-2019
</metadata>
<g transform="translate(0.000000,42.000000) scale(0.100000,-0.100000)"
fill="#000000" stroke="none">
<path d="M180 393 l0 -28 -9 -13 -8 -13 -39 3 -39 3 -3 -36 -3 -37 -34 -6 -33
-7 -6 -15 -6 -16 0 -15 0 -16 22 -18 21 -19 23 0 24 0 -6 -44 -6 -43 26 -7 26
-6 25 6 25 6 0 -30 0 -30 16 -6 16 -6 28 0 29 0 6 19 6 19 37 7 37 7 7 11 8
12 0 42 0 42 -16 15 -15 16 -15 0 -14 0 0 14 0 14 35 6 35 7 0 59 0 59 -43 6
-44 7 -10 6 -10 7 -12 23 -12 22 -34 0 -35 0 0 -27z"/>
</g>
</svg>
