<?xml version="1.0" standalone="no"?>
<!DOCTYPE svg PUBLIC "-//W3C//DTD SVG 20010904//EN"
 "http://www.w3.org/TR/2001/REC-SVG-20010904/DTD/svg10.dtd">
<svg version="1.0" xmlns="http://www.w3.org/2000/svg"
 width="36.000000pt" height="35.000000pt" viewBox="0 0 36.000000 35.000000"
 preserveAspectRatio="xMidYMid meet">
<metadata>
Created by potrace 1.16, written by Peter Selinger 2001-2019
</metadata>
<g transform="translate(0.000000,35.000000) scale(0.100000,-0.100000)"
fill="#000000" stroke="none">
<path d="M182 320 l5 -30 -11 -2 -11 -1 -45 -1 -45 -1 0 -34 0 -34 -29 -8 -29
-8 -8 -13 -9 -13 0 -18 0 -18 14 -15 15 -14 31 -6 30 -7 -6 -33 -6 -33 15 -16
16 -15 34 0 35 0 16 6 16 6 0 27 0 26 10 15 10 15 0 -36 0 -37 16 -6 16 -6 49
0 49 0 0 60 0 60 -21 0 -20 0 -15 14 -14 15 16 15 15 16 20 0 19 0 0 55 0 54
-50 -6 -50 -6 -6 32 -6 31 -35 0 -35 0 4 -30z"/>
</g>
</svg>
