<?xml version="1.0" standalone="no"?>
<!DOCTYPE svg PUBLIC "-//W3C//DTD SVG 20010904//EN"
 "http://www.w3.org/TR/2001/REC-SVG-20010904/DTD/svg10.dtd">
<svg version="1.0" xmlns="http://www.w3.org/2000/svg"
 width="34.000000pt" height="33.000000pt" viewBox="0 0 34.000000 33.000000"
 preserveAspectRatio="xMidYMid meet">
<metadata>
Created by potrace 1.16, written by Peter Selinger 2001-2019
</metadata>
<g transform="translate(0.000000,33.000000) scale(0.100000,-0.100000)"
fill="#000000" stroke="none">
<path d="M185 300 l6 -29 -23 -5 -23 -6 -34 3 -35 2 0 -34 -1 -35 -32 -8 -32
-8 -6 -20 -6 -20 16 -17 17 -16 30 -1 30 -1 -5 -39 -5 -39 13 -13 14 -14 24 0
25 0 16 6 16 6 0 23 0 23 6 16 6 16 14 0 14 0 0 -34 0 -34 16 -6 16 -6 39 0
39 0 0 50 0 50 -21 0 -20 0 -15 15 -15 15 6 20 7 21 29 6 29 6 0 41 0 41 -50
-3 -50 -4 -6 31 -6 31 -25 0 -25 0 7 -30z"/>
</g>
</svg>
