<?xml version="1.0" standalone="no"?>
<!DOCTYPE svg PUBLIC "-//W3C//DTD SVG 20010904//EN"
 "http://www.w3.org/TR/2001/REC-SVG-20010904/DTD/svg10.dtd">
<svg version="1.0" xmlns="http://www.w3.org/2000/svg"
 width="36.000000pt" height="40.000000pt" viewBox="0 0 36.000000 40.000000"
 preserveAspectRatio="xMidYMid meet">
<metadata>
Created by potrace 1.16, written by Peter Selinger 2001-2019
</metadata>
<g transform="translate(0.000000,40.000000) scale(0.100000,-0.100000)"
fill="#000000" stroke="none">
<path d="M180 373 l0 -28 -9 -13 -8 -14 -39 4 -39 3 -3 -42 -3 -43 -17 2 -17
1 -17 -1 -17 -2 -6 -21 -7 -20 23 -20 22 -19 25 0 24 0 -6 -45 -7 -45 18 -1
18 -2 33 2 32 3 0 -30 0 -30 16 -6 16 -6 18 0 19 0 6 19 6 19 37 7 37 7 7 11
8 12 0 32 0 32 -16 15 -15 16 -15 0 -14 0 0 24 0 24 35 6 35 7 0 49 0 49 -43
6 -44 7 -10 6 -10 7 -12 23 -12 22 -24 0 -25 0 0 -27z"/>
</g>
</svg>
