<?xml version="1.0" standalone="no"?>
<!DOCTYPE svg PUBLIC "-//W3C//DTD SVG 20010904//EN"
 "http://www.w3.org/TR/2001/REC-SVG-20010904/DTD/svg10.dtd">
<svg version="1.0" xmlns="http://www.w3.org/2000/svg"
 width="39.000000pt" height="45.000000pt" viewBox="0 0 39.000000 45.000000"
 preserveAspectRatio="xMidYMid meet">
<metadata>
Created by potrace 1.16, written by Peter Selinger 2001-2019
</metadata>
<g transform="translate(0.000000,45.000000) scale(0.100000,-0.100000)"
fill="#000000" stroke="none">
<path d="M200 426 l0 -24 -6 -16 -6 -16 -49 0 -49 0 0 -35 0 -35 -31 0 -30 0
-15 -14 -14 -15 0 -26 0 -26 14 -15 15 -14 20 0 21 0 0 -19 0 -18 11 -32 11
-31 44 0 44 0 0 -20 0 -19 12 -26 11 -25 31 0 31 0 11 8 12 7 3 20 4 19 40 15
40 15 4 3 4 3 -13 60 -13 60 -23 6 -24 6 0 14 0 14 34 0 34 0 6 16 6 16 0 49
0 49 -46 0 -45 0 -12 13 -12 12 0 20 0 20 -37 3 -38 3 0 -25z"/>
</g>
</svg>
