<?xml version="1.0" standalone="no"?>
<!DOCTYPE svg PUBLIC "-//W3C//DTD SVG 20010904//EN"
 "http://www.w3.org/TR/2001/REC-SVG-20010904/DTD/svg10.dtd">
<svg version="1.0" xmlns="http://www.w3.org/2000/svg"
 width="33.000000pt" height="41.000000pt" viewBox="0 0 33.000000 41.000000"
 preserveAspectRatio="xMidYMid meet">
<metadata>
Created by potrace 1.16, written by Peter Selinger 2001-2019
</metadata>
<g transform="translate(0.000000,41.000000) scale(0.100000,-0.100000)"
fill="#000000" stroke="none">
<path d="M170 386 l0 -24 -6 -16 -6 -15 -46 6 -45 6 7 -11 7 -12 -11 -40 -11
-41 -30 -6 -30 -6 3 -16 4 -16 32 3 32 2 6 -24 6 -24 -4 -33 -3 -34 40 -5 40
-5 -2 -30 -2 -29 12 -8 12 -8 18 0 18 0 15 15 15 15 -3 17 -3 18 48 3 49 3 -6
15 -6 16 0 44 0 44 -26 0 -25 0 -15 15 -15 15 6 20 6 20 35 0 34 0 0 41 0 41
-32 -6 -33 -6 -12 8 -11 7 -4 30 -3 30 -27 3 -28 3 0 -25z"/>
</g>
</svg>
