<?xml version="1.0" standalone="no"?>
<!DOCTYPE svg PUBLIC "-//W3C//DTD SVG 20010904//EN"
 "http://www.w3.org/TR/2001/REC-SVG-20010904/DTD/svg10.dtd">
<svg version="1.0" xmlns="http://www.w3.org/2000/svg"
 width="46.000000pt" height="34.000000pt" viewBox="0 0 46.000000 34.000000"
 preserveAspectRatio="xMidYMid meet">
<metadata>
Created by potrace 1.16, written by Peter Selinger 2001-2019
</metadata>
<g transform="translate(0.000000,34.000000) scale(0.100000,-0.100000)"
fill="#000000" stroke="none">
<path d="M193 310 l-6 -30 -23 -6 -24 -6 -35 6 -35 7 0 -41 0 -40 -22 0 -23 0
-14 -9 -14 -9 6 -42 5 -43 14 -8 13 -9 23 0 22 0 0 -40 0 -40 146 0 147 0 -6
50 -6 50 27 0 27 0 23 6 22 6 0 32 0 31 -9 13 -8 14 -29 -4 -29 -3 -3 33 -3
33 -42 -1 -42 -2 -12 1 -13 1 0 34 0 34 -16 6 -16 6 -19 0 -19 0 -7 -30z"/>
</g>
</svg>
