<?xml version="1.0" standalone="no"?>
<!DOCTYPE svg PUBLIC "-//W3C//DTD SVG 20010904//EN"
 "http://www.w3.org/TR/2001/REC-SVG-20010904/DTD/svg10.dtd">
<svg version="1.0" xmlns="http://www.w3.org/2000/svg"
 width="35.000000pt" height="43.000000pt" viewBox="0 0 35.000000 43.000000"
 preserveAspectRatio="xMidYMid meet">
<metadata>
Created by potrace 1.16, written by Peter Selinger 2001-2019
</metadata>
<g transform="translate(0.000000,43.000000) scale(0.100000,-0.100000)"
fill="#000000" stroke="none">
<path d="M170 406 l0 -24 -5 -14 -5 -13 -44 3 -45 4 1 -29 1 -28 -7 -23 -8
-23 -29 -6 -30 -6 3 -26 3 -26 33 0 33 0 4 -20 5 -20 -3 -35 -2 -35 40 -5 40
-5 -3 -29 -4 -29 14 -8 13 -9 28 0 28 0 15 14 14 15 0 20 0 21 46 0 47 0 -7
31 -6 31 0 39 0 39 -26 0 -25 0 -13 13 -13 12 5 13 4 12 34 0 34 0 0 51 0 51
-32 -2 -33 -2 -12 1 -12 1 -3 33 -3 32 -37 3 -38 3 0 -25z"/>
</g>
</svg>
