<?xml version="1.0" standalone="no"?>
<!DOCTYPE svg PUBLIC "-//W3C//DTD SVG 20010904//EN"
 "http://www.w3.org/TR/2001/REC-SVG-20010904/DTD/svg10.dtd">
<svg version="1.0" xmlns="http://www.w3.org/2000/svg"
 width="37.000000pt" height="37.000000pt" viewBox="0 0 37.000000 37.000000"
 preserveAspectRatio="xMidYMid meet">
<metadata>
Created by potrace 1.16, written by Peter Selinger 2001-2019
</metadata>
<g transform="translate(0.000000,37.000000) scale(0.100000,-0.100000)"
fill="#000000" stroke="none">
<path d="M180 341 l0 -29 -26 -6 -27 -7 -28 6 -29 7 0 -41 0 -41 -21 0 -20 0
-15 -14 -14 -15 0 -29 0 -29 25 -11 25 -12 0 -12 0 -13 11 -37 10 -38 49 0 48
0 16 6 16 6 0 22 0 23 6 6 6 6 14 -6 14 -5 0 -33 0 -34 20 -6 19 -6 36 7 35 6
6 23 5 22 -10 41 -11 40 -21 5 -21 6 4 18 3 18 19 3 20 4 13 13 13 14 0 44 0
45 -36 7 -36 6 -24 11 -24 11 0 14 0 13 -35 0 -35 0 0 -29z"/>
</g>
</svg>
