<?xml version="1.0" standalone="no"?>
<!DOCTYPE svg PUBLIC "-//W3C//DTD SVG 20010904//EN"
 "http://www.w3.org/TR/2001/REC-SVG-20010904/DTD/svg10.dtd">
<svg version="1.0" xmlns="http://www.w3.org/2000/svg"
 width="35.000000pt" height="35.000000pt" viewBox="0 0 35.000000 35.000000"
 preserveAspectRatio="xMidYMid meet">
<metadata>
Created by potrace 1.16, written by Peter Selinger 2001-2019
</metadata>
<g transform="translate(0.000000,35.000000) scale(0.100000,-0.100000)"
fill="#000000" stroke="none">
<path d="M180 320 l0 -29 -35 -7 -35 -6 -20 5 -20 5 0 -39 0 -39 -21 0 -20 0
-15 -14 -14 -15 0 -19 0 -19 25 -11 25 -12 0 -12 0 -13 11 -37 10 -38 39 0 38
0 16 6 16 6 0 23 0 24 10 6 10 6 20 -6 20 -6 0 -34 0 -33 15 -6 15 -5 29 5 30
6 5 15 6 15 -10 38 -10 38 -21 5 -20 6 3 28 3 28 19 3 20 4 13 13 13 14 0 34
0 35 -36 7 -36 6 -24 11 -24 11 0 14 0 13 -25 0 -25 0 0 -30z"/>
</g>
</svg>
