<?xml version="1.0" standalone="no"?>
<!DOCTYPE svg PUBLIC "-//W3C//DTD SVG 20010904//EN"
 "http://www.w3.org/TR/2001/REC-SVG-20010904/DTD/svg10.dtd">
<svg version="1.0" xmlns="http://www.w3.org/2000/svg"
 width="44.000000pt" height="32.000000pt" viewBox="0 0 44.000000 32.000000"
 preserveAspectRatio="xMidYMid meet">
<metadata>
Created by potrace 1.16, written by Peter Selinger 2001-2019
</metadata>
<g transform="translate(0.000000,32.000000) scale(0.100000,-0.100000)"
fill="#000000" stroke="none">
<path d="M193 290 l-6 -30 -23 -6 -24 -6 -35 4 -34 4 1 -16 1 -15 -1 -22 -2
-23 -22 0 -23 0 -14 -9 -14 -9 7 -35 7 -35 15 -6 16 -6 19 0 19 0 0 -40 0 -40
136 0 136 0 -7 50 -7 50 29 0 28 0 23 6 22 6 0 22 0 21 -8 12 -8 12 -29 -2
-30 -2 -3 34 -3 33 -41 -5 -40 -5 -14 5 -14 5 0 33 0 33 -16 6 -16 6 -9 0 -9
0 -7 -30z"/>
</g>
</svg>
