<?xml version="1.0" standalone="no"?>
<!DOCTYPE svg PUBLIC "-//W3C//DTD SVG 20010904//EN"
 "http://www.w3.org/TR/2001/REC-SVG-20010904/DTD/svg10.dtd">
<svg version="1.0" xmlns="http://www.w3.org/2000/svg"
 width="37.000000pt" height="43.000000pt" viewBox="0 0 37.000000 43.000000"
 preserveAspectRatio="xMidYMid meet">
<metadata>
Created by potrace 1.16, written by Peter Selinger 2001-2019
</metadata>
<g transform="translate(0.000000,43.000000) scale(0.100000,-0.100000)"
fill="#000000" stroke="none">
<path d="M200 401 l0 -30 -15 -14 -15 -15 -40 5 -40 6 0 -37 0 -36 -31 0 -30
0 -15 -14 -14 -15 0 -16 0 -16 14 -15 15 -14 20 0 21 0 0 -19 0 -18 11 -32 11
-31 50 0 49 0 -6 -19 -6 -19 12 -26 12 -26 21 0 21 0 11 8 12 7 3 20 4 19 40
15 40 15 3 1 2 2 -12 52 -12 52 -23 5 -23 6 0 24 0 24 34 0 34 0 6 16 6 16 0
39 0 39 -46 0 -45 0 -15 15 -15 15 3 17 3 18 -27 3 -28 3 0 -30z"/>
</g>
</svg>
