<?xml version="1.0" standalone="no"?>
<!DOCTYPE svg PUBLIC "-//W3C//DTD SVG 20010904//EN"
 "http://www.w3.org/TR/2001/REC-SVG-20010904/DTD/svg10.dtd">
<svg version="1.0" xmlns="http://www.w3.org/2000/svg"
 width="43.000000pt" height="41.000000pt" viewBox="0 0 43.000000 41.000000"
 preserveAspectRatio="xMidYMid meet">
<metadata>
Created by potrace 1.16, written by Peter Selinger 2001-2019
</metadata>
<g transform="translate(0.000000,41.000000) scale(0.100000,-0.100000)"
fill="#000000" stroke="none">
<path d="M189 393 l-1 -18 1 -17 2 -16 -19 -6 -19 -7 -27 11 -27 10 -14 0 -13
0 5 -41 6 -41 -14 -9 -14 -9 -28 0 -28 0 3 -27 3 -28 22 -3 23 -3 10 -40 11
-39 -6 -10 -6 -9 23 -5 23 -6 30 -2 30 -3 -2 -30 -2 -29 12 -8 12 -8 22 0 22
0 16 16 16 17 -3 31 -3 31 20 -2 20 -3 23 5 22 5 -6 39 -6 38 42 6 43 5 8 14
9 13 0 12 0 11 -37 9 -38 9 -3 43 -3 43 -17 -8 -17 -7 -37 -5 -38 -4 0 40 0
40 -16 6 -16 6 -9 0 -9 0 -1 -17z"/>
</g>
</svg>
