<?xml version="1.0" standalone="no"?>
<!DOCTYPE svg PUBLIC "-//W3C//DTD SVG 20010904//EN"
 "http://www.w3.org/TR/2001/REC-SVG-20010904/DTD/svg10.dtd">
<svg version="1.0" xmlns="http://www.w3.org/2000/svg"
 width="45.000000pt" height="43.000000pt" viewBox="0 0 45.000000 43.000000"
 preserveAspectRatio="xMidYMid meet">
<metadata>
Created by potrace 1.16, written by Peter Selinger 2001-2019
</metadata>
<g transform="translate(0.000000,43.000000) scale(0.100000,-0.100000)"
fill="#000000" stroke="none">
<path d="M186 405 l-7 -26 6 -8 5 -9 -13 -5 -12 -4 -20 8 -20 8 -28 0 -29 1 7
-41 7 -41 -13 -9 -14 -9 -28 0 -28 0 3 -37 3 -38 22 -3 22 -3 7 -22 7 -22 -1
-27 -1 -28 22 -5 22 -5 30 -2 30 -3 -3 -29 -4 -29 14 -8 13 -9 32 0 32 0 15
16 16 15 0 30 0 29 28 0 27 0 14 9 14 9 -7 35 -6 34 41 6 42 5 8 14 9 13 0 22
0 21 -37 9 -38 9 -3 43 -3 43 -27 -7 -27 -6 -27 -6 -28 -5 0 40 0 40 -16 6
-16 6 -18 0 -18 0 -6 -25z"/>
</g>
</svg>
