<?xml version="1.0" standalone="no"?>
<!DOCTYPE svg PUBLIC "-//W3C//DTD SVG 20010904//EN"
 "http://www.w3.org/TR/2001/REC-SVG-20010904/DTD/svg10.dtd">
<svg version="1.0" xmlns="http://www.w3.org/2000/svg"
 width="37.000000pt" height="35.000000pt" viewBox="0 0 37.000000 35.000000"
 preserveAspectRatio="xMidYMid meet">
<metadata>
Created by potrace 1.16, written by Peter Selinger 2001-2019
</metadata>
<g transform="translate(0.000000,35.000000) scale(0.100000,-0.100000)"
fill="#000000" stroke="none">
<path d="M206 334 l-6 -16 0 -24 0 -24 -25 -6 -26 -6 -29 6 -30 5 -6 -39 -7
-40 -22 0 -23 0 -16 -6 -16 -6 0 -20 0 -19 14 -15 15 -14 25 0 26 0 0 -50 0
-49 35 -7 35 -6 24 6 25 6 3 33 3 32 20 0 20 0 -2 -30 -2 -29 12 -8 12 -8 41
0 42 0 6 16 6 16 0 23 0 24 -12 26 -12 26 -17 -4 -18 -5 -5 15 -6 15 0 9 0 9
41 0 40 0 -3 52 -3 53 -42 -3 -43 -3 -20 6 -20 6 0 35 0 34 -14 0 -14 0 -6
-16z"/>
</g>
</svg>
