<?xml version="1.0" standalone="no"?>
<!DOCTYPE svg PUBLIC "-//W3C//DTD SVG 20010904//EN"
 "http://www.w3.org/TR/2001/REC-SVG-20010904/DTD/svg10.dtd">
<svg version="1.0" xmlns="http://www.w3.org/2000/svg"
 width="39.000000pt" height="37.000000pt" viewBox="0 0 39.000000 37.000000"
 preserveAspectRatio="xMidYMid meet">
<metadata>
Created by potrace 1.16, written by Peter Selinger 2001-2019
</metadata>
<g transform="translate(0.000000,37.000000) scale(0.100000,-0.100000)"
fill="#000000" stroke="none">
<path d="M206 354 l-6 -16 0 -23 0 -24 -20 -6 -19 -6 -35 7 -35 6 -7 -41 -7
-41 -22 0 -23 0 -16 -6 -16 -6 0 -30 0 -29 14 -15 15 -14 25 0 26 0 0 -49 0
-49 23 -6 22 -6 35 0 35 0 12 8 11 7 4 30 3 30 10 -5 9 -5 -3 -24 -3 -24 14
-8 13 -9 51 0 52 0 6 16 6 16 0 33 0 34 -12 26 -11 25 -18 0 -18 0 -6 10 -6
10 41 0 41 0 -3 63 -3 62 -39 -3 -39 -3 -24 6 -23 5 0 35 0 35 -24 0 -24 0 -6
-16z"/>
</g>
</svg>
