<?xml version="1.0" standalone="no"?>
<!DOCTYPE svg PUBLIC "-//W3C//DTD SVG 20010904//EN"
 "http://www.w3.org/TR/2001/REC-SVG-20010904/DTD/svg10.dtd">
<svg version="1.0" xmlns="http://www.w3.org/2000/svg"
 width="43.000000pt" height="34.000000pt" viewBox="0 0 43.000000 34.000000"
 preserveAspectRatio="xMidYMid meet">
<metadata>
Created by potrace 1.16, written by Peter Selinger 2001-2019
</metadata>
<g transform="translate(0.000000,34.000000) scale(0.100000,-0.100000)"
fill="#000000" stroke="none">
<path d="M197 334 l-7 -7 0 -28 0 -29 -25 -6 -26 -6 -29 6 -30 6 0 -28 0 -27
-8 -13 -9 -13 -16 7 -16 6 -16 -15 -15 -16 0 -29 0 -30 16 -6 16 -6 28 0 29 0
-6 -34 -5 -35 15 -15 16 -16 29 0 30 0 6 16 6 16 0 24 0 24 25 0 25 0 12 -25
11 -25 26 -6 26 -6 13 -4 13 -4 15 14 14 15 0 29 0 30 20 -5 20 -5 0 11 0 11
15 0 15 0 0 34 0 34 -16 6 -16 6 -19 0 -19 0 0 39 0 39 -39 -5 -40 -5 -25 6
-26 6 2 32 3 32 -15 3 -16 4 -7 -7z"/>
</g>
</svg>
