<?xml version="1.0" standalone="no"?>
<!DOCTYPE svg PUBLIC "-//W3C//DTD SVG 20010904//EN"
 "http://www.w3.org/TR/2001/REC-SVG-20010904/DTD/svg10.dtd">
<svg version="1.0" xmlns="http://www.w3.org/2000/svg"
 width="45.000000pt" height="36.000000pt" viewBox="0 0 45.000000 36.000000"
 preserveAspectRatio="xMidYMid meet">
<metadata>
Created by potrace 1.16, written by Peter Selinger 2001-2019
</metadata>
<g transform="translate(0.000000,36.000000) scale(0.100000,-0.100000)"
fill="#000000" stroke="none">
<path d="M197 354 l-7 -7 0 -28 0 -28 -20 -6 -19 -6 -35 6 -35 7 -3 -34 -3
-33 -24 -3 -24 -4 -14 -13 -13 -14 0 -39 0 -40 16 -6 16 -6 24 0 24 0 0 -36 0
-35 14 -15 15 -14 39 0 40 0 6 16 6 16 0 24 0 24 15 0 15 0 12 -25 11 -25 16
-4 16 -5 32 -6 33 -7 15 16 15 15 0 25 0 26 20 0 20 0 0 10 0 10 15 0 15 0 0
44 0 44 -16 6 -16 6 -19 0 -19 0 0 41 0 40 -44 -6 -44 -7 -19 6 -18 6 0 32 0
33 -25 3 -26 3 -7 -7z"/>
</g>
</svg>
