<?xml version="1.0" standalone="no"?>
<!DOCTYPE svg PUBLIC "-//W3C//DTD SVG 20010904//EN"
 "http://www.w3.org/TR/2001/REC-SVG-20010904/DTD/svg10.dtd">
<svg version="1.0" xmlns="http://www.w3.org/2000/svg"
 width="34.000000pt" height="29.000000pt" viewBox="0 0 34.000000 29.000000"
 preserveAspectRatio="xMidYMid meet">
<metadata>
Created by potrace 1.16, written by Peter Selinger 2001-2019
</metadata>
<g transform="translate(0.000000,29.000000) scale(0.100000,-0.100000)"
fill="#000000" stroke="none">
<path d="M179 281 l-1 -6 2 -26 1 -26 -16 -17 -16 -16 -22 0 -22 0 -12 8 -12
8 2 29 2 30 -42 3 -43 3 0 -33 0 -33 8 -11 7 -11 38 -7 39 -7 -6 -22 -6 -22 0
-7 0 -8 -25 0 -26 0 -3 -12 -3 -13 -11 -34 -12 -35 3 -1 2 -2 32 -6 32 -6 16
15 15 15 0 30 0 30 28 -3 27 -3 -3 -18 -3 -17 15 -15 15 -15 45 0 46 0 12 45
12 45 17 0 17 0 6 16 6 16 0 18 0 19 -35 7 -35 6 0 37 0 36 -8 10 -7 10 -37 1
-38 1 -1 -6z"/>
</g>
</svg>
