<?xml version="1.0" standalone="no"?>
<!DOCTYPE svg PUBLIC "-//W3C//DTD SVG 20010904//EN"
 "http://www.w3.org/TR/2001/REC-SVG-20010904/DTD/svg10.dtd">
<svg version="1.0" xmlns="http://www.w3.org/2000/svg"
 width="36.000000pt" height="31.000000pt" viewBox="0 0 36.000000 31.000000"
 preserveAspectRatio="xMidYMid meet">
<metadata>
Created by potrace 1.16, written by Peter Selinger 2001-2019
</metadata>
<g transform="translate(0.000000,31.000000) scale(0.100000,-0.100000)"
fill="#000000" stroke="none">
<path d="M175 300 l-6 -9 6 -24 6 -24 -16 -17 -16 -16 -12 0 -12 0 -10 8 -10
7 0 30 0 30 -52 3 -53 3 0 -43 0 -43 8 -11 7 -11 36 -7 37 -7 -5 -19 -5 -20
-24 0 -25 0 -3 -12 -4 -13 -12 -43 -13 -42 4 -4 4 -4 41 -7 41 -6 17 16 16 16
0 30 0 29 15 0 15 0 0 -21 0 -20 14 -15 15 -14 55 0 56 0 12 45 12 45 17 0 17
0 6 16 6 16 0 28 0 29 -35 7 -35 6 0 37 0 36 -8 11 -7 11 -47 1 -48 0 -5 -8z"/>
</g>
</svg>
