<?xml version="1.0" standalone="no"?>
<!DOCTYPE svg PUBLIC "-//W3C//DTD SVG 20010904//EN"
 "http://www.w3.org/TR/2001/REC-SVG-20010904/DTD/svg10.dtd">
<svg version="1.0" xmlns="http://www.w3.org/2000/svg"
 width="43.000000pt" height="31.000000pt" viewBox="0 0 43.000000 31.000000"
 preserveAspectRatio="xMidYMid meet">
<metadata>
Created by potrace 1.16, written by Peter Selinger 2001-2019
</metadata>
<g transform="translate(0.000000,31.000000) scale(0.100000,-0.100000)"
fill="#000000" stroke="none">
<path d="M250 287 l0 -26 -12 -26 -11 -25 -8 0 -7 0 -14 5 -14 6 4 29 4 30
-13 4 -14 4 -52 7 -53 6 3 -47 2 -47 -33 -9 -32 -9 0 -34 0 -35 19 0 19 0 7
-40 7 -40 13 -14 14 -13 52 -7 52 -7 8 13 9 13 0 28 0 28 18 -3 17 -3 3 -33 3
-32 23 -6 23 -5 42 11 41 11 0 44 0 45 16 0 15 0 15 14 14 15 0 31 0 31 -30 6
-30 6 0 38 0 38 -10 6 -10 6 -50 6 -50 6 0 -26z"/>
</g>
</svg>
