<?xml version="1.0" standalone="no"?>
<!DOCTYPE svg PUBLIC "-//W3C//DTD SVG 20010904//EN"
 "http://www.w3.org/TR/2001/REC-SVG-20010904/DTD/svg10.dtd">
<svg version="1.0" xmlns="http://www.w3.org/2000/svg"
 width="41.000000pt" height="29.000000pt" viewBox="0 0 41.000000 29.000000"
 preserveAspectRatio="xMidYMid meet">
<metadata>
Created by potrace 1.16, written by Peter Selinger 2001-2019
</metadata>
<g transform="translate(0.000000,29.000000) scale(0.100000,-0.100000)"
fill="#000000" stroke="none">
<path d="M250 267 l0 -26 -12 -26 -11 -25 -21 0 -21 0 -13 9 -13 8 6 26 7 27
-13 4 -14 4 -41 5 -40 5 0 -46 1 -45 -33 -9 -32 -9 0 -24 0 -25 19 0 19 0 7
-38 6 -37 8 -14 8 -13 49 -9 48 -9 8 12 8 13 0 28 0 28 28 -3 27 -3 3 -32 3
-31 16 -6 15 -6 39 10 39 11 0 49 0 49 15 -5 14 -6 16 15 15 16 0 21 0 21 -30
6 -30 6 0 38 0 38 -8 5 -9 5 -41 7 -42 7 0 -26z"/>
</g>
</svg>
