<?xml version="1.0" standalone="no"?>
<!DOCTYPE svg PUBLIC "-//W3C//DTD SVG 20010904//EN"
 "http://www.w3.org/TR/2001/REC-SVG-20010904/DTD/svg10.dtd">
<svg version="1.0" xmlns="http://www.w3.org/2000/svg"
 width="36.000000pt" height="37.000000pt" viewBox="0 0 36.000000 37.000000"
 preserveAspectRatio="xMidYMid meet">
<metadata>
Created by potrace 1.16, written by Peter Selinger 2001-2019
</metadata>
<g transform="translate(0.000000,37.000000) scale(0.100000,-0.100000)"
fill="#000000" stroke="none">
<path d="M12 323 l3 -46 30 -10 30 -10 7 -10 7 -11 -21 -18 -21 -18 -19 0 -18
0 0 -29 0 -28 -7 -33 -6 -33 46 7 47 7 0 -24 0 -24 19 -21 18 -22 20 0 20 0
21 19 22 18 0 22 0 21 28 0 27 0 11 8 12 7 11 42 12 43 25 6 25 6 -3 37 -3 36
-37 3 -38 3 0 46 0 46 -31 -7 -31 -6 -13 0 -13 0 -6 -25 -6 -25 -25 0 -25 0
-6 29 -6 29 -22 6 -21 6 -33 0 -33 0 3 -47z"/>
</g>
</svg>
