<?xml version="1.0" standalone="no"?>
<!DOCTYPE svg PUBLIC "-//W3C//DTD SVG 20010904//EN"
 "http://www.w3.org/TR/2001/REC-SVG-20010904/DTD/svg10.dtd">
<svg version="1.0" xmlns="http://www.w3.org/2000/svg"
 width="34.000000pt" height="35.000000pt" viewBox="0 0 34.000000 35.000000"
 preserveAspectRatio="xMidYMid meet">
<metadata>
Created by potrace 1.16, written by Peter Selinger 2001-2019
</metadata>
<g transform="translate(0.000000,35.000000) scale(0.100000,-0.100000)"
fill="#000000" stroke="none">
<path d="M12 313 l3 -37 32 -10 33 -9 6 -19 6 -19 -23 -20 -22 -19 -19 0 -18
0 0 -34 0 -34 -6 -16 -6 -15 52 6 51 6 -6 -24 -6 -25 19 -22 19 -22 10 0 10 0
22 19 22 19 -3 18 -3 18 20 4 20 3 21 4 22 5 11 45 11 45 26 6 25 6 -3 27 -3
26 -37 3 -38 3 0 46 0 45 -16 -6 -16 -6 -18 0 -18 0 -6 -25 -6 -25 -35 0 -35
0 -6 29 -6 29 -22 6 -21 6 -23 0 -23 0 3 -37z"/>
</g>
</svg>
