<?xml version="1.0" standalone="no"?>
<!DOCTYPE svg PUBLIC "-//W3C//DTD SVG 20010904//EN"
 "http://www.w3.org/TR/2001/REC-SVG-20010904/DTD/svg10.dtd">
<svg version="1.0" xmlns="http://www.w3.org/2000/svg"
 width="41.000000pt" height="36.000000pt" viewBox="0 0 41.000000 36.000000"
 preserveAspectRatio="xMidYMid meet">
<metadata>
Created by potrace 1.16, written by Peter Selinger 2001-2019
</metadata>
<g transform="translate(0.000000,36.000000) scale(0.100000,-0.100000)"
fill="#000000" stroke="none">
<path d="M97 353 l-7 -6 0 -38 0 -37 -16 -6 -16 -6 -24 0 -25 0 -5 -15 -6 -15
6 -24 6 -24 25 -6 25 -6 1 -23 1 -22 -2 -19 -2 -19 14 -8 13 -9 41 0 41 0 -5
-26 -5 -26 14 -9 14 -9 31 0 31 0 11 24 10 23 38 7 37 7 12 13 13 12 -1 27 0
27 13 30 12 30 9 0 9 0 0 24 0 24 -31 6 -32 6 6 50 6 50 -42 -6 -42 -6 -13 -4
-13 -4 3 -17 4 -18 -19 -17 -20 -18 -17 20 -17 20 5 25 4 25 -44 0 -45 0 -6
-7z"/>
</g>
</svg>
