<?xml version="1.0" standalone="no"?>
<!DOCTYPE svg PUBLIC "-//W3C//DTD SVG 20010904//EN"
 "http://www.w3.org/TR/2001/REC-SVG-20010904/DTD/svg10.dtd">
<svg version="1.0" xmlns="http://www.w3.org/2000/svg"
 width="39.000000pt" height="34.000000pt" viewBox="0 0 39.000000 34.000000"
 preserveAspectRatio="xMidYMid meet">
<metadata>
Created by potrace 1.16, written by Peter Selinger 2001-2019
</metadata>
<g transform="translate(0.000000,34.000000) scale(0.100000,-0.100000)"
fill="#000000" stroke="none">
<path d="M97 333 l-7 -6 0 -38 0 -37 -16 -6 -16 -6 -23 0 -24 0 -6 -10 -6 -10
6 -19 6 -19 23 -6 23 -6 7 -31 6 -31 -6 -10 -7 -10 14 -9 14 -9 44 0 43 0 -6
-27 -7 -26 13 -8 13 -9 21 0 21 0 11 24 10 23 38 7 37 7 13 14 13 13 -5 5 -5
5 11 41 11 40 14 15 15 15 0 11 0 12 -16 -6 -15 -6 -15 14 -14 15 0 41 0 41
-37 -3 -38 -3 3 -18 3 -19 -22 -19 -22 -19 -10 0 -10 0 -19 22 -19 22 6 23 5
23 -33 0 -34 0 -6 -7z"/>
</g>
</svg>
