<?xml version="1.0" standalone="no"?>
<!DOCTYPE svg PUBLIC "-//W3C//DTD SVG 20010904//EN"
 "http://www.w3.org/TR/2001/REC-SVG-20010904/DTD/svg10.dtd">
<svg version="1.0" xmlns="http://www.w3.org/2000/svg"
 width="35.000000pt" height="35.000000pt" viewBox="0 0 35.000000 35.000000"
 preserveAspectRatio="xMidYMid meet">
<metadata>
Created by potrace 1.16, written by Peter Selinger 2001-2019
</metadata>
<g transform="translate(0.000000,35.000000) scale(0.100000,-0.100000)"
fill="#000000" stroke="none">
<path d="M0 339 l0 -10 10 6 10 6 0 5 0 4 -10 0 -10 0 0 -11z M38 343 l-18 -4
0 -39 0 -38 19 5 18 5 17 -17 16 -16 0 -14 0 -14 -16 -15 -15 -16 -24 0 -23 0
-4 -44 -3 -45 20 -5 20 -6 34 0 33 0 -6 -25 -7 -26 15 -14 15 -15 18 0 18 0
13 9 14 8 -4 19 -3 19 40 9 40 10 4 3 5 3 -3 52 -2 51 13 8 13 9 28 0 27 0 0
25 0 25 -22 0 -23 0 -22 6 -22 6 -3 42 -3 41 -38 3 -38 3 2 -23 2 -23 -1 -16
-2 -17 -24 -6 -24 -6 -15 6 -15 5 -12 29 -12 29 7 10 6 11 -18 -1 -18 -1 -17
-5z"/>
</g>
</svg>
