<?xml version="1.0" standalone="no"?>
<!DOCTYPE svg PUBLIC "-//W3C//DTD SVG 20010904//EN"
 "http://www.w3.org/TR/2001/REC-SVG-20010904/DTD/svg10.dtd">
<svg version="1.0" xmlns="http://www.w3.org/2000/svg"
 width="35.000000pt" height="28.000000pt" viewBox="0 0 35.000000 28.000000"
 preserveAspectRatio="xMidYMid meet">
<metadata>
Created by potrace 1.16, written by Peter Selinger 2001-2019
</metadata>
<g transform="translate(0.000000,28.000000) scale(0.100000,-0.100000)"
fill="#000000" stroke="none">
<path d="M0 261 l0 -21 9 0 10 0 3 -32 3 -33 33 0 32 0 6 -18 6 -19 -6 -5 -5
-5 -46 -5 -45 -6 0 -21 0 -21 6 -38 7 -37 138 0 139 0 0 29 0 29 6 16 6 16 18
0 18 0 6 16 6 16 0 30 0 30 -23 -4 -23 -4 -12 12 -12 13 0 37 0 37 -37 -7 -38
-6 -12 0 -13 0 0 -24 0 -25 -20 -6 -20 -6 -15 15 -15 15 0 20 0 21 -32 0 -33
0 -22 6 -23 6 0 -21z"/>
</g>
</svg>
