<?xml version="1.0" standalone="no"?>
<!DOCTYPE svg PUBLIC "-//W3C//DTD SVG 20010904//EN"
 "http://www.w3.org/TR/2001/REC-SVG-20010904/DTD/svg10.dtd">
<svg version="1.0" xmlns="http://www.w3.org/2000/svg"
 width="39.000000pt" height="29.000000pt" viewBox="0 0 39.000000 29.000000"
 preserveAspectRatio="xMidYMid meet">
<metadata>
Created by potrace 1.16, written by Peter Selinger 2001-2019
</metadata>
<g transform="translate(0.000000,29.000000) scale(0.100000,-0.100000)"
fill="#000000" stroke="none">
<path d="M70 255 l0 -24 -12 -26 -11 -25 -24 0 -23 0 0 -25 0 -25 24 -6 24 -6
6 -48 6 -48 26 -6 26 -7 21 7 22 7 7 11 8 11 0 28 0 27 25 0 25 0 1 -22 1 -23
-1 -13 -2 -12 15 -15 14 -15 31 6 30 6 5 15 6 14 -10 19 -10 19 0 19 0 20 16
6 16 6 23 0 23 0 6 16 6 16 0 9 0 9 -24 0 -24 0 -16 6 -16 6 0 34 0 34 -22 0
-23 0 -11 -8 -11 -7 -7 -22 -7 -23 -17 0 -17 0 -22 6 -23 6 0 28 0 28 -16 6
-16 6 -24 0 -24 0 0 -25z"/>
</g>
</svg>
