<?xml version="1.0" standalone="no"?>
<!DOCTYPE svg PUBLIC "-//W3C//DTD SVG 20010904//EN"
 "http://www.w3.org/TR/2001/REC-SVG-20010904/DTD/svg10.dtd">
<svg version="1.0" xmlns="http://www.w3.org/2000/svg"
 width="41.000000pt" height="31.000000pt" viewBox="0 0 41.000000 31.000000"
 preserveAspectRatio="xMidYMid meet">
<metadata>
Created by potrace 1.16, written by Peter Selinger 2001-2019
</metadata>
<g transform="translate(0.000000,31.000000) scale(0.100000,-0.100000)"
fill="#000000" stroke="none">
<path d="M64 284 l7 -27 -12 -29 -11 -28 -24 0 -24 0 0 -35 0 -35 24 -6 24 -6
6 -48 7 -49 33 -7 34 -6 24 7 23 8 7 11 8 11 0 28 0 27 15 0 15 0 0 -36 0 -35
15 -16 15 -15 40 7 39 7 6 20 7 19 -13 31 -12 30 14 9 14 9 26 0 27 0 6 16 6
16 0 19 0 19 -24 0 -24 0 -16 6 -16 6 0 34 0 34 -29 0 -29 0 -16 -6 -16 -6 0
-12 0 -11 -9 -13 -8 -13 -26 7 -27 6 0 28 0 29 -17 4 -18 5 -39 7 -39 6 7 -27z"/>
</g>
</svg>
