<?xml version="1.0" standalone="no"?>
<!DOCTYPE svg PUBLIC "-//W3C//DTD SVG 20010904//EN"
 "http://www.w3.org/TR/2001/REC-SVG-20010904/DTD/svg10.dtd">
<svg version="1.0" xmlns="http://www.w3.org/2000/svg"
 width="37.000000pt" height="37.000000pt" viewBox="0 0 37.000000 37.000000"
 preserveAspectRatio="xMidYMid meet">
<metadata>
Created by potrace 1.16, written by Peter Selinger 2001-2019
</metadata>
<g transform="translate(0.000000,37.000000) scale(0.100000,-0.100000)"
fill="#000000" stroke="none">
<path d="M0 349 l0 -19 10 0 10 0 0 -36 0 -35 18 2 17 1 11 -1 12 -1 6 -15 5
-14 -15 -16 -15 -15 -23 0 -23 0 -6 -52 -5 -53 4 -4 4 -4 48 -5 49 -4 -5 -24
-4 -23 15 -16 16 -15 24 0 25 0 16 6 16 6 0 24 0 23 38 7 37 7 7 11 7 11 -6
43 -6 44 14 9 14 9 28 0 27 0 0 35 0 35 -22 0 -23 0 -22 6 -22 6 -3 42 -3 41
-47 3 -48 3 0 -39 0 -40 -20 -5 -20 -5 -15 15 -15 14 -1 12 -1 12 1 17 2 17
-55 0 -56 -1 0 -19z"/>
</g>
</svg>
