<?xml version="1.0" standalone="no"?>
<!DOCTYPE svg PUBLIC "-//W3C//DTD SVG 20010904//EN"
 "http://www.w3.org/TR/2001/REC-SVG-20010904/DTD/svg10.dtd">
<svg version="1.0" xmlns="http://www.w3.org/2000/svg"
 width="27.000000pt" height="35.000000pt" viewBox="0 0 27.000000 35.000000"
 preserveAspectRatio="xMidYMid meet">
<metadata>
Created by potrace 1.16, written by Peter Selinger 2001-2019
</metadata>
<g transform="translate(0.000000,35.000000) scale(0.100000,-0.100000)"
fill="#000000" stroke="none">
<path d="M0 296 l0 -55 38 -3 37 -3 3 -26 3 -27 -25 -6 -25 -6 -10 -38 -11
-37 0 -7 0 -8 40 0 40 0 0 -26 0 -25 14 -15 15 -14 16 0 16 0 15 14 14 15 0
35 0 36 42 -6 41 -7 -7 19 -8 19 -10 33 -9 32 -14 0 -15 0 0 25 0 24 36 7 36
7 -7 36 -7 36 -3 3 -3 4 -20 -11 -21 -11 -20 0 -21 0 0 -19 0 -20 -19 -6 -18
-5 -18 6 -17 7 4 28 4 29 -35 6 -36 6 -17 5 -18 4 0 -55z"/>
</g>
</svg>
