<?xml version="1.0" standalone="no"?>
<!DOCTYPE svg PUBLIC "-//W3C//DTD SVG 20010904//EN"
 "http://www.w3.org/TR/2001/REC-SVG-20010904/DTD/svg10.dtd">
<svg version="1.0" xmlns="http://www.w3.org/2000/svg"
 width="33.000000pt" height="26.000000pt" viewBox="0 0 33.000000 26.000000"
 preserveAspectRatio="xMidYMid meet">
<metadata>
Created by potrace 1.16, written by Peter Selinger 2001-2019
</metadata>
<g transform="translate(0.000000,26.000000) scale(0.100000,-0.100000)"
fill="#000000" stroke="none">
<path d="M22 213 l3 -38 30 2 29 2 8 -12 8 -12 0 -21 0 -22 -22 -6 -23 -6 -29
0 -29 0 7 -38 6 -37 0 -12 0 -13 130 0 130 0 0 29 0 29 6 16 6 16 18 0 18 0 6
16 6 16 0 19 0 20 -20 -6 -20 -6 -15 15 -15 15 0 36 0 37 -22 -6 -23 -6 -17 0
-18 0 0 -24 0 -24 -16 -6 -16 -6 -15 0 -14 0 -15 14 -14 15 0 20 0 21 -36 0
-35 0 3 -37z"/>
</g>
</svg>
