<?xml version="1.0" standalone="no"?>
<!DOCTYPE svg PUBLIC "-//W3C//DTD SVG 20010904//EN"
 "http://www.w3.org/TR/2001/REC-SVG-20010904/DTD/svg10.dtd">
<svg version="1.0" xmlns="http://www.w3.org/2000/svg"
 width="29.000000pt" height="37.000000pt" viewBox="0 0 29.000000 37.000000"
 preserveAspectRatio="xMidYMid meet">
<metadata>
Created by potrace 1.16, written by Peter Selinger 2001-2019
</metadata>
<g transform="translate(0.000000,37.000000) scale(0.100000,-0.100000)"
fill="#000000" stroke="none">
<path d="M0 307 l0 -66 37 -3 38 -3 3 -16 3 -17 -25 -6 -25 -6 -10 -38 -11
-37 0 -17 0 -18 40 0 40 0 0 -26 0 -25 14 -15 15 -14 26 0 26 0 15 14 14 15 0
33 0 34 40 -4 40 -4 0 12 0 11 -16 50 -16 49 -14 0 -14 0 0 15 0 14 36 7 36 7
-6 45 -6 45 -5 6 -6 5 -32 -12 -33 -12 -17 0 -17 0 0 -19 0 -19 -13 -5 -14 -5
-12 7 -12 8 6 25 7 26 -29 6 -28 5 -37 7 -38 6 0 -65z"/>
</g>
</svg>
