<?xml version="1.0" standalone="no"?>
<!DOCTYPE svg PUBLIC "-//W3C//DTD SVG 20010904//EN"
 "http://www.w3.org/TR/2001/REC-SVG-20010904/DTD/svg10.dtd">
<svg version="1.0" xmlns="http://www.w3.org/2000/svg"
 width="34.000000pt" height="28.000000pt" viewBox="0 0 34.000000 28.000000"
 preserveAspectRatio="xMidYMid meet">
<metadata>
Created by potrace 1.16, written by Peter Selinger 2001-2019
</metadata>
<g transform="translate(0.000000,28.000000) scale(0.100000,-0.100000)"
fill="#000000" stroke="none">
<path d="M20 231 l0 -39 35 -6 35 -7 0 -20 0 -20 -14 -15 -15 -14 -24 0 -25 0
-4 -44 -3 -45 20 -5 20 -6 23 0 23 0 15 14 14 15 0 20 0 21 25 0 25 0 0 -34 0
-34 14 -5 15 -6 35 6 35 5 6 52 7 52 29 11 29 11 0 16 0 16 -24 0 -25 0 -15
16 -16 15 0 30 0 29 -14 0 -15 0 -25 -10 -26 -9 7 -17 6 -16 -14 -9 -14 -9
-18 0 -18 0 -15 15 -15 14 7 26 6 25 -46 0 -46 0 0 -39z"/>
</g>
</svg>
