<?xml version="1.0" standalone="no"?>
<!DOCTYPE svg PUBLIC "-//W3C//DTD SVG 20010904//EN"
 "http://www.w3.org/TR/2001/REC-SVG-20010904/DTD/svg10.dtd">
<svg version="1.0" xmlns="http://www.w3.org/2000/svg"
 width="34.000000pt" height="37.000000pt" viewBox="0 0 34.000000 37.000000"
 preserveAspectRatio="xMidYMid meet">
<metadata>
Created by potrace 1.16, written by Peter Selinger 2001-2019
</metadata>
<g transform="translate(0.000000,37.000000) scale(0.100000,-0.100000)"
fill="#000000" stroke="none">
<path d="M247 363 l-7 -6 0 -23 0 -23 -16 -15 -15 -16 -15 0 -14 0 0 15 0 15
-9 0 -9 0 5 19 5 18 -43 6 -43 6 -8 -5 -8 -5 0 -30 0 -30 -13 -14 -13 -13 -20
-4 -19 -3 -3 -38 -3 -39 20 -5 21 -5 10 -37 10 -36 0 -12 0 -13 40 0 40 0 0
-21 0 -20 14 -15 15 -14 24 0 25 0 16 6 16 6 0 23 0 23 46 7 46 7 -6 21 -6 22
-6 43 -7 42 -9 0 -9 0 -13 13 -13 13 13 12 13 12 21 0 21 0 -7 53 -7 52 -1 1
-1 1 -36 7 -35 6 -7 -7z"/>
</g>
</svg>
