<?xml version="1.0" standalone="no"?>
<!DOCTYPE svg PUBLIC "-//W3C//DTD SVG 20010904//EN"
 "http://www.w3.org/TR/2001/REC-SVG-20010904/DTD/svg10.dtd">
<svg version="1.0" xmlns="http://www.w3.org/2000/svg"
 width="28.000000pt" height="30.000000pt" viewBox="0 0 28.000000 30.000000"
 preserveAspectRatio="xMidYMid meet">
<metadata>
Created by potrace 1.16, written by Peter Selinger 2001-2019
</metadata>
<g transform="translate(0.000000,30.000000) scale(0.100000,-0.100000)"
fill="#000000" stroke="none">
<path d="M3 279 l7 -24 0 -31 0 -31 30 -6 30 -7 0 -10 0 -11 -12 -13 -12 -13
-18 5 -18 4 0 -43 0 -44 -6 -21 -6 -21 44 -7 45 -7 16 7 17 6 0 23 0 23 6 16
6 16 14 0 14 0 0 -19 0 -19 6 -16 6 -16 54 0 54 0 0 61 0 61 -25 -6 -26 -7
-14 15 -15 15 0 15 0 15 35 7 35 6 0 39 0 39 -17 0 -18 0 -37 -6 -38 -7 0 -18
0 -19 -20 0 -20 0 -6 30 -6 30 -17 0 -16 0 -39 7 -39 6 6 -24z"/>
</g>
</svg>
