<?xml version="1.0" standalone="no"?>
<!DOCTYPE svg PUBLIC "-//W3C//DTD SVG 20010904//EN"
 "http://www.w3.org/TR/2001/REC-SVG-20010904/DTD/svg10.dtd">
<svg version="1.0" xmlns="http://www.w3.org/2000/svg"
 width="32.000000pt" height="36.000000pt" viewBox="0 0 32.000000 36.000000"
 preserveAspectRatio="xMidYMid meet">
<metadata>
Created by potrace 1.16, written by Peter Selinger 2001-2019
</metadata>
<g transform="translate(0.000000,36.000000) scale(0.100000,-0.100000)"
fill="#000000" stroke="none">
<path d="M235 341 l6 -19 -12 -26 -12 -26 -22 0 -23 0 -12 29 -12 30 7 10 6
11 -45 0 -46 0 0 -50 0 -49 -35 -7 -35 -6 0 -24 0 -24 13 0 12 0 14 -9 14 -9
6 -44 6 -43 39 3 38 3 -7 -11 -7 -11 12 -29 12 -29 15 -5 15 -6 24 6 24 6 2
17 1 16 -2 24 -2 24 43 -5 43 -5 -3 57 -4 58 -17 -5 -18 -5 -17 17 -16 16 0
14 0 14 33 9 32 8 3 41 3 40 -23 7 -23 6 -18 0 -18 0 6 -19z"/>
</g>
</svg>
