<?xml version="1.0" standalone="no"?>
<!DOCTYPE svg PUBLIC "-//W3C//DTD SVG 20010904//EN"
 "http://www.w3.org/TR/2001/REC-SVG-20010904/DTD/svg10.dtd">
<svg version="1.0" xmlns="http://www.w3.org/2000/svg"
 width="29.000000pt" height="35.000000pt" viewBox="0 0 29.000000 35.000000"
 preserveAspectRatio="xMidYMid meet">
<metadata>
Created by potrace 1.16, written by Peter Selinger 2001-2019
</metadata>
<g transform="translate(0.000000,35.000000) scale(0.100000,-0.100000)"
fill="#000000" stroke="none">
<path d="M4 336 l-5 -14 3 -38 3 -39 30 0 30 0 7 -10 8 -10 0 -12 0 -13 -24
-6 -25 -6 -17 -55 -17 -55 14 -9 14 -9 26 0 26 0 7 -30 6 -30 40 0 40 0 0 19
0 19 45 6 45 7 6 24 6 24 -7 23 -6 23 -11 28 -10 27 -15 0 -14 0 6 10 6 10 29
0 28 0 6 16 6 17 -6 48 -7 49 -134 0 -134 0 -5 -14z"/>
</g>
</svg>
