<?xml version="1.0" standalone="no"?>
<!DOCTYPE svg PUBLIC "-//W3C//DTD SVG 20010904//EN"
 "http://www.w3.org/TR/2001/REC-SVG-20010904/DTD/svg10.dtd">
<svg version="1.0" xmlns="http://www.w3.org/2000/svg"
 width="34.000000pt" height="38.000000pt" viewBox="0 0 34.000000 38.000000"
 preserveAspectRatio="xMidYMid meet">
<metadata>
Created by potrace 1.16, written by Peter Selinger 2001-2019
</metadata>
<g transform="translate(0.000000,38.000000) scale(0.100000,-0.100000)"
fill="#000000" stroke="none">
<path d="M231 358 l3 -23 -8 -22 -7 -23 -14 0 -14 0 -7 23 -8 22 3 18 2 17
-55 0 -56 0 0 -50 0 -49 -35 -7 -35 -6 0 -34 0 -34 13 0 12 0 14 -9 14 -9 6
-44 6 -43 32 0 31 0 6 -26 5 -27 17 -17 17 -17 35 6 34 5 6 6 6 5 0 36 1 35
44 -6 44 -7 -6 24 -7 23 0 49 0 48 -20 -5 -20 -5 -16 16 -17 16 19 7 19 7 18
6 17 5 0 50 0 49 -22 6 -23 6 -28 0 -28 0 2 -22z"/>
</g>
</svg>
