<?xml version="1.0" standalone="no"?>
<!DOCTYPE svg PUBLIC "-//W3C//DTD SVG 20010904//EN"
 "http://www.w3.org/TR/2001/REC-SVG-20010904/DTD/svg10.dtd">
<svg version="1.0" xmlns="http://www.w3.org/2000/svg"
 width="36.000000pt" height="30.000000pt" viewBox="0 0 36.000000 30.000000"
 preserveAspectRatio="xMidYMid meet">
<metadata>
Created by potrace 1.16, written by Peter Selinger 2001-2019
</metadata>
<g transform="translate(0.000000,30.000000) scale(0.100000,-0.100000)"
fill="#000000" stroke="none">
<path d="M13 279 l7 -24 0 -31 0 -32 35 -6 35 -7 0 -10 0 -10 -14 -15 -15 -14
-24 0 -24 0 -6 -52 -5 -53 4 -4 4 -4 49 -5 50 -4 15 15 16 16 0 20 0 21 15 0
15 0 0 -34 0 -34 17 -6 16 -7 43 7 43 6 6 52 7 52 29 11 29 11 0 26 0 26 -24
0 -25 0 -15 16 -16 15 0 30 0 29 -24 0 -25 0 -26 -10 -27 -10 5 -20 5 -19 -19
-6 -19 -6 -13 12 -13 13 4 28 4 28 -38 0 -39 0 -24 7 -24 6 6 -24z"/>
</g>
</svg>
