<?xml version="1.0" standalone="no"?>
<!DOCTYPE svg PUBLIC "-//W3C//DTD SVG 20010904//EN"
 "http://www.w3.org/TR/2001/REC-SVG-20010904/DTD/svg10.dtd">
<svg version="1.0" xmlns="http://www.w3.org/2000/svg"
 width="27.000000pt" height="33.000000pt" viewBox="0 0 27.000000 33.000000"
 preserveAspectRatio="xMidYMid meet">
<metadata>
Created by potrace 1.16, written by Peter Selinger 2001-2019
</metadata>
<g transform="translate(0.000000,33.000000) scale(0.100000,-0.100000)"
fill="#000000" stroke="none">
<path d="M4 316 l-5 -14 3 -29 3 -28 30 2 29 2 8 -12 8 -12 0 -22 0 -23 -24
-6 -24 -6 -15 -46 -16 -47 12 -7 12 -8 26 0 26 0 7 -30 6 -30 30 0 30 0 0 19
0 19 44 6 44 7 6 16 6 16 -5 21 -6 21 -11 28 -10 27 -15 0 -14 0 3 18 3 17 32
3 31 3 5 13 5 14 -5 41 -6 41 -124 0 -124 0 -5 -14z"/>
</g>
</svg>
