<?xml version="1.0" standalone="no"?>
<!DOCTYPE svg PUBLIC "-//W3C//DTD SVG 20010904//EN"
 "http://www.w3.org/TR/2001/REC-SVG-20010904/DTD/svg10.dtd">
<svg version="1.0" xmlns="http://www.w3.org/2000/svg"
 width="26.000000pt" height="28.000000pt" viewBox="0 0 26.000000 28.000000"
 preserveAspectRatio="xMidYMid meet">
<metadata>
Created by potrace 1.16, written by Peter Selinger 2001-2019
</metadata>
<g transform="translate(0.000000,28.000000) scale(0.100000,-0.100000)"
fill="#000000" stroke="none">
<path d="M15 271 l-5 -4 0 -37 0 -37 30 -6 30 -6 0 -21 0 -21 -15 -16 -16 -15
-13 5 -14 6 -4 -54 -3 -53 33 -6 33 -5 15 6 14 5 0 23 0 23 6 16 6 16 24 0 24
0 0 -19 0 -19 6 -16 6 -16 44 0 44 0 0 49 0 48 -25 -4 -24 -5 -16 15 -15 16 0
25 0 25 35 7 35 6 0 30 0 31 -31 -7 -31 -6 -14 0 -14 0 0 -20 0 -20 -30 0 -30
0 -6 29 -6 29 -34 4 -35 4 -4 -5z"/>
</g>
</svg>
