<?xml version="1.0" standalone="no"?>
<!DOCTYPE svg PUBLIC "-//W3C//DTD SVG 20010904//EN"
 "http://www.w3.org/TR/2001/REC-SVG-20010904/DTD/svg10.dtd">
<svg version="1.0" xmlns="http://www.w3.org/2000/svg"
 width="32.000000pt" height="35.000000pt" viewBox="0 0 32.000000 35.000000"
 preserveAspectRatio="xMidYMid meet">
<metadata>
Created by potrace 1.16, written by Peter Selinger 2001-2019
</metadata>
<g transform="translate(0.000000,35.000000) scale(0.100000,-0.100000)"
fill="#000000" stroke="none">
<path d="M245 342 l-5 -5 0 -23 0 -23 -16 -15 -15 -16 -25 0 -24 0 0 15 0 15
-11 0 -11 0 5 19 5 19 -34 4 -35 4 -4 -5 -5 -4 0 -29 0 -29 -13 -14 -13 -13
-20 -4 -19 -3 -3 -28 -3 -28 20 -6 21 -5 10 -37 10 -36 0 -12 0 -13 40 0 40 0
0 -21 0 -20 14 -15 15 -14 14 0 15 0 16 6 16 6 0 23 0 23 43 6 43 7 -10 54
-10 55 -9 0 -8 0 -15 14 -14 15 0 6 0 6 14 15 15 14 21 0 22 0 -6 16 -6 16 0
28 0 28 -30 4 -30 5 -5 -5z"/>
</g>
</svg>
