<?xml version="1.0" standalone="no"?>
<!DOCTYPE svg PUBLIC "-//W3C//DTD SVG 20010904//EN"
 "http://www.w3.org/TR/2001/REC-SVG-20010904/DTD/svg10.dtd">
<svg version="1.0" xmlns="http://www.w3.org/2000/svg"
 width="27.000000pt" height="30.000000pt" viewBox="0 0 27.000000 30.000000"
 preserveAspectRatio="xMidYMid meet">
<metadata>
Created by potrace 1.16, written by Peter Selinger 2001-2019
</metadata>
<g transform="translate(0.000000,30.000000) scale(0.100000,-0.100000)"
fill="#000000" stroke="none">
<path d="M156 262 l-6 -40 -20 5 -20 5 -1 12 -1 11 1 18 2 17 -55 0 -56 0 0
-49 0 -49 35 -6 35 -7 0 -9 0 -8 -6 -16 -6 -16 -17 0 -17 0 -13 -51 -13 -51
13 -9 14 -9 43 0 43 0 6 30 6 30 7 0 7 0 -5 -30 -4 -29 27 -7 26 -6 40 5 41 5
4 4 4 4 -7 52 -6 52 -13 0 -14 0 0 10 0 10 -15 0 -15 0 0 14 0 15 15 14 15 15
21 -5 22 -6 -6 48 -7 48 -3 4 -4 3 -45 6 -45 6 -7 -40z"/>
</g>
</svg>
