<?xml version="1.0" standalone="no"?>
<!DOCTYPE svg PUBLIC "-//W3C//DTD SVG 20010904//EN"
 "http://www.w3.org/TR/2001/REC-SVG-20010904/DTD/svg10.dtd">
<svg version="1.0" xmlns="http://www.w3.org/2000/svg"
 width="25.000000pt" height="28.000000pt" viewBox="0 0 25.000000 28.000000"
 preserveAspectRatio="xMidYMid meet">
<metadata>
Created by potrace 1.16, written by Peter Selinger 2001-2019
</metadata>
<g transform="translate(0.000000,28.000000) scale(0.100000,-0.100000)"
fill="#000000" stroke="none">
<path d="M156 240 l-7 -42 -27 7 -27 7 -8 11 -7 12 4 18 4 17 -44 0 -44 0 0
-39 0 -39 35 -6 35 -7 0 -19 0 -18 -6 -16 -6 -16 -17 0 -17 0 -11 -42 -11 -43
11 -7 12 -8 33 0 33 0 6 30 6 30 19 0 20 0 -7 -30 -6 -29 25 -7 26 -6 36 7 36
6 -6 15 -6 16 0 29 0 29 -15 0 -15 0 0 10 0 10 -15 0 -15 0 0 24 0 25 16 16
17 17 19 -6 20 -5 -7 37 -7 37 -1 2 -2 1 -36 7 -36 7 -7 -42z"/>
</g>
</svg>
