<?xml version="1.0" standalone="no"?>
<!DOCTYPE svg PUBLIC "-//W3C//DTD SVG 20010904//EN"
 "http://www.w3.org/TR/2001/REC-SVG-20010904/DTD/svg10.dtd">
<svg version="1.0" xmlns="http://www.w3.org/2000/svg"
 width="38.000000pt" height="41.000000pt" viewBox="0 0 38.000000 41.000000"
 preserveAspectRatio="xMidYMid meet">
<metadata>
Created by potrace 1.16, written by Peter Selinger 2001-2019
</metadata>
<g transform="translate(0.000000,41.000000) scale(0.100000,-0.100000)"
fill="#000000" stroke="none">
<path d="M110 380 l0 -30 -46 0 -45 0 3 -52 3 -51 37 -11 38 -11 -9 -13 -8
-14 -42 -5 -41 -6 0 -21 0 -21 6 -38 7 -37 42 0 43 0 5 -29 6 -28 23 -7 23 -6
17 0 18 0 6 40 7 40 23 -6 24 -6 26 6 26 7 -6 38 -6 39 31 6 30 6 15 14 14 15
0 28 0 28 -9 13 -8 14 -29 -4 -29 -3 -3 34 -3 34 -47 -5 -47 -6 -12 5 -13 5 0
34 0 34 -35 0 -35 0 0 -30z"/>
</g>
</svg>
