<?xml version="1.0" standalone="no"?>
<!DOCTYPE svg PUBLIC "-//W3C//DTD SVG 20010904//EN"
 "http://www.w3.org/TR/2001/REC-SVG-20010904/DTD/svg10.dtd">
<svg version="1.0" xmlns="http://www.w3.org/2000/svg"
 width="36.000000pt" height="39.000000pt" viewBox="0 0 36.000000 39.000000"
 preserveAspectRatio="xMidYMid meet">
<metadata>
Created by potrace 1.16, written by Peter Selinger 2001-2019
</metadata>
<g transform="translate(0.000000,39.000000) scale(0.100000,-0.100000)"
fill="#000000" stroke="none">
<path d="M110 360 l0 -30 -46 0 -45 0 3 -42 3 -42 38 -9 37 -9 0 -11 0 -12 -9
-13 -8 -14 -43 -5 -42 -6 6 -36 6 -36 0 -12 0 -13 49 0 49 0 -4 -18 -4 -17 7
-12 8 -11 27 -7 27 -7 7 42 7 42 32 -6 32 -6 16 6 16 6 -5 41 -6 42 30 1 30 1
16 16 16 16 0 18 0 18 -8 12 -8 12 -29 -2 -30 -2 -3 34 -3 33 -43 -6 -43 -7
-16 7 -17 6 0 34 0 34 -25 0 -25 0 0 -30z"/>
</g>
</svg>
