<?xml version="1.0" standalone="no"?>
<!DOCTYPE svg PUBLIC "-//W3C//DTD SVG 20010904//EN"
 "http://www.w3.org/TR/2001/REC-SVG-20010904/DTD/svg10.dtd">
<svg version="1.0" xmlns="http://www.w3.org/2000/svg"
 width="35.000000pt" height="41.000000pt" viewBox="0 0 35.000000 41.000000"
 preserveAspectRatio="xMidYMid meet">
<metadata>
Created by potrace 1.16, written by Peter Selinger 2001-2019
</metadata>
<g transform="translate(0.000000,41.000000) scale(0.100000,-0.100000)"
fill="#000000" stroke="none">
<path d="M192 392 l5 -18 -14 -13 -14 -13 -50 7 -49 7 0 -46 0 -46 -19 0 -20
0 -15 -16 -16 -15 0 -20 0 -20 14 -15 15 -14 20 0 21 0 0 -34 0 -34 6 -16 6
-16 32 0 31 0 11 -8 11 -7 7 -28 6 -27 36 0 35 0 15 14 14 15 0 25 0 26 35 0
35 0 0 9 0 9 -12 51 -11 51 -13 0 -12 0 -5 14 -6 15 30 6 29 7 0 50 0 50 -32
-7 -33 -7 -5 0 -5 0 -17 1 -17 1 5 15 6 15 -6 25 -6 25 -26 0 -26 0 4 -18z"/>
</g>
</svg>
