<?xml version="1.0" standalone="no"?>
<!DOCTYPE svg PUBLIC "-//W3C//DTD SVG 20010904//EN"
 "http://www.w3.org/TR/2001/REC-SVG-20010904/DTD/svg10.dtd">
<svg version="1.0" xmlns="http://www.w3.org/2000/svg"
 width="44.000000pt" height="40.000000pt" viewBox="0 0 44.000000 40.000000"
 preserveAspectRatio="xMidYMid meet">
<metadata>
Created by potrace 1.16, written by Peter Selinger 2001-2019
</metadata>
<g transform="translate(0.000000,40.000000) scale(0.100000,-0.100000)"
fill="#000000" stroke="none">
<path d="M196 384 l-6 -16 0 -23 0 -23 -14 -5 -14 -5 -41 5 -41 6 0 -42 0 -41
-34 0 -35 0 -6 -20 -6 -20 15 -15 15 -15 25 0 26 0 0 -49 0 -49 16 -6 16 -6
40 0 40 0 -6 -15 -5 -15 5 -15 6 -15 25 0 24 0 15 14 14 15 0 15 0 16 36 0 35
0 14 13 13 14 13 41 12 42 24 0 23 0 0 24 0 24 -16 6 -16 6 -24 0 -24 0 0 50
0 50 -49 0 -49 0 -6 16 -6 16 0 19 0 19 -24 0 -24 0 -6 -16z"/>
</g>
</svg>
