<?xml version="1.0" standalone="no"?>
<!DOCTYPE svg PUBLIC "-//W3C//DTD SVG 20010904//EN"
 "http://www.w3.org/TR/2001/REC-SVG-20010904/DTD/svg10.dtd">
<svg version="1.0" xmlns="http://www.w3.org/2000/svg"
 width="43.000000pt" height="42.000000pt" viewBox="0 0 43.000000 42.000000"
 preserveAspectRatio="xMidYMid meet">
<metadata>
Created by potrace 1.16, written by Peter Selinger 2001-2019
</metadata>
<g transform="translate(0.000000,42.000000) scale(0.100000,-0.100000)"
fill="#000000" stroke="none">
<path d="M200 393 l0 -28 -10 -15 -9 -15 -51 2 -50 1 0 -40 0 -40 -28 7 -28 6
-12 -25 -11 -24 6 -21 5 -21 23 -6 24 -6 6 -38 7 -39 29 -5 29 -6 28 -5 28 -6
-4 -28 -4 -28 17 -7 18 -6 18 5 19 6 0 20 0 19 20 0 19 0 28 12 28 13 11 10
11 11 12 37 13 38 19 18 20 18 -12 27 -12 26 -24 0 -23 0 0 36 0 37 -41 -6
-42 -5 -14 14 -14 14 2 12 1 13 -1 23 -1 22 -25 0 -25 0 0 -27z"/>
</g>
</svg>
