<?xml version="1.0" standalone="no"?>
<!DOCTYPE svg PUBLIC "-//W3C//DTD SVG 20010904//EN"
 "http://www.w3.org/TR/2001/REC-SVG-20010904/DTD/svg10.dtd">
<svg version="1.0" xmlns="http://www.w3.org/2000/svg"
 width="45.000000pt" height="44.000000pt" viewBox="0 0 45.000000 44.000000"
 preserveAspectRatio="xMidYMid meet">
<metadata>
Created by potrace 1.16, written by Peter Selinger 2001-2019
</metadata>
<g transform="translate(0.000000,44.000000) scale(0.100000,-0.100000)"
fill="#000000" stroke="none">
<path d="M200 413 l0 -28 -10 -15 -9 -14 -50 2 -51 2 0 -38 0 -39 -28 5 -29 4
-12 -30 -12 -29 7 -27 6 -26 23 -6 24 -6 6 -39 7 -38 36 -7 37 -6 18 -5 17 -4
0 -29 0 -29 21 -6 20 -7 25 6 24 6 0 20 0 20 20 0 19 0 28 12 28 13 10 10 11
10 17 47 18 46 14 6 15 5 0 15 0 15 -12 26 -11 25 -24 0 -23 0 0 36 0 36 -44
-3 -43 -4 -9 10 -9 10 -1 18 -1 17 -1 20 -2 20 -35 0 -35 0 0 -27z"/>
</g>
</svg>
