<?xml version="1.0" standalone="no"?>
<!DOCTYPE svg PUBLIC "-//W3C//DTD SVG 20010904//EN"
 "http://www.w3.org/TR/2001/REC-SVG-20010904/DTD/svg10.dtd">
<svg version="1.0" xmlns="http://www.w3.org/2000/svg"
 width="33.000000pt" height="39.000000pt" viewBox="0 0 33.000000 39.000000"
 preserveAspectRatio="xMidYMid meet">
<metadata>
Created by potrace 1.16, written by Peter Selinger 2001-2019
</metadata>
<g transform="translate(0.000000,39.000000) scale(0.100000,-0.100000)"
fill="#000000" stroke="none">
<path d="M196 375 l6 -14 -17 -17 -16 -17 -50 6 -49 6 0 -43 0 -43 -29 -6 -29
-6 -7 -21 -6 -20 15 -15 15 -15 20 0 21 0 0 -34 0 -34 6 -16 6 -16 32 0 31 0
11 -8 11 -7 7 -27 6 -28 26 0 25 0 16 15 15 16 -5 24 -4 25 39 0 40 0 -5 14
-6 15 -7 35 -6 36 -13 0 -13 0 -6 16 -6 16 0 8 0 8 30 7 30 7 0 38 0 39 -32
-9 -31 -10 -24 6 -25 7 6 22 6 23 -6 16 -6 16 -14 0 -13 0 5 -15z"/>
</g>
</svg>
