<?xml version="1.0" standalone="no"?>
<!DOCTYPE svg PUBLIC "-//W3C//DTD SVG 20010904//EN"
 "http://www.w3.org/TR/2001/REC-SVG-20010904/DTD/svg10.dtd">
<svg version="1.0" xmlns="http://www.w3.org/2000/svg"
 width="46.000000pt" height="42.000000pt" viewBox="0 0 46.000000 42.000000"
 preserveAspectRatio="xMidYMid meet">
<metadata>
Created by potrace 1.16, written by Peter Selinger 2001-2019
</metadata>
<g transform="translate(0.000000,42.000000) scale(0.100000,-0.100000)"
fill="#000000" stroke="none">
<path d="M196 404 l-6 -16 0 -24 0 -24 -12 -1 -13 -1 -42 2 -43 2 0 -41 0 -41
-34 0 -34 0 -6 -16 -6 -16 0 -15 0 -14 14 -15 15 -14 25 0 26 0 0 -49 0 -49
16 -6 16 -6 33 0 33 0 6 -30 6 -30 35 0 36 0 15 14 14 15 0 15 0 16 36 0 35 0
14 13 13 14 13 41 12 42 24 0 23 0 0 34 0 34 -16 6 -16 6 -24 0 -24 0 0 50 0
50 -49 0 -49 0 -6 16 -6 16 0 19 0 19 -34 0 -34 0 -6 -16z"/>
</g>
</svg>
