<?xml version="1.0" standalone="no"?>
<!DOCTYPE svg PUBLIC "-//W3C//DTD SVG 20010904//EN"
 "http://www.w3.org/TR/2001/REC-SVG-20010904/DTD/svg10.dtd">
<svg version="1.0" xmlns="http://www.w3.org/2000/svg"
 width="34.000000pt" height="40.000000pt" viewBox="0 0 34.000000 40.000000"
 preserveAspectRatio="xMidYMid meet">
<metadata>
Created by potrace 1.16, written by Peter Selinger 2001-2019
</metadata>
<g transform="translate(0.000000,40.000000) scale(0.100000,-0.100000)"
fill="#000000" stroke="none">
<path d="M176 369 l-6 -32 -45 5 -45 6 0 -38 0 -38 -6 -16 -6 -16 -34 0 -34 0
0 -24 0 -24 24 -6 24 -6 7 -37 7 -38 10 -12 10 -13 23 0 23 0 16 -6 16 -6 0
-28 0 -28 23 -6 22 -6 17 0 17 0 7 23 7 22 11 7 11 8 21 0 22 0 6 16 6 16 -10
38 -10 39 -20 6 -20 6 0 29 0 28 35 6 35 7 0 45 0 45 -44 -6 -44 -7 -22 7 -21
7 6 29 7 29 -20 0 -19 0 -7 -31z"/>
</g>
</svg>
