<?xml version="1.0" standalone="no"?>
<!DOCTYPE svg PUBLIC "-//W3C//DTD SVG 20010904//EN"
 "http://www.w3.org/TR/2001/REC-SVG-20010904/DTD/svg10.dtd">
<svg version="1.0" xmlns="http://www.w3.org/2000/svg"
 width="36.000000pt" height="42.000000pt" viewBox="0 0 36.000000 42.000000"
 preserveAspectRatio="xMidYMid meet">
<metadata>
Created by potrace 1.16, written by Peter Selinger 2001-2019
</metadata>
<g transform="translate(0.000000,42.000000) scale(0.100000,-0.100000)"
fill="#000000" stroke="none">
<path d="M176 389 l-6 -31 -45 6 -45 7 0 -40 0 -39 -6 -16 -6 -16 -34 0 -34 0
0 -34 0 -34 24 -6 24 -6 7 -37 7 -38 10 -12 10 -13 23 0 23 0 16 -6 16 -6 0
-28 0 -28 23 -6 22 -6 27 0 27 0 7 23 7 22 11 7 11 8 22 0 23 0 6 24 5 23 -10
41 -11 41 -20 6 -20 6 0 19 0 18 35 6 35 7 0 56 0 56 -49 -7 -48 -6 -15 5 -14
6 4 29 4 30 -30 0 -29 0 -7 -31z"/>
</g>
</svg>
