<?xml version="1.0" standalone="no"?>
<!DOCTYPE svg PUBLIC "-//W3C//DTD SVG 20010904//EN"
 "http://www.w3.org/TR/2001/REC-SVG-20010904/DTD/svg10.dtd">
<svg version="1.0" xmlns="http://www.w3.org/2000/svg"
 width="44.000000pt" height="37.000000pt" viewBox="0 0 44.000000 37.000000"
 preserveAspectRatio="xMidYMid meet">
<metadata>
Created by potrace 1.16, written by Peter Selinger 2001-2019
</metadata>
<g transform="translate(0.000000,37.000000) scale(0.100000,-0.100000)"
fill="#000000" stroke="none">
<path d="M190 349 l0 -20 -15 -15 -15 -15 -45 7 -45 6 0 -50 0 -50 -35 -6 -35
-7 0 -24 0 -24 16 -15 15 -16 20 0 19 0 0 -36 0 -35 14 -15 15 -14 50 0 51 0
0 30 0 30 15 0 15 0 0 -34 0 -35 21 -6 21 -7 45 7 45 6 -4 50 -3 49 28 0 28 0
15 14 14 15 0 24 0 25 -6 16 -6 16 -29 0 -29 0 0 41 0 41 -42 -2 -43 -2 -12 1
-13 1 0 35 0 35 -35 0 -35 0 0 -21z"/>
</g>
</svg>
