<?xml version="1.0" standalone="no"?>
<!DOCTYPE svg PUBLIC "-//W3C//DTD SVG 20010904//EN"
 "http://www.w3.org/TR/2001/REC-SVG-20010904/DTD/svg10.dtd">
<svg version="1.0" xmlns="http://www.w3.org/2000/svg"
 width="42.000000pt" height="35.000000pt" viewBox="0 0 42.000000 35.000000"
 preserveAspectRatio="xMidYMid meet">
<metadata>
Created by potrace 1.16, written by Peter Selinger 2001-2019
</metadata>
<g transform="translate(0.000000,35.000000) scale(0.100000,-0.100000)"
fill="#000000" stroke="none">
<path d="M190 329 l0 -20 -16 -16 -15 -16 -45 7 -44 6 0 -49 0 -49 -35 -6 -35
-7 0 -14 0 -14 16 -16 17 -17 18 5 19 5 0 -40 0 -39 14 -15 15 -14 40 0 41 0
0 30 0 30 25 0 25 0 0 -34 0 -35 20 -6 19 -6 37 7 36 7 -5 48 -6 49 30 0 30 0
15 14 14 15 0 14 0 15 -6 16 -6 16 -29 0 -29 0 0 41 0 42 -41 -6 -41 -5 -14 5
-14 5 0 34 0 34 -25 0 -25 0 0 -21z"/>
</g>
</svg>
