<?xml version="1.0" standalone="no"?>
<!DOCTYPE svg PUBLIC "-//W3C//DTD SVG 20010904//EN"
 "http://www.w3.org/TR/2001/REC-SVG-20010904/DTD/svg10.dtd">
<svg version="1.0" xmlns="http://www.w3.org/2000/svg"
 width="31.000000pt" height="35.000000pt" viewBox="0 0 31.000000 35.000000"
 preserveAspectRatio="xMidYMid meet">
<metadata>
Created by potrace 1.16, written by Peter Selinger 2001-2019
</metadata>
<g transform="translate(0.000000,35.000000) scale(0.100000,-0.100000)"
fill="#000000" stroke="none">
<path d="M186 339 l6 -10 -12 -30 -12 -29 -23 0 -24 0 -15 16 -16 15 0 18 0
18 -45 -1 -45 -1 0 -32 0 -32 16 -15 15 -16 25 0 24 0 0 -26 0 -26 -29 -11
-30 -11 -6 -39 -7 -38 5 -6 5 -5 40 -5 40 -5 -5 -19 -5 -19 11 0 11 0 0 -15 0
-15 23 0 22 0 13 9 14 8 7 34 7 34 40 -3 41 -3 17 44 17 44 -7 18 -7 17 -38
-6 -39 -6 0 25 0 25 24 0 24 0 6 16 6 16 0 38 0 38 -50 0 -50 1 6 -10z"/>
</g>
</svg>
