<?xml version="1.0" standalone="no"?>
<!DOCTYPE svg PUBLIC "-//W3C//DTD SVG 20010904//EN"
 "http://www.w3.org/TR/2001/REC-SVG-20010904/DTD/svg10.dtd">
<svg version="1.0" xmlns="http://www.w3.org/2000/svg"
 width="32.000000pt" height="34.000000pt" viewBox="0 0 32.000000 34.000000"
 preserveAspectRatio="xMidYMid meet">
<metadata>
Created by potrace 1.16, written by Peter Selinger 2001-2019
</metadata>
<g transform="translate(0.000000,34.000000) scale(0.100000,-0.100000)"
fill="#000000" stroke="none">
<path d="M248 315 l4 -24 -15 -16 -16 -15 -25 0 -26 0 -6 28 -7 27 -11 7 -11
8 -27 0 -28 0 0 -50 0 -50 -40 0 -40 0 0 -9 0 -9 6 -15 5 -15 18 5 17 4 12
-26 12 -26 0 -34 0 -35 46 0 45 0 -6 -20 -6 -20 15 -15 15 -15 24 0 25 0 12
29 12 30 -8 12 -7 12 41 -6 42 -5 0 18 0 18 -6 31 -6 31 -29 0 -28 0 -6 20 -6
20 16 16 16 16 24 -6 25 -6 0 53 0 54 -39 1 -38 2 5 -25z"/>
</g>
</svg>
