<?xml version="1.0" standalone="no"?>
<!DOCTYPE svg PUBLIC "-//W3C//DTD SVG 20010904//EN"
 "http://www.w3.org/TR/2001/REC-SVG-20010904/DTD/svg10.dtd">
<svg version="1.0" xmlns="http://www.w3.org/2000/svg"
 width="34.000000pt" height="36.000000pt" viewBox="0 0 34.000000 36.000000"
 preserveAspectRatio="xMidYMid meet">
<metadata>
Created by potrace 1.16, written by Peter Selinger 2001-2019
</metadata>
<g transform="translate(0.000000,36.000000) scale(0.100000,-0.100000)"
fill="#000000" stroke="none">
<path d="M244 335 l7 -26 -15 -14 -15 -15 -15 0 -16 0 -6 28 -7 27 -11 7 -11
8 -37 0 -38 0 0 -50 0 -50 -40 0 -40 0 0 -22 0 -23 9 -14 9 -14 15 6 15 5 11
-24 11 -25 0 -34 0 -35 40 0 40 0 0 -21 0 -20 14 -15 15 -14 34 0 34 0 11 25
12 26 0 15 0 15 35 -7 35 -6 0 30 0 30 -6 31 -6 31 -28 0 -28 0 -4 12 -5 13
12 11 11 12 27 -5 27 -5 0 66 0 66 -51 0 -51 0 6 -25z"/>
</g>
</svg>
