<?xml version="1.0" standalone="no"?>
<!DOCTYPE svg PUBLIC "-//W3C//DTD SVG 20010904//EN"
 "http://www.w3.org/TR/2001/REC-SVG-20010904/DTD/svg10.dtd">
<svg version="1.0" xmlns="http://www.w3.org/2000/svg"
 width="30.000000pt" height="37.000000pt" viewBox="0 0 30.000000 37.000000"
 preserveAspectRatio="xMidYMid meet">
<metadata>
Created by potrace 1.16, written by Peter Selinger 2001-2019
</metadata>
<g transform="translate(0.000000,37.000000) scale(0.100000,-0.100000)"
fill="#000000" stroke="none">
<path d="M181 353 l3 -18 -8 -22 -7 -23 -15 0 -15 0 -13 12 -12 12 4 23 4 23
-51 0 -51 0 0 -50 0 -50 19 0 19 0 16 -6 16 -6 0 -24 0 -24 -15 0 -15 0 0 -9
0 -9 -20 5 -20 5 0 -36 0 -36 -10 0 -10 0 0 -20 0 -20 50 0 50 0 0 -15 0 -14
12 -26 11 -25 32 0 32 0 11 25 12 26 0 19 0 20 30 -6 29 -6 16 15 15 16 0 40
0 40 -35 7 -35 6 0 24 0 24 25 0 25 0 0 15 0 15 10 0 10 0 0 39 0 39 -31 6
-31 6 -30 0 -29 0 2 -17z"/>
</g>
</svg>
