<?xml version="1.0" standalone="no"?>
<!DOCTYPE svg PUBLIC "-//W3C//DTD SVG 20010904//EN"
 "http://www.w3.org/TR/2001/REC-SVG-20010904/DTD/svg10.dtd">
<svg version="1.0" xmlns="http://www.w3.org/2000/svg"
 width="33.000000pt" height="37.000000pt" viewBox="0 0 33.000000 37.000000"
 preserveAspectRatio="xMidYMid meet">
<metadata>
Created by potrace 1.16, written by Peter Selinger 2001-2019
</metadata>
<g transform="translate(0.000000,37.000000) scale(0.100000,-0.100000)"
fill="#000000" stroke="none">
<path d="M181 353 l3 -18 -8 -22 -7 -23 -14 0 -14 0 -15 16 -16 15 0 19 0 18
-55 0 -55 -1 0 -43 0 -43 16 -15 15 -16 25 0 24 0 0 -16 0 -16 -29 -11 -29
-11 -6 -29 -6 -30 0 -23 0 -24 40 -6 40 -7 0 -18 0 -19 10 0 10 0 0 -15 0 -15
34 0 35 0 15 16 16 15 0 25 0 24 44 0 43 0 18 45 17 46 -6 25 -7 26 -39 -4
-40 -4 0 13 0 13 24 0 24 0 6 16 6 16 0 49 0 49 -61 0 -60 0 2 -17z"/>
</g>
</svg>
