<?xml version="1.0" standalone="no"?>
<!DOCTYPE svg PUBLIC "-//W3C//DTD SVG 20010904//EN"
 "http://www.w3.org/TR/2001/REC-SVG-20010904/DTD/svg10.dtd">
<svg version="1.0" xmlns="http://www.w3.org/2000/svg"
 width="28.000000pt" height="35.000000pt" viewBox="0 0 28.000000 35.000000"
 preserveAspectRatio="xMidYMid meet">
<metadata>
Created by potrace 1.16, written by Peter Selinger 2001-2019
</metadata>
<g transform="translate(0.000000,35.000000) scale(0.100000,-0.100000)"
fill="#000000" stroke="none">
<path d="M185 339 l7 -10 -12 -30 -12 -29 -25 0 -24 0 -15 15 -15 15 6 20 6
20 -40 0 -41 0 0 -40 0 -40 19 0 19 0 16 -6 16 -6 0 -34 0 -34 -15 0 -15 0 0
-11 0 -11 -20 5 -20 5 0 -34 0 -34 -10 0 -10 0 0 -10 0 -10 56 0 55 0 -6 -11
-7 -10 12 -30 12 -29 23 0 22 0 12 26 12 26 -7 21 -6 20 37 -6 37 -6 14 14 14
14 0 30 0 30 -35 7 -35 6 0 34 0 34 25 0 25 0 0 15 0 15 10 0 10 0 0 29 0 29
-31 6 -31 6 -20 0 -19 0 6 -11z"/>
</g>
</svg>
