<?xml version="1.0" standalone="no"?>
<!DOCTYPE svg PUBLIC "-//W3C//DTD SVG 20010904//EN"
 "http://www.w3.org/TR/2001/REC-SVG-20010904/DTD/svg10.dtd">
<svg version="1.0" xmlns="http://www.w3.org/2000/svg"
 width="30.000000pt" height="37.000000pt" viewBox="0 0 30.000000 37.000000"
 preserveAspectRatio="xMidYMid meet">
<metadata>
Created by potrace 1.16, written by Peter Selinger 2001-2019
</metadata>
<g transform="translate(0.000000,37.000000) scale(0.100000,-0.100000)"
fill="#000000" stroke="none">
<path d="M180 335 l0 -36 -14 -15 -15 -14 -6 0 -6 0 -15 14 -14 15 0 26 0 26
-52 -3 -53 -3 -3 -53 -3 -54 20 -17 20 -17 -16 -47 -15 -47 6 -26 7 -26 34 4
35 4 0 -17 0 -18 16 -15 15 -16 33 0 33 0 11 25 12 26 0 14 0 15 45 0 45 0 0
40 0 39 -12 26 -11 25 -26 1 -26 2 24 4 24 5 14 13 13 14 0 49 0 50 -14 5 -13
5 -47 7 -46 7 0 -37z"/>
</g>
</svg>
