<?xml version="1.0" standalone="no"?>
<!DOCTYPE svg PUBLIC "-//W3C//DTD SVG 20010904//EN"
 "http://www.w3.org/TR/2001/REC-SVG-20010904/DTD/svg10.dtd">
<svg version="1.0" xmlns="http://www.w3.org/2000/svg"
 width="28.000000pt" height="35.000000pt" viewBox="0 0 28.000000 35.000000"
 preserveAspectRatio="xMidYMid meet">
<metadata>
Created by potrace 1.16, written by Peter Selinger 2001-2019
</metadata>
<g transform="translate(0.000000,35.000000) scale(0.100000,-0.100000)"
fill="#000000" stroke="none">
<path d="M180 315 l0 -36 -14 -15 -15 -14 -16 0 -16 0 -15 14 -14 15 0 26 0
26 -42 -3 -43 -3 -3 -43 -3 -42 15 -15 15 -15 15 6 16 6 0 -12 0 -11 -15 -15
-14 -15 -11 -38 -10 -39 6 -17 7 -17 33 7 34 6 0 -20 0 -20 16 -15 15 -16 24
0 23 0 12 29 12 30 -7 10 -6 11 50 0 51 0 0 30 0 29 -12 26 -12 26 -22 -5 -22
-6 -5 13 -5 14 7 12 8 12 16 -7 16 -6 16 15 15 16 0 40 0 41 -7 1 -8 1 -15 3
-15 3 -27 7 -28 7 0 -37z"/>
</g>
</svg>
