<?xml version="1.0" standalone="no"?>
<!DOCTYPE svg PUBLIC "-//W3C//DTD SVG 20010904//EN"
 "http://www.w3.org/TR/2001/REC-SVG-20010904/DTD/svg10.dtd">
<svg version="1.0" xmlns="http://www.w3.org/2000/svg"
 width="46.000000pt" height="30.000000pt" viewBox="0 0 46.000000 30.000000"
 preserveAspectRatio="xMidYMid meet">
<metadata>
Created by potrace 1.16, written by Peter Selinger 2001-2019
</metadata>
<g transform="translate(0.000000,30.000000) scale(0.100000,-0.100000)"
fill="#000000" stroke="none">
<path d="M250 261 l0 -39 -19 -5 -20 -5 -5 15 -6 15 0 24 0 24 -66 0 -66 0 6
-45 7 -45 -25 0 -26 0 0 -10 0 -10 -15 0 -15 0 0 -22 0 -23 8 -11 7 -10 17 -7
17 -6 10 -35 9 -36 15 -15 16 -15 48 0 48 0 14 9 14 9 -5 26 -5 26 8 6 9 5 0
-19 0 -19 55 -18 56 -17 23 6 24 6 7 40 7 40 23 0 23 0 7 30 6 30 -6 20 -7 21
-31 -3 -32 -3 -3 46 -3 47 -31 6 -30 6 -34 0 -34 0 0 -39z"/>
</g>
</svg>
