<?xml version="1.0" standalone="no"?>
<!DOCTYPE svg PUBLIC "-//W3C//DTD SVG 20010904//EN"
 "http://www.w3.org/TR/2001/REC-SVG-20010904/DTD/svg10.dtd">
<svg version="1.0" xmlns="http://www.w3.org/2000/svg"
 width="44.000000pt" height="28.000000pt" viewBox="0 0 44.000000 28.000000"
 preserveAspectRatio="xMidYMid meet">
<metadata>
Created by potrace 1.16, written by Peter Selinger 2001-2019
</metadata>
<g transform="translate(0.000000,28.000000) scale(0.100000,-0.100000)"
fill="#000000" stroke="none">
<path d="M250 241 l0 -39 -22 -6 -23 -6 -6 0 -6 0 -11 25 -11 25 5 15 6 15
-55 -2 -56 -2 6 -43 6 -43 -27 0 -26 0 0 -10 0 -10 -15 0 -15 0 0 -12 0 -13 8
-11 7 -10 17 -7 17 -6 10 -35 9 -36 15 -15 16 -15 38 0 38 0 12 8 12 8 -2 29
-2 30 22 3 21 3 -5 -19 -4 -19 53 -17 54 -17 16 6 17 7 6 39 7 39 23 0 23 0 6
24 6 24 -6 16 -6 16 -32 -3 -31 -2 -3 46 -3 47 -31 6 -30 6 -24 0 -24 0 0 -39z"/>
</g>
</svg>
