<?xml version="1.0" standalone="no"?>
<!DOCTYPE svg PUBLIC "-//W3C//DTD SVG 20010904//EN"
 "http://www.w3.org/TR/2001/REC-SVG-20010904/DTD/svg10.dtd">
<svg version="1.0" xmlns="http://www.w3.org/2000/svg"
 width="40.000000pt" height="30.000000pt" viewBox="0 0 40.000000 30.000000"
 preserveAspectRatio="xMidYMid meet">
<metadata>
Created by potrace 1.16, written by Peter Selinger 2001-2019
</metadata>
<g transform="translate(0.000000,30.000000) scale(0.100000,-0.100000)"
fill="#000000" stroke="none">
<path d="M321 295 l-1 -11 -40 4 -40 4 0 -17 0 -16 -14 -15 -15 -14 -24 0 -25
0 -6 15 -5 15 5 15 6 15 -46 0 -46 0 0 -45 0 -44 -35 -7 -35 -6 0 -23 0 -22
30 -6 30 -6 0 -45 0 -44 16 -6 16 -6 30 0 29 0 16 15 15 16 -6 14 -5 15 13 0
14 0 6 -16 6 -16 -6 -23 -6 -22 25 -7 24 -6 33 10 34 10 8 12 8 13 0 43 0 42
23 0 22 0 12 20 13 19 -6 16 -6 15 -12 0 -11 0 -14 9 -14 9 -7 44 -7 43 -2
-10z"/>
</g>
</svg>
