<?xml version="1.0" standalone="no"?>
<!DOCTYPE svg PUBLIC "-//W3C//DTD SVG 20010904//EN"
 "http://www.w3.org/TR/2001/REC-SVG-20010904/DTD/svg10.dtd">
<svg version="1.0" xmlns="http://www.w3.org/2000/svg"
 width="42.000000pt" height="32.000000pt" viewBox="0 0 42.000000 32.000000"
 preserveAspectRatio="xMidYMid meet">
<metadata>
Created by potrace 1.16, written by Peter Selinger 2001-2019
</metadata>
<g transform="translate(0.000000,32.000000) scale(0.100000,-0.100000)"
fill="#000000" stroke="none">
<path d="M283 313 l-43 -4 0 -15 0 -15 -14 -15 -15 -14 -15 0 -16 0 0 30 0 30
-55 0 -55 0 0 -45 0 -44 -35 -7 -35 -6 0 -33 0 -33 30 -5 30 -6 0 -45 0 -44
16 -6 16 -6 44 0 44 0 0 10 0 10 10 0 10 0 0 -19 0 -19 29 -7 29 -6 40 10 40
11 6 16 6 16 0 39 0 39 23 0 24 0 12 24 13 24 -7 21 -6 21 -14 0 -14 0 -15 16
-16 15 0 35 0 34 -12 -2 -13 -1 -42 -4z"/>
</g>
</svg>
