<?xml version="1.0" standalone="no"?>
<!DOCTYPE svg PUBLIC "-//W3C//DTD SVG 20010904//EN"
 "http://www.w3.org/TR/2001/REC-SVG-20010904/DTD/svg10.dtd">
<svg version="1.0" xmlns="http://www.w3.org/2000/svg"
 width="37.000000pt" height="29.000000pt" viewBox="0 0 37.000000 29.000000"
 preserveAspectRatio="xMidYMid meet">
<metadata>
Created by potrace 1.16, written by Peter Selinger 2001-2019
</metadata>
<g transform="translate(0.000000,29.000000) scale(0.100000,-0.100000)"
fill="#000000" stroke="none">
<path d="M75 280 l-6 -10 1 -33 2 -32 -1 -12 -1 -12 -32 -3 -33 -3 -3 -28 -3
-27 15 0 16 0 0 -2 1 -3 18 -55 18 -55 33 -3 33 -3 23 5 24 6 0 25 0 25 15 0
15 0 0 -24 0 -24 16 -6 16 -6 46 0 47 0 11 8 12 7 7 51 7 51 -24 7 -23 6 -22
0 -23 0 0 14 0 14 34 6 33 6 7 38 6 37 0 23 0 22 -139 0 -140 0 -6 -10z"/>
</g>
</svg>
