<?xml version="1.0" standalone="no"?>
<!DOCTYPE svg PUBLIC "-//W3C//DTD SVG 20010904//EN"
 "http://www.w3.org/TR/2001/REC-SVG-20010904/DTD/svg10.dtd">
<svg version="1.0" xmlns="http://www.w3.org/2000/svg"
 width="35.000000pt" height="27.000000pt" viewBox="0 0 35.000000 27.000000"
 preserveAspectRatio="xMidYMid meet">
<metadata>
Created by potrace 1.16, written by Peter Selinger 2001-2019
</metadata>
<g transform="translate(0.000000,27.000000) scale(0.100000,-0.100000)"
fill="#000000" stroke="none">
<path d="M75 259 l-7 -10 6 -32 6 -32 -8 -12 -7 -11 -30 -4 -30 -3 -3 -17 -3
-18 15 0 16 0 0 -2 1 -3 18 -55 18 -55 22 -3 23 -4 24 6 24 6 0 26 0 25 28 -3
27 -3 -3 -19 -4 -19 14 -8 13 -9 40 0 40 0 11 8 11 7 6 41 7 42 -23 6 -22 6
-22 0 -23 0 0 24 0 24 34 6 33 6 7 38 6 37 0 13 0 12 -129 0 -130 0 -6 -11z"/>
</g>
</svg>
