<?xml version="1.0" standalone="no"?>
<!DOCTYPE svg PUBLIC "-//W3C//DTD SVG 20010904//EN"
 "http://www.w3.org/TR/2001/REC-SVG-20010904/DTD/svg10.dtd">
<svg version="1.0" xmlns="http://www.w3.org/2000/svg"
 width="35.000000pt" height="29.000000pt" viewBox="0 0 35.000000 29.000000"
 preserveAspectRatio="xMidYMid meet">
<metadata>
Created by potrace 1.16, written by Peter Selinger 2001-2019
</metadata>
<g transform="translate(0.000000,29.000000) scale(0.100000,-0.100000)"
fill="#000000" stroke="none">
<path d="M73 283 l-13 -5 0 -28 0 -28 -6 -16 -6 -16 -24 0 -24 0 0 -36 0 -37
39 7 39 6 4 -12 5 -13 -15 -37 -15 -37 6 -15 6 -16 38 0 38 0 23 6 22 6 1 42
1 41 8 -38 7 -37 4 -4 4 -3 62 -7 63 -7 -1 23 -2 23 8 44 8 44 -32 -6 -32 -7
-13 12 -13 12 5 18 4 18 12 1 11 1 18 -1 17 -2 0 50 0 51 -44 0 -44 0 -6 -24
-6 -25 -21 -6 -20 -7 -20 23 -19 22 0 14 0 13 -32 -1 -33 -1 -12 -5z"/>
</g>
</svg>
