<?xml version="1.0" standalone="no"?>
<!DOCTYPE svg PUBLIC "-//W3C//DTD SVG 20010904//EN"
 "http://www.w3.org/TR/2001/REC-SVG-20010904/DTD/svg10.dtd">
<svg version="1.0" xmlns="http://www.w3.org/2000/svg"
 width="29.000000pt" height="30.000000pt" viewBox="0 0 29.000000 30.000000"
 preserveAspectRatio="xMidYMid meet">
<metadata>
Created by potrace 1.16, written by Peter Selinger 2001-2019
</metadata>
<g transform="translate(0.000000,30.000000) scale(0.100000,-0.100000)"
fill="#000000" stroke="none">
<path d="M10 261 l0 -40 16 -15 15 -16 15 0 14 0 0 -9 0 -9 -6 -16 -6 -16 -24
0 -24 0 0 -37 0 -38 -6 -22 -6 -23 58 0 59 0 14 9 14 9 -6 31 -6 30 14 -6 15
-5 0 -39 0 -39 24 -6 23 -5 42 11 41 11 0 19 0 20 -9 0 -8 0 -9 33 -10 32 -26
3 -26 3 -6 16 -6 16 5 18 6 18 37 -2 37 -2 3 54 3 54 -23 -7 -23 -6 -32 0 -33
0 0 -15 0 -16 -12 -13 -12 -13 -18 5 -17 4 -3 27 -3 26 -47 3 -48 3 0 -40z"/>
</g>
</svg>
