<?xml version="1.0" standalone="no"?>
<!DOCTYPE svg PUBLIC "-//W3C//DTD SVG 20010904//EN"
 "http://www.w3.org/TR/2001/REC-SVG-20010904/DTD/svg10.dtd">
<svg version="1.0" xmlns="http://www.w3.org/2000/svg"
 width="42.000000pt" height="29.000000pt" viewBox="0 0 42.000000 29.000000"
 preserveAspectRatio="xMidYMid meet">
<metadata>
Created by potrace 1.16, written by Peter Selinger 2001-2019
</metadata>
<g transform="translate(0.000000,29.000000) scale(0.100000,-0.100000)"
fill="#000000" stroke="none">
<path d="M70 261 l0 -31 -10 0 -10 0 0 -15 0 -15 -25 0 -25 0 0 -44 0 -44 35
-6 35 -7 0 -24 0 -25 -10 0 -10 0 0 -19 0 -19 23 -6 22 -6 37 0 38 0 4 22 5
23 3 20 3 20 18 3 17 3 0 -21 0 -21 14 -15 15 -14 40 0 41 0 0 44 0 44 16 6
16 6 23 0 24 0 6 19 5 18 -6 17 -6 16 -33 0 -33 0 -6 23 -6 22 0 23 0 22 -45
0 -45 0 0 -28 0 -29 -23 -10 -22 -10 -10 11 -11 11 3 15 3 15 -8 12 -8 13 -47
6 -47 7 0 -32z"/>
</g>
</svg>
