<?xml version="1.0" standalone="no"?>
<!DOCTYPE svg PUBLIC "-//W3C//DTD SVG 20010904//EN"
 "http://www.w3.org/TR/2001/REC-SVG-20010904/DTD/svg10.dtd">
<svg version="1.0" xmlns="http://www.w3.org/2000/svg"
 width="40.000000pt" height="27.000000pt" viewBox="0 0 40.000000 27.000000"
 preserveAspectRatio="xMidYMid meet">
<metadata>
Created by potrace 1.16, written by Peter Selinger 2001-2019
</metadata>
<g transform="translate(0.000000,27.000000) scale(0.100000,-0.100000)"
fill="#000000" stroke="none">
<path d="M70 241 l0 -31 -10 0 -10 0 0 -15 0 -15 -25 0 -25 0 0 -34 0 -34 35
-6 35 -7 0 -34 0 -33 -12 -5 -13 -4 7 -8 7 -7 45 -5 45 -5 5 23 5 24 3 20 3
20 28 3 27 3 0 -21 0 -21 14 -15 15 -14 30 0 31 0 0 44 0 44 16 6 16 6 23 0
23 0 5 13 4 12 -5 13 -4 12 -33 0 -33 0 -6 23 -6 22 0 23 0 22 -35 0 -35 0 0
-29 0 -29 -30 -12 -29 -12 -17 16 -16 17 5 13 5 13 -6 10 -7 11 -38 7 -37 7 0
-31z"/>
</g>
</svg>
