<?xml version="1.0" standalone="no"?>
<!DOCTYPE svg PUBLIC "-//W3C//DTD SVG 20010904//EN"
 "http://www.w3.org/TR/2001/REC-SVG-20010904/DTD/svg10.dtd">
<svg version="1.0" xmlns="http://www.w3.org/2000/svg"
 width="33.000000pt" height="27.000000pt" viewBox="0 0 33.000000 27.000000"
 preserveAspectRatio="xMidYMid meet">
<metadata>
Created by potrace 1.16, written by Peter Selinger 2001-2019
</metadata>
<g transform="translate(0.000000,27.000000) scale(0.100000,-0.100000)"
fill="#000000" stroke="none">
<path d="M73 263 l-13 -5 0 -28 0 -28 -6 -16 -6 -16 -24 0 -24 0 0 -25 0 -25
39 6 39 6 6 -19 6 -20 -15 -37 -16 -37 6 -9 6 -10 27 0 27 0 23 6 22 6 0 39 0
39 15 0 15 0 0 -27 0 -28 8 -11 7 -11 50 -6 50 -5 1 21 0 22 8 32 8 33 -31 -6
-30 -6 -16 15 -16 16 7 25 6 25 19 6 19 6 10 -6 10 -6 0 40 0 41 -35 0 -35 0
0 -14 0 -15 -16 -15 -15 -16 -21 0 -21 0 -18 22 -19 21 0 14 0 13 -22 -1 -23
-1 -12 -5z"/>
</g>
</svg>
