<?xml version="1.0" standalone="no"?>
<!DOCTYPE svg PUBLIC "-//W3C//DTD SVG 20010904//EN"
 "http://www.w3.org/TR/2001/REC-SVG-20010904/DTD/svg10.dtd">
<svg version="1.0" xmlns="http://www.w3.org/2000/svg"
 width="27.000000pt" height="28.000000pt" viewBox="0 0 27.000000 28.000000"
 preserveAspectRatio="xMidYMid meet">
<metadata>
Created by potrace 1.16, written by Peter Selinger 2001-2019
</metadata>
<g transform="translate(0.000000,28.000000) scale(0.100000,-0.100000)"
fill="#000000" stroke="none">
<path d="M10 251 l0 -30 16 -15 15 -16 14 0 13 0 6 -15 6 -16 -13 -19 -12 -20
-21 0 -22 0 -4 -50 -3 -50 42 0 41 0 16 6 16 6 -6 34 -6 34 10 0 10 0 16 -6
16 -6 0 -38 0 -38 16 -6 16 -6 39 10 39 11 0 9 0 10 -9 0 -8 0 -9 33 -10 32
-27 3 -27 3 -6 24 -6 24 7 21 7 21 36 -3 37 -3 3 40 3 40 -46 -3 -45 -4 0 -15
0 -14 -15 -15 -14 -15 -25 7 -25 6 -3 26 -3 27 -37 3 -38 3 0 -30z"/>
</g>
</svg>
