<?xml version="1.0" standalone="no"?>
<!DOCTYPE svg PUBLIC "-//W3C//DTD SVG 20010904//EN"
 "http://www.w3.org/TR/2001/REC-SVG-20010904/DTD/svg10.dtd">
<svg version="1.0" xmlns="http://www.w3.org/2000/svg"
 width="37.000000pt" height="42.000000pt" viewBox="0 0 37.000000 42.000000"
 preserveAspectRatio="xMidYMid meet">
<metadata>
Created by potrace 1.16, written by Peter Selinger 2001-2019
</metadata>
<g transform="translate(0.000000,42.000000) scale(0.100000,-0.100000)"
fill="#000000" stroke="none">
<path d="M117 413 l-7 -6 0 -17 0 -18 -27 -10 -28 -11 -25 2 -25 2 -3 -51 -3
-51 23 -7 23 -6 23 0 22 0 0 -15 0 -15 -24 0 -24 0 -16 -6 -16 -6 0 -48 0 -48
6 -16 6 -16 39 0 39 0 0 -21 0 -20 14 -15 15 -14 19 0 19 0 21 19 22 18 0 27
0 26 45 0 45 0 0 40 0 40 29 0 29 0 6 16 6 16 0 28 0 28 -27 7 -28 7 -7 11 -8
12 0 28 0 28 -14 5 -14 5 -34 -9 -33 -9 -10 10 -11 11 4 28 4 28 -34 0 -35 0
-6 -7z"/>
</g>
</svg>
