<?xml version="1.0" standalone="no"?>
<!DOCTYPE svg PUBLIC "-//W3C//DTD SVG 20010904//EN"
 "http://www.w3.org/TR/2001/REC-SVG-20010904/DTD/svg10.dtd">
<svg version="1.0" xmlns="http://www.w3.org/2000/svg"
 width="37.000000pt" height="34.000000pt" viewBox="0 0 37.000000 34.000000"
 preserveAspectRatio="xMidYMid meet">
<metadata>
Created by potrace 1.16, written by Peter Selinger 2001-2019
</metadata>
<g transform="translate(0.000000,34.000000) scale(0.100000,-0.100000)"
fill="#000000" stroke="none">
<path d="M180 316 l0 -26 -25 -6 -26 -6 -29 6 -30 6 0 -39 0 -39 -35 -6 -35
-7 0 -25 0 -25 15 -16 16 -15 24 5 25 4 0 -47 0 -48 23 -6 22 -6 23 0 23 0 15
14 14 15 0 21 0 22 13 -4 12 -5 3 -19 3 -19 5 -22 4 -23 18 0 17 0 36 10 36
10 11 26 12 25 0 24 0 23 -6 16 -6 15 -44 -6 -44 -6 0 28 0 27 16 -6 17 -6 18
5 17 6 11 31 11 31 0 18 0 17 -39 -5 -40 -5 -26 6 -26 7 3 22 3 22 -27 3 -28
3 0 -25z"/>
</g>
</svg>
