<?xml version="1.0" standalone="no"?>
<!DOCTYPE svg PUBLIC "-//W3C//DTD SVG 20010904//EN"
 "http://www.w3.org/TR/2001/REC-SVG-20010904/DTD/svg10.dtd">
<svg version="1.0" xmlns="http://www.w3.org/2000/svg"
 width="39.000000pt" height="36.000000pt" viewBox="0 0 39.000000 36.000000"
 preserveAspectRatio="xMidYMid meet">
<metadata>
Created by potrace 1.16, written by Peter Selinger 2001-2019
</metadata>
<g transform="translate(0.000000,36.000000) scale(0.100000,-0.100000)"
fill="#000000" stroke="none">
<path d="M180 336 l0 -25 -20 -6 -19 -6 -36 7 -35 6 0 -40 0 -40 -35 -6 -35
-7 0 -35 0 -35 14 -15 15 -14 25 0 26 0 0 -44 0 -44 22 -6 23 -6 33 0 33 0 14
13 13 13 5 20 5 19 1 -27 1 -26 6 -16 6 -16 27 0 26 0 36 10 36 10 11 26 12
25 0 37 0 37 -9 14 -9 13 -41 -7 -41 -7 0 11 0 11 23 0 22 0 12 8 12 7 10 28
11 28 0 30 0 30 -44 -6 -44 -7 -19 6 -20 6 1 23 1 22 -37 3 -38 3 0 -25z"/>
</g>
</svg>
