<?xml version="1.0" standalone="no"?>
<!DOCTYPE svg PUBLIC "-//W3C//DTD SVG 20010904//EN"
 "http://www.w3.org/TR/2001/REC-SVG-20010904/DTD/svg10.dtd">
<svg version="1.0" xmlns="http://www.w3.org/2000/svg"
 width="35.000000pt" height="40.000000pt" viewBox="0 0 35.000000 40.000000"
 preserveAspectRatio="xMidYMid meet">
<metadata>
Created by potrace 1.16, written by Peter Selinger 2001-2019
</metadata>
<g transform="translate(0.000000,40.000000) scale(0.100000,-0.100000)"
fill="#000000" stroke="none">
<path d="M117 393 l-7 -6 0 -17 0 -18 -29 -12 -29 -12 -23 4 -24 3 -3 -41 -3
-41 23 -7 23 -6 23 0 22 0 0 -25 0 -25 -24 0 -24 0 -16 -6 -16 -6 0 -38 0 -38
6 -16 6 -16 39 0 39 0 0 -21 0 -20 14 -15 15 -14 9 0 9 0 21 19 22 18 0 27 0
26 45 0 45 0 0 40 0 40 29 0 29 0 6 16 6 16 0 18 0 18 -27 7 -28 7 -7 11 -8
12 0 27 0 27 -8 5 -9 5 -37 -10 -36 -10 -15 15 -16 15 7 26 6 25 -24 0 -25 0
-6 -7z"/>
</g>
</svg>
