<?xml version="1.0" standalone="no"?>
<!DOCTYPE svg PUBLIC "-//W3C//DTD SVG 20010904//EN"
 "http://www.w3.org/TR/2001/REC-SVG-20010904/DTD/svg10.dtd">
<svg version="1.0" xmlns="http://www.w3.org/2000/svg"
 width="42.000000pt" height="42.000000pt" viewBox="0 0 42.000000 42.000000"
 preserveAspectRatio="xMidYMid meet">
<metadata>
Created by potrace 1.16, written by Peter Selinger 2001-2019
</metadata>
<g transform="translate(0.000000,42.000000) scale(0.100000,-0.100000)"
fill="#000000" stroke="none">
<path d="M180 393 l0 -28 -9 -13 -8 -14 -49 3 -49 3 3 -41 2 -41 -35 -6 -35
-7 0 -24 0 -25 14 0 14 0 17 -55 18 -55 16 -1 16 -1 33 2 34 2 -7 -30 -6 -30
16 -16 16 -16 15 0 14 0 0 10 0 10 15 0 15 0 0 39 0 39 40 -5 40 -6 20 23 20
23 0 27 0 28 24 6 24 6 6 26 7 27 -13 8 -13 9 -17 0 -17 0 -11 19 -10 20 0 16
0 16 -14 15 -15 14 -26 0 -26 0 -15 14 -14 15 0 10 0 11 -25 0 -25 0 0 -27z"/>
</g>
</svg>
