<?xml version="1.0" standalone="no"?>
<!DOCTYPE svg PUBLIC "-//W3C//DTD SVG 20010904//EN"
 "http://www.w3.org/TR/2001/REC-SVG-20010904/DTD/svg10.dtd">
<svg version="1.0" xmlns="http://www.w3.org/2000/svg"
 width="30.000000pt" height="35.000000pt" viewBox="0 0 30.000000 35.000000"
 preserveAspectRatio="xMidYMid meet">
<metadata>
Created by potrace 1.16, written by Peter Selinger 2001-2019
</metadata>
<g transform="translate(0.000000,35.000000) scale(0.100000,-0.100000)"
fill="#000000" stroke="none">
<path d="M130 311 l0 -39 -17 -6 -16 -7 -44 7 -43 6 0 -45 0 -45 16 -6 16 -6
24 0 24 0 0 -9 0 -9 -6 -16 -6 -16 -23 0 -23 0 -16 -6 -16 -6 0 -16 0 -16 12
-33 12 -33 33 -6 33 -6 24 6 25 6 3 33 3 32 10 -3 10 -3 -2 -27 -2 -26 12 -8
12 -8 40 0 40 0 13 9 14 8 -11 41 -11 41 -20 6 -20 6 0 30 0 29 16 0 17 0 19
22 19 22 -3 31 -3 30 -34 -3 -33 -4 -24 6 -24 6 0 35 0 35 -25 0 -25 0 0 -39z"/>
</g>
</svg>
