<?xml version="1.0" standalone="no"?>
<!DOCTYPE svg PUBLIC "-//W3C//DTD SVG 20010904//EN"
 "http://www.w3.org/TR/2001/REC-SVG-20010904/DTD/svg10.dtd">
<svg version="1.0" xmlns="http://www.w3.org/2000/svg"
 width="44.000000pt" height="44.000000pt" viewBox="0 0 44.000000 44.000000"
 preserveAspectRatio="xMidYMid meet">
<metadata>
Created by potrace 1.16, written by Peter Selinger 2001-2019
</metadata>
<g transform="translate(0.000000,44.000000) scale(0.100000,-0.100000)"
fill="#000000" stroke="none">
<path d="M180 413 l0 -28 -9 -13 -8 -14 -49 4 -49 3 1 -42 1 -41 -34 -7 -33
-6 0 -34 0 -35 14 0 14 0 17 -54 17 -54 21 -6 20 -5 27 5 27 6 -4 -29 -5 -30
17 -16 16 -17 25 0 24 0 0 10 0 10 15 0 15 0 0 35 0 35 41 0 42 0 18 22 19 21
0 27 0 28 25 6 24 6 7 36 7 36 -14 9 -14 9 -17 0 -17 0 -11 19 -10 20 0 16 0
16 -14 15 -15 14 -26 0 -26 0 -15 14 -14 15 0 10 0 11 -35 0 -35 0 0 -27z"/>
</g>
</svg>
