<?xml version="1.0" standalone="no"?>
<!DOCTYPE svg PUBLIC "-//W3C//DTD SVG 20010904//EN"
 "http://www.w3.org/TR/2001/REC-SVG-20010904/DTD/svg10.dtd">
<svg version="1.0" xmlns="http://www.w3.org/2000/svg"
 width="41.000000pt" height="35.000000pt" viewBox="0 0 41.000000 35.000000"
 preserveAspectRatio="xMidYMid meet">
<metadata>
Created by potrace 1.16, written by Peter Selinger 2001-2019
</metadata>
<g transform="translate(0.000000,35.000000) scale(0.100000,-0.100000)"
fill="#000000" stroke="none">
<path d="M184 315 l7 -34 -23 -6 -23 -5 -40 -2 -40 -3 -3 -42 -3 -42 -30 -6
-29 -7 0 -8 0 -8 6 -16 6 -16 13 0 13 0 7 -36 6 -36 11 -24 11 -24 38 0 37 0
16 6 16 6 0 39 0 39 20 0 19 0 9 -16 9 -17 -4 -18 -5 -18 26 -7 26 -6 34 6 34
7 6 15 6 16 0 23 0 23 25 6 25 6 0 19 0 19 -6 16 -6 16 -29 0 -29 0 0 41 0 42
-41 -6 -41 -5 -14 5 -14 5 0 38 0 38 -16 6 -16 6 -10 0 -10 0 6 -35z"/>
</g>
</svg>
