<?xml version="1.0" standalone="no"?>
<!DOCTYPE svg PUBLIC "-//W3C//DTD SVG 20010904//EN"
 "http://www.w3.org/TR/2001/REC-SVG-20010904/DTD/svg10.dtd">
<svg version="1.0" xmlns="http://www.w3.org/2000/svg"
 width="35.000000pt" height="32.000000pt" viewBox="0 0 35.000000 32.000000"
 preserveAspectRatio="xMidYMid meet">
<metadata>
Created by potrace 1.16, written by Peter Selinger 2001-2019
</metadata>
<g transform="translate(0.000000,32.000000) scale(0.100000,-0.100000)"
fill="#000000" stroke="none">
<path d="M125 291 l6 -29 -21 -7 -20 -6 -43 3 -42 3 -3 -38 -3 -37 15 -16 16
-15 20 6 20 6 0 -20 0 -19 -6 -16 -6 -16 -18 0 -18 0 -6 -16 -6 -16 0 -29 0
-29 140 0 140 0 0 39 0 39 30 7 30 7 0 23 0 24 -16 15 -15 16 -20 0 -19 0 0
43 0 42 -46 -4 -46 -3 -9 13 -9 14 0 23 0 22 -26 0 -26 0 7 -29z"/>
</g>
</svg>
