<?xml version="1.0" standalone="no"?>
<!DOCTYPE svg PUBLIC "-//W3C//DTD SVG 20010904//EN"
 "http://www.w3.org/TR/2001/REC-SVG-20010904/DTD/svg10.dtd">
<svg version="1.0" xmlns="http://www.w3.org/2000/svg"
 width="43.000000pt" height="37.000000pt" viewBox="0 0 43.000000 37.000000"
 preserveAspectRatio="xMidYMid meet">
<metadata>
Created by potrace 1.16, written by Peter Selinger 2001-2019
</metadata>
<g transform="translate(0.000000,37.000000) scale(0.100000,-0.100000)"
fill="#000000" stroke="none">
<path d="M182 335 l4 -36 -20 -4 -21 -5 -40 -2 -40 -3 -3 -42 -3 -42 -30 -6
-29 -7 0 -18 0 -18 6 -16 6 -16 13 0 13 0 7 -36 6 -36 11 -24 11 -24 48 0 47
0 16 6 16 6 0 40 0 40 13 -4 12 -5 3 -31 3 -32 25 -6 25 -6 41 5 41 5 8 14 9
13 0 26 0 27 25 6 25 6 0 29 0 29 -6 16 -6 16 -29 0 -29 0 0 41 0 41 -42 -2
-43 -2 -12 1 -13 1 0 39 0 39 -16 6 -16 6 -20 0 -20 0 4 -35z"/>
</g>
</svg>
