<?xml version="1.0" standalone="no"?>
<!DOCTYPE svg PUBLIC "-//W3C//DTD SVG 20010904//EN"
 "http://www.w3.org/TR/2001/REC-SVG-20010904/DTD/svg10.dtd">
<svg version="1.0" xmlns="http://www.w3.org/2000/svg"
 width="37.000000pt" height="34.000000pt" viewBox="0 0 37.000000 34.000000"
 preserveAspectRatio="xMidYMid meet">
<metadata>
Created by potrace 1.16, written by Peter Selinger 2001-2019
</metadata>
<g transform="translate(0.000000,34.000000) scale(0.100000,-0.100000)"
fill="#000000" stroke="none">
<path d="M122 310 l5 -30 -22 -6 -22 -5 -39 3 -39 3 -3 -48 -3 -47 15 -15 15
-15 21 0 22 0 -6 -16 -6 -16 0 -4 0 -4 -19 0 -19 0 -6 -16 -6 -16 0 -39 0 -39
150 0 150 0 0 39 0 39 30 7 30 7 0 33 0 34 -16 15 -15 16 -20 0 -19 0 0 45 0
45 -46 -7 -46 -6 -9 14 -9 14 0 23 0 22 -36 0 -36 0 4 -30z"/>
</g>
</svg>
