<?xml version="1.0" standalone="no"?>
<!DOCTYPE svg PUBLIC "-//W3C//DTD SVG 20010904//EN"
 "http://www.w3.org/TR/2001/REC-SVG-20010904/DTD/svg10.dtd">
<svg version="1.0" xmlns="http://www.w3.org/2000/svg"
 width="45.000000pt" height="37.000000pt" viewBox="0 0 45.000000 37.000000"
 preserveAspectRatio="xMidYMid meet">
<metadata>
Created by potrace 1.16, written by Peter Selinger 2001-2019
</metadata>
<g transform="translate(0.000000,37.000000) scale(0.100000,-0.100000)"
fill="#000000" stroke="none">
<path d="M190 331 l0 -39 -25 -6 -25 -6 -40 6 -40 7 0 -47 0 -46 -16 0 -15 0
-15 -14 -14 -15 0 -16 0 -16 14 -15 15 -14 9 0 9 0 7 -49 6 -49 16 -6 16 -6
46 0 47 0 14 9 14 9 -5 26 -5 26 13 0 14 0 0 -19 0 -19 6 -16 6 -16 53 0 54 0
15 16 16 15 0 24 0 23 6 16 6 16 23 0 23 0 6 16 6 16 0 18 0 18 -16 6 -16 6
-23 0 -24 0 -6 44 -7 44 -21 6 -22 6 -31 0 -32 0 -6 16 -6 16 0 24 0 24 -25 0
-25 0 0 -39z"/>
</g>
</svg>
