<?xml version="1.0" standalone="no"?>
<!DOCTYPE svg PUBLIC "-//W3C//DTD SVG 20010904//EN"
 "http://www.w3.org/TR/2001/REC-SVG-20010904/DTD/svg10.dtd">
<svg version="1.0" xmlns="http://www.w3.org/2000/svg"
 width="43.000000pt" height="35.000000pt" viewBox="0 0 43.000000 35.000000"
 preserveAspectRatio="xMidYMid meet">
<metadata>
Created by potrace 1.16, written by Peter Selinger 2001-2019
</metadata>
<g transform="translate(0.000000,35.000000) scale(0.100000,-0.100000)"
fill="#000000" stroke="none">
<path d="M190 311 l0 -39 -31 -7 -31 -7 -35 7 -36 6 5 -45 6 -46 -20 0 -19 0
-15 -14 -14 -15 0 -6 0 -6 14 -15 15 -14 9 0 9 0 7 -49 6 -49 16 -6 16 -6 36
0 37 0 13 9 13 8 -7 26 -6 27 26 0 26 0 0 -19 0 -19 6 -16 6 -16 43 0 44 0 15
16 16 15 0 24 0 23 6 16 6 16 23 0 24 0 6 21 7 21 -13 9 -14 9 -27 0 -27 0 -6
44 -7 44 -21 6 -22 6 -31 0 -32 0 -6 16 -6 16 0 24 0 24 -15 0 -15 0 0 -39z"/>
</g>
</svg>
