<?xml version="1.0" standalone="no"?>
<!DOCTYPE svg PUBLIC "-//W3C//DTD SVG 20010904//EN"
 "http://www.w3.org/TR/2001/REC-SVG-20010904/DTD/svg10.dtd">
<svg version="1.0" xmlns="http://www.w3.org/2000/svg"
 width="25.000000pt" height="40.000000pt" viewBox="0 0 25.000000 40.000000"
 preserveAspectRatio="xMidYMid meet">
<metadata>
Created by potrace 1.16, written by Peter Selinger 2001-2019
</metadata>
<g transform="translate(0.000000,40.000000) scale(0.100000,-0.100000)"
fill="#000000" stroke="none">
<path d="M113 380 l-2 -20 -16 -16 -16 -16 -40 5 -39 5 0 -49 0 -49 24 0 24 0
16 -6 16 -6 0 -24 0 -24 -23 0 -24 0 -12 -41 -12 -41 -6 -14 -5 -14 41 0 41 0
0 -29 0 -29 25 -6 26 -7 14 15 15 15 0 15 0 15 43 3 42 3 -3 40 -3 40 -5 18
-5 17 -30 0 -29 0 0 24 0 24 16 6 16 6 18 0 18 0 6 16 6 16 0 27 0 28 -45 -10
-45 -10 -7 6 -6 7 -6 37 -6 36 -10 4 -11 3 -1 -20z"/>
</g>
</svg>
