<?xml version="1.0" standalone="no"?>
<!DOCTYPE svg PUBLIC "-//W3C//DTD SVG 20010904//EN"
 "http://www.w3.org/TR/2001/REC-SVG-20010904/DTD/svg10.dtd">
<svg version="1.0" xmlns="http://www.w3.org/2000/svg"
 width="27.000000pt" height="42.000000pt" viewBox="0 0 27.000000 42.000000"
 preserveAspectRatio="xMidYMid meet">
<metadata>
Created by potrace 1.16, written by Peter Selinger 2001-2019
</metadata>
<g transform="translate(0.000000,42.000000) scale(0.100000,-0.100000)"
fill="#000000" stroke="none">
<path d="M110 400 l0 -21 -15 -16 -15 -15 -40 7 -40 7 0 -61 0 -61 24 0 24 0
16 -6 16 -6 0 -14 0 -14 -23 0 -23 0 -17 -53 -17 -54 0 -11 0 -12 40 0 40 0 0
-30 0 -29 35 -7 34 -6 16 15 15 16 0 15 0 15 43 3 42 3 -3 45 -3 45 -4 23 -5
22 -30 0 -30 0 0 14 0 14 16 6 16 6 18 0 18 0 6 16 6 16 0 40 0 40 -25 -6 -25
-6 -25 -6 -24 -6 -5 24 -5 23 -3 20 -3 20 -23 3 -22 3 0 -21z"/>
</g>
</svg>
