<?xml version="1.0" standalone="no"?>
<!DOCTYPE svg PUBLIC "-//W3C//DTD SVG 20010904//EN"
 "http://www.w3.org/TR/2001/REC-SVG-20010904/DTD/svg10.dtd">
<svg version="1.0" xmlns="http://www.w3.org/2000/svg"
 width="39.000000pt" height="46.000000pt" viewBox="0 0 39.000000 46.000000"
 preserveAspectRatio="xMidYMid meet">
<metadata>
Created by potrace 1.16, written by Peter Selinger 2001-2019
</metadata>
<g transform="translate(0.000000,46.000000) scale(0.100000,-0.100000)"
fill="#000000" stroke="none">
<path d="M197 453 l-19 -5 4 -34 4 -34 -19 -6 -19 -6 -45 7 -45 7 4 -41 4 -41
-18 0 -17 0 -15 -16 -16 -15 0 -35 0 -34 15 0 15 0 0 -10 0 -10 15 0 15 0 0
-29 0 -29 6 -16 6 -16 38 0 38 0 6 -35 7 -35 14 0 15 0 0 -10 0 -10 21 0 22 0
18 22 19 21 0 29 0 28 49 0 50 0 5 18 5 17 6 32 6 33 -6 20 -7 21 -36 -3 -37
-3 -3 10 -2 10 35 3 36 3 -3 57 -3 57 -25 -1 -25 -1 -27 -7 -27 -8 -6 26 -5
26 -5 25 -5 25 -13 -1 -12 -1 -18 -5z"/>
</g>
</svg>
