<?xml version="1.0" standalone="no"?>
<!DOCTYPE svg PUBLIC "-//W3C//DTD SVG 20010904//EN"
 "http://www.w3.org/TR/2001/REC-SVG-20010904/DTD/svg10.dtd">
<svg version="1.0" xmlns="http://www.w3.org/2000/svg"
 width="31.000000pt" height="36.000000pt" viewBox="0 0 31.000000 36.000000"
 preserveAspectRatio="xMidYMid meet">
<metadata>
Created by potrace 1.16, written by Peter Selinger 2001-2019
</metadata>
<g transform="translate(0.000000,36.000000) scale(0.100000,-0.100000)"
fill="#000000" stroke="none">
<path d="M137 354 l-7 -7 0 -28 0 -29 -25 -6 -25 -6 -31 11 -32 11 -8 0 -9 0
0 -20 0 -20 10 0 10 0 0 -35 0 -35 24 0 25 0 6 -21 7 -21 -11 -8 -12 -7 -19
-51 -20 -52 0 -15 0 -15 54 0 54 0 6 16 6 16 0 24 0 24 15 0 15 0 0 -11 0 -10
14 -15 15 -14 45 0 46 0 0 33 0 32 -8 11 -7 11 -23 12 -23 12 6 10 6 9 29 0
28 0 6 16 6 16 0 50 0 50 -49 -7 -50 -7 -18 6 -18 6 0 32 0 32 -15 4 -16 3 -7
-7z"/>
</g>
</svg>
