<?xml version="1.0" standalone="no"?>
<!DOCTYPE svg PUBLIC "-//W3C//DTD SVG 20010904//EN"
 "http://www.w3.org/TR/2001/REC-SVG-20010904/DTD/svg10.dtd">
<svg version="1.0" xmlns="http://www.w3.org/2000/svg"
 width="37.000000pt" height="44.000000pt" viewBox="0 0 37.000000 44.000000"
 preserveAspectRatio="xMidYMid meet">
<metadata>
Created by potrace 1.16, written by Peter Selinger 2001-2019
</metadata>
<g transform="translate(0.000000,44.000000) scale(0.100000,-0.100000)"
fill="#000000" stroke="none">
<path d="M197 432 l-19 -4 6 -34 7 -33 -26 -7 -26 -6 -41 5 -40 5 6 -43 7 -43
-19 5 -19 5 -17 -17 -16 -16 0 -25 0 -24 15 0 15 0 0 -10 0 -10 15 0 15 0 0
-29 0 -29 6 -16 6 -16 45 0 44 0 -6 -10 -6 -9 7 -26 6 -25 14 0 14 0 0 -10 0
-10 11 0 12 0 18 22 19 21 0 29 0 28 49 0 50 0 5 18 5 17 5 30 6 30 -8 11 -7
12 -40 -2 -40 -1 0 20 0 20 38 3 37 3 0 44 0 44 -8 5 -8 4 -42 -11 -43 -11 -9
14 -10 15 0 25 0 25 -8 10 -7 11 -18 -4z"/>
</g>
</svg>
