<?xml version="1.0" standalone="no"?>
<!DOCTYPE svg PUBLIC "-//W3C//DTD SVG 20010904//EN"
 "http://www.w3.org/TR/2001/REC-SVG-20010904/DTD/svg10.dtd">
<svg version="1.0" xmlns="http://www.w3.org/2000/svg"
 width="29.000000pt" height="34.000000pt" viewBox="0 0 29.000000 34.000000"
 preserveAspectRatio="xMidYMid meet">
<metadata>
Created by potrace 1.16, written by Peter Selinger 2001-2019
</metadata>
<g transform="translate(0.000000,34.000000) scale(0.100000,-0.100000)"
fill="#000000" stroke="none">
<path d="M136 333 l-6 -6 0 -28 0 -29 -27 -6 -27 -7 -38 10 -38 10 0 -8 0 -9
10 0 10 0 0 -35 0 -35 23 0 24 0 12 -27 12 -27 -15 -12 -16 -11 -14 -34 -14
-34 -6 -22 -7 -23 44 0 45 0 6 16 6 16 0 24 0 24 25 0 25 0 0 -11 0 -10 14
-15 15 -14 35 0 36 0 0 25 0 24 -12 11 -13 11 -19 13 -19 13 6 17 6 16 30 0
29 0 6 16 6 16 0 39 0 39 -44 -6 -45 -7 -26 7 -26 7 6 28 6 29 -9 6 -9 5 -7
-6z"/>
</g>
</svg>
