<?xml version="1.0" standalone="no"?>
<!DOCTYPE svg PUBLIC "-//W3C//DTD SVG 20010904//EN"
 "http://www.w3.org/TR/2001/REC-SVG-20010904/DTD/svg10.dtd">
<svg version="1.0" xmlns="http://www.w3.org/2000/svg"
 width="31.000000pt" height="39.000000pt" viewBox="0 0 31.000000 39.000000"
 preserveAspectRatio="xMidYMid meet">
<metadata>
Created by potrace 1.16, written by Peter Selinger 2001-2019
</metadata>
<g transform="translate(0.000000,39.000000) scale(0.100000,-0.100000)"
fill="#000000" stroke="none">
<path d="M127 383 l-4 -8 -7 -27 -6 -28 -45 0 -45 0 0 -40 0 -40 29 0 29 0 6
-16 6 -16 0 -15 0 -14 -14 -15 -15 -14 -31 0 -31 0 7 -37 6 -38 7 -7 6 -7 40
-3 40 -3 3 -22 3 -21 16 -6 16 -6 19 6 20 6 -4 30 -5 30 51 -5 51 -5 11 12 12
13 6 29 6 29 -9 14 -9 14 -36 -7 -35 -7 -7 26 -6 25 6 16 6 15 9 -6 10 -6 26
7 25 6 0 33 0 33 -16 6 -15 6 -20 -10 -19 -10 -26 6 -26 7 7 24 6 25 -12 14
-11 14 -14 0 -13 0 -4 -7z"/>
</g>
</svg>
