<?xml version="1.0" standalone="no"?>
<!DOCTYPE svg PUBLIC "-//W3C//DTD SVG 20010904//EN"
 "http://www.w3.org/TR/2001/REC-SVG-20010904/DTD/svg10.dtd">
<svg version="1.0" xmlns="http://www.w3.org/2000/svg"
 width="42.000000pt" height="36.000000pt" viewBox="0 0 42.000000 36.000000"
 preserveAspectRatio="xMidYMid meet">
<metadata>
Created by potrace 1.16, written by Peter Selinger 2001-2019
</metadata>
<g transform="translate(0.000000,36.000000) scale(0.100000,-0.100000)"
fill="#000000" stroke="none">
<path d="M187 353 l-7 -6 0 -26 0 -26 -9 -14 -9 -14 -45 6 -46 6 -3 -41 -3
-42 -33 -8 -32 -9 0 -14 0 -14 16 -16 17 -17 18 5 19 5 0 -54 0 -54 25 -6 25
-6 30 12 30 12 0 24 0 24 31 0 31 0 -6 -25 -7 -26 15 -15 15 -15 46 12 46 12
-6 48 -7 49 35 0 35 0 6 16 6 16 0 18 0 18 -28 7 -28 6 -12 44 -12 45 -40 0
-40 0 0 11 0 10 -10 -6 -10 -6 0 30 0 31 -23 0 -24 0 -6 -7z"/>
</g>
</svg>
