<?xml version="1.0" standalone="no"?>
<!DOCTYPE svg PUBLIC "-//W3C//DTD SVG 20010904//EN"
 "http://www.w3.org/TR/2001/REC-SVG-20010904/DTD/svg10.dtd">
<svg version="1.0" xmlns="http://www.w3.org/2000/svg"
 width="33.000000pt" height="41.000000pt" viewBox="0 0 33.000000 41.000000"
 preserveAspectRatio="xMidYMid meet">
<metadata>
Created by potrace 1.16, written by Peter Selinger 2001-2019
</metadata>
<g transform="translate(0.000000,41.000000) scale(0.100000,-0.100000)"
fill="#000000" stroke="none">
<path d="M127 403 l-4 -8 -7 -27 -6 -28 -45 0 -45 0 0 -50 0 -50 29 0 30 0 6
-20 6 -20 -15 -15 -15 -15 -30 0 -31 0 1 -22 1 -23 7 -30 6 -30 45 -5 45 -5 3
-22 3 -22 20 -6 20 -7 25 6 24 6 0 31 0 31 45 -6 45 -7 14 13 14 14 7 32 6 32
-6 21 -7 21 -39 -4 -39 -3 -5 13 -5 14 0 8 0 7 40 7 40 6 0 45 0 45 -24 6 -25
6 -17 -10 -17 -9 -17 4 -17 5 5 24 4 24 -12 15 -12 15 -24 0 -23 0 -4 -7z"/>
</g>
</svg>
