<?xml version="1.0" standalone="no"?>
<!DOCTYPE svg PUBLIC "-//W3C//DTD SVG 20010904//EN"
 "http://www.w3.org/TR/2001/REC-SVG-20010904/DTD/svg10.dtd">
<svg version="1.0" xmlns="http://www.w3.org/2000/svg"
 width="44.000000pt" height="38.000000pt" viewBox="0 0 44.000000 38.000000"
 preserveAspectRatio="xMidYMid meet">
<metadata>
Created by potrace 1.16, written by Peter Selinger 2001-2019
</metadata>
<g transform="translate(0.000000,38.000000) scale(0.100000,-0.100000)"
fill="#000000" stroke="none">
<path d="M187 373 l-7 -6 0 -26 0 -26 -9 -13 -8 -14 -46 7 -46 7 -3 -43 -3
-43 -33 -8 -32 -9 0 -24 0 -24 16 -15 15 -16 20 0 19 0 0 -49 0 -49 16 -6 16
-6 23 0 24 0 26 12 25 11 0 24 0 23 19 0 18 0 -4 -25 -5 -24 17 -17 16 -17 56
13 56 12 -6 49 -6 49 33 0 34 0 6 16 6 16 0 28 0 28 -28 7 -28 6 -12 44 -12
45 -36 0 -35 0 -15 14 -14 15 0 20 0 21 -33 0 -34 0 -6 -7z"/>
</g>
</svg>
