<?xml version="1.0" standalone="no"?>
<!DOCTYPE svg PUBLIC "-//W3C//DTD SVG 20010904//EN"
 "http://www.w3.org/TR/2001/REC-SVG-20010904/DTD/svg10.dtd">
<svg version="1.0" xmlns="http://www.w3.org/2000/svg"
 width="37.000000pt" height="43.000000pt" viewBox="0 0 37.000000 43.000000"
 preserveAspectRatio="xMidYMid meet">
<metadata>
Created by potrace 1.16, written by Peter Selinger 2001-2019
</metadata>
<g transform="translate(0.000000,43.000000) scale(0.100000,-0.100000)"
fill="#000000" stroke="none">
<path d="M200 390 l0 -40 -25 -6 -25 -6 -35 4 -35 4 0 -48 0 -48 -25 6 -24 6
-16 -16 -16 -16 6 -20 6 -20 29 0 29 0 7 -49 6 -49 49 -6 49 -7 1 -12 1 -12
-1 -13 -2 -12 16 -16 16 -16 29 12 30 12 0 29 0 29 38 0 37 0 13 40 12 40 0
15 0 15 -23 -5 -23 -6 -22 19 -22 19 0 21 0 20 30 7 30 7 0 6 0 7 9 37 9 37
-29 -6 -28 -5 -27 6 -26 7 5 18 4 18 -9 17 -9 16 -19 0 -20 0 0 -40z"/>
</g>
</svg>
