<?xml version="1.0" standalone="no"?>
<!DOCTYPE svg PUBLIC "-//W3C//DTD SVG 20010904//EN"
 "http://www.w3.org/TR/2001/REC-SVG-20010904/DTD/svg10.dtd">
<svg version="1.0" xmlns="http://www.w3.org/2000/svg"
 width="30.000000pt" height="30.000000pt" viewBox="0 0 30.000000 30.000000"
 preserveAspectRatio="xMidYMid meet">
<metadata>
Created by potrace 1.16, written by Peter Selinger 2001-2019
</metadata>
<g transform="translate(0.000000,30.000000) scale(0.100000,-0.100000)"
fill="#000000" stroke="none">
<path d="M6 252 l7 -47 4 -8 5 -9 29 4 29 5 6 -19 5 -18 -16 -17 -17 -16 -29
1 -29 1 0 -28 0 -28 6 -32 6 -31 52 0 51 0 14 9 14 9 -6 32 -7 32 13 -5 12 -4
3 -19 3 -19 5 -23 4 -22 29 0 28 0 31 11 30 10 6 22 6 22 0 28 0 28 -17 -2
-18 -1 -12 1 -12 1 -15 15 -15 16 10 23 11 23 24 -5 24 -4 0 50 0 50 -16 6
-16 6 -45 0 -45 0 6 -27 7 -26 -12 -8 -12 -7 -14 5 -13 5 0 19 0 20 -12 3 -13
4 -48 6 -48 6 7 -48z"/>
</g>
</svg>
