<?xml version="1.0" standalone="no"?>
<!DOCTYPE svg PUBLIC "-//W3C//DTD SVG 20010904//EN"
 "http://www.w3.org/TR/2001/REC-SVG-20010904/DTD/svg10.dtd">
<svg version="1.0" xmlns="http://www.w3.org/2000/svg"
 width="39.000000pt" height="45.000000pt" viewBox="0 0 39.000000 45.000000"
 preserveAspectRatio="xMidYMid meet">
<metadata>
Created by potrace 1.16, written by Peter Selinger 2001-2019
</metadata>
<g transform="translate(0.000000,45.000000) scale(0.100000,-0.100000)"
fill="#000000" stroke="none">
<path d="M200 410 l0 -40 -25 -6 -25 -6 -35 6 -35 7 0 -46 0 -45 -26 0 -25 0
-15 -14 -14 -15 0 -14 0 -15 6 -16 6 -16 29 0 28 0 7 -49 6 -49 49 -6 49 -7 0
-25 0 -25 14 -15 15 -14 15 0 15 0 26 12 25 11 0 29 0 28 38 0 37 0 13 40 12
40 0 26 0 26 -25 -4 -25 -5 -20 17 -20 17 0 11 0 10 29 7 30 6 10 50 11 50 0
6 0 5 -35 -6 -36 -7 -19 6 -19 6 5 14 6 13 -12 21 -11 21 -29 0 -30 0 0 -40z"/>
</g>
</svg>
