<?xml version="1.0" standalone="no"?>
<!DOCTYPE svg PUBLIC "-//W3C//DTD SVG 20010904//EN"
 "http://www.w3.org/TR/2001/REC-SVG-20010904/DTD/svg10.dtd">
<svg version="1.0" xmlns="http://www.w3.org/2000/svg"
 width="28.000000pt" height="28.000000pt" viewBox="0 0 28.000000 28.000000"
 preserveAspectRatio="xMidYMid meet">
<metadata>
Created by potrace 1.16, written by Peter Selinger 2001-2019
</metadata>
<g transform="translate(0.000000,28.000000) scale(0.100000,-0.100000)"
fill="#000000" stroke="none">
<path d="M7 245 l5 -30 4 -14 4 -13 27 7 26 6 8 -13 9 -13 0 -18 0 -18 -16
-16 -16 -16 -29 -1 -29 -1 0 -16 0 -17 6 -31 6 -31 38 0 38 0 16 6 16 6 -6 33
-6 32 18 7 17 7 9 -13 8 -13 0 -25 0 -25 9 -14 9 -14 33 7 34 6 13 8 13 9 6
38 6 38 -12 -7 -12 -8 -29 12 -29 12 -6 18 -6 18 13 26 12 27 23 -6 23 -5 0
39 0 39 -16 6 -16 6 -32 0 -33 0 5 -29 4 -29 -20 -6 -19 -6 -16 6 -16 6 -3 21
-3 22 -47 5 -47 6 6 -31z"/>
</g>
</svg>
