<?xml version="1.0" standalone="no"?>
<!DOCTYPE svg PUBLIC "-//W3C//DTD SVG 20010904//EN"
 "http://www.w3.org/TR/2001/REC-SVG-20010904/DTD/svg10.dtd">
<svg version="1.0" xmlns="http://www.w3.org/2000/svg"
 width="41.000000pt" height="34.000000pt" viewBox="0 0 41.000000 34.000000"
 preserveAspectRatio="xMidYMid meet">
<metadata>
Created by potrace 1.16, written by Peter Selinger 2001-2019
</metadata>
<g transform="translate(0.000000,34.000000) scale(0.100000,-0.100000)"
fill="#000000" stroke="none">
<path d="M240 301 l0 -41 -15 0 -15 0 0 -10 0 -10 -14 0 -15 0 -16 16 -16 16
6 30 7 29 -41 -2 -41 -3 0 -39 0 -38 -15 -16 -16 -15 -16 6 -16 7 -8 -12 -7
-12 5 -14 5 -13 22 6 22 5 12 -26 12 -26 0 -39 0 -39 34 6 34 5 7 -23 8 -23
13 -13 13 -13 20 0 20 0 15 16 16 15 0 15 0 14 36 0 36 0 -7 17 -8 18 -4 22
-5 23 6 26 7 26 25 -6 26 -7 19 6 19 6 0 20 0 19 -22 0 -23 0 -24 7 -23 6 5
43 5 44 -28 0 -28 0 -16 6 -16 6 0 -41z"/>
</g>
</svg>
