<?xml version="1.0" standalone="no"?>
<!DOCTYPE svg PUBLIC "-//W3C//DTD SVG 20010904//EN"
 "http://www.w3.org/TR/2001/REC-SVG-20010904/DTD/svg10.dtd">
<svg version="1.0" xmlns="http://www.w3.org/2000/svg"
 width="43.000000pt" height="36.000000pt" viewBox="0 0 43.000000 36.000000"
 preserveAspectRatio="xMidYMid meet">
<metadata>
Created by potrace 1.16, written by Peter Selinger 2001-2019
</metadata>
<g transform="translate(0.000000,36.000000) scale(0.100000,-0.100000)"
fill="#000000" stroke="none">
<path d="M240 321 l0 -41 -14 0 -14 0 -4 -10 -3 -9 -15 9 -14 9 2 35 3 36 -51
0 -50 0 0 -40 0 -41 -12 -13 -12 -12 -22 4 -22 4 -6 -20 -6 -19 6 -17 7 -18
23 5 22 4 11 -24 11 -24 0 -41 0 -40 34 6 34 7 8 -23 7 -22 13 -13 13 -13 30
0 30 0 15 16 16 15 0 15 0 14 35 0 35 0 0 15 0 14 -11 25 -12 25 7 24 6 25 20
-5 20 -5 25 6 25 6 0 30 0 30 -22 0 -23 0 -23 7 -24 6 7 43 6 44 -24 0 -24 0
-32 6 -31 7 0 -42z"/>
</g>
</svg>
