<?xml version="1.0" standalone="no"?>
<!DOCTYPE svg PUBLIC "-//W3C//DTD SVG 20010904//EN"
 "http://www.w3.org/TR/2001/REC-SVG-20010904/DTD/svg10.dtd">
<svg version="1.0" xmlns="http://www.w3.org/2000/svg"
 width="35.000000pt" height="30.000000pt" viewBox="0 0 35.000000 30.000000"
 preserveAspectRatio="xMidYMid meet">
<metadata>
Created by potrace 1.16, written by Peter Selinger 2001-2019
</metadata>
<g transform="translate(0.000000,30.000000) scale(0.100000,-0.100000)"
fill="#000000" stroke="none">
<path d="M190 273 l0 -26 -22 -18 -21 -19 -9 0 -9 0 -15 14 -14 15 0 21 0 21
-47 -3 -48 -3 -3 -31 -3 -31 16 -17 16 -16 25 0 24 0 0 -16 0 -16 -29 -11 -29
-11 -5 -39 -5 -39 5 -14 5 -14 44 0 45 0 6 30 6 30 8 6 9 5 21 -6 21 -7 -6
-33 -6 -33 25 -6 25 -6 23 11 22 12 3 2 3 3 -15 37 -16 37 0 9 0 8 38 6 37 7
18 5 17 4 0 23 0 23 -39 7 -40 6 -6 20 -6 20 6 29 6 29 -40 0 -41 1 0 -26z"/>
</g>
</svg>
