<?xml version="1.0" standalone="no"?>
<!DOCTYPE svg PUBLIC "-//W3C//DTD SVG 20010904//EN"
 "http://www.w3.org/TR/2001/REC-SVG-20010904/DTD/svg10.dtd">
<svg version="1.0" xmlns="http://www.w3.org/2000/svg"
 width="37.000000pt" height="32.000000pt" viewBox="0 0 37.000000 32.000000"
 preserveAspectRatio="xMidYMid meet">
<metadata>
Created by potrace 1.16, written by Peter Selinger 2001-2019
</metadata>
<g transform="translate(0.000000,32.000000) scale(0.100000,-0.100000)"
fill="#000000" stroke="none">
<path d="M190 294 l0 -27 -21 -18 -21 -18 -14 14 -14 14 0 21 0 21 -57 -3 -58
-3 -3 -40 -2 -40 9 -13 8 -14 34 -8 34 -8 -31 -13 -32 -13 -6 -47 -6 -46 6
-17 6 -16 54 0 54 0 6 28 7 27 4 7 4 7 14 -5 13 -6 -5 -33 -5 -33 32 -7 31 -7
30 12 29 12 0 15 0 14 -14 34 -15 34 37 7 37 6 18 5 17 4 0 33 0 33 -39 7 -39
6 -5 14 -6 15 6 35 6 36 -52 0 -51 0 0 -26z"/>
</g>
</svg>
