<?xml version="1.0" standalone="no"?>
<!DOCTYPE svg PUBLIC "-//W3C//DTD SVG 20010904//EN"
 "http://www.w3.org/TR/2001/REC-SVG-20010904/DTD/svg10.dtd">
<svg version="1.0" xmlns="http://www.w3.org/2000/svg"
 width="41.000000pt" height="30.000000pt" viewBox="0 0 41.000000 30.000000"
 preserveAspectRatio="xMidYMid meet">
<metadata>
Created by potrace 1.16, written by Peter Selinger 2001-2019
</metadata>
<g transform="translate(0.000000,30.000000) scale(0.100000,-0.100000)"
fill="#000000" stroke="none">
<path d="M240 272 l0 -29 -20 -23 -20 -23 0 11 0 12 -15 0 -15 0 -1 18 -1 17
1 18 2 17 -50 0 -51 0 0 -45 0 -44 -35 -7 -35 -6 0 -38 0 -39 20 -6 20 -6 11
-44 11 -44 43 -7 43 -6 21 7 21 6 0 40 0 39 15 0 15 0 0 -34 0 -34 16 -6 16
-6 40 0 41 0 -6 54 -5 54 15 6 15 6 23 0 24 0 6 10 6 10 -6 20 -6 20 -24 0
-24 0 -7 23 -7 22 1 33 1 32 -49 0 -50 0 0 -28z"/>
</g>
</svg>
