<?xml version="1.0" standalone="no"?>
<!DOCTYPE svg PUBLIC "-//W3C//DTD SVG 20010904//EN"
 "http://www.w3.org/TR/2001/REC-SVG-20010904/DTD/svg10.dtd">
<svg version="1.0" xmlns="http://www.w3.org/2000/svg"
 width="39.000000pt" height="28.000000pt" viewBox="0 0 39.000000 28.000000"
 preserveAspectRatio="xMidYMid meet">
<metadata>
Created by potrace 1.16, written by Peter Selinger 2001-2019
</metadata>
<g transform="translate(0.000000,28.000000) scale(0.100000,-0.100000)"
fill="#000000" stroke="none">
<path d="M240 252 l0 -29 -19 -21 -18 -22 -12 0 -11 0 0 10 0 10 -14 0 -14 0
-6 25 -7 26 6 9 6 10 -40 0 -41 0 0 -45 0 -44 -35 -7 -35 -6 0 -28 0 -29 20
-6 20 -6 11 -44 11 -43 34 -7 35 -6 19 6 20 6 0 40 0 39 25 0 25 0 0 -34 0
-34 16 -6 16 -6 30 0 31 0 -7 52 -7 51 13 8 13 9 26 0 26 0 6 6 6 6 -6 14 -5
14 -24 0 -23 0 -11 39 -10 39 5 14 6 14 -41 2 -40 3 0 -29z"/>
</g>
</svg>
