<?xml version="1.0" standalone="no"?>
<!DOCTYPE svg PUBLIC "-//W3C//DTD SVG 20010904//EN"
 "http://www.w3.org/TR/2001/REC-SVG-20010904/DTD/svg10.dtd">
<svg version="1.0" xmlns="http://www.w3.org/2000/svg"
 width="35.000000pt" height="28.000000pt" viewBox="0 0 35.000000 28.000000"
 preserveAspectRatio="xMidYMid meet">
<metadata>
Created by potrace 1.16, written by Peter Selinger 2001-2019
</metadata>
<g transform="translate(0.000000,28.000000) scale(0.100000,-0.100000)"
fill="#000000" stroke="none">
<path d="M185 270 l6 -9 -7 -26 -6 -25 -28 0 -29 0 -6 20 -6 20 6 10 6 10 -50
0 -51 0 0 -45 0 -45 29 0 29 0 6 -16 6 -16 0 -19 0 -19 -25 -6 -25 -6 0 -18 0
-18 -6 -31 -6 -31 24 0 25 0 22 19 22 19 -3 19 -3 18 25 0 25 0 3 -32 3 -33
25 -6 24 -6 35 6 35 7 0 34 0 34 16 15 15 16 15 0 14 0 0 24 0 24 -45 11 -45
11 6 44 6 43 -23 6 -24 7 -23 0 -23 0 6 -10z"/>
</g>
</svg>
