<?xml version="1.0" standalone="no"?>
<!DOCTYPE svg PUBLIC "-//W3C//DTD SVG 20010904//EN"
 "http://www.w3.org/TR/2001/REC-SVG-20010904/DTD/svg10.dtd">
<svg version="1.0" xmlns="http://www.w3.org/2000/svg"
 width="37.000000pt" height="30.000000pt" viewBox="0 0 37.000000 30.000000"
 preserveAspectRatio="xMidYMid meet">
<metadata>
Created by potrace 1.16, written by Peter Selinger 2001-2019
</metadata>
<g transform="translate(0.000000,30.000000) scale(0.100000,-0.100000)"
fill="#000000" stroke="none">
<path d="M181 283 l1 -18 -1 -17 -1 -18 -20 0 -20 0 -1 13 -1 12 1 18 2 17
-70 0 -71 0 0 -15 0 -15 10 0 10 0 0 -40 0 -40 29 0 30 0 6 -21 7 -21 -13 -9
-14 -9 -11 0 -11 0 -7 -46 -6 -47 0 -13 0 -14 33 0 34 0 21 19 22 18 0 23 0
22 13 -4 12 -5 3 -29 4 -29 11 -7 12 -8 35 0 35 0 23 6 22 6 0 33 0 34 16 15
15 16 15 0 14 0 0 34 0 34 -43 10 -42 11 3 44 4 44 -24 6 -23 7 -33 0 -33 0 2
-17z"/>
</g>
</svg>
