<?xml version="1.0" standalone="no"?>
<!DOCTYPE svg PUBLIC "-//W3C//DTD SVG 20010904//EN"
 "http://www.w3.org/TR/2001/REC-SVG-20010904/DTD/svg10.dtd">
<svg version="1.0" xmlns="http://www.w3.org/2000/svg"
 width="27.000000pt" height="35.000000pt" viewBox="0 0 27.000000 35.000000"
 preserveAspectRatio="xMidYMid meet">
<metadata>
Created by potrace 1.16, written by Peter Selinger 2001-2019
</metadata>
<g transform="translate(0.000000,35.000000) scale(0.100000,-0.100000)"
fill="#000000" stroke="none">
<path d="M27 343 l-19 -5 6 -21 6 -22 0 -12 0 -11 30 -7 30 -7 0 -18 0 -18 -6
-16 -6 -16 -35 0 -36 0 7 -37 6 -38 0 -19 0 -18 45 6 45 7 0 -31 0 -31 14 -15
15 -14 20 0 20 0 6 20 6 20 -6 10 -6 10 13 0 13 0 37 10 37 11 -9 25 -10 25 0
25 0 24 -24 0 -24 0 -6 16 -6 16 0 18 0 19 16 16 16 16 19 -6 19 -6 0 35 0 36
-32 -7 -33 -6 -21 -23 -21 -24 -16 0 -15 0 -16 6 -16 6 0 23 0 23 -16 6 -16 6
-6 -1 -7 -1 -18 -5z"/>
</g>
</svg>
