<?xml version="1.0" standalone="no"?>
<!DOCTYPE svg PUBLIC "-//W3C//DTD SVG 20010904//EN"
 "http://www.w3.org/TR/2001/REC-SVG-20010904/DTD/svg10.dtd">
<svg version="1.0" xmlns="http://www.w3.org/2000/svg"
 width="29.000000pt" height="37.000000pt" viewBox="0 0 29.000000 37.000000"
 preserveAspectRatio="xMidYMid meet">
<metadata>
Created by potrace 1.16, written by Peter Selinger 2001-2019
</metadata>
<g transform="translate(0.000000,37.000000) scale(0.100000,-0.100000)"
fill="#000000" stroke="none">
<path d="M28 363 l-18 -4 0 -13 0 -14 6 -30 6 -31 29 -6 29 -7 0 -8 0 -8 -6
-16 -6 -16 -34 0 -34 0 0 -19 0 -18 7 -48 6 -47 44 5 43 5 0 -30 0 -29 14 -15
15 -14 31 0 31 0 5 29 6 29 45 11 45 12 -6 22 -7 22 -6 38 -6 37 -22 0 -23 0
-6 16 -6 17 5 18 6 19 30 0 29 0 0 46 0 46 -42 -7 -43 -7 -22 -25 -22 -25 -20
7 -21 6 0 24 0 23 -16 6 -16 6 -16 -1 -17 -1 -17 -5z"/>
</g>
</svg>
