<?xml version="1.0" standalone="no"?>
<!DOCTYPE svg PUBLIC "-//W3C//DTD SVG 20010904//EN"
 "http://www.w3.org/TR/2001/REC-SVG-20010904/DTD/svg10.dtd">
<svg version="1.0" xmlns="http://www.w3.org/2000/svg"
 width="37.000000pt" height="36.000000pt" viewBox="0 0 37.000000 36.000000"
 preserveAspectRatio="xMidYMid meet">
<metadata>
Created by potrace 1.16, written by Peter Selinger 2001-2019
</metadata>
<g transform="translate(0.000000,36.000000) scale(0.100000,-0.100000)"
fill="#000000" stroke="none">
<path d="M86 352 l-5 -9 -7 -41 -6 -42 -34 -6 -34 -6 0 -34 0 -34 23 0 22 0
20 -6 20 -5 -3 -50 -4 -49 36 0 36 0 0 -30 0 -30 24 -6 25 -6 22 7 23 8 13 13
13 13 0 20 0 21 34 0 35 0 15 16 16 15 0 34 0 33 -16 6 -16 6 -18 0 -18 0 -6
16 -6 16 0 4 0 4 23 0 24 0 11 25 12 26 0 39 0 40 -134 0 -135 0 -5 -8z"/>
</g>
</svg>
