<?xml version="1.0" standalone="no"?>
<!DOCTYPE svg PUBLIC "-//W3C//DTD SVG 20010904//EN"
 "http://www.w3.org/TR/2001/REC-SVG-20010904/DTD/svg10.dtd">
<svg version="1.0" xmlns="http://www.w3.org/2000/svg"
 width="33.000000pt" height="28.000000pt" viewBox="0 0 33.000000 28.000000"
 preserveAspectRatio="xMidYMid meet">
<metadata>
Created by potrace 1.16, written by Peter Selinger 2001-2019
</metadata>
<g transform="translate(0.000000,28.000000) scale(0.100000,-0.100000)"
fill="#000000" stroke="none">
<path d="M85 271 l-5 -4 0 -43 0 -43 -37 -3 -38 -3 0 -20 0 -20 40 1 40 2 7
-12 8 -11 -6 -35 -7 -35 -9 -18 -9 -17 41 0 41 0 15 14 14 15 0 15 0 16 20 0
20 0 0 -29 0 -29 16 -6 16 -6 26 0 27 0 10 8 11 7 -4 53 -4 52 -23 0 -23 0
-16 6 -16 6 0 22 0 23 25 11 25 11 15 -5 15 -6 0 36 0 36 -14 0 -13 0 -32 -6
-31 -6 0 -24 0 -23 -22 -7 -22 -7 -4 12 -4 11 -15 0 -15 0 7 29 6 29 -36 4
-36 4 -4 -5z"/>
</g>
</svg>
