<?xml version="1.0" standalone="no"?>
<!DOCTYPE svg PUBLIC "-//W3C//DTD SVG 20010904//EN"
 "http://www.w3.org/TR/2001/REC-SVG-20010904/DTD/svg10.dtd">
<svg version="1.0" xmlns="http://www.w3.org/2000/svg"
 width="35.000000pt" height="34.000000pt" viewBox="0 0 35.000000 34.000000"
 preserveAspectRatio="xMidYMid meet">
<metadata>
Created by potrace 1.16, written by Peter Selinger 2001-2019
</metadata>
<g transform="translate(0.000000,34.000000) scale(0.100000,-0.100000)"
fill="#000000" stroke="none">
<path d="M86 332 l-5 -9 -7 -41 -6 -42 -34 -6 -34 -6 0 -24 0 -24 23 0 22 0
22 -6 22 -6 -6 -49 -6 -49 37 0 36 0 0 -29 0 -30 19 -6 18 -5 19 7 19 7 14 13
13 14 -4 24 -5 25 37 -6 37 -6 16 17 17 16 0 24 0 23 -16 6 -16 6 -18 0 -18 0
-6 16 -6 16 0 14 0 14 23 0 24 0 11 25 12 26 0 29 0 30 -124 0 -125 0 -5 -8z"/>
</g>
</svg>
