<?xml version="1.0" standalone="no"?>
<!DOCTYPE svg PUBLIC "-//W3C//DTD SVG 20010904//EN"
 "http://www.w3.org/TR/2001/REC-SVG-20010904/DTD/svg10.dtd">
<svg version="1.0" xmlns="http://www.w3.org/2000/svg"
 width="35.000000pt" height="30.000000pt" viewBox="0 0 35.000000 30.000000"
 preserveAspectRatio="xMidYMid meet">
<metadata>
Created by potrace 1.16, written by Peter Selinger 2001-2019
</metadata>
<g transform="translate(0.000000,30.000000) scale(0.100000,-0.100000)"
fill="#000000" stroke="none">
<path d="M77 252 l6 -51 -39 -3 -39 -3 0 -30 0 -30 40 0 40 0 6 -9 6 -8 -8
-32 -8 -31 -6 -22 -7 -23 52 0 51 0 15 14 14 15 0 15 0 16 10 0 10 0 0 -29 0
-29 16 -6 16 -6 36 0 37 0 12 8 12 7 -6 63 -6 62 -23 0 -22 0 -16 6 -16 6 0
13 0 13 16 6 16 6 24 0 24 0 0 45 0 45 -24 0 -24 0 -31 -6 -31 -6 0 -23 0 -23
-15 -6 -15 -5 0 9 0 10 -13 0 -14 0 5 30 4 30 -18 0 -19 0 -37 6 -37 7 6 -51z"/>
</g>
</svg>
