<?xml version="1.0" standalone="no"?>
<!DOCTYPE svg PUBLIC "-//W3C//DTD SVG 20010904//EN"
 "http://www.w3.org/TR/2001/REC-SVG-20010904/DTD/svg10.dtd">
<svg version="1.0" xmlns="http://www.w3.org/2000/svg"
 width="37.000000pt" height="35.000000pt" viewBox="0 0 37.000000 35.000000"
 preserveAspectRatio="xMidYMid meet">
<metadata>
Created by potrace 1.16, written by Peter Selinger 2001-2019
</metadata>
<g transform="translate(0.000000,35.000000) scale(0.100000,-0.100000)"
fill="#000000" stroke="none">
<path d="M70 322 l0 -29 -19 -21 -18 -22 -17 0 -16 0 0 -29 0 -30 20 -6 20 -6
11 -45 11 -44 40 0 41 0 -6 -30 -6 -29 15 -16 15 -15 24 0 24 0 6 19 6 19 -3
13 -3 13 53 9 53 9 -4 13 -5 12 -7 46 -7 46 36 6 36 7 0 18 0 18 -30 7 -30 7
0 40 0 40 -17 -7 -18 -8 -21 -4 -22 -5 5 -18 5 -19 -37 -7 -37 -7 -9 14 -9 14
0 26 0 25 -40 2 -40 3 0 -29z"/>
</g>
</svg>
