<?xml version="1.0" standalone="no"?>
<!DOCTYPE svg PUBLIC "-//W3C//DTD SVG 20010904//EN"
 "http://www.w3.org/TR/2001/REC-SVG-20010904/DTD/svg10.dtd">
<svg version="1.0" xmlns="http://www.w3.org/2000/svg"
 width="39.000000pt" height="37.000000pt" viewBox="0 0 39.000000 37.000000"
 preserveAspectRatio="xMidYMid meet">
<metadata>
Created by potrace 1.16, written by Peter Selinger 2001-2019
</metadata>
<g transform="translate(0.000000,37.000000) scale(0.100000,-0.100000)"
fill="#000000" stroke="none">
<path d="M70 342 l0 -29 -19 -21 -18 -22 -17 0 -16 0 0 -39 0 -40 20 -6 20 -6
11 -45 11 -44 39 0 39 0 -6 -28 -6 -29 17 -16 16 -17 34 0 33 0 6 16 6 16 0
18 0 17 51 7 51 7 -7 37 -6 37 -6 22 -5 22 36 6 36 7 0 28 0 28 -30 7 -30 7 0
39 0 39 -10 0 -10 0 -41 -12 -40 -13 4 -17 5 -16 -26 -7 -25 -6 -8 13 -9 13 0
28 0 27 -50 0 -50 0 0 -28z"/>
</g>
</svg>
