<?xml version="1.0" standalone="no"?>
<!DOCTYPE svg PUBLIC "-//W3C//DTD SVG 20010904//EN"
 "http://www.w3.org/TR/2001/REC-SVG-20010904/DTD/svg10.dtd">
<svg version="1.0" xmlns="http://www.w3.org/2000/svg"
 width="27.000000pt" height="25.000000pt" viewBox="0 0 27.000000 25.000000"
 preserveAspectRatio="xMidYMid meet">
<metadata>
Created by potrace 1.16, written by Peter Selinger 2001-2019
</metadata>
<g transform="translate(0.000000,25.000000) scale(0.100000,-0.100000)"
fill="#000000" stroke="none">
<path d="M0 210 l0 -40 19 0 20 0 15 -16 16 -15 0 -24 0 -23 -30 -7 -30 -7 0
-39 0 -40 122 3 123 3 3 18 4 19 -12 29 -13 30 -21 -3 -21 -3 -3 28 -3 27 40
0 41 0 0 44 0 45 -8 5 -7 4 -48 -11 -47 -10 0 -13 0 -12 -16 -6 -16 -6 -18 0
-19 0 -6 20 -6 20 6 10 6 10 -45 0 -46 0 0 -40z"/>
</g>
</svg>
