<?xml version="1.0" standalone="no"?>
<!DOCTYPE svg PUBLIC "-//W3C//DTD SVG 20010904//EN"
 "http://www.w3.org/TR/2001/REC-SVG-20010904/DTD/svg10.dtd">
<svg version="1.0" xmlns="http://www.w3.org/2000/svg"
 width="29.000000pt" height="27.000000pt" viewBox="0 0 29.000000 27.000000"
 preserveAspectRatio="xMidYMid meet">
<metadata>
Created by potrace 1.16, written by Peter Selinger 2001-2019
</metadata>
<g transform="translate(0.000000,27.000000) scale(0.100000,-0.100000)"
fill="#000000" stroke="none">
<path d="M0 220 l0 -50 19 0 20 0 15 -16 16 -15 0 -14 0 -13 -30 -7 -30 -7 0
-49 0 -50 133 3 132 3 3 29 4 28 -12 29 -12 29 -24 0 -24 0 0 15 0 15 40 0 40
0 0 54 0 55 -10 6 -10 6 -55 -12 -55 -12 0 -13 0 -13 -21 -6 -21 -7 -8 12 -8
12 5 19 5 19 -56 0 -56 0 0 -50z"/>
</g>
</svg>
