<?xml version="1.0" standalone="no"?>
<!DOCTYPE svg PUBLIC "-//W3C//DTD SVG 20010904//EN"
 "http://www.w3.org/TR/2001/REC-SVG-20010904/DTD/svg10.dtd">
<svg version="1.0" xmlns="http://www.w3.org/2000/svg"
 width="30.000000pt" height="36.000000pt" viewBox="0 0 30.000000 36.000000"
 preserveAspectRatio="xMidYMid meet">
<metadata>
Created by potrace 1.16, written by Peter Selinger 2001-2019
</metadata>
<g transform="translate(0.000000,36.000000) scale(0.100000,-0.100000)"
fill="#000000" stroke="none">
<path d="M105 350 l6 -10 -6 -19 -5 -18 -26 -11 -25 -12 -19 0 -20 0 0 -16 0
-15 10 -20 11 -19 17 0 17 0 13 -9 13 -8 -7 -27 -6 -26 -24 -6 -24 -6 0 -28 0
-29 -17 -16 -16 -17 14 -9 14 -9 17 0 17 0 26 12 25 11 0 34 0 33 19 0 19 0 6
-16 6 -16 0 -33 0 -33 16 -6 17 -7 42 17 42 16 12 40 12 40 -5 5 -5 5 -45 5
-45 6 -6 17 -5 17 6 17 6 16 23 0 23 0 16 6 16 6 0 37 0 38 -42 14 -43 13 -12
12 -13 13 0 10 0 11 -36 0 -35 0 6 -10z"/>
</g>
</svg>
