<?xml version="1.0" standalone="no"?>
<!DOCTYPE svg PUBLIC "-//W3C//DTD SVG 20010904//EN"
 "http://www.w3.org/TR/2001/REC-SVG-20010904/DTD/svg10.dtd">
<svg version="1.0" xmlns="http://www.w3.org/2000/svg"
 width="32.000000pt" height="38.000000pt" viewBox="0 0 32.000000 38.000000"
 preserveAspectRatio="xMidYMid meet">
<metadata>
Created by potrace 1.16, written by Peter Selinger 2001-2019
</metadata>
<g transform="translate(0.000000,38.000000) scale(0.100000,-0.100000)"
fill="#000000" stroke="none">
<path d="M101 363 l1 -18 -1 -11 -1 -11 -25 -11 -26 -12 -19 0 -20 0 0 -26 0
-25 10 -18 9 -18 30 -6 29 -6 -5 -21 -5 -20 -24 -6 -24 -6 0 -28 0 -29 -15
-15 -15 -15 0 -14 0 -15 16 -6 16 -6 23 0 24 0 26 12 25 11 0 34 0 33 9 0 9 0
6 -16 6 -16 0 -34 0 -34 25 -6 24 -6 44 17 44 17 12 38 11 37 0 15 0 16 -22 6
-23 6 -27 0 -26 0 -5 13 -4 12 5 13 4 12 23 0 23 0 16 6 16 6 0 47 0 48 -42
14 -43 13 -12 12 -13 13 0 10 0 11 -46 0 -45 0 2 -17z"/>
</g>
</svg>
