<?xml version="1.0" standalone="no"?>
<!DOCTYPE svg PUBLIC "-//W3C//DTD SVG 20010904//EN"
 "http://www.w3.org/TR/2001/REC-SVG-20010904/DTD/svg10.dtd">
<svg version="1.0" xmlns="http://www.w3.org/2000/svg"
 width="43.000000pt" height="34.000000pt" viewBox="0 0 43.000000 34.000000"
 preserveAspectRatio="xMidYMid meet">
<metadata>
Created by potrace 1.16, written by Peter Selinger 2001-2019
</metadata>
<g transform="translate(0.000000,34.000000) scale(0.100000,-0.100000)"
fill="#000000" stroke="none">
<path d="M178 334 l-7 -6 6 -14 5 -15 -23 -20 -24 -21 -31 5 -32 5 -6 -38 -6
-38 -30 -7 -30 -7 0 -20 0 -21 22 -19 22 -19 23 6 23 5 0 -19 0 -20 -12 -26
-12 -26 15 -10 14 -9 28 0 28 0 15 15 15 14 -7 25 -6 24 21 7 21 6 9 -5 8 -6
6 -28 6 -29 41 -6 40 -5 19 5 20 5 6 39 7 39 23 0 24 0 6 19 5 18 -6 17 -6 16
-14 0 -14 0 0 11 0 11 -20 -5 -20 -5 0 44 0 45 -35 -7 -35 -6 -24 6 -25 6 -3
33 -3 32 -20 3 -21 3 -6 -7z"/>
</g>
</svg>
