<?xml version="1.0" standalone="no"?>
<!DOCTYPE svg PUBLIC "-//W3C//DTD SVG 20010904//EN"
 "http://www.w3.org/TR/2001/REC-SVG-20010904/DTD/svg10.dtd">
<svg version="1.0" xmlns="http://www.w3.org/2000/svg"
 width="35.000000pt" height="42.000000pt" viewBox="0 0 35.000000 42.000000"
 preserveAspectRatio="xMidYMid meet">
<metadata>
Created by potrace 1.16, written by Peter Selinger 2001-2019
</metadata>
<g transform="translate(0.000000,42.000000) scale(0.100000,-0.100000)"
fill="#000000" stroke="none">
<path d="M133 405 l-5 -16 5 -6 6 -5 -13 -14 -13 -13 -44 -3 -44 -3 -3 -24 -4
-23 6 -24 6 -24 40 -6 40 -7 0 -13 0 -13 -17 -4 -18 -5 -37 -7 -38 -6 0 -17 0
-16 16 -43 17 -43 47 0 47 0 -5 -26 -5 -26 14 -9 14 -9 27 0 26 0 16 6 16 6 0
29 0 29 28 0 27 0 21 6 22 6 11 24 11 25 0 29 0 29 -37 6 -38 7 -12 3 -13 4 0
11 0 10 24 0 25 0 16 16 16 16 -3 47 -3 46 -40 3 -40 2 -21 5 -21 5 5 25 4 25
-36 0 -37 0 -6 -15z"/>
</g>
</svg>
