<?xml version="1.0" standalone="no"?>
<!DOCTYPE svg PUBLIC "-//W3C//DTD SVG 20010904//EN"
 "http://www.w3.org/TR/2001/REC-SVG-20010904/DTD/svg10.dtd">
<svg version="1.0" xmlns="http://www.w3.org/2000/svg"
 width="45.000000pt" height="36.000000pt" viewBox="0 0 45.000000 36.000000"
 preserveAspectRatio="xMidYMid meet">
<metadata>
Created by potrace 1.16, written by Peter Selinger 2001-2019
</metadata>
<g transform="translate(0.000000,36.000000) scale(0.100000,-0.100000)"
fill="#000000" stroke="none">
<path d="M174 345 l-6 -16 6 -6 6 -6 -22 -19 -21 -18 -32 6 -32 6 -7 -40 -6
-40 -30 -7 -30 -7 0 -30 0 -31 22 -18 21 -19 25 0 24 0 -7 -18 -8 -17 -5 -24
-5 -23 14 -9 14 -9 38 0 38 0 16 15 15 16 -4 24 -5 24 13 5 13 5 4 -7 4 -7 6
-26 7 -26 46 -7 46 -6 23 6 24 6 6 39 7 39 23 0 24 0 6 21 7 20 -6 25 -6 24
-15 0 -15 0 0 10 0 10 -20 0 -20 0 0 41 0 41 -47 -6 -48 -6 -12 7 -11 8 -4 30
-3 30 -33 3 -32 3 -6 -16z"/>
</g>
</svg>
