<?xml version="1.0" standalone="no"?>
<!DOCTYPE svg PUBLIC "-//W3C//DTD SVG 20010904//EN"
 "http://www.w3.org/TR/2001/REC-SVG-20010904/DTD/svg10.dtd">
<svg version="1.0" xmlns="http://www.w3.org/2000/svg"
 width="33.000000pt" height="40.000000pt" viewBox="0 0 33.000000 40.000000"
 preserveAspectRatio="xMidYMid meet">
<metadata>
Created by potrace 1.16, written by Peter Selinger 2001-2019
</metadata>
<g transform="translate(0.000000,40.000000) scale(0.100000,-0.100000)"
fill="#000000" stroke="none">
<path d="M137 394 l-6 -6 6 -14 5 -13 -15 -16 -16 -15 -41 0 -41 0 -5 -15 -6
-15 6 -25 6 -25 40 -6 40 -7 0 -23 0 -23 -17 -4 -18 -5 -37 -7 -38 -6 0 -7 0
-6 16 -43 17 -43 49 0 50 0 -7 -29 -6 -29 21 -7 21 -7 25 6 24 6 0 30 0 30 28
0 27 0 21 6 22 6 11 24 11 25 0 19 0 19 -37 6 -38 7 -12 3 -13 4 0 26 0 25 24
-6 23 -5 17 17 17 16 -3 37 -3 36 -40 3 -40 2 -23 6 -24 5 6 24 6 25 -23 0
-24 0 -6 -6z"/>
</g>
</svg>
