<?xml version="1.0" standalone="no"?>
<!DOCTYPE svg PUBLIC "-//W3C//DTD SVG 20010904//EN"
 "http://www.w3.org/TR/2001/REC-SVG-20010904/DTD/svg10.dtd">
<svg version="1.0" xmlns="http://www.w3.org/2000/svg"
 width="32.000000pt" height="43.000000pt" viewBox="0 0 32.000000 43.000000"
 preserveAspectRatio="xMidYMid meet">
<metadata>
Created by potrace 1.16, written by Peter Selinger 2001-2019
</metadata>
<g transform="translate(0.000000,43.000000) scale(0.100000,-0.100000)"
fill="#000000" stroke="none">
<path d="M121 421 l-14 -9 5 -24 4 -24 -13 -12 -13 -12 -42 2 -43 3 -3 -24 -4
-24 7 -33 6 -34 34 0 35 0 0 -15 0 -15 -24 0 -24 0 -16 -6 -16 -6 0 -52 0 -51
9 -13 8 -14 29 2 29 2 13 -1 12 -1 0 -24 0 -24 16 -6 16 -6 26 0 27 0 19 25
19 25 23 0 23 0 26 25 25 26 0 44 0 45 -24 0 -24 0 -16 6 -16 6 0 8 0 8 27 7
28 7 7 11 8 12 0 53 0 53 -22 -1 -23 -2 -32 1 -32 1 -9 33 -8 32 -25 3 -24 2
-14 -9z"/>
</g>
</svg>
