<?xml version="1.0" standalone="no"?>
<!DOCTYPE svg PUBLIC "-//W3C//DTD SVG 20010904//EN"
 "http://www.w3.org/TR/2001/REC-SVG-20010904/DTD/svg10.dtd">
<svg version="1.0" xmlns="http://www.w3.org/2000/svg"
 width="27.000000pt" height="39.000000pt" viewBox="0 0 27.000000 39.000000"
 preserveAspectRatio="xMidYMid meet">
<metadata>
Created by potrace 1.16, written by Peter Selinger 2001-2019
</metadata>
<g transform="translate(0.000000,39.000000) scale(0.100000,-0.100000)"
fill="#000000" stroke="none">
<path d="M115 360 l6 -29 -25 -7 -26 -6 -35 4 -35 4 0 -17 0 -17 6 -31 6 -31
27 0 26 0 14 -9 13 -9 -7 -21 -6 -21 -24 0 -25 0 -5 -27 -6 -28 -8 -27 -9 -28
44 0 45 0 -6 -10 -6 -10 6 -20 6 -20 19 0 18 0 16 6 16 6 0 14 0 14 13 0 12 0
38 11 37 10 0 22 -1 22 -14 40 -14 40 -11 3 -10 4 0 14 0 14 24 0 24 0 6 16 6
16 0 39 0 39 -46 -7 -46 -6 -9 14 -9 14 0 23 0 22 -26 0 -26 0 7 -30z"/>
</g>
</svg>
