<?xml version="1.0" standalone="no"?>
<!DOCTYPE svg PUBLIC "-//W3C//DTD SVG 20010904//EN"
 "http://www.w3.org/TR/2001/REC-SVG-20010904/DTD/svg10.dtd">
<svg version="1.0" xmlns="http://www.w3.org/2000/svg"
 width="30.000000pt" height="41.000000pt" viewBox="0 0 30.000000 41.000000"
 preserveAspectRatio="xMidYMid meet">
<metadata>
Created by potrace 1.16, written by Peter Selinger 2001-2019
</metadata>
<g transform="translate(0.000000,41.000000) scale(0.100000,-0.100000)"
fill="#000000" stroke="none">
<path d="M121 401 l-13 -9 7 -21 6 -21 -16 -16 -16 -16 -40 5 -40 5 -6 -14 -5
-14 6 -35 7 -35 33 0 34 0 4 -12 5 -13 -4 -12 -5 -13 -23 0 -23 0 -16 -6 -16
-6 0 -42 0 -41 9 -14 9 -14 25 7 25 6 16 -6 16 -6 0 -23 0 -23 16 -6 16 -6 16
0 17 0 19 25 19 25 23 0 23 0 26 25 25 26 0 34 0 35 -24 0 -24 0 -16 6 -16 6
0 22 0 21 26 2 27 1 8 14 9 13 0 42 0 42 -22 -1 -23 -2 -32 2 -32 2 -9 32 -8
33 -15 2 -14 3 -14 -9z"/>
</g>
</svg>
