<?xml version="1.0" standalone="no"?>
<!DOCTYPE svg PUBLIC "-//W3C//DTD SVG 20010904//EN"
 "http://www.w3.org/TR/2001/REC-SVG-20010904/DTD/svg10.dtd">
<svg version="1.0" xmlns="http://www.w3.org/2000/svg"
 width="29.000000pt" height="41.000000pt" viewBox="0 0 29.000000 41.000000"
 preserveAspectRatio="xMidYMid meet">
<metadata>
Created by potrace 1.16, written by Peter Selinger 2001-2019
</metadata>
<g transform="translate(0.000000,41.000000) scale(0.100000,-0.100000)"
fill="#000000" stroke="none">
<path d="M112 380 l5 -30 -24 -6 -23 -6 -35 6 -35 7 0 -29 0 -30 6 -31 7 -31
22 0 23 0 16 -6 15 -6 -6 -14 -5 -14 -24 0 -24 0 -5 -27 -6 -28 -9 -31 -10
-30 0 -7 0 -7 39 0 38 0 7 -30 6 -30 29 0 29 0 16 6 16 6 0 14 0 14 13 0 12 0
38 11 37 10 0 27 0 27 -10 37 -11 37 -15 16 -15 15 24 0 25 0 6 16 6 16 0 50
0 50 -46 -7 -47 -7 -8 14 -9 13 0 23 0 22 -36 0 -36 0 4 -30z"/>
</g>
</svg>
