<?xml version="1.0" standalone="no"?>
<!DOCTYPE svg PUBLIC "-//W3C//DTD SVG 20010904//EN"
 "http://www.w3.org/TR/2001/REC-SVG-20010904/DTD/svg10.dtd">
<svg version="1.0" xmlns="http://www.w3.org/2000/svg"
 width="39.000000pt" height="36.000000pt" viewBox="0 0 39.000000 36.000000"
 preserveAspectRatio="xMidYMid meet">
<metadata>
Created by potrace 1.16, written by Peter Selinger 2001-2019
</metadata>
<g transform="translate(0.000000,36.000000) scale(0.100000,-0.100000)"
fill="#000000" stroke="none">
<path d="M190 336 l0 -24 -6 -16 -6 -16 -49 0 -49 0 0 -29 0 -29 -6 -16 -6
-16 -18 0 -18 0 -16 -6 -16 -6 0 -34 0 -34 29 0 29 0 6 -16 6 -16 0 -33 0 -33
16 -6 16 -6 48 0 48 0 6 16 6 16 0 25 0 25 13 -4 12 -5 3 -29 4 -29 11 -7 12
-8 51 0 51 0 11 25 12 26 0 39 0 39 -42 8 -43 9 0 9 0 10 30 3 30 4 7 11 8 12
0 43 0 43 -56 -2 -56 -2 -9 14 -9 14 0 28 0 27 -30 0 -30 0 0 -24z"/>
</g>
</svg>
