<?xml version="1.0" standalone="no"?>
<!DOCTYPE svg PUBLIC "-//W3C//DTD SVG 20010904//EN"
 "http://www.w3.org/TR/2001/REC-SVG-20010904/DTD/svg10.dtd">
<svg version="1.0" xmlns="http://www.w3.org/2000/svg"
 width="34.000000pt" height="37.000000pt" viewBox="0 0 34.000000 37.000000"
 preserveAspectRatio="xMidYMid meet">
<metadata>
Created by potrace 1.16, written by Peter Selinger 2001-2019
</metadata>
<g transform="translate(0.000000,37.000000) scale(0.100000,-0.100000)"
fill="#000000" stroke="none">
<path d="M130 337 l0 -34 -26 -11 -25 -12 -26 6 -25 7 -9 -14 -9 -14 0 -41 0
-42 22 -6 23 -6 23 0 22 0 0 -9 0 -9 -13 -5 -13 -5 -28 5 -28 6 -9 -14 -9 -14
0 -41 0 -41 19 -21 18 -22 36 0 35 0 16 6 16 6 0 33 0 33 15 6 16 6 10 -24 11
-24 25 -11 24 -11 43 0 44 0 6 31 6 31 0 24 0 23 -37 6 -38 7 -15 6 -15 6 35
4 35 4 7 11 8 12 0 53 0 52 -15 0 -16 0 -32 -13 -32 -14 -12 4 -13 5 0 33 0
33 -6 16 -6 16 -29 0 -29 0 0 -33z"/>
</g>
</svg>
