<?xml version="1.0" standalone="no"?>
<!DOCTYPE svg PUBLIC "-//W3C//DTD SVG 20010904//EN"
 "http://www.w3.org/TR/2001/REC-SVG-20010904/DTD/svg10.dtd">
<svg version="1.0" xmlns="http://www.w3.org/2000/svg"
 width="32.000000pt" height="35.000000pt" viewBox="0 0 32.000000 35.000000"
 preserveAspectRatio="xMidYMid meet">
<metadata>
Created by potrace 1.16, written by Peter Selinger 2001-2019
</metadata>
<g transform="translate(0.000000,35.000000) scale(0.100000,-0.100000)"
fill="#000000" stroke="none">
<path d="M130 316 l0 -34 -30 -12 -30 -12 -24 6 -24 6 -6 -16 -6 -16 0 -28 0
-28 23 -6 22 -6 23 0 22 0 0 -19 0 -20 -20 -6 -20 -6 -21 6 -21 7 -9 -13 -9
-14 0 -31 0 -31 19 -21 18 -22 26 0 25 0 16 6 16 6 0 33 0 33 16 6 16 6 9 0 9
0 11 -24 11 -24 25 -11 24 -11 34 0 33 0 7 41 7 40 -5 5 -4 5 -44 7 -44 8 -3
17 -3 17 34 0 35 0 6 16 6 16 0 39 0 39 -5 0 -6 0 -36 -15 -36 -15 -19 6 -18
5 0 34 0 33 -6 16 -6 16 -19 0 -19 0 0 -34z"/>
</g>
</svg>
