<?xml version="1.0" standalone="no"?>
<!DOCTYPE svg PUBLIC "-//W3C//DTD SVG 20010904//EN"
 "http://www.w3.org/TR/2001/REC-SVG-20010904/DTD/svg10.dtd">
<svg version="1.0" xmlns="http://www.w3.org/2000/svg"
 width="37.000000pt" height="34.000000pt" viewBox="0 0 37.000000 34.000000"
 preserveAspectRatio="xMidYMid meet">
<metadata>
Created by potrace 1.16, written by Peter Selinger 2001-2019
</metadata>
<g transform="translate(0.000000,34.000000) scale(0.100000,-0.100000)"
fill="#000000" stroke="none">
<path d="M190 316 l0 -24 -6 -16 -6 -16 -49 0 -49 0 0 -29 0 -29 -6 -16 -6
-16 -18 0 -18 0 -16 -6 -16 -6 0 -24 0 -24 29 0 29 0 6 -16 6 -16 0 -33 0 -33
16 -6 16 -6 38 0 38 0 6 16 6 16 0 24 0 24 20 0 19 0 9 -17 9 -18 -5 -14 -4
-13 13 -9 14 -9 41 0 41 0 11 25 12 26 0 29 0 29 -42 8 -43 9 0 19 0 20 30 3
30 4 7 11 8 12 0 34 0 34 -50 -6 -50 -6 -15 15 -15 15 0 30 0 29 -20 0 -20 0
0 -24z"/>
</g>
</svg>
