<?xml version="1.0" standalone="no"?>
<!DOCTYPE svg PUBLIC "-//W3C//DTD SVG 20010904//EN"
 "http://www.w3.org/TR/2001/REC-SVG-20010904/DTD/svg10.dtd">
<svg version="1.0" xmlns="http://www.w3.org/2000/svg"
 width="45.000000pt" height="40.000000pt" viewBox="0 0 45.000000 40.000000"
 preserveAspectRatio="xMidYMid meet">
<metadata>
Created by potrace 1.16, written by Peter Selinger 2001-2019
</metadata>
<g transform="translate(0.000000,40.000000) scale(0.100000,-0.100000)"
fill="#000000" stroke="none">
<path d="M200 373 l0 -28 -9 -14 -9 -13 -45 3 -46 4 -3 -45 -3 -45 -37 3 -37
3 -7 -25 -6 -25 7 -20 6 -20 26 -3 26 -3 10 -30 10 -30 13 -12 13 -13 46 0 46
0 -6 -10 -6 -10 6 -20 6 -20 29 0 28 0 6 25 7 26 -7 11 -7 11 46 -6 46 -6 16
15 15 15 0 35 0 34 29 0 29 0 6 16 6 16 0 8 0 9 -16 15 -15 16 -28 0 -29 0 5
43 5 43 -36 -4 -36 -4 -26 6 -26 7 5 18 4 18 -9 17 -9 16 -19 0 -20 0 0 -27z"/>
</g>
</svg>
