<?xml version="1.0" standalone="no"?>
<!DOCTYPE svg PUBLIC "-//W3C//DTD SVG 20010904//EN"
 "http://www.w3.org/TR/2001/REC-SVG-20010904/DTD/svg10.dtd">
<svg version="1.0" xmlns="http://www.w3.org/2000/svg"
 width="47.000000pt" height="42.000000pt" viewBox="0 0 47.000000 42.000000"
 preserveAspectRatio="xMidYMid meet">
<metadata>
Created by potrace 1.16, written by Peter Selinger 2001-2019
</metadata>
<g transform="translate(0.000000,42.000000) scale(0.100000,-0.100000)"
fill="#000000" stroke="none">
<path d="M200 393 l0 -28 -9 -14 -9 -14 -46 6 -46 7 0 -45 0 -45 -39 0 -39 0
-6 -16 -6 -16 0 -26 0 -27 8 -11 7 -12 24 -3 24 -4 10 -30 10 -30 13 -12 13
-13 39 0 40 0 6 -30 6 -30 39 0 40 0 7 35 6 35 37 -6 38 -6 16 17 17 16 0 35
0 34 29 0 29 0 6 16 6 16 0 18 0 19 -16 15 -15 16 -25 0 -24 0 0 45 0 46 -35
-7 -35 -6 -25 6 -24 6 5 14 6 14 -12 21 -11 21 -29 0 -30 0 0 -27z"/>
</g>
</svg>
