<?xml version="1.0" standalone="no"?>
<!DOCTYPE svg PUBLIC "-//W3C//DTD SVG 20010904//EN"
 "http://www.w3.org/TR/2001/REC-SVG-20010904/DTD/svg10.dtd">
<svg version="1.0" xmlns="http://www.w3.org/2000/svg"
 width="32.000000pt" height="42.000000pt" viewBox="0 0 32.000000 42.000000"
 preserveAspectRatio="xMidYMid meet">
<metadata>
Created by potrace 1.16, written by Peter Selinger 2001-2019
</metadata>
<g transform="translate(0.000000,42.000000) scale(0.100000,-0.100000)"
fill="#000000" stroke="none">
<path d="M140 404 l0 -15 -16 -16 -15 -16 -44 7 -45 6 -6 -24 -5 -23 11 -42
11 -41 24 0 25 0 0 -10 0 -10 -27 0 -28 0 -14 -9 -14 -9 7 -53 7 -54 12 -7 12
-8 43 0 42 0 0 -24 0 -24 6 -16 6 -16 27 0 26 0 23 6 22 6 0 17 0 17 38 13 37
14 7 11 8 11 0 52 0 51 -32 7 -33 8 -7 10 -7 11 5 8 5 8 29 0 28 0 6 16 6 16
0 40 0 40 -43 -6 -44 -7 -16 7 -17 6 0 29 0 29 -30 0 -30 0 0 -16z"/>
</g>
</svg>
