<?xml version="1.0" standalone="no"?>
<!DOCTYPE svg PUBLIC "-//W3C//DTD SVG 20010904//EN"
 "http://www.w3.org/TR/2001/REC-SVG-20010904/DTD/svg10.dtd">
<svg version="1.0" xmlns="http://www.w3.org/2000/svg"
 width="37.000000pt" height="37.000000pt" viewBox="0 0 37.000000 37.000000"
 preserveAspectRatio="xMidYMid meet">
<metadata>
Created by potrace 1.16, written by Peter Selinger 2001-2019
</metadata>
<g transform="translate(0.000000,37.000000) scale(0.100000,-0.100000)"
fill="#000000" stroke="none">
<path d="M183 363 l-13 -5 0 -33 0 -34 -20 -6 -20 -6 -30 6 -30 7 0 -40 0 -39
-29 -6 -30 -6 -7 -35 -6 -35 15 -16 16 -15 26 0 27 0 -7 -41 -7 -41 13 -9 14
-9 50 0 50 0 14 9 14 9 -5 26 -5 26 13 0 14 0 0 -19 0 -19 6 -16 6 -16 38 0
38 0 16 6 16 6 0 54 0 53 -35 7 -35 6 0 14 0 14 24 0 25 0 15 16 16 15 0 55 0
54 -30 0 -29 0 -24 11 -25 11 -11 24 -11 24 -22 -1 -23 -1 -12 -5z"/>
</g>
</svg>
