<?xml version="1.0" standalone="no"?>
<!DOCTYPE svg PUBLIC "-//W3C//DTD SVG 20010904//EN"
 "http://www.w3.org/TR/2001/REC-SVG-20010904/DTD/svg10.dtd">
<svg version="1.0" xmlns="http://www.w3.org/2000/svg"
 width="35.000000pt" height="43.000000pt" viewBox="0 0 35.000000 43.000000"
 preserveAspectRatio="xMidYMid meet">
<metadata>
Created by potrace 1.16, written by Peter Selinger 2001-2019
</metadata>
<g transform="translate(0.000000,43.000000) scale(0.100000,-0.100000)"
fill="#000000" stroke="none">
<path d="M177 423 l-4 -8 -7 -28 -7 -28 -42 3 -42 3 -3 -37 -3 -38 -23 0 -24
0 -12 -30 -12 -30 6 -23 6 -24 25 -11 26 -12 14 0 14 0 -6 -34 -5 -33 23 -6
24 -7 21 0 21 0 -5 -30 -4 -30 16 0 16 0 0 -10 0 -10 19 0 19 0 16 6 16 6 0
23 0 24 45 7 45 6 0 11 0 11 -12 53 -13 53 -16 0 -17 0 -4 12 -5 13 12 11 11
11 22 7 22 7 0 50 0 49 -27 0 -28 0 -22 6 -23 6 0 29 0 29 -34 0 -35 0 -4 -7z"/>
</g>
</svg>
