<?xml version="1.0" standalone="no"?>
<!DOCTYPE svg PUBLIC "-//W3C//DTD SVG 20010904//EN"
 "http://www.w3.org/TR/2001/REC-SVG-20010904/DTD/svg10.dtd">
<svg version="1.0" xmlns="http://www.w3.org/2000/svg"
 width="33.000000pt" height="41.000000pt" viewBox="0 0 33.000000 41.000000"
 preserveAspectRatio="xMidYMid meet">
<metadata>
Created by potrace 1.16, written by Peter Selinger 2001-2019
</metadata>
<g transform="translate(0.000000,41.000000) scale(0.100000,-0.100000)"
fill="#000000" stroke="none">
<path d="M177 403 l-4 -8 -7 -28 -7 -28 -42 3 -42 3 -3 -43 -3 -42 -23 6 -22
5 -12 -27 -13 -26 6 -18 6 -18 29 -12 29 -12 12 8 12 7 -6 -40 -7 -41 23 -6
22 -6 23 0 24 0 -7 -30 -7 -30 15 0 15 0 4 -11 4 -12 22 7 22 7 0 24 0 24 46
7 46 7 -7 21 -6 21 -6 32 -6 33 -18 0 -18 0 -6 20 -6 20 13 14 14 13 22 7 22
7 0 40 0 39 -27 0 -28 0 -22 6 -23 6 0 29 0 29 -24 0 -25 0 -4 -7z"/>
</g>
</svg>
