<?xml version="1.0" standalone="no"?>
<!DOCTYPE svg PUBLIC "-//W3C//DTD SVG 20010904//EN"
 "http://www.w3.org/TR/2001/REC-SVG-20010904/DTD/svg10.dtd">
<svg version="1.0" xmlns="http://www.w3.org/2000/svg"
 width="35.000000pt" height="35.000000pt" viewBox="0 0 35.000000 35.000000"
 preserveAspectRatio="xMidYMid meet">
<metadata>
Created by potrace 1.16, written by Peter Selinger 2001-2019
</metadata>
<g transform="translate(0.000000,35.000000) scale(0.100000,-0.100000)"
fill="#000000" stroke="none">
<path d="M183 343 l-13 -5 0 -34 0 -34 -25 -6 -25 -6 -25 4 -25 5 0 -44 0 -44
-10 6 -10 6 -19 -6 -19 -6 -6 -25 -7 -25 16 -16 16 -15 29 6 30 6 0 -8 0 -7
-11 -39 -11 -39 14 -8 13 -9 40 0 40 0 13 9 13 8 -7 26 -6 27 26 0 26 0 0 -19
0 -19 6 -16 6 -16 28 0 28 0 16 6 16 6 0 44 0 43 -36 7 -35 6 3 26 3 25 28 2
28 1 9 14 10 15 0 43 0 42 -31 0 -30 0 -22 12 -22 11 -11 11 -10 11 -2 10 -1
10 -13 2 -13 2 -12 -6z"/>
</g>
</svg>
