<?xml version="1.0" standalone="no"?>
<!DOCTYPE svg PUBLIC "-//W3C//DTD SVG 20010904//EN"
 "http://www.w3.org/TR/2001/REC-SVG-20010904/DTD/svg10.dtd">
<svg version="1.0" xmlns="http://www.w3.org/2000/svg"
 width="30.000000pt" height="40.000000pt" viewBox="0 0 30.000000 40.000000"
 preserveAspectRatio="xMidYMid meet">
<metadata>
Created by potrace 1.16, written by Peter Selinger 2001-2019
</metadata>
<g transform="translate(0.000000,40.000000) scale(0.100000,-0.100000)"
fill="#000000" stroke="none">
<path d="M140 384 l0 -15 -15 -16 -16 -15 -44 4 -45 3 -5 -14 -5 -13 10 -39
11 -39 23 0 24 0 5 -14 6 -14 -6 -6 -6 -6 -26 0 -26 0 -14 -9 -13 -9 7 -43 7
-44 12 -7 11 -8 43 0 42 0 0 -27 0 -28 9 -14 9 -14 37 7 37 7 -5 18 -4 17 43
13 43 13 5 15 6 15 0 38 0 39 -35 7 -34 6 -6 19 -6 19 6 10 6 10 29 0 28 0 6
16 6 16 0 29 0 30 -35 -7 -35 -6 -25 6 -25 6 0 30 0 30 -20 0 -20 0 0 -16z"/>
</g>
</svg>
