<?xml version="1.0" standalone="no"?>
<!DOCTYPE svg PUBLIC "-//W3C//DTD SVG 20010904//EN"
 "http://www.w3.org/TR/2001/REC-SVG-20010904/DTD/svg10.dtd">
<svg version="1.0" xmlns="http://www.w3.org/2000/svg"
 width="41.000000pt" height="27.000000pt" viewBox="0 0 41.000000 27.000000"
 preserveAspectRatio="xMidYMid meet">
<metadata>
Created by potrace 1.16, written by Peter Selinger 2001-2019
</metadata>
<g transform="translate(0.000000,27.000000) scale(0.100000,-0.100000)"
fill="#000000" stroke="none">
<path d="M80 231 l0 -39 -6 -16 -6 -16 -29 0 -30 0 -6 -16 -6 -17 19 -13 19
-13 14 -12 13 -12 -5 -33 -6 -34 25 -6 24 -6 30 12 29 12 6 19 6 19 -6 10 -6
10 35 0 36 0 0 -11 0 -10 13 -12 12 -12 36 -13 35 -12 8 0 7 0 -6 9 -5 10 6
40 6 41 34 6 34 6 0 10 0 9 -10 20 -11 19 -34 0 -35 0 0 40 0 41 -37 -6 -38
-7 -13 -4 -13 -4 6 -10 6 -10 -6 -20 -6 -20 -24 0 -24 0 -15 15 -15 16 6 29 6
30 -37 0 -36 0 0 -39z"/>
</g>
</svg>
