<?xml version="1.0" standalone="no"?>
<!DOCTYPE svg PUBLIC "-//W3C//DTD SVG 20010904//EN"
 "http://www.w3.org/TR/2001/REC-SVG-20010904/DTD/svg10.dtd">
<svg version="1.0" xmlns="http://www.w3.org/2000/svg"
 width="43.000000pt" height="29.000000pt" viewBox="0 0 43.000000 29.000000"
 preserveAspectRatio="xMidYMid meet">
<metadata>
Created by potrace 1.16, written by Peter Selinger 2001-2019
</metadata>
<g transform="translate(0.000000,29.000000) scale(0.100000,-0.100000)"
fill="#000000" stroke="none">
<path d="M80 248 l0 -43 -8 -12 -7 -11 -30 -4 -30 -3 -3 -27 -3 -27 23 -12 23
-12 7 -11 8 -11 -6 -29 -6 -28 13 -9 14 -9 27 0 27 0 26 12 26 12 6 28 6 28
18 0 19 0 0 -11 0 -10 13 -12 12 -12 36 -12 35 -13 18 0 17 0 -2 23 -2 22 1
27 2 27 35 7 35 6 0 20 0 19 -10 20 -11 19 -34 0 -35 0 0 41 0 41 -52 -7 -53
-7 -8 -5 -9 -5 5 -18 5 -18 -8 -12 -8 -12 -21 7 -21 6 0 40 0 39 -45 0 -45 0
0 -42z"/>
</g>
</svg>
