<?xml version="1.0" standalone="no"?>
<!DOCTYPE svg PUBLIC "-//W3C//DTD SVG 20010904//EN"
 "http://www.w3.org/TR/2001/REC-SVG-20010904/DTD/svg10.dtd">
<svg version="1.0" xmlns="http://www.w3.org/2000/svg"
 width="35.000000pt" height="29.000000pt" viewBox="0 0 35.000000 29.000000"
 preserveAspectRatio="xMidYMid meet">
<metadata>
Created by potrace 1.16, written by Peter Selinger 2001-2019
</metadata>
<g transform="translate(0.000000,29.000000) scale(0.100000,-0.100000)"
fill="#000000" stroke="none">
<path d="M258 265 l4 -24 -13 -14 -14 -13 -19 -7 -19 -7 -18 5 -19 6 0 30 0
29 -34 0 -34 0 -6 -35 -7 -34 -16 -16 -16 -16 -23 5 -24 6 0 -26 0 -27 45 6
45 7 6 -25 6 -25 -5 -23 -4 -22 -8 -18 -7 -17 45 0 45 0 6 16 6 16 0 24 0 24
20 0 20 0 0 -29 0 -30 16 -16 16 -16 36 7 37 7 7 11 8 11 0 32 0 32 -36 7 -35
6 3 27 3 26 23 -3 23 -2 15 14 14 15 0 38 0 38 -8 10 -7 10 -41 2 -41 1 5 -23z"/>
</g>
</svg>
