<?xml version="1.0" standalone="no"?>
<!DOCTYPE svg PUBLIC "-//W3C//DTD SVG 20010904//EN"
 "http://www.w3.org/TR/2001/REC-SVG-20010904/DTD/svg10.dtd">
<svg version="1.0" xmlns="http://www.w3.org/2000/svg"
 width="37.000000pt" height="31.000000pt" viewBox="0 0 37.000000 31.000000"
 preserveAspectRatio="xMidYMid meet">
<metadata>
Created by potrace 1.16, written by Peter Selinger 2001-2019
</metadata>
<g transform="translate(0.000000,31.000000) scale(0.100000,-0.100000)"
fill="#000000" stroke="none">
<path d="M254 284 l7 -25 -14 -14 -14 -13 -14 -2 -14 -2 -12 1 -13 1 0 30 0
30 -44 0 -44 0 -6 -35 -7 -34 -14 -14 -14 -14 -25 4 -26 5 0 -37 0 -37 45 4
46 3 6 -23 6 -23 -12 -25 -11 -25 0 -14 0 -15 54 0 54 0 6 16 6 16 0 24 0 24
10 0 10 0 0 -29 0 -30 17 -16 16 -17 46 7 46 7 7 11 8 12 0 42 0 42 -35 7 -35
6 0 14 0 14 26 0 25 0 15 14 14 15 0 48 0 48 -8 10 -7 10 -53 2 -54 2 6 -25z"/>
</g>
</svg>
