<?xml version="1.0" standalone="no"?>
<!DOCTYPE svg PUBLIC "-//W3C//DTD SVG 20010904//EN"
 "http://www.w3.org/TR/2001/REC-SVG-20010904/DTD/svg10.dtd">
<svg version="1.0" xmlns="http://www.w3.org/2000/svg"
 width="36.000000pt" height="36.000000pt" viewBox="0 0 36.000000 36.000000"
 preserveAspectRatio="xMidYMid meet">
<metadata>
Created by potrace 1.16, written by Peter Selinger 2001-2019
</metadata>
<g transform="translate(0.000000,36.000000) scale(0.100000,-0.100000)"
fill="#000000" stroke="none">
<path d="M17 353 l-7 -6 0 -55 0 -54 23 4 23 4 12 -12 12 -13 0 -11 0 -10 -15
0 -15 0 0 -10 0 -10 -25 0 -25 0 0 -55 0 -55 35 0 35 0 0 -16 0 -17 22 -18 21
-19 23 0 23 0 15 16 16 15 0 20 0 19 34 0 34 0 16 6 16 6 0 44 0 44 21 0 20 0
15 14 14 15 0 14 0 15 -6 16 -6 16 -23 0 -23 0 -6 16 -6 16 0 34 0 34 -133 0
-134 0 -6 -7z"/>
</g>
</svg>
