<?xml version="1.0" standalone="no"?>
<!DOCTYPE svg PUBLIC "-//W3C//DTD SVG 20010904//EN"
 "http://www.w3.org/TR/2001/REC-SVG-20010904/DTD/svg10.dtd">
<svg version="1.0" xmlns="http://www.w3.org/2000/svg"
 width="34.000000pt" height="34.000000pt" viewBox="0 0 34.000000 34.000000"
 preserveAspectRatio="xMidYMid meet">
<metadata>
Created by potrace 1.16, written by Peter Selinger 2001-2019
</metadata>
<g transform="translate(0.000000,34.000000) scale(0.100000,-0.100000)"
fill="#000000" stroke="none">
<path d="M17 333 l-7 -6 0 -44 0 -44 20 6 20 6 15 -15 15 -15 0 -20 0 -21 -15
0 -15 0 0 -10 0 -10 -25 0 -25 0 0 -45 0 -45 40 0 39 0 -5 -15 -6 -16 22 -19
23 -20 13 0 13 0 16 16 17 17 -5 18 -5 19 38 0 38 0 16 6 16 6 0 44 0 44 21 0
20 0 15 15 15 15 -6 20 -6 20 -24 0 -23 0 -6 16 -6 16 0 34 0 34 -123 0 -124
0 -6 -7z"/>
</g>
</svg>
