<?xml version="1.0" standalone="no"?>
<!DOCTYPE svg PUBLIC "-//W3C//DTD SVG 20010904//EN"
 "http://www.w3.org/TR/2001/REC-SVG-20010904/DTD/svg10.dtd">
<svg version="1.0" xmlns="http://www.w3.org/2000/svg"
 width="32.000000pt" height="35.000000pt" viewBox="0 0 32.000000 35.000000"
 preserveAspectRatio="xMidYMid meet">
<metadata>
Created by potrace 1.16, written by Peter Selinger 2001-2019
</metadata>
<g transform="translate(0.000000,35.000000) scale(0.100000,-0.100000)"
fill="#000000" stroke="none">
<path d="M2 301 l3 -46 31 2 32 3 6 -16 6 -16 -6 -24 -6 -24 -23 0 -23 0 -6
-31 -6 -31 0 -19 0 -19 40 0 40 0 0 -34 0 -34 16 -6 17 -6 16 12 16 13 7 10 8
10 0 29 0 29 38 -7 38 -6 -4 35 -4 35 6 25 6 25 32 -2 32 -3 4 18 4 18 -25 -6
-24 -6 -17 16 -16 16 0 45 0 45 -16 -15 -15 -16 -19 0 -19 0 -9 -15 -8 -16
-37 -6 -37 -6 -6 31 -6 30 -35 4 -34 4 3 -45z"/>
</g>
</svg>
