<?xml version="1.0" standalone="no"?>
<!DOCTYPE svg PUBLIC "-//W3C//DTD SVG 20010904//EN"
 "http://www.w3.org/TR/2001/REC-SVG-20010904/DTD/svg10.dtd">
<svg version="1.0" xmlns="http://www.w3.org/2000/svg"
 width="34.000000pt" height="37.000000pt" viewBox="0 0 34.000000 37.000000"
 preserveAspectRatio="xMidYMid meet">
<metadata>
Created by potrace 1.16, written by Peter Selinger 2001-2019
</metadata>
<g transform="translate(0.000000,37.000000) scale(0.100000,-0.100000)"
fill="#000000" stroke="none">
<path d="M2 314 l3 -59 30 0 30 0 6 -9 7 -8 -5 -19 -5 -19 -23 0 -23 0 -6 -31
-6 -31 0 -29 0 -29 40 0 40 0 0 -34 0 -34 16 -6 16 -6 12 0 12 0 22 20 22 21
0 30 0 29 41 -6 40 -7 -6 37 -7 36 5 23 6 22 33 0 33 0 3 29 4 29 -27 -5 -26
-5 -15 14 -14 14 0 45 0 44 -11 0 -10 0 -15 -15 -15 -15 -19 0 -19 0 -8 -14
-8 -14 -28 -7 -27 -7 -6 31 -6 31 -22 0 -21 0 -23 6 -23 7 3 -59z"/>
</g>
</svg>
