<?xml version="1.0" standalone="no"?>
<!DOCTYPE svg PUBLIC "-//W3C//DTD SVG 20010904//EN"
 "http://www.w3.org/TR/2001/REC-SVG-20010904/DTD/svg10.dtd">
<svg version="1.0" xmlns="http://www.w3.org/2000/svg"
 width="36.000000pt" height="36.000000pt" viewBox="0 0 36.000000 36.000000"
 preserveAspectRatio="xMidYMid meet">
<metadata>
Created by potrace 1.16, written by Peter Selinger 2001-2019
</metadata>
<g transform="translate(0.000000,36.000000) scale(0.100000,-0.100000)"
fill="#000000" stroke="none">
<path d="M260 333 l0 -28 -8 -10 -7 -10 -16 -13 -16 -12 -17 6 -16 6 0 34 0
34 -45 0 -45 0 0 -31 0 -30 -14 -14 -14 -14 -28 2 -29 2 0 -30 0 -30 35 -5 36
-6 11 -7 11 -7 -6 -45 -5 -45 37 0 36 0 0 -24 0 -24 6 -16 6 -16 22 0 21 0 11
8 12 7 3 20 4 20 20 3 20 3 28 11 27 10 0 14 0 14 10 0 10 0 0 45 0 44 -35 7
-35 6 0 13 0 13 36 7 36 6 -6 37 -6 37 0 15 0 15 -45 3 -45 2 0 -27z"/>
</g>
</svg>
