<?xml version="1.0" standalone="no"?>
<!DOCTYPE svg PUBLIC "-//W3C//DTD SVG 20010904//EN"
 "http://www.w3.org/TR/2001/REC-SVG-20010904/DTD/svg10.dtd">
<svg version="1.0" xmlns="http://www.w3.org/2000/svg"
 width="38.000000pt" height="38.000000pt" viewBox="0 0 38.000000 38.000000"
 preserveAspectRatio="xMidYMid meet">
<metadata>
Created by potrace 1.16, written by Peter Selinger 2001-2019
</metadata>
<g transform="translate(0.000000,38.000000) scale(0.100000,-0.100000)"
fill="#000000" stroke="none">
<path d="M90 339 l0 -40 -12 -12 -13 -12 -30 0 -30 0 0 -40 0 -40 20 -3 20 -3
23 -5 22 -4 0 -50 0 -50 35 0 35 0 0 -24 0 -24 6 -16 6 -16 32 0 31 0 11 8 12
7 3 20 4 20 20 3 20 3 28 11 27 10 0 14 0 14 10 0 10 0 0 54 0 54 -37 9 -38 9
38 8 37 7 0 18 0 18 -6 45 -6 45 -54 2 -54 1 0 -29 0 -30 -16 -15 -15 -16 -15
0 -14 0 0 35 0 35 -40 0 -40 0 0 10 0 10 -15 0 -15 0 0 -41z"/>
</g>
</svg>
