<?xml version="1.0" standalone="no"?>
<!DOCTYPE svg PUBLIC "-//W3C//DTD SVG 20010904//EN"
 "http://www.w3.org/TR/2001/REC-SVG-20010904/DTD/svg10.dtd">
<svg version="1.0" xmlns="http://www.w3.org/2000/svg"
 width="42.000000pt" height="27.000000pt" viewBox="0 0 42.000000 27.000000"
 preserveAspectRatio="xMidYMid meet">
<metadata>
Created by potrace 1.16, written by Peter Selinger 2001-2019
</metadata>
<g transform="translate(0.000000,27.000000) scale(0.100000,-0.100000)"
fill="#000000" stroke="none">
<path d="M283 263 l-43 -4 0 -29 0 -30 -24 -6 -25 -6 -21 7 -21 7 6 29 7 29
-54 -1 -53 -1 13 -5 12 -5 0 -33 0 -33 -25 -6 -26 -7 -10 6 -9 6 -6 -15 -6
-16 6 -25 6 -25 39 6 39 6 6 -19 6 -18 -10 -35 -10 -35 0 -2 0 -3 35 0 34 0 9
32 8 33 27 3 27 3 0 -30 0 -30 35 -7 35 -6 25 6 25 6 0 51 0 51 16 -6 16 -6
24 6 24 6 0 23 0 23 -29 12 -30 12 -10 -7 -11 -6 0 50 0 51 -7 -2 -8 -1 -42
-4z"/>
</g>
</svg>
