<?xml version="1.0" standalone="no"?>
<!DOCTYPE svg PUBLIC "-//W3C//DTD SVG 20010904//EN"
 "http://www.w3.org/TR/2001/REC-SVG-20010904/DTD/svg10.dtd">
<svg version="1.0" xmlns="http://www.w3.org/2000/svg"
 width="30.000000pt" height="29.000000pt" viewBox="0 0 30.000000 29.000000"
 preserveAspectRatio="xMidYMid meet">
<metadata>
Created by potrace 1.16, written by Peter Selinger 2001-2019
</metadata>
<g transform="translate(0.000000,29.000000) scale(0.100000,-0.100000)"
fill="#000000" stroke="none">
<path d="M37 283 l-27 -4 0 -37 0 -37 8 -12 7 -11 28 -7 27 -7 0 -8 0 -8 -6
-16 -6 -16 -29 0 -29 0 0 -29 0 -29 -6 -31 -6 -31 51 0 52 0 15 14 14 15 0 20
0 21 10 0 10 0 0 -24 0 -24 16 -6 16 -6 53 0 52 0 7 37 6 38 0 22 0 22 -36 -1
-36 -1 -8 13 -8 13 12 12 12 12 22 7 22 7 0 46 0 45 -26 -6 -26 -7 -30 -6 -29
-6 2 -16 1 -16 -1 -12 -1 -13 -11 0 -10 0 -15 14 -14 15 0 30 0 31 -27 -1 -28
-2 -28 -4z"/>
</g>
</svg>
