<?xml version="1.0" standalone="no"?>
<!DOCTYPE svg PUBLIC "-//W3C//DTD SVG 20010904//EN"
 "http://www.w3.org/TR/2001/REC-SVG-20010904/DTD/svg10.dtd">
<svg version="1.0" xmlns="http://www.w3.org/2000/svg"
 width="44.000000pt" height="29.000000pt" viewBox="0 0 44.000000 29.000000"
 preserveAspectRatio="xMidYMid meet">
<metadata>
Created by potrace 1.16, written by Peter Selinger 2001-2019
</metadata>
<g transform="translate(0.000000,29.000000) scale(0.100000,-0.100000)"
fill="#000000" stroke="none">
<path d="M283 283 l-43 -4 0 -29 0 -28 -16 -6 -17 -6 -17 5 -17 5 5 30 4 30
-61 0 -61 0 0 -15 0 -15 10 0 10 0 0 -25 0 -25 -17 -1 -18 -1 -20 -2 -20 -1
-3 -24 -4 -23 7 -25 6 -25 39 6 38 6 5 -13 4 -12 -9 -30 -8 -30 0 -12 0 -13
45 0 44 0 9 32 8 33 17 3 17 3 0 -29 0 -30 23 -6 22 -6 32 0 31 0 16 6 16 6 0
43 0 42 40 7 40 6 0 34 0 33 -25 11 -26 12 -14 0 -15 0 0 45 0 45 -17 -2 -18
-1 -42 -4z"/>
</g>
</svg>
