<?xml version="1.0" standalone="no"?>
<!DOCTYPE svg PUBLIC "-//W3C//DTD SVG 20010904//EN"
 "http://www.w3.org/TR/2001/REC-SVG-20010904/DTD/svg10.dtd">
<svg version="1.0" xmlns="http://www.w3.org/2000/svg"
 width="28.000000pt" height="27.000000pt" viewBox="0 0 28.000000 27.000000"
 preserveAspectRatio="xMidYMid meet">
<metadata>
Created by potrace 1.16, written by Peter Selinger 2001-2019
</metadata>
<g transform="translate(0.000000,27.000000) scale(0.100000,-0.100000)"
fill="#000000" stroke="none">
<path d="M37 263 l-27 -4 0 -27 0 -27 8 -12 7 -11 28 -7 27 -7 0 -18 0 -18 -6
-16 -6 -16 -29 0 -29 0 0 -34 0 -34 -6 -16 -6 -16 42 0 41 0 15 15 15 15 -3
17 -3 18 28 3 29 4 -7 -22 -7 -22 13 -9 14 -9 46 0 46 0 7 37 6 38 0 14 0 13
-16 -6 -16 -6 -23 6 -24 6 -6 19 -6 19 13 14 14 13 22 7 22 7 0 33 0 33 -45
-10 -44 -10 5 -9 5 -8 -6 -20 -6 -20 -20 0 -20 0 -15 14 -14 15 0 30 0 31 -17
-1 -18 -2 -28 -4z"/>
</g>
</svg>
