<?xml version="1.0" standalone="no"?>
<!DOCTYPE svg PUBLIC "-//W3C//DTD SVG 20010904//EN"
 "http://www.w3.org/TR/2001/REC-SVG-20010904/DTD/svg10.dtd">
<svg version="1.0" xmlns="http://www.w3.org/2000/svg"
 width="35.000000pt" height="29.000000pt" viewBox="0 0 35.000000 29.000000"
 preserveAspectRatio="xMidYMid meet">
<metadata>
Created by potrace 1.16, written by Peter Selinger 2001-2019
</metadata>
<g transform="translate(0.000000,29.000000) scale(0.100000,-0.100000)"
fill="#000000" stroke="none">
<path d="M244 277 l-5 -14 2 -9 1 -9 -1 -12 -1 -13 -15 0 -15 0 0 -10 0 -9
-15 5 -15 6 0 32 0 32 -54 0 -54 0 5 -53 6 -53 -42 0 -42 0 3 -37 3 -38 20 0
20 0 12 -20 13 -20 -6 -27 -6 -28 146 0 146 0 0 60 0 60 -26 0 -25 0 -14 14
-14 14 6 6 6 6 29 0 28 0 0 54 0 55 -7 4 -8 4 -38 7 -37 7 -6 -14z"/>
</g>
</svg>
