<?xml version="1.0" standalone="no"?>
<!DOCTYPE svg PUBLIC "-//W3C//DTD SVG 20010904//EN"
 "http://www.w3.org/TR/2001/REC-SVG-20010904/DTD/svg10.dtd">
<svg version="1.0" xmlns="http://www.w3.org/2000/svg"
 width="33.000000pt" height="27.000000pt" viewBox="0 0 33.000000 27.000000"
 preserveAspectRatio="xMidYMid meet">
<metadata>
Created by potrace 1.16, written by Peter Selinger 2001-2019
</metadata>
<g transform="translate(0.000000,27.000000) scale(0.100000,-0.100000)"
fill="#000000" stroke="none">
<path d="M249 261 l-1 -6 1 -9 2 -8 -6 -19 -6 -19 -14 0 -13 0 -4 -11 -4 -12
-22 7 -22 7 0 32 0 33 -40 -4 -40 -4 0 -49 0 -49 -41 0 -40 0 3 -27 3 -28 21
3 21 3 13 -31 12 -30 -5 -20 -5 -20 134 0 134 0 0 50 0 50 -26 0 -25 0 -15 15
-15 15 6 20 6 19 30 -6 30 -6 -3 49 -3 48 -32 7 -33 6 -1 -6z"/>
</g>
</svg>
