<?xml version="1.0" standalone="no"?>
<!DOCTYPE svg PUBLIC "-//W3C//DTD SVG 20010904//EN"
 "http://www.w3.org/TR/2001/REC-SVG-20010904/DTD/svg10.dtd">
<svg version="1.0" xmlns="http://www.w3.org/2000/svg"
 width="30.000000pt" height="36.000000pt" viewBox="0 0 30.000000 36.000000"
 preserveAspectRatio="xMidYMid meet">
<metadata>
Created by potrace 1.16, written by Peter Selinger 2001-2019
</metadata>
<g transform="translate(0.000000,36.000000) scale(0.100000,-0.100000)"
fill="#000000" stroke="none">
<path d="M10 339 l0 -24 -6 -37 -6 -37 46 -12 46 -11 0 -14 0 -14 -14 0 -15 0
-15 -16 -16 -15 0 -45 0 -44 35 0 35 0 0 -19 0 -19 6 -16 6 -16 35 0 34 0 15
14 14 15 0 26 0 26 47 -7 46 -7 -6 33 -7 32 0 29 0 29 -24 0 -25 0 -6 21 -7
21 13 9 14 9 18 0 17 0 0 51 0 50 -47 -3 -47 -3 -8 -32 -9 -33 -8 0 -9 0 -16
6 -16 6 0 29 0 29 -29 0 -28 0 -32 6 -31 7 0 -24z"/>
</g>
</svg>
