<?xml version="1.0" standalone="no"?>
<!DOCTYPE svg PUBLIC "-//W3C//DTD SVG 20010904//EN"
 "http://www.w3.org/TR/2001/REC-SVG-20010904/DTD/svg10.dtd">
<svg version="1.0" xmlns="http://www.w3.org/2000/svg"
 width="35.000000pt" height="28.000000pt" viewBox="0 0 35.000000 28.000000"
 preserveAspectRatio="xMidYMid meet">
<metadata>
Created by potrace 1.16, written by Peter Selinger 2001-2019
</metadata>
<g transform="translate(0.000000,28.000000) scale(0.100000,-0.100000)"
fill="#000000" stroke="none">
<path d="M90 235 l0 -43 -16 -6 -16 -6 -23 0 -24 0 -6 -19 -5 -18 6 -17 6 -16
27 0 26 0 23 -6 23 -7 -5 -22 -6 -23 -5 -14 -5 -13 9 -14 9 -14 36 7 36 7 0
29 0 30 29 0 29 0 6 -30 6 -30 45 0 45 0 0 14 0 13 6 32 7 31 -27 0 -26 0 0
10 0 10 -16 0 -16 0 6 23 6 22 0 8 0 7 25 0 25 0 0 45 0 46 -19 -11 -20 -10
-25 0 -26 0 0 -25 0 -25 -30 0 -30 0 0 30 0 30 -27 5 -28 6 -17 4 -18 3 0 -43z"/>
</g>
</svg>
