<?xml version="1.0" standalone="no"?>
<!DOCTYPE svg PUBLIC "-//W3C//DTD SVG 20010904//EN"
 "http://www.w3.org/TR/2001/REC-SVG-20010904/DTD/svg10.dtd">
<svg version="1.0" xmlns="http://www.w3.org/2000/svg"
 width="42.000000pt" height="35.000000pt" viewBox="0 0 42.000000 35.000000"
 preserveAspectRatio="xMidYMid meet">
<metadata>
Created by potrace 1.16, written by Peter Selinger 2001-2019
</metadata>
<g transform="translate(0.000000,35.000000) scale(0.100000,-0.100000)"
fill="#000000" stroke="none">
<path d="M77 343 l-7 -6 0 -23 0 -23 -12 -26 -11 -25 -24 0 -23 0 0 -24 0 -24
6 -16 6 -16 18 0 18 0 16 -6 15 -6 -6 -44 -6 -44 40 0 41 0 6 -30 6 -30 39 0
40 0 7 35 6 35 49 0 49 0 0 50 0 50 21 0 20 0 15 14 14 15 0 29 0 30 -16 6
-16 6 -19 0 -19 0 0 40 0 40 -133 0 -134 0 -6 -7z"/>
</g>
</svg>
