<?xml version="1.0" standalone="no"?>
<!DOCTYPE svg PUBLIC "-//W3C//DTD SVG 20010904//EN"
 "http://www.w3.org/TR/2001/REC-SVG-20010904/DTD/svg10.dtd">
<svg version="1.0" xmlns="http://www.w3.org/2000/svg"
 width="26.000000pt" height="27.000000pt" viewBox="0 0 26.000000 27.000000"
 preserveAspectRatio="xMidYMid meet">
<metadata>
Created by potrace 1.16, written by Peter Selinger 2001-2019
</metadata>
<g transform="translate(0.000000,27.000000) scale(0.100000,-0.100000)"
fill="#000000" stroke="none">
<path d="M0 217 l0 -48 11 6 10 7 30 -12 29 -12 0 -23 0 -23 -24 -6 -24 -6
-16 6 -16 6 0 -56 0 -56 41 0 40 0 15 14 14 15 0 25 0 26 25 0 25 0 0 -25 0
-24 41 -11 41 -11 4 4 5 5 6 37 6 38 -12 -7 -12 -8 -30 12 -29 12 0 23 0 24
16 15 15 16 20 0 19 0 0 39 0 40 -45 -16 -45 -15 0 -13 0 -13 -14 -11 -15 -12
-23 12 -23 12 -7 11 -8 11 0 22 0 22 -35 -2 -35 -2 0 -48z"/>
</g>
</svg>
