<?xml version="1.0" standalone="no"?>
<!DOCTYPE svg PUBLIC "-//W3C//DTD SVG 20010904//EN"
 "http://www.w3.org/TR/2001/REC-SVG-20010904/DTD/svg10.dtd">
<svg version="1.0" xmlns="http://www.w3.org/2000/svg"
 width="41.000000pt" height="43.000000pt" viewBox="0 0 41.000000 43.000000"
 preserveAspectRatio="xMidYMid meet">
<metadata>
Created by potrace 1.16, written by Peter Selinger 2001-2019
</metadata>
<g transform="translate(0.000000,43.000000) scale(0.100000,-0.100000)"
fill="#000000" stroke="none">
<path d="M173 401 l6 -28 -12 -12 -11 -11 -38 0 -38 0 0 -32 0 -33 -8 -12 -7
-11 -30 -4 -30 -3 0 -20 0 -19 44 -9 44 -9 -7 -54 -6 -54 45 0 45 0 0 -29 0
-30 16 -15 15 -16 11 0 11 0 19 22 19 22 -3 31 -3 30 24 -3 23 -4 24 6 24 6 6
40 7 40 9 0 9 0 15 14 14 15 0 18 0 18 -9 14 -9 14 -26 -5 -26 -5 0 39 0 40
-26 -6 -27 -7 -28 6 -29 7 0 39 0 39 -31 0 -31 0 5 -29z"/>
</g>
</svg>
