<?xml version="1.0" standalone="no"?>
<!DOCTYPE svg PUBLIC "-//W3C//DTD SVG 20010904//EN"
 "http://www.w3.org/TR/2001/REC-SVG-20010904/DTD/svg10.dtd">
<svg version="1.0" xmlns="http://www.w3.org/2000/svg"
 width="43.000000pt" height="37.000000pt" viewBox="0 0 43.000000 37.000000"
 preserveAspectRatio="xMidYMid meet">
<metadata>
Created by potrace 1.16, written by Peter Selinger 2001-2019
</metadata>
<g transform="translate(0.000000,37.000000) scale(0.100000,-0.100000)"
fill="#000000" stroke="none">
<path d="M76 333 l6 -40 -15 -15 -16 -15 -25 4 -26 5 0 -36 0 -37 13 -4 12 -3
38 -7 39 -6 -7 -22 -7 -22 -2 -25 -1 -25 33 0 32 0 0 -22 0 -22 16 -15 15 -16
25 -6 24 -6 15 12 15 12 0 13 0 13 37 13 37 12 14 14 14 14 -6 39 -6 40 24 0
25 0 15 16 16 15 0 23 0 23 -19 21 -18 22 -17 0 -16 0 0 24 0 25 -9 5 -8 5
-52 -6 -53 -6 4 -28 5 -29 -20 -6 -19 -6 -9 13 -9 14 0 28 0 27 -22 0 -23 0
-38 6 -38 7 7 -40z"/>
</g>
</svg>
