<?xml version="1.0" standalone="no"?>
<!DOCTYPE svg PUBLIC "-//W3C//DTD SVG 20010904//EN"
 "http://www.w3.org/TR/2001/REC-SVG-20010904/DTD/svg10.dtd">
<svg version="1.0" xmlns="http://www.w3.org/2000/svg"
 width="28.000000pt" height="34.000000pt" viewBox="0 0 28.000000 34.000000"
 preserveAspectRatio="xMidYMid meet">
<metadata>
Created by potrace 1.16, written by Peter Selinger 2001-2019
</metadata>
<g transform="translate(0.000000,34.000000) scale(0.100000,-0.100000)"
fill="#000000" stroke="none">
<path d="M10 314 l0 -29 -6 -22 -6 -22 46 -12 46 -11 0 -24 0 -24 -14 0 -15 0
-15 -16 -16 -15 0 -35 0 -34 41 0 40 0 -6 -19 -5 -18 6 -17 6 -16 25 0 24 0
15 15 15 15 -3 28 -3 27 10 -1 10 -2 39 -6 39 -7 -7 16 -6 17 0 34 0 34 -24 0
-24 0 -6 16 -6 16 0 19 0 19 30 7 30 6 0 39 0 39 -37 -3 -37 -3 -8 -32 -9 -33
-18 0 -19 0 -16 6 -16 6 0 29 0 29 -34 0 -34 0 -16 6 -16 6 0 -28z"/>
</g>
</svg>
