<?xml version="1.0" standalone="no"?>
<!DOCTYPE svg PUBLIC "-//W3C//DTD SVG 20010904//EN"
 "http://www.w3.org/TR/2001/REC-SVG-20010904/DTD/svg10.dtd">
<svg version="1.0" xmlns="http://www.w3.org/2000/svg"
 width="40.000000pt" height="33.000000pt" viewBox="0 0 40.000000 33.000000"
 preserveAspectRatio="xMidYMid meet">
<metadata>
Created by potrace 1.16, written by Peter Selinger 2001-2019
</metadata>
<g transform="translate(0.000000,33.000000) scale(0.100000,-0.100000)"
fill="#000000" stroke="none">
<path d="M77 323 l-7 -6 0 -23 0 -23 -12 -26 -11 -25 -24 0 -23 0 0 -14 0 -14
6 -16 6 -16 22 0 21 0 14 -9 13 -9 -7 -41 -7 -41 40 0 40 0 6 -30 6 -30 29 0
29 0 6 25 7 26 -6 9 -6 10 55 0 56 0 0 50 0 50 21 0 20 0 15 14 14 15 0 19 0
20 -16 6 -16 6 -19 0 -19 0 0 40 0 40 -123 0 -124 0 -6 -7z"/>
</g>
</svg>
