<?xml version="1.0" standalone="no"?>
<!DOCTYPE svg PUBLIC "-//W3C//DTD SVG 20010904//EN"
 "http://www.w3.org/TR/2001/REC-SVG-20010904/DTD/svg10.dtd">
<svg version="1.0" xmlns="http://www.w3.org/2000/svg"
 width="28.000000pt" height="29.000000pt" viewBox="0 0 28.000000 29.000000"
 preserveAspectRatio="xMidYMid meet">
<metadata>
Created by potrace 1.16, written by Peter Selinger 2001-2019
</metadata>
<g transform="translate(0.000000,29.000000) scale(0.100000,-0.100000)"
fill="#000000" stroke="none">
<path d="M0 228 l0 -59 17 2 18 3 23 -8 22 -7 0 -15 0 -14 -17 -1 -18 -1 -22
2 -23 1 0 -65 0 -66 51 0 50 0 15 14 14 15 0 25 0 26 15 0 15 0 0 -25 0 -24
38 -10 37 -11 16 0 17 0 6 23 6 22 0 28 0 28 -17 -2 -18 -3 -22 8 -23 7 0 14
0 14 16 15 15 16 20 0 19 0 0 50 0 50 -8 0 -8 0 -46 -16 -46 -15 -5 -20 -5
-19 -15 0 -16 0 -15 16 -16 15 0 24 0 24 -45 -1 -45 -1 0 -59z"/>
</g>
</svg>
