<?xml version="1.0" standalone="no"?>
<!DOCTYPE svg PUBLIC "-//W3C//DTD SVG 20010904//EN"
 "http://www.w3.org/TR/2001/REC-SVG-20010904/DTD/svg10.dtd">
<svg version="1.0" xmlns="http://www.w3.org/2000/svg"
 width="32.000000pt" height="34.000000pt" viewBox="0 0 32.000000 34.000000"
 preserveAspectRatio="xMidYMid meet">
<metadata>
Created by potrace 1.16, written by Peter Selinger 2001-2019
</metadata>
<g transform="translate(0.000000,34.000000) scale(0.100000,-0.100000)"
fill="#000000" stroke="none">
<path d="M60 299 l0 -37 -6 -16 -6 -16 -24 0 -24 0 0 -11 0 -10 15 -15 14 -15
11 -42 11 -42 5 -14 4 -13 40 4 40 4 0 -33 0 -32 22 -7 22 -7 4 12 4 11 13 0
14 0 6 19 6 19 -3 13 -3 14 10 -1 10 -2 35 -6 35 -6 2 50 2 50 -29 0 -29 0
-15 16 -16 15 0 12 0 12 9 14 9 14 25 -5 26 -5 5 14 5 13 -6 30 -5 30 -2 0 -1
0 -40 -14 -40 -14 3 -18 4 -17 -14 -8 -13 -9 -18 0 -18 0 -15 14 -14 15 0 24
0 25 -35 4 -35 4 0 -37z"/>
</g>
</svg>
