<?xml version="1.0" standalone="no"?>
<!DOCTYPE svg PUBLIC "-//W3C//DTD SVG 20010904//EN"
 "http://www.w3.org/TR/2001/REC-SVG-20010904/DTD/svg10.dtd">
<svg version="1.0" xmlns="http://www.w3.org/2000/svg"
 width="34.000000pt" height="36.000000pt" viewBox="0 0 34.000000 36.000000"
 preserveAspectRatio="xMidYMid meet">
<metadata>
Created by potrace 1.16, written by Peter Selinger 2001-2019
</metadata>
<g transform="translate(0.000000,36.000000) scale(0.100000,-0.100000)"
fill="#000000" stroke="none">
<path d="M60 322 l0 -40 -6 -16 -6 -16 -24 0 -24 0 0 -21 0 -20 15 -15 14 -15
11 -42 11 -42 4 -13 4 -12 41 0 40 0 0 -29 0 -29 16 -6 16 -6 19 0 19 0 0 10
0 10 15 0 15 0 7 30 6 31 41 -6 42 -7 1 61 2 61 -29 0 -29 0 -15 15 -15 16 6
15 6 15 27 -6 28 -6 7 20 6 20 -7 36 -6 35 -12 0 -11 0 -40 -14 -40 -14 1 -21
1 -21 -19 -6 -18 -5 -15 15 -15 15 0 25 0 26 -22 0 -23 0 -22 6 -23 6 0 -40z"/>
</g>
</svg>
