<?xml version="1.0" standalone="no"?>
<!DOCTYPE svg PUBLIC "-//W3C//DTD SVG 20010904//EN"
 "http://www.w3.org/TR/2001/REC-SVG-20010904/DTD/svg10.dtd">
<svg version="1.0" xmlns="http://www.w3.org/2000/svg"
 width="37.000000pt" height="30.000000pt" viewBox="0 0 37.000000 30.000000"
 preserveAspectRatio="xMidYMid meet">
<metadata>
Created by potrace 1.16, written by Peter Selinger 2001-2019
</metadata>
<g transform="translate(0.000000,30.000000) scale(0.100000,-0.100000)"
fill="#000000" stroke="none">
<path d="M90 257 l0 -45 -16 -6 -16 -6 -23 0 -24 0 -6 -21 -7 -20 6 -25 6 -24
28 0 27 0 22 -6 22 -6 -10 -26 -10 -26 6 -23 5 -23 28 0 27 0 23 6 22 6 0 29
0 29 19 0 19 0 5 -30 6 -30 54 0 54 0 7 37 6 38 0 18 0 17 -25 0 -25 0 0 10 0
10 -14 0 -14 0 5 20 5 20 24 0 24 0 0 56 0 56 -22 -7 -23 -7 -32 -5 -33 -5 0
-24 0 -24 -20 0 -20 0 0 29 0 30 -17 4 -18 5 -37 7 -38 6 0 -44z"/>
</g>
</svg>
