<?xml version="1.0" standalone="no"?>
<!DOCTYPE svg PUBLIC "-//W3C//DTD SVG 20010904//EN"
 "http://www.w3.org/TR/2001/REC-SVG-20010904/DTD/svg10.dtd">
<svg version="1.0" xmlns="http://www.w3.org/2000/svg"
 width="41.000000pt" height="35.000000pt" viewBox="0 0 41.000000 35.000000"
 preserveAspectRatio="xMidYMid meet">
<metadata>
Created by potrace 1.16, written by Peter Selinger 2001-2019
</metadata>
<g transform="translate(0.000000,35.000000) scale(0.100000,-0.100000)"
fill="#000000" stroke="none">
<path d="M84 341 l-4 -4 0 -33 0 -33 -16 -16 -17 -16 -23 5 -24 6 0 -25 0 -26
13 -4 12 -3 39 -7 38 -6 -5 -27 -6 -27 -3 -20 -3 -20 33 3 32 2 0 -22 0 -23 8
-11 7 -11 23 -12 23 -12 15 12 14 11 0 13 0 13 37 13 37 12 13 13 13 12 -6 45
-6 45 24 -5 25 -5 16 17 17 16 0 13 0 13 -20 23 -19 22 -16 -6 -15 -5 0 29 0
29 -7 4 -8 4 -43 -5 -44 -4 7 -26 6 -25 -13 -8 -13 -9 -21 0 -22 0 -6 16 -6
16 0 23 0 23 -41 4 -40 4 -5 -5z"/>
</g>
</svg>
