<?xml version="1.0" standalone="no"?>
<!DOCTYPE svg PUBLIC "-//W3C//DTD SVG 20010904//EN"
 "http://www.w3.org/TR/2001/REC-SVG-20010904/DTD/svg10.dtd">
<svg version="1.0" xmlns="http://www.w3.org/2000/svg"
 width="43.000000pt" height="45.000000pt" viewBox="0 0 43.000000 45.000000"
 preserveAspectRatio="xMidYMid meet">
<metadata>
Created by potrace 1.16, written by Peter Selinger 2001-2019
</metadata>
<g transform="translate(0.000000,45.000000) scale(0.100000,-0.100000)"
fill="#000000" stroke="none">
<path d="M168 413 l-3 -38 -52 2 -53 2 0 -14 0 -15 10 0 10 0 0 -22 0 -23 -8
-12 -7 -11 -30 -4 -30 -3 0 -30 0 -29 43 -9 43 -8 -7 -55 -6 -54 46 0 46 0 0
-29 0 -30 16 -15 15 -16 21 0 21 0 18 22 19 21 0 29 0 28 29 0 29 0 16 6 16 6
6 39 7 39 9 0 9 0 15 14 14 15 0 24 0 25 -6 16 -6 16 -29 0 -29 0 0 36 0 37
-34 -6 -35 -6 -20 6 -21 5 0 39 0 39 -39 0 -40 0 -3 -37z"/>
</g>
</svg>
