<?xml version="1.0" standalone="no"?>
<!DOCTYPE svg PUBLIC "-//W3C//DTD SVG 20010904//EN"
 "http://www.w3.org/TR/2001/REC-SVG-20010904/DTD/svg10.dtd">
<svg version="1.0" xmlns="http://www.w3.org/2000/svg"
 width="42.000000pt" height="35.000000pt" viewBox="0 0 42.000000 35.000000"
 preserveAspectRatio="xMidYMid meet">
<metadata>
Created by potrace 1.16, written by Peter Selinger 2001-2019
</metadata>
<g transform="translate(0.000000,35.000000) scale(0.100000,-0.100000)"
fill="#000000" stroke="none">
<path d="M80 321 l0 -29 -6 -16 -6 -16 -29 0 -30 0 -5 -15 -6 -15 6 -24 6 -24
36 -7 37 -6 -6 -50 -6 -49 43 0 44 0 7 -27 7 -28 11 -7 12 -8 18 0 18 0 15 14
14 15 0 25 0 26 40 -6 40 -7 0 51 0 50 33 7 32 8 7 11 8 11 0 17 0 17 -40 11
-40 11 0 44 0 45 -50 0 -50 0 0 -22 0 -23 -8 -12 -7 -11 -15 -2 -15 -2 -13 1
-12 1 2 33 3 32 -47 3 -48 3 0 -30z"/>
</g>
</svg>
