<?xml version="1.0" standalone="no"?>
<!DOCTYPE svg PUBLIC "-//W3C//DTD SVG 20010904//EN"
 "http://www.w3.org/TR/2001/REC-SVG-20010904/DTD/svg10.dtd">
<svg version="1.0" xmlns="http://www.w3.org/2000/svg"
 width="40.000000pt" height="33.000000pt" viewBox="0 0 40.000000 33.000000"
 preserveAspectRatio="xMidYMid meet">
<metadata>
Created by potrace 1.16, written by Peter Selinger 2001-2019
</metadata>
<g transform="translate(0.000000,33.000000) scale(0.100000,-0.100000)"
fill="#000000" stroke="none">
<path d="M80 301 l0 -29 -6 -16 -6 -16 -28 0 -29 0 -6 -10 -6 -10 6 -19 6 -19
35 -7 36 -6 -4 -50 -3 -49 42 0 41 0 7 -30 6 -29 20 -6 19 -6 16 16 16 16 -5
26 -5 25 44 -6 44 -6 0 49 0 49 33 7 32 8 7 11 8 11 0 7 0 7 -40 11 -40 11 0
44 0 45 -40 0 -40 0 0 -22 0 -23 -8 -11 -7 -11 -21 -7 -21 -6 -17 6 -17 7 3
31 3 31 -37 3 -38 3 0 -30z"/>
</g>
</svg>
