<?xml version="1.0" standalone="no"?>
<!DOCTYPE svg PUBLIC "-//W3C//DTD SVG 20010904//EN"
 "http://www.w3.org/TR/2001/REC-SVG-20010904/DTD/svg10.dtd">
<svg version="1.0" xmlns="http://www.w3.org/2000/svg"
 width="37.000000pt" height="28.000000pt" viewBox="0 0 37.000000 28.000000"
 preserveAspectRatio="xMidYMid meet">
<metadata>
Created by potrace 1.16, written by Peter Selinger 2001-2019
</metadata>
<g transform="translate(0.000000,28.000000) scale(0.100000,-0.100000)"
fill="#000000" stroke="none">
<path d="M70 237 l0 -38 -19 6 -19 6 -16 -16 -16 -16 0 -19 0 -18 6 -16 6 -16
23 0 22 0 6 -41 5 -41 5 -5 5 -5 41 -5 40 -5 15 15 16 16 0 26 0 26 18 -3 17
-3 3 -37 3 -36 15 -6 14 -5 45 8 46 9 4 3 3 4 7 47 7 47 -38 6 -39 6 -15 8
-15 8 5 9 5 9 30 -2 30 -1 7 11 8 12 0 43 0 42 -11 0 -10 0 -44 -11 -44 -11 6
-15 6 -15 -14 -9 -14 -9 -21 0 -22 0 -12 29 -12 30 7 10 6 11 -50 -2 -51 -2 0
-39z"/>
</g>
</svg>
