<?xml version="1.0" standalone="no"?>
<!DOCTYPE svg PUBLIC "-//W3C//DTD SVG 20010904//EN"
 "http://www.w3.org/TR/2001/REC-SVG-20010904/DTD/svg10.dtd">
<svg version="1.0" xmlns="http://www.w3.org/2000/svg"
 width="39.000000pt" height="30.000000pt" viewBox="0 0 39.000000 30.000000"
 preserveAspectRatio="xMidYMid meet">
<metadata>
Created by potrace 1.16, written by Peter Selinger 2001-2019
</metadata>
<g transform="translate(0.000000,30.000000) scale(0.100000,-0.100000)"
fill="#000000" stroke="none">
<path d="M70 265 l0 -35 -19 0 -20 0 -15 -16 -16 -15 0 -29 0 -28 6 -16 6 -16
23 0 22 0 6 -41 5 -41 6 -5 6 -6 49 -5 50 -4 15 15 16 16 0 26 0 26 10 -6 10
-6 0 -34 0 -33 16 -6 17 -6 47 6 47 6 11 7 11 7 7 55 6 56 -23 6 -24 7 -22 0
-22 0 -6 10 -6 10 32 -7 31 -6 9 14 9 14 0 53 0 52 -21 0 -20 0 -45 -11 -46
-12 5 -18 5 -18 -15 -5 -15 -6 -8 0 -9 0 -7 23 -8 22 3 18 2 17 -60 0 -61 0 0
-35z"/>
</g>
</svg>
