<?xml version="1.0" standalone="no"?>
<!DOCTYPE svg PUBLIC "-//W3C//DTD SVG 20010904//EN"
 "http://www.w3.org/TR/2001/REC-SVG-20010904/DTD/svg10.dtd">
<svg version="1.0" xmlns="http://www.w3.org/2000/svg"
 width="40.000000pt" height="44.000000pt" viewBox="0 0 40.000000 44.000000"
 preserveAspectRatio="xMidYMid meet">
<metadata>
Created by potrace 1.16, written by Peter Selinger 2001-2019
</metadata>
<g transform="translate(0.000000,44.000000) scale(0.100000,-0.100000)"
fill="#000000" stroke="none">
<path d="M194 425 l-6 -14 4 -13 5 -13 -14 -14 -14 -14 -45 7 -44 6 0 -40 0
-40 -15 0 -14 0 -26 -12 -25 -11 0 -33 0 -32 16 -6 16 -6 24 0 24 0 0 -39 0
-39 6 -16 6 -16 39 0 39 0 0 -34 0 -35 21 -6 20 -7 27 7 27 7 7 11 8 12 0 23
0 22 33 0 32 0 22 6 21 6 6 42 7 43 -7 17 -7 17 -31 -3 -31 -3 -3 17 -3 18 30
0 31 0 0 55 0 55 -50 0 -50 0 0 26 0 25 -10 20 -11 19 -30 0 -30 0 -5 -15z"/>
</g>
</svg>
