<?xml version="1.0" standalone="no"?>
<!DOCTYPE svg PUBLIC "-//W3C//DTD SVG 20010904//EN"
 "http://www.w3.org/TR/2001/REC-SVG-20010904/DTD/svg10.dtd">
<svg version="1.0" xmlns="http://www.w3.org/2000/svg"
 width="32.000000pt" height="41.000000pt" viewBox="0 0 32.000000 41.000000"
 preserveAspectRatio="xMidYMid meet">
<metadata>
Created by potrace 1.16, written by Peter Selinger 2001-2019
</metadata>
<g transform="translate(0.000000,41.000000) scale(0.100000,-0.100000)"
fill="#000000" stroke="none">
<path d="M170 380 l0 -29 -36 -7 -36 -7 -9 14 -9 14 0 -47 0 -46 -6 -16 -6
-16 -34 0 -34 0 0 -15 0 -16 13 -4 12 -3 39 -7 38 -6 -6 -39 -6 -38 -6 -16 -6
-16 41 0 41 0 0 -34 0 -35 21 -6 20 -7 20 24 21 23 -5 29 -4 28 45 -6 45 -6
-7 38 -6 37 0 13 0 13 -10 -6 -10 -6 -20 6 -20 6 0 34 0 33 16 6 16 6 19 0 19
0 0 40 0 40 -40 0 -40 0 -6 30 -6 30 -29 0 -29 0 0 -30z"/>
</g>
</svg>
