<?xml version="1.0" standalone="no"?>
<!DOCTYPE svg PUBLIC "-//W3C//DTD SVG 20010904//EN"
 "http://www.w3.org/TR/2001/REC-SVG-20010904/DTD/svg10.dtd">
<svg version="1.0" xmlns="http://www.w3.org/2000/svg"
 width="38.000000pt" height="42.000000pt" viewBox="0 0 38.000000 42.000000"
 preserveAspectRatio="xMidYMid meet">
<metadata>
Created by potrace 1.16, written by Peter Selinger 2001-2019
</metadata>
<g transform="translate(0.000000,42.000000) scale(0.100000,-0.100000)"
fill="#000000" stroke="none">
<path d="M196 411 l-6 -9 6 -16 6 -15 -16 -17 -17 -16 -44 4 -45 3 0 -43 0
-44 -15 6 -15 5 -25 -11 -25 -11 0 -23 0 -22 16 -6 16 -6 24 0 24 0 0 -42 0
-43 8 -12 7 -12 40 -3 40 -3 -3 -31 -3 -31 17 -7 17 -6 21 6 21 7 7 11 8 11 0
23 0 22 33 0 32 0 21 6 22 6 5 34 6 35 -6 14 -5 15 -32 -3 -31 -2 -3 28 -3 27
30 0 31 0 0 45 0 45 -50 0 -50 0 0 26 0 25 -10 20 -11 19 -19 0 -19 0 -5 -9z"/>
</g>
</svg>
