<?xml version="1.0" standalone="no"?>
<!DOCTYPE svg PUBLIC "-//W3C//DTD SVG 20010904//EN"
 "http://www.w3.org/TR/2001/REC-SVG-20010904/DTD/svg10.dtd">
<svg version="1.0" xmlns="http://www.w3.org/2000/svg"
 width="34.000000pt" height="43.000000pt" viewBox="0 0 34.000000 43.000000"
 preserveAspectRatio="xMidYMid meet">
<metadata>
Created by potrace 1.16, written by Peter Selinger 2001-2019
</metadata>
<g transform="translate(0.000000,43.000000) scale(0.100000,-0.100000)"
fill="#000000" stroke="none">
<path d="M170 401 l0 -29 -27 -7 -27 -7 -4 11 -4 11 -14 0 -14 0 0 -44 0 -44
-6 -16 -6 -16 -34 0 -34 0 0 -25 0 -26 13 -4 12 -3 38 -7 39 -6 -7 -26 -6 -25
-6 -29 -5 -29 41 0 41 0 0 -34 0 -34 16 -6 16 -6 15 0 16 0 18 22 19 21 0 29
0 28 40 -6 40 -7 0 24 0 24 -6 38 -7 38 -16 -2 -16 -1 -12 1 -13 1 0 24 0 24
16 6 16 6 19 0 19 0 0 50 0 50 -40 0 -40 0 -6 30 -6 30 -39 0 -39 0 0 -29z"/>
</g>
</svg>
