<?xml version="1.0" standalone="no"?>
<!DOCTYPE svg PUBLIC "-//W3C//DTD SVG 20010904//EN"
 "http://www.w3.org/TR/2001/REC-SVG-20010904/DTD/svg10.dtd">
<svg version="1.0" xmlns="http://www.w3.org/2000/svg"
 width="43.000000pt" height="42.000000pt" viewBox="0 0 43.000000 42.000000"
 preserveAspectRatio="xMidYMid meet">
<metadata>
Created by potrace 1.16, written by Peter Selinger 2001-2019
</metadata>
<g transform="translate(0.000000,42.000000) scale(0.100000,-0.100000)"
fill="#000000" stroke="none">
<path d="M190 395 l0 -26 -15 -16 -15 -15 -43 4 -42 3 -3 -37 -3 -37 -22 -7
-21 -7 -14 -13 -13 -14 6 -19 6 -19 24 -6 23 -6 17 7 17 6 -7 -50 -7 -50 24
-7 23 -6 28 0 27 0 0 -24 0 -24 6 -16 6 -16 22 0 21 0 13 9 13 8 -7 26 -6 27
35 0 36 0 14 15 15 15 7 40 7 40 28 0 29 0 6 19 5 18 -6 16 -6 16 -34 7 -34 6
0 41 0 40 -48 -6 -48 -6 -11 7 -11 7 -4 35 -3 35 -17 3 -18 3 0 -26z"/>
</g>
</svg>
