<?xml version="1.0" standalone="no"?>
<!DOCTYPE svg PUBLIC "-//W3C//DTD SVG 20010904//EN"
 "http://www.w3.org/TR/2001/REC-SVG-20010904/DTD/svg10.dtd">
<svg version="1.0" xmlns="http://www.w3.org/2000/svg"
 width="45.000000pt" height="44.000000pt" viewBox="0 0 45.000000 44.000000"
 preserveAspectRatio="xMidYMid meet">
<metadata>
Created by potrace 1.16, written by Peter Selinger 2001-2019
</metadata>
<g transform="translate(0.000000,44.000000) scale(0.100000,-0.100000)"
fill="#000000" stroke="none">
<path d="M190 415 l0 -26 -15 -15 -14 -14 -43 2 -43 3 -3 -37 -3 -37 -22 -7
-21 -7 -13 -13 -13 -13 0 -14 0 -15 6 -16 6 -16 38 -6 37 -6 -4 -43 -5 -42 23
-6 24 -7 28 0 27 0 0 -24 0 -24 6 -16 6 -16 32 0 31 0 14 9 14 9 -5 26 -5 26
33 0 33 0 14 15 15 15 7 40 7 40 29 0 29 0 6 24 6 25 -7 20 -6 20 -35 7 -34 6
0 40 0 39 -47 -1 -48 -2 -12 1 -12 1 -3 38 -3 37 -27 3 -28 3 0 -26z"/>
</g>
</svg>
