<?xml version="1.0" standalone="no"?>
<!DOCTYPE svg PUBLIC "-//W3C//DTD SVG 20010904//EN"
 "http://www.w3.org/TR/2001/REC-SVG-20010904/DTD/svg10.dtd">
<svg version="1.0" xmlns="http://www.w3.org/2000/svg"
 width="34.000000pt" height="41.000000pt" viewBox="0 0 34.000000 41.000000"
 preserveAspectRatio="xMidYMid meet">
<metadata>
Created by potrace 1.16, written by Peter Selinger 2001-2019
</metadata>
<g transform="translate(0.000000,41.000000) scale(0.100000,-0.100000)"
fill="#000000" stroke="none">
<path d="M177 403 l-7 -6 0 -28 0 -27 -16 -6 -16 -6 -28 0 -28 0 -5 13 -5 12
-1 -45 -1 -45 -9 -13 -8 -14 -27 -1 -26 -2 0 -21 0 -22 16 -6 16 -6 25 0 26 0
-7 -54 -6 -54 42 5 41 6 -7 -12 -8 -12 12 -30 12 -29 22 0 21 0 14 9 14 9 -6
15 -6 15 47 12 47 11 7 12 8 12 0 42 0 41 -37 9 -38 9 -3 16 -3 17 46 7 46 6
-3 47 -3 46 -45 3 -45 2 -23 6 -23 5 6 29 7 30 -15 0 -14 0 -6 -7z"/>
</g>
</svg>
