<?xml version="1.0" standalone="no"?>
<!DOCTYPE svg PUBLIC "-//W3C//DTD SVG 20010904//EN"
 "http://www.w3.org/TR/2001/REC-SVG-20010904/DTD/svg10.dtd">
<svg version="1.0" xmlns="http://www.w3.org/2000/svg"
 width="36.000000pt" height="43.000000pt" viewBox="0 0 36.000000 43.000000"
 preserveAspectRatio="xMidYMid meet">
<metadata>
Created by potrace 1.16, written by Peter Selinger 2001-2019
</metadata>
<g transform="translate(0.000000,43.000000) scale(0.100000,-0.100000)"
fill="#000000" stroke="none">
<path d="M177 423 l-7 -6 0 -28 0 -27 -16 -6 -16 -6 -19 0 -19 0 0 10 0 10
-15 0 -15 0 0 -39 0 -39 -6 -16 -6 -16 -29 0 -29 0 0 -34 0 -34 16 -6 16 -6
25 0 24 0 -7 -56 -7 -57 37 7 36 7 0 -15 0 -15 12 -26 11 -25 28 0 27 0 16 6
16 6 0 19 0 18 43 12 42 11 7 12 8 11 0 52 0 52 -35 7 -35 6 -5 8 -5 9 45 7
46 6 -3 57 -3 56 -45 3 -45 2 -21 5 -21 5 5 30 4 30 -24 0 -25 0 -6 -7z"/>
</g>
</svg>
