<?xml version="1.0" standalone="no"?>
<!DOCTYPE svg PUBLIC "-//W3C//DTD SVG 20010904//EN"
 "http://www.w3.org/TR/2001/REC-SVG-20010904/DTD/svg10.dtd">
<svg version="1.0" xmlns="http://www.w3.org/2000/svg"
 width="29.000000pt" height="40.000000pt" viewBox="0 0 29.000000 40.000000"
 preserveAspectRatio="xMidYMid meet">
<metadata>
Created by potrace 1.16, written by Peter Selinger 2001-2019
</metadata>
<g transform="translate(0.000000,40.000000) scale(0.100000,-0.100000)"
fill="#000000" stroke="none">
<path d="M125 371 l6 -28 -29 -12 -30 -13 -33 4 -34 3 -3 -42 -3 -43 35 0 35
0 11 -19 10 -20 0 -9 0 -10 -34 -6 -34 -6 -6 -42 -7 -41 13 -9 13 -8 22 0 21
0 16 -6 16 -6 0 -29 0 -29 30 0 30 0 0 25 0 25 25 0 24 0 28 12 28 12 3 2 3 2
-17 51 -16 51 -14 0 -14 0 0 24 0 24 29 7 29 6 5 14 6 13 -6 22 -6 22 -48 -5
-47 -6 -6 15 -6 16 0 34 0 34 -26 0 -26 0 7 -29z"/>
</g>
</svg>
