<?xml version="1.0" standalone="no"?>
<!DOCTYPE svg PUBLIC "-//W3C//DTD SVG 20010904//EN"
 "http://www.w3.org/TR/2001/REC-SVG-20010904/DTD/svg10.dtd">
<svg version="1.0" xmlns="http://www.w3.org/2000/svg"
 width="31.000000pt" height="42.000000pt" viewBox="0 0 31.000000 42.000000"
 preserveAspectRatio="xMidYMid meet">
<metadata>
Created by potrace 1.16, written by Peter Selinger 2001-2019
</metadata>
<g transform="translate(0.000000,42.000000) scale(0.100000,-0.100000)"
fill="#000000" stroke="none">
<path d="M122 390 l4 -29 -25 -10 -26 -10 -35 2 -35 2 -3 -52 -3 -53 35 0 35
0 10 -19 11 -19 -34 -6 -34 -7 -7 -51 -7 -50 13 -9 14 -9 22 0 21 0 16 -6 16
-6 0 -29 0 -29 40 0 40 0 0 25 0 25 22 0 22 0 33 12 33 12 0 14 0 13 -16 50
-16 49 -14 0 -14 0 0 14 0 14 30 7 29 6 6 19 6 18 -7 27 -7 27 -48 -4 -49 -3
-5 13 -5 14 0 34 0 34 -36 0 -36 0 4 -30z"/>
</g>
</svg>
