<?xml version="1.0" standalone="no"?>
<!DOCTYPE svg PUBLIC "-//W3C//DTD SVG 20010904//EN"
 "http://www.w3.org/TR/2001/REC-SVG-20010904/DTD/svg10.dtd">
<svg version="1.0" xmlns="http://www.w3.org/2000/svg"
 width="39.000000pt" height="37.000000pt" viewBox="0 0 39.000000 37.000000"
 preserveAspectRatio="xMidYMid meet">
<metadata>
Created by potrace 1.16, written by Peter Selinger 2001-2019
</metadata>
<g transform="translate(0.000000,37.000000) scale(0.100000,-0.100000)"
fill="#000000" stroke="none">
<path d="M200 345 l0 -26 -16 -16 -15 -15 -50 6 -49 7 0 -45 0 -45 -22 -7 -22
-7 -13 -13 -13 -13 0 -14 0 -15 6 -16 6 -16 18 0 17 0 6 -36 6 -36 12 -14 11
-14 50 0 49 0 16 15 15 16 -5 24 -4 25 13 0 13 0 11 -19 10 -20 0 -25 0 -26
48 0 47 0 11 8 11 7 12 22 11 22 0 26 0 26 -15 16 -16 15 -29 -5 -28 -6 -6 15
-6 16 0 9 0 9 33 0 34 0 12 26 12 26 -7 34 -6 34 -12 0 -11 0 -37 10 -37 11
-3 22 -3 22 -32 3 -33 3 0 -26z"/>
</g>
</svg>
