<?xml version="1.0" standalone="no"?>
<!DOCTYPE svg PUBLIC "-//W3C//DTD SVG 20010904//EN"
 "http://www.w3.org/TR/2001/REC-SVG-20010904/DTD/svg10.dtd">
<svg version="1.0" xmlns="http://www.w3.org/2000/svg"
 width="36.000000pt" height="32.000000pt" viewBox="0 0 36.000000 32.000000"
 preserveAspectRatio="xMidYMid meet">
<metadata>
Created by potrace 1.16, written by Peter Selinger 2001-2019
</metadata>
<g transform="translate(0.000000,32.000000) scale(0.100000,-0.100000)"
fill="#000000" stroke="none">
<path d="M184 295 l7 -26 -14 -14 -14 -13 -11 7 -10 6 -7 28 -7 28 -57 -3 -56
-3 -3 -52 -3 -51 31 -7 30 -7 0 -8 0 -8 -36 -7 -37 -6 7 -56 7 -56 17 -13 17
-13 32 -1 32 0 26 12 27 12 -4 28 -5 28 14 0 13 0 0 -37 0 -38 9 -14 9 -13 43
7 44 7 7 12 8 11 -6 47 -6 47 33 8 34 9 3 27 3 27 -18 7 -18 7 -13 13 -13 13
-6 34 -5 34 -22 6 -21 6 -34 0 -33 0 6 -25z"/>
</g>
</svg>
