<?xml version="1.0" standalone="no"?>
<!DOCTYPE svg PUBLIC "-//W3C//DTD SVG 20010904//EN"
 "http://www.w3.org/TR/2001/REC-SVG-20010904/DTD/svg10.dtd">
<svg version="1.0" xmlns="http://www.w3.org/2000/svg"
 width="35.000000pt" height="31.000000pt" viewBox="0 0 35.000000 31.000000"
 preserveAspectRatio="xMidYMid meet">
<metadata>
Created by potrace 1.16, written by Peter Selinger 2001-2019
</metadata>
<g transform="translate(0.000000,31.000000) scale(0.100000,-0.100000)"
fill="#000000" stroke="none">
<path d="M155 300 l-6 -10 6 -20 6 -20 -15 -15 -15 -15 -15 0 -16 0 -1 13 -1
12 2 23 1 22 -50 0 -51 0 0 -56 0 -56 20 5 20 5 0 -9 0 -9 14 0 14 0 4 -12 5
-13 -4 -12 -5 -13 -23 0 -22 0 -7 -31 -6 -32 0 -28 0 -29 39 0 39 0 16 6 16 6
1 32 2 31 4 -25 5 -25 12 -7 11 -8 62 0 62 0 10 37 11 38 0 13 0 12 11 0 10 0
15 14 14 15 0 24 0 25 -6 16 -6 16 -29 0 -29 0 0 39 0 40 -27 -1 -28 -1 -32 7
-31 7 -7 -11z"/>
</g>
</svg>
