<?xml version="1.0" standalone="no"?>
<!DOCTYPE svg PUBLIC "-//W3C//DTD SVG 20010904//EN"
 "http://www.w3.org/TR/2001/REC-SVG-20010904/DTD/svg10.dtd">
<svg version="1.0" xmlns="http://www.w3.org/2000/svg"
 width="37.000000pt" height="35.000000pt" viewBox="0 0 37.000000 35.000000"
 preserveAspectRatio="xMidYMid meet">
<metadata>
Created by potrace 1.16, written by Peter Selinger 2001-2019
</metadata>
<g transform="translate(0.000000,35.000000) scale(0.100000,-0.100000)"
fill="#000000" stroke="none">
<path d="M200 325 l0 -26 -16 -16 -15 -15 -50 4 -49 5 0 -43 0 -43 -22 -7 -22
-7 -14 -13 -13 -14 6 -20 6 -20 18 0 18 0 6 -36 6 -36 12 -14 11 -14 40 0 39
0 15 15 15 14 -7 26 -6 25 26 0 25 0 11 -19 10 -20 0 -25 0 -26 38 0 37 0 11
8 11 7 12 22 11 22 0 16 0 16 -15 15 -14 15 -27 -7 -26 -7 -9 14 -9 14 0 23 0
22 33 0 34 0 10 23 11 23 -5 27 -5 27 -12 0 -11 0 -37 10 -37 11 -3 22 -3 22
-22 3 -23 3 0 -26z"/>
</g>
</svg>
