<?xml version="1.0" standalone="no"?>
<!DOCTYPE svg PUBLIC "-//W3C//DTD SVG 20010904//EN"
 "http://www.w3.org/TR/2001/REC-SVG-20010904/DTD/svg10.dtd">
<svg version="1.0" xmlns="http://www.w3.org/2000/svg"
 width="36.000000pt" height="38.000000pt" viewBox="0 0 36.000000 38.000000"
 preserveAspectRatio="xMidYMid meet">
<metadata>
Created by potrace 1.16, written by Peter Selinger 2001-2019
</metadata>
<g transform="translate(0.000000,38.000000) scale(0.100000,-0.100000)"
fill="#000000" stroke="none">
<path d="M234 353 l7 -29 -18 -20 -18 -21 -12 4 -13 5 0 34 0 34 -50 0 -50 0
0 -32 0 -33 -9 -14 -9 -14 -29 -1 -28 -1 -3 -36 -3 -37 35 -6 36 -7 0 -43 0
-44 16 -6 16 -6 24 0 24 0 0 -26 0 -25 14 -15 15 -14 24 0 25 0 16 6 16 6 0
22 0 22 45 13 45 13 0 27 0 26 6 38 7 37 -31 0 -30 0 -16 6 -16 6 0 19 0 19
41 6 41 7 -6 45 -6 45 -5 5 -5 5 -51 5 -51 5 6 -30z"/>
</g>
</svg>
