<?xml version="1.0" standalone="no"?>
<!DOCTYPE svg PUBLIC "-//W3C//DTD SVG 20010904//EN"
 "http://www.w3.org/TR/2001/REC-SVG-20010904/DTD/svg10.dtd">
<svg version="1.0" xmlns="http://www.w3.org/2000/svg"
 width="34.000000pt" height="30.000000pt" viewBox="0 0 34.000000 30.000000"
 preserveAspectRatio="xMidYMid meet">
<metadata>
Created by potrace 1.16, written by Peter Selinger 2001-2019
</metadata>
<g transform="translate(0.000000,30.000000) scale(0.100000,-0.100000)"
fill="#000000" stroke="none">
<path d="M187 275 l5 -24 -16 -16 -16 -16 -19 6 -20 6 -6 30 -7 30 -46 -3 -47
-3 -3 -42 -3 -41 30 -7 31 -7 0 -18 0 -18 -36 -7 -36 -6 7 -47 7 -46 16 -13
17 -12 22 -1 22 0 26 12 26 12 -6 28 -7 28 26 0 26 0 0 -37 0 -38 8 -12 8 -12
36 5 37 6 5 13 4 13 -8 38 -9 38 5 8 5 8 32 8 32 8 3 17 3 17 -18 7 -18 7 -13
13 -13 13 -6 34 -5 34 -22 6 -21 6 -21 0 -21 0 4 -25z"/>
</g>
</svg>
