<?xml version="1.0" standalone="no"?>
<!DOCTYPE svg PUBLIC "-//W3C//DTD SVG 20010904//EN"
 "http://www.w3.org/TR/2001/REC-SVG-20010904/DTD/svg10.dtd">
<svg version="1.0" xmlns="http://www.w3.org/2000/svg"
 width="34.000000pt" height="36.000000pt" viewBox="0 0 34.000000 36.000000"
 preserveAspectRatio="xMidYMid meet">
<metadata>
Created by potrace 1.16, written by Peter Selinger 2001-2019
</metadata>
<g transform="translate(0.000000,36.000000) scale(0.100000,-0.100000)"
fill="#000000" stroke="none">
<path d="M237 334 l5 -29 -21 -23 -20 -24 -20 7 -21 6 0 35 0 34 -40 0 -40 0
0 -32 0 -33 -10 -15 -9 -14 -28 -1 -28 -2 -3 -25 -3 -26 35 -6 36 -7 0 -43 0
-44 16 -6 16 -6 24 0 24 0 0 -26 0 -25 14 -15 15 -14 18 0 18 0 13 9 14 8 -4
18 -3 17 48 16 47 15 0 31 0 31 6 23 6 22 -30 0 -30 0 -16 6 -16 6 0 29 0 29
41 6 41 7 -7 36 -7 36 -3 3 -3 4 -40 5 -39 5 4 -28z"/>
</g>
</svg>
