<?xml version="1.0" standalone="no"?>
<!DOCTYPE svg PUBLIC "-//W3C//DTD SVG 20010904//EN"
 "http://www.w3.org/TR/2001/REC-SVG-20010904/DTD/svg10.dtd">
<svg version="1.0" xmlns="http://www.w3.org/2000/svg"
 width="33.000000pt" height="29.000000pt" viewBox="0 0 33.000000 29.000000"
 preserveAspectRatio="xMidYMid meet">
<metadata>
Created by potrace 1.16, written by Peter Selinger 2001-2019
</metadata>
<g transform="translate(0.000000,29.000000) scale(0.100000,-0.100000)"
fill="#000000" stroke="none">
<path d="M159 281 l-1 -6 2 -22 1 -23 -15 -15 -15 -15 -25 0 -25 0 -6 19 -5
18 6 17 6 16 -41 0 -41 0 0 -44 0 -44 20 5 20 5 0 -11 0 -11 14 0 15 0 6 -19
5 -18 -6 -17 -6 -16 -23 0 -22 0 -7 -31 -6 -32 0 -18 0 -19 33 0 32 0 12 8 11
7 4 30 3 30 19 3 19 4 -7 -28 -7 -27 13 -8 13 -9 52 0 52 0 10 37 11 38 0 13
0 12 11 0 10 0 15 14 14 15 0 18 0 18 -9 14 -9 14 -26 -5 -26 -5 0 44 0 44 -9
-6 -10 -5 -40 9 -41 9 -1 -7z"/>
</g>
</svg>
