<?xml version="1.0" standalone="no"?>
<!DOCTYPE svg PUBLIC "-//W3C//DTD SVG 20010904//EN"
 "http://www.w3.org/TR/2001/REC-SVG-20010904/DTD/svg10.dtd">
<svg version="1.0" xmlns="http://www.w3.org/2000/svg"
 width="40.000000pt" height="28.000000pt" viewBox="0 0 40.000000 28.000000"
 preserveAspectRatio="xMidYMid meet">
<metadata>
Created by potrace 1.16, written by Peter Selinger 2001-2019
</metadata>
<g transform="translate(0.000000,28.000000) scale(0.100000,-0.100000)"
fill="#000000" stroke="none">
<path d="M234 271 l7 -10 -7 -26 -6 -25 -29 0 -29 0 -6 30 -6 30 -39 0 -39 0
0 -41 0 -40 -14 -15 -15 -14 -23 2 -23 3 -3 -26 -3 -27 36 -6 37 -7 -4 -39 -3
-39 20 -5 20 -6 26 0 25 0 11 11 12 12 -6 28 -5 29 31 0 31 0 0 -39 0 -39 30
-7 30 -6 18 5 19 6 -10 45 -10 45 6 7 7 6 37 6 38 6 0 20 0 20 -30 3 -30 4 -7
11 -8 12 0 41 0 40 -46 3 -46 2 6 -10z"/>
</g>
</svg>
