<?xml version="1.0" standalone="no"?>
<!DOCTYPE svg PUBLIC "-//W3C//DTD SVG 20010904//EN"
 "http://www.w3.org/TR/2001/REC-SVG-20010904/DTD/svg10.dtd">
<svg version="1.0" xmlns="http://www.w3.org/2000/svg"
 width="42.000000pt" height="30.000000pt" viewBox="0 0 42.000000 30.000000"
 preserveAspectRatio="xMidYMid meet">
<metadata>
Created by potrace 1.16, written by Peter Selinger 2001-2019
</metadata>
<g transform="translate(0.000000,30.000000) scale(0.100000,-0.100000)"
fill="#000000" stroke="none">
<path d="M231 283 l1 -18 -1 -17 -1 -18 -20 0 -20 0 -6 30 -6 30 -49 0 -49 0
0 -41 0 -40 -12 -12 -13 -12 -25 0 -25 0 -3 -36 -3 -37 37 -6 36 -7 -6 -39 -6
-38 23 -6 22 -6 36 0 37 0 12 15 12 15 -6 25 -6 25 20 0 20 0 0 -39 0 -39 23
-6 22 -6 25 0 25 0 13 9 14 8 -12 43 -11 42 5 6 6 5 37 6 38 6 0 30 0 30 -30
3 -30 4 -7 11 -8 12 0 43 0 42 -56 0 -55 0 2 -17z"/>
</g>
</svg>
