<?xml version="1.0" standalone="no"?>
<!DOCTYPE svg PUBLIC "-//W3C//DTD SVG 20010904//EN"
 "http://www.w3.org/TR/2001/REC-SVG-20010904/DTD/svg10.dtd">
<svg version="1.0" xmlns="http://www.w3.org/2000/svg"
 width="30.000000pt" height="37.000000pt" viewBox="0 0 30.000000 37.000000"
 preserveAspectRatio="xMidYMid meet">
<metadata>
Created by potrace 1.16, written by Peter Selinger 2001-2019
</metadata>
<g transform="translate(0.000000,37.000000) scale(0.100000,-0.100000)"
fill="#000000" stroke="none">
<path d="M184 359 l-5 -8 6 -23 6 -24 -19 -22 -20 -23 -16 16 -16 16 0 30 0
29 -55 0 -55 0 0 -19 0 -18 -6 -32 -6 -31 30 0 31 0 15 -15 15 -16 -5 -14 -6
-15 -28 0 -27 0 -6 -51 -6 -52 5 -8 5 -9 35 0 34 0 0 -29 0 -29 16 -6 16 -6
29 0 28 0 9 33 8 32 38 3 39 3 13 14 14 14 0 39 0 40 -37 9 -38 9 -3 17 -3 17
20 0 20 0 15 16 16 15 0 53 0 52 -51 0 -50 0 -5 -7z"/>
</g>
</svg>
