<?xml version="1.0" standalone="no"?>
<!DOCTYPE svg PUBLIC "-//W3C//DTD SVG 20010904//EN"
 "http://www.w3.org/TR/2001/REC-SVG-20010904/DTD/svg10.dtd">
<svg version="1.0" xmlns="http://www.w3.org/2000/svg"
 width="28.000000pt" height="35.000000pt" viewBox="0 0 28.000000 35.000000"
 preserveAspectRatio="xMidYMid meet">
<metadata>
Created by potrace 1.16, written by Peter Selinger 2001-2019
</metadata>
<g transform="translate(0.000000,35.000000) scale(0.100000,-0.100000)"
fill="#000000" stroke="none">
<path d="M189 342 l-1 -7 1 -25 2 -26 -19 -22 -19 -22 -11 0 -11 0 -15 16 -16
15 0 30 0 29 -45 0 -45 0 0 -24 0 -24 -6 -16 -6 -16 30 0 31 0 15 -16 16 -15
0 -9 0 -8 -6 -16 -6 -16 -28 0 -28 0 -4 -42 -5 -43 4 -7 4 -8 35 0 34 0 0 -29
0 -29 16 -6 16 -6 19 0 18 0 9 33 8 32 38 3 39 3 13 14 14 14 0 29 0 30 -37 9
-38 9 -3 31 -3 31 19 -5 19 -5 17 17 16 16 0 47 0 46 -11 -11 -11 -11 -29 8
-29 9 -1 -7z"/>
</g>
</svg>
