<?xml version="1.0" standalone="no"?>
<!DOCTYPE svg PUBLIC "-//W3C//DTD SVG 20010904//EN"
 "http://www.w3.org/TR/2001/REC-SVG-20010904/DTD/svg10.dtd">
<svg version="1.0" xmlns="http://www.w3.org/2000/svg"
 width="35.000000pt" height="28.000000pt" viewBox="0 0 35.000000 28.000000"
 preserveAspectRatio="xMidYMid meet">
<metadata>
Created by potrace 1.16, written by Peter Selinger 2001-2019
</metadata>
<g transform="translate(0.000000,28.000000) scale(0.100000,-0.100000)"
fill="#000000" stroke="none">
<path d="M4 258 l6 -23 0 -24 0 -23 18 4 18 5 10 -11 10 -11 7 -12 7 -11 -16
-16 -15 -16 -25 6 -24 6 0 -28 0 -29 6 -38 7 -37 43 0 43 0 15 16 16 15 0 20
0 19 10 0 10 0 12 -25 11 -24 43 -7 44 -6 15 6 15 5 0 35 0 35 16 15 15 16 15
0 14 0 0 35 0 35 -19 0 -19 0 -16 6 -16 6 0 40 0 40 -42 -7 -43 -7 -8 -5 -9
-5 5 -19 5 -19 -24 -6 -25 -6 -6 6 -6 6 1 30 1 30 -66 0 -65 0 6 -22z"/>
</g>
</svg>
