<?xml version="1.0" standalone="no"?>
<!DOCTYPE svg PUBLIC "-//W3C//DTD SVG 20010904//EN"
 "http://www.w3.org/TR/2001/REC-SVG-20010904/DTD/svg10.dtd">
<svg version="1.0" xmlns="http://www.w3.org/2000/svg"
 width="33.000000pt" height="26.000000pt" viewBox="0 0 33.000000 26.000000"
 preserveAspectRatio="xMidYMid meet">
<metadata>
Created by potrace 1.16, written by Peter Selinger 2001-2019
</metadata>
<g transform="translate(0.000000,26.000000) scale(0.100000,-0.100000)"
fill="#000000" stroke="none">
<path d="M8 226 l4 -35 14 6 15 5 19 -22 20 -23 0 -13 0 -13 -17 -16 -16 -17
-24 5 -23 4 0 -16 0 -16 6 -38 7 -37 33 0 33 0 16 16 17 17 -5 18 -5 19 24 0
24 0 12 -24 11 -25 38 -6 38 -7 11 7 10 6 0 34 0 34 16 15 15 16 15 0 14 0 0
25 0 25 -19 0 -19 0 -16 6 -16 6 0 39 0 39 -27 -6 -28 -6 -12 -3 -13 -4 7 -17
6 -16 -14 -9 -14 -9 -26 0 -27 0 -6 25 -7 26 6 9 6 10 -53 0 -54 0 4 -34z"/>
</g>
</svg>
