<?xml version="1.0" standalone="no"?>
<!DOCTYPE svg PUBLIC "-//W3C//DTD SVG 20010904//EN"
 "http://www.w3.org/TR/2001/REC-SVG-20010904/DTD/svg10.dtd">
<svg version="1.0" xmlns="http://www.w3.org/2000/svg"
 width="36.000000pt" height="36.000000pt" viewBox="0 0 36.000000 36.000000"
 preserveAspectRatio="xMidYMid meet">
<metadata>
Created by potrace 1.16, written by Peter Selinger 2001-2019
</metadata>
<g transform="translate(0.000000,36.000000) scale(0.100000,-0.100000)"
fill="#000000" stroke="none">
<path d="M3 339 l7 -24 0 -31 0 -32 34 -6 34 -7 5 -12 4 -12 -4 -12 -5 -13
-27 0 -28 0 -11 -51 -12 -51 0 -9 0 -9 49 0 49 0 6 -35 7 -35 34 0 33 0 16 6
16 6 0 23 0 22 40 7 40 6 0 20 0 20 -9 0 -8 0 -7 32 -6 31 5 5 5 6 43 5 42 6
3 43 3 42 -30 0 -31 0 0 35 0 35 -20 0 -21 0 -36 -15 -36 -15 -12 -17 -12 -16
-25 6 -25 7 5 25 4 25 -38 0 -39 0 -24 7 -24 6 6 -24z"/>
</g>
</svg>
