<?xml version="1.0" standalone="no"?>
<!DOCTYPE svg PUBLIC "-//W3C//DTD SVG 20010904//EN"
 "http://www.w3.org/TR/2001/REC-SVG-20010904/DTD/svg10.dtd">
<svg version="1.0" xmlns="http://www.w3.org/2000/svg"
 width="42.000000pt" height="28.000000pt" viewBox="0 0 42.000000 28.000000"
 preserveAspectRatio="xMidYMid meet">
<metadata>
Created by potrace 1.16, written by Peter Selinger 2001-2019
</metadata>
<g transform="translate(0.000000,28.000000) scale(0.100000,-0.100000)"
fill="#000000" stroke="none">
<path d="M88 273 l-18 -4 0 -45 0 -44 -26 6 -26 7 -9 -14 -9 -14 0 -18 0 -18
14 -15 15 -14 25 0 26 0 0 -50 0 -50 140 0 140 0 0 44 0 44 30 7 30 7 0 34 0
34 -21 0 -20 0 -14 14 -13 13 5 43 6 43 -24 -7 -24 -7 -33 -6 -33 -6 6 -27 6
-26 -24 -11 -24 -11 -14 8 -13 9 2 35 3 36 -23 0 -23 0 -20 4 -20 4 -17 -5z"/>
</g>
</svg>
