<?xml version="1.0" standalone="no"?>
<!DOCTYPE svg PUBLIC "-//W3C//DTD SVG 20010904//EN"
 "http://www.w3.org/TR/2001/REC-SVG-20010904/DTD/svg10.dtd">
<svg version="1.0" xmlns="http://www.w3.org/2000/svg"
 width="29.000000pt" height="28.000000pt" viewBox="0 0 29.000000 28.000000"
 preserveAspectRatio="xMidYMid meet">
<metadata>
Created by potrace 1.16, written by Peter Selinger 2001-2019
</metadata>
<g transform="translate(0.000000,28.000000) scale(0.100000,-0.100000)"
fill="#000000" stroke="none">
<path d="M0 230 l0 -49 40 -11 40 -11 0 -7 0 -7 -8 -11 -7 -11 -32 -8 -33 -7
0 -44 0 -44 28 -6 27 -6 17 -5 18 -4 21 6 20 7 -5 26 -6 27 9 13 8 14 18 -4
19 -3 7 -29 8 -29 13 -8 13 -9 31 0 32 0 6 16 6 16 0 39 0 39 -40 6 -41 7 3
16 4 16 29 -2 29 -2 8 12 8 12 0 43 0 43 -22 -7 -23 -6 -32 -13 -31 -13 -7
-21 -6 -21 -19 0 -18 0 -16 6 -16 6 0 29 0 30 -12 3 -13 4 -37 6 -38 5 0 -49z"/>
</g>
</svg>
