<?xml version="1.0" standalone="no"?>
<!DOCTYPE svg PUBLIC "-//W3C//DTD SVG 20010904//EN"
 "http://www.w3.org/TR/2001/REC-SVG-20010904/DTD/svg10.dtd">
<svg version="1.0" xmlns="http://www.w3.org/2000/svg"
 width="40.000000pt" height="26.000000pt" viewBox="0 0 40.000000 26.000000"
 preserveAspectRatio="xMidYMid meet">
<metadata>
Created by potrace 1.16, written by Peter Selinger 2001-2019
</metadata>
<g transform="translate(0.000000,26.000000) scale(0.100000,-0.100000)"
fill="#000000" stroke="none">
<path d="M88 252 l-18 -3 0 -46 0 -45 -29 5 -30 6 -6 -19 -6 -20 15 -15 15
-15 25 0 26 0 0 -50 0 -50 130 0 130 0 0 44 0 44 30 7 30 7 0 24 0 24 -21 0
-20 0 -16 15 -15 15 7 38 6 39 -43 -11 -44 -10 4 -26 4 -26 -27 -12 -26 -12
-9 0 -9 0 -16 16 -16 16 6 28 6 28 -33 4 -33 3 -17 -3z"/>
</g>
</svg>
