<?xml version="1.0" standalone="no"?>
<!DOCTYPE svg PUBLIC "-//W3C//DTD SVG 20010904//EN"
 "http://www.w3.org/TR/2001/REC-SVG-20010904/DTD/svg10.dtd">
<svg version="1.0" xmlns="http://www.w3.org/2000/svg"
 width="44.000000pt" height="30.000000pt" viewBox="0 0 44.000000 30.000000"
 preserveAspectRatio="xMidYMid meet">
<metadata>
Created by potrace 1.16, written by Peter Selinger 2001-2019
</metadata>
<g transform="translate(0.000000,30.000000) scale(0.100000,-0.100000)"
fill="#000000" stroke="none">
<path d="M87 294 l-7 -7 0 -28 0 -27 -6 -16 -6 -16 -34 0 -34 0 0 -32 0 -33 9
-14 9 -14 29 5 29 4 11 -12 11 -11 -5 -41 -5 -41 35 -6 35 -7 22 7 22 7 -5 34
-6 34 10 0 9 0 7 -2 7 -3 -3 -24 -3 -24 14 -8 13 -9 50 0 50 0 12 8 12 8 9 39
8 40 27 3 27 3 0 44 0 44 -35 7 -35 6 0 39 0 39 -27 0 -28 0 -38 -6 -38 -7 2
-16 1 -16 -1 -11 -1 -12 -15 -6 -14 -5 -16 15 -15 15 0 25 0 24 -22 0 -23 0
-20 6 -21 5 -7 -7z"/>
</g>
</svg>
