<?xml version="1.0" standalone="no"?>
<!DOCTYPE svg PUBLIC "-//W3C//DTD SVG 20010904//EN"
 "http://www.w3.org/TR/2001/REC-SVG-20010904/DTD/svg10.dtd">
<svg version="1.0" xmlns="http://www.w3.org/2000/svg"
 width="27.000000pt" height="33.000000pt" viewBox="0 0 27.000000 33.000000"
 preserveAspectRatio="xMidYMid meet">
<metadata>
Created by potrace 1.16, written by Peter Selinger 2001-2019
</metadata>
<g transform="translate(0.000000,33.000000) scale(0.100000,-0.100000)"
fill="#000000" stroke="none">
<path d="M10 281 l0 -38 26 5 26 5 9 -14 9 -14 0 -18 0 -18 -14 -15 -15 -14
-9 0 -9 0 -7 -38 -6 -37 0 -12 0 -13 30 0 30 0 0 -16 0 -15 14 -15 15 -14 21
0 21 0 15 15 15 15 -6 21 -7 22 48 -7 49 -6 -3 50 -4 50 -24 0 -24 0 0 10 0
10 -15 0 -15 0 0 11 0 10 14 15 15 14 25 0 26 0 0 44 0 43 -49 -10 -49 -9 5
-14 5 -13 -16 -16 -16 -16 -20 6 -20 6 0 35 0 34 -45 0 -45 0 0 -39z"/>
</g>
</svg>
