<?xml version="1.0" standalone="no"?>
<!DOCTYPE svg PUBLIC "-//W3C//DTD SVG 20010904//EN"
 "http://www.w3.org/TR/2001/REC-SVG-20010904/DTD/svg10.dtd">
<svg version="1.0" xmlns="http://www.w3.org/2000/svg"
 width="31.000000pt" height="30.000000pt" viewBox="0 0 31.000000 30.000000"
 preserveAspectRatio="xMidYMid meet">
<metadata>
Created by potrace 1.16, written by Peter Selinger 2001-2019
</metadata>
<g transform="translate(0.000000,30.000000) scale(0.100000,-0.100000)"
fill="#000000" stroke="none">
<path d="M0 241 l0 -60 32 -9 32 -8 3 -11 4 -11 -36 -6 -35 -7 0 -54 0 -54 18
-5 17 -5 37 -6 36 -7 21 7 22 7 -3 33 -2 34 6 7 7 6 10 -7 11 -6 0 -19 0 -19
16 -15 15 -16 44 0 43 0 6 16 6 16 0 49 0 49 -40 6 -40 6 5 8 5 7 26 -5 26 -5
9 14 9 14 0 53 0 52 -13 0 -13 0 -48 -16 -48 -16 -10 -24 -11 -24 -8 0 -7 0
-16 6 -16 6 0 29 0 30 -12 4 -13 4 -47 6 -48 6 0 -60z"/>
</g>
</svg>
