<?xml version="1.0" standalone="no"?>
<!DOCTYPE svg PUBLIC "-//W3C//DTD SVG 20010904//EN"
 "http://www.w3.org/TR/2001/REC-SVG-20010904/DTD/svg10.dtd">
<svg version="1.0" xmlns="http://www.w3.org/2000/svg"
 width="29.000000pt" height="35.000000pt" viewBox="0 0 29.000000 35.000000"
 preserveAspectRatio="xMidYMid meet">
<metadata>
Created by potrace 1.16, written by Peter Selinger 2001-2019
</metadata>
<g transform="translate(0.000000,35.000000) scale(0.100000,-0.100000)"
fill="#000000" stroke="none">
<path d="M3 329 l7 -24 0 -33 0 -34 29 7 29 6 7 -20 6 -21 -15 -15 -15 -15 -9
0 -9 0 -7 -38 -6 -37 0 -22 0 -23 30 0 30 0 0 -16 0 -15 14 -15 15 -14 31 0
31 0 15 14 14 15 0 20 0 21 47 -7 46 -6 -6 24 -7 24 0 38 0 37 -25 0 -25 0 0
10 0 10 -16 0 -15 0 15 15 15 15 25 0 26 0 0 56 0 56 -22 -5 -23 -6 -38 -7
-39 -7 5 -16 4 -17 -11 -10 -11 -11 -13 5 -12 4 0 34 0 34 -37 0 -38 0 -24 7
-24 6 6 -24z"/>
</g>
</svg>
