<?xml version="1.0" standalone="no"?>
<!DOCTYPE svg PUBLIC "-//W3C//DTD SVG 20010904//EN"
 "http://www.w3.org/TR/2001/REC-SVG-20010904/DTD/svg10.dtd">
<svg version="1.0" xmlns="http://www.w3.org/2000/svg"
 width="34.000000pt" height="37.000000pt" viewBox="0 0 34.000000 37.000000"
 preserveAspectRatio="xMidYMid meet">
<metadata>
Created by potrace 1.16, written by Peter Selinger 2001-2019
</metadata>
<g transform="translate(0.000000,37.000000) scale(0.100000,-0.100000)"
fill="#000000" stroke="none">
<path d="M70 326 l0 -45 -15 -14 -15 -15 -20 5 -21 6 3 -44 3 -43 38 -9 39 -9
-7 -44 -6 -44 23 0 23 0 21 -6 22 -6 6 -29 6 -29 34 0 34 0 6 16 6 16 0 27 0
27 40 -4 40 -4 0 20 0 19 -6 31 -6 31 -29 6 -29 7 0 10 0 9 15 15 14 15 26 -7
25 -6 0 60 0 60 -22 6 -23 6 -34 0 -33 0 4 -23 4 -23 -12 -12 -13 -12 -11 0
-11 0 -15 14 -14 15 0 15 0 16 -30 0 -30 0 0 10 0 10 -15 0 -15 0 0 -44z"/>
</g>
</svg>
