<?xml version="1.0" standalone="no"?>
<!DOCTYPE svg PUBLIC "-//W3C//DTD SVG 20010904//EN"
 "http://www.w3.org/TR/2001/REC-SVG-20010904/DTD/svg10.dtd">
<svg version="1.0" xmlns="http://www.w3.org/2000/svg"
 width="34.000000pt" height="34.000000pt" viewBox="0 0 34.000000 34.000000"
 preserveAspectRatio="xMidYMid meet">
<metadata>
Created by potrace 1.16, written by Peter Selinger 2001-2019
</metadata>
<g transform="translate(0.000000,34.000000) scale(0.100000,-0.100000)"
fill="#000000" stroke="none">
<path d="M10 291 l0 -39 34 -6 34 -7 6 -16 6 -16 -5 -18 -6 -19 -29 0 -28 0
-6 -36 -7 -35 -6 -15 -5 -14 57 0 56 0 -6 -10 -6 -9 7 -26 6 -25 27 0 26 0 13
9 14 8 -4 19 -3 18 43 9 42 8 0 10 0 9 -9 0 -9 0 -7 41 -7 40 6 7 6 6 43 5 42
6 3 34 3 34 -30 -6 -31 -6 0 39 0 40 -10 0 -11 0 -33 -14 -34 -14 -21 -21 -20
-20 -31 11 -32 10 6 24 6 24 -45 0 -45 0 0 -39z"/>
</g>
</svg>
