<?xml version="1.0" standalone="no"?>
<!DOCTYPE svg PUBLIC "-//W3C//DTD SVG 20010904//EN"
 "http://www.w3.org/TR/2001/REC-SVG-20010904/DTD/svg10.dtd">
<svg version="1.0" xmlns="http://www.w3.org/2000/svg"
 width="36.000000pt" height="29.000000pt" viewBox="0 0 36.000000 29.000000"
 preserveAspectRatio="xMidYMid meet">
<metadata>
Created by potrace 1.16, written by Peter Selinger 2001-2019
</metadata>
<g transform="translate(0.000000,29.000000) scale(0.100000,-0.100000)"
fill="#000000" stroke="none">
<path d="M7 283 l-7 -6 0 -44 0 -43 19 0 19 0 16 -6 16 -6 0 -10 0 -9 -14 -15
-15 -14 -20 0 -21 0 0 -65 0 -65 54 0 55 0 15 16 16 15 0 12 0 12 8 -12 8 -13
57 -11 57 -12 15 13 15 12 0 24 0 23 16 15 15 16 15 0 14 0 0 31 0 30 -14 15
-15 14 -26 0 -26 0 7 45 6 45 -139 0 -140 0 -6 -7z"/>
</g>
</svg>
