<?xml version="1.0" standalone="no"?>
<!DOCTYPE svg PUBLIC "-//W3C//DTD SVG 20010904//EN"
 "http://www.w3.org/TR/2001/REC-SVG-20010904/DTD/svg10.dtd">
<svg version="1.0" xmlns="http://www.w3.org/2000/svg"
 width="42.000000pt" height="28.000000pt" viewBox="0 0 42.000000 28.000000"
 preserveAspectRatio="xMidYMid meet">
<metadata>
Created by potrace 1.16, written by Peter Selinger 2001-2019
</metadata>
<g transform="translate(0.000000,28.000000) scale(0.100000,-0.100000)"
fill="#000000" stroke="none">
<path d="M83 264 l-5 -13 6 -10 6 -10 -11 -25 -12 -26 -34 0 -33 0 0 -22 0
-23 9 -14 9 -14 26 7 27 7 15 -16 16 -15 -7 -39 -6 -38 26 -7 27 -7 19 6 20 7
-7 33 -6 33 21 7 21 6 11 -6 11 -7 -7 -26 -6 -25 13 -8 13 -9 40 0 40 0 12 8
12 8 9 39 8 40 27 3 27 3 0 34 0 34 -35 7 -35 6 0 39 0 39 -17 0 -18 0 -36 -6
-37 -6 5 -18 5 -17 -17 -17 -16 -16 -14 0 -14 0 -15 16 -16 15 0 24 0 23 -36
4 -36 4 -5 -12z"/>
</g>
</svg>
