<?xml version="1.0" standalone="no"?>
<!DOCTYPE svg PUBLIC "-//W3C//DTD SVG 20010904//EN"
 "http://www.w3.org/TR/2001/REC-SVG-20010904/DTD/svg10.dtd">
<svg version="1.0" xmlns="http://www.w3.org/2000/svg"
 width="34.000000pt" height="27.000000pt" viewBox="0 0 34.000000 27.000000"
 preserveAspectRatio="xMidYMid meet">
<metadata>
Created by potrace 1.16, written by Peter Selinger 2001-2019
</metadata>
<g transform="translate(0.000000,27.000000) scale(0.100000,-0.100000)"
fill="#000000" stroke="none">
<path d="M7 263 l-7 -6 0 -34 0 -33 19 0 19 0 16 -6 16 -6 0 -20 0 -19 -14
-15 -15 -14 -20 0 -21 0 0 -55 0 -55 44 0 45 0 16 16 16 17 -5 23 -6 24 10 0
10 0 12 -24 11 -25 50 -11 50 -10 13 11 14 11 0 24 0 23 16 15 15 16 15 0 14
0 0 21 0 20 -14 15 -15 14 -27 0 -27 0 6 45 7 45 -129 0 -128 0 -6 -7z"/>
</g>
</svg>
