<?xml version="1.0" standalone="no"?>
<!DOCTYPE svg PUBLIC "-//W3C//DTD SVG 20010904//EN"
 "http://www.w3.org/TR/2001/REC-SVG-20010904/DTD/svg10.dtd">
<svg version="1.0" xmlns="http://www.w3.org/2000/svg"
 width="28.000000pt" height="29.000000pt" viewBox="0 0 28.000000 29.000000"
 preserveAspectRatio="xMidYMid meet">
<metadata>
Created by potrace 1.16, written by Peter Selinger 2001-2019
</metadata>
<g transform="translate(0.000000,29.000000) scale(0.100000,-0.100000)"
fill="#000000" stroke="none">
<path d="M0 240 l0 -52 29 7 29 6 7 -20 6 -21 -15 -15 -15 -15 -9 0 -9 0 -12
-56 -13 -57 13 -8 14 -9 38 0 38 0 16 15 15 16 -6 24 -6 25 10 0 10 0 0 -19 0
-19 28 -10 27 -11 36 -6 36 -7 6 39 7 38 0 23 0 24 -28 -7 -28 -6 -22 19 -22
19 0 12 0 11 15 0 15 0 0 9 0 9 21 -5 21 -6 9 14 9 14 0 33 0 32 -17 0 -18 0
-37 -11 -38 -10 0 -14 0 -14 -21 -6 -21 -7 -5 6 -6 6 -1 27 -1 28 -52 3 -53 3
0 -51z"/>
</g>
</svg>
