<?xml version="1.0" standalone="no"?>
<!DOCTYPE svg PUBLIC "-//W3C//DTD SVG 20010904//EN"
 "http://www.w3.org/TR/2001/REC-SVG-20010904/DTD/svg10.dtd">
<svg version="1.0" xmlns="http://www.w3.org/2000/svg"
 width="26.000000pt" height="27.000000pt" viewBox="0 0 26.000000 27.000000"
 preserveAspectRatio="xMidYMid meet">
<metadata>
Created by potrace 1.16, written by Peter Selinger 2001-2019
</metadata>
<g transform="translate(0.000000,27.000000) scale(0.100000,-0.100000)"
fill="#000000" stroke="none">
<path d="M0 232 l0 -39 26 5 26 5 9 -14 9 -14 0 -18 0 -18 -14 -15 -15 -14 -9
0 -9 0 -10 -47 -11 -48 11 -7 12 -8 28 0 28 0 14 13 13 13 -5 27 -5 27 21 0
21 0 0 -19 0 -19 28 -10 27 -10 26 -6 26 -6 7 38 6 37 0 11 0 11 -28 -5 -27
-4 -23 20 -22 19 0 22 0 21 15 0 15 0 0 11 0 11 24 -6 24 -6 6 16 6 16 0 19 0
19 -7 0 -8 0 -37 -11 -38 -10 0 -13 0 -14 -16 -6 -16 -6 -18 0 -19 0 -6 19 -6
19 3 13 3 14 -42 3 -43 3 0 -39z"/>
</g>
</svg>
