<?xml version="1.0" standalone="no"?>
<!DOCTYPE svg PUBLIC "-//W3C//DTD SVG 20010904//EN"
 "http://www.w3.org/TR/2001/REC-SVG-20010904/DTD/svg10.dtd">
<svg version="1.0" xmlns="http://www.w3.org/2000/svg"
 width="36.000000pt" height="43.000000pt" viewBox="0 0 36.000000 43.000000"
 preserveAspectRatio="xMidYMid meet">
<metadata>
Created by potrace 1.16, written by Peter Selinger 2001-2019
</metadata>
<g transform="translate(0.000000,43.000000) scale(0.100000,-0.100000)"
fill="#000000" stroke="none">
<path d="M193 423 l-13 -5 0 -21 0 -22 -9 -13 -8 -14 -44 4 -44 3 -1 -35 -1
-35 -1 -11 -2 -11 -26 5 -26 5 -9 -14 -9 -14 0 -12 0 -12 16 -15 15 -16 30 0
30 0 -6 -44 -7 -43 24 -6 23 -7 23 0 24 0 -7 -29 -6 -29 16 -16 16 -16 9 0 9
0 26 12 27 12 -4 28 -5 28 15 0 15 0 38 12 39 11 0 31 0 31 -8 10 -7 10 -27
12 -28 13 0 24 0 24 19 -5 18 -5 17 17 17 17 -3 37 -3 36 -35 3 -35 3 -27 11
-28 10 0 24 0 24 -12 -1 -13 -1 -12 -5z"/>
</g>
</svg>
