<?xml version="1.0" standalone="no"?>
<!DOCTYPE svg PUBLIC "-//W3C//DTD SVG 20010904//EN"
 "http://www.w3.org/TR/2001/REC-SVG-20010904/DTD/svg10.dtd">
<svg version="1.0" xmlns="http://www.w3.org/2000/svg"
 width="44.000000pt" height="43.000000pt" viewBox="0 0 44.000000 43.000000"
 preserveAspectRatio="xMidYMid meet">
<metadata>
Created by potrace 1.16, written by Peter Selinger 2001-2019
</metadata>
<g transform="translate(0.000000,43.000000) scale(0.100000,-0.100000)"
fill="#000000" stroke="none">
<path d="M173 410 l5 -20 -15 -15 -14 -15 -40 0 -39 0 0 -40 0 -40 -19 0 -20
0 -15 -16 -16 -15 0 -33 0 -33 25 -11 26 -12 14 0 14 0 -6 -34 -5 -33 23 -6
24 -7 23 0 22 0 0 -24 0 -25 16 -15 15 -16 24 0 24 0 15 16 16 15 0 19 0 18
43 7 42 7 7 12 8 11 0 33 0 32 20 0 20 0 0 10 0 10 15 0 15 0 0 31 0 30 -14
15 -15 14 -26 0 -27 0 6 38 6 37 -9 14 -9 14 -16 -6 -16 -6 -29 5 -29 6 -11
24 -11 24 -36 0 -36 0 5 -20z"/>
</g>
</svg>
