<?xml version="1.0" standalone="no"?>
<!DOCTYPE svg PUBLIC "-//W3C//DTD SVG 20010904//EN"
 "http://www.w3.org/TR/2001/REC-SVG-20010904/DTD/svg10.dtd">
<svg version="1.0" xmlns="http://www.w3.org/2000/svg"
 width="38.000000pt" height="45.000000pt" viewBox="0 0 38.000000 45.000000"
 preserveAspectRatio="xMidYMid meet">
<metadata>
Created by potrace 1.16, written by Peter Selinger 2001-2019
</metadata>
<g transform="translate(0.000000,45.000000) scale(0.100000,-0.100000)"
fill="#000000" stroke="none">
<path d="M193 443 l-13 -5 0 -21 0 -22 -8 -13 -9 -13 -44 3 -44 3 -1 -40 0
-40 -30 -3 -29 -4 -7 -11 -8 -12 0 -22 0 -22 16 -15 15 -16 28 0 29 0 -5 -44
-5 -43 23 -6 24 -7 22 0 22 0 -5 -15 -6 -15 6 -25 6 -25 25 -6 25 -6 30 12 30
12 0 27 0 27 50 13 50 13 0 41 0 42 -8 10 -7 10 -27 12 -28 13 0 10 0 10 19 0
20 0 16 16 16 16 -3 47 -3 46 -35 3 -35 3 -27 11 -28 10 0 24 0 24 -22 -1 -23
-1 -12 -5z"/>
</g>
</svg>
