<?xml version="1.0" standalone="no"?>
<!DOCTYPE svg PUBLIC "-//W3C//DTD SVG 20010904//EN"
 "http://www.w3.org/TR/2001/REC-SVG-20010904/DTD/svg10.dtd">
<svg version="1.0" xmlns="http://www.w3.org/2000/svg"
 width="42.000000pt" height="41.000000pt" viewBox="0 0 42.000000 41.000000"
 preserveAspectRatio="xMidYMid meet">
<metadata>
Created by potrace 1.16, written by Peter Selinger 2001-2019
</metadata>
<g transform="translate(0.000000,41.000000) scale(0.100000,-0.100000)"
fill="#000000" stroke="none">
<path d="M177 391 l5 -18 -17 -17 -16 -16 -40 0 -39 0 0 -40 0 -40 -19 0 -20
0 -15 -16 -16 -15 0 -24 0 -23 29 -12 30 -12 12 8 12 7 -6 -40 -7 -41 23 -6
22 -6 23 0 22 0 0 -24 0 -25 16 -15 15 -16 14 0 14 0 16 16 17 17 -5 18 -5 17
49 7 49 7 6 23 6 24 -6 10 -6 9 6 15 5 15 20 -5 19 -5 0 11 0 11 15 0 15 0 0
21 0 20 -15 16 -16 15 -25 -5 -26 -5 3 42 2 41 -2 13 -1 13 -10 -6 -11 -7 -38
7 -38 6 -11 25 -12 24 -24 0 -24 0 5 -19z"/>
</g>
</svg>
