<?xml version="1.0" standalone="no"?>
<!DOCTYPE svg PUBLIC "-//W3C//DTD SVG 20010904//EN"
 "http://www.w3.org/TR/2001/REC-SVG-20010904/DTD/svg10.dtd">
<svg version="1.0" xmlns="http://www.w3.org/2000/svg"
 width="39.000000pt" height="44.000000pt" viewBox="0 0 39.000000 44.000000"
 preserveAspectRatio="xMidYMid meet">
<metadata>
Created by potrace 1.16, written by Peter Selinger 2001-2019
</metadata>
<g transform="translate(0.000000,44.000000) scale(0.100000,-0.100000)"
fill="#000000" stroke="none">
<path d="M180 413 l0 -28 -9 -14 -9 -13 -40 7 -41 7 6 -50 5 -49 -46 -7 -47
-7 3 -27 3 -26 39 -9 38 -10 -6 -54 -6 -55 45 6 45 7 0 -20 0 -20 12 -26 11
-25 33 0 34 0 6 28 6 27 4 12 3 13 36 0 36 0 12 13 12 12 13 28 12 28 0 19 0
20 -22 4 -23 5 -20 3 -20 3 -3 18 -3 17 29 0 30 0 6 16 6 16 0 43 0 43 -37 6
-38 7 -27 11 -28 10 0 19 0 19 -30 0 -30 0 0 -27z"/>
</g>
</svg>
