<?xml version="1.0" standalone="no"?>
<!DOCTYPE svg PUBLIC "-//W3C//DTD SVG 20010904//EN"
 "http://www.w3.org/TR/2001/REC-SVG-20010904/DTD/svg10.dtd">
<svg version="1.0" xmlns="http://www.w3.org/2000/svg"
 width="37.000000pt" height="42.000000pt" viewBox="0 0 37.000000 42.000000"
 preserveAspectRatio="xMidYMid meet">
<metadata>
Created by potrace 1.16, written by Peter Selinger 2001-2019
</metadata>
<g transform="translate(0.000000,42.000000) scale(0.100000,-0.100000)"
fill="#000000" stroke="none">
<path d="M183 393 l5 -27 -15 -14 -14 -14 -37 4 -37 5 3 -47 4 -47 -47 -7 -46
-7 3 -17 3 -16 39 -9 38 -10 -4 -53 -5 -53 44 6 43 6 0 -21 0 -21 12 -26 11
-25 23 0 23 0 6 20 6 20 -7 11 -7 11 14 9 14 9 33 0 33 0 13 13 12 12 13 33
14 33 -7 6 -6 6 -37 6 -38 6 -3 28 -3 27 29 0 30 0 6 16 6 16 0 33 0 33 -37 6
-38 7 -27 11 -28 10 0 19 0 19 -21 0 -21 0 5 -27z"/>
</g>
</svg>
