<?xml version="1.0" standalone="no"?>
<!DOCTYPE svg PUBLIC "-//W3C//DTD SVG 20010904//EN"
 "http://www.w3.org/TR/2001/REC-SVG-20010904/DTD/svg10.dtd">
<svg version="1.0" xmlns="http://www.w3.org/2000/svg"
 width="41.000000pt" height="36.000000pt" viewBox="0 0 41.000000 36.000000"
 preserveAspectRatio="xMidYMid meet">
<metadata>
Created by potrace 1.16, written by Peter Selinger 2001-2019
</metadata>
<g transform="translate(0.000000,36.000000) scale(0.100000,-0.100000)"
fill="#000000" stroke="none">
<path d="M170 333 l0 -28 -9 -13 -8 -14 -57 7 -56 7 0 -21 0 -21 10 0 10 0 0
-24 0 -24 -30 -7 -30 -7 0 -34 0 -34 15 0 14 0 12 -42 12 -43 -2 -17 -2 -18
55 0 55 0 15 16 16 15 16 -15 15 -16 49 0 48 0 16 6 16 6 0 19 0 19 -10 0 -10
0 0 23 0 22 9 13 8 13 29 8 29 7 3 27 3 27 -25 0 -25 0 -15 16 -16 15 0 33 0
32 -44 12 -45 12 -3 22 -3 23 -32 3 -33 3 0 -28z m40 -258 l0 -15 -4 0 -4 0
-6 15 -5 15 9 0 10 0 0 -15z"/>
</g>
</svg>
