<?xml version="1.0" standalone="no"?>
<!DOCTYPE svg PUBLIC "-//W3C//DTD SVG 20010904//EN"
 "http://www.w3.org/TR/2001/REC-SVG-20010904/DTD/svg10.dtd">
<svg version="1.0" xmlns="http://www.w3.org/2000/svg"
 width="39.000000pt" height="44.000000pt" viewBox="0 0 39.000000 44.000000"
 preserveAspectRatio="xMidYMid meet">
<metadata>
Created by potrace 1.16, written by Peter Selinger 2001-2019
</metadata>
<g transform="translate(0.000000,44.000000) scale(0.100000,-0.100000)"
fill="#000000" stroke="none">
<path d="M143 414 l4 -25 -15 -16 -16 -15 -53 6 -53 6 0 -52 0 -53 8 -12 7
-11 28 -4 28 -3 0 -10 0 -10 -18 -3 -18 -3 -24 -5 -24 -5 6 -51 6 -51 5 -5 6
-5 50 -5 50 -5 0 -32 0 -33 16 -6 16 -6 15 0 14 0 15 14 14 15 0 14 0 15 33 7
32 6 17 5 16 5 11 31 11 31 0 23 0 24 25 0 25 0 6 24 6 25 -7 20 -6 21 -29 0
-29 0 -3 43 -3 42 -56 13 -57 14 -11 24 -11 24 -21 0 -21 0 5 -26z"/>
</g>
</svg>
