<?xml version="1.0" standalone="no"?>
<!DOCTYPE svg PUBLIC "-//W3C//DTD SVG 20010904//EN"
 "http://www.w3.org/TR/2001/REC-SVG-20010904/DTD/svg10.dtd">
<svg version="1.0" xmlns="http://www.w3.org/2000/svg"
 width="35.000000pt" height="44.000000pt" viewBox="0 0 35.000000 44.000000"
 preserveAspectRatio="xMidYMid meet">
<metadata>
Created by potrace 1.16, written by Peter Selinger 2001-2019
</metadata>
<g transform="translate(0.000000,44.000000) scale(0.100000,-0.100000)"
fill="#000000" stroke="none">
<path d="M161 431 l-14 -9 5 -31 4 -30 -13 -5 -13 -5 -26 10 -27 10 -18 -6
-19 -6 0 -15 0 -14 10 0 10 0 0 -35 0 -35 -31 0 -30 0 3 -37 3 -38 32 0 33 0
1 -10 1 -10 -2 -42 -1 -42 33 -3 33 -3 3 -30 4 -30 11 -7 12 -8 31 0 31 0 11
24 11 24 50 17 51 17 0 63 0 64 -15 14 -15 15 11 4 11 4 2 59 1 60 -39 -3 -39
-3 -21 5 -21 5 0 33 0 33 -25 3 -25 2 -14 -9z"/>
</g>
</svg>
