<?xml version="1.0" standalone="no"?>
<!DOCTYPE svg PUBLIC "-//W3C//DTD SVG 20010904//EN"
 "http://www.w3.org/TR/2001/REC-SVG-20010904/DTD/svg10.dtd">
<svg version="1.0" xmlns="http://www.w3.org/2000/svg"
 width="37.000000pt" height="42.000000pt" viewBox="0 0 37.000000 42.000000"
 preserveAspectRatio="xMidYMid meet">
<metadata>
Created by potrace 1.16, written by Peter Selinger 2001-2019
</metadata>
<g transform="translate(0.000000,42.000000) scale(0.100000,-0.100000)"
fill="#000000" stroke="none">
<path d="M146 396 l5 -23 -17 -18 -18 -17 -53 4 -53 5 0 -41 0 -41 8 -12 7
-11 30 -4 30 -3 0 -20 0 -20 -38 -6 -37 -6 -6 -6 -6 -6 7 -39 6 -40 22 -6 22
-6 33 0 32 0 0 -34 0 -35 20 -6 20 -6 16 16 16 16 -5 13 -6 14 37 7 37 6 17 5
16 5 11 31 11 31 0 23 0 24 24 0 25 0 6 19 5 18 -6 17 -6 16 -28 0 -29 0 -3
43 -3 42 -56 13 -57 14 -11 24 -11 24 -10 0 -10 0 6 -24z"/>
</g>
</svg>
