<?xml version="1.0" standalone="no"?>
<!DOCTYPE svg PUBLIC "-//W3C//DTD SVG 20010904//EN"
 "http://www.w3.org/TR/2001/REC-SVG-20010904/DTD/svg10.dtd">
<svg version="1.0" xmlns="http://www.w3.org/2000/svg"
 width="33.000000pt" height="42.000000pt" viewBox="0 0 33.000000 42.000000"
 preserveAspectRatio="xMidYMid meet">
<metadata>
Created by potrace 1.16, written by Peter Selinger 2001-2019
</metadata>
<g transform="translate(0.000000,42.000000) scale(0.100000,-0.100000)"
fill="#000000" stroke="none">
<path d="M161 411 l-13 -9 7 -30 6 -31 -23 -6 -24 -6 -25 10 -26 9 -14 -9 -14
-9 13 0 12 0 0 -45 0 -45 -31 0 -30 0 3 -27 3 -28 30 2 29 2 8 -12 7 -12 -6
-42 -6 -42 34 -3 34 -3 3 -30 4 -30 11 -7 12 -8 21 0 21 0 11 24 11 24 50 17
51 17 0 51 0 52 -9 13 -8 13 -26 -7 -27 -6 0 15 0 15 29 5 30 6 7 46 6 46 -6
7 -7 6 -39 -3 -40 -2 -20 6 -20 6 3 32 2 31 -15 3 -15 3 -14 -9z"/>
</g>
</svg>
