<?xml version="1.0" standalone="no"?>
<!DOCTYPE svg PUBLIC "-//W3C//DTD SVG 20010904//EN"
 "http://www.w3.org/TR/2001/REC-SVG-20010904/DTD/svg10.dtd">
<svg version="1.0" xmlns="http://www.w3.org/2000/svg"
 width="39.000000pt" height="34.000000pt" viewBox="0 0 39.000000 34.000000"
 preserveAspectRatio="xMidYMid meet">
<metadata>
Created by potrace 1.16, written by Peter Selinger 2001-2019
</metadata>
<g transform="translate(0.000000,34.000000) scale(0.100000,-0.100000)"
fill="#000000" stroke="none">
<path d="M171 318 l2 -23 -8 -19 -8 -19 -59 7 -58 6 0 -10 0 -10 9 0 9 0 5
-21 6 -21 -6 -13 -5 -14 -29 -6 -29 -7 0 -24 0 -24 14 0 14 0 16 -50 17 -51
-6 -9 -6 -10 44 0 44 0 22 19 22 19 -7 26 -6 26 22 0 23 0 -7 -39 -6 -39 16
-6 16 -6 36 0 37 0 15 11 15 11 -12 5 -13 5 0 31 0 32 9 13 8 13 29 8 29 7 3
18 4 18 -19 -6 -19 -6 -22 20 -22 21 0 32 0 33 -44 12 -45 12 -3 22 -3 23 -23
3 -24 4 3 -24z"/>
</g>
</svg>
