<?xml version="1.0" standalone="no"?>
<!DOCTYPE svg PUBLIC "-//W3C//DTD SVG 20010904//EN"
 "http://www.w3.org/TR/2001/REC-SVG-20010904/DTD/svg10.dtd">
<svg version="1.0" xmlns="http://www.w3.org/2000/svg"
 width="43.000000pt" height="35.000000pt" viewBox="0 0 43.000000 35.000000"
 preserveAspectRatio="xMidYMid meet">
<metadata>
Created by potrace 1.16, written by Peter Selinger 2001-2019
</metadata>
<g transform="translate(0.000000,35.000000) scale(0.100000,-0.100000)"
fill="#000000" stroke="none">
<path d="M190 310 l0 -40 -25 -6 -25 -6 -35 6 -35 7 0 -41 0 -40 -19 0 -19 0
-16 -6 -16 -6 0 -33 0 -34 20 -6 20 -6 10 6 10 6 0 -18 0 -18 11 -37 10 -38
53 0 54 0 6 16 6 16 0 19 0 19 19 0 20 0 6 -20 6 -20 24 -6 24 -6 21 7 22 7
-6 37 -6 37 34 0 33 0 17 16 16 17 0 9 0 9 -19 22 -20 23 -21 -7 -20 -6 6 40
6 40 -49 -5 -49 -6 -17 17 -17 16 0 30 0 29 -20 0 -20 0 0 -40z"/>
</g>
</svg>
