<?xml version="1.0" standalone="no"?>
<!DOCTYPE svg PUBLIC "-//W3C//DTD SVG 20010904//EN"
 "http://www.w3.org/TR/2001/REC-SVG-20010904/DTD/svg10.dtd">
<svg version="1.0" xmlns="http://www.w3.org/2000/svg"
 width="45.000000pt" height="37.000000pt" viewBox="0 0 45.000000 37.000000"
 preserveAspectRatio="xMidYMid meet">
<metadata>
Created by potrace 1.16, written by Peter Selinger 2001-2019
</metadata>
<g transform="translate(0.000000,37.000000) scale(0.100000,-0.100000)"
fill="#000000" stroke="none">
<path d="M190 331 l0 -39 -17 -6 -16 -7 -44 7 -43 6 0 -41 0 -41 -19 0 -19 0
-16 -6 -16 -6 0 -44 0 -44 30 -6 30 -6 0 -12 0 -11 11 -38 10 -37 63 0 64 0 6
16 6 16 0 19 0 19 10 0 10 0 0 -9 0 -10 16 -15 15 -16 29 0 28 0 16 6 16 6 0
33 0 33 31 6 30 6 15 14 14 15 0 19 0 19 -19 21 -18 22 -17 0 -16 0 0 36 0 36
-49 -7 -48 -6 -17 16 -16 16 0 30 0 29 -30 0 -30 0 0 -39z"/>
</g>
</svg>
