<?xml version="1.0" standalone="no"?>
<!DOCTYPE svg PUBLIC "-//W3C//DTD SVG 20010904//EN"
 "http://www.w3.org/TR/2001/REC-SVG-20010904/DTD/svg10.dtd">
<svg version="1.0" xmlns="http://www.w3.org/2000/svg"
 width="37.000000pt" height="37.000000pt" viewBox="0 0 37.000000 37.000000"
 preserveAspectRatio="xMidYMid meet">
<metadata>
Created by potrace 1.16, written by Peter Selinger 2001-2019
</metadata>
<g transform="translate(0.000000,37.000000) scale(0.100000,-0.100000)"
fill="#000000" stroke="none">
<path d="M192 343 l3 -28 -20 -19 -20 -18 -47 6 -48 5 0 -44 0 -45 -24 0 -24
0 -6 -22 -6 -23 0 -17 0 -18 15 0 15 0 0 -10 0 -10 24 0 24 0 -5 -41 -6 -41
14 -9 14 -9 37 0 36 0 16 6 16 6 0 39 0 39 10 0 10 0 0 -29 0 -30 16 -15 15
-16 39 0 38 0 16 6 16 6 0 54 0 55 -30 6 -30 6 0 18 0 19 19 0 20 0 15 16 16
15 0 45 0 45 -44 -6 -44 -7 -19 6 -19 6 4 40 4 40 -32 0 -31 0 3 -27z"/>
</g>
</svg>
