<?xml version="1.0" standalone="no"?>
<!DOCTYPE svg PUBLIC "-//W3C//DTD SVG 20010904//EN"
 "http://www.w3.org/TR/2001/REC-SVG-20010904/DTD/svg10.dtd">
<svg version="1.0" xmlns="http://www.w3.org/2000/svg"
 width="35.000000pt" height="35.000000pt" viewBox="0 0 35.000000 35.000000"
 preserveAspectRatio="xMidYMid meet">
<metadata>
Created by potrace 1.16, written by Peter Selinger 2001-2019
</metadata>
<g transform="translate(0.000000,35.000000) scale(0.100000,-0.100000)"
fill="#000000" stroke="none">
<path d="M194 324 l7 -26 -23 -20 -23 -20 -47 4 -48 3 0 -42 0 -43 -24 0 -24
0 -6 -22 -6 -23 0 -7 0 -8 15 0 15 0 0 -10 0 -10 26 0 26 0 -7 -41 -7 -41 13
-9 14 -9 27 0 26 0 16 6 16 6 0 39 0 39 20 0 20 0 0 -29 0 -30 16 -15 15 -16
29 0 28 0 16 6 16 6 0 44 0 45 -30 6 -30 6 0 32 0 33 19 -5 18 -5 17 17 16 16
0 34 0 33 -39 -5 -40 -5 -25 6 -26 6 6 40 7 40 -23 0 -22 0 6 -26z"/>
</g>
</svg>
