<?xml version="1.0" standalone="no"?>
<!DOCTYPE svg PUBLIC "-//W3C//DTD SVG 20010904//EN"
 "http://www.w3.org/TR/2001/REC-SVG-20010904/DTD/svg10.dtd">
<svg version="1.0" xmlns="http://www.w3.org/2000/svg"
 width="42.000000pt" height="33.000000pt" viewBox="0 0 42.000000 33.000000"
 preserveAspectRatio="xMidYMid meet">
<metadata>
Created by potrace 1.16, written by Peter Selinger 2001-2019
</metadata>
<g transform="translate(0.000000,33.000000) scale(0.100000,-0.100000)"
fill="#000000" stroke="none">
<path d="M200 308 l0 -23 -9 -14 -8 -13 -57 3 -57 4 6 -36 6 -36 -40 -7 -41
-6 0 -29 0 -29 16 -6 16 -6 29 0 29 0 -7 -46 -6 -46 14 -9 14 -9 31 0 32 0 6
16 6 16 0 18 0 18 16 6 16 6 9 0 9 0 0 -23 0 -24 25 -11 26 -12 28 0 29 0 6
16 6 16 0 23 0 23 27 7 28 7 7 11 8 12 0 23 0 22 -30 7 -30 6 0 34 0 34 -17
17 -16 16 -28 -2 -28 -3 -22 25 -23 26 -13 0 -13 0 0 -22z"/>
</g>
</svg>
