<?xml version="1.0" standalone="no"?>
<!DOCTYPE svg PUBLIC "-//W3C//DTD SVG 20010904//EN"
 "http://www.w3.org/TR/2001/REC-SVG-20010904/DTD/svg10.dtd">
<svg version="1.0" xmlns="http://www.w3.org/2000/svg"
 width="44.000000pt" height="35.000000pt" viewBox="0 0 44.000000 35.000000"
 preserveAspectRatio="xMidYMid meet">
<metadata>
Created by potrace 1.16, written by Peter Selinger 2001-2019
</metadata>
<g transform="translate(0.000000,35.000000) scale(0.100000,-0.100000)"
fill="#000000" stroke="none">
<path d="M200 328 l0 -23 -9 -14 -9 -14 -57 6 -57 6 5 -38 5 -39 -39 -6 -39
-6 0 -39 0 -39 16 -6 16 -6 26 0 27 0 -4 -46 -3 -46 13 -9 14 -9 41 0 42 0 6
16 6 16 0 18 0 18 15 6 15 5 0 -23 0 -23 25 -11 26 -12 38 0 39 0 6 16 6 16 0
23 0 23 27 7 28 7 7 11 8 12 0 33 0 32 -30 7 -30 6 0 34 0 34 -19 20 -18 20
-26 -6 -26 -7 -22 26 -23 26 -23 0 -23 0 0 -22z"/>
</g>
</svg>
