<?xml version="1.0" standalone="no"?>
<!DOCTYPE svg PUBLIC "-//W3C//DTD SVG 20010904//EN"
 "http://www.w3.org/TR/2001/REC-SVG-20010904/DTD/svg10.dtd">
<svg version="1.0" xmlns="http://www.w3.org/2000/svg"
 width="38.000000pt" height="35.000000pt" viewBox="0 0 38.000000 35.000000"
 preserveAspectRatio="xMidYMid meet">
<metadata>
Created by potrace 1.16, written by Peter Selinger 2001-2019
</metadata>
<g transform="translate(0.000000,35.000000) scale(0.100000,-0.100000)"
fill="#000000" stroke="none">
<path d="M136 332 l-6 -19 6 -18 7 -17 -14 -9 -14 -8 -54 6 -54 6 6 -37 6 -36
13 -13 13 -13 18 -7 18 -7 -3 -16 -3 -16 -35 -12 -35 -12 2 -24 3 -25 5 -21 5
-22 22 -6 23 -6 31 0 32 0 6 16 6 16 0 25 0 24 23 -3 22 -3 3 -22 3 -23 40
-12 41 -12 9 15 10 14 -6 39 -6 38 16 -6 17 -6 24 6 24 6 0 14 0 14 10 0 10 0
0 14 0 14 -16 6 -16 6 -18 0 -18 0 -6 16 -6 16 0 29 0 29 -37 0 -38 0 -13 9
-13 8 -8 29 -7 29 -21 3 -21 3 -6 -19z"/>
</g>
</svg>
