<?xml version="1.0" standalone="no"?>
<!DOCTYPE svg PUBLIC "-//W3C//DTD SVG 20010904//EN"
 "http://www.w3.org/TR/2001/REC-SVG-20010904/DTD/svg10.dtd">
<svg version="1.0" xmlns="http://www.w3.org/2000/svg"
 width="40.000000pt" height="37.000000pt" viewBox="0 0 40.000000 37.000000"
 preserveAspectRatio="xMidYMid meet">
<metadata>
Created by potrace 1.16, written by Peter Selinger 2001-2019
</metadata>
<g transform="translate(0.000000,37.000000) scale(0.100000,-0.100000)"
fill="#000000" stroke="none">
<path d="M134 346 l-6 -26 6 -15 5 -15 -12 -1 -12 -1 -54 2 -54 2 5 -45 5 -46
14 -13 14 -14 18 -7 18 -7 -6 -10 -6 -10 -18 0 -17 0 -18 -13 -17 -12 7 -41 6
-41 8 -13 8 -13 57 -5 57 -5 9 14 9 14 0 28 0 29 13 -4 12 -5 3 -21 3 -20 31
-11 31 -11 22 0 23 0 6 16 6 16 0 28 0 28 35 6 35 7 0 14 0 15 10 0 10 0 0 24
0 24 -16 6 -16 6 -18 0 -18 0 -6 16 -6 16 0 29 0 29 -37 0 -38 0 -13 9 -13 8
-8 29 -7 29 -32 3 -31 3 -7 -25z"/>
</g>
</svg>
