<?xml version="1.0" standalone="no"?>
<!DOCTYPE svg PUBLIC "-//W3C//DTD SVG 20010904//EN"
 "http://www.w3.org/TR/2001/REC-SVG-20010904/DTD/svg10.dtd">
<svg version="1.0" xmlns="http://www.w3.org/2000/svg"
 width="34.000000pt" height="34.000000pt" viewBox="0 0 34.000000 34.000000"
 preserveAspectRatio="xMidYMid meet">
<metadata>
Created by potrace 1.16, written by Peter Selinger 2001-2019
</metadata>
<g transform="translate(0.000000,34.000000) scale(0.100000,-0.100000)"
fill="#000000" stroke="none">
<path d="M103 333 l-13 -5 0 -41 0 -42 -8 -12 -7 -11 -30 1 -30 2 -5 -9 -5 -9
15 -8 15 -8 38 -6 38 -6 -7 -55 -6 -54 41 0 41 0 -6 -24 -6 -24 31 -10 31 -11
27 25 26 24 24 6 23 6 0 22 0 21 -11 38 -10 37 -13 0 -14 0 -6 16 -6 16 0 8 0
8 27 7 28 7 7 11 8 12 0 33 0 32 -37 0 -38 0 -14 -9 -14 -9 7 -11 7 -11 -6
-20 -6 -20 -23 0 -23 0 -11 25 -12 26 0 19 0 20 -27 -1 -28 -1 -12 -5z"/>
</g>
</svg>
