<?xml version="1.0" standalone="no"?>
<!DOCTYPE svg PUBLIC "-//W3C//DTD SVG 20010904//EN"
 "http://www.w3.org/TR/2001/REC-SVG-20010904/DTD/svg10.dtd">
<svg version="1.0" xmlns="http://www.w3.org/2000/svg"
 width="36.000000pt" height="36.000000pt" viewBox="0 0 36.000000 36.000000"
 preserveAspectRatio="xMidYMid meet">
<metadata>
Created by potrace 1.16, written by Peter Selinger 2001-2019
</metadata>
<g transform="translate(0.000000,36.000000) scale(0.100000,-0.100000)"
fill="#000000" stroke="none">
<path d="M103 353 l-13 -5 0 -41 0 -42 -8 -10 -7 -10 -35 0 -35 0 0 -19 0 -19
15 -8 15 -8 37 -6 36 -6 -5 -54 -6 -55 37 0 36 0 0 -24 0 -24 35 -12 34 -11
21 11 20 11 0 9 0 9 35 12 35 13 0 31 0 30 -11 38 -10 37 -13 0 -14 0 -5 14
-6 14 27 7 27 7 7 11 8 12 0 43 0 42 -47 0 -48 0 -13 -9 -14 -8 2 -19 2 -19
-1 -12 -1 -13 -13 0 -14 0 -11 25 -12 26 0 19 0 20 -37 -1 -38 -1 -12 -5z"/>
</g>
</svg>
