<?xml version="1.0" standalone="no"?>
<!DOCTYPE svg PUBLIC "-//W3C//DTD SVG 20010904//EN"
 "http://www.w3.org/TR/2001/REC-SVG-20010904/DTD/svg10.dtd">
<svg version="1.0" xmlns="http://www.w3.org/2000/svg"
 width="41.000000pt" height="37.000000pt" viewBox="0 0 41.000000 37.000000"
 preserveAspectRatio="xMidYMid meet">
<metadata>
Created by potrace 1.16, written by Peter Selinger 2001-2019
</metadata>
<g transform="translate(0.000000,37.000000) scale(0.100000,-0.100000)"
fill="#000000" stroke="none">
<path d="M240 340 l0 -28 -6 -16 -6 -16 -14 0 -14 0 -6 29 -6 29 -22 6 -21 6
-42 0 -43 0 0 -39 0 -38 -30 -6 -30 -6 0 -30 0 -29 6 -16 6 -16 24 0 24 0 0
-36 0 -35 14 -15 15 -14 35 0 36 0 0 -19 0 -19 6 -16 6 -16 28 0 28 0 16 6 16
6 0 14 0 14 45 11 45 11 0 49 0 50 30 6 30 6 0 43 0 44 -31 0 -32 0 7 53 6 54
-60 0 -60 1 0 -28z"/>
</g>
</svg>
