<?xml version="1.0" standalone="no"?>
<!DOCTYPE svg PUBLIC "-//W3C//DTD SVG 20010904//EN"
 "http://www.w3.org/TR/2001/REC-SVG-20010904/DTD/svg10.dtd">
<svg version="1.0" xmlns="http://www.w3.org/2000/svg"
 width="39.000000pt" height="35.000000pt" viewBox="0 0 39.000000 35.000000"
 preserveAspectRatio="xMidYMid meet">
<metadata>
Created by potrace 1.16, written by Peter Selinger 2001-2019
</metadata>
<g transform="translate(0.000000,35.000000) scale(0.100000,-0.100000)"
fill="#000000" stroke="none">
<path d="M240 319 l0 -27 -6 -16 -6 -16 -24 0 -24 0 -6 29 -6 29 -22 6 -21 6
-32 0 -33 0 0 -39 0 -38 -30 -6 -30 -7 0 -19 0 -19 6 -16 6 -16 24 0 24 0 0
-36 0 -35 14 -14 13 -14 39 -3 39 -3 -3 -14 -3 -13 6 -19 6 -19 19 0 18 0 16
6 16 6 0 14 0 14 45 11 45 11 0 49 0 49 30 7 30 5 0 34 0 34 -31 0 -31 0 4 53
4 52 -48 1 -48 0 0 -27z"/>
</g>
</svg>
