<?xml version="1.0" standalone="no"?>
<!DOCTYPE svg PUBLIC "-//W3C//DTD SVG 20010904//EN"
 "http://www.w3.org/TR/2001/REC-SVG-20010904/DTD/svg10.dtd">
<svg version="1.0" xmlns="http://www.w3.org/2000/svg"
 width="39.000000pt" height="34.000000pt" viewBox="0 0 39.000000 34.000000"
 preserveAspectRatio="xMidYMid meet">
<metadata>
Created by potrace 1.16, written by Peter Selinger 2001-2019
</metadata>
<g transform="translate(0.000000,34.000000) scale(0.100000,-0.100000)"
fill="#000000" stroke="none">
<path d="M66 290 l-7 -51 -29 -6 -30 -5 0 -15 0 -15 27 6 26 7 8 -13 9 -13 0
-52 0 -53 33 0 32 0 14 -9 14 -9 -7 -11 -7 -11 6 -20 6 -20 27 0 27 0 14 9 13
9 -6 20 -7 21 46 6 45 7 0 4 0 4 -16 40 -17 41 5 5 5 5 44 7 44 8 0 29 0 30
-30 -2 -29 -2 -8 12 -8 12 0 38 0 37 -35 0 -35 0 0 -26 0 -27 -22 -18 -21 -19
-12 0 -12 0 -23 20 -22 19 4 26 5 25 -32 0 -32 0 -7 -50z"/>
</g>
</svg>
