<?xml version="1.0" standalone="no"?>
<!DOCTYPE svg PUBLIC "-//W3C//DTD SVG 20010904//EN"
 "http://www.w3.org/TR/2001/REC-SVG-20010904/DTD/svg10.dtd">
<svg version="1.0" xmlns="http://www.w3.org/2000/svg"
 width="41.000000pt" height="36.000000pt" viewBox="0 0 41.000000 36.000000"
 preserveAspectRatio="xMidYMid meet">
<metadata>
Created by potrace 1.16, written by Peter Selinger 2001-2019
</metadata>
<g transform="translate(0.000000,36.000000) scale(0.100000,-0.100000)"
fill="#000000" stroke="none">
<path d="M66 310 l-7 -51 -29 -6 -30 -5 0 -25 0 -25 30 4 29 4 6 -14 5 -14 0
-49 0 -49 35 0 36 0 3 -13 4 -12 6 -27 6 -28 34 0 34 0 16 6 16 6 0 24 0 24
40 6 40 7 0 14 0 14 -14 34 -15 34 37 6 37 7 13 4 13 4 -3 37 -3 38 -30 0 -30
0 -7 10 -8 10 0 38 0 37 -45 0 -45 0 0 -26 0 -27 -22 -18 -21 -19 -2 0 -2 0
-22 19 -22 19 7 26 6 26 -45 0 -44 0 -7 -50z"/>
</g>
</svg>
