<?xml version="1.0" standalone="no"?>
<!DOCTYPE svg PUBLIC "-//W3C//DTD SVG 20010904//EN"
 "http://www.w3.org/TR/2001/REC-SVG-20010904/DTD/svg10.dtd">
<svg version="1.0" xmlns="http://www.w3.org/2000/svg"
 width="43.000000pt" height="29.000000pt" viewBox="0 0 43.000000 29.000000"
 preserveAspectRatio="xMidYMid meet">
<metadata>
Created by potrace 1.16, written by Peter Selinger 2001-2019
</metadata>
<g transform="translate(0.000000,29.000000) scale(0.100000,-0.100000)"
fill="#000000" stroke="none">
<path d="M66 253 l6 -40 -16 -15 -16 -16 -20 5 -20 5 0 -36 0 -36 28 -13 27
-12 8 -10 8 -10 -6 -38 -5 -37 64 0 65 0 6 21 7 20 -6 26 -7 25 11 -7 10 -6 0
-29 0 -28 15 -6 15 -5 51 -7 52 -7 -5 55 -4 55 18 -5 18 -4 30 12 30 12 0 33
0 34 -16 15 -15 16 -25 0 -24 0 0 36 0 37 -37 -7 -38 -6 -22 0 -23 0 0 -26 0
-25 -14 -15 -15 -14 -6 0 -6 0 -15 14 -14 15 0 25 0 26 -27 0 -28 0 -23 6 -23
6 7 -39z"/>
</g>
</svg>
