<?xml version="1.0" standalone="no"?>
<!DOCTYPE svg PUBLIC "-//W3C//DTD SVG 20010904//EN"
 "http://www.w3.org/TR/2001/REC-SVG-20010904/DTD/svg10.dtd">
<svg version="1.0" xmlns="http://www.w3.org/2000/svg"
 width="28.000000pt" height="35.000000pt" viewBox="0 0 28.000000 35.000000"
 preserveAspectRatio="xMidYMid meet">
<metadata>
Created by potrace 1.16, written by Peter Selinger 2001-2019
</metadata>
<g transform="translate(0.000000,35.000000) scale(0.100000,-0.100000)"
fill="#000000" stroke="none">
<path d="M10 331 l-10 -20 0 -25 0 -26 26 0 25 0 15 -14 14 -15 0 -19 0 -20
-24 -6 -25 -6 -5 -18 -5 -17 -6 -32 -6 -32 43 -3 43 -3 -2 -31 -3 -32 17 -6
16 -6 18 5 19 6 0 15 0 14 11 0 11 0 -5 20 -5 20 42 0 43 0 11 25 12 26 0 27
0 27 -8 12 -8 12 -29 -2 -29 -2 -4 17 -3 16 19 -5 19 -5 17 17 16 16 0 45 0
44 -125 0 -124 0 -11 -19z"/>
</g>
</svg>
