<?xml version="1.0" standalone="no"?>
<!DOCTYPE svg PUBLIC "-//W3C//DTD SVG 20010904//EN"
 "http://www.w3.org/TR/2001/REC-SVG-20010904/DTD/svg10.dtd">
<svg version="1.0" xmlns="http://www.w3.org/2000/svg"
 width="41.000000pt" height="27.000000pt" viewBox="0 0 41.000000 27.000000"
 preserveAspectRatio="xMidYMid meet">
<metadata>
Created by potrace 1.16, written by Peter Selinger 2001-2019
</metadata>
<g transform="translate(0.000000,27.000000) scale(0.100000,-0.100000)"
fill="#000000" stroke="none">
<path d="M268 263 l-38 -4 0 -25 0 -25 -14 -15 -15 -14 -16 0 -16 0 -15 14
-14 15 0 25 0 26 -35 0 -35 0 0 -34 0 -35 -16 -16 -17 -17 -18 5 -19 5 0 -25
0 -25 30 -11 31 -12 6 -23 5 -22 -4 -25 -5 -25 52 0 53 0 6 15 5 15 -6 31 -6
31 19 -4 19 -3 3 -32 3 -32 17 -5 17 -5 39 -7 39 -7 -7 58 -6 57 24 -6 25 -6
25 12 26 11 0 23 0 23 -16 16 -17 16 -23 -5 -24 -6 0 40 0 40 -12 -2 -13 -1
-37 -4z"/>
</g>
</svg>
