<?xml version="1.0" standalone="no"?>
<!DOCTYPE svg PUBLIC "-//W3C//DTD SVG 20010904//EN"
 "http://www.w3.org/TR/2001/REC-SVG-20010904/DTD/svg10.dtd">
<svg version="1.0" xmlns="http://www.w3.org/2000/svg"
 width="30.000000pt" height="37.000000pt" viewBox="0 0 30.000000 37.000000"
 preserveAspectRatio="xMidYMid meet">
<metadata>
Created by potrace 1.16, written by Peter Selinger 2001-2019
</metadata>
<g transform="translate(0.000000,37.000000) scale(0.100000,-0.100000)"
fill="#000000" stroke="none">
<path d="M10 351 l-10 -20 0 -35 0 -36 26 0 25 0 15 -14 14 -15 0 -9 0 -10
-24 -6 -24 -6 -5 -14 -5 -13 -7 -46 -7 -46 43 -3 44 -3 -3 -32 -3 -32 25 -7
25 -6 20 7 21 6 0 15 0 14 10 0 10 0 0 20 0 20 38 0 39 0 11 25 12 26 0 34 0
33 -6 16 -6 16 -15 0 -14 0 15 16 16 15 0 55 0 54 -135 0 -134 0 -11 -19z"/>
</g>
</svg>
