<?xml version="1.0" standalone="no"?>
<!DOCTYPE svg PUBLIC "-//W3C//DTD SVG 20010904//EN"
 "http://www.w3.org/TR/2001/REC-SVG-20010904/DTD/svg10.dtd">
<svg version="1.0" xmlns="http://www.w3.org/2000/svg"
 width="25.000000pt" height="34.000000pt" viewBox="0 0 25.000000 34.000000"
 preserveAspectRatio="xMidYMid meet">
<metadata>
Created by potrace 1.16, written by Peter Selinger 2001-2019
</metadata>
<g transform="translate(0.000000,34.000000) scale(0.100000,-0.100000)"
fill="#000000" stroke="none">
<path d="M8 316 l-1 -26 -1 -17 -1 -18 18 3 17 3 15 -15 15 -15 0 -16 0 -16
-15 -15 -15 -15 -20 6 -20 6 0 -19 0 -20 6 -30 6 -31 42 -3 41 -3 -2 -32 -3
-32 21 -6 20 -7 20 23 20 23 -7 29 -6 30 41 -7 41 -6 0 46 0 45 -18 -5 -18 -6
-22 20 -22 21 0 13 0 14 23 6 22 6 23 0 22 0 0 43 0 43 -35 -4 -35 -4 0 -18 0
-19 -16 -16 -17 -16 -25 6 -24 6 -12 12 -11 12 0 20 0 20 -32 3 -33 3 -2 -25z"/>
</g>
</svg>
