<?xml version="1.0" standalone="no"?>
<!DOCTYPE svg PUBLIC "-//W3C//DTD SVG 20010904//EN"
 "http://www.w3.org/TR/2001/REC-SVG-20010904/DTD/svg10.dtd">
<svg version="1.0" xmlns="http://www.w3.org/2000/svg"
 width="27.000000pt" height="36.000000pt" viewBox="0 0 27.000000 36.000000"
 preserveAspectRatio="xMidYMid meet">
<metadata>
Created by potrace 1.16, written by Peter Selinger 2001-2019
</metadata>
<g transform="translate(0.000000,36.000000) scale(0.100000,-0.100000)"
fill="#000000" stroke="none">
<path d="M6 316 l-7 -46 7 -11 6 -11 17 5 17 4 12 -13 12 -13 0 -6 0 -6 -12
-13 -12 -12 -23 4 -23 4 0 -30 0 -30 6 -30 6 -31 42 -3 41 -3 -3 -29 -4 -29
14 -8 13 -9 19 0 19 0 19 22 20 23 -4 27 -4 28 38 -6 38 -7 0 57 0 56 -24 0
-25 0 -17 17 -16 17 18 7 19 8 28 0 27 1 0 56 0 56 -22 -6 -23 -6 -22 0 -23 0
0 -19 0 -20 -15 -14 -15 -15 -20 5 -20 5 -8 32 -8 31 -41 3 -41 3 -6 -45z"/>
</g>
</svg>
