<?xml version="1.0" standalone="no"?>
<!DOCTYPE svg PUBLIC "-//W3C//DTD SVG 20010904//EN"
 "http://www.w3.org/TR/2001/REC-SVG-20010904/DTD/svg10.dtd">
<svg version="1.0" xmlns="http://www.w3.org/2000/svg"
 width="35.000000pt" height="29.000000pt" viewBox="0 0 35.000000 29.000000"
 preserveAspectRatio="xMidYMid meet">
<metadata>
Created by potrace 1.16, written by Peter Selinger 2001-2019
</metadata>
<g transform="translate(0.000000,29.000000) scale(0.100000,-0.100000)"
fill="#000000" stroke="none">
<path d="M70 256 l0 -35 -15 -14 -15 -15 -20 5 -20 5 0 -45 0 -44 29 -6 30 -6
3 -48 3 -48 54 -3 54 -3 8 13 9 13 0 33 0 32 10 0 10 0 0 -16 0 -15 13 -13 12
-13 29 -7 29 -7 28 6 29 7 0 53 0 53 -16 6 -16 6 -24 0 -24 0 0 10 0 10 34 0
34 0 6 16 6 16 0 39 0 39 -25 0 -25 0 -40 -12 -40 -13 0 -11 0 -12 -18 -4 -18
-5 -9 11 -10 11 0 20 0 20 -47 3 -48 3 0 -35z"/>
</g>
</svg>
