<?xml version="1.0" standalone="no"?>
<!DOCTYPE svg PUBLIC "-//W3C//DTD SVG 20010904//EN"
 "http://www.w3.org/TR/2001/REC-SVG-20010904/DTD/svg10.dtd">
<svg version="1.0" xmlns="http://www.w3.org/2000/svg"
 width="33.000000pt" height="27.000000pt" viewBox="0 0 33.000000 27.000000"
 preserveAspectRatio="xMidYMid meet">
<metadata>
Created by potrace 1.16, written by Peter Selinger 2001-2019
</metadata>
<g transform="translate(0.000000,27.000000) scale(0.100000,-0.100000)"
fill="#000000" stroke="none">
<path d="M70 236 l0 -35 -16 -16 -17 -17 -18 5 -19 5 0 -33 0 -32 29 -6 30 -6
3 -48 3 -48 44 -3 44 -3 8 13 9 13 0 33 0 32 25 0 24 0 -5 -15 -6 -14 14 -14
13 -13 25 -7 24 -6 23 5 23 6 0 43 0 43 -16 6 -16 6 -24 0 -24 0 0 20 0 20 34
0 34 0 6 16 6 16 0 29 0 29 -15 0 -15 0 -40 -12 -40 -13 0 -11 0 -12 -25 -6
-26 -7 -15 15 -15 16 3 17 3 17 -37 3 -38 4 0 -35z"/>
</g>
</svg>
