<?xml version="1.0" standalone="no"?>
<!DOCTYPE svg PUBLIC "-//W3C//DTD SVG 20010904//EN"
 "http://www.w3.org/TR/2001/REC-SVG-20010904/DTD/svg10.dtd">
<svg version="1.0" xmlns="http://www.w3.org/2000/svg"
 width="38.000000pt" height="63.000000pt" viewBox="0 0 38.000000 63.000000"
 preserveAspectRatio="xMidYMid meet">
<metadata>
Created by potrace 1.16, written by Peter Selinger 2001-2019
</metadata>
<g transform="translate(0.000000,63.000000) scale(0.100000,-0.100000)"
fill="#000000" stroke="none">
<path d="M290 615 l0 -15 15 0 15 0 0 15 0 15 -15 0 -15 0 0 -15z M0 606 l0
-16 15 0 15 0 0 -39 0 -39 50 1 50 1 0 48 0 48 -34 0 -33 0 -32 6 -31 7 0 -17z
M137 423 l-7 -6 0 -28 0 -27 -16 -6 -16 -6 -44 0 -44 0 0 -49 0 -49 16 -6 16
-6 19 0 19 0 0 -15 0 -15 -14 0 -15 0 -15 -16 -16 -15 0 -55 0 -54 40 0 40 0
0 -19 0 -20 16 -15 15 -16 24 0 24 0 16 16 16 16 6 29 5 28 29 -6 28 -5 16 15
15 16 0 25 0 26 21 0 20 0 15 14 14 15 0 34 0 35 -16 6 -16 6 -19 0 -19 0 0
35 0 35 -24 6 -24 6 -19 -10 -18 -9 -11 4 -11 4 4 23 5 24 -11 21 -12 21 -23
0 -23 0 -6 -7z"/>
</g>
</svg>
