<?xml version="1.0" standalone="no"?>
<!DOCTYPE svg PUBLIC "-//W3C//DTD SVG 20010904//EN"
 "http://www.w3.org/TR/2001/REC-SVG-20010904/DTD/svg10.dtd">
<svg version="1.0" xmlns="http://www.w3.org/2000/svg"
 width="29.000000pt" height="38.000000pt" viewBox="0 0 29.000000 38.000000"
 preserveAspectRatio="xMidYMid meet">
<metadata>
Created by potrace 1.16, written by Peter Selinger 2001-2019
</metadata>
<g transform="translate(0.000000,38.000000) scale(0.100000,-0.100000)"
fill="#000000" stroke="none">
<path d="M171 364 l3 -19 -7 -22 -8 -21 -14 -6 -14 -5 -15 14 -14 15 5 20 5
20 -50 0 -50 0 -6 -16 -6 -16 0 -40 0 -40 25 6 26 7 14 -15 15 -15 0 -10 0
-11 -15 0 -15 0 0 -9 0 -9 -19 5 -19 5 -5 -19 -5 -18 0 -43 -1 -42 45 0 44 0
0 -24 0 -24 6 -16 6 -16 33 0 34 0 15 16 16 15 0 19 0 19 44 6 44 7 1 58 1 59
-32 -1 -32 -1 -4 11 -4 12 -14 0 -14 0 0 15 0 15 28 7 27 7 19 -3 19 -3 -7 53
-7 54 -4 3 -4 4 -46 6 -47 5 3 -19z"/>
</g>
</svg>
