<?xml version="1.0" standalone="no"?>
<!DOCTYPE svg PUBLIC "-//W3C//DTD SVG 20010904//EN"
 "http://www.w3.org/TR/2001/REC-SVG-20010904/DTD/svg10.dtd">
<svg version="1.0" xmlns="http://www.w3.org/2000/svg"
 width="36.000000pt" height="61.000000pt" viewBox="0 0 36.000000 61.000000"
 preserveAspectRatio="xMidYMid meet">
<metadata>
Created by potrace 1.16, written by Peter Selinger 2001-2019
</metadata>
<g transform="translate(0.000000,61.000000) scale(0.100000,-0.100000)"
fill="#000000" stroke="none">
<path d="M30 552 l0 -38 40 1 40 0 0 38 0 37 -40 0 -40 0 0 -38z M137 403 l-7
-6 0 -28 0 -27 -16 -6 -16 -6 -44 0 -44 0 0 -39 0 -39 16 -6 16 -6 19 0 19 0
0 -25 0 -25 -14 0 -15 0 -15 -16 -16 -15 0 -45 0 -44 46 0 45 0 -6 -10 -6 -10
6 -19 6 -19 16 -6 16 -6 17 5 18 6 12 29 12 29 -8 12 -7 12 38 -6 37 -6 14 14
14 14 0 25 0 26 21 0 20 0 15 14 14 15 0 24 0 25 -16 6 -16 6 -22 0 -22 0 4
34 4 33 -17 7 -16 6 -20 -11 -20 -10 -20 6 -21 7 6 24 6 24 -10 20 -11 20 -13
0 -13 0 -6 -7z"/>
</g>
</svg>
