<?xml version="1.0" standalone="no"?>
<!DOCTYPE svg PUBLIC "-//W3C//DTD SVG 20010904//EN"
 "http://www.w3.org/TR/2001/REC-SVG-20010904/DTD/svg10.dtd">
<svg version="1.0" xmlns="http://www.w3.org/2000/svg"
 width="27.000000pt" height="36.000000pt" viewBox="0 0 27.000000 36.000000"
 preserveAspectRatio="xMidYMid meet">
<metadata>
Created by potrace 1.16, written by Peter Selinger 2001-2019
</metadata>
<g transform="translate(0.000000,36.000000) scale(0.100000,-0.100000)"
fill="#000000" stroke="none">
<path d="M174 351 l8 -12 -12 -29 -12 -29 -15 -6 -16 -5 -18 5 -18 6 -6 19 -6
20 6 10 6 10 -39 0 -40 0 -6 -16 -6 -16 0 -27 0 -28 25 4 24 5 16 -15 15 -16
0 -20 0 -21 -15 0 -15 0 0 -11 0 -11 -20 5 -20 5 -1 -6 -1 -7 -2 -43 -2 -42
43 0 43 0 0 -24 0 -24 6 -16 6 -16 23 0 24 0 16 16 17 17 -5 18 -5 17 47 7 46
6 2 47 2 47 -32 1 -31 1 -4 12 -4 11 -14 0 -14 0 0 24 0 24 35 12 35 11 11 -7
11 -7 -7 44 -7 44 -3 3 -3 3 -37 6 -38 6 7 -12z"/>
</g>
</svg>
