<?xml version="1.0" standalone="no"?>
<!DOCTYPE svg PUBLIC "-//W3C//DTD SVG 20010904//EN"
 "http://www.w3.org/TR/2001/REC-SVG-20010904/DTD/svg10.dtd">
<svg version="1.0" xmlns="http://www.w3.org/2000/svg"
 width="34.000000pt" height="28.000000pt" viewBox="0 0 34.000000 28.000000"
 preserveAspectRatio="xMidYMid meet">
<metadata>
Created by potrace 1.16, written by Peter Selinger 2001-2019
</metadata>
<g transform="translate(0.000000,28.000000) scale(0.100000,-0.100000)"
fill="#000000" stroke="none">
<path d="M10 231 l0 -51 29 0 29 0 4 -12 5 -13 -4 -12 -5 -13 -23 0 -22 0 -6
-37 -7 -38 -6 -27 -6 -28 62 0 62 0 -4 30 -5 30 19 0 18 0 0 -19 0 -19 15 -6
15 -5 50 -7 50 -7 0 31 0 31 11 24 11 25 19 -5 19 -5 0 36 0 36 -21 0 -20 0
-15 14 -14 15 0 40 0 41 -51 0 -51 0 5 -20 5 -20 -9 0 -9 0 0 -14 0 -14 -13
-5 -14 -5 -9 6 -9 7 0 30 0 30 -52 3 -53 3 0 -50z"/>
</g>
</svg>
