<?xml version="1.0" standalone="no"?>
<!DOCTYPE svg PUBLIC "-//W3C//DTD SVG 20010904//EN"
 "http://www.w3.org/TR/2001/REC-SVG-20010904/DTD/svg10.dtd">
<svg version="1.0" xmlns="http://www.w3.org/2000/svg"
 width="32.000000pt" height="26.000000pt" viewBox="0 0 32.000000 26.000000"
 preserveAspectRatio="xMidYMid meet">
<metadata>
Created by potrace 1.16, written by Peter Selinger 2001-2019
</metadata>
<g transform="translate(0.000000,26.000000) scale(0.100000,-0.100000)"
fill="#000000" stroke="none">
<path d="M10 221 l0 -41 29 0 29 0 6 -16 6 -17 -5 -18 -6 -19 -23 0 -23 0 -6
-37 -5 -38 -7 -17 -7 -18 52 0 52 0 -7 30 -7 30 31 0 31 0 0 -19 0 -20 18 -5
17 -5 38 -7 37 -6 0 30 0 31 12 26 12 26 18 -4 18 -5 0 24 0 24 -21 0 -20 0
-15 14 -14 15 0 40 0 41 -39 0 -39 0 5 -20 5 -20 -11 0 -11 0 0 -14 0 -15 -19
-6 -18 -5 -16 6 -17 6 3 32 2 31 -42 3 -43 3 0 -40z"/>
</g>
</svg>
