<?xml version="1.0" standalone="no"?>
<!DOCTYPE svg PUBLIC "-//W3C//DTD SVG 20010904//EN"
 "http://www.w3.org/TR/2001/REC-SVG-20010904/DTD/svg10.dtd">
<svg version="1.0" xmlns="http://www.w3.org/2000/svg"
 width="38.000000pt" height="35.000000pt" viewBox="0 0 38.000000 35.000000"
 preserveAspectRatio="xMidYMid meet">
<metadata>
Created by potrace 1.16, written by Peter Selinger 2001-2019
</metadata>
<g transform="translate(0.000000,35.000000) scale(0.100000,-0.100000)"
fill="#000000" stroke="none">
<path d="M182 320 l5 -30 -54 0 -53 0 0 -45 0 -45 -26 0 -25 0 -15 -14 -14
-15 0 -20 0 -21 15 0 15 0 0 -10 0 -10 25 0 25 0 0 -44 0 -44 36 -12 35 -12
24 6 24 6 3 32 3 33 18 3 17 3 0 -19 0 -20 6 -16 6 -16 53 0 54 0 5 9 6 8 6
57 7 57 -29 -2 -29 -2 -22 7 -23 7 0 10 0 10 12 12 12 13 28 -4 28 -4 0 50 0
50 -32 7 -33 6 -17 5 -18 5 0 20 0 19 -41 0 -41 0 4 -30z"/>
</g>
</svg>
