<?xml version="1.0" standalone="no"?>
<!DOCTYPE svg PUBLIC "-//W3C//DTD SVG 20010904//EN"
 "http://www.w3.org/TR/2001/REC-SVG-20010904/DTD/svg10.dtd">
<svg version="1.0" xmlns="http://www.w3.org/2000/svg"
 width="36.000000pt" height="36.000000pt" viewBox="0 0 36.000000 36.000000"
 preserveAspectRatio="xMidYMid meet">
<metadata>
Created by potrace 1.16, written by Peter Selinger 2001-2019
</metadata>
<g transform="translate(0.000000,36.000000) scale(0.100000,-0.100000)"
fill="#000000" stroke="none">
<path d="M187 353 l-7 -6 0 -29 0 -28 -12 -1 -13 -1 -37 2 -38 2 0 -46 0 -46
-26 0 -25 0 -15 -14 -14 -15 0 -29 0 -30 29 -7 29 -6 6 -30 6 -30 14 -15 15
-14 30 -6 30 -6 25 6 25 6 3 33 3 32 10 -2 10 -2 7 -30 8 -30 21 -6 21 -7 34
7 34 6 0 28 0 28 -6 32 -6 31 -29 0 -28 0 -6 21 -7 21 4 3 3 3 35 9 35 9 3 47
3 47 -44 0 -45 0 -6 16 -6 16 0 19 0 19 -33 0 -34 0 -6 -7z"/>
</g>
</svg>
