<?xml version="1.0" standalone="no"?>
<!DOCTYPE svg PUBLIC "-//W3C//DTD SVG 20010904//EN"
 "http://www.w3.org/TR/2001/REC-SVG-20010904/DTD/svg10.dtd">
<svg version="1.0" xmlns="http://www.w3.org/2000/svg"
 width="29.000000pt" height="41.000000pt" viewBox="0 0 29.000000 41.000000"
 preserveAspectRatio="xMidYMid meet">
<metadata>
Created by potrace 1.16, written by Peter Selinger 2001-2019
</metadata>
<g transform="translate(0.000000,41.000000) scale(0.100000,-0.100000)"
fill="#000000" stroke="none">
<path d="M114 402 l-11 -7 -7 -29 -7 -28 -44 7 -45 6 0 -43 0 -43 8 -12 7 -12
30 -15 30 -16 -22 0 -22 0 -15 -16 -16 -15 0 -40 0 -40 14 -15 15 -14 30 0 31
0 0 -21 0 -20 15 -16 16 -15 34 6 35 7 0 12 0 13 45 13 45 13 0 37 0 36 -6 21
-6 22 -29 6 -29 6 0 14 0 15 16 15 15 16 26 0 26 0 -7 38 -6 37 0 22 0 21 -35
0 -36 0 -18 21 -18 21 -24 0 -24 0 -11 -8z"/>
</g>
</svg>
