<?xml version="1.0" standalone="no"?>
<!DOCTYPE svg PUBLIC "-//W3C//DTD SVG 20010904//EN"
 "http://www.w3.org/TR/2001/REC-SVG-20010904/DTD/svg10.dtd">
<svg version="1.0" xmlns="http://www.w3.org/2000/svg"
 width="27.000000pt" height="39.000000pt" viewBox="0 0 27.000000 39.000000"
 preserveAspectRatio="xMidYMid meet">
<metadata>
Created by potrace 1.16, written by Peter Selinger 2001-2019
</metadata>
<g transform="translate(0.000000,39.000000) scale(0.100000,-0.100000)"
fill="#000000" stroke="none">
<path d="M114 382 l-11 -7 -7 -29 -7 -28 -45 5 -44 5 0 -34 0 -33 22 -21 22
-20 19 6 19 6 -4 -18 -3 -18 -29 -7 -29 -8 -8 -13 -9 -13 0 -28 0 -28 14 -14
13 -14 34 -3 34 -3 -3 -18 -3 -17 15 -16 15 -15 26 7 25 6 0 12 0 12 45 13 45
13 0 27 0 26 -6 21 -6 22 -29 6 -29 6 0 24 0 25 16 15 15 16 26 0 25 0 -6 23
-6 22 0 25 0 25 -36 2 -36 2 -17 20 -18 21 -14 0 -14 0 -11 -8z"/>
</g>
</svg>
