<?xml version="1.0" standalone="no"?>
<!DOCTYPE svg PUBLIC "-//W3C//DTD SVG 20010904//EN"
 "http://www.w3.org/TR/2001/REC-SVG-20010904/DTD/svg10.dtd">
<svg version="1.0" xmlns="http://www.w3.org/2000/svg"
 width="36.000000pt" height="33.000000pt" viewBox="0 0 36.000000 33.000000"
 preserveAspectRatio="xMidYMid meet">
<metadata>
Created by potrace 1.16, written by Peter Selinger 2001-2019
</metadata>
<g transform="translate(0.000000,33.000000) scale(0.100000,-0.100000)"
fill="#000000" stroke="none">
<path d="M185 300 l7 -30 -56 0 -56 0 0 -45 0 -45 -26 0 -25 0 -15 -14 -14
-15 0 -10 0 -11 15 0 15 0 0 -10 0 -10 25 0 25 0 0 -44 0 -44 33 -11 34 -12
16 7 16 6 3 31 3 32 28 3 27 3 0 -20 0 -19 6 -16 6 -16 43 0 44 0 4 8 5 7 7
49 8 49 -18 -7 -18 -7 -34 12 -33 11 0 19 0 20 15 15 14 15 26 -7 25 -6 0 40
0 40 -32 7 -33 6 -17 5 -18 5 0 20 0 19 -31 0 -31 0 7 -30z"/>
</g>
</svg>
