<?xml version="1.0" standalone="no"?>
<!DOCTYPE svg PUBLIC "-//W3C//DTD SVG 20010904//EN"
 "http://www.w3.org/TR/2001/REC-SVG-20010904/DTD/svg10.dtd">
<svg version="1.0" xmlns="http://www.w3.org/2000/svg"
 width="34.000000pt" height="34.000000pt" viewBox="0 0 34.000000 34.000000"
 preserveAspectRatio="xMidYMid meet">
<metadata>
Created by potrace 1.16, written by Peter Selinger 2001-2019
</metadata>
<g transform="translate(0.000000,34.000000) scale(0.100000,-0.100000)"
fill="#000000" stroke="none">
<path d="M187 333 l-7 -6 0 -28 0 -27 -14 -5 -15 -6 -35 6 -36 6 0 -50 0 -50
-25 4 -24 5 -16 -15 -15 -16 0 -19 0 -20 29 -7 29 -6 6 -30 6 -30 14 -14 14
-14 25 -6 26 -7 20 7 20 6 3 32 3 32 19 0 20 0 8 -32 8 -32 19 -6 19 -6 26 7
26 6 -1 27 -1 26 -6 20 -7 20 -25 3 -24 2 -8 13 -8 12 0 22 0 21 38 9 37 9 3
37 3 37 -44 0 -45 0 -6 16 -6 16 0 19 0 19 -23 0 -24 0 -6 -7z"/>
</g>
</svg>
