<?xml version="1.0" standalone="no"?>
<!DOCTYPE svg PUBLIC "-//W3C//DTD SVG 20010904//EN"
 "http://www.w3.org/TR/2001/REC-SVG-20010904/DTD/svg10.dtd">
<svg version="1.0" xmlns="http://www.w3.org/2000/svg"
 width="39.000000pt" height="35.000000pt" viewBox="0 0 39.000000 35.000000"
 preserveAspectRatio="xMidYMid meet">
<metadata>
Created by potrace 1.16, written by Peter Selinger 2001-2019
</metadata>
<g transform="translate(0.000000,35.000000) scale(0.100000,-0.100000)"
fill="#000000" stroke="none">
<path d="M110 320 l0 -30 -12 -1 -13 -1 -32 2 -33 2 0 -40 0 -40 6 -16 6 -16
22 0 21 0 15 -10 15 -10 -12 0 -13 0 0 -15 0 -15 -17 -1 -18 -1 -22 2 -21 1 1
-58 1 -58 10 -7 11 -8 43 0 43 0 5 29 6 30 15 6 15 5 17 -19 16 -18 32 -7 33
-7 21 6 21 7 -5 32 -5 31 38 0 37 1 17 16 16 17 0 30 0 31 -45 12 -45 12 0 43
0 44 -49 -7 -50 -6 -15 15 -16 16 0 15 0 16 -30 0 -30 0 0 -30z"/>
</g>
</svg>
