<?xml version="1.0" standalone="no"?>
<!DOCTYPE svg PUBLIC "-//W3C//DTD SVG 20010904//EN"
 "http://www.w3.org/TR/2001/REC-SVG-20010904/DTD/svg10.dtd">
<svg version="1.0" xmlns="http://www.w3.org/2000/svg"
 width="37.000000pt" height="33.000000pt" viewBox="0 0 37.000000 33.000000"
 preserveAspectRatio="xMidYMid meet">
<metadata>
Created by potrace 1.16, written by Peter Selinger 2001-2019
</metadata>
<g transform="translate(0.000000,33.000000) scale(0.100000,-0.100000)"
fill="#000000" stroke="none">
<path d="M110 301 l0 -29 -15 -6 -15 -5 -30 6 -30 6 0 -31 0 -30 6 -16 6 -16
18 0 18 0 16 -6 16 -6 0 -14 0 -14 -10 0 -10 0 0 -14 0 -14 -24 -6 -24 -6 -15
6 -15 5 2 -48 1 -48 10 -7 10 -8 33 0 33 0 6 30 6 30 24 6 24 6 17 -19 17 -20
27 -6 26 -7 16 6 16 6 -6 33 -6 32 40 -1 39 -1 16 17 17 17 0 20 0 21 -45 12
-45 12 0 42 0 41 -49 -5 -50 -4 -15 15 -16 16 0 15 0 16 -20 0 -20 0 0 -29z"/>
</g>
</svg>
