<?xml version="1.0" standalone="no"?>
<!DOCTYPE svg PUBLIC "-//W3C//DTD SVG 20010904//EN"
 "http://www.w3.org/TR/2001/REC-SVG-20010904/DTD/svg10.dtd">
<svg version="1.0" xmlns="http://www.w3.org/2000/svg"
 width="36.000000pt" height="41.000000pt" viewBox="0 0 36.000000 41.000000"
 preserveAspectRatio="xMidYMid meet">
<metadata>
Created by potrace 1.16, written by Peter Selinger 2001-2019
</metadata>
<g transform="translate(0.000000,41.000000) scale(0.100000,-0.100000)"
fill="#000000" stroke="none">
<path d="M110 381 l0 -29 -16 -6 -16 -6 -29 0 -29 0 0 -39 0 -38 30 -6 30 -6
0 -23 0 -23 -8 -12 -7 -11 -27 -7 -26 -7 -5 -36 -4 -37 3 -3 2 -4 41 -5 41 -6
0 -24 0 -24 14 -15 15 -14 16 0 16 0 15 14 14 15 0 25 0 26 28 0 27 0 21 6 22
6 17 44 17 44 18 0 18 0 6 16 6 16 0 20 0 19 -15 15 -14 15 -26 -7 -25 -6 0
41 0 41 -12 1 -13 1 -14 -2 -14 -1 -23 5 -24 6 0 25 0 25 -35 0 -35 0 0 -29z"/>
</g>
</svg>
