<?xml version="1.0" standalone="no"?>
<!DOCTYPE svg PUBLIC "-//W3C//DTD SVG 20010904//EN"
 "http://www.w3.org/TR/2001/REC-SVG-20010904/DTD/svg10.dtd">
<svg version="1.0" xmlns="http://www.w3.org/2000/svg"
 width="38.000000pt" height="43.000000pt" viewBox="0 0 38.000000 43.000000"
 preserveAspectRatio="xMidYMid meet">
<metadata>
Created by potrace 1.16, written by Peter Selinger 2001-2019
</metadata>
<g transform="translate(0.000000,43.000000) scale(0.100000,-0.100000)"
fill="#000000" stroke="none">
<path d="M110 401 l0 -29 -16 -6 -16 -6 -29 0 -29 0 0 -50 0 -50 18 0 17 0 14
-9 13 -9 -6 -20 -7 -21 -28 -6 -28 -6 -7 -46 -6 -46 4 -4 4 -5 41 -5 41 -6 0
-24 0 -24 14 -15 15 -14 26 0 26 0 15 14 14 15 0 25 0 26 28 0 27 0 21 6 22 6
17 44 17 44 18 0 18 0 6 16 6 16 0 30 0 29 -15 16 -16 15 -24 -5 -25 -4 0 38
0 38 -20 6 -20 6 -10 -6 -10 -6 -20 6 -20 6 0 25 0 24 -45 0 -45 0 0 -29z"/>
</g>
</svg>
