<?xml version="1.0" standalone="no"?>
<!DOCTYPE svg PUBLIC "-//W3C//DTD SVG 20010904//EN"
 "http://www.w3.org/TR/2001/REC-SVG-20010904/DTD/svg10.dtd">
<svg version="1.0" xmlns="http://www.w3.org/2000/svg"
 width="39.000000pt" height="36.000000pt" viewBox="0 0 39.000000 36.000000"
 preserveAspectRatio="xMidYMid meet">
<metadata>
Created by potrace 1.16, written by Peter Selinger 2001-2019
</metadata>
<g transform="translate(0.000000,36.000000) scale(0.100000,-0.100000)"
fill="#000000" stroke="none">
<path d="M130 328 l2 -33 -1 -14 -1 -14 -59 6 -59 5 -6 -30 -6 -30 0 -20 0
-19 14 -15 15 -14 20 0 21 0 0 -14 0 -14 -30 -7 -30 -7 0 -54 0 -54 145 0 145
0 0 45 0 45 30 0 30 0 0 10 0 10 15 0 15 0 0 33 0 34 -25 11 -26 12 -14 0 -15
0 0 39 0 38 -38 0 -38 0 -21 7 -22 7 -3 32 -3 32 -28 3 -29 3 2 -33z"/>
</g>
</svg>
