<?xml version="1.0" standalone="no"?>
<!DOCTYPE svg PUBLIC "-//W3C//DTD SVG 20010904//EN"
 "http://www.w3.org/TR/2001/REC-SVG-20010904/DTD/svg10.dtd">
<svg version="1.0" xmlns="http://www.w3.org/2000/svg"
 width="35.000000pt" height="35.000000pt" viewBox="0 0 35.000000 35.000000"
 preserveAspectRatio="xMidYMid meet">
<metadata>
Created by potrace 1.16, written by Peter Selinger 2001-2019
</metadata>
<g transform="translate(0.000000,35.000000) scale(0.100000,-0.100000)"
fill="#000000" stroke="none">
<path d="M137 343 l-7 -6 0 -23 0 -22 -6 -16 -6 -16 -44 0 -44 0 0 -12 0 -13
-7 -24 -6 -23 22 7 22 7 20 -23 19 -22 0 -9 0 -9 -16 -17 -17 -16 -32 0 -33 0
4 -45 3 -46 1 -7 0 -8 39 0 39 0 16 6 16 6 0 29 0 29 35 0 35 0 0 -24 0 -24
16 -6 16 -6 15 0 14 0 14 14 14 14 -6 36 -6 36 29 0 29 0 13 9 13 8 -7 26 -6
27 -24 0 -24 0 0 41 0 40 -12 12 -13 12 -33 3 -34 2 -15 15 -15 16 6 14 5 15
-18 0 -18 0 -6 -7z"/>
</g>
</svg>
