<?xml version="1.0" standalone="no"?>
<!DOCTYPE svg PUBLIC "-//W3C//DTD SVG 20010904//EN"
 "http://www.w3.org/TR/2001/REC-SVG-20010904/DTD/svg10.dtd">
<svg version="1.0" xmlns="http://www.w3.org/2000/svg"
 width="37.000000pt" height="34.000000pt" viewBox="0 0 37.000000 34.000000"
 preserveAspectRatio="xMidYMid meet">
<metadata>
Created by potrace 1.16, written by Peter Selinger 2001-2019
</metadata>
<g transform="translate(0.000000,34.000000) scale(0.100000,-0.100000)"
fill="#000000" stroke="none">
<path d="M134 308 l6 -33 -9 -14 -8 -13 -56 3 -56 4 -6 -37 -7 -38 15 -15 16
-15 20 0 21 0 0 -24 0 -24 -30 -7 -30 -7 0 -44 0 -44 136 0 137 0 -5 45 -6 45
34 0 34 0 0 10 0 10 15 0 15 0 0 24 0 24 -29 12 -30 12 -10 -7 -11 -6 0 43 0
43 -33 1 -32 0 -27 7 -27 7 -3 32 -3 33 -19 3 -19 4 7 -34z"/>
</g>
</svg>
