<?xml version="1.0" standalone="no"?>
<!DOCTYPE svg PUBLIC "-//W3C//DTD SVG 20010904//EN"
 "http://www.w3.org/TR/2001/REC-SVG-20010904/DTD/svg10.dtd">
<svg version="1.0" xmlns="http://www.w3.org/2000/svg"
 width="37.000000pt" height="37.000000pt" viewBox="0 0 37.000000 37.000000"
 preserveAspectRatio="xMidYMid meet">
<metadata>
Created by potrace 1.16, written by Peter Selinger 2001-2019
</metadata>
<g transform="translate(0.000000,37.000000) scale(0.100000,-0.100000)"
fill="#000000" stroke="none">
<path d="M137 363 l-7 -6 0 -23 0 -22 -6 -16 -6 -16 -43 0 -42 0 -7 -31 -6
-31 0 -15 0 -14 23 3 22 3 17 -18 17 -19 -15 -16 -16 -15 -33 1 -34 1 3 -57 4
-57 1 -7 1 -8 49 0 49 0 16 6 16 6 0 29 0 29 25 0 25 0 0 -24 0 -24 16 -6 16
-6 25 0 24 0 16 15 15 16 -6 34 -7 35 28 0 28 0 14 9 14 9 -7 36 -7 36 -24 0
-25 0 0 41 0 40 -13 13 -12 13 -32 1 -32 1 -14 13 -14 12 5 18 4 18 -29 0 -30
0 -6 -7z"/>
</g>
</svg>
