<?xml version="1.0" standalone="no"?>
<!DOCTYPE svg PUBLIC "-//W3C//DTD SVG 20010904//EN"
 "http://www.w3.org/TR/2001/REC-SVG-20010904/DTD/svg10.dtd">
<svg version="1.0" xmlns="http://www.w3.org/2000/svg"
 width="40.000000pt" height="33.000000pt" viewBox="0 0 40.000000 33.000000"
 preserveAspectRatio="xMidYMid meet">
<metadata>
Created by potrace 1.16, written by Peter Selinger 2001-2019
</metadata>
<g transform="translate(0.000000,33.000000) scale(0.100000,-0.100000)"
fill="#000000" stroke="none">
<path d="M80 305 l0 -24 -12 -26 -12 -27 -28 4 -28 5 0 -29 0 -28 28 0 27 0
14 -9 13 -9 -3 -46 -4 -46 41 0 42 0 6 -35 7 -35 28 0 29 0 6 16 6 16 -6 25
-7 26 58 -8 57 -7 -7 12 -7 11 7 40 7 40 29 6 29 6 0 28 0 29 -25 -6 -25 -6 0
11 0 11 -15 0 -15 0 0 40 0 40 -46 0 -45 0 6 -10 6 -10 -6 -20 -6 -19 -20 -6
-20 -7 -25 17 -26 17 5 19 5 19 -34 0 -34 0 0 -25z"/>
</g>
</svg>
