<?xml version="1.0" standalone="no"?>
<!DOCTYPE svg PUBLIC "-//W3C//DTD SVG 20010904//EN"
 "http://www.w3.org/TR/2001/REC-SVG-20010904/DTD/svg10.dtd">
<svg version="1.0" xmlns="http://www.w3.org/2000/svg"
 width="42.000000pt" height="35.000000pt" viewBox="0 0 42.000000 35.000000"
 preserveAspectRatio="xMidYMid meet">
<metadata>
Created by potrace 1.16, written by Peter Selinger 2001-2019
</metadata>
<g transform="translate(0.000000,35.000000) scale(0.100000,-0.100000)"
fill="#000000" stroke="none">
<path d="M80 325 l0 -24 -12 -26 -12 -26 -28 6 -28 7 0 -41 0 -41 28 0 27 0
14 -9 14 -9 -6 -46 -7 -46 44 0 44 0 6 -35 7 -35 39 0 40 0 6 25 6 25 -6 15
-5 15 56 -7 56 -6 -6 23 -6 23 6 29 6 29 28 6 29 5 0 40 0 40 -25 -4 -25 -5 0
8 0 9 -15 0 -15 0 0 40 0 40 -56 0 -56 0 5 -20 5 -20 -15 -16 -15 -15 -22 14
-21 15 3 21 3 21 -45 0 -46 0 0 -25z"/>
</g>
</svg>
