<?xml version="1.0" standalone="no"?>
<!DOCTYPE svg PUBLIC "-//W3C//DTD SVG 20010904//EN"
 "http://www.w3.org/TR/2001/REC-SVG-20010904/DTD/svg10.dtd">
<svg version="1.0" xmlns="http://www.w3.org/2000/svg"
 width="35.000000pt" height="43.000000pt" viewBox="0 0 35.000000 43.000000"
 preserveAspectRatio="xMidYMid meet">
<metadata>
Created by potrace 1.16, written by Peter Selinger 2001-2019
</metadata>
<g transform="translate(0.000000,43.000000) scale(0.100000,-0.100000)"
fill="#000000" stroke="none">
<path d="M195 410 l-6 -20 6 -10 6 -10 -16 -16 -16 -16 -50 4 -49 5 0 -36 0
-36 -8 -12 -7 -11 -28 -7 -27 -7 0 -8 0 -8 6 -16 6 -16 14 0 13 0 10 -37 11
-38 0 -11 0 -12 22 -6 23 -6 33 0 32 0 0 -34 0 -34 25 -6 26 -7 14 15 15 15 0
41 0 42 28 -7 27 -6 20 -5 20 -5 1 46 1 45 -17 0 -17 0 -32 11 -31 11 0 24 0
24 40 6 40 7 0 38 0 38 -55 -6 -55 -6 0 52 0 51 -9 0 -10 0 -6 -20z"/>
</g>
</svg>
