<?xml version="1.0" standalone="no"?>
<!DOCTYPE svg PUBLIC "-//W3C//DTD SVG 20010904//EN"
 "http://www.w3.org/TR/2001/REC-SVG-20010904/DTD/svg10.dtd">
<svg version="1.0" xmlns="http://www.w3.org/2000/svg"
 width="32.000000pt" height="36.000000pt" viewBox="0 0 32.000000 36.000000"
 preserveAspectRatio="xMidYMid meet">
<metadata>
Created by potrace 1.16, written by Peter Selinger 2001-2019
</metadata>
<g transform="translate(0.000000,36.000000) scale(0.100000,-0.100000)"
fill="#000000" stroke="none">
<path d="M117 354 l-7 -7 0 -28 0 -27 -14 -5 -14 -5 -41 5 -41 6 0 -57 0 -56
30 0 30 0 0 -24 0 -23 -30 -6 -30 -6 0 -55 0 -54 22 -6 23 -6 22 0 22 0 26 12
27 12 -4 28 -5 28 14 0 13 0 0 -29 0 -29 16 -6 16 -6 46 0 47 0 12 8 11 7 7
37 7 38 -6 26 -7 26 -32 -4 -32 -5 -12 4 -13 5 0 12 0 13 23 -4 24 -5 16 17
17 16 0 46 0 46 -44 -5 -44 -5 -11 7 -12 7 -8 29 -7 29 -25 3 -25 3 -7 -7z"/>
</g>
</svg>
