<?xml version="1.0" standalone="no"?>
<!DOCTYPE svg PUBLIC "-//W3C//DTD SVG 20010904//EN"
 "http://www.w3.org/TR/2001/REC-SVG-20010904/DTD/svg10.dtd">
<svg version="1.0" xmlns="http://www.w3.org/2000/svg"
 width="30.000000pt" height="34.000000pt" viewBox="0 0 30.000000 34.000000"
 preserveAspectRatio="xMidYMid meet">
<metadata>
Created by potrace 1.16, written by Peter Selinger 2001-2019
</metadata>
<g transform="translate(0.000000,34.000000) scale(0.100000,-0.100000)"
fill="#000000" stroke="none">
<path d="M117 334 l-7 -7 0 -28 0 -28 -20 -6 -19 -6 -36 7 -35 6 0 -46 0 -46
30 0 30 0 0 -34 0 -33 -30 -6 -30 -6 0 -45 0 -44 31 -7 30 -7 30 12 30 13 -6
28 -7 29 26 0 26 0 0 -29 0 -29 16 -6 16 -6 36 0 37 0 11 8 11 7 7 32 7 33 -6
21 -7 21 -25 -7 -25 -6 -19 6 -19 6 0 26 0 25 24 -6 25 -6 15 16 16 15 0 36 0
35 -42 -6 -43 -6 -13 8 -13 9 -8 29 -7 29 -15 3 -15 3 -7 -7z"/>
</g>
</svg>
