<?xml version="1.0" standalone="no"?>
<!DOCTYPE svg PUBLIC "-//W3C//DTD SVG 20010904//EN"
 "http://www.w3.org/TR/2001/REC-SVG-20010904/DTD/svg10.dtd">
<svg version="1.0" xmlns="http://www.w3.org/2000/svg"
 width="37.000000pt" height="45.000000pt" viewBox="0 0 37.000000 45.000000"
 preserveAspectRatio="xMidYMid meet">
<metadata>
Created by potrace 1.16, written by Peter Selinger 2001-2019
</metadata>
<g transform="translate(0.000000,45.000000) scale(0.100000,-0.100000)"
fill="#000000" stroke="none">
<path d="M197 433 l-5 -18 -7 -29 -6 -29 -55 7 -54 6 0 -37 0 -38 -8 -12 -7
-11 -28 -7 -27 -7 0 -18 0 -18 6 -16 6 -16 14 0 13 0 10 -38 11 -37 0 -11 0
-12 22 -6 23 -6 33 0 32 0 0 -35 0 -34 35 -7 34 -6 16 15 15 16 0 40 0 40 32
-10 33 -9 15 0 16 0 1 55 1 55 -17 0 -18 0 -32 11 -31 11 0 14 0 14 40 6 40 7
0 49 0 49 -55 -6 -55 -7 0 51 0 51 -19 0 -20 0 -4 -17z"/>
</g>
</svg>
