<?xml version="1.0" standalone="no"?>
<!DOCTYPE svg PUBLIC "-//W3C//DTD SVG 20010904//EN"
 "http://www.w3.org/TR/2001/REC-SVG-20010904/DTD/svg10.dtd">
<svg version="1.0" xmlns="http://www.w3.org/2000/svg"
 width="39.000000pt" height="36.000000pt" viewBox="0 0 39.000000 36.000000"
 preserveAspectRatio="xMidYMid meet">
<metadata>
Created by potrace 1.16, written by Peter Selinger 2001-2019
</metadata>
<g transform="translate(0.000000,36.000000) scale(0.100000,-0.100000)"
fill="#000000" stroke="none">
<path d="M202 331 l4 -29 -22 -11 -23 -10 -35 6 -35 5 -3 -33 -3 -34 -27 -3
-28 -3 0 -10 0 -9 -15 0 -15 0 0 -31 0 -32 22 -18 21 -19 28 0 27 0 -5 -41 -6
-41 14 -9 14 -9 37 0 37 0 26 12 27 12 -4 28 -5 28 9 0 8 0 0 -24 0 -24 6 -16
6 -16 52 0 51 0 14 9 13 9 -7 59 -7 59 -8 14 -8 13 -26 -5 -26 -5 0 8 0 9 34
0 34 0 6 16 6 16 0 49 0 50 -35 -7 -35 -6 -25 6 -25 6 0 30 0 30 -36 0 -36 0
4 -29z"/>
</g>
</svg>
