<?xml version="1.0" standalone="no"?>
<!DOCTYPE svg PUBLIC "-//W3C//DTD SVG 20010904//EN"
 "http://www.w3.org/TR/2001/REC-SVG-20010904/DTD/svg10.dtd">
<svg version="1.0" xmlns="http://www.w3.org/2000/svg"
 width="37.000000pt" height="34.000000pt" viewBox="0 0 37.000000 34.000000"
 preserveAspectRatio="xMidYMid meet">
<metadata>
Created by potrace 1.16, written by Peter Selinger 2001-2019
</metadata>
<g transform="translate(0.000000,34.000000) scale(0.100000,-0.100000)"
fill="#000000" stroke="none">
<path d="M205 311 l6 -28 -30 -13 -30 -12 -30 7 -31 7 0 -25 0 -25 -6 -16 -6
-16 -24 6 -24 6 0 -11 0 -11 -15 0 -15 0 0 -21 0 -22 22 -19 23 -20 28 5 29 4
-7 -45 -7 -45 14 -8 13 -9 27 0 27 0 26 12 26 12 -6 28 -7 28 21 0 21 0 0 -24
0 -24 6 -16 6 -16 42 0 41 0 14 9 13 9 -7 43 -6 44 -6 18 -5 18 -29 -6 -29 -7
0 21 0 21 34 0 34 0 6 16 6 16 0 37 0 37 -35 -4 -35 -4 -25 6 -25 6 0 30 0 30
-26 0 -26 0 7 -29z"/>
</g>
</svg>
