<?xml version="1.0" standalone="no"?>
<!DOCTYPE svg PUBLIC "-//W3C//DTD SVG 20010904//EN"
 "http://www.w3.org/TR/2001/REC-SVG-20010904/DTD/svg10.dtd">
<svg version="1.0" xmlns="http://www.w3.org/2000/svg"
 width="35.000000pt" height="37.000000pt" viewBox="0 0 35.000000 37.000000"
 preserveAspectRatio="xMidYMid meet">
<metadata>
Created by potrace 1.16, written by Peter Selinger 2001-2019
</metadata>
<g transform="translate(0.000000,37.000000) scale(0.100000,-0.100000)"
fill="#000000" stroke="none">
<path d="M172 341 l4 -29 -23 -11 -24 -11 -29 0 -30 0 0 -29 0 -29 -6 -16 -6
-16 -30 0 -29 0 3 -37 3 -38 20 -3 20 -3 23 -5 22 -4 -10 -20 -10 -19 0 -30 0
-31 55 0 55 0 0 10 0 10 10 0 10 0 0 -15 0 -15 44 0 43 0 32 11 31 11 0 49 0
48 -19 11 -20 10 -20 0 -21 0 0 15 0 15 40 0 40 0 0 65 0 66 -51 -7 -51 -7 -9
14 -9 14 0 28 0 27 -31 0 -31 0 4 -29z"/>
</g>
</svg>
