<?xml version="1.0" standalone="no"?>
<!DOCTYPE svg PUBLIC "-//W3C//DTD SVG 20010904//EN"
 "http://www.w3.org/TR/2001/REC-SVG-20010904/DTD/svg10.dtd">
<svg version="1.0" xmlns="http://www.w3.org/2000/svg"
 width="33.000000pt" height="35.000000pt" viewBox="0 0 33.000000 35.000000"
 preserveAspectRatio="xMidYMid meet">
<metadata>
Created by potrace 1.16, written by Peter Selinger 2001-2019
</metadata>
<g transform="translate(0.000000,35.000000) scale(0.100000,-0.100000)"
fill="#000000" stroke="none">
<path d="M175 322 l6 -28 -26 -12 -26 -12 -29 0 -30 0 0 -29 0 -29 -6 -16 -6
-16 -30 0 -29 0 3 -27 3 -28 38 -6 37 -6 7 -6 6 -7 -11 -25 -12 -26 0 -19 0
-20 41 0 40 0 15 15 15 15 -6 10 -6 10 6 20 6 20 10 0 9 0 0 -50 0 -50 34 0
33 0 32 11 31 11 0 39 0 38 -19 11 -20 10 -20 0 -21 0 0 25 0 25 40 0 40 0 0
54 0 53 -51 -5 -51 -5 -9 14 -9 14 0 28 0 27 -21 0 -21 0 7 -28z"/>
</g>
</svg>
