<?xml version="1.0" standalone="no"?>
<!DOCTYPE svg PUBLIC "-//W3C//DTD SVG 20010904//EN"
 "http://www.w3.org/TR/2001/REC-SVG-20010904/DTD/svg10.dtd">
<svg version="1.0" xmlns="http://www.w3.org/2000/svg"
 width="29.000000pt" height="31.000000pt" viewBox="0 0 29.000000 31.000000"
 preserveAspectRatio="xMidYMid meet">
<metadata>
Created by potrace 1.16, written by Peter Selinger 2001-2019
</metadata>
<g transform="translate(0.000000,31.000000) scale(0.100000,-0.100000)"
fill="#000000" stroke="none">
<path d="M200 270 l0 -41 -13 -14 -14 -13 -34 3 -34 3 -5 -32 -5 -31 -25 -3
-25 -3 -24 -5 -23 -5 6 -40 7 -41 14 -14 14 -14 34 0 35 0 16 6 16 6 0 29 0
30 16 6 17 6 14 -19 14 -19 -6 -26 -6 -27 19 -6 19 -6 29 12 29 13 0 44 0 43
-34 3 -34 3 -8 13 -9 14 0 18 0 18 14 15 15 14 25 0 26 0 0 39 0 40 -7 4 -8 5
-32 7 -33 7 0 -42z"/>
</g>
</svg>
