<?xml version="1.0" standalone="no"?>
<!DOCTYPE svg PUBLIC "-//W3C//DTD SVG 20010904//EN"
 "http://www.w3.org/TR/2001/REC-SVG-20010904/DTD/svg10.dtd">
<svg version="1.0" xmlns="http://www.w3.org/2000/svg"
 width="31.000000pt" height="33.000000pt" viewBox="0 0 31.000000 33.000000"
 preserveAspectRatio="xMidYMid meet">
<metadata>
Created by potrace 1.16, written by Peter Selinger 2001-2019
</metadata>
<g transform="translate(0.000000,33.000000) scale(0.100000,-0.100000)"
fill="#000000" stroke="none">
<path d="M200 291 l0 -42 -11 -12 -12 -12 -38 3 -38 4 -3 -34 -3 -33 -25 -3
-25 -3 -24 -5 -24 -5 6 -50 6 -50 15 -14 15 -15 44 0 45 0 16 6 16 6 0 28 0
29 9 6 10 5 7 -12 8 -12 -2 -32 -3 -32 22 -7 22 -7 37 12 37 12 -1 57 -1 56
-20 1 -20 2 -17 1 -17 1 -6 20 -6 20 15 15 15 15 25 0 26 0 0 49 0 50 -8 5 -9
5 -41 7 -42 7 0 -42z"/>
</g>
</svg>
