<?xml version="1.0" standalone="no"?>
<!DOCTYPE svg PUBLIC "-//W3C//DTD SVG 20010904//EN"
 "http://www.w3.org/TR/2001/REC-SVG-20010904/DTD/svg10.dtd">
<svg version="1.0" xmlns="http://www.w3.org/2000/svg"
 width="41.000000pt" height="29.000000pt" viewBox="0 0 41.000000 29.000000"
 preserveAspectRatio="xMidYMid meet">
<metadata>
Created by potrace 1.16, written by Peter Selinger 2001-2019
</metadata>
<g transform="translate(0.000000,29.000000) scale(0.100000,-0.100000)"
fill="#000000" stroke="none">
<path d="M80 248 l0 -43 -8 -10 -7 -10 -30 0 -30 0 -3 -26 -3 -26 42 -7 42 -7
-7 -53 -6 -54 43 -6 44 -7 16 7 17 6 0 29 0 29 10 0 10 0 0 -16 0 -15 15 -15
15 -15 52 3 53 3 6 43 6 44 14 9 14 9 13 0 12 0 0 35 0 35 -16 0 -17 0 -18 22
-19 21 0 25 0 25 -37 -7 -38 -6 -14 0 -13 0 4 -25 5 -25 -24 -7 -25 -6 -8 13
-8 12 6 20 5 20 -14 9 -14 9 -42 0 -43 0 0 -42z"/>
</g>
</svg>
