<?xml version="1.0" standalone="no"?>
<!DOCTYPE svg PUBLIC "-//W3C//DTD SVG 20010904//EN"
 "http://www.w3.org/TR/2001/REC-SVG-20010904/DTD/svg10.dtd">
<svg version="1.0" xmlns="http://www.w3.org/2000/svg"
 width="39.000000pt" height="27.000000pt" viewBox="0 0 39.000000 27.000000"
 preserveAspectRatio="xMidYMid meet">
<metadata>
Created by potrace 1.16, written by Peter Selinger 2001-2019
</metadata>
<g transform="translate(0.000000,27.000000) scale(0.100000,-0.100000)"
fill="#000000" stroke="none">
<path d="M80 228 l0 -43 -8 -12 -8 -12 -29 2 -29 2 -4 -16 -3 -16 42 -7 41 -7
-4 -53 -4 -54 33 -5 34 -6 15 6 14 5 0 29 0 29 20 0 20 0 0 -16 0 -15 15 -15
15 -15 42 3 43 3 6 43 6 44 14 9 14 9 13 0 12 0 0 25 0 25 -16 0 -17 0 -18 22
-19 21 0 25 0 24 -22 -6 -23 -6 -18 0 -18 0 6 -21 7 -21 -13 -9 -14 -9 -27 0
-27 0 -6 20 -6 20 7 11 7 11 -14 9 -14 9 -32 0 -33 0 0 -42z"/>
</g>
</svg>
