<?xml version="1.0" standalone="no"?>
<!DOCTYPE svg PUBLIC "-//W3C//DTD SVG 20010904//EN"
 "http://www.w3.org/TR/2001/REC-SVG-20010904/DTD/svg10.dtd">
<svg version="1.0" xmlns="http://www.w3.org/2000/svg"
 width="34.000000pt" height="37.000000pt" viewBox="0 0 34.000000 37.000000"
 preserveAspectRatio="xMidYMid meet">
<metadata>
Created by potrace 1.16, written by Peter Selinger 2001-2019
</metadata>
<g transform="translate(0.000000,37.000000) scale(0.100000,-0.100000)"
fill="#000000" stroke="none">
<path d="M10 321 l0 -49 35 -6 35 -7 0 -24 0 -24 -26 -3 -27 -3 -13 -50 -13
-50 -1 -7 0 -8 35 0 35 0 0 -26 0 -27 22 -18 21 -19 22 0 22 0 21 19 22 18 0
27 0 26 41 0 41 0 -6 35 -7 36 6 20 6 19 10 -6 9 -5 20 6 20 6 0 36 0 35 -20
-5 -20 -5 -15 15 -15 14 0 41 0 41 -37 -7 -38 -6 -14 0 -13 0 5 -20 5 -20 -15
-15 -14 -15 -14 0 -13 0 -6 16 -6 16 0 24 0 24 -50 0 -50 0 0 -49z"/>
</g>
</svg>
