<?xml version="1.0" standalone="no"?>
<!DOCTYPE svg PUBLIC "-//W3C//DTD SVG 20010904//EN"
 "http://www.w3.org/TR/2001/REC-SVG-20010904/DTD/svg10.dtd">
<svg version="1.0" xmlns="http://www.w3.org/2000/svg"
 width="32.000000pt" height="35.000000pt" viewBox="0 0 32.000000 35.000000"
 preserveAspectRatio="xMidYMid meet">
<metadata>
Created by potrace 1.16, written by Peter Selinger 2001-2019
</metadata>
<g transform="translate(0.000000,35.000000) scale(0.100000,-0.100000)"
fill="#000000" stroke="none">
<path d="M10 311 l0 -39 35 -6 35 -7 0 -34 0 -34 -26 -3 -27 -3 -12 -47 -12
-48 37 0 37 0 -5 -25 -4 -26 22 -19 23 -20 12 0 12 0 21 19 22 18 0 27 0 26
40 0 39 0 -5 30 -6 29 6 26 7 26 17 -2 17 -1 13 1 12 1 0 24 0 24 -19 -5 -18
-5 -17 17 -16 16 0 41 0 40 -22 -6 -23 -6 -17 0 -16 0 5 -19 5 -18 -17 -17
-16 -16 -24 0 -23 0 -6 16 -6 16 0 24 0 24 -40 0 -40 0 0 -39z"/>
</g>
</svg>
