<?xml version="1.0" standalone="no"?>
<!DOCTYPE svg PUBLIC "-//W3C//DTD SVG 20010904//EN"
 "http://www.w3.org/TR/2001/REC-SVG-20010904/DTD/svg10.dtd">
<svg version="1.0" xmlns="http://www.w3.org/2000/svg"
 width="39.000000pt" height="29.000000pt" viewBox="0 0 39.000000 29.000000"
 preserveAspectRatio="xMidYMid meet">
<metadata>
Created by potrace 1.16, written by Peter Selinger 2001-2019
</metadata>
<g transform="translate(0.000000,29.000000) scale(0.100000,-0.100000)"
fill="#000000" stroke="none">
<path d="M258 262 l4 -27 -21 -24 -20 -23 -36 6 -35 7 0 34 0 35 -35 0 -35 0
0 -34 0 -34 -6 -16 -6 -16 -34 0 -34 0 0 -20 0 -20 24 0 24 0 16 -6 16 -6 0
-43 0 -43 -12 -5 -13 -5 15 -11 15 -11 35 0 35 1 18 13 17 13 0 27 0 26 15 0
15 0 0 -20 0 -19 41 -11 42 -11 9 9 9 9 -12 26 -12 26 16 15 15 16 31 -6 31
-6 0 36 0 36 -24 0 -23 0 -13 45 -13 46 -18 9 -18 10 -14 0 -14 0 5 -28z M60
269 l0 -10 10 6 10 6 0 5 0 4 -10 0 -10 0 0 -11z"/>
</g>
</svg>
