<?xml version="1.0" standalone="no"?>
<!DOCTYPE svg PUBLIC "-//W3C//DTD SVG 20010904//EN"
 "http://www.w3.org/TR/2001/REC-SVG-20010904/DTD/svg10.dtd">
<svg version="1.0" xmlns="http://www.w3.org/2000/svg"
 width="41.000000pt" height="31.000000pt" viewBox="0 0 41.000000 31.000000"
 preserveAspectRatio="xMidYMid meet">
<metadata>
Created by potrace 1.16, written by Peter Selinger 2001-2019
</metadata>
<g transform="translate(0.000000,31.000000) scale(0.100000,-0.100000)"
fill="#000000" stroke="none">
<path d="M255 282 l6 -28 -20 -22 -19 -23 -26 7 -26 6 0 34 0 34 -24 0 -23 0
-32 6 -31 7 0 -22 0 -21 10 0 10 0 0 -19 0 -19 -6 -16 -6 -16 -34 0 -34 0 0
-30 0 -30 24 0 24 0 16 -6 16 -6 0 -34 0 -34 -10 0 -10 0 0 -19 0 -19 16 -6
16 -6 41 0 42 1 18 13 17 13 1 29 2 29 4 -22 4 -22 37 -11 37 -10 18 0 18 0 6
16 6 15 -10 22 -10 22 10 10 11 11 33 -4 33 -4 0 46 0 46 -24 0 -23 0 -13 45
-13 46 -18 9 -18 10 -26 0 -27 0 7 -28z"/>
</g>
</svg>
