<?xml version="1.0" standalone="no"?>
<!DOCTYPE svg PUBLIC "-//W3C//DTD SVG 20010904//EN"
 "http://www.w3.org/TR/2001/REC-SVG-20010904/DTD/svg10.dtd">
<svg version="1.0" xmlns="http://www.w3.org/2000/svg"
 width="29.000000pt" height="30.000000pt" viewBox="0 0 29.000000 30.000000"
 preserveAspectRatio="xMidYMid meet">
<metadata>
Created by potrace 1.16, written by Peter Selinger 2001-2019
</metadata>
<g transform="translate(0.000000,30.000000) scale(0.100000,-0.100000)"
fill="#000000" stroke="none">
<path d="M25 292 l-5 -5 0 -45 0 -44 26 5 25 4 15 -14 14 -14 0 -14 0 -14 -23
-7 -22 -8 -29 3 -29 3 7 -51 7 -51 5 -15 6 -15 50 0 49 0 16 15 15 16 -5 25
-4 25 11 -4 11 -4 3 -28 4 -28 13 -14 14 -13 23 0 23 0 23 7 24 6 -7 21 -7 21
-7 35 -6 35 -20 4 -20 3 -7 11 -6 10 5 14 5 13 34 0 34 0 0 55 0 55 -15 0 -15
0 -45 -12 -45 -12 0 -9 0 -8 -14 -15 -15 -14 -14 14 -14 15 4 25 5 25 -45 -1
-46 -1 -6 -5z"/>
</g>
</svg>
