<?xml version="1.0" standalone="no"?>
<!DOCTYPE svg PUBLIC "-//W3C//DTD SVG 20010904//EN"
 "http://www.w3.org/TR/2001/REC-SVG-20010904/DTD/svg10.dtd">
<svg version="1.0" xmlns="http://www.w3.org/2000/svg"
 width="40.000000pt" height="33.000000pt" viewBox="0 0 40.000000 33.000000"
 preserveAspectRatio="xMidYMid meet">
<metadata>
Created by potrace 1.16, written by Peter Selinger 2001-2019
</metadata>
<g transform="translate(0.000000,33.000000) scale(0.100000,-0.100000)"
fill="#000000" stroke="none">
<path d="M77 323 l-7 -6 0 -38 0 -38 -16 -16 -17 -17 -19 5 -19 5 3 -16 4 -17
31 2 32 3 6 -21 7 -21 -7 -43 -6 -44 43 -3 43 -3 3 -22 3 -21 16 -6 16 -6 18
5 19 6 0 15 0 14 11 0 11 0 -5 21 -6 21 40 -7 39 -7 14 15 15 15 7 26 6 26 13
0 14 0 6 21 7 20 -6 24 -6 24 -28 3 -27 3 -3 43 -3 42 -123 0 -123 0 -6 -7z"/>
</g>
</svg>
