<?xml version="1.0" standalone="no"?>
<!DOCTYPE svg PUBLIC "-//W3C//DTD SVG 20010904//EN"
 "http://www.w3.org/TR/2001/REC-SVG-20010904/DTD/svg10.dtd">
<svg version="1.0" xmlns="http://www.w3.org/2000/svg"
 width="42.000000pt" height="35.000000pt" viewBox="0 0 42.000000 35.000000"
 preserveAspectRatio="xMidYMid meet">
<metadata>
Created by potrace 1.16, written by Peter Selinger 2001-2019
</metadata>
<g transform="translate(0.000000,35.000000) scale(0.100000,-0.100000)"
fill="#000000" stroke="none">
<path d="M77 343 l-7 -6 0 -38 0 -38 -15 -14 -15 -15 -21 5 -21 6 4 -29 3 -29
30 0 30 0 8 -10 7 -10 -6 -52 -6 -52 43 -3 44 -3 3 -22 3 -23 24 -6 24 -6 20
7 21 6 0 15 0 14 10 0 10 0 0 18 0 18 35 -4 34 -4 15 15 15 15 7 26 6 26 13 0
13 0 6 16 6 16 0 26 0 27 -8 11 -7 12 -25 3 -25 4 -3 43 -3 42 -133 0 -133 0
-6 -7z"/>
</g>
</svg>
