<?xml version="1.0" standalone="no"?>
<!DOCTYPE svg PUBLIC "-//W3C//DTD SVG 20010904//EN"
 "http://www.w3.org/TR/2001/REC-SVG-20010904/DTD/svg10.dtd">
<svg version="1.0" xmlns="http://www.w3.org/2000/svg"
 width="27.000000pt" height="28.000000pt" viewBox="0 0 27.000000 28.000000"
 preserveAspectRatio="xMidYMid meet">
<metadata>
Created by potrace 1.16, written by Peter Selinger 2001-2019
</metadata>
<g transform="translate(0.000000,28.000000) scale(0.100000,-0.100000)"
fill="#000000" stroke="none">
<path d="M24 271 l-4 -4 0 -34 0 -33 24 6 23 5 17 -16 16 -16 0 -23 0 -23 -26
-11 -25 -12 -26 6 -26 7 7 -39 7 -39 5 -17 5 -18 40 0 40 0 15 15 15 14 -7 26
-6 25 21 0 20 0 9 -18 9 -17 -4 -12 -5 -13 17 -16 16 -16 35 6 35 7 -8 12 -7
11 -6 36 -5 35 -22 3 -22 3 -6 18 -5 18 6 17 6 16 34 0 34 0 0 46 0 46 -22 -6
-23 -6 -27 -6 -28 -6 0 -10 0 -9 -14 -15 -15 -14 -10 0 -10 0 -16 16 -16 17 5
23 6 23 -36 -2 -35 -2 -5 -4z"/>
</g>
</svg>
