<?xml version="1.0" standalone="no"?>
<!DOCTYPE svg PUBLIC "-//W3C//DTD SVG 20010904//EN"
 "http://www.w3.org/TR/2001/REC-SVG-20010904/DTD/svg10.dtd">
<svg version="1.0" xmlns="http://www.w3.org/2000/svg"
 width="34.000000pt" height="36.000000pt" viewBox="0 0 34.000000 36.000000"
 preserveAspectRatio="xMidYMid meet">
<metadata>
Created by potrace 1.16, written by Peter Selinger 2001-2019
</metadata>
<g transform="translate(0.000000,36.000000) scale(0.100000,-0.100000)"
fill="#000000" stroke="none">
<path d="M80 319 l0 -37 -6 -16 -6 -16 -34 0 -34 0 0 -21 0 -21 29 7 29 6 6
-18 5 -18 7 -47 6 -48 39 0 40 0 3 -13 4 -12 6 -27 6 -27 20 -6 20 -6 15 15
15 15 0 19 0 20 39 7 39 6 6 37 6 37 0 13 0 13 -10 -6 -10 -6 -34 11 -34 11
-6 25 -7 25 15 15 15 15 24 -6 24 -6 7 23 6 23 0 29 0 28 -16 -6 -16 -6 -24 0
-24 0 0 -19 0 -20 -16 -15 -15 -16 -24 0 -24 0 -3 33 -3 32 -42 6 -43 5 0 -37z"/>
</g>
</svg>
