<?xml version="1.0" standalone="no"?>
<!DOCTYPE svg PUBLIC "-//W3C//DTD SVG 20010904//EN"
 "http://www.w3.org/TR/2001/REC-SVG-20010904/DTD/svg10.dtd">
<svg version="1.0" xmlns="http://www.w3.org/2000/svg"
 width="27.000000pt" height="27.000000pt" viewBox="0 0 27.000000 27.000000"
 preserveAspectRatio="xMidYMid meet">
<metadata>
Created by potrace 1.16, written by Peter Selinger 2001-2019
</metadata>
<g transform="translate(0.000000,27.000000) scale(0.100000,-0.100000)"
fill="#000000" stroke="none">
<path d="M3 258 l-4 -8 12 0 11 0 -4 -35 -4 -35 22 0 22 0 16 -6 16 -6 0 -25
0 -24 -14 -15 -15 -14 -20 0 -21 0 0 -29 0 -29 -13 -5 -12 -5 15 -11 15 -11
40 0 40 0 13 8 12 8 -2 25 -3 24 23 3 22 3 0 -11 0 -11 13 -13 13 -14 32 -7
32 -7 0 40 0 40 -29 5 -28 6 -7 17 -6 17 5 18 6 18 35 7 34 6 0 42 0 41 -45
-3 -45 -4 0 -23 0 -23 -16 -6 -16 -6 -25 6 -25 7 6 22 6 23 -51 4 -51 3 -5 -7z"/>
</g>
</svg>
