<?xml version="1.0" standalone="no"?>
<!DOCTYPE svg PUBLIC "-//W3C//DTD SVG 20010904//EN"
 "http://www.w3.org/TR/2001/REC-SVG-20010904/DTD/svg10.dtd">
<svg version="1.0" xmlns="http://www.w3.org/2000/svg"
 width="29.000000pt" height="29.000000pt" viewBox="0 0 29.000000 29.000000"
 preserveAspectRatio="xMidYMid meet">
<metadata>
Created by potrace 1.16, written by Peter Selinger 2001-2019
</metadata>
<g transform="translate(0.000000,29.000000) scale(0.100000,-0.100000)"
fill="#000000" stroke="none">
<path d="M4 275 l-7 -17 13 -8 12 -8 -7 -31 -7 -31 25 0 25 0 16 -6 16 -6 0
-15 0 -14 -14 -15 -15 -14 -20 0 -21 0 0 -30 0 -30 -10 0 -10 0 0 -19 0 -19
16 -6 16 -6 43 0 43 0 16 6 16 6 0 29 0 29 10 0 10 0 0 -11 0 -10 14 -14 14
-14 41 -7 41 -7 0 52 0 51 -19 0 -20 0 -15 15 -15 16 5 14 6 14 34 7 34 6 0
55 0 55 -22 -6 -23 -6 -32 0 -33 0 0 -24 0 -24 -12 -5 -13 -4 -16 4 -16 5 5
24 4 24 -38 0 -39 0 -22 6 -23 6 -6 -17z"/>
</g>
</svg>
