<?xml version="1.0" standalone="no"?>
<!DOCTYPE svg PUBLIC "-//W3C//DTD SVG 20010904//EN"
 "http://www.w3.org/TR/2001/REC-SVG-20010904/DTD/svg10.dtd">
<svg version="1.0" xmlns="http://www.w3.org/2000/svg"
 width="36.000000pt" height="38.000000pt" viewBox="0 0 36.000000 38.000000"
 preserveAspectRatio="xMidYMid meet">
<metadata>
Created by potrace 1.16, written by Peter Selinger 2001-2019
</metadata>
<g transform="translate(0.000000,38.000000) scale(0.100000,-0.100000)"
fill="#000000" stroke="none">
<path d="M80 341 l0 -39 -6 -16 -6 -16 -34 0 -34 0 0 -31 0 -31 30 4 30 5 4
-16 5 -16 6 -47 7 -47 41 -3 41 -3 7 -34 7 -34 14 -8 13 -9 18 0 18 0 15 14
14 15 0 19 0 20 39 7 39 6 6 37 6 37 0 23 0 23 -17 -2 -18 -3 -27 7 -27 7 -3
18 -4 17 10 11 10 10 26 -4 27 -4 6 24 7 23 0 39 0 39 -31 -7 -31 -6 -19 0
-19 0 0 -19 0 -20 -16 -15 -15 -16 -15 0 -14 0 0 30 0 31 -12 3 -13 4 -42 6
-43 6 0 -39z"/>
</g>
</svg>
