<?xml version="1.0" standalone="no"?>
<!DOCTYPE svg PUBLIC "-//W3C//DTD SVG 20010904//EN"
 "http://www.w3.org/TR/2001/REC-SVG-20010904/DTD/svg10.dtd">
<svg version="1.0" xmlns="http://www.w3.org/2000/svg"
 width="36.000000pt" height="35.000000pt" viewBox="0 0 36.000000 35.000000"
 preserveAspectRatio="xMidYMid meet">
<metadata>
Created by potrace 1.16, written by Peter Selinger 2001-2019
</metadata>
<g transform="translate(0.000000,35.000000) scale(0.100000,-0.100000)"
fill="#000000" stroke="none">
<path d="M114 316 l6 -33 -30 -13 -30 -12 -30 4 -30 5 0 -39 0 -39 14 -15 15
-14 20 0 21 0 0 -14 0 -14 -29 -7 -29 -6 -5 -52 -5 -52 12 -7 11 -8 38 0 38 0
15 15 15 14 -7 27 -7 26 19 -4 19 -4 -3 -17 -3 -17 15 -15 15 -15 33 0 33 0
23 6 22 6 0 32 0 31 8 12 7 11 28 7 27 7 0 25 0 24 -15 16 -16 15 -24 -5 -25
-4 0 38 0 39 -54 0 -54 0 -6 16 -6 16 0 24 0 24 -26 0 -26 0 6 -34z"/>
</g>
</svg>
