<?xml version="1.0" standalone="no"?>
<!DOCTYPE svg PUBLIC "-//W3C//DTD SVG 20010904//EN"
 "http://www.w3.org/TR/2001/REC-SVG-20010904/DTD/svg10.dtd">
<svg version="1.0" xmlns="http://www.w3.org/2000/svg"
 width="38.000000pt" height="37.000000pt" viewBox="0 0 38.000000 37.000000"
 preserveAspectRatio="xMidYMid meet">
<metadata>
Created by potrace 1.16, written by Peter Selinger 2001-2019
</metadata>
<g transform="translate(0.000000,37.000000) scale(0.100000,-0.100000)"
fill="#000000" stroke="none">
<path d="M112 335 l4 -34 -27 -12 -28 -11 -30 7 -31 7 0 -52 0 -51 14 -15 15
-14 23 -1 23 -1 -31 -10 -31 -10 -7 -61 -6 -61 12 -8 13 -8 48 0 48 0 15 15
15 15 10 0 9 0 0 -10 0 -10 48 0 47 0 23 6 22 6 0 32 0 31 8 12 7 11 28 7 27
7 0 35 0 34 -14 15 -15 14 -25 0 -26 0 0 35 0 35 -54 0 -54 0 -6 16 -6 16 0
24 0 24 -36 0 -36 0 4 -35z"/>
</g>
</svg>
