<?xml version="1.0" standalone="no"?>
<!DOCTYPE svg PUBLIC "-//W3C//DTD SVG 20010904//EN"
 "http://www.w3.org/TR/2001/REC-SVG-20010904/DTD/svg10.dtd">
<svg version="1.0" xmlns="http://www.w3.org/2000/svg"
 width="33.000000pt" height="43.000000pt" viewBox="0 0 33.000000 43.000000"
 preserveAspectRatio="xMidYMid meet">
<metadata>
Created by potrace 1.16, written by Peter Selinger 2001-2019
</metadata>
<g transform="translate(0.000000,43.000000) scale(0.100000,-0.100000)"
fill="#000000" stroke="none">
<path d="M97 423 l-7 -6 0 -18 0 -18 -16 -16 -16 -16 -29 6 -29 7 0 -52 0 -52
28 4 28 4 13 -14 13 -13 -6 -25 -6 -24 -19 0 -19 0 -16 -40 -16 -40 0 -14 0
-14 16 -6 16 -6 19 0 19 0 0 -19 0 -20 16 -15 15 -16 20 0 20 0 15 14 14 15 0
8 0 9 49 13 49 12 6 16 6 15 0 28 0 29 16 15 15 16 10 0 9 0 0 41 0 41 -20 -5
-20 -5 -15 15 -15 14 0 30 0 30 -45 -7 -45 -6 0 27 0 26 -10 20 -11 19 -23 0
-23 0 -6 -7z"/>
</g>
</svg>
