<?xml version="1.0" standalone="no"?>
<!DOCTYPE svg PUBLIC "-//W3C//DTD SVG 20010904//EN"
 "http://www.w3.org/TR/2001/REC-SVG-20010904/DTD/svg10.dtd">
<svg version="1.0" xmlns="http://www.w3.org/2000/svg"
 width="34.000000pt" height="29.000000pt" viewBox="0 0 34.000000 29.000000"
 preserveAspectRatio="xMidYMid meet">
<metadata>
Created by potrace 1.16, written by Peter Selinger 2001-2019
</metadata>
<g transform="translate(0.000000,29.000000) scale(0.100000,-0.100000)"
fill="#000000" stroke="none">
<path d="M80 236 l0 -56 -40 0 -40 0 0 -35 0 -35 23 0 23 0 19 -13 18 -14 -7
-41 -6 -42 39 0 40 0 26 12 25 11 0 24 0 24 17 -3 18 -3 3 -19 4 -20 13 -13
14 -13 29 0 30 0 6 17 7 17 -13 44 -13 43 -17 -4 -17 -5 -6 19 -6 18 7 36 6
35 -25 0 -25 0 -4 -10 -3 -9 -13 8 -14 8 -7 34 -7 34 -52 3 -52 3 0 -55z"/>
</g>
</svg>
