<?xml version="1.0" standalone="no"?>
<!DOCTYPE svg PUBLIC "-//W3C//DTD SVG 20010904//EN"
 "http://www.w3.org/TR/2001/REC-SVG-20010904/DTD/svg10.dtd">
<svg version="1.0" xmlns="http://www.w3.org/2000/svg"
 width="32.000000pt" height="27.000000pt" viewBox="0 0 32.000000 27.000000"
 preserveAspectRatio="xMidYMid meet">
<metadata>
Created by potrace 1.16, written by Peter Selinger 2001-2019
</metadata>
<g transform="translate(0.000000,27.000000) scale(0.100000,-0.100000)"
fill="#000000" stroke="none">
<path d="M80 215 l0 -55 -40 0 -40 0 0 -25 0 -25 23 0 23 0 18 -13 18 -14 -4
-41 -4 -42 28 0 27 0 26 12 25 11 0 24 0 24 27 -3 28 -3 3 -19 4 -20 13 -13
14 -13 19 0 20 0 5 14 5 14 -11 33 -12 34 -17 -3 -17 -3 -7 26 -6 26 6 29 6
30 -14 0 -14 0 -4 -11 -4 -12 -22 7 -22 7 -6 27 -6 27 -4 13 -3 12 -41 0 -40
0 0 -55z"/>
</g>
</svg>
