<?xml version="1.0" standalone="no"?>
<!DOCTYPE svg PUBLIC "-//W3C//DTD SVG 20010904//EN"
 "http://www.w3.org/TR/2001/REC-SVG-20010904/DTD/svg10.dtd">
<svg version="1.0" xmlns="http://www.w3.org/2000/svg"
 width="31.000000pt" height="41.000000pt" viewBox="0 0 31.000000 41.000000"
 preserveAspectRatio="xMidYMid meet">
<metadata>
Created by potrace 1.16, written by Peter Selinger 2001-2019
</metadata>
<g transform="translate(0.000000,41.000000) scale(0.100000,-0.100000)"
fill="#000000" stroke="none">
<path d="M97 403 l-4 -8 -7 -27 -6 -28 -25 -6 -25 -6 -15 6 -15 5 0 -40 0 -41
25 6 26 7 14 -15 15 -15 0 -19 0 -20 -6 -16 -6 -16 -18 0 -18 0 -16 -42 -17
-41 13 -9 13 -8 28 6 28 6 -6 -25 -6 -24 16 -17 16 -16 10 0 10 0 15 14 14 15
0 8 0 9 49 13 49 12 6 16 6 15 0 28 0 29 16 15 15 16 10 0 9 0 0 29 0 29 -19
-5 -18 -5 -17 17 -16 16 0 28 0 29 -45 -6 -45 -5 0 27 0 27 -10 20 -11 19 -14
0 -14 0 -4 -7z"/>
</g>
</svg>
