<?xml version="1.0" standalone="no"?>
<!DOCTYPE svg PUBLIC "-//W3C//DTD SVG 20010904//EN"
 "http://www.w3.org/TR/2001/REC-SVG-20010904/DTD/svg10.dtd">
<svg version="1.0" xmlns="http://www.w3.org/2000/svg"
 width="36.000000pt" height="33.000000pt" viewBox="0 0 36.000000 33.000000"
 preserveAspectRatio="xMidYMid meet">
<metadata>
Created by potrace 1.16, written by Peter Selinger 2001-2019
</metadata>
<g transform="translate(0.000000,33.000000) scale(0.100000,-0.100000)"
fill="#000000" stroke="none">
<path d="M114 312 l7 -20 -16 -16 -16 -16 -2 0 -2 0 -33 9 -32 10 0 -43 0 -42
45 -12 45 -12 0 -21 0 -20 -17 -17 -16 -17 -38 1 -37 1 1 -43 2 -44 32 -6 31
-6 21 7 20 6 3 32 3 32 28 3 28 3 -6 -24 -7 -25 19 -5 18 -5 38 -7 37 -6 0 51
0 51 19 -6 19 -6 26 12 26 12 0 23 0 24 -40 6 -40 7 0 40 0 40 -37 -6 -38 -6
-12 7 -11 7 -4 30 -3 30 -33 3 -34 3 6 -19z"/>
</g>
</svg>
