<?xml version="1.0" standalone="no"?>
<!DOCTYPE svg PUBLIC "-//W3C//DTD SVG 20010904//EN"
 "http://www.w3.org/TR/2001/REC-SVG-20010904/DTD/svg10.dtd">
<svg version="1.0" xmlns="http://www.w3.org/2000/svg"
 width="38.000000pt" height="35.000000pt" viewBox="0 0 38.000000 35.000000"
 preserveAspectRatio="xMidYMid meet">
<metadata>
Created by potrace 1.16, written by Peter Selinger 2001-2019
</metadata>
<g transform="translate(0.000000,35.000000) scale(0.100000,-0.100000)"
fill="#000000" stroke="none">
<path d="M110 319 l0 -32 -45 6 -45 7 0 -53 0 -53 45 -12 45 -12 0 -11 0 -10
-16 -16 -16 -16 -39 1 -38 2 0 -54 1 -54 22 -6 21 -6 30 0 30 0 12 8 11 7 4
29 3 29 13 5 12 4 0 -25 0 -26 18 -5 17 -5 48 -7 47 -6 0 46 0 46 20 0 19 0
26 12 25 11 0 33 0 34 -40 6 -40 7 0 39 0 40 -37 -2 -38 -2 -12 1 -12 1 -3 33
-3 32 -42 3 -43 3 0 -32z"/>
</g>
</svg>
