<?xml version="1.0" standalone="no"?>
<!DOCTYPE svg PUBLIC "-//W3C//DTD SVG 20010904//EN"
 "http://www.w3.org/TR/2001/REC-SVG-20010904/DTD/svg10.dtd">
<svg version="1.0" xmlns="http://www.w3.org/2000/svg"
 width="39.000000pt" height="36.000000pt" viewBox="0 0 39.000000 36.000000"
 preserveAspectRatio="xMidYMid meet">
<metadata>
Created by potrace 1.16, written by Peter Selinger 2001-2019
</metadata>
<g transform="translate(0.000000,36.000000) scale(0.100000,-0.100000)"
fill="#000000" stroke="none">
<path d="M192 338 l4 -24 -13 -13 -13 -12 -45 6 -44 7 -3 -43 -3 -43 -37 -9
-38 -9 0 -31 0 -32 8 -12 7 -11 27 -7 27 -7 7 -31 6 -31 14 -13 13 -13 44 0
45 0 16 6 16 6 0 24 0 24 10 0 10 0 0 -29 0 -29 16 -6 16 -6 38 0 39 0 15 16
16 15 0 44 0 44 -16 15 -15 16 -30 0 -29 0 0 14 0 13 25 -5 25 -4 0 11 0 11
14 0 14 0 6 35 7 36 -6 20 -7 21 -22 -6 -22 -5 -35 9 -36 10 1 22 1 23 -39 3
-39 3 5 -23z"/>
</g>
</svg>
