<?xml version="1.0" standalone="no"?>
<!DOCTYPE svg PUBLIC "-//W3C//DTD SVG 20010904//EN"
 "http://www.w3.org/TR/2001/REC-SVG-20010904/DTD/svg10.dtd">
<svg version="1.0" xmlns="http://www.w3.org/2000/svg"
 width="37.000000pt" height="34.000000pt" viewBox="0 0 37.000000 34.000000"
 preserveAspectRatio="xMidYMid meet">
<metadata>
Created by potrace 1.16, written by Peter Selinger 2001-2019
</metadata>
<g transform="translate(0.000000,34.000000) scale(0.100000,-0.100000)"
fill="#000000" stroke="none">
<path d="M195 321 l6 -21 -16 -16 -16 -17 -44 6 -44 6 -3 -41 -3 -42 -37 -9
-38 -9 0 -21 0 -22 9 -13 8 -14 26 -1 26 -2 6 -34 6 -34 14 -13 14 -14 38 0
38 0 14 9 13 9 -7 21 -6 21 25 0 26 0 1 -12 1 -13 -2 -14 -2 -14 14 -8 13 -9
32 0 32 0 15 16 16 15 0 34 0 34 -16 15 -15 16 -30 0 -29 0 0 26 0 26 25 -6
25 -6 0 10 0 10 14 0 14 0 5 30 6 30 -5 14 -5 14 -18 -5 -18 -5 -42 12 -42 11
3 22 3 22 -28 3 -29 4 7 -21z"/>
</g>
</svg>
