<?xml version="1.0" standalone="no"?>
<!DOCTYPE svg PUBLIC "-//W3C//DTD SVG 20010904//EN"
 "http://www.w3.org/TR/2001/REC-SVG-20010904/DTD/svg10.dtd">
<svg version="1.0" xmlns="http://www.w3.org/2000/svg"
 width="37.000000pt" height="34.000000pt" viewBox="0 0 37.000000 34.000000"
 preserveAspectRatio="xMidYMid meet">
<metadata>
Created by potrace 1.16, written by Peter Selinger 2001-2019
</metadata>
<g transform="translate(0.000000,34.000000) scale(0.100000,-0.100000)"
fill="#000000" stroke="none">
<path d="M200 313 l0 -28 -9 -13 -8 -14 -49 3 -49 3 -3 -43 -3 -43 -25 6 -25
7 -14 -15 -15 -15 0 -20 0 -19 33 -11 34 -12 18 7 18 7 -7 -48 -8 -48 14 -8
13 -9 28 0 28 0 15 15 15 15 -6 21 -7 21 29 -4 28 -3 -3 -22 -3 -22 42 -11 42
-11 23 5 24 6 0 44 0 44 -16 6 -16 6 -18 0 -18 0 -6 16 -6 16 0 4 0 4 24 0 24
0 16 6 16 6 0 49 0 48 -20 11 -20 11 0 -11 0 -10 -27 6 -28 6 -17 5 -18 4 0
30 0 29 -20 0 -20 0 0 -27z"/>
</g>
</svg>
