<?xml version="1.0" standalone="no"?>
<!DOCTYPE svg PUBLIC "-//W3C//DTD SVG 20010904//EN"
 "http://www.w3.org/TR/2001/REC-SVG-20010904/DTD/svg10.dtd">
<svg version="1.0" xmlns="http://www.w3.org/2000/svg"
 width="39.000000pt" height="36.000000pt" viewBox="0 0 39.000000 36.000000"
 preserveAspectRatio="xMidYMid meet">
<metadata>
Created by potrace 1.16, written by Peter Selinger 2001-2019
</metadata>
<g transform="translate(0.000000,36.000000) scale(0.100000,-0.100000)"
fill="#000000" stroke="none">
<path d="M200 333 l0 -28 -9 -13 -8 -14 -49 4 -49 3 -3 -41 -3 -41 -24 5 -24
4 -16 -15 -15 -16 0 -29 0 -30 31 -11 32 -11 18 0 17 0 -5 -41 -6 -41 14 -9
14 -9 38 0 38 0 15 14 14 15 0 20 0 21 10 0 10 0 0 -25 0 -24 38 -10 37 -11
22 0 21 0 16 6 16 6 0 53 0 53 -16 6 -16 6 -19 0 -19 0 0 10 0 10 19 0 19 0
16 6 16 6 0 59 0 58 -20 11 -20 10 -24 -6 -25 -6 -20 7 -21 6 0 30 0 29 -30 0
-30 0 0 -27z"/>
</g>
</svg>
