<?xml version="1.0" standalone="no"?>
<!DOCTYPE svg PUBLIC "-//W3C//DTD SVG 20010904//EN"
 "http://www.w3.org/TR/2001/REC-SVG-20010904/DTD/svg10.dtd">
<svg version="1.0" xmlns="http://www.w3.org/2000/svg"
 width="29.000000pt" height="33.000000pt" viewBox="0 0 29.000000 33.000000"
 preserveAspectRatio="xMidYMid meet">
<metadata>
Created by potrace 1.16, written by Peter Selinger 2001-2019
</metadata>
<g transform="translate(0.000000,33.000000) scale(0.100000,-0.100000)"
fill="#000000" stroke="none">
<path d="M124 305 l7 -26 -15 -14 -15 -15 -40 0 -41 0 0 -41 0 -40 11 6 10 7
30 -12 29 -12 0 -24 0 -24 -15 0 -15 0 0 -10 0 -10 -35 0 -35 0 6 -32 6 -33 4
-12 3 -13 131 0 130 0 0 43 0 42 -9 13 -8 13 -29 8 -29 7 1 10 0 9 20 3 19 3
23 5 22 4 0 46 0 46 -45 -6 -45 -7 -16 15 -16 16 5 13 4 12 -9 18 -9 17 -20 0
-21 0 6 -25z"/>
</g>
</svg>
