<?xml version="1.0" standalone="no"?>
<!DOCTYPE svg PUBLIC "-//W3C//DTD SVG 20010904//EN"
 "http://www.w3.org/TR/2001/REC-SVG-20010904/DTD/svg10.dtd">
<svg version="1.0" xmlns="http://www.w3.org/2000/svg"
 width="31.000000pt" height="35.000000pt" viewBox="0 0 31.000000 35.000000"
 preserveAspectRatio="xMidYMid meet">
<metadata>
Created by potrace 1.16, written by Peter Selinger 2001-2019
</metadata>
<g transform="translate(0.000000,35.000000) scale(0.100000,-0.100000)"
fill="#000000" stroke="none">
<path d="M122 322 l4 -28 -13 -12 -12 -12 -41 0 -40 0 0 -51 0 -50 18 2 17 3
23 -8 22 -7 0 -15 0 -14 -15 0 -15 0 0 -10 0 -10 -36 0 -35 0 7 -47 7 -48 4
-7 4 -8 140 0 139 0 0 53 0 52 -9 13 -8 13 -29 9 -29 8 27 1 26 1 16 6 16 6 0
55 0 56 -47 -6 -46 -5 -12 12 -12 11 4 12 4 12 -11 20 -11 21 -30 0 -31 0 4
-28z"/>
</g>
</svg>
