<?xml version="1.0" standalone="no"?>
<!DOCTYPE svg PUBLIC "-//W3C//DTD SVG 20010904//EN"
 "http://www.w3.org/TR/2001/REC-SVG-20010904/DTD/svg10.dtd">
<svg version="1.0" xmlns="http://www.w3.org/2000/svg"
 width="28.000000pt" height="35.000000pt" viewBox="0 0 28.000000 35.000000"
 preserveAspectRatio="xMidYMid meet">
<metadata>
Created by potrace 1.16, written by Peter Selinger 2001-2019
</metadata>
<g transform="translate(0.000000,35.000000) scale(0.100000,-0.100000)"
fill="#000000" stroke="none">
<path d="M133 324 l0 -26 -14 -9 -14 -10 -47 3 -48 3 -5 -13 -5 -14 0 -17 0
-18 19 -21 18 -22 17 0 16 0 0 -25 0 -25 -14 0 -15 0 -15 -16 -16 -15 0 -34 0
-34 20 -5 20 -6 19 -5 19 -6 16 17 17 16 -7 20 -6 19 34 -3 33 -3 3 -32 3 -31
16 -6 16 -7 31 11 31 10 2 50 2 50 -23 -6 -23 -5 -17 16 -16 16 0 25 0 25 29
5 28 6 10 44 10 44 -22 -6 -22 -5 -42 11 -42 11 3 21 3 21 -11 4 -11 4 0 -27z"/>
</g>
</svg>
