<?xml version="1.0" standalone="no"?>
<!DOCTYPE svg PUBLIC "-//W3C//DTD SVG 20010904//EN"
 "http://www.w3.org/TR/2001/REC-SVG-20010904/DTD/svg10.dtd">
<svg version="1.0" xmlns="http://www.w3.org/2000/svg"
 width="30.000000pt" height="37.000000pt" viewBox="0 0 30.000000 37.000000"
 preserveAspectRatio="xMidYMid meet">
<metadata>
Created by potrace 1.16, written by Peter Selinger 2001-2019
</metadata>
<g transform="translate(0.000000,37.000000) scale(0.100000,-0.100000)"
fill="#000000" stroke="none">
<path d="M130 341 l0 -31 -25 -6 -25 -6 -34 6 -34 6 -6 -16 -6 -16 0 -27 0
-28 19 -21 18 -22 17 0 16 0 0 -15 0 -15 -14 0 -15 0 -15 -16 -16 -15 0 -44 0
-44 40 -11 41 -11 20 6 20 7 6 29 6 30 16 -3 16 -3 3 -33 3 -32 24 -6 24 -6
34 11 35 12 1 61 1 60 -26 -5 -25 -4 -15 14 -14 14 0 15 0 14 29 6 29 6 5 28
6 28 7 27 7 28 -30 -6 -31 -6 -34 9 -35 10 1 22 1 23 -22 3 -23 3 0 -30z"/>
</g>
</svg>
