<?xml version="1.0" standalone="no"?>
<!DOCTYPE svg PUBLIC "-//W3C//DTD SVG 20010904//EN"
 "http://www.w3.org/TR/2001/REC-SVG-20010904/DTD/svg10.dtd">
<svg version="1.0" xmlns="http://www.w3.org/2000/svg"
 width="37.000000pt" height="41.000000pt" viewBox="0 0 37.000000 41.000000"
 preserveAspectRatio="xMidYMid meet">
<metadata>
Created by potrace 1.16, written by Peter Selinger 2001-2019
</metadata>
<g transform="translate(0.000000,41.000000) scale(0.100000,-0.100000)"
fill="#000000" stroke="none">
<path d="M203 404 l-12 -5 5 -28 6 -28 -30 -12 -31 -13 -30 7 -31 7 0 -41 0
-41 -26 0 -25 0 -15 -14 -14 -15 0 -18 0 -18 9 -14 8 -13 34 -3 34 -3 -3 -40
-3 -39 23 -7 23 -6 33 0 32 0 -6 -24 -6 -23 25 -7 25 -6 16 6 16 6 0 24 0 24
34 0 34 0 16 6 16 6 0 53 0 53 -16 6 -16 6 -24 0 -24 0 0 15 0 15 39 0 39 0 6
16 6 16 0 33 0 33 -16 6 -16 6 -26 0 -27 0 -23 6 -23 7 6 25 6 25 -13 8 -13 9
-5 -1 -5 -1 -12 -4z"/>
</g>
</svg>
