<?xml version="1.0" standalone="no"?>
<!DOCTYPE svg PUBLIC "-//W3C//DTD SVG 20010904//EN"
 "http://www.w3.org/TR/2001/REC-SVG-20010904/DTD/svg10.dtd">
<svg version="1.0" xmlns="http://www.w3.org/2000/svg"
 width="34.000000pt" height="36.000000pt" viewBox="0 0 34.000000 36.000000"
 preserveAspectRatio="xMidYMid meet">
<metadata>
Created by potrace 1.16, written by Peter Selinger 2001-2019
</metadata>
<g transform="translate(0.000000,36.000000) scale(0.100000,-0.100000)"
fill="#000000" stroke="none">
<path d="M147 353 l-7 -6 0 -28 0 -27 -16 -6 -16 -6 -44 0 -44 0 0 -47 0 -48
9 -13 8 -14 29 4 29 3 3 -18 3 -17 -13 -4 -13 -4 -37 -7 -38 -6 0 -16 0 -17
12 -33 12 -34 23 -5 23 -6 47 6 48 6 30 -2 30 -1 48 -1 48 -1 9 15 10 15 0 38
0 38 -15 15 -15 15 -27 -3 -28 -3 -3 16 -3 16 29 -5 29 -4 12 33 11 32 0 29 0
30 -49 -7 -50 -7 -10 40 -11 40 -16 6 -16 6 -12 0 -13 0 -6 -7z"/>
</g>
</svg>
