<?xml version="1.0" standalone="no"?>
<!DOCTYPE svg PUBLIC "-//W3C//DTD SVG 20010904//EN"
 "http://www.w3.org/TR/2001/REC-SVG-20010904/DTD/svg10.dtd">
<svg version="1.0" xmlns="http://www.w3.org/2000/svg"
 width="39.000000pt" height="43.000000pt" viewBox="0 0 39.000000 43.000000"
 preserveAspectRatio="xMidYMid meet">
<metadata>
Created by potrace 1.16, written by Peter Selinger 2001-2019
</metadata>
<g transform="translate(0.000000,43.000000) scale(0.100000,-0.100000)"
fill="#000000" stroke="none">
<path d="M201 421 l-14 -9 6 -24 7 -25 -25 -11 -24 -11 -35 6 -36 6 0 -42 0
-41 -26 0 -25 0 -15 -14 -14 -15 0 -24 0 -25 6 -16 6 -16 37 -6 36 -6 -3 -38
-4 -37 24 -6 23 -7 28 0 27 0 0 -24 0 -24 30 -7 30 -6 20 6 20 6 0 25 0 24 34
0 34 0 16 6 16 6 0 64 0 64 -22 4 -23 5 -20 4 -20 5 41 1 42 1 6 16 6 16 0 43
0 43 -16 6 -16 6 -26 0 -27 0 -21 6 -21 6 5 25 5 25 -14 9 -14 9 -15 0 -15 0
-14 -9z"/>
</g>
</svg>
