<?xml version="1.0" standalone="no"?>
<!DOCTYPE svg PUBLIC "-//W3C//DTD SVG 20010904//EN"
 "http://www.w3.org/TR/2001/REC-SVG-20010904/DTD/svg10.dtd">
<svg version="1.0" xmlns="http://www.w3.org/2000/svg"
 width="32.000000pt" height="34.000000pt" viewBox="0 0 32.000000 34.000000"
 preserveAspectRatio="xMidYMid meet">
<metadata>
Created by potrace 1.16, written by Peter Selinger 2001-2019
</metadata>
<g transform="translate(0.000000,34.000000) scale(0.100000,-0.100000)"
fill="#000000" stroke="none">
<path d="M147 333 l-7 -6 0 -28 0 -27 -16 -6 -16 -6 -44 0 -44 0 0 -37 0 -38
8 -12 8 -12 29 2 30 2 0 -30 0 -29 -44 -8 -44 -7 -5 -5 -5 -5 14 -33 13 -33
10 -7 11 -8 37 0 36 0 16 6 16 6 0 30 0 30 13 -5 12 -4 -3 -21 -3 -21 42 -11
42 -11 26 6 26 7 7 11 8 12 0 28 0 28 -14 14 -14 14 -28 -2 -29 -2 -3 28 -4
29 30 -7 30 -6 11 32 11 32 0 18 0 18 -49 -6 -50 -6 -10 41 -11 40 -16 6 -16
6 -2 0 -3 0 -6 -7z"/>
</g>
</svg>
