<?xml version="1.0" standalone="no"?>
<!DOCTYPE svg PUBLIC "-//W3C//DTD SVG 20010904//EN"
 "http://www.w3.org/TR/2001/REC-SVG-20010904/DTD/svg10.dtd">
<svg version="1.0" xmlns="http://www.w3.org/2000/svg"
 width="29.000000pt" height="37.000000pt" viewBox="0 0 29.000000 37.000000"
 preserveAspectRatio="xMidYMid meet">
<metadata>
Created by potrace 1.16, written by Peter Selinger 2001-2019
</metadata>
<g transform="translate(0.000000,37.000000) scale(0.100000,-0.100000)"
fill="#000000" stroke="none">
<path d="M130 344 l0 -27 -17 -13 -18 -13 -37 -1 -38 0 0 -50 0 -50 24 0 24 0
5 -19 5 -20 -15 -5 -15 -6 -24 0 -24 0 1 -60 1 -59 34 -7 34 -6 25 6 26 7 6
29 6 30 8 5 8 6 10 -20 11 -20 0 -27 0 -26 55 4 55 5 4 4 3 4 -5 58 -5 59 -16
-5 -17 -4 -12 13 -12 13 0 20 0 19 30 7 30 7 6 22 5 23 -3 34 -3 34 -26 1 -26
1 -25 6 -26 7 -5 20 -5 20 -21 0 -21 0 0 -26z"/>
</g>
</svg>
