<?xml version="1.0" standalone="no"?>
<!DOCTYPE svg PUBLIC "-//W3C//DTD SVG 20010904//EN"
 "http://www.w3.org/TR/2001/REC-SVG-20010904/DTD/svg10.dtd">
<svg version="1.0" xmlns="http://www.w3.org/2000/svg"
 width="35.000000pt" height="34.000000pt" viewBox="0 0 35.000000 34.000000"
 preserveAspectRatio="xMidYMid meet">
<metadata>
Created by potrace 1.16, written by Peter Selinger 2001-2019
</metadata>
<g transform="translate(0.000000,34.000000) scale(0.100000,-0.100000)"
fill="#000000" stroke="none">
<path d="M128 329 l-18 -10 0 -18 0 -19 -16 -6 -16 -6 -39 0 -39 0 0 -39 0
-40 16 -16 17 -17 18 5 19 5 0 -24 0 -24 -12 -1 -13 -1 -14 2 -14 2 -8 -14 -9
-13 0 -27 0 -26 6 -16 6 -16 38 0 38 0 16 6 16 6 0 28 0 29 9 5 9 6 16 -6 16
-6 10 -39 11 -39 29 0 28 0 16 6 16 6 -6 9 -5 9 11 39 10 40 23 7 22 7 7 10 6
10 -5 14 -5 13 -10 -6 -9 -6 -24 6 -24 6 -6 45 -7 44 -29 -6 -28 -5 -15 15
-15 14 6 23 6 22 -14 9 -14 9 -5 0 -5 -1 -17 -10z"/>
</g>
</svg>
