<?xml version="1.0" standalone="no"?>
<!DOCTYPE svg PUBLIC "-//W3C//DTD SVG 20010904//EN"
 "http://www.w3.org/TR/2001/REC-SVG-20010904/DTD/svg10.dtd">
<svg version="1.0" xmlns="http://www.w3.org/2000/svg"
 width="27.000000pt" height="35.000000pt" viewBox="0 0 27.000000 35.000000"
 preserveAspectRatio="xMidYMid meet">
<metadata>
Created by potrace 1.16, written by Peter Selinger 2001-2019
</metadata>
<g transform="translate(0.000000,35.000000) scale(0.100000,-0.100000)"
fill="#000000" stroke="none">
<path d="M130 324 l0 -27 -17 -13 -18 -13 -37 -1 -38 0 0 -40 0 -40 24 0 24 0
6 -27 7 -26 -13 -8 -13 -9 -27 0 -27 0 2 -50 2 -50 27 -5 28 -6 20 6 21 7 6
30 6 30 15 5 15 6 13 -18 14 -19 0 -28 0 -28 28 0 27 0 20 6 20 5 -3 49 -4 49
-14 -6 -13 -5 -16 15 -15 16 0 29 0 30 30 7 30 7 6 23 6 23 -4 23 -3 24 -13
-3 -13 -2 -38 10 -39 10 -5 20 -5 20 -11 0 -11 0 0 -26z"/>
</g>
</svg>
