<?xml version="1.0" standalone="no"?>
<!DOCTYPE svg PUBLIC "-//W3C//DTD SVG 20010904//EN"
 "http://www.w3.org/TR/2001/REC-SVG-20010904/DTD/svg10.dtd">
<svg version="1.0" xmlns="http://www.w3.org/2000/svg"
 width="37.000000pt" height="36.000000pt" viewBox="0 0 37.000000 36.000000"
 preserveAspectRatio="xMidYMid meet">
<metadata>
Created by potrace 1.16, written by Peter Selinger 2001-2019
</metadata>
<g transform="translate(0.000000,36.000000) scale(0.100000,-0.100000)"
fill="#000000" stroke="none">
<path d="M128 349 l-18 -10 0 -18 0 -19 -16 -6 -16 -6 -39 0 -39 0 0 -49 0
-50 16 -15 15 -16 20 0 19 0 0 -10 0 -10 -29 0 -29 0 -6 -16 -6 -16 0 -33 0
-33 6 -16 6 -16 48 0 48 0 16 6 16 6 0 29 0 29 15 0 14 0 11 -40 11 -40 42 0
42 0 12 8 12 8 -1 19 -2 20 7 27 7 28 25 6 24 6 6 18 5 17 -6 17 -7 18 -19 -6
-20 -5 -13 6 -14 5 -7 45 -7 45 -32 -6 -33 -6 -6 16 -6 16 0 23 0 23 -16 6
-16 6 -11 0 -12 -1 -17 -10z"/>
</g>
</svg>
