<?xml version="1.0" standalone="no"?>
<!DOCTYPE svg PUBLIC "-//W3C//DTD SVG 20010904//EN"
 "http://www.w3.org/TR/2001/REC-SVG-20010904/DTD/svg10.dtd">
<svg version="1.0" xmlns="http://www.w3.org/2000/svg"
 width="35.000000pt" height="39.000000pt" viewBox="0 0 35.000000 39.000000"
 preserveAspectRatio="xMidYMid meet">
<metadata>
Created by potrace 1.16, written by Peter Selinger 2001-2019
</metadata>
<g transform="translate(0.000000,39.000000) scale(0.100000,-0.100000)"
fill="#000000" stroke="none">
<path d="M185 369 l7 -21 -13 -9 -14 -9 -42 0 -43 0 0 -34 0 -35 -16 -15 -15
-16 -25 6 -24 6 0 -25 0 -26 19 -6 19 -6 25 6 24 6 7 -17 7 -17 -7 -43 -6 -43
38 -3 39 -3 3 -32 3 -33 24 0 24 0 15 16 16 15 0 18 0 18 41 6 41 5 4 5 5 5
-11 41 -11 42 -29 6 -30 6 0 23 0 24 28 0 27 0 13 8 12 8 3 40 2 39 -34 -3
-33 -4 -25 7 -24 6 2 17 1 17 -1 13 -1 12 -26 0 -25 0 6 -21z"/>
</g>
</svg>
