<?xml version="1.0" standalone="no"?>
<!DOCTYPE svg PUBLIC "-//W3C//DTD SVG 20010904//EN"
 "http://www.w3.org/TR/2001/REC-SVG-20010904/DTD/svg10.dtd">
<svg version="1.0" xmlns="http://www.w3.org/2000/svg"
 width="35.000000pt" height="41.000000pt" viewBox="0 0 35.000000 41.000000"
 preserveAspectRatio="xMidYMid meet">
<metadata>
Created by potrace 1.16, written by Peter Selinger 2001-2019
</metadata>
<g transform="translate(0.000000,41.000000) scale(0.100000,-0.100000)"
fill="#000000" stroke="none">
<path d="M187 403 l-7 -6 0 -28 0 -28 -21 -6 -21 -7 -35 7 -36 6 7 -40 6 -41
-24 0 -25 0 -15 -16 -16 -15 0 -25 0 -24 30 -6 30 -6 6 -37 7 -36 11 -7 11 -8
33 0 32 0 0 -35 0 -34 35 -7 36 -6 20 23 21 24 -4 27 -5 28 14 0 14 0 21 -11
20 -11 3 4 3 3 7 48 7 47 -35 0 -35 0 -6 16 -6 16 0 15 0 14 14 15 15 14 20 0
21 0 0 35 0 34 -37 6 -38 7 -18 5 -19 5 6 24 6 24 -23 0 -24 0 -6 -7z"/>
</g>
</svg>
