<?xml version="1.0" standalone="no"?>
<!DOCTYPE svg PUBLIC "-//W3C//DTD SVG 20010904//EN"
 "http://www.w3.org/TR/2001/REC-SVG-20010904/DTD/svg10.dtd">
<svg version="1.0" xmlns="http://www.w3.org/2000/svg"
 width="37.000000pt" height="43.000000pt" viewBox="0 0 37.000000 43.000000"
 preserveAspectRatio="xMidYMid meet">
<metadata>
Created by potrace 1.16, written by Peter Selinger 2001-2019
</metadata>
<g transform="translate(0.000000,43.000000) scale(0.100000,-0.100000)"
fill="#000000" stroke="none">
<path d="M187 423 l-7 -6 0 -28 0 -27 -16 -6 -16 -6 -40 6 -40 7 4 -42 4 -41
-23 0 -22 0 -15 -16 -16 -15 0 -35 0 -34 30 -6 30 -6 6 -37 7 -36 11 -7 11 -8
33 0 32 0 0 -34 0 -34 23 -6 22 -6 24 0 24 0 18 22 19 21 0 28 0 27 30 -11 29
-11 5 5 5 5 7 57 7 57 -36 0 -36 0 -6 20 -6 20 15 15 15 15 20 0 21 0 0 45 0
44 -37 6 -38 7 -16 4 -16 4 5 25 4 25 -34 0 -35 0 -6 -7z"/>
</g>
</svg>
