<?xml version="1.0" standalone="no"?>
<!DOCTYPE svg PUBLIC "-//W3C//DTD SVG 20010904//EN"
 "http://www.w3.org/TR/2001/REC-SVG-20010904/DTD/svg10.dtd">
<svg version="1.0" xmlns="http://www.w3.org/2000/svg"
 width="37.000000pt" height="41.000000pt" viewBox="0 0 37.000000 41.000000"
 preserveAspectRatio="xMidYMid meet">
<metadata>
Created by potrace 1.16, written by Peter Selinger 2001-2019
</metadata>
<g transform="translate(0.000000,41.000000) scale(0.100000,-0.100000)"
fill="#000000" stroke="none">
<path d="M182 386 l5 -25 -14 -5 -15 -6 -39 0 -39 0 0 -29 0 -29 -6 -16 -6
-16 -34 0 -34 0 0 -35 0 -35 25 -6 25 -6 20 5 19 5 4 -12 5 -11 -6 -47 -5 -47
39 -3 39 -3 3 -32 3 -33 34 0 34 0 15 16 16 15 0 20 0 19 23 0 22 0 23 6 22 6
0 17 0 16 -11 38 -10 38 -30 6 -29 6 0 13 0 14 28 0 27 0 13 9 14 8 1 49 2 49
-35 -2 -35 -3 -23 5 -23 6 6 9 6 10 -6 20 -6 20 -36 0 -35 0 4 -24z"/>
</g>
</svg>
