<?xml version="1.0" standalone="no"?>
<!DOCTYPE svg PUBLIC "-//W3C//DTD SVG 20010904//EN"
 "http://www.w3.org/TR/2001/REC-SVG-20010904/DTD/svg10.dtd">
<svg version="1.0" xmlns="http://www.w3.org/2000/svg"
 width="37.000000pt" height="35.000000pt" viewBox="0 0 37.000000 35.000000"
 preserveAspectRatio="xMidYMid meet">
<metadata>
Created by potrace 1.16, written by Peter Selinger 2001-2019
</metadata>
<g transform="translate(0.000000,35.000000) scale(0.100000,-0.100000)"
fill="#000000" stroke="none">
<path d="M207 344 l-7 -7 6 -23 6 -23 -27 -7 -26 -6 -41 5 -40 5 7 -45 7 -45
-11 7 -11 6 -35 -11 -35 -12 0 -24 0 -24 14 0 14 0 4 -11 4 -12 33 -1 33 -1
-6 -33 -5 -33 6 -15 5 -14 28 0 28 0 16 6 16 6 0 19 0 18 19 11 20 10 16 -6
17 -7 -5 -25 -5 -26 13 -13 14 -13 15 0 15 0 26 12 25 11 0 49 0 49 -15 15
-15 15 -20 -6 -20 -6 0 26 0 27 28 -7 29 -6 12 15 12 15 -3 38 -3 38 -47 9
-48 8 0 10 0 9 -10 -6 -10 -6 0 20 0 21 -18 0 -19 0 -6 -6z"/>
</g>
</svg>
