<?xml version="1.0" standalone="no"?>
<!DOCTYPE svg PUBLIC "-//W3C//DTD SVG 20010904//EN"
 "http://www.w3.org/TR/2001/REC-SVG-20010904/DTD/svg10.dtd">
<svg version="1.0" xmlns="http://www.w3.org/2000/svg"
 width="39.000000pt" height="37.000000pt" viewBox="0 0 39.000000 37.000000"
 preserveAspectRatio="xMidYMid meet">
<metadata>
Created by potrace 1.16, written by Peter Selinger 2001-2019
</metadata>
<g transform="translate(0.000000,37.000000) scale(0.100000,-0.100000)"
fill="#000000" stroke="none">
<path d="M204 355 l-6 -15 5 -14 6 -15 -20 -6 -21 -7 -45 7 -45 7 4 -40 3 -39
-42 -12 -43 -11 0 -35 0 -35 15 0 15 0 0 -10 0 -9 35 -7 36 -6 -7 -20 -6 -19
6 -25 6 -24 43 0 42 0 11 8 12 7 3 20 4 20 23 3 23 3 -7 -25 -6 -25 15 -16 16
-15 25 0 25 0 26 12 25 11 0 59 0 59 -14 15 -15 14 -20 0 -21 0 0 8 0 9 28 -5
28 -4 13 15 12 15 -3 48 -3 48 -44 9 -44 9 -14 13 -13 14 0 10 0 11 -30 0 -31
0 -5 -15z"/>
</g>
</svg>
