<?xml version="1.0" standalone="no"?>
<!DOCTYPE svg PUBLIC "-//W3C//DTD SVG 20010904//EN"
 "http://www.w3.org/TR/2001/REC-SVG-20010904/DTD/svg10.dtd">
<svg version="1.0" xmlns="http://www.w3.org/2000/svg"
 width="36.000000pt" height="35.000000pt" viewBox="0 0 36.000000 35.000000"
 preserveAspectRatio="xMidYMid meet">
<metadata>
Created by potrace 1.16, written by Peter Selinger 2001-2019
</metadata>
<g transform="translate(0.000000,35.000000) scale(0.100000,-0.100000)"
fill="#000000" stroke="none">
<path d="M112 326 l5 -24 -24 -11 -24 -11 -28 0 -29 0 -6 -31 -6 -31 0 -9 0
-9 19 0 20 0 15 -15 15 -16 -5 -14 -6 -15 -12 0 -13 0 -12 -47 -12 -48 -6 -23
-5 -22 53 0 54 0 13 9 14 8 8 34 8 34 1 -28 1 -28 14 -15 15 -14 33 0 33 0 23
6 22 6 0 14 0 14 10 0 10 0 0 30 0 30 11 0 10 0 15 14 14 15 0 30 0 30 -16 15
-15 16 -20 0 -19 0 0 31 0 32 -50 -6 -49 -6 -11 40 -11 39 -31 0 -30 0 4 -24z"/>
</g>
</svg>
