<?xml version="1.0" standalone="no"?>
<!DOCTYPE svg PUBLIC "-//W3C//DTD SVG 20010904//EN"
 "http://www.w3.org/TR/2001/REC-SVG-20010904/DTD/svg10.dtd">
<svg version="1.0" xmlns="http://www.w3.org/2000/svg"
 width="34.000000pt" height="33.000000pt" viewBox="0 0 34.000000 33.000000"
 preserveAspectRatio="xMidYMid meet">
<metadata>
Created by potrace 1.16, written by Peter Selinger 2001-2019
</metadata>
<g transform="translate(0.000000,33.000000) scale(0.100000,-0.100000)"
fill="#000000" stroke="none">
<path d="M115 307 l6 -23 -26 -12 -26 -12 -29 0 -30 0 0 -14 0 -14 -6 -15 -5
-14 30 -6 29 -6 6 -19 6 -19 -6 -17 -6 -16 -12 0 -13 0 -10 -42 -10 -43 -8
-17 -7 -18 45 0 46 0 16 16 17 17 -5 19 -5 19 15 6 15 6 8 -13 8 -13 -5 -13
-5 -13 15 -16 16 -15 23 0 23 0 23 6 22 6 0 14 0 14 10 0 10 0 0 30 0 30 11 0
10 0 15 14 14 15 0 20 0 20 -16 16 -17 17 -18 -5 -19 -5 0 35 0 35 -49 -7 -50
-7 -11 41 -11 41 -20 0 -19 0 5 -23z"/>
</g>
</svg>
