<?xml version="1.0" standalone="no"?>
<!DOCTYPE svg PUBLIC "-//W3C//DTD SVG 20010904//EN"
 "http://www.w3.org/TR/2001/REC-SVG-20010904/DTD/svg10.dtd">
<svg version="1.0" xmlns="http://www.w3.org/2000/svg"
 width="29.000000pt" height="37.000000pt" viewBox="0 0 29.000000 37.000000"
 preserveAspectRatio="xMidYMid meet">
<metadata>
Created by potrace 1.16, written by Peter Selinger 2001-2019
</metadata>
<g transform="translate(0.000000,37.000000) scale(0.100000,-0.100000)"
fill="#000000" stroke="none">
<path d="M130 338 l0 -33 -9 -13 -8 -13 -49 3 -49 3 -3 -29 -4 -28 6 -23 6
-23 29 -7 30 -6 -6 -15 -5 -14 -18 0 -18 0 -16 -6 -16 -6 0 -39 0 -38 12 -26
11 -25 38 0 38 0 27 12 26 12 -5 33 -6 33 15 0 14 0 0 -24 0 -24 6 -16 6 -16
54 0 54 0 0 15 0 15 -12 41 -13 40 -15 -4 -16 -4 -12 13 -12 13 0 6 0 6 12 13
12 13 19 -5 19 -5 9 14 9 14 0 43 0 42 -45 0 -45 0 -4 23 -5 22 -3 20 -3 20
-28 3 -27 3 0 -33z"/>
</g>
</svg>
