<?xml version="1.0" standalone="no"?>
<!DOCTYPE svg PUBLIC "-//W3C//DTD SVG 20010904//EN"
 "http://www.w3.org/TR/2001/REC-SVG-20010904/DTD/svg10.dtd">
<svg version="1.0" xmlns="http://www.w3.org/2000/svg"
 width="27.000000pt" height="35.000000pt" viewBox="0 0 27.000000 35.000000"
 preserveAspectRatio="xMidYMid meet">
<metadata>
Created by potrace 1.16, written by Peter Selinger 2001-2019
</metadata>
<g transform="translate(0.000000,35.000000) scale(0.100000,-0.100000)"
fill="#000000" stroke="none">
<path d="M130 318 l0 -33 -9 -14 -8 -13 -49 3 -49 4 -3 -18 -4 -19 6 -23 6
-23 30 -7 30 -7 0 -8 0 -8 -6 -16 -6 -16 -18 0 -18 0 -16 -6 -16 -6 0 -29 0
-28 12 -26 11 -25 28 0 28 0 26 12 25 11 -6 34 -6 33 26 0 26 0 0 -24 0 -24 6
-16 6 -16 44 0 44 0 0 8 0 7 -13 36 -12 36 -13 -5 -12 -4 -15 15 -15 16 0 16
0 16 15 16 16 15 16 -6 16 -7 9 13 8 13 0 33 0 32 -45 0 -45 0 -4 23 -5 22 -3
20 -3 20 -18 3 -17 3 0 -33z"/>
</g>
</svg>
