<?xml version="1.0" standalone="no"?>
<!DOCTYPE svg PUBLIC "-//W3C//DTD SVG 20010904//EN"
 "http://www.w3.org/TR/2001/REC-SVG-20010904/DTD/svg10.dtd">
<svg version="1.0" xmlns="http://www.w3.org/2000/svg"
 width="31.000000pt" height="43.000000pt" viewBox="0 0 31.000000 43.000000"
 preserveAspectRatio="xMidYMid meet">
<metadata>
Created by potrace 1.16, written by Peter Selinger 2001-2019
</metadata>
<g transform="translate(0.000000,43.000000) scale(0.100000,-0.100000)"
fill="#000000" stroke="none">
<path d="M132 403 l4 -29 -14 -13 -14 -13 -49 6 -49 7 0 -53 0 -53 8 -11 7
-12 25 -5 25 -4 -25 -2 -25 -1 -12 -19 -12 -20 6 -49 6 -50 21 -6 21 -6 23 0
22 0 0 -21 0 -20 14 -15 15 -14 24 0 25 0 16 6 16 6 0 40 0 40 26 -6 26 -7 19
6 19 6 0 44 0 44 -16 15 -15 16 -20 0 -19 0 0 10 0 10 24 0 24 0 16 6 16 6 0
64 0 65 -49 -7 -50 -6 -13 13 -13 14 0 20 0 20 -29 3 -29 4 5 -29z"/>
</g>
</svg>
