<?xml version="1.0" standalone="no"?>
<!DOCTYPE svg PUBLIC "-//W3C//DTD SVG 20010904//EN"
 "http://www.w3.org/TR/2001/REC-SVG-20010904/DTD/svg10.dtd">
<svg version="1.0" xmlns="http://www.w3.org/2000/svg"
 width="29.000000pt" height="41.000000pt" viewBox="0 0 29.000000 41.000000"
 preserveAspectRatio="xMidYMid meet">
<metadata>
Created by potrace 1.16, written by Peter Selinger 2001-2019
</metadata>
<g transform="translate(0.000000,41.000000) scale(0.100000,-0.100000)"
fill="#000000" stroke="none">
<path d="M134 386 l7 -27 -16 -16 -16 -15 -50 4 -49 5 0 -38 0 -37 6 -16 6
-16 25 0 24 0 -3 -17 -3 -18 -20 3 -20 2 -11 -17 -10 -18 4 -42 4 -41 21 -6
22 -6 23 0 22 0 0 -21 0 -20 14 -15 15 -14 14 0 15 0 16 6 16 6 0 40 0 41 33
-5 32 -5 13 4 12 5 0 33 0 34 -16 15 -15 16 -20 0 -19 0 0 20 0 20 24 0 24 0
16 6 16 6 0 53 0 52 -49 -5 -50 -4 -16 16 -16 16 3 17 3 17 -19 4 -19 4 7 -26z"/>
</g>
</svg>
