<?xml version="1.0" standalone="no"?>
<!DOCTYPE svg PUBLIC "-//W3C//DTD SVG 20010904//EN"
 "http://www.w3.org/TR/2001/REC-SVG-20010904/DTD/svg10.dtd">
<svg version="1.0" xmlns="http://www.w3.org/2000/svg"
 width="46.000000pt" height="56.000000pt" viewBox="0 0 46.000000 56.000000"
 preserveAspectRatio="xMidYMid meet">
<metadata>
Created by potrace 1.16, written by Peter Selinger 2001-2019
</metadata>
<g transform="translate(0.000000,56.000000) scale(0.100000,-0.100000)"
fill="#000000" stroke="none">
<path d="M360 551 l0 -9 -45 -6 -45 -7 0 -33 0 -33 31 -7 32 -6 12 0 13 0 7
40 7 40 9 0 9 0 0 15 0 15 -15 0 -15 0 0 -9z M200 327 l0 -24 -25 -11 -26 -12
-34 0 -35 0 0 -39 0 -38 -40 -7 -40 -6 0 -34 0 -34 31 -11 32 -11 16 0 17 0
-4 -35 -4 -34 15 -16 16 -15 25 0 25 0 26 12 25 11 0 29 0 28 13 0 14 0 -5
-29 -4 -28 24 -6 23 -7 48 0 49 0 -4 50 -3 50 27 0 26 0 16 6 16 6 0 33 0 33
-16 6 -16 6 -25 0 -26 0 6 45 7 45 -40 -6 -39 -6 -14 14 -15 14 -4 20 -3 19
-38 3 -37 3 0 -24z"/>
</g>
</svg>
