<?xml version="1.0" standalone="no"?>
<!DOCTYPE svg PUBLIC "-//W3C//DTD SVG 20010904//EN"
 "http://www.w3.org/TR/2001/REC-SVG-20010904/DTD/svg10.dtd">
<svg version="1.0" xmlns="http://www.w3.org/2000/svg"
 width="44.000000pt" height="54.000000pt" viewBox="0 0 44.000000 54.000000"
 preserveAspectRatio="xMidYMid meet">
<metadata>
Created by potrace 1.16, written by Peter Selinger 2001-2019
</metadata>
<g transform="translate(0.000000,54.000000) scale(0.100000,-0.100000)"
fill="#000000" stroke="none">
<path d="M293 513 l-23 -4 0 -23 0 -23 32 -7 31 -6 2 2 3 3 7 33 7 32 -19 -1
-18 -2 -22 -4z M200 307 l0 -24 -25 -11 -26 -12 -34 0 -35 0 0 -39 0 -38 -40
-7 -40 -6 0 -24 0 -24 31 -11 32 -11 19 0 19 0 -7 -35 -6 -34 15 -16 16 -15
15 0 15 0 26 12 27 12 -6 27 -5 27 14 6 15 5 16 -6 15 -6 -6 -27 -6 -27 23 -7
23 -6 39 0 39 0 -6 50 -6 50 29 0 28 0 16 6 16 6 0 23 0 23 -16 6 -16 6 -24 0
-24 0 0 36 0 35 -10 -6 -10 -6 0 10 0 11 -26 0 -25 0 -14 13 -13 13 -4 20 -3
19 -28 3 -27 3 0 -24z"/>
</g>
</svg>
