<?xml version="1.0" standalone="no"?>
<!DOCTYPE svg PUBLIC "-//W3C//DTD SVG 20010904//EN"
 "http://www.w3.org/TR/2001/REC-SVG-20010904/DTD/svg10.dtd">
<svg version="1.0" xmlns="http://www.w3.org/2000/svg"
 width="31.000000pt" height="30.000000pt" viewBox="0 0 31.000000 30.000000"
 preserveAspectRatio="xMidYMid meet">
<metadata>
Created by potrace 1.16, written by Peter Selinger 2001-2019
</metadata>
<g transform="translate(0.000000,30.000000) scale(0.100000,-0.100000)"
fill="#000000" stroke="none">
<path d="M193 280 l5 -20 -9 0 -9 0 0 -14 0 -14 -13 -5 -14 -5 -10 6 -11 7 -3
20 -4 20 -63 3 -62 3 0 -51 0 -51 14 -15 15 -14 20 0 21 0 0 -10 0 -10 -18 0
-19 0 -11 -25 -12 -26 0 -24 0 -23 6 -16 6 -16 53 0 53 0 6 16 6 16 0 24 0 24
10 0 10 0 0 -29 0 -30 18 -5 17 -5 32 -6 33 -7 16 16 16 16 -7 40 -7 40 -14
14 -14 14 -12 4 -12 4 8 12 7 12 29 0 28 0 6 16 6 16 0 42 0 43 -46 7 -47 6
-15 0 -14 0 5 -20z"/>
</g>
</svg>
