<?xml version="1.0" standalone="no"?>
<!DOCTYPE svg PUBLIC "-//W3C//DTD SVG 20010904//EN"
 "http://www.w3.org/TR/2001/REC-SVG-20010904/DTD/svg10.dtd">
<svg version="1.0" xmlns="http://www.w3.org/2000/svg"
 width="29.000000pt" height="28.000000pt" viewBox="0 0 29.000000 28.000000"
 preserveAspectRatio="xMidYMid meet">
<metadata>
Created by potrace 1.16, written by Peter Selinger 2001-2019
</metadata>
<g transform="translate(0.000000,28.000000) scale(0.100000,-0.100000)"
fill="#000000" stroke="none">
<path d="M197 261 l5 -21 -11 0 -11 0 0 -14 0 -15 -19 -6 -18 -5 -16 6 -16 6
-3 21 -3 22 -52 3 -53 3 0 -41 0 -41 14 -15 15 -14 20 0 21 0 0 -24 0 -24 -18
5 -19 5 -13 -31 -12 -31 6 -25 6 -25 44 0 44 0 6 16 6 16 0 24 0 24 20 0 20 0
0 -30 0 -30 28 -6 27 -6 13 -4 13 -4 15 15 15 14 -11 40 -10 40 -21 6 -20 7 3
21 3 22 30 3 30 4 7 11 8 12 0 37 0 37 -17 -1 -18 0 -32 7 -32 7 6 -21z"/>
</g>
</svg>
