<?xml version="1.0" standalone="no"?>
<!DOCTYPE svg PUBLIC "-//W3C//DTD SVG 20010904//EN"
 "http://www.w3.org/TR/2001/REC-SVG-20010904/DTD/svg10.dtd">
<svg version="1.0" xmlns="http://www.w3.org/2000/svg"
 width="38.000000pt" height="31.000000pt" viewBox="0 0 38.000000 31.000000"
 preserveAspectRatio="xMidYMid meet">
<metadata>
Created by potrace 1.16, written by Peter Selinger 2001-2019
</metadata>
<g transform="translate(0.000000,31.000000) scale(0.100000,-0.100000)"
fill="#000000" stroke="none">
<path d="M182 274 l2 -35 -14 -9 -13 -8 -14 5 -14 6 6 28 7 29 -71 0 -71 0 0
-15 0 -15 10 0 10 0 0 -39 0 -38 40 -7 40 -6 0 -14 0 -15 -22 -7 -23 -8 -22 3
-23 2 0 -59 0 -60 23 -6 22 -6 32 0 31 0 16 6 16 6 0 39 0 39 10 0 11 0 -7
-36 -7 -36 14 -9 14 -9 48 0 48 0 15 14 14 15 6 45 7 46 23 0 23 0 6 21 7 21
-13 24 -12 24 -28 0 -27 0 5 38 5 37 -41 13 -41 12 -25 0 -26 0 3 -36z"/>
</g>
</svg>
