<?xml version="1.0" standalone="no"?>
<!DOCTYPE svg PUBLIC "-//W3C//DTD SVG 20010904//EN"
 "http://www.w3.org/TR/2001/REC-SVG-20010904/DTD/svg10.dtd">
<svg version="1.0" xmlns="http://www.w3.org/2000/svg"
 width="36.000000pt" height="29.000000pt" viewBox="0 0 36.000000 29.000000"
 preserveAspectRatio="xMidYMid meet">
<metadata>
Created by potrace 1.16, written by Peter Selinger 2001-2019
</metadata>
<g transform="translate(0.000000,29.000000) scale(0.100000,-0.100000)"
fill="#000000" stroke="none">
<path d="M185 261 l6 -29 -16 -16 -16 -16 -12 0 -12 0 -14 9 -14 9 5 26 5 26
-48 0 -49 0 0 -44 0 -43 40 -7 40 -6 0 -24 0 -23 -26 -12 -26 -12 -19 6 -19 6
0 -50 0 -50 35 -7 35 -6 25 6 25 6 0 40 0 40 21 0 22 0 -7 -39 -6 -39 16 -6
16 -6 35 0 34 0 15 14 14 15 6 45 7 46 22 0 23 0 6 15 6 16 -13 19 -12 20 -28
0 -29 0 7 38 6 37 -40 13 -41 12 -16 0 -16 0 7 -29z"/>
</g>
</svg>
