<?xml version="1.0" standalone="no"?>
<!DOCTYPE svg PUBLIC "-//W3C//DTD SVG 20010904//EN"
 "http://www.w3.org/TR/2001/REC-SVG-20010904/DTD/svg10.dtd">
<svg version="1.0" xmlns="http://www.w3.org/2000/svg"
 width="29.000000pt" height="40.000000pt" viewBox="0 0 29.000000 40.000000"
 preserveAspectRatio="xMidYMid meet">
<metadata>
Created by potrace 1.16, written by Peter Selinger 2001-2019
</metadata>
<g transform="translate(0.000000,40.000000) scale(0.100000,-0.100000)"
fill="#000000" stroke="none">
<path d="M139 398 l-1 -3 -2 -28 -2 -28 -14 -9 -15 -10 -47 0 -48 0 0 -36 0
-35 15 -15 14 -15 26 7 25 6 0 -21 0 -21 -22 0 -23 0 -24 -7 -23 -6 5 -50 6
-50 5 -4 4 -5 40 -5 40 -5 6 -30 6 -31 37 6 37 6 8 16 9 15 18 0 18 0 22 20
23 19 -7 39 -6 39 -25 11 -24 12 0 25 0 25 19 0 19 0 16 6 16 6 0 44 0 44 -44
-6 -45 -7 -16 16 -16 17 2 12 1 13 -1 13 -1 12 -15 0 -15 0 -1 -2z"/>
</g>
</svg>
