<?xml version="1.0" standalone="no"?>
<!DOCTYPE svg PUBLIC "-//W3C//DTD SVG 20010904//EN"
 "http://www.w3.org/TR/2001/REC-SVG-20010904/DTD/svg10.dtd">
<svg version="1.0" xmlns="http://www.w3.org/2000/svg"
 width="31.000000pt" height="42.000000pt" viewBox="0 0 31.000000 42.000000"
 preserveAspectRatio="xMidYMid meet">
<metadata>
Created by potrace 1.16, written by Peter Selinger 2001-2019
</metadata>
<g transform="translate(0.000000,42.000000) scale(0.100000,-0.100000)"
fill="#000000" stroke="none">
<path d="M134 405 l-6 -14 6 -10 6 -9 -16 -16 -15 -16 -50 0 -49 0 0 -46 0
-45 15 -16 16 -15 24 5 25 4 0 -8 0 -9 -22 0 -23 0 -24 -7 -24 -6 6 -59 5 -60
5 -5 5 -5 40 -5 40 -5 6 -30 6 -31 47 6 46 5 9 16 9 16 18 0 18 0 21 19 22 18
0 20 0 20 -6 31 -6 30 -24 11 -24 11 0 15 0 15 19 0 19 0 16 6 16 6 0 55 0 55
-45 -6 -45 -7 -15 14 -14 15 5 5 6 5 -7 21 -6 21 -25 0 -25 0 -5 -15z"/>
</g>
</svg>
