<?xml version="1.0" standalone="no"?>
<!DOCTYPE svg PUBLIC "-//W3C//DTD SVG 20010904//EN"
 "http://www.w3.org/TR/2001/REC-SVG-20010904/DTD/svg10.dtd">
<svg version="1.0" xmlns="http://www.w3.org/2000/svg"
 width="42.000000pt" height="34.000000pt" viewBox="0 0 42.000000 34.000000"
 preserveAspectRatio="xMidYMid meet">
<metadata>
Created by potrace 1.16, written by Peter Selinger 2001-2019
</metadata>
<g transform="translate(0.000000,34.000000) scale(0.100000,-0.100000)"
fill="#000000" stroke="none">
<path d="M84 331 l6 -9 -6 -31 -6 -31 -14 0 -14 0 0 -10 0 -10 -25 6 -25 6 0
-26 0 -26 29 0 30 0 16 -17 17 -17 -5 -43 -5 -43 40 0 39 0 -5 -18 -6 -19 19
-21 18 -22 21 0 22 0 5 23 6 22 47 15 47 16 -3 42 -4 42 16 16 17 16 13 -5 14
-6 18 13 17 13 -6 17 -6 16 -35 0 -34 0 -6 16 -6 16 0 29 0 30 -17 -4 -18 -5
-27 -6 -28 -6 0 -15 0 -14 -19 -6 -18 -5 -17 6 -16 6 0 29 0 29 -46 0 -45 0 5
-9z"/>
</g>
</svg>
