<?xml version="1.0" standalone="no"?>
<!DOCTYPE svg PUBLIC "-//W3C//DTD SVG 20010904//EN"
 "http://www.w3.org/TR/2001/REC-SVG-20010904/DTD/svg10.dtd">
<svg version="1.0" xmlns="http://www.w3.org/2000/svg"
 width="44.000000pt" height="36.000000pt" viewBox="0 0 44.000000 36.000000"
 preserveAspectRatio="xMidYMid meet">
<metadata>
Created by potrace 1.16, written by Peter Selinger 2001-2019
</metadata>
<g transform="translate(0.000000,36.000000) scale(0.100000,-0.100000)"
fill="#000000" stroke="none">
<path d="M81 343 l1 -18 -1 -22 -1 -23 -40 -6 -40 -7 0 -33 0 -34 29 0 30 0
16 -17 17 -16 -7 -44 -6 -43 35 0 36 0 0 -18 0 -19 19 -21 18 -22 31 0 32 0 5
22 6 23 47 16 47 15 -3 43 -2 42 12 13 13 13 12 -4 12 -4 21 11 21 11 -3 27
-3 27 -35 3 -35 4 -7 11 -8 12 0 34 0 33 -37 -6 -38 -7 -17 -5 -18 -5 0 -14 0
-13 -12 -5 -13 -4 -12 5 -13 4 0 29 0 29 -56 0 -55 0 2 -17z"/>
</g>
</svg>
