<?xml version="1.0" standalone="no"?>
<!DOCTYPE svg PUBLIC "-//W3C//DTD SVG 20010904//EN"
 "http://www.w3.org/TR/2001/REC-SVG-20010904/DTD/svg10.dtd">
<svg version="1.0" xmlns="http://www.w3.org/2000/svg"
 width="36.000000pt" height="37.000000pt" viewBox="0 0 36.000000 37.000000"
 preserveAspectRatio="xMidYMid meet">
<metadata>
Created by potrace 1.16, written by Peter Selinger 2001-2019
</metadata>
<g transform="translate(0.000000,37.000000) scale(0.100000,-0.100000)"
fill="#000000" stroke="none">
<path d="M4 356 l-5 -14 3 -38 3 -39 27 -3 27 -3 6 -18 5 -18 -6 -17 -6 -16
-13 0 -13 0 -7 -30 -7 -30 -9 0 -9 0 0 -20 0 -20 22 -4 23 -5 20 -3 20 -3 3
-30 4 -30 11 -7 12 -8 19 0 19 0 18 22 19 21 0 24 0 24 20 -6 20 -6 30 6 30 7
-6 49 -7 49 26 0 25 0 16 6 16 6 0 34 0 33 -32 9 -33 8 -3 42 -3 42 -140 0
-140 0 -5 -14z"/>
</g>
</svg>
