<?xml version="1.0" standalone="no"?>
<!DOCTYPE svg PUBLIC "-//W3C//DTD SVG 20010904//EN"
 "http://www.w3.org/TR/2001/REC-SVG-20010904/DTD/svg10.dtd">
<svg version="1.0" xmlns="http://www.w3.org/2000/svg"
 width="34.000000pt" height="35.000000pt" viewBox="0 0 34.000000 35.000000"
 preserveAspectRatio="xMidYMid meet">
<metadata>
Created by potrace 1.16, written by Peter Selinger 2001-2019
</metadata>
<g transform="translate(0.000000,35.000000) scale(0.100000,-0.100000)"
fill="#000000" stroke="none">
<path d="M4 336 l-5 -14 3 -29 3 -28 27 -3 27 -3 6 -20 7 -20 -6 -25 -6 -24
-14 0 -14 0 -7 -27 -7 -28 -11 -7 -11 -7 7 -7 7 -7 37 -6 38 -6 3 -32 3 -32
20 -6 20 -7 20 23 20 23 -6 25 -6 24 35 -6 35 -6 19 6 19 5 -5 49 -5 49 26 0
25 0 16 6 16 6 0 24 0 23 -33 9 -32 8 -3 42 -3 42 -130 0 -130 0 -5 -14z"/>
</g>
</svg>
