<?xml version="1.0" standalone="no"?>
<!DOCTYPE svg PUBLIC "-//W3C//DTD SVG 20010904//EN"
 "http://www.w3.org/TR/2001/REC-SVG-20010904/DTD/svg10.dtd">
<svg version="1.0" xmlns="http://www.w3.org/2000/svg"
 width="35.000000pt" height="36.000000pt" viewBox="0 0 35.000000 36.000000"
 preserveAspectRatio="xMidYMid meet">
<metadata>
Created by potrace 1.16, written by Peter Selinger 2001-2019
</metadata>
<g transform="translate(0.000000,36.000000) scale(0.100000,-0.100000)"
fill="#000000" stroke="none">
<path d="M80 321 l0 -36 -8 -12 -7 -11 -30 -4 -30 -3 -3 -22 -3 -21 20 -7 21
-6 10 -40 11 -39 -6 -10 -6 -9 23 -5 23 -6 30 -2 30 -3 -2 -29 -2 -28 14 -14
14 -14 20 0 21 0 0 10 0 10 15 0 15 0 0 29 0 28 40 7 40 6 0 15 0 15 10 0 10
0 0 34 0 34 -16 6 -16 6 -29 0 -30 0 3 27 3 27 38 9 38 9 -3 41 -3 41 -53 3
-52 3 5 -23 6 -23 -20 -23 -20 -23 -20 7 -20 6 -3 32 -3 32 -37 6 -38 6 0 -36z"/>
</g>
</svg>
