<?xml version="1.0" standalone="no"?>
<!DOCTYPE svg PUBLIC "-//W3C//DTD SVG 20010904//EN"
 "http://www.w3.org/TR/2001/REC-SVG-20010904/DTD/svg10.dtd">
<svg version="1.0" xmlns="http://www.w3.org/2000/svg"
 width="37.000000pt" height="38.000000pt" viewBox="0 0 37.000000 38.000000"
 preserveAspectRatio="xMidYMid meet">
<metadata>
Created by potrace 1.16, written by Peter Selinger 2001-2019
</metadata>
<g transform="translate(0.000000,38.000000) scale(0.100000,-0.100000)"
fill="#000000" stroke="none">
<path d="M80 343 l0 -38 -8 -12 -7 -11 -30 -4 -30 -3 -3 -32 -3 -31 20 -7 20
-6 7 -22 7 -22 -1 -27 -1 -28 22 -5 22 -5 30 -2 30 -3 -3 -27 -3 -28 15 -15
15 -15 30 0 31 0 0 10 0 10 15 0 15 0 0 29 0 28 40 7 40 6 0 15 0 15 10 0 10
0 0 44 0 44 -16 6 -16 6 -30 0 -29 0 3 17 3 17 38 9 38 9 -3 52 -3 51 -64 3
-63 2 4 -25 5 -25 -16 -18 -16 -19 -12 4 -13 5 0 29 0 30 -12 4 -13 3 -37 7
-38 6 0 -38z"/>
</g>
</svg>
