<?xml version="1.0" standalone="no"?>
<!DOCTYPE svg PUBLIC "-//W3C//DTD SVG 20010904//EN"
 "http://www.w3.org/TR/2001/REC-SVG-20010904/DTD/svg10.dtd">
<svg version="1.0" xmlns="http://www.w3.org/2000/svg"
 width="42.000000pt" height="35.000000pt" viewBox="0 0 42.000000 35.000000"
 preserveAspectRatio="xMidYMid meet">
<metadata>
Created by potrace 1.16, written by Peter Selinger 2001-2019
</metadata>
<g transform="translate(0.000000,35.000000) scale(0.100000,-0.100000)"
fill="#000000" stroke="none">
<path d="M80 302 l0 -50 -16 -6 -16 -6 -24 0 -24 0 0 -14 0 -14 6 -16 6 -16
22 0 21 0 14 -9 14 -9 -6 -46 -7 -46 45 0 45 0 0 -30 0 -30 24 -6 25 -6 20 7
21 6 0 14 0 15 28 6 27 6 19 5 19 5 -7 53 -6 53 5 14 6 14 27 -3 27 -4 14 10
14 9 -7 27 -7 27 -22 -4 -23 -4 -12 12 -12 13 0 37 0 37 -31 -7 -31 -6 -14 0
-14 0 0 -30 0 -30 -15 0 -15 0 0 -10 0 -10 -11 0 -10 0 -12 13 -12 12 0 30 0
30 -47 3 -48 3 0 -49z"/>
</g>
</svg>
