<?xml version="1.0" standalone="no"?>
<!DOCTYPE svg PUBLIC "-//W3C//DTD SVG 20010904//EN"
 "http://www.w3.org/TR/2001/REC-SVG-20010904/DTD/svg10.dtd">
<svg version="1.0" xmlns="http://www.w3.org/2000/svg"
 width="40.000000pt" height="33.000000pt" viewBox="0 0 40.000000 33.000000"
 preserveAspectRatio="xMidYMid meet">
<metadata>
Created by potrace 1.16, written by Peter Selinger 2001-2019
</metadata>
<g transform="translate(0.000000,33.000000) scale(0.100000,-0.100000)"
fill="#000000" stroke="none">
<path d="M80 282 l0 -50 -16 -6 -16 -6 -25 0 -25 0 6 -16 6 -16 0 -4 0 -4 23
0 22 0 14 -9 13 -9 -3 -46 -4 -46 42 0 43 0 0 -29 0 -29 16 -6 17 -6 18 5 19
6 0 14 0 14 18 4 17 5 28 6 29 7 -7 49 -7 49 7 21 7 21 26 -5 27 -6 13 8 13 9
-7 17 -6 17 -19 -6 -19 -6 -15 15 -15 15 0 36 0 37 -16 -6 -16 -6 -19 0 -19 0
0 -30 0 -30 -15 0 -15 0 0 -10 0 -10 -21 0 -20 0 -14 14 -14 14 2 28 2 29 -37
3 -38 3 0 -49z"/>
</g>
</svg>
