<?xml version="1.0" standalone="no"?>
<!DOCTYPE svg PUBLIC "-//W3C//DTD SVG 20010904//EN"
 "http://www.w3.org/TR/2001/REC-SVG-20010904/DTD/svg10.dtd">
<svg version="1.0" xmlns="http://www.w3.org/2000/svg"
 width="43.000000pt" height="35.000000pt" viewBox="0 0 43.000000 35.000000"
 preserveAspectRatio="xMidYMid meet">
<metadata>
Created by potrace 1.16, written by Peter Selinger 2001-2019
</metadata>
<g transform="translate(0.000000,35.000000) scale(0.100000,-0.100000)"
fill="#000000" stroke="none">
<path d="M213 343 l-13 -5 0 -26 0 -27 -9 -14 -9 -14 -46 6 -47 7 -3 -13 -3
-12 -9 -29 -9 -30 -33 -8 -32 -9 0 -24 0 -24 40 -12 40 -12 0 -42 0 -43 22 -6
23 -6 31 0 32 0 6 16 6 16 0 30 0 29 17 -3 18 -3 3 -20 3 -20 5 -23 4 -22 43
0 42 0 11 8 11 7 12 22 11 22 0 25 0 26 11 0 10 0 15 15 15 15 -6 20 -6 20
-29 0 -29 0 -3 43 -3 42 -15 -2 -15 -2 -29 -7 -28 -7 -9 14 -9 14 0 31 0 32
-12 4 -13 5 -12 -4z"/>
</g>
</svg>
