<?xml version="1.0" standalone="no"?>
<!DOCTYPE svg PUBLIC "-//W3C//DTD SVG 20010904//EN"
 "http://www.w3.org/TR/2001/REC-SVG-20010904/DTD/svg10.dtd">
<svg version="1.0" xmlns="http://www.w3.org/2000/svg"
 width="45.000000pt" height="37.000000pt" viewBox="0 0 45.000000 37.000000"
 preserveAspectRatio="xMidYMid meet">
<metadata>
Created by potrace 1.16, written by Peter Selinger 2001-2019
</metadata>
<g transform="translate(0.000000,37.000000) scale(0.100000,-0.100000)"
fill="#000000" stroke="none">
<path d="M213 363 l-13 -5 0 -26 0 -27 -9 -13 -8 -14 -46 7 -47 7 -4 -13 -3
-14 -9 -29 -9 -30 -33 -8 -32 -9 0 -34 0 -34 40 -12 40 -12 0 -42 0 -43 22 -6
23 -6 41 0 42 0 6 16 6 16 0 29 0 30 10 -6 10 -6 0 -24 0 -23 6 -16 6 -16 52
0 51 0 11 8 11 7 12 22 11 22 0 25 0 26 11 0 10 0 15 14 14 15 0 14 0 15 -6
16 -6 16 -29 0 -29 0 0 40 0 41 -15 5 -15 6 -31 -12 -31 -13 -9 14 -9 14 0 31
0 32 -16 6 -16 6 -6 -1 -7 -1 -12 -5z"/>
</g>
</svg>
