<?xml version="1.0" standalone="no"?>
<!DOCTYPE svg PUBLIC "-//W3C//DTD SVG 20010904//EN"
 "http://www.w3.org/TR/2001/REC-SVG-20010904/DTD/svg10.dtd">
<svg version="1.0" xmlns="http://www.w3.org/2000/svg"
 width="38.000000pt" height="37.000000pt" viewBox="0 0 38.000000 37.000000"
 preserveAspectRatio="xMidYMid meet">
<metadata>
Created by potrace 1.16, written by Peter Selinger 2001-2019
</metadata>
<g transform="translate(0.000000,37.000000) scale(0.100000,-0.100000)"
fill="#000000" stroke="none">
<path d="M131 361 l-14 -9 5 -24 4 -24 -13 -13 -14 -13 -47 4 -47 3 -3 -41 -3
-42 16 -16 16 -16 20 0 19 0 0 -15 0 -15 -9 0 -10 0 -15 -16 -16 -15 0 -39 0
-38 6 -16 6 -16 53 0 53 0 6 16 6 16 0 29 0 28 15 -5 15 -6 0 -18 0 -18 6 -16
6 -16 42 0 41 0 14 9 14 9 -6 31 -6 31 27 0 27 0 13 8 13 9 5 35 6 35 -17 16
-16 17 -20 0 -19 0 0 45 0 45 -24 0 -23 0 -31 6 -31 6 -7 22 -7 21 -11 7 -11
8 -10 0 -10 0 -14 -9z"/>
</g>
</svg>
