<?xml version="1.0" standalone="no"?>
<!DOCTYPE svg PUBLIC "-//W3C//DTD SVG 20010904//EN"
 "http://www.w3.org/TR/2001/REC-SVG-20010904/DTD/svg10.dtd">
<svg version="1.0" xmlns="http://www.w3.org/2000/svg"
 width="40.000000pt" height="38.000000pt" viewBox="0 0 40.000000 38.000000"
 preserveAspectRatio="xMidYMid meet">
<metadata>
Created by potrace 1.16, written by Peter Selinger 2001-2019
</metadata>
<g transform="translate(0.000000,38.000000) scale(0.100000,-0.100000)"
fill="#000000" stroke="none">
<path d="M197 374 l-7 -7 0 -23 0 -22 -6 -16 -6 -16 -43 0 -42 0 -7 -39 -6
-38 -25 4 -24 5 -17 -16 -16 -17 6 -35 7 -34 44 -12 44 -12 -6 -27 -5 -28 15
-16 16 -15 48 0 48 0 14 9 14 9 -5 26 -5 27 11 -4 11 -4 3 -30 3 -31 16 -7 16
-6 43 7 43 6 10 31 11 30 0 27 0 28 -16 6 -16 6 -24 0 -24 0 0 25 0 25 19 0
19 0 16 6 16 6 0 48 0 48 -16 6 -16 6 -23 -6 -24 -6 -18 6 -18 6 0 32 0 33
-35 3 -36 3 -7 -7z"/>
</g>
</svg>
