<?xml version="1.0" standalone="no"?>
<!DOCTYPE svg PUBLIC "-//W3C//DTD SVG 20010904//EN"
 "http://www.w3.org/TR/2001/REC-SVG-20010904/DTD/svg10.dtd">
<svg version="1.0" xmlns="http://www.w3.org/2000/svg"
 width="36.000000pt" height="35.000000pt" viewBox="0 0 36.000000 35.000000"
 preserveAspectRatio="xMidYMid meet">
<metadata>
Created by potrace 1.16, written by Peter Selinger 2001-2019
</metadata>
<g transform="translate(0.000000,35.000000) scale(0.100000,-0.100000)"
fill="#000000" stroke="none">
<path d="M131 340 l-13 -8 7 -21 6 -21 -15 -16 -16 -16 -48 3 -47 3 -3 -31 -3
-30 17 -18 17 -17 18 5 19 5 0 -29 0 -29 -9 0 -10 0 -15 -16 -16 -15 0 -29 0
-28 6 -16 6 -16 43 0 43 0 6 16 6 16 0 29 0 29 9 0 9 0 16 -6 16 -6 0 -18 0
-18 6 -16 6 -16 28 0 28 0 16 6 16 6 -6 37 -6 38 28 -4 29 -4 12 8 11 8 7 26
6 26 -16 17 -16 16 -20 0 -19 0 0 45 0 45 -24 0 -23 0 -32 6 -31 7 -6 23 -6
23 -12 4 -13 5 -12 -8z"/>
</g>
</svg>
