<?xml version="1.0" standalone="no"?>
<!DOCTYPE svg PUBLIC "-//W3C//DTD SVG 20010904//EN"
 "http://www.w3.org/TR/2001/REC-SVG-20010904/DTD/svg10.dtd">
<svg version="1.0" xmlns="http://www.w3.org/2000/svg"
 width="38.000000pt" height="36.000000pt" viewBox="0 0 38.000000 36.000000"
 preserveAspectRatio="xMidYMid meet">
<metadata>
Created by potrace 1.16, written by Peter Selinger 2001-2019
</metadata>
<g transform="translate(0.000000,36.000000) scale(0.100000,-0.100000)"
fill="#000000" stroke="none">
<path d="M197 354 l-7 -7 0 -23 0 -22 -6 -16 -6 -16 -43 0 -42 0 -7 -41 -7
-41 -25 6 -25 7 -15 -15 -15 -15 7 -25 6 -25 34 -11 34 -11 11 7 12 7 -6 -38
-6 -37 14 -14 14 -14 38 0 38 0 13 9 13 8 -7 27 -7 28 24 -4 24 -3 3 -32 3
-31 14 -6 14 -5 35 6 35 5 10 31 11 30 0 17 0 18 -16 6 -16 6 -24 0 -24 0 0
35 0 35 19 0 19 0 16 6 16 6 0 39 0 39 -12 1 -13 1 -27 -2 -28 -1 -20 6 -20 6
3 32 2 32 -25 3 -26 3 -7 -7z"/>
</g>
</svg>
