<?xml version="1.0" standalone="no"?>
<!DOCTYPE svg PUBLIC "-//W3C//DTD SVG 20010904//EN"
 "http://www.w3.org/TR/2001/REC-SVG-20010904/DTD/svg10.dtd">
<svg version="1.0" xmlns="http://www.w3.org/2000/svg"
 width="37.000000pt" height="35.000000pt" viewBox="0 0 37.000000 35.000000"
 preserveAspectRatio="xMidYMid meet">
<metadata>
Created by potrace 1.16, written by Peter Selinger 2001-2019
</metadata>
<g transform="translate(0.000000,35.000000) scale(0.100000,-0.100000)"
fill="#000000" stroke="none">
<path d="M190 310 l0 -40 -25 -6 -25 -6 -35 6 -35 7 0 -36 0 -35 -21 0 -20 0
-15 -14 -14 -15 0 -14 0 -15 6 -16 6 -16 35 0 35 0 -7 -49 -7 -48 24 -7 23 -6
27 0 27 0 9 32 8 33 17 3 17 3 0 -19 0 -20 6 -16 6 -16 53 0 52 0 17 43 16 43
0 16 0 16 -16 6 -16 6 -34 0 -34 0 0 20 0 20 24 0 24 0 16 6 16 6 0 43 0 43
-39 -5 -40 -5 -25 6 -26 6 6 40 7 40 -22 0 -21 0 0 -40z"/>
</g>
</svg>
