<?xml version="1.0" standalone="no"?>
<!DOCTYPE svg PUBLIC "-//W3C//DTD SVG 20010904//EN"
 "http://www.w3.org/TR/2001/REC-SVG-20010904/DTD/svg10.dtd">
<svg version="1.0" xmlns="http://www.w3.org/2000/svg"
 width="36.000000pt" height="43.000000pt" viewBox="0 0 36.000000 43.000000"
 preserveAspectRatio="xMidYMid meet">
<metadata>
Created by potrace 1.16, written by Peter Selinger 2001-2019
</metadata>
<g transform="translate(0.000000,43.000000) scale(0.100000,-0.100000)"
fill="#000000" stroke="none">
<path d="M200 398 l0 -33 -9 -14 -9 -14 -51 5 -51 5 0 -48 0 -49 -34 0 -35 0
-6 -19 -5 -18 6 -16 6 -16 21 -3 22 -3 6 -39 6 -38 14 -9 14 -9 49 0 48 0 -6
-25 -7 -26 15 -15 15 -15 25 7 25 6 5 15 6 15 -6 24 -6 24 32 0 31 0 15 14 14
15 0 31 0 31 -30 6 -30 6 0 28 0 29 24 -6 24 -6 12 37 12 36 -6 24 -6 23 -41
-5 -41 -6 -9 14 -9 14 0 21 0 22 -16 6 -16 6 -9 0 -9 0 0 -32z"/>
</g>
</svg>
