<?xml version="1.0" standalone="no"?>
<!DOCTYPE svg PUBLIC "-//W3C//DTD SVG 20010904//EN"
 "http://www.w3.org/TR/2001/REC-SVG-20010904/DTD/svg10.dtd">
<svg version="1.0" xmlns="http://www.w3.org/2000/svg"
 width="45.000000pt" height="42.000000pt" viewBox="0 0 45.000000 42.000000"
 preserveAspectRatio="xMidYMid meet">
<metadata>
Created by potrace 1.16, written by Peter Selinger 2001-2019
</metadata>
<g transform="translate(0.000000,42.000000) scale(0.100000,-0.100000)"
fill="#000000" stroke="none">
<path d="M200 401 l0 -20 -16 -15 -15 -16 -45 0 -44 0 0 -39 0 -39 -35 -6 -35
-7 -6 -24 -6 -24 7 -21 7 -21 29 -6 29 -5 0 -39 0 -38 33 -5 32 -6 24 -2 25
-3 8 -32 9 -33 22 0 22 0 12 8 11 7 7 28 7 27 22 0 21 0 23 7 24 6 -7 43 -6
44 28 0 28 0 12 8 11 7 7 27 7 27 -7 21 -7 22 -29 -4 -29 -5 0 39 0 38 -29 0
-28 0 -32 6 -32 7 -6 28 -5 29 -24 0 -24 0 0 -19z"/>
</g>
</svg>
