<?xml version="1.0" standalone="no"?>
<!DOCTYPE svg PUBLIC "-//W3C//DTD SVG 20010904//EN"
 "http://www.w3.org/TR/2001/REC-SVG-20010904/DTD/svg10.dtd">
<svg version="1.0" xmlns="http://www.w3.org/2000/svg"
 width="39.000000pt" height="37.000000pt" viewBox="0 0 39.000000 37.000000"
 preserveAspectRatio="xMidYMid meet">
<metadata>
Created by potrace 1.16, written by Peter Selinger 2001-2019
</metadata>
<g transform="translate(0.000000,37.000000) scale(0.100000,-0.100000)"
fill="#000000" stroke="none">
<path d="M190 331 l0 -39 -17 -6 -16 -7 -44 7 -43 6 0 -36 0 -36 -21 0 -20 0
-15 -14 -14 -15 0 -24 0 -25 6 -16 6 -16 34 0 33 0 -6 -49 -5 -48 23 -6 24 -7
38 0 38 0 6 30 6 30 8 6 9 5 0 -20 0 -19 6 -16 6 -16 63 0 62 0 17 43 16 43 0
26 0 26 -16 6 -16 6 -34 0 -34 0 0 10 0 10 24 0 24 0 16 6 16 6 0 55 0 54 -44
-6 -44 -7 -19 6 -19 6 4 40 4 40 -31 0 -31 0 0 -39z"/>
</g>
</svg>
