<?xml version="1.0" standalone="no"?>
<!DOCTYPE svg PUBLIC "-//W3C//DTD SVG 20010904//EN"
 "http://www.w3.org/TR/2001/REC-SVG-20010904/DTD/svg10.dtd">
<svg version="1.0" xmlns="http://www.w3.org/2000/svg"
 width="43.000000pt" height="40.000000pt" viewBox="0 0 43.000000 40.000000"
 preserveAspectRatio="xMidYMid meet">
<metadata>
Created by potrace 1.16, written by Peter Selinger 2001-2019
</metadata>
<g transform="translate(0.000000,40.000000) scale(0.100000,-0.100000)"
fill="#000000" stroke="none">
<path d="M203 386 l6 -14 -20 -21 -20 -21 -44 0 -45 0 0 -39 0 -39 -34 -6 -35
-7 -6 -18 -5 -18 6 -17 7 -17 28 -6 29 -5 0 -39 0 -38 33 -5 32 -6 24 -2 25
-3 8 -32 9 -33 12 0 12 0 12 8 11 7 7 28 7 27 22 0 21 0 23 6 23 7 -5 23 -6
24 -6 26 -7 26 22 -7 22 -7 24 6 23 6 6 24 6 24 -6 17 -7 16 -28 -6 -29 -7 0
41 0 41 -29 0 -28 0 -32 6 -32 7 -6 28 -5 29 -15 0 -15 0 5 -14z"/>
</g>
</svg>
