<?xml version="1.0" standalone="no"?>
<!DOCTYPE svg PUBLIC "-//W3C//DTD SVG 20010904//EN"
 "http://www.w3.org/TR/2001/REC-SVG-20010904/DTD/svg10.dtd">
<svg version="1.0" xmlns="http://www.w3.org/2000/svg"
 width="38.000000pt" height="45.000000pt" viewBox="0 0 38.000000 45.000000"
 preserveAspectRatio="xMidYMid meet">
<metadata>
Created by potrace 1.16, written by Peter Selinger 2001-2019
</metadata>
<g transform="translate(0.000000,45.000000) scale(0.100000,-0.100000)"
fill="#000000" stroke="none">
<path d="M200 418 l0 -33 -9 -14 -9 -14 -51 7 -51 7 0 -51 0 -50 -35 0 -35 0
-6 -24 -6 -25 7 -20 6 -20 22 -3 22 -3 6 -39 6 -38 14 -9 14 -9 46 0 46 0 -4
-25 -5 -24 16 -17 17 -16 34 6 35 7 6 24 6 25 -6 15 -5 15 30 0 30 0 15 14 14
15 0 41 0 41 -30 6 -30 6 0 13 0 14 24 0 24 0 11 31 11 32 0 26 0 26 -9 13 -8
13 -38 -7 -37 -7 -9 14 -9 14 0 21 0 22 -16 6 -16 6 -19 0 -19 0 0 -32z"/>
</g>
</svg>
