<?xml version="1.0" standalone="no"?>
<!DOCTYPE svg PUBLIC "-//W3C//DTD SVG 20010904//EN"
 "http://www.w3.org/TR/2001/REC-SVG-20010904/DTD/svg10.dtd">
<svg version="1.0" xmlns="http://www.w3.org/2000/svg"
 width="43.000000pt" height="35.000000pt" viewBox="0 0 43.000000 35.000000"
 preserveAspectRatio="xMidYMid meet">
<metadata>
Created by potrace 1.16, written by Peter Selinger 2001-2019
</metadata>
<g transform="translate(0.000000,35.000000) scale(0.100000,-0.100000)"
fill="#000000" stroke="none">
<path d="M196 342 l-6 -5 0 -23 0 -22 -6 -16 -6 -16 -54 0 -54 0 0 -22 0 -23
-8 -12 -7 -11 -28 -7 -27 -7 0 -30 0 -29 15 -16 16 -15 14 6 15 5 0 -43 0 -44
16 -6 16 -6 35 0 34 0 15 15 15 15 -6 21 -7 21 13 8 12 8 13 -5 12 -4 6 -23 6
-23 31 -7 31 -6 28 0 28 0 7 40 7 40 23 0 23 0 6 24 6 24 -6 15 -5 15 -29 12
-29 12 -12 -8 -12 -7 6 31 6 32 -5 15 -6 15 -24 0 -23 0 -26 12 -25 11 0 17 0
18 -19 5 -20 5 -5 -6z"/>
</g>
</svg>
