<?xml version="1.0" standalone="no"?>
<!DOCTYPE svg PUBLIC "-//W3C//DTD SVG 20010904//EN"
 "http://www.w3.org/TR/2001/REC-SVG-20010904/DTD/svg10.dtd">
<svg version="1.0" xmlns="http://www.w3.org/2000/svg"
 width="45.000000pt" height="37.000000pt" viewBox="0 0 45.000000 37.000000"
 preserveAspectRatio="xMidYMid meet">
<metadata>
Created by potrace 1.16, written by Peter Selinger 2001-2019
</metadata>
<g transform="translate(0.000000,37.000000) scale(0.100000,-0.100000)"
fill="#000000" stroke="none">
<path d="M197 363 l-7 -6 0 -23 0 -22 -6 -16 -6 -16 -54 0 -54 0 0 -22 0 -23
-8 -12 -7 -11 -28 -7 -27 -7 0 -40 0 -39 14 -15 15 -14 15 0 16 0 0 -39 0 -39
16 -6 16 -6 45 0 44 0 16 15 15 16 -5 24 -4 25 12 0 13 0 6 -24 6 -23 31 -7
31 -6 38 0 38 0 7 40 7 40 23 0 23 0 7 30 6 30 -5 18 -6 19 -26 11 -25 12 -14
0 -14 0 5 15 6 15 -6 25 -6 25 -25 0 -24 0 -26 12 -25 11 0 17 0 18 -22 6 -23
6 -6 0 -6 0 -6 -7z"/>
</g>
</svg>
