<?xml version="1.0" standalone="no"?>
<!DOCTYPE svg PUBLIC "-//W3C//DTD SVG 20010904//EN"
 "http://www.w3.org/TR/2001/REC-SVG-20010904/DTD/svg10.dtd">
<svg version="1.0" xmlns="http://www.w3.org/2000/svg"
 width="31.000000pt" height="37.000000pt" viewBox="0 0 31.000000 37.000000"
 preserveAspectRatio="xMidYMid meet">
<metadata>
Created by potrace 1.16, written by Peter Selinger 2001-2019
</metadata>
<g transform="translate(0.000000,37.000000) scale(0.100000,-0.100000)"
fill="#000000" stroke="none">
<path d="M130 346 l0 -25 -16 -15 -15 -16 -51 0 -51 0 6 -57 6 -56 13 -8 13
-9 23 0 22 0 0 -9 0 -9 -25 -6 -24 -6 -10 -38 -11 -37 0 -16 0 -17 16 -6 16
-6 38 0 39 0 15 16 16 15 0 25 0 25 10 -6 10 -6 0 -25 0 -25 16 -16 15 -15 41
5 41 5 9 14 9 13 -6 49 -6 48 -14 14 -14 14 -10 0 -11 0 0 10 0 10 29 0 29 0
6 16 6 16 0 40 0 40 -27 -7 -28 -7 -39 -5 -39 -5 6 22 6 23 -6 28 -5 29 -24 0
-24 0 0 -24z"/>
</g>
</svg>
