<?xml version="1.0" standalone="no"?>
<!DOCTYPE svg PUBLIC "-//W3C//DTD SVG 20010904//EN"
 "http://www.w3.org/TR/2001/REC-SVG-20010904/DTD/svg10.dtd">
<svg version="1.0" xmlns="http://www.w3.org/2000/svg"
 width="31.000000pt" height="33.000000pt" viewBox="0 0 31.000000 33.000000"
 preserveAspectRatio="xMidYMid meet">
<metadata>
Created by potrace 1.16, written by Peter Selinger 2001-2019
</metadata>
<g transform="translate(0.000000,33.000000) scale(0.100000,-0.100000)"
fill="#000000" stroke="none">
<path d="M147 323 l-4 -8 -7 -29 -7 -29 -55 7 -54 6 0 -6 0 -7 12 -38 11 -39
24 0 23 0 0 -36 0 -36 -31 6 -31 6 -15 -15 -15 -15 18 -45 17 -45 52 0 53 0 6
16 6 16 0 22 0 23 6 5 5 6 20 -5 19 -5 0 -18 0 -17 25 -11 26 -12 18 0 19 0 6
16 6 16 0 28 0 28 -37 9 -38 9 -3 17 -3 17 39 0 40 0 6 16 6 16 0 36 0 37 -56
-3 -55 -4 -13 18 -13 17 5 19 4 18 -15 0 -16 0 -4 -7z"/>
</g>
</svg>
