<?xml version="1.0" standalone="no"?>
<!DOCTYPE svg PUBLIC "-//W3C//DTD SVG 20010904//EN"
 "http://www.w3.org/TR/2001/REC-SVG-20010904/DTD/svg10.dtd">
<svg version="1.0" xmlns="http://www.w3.org/2000/svg"
 width="33.000000pt" height="35.000000pt" viewBox="0 0 33.000000 35.000000"
 preserveAspectRatio="xMidYMid meet">
<metadata>
Created by potrace 1.16, written by Peter Selinger 2001-2019
</metadata>
<g transform="translate(0.000000,35.000000) scale(0.100000,-0.100000)"
fill="#000000" stroke="none">
<path d="M147 343 l-4 -8 -7 -28 -7 -28 -54 6 -55 7 0 -17 0 -18 12 -38 11
-39 24 0 23 0 0 -25 0 -24 -30 5 -29 6 -16 -15 -15 -16 0 -12 0 -13 16 -43 17
-43 62 0 63 0 6 16 6 16 0 24 0 24 15 0 15 0 0 -18 0 -19 25 -11 26 -12 28 0
29 0 6 16 6 16 0 38 0 39 -35 7 -35 6 -6 9 -5 9 39 0 40 0 6 16 6 16 0 48 0
49 -56 -6 -56 -6 -9 14 -9 14 0 23 0 22 -24 0 -25 0 -4 -7z"/>
</g>
</svg>
