<?xml version="1.0" standalone="no"?>
<!DOCTYPE svg PUBLIC "-//W3C//DTD SVG 20010904//EN"
 "http://www.w3.org/TR/2001/REC-SVG-20010904/DTD/svg10.dtd">
<svg version="1.0" xmlns="http://www.w3.org/2000/svg"
 width="29.000000pt" height="35.000000pt" viewBox="0 0 29.000000 35.000000"
 preserveAspectRatio="xMidYMid meet">
<metadata>
Created by potrace 1.16, written by Peter Selinger 2001-2019
</metadata>
<g transform="translate(0.000000,35.000000) scale(0.100000,-0.100000)"
fill="#000000" stroke="none">
<path d="M130 326 l0 -25 -16 -15 -15 -16 -51 0 -51 0 7 -47 6 -47 13 -8 12
-8 22 3 22 4 5 -12 4 -12 -6 -10 -7 -10 -22 -7 -23 -7 -11 -41 -11 -41 14 -8
13 -9 32 0 32 0 16 16 17 17 -5 19 -5 19 15 6 16 6 13 -17 13 -18 -6 -14 -5
-13 16 -17 17 -16 33 6 34 7 6 16 6 16 -6 36 -7 35 -13 13 -13 13 -10 0 -11 0
0 20 0 20 29 0 29 0 6 16 6 16 0 30 0 30 -17 -7 -18 -7 -34 -8 -33 -8 -15 5
-14 6 1 26 2 26 -1 23 -1 22 -15 0 -15 0 0 -24z"/>
</g>
</svg>
