<?xml version="1.0" standalone="no"?>
<!DOCTYPE svg PUBLIC "-//W3C//DTD SVG 20010904//EN"
 "http://www.w3.org/TR/2001/REC-SVG-20010904/DTD/svg10.dtd">
<svg version="1.0" xmlns="http://www.w3.org/2000/svg"
 width="39.000000pt" height="43.000000pt" viewBox="0 0 39.000000 43.000000"
 preserveAspectRatio="xMidYMid meet">
<metadata>
Created by potrace 1.16, written by Peter Selinger 2001-2019
</metadata>
<g transform="translate(0.000000,43.000000) scale(0.100000,-0.100000)"
fill="#000000" stroke="none">
<path d="M193 423 l-13 -5 0 -34 0 -34 -54 0 -54 0 -7 -39 -6 -39 -30 -6 -29
-5 0 -35 0 -35 16 -15 15 -16 25 0 25 0 -6 -21 -7 -20 6 -25 6 -24 45 0 45 0
0 -29 0 -30 21 -6 20 -7 25 6 24 6 6 25 6 25 -6 16 -6 16 22 -7 23 -7 25 -4
25 -5 13 9 13 9 6 51 6 51 -39 7 -39 7 -7 10 -7 11 5 8 5 8 24 0 25 0 6 24 5
23 -3 34 -3 33 -46 13 -46 13 -11 25 -12 25 -22 -1 -23 -1 -12 -5z"/>
</g>
</svg>
