<?xml version="1.0" standalone="no"?>
<!DOCTYPE svg PUBLIC "-//W3C//DTD SVG 20010904//EN"
 "http://www.w3.org/TR/2001/REC-SVG-20010904/DTD/svg10.dtd">
<svg version="1.0" xmlns="http://www.w3.org/2000/svg"
 width="37.000000pt" height="41.000000pt" viewBox="0 0 37.000000 41.000000"
 preserveAspectRatio="xMidYMid meet">
<metadata>
Created by potrace 1.16, written by Peter Selinger 2001-2019
</metadata>
<g transform="translate(0.000000,41.000000) scale(0.100000,-0.100000)"
fill="#000000" stroke="none">
<path d="M193 403 l-13 -5 0 -34 0 -34 -54 0 -54 0 -7 -39 -6 -39 -30 -6 -29
-5 0 -25 0 -25 16 -16 17 -16 25 6 25 6 -6 -36 -6 -36 6 -15 5 -14 48 0 47 0
-5 -26 -5 -26 14 -9 14 -9 12 0 12 0 16 16 16 16 -7 31 -6 30 28 -6 29 -5 20
-6 20 -6 12 8 12 8 7 41 6 42 -40 7 -41 6 -6 19 -6 19 6 10 6 10 24 0 25 0 6
24 6 24 -4 23 -3 23 -46 13 -46 13 -11 25 -12 25 -12 -1 -13 -1 -12 -5z"/>
</g>
</svg>
