<?xml version="1.0" standalone="no"?>
<!DOCTYPE svg PUBLIC "-//W3C//DTD SVG 20010904//EN"
 "http://www.w3.org/TR/2001/REC-SVG-20010904/DTD/svg10.dtd">
<svg version="1.0" xmlns="http://www.w3.org/2000/svg"
 width="36.000000pt" height="43.000000pt" viewBox="0 0 36.000000 43.000000"
 preserveAspectRatio="xMidYMid meet">
<metadata>
Created by potrace 1.16, written by Peter Selinger 2001-2019
</metadata>
<g transform="translate(0.000000,43.000000) scale(0.100000,-0.100000)"
fill="#000000" stroke="none">
<path d="M202 401 l5 -31 -20 -6 -19 -6 -43 6 -43 7 -7 -39 -6 -39 -26 5 -25
5 -9 -14 -9 -14 0 -37 0 -36 6 -16 6 -16 17 0 18 0 13 -39 13 -39 21 -6 21 -6
33 0 32 0 0 -35 0 -34 35 -7 36 -6 19 22 20 23 0 29 0 28 30 0 30 0 0 24 0 23
-6 31 -6 30 -24 6 -24 6 0 15 0 15 15 0 15 0 20 20 20 20 0 36 0 36 -32 -2
-33 -2 -12 1 -12 1 -3 33 -3 32 -34 3 -33 3 4 -30z"/>
</g>
</svg>
