<?xml version="1.0" standalone="no"?>
<!DOCTYPE svg PUBLIC "-//W3C//DTD SVG 20010904//EN"
 "http://www.w3.org/TR/2001/REC-SVG-20010904/DTD/svg10.dtd">
<svg version="1.0" xmlns="http://www.w3.org/2000/svg"
 width="34.000000pt" height="41.000000pt" viewBox="0 0 34.000000 41.000000"
 preserveAspectRatio="xMidYMid meet">
<metadata>
Created by potrace 1.16, written by Peter Selinger 2001-2019
</metadata>
<g transform="translate(0.000000,41.000000) scale(0.100000,-0.100000)"
fill="#000000" stroke="none">
<path d="M205 381 l6 -30 -26 -7 -26 -6 -39 5 -39 5 -6 -40 -7 -40 -26 7 -25
6 -8 -13 -9 -13 0 -30 0 -30 9 -14 9 -14 14 6 14 5 13 -43 13 -43 21 -6 22 -6
33 0 32 0 0 -34 0 -34 26 -6 26 -7 20 23 20 23 -4 27 -5 28 34 0 33 0 0 14 0
13 -6 31 -6 30 -24 6 -24 6 0 25 0 25 15 0 15 0 20 20 20 20 0 26 0 26 -32 -6
-33 -6 -12 8 -11 7 -4 30 -3 30 -23 3 -24 4 7 -31z"/>
</g>
</svg>
