<?xml version="1.0" standalone="no"?>
<!DOCTYPE svg PUBLIC "-//W3C//DTD SVG 20010904//EN"
 "http://www.w3.org/TR/2001/REC-SVG-20010904/DTD/svg10.dtd">
<svg version="1.0" xmlns="http://www.w3.org/2000/svg"
 width="38.000000pt" height="34.000000pt" viewBox="0 0 38.000000 34.000000"
 preserveAspectRatio="xMidYMid meet">
<metadata>
Created by potrace 1.16, written by Peter Selinger 2001-2019
</metadata>
<g transform="translate(0.000000,34.000000) scale(0.100000,-0.100000)"
fill="#000000" stroke="none">
<path d="M179 338 l-1 -3 -2 -28 -2 -28 -14 -9 -15 -10 -32 0 -33 0 0 -19 0
-18 -11 -32 -11 -32 -30 6 -30 7 4 -29 3 -28 29 2 28 2 14 -14 14 -14 0 -26 0
-26 -10 -20 -11 -19 51 0 50 0 0 34 0 34 16 6 16 6 9 0 9 0 12 -25 11 -25 36
-10 36 -10 6 0 6 0 0 18 -1 17 2 32 2 33 25 6 25 6 0 13 0 13 -30 6 -30 6 0
50 0 51 -35 -7 -34 -6 -16 16 -17 16 5 13 4 12 -9 18 -9 17 -14 0 -15 0 -1 -2z"/>
</g>
</svg>
