<?xml version="1.0" standalone="no"?>
<!DOCTYPE svg PUBLIC "-//W3C//DTD SVG 20010904//EN"
 "http://www.w3.org/TR/2001/REC-SVG-20010904/DTD/svg10.dtd">
<svg version="1.0" xmlns="http://www.w3.org/2000/svg"
 width="29.000000pt" height="36.000000pt" viewBox="0 0 29.000000 36.000000"
 preserveAspectRatio="xMidYMid meet">
<metadata>
Created by potrace 1.16, written by Peter Selinger 2001-2019
</metadata>
<g transform="translate(0.000000,36.000000) scale(0.100000,-0.100000)"
fill="#000000" stroke="none">
<path d="M219 352 l-35 -3 4 -27 4 -27 -20 -23 -20 -23 -26 7 -26 6 0 34 0 34
-45 0 -45 0 0 -40 0 -40 24 0 24 0 16 -6 16 -6 0 -23 0 -23 -16 -6 -16 -6 -27
0 -28 0 1 -55 1 -55 44 0 43 0 -6 -27 -7 -26 13 -8 13 -9 18 0 18 0 16 15 15
16 -5 13 -6 14 22 6 22 6 24 0 24 0 18 22 19 21 0 33 0 34 -22 4 -23 5 -20 3
-20 3 -3 16 -3 16 41 7 40 6 0 46 0 45 -12 12 -13 12 -36 -3z"/>
</g>
</svg>
