<?xml version="1.0" standalone="no"?>
<!DOCTYPE svg PUBLIC "-//W3C//DTD SVG 20010904//EN"
 "http://www.w3.org/TR/2001/REC-SVG-20010904/DTD/svg10.dtd">
<svg version="1.0" xmlns="http://www.w3.org/2000/svg"
 width="31.000000pt" height="38.000000pt" viewBox="0 0 31.000000 38.000000"
 preserveAspectRatio="xMidYMid meet">
<metadata>
Created by potrace 1.16, written by Peter Selinger 2001-2019
</metadata>
<g transform="translate(0.000000,38.000000) scale(0.100000,-0.100000)"
fill="#000000" stroke="none">
<path d="M217 373 l-38 -4 6 -28 6 -27 -18 -20 -18 -20 -17 4 -18 3 0 35 0 34
-55 0 -55 0 0 -50 0 -50 24 0 24 0 16 -6 16 -6 0 -13 0 -13 -16 -6 -16 -6 -28
0 -28 0 2 -65 1 -65 41 0 41 0 -5 -26 -5 -26 14 -9 14 -9 28 0 28 0 15 14 14
15 0 14 0 15 16 6 16 6 25 0 26 0 18 22 19 21 0 42 0 43 -16 6 -16 6 -23 0
-24 0 -5 9 -6 9 40 6 40 6 0 56 0 55 -14 15 -15 14 -8 -2 -8 -1 -38 -4z"/>
</g>
</svg>
