<?xml version="1.0" standalone="no"?>
<!DOCTYPE svg PUBLIC "-//W3C//DTD SVG 20010904//EN"
 "http://www.w3.org/TR/2001/REC-SVG-20010904/DTD/svg10.dtd">
<svg version="1.0" xmlns="http://www.w3.org/2000/svg"
 width="34.000000pt" height="26.000000pt" viewBox="0 0 34.000000 26.000000"
 preserveAspectRatio="xMidYMid meet">
<metadata>
Created by potrace 1.16, written by Peter Selinger 2001-2019
</metadata>
<g transform="translate(0.000000,26.000000) scale(0.100000,-0.100000)"
fill="#000000" stroke="none">
<path d="M90 226 l0 -34 -6 -16 -6 -16 -39 0 -39 0 0 -15 0 -15 28 0 27 0 14
-9 13 -8 -3 -57 -4 -56 42 0 42 0 15 16 16 15 0 20 0 19 14 0 14 0 5 -29 6
-28 32 -7 31 -6 25 0 25 0 -6 16 -6 16 0 35 0 35 -25 -6 -25 -6 0 10 0 10 -14
0 -15 0 -6 20 -6 20 15 15 15 15 30 0 31 0 0 40 0 40 -27 0 -28 0 -22 -6 -22
-6 6 -14 5 -13 -15 -16 -16 -15 -18 0 -18 0 -13 9 -13 8 7 26 6 27 -36 0 -36
0 0 -34z"/>
</g>
</svg>
