<?xml version="1.0" standalone="no"?>
<!DOCTYPE svg PUBLIC "-//W3C//DTD SVG 20010904//EN"
 "http://www.w3.org/TR/2001/REC-SVG-20010904/DTD/svg10.dtd">
<svg version="1.0" xmlns="http://www.w3.org/2000/svg"
 width="36.000000pt" height="28.000000pt" viewBox="0 0 36.000000 28.000000"
 preserveAspectRatio="xMidYMid meet">
<metadata>
Created by potrace 1.16, written by Peter Selinger 2001-2019
</metadata>
<g transform="translate(0.000000,28.000000) scale(0.100000,-0.100000)"
fill="#000000" stroke="none">
<path d="M90 246 l0 -34 -6 -16 -6 -16 -39 0 -39 0 0 -25 0 -25 28 0 27 0 14
-9 14 -9 -6 -56 -6 -56 54 0 54 0 15 16 16 15 1 22 1 22 9 -31 9 -31 31 -7 31
-6 36 0 35 0 -7 31 -6 31 0 28 0 27 -39 7 -39 6 -4 12 -5 13 13 12 13 13 30 0
31 0 0 50 0 50 -37 0 -38 0 -23 -7 -24 -6 5 -16 4 -17 -14 -12 -13 -13 -18 6
-19 5 5 30 4 30 -46 0 -46 0 0 -34z"/>
</g>
</svg>
