<?xml version="1.0" standalone="no"?>
<!DOCTYPE svg PUBLIC "-//W3C//DTD SVG 20010904//EN"
 "http://www.w3.org/TR/2001/REC-SVG-20010904/DTD/svg10.dtd">
<svg version="1.0" xmlns="http://www.w3.org/2000/svg"
 width="35.000000pt" height="29.000000pt" viewBox="0 0 35.000000 29.000000"
 preserveAspectRatio="xMidYMid meet">
<metadata>
Created by potrace 1.16, written by Peter Selinger 2001-2019
</metadata>
<g transform="translate(0.000000,29.000000) scale(0.100000,-0.100000)"
fill="#000000" stroke="none">
<path d="M83 249 l0 -41 -14 -9 -14 -9 -27 0 -28 0 0 -34 0 -34 29 -5 29 -6 8
-23 7 -23 -1 -32 -1 -33 54 0 55 0 4 22 5 23 3 20 3 20 20 0 20 0 -3 -29 -4
-29 14 -8 13 -9 43 0 42 0 0 60 0 60 -26 0 -25 0 -13 13 -13 12 5 13 4 12 33
0 33 0 6 16 6 16 0 34 0 34 -10 0 -10 0 -44 -12 -45 -12 -6 -23 -5 -23 -11 0
-10 0 -15 14 -14 15 0 25 0 26 -49 0 -48 0 0 -41z"/>
</g>
</svg>
