<?xml version="1.0" standalone="no"?>
<!DOCTYPE svg PUBLIC "-//W3C//DTD SVG 20010904//EN"
 "http://www.w3.org/TR/2001/REC-SVG-20010904/DTD/svg10.dtd">
<svg version="1.0" xmlns="http://www.w3.org/2000/svg"
 width="33.000000pt" height="27.000000pt" viewBox="0 0 33.000000 27.000000"
 preserveAspectRatio="xMidYMid meet">
<metadata>
Created by potrace 1.16, written by Peter Selinger 2001-2019
</metadata>
<g transform="translate(0.000000,27.000000) scale(0.100000,-0.100000)"
fill="#000000" stroke="none">
<path d="M83 229 l-1 -42 -14 -8 -13 -9 -27 0 -28 0 0 -24 0 -23 30 -6 29 -6
11 -40 10 -39 -5 -14 -6 -14 45 -3 45 -2 5 23 5 23 3 20 3 20 30 0 30 0 -2
-30 -2 -29 12 -8 12 -8 33 0 32 0 0 50 0 50 -26 0 -25 0 -15 15 -15 15 6 20 6
20 34 0 33 0 6 16 6 16 0 25 0 25 -17 -7 -18 -6 -27 -6 -26 -5 -6 -24 -6 -24
-22 0 -21 0 -18 22 -19 21 6 19 5 18 -38 0 -38 0 -2 -41z"/>
</g>
</svg>
