<?xml version="1.0" standalone="no"?>
<!DOCTYPE svg PUBLIC "-//W3C//DTD SVG 20010904//EN"
 "http://www.w3.org/TR/2001/REC-SVG-20010904/DTD/svg10.dtd">
<svg version="1.0" xmlns="http://www.w3.org/2000/svg"
 width="42.000000pt" height="32.000000pt" viewBox="0 0 42.000000 32.000000"
 preserveAspectRatio="xMidYMid meet">
<metadata>
Created by potrace 1.16, written by Peter Selinger 2001-2019
</metadata>
<g transform="translate(0.000000,32.000000) scale(0.100000,-0.100000)"
fill="#000000" stroke="none">
<path d="M278 313 l-37 -4 -6 -29 -6 -28 -14 -6 -15 -5 -8 32 -8 32 -52 3 -52
3 0 -40 0 -40 -12 -8 -13 -7 -27 3 -28 3 0 -37 0 -37 23 4 23 4 12 -12 12 -13
0 -51 0 -50 48 0 47 0 13 9 14 8 8 34 8 34 1 -52 1 -52 19 -6 19 -6 40 10 41
9 16 15 15 16 0 34 0 35 30 7 30 7 0 43 0 44 -34 12 -35 13 6 29 6 29 -14 9
-14 9 -10 -2 -10 -1 -37 -4z"/>
</g>
</svg>
