<?xml version="1.0" standalone="no"?>
<!DOCTYPE svg PUBLIC "-//W3C//DTD SVG 20010904//EN"
 "http://www.w3.org/TR/2001/REC-SVG-20010904/DTD/svg10.dtd">
<svg version="1.0" xmlns="http://www.w3.org/2000/svg"
 width="40.000000pt" height="27.000000pt" viewBox="0 0 40.000000 27.000000"
 preserveAspectRatio="xMidYMid meet">
<metadata>
Created by potrace 1.16, written by Peter Selinger 2001-2019
</metadata>
<g transform="translate(0.000000,27.000000) scale(0.100000,-0.100000)"
fill="#000000" stroke="none">
<path d="M320 263 l0 -9 -36 4 -37 5 7 -26 6 -25 -6 -15 -5 -15 -25 -6 -25 -7
-15 15 -15 15 7 26 6 25 -46 0 -46 0 0 -45 0 -45 -23 -4 -22 -5 -19 -3 -20 -3
2 -10 2 -10 27 -7 26 -7 8 -13 9 -13 0 -42 0 -43 125 0 124 0 6 38 7 37 4 17
5 16 24 6 25 6 0 14 0 14 -30 7 -30 7 -6 24 -6 24 5 25 4 25 -8 6 -9 5 0 -8z"/>
</g>
</svg>
