<?xml version="1.0" standalone="no"?>
<!DOCTYPE svg PUBLIC "-//W3C//DTD SVG 20010904//EN"
 "http://www.w3.org/TR/2001/REC-SVG-20010904/DTD/svg10.dtd">
<svg version="1.0" xmlns="http://www.w3.org/2000/svg"
 width="42.000000pt" height="29.000000pt" viewBox="0 0 42.000000 29.000000"
 preserveAspectRatio="xMidYMid meet">
<metadata>
Created by potrace 1.16, written by Peter Selinger 2001-2019
</metadata>
<g transform="translate(0.000000,29.000000) scale(0.100000,-0.100000)"
fill="#000000" stroke="none">
<path d="M287 283 l-38 -4 1 -27 2 -27 -1 -12 -1 -12 -17 -3 -18 -4 -11 10
-10 10 4 28 4 28 -56 0 -56 0 0 -45 0 -45 -23 -4 -22 -5 -20 -3 -20 -3 0 -19
0 -20 29 -7 29 -8 8 -13 9 -13 0 -42 0 -43 135 0 134 0 6 38 7 37 4 17 5 16
24 6 25 6 0 24 0 24 -30 7 -30 7 -5 21 -5 22 2 30 3 29 -15 2 -15 1 -38 -4z"/>
</g>
</svg>
