<?xml version="1.0" standalone="no"?>
<!DOCTYPE svg PUBLIC "-//W3C//DTD SVG 20010904//EN"
 "http://www.w3.org/TR/2001/REC-SVG-20010904/DTD/svg10.dtd">
<svg version="1.0" xmlns="http://www.w3.org/2000/svg"
 width="40.000000pt" height="30.000000pt" viewBox="0 0 40.000000 30.000000"
 preserveAspectRatio="xMidYMid meet">
<metadata>
Created by potrace 1.16, written by Peter Selinger 2001-2019
</metadata>
<g transform="translate(0.000000,30.000000) scale(0.100000,-0.100000)"
fill="#000000" stroke="none">
<path d="M278 292 l-36 -3 -7 -27 -7 -27 -11 -7 -12 -8 -12 0 -12 0 -9 33 -8
32 -42 3 -42 3 0 -39 0 -40 -14 -11 -14 -12 -26 7 -26 6 0 -27 0 -26 20 6 20
6 15 -15 15 -15 0 -50 0 -51 39 0 40 0 15 16 16 15 0 25 0 24 15 0 15 0 1 -22
1 -23 -2 -26 -1 -26 14 -6 15 -5 35 8 36 8 16 15 15 16 0 34 0 35 30 7 30 7 0
33 0 34 -36 13 -35 13 6 31 5 32 -12 3 -13 4 -37 -3z"/>
</g>
</svg>
