<?xml version="1.0" standalone="no"?>
<!DOCTYPE svg PUBLIC "-//W3C//DTD SVG 20010904//EN"
 "http://www.w3.org/TR/2001/REC-SVG-20010904/DTD/svg10.dtd">
<svg version="1.0" xmlns="http://www.w3.org/2000/svg"
 width="39.000000pt" height="29.000000pt" viewBox="0 0 39.000000 29.000000"
 preserveAspectRatio="xMidYMid meet">
<metadata>
Created by potrace 1.16, written by Peter Selinger 2001-2019
</metadata>
<g transform="translate(0.000000,29.000000) scale(0.100000,-0.100000)"
fill="#000000" stroke="none">
<path d="M90 261 l0 -29 -6 -16 -6 -16 -33 0 -33 0 -6 -16 -6 -16 0 -15 0 -14
14 -15 15 -14 25 0 26 0 0 -34 0 -34 6 -16 6 -15 33 -7 34 -6 35 12 36 12 0
28 0 29 14 -5 13 -5 -5 -26 -5 -25 14 -9 14 -9 51 0 52 0 6 16 6 17 -6 48 -6
48 -37 8 -36 9 3 18 3 19 -5 23 -6 24 -11 0 -10 0 -17 -16 -16 -17 -4 12 -4
11 -14 0 -14 0 2 33 3 32 -62 3 -63 3 0 -30z"/>
</g>
</svg>
