<?xml version="1.0" standalone="no"?>
<!DOCTYPE svg PUBLIC "-//W3C//DTD SVG 20010904//EN"
 "http://www.w3.org/TR/2001/REC-SVG-20010904/DTD/svg10.dtd">
<svg version="1.0" xmlns="http://www.w3.org/2000/svg"
 width="37.000000pt" height="27.000000pt" viewBox="0 0 37.000000 27.000000"
 preserveAspectRatio="xMidYMid meet">
<metadata>
Created by potrace 1.16, written by Peter Selinger 2001-2019
</metadata>
<g transform="translate(0.000000,27.000000) scale(0.100000,-0.100000)"
fill="#000000" stroke="none">
<path d="M90 240 l0 -28 -6 -16 -6 -16 -33 0 -34 0 -6 -20 -6 -20 15 -15 15
-15 25 0 26 0 0 -37 0 -38 8 -11 7 -11 23 -7 22 -7 35 11 35 12 0 29 0 29 13
0 12 0 14 -9 13 -9 -7 -22 -7 -22 13 -9 14 -9 41 0 42 0 5 14 5 14 -5 40 -5
41 -37 8 -36 9 -1 29 -1 30 -1 13 -2 13 -16 -15 -15 -16 -15 0 -14 0 0 10 0
10 -16 0 -16 0 4 33 3 32 -52 1 -53 1 0 -27z"/>
</g>
</svg>
