<?xml version="1.0" standalone="no"?>
<!DOCTYPE svg PUBLIC "-//W3C//DTD SVG 20010904//EN"
 "http://www.w3.org/TR/2001/REC-SVG-20010904/DTD/svg10.dtd">
<svg version="1.0" xmlns="http://www.w3.org/2000/svg"
 width="38.000000pt" height="37.000000pt" viewBox="0 0 38.000000 37.000000"
 preserveAspectRatio="xMidYMid meet">
<metadata>
Created by potrace 1.16, written by Peter Selinger 2001-2019
</metadata>
<g transform="translate(0.000000,37.000000) scale(0.100000,-0.100000)"
fill="#000000" stroke="none">
<path d="M87 363 l-7 -7 6 -33 6 -33 -6 -25 -6 -25 -41 0 -40 0 3 -27 3 -27
38 -9 39 -9 -6 -42 -6 -41 9 -14 9 -13 41 7 41 7 0 -36 0 -36 40 0 40 0 0 15
0 15 10 0 10 0 0 25 0 25 38 -6 39 -6 16 17 17 16 0 45 0 44 -22 4 -23 5 -20
3 -20 3 1 10 0 10 20 3 19 3 24 5 24 5 -6 51 -6 51 -5 5 -6 5 -57 -18 -58 -18
-16 -18 -15 -18 -13 8 -12 8 7 26 6 27 -41 0 -41 0 0 10 0 10 -13 0 -14 0 -6
-7z"/>
</g>
</svg>
