<?xml version="1.0" standalone="no"?>
<!DOCTYPE svg PUBLIC "-//W3C//DTD SVG 20010904//EN"
 "http://www.w3.org/TR/2001/REC-SVG-20010904/DTD/svg10.dtd">
<svg version="1.0" xmlns="http://www.w3.org/2000/svg"
 width="34.000000pt" height="35.000000pt" viewBox="0 0 34.000000 35.000000"
 preserveAspectRatio="xMidYMid meet">
<metadata>
Created by potrace 1.16, written by Peter Selinger 2001-2019
</metadata>
<g transform="translate(0.000000,35.000000) scale(0.100000,-0.100000)"
fill="#000000" stroke="none">
<path d="M80 300 l0 -50 -40 -6 -41 -7 3 -16 3 -16 20 -3 20 -3 24 -5 24 -5
-7 -54 -6 -54 42 -3 43 -3 -2 -30 -2 -29 12 -8 12 -8 18 0 18 0 15 14 14 15 0
25 0 26 26 0 25 0 15 15 15 14 -11 40 -10 40 -20 6 -20 6 0 21 0 20 27 -6 26
-7 8 13 9 13 0 43 0 42 -50 0 -50 0 0 -19 0 -19 -6 -16 -6 -16 -24 0 -24 0 0
10 0 10 -16 0 -16 0 4 30 5 30 -39 0 -38 0 0 -50z"/>
</g>
</svg>
