<?xml version="1.0" standalone="no"?>
<!DOCTYPE svg PUBLIC "-//W3C//DTD SVG 20010904//EN"
 "http://www.w3.org/TR/2001/REC-SVG-20010904/DTD/svg10.dtd">
<svg version="1.0" xmlns="http://www.w3.org/2000/svg"
 width="35.000000pt" height="35.000000pt" viewBox="0 0 35.000000 35.000000"
 preserveAspectRatio="xMidYMid meet">
<metadata>
Created by potrace 1.16, written by Peter Selinger 2001-2019
</metadata>
<g transform="translate(0.000000,35.000000) scale(0.100000,-0.100000)"
fill="#000000" stroke="none">
<path d="M14 336 l-5 -14 3 -28 3 -28 33 -8 32 -9 0 -23 0 -24 -16 -6 -16 -6
-25 0 -25 0 4 -53 3 -52 40 -5 40 -5 -3 -29 -4 -29 14 -8 13 -9 23 0 23 0 5
29 6 29 50 7 51 7 -6 49 -6 49 23 -6 24 -6 26 27 26 26 0 13 0 14 -16 6 -16 6
-24 0 -24 0 0 50 0 50 -125 0 -126 0 -5 -14z"/>
</g>
</svg>
