<?xml version="1.0" standalone="no"?>
<!DOCTYPE svg PUBLIC "-//W3C//DTD SVG 20010904//EN"
 "http://www.w3.org/TR/2001/REC-SVG-20010904/DTD/svg10.dtd">
<svg version="1.0" xmlns="http://www.w3.org/2000/svg"
 width="36.000000pt" height="37.000000pt" viewBox="0 0 36.000000 37.000000"
 preserveAspectRatio="xMidYMid meet">
<metadata>
Created by potrace 1.16, written by Peter Selinger 2001-2019
</metadata>
<g transform="translate(0.000000,37.000000) scale(0.100000,-0.100000)"
fill="#000000" stroke="none">
<path d="M80 320 l0 -50 -41 -6 -40 -7 3 -26 3 -26 20 -3 20 -3 23 -5 23 -5
-6 -54 -7 -54 43 -3 44 -3 -3 -29 -4 -29 14 -8 13 -9 28 0 28 0 15 14 14 15 0
25 0 26 26 0 25 0 15 14 14 15 0 13 0 13 -10 37 -11 37 -19 6 -20 6 0 8 0 8
26 -5 26 -5 9 14 9 14 0 53 0 52 -60 0 -60 0 0 -19 0 -19 -6 -16 -6 -16 -14 0
-14 0 0 10 0 10 -16 0 -16 0 7 30 7 30 -51 0 -51 0 0 -50z"/>
</g>
</svg>
