<?xml version="1.0" standalone="no"?>
<!DOCTYPE svg PUBLIC "-//W3C//DTD SVG 20010904//EN"
 "http://www.w3.org/TR/2001/REC-SVG-20010904/DTD/svg10.dtd">
<svg version="1.0" xmlns="http://www.w3.org/2000/svg"
 width="36.000000pt" height="35.000000pt" viewBox="0 0 36.000000 35.000000"
 preserveAspectRatio="xMidYMid meet">
<metadata>
Created by potrace 1.16, written by Peter Selinger 2001-2019
</metadata>
<g transform="translate(0.000000,35.000000) scale(0.100000,-0.100000)"
fill="#000000" stroke="none">
<path d="M90 291 l0 -39 -6 -16 -6 -16 -40 0 -39 0 3 -17 3 -17 39 -9 38 -10
-5 -42 -4 -43 6 -10 6 -9 45 1 45 1 -3 -33 -4 -32 31 0 31 0 0 15 0 15 10 0
10 0 0 26 0 27 39 -7 40 -6 15 16 16 15 0 35 0 34 -22 4 -23 5 -20 3 -20 3 0
20 0 20 38 6 37 6 6 6 6 6 -7 41 -7 41 -16 -6 -17 -7 -35 -10 -35 -10 -17 -20
-17 -20 -21 7 -22 7 4 29 5 29 -44 0 -43 0 0 -39z"/>
</g>
</svg>
