<?xml version="1.0" standalone="no"?>
<!DOCTYPE svg PUBLIC "-//W3C//DTD SVG 20010904//EN"
 "http://www.w3.org/TR/2001/REC-SVG-20010904/DTD/svg10.dtd">
<svg version="1.0" xmlns="http://www.w3.org/2000/svg"
 width="37.000000pt" height="37.000000pt" viewBox="0 0 37.000000 37.000000"
 preserveAspectRatio="xMidYMid meet">
<metadata>
Created by potrace 1.16, written by Peter Selinger 2001-2019
</metadata>
<g transform="translate(0.000000,37.000000) scale(0.100000,-0.100000)"
fill="#000000" stroke="none">
<path d="M14 356 l-5 -14 3 -38 3 -38 33 -8 32 -9 0 -13 0 -14 -16 -6 -16 -6
-24 0 -24 0 0 -65 0 -65 40 0 40 0 0 -34 0 -34 16 -6 16 -6 29 0 30 0 5 29 6
29 49 7 49 7 0 44 0 44 20 0 19 0 26 25 25 26 0 23 0 24 -16 6 -16 6 -24 0
-24 0 0 50 0 50 -135 0 -136 0 -5 -14z"/>
</g>
</svg>
