<?xml version="1.0" standalone="no"?>
<!DOCTYPE svg PUBLIC "-//W3C//DTD SVG 20010904//EN"
 "http://www.w3.org/TR/2001/REC-SVG-20010904/DTD/svg10.dtd">
<svg version="1.0" xmlns="http://www.w3.org/2000/svg"
 width="37.000000pt" height="36.000000pt" viewBox="0 0 37.000000 36.000000"
 preserveAspectRatio="xMidYMid meet">
<metadata>
Created by potrace 1.16, written by Peter Selinger 2001-2019
</metadata>
<g transform="translate(0.000000,36.000000) scale(0.100000,-0.100000)"
fill="#000000" stroke="none">
<path d="M200 326 l0 -36 -22 -5 -23 -5 -35 -2 -35 -3 -3 -36 -3 -36 -24 5
-24 4 -16 -15 -15 -16 0 -20 0 -21 10 0 10 0 0 -15 0 -15 30 0 30 0 0 -36 0
-35 14 -15 15 -14 25 0 25 0 26 12 26 12 -6 23 -5 23 19 0 20 0 11 -40 11 -40
13 0 14 0 30 6 30 6 11 24 11 25 0 29 0 30 -22 4 -23 5 -20 3 -20 3 -3 16 -3
16 41 7 40 6 0 53 0 52 -47 3 -47 2 -8 13 -8 12 3 20 2 20 -27 3 -28 3 0 -35z"/>
</g>
</svg>
