<?xml version="1.0" standalone="no"?>
<!DOCTYPE svg PUBLIC "-//W3C//DTD SVG 20010904//EN"
 "http://www.w3.org/TR/2001/REC-SVG-20010904/DTD/svg10.dtd">
<svg version="1.0" xmlns="http://www.w3.org/2000/svg"
 width="39.000000pt" height="38.000000pt" viewBox="0 0 39.000000 38.000000"
 preserveAspectRatio="xMidYMid meet">
<metadata>
Created by potrace 1.16, written by Peter Selinger 2001-2019
</metadata>
<g transform="translate(0.000000,38.000000) scale(0.100000,-0.100000)"
fill="#000000" stroke="none">
<path d="M200 346 l0 -36 -22 -5 -23 -5 -35 -2 -35 -3 -3 -32 -3 -33 -25 0
-25 0 -15 -14 -14 -15 0 -30 0 -31 10 0 10 0 0 -15 0 -15 30 0 30 0 0 -36 0
-35 14 -15 15 -14 35 0 35 0 25 11 25 12 3 26 4 26 12 -42 13 -43 23 0 24 0
30 6 30 6 11 24 11 25 0 38 0 39 -16 6 -16 6 -23 0 -24 0 -5 9 -6 9 40 6 40 6
0 64 0 63 -46 1 -47 1 -5 5 -5 6 -1 27 -1 28 -37 3 -38 3 0 -35z"/>
</g>
</svg>
