<?xml version="1.0" standalone="no"?>
<!DOCTYPE svg PUBLIC "-//W3C//DTD SVG 20010904//EN"
 "http://www.w3.org/TR/2001/REC-SVG-20010904/DTD/svg10.dtd">
<svg version="1.0" xmlns="http://www.w3.org/2000/svg"
 width="25.000000pt" height="26.000000pt" viewBox="0 0 25.000000 26.000000"
 preserveAspectRatio="xMidYMid meet">
<metadata>
Created by potrace 1.16, written by Peter Selinger 2001-2019
</metadata>
<g transform="translate(0.000000,26.000000) scale(0.100000,-0.100000)"
fill="#000000" stroke="none">
<path d="M6 229 l-6 -31 0 -9 0 -9 28 0 27 0 12 -20 13 -19 -6 -16 -6 -15 -22
0 -22 0 -10 -55 -10 -55 39 0 38 0 15 14 14 15 0 15 0 16 25 0 25 0 0 -11 0
-10 14 -15 15 -14 30 0 31 0 0 45 0 45 -24 0 -24 0 -6 16 -6 17 6 19 6 19 21
-3 22 -3 3 43 3 42 -35 0 -35 0 -7 -22 -7 -23 -11 -7 -11 -8 -22 0 -22 0 -14
15 -15 15 5 20 5 20 -35 0 -34 0 -7 -31z"/>
</g>
</svg>
