<?xml version="1.0" standalone="no"?>
<!DOCTYPE svg PUBLIC "-//W3C//DTD SVG 20010904//EN"
 "http://www.w3.org/TR/2001/REC-SVG-20010904/DTD/svg10.dtd">
<svg version="1.0" xmlns="http://www.w3.org/2000/svg"
 width="35.000000pt" height="30.000000pt" viewBox="0 0 35.000000 30.000000"
 preserveAspectRatio="xMidYMid meet">
<metadata>
Created by potrace 1.16, written by Peter Selinger 2001-2019
</metadata>
<g transform="translate(0.000000,30.000000) scale(0.100000,-0.100000)"
fill="#000000" stroke="none">
<path d="M80 262 l0 -40 -37 -9 -38 -9 -3 -37 -3 -37 30 0 29 0 16 -6 16 -6 0
-24 0 -24 -11 0 -10 0 3 -23 3 -22 45 -3 46 -3 22 19 22 19 0 17 0 17 10 -6
10 -6 0 -41 0 -41 51 5 51 5 9 14 9 14 0 48 0 47 -20 0 -20 0 0 10 0 10 -15 0
-15 0 0 9 0 9 6 16 6 16 30 0 31 0 -7 42 -7 42 -4 4 -4 4 -50 -7 -51 -7 0 -16
0 -17 -9 -14 -9 -13 -21 7 -21 6 3 32 2 32 -47 3 -48 3 0 -39z"/>
</g>
</svg>
