<?xml version="1.0" standalone="no"?>
<!DOCTYPE svg PUBLIC "-//W3C//DTD SVG 20010904//EN"
 "http://www.w3.org/TR/2001/REC-SVG-20010904/DTD/svg10.dtd">
<svg version="1.0" xmlns="http://www.w3.org/2000/svg"
 width="40.000000pt" height="28.000000pt" viewBox="0 0 40.000000 28.000000"
 preserveAspectRatio="xMidYMid meet">
<metadata>
Created by potrace 1.16, written by Peter Selinger 2001-2019
</metadata>
<g transform="translate(0.000000,28.000000) scale(0.100000,-0.100000)"
fill="#000000" stroke="none">
<path d="M267 272 l-37 -3 5 -9 6 -9 -7 -25 -6 -25 -15 -5 -15 -6 -24 6 -24 6
0 14 0 14 -11 0 -11 0 5 21 6 21 -22 -6 -22 -6 -12 0 -13 0 0 -19 0 -18 -11
-32 -11 -33 -24 6 -24 6 0 -29 0 -29 31 -6 32 -6 -5 -44 -5 -45 14 -5 15 -6
25 0 24 0 15 14 14 15 0 26 0 26 28 -3 27 -3 3 -30 4 -30 11 -7 12 -8 27 0 26
0 16 6 16 6 0 19 0 18 12 26 11 25 24 6 23 6 0 18 0 18 -6 16 -6 16 -22 -5
-21 -5 -14 9 -15 10 -5 43 -6 43 -38 -3z"/>
</g>
</svg>
