<?xml version="1.0" standalone="no"?>
<!DOCTYPE svg PUBLIC "-//W3C//DTD SVG 20010904//EN"
 "http://www.w3.org/TR/2001/REC-SVG-20010904/DTD/svg10.dtd">
<svg version="1.0" xmlns="http://www.w3.org/2000/svg"
 width="42.000000pt" height="30.000000pt" viewBox="0 0 42.000000 30.000000"
 preserveAspectRatio="xMidYMid meet">
<metadata>
Created by potrace 1.16, written by Peter Selinger 2001-2019
</metadata>
<g transform="translate(0.000000,30.000000) scale(0.100000,-0.100000)"
fill="#000000" stroke="none">
<path d="M268 293 l-37 -4 1 -31 1 -30 -13 -8 -12 -8 -19 5 -19 5 0 14 0 14
-9 0 -9 0 5 20 5 20 -15 0 -15 0 -31 -6 -31 -6 0 -18 0 -17 -10 -30 -11 -30
-24 5 -25 4 0 -40 0 -40 31 -6 31 -6 -6 -44 -7 -44 16 -6 17 -6 35 0 34 0 15
14 14 15 0 26 0 26 18 -3 17 -3 3 -30 4 -30 11 -7 12 -8 37 0 36 0 16 6 16 6
0 19 0 18 12 26 11 25 24 6 23 6 0 32 0 31 -9 14 -9 14 -21 -6 -21 -5 -15 15
-15 14 0 40 0 39 -12 -2 -13 -1 -37 -4z"/>
</g>
</svg>
