<?xml version="1.0" standalone="no"?>
<!DOCTYPE svg PUBLIC "-//W3C//DTD SVG 20010904//EN"
 "http://www.w3.org/TR/2001/REC-SVG-20010904/DTD/svg10.dtd">
<svg version="1.0" xmlns="http://www.w3.org/2000/svg"
 width="27.000000pt" height="28.000000pt" viewBox="0 0 27.000000 28.000000"
 preserveAspectRatio="xMidYMid meet">
<metadata>
Created by potrace 1.16, written by Peter Selinger 2001-2019
</metadata>
<g transform="translate(0.000000,28.000000) scale(0.100000,-0.100000)"
fill="#000000" stroke="none">
<path d="M6 249 l-6 -31 0 -19 0 -19 29 0 29 0 6 -16 6 -16 0 -9 0 -9 -24 0
-23 0 -7 -42 -6 -43 -6 -22 -6 -23 52 0 51 0 15 14 14 15 0 15 0 16 15 0 15 0
0 -11 0 -10 14 -15 15 -14 40 0 41 0 0 55 0 55 -24 0 -24 0 -5 13 -5 14 6 9 7
9 20 0 20 0 3 53 3 52 -45 0 -46 0 -6 -25 -6 -24 -18 -6 -17 -5 -17 6 -16 6 0
29 0 29 -44 0 -43 0 -7 -31z"/>
</g>
</svg>
