<?xml version="1.0" standalone="no"?>
<!DOCTYPE svg PUBLIC "-//W3C//DTD SVG 20010904//EN"
 "http://www.w3.org/TR/2001/REC-SVG-20010904/DTD/svg10.dtd">
<svg version="1.0" xmlns="http://www.w3.org/2000/svg"
 width="31.000000pt" height="35.000000pt" viewBox="0 0 31.000000 35.000000"
 preserveAspectRatio="xMidYMid meet">
<metadata>
Created by potrace 1.16, written by Peter Selinger 2001-2019
</metadata>
<g transform="translate(0.000000,35.000000) scale(0.100000,-0.100000)"
fill="#000000" stroke="none">
<path d="M30 299 l0 -51 30 4 30 5 1 -11 1 -11 -2 -15 -2 -15 -11 -7 -12 -8
-34 7 -34 6 8 -44 8 -44 -2 -22 -1 -23 45 0 45 0 0 -30 0 -30 25 -6 25 -6 35
6 35 7 0 19 0 19 34 7 35 6 5 15 6 15 6 54 7 54 -32 0 -32 0 -15 14 -14 15 16
15 15 16 20 0 19 0 0 45 0 45 -51 0 -51 0 6 -25 7 -26 -16 -15 -15 -15 -19 6
-20 6 -3 32 -3 32 -47 3 -48 3 0 -52z"/>
</g>
</svg>
