<?xml version="1.0" standalone="no"?>
<!DOCTYPE svg PUBLIC "-//W3C//DTD SVG 20010904//EN"
 "http://www.w3.org/TR/2001/REC-SVG-20010904/DTD/svg10.dtd">
<svg version="1.0" xmlns="http://www.w3.org/2000/svg"
 width="29.000000pt" height="33.000000pt" viewBox="0 0 29.000000 33.000000"
 preserveAspectRatio="xMidYMid meet">
<metadata>
Created by potrace 1.16, written by Peter Selinger 2001-2019
</metadata>
<g transform="translate(0.000000,33.000000) scale(0.100000,-0.100000)"
fill="#000000" stroke="none">
<path d="M30 290 l0 -42 29 7 28 6 7 -16 6 -17 -6 -23 -6 -24 -20 -7 -19 -6
-26 7 -25 6 8 -33 8 -33 0 -22 1 -23 43 0 42 0 0 -29 0 -30 20 -6 20 -6 30 6
30 7 0 18 0 19 34 7 35 6 5 13 4 12 7 47 7 46 -32 0 -31 0 -15 15 -15 15 6 20
7 21 29 6 29 6 0 33 0 34 -39 0 -38 0 4 -25 5 -24 -15 -16 -16 -15 -18 0 -18
0 -12 8 -11 7 -4 30 -3 30 -37 3 -38 3 0 -41z"/>
</g>
</svg>
