<?xml version="1.0" standalone="no"?>
<!DOCTYPE svg PUBLIC "-//W3C//DTD SVG 20010904//EN"
 "http://www.w3.org/TR/2001/REC-SVG-20010904/DTD/svg10.dtd">
<svg version="1.0" xmlns="http://www.w3.org/2000/svg"
 width="33.000000pt" height="28.000000pt" viewBox="0 0 33.000000 28.000000"
 preserveAspectRatio="xMidYMid meet">
<metadata>
Created by potrace 1.16, written by Peter Selinger 2001-2019
</metadata>
<g transform="translate(0.000000,28.000000) scale(0.100000,-0.100000)"
fill="#000000" stroke="none">
<path d="M80 242 l0 -40 -37 -9 -38 -9 -3 -27 -3 -27 30 0 29 0 16 -6 16 -6 0
-33 0 -33 -12 -4 -12 -4 8 -12 7 -12 33 0 33 0 23 20 22 19 -6 16 -6 16 23 -3
22 -3 3 -44 3 -43 41 5 41 5 8 14 9 13 0 38 0 37 -20 0 -20 0 0 10 0 10 -15 0
-15 0 0 19 0 19 6 16 6 16 30 0 30 0 -7 33 -7 32 -3 3 -2 3 -41 -7 -40 -6 -6
-29 -6 -29 -22 0 -23 0 -13 9 -14 8 4 29 3 29 -37 3 -38 3 0 -39z"/>
</g>
</svg>
