<?xml version="1.0" standalone="no"?>
<!DOCTYPE svg PUBLIC "-//W3C//DTD SVG 20010904//EN"
 "http://www.w3.org/TR/2001/REC-SVG-20010904/DTD/svg10.dtd">
<svg version="1.0" xmlns="http://www.w3.org/2000/svg"
 width="29.000000pt" height="33.000000pt" viewBox="0 0 29.000000 33.000000"
 preserveAspectRatio="xMidYMid meet">
<metadata>
Created by potrace 1.16, written by Peter Selinger 2001-2019
</metadata>
<g transform="translate(0.000000,33.000000) scale(0.100000,-0.100000)"
fill="#000000" stroke="none">
<path d="M110 303 l0 -29 -12 -12 -12 -12 -43 0 -43 0 0 -32 0 -33 8 -12 7
-11 28 -7 27 -7 0 -14 0 -14 -25 -6 -24 -6 -5 -16 -4 -17 -7 -37 -6 -38 136 0
135 0 0 14 0 13 -6 31 -6 31 -29 6 -29 7 0 18 0 18 16 6 16 6 29 0 29 0 0 18
0 17 -6 37 -6 37 -29 -6 -28 -5 -25 6 -25 6 -3 33 -3 32 -27 3 -28 3 0 -28z"/>
</g>
</svg>
