<?xml version="1.0" standalone="no"?>
<!DOCTYPE svg PUBLIC "-//W3C//DTD SVG 20010904//EN"
 "http://www.w3.org/TR/2001/REC-SVG-20010904/DTD/svg10.dtd">
<svg version="1.0" xmlns="http://www.w3.org/2000/svg"
 width="31.000000pt" height="35.000000pt" viewBox="0 0 31.000000 35.000000"
 preserveAspectRatio="xMidYMid meet">
<metadata>
Created by potrace 1.16, written by Peter Selinger 2001-2019
</metadata>
<g transform="translate(0.000000,35.000000) scale(0.100000,-0.100000)"
fill="#000000" stroke="none">
<path d="M110 323 l0 -29 -12 -12 -12 -12 -43 0 -43 0 0 -42 0 -43 8 -11 7
-11 30 -10 30 -11 -27 -7 -27 -7 -5 -16 -5 -17 -7 -47 -6 -48 146 0 146 0 0
24 0 23 -6 31 -6 31 -29 6 -29 7 0 8 0 8 16 6 16 6 29 0 29 0 0 28 0 27 -6 38
-7 38 -41 -6 -41 -6 -12 8 -11 8 -4 30 -3 30 -37 3 -38 3 0 -28z"/>
</g>
</svg>
