<?xml version="1.0" standalone="no"?>
<!DOCTYPE svg PUBLIC "-//W3C//DTD SVG 20010904//EN"
 "http://www.w3.org/TR/2001/REC-SVG-20010904/DTD/svg10.dtd">
<svg version="1.0" xmlns="http://www.w3.org/2000/svg"
 width="31.000000pt" height="35.000000pt" viewBox="0 0 31.000000 35.000000"
 preserveAspectRatio="xMidYMid meet">
<metadata>
Created by potrace 1.16, written by Peter Selinger 2001-2019
</metadata>
<g transform="translate(0.000000,35.000000) scale(0.100000,-0.100000)"
fill="#000000" stroke="none">
<path d="M177 343 l-7 -6 0 -23 0 -22 -35 -12 -36 -12 -14 6 -15 5 0 -38 0
-39 -16 -6 -16 -6 -19 0 -19 0 0 -35 0 -35 28 0 27 0 13 -9 14 -8 -7 -47 -7
-46 46 0 46 0 4 23 5 22 3 20 3 20 20 0 20 0 -2 -42 -2 -42 20 -6 19 -6 31 6
31 7 -6 45 -6 46 0 13 0 14 -25 0 -25 0 0 23 0 23 30 11 30 11 0 36 0 36 -37
0 -38 0 -14 9 -13 9 7 22 7 22 -13 9 -14 9 -6 0 -6 0 -6 -7z"/>
</g>
</svg>
