<?xml version="1.0" standalone="no"?>
<!DOCTYPE svg PUBLIC "-//W3C//DTD SVG 20010904//EN"
 "http://www.w3.org/TR/2001/REC-SVG-20010904/DTD/svg10.dtd">
<svg version="1.0" xmlns="http://www.w3.org/2000/svg"
 width="35.000000pt" height="39.000000pt" viewBox="0 0 35.000000 39.000000"
 preserveAspectRatio="xMidYMid meet">
<metadata>
Created by potrace 1.16, written by Peter Selinger 2001-2019
</metadata>
<g transform="translate(0.000000,39.000000) scale(0.100000,-0.100000)"
fill="#000000" stroke="none">
<path d="M183 373 l-7 -18 -12 -12 -13 -13 -35 0 -36 0 0 -44 0 -44 -16 -6
-16 -6 -24 0 -24 0 0 -20 0 -20 34 0 34 0 16 -6 16 -6 0 -20 0 -19 -10 -19
-10 -19 6 -15 6 -16 37 0 38 0 -5 -29 -4 -29 22 -7 21 -7 17 20 17 20 38 10
37 10 15 15 15 16 0 38 0 38 -9 13 -8 14 -19 -4 -19 -3 -3 28 -4 29 30 -7 29
-6 5 13 5 13 -5 43 -4 42 -40 0 -39 0 -15 14 -14 15 0 10 0 11 -20 0 -21 0 -6
-17z"/>
</g>
</svg>
