<?xml version="1.0" standalone="no"?>
<!DOCTYPE svg PUBLIC "-//W3C//DTD SVG 20010904//EN"
 "http://www.w3.org/TR/2001/REC-SVG-20010904/DTD/svg10.dtd">
<svg version="1.0" xmlns="http://www.w3.org/2000/svg"
 width="33.000000pt" height="37.000000pt" viewBox="0 0 33.000000 37.000000"
 preserveAspectRatio="xMidYMid meet">
<metadata>
Created by potrace 1.16, written by Peter Selinger 2001-2019
</metadata>
<g transform="translate(0.000000,37.000000) scale(0.100000,-0.100000)"
fill="#000000" stroke="none">
<path d="M177 363 l-7 -6 0 -23 0 -22 -29 -10 -30 -10 -20 5 -21 5 0 -40 0
-40 -16 -6 -16 -6 -19 0 -19 0 0 -45 0 -45 24 0 24 0 16 -6 15 -6 -6 -49 -6
-49 56 0 57 0 4 23 5 22 3 18 3 18 10 -3 10 -3 -3 -37 -3 -37 25 -7 26 -6 35
6 35 7 0 23 0 23 -6 47 -7 46 -23 0 -24 0 0 13 0 13 30 11 30 11 0 46 0 46
-34 0 -34 0 -15 6 -14 5 5 26 5 25 -14 9 -14 9 -16 0 -16 0 -6 -7z"/>
</g>
</svg>
