<?xml version="1.0" standalone="no"?>
<!DOCTYPE svg PUBLIC "-//W3C//DTD SVG 20010904//EN"
 "http://www.w3.org/TR/2001/REC-SVG-20010904/DTD/svg10.dtd">
<svg version="1.0" xmlns="http://www.w3.org/2000/svg"
 width="37.000000pt" height="41.000000pt" viewBox="0 0 37.000000 41.000000"
 preserveAspectRatio="xMidYMid meet">
<metadata>
Created by potrace 1.16, written by Peter Selinger 2001-2019
</metadata>
<g transform="translate(0.000000,41.000000) scale(0.100000,-0.100000)"
fill="#000000" stroke="none">
<path d="M183 393 l-7 -18 -12 -12 -13 -13 -35 0 -36 0 0 -44 0 -44 -16 -6
-16 -6 -24 0 -24 0 0 -30 0 -30 38 0 37 0 14 -9 14 -9 -12 -30 -13 -31 7 -20
6 -21 35 0 34 0 0 -29 0 -29 16 -6 16 -6 15 0 16 0 16 19 16 19 38 10 37 10
15 15 15 16 0 44 0 45 -6 16 -6 16 -24 0 -24 0 0 13 0 14 29 -5 28 -4 6 16 6
15 -6 51 -6 50 -39 0 -39 0 -15 14 -14 15 0 10 0 11 -30 0 -31 0 -6 -17z"/>
</g>
</svg>
