<?xml version="1.0" standalone="no"?>
<!DOCTYPE svg PUBLIC "-//W3C//DTD SVG 20010904//EN"
 "http://www.w3.org/TR/2001/REC-SVG-20010904/DTD/svg10.dtd">
<svg version="1.0" xmlns="http://www.w3.org/2000/svg"
 width="45.000000pt" height="44.000000pt" viewBox="0 0 45.000000 44.000000"
 preserveAspectRatio="xMidYMid meet">
<metadata>
Created by potrace 1.16, written by Peter Selinger 2001-2019
</metadata>
<g transform="translate(0.000000,44.000000) scale(0.100000,-0.100000)"
fill="#000000" stroke="none">
<path d="M197 434 l-7 -7 0 -26 0 -26 -9 -14 -9 -14 -46 6 -47 7 -4 -13 -3
-12 -7 -29 -6 -28 -29 -11 -30 -11 0 -33 0 -33 25 -6 25 -6 0 -12 0 -11 11
-38 10 -37 44 0 45 0 0 -30 0 -30 15 0 15 0 0 -10 0 -10 34 0 34 0 6 16 6 16
0 19 0 19 49 0 48 0 17 44 17 44 24 6 25 6 0 39 0 39 -6 16 -6 16 -34 0 -34 0
0 36 0 37 -48 -6 -48 -6 -10 7 -9 7 0 40 0 40 -25 3 -26 3 -7 -7z"/>
</g>
</svg>
