<?xml version="1.0" standalone="no"?>
<!DOCTYPE svg PUBLIC "-//W3C//DTD SVG 20010904//EN"
 "http://www.w3.org/TR/2001/REC-SVG-20010904/DTD/svg10.dtd">
<svg version="1.0" xmlns="http://www.w3.org/2000/svg"
 width="43.000000pt" height="42.000000pt" viewBox="0 0 43.000000 42.000000"
 preserveAspectRatio="xMidYMid meet">
<metadata>
Created by potrace 1.16, written by Peter Selinger 2001-2019
</metadata>
<g transform="translate(0.000000,42.000000) scale(0.100000,-0.100000)"
fill="#000000" stroke="none">
<path d="M197 414 l-7 -7 0 -26 0 -26 -9 -13 -8 -14 -49 3 -48 3 -7 -34 -7
-34 -18 -13 -18 -13 -13 0 -13 0 0 -25 0 -25 25 -6 25 -6 0 -12 0 -11 11 -37
10 -38 48 0 48 0 -5 -30 -4 -30 16 0 16 0 0 -10 0 -10 24 0 24 0 6 16 6 16 0
19 0 19 49 0 48 0 17 44 17 44 24 6 25 6 0 33 0 32 -9 14 -9 14 -31 -6 -31 -6
0 40 0 41 -47 -6 -48 -6 -11 7 -12 8 2 40 1 39 -15 4 -16 3 -7 -7z"/>
</g>
</svg>
