<?xml version="1.0" standalone="no"?>
<!DOCTYPE svg PUBLIC "-//W3C//DTD SVG 20010904//EN"
 "http://www.w3.org/TR/2001/REC-SVG-20010904/DTD/svg10.dtd">
<svg version="1.0" xmlns="http://www.w3.org/2000/svg"
 width="30.000000pt" height="35.000000pt" viewBox="0 0 30.000000 35.000000"
 preserveAspectRatio="xMidYMid meet">
<metadata>
Created by potrace 1.16, written by Peter Selinger 2001-2019
</metadata>
<g transform="translate(0.000000,35.000000) scale(0.100000,-0.100000)"
fill="#000000" stroke="none">
<path d="M117 344 l-7 -7 0 -14 0 -14 -14 -15 -15 -14 -40 0 -41 0 0 -60 0
-59 33 -9 32 -8 -26 -7 -26 -7 -7 -50 -7 -51 15 -14 15 -15 40 0 40 0 15 16
16 15 0 25 0 24 15 0 15 0 0 -19 0 -19 6 -16 6 -16 59 0 59 0 0 54 0 54 -37 9
-38 9 -3 17 -3 17 24 0 25 0 16 6 16 6 0 53 0 53 -40 0 -40 1 -20 6 -19 6 -3
22 -3 22 -25 3 -26 3 -7 -7z"/>
</g>
</svg>
