<?xml version="1.0" standalone="no"?>
<!DOCTYPE svg PUBLIC "-//W3C//DTD SVG 20010904//EN"
 "http://www.w3.org/TR/2001/REC-SVG-20010904/DTD/svg10.dtd">
<svg version="1.0" xmlns="http://www.w3.org/2000/svg"
 width="28.000000pt" height="33.000000pt" viewBox="0 0 28.000000 33.000000"
 preserveAspectRatio="xMidYMid meet">
<metadata>
Created by potrace 1.16, written by Peter Selinger 2001-2019
</metadata>
<g transform="translate(0.000000,33.000000) scale(0.100000,-0.100000)"
fill="#000000" stroke="none">
<path d="M117 324 l-7 -7 0 -14 0 -14 -14 -15 -15 -14 -40 0 -41 0 0 -50 0
-50 30 -6 30 -6 0 -13 0 -13 -24 -6 -23 -6 -6 -41 -5 -42 13 -13 14 -14 30 0
30 0 15 16 16 15 0 25 0 24 25 0 25 0 0 -19 0 -19 6 -16 6 -16 49 0 49 0 0 45
0 44 -35 7 -35 6 -9 16 -8 15 4 18 5 18 14 -6 14 -5 25 6 25 6 0 43 0 42 -37
2 -37 2 -22 5 -23 6 -3 22 -3 23 -15 3 -16 3 -7 -7z"/>
</g>
</svg>
