<?xml version="1.0" standalone="no"?>
<!DOCTYPE svg PUBLIC "-//W3C//DTD SVG 20010904//EN"
 "http://www.w3.org/TR/2001/REC-SVG-20010904/DTD/svg10.dtd">
<svg version="1.0" xmlns="http://www.w3.org/2000/svg"
 width="26.000000pt" height="35.000000pt" viewBox="0 0 26.000000 35.000000"
 preserveAspectRatio="xMidYMid meet">
<metadata>
Created by potrace 1.16, written by Peter Selinger 2001-2019
</metadata>
<g transform="translate(0.000000,35.000000) scale(0.100000,-0.100000)"
fill="#000000" stroke="none">
<path d="M168 314 l4 -36 -13 -9 -14 -9 -21 0 -22 0 -6 16 -6 16 6 24 6 24
-45 0 -44 0 -7 -31 -6 -31 0 -8 0 -8 19 5 18 5 17 -17 16 -16 0 -22 0 -22 -9
-14 -9 -14 -16 6 -16 6 0 -27 0 -27 -6 -22 -6 -22 33 -3 33 -3 8 -31 8 -32 24
-6 24 -6 17 6 16 7 6 28 6 29 26 0 27 0 12 12 12 12 0 38 0 38 -26 0 -25 0
-15 14 -14 15 0 18 0 18 9 14 9 14 26 -5 26 -5 0 42 0 43 -22 6 -23 6 -20 0
-21 0 4 -36z"/>
</g>
</svg>
