<?xml version="1.0" standalone="no"?>
<!DOCTYPE svg PUBLIC "-//W3C//DTD SVG 20010904//EN"
 "http://www.w3.org/TR/2001/REC-SVG-20010904/DTD/svg10.dtd">
<svg version="1.0" xmlns="http://www.w3.org/2000/svg"
 width="28.000000pt" height="37.000000pt" viewBox="0 0 28.000000 37.000000"
 preserveAspectRatio="xMidYMid meet">
<metadata>
Created by potrace 1.16, written by Peter Selinger 2001-2019
</metadata>
<g transform="translate(0.000000,37.000000) scale(0.100000,-0.100000)"
fill="#000000" stroke="none">
<path d="M166 331 l6 -39 -22 -7 -22 -7 -6 6 -6 7 2 34 3 35 -54 0 -54 0 -7
-31 -6 -31 0 -20 0 -19 18 2 17 1 12 -1 12 -1 6 -19 5 -18 -5 -15 -6 -16 -20
5 -19 5 0 -23 0 -24 -6 -37 -6 -37 33 -3 33 -3 8 -32 8 -31 30 -7 30 -6 20 6
21 7 6 29 6 29 26 0 27 0 12 12 12 12 0 48 0 48 -26 0 -25 0 -15 15 -15 15 6
21 7 20 29 -6 29 -7 0 55 0 55 -22 6 -23 6 -33 0 -32 0 6 -39z"/>
</g>
</svg>
