<?xml version="1.0" standalone="no"?>
<!DOCTYPE svg PUBLIC "-//W3C//DTD SVG 20010904//EN"
 "http://www.w3.org/TR/2001/REC-SVG-20010904/DTD/svg10.dtd">
<svg version="1.0" xmlns="http://www.w3.org/2000/svg"
 width="28.000000pt" height="29.000000pt" viewBox="0 0 28.000000 29.000000"
 preserveAspectRatio="xMidYMid meet">
<metadata>
Created by potrace 1.16, written by Peter Selinger 2001-2019
</metadata>
<g transform="translate(0.000000,29.000000) scale(0.100000,-0.100000)"
fill="#000000" stroke="none">
<path d="M160 268 l2 -23 -1 -16 -1 -17 -20 -5 -20 -5 -7 26 -6 27 -11 7 -11
8 -36 0 -36 0 -7 -31 -6 -31 0 -19 0 -18 29 1 29 1 17 -17 17 -17 -6 -14 -5
-15 -24 0 -23 0 -13 -44 -13 -45 7 -10 6 -11 125 0 124 0 0 28 0 27 6 22 6 23
-27 10 -27 10 -13 13 -13 14 7 11 6 10 28 7 27 7 0 48 0 48 -31 6 -31 6 -25 0
-24 0 1 -22z"/>
</g>
</svg>
