<?xml version="1.0" standalone="no"?>
<!DOCTYPE svg PUBLIC "-//W3C//DTD SVG 20010904//EN"
 "http://www.w3.org/TR/2001/REC-SVG-20010904/DTD/svg10.dtd">
<svg version="1.0" xmlns="http://www.w3.org/2000/svg"
 width="26.000000pt" height="27.000000pt" viewBox="0 0 26.000000 27.000000"
 preserveAspectRatio="xMidYMid meet">
<metadata>
Created by potrace 1.16, written by Peter Selinger 2001-2019
</metadata>
<g transform="translate(0.000000,27.000000) scale(0.100000,-0.100000)"
fill="#000000" stroke="none">
<path d="M164 235 l0 -34 -5 -5 -4 -4 -27 -7 -27 -7 -7 29 -7 28 -11 7 -11 8
-26 0 -26 0 -7 -31 -6 -31 0 -7 0 -6 29 -1 29 -1 16 -16 16 -16 0 -14 0 -15
-6 -16 -6 -16 -22 6 -21 5 -12 -38 -11 -37 4 -8 5 -8 114 0 113 0 4 41 4 41
-24 9 -24 9 -14 15 -15 15 6 19 6 20 29 6 30 7 0 38 0 38 -31 6 -31 6 -12 0
-12 0 0 -35z"/>
</g>
</svg>
