<?xml version="1.0" standalone="no"?>
<!DOCTYPE svg PUBLIC "-//W3C//DTD SVG 20010904//EN"
 "http://www.w3.org/TR/2001/REC-SVG-20010904/DTD/svg10.dtd">
<svg version="1.0" xmlns="http://www.w3.org/2000/svg"
 width="40.000000pt" height="33.000000pt" viewBox="0 0 40.000000 33.000000"
 preserveAspectRatio="xMidYMid meet">
<metadata>
Created by potrace 1.16, written by Peter Selinger 2001-2019
</metadata>
<g transform="translate(0.000000,33.000000) scale(0.100000,-0.100000)"
fill="#000000" stroke="none">
<path d="M180 302 l0 -30 -16 -6 -16 -6 -39 0 -39 0 0 -29 0 -29 -6 -16 -6
-16 -29 0 -29 0 0 -20 0 -20 11 0 10 0 16 -15 15 -16 1 -49 2 -50 38 0 38 0
14 13 13 13 4 20 3 19 20 0 20 0 3 -22 3 -22 17 -5 17 -4 35 -6 35 -6 11 8 11
7 13 39 12 38 19 5 19 5 0 28 0 28 -6 16 -6 16 -29 0 -29 0 0 38 0 37 -45 2
-45 2 -20 3 -21 2 3 25 3 24 -12 4 -13 5 0 -30z"/>
</g>
</svg>
