<?xml version="1.0" standalone="no"?>
<!DOCTYPE svg PUBLIC "-//W3C//DTD SVG 20010904//EN"
 "http://www.w3.org/TR/2001/REC-SVG-20010904/DTD/svg10.dtd">
<svg version="1.0" xmlns="http://www.w3.org/2000/svg"
 width="29.000000pt" height="43.000000pt" viewBox="0 0 29.000000 43.000000"
 preserveAspectRatio="xMidYMid meet">
<metadata>
Created by potrace 1.16, written by Peter Selinger 2001-2019
</metadata>
<g transform="translate(0.000000,43.000000) scale(0.100000,-0.100000)"
fill="#000000" stroke="none">
<path d="M127 423 l-7 -6 0 -28 0 -29 -25 -6 -25 -6 -35 6 -35 7 0 -40 0 -39
6 -16 6 -16 34 0 35 0 6 -16 6 -17 -17 -13 -18 -13 -14 6 -13 5 -16 -15 -15
-16 0 -28 0 -28 8 -12 7 -12 45 -3 45 -3 -3 -32 -4 -33 15 0 15 0 4 -11 4 -12
22 7 21 7 7 35 6 34 22 0 21 0 22 6 22 6 -6 52 -6 51 -11 7 -11 8 -22 0 -23 0
0 25 0 25 31 0 30 0 15 15 15 14 -9 33 -8 33 -30 3 -29 3 -27 11 -28 10 0 24
0 24 -13 0 -14 0 -6 -7z"/>
</g>
</svg>
