<?xml version="1.0" standalone="no"?>
<!DOCTYPE svg PUBLIC "-//W3C//DTD SVG 20010904//EN"
 "http://www.w3.org/TR/2001/REC-SVG-20010904/DTD/svg10.dtd">
<svg version="1.0" xmlns="http://www.w3.org/2000/svg"
 width="31.000000pt" height="42.000000pt" viewBox="0 0 31.000000 42.000000"
 preserveAspectRatio="xMidYMid meet">
<metadata>
Created by potrace 1.16, written by Peter Selinger 2001-2019
</metadata>
<g transform="translate(0.000000,42.000000) scale(0.100000,-0.100000)"
fill="#000000" stroke="none">
<path d="M114 405 l-6 -14 6 -9 6 -10 -32 -13 -32 -13 -4 12 -4 12 -14 0 -14
0 0 -55 0 -55 19 0 20 0 15 -15 15 -16 -6 -17 -7 -17 -10 -7 -11 -8 -27 6 -28
6 0 -24 0 -23 6 -38 7 -37 33 0 34 0 0 -15 0 -15 10 0 10 0 0 -14 0 -14 30 -7
30 -6 19 6 20 6 7 35 6 34 23 0 23 0 16 6 16 6 0 17 0 16 -10 36 -10 37 -20 5
-20 5 6 16 6 16 20 0 19 0 15 15 15 15 -6 45 -7 45 -48 6 -47 6 -18 24 -18 24
-24 0 -24 0 -5 -15z"/>
</g>
</svg>
