<?xml version="1.0" standalone="no"?>
<!DOCTYPE svg PUBLIC "-//W3C//DTD SVG 20010904//EN"
 "http://www.w3.org/TR/2001/REC-SVG-20010904/DTD/svg10.dtd">
<svg version="1.0" xmlns="http://www.w3.org/2000/svg"
 width="31.000000pt" height="45.000000pt" viewBox="0 0 31.000000 45.000000"
 preserveAspectRatio="xMidYMid meet">
<metadata>
Created by potrace 1.16, written by Peter Selinger 2001-2019
</metadata>
<g transform="translate(0.000000,45.000000) scale(0.100000,-0.100000)"
fill="#000000" stroke="none">
<path d="M127 443 l-7 -6 0 -28 0 -27 -17 -6 -16 -7 -44 7 -43 6 0 -53 0 -54
8 -12 7 -11 35 -4 35 -3 -2 -10 -2 -10 -27 -3 -27 -4 -14 -13 -13 -14 0 -34 0
-35 6 -16 6 -16 44 0 44 0 0 -35 0 -35 15 0 15 0 0 -10 0 -10 19 0 19 0 16 6
15 6 7 34 6 34 22 0 21 0 23 6 23 7 -7 61 -7 61 -11 7 -11 8 -22 0 -23 0 0 15
0 15 31 0 30 0 16 16 16 15 -9 42 -9 42 -30 3 -30 3 -27 11 -28 10 0 24 0 24
-23 0 -24 0 -6 -7z"/>
</g>
</svg>
