<?xml version="1.0" standalone="no"?>
<!DOCTYPE svg PUBLIC "-//W3C//DTD SVG 20010904//EN"
 "http://www.w3.org/TR/2001/REC-SVG-20010904/DTD/svg10.dtd">
<svg version="1.0" xmlns="http://www.w3.org/2000/svg"
 width="42.000000pt" height="35.000000pt" viewBox="0 0 42.000000 35.000000"
 preserveAspectRatio="xMidYMid meet">
<metadata>
Created by potrace 1.16, written by Peter Selinger 2001-2019
</metadata>
<g transform="translate(0.000000,35.000000) scale(0.100000,-0.100000)"
fill="#000000" stroke="none">
<path d="M180 322 l0 -30 -16 -6 -16 -6 -39 0 -39 0 0 -29 0 -29 -6 -16 -6
-16 -29 0 -29 0 0 -30 0 -30 11 0 10 0 16 -15 15 -16 0 -49 0 -50 50 0 49 0
14 13 13 13 4 20 3 19 10 -2 10 -2 3 -20 3 -20 17 -5 17 -5 45 -6 45 -6 11 8
11 8 13 39 12 38 19 5 19 5 0 38 0 38 -6 16 -6 16 -29 0 -29 0 0 40 0 41 -32
-6 -33 -6 -30 13 -30 13 0 20 0 20 -22 3 -23 3 0 -29z"/>
</g>
</svg>
