<?xml version="1.0" standalone="no"?>
<!DOCTYPE svg PUBLIC "-//W3C//DTD SVG 20010904//EN"
 "http://www.w3.org/TR/2001/REC-SVG-20010904/DTD/svg10.dtd">
<svg version="1.0" xmlns="http://www.w3.org/2000/svg"
 width="29.000000pt" height="40.000000pt" viewBox="0 0 29.000000 40.000000"
 preserveAspectRatio="xMidYMid meet">
<metadata>
Created by potrace 1.16, written by Peter Selinger 2001-2019
</metadata>
<g transform="translate(0.000000,40.000000) scale(0.100000,-0.100000)"
fill="#000000" stroke="none">
<path d="M119 393 l-1 -8 1 -16 2 -15 -26 -12 -26 -12 -19 0 -18 0 -5 13 -5
12 -1 -47 -1 -48 19 0 20 0 16 -16 16 -17 -6 -26 -7 -26 -11 -8 -12 -8 -29 4
-28 4 6 -36 6 -36 0 -14 0 -14 39 7 39 6 -5 -20 -5 -20 11 0 11 0 0 -14 0 -14
24 -6 24 -6 15 6 15 5 6 25 7 25 -6 9 -6 10 33 0 33 0 13 9 14 8 -12 42 -11
41 -14 0 -14 0 -6 10 -6 10 6 20 6 20 20 0 20 0 14 14 14 14 -6 36 -6 36 -47
6 -47 6 -18 24 -18 24 -13 0 -14 0 -1 -7z"/>
</g>
</svg>
