<?xml version="1.0" standalone="no"?>
<!DOCTYPE svg PUBLIC "-//W3C//DTD SVG 20010904//EN"
 "http://www.w3.org/TR/2001/REC-SVG-20010904/DTD/svg10.dtd">
<svg version="1.0" xmlns="http://www.w3.org/2000/svg"
 width="31.000000pt" height="33.000000pt" viewBox="0 0 31.000000 33.000000"
 preserveAspectRatio="xMidYMid meet">
<metadata>
Created by potrace 1.16, written by Peter Selinger 2001-2019
</metadata>
<g transform="translate(0.000000,33.000000) scale(0.100000,-0.100000)"
fill="#000000" stroke="none">
<path d="M136 315 l6 -16 -23 -20 -23 -20 -41 3 -40 3 -3 -38 -3 -37 15 -16
16 -15 19 6 19 6 6 -17 7 -17 -13 -9 -13 -8 -27 6 -27 5 -7 -25 -6 -26 6 -35
7 -34 34 -7 35 -6 24 6 25 6 3 32 3 33 17 3 18 3 0 -24 0 -24 25 -11 26 -12
38 0 39 0 6 43 7 44 -6 16 -7 16 -41 -2 -41 -2 -4 19 -4 19 40 -7 41 -6 6 20
6 19 -7 36 -6 36 -17 -6 -16 -7 -37 -5 -37 -5 -3 43 -3 44 -22 3 -23 3 6 -16z"/>
</g>
</svg>
