<?xml version="1.0" standalone="no"?>
<!DOCTYPE svg PUBLIC "-//W3C//DTD SVG 20010904//EN"
 "http://www.w3.org/TR/2001/REC-SVG-20010904/DTD/svg10.dtd">
<svg version="1.0" xmlns="http://www.w3.org/2000/svg"
 width="33.000000pt" height="35.000000pt" viewBox="0 0 33.000000 35.000000"
 preserveAspectRatio="xMidYMid meet">
<metadata>
Created by potrace 1.16, written by Peter Selinger 2001-2019
</metadata>
<g transform="translate(0.000000,35.000000) scale(0.100000,-0.100000)"
fill="#000000" stroke="none">
<path d="M132 333 l4 -18 -20 -18 -20 -18 -41 3 -40 3 -3 -48 -3 -47 15 -15
15 -15 21 0 21 0 -5 -8 -5 -9 -30 5 -30 4 -7 -27 -6 -26 5 -40 5 -41 5 -5 5
-5 41 -5 40 -5 25 6 26 6 0 30 0 29 10 6 10 6 0 -24 0 -24 25 -11 26 -12 49 0
49 0 6 54 7 54 -11 20 -11 21 6 15 6 16 -7 46 -7 46 -31 -7 -32 -7 -22 -5 -22
-5 -3 43 -3 44 -33 3 -34 3 4 -18z m133 -183 l6 -10 -15 0 -15 0 -6 10 -6 10
15 0 15 0 6 -10z"/>
</g>
</svg>
