<?xml version="1.0" standalone="no"?>
<!DOCTYPE svg PUBLIC "-//W3C//DTD SVG 20010904//EN"
 "http://www.w3.org/TR/2001/REC-SVG-20010904/DTD/svg10.dtd">
<svg version="1.0" xmlns="http://www.w3.org/2000/svg"
 width="33.000000pt" height="41.000000pt" viewBox="0 0 33.000000 41.000000"
 preserveAspectRatio="xMidYMid meet">
<metadata>
Created by potrace 1.16, written by Peter Selinger 2001-2019
</metadata>
<g transform="translate(0.000000,41.000000) scale(0.100000,-0.100000)"
fill="#000000" stroke="none">
<path d="M170 386 l0 -25 -16 -15 -15 -16 -35 0 -34 0 0 -29 0 -29 -6 -16 -6
-16 -23 0 -24 0 -6 -10 -6 -10 6 -19 6 -19 39 -6 40 -6 0 -18 0 -17 -9 -33
-10 -32 35 0 34 0 0 -29 0 -30 21 -6 20 -7 24 6 23 6 6 25 6 25 35 0 35 0 6
24 5 23 -11 43 -11 42 -20 -5 -19 -5 0 24 0 24 30 0 30 0 6 24 6 24 -4 28 -3
29 -45 3 -45 3 -7 12 -8 12 0 23 0 22 -25 0 -25 0 0 -24z"/>
</g>
</svg>
