<?xml version="1.0" standalone="no"?>
<!DOCTYPE svg PUBLIC "-//W3C//DTD SVG 20010904//EN"
 "http://www.w3.org/TR/2001/REC-SVG-20010904/DTD/svg10.dtd">
<svg version="1.0" xmlns="http://www.w3.org/2000/svg"
 width="35.000000pt" height="43.000000pt" viewBox="0 0 35.000000 43.000000"
 preserveAspectRatio="xMidYMid meet">
<metadata>
Created by potrace 1.16, written by Peter Selinger 2001-2019
</metadata>
<g transform="translate(0.000000,43.000000) scale(0.100000,-0.100000)"
fill="#000000" stroke="none">
<path d="M170 406 l0 -25 -16 -15 -15 -16 -35 0 -34 0 0 -29 0 -29 -6 -16 -6
-16 -24 0 -25 0 -5 -15 -6 -15 6 -24 6 -23 41 -7 41 -7 -7 -27 -6 -27 -6 -22
-5 -23 36 0 36 0 0 -29 0 -29 16 -6 16 -6 26 0 27 0 11 8 11 7 7 23 7 22 34 0
33 0 6 16 6 16 0 21 0 22 -11 38 -10 37 -19 0 -20 0 0 10 0 10 30 0 30 0 6 23
5 24 -3 39 -3 39 -45 3 -45 3 -7 12 -8 12 0 23 0 22 -35 0 -35 0 0 -24z"/>
</g>
</svg>
