<?xml version="1.0" standalone="no"?>
<!DOCTYPE svg PUBLIC "-//W3C//DTD SVG 20010904//EN"
 "http://www.w3.org/TR/2001/REC-SVG-20010904/DTD/svg10.dtd">
<svg version="1.0" xmlns="http://www.w3.org/2000/svg"
 width="33.000000pt" height="28.000000pt" viewBox="0 0 33.000000 28.000000"
 preserveAspectRatio="xMidYMid meet">
<metadata>
Created by potrace 1.16, written by Peter Selinger 2001-2019
</metadata>
<g transform="translate(0.000000,28.000000) scale(0.100000,-0.100000)"
fill="#000000" stroke="none">
<path d="M173 258 l-2 -23 -11 -3 -10 -4 0 -14 0 -14 -31 0 -31 0 4 33 3 32
-30 3 -30 2 -12 -8 -13 -8 -6 -34 -7 -33 12 7 12 8 29 -12 29 -12 5 -15 6 -15
-6 -24 -6 -24 -23 0 -22 0 -7 -31 -6 -32 0 -18 0 -19 20 0 19 0 26 12 26 12
-3 20 -3 21 23 3 22 3 0 -11 0 -11 13 -13 12 -13 43 -6 42 -7 0 34 0 35 16 15
15 16 20 0 19 0 0 25 0 25 -26 0 -25 0 -15 14 -14 15 0 39 0 40 -22 6 -23 6
-15 0 -16 0 -1 -22z"/>
</g>
</svg>
