<?xml version="1.0" standalone="no"?>
<!DOCTYPE svg PUBLIC "-//W3C//DTD SVG 20010904//EN"
 "http://www.w3.org/TR/2001/REC-SVG-20010904/DTD/svg10.dtd">
<svg version="1.0" xmlns="http://www.w3.org/2000/svg"
 width="35.000000pt" height="30.000000pt" viewBox="0 0 35.000000 30.000000"
 preserveAspectRatio="xMidYMid meet">
<metadata>
Created by potrace 1.16, written by Peter Selinger 2001-2019
</metadata>
<g transform="translate(0.000000,30.000000) scale(0.100000,-0.100000)"
fill="#000000" stroke="none">
<path d="M170 275 l0 -25 -10 0 -10 0 0 -15 0 -15 -20 0 -20 0 2 33 3 32 -40
3 -40 2 -13 -8 -14 -9 -5 -42 -6 -43 19 2 19 2 12 -1 12 -1 14 -15 15 -15 -5
-20 -5 -20 -23 0 -22 0 -7 -31 -6 -32 0 -28 0 -29 30 0 29 0 26 12 25 11 0 24
0 23 10 0 10 0 0 -11 0 -10 13 -14 13 -13 52 -7 52 -7 0 35 0 36 16 15 15 16
20 0 19 0 0 35 0 35 -26 0 -25 0 -15 14 -14 15 0 39 0 40 -22 6 -23 6 -27 0
-28 0 0 -25z"/>
</g>
</svg>
