<?xml version="1.0" standalone="no"?>
<!DOCTYPE svg PUBLIC "-//W3C//DTD SVG 20010904//EN"
 "http://www.w3.org/TR/2001/REC-SVG-20010904/DTD/svg10.dtd">
<svg version="1.0" xmlns="http://www.w3.org/2000/svg"
 width="28.000000pt" height="28.000000pt" viewBox="0 0 28.000000 28.000000"
 preserveAspectRatio="xMidYMid meet">
<metadata>
Created by potrace 1.16, written by Peter Selinger 2001-2019
</metadata>
<g transform="translate(0.000000,28.000000) scale(0.100000,-0.100000)"
fill="#000000" stroke="none">
<path d="M6 258 l-6 -23 0 -20 0 -21 35 -13 35 -12 0 -24 0 -23 -30 -7 -30 -7
0 -55 0 -55 63 6 62 6 20 0 20 0 51 -6 50 -6 0 59 -1 58 -25 4 -25 3 -7 12 -8
11 0 12 0 11 30 7 30 7 0 44 0 44 -22 0 -23 0 -22 -6 -23 -6 0 -18 0 -18 -24
-6 -24 -6 -16 6 -16 6 0 29 0 29 -44 0 -44 0 -6 -22z"/>
</g>
</svg>
