<?xml version="1.0" standalone="no"?>
<!DOCTYPE svg PUBLIC "-//W3C//DTD SVG 20010904//EN"
 "http://www.w3.org/TR/2001/REC-SVG-20010904/DTD/svg10.dtd">
<svg version="1.0" xmlns="http://www.w3.org/2000/svg"
 width="26.000000pt" height="26.000000pt" viewBox="0 0 26.000000 26.000000"
 preserveAspectRatio="xMidYMid meet">
<metadata>
Created by potrace 1.16, written by Peter Selinger 2001-2019
</metadata>
<g transform="translate(0.000000,26.000000) scale(0.100000,-0.100000)"
fill="#000000" stroke="none">
<path d="M6 238 l-6 -23 0 -10 0 -11 35 -13 35 -12 0 -34 0 -33 -30 -7 -30 -7
0 -44 0 -44 39 0 39 0 16 6 16 6 0 30 0 30 12 -5 13 -4 -3 -19 -3 -20 34 -12
33 -12 25 0 24 0 0 48 -1 47 -24 4 -25 3 -7 12 -8 11 0 22 0 21 30 7 30 7 0
34 0 34 -12 0 -13 0 -22 -6 -23 -6 0 -18 0 -18 -30 -7 -30 -6 -20 6 -20 6 0
30 0 29 -34 0 -34 0 -6 -22z"/>
</g>
</svg>
