<?xml version="1.0" standalone="no"?>
<!DOCTYPE svg PUBLIC "-//W3C//DTD SVG 20010904//EN"
 "http://www.w3.org/TR/2001/REC-SVG-20010904/DTD/svg10.dtd">
<svg version="1.0" xmlns="http://www.w3.org/2000/svg"
 width="46.000000pt" height="38.000000pt" viewBox="0 0 46.000000 38.000000"
 preserveAspectRatio="xMidYMid meet">
<metadata>
Created by potrace 1.16, written by Peter Selinger 2001-2019
</metadata>
<g transform="translate(0.000000,38.000000) scale(0.100000,-0.100000)"
fill="#000000" stroke="none">
<path d="M340 370 l0 -10 -30 0 -30 0 0 -26 0 -25 -15 -15 -15 -15 -18 5 -19
6 5 30 4 30 -13 4 -14 4 -52 7 -53 6 0 -46 0 -45 -31 0 -30 0 -15 -14 -14 -15
0 -14 0 -15 6 -16 6 -16 14 0 14 0 0 -11 0 -11 25 4 25 5 0 -36 0 -36 8 -12 7
-12 40 -3 40 -3 3 -30 4 -30 11 -7 12 -8 28 0 28 0 15 14 14 15 0 25 0 26 38
0 37 0 11 8 12 7 7 43 7 42 10 0 9 0 15 14 14 15 0 20 0 20 -16 15 -15 16 -20
0 -19 0 0 44 0 44 -16 6 -16 6 -9 0 -9 0 0 -10z"/>
</g>
</svg>
