<?xml version="1.0" standalone="no"?>
<!DOCTYPE svg PUBLIC "-//W3C//DTD SVG 20010904//EN"
 "http://www.w3.org/TR/2001/REC-SVG-20010904/DTD/svg10.dtd">
<svg version="1.0" xmlns="http://www.w3.org/2000/svg"
 width="47.000000pt" height="29.000000pt" viewBox="0 0 47.000000 29.000000"
 preserveAspectRatio="xMidYMid meet">
<metadata>
Created by potrace 1.16, written by Peter Selinger 2001-2019
</metadata>
<g transform="translate(0.000000,29.000000) scale(0.100000,-0.100000)"
fill="#000000" stroke="none">
<path d="M59 283 l-47 -4 -6 -31 -6 -30 7 -10 6 -11 1 -36 1 -35 38 -9 37 -9
1 -31 1 -32 -2 -22 -1 -23 49 0 50 0 16 6 16 6 0 40 0 39 17 -3 17 -3 8 -32 8
-32 34 -7 34 -6 24 7 23 8 7 11 8 11 0 33 0 32 30 0 30 0 6 24 6 25 -7 20 -6
21 -34 0 -33 0 -6 15 -5 15 6 30 6 30 -17 0 -17 0 -50 -16 -49 -16 0 -13 0
-13 -18 -4 -18 -5 -12 13 -12 13 0 21 0 20 -47 -2 -48 -2 -46 -3z"/>
</g>
</svg>
