<?xml version="1.0" standalone="no"?>
<!DOCTYPE svg PUBLIC "-//W3C//DTD SVG 20010904//EN"
 "http://www.w3.org/TR/2001/REC-SVG-20010904/DTD/svg10.dtd">
<svg version="1.0" xmlns="http://www.w3.org/2000/svg"
 width="45.000000pt" height="27.000000pt" viewBox="0 0 45.000000 27.000000"
 preserveAspectRatio="xMidYMid meet">
<metadata>
Created by potrace 1.16, written by Peter Selinger 2001-2019
</metadata>
<g transform="translate(0.000000,27.000000) scale(0.100000,-0.100000)"
fill="#000000" stroke="none">
<path d="M98 223 l-3 -48 -40 -5 -40 -5 0 -20 0 -19 38 -9 37 -9 2 -31 2 -32
-2 -23 -1 -22 39 0 38 0 16 6 16 6 0 40 0 39 27 -3 27 -3 8 -31 8 -32 26 -6
26 -7 21 7 22 7 7 11 8 11 0 33 0 32 29 0 30 0 6 19 5 18 -6 18 -7 17 -29 -4
-29 -5 -11 20 -10 19 6 29 5 29 -5 0 -5 0 -50 -16 -49 -16 0 -13 0 -13 -25 -6
-26 -7 -14 15 -15 15 0 20 0 21 -39 0 -40 0 -3 -47z M8 237 l-4 -23 4 -12 4
-12 34 0 34 0 0 35 0 35 -34 0 -34 0 -4 -23z"/>
</g>
</svg>
