<?xml version="1.0" standalone="no"?>
<!DOCTYPE svg PUBLIC "-//W3C//DTD SVG 20010904//EN"
 "http://www.w3.org/TR/2001/REC-SVG-20010904/DTD/svg10.dtd">
<svg version="1.0" xmlns="http://www.w3.org/2000/svg"
 width="44.000000pt" height="36.000000pt" viewBox="0 0 44.000000 36.000000"
 preserveAspectRatio="xMidYMid meet">
<metadata>
Created by potrace 1.16, written by Peter Selinger 2001-2019
</metadata>
<g transform="translate(0.000000,36.000000) scale(0.100000,-0.100000)"
fill="#000000" stroke="none">
<path d="M90 304 l0 -44 -31 0 -30 0 -15 -15 -15 -15 6 -20 6 -20 15 0 14 0 0
-10 0 -10 25 6 25 6 0 -38 0 -39 8 -12 7 -12 40 -3 40 -3 3 -30 4 -30 11 -7
12 -8 18 0 18 0 16 15 15 16 -5 24 -4 25 41 0 41 0 11 8 12 7 7 43 7 42 10 0
9 0 15 15 15 15 -6 19 -6 20 -19 6 -20 6 -10 -6 -10 -6 0 51 0 52 -16 -6 -16
-6 -29 0 -29 0 0 -26 0 -25 -14 -15 -15 -14 -18 0 -18 0 -13 9 -13 8 6 26 7
27 -13 4 -14 4 -42 5 -43 5 0 -44z"/>
</g>
</svg>
