<?xml version="1.0" standalone="no"?>
<!DOCTYPE svg PUBLIC "-//W3C//DTD SVG 20010904//EN"
 "http://www.w3.org/TR/2001/REC-SVG-20010904/DTD/svg10.dtd">
<svg version="1.0" xmlns="http://www.w3.org/2000/svg"
 width="39.000000pt" height="35.000000pt" viewBox="0 0 39.000000 35.000000"
 preserveAspectRatio="xMidYMid meet">
<metadata>
Created by potrace 1.16, written by Peter Selinger 2001-2019
</metadata>
<g transform="translate(0.000000,35.000000) scale(0.100000,-0.100000)"
fill="#000000" stroke="none">
<path d="M84 338 l-5 -8 6 -30 6 -30 -6 -20 -6 -20 -41 6 -40 7 4 -19 4 -19
39 1 40 2 8 -12 7 -11 -6 -52 -6 -53 36 0 36 0 0 -24 0 -25 16 -15 15 -16 15
0 14 0 0 10 0 10 15 0 15 0 0 30 0 30 35 0 35 0 0 50 0 49 33 9 32 8 3 22 3
22 -30 -6 -30 -6 -7 26 -6 27 5 28 6 28 -43 -10 -43 -10 4 -17 5 -17 -17 -7
-17 -6 -24 6 -24 6 0 28 0 28 -41 4 -40 4 -5 -8z"/>
</g>
</svg>
