<?xml version="1.0" standalone="no"?>
<!DOCTYPE svg PUBLIC "-//W3C//DTD SVG 20010904//EN"
 "http://www.w3.org/TR/2001/REC-SVG-20010904/DTD/svg10.dtd">
<svg version="1.0" xmlns="http://www.w3.org/2000/svg"
 width="35.000000pt" height="34.000000pt" viewBox="0 0 35.000000 34.000000"
 preserveAspectRatio="xMidYMid meet">
<metadata>
Created by potrace 1.16, written by Peter Selinger 2001-2019
</metadata>
<g transform="translate(0.000000,34.000000) scale(0.100000,-0.100000)"
fill="#000000" stroke="none">
<path d="M288 333 l-38 -4 0 -30 0 -29 -15 0 -15 0 0 -10 0 -10 -14 0 -15 0
-15 16 -16 15 0 25 0 24 -41 0 -41 0 6 -31 6 -31 -14 -14 -15 -14 -30 0 -31 0
0 -25 0 -25 19 0 19 0 16 -6 16 -6 0 -32 0 -31 6 -23 6 -22 39 0 39 0 0 -21 0
-20 15 -15 14 -15 26 7 25 6 0 14 0 13 38 11 37 10 13 9 13 8 -16 51 -17 51
-19 6 -19 6 0 14 0 13 35 6 35 7 6 23 6 24 -4 28 -3 27 -10 2 -10 1 -37 -3z"/>
</g>
</svg>
