<?xml version="1.0" standalone="no"?>
<!DOCTYPE svg PUBLIC "-//W3C//DTD SVG 20010904//EN"
 "http://www.w3.org/TR/2001/REC-SVG-20010904/DTD/svg10.dtd">
<svg version="1.0" xmlns="http://www.w3.org/2000/svg"
 width="29.000000pt" height="34.000000pt" viewBox="0 0 29.000000 34.000000"
 preserveAspectRatio="xMidYMid meet">
<metadata>
Created by potrace 1.16, written by Peter Selinger 2001-2019
</metadata>
<g transform="translate(0.000000,34.000000) scale(0.100000,-0.100000)"
fill="#000000" stroke="none">
<path d="M27 333 l-7 -6 0 -44 0 -43 24 0 24 0 16 -6 16 -6 0 -14 0 -13 -26
-26 -26 -27 -25 7 -24 6 7 -38 6 -38 7 -7 6 -7 40 -3 40 -3 12 -25 13 -25 3
-9 3 -9 22 7 22 7 0 28 0 28 41 6 41 5 5 5 5 6 -7 40 -7 41 -13 0 -14 0 -15
16 -16 15 0 15 0 14 31 0 30 0 15 14 14 15 0 40 0 41 -128 0 -129 0 -6 -7z"/>
</g>
</svg>
