<?xml version="1.0" standalone="no"?>
<!DOCTYPE svg PUBLIC "-//W3C//DTD SVG 20010904//EN"
 "http://www.w3.org/TR/2001/REC-SVG-20010904/DTD/svg10.dtd">
<svg version="1.0" xmlns="http://www.w3.org/2000/svg"
 width="36.000000pt" height="30.000000pt" viewBox="0 0 36.000000 30.000000"
 preserveAspectRatio="xMidYMid meet">
<metadata>
Created by potrace 1.16, written by Peter Selinger 2001-2019
</metadata>
<g transform="translate(0.000000,30.000000) scale(0.100000,-0.100000)"
fill="#000000" stroke="none">
<path d="M97 286 l-7 -18 0 -34 0 -34 -25 -6 -25 -6 -14 5 -14 6 -5 -18 -4
-18 8 -15 9 -16 36 -6 36 -7 -4 -49 -3 -49 20 -5 20 -6 21 0 22 0 6 16 6 16 0
23 0 24 10 6 10 6 20 -6 20 -6 0 -39 0 -38 16 -6 16 -6 39 11 39 12 0 16 0 16
-11 38 -10 37 -13 0 -14 0 -6 16 -6 16 0 13 0 13 36 6 35 7 -3 41 -3 42 -47 2
-48 1 6 -21 5 -22 -20 -23 -20 -23 -20 7 -21 6 0 29 0 28 -16 6 -16 6 -23 0
-23 0 -4 12 -4 12 -7 -18z"/>
</g>
</svg>
