<?xml version="1.0" standalone="no"?>
<!DOCTYPE svg PUBLIC "-//W3C//DTD SVG 20010904//EN"
 "http://www.w3.org/TR/2001/REC-SVG-20010904/DTD/svg10.dtd">
<svg version="1.0" xmlns="http://www.w3.org/2000/svg"
 width="31.000000pt" height="36.000000pt" viewBox="0 0 31.000000 36.000000"
 preserveAspectRatio="xMidYMid meet">
<metadata>
Created by potrace 1.16, written by Peter Selinger 2001-2019
</metadata>
<g transform="translate(0.000000,36.000000) scale(0.100000,-0.100000)"
fill="#000000" stroke="none">
<path d="M27 353 l-7 -6 0 -54 0 -53 28 0 27 0 13 -9 14 -8 -25 -25 -25 -26
-26 5 -26 5 1 -23 1 -24 7 -30 6 -30 45 -5 45 -5 14 -32 15 -33 17 0 17 0 16
6 16 6 0 29 0 29 23 0 22 0 23 6 22 6 0 23 0 22 -6 31 -6 30 -23 6 -23 6 -6
15 -5 15 30 0 30 0 15 14 14 15 0 50 0 51 -138 0 -139 0 -6 -7z"/>
</g>
</svg>
