<?xml version="1.0" standalone="no"?>
<!DOCTYPE svg PUBLIC "-//W3C//DTD SVG 20010904//EN"
 "http://www.w3.org/TR/2001/REC-SVG-20010904/DTD/svg10.dtd">
<svg version="1.0" xmlns="http://www.w3.org/2000/svg"
 width="35.000000pt" height="37.000000pt" viewBox="0 0 35.000000 37.000000"
 preserveAspectRatio="xMidYMid meet">
<metadata>
Created by potrace 1.16, written by Peter Selinger 2001-2019
</metadata>
<g transform="translate(0.000000,37.000000) scale(0.100000,-0.100000)"
fill="#000000" stroke="none">
<path d="M70 321 l0 -49 -5 -14 -6 -14 -29 4 -30 4 0 -30 0 -31 20 -6 20 -6 7
-27 7 -27 -2 -20 -1 -19 12 -8 12 -8 41 0 41 0 -5 -26 -5 -26 14 -9 14 -9 28
0 28 0 15 14 14 15 0 14 0 15 44 6 44 7 1 66 1 65 -20 -5 -20 -5 0 9 0 9 -15
0 -15 0 0 14 0 14 29 7 29 6 5 57 4 57 -1 1 -1 1 -57 -4 -58 -5 0 -29 0 -28
-16 -16 -17 -16 -8 13 -9 13 0 28 0 27 -40 0 -40 0 0 10 0 10 -15 0 -15 0 0
-49z"/>
</g>
</svg>
