<?xml version="1.0" standalone="no"?>
<!DOCTYPE svg PUBLIC "-//W3C//DTD SVG 20010904//EN"
 "http://www.w3.org/TR/2001/REC-SVG-20010904/DTD/svg10.dtd">
<svg version="1.0" xmlns="http://www.w3.org/2000/svg"
 width="33.000000pt" height="35.000000pt" viewBox="0 0 33.000000 35.000000"
 preserveAspectRatio="xMidYMid meet">
<metadata>
Created by potrace 1.16, written by Peter Selinger 2001-2019
</metadata>
<g transform="translate(0.000000,35.000000) scale(0.100000,-0.100000)"
fill="#000000" stroke="none">
<path d="M230 311 l0 -30 -16 -15 -15 -16 -14 0 -13 0 -6 16 -6 16 0 24 0 24
-45 0 -45 0 0 -42 0 -43 -9 -13 -8 -13 -26 7 -27 6 0 -20 0 -21 20 -6 20 -6
10 -40 11 -39 -5 -9 -6 -9 16 -6 16 -6 40 0 40 0 -6 -27 -7 -26 13 -8 13 -9
18 0 18 0 15 14 14 15 0 14 0 15 43 6 42 6 2 54 3 54 -20 -5 -20 -5 0 11 0 11
-15 0 -15 0 0 24 0 24 30 7 30 7 0 44 0 44 -45 0 -45 0 0 -29z"/>
</g>
</svg>
