<?xml version="1.0" standalone="no"?>
<!DOCTYPE svg PUBLIC "-//W3C//DTD SVG 20010904//EN"
 "http://www.w3.org/TR/2001/REC-SVG-20010904/DTD/svg10.dtd">
<svg version="1.0" xmlns="http://www.w3.org/2000/svg"
 width="32.000000pt" height="35.000000pt" viewBox="0 0 32.000000 35.000000"
 preserveAspectRatio="xMidYMid meet">
<metadata>
Created by potrace 1.16, written by Peter Selinger 2001-2019
</metadata>
<g transform="translate(0.000000,35.000000) scale(0.100000,-0.100000)"
fill="#000000" stroke="none">
<path d="M0 308 l0 -38 29 0 29 0 6 -16 6 -16 0 -29 0 -29 -16 0 -15 0 -14
-34 -15 -35 6 -15 6 -16 23 0 23 0 16 -6 16 -6 0 -28 0 -29 21 -6 20 -7 20 23
20 23 -6 24 -6 23 36 -7 35 -6 0 48 0 49 9 13 8 13 25 -6 25 -6 6 20 5 21 -18
0 -18 0 -16 6 -16 6 -6 47 -6 46 -38 -3 -39 -4 -6 -28 -6 -28 -25 -6 -25 -7
-16 16 -15 16 4 23 5 24 -39 4 -38 4 0 -38z"/>
</g>
</svg>
