<?xml version="1.0" standalone="no"?>
<!DOCTYPE svg PUBLIC "-//W3C//DTD SVG 20010904//EN"
 "http://www.w3.org/TR/2001/REC-SVG-20010904/DTD/svg10.dtd">
<svg version="1.0" xmlns="http://www.w3.org/2000/svg"
 width="34.000000pt" height="37.000000pt" viewBox="0 0 34.000000 37.000000"
 preserveAspectRatio="xMidYMid meet">
<metadata>
Created by potrace 1.16, written by Peter Selinger 2001-2019
</metadata>
<g transform="translate(0.000000,37.000000) scale(0.100000,-0.100000)"
fill="#000000" stroke="none">
<path d="M0 321 l0 -51 29 0 29 0 6 -16 6 -16 0 -19 0 -19 -16 0 -15 0 -15
-36 -15 -37 5 -23 6 -24 24 0 24 0 16 -6 16 -6 0 -28 0 -28 16 -6 16 -6 15 0
16 0 18 22 19 21 0 19 0 18 30 0 30 0 0 44 0 44 5 14 6 14 29 -4 30 -4 0 8 0
9 6 23 6 22 -20 0 -20 0 -16 6 -16 6 -6 50 -7 50 -21 -6 -21 -6 -27 0 -26 0
-7 -29 -6 -29 -17 -4 -18 -5 -12 13 -12 14 6 25 6 25 -28 0 -29 0 -22 6 -23 6
0 -51z"/>
</g>
</svg>
