<?xml version="1.0" standalone="no"?>
<!DOCTYPE svg PUBLIC "-//W3C//DTD SVG 20010904//EN"
 "http://www.w3.org/TR/2001/REC-SVG-20010904/DTD/svg10.dtd">
<svg version="1.0" xmlns="http://www.w3.org/2000/svg"
 width="41.000000pt" height="37.000000pt" viewBox="0 0 41.000000 37.000000"
 preserveAspectRatio="xMidYMid meet">
<metadata>
Created by potrace 1.16, written by Peter Selinger 2001-2019
</metadata>
<g transform="translate(0.000000,37.000000) scale(0.100000,-0.100000)"
fill="#000000" stroke="none">
<path d="M60 356 l0 -16 9 0 9 0 5 -30 6 -30 -4 -13 -5 -12 -41 3 -41 4 4 -28
3 -29 40 0 40 0 7 -9 6 -9 -5 -54 -6 -53 37 0 36 0 0 -24 0 -25 16 -15 15 -16
25 0 24 0 0 10 0 10 15 0 15 0 0 30 0 30 35 0 35 0 0 50 0 49 33 9 32 8 3 33
3 34 -30 -6 -30 -6 -6 19 -6 19 7 37 7 37 -28 -7 -27 -7 -30 -6 -30 -6 5 -18
5 -18 -12 -4 -11 -4 -17 5 -18 4 0 29 0 29 -19 0 -18 0 -47 6 -46 7 0 -17z"/>
</g>
</svg>
