<?xml version="1.0" standalone="no"?>
<!DOCTYPE svg PUBLIC "-//W3C//DTD SVG 20010904//EN"
 "http://www.w3.org/TR/2001/REC-SVG-20010904/DTD/svg10.dtd">
<svg version="1.0" xmlns="http://www.w3.org/2000/svg"
 width="37.000000pt" height="36.000000pt" viewBox="0 0 37.000000 36.000000"
 preserveAspectRatio="xMidYMid meet">
<metadata>
Created by potrace 1.16, written by Peter Selinger 2001-2019
</metadata>
<g transform="translate(0.000000,36.000000) scale(0.100000,-0.100000)"
fill="#000000" stroke="none">
<path d="M70 354 l0 -9 9 -30 8 -30 -13 -13 -13 -12 -31 0 -30 0 0 -35 0 -35
19 0 19 0 16 -6 16 -6 0 -32 0 -31 6 -22 6 -23 39 0 39 0 0 -21 0 -20 15 -16
16 -15 34 6 35 7 0 14 0 14 23 6 22 6 28 11 27 10 0 15 0 14 -16 49 -16 49
-22 7 -21 7 35 10 35 9 7 11 8 12 0 47 0 47 -9 5 -8 5 -52 -6 -51 -6 0 -28 0
-29 -14 0 -14 0 -4 -11 -4 -12 -17 17 -17 17 0 25 0 24 -32 0 -33 0 -22 6 -23
6 0 -8z"/>
</g>
</svg>
