<?xml version="1.0" standalone="no"?>
<!DOCTYPE svg PUBLIC "-//W3C//DTD SVG 20010904//EN"
 "http://www.w3.org/TR/2001/REC-SVG-20010904/DTD/svg10.dtd">
<svg version="1.0" xmlns="http://www.w3.org/2000/svg"
 width="38.000000pt" height="32.000000pt" viewBox="0 0 38.000000 32.000000"
 preserveAspectRatio="xMidYMid meet">
<metadata>
Created by potrace 1.16, written by Peter Selinger 2001-2019
</metadata>
<g transform="translate(0.000000,32.000000) scale(0.100000,-0.100000)"
fill="#000000" stroke="none">
<path d="M96 304 l-6 -16 0 -33 0 -33 -16 -6 -16 -6 -23 6 -22 6 -7 -26 -6
-26 9 -19 10 -19 37 -7 37 -6 -6 -49 -6 -48 22 -6 22 -6 31 0 32 0 6 16 6 16
0 22 0 23 6 6 6 6 14 -6 14 -5 0 -38 0 -39 21 -6 21 -7 44 12 44 13 0 26 0 26
-11 38 -10 37 -13 0 -14 0 -6 16 -6 16 0 3 0 3 36 6 35 7 -3 52 -3 52 -59 2
-58 2 5 -24 4 -25 -16 -18 -16 -19 -12 4 -13 5 0 28 0 28 -16 6 -16 6 -24 0
-24 0 0 10 0 10 -14 0 -14 0 -6 -16z"/>
</g>
</svg>
