<?xml version="1.0" standalone="no"?>
<!DOCTYPE svg PUBLIC "-//W3C//DTD SVG 20010904//EN"
 "http://www.w3.org/TR/2001/REC-SVG-20010904/DTD/svg10.dtd">
<svg version="1.0" xmlns="http://www.w3.org/2000/svg"
 width="36.000000pt" height="35.000000pt" viewBox="0 0 36.000000 35.000000"
 preserveAspectRatio="xMidYMid meet">
<metadata>
Created by potrace 1.16, written by Peter Selinger 2001-2019
</metadata>
<g transform="translate(0.000000,35.000000) scale(0.100000,-0.100000)"
fill="#000000" stroke="none">
<path d="M160 325 l0 -24 -20 -11 -20 -10 -26 6 -26 7 3 -40 4 -40 -12 -12
-12 -11 -20 0 -19 0 -6 -16 -6 -16 0 -20 0 -20 20 -5 20 -5 7 -27 7 -26 -2
-20 -1 -19 12 -8 12 -8 48 0 48 0 15 14 14 15 0 25 0 26 10 0 10 0 0 -19 0
-19 6 -16 6 -16 37 0 36 0 23 6 22 6 0 43 0 44 -16 15 -15 16 -15 0 -14 0 0
15 0 15 35 0 35 0 0 60 0 60 -15 0 -15 0 0 11 0 10 -17 -2 -18 -1 -22 1 -22 1
-6 20 -6 20 -40 0 -39 0 0 -25z"/>
</g>
</svg>
