<?xml version="1.0" standalone="no"?>
<!DOCTYPE svg PUBLIC "-//W3C//DTD SVG 20010904//EN"
 "http://www.w3.org/TR/2001/REC-SVG-20010904/DTD/svg10.dtd">
<svg version="1.0" xmlns="http://www.w3.org/2000/svg"
 width="34.000000pt" height="41.000000pt" viewBox="0 0 34.000000 41.000000"
 preserveAspectRatio="xMidYMid meet">
<metadata>
Created by potrace 1.16, written by Peter Selinger 2001-2019
</metadata>
<g transform="translate(0.000000,41.000000) scale(0.100000,-0.100000)"
fill="#000000" stroke="none">
<path d="M95 390 l6 -20 -15 -15 -15 -15 -35 0 -36 0 0 -40 0 -39 31 6 31 6 9
-14 9 -14 0 -32 0 -33 -24 -6 -23 -6 -12 -24 -11 -25 0 -19 0 -20 40 0 40 0 0
-24 0 -24 6 -16 6 -16 13 0 14 0 15 16 16 15 0 30 0 29 43 0 42 0 11 8 11 7
12 38 13 37 9 0 10 0 15 14 14 15 0 14 0 15 -6 16 -6 15 -29 -6 -29 -5 -1 28
-1 29 2 24 2 24 -23 -6 -22 -6 -29 6 -28 6 -6 23 -6 24 -35 0 -34 0 6 -20z"/>
</g>
</svg>
