<?xml version="1.0" standalone="no"?>
<!DOCTYPE svg PUBLIC "-//W3C//DTD SVG 20010904//EN"
 "http://www.w3.org/TR/2001/REC-SVG-20010904/DTD/svg10.dtd">
<svg version="1.0" xmlns="http://www.w3.org/2000/svg"
 width="34.000000pt" height="33.000000pt" viewBox="0 0 34.000000 33.000000"
 preserveAspectRatio="xMidYMid meet">
<metadata>
Created by potrace 1.16, written by Peter Selinger 2001-2019
</metadata>
<g transform="translate(0.000000,33.000000) scale(0.100000,-0.100000)"
fill="#000000" stroke="none">
<path d="M165 311 l6 -20 -26 -17 -25 -16 -26 5 -26 5 5 -35 6 -35 -14 -14
-14 -14 -20 0 -20 0 -6 -20 -6 -20 6 -10 6 -10 14 0 14 0 11 -40 11 -40 -5 -9
-6 -9 16 -6 16 -6 35 0 34 0 15 14 14 15 0 25 0 26 20 0 20 0 0 -19 0 -19 6
-16 6 -16 27 0 26 0 23 6 22 6 0 33 0 34 -16 15 -15 16 -15 0 -14 0 0 25 0 25
35 0 35 0 0 50 0 50 -15 0 -15 0 0 11 0 10 -9 -5 -9 -6 -31 6 -30 6 -6 19 -6
19 -30 0 -30 0 6 -19z"/>
</g>
</svg>
