<?xml version="1.0" standalone="no"?>
<!DOCTYPE svg PUBLIC "-//W3C//DTD SVG 20010904//EN"
 "http://www.w3.org/TR/2001/REC-SVG-20010904/DTD/svg10.dtd">
<svg version="1.0" xmlns="http://www.w3.org/2000/svg"
 width="36.000000pt" height="43.000000pt" viewBox="0 0 36.000000 43.000000"
 preserveAspectRatio="xMidYMid meet">
<metadata>
Created by potrace 1.16, written by Peter Selinger 2001-2019
</metadata>
<g transform="translate(0.000000,43.000000) scale(0.100000,-0.100000)"
fill="#000000" stroke="none">
<path d="M92 407 l4 -23 -12 -12 -13 -12 -36 0 -35 0 0 -51 0 -51 34 6 34 6 6
-16 6 -16 0 -19 0 -19 -24 -6 -23 -6 -12 -24 -11 -25 0 -29 0 -30 40 0 40 0 0
-24 0 -24 6 -16 6 -16 23 0 24 0 15 16 16 15 0 30 0 29 43 0 42 0 11 8 11 7
12 37 13 38 9 0 10 0 15 14 14 15 0 28 0 28 -9 14 -9 14 -26 -7 -26 -6 0 51 0
51 -27 -2 -28 -2 -22 1 -23 1 -6 25 -6 25 -45 0 -45 0 4 -23z"/>
</g>
</svg>
