<?xml version="1.0" standalone="no"?>
<!DOCTYPE svg PUBLIC "-//W3C//DTD SVG 20010904//EN"
 "http://www.w3.org/TR/2001/REC-SVG-20010904/DTD/svg10.dtd">
<svg version="1.0" xmlns="http://www.w3.org/2000/svg"
 width="44.000000pt" height="42.000000pt" viewBox="0 0 44.000000 42.000000"
 preserveAspectRatio="xMidYMid meet">
<metadata>
Created by potrace 1.16, written by Peter Selinger 2001-2019
</metadata>
<g transform="translate(0.000000,42.000000) scale(0.100000,-0.100000)"
fill="#000000" stroke="none">
<path d="M170 397 l0 -25 -14 -5 -14 -5 -41 5 -41 6 0 -46 0 -45 -30 -7 -30
-7 0 -28 0 -28 6 -16 6 -16 24 0 24 0 0 -44 0 -44 23 -6 22 -6 23 0 22 0 0
-26 0 -25 15 -16 16 -15 34 6 34 7 6 29 7 30 33 0 34 0 15 15 15 15 10 0 11 0
0 20 0 19 12 26 11 25 13 0 12 0 6 16 6 16 0 15 0 14 -13 14 -14 13 -24 4 -24
3 -3 33 -3 33 -47 -1 -47 -2 -10 1 -10 1 0 33 0 32 -37 3 -38 3 0 -24z"/>
</g>
</svg>
