<?xml version="1.0" standalone="no"?>
<!DOCTYPE svg PUBLIC "-//W3C//DTD SVG 20010904//EN"
 "http://www.w3.org/TR/2001/REC-SVG-20010904/DTD/svg10.dtd">
<svg version="1.0" xmlns="http://www.w3.org/2000/svg"
 width="42.000000pt" height="40.000000pt" viewBox="0 0 42.000000 40.000000"
 preserveAspectRatio="xMidYMid meet">
<metadata>
Created by potrace 1.16, written by Peter Selinger 2001-2019
</metadata>
<g transform="translate(0.000000,40.000000) scale(0.100000,-0.100000)"
fill="#000000" stroke="none">
<path d="M170 376 l0 -25 -20 -6 -19 -6 -36 7 -35 6 0 -45 0 -45 -30 -7 -30
-7 0 -21 0 -22 8 -11 7 -12 25 -3 25 -4 -3 -41 -3 -41 23 -7 23 -6 26 0 26 0
-4 -25 -5 -24 15 -16 16 -16 25 7 25 6 6 29 7 29 33 0 34 0 15 15 15 15 10 0
11 0 0 20 0 19 12 26 11 25 13 0 13 0 6 20 6 20 -16 16 -16 16 -16 -6 -16 -7
-9 13 -8 13 0 29 0 29 -48 -6 -48 -6 -12 8 -11 7 2 29 2 30 -27 3 -28 3 0 -25z"/>
</g>
</svg>
