<?xml version="1.0" standalone="no"?>
<!DOCTYPE svg PUBLIC "-//W3C//DTD SVG 20010904//EN"
 "http://www.w3.org/TR/2001/REC-SVG-20010904/DTD/svg10.dtd">
<svg version="1.0" xmlns="http://www.w3.org/2000/svg"
 width="43.000000pt" height="35.000000pt" viewBox="0 0 43.000000 35.000000"
 preserveAspectRatio="xMidYMid meet">
<metadata>
Created by potrace 1.16, written by Peter Selinger 2001-2019
</metadata>
<g transform="translate(0.000000,35.000000) scale(0.100000,-0.100000)"
fill="#000000" stroke="none">
<path d="M180 312 l0 -40 -16 -6 -16 -6 -44 0 -44 0 0 -36 0 -36 -30 -11 -30
-11 0 -23 0 -23 25 0 25 0 0 -22 0 -23 11 -37 10 -38 40 0 40 0 15 15 15 15
-6 20 -6 20 34 0 35 0 6 -24 6 -23 28 -6 29 -6 20 5 21 6 8 41 9 42 21 -3 20
-3 12 26 12 26 0 9 0 10 -40 6 -40 7 -1 26 -1 26 2 24 2 24 -26 -7 -26 -6 -25
6 -25 6 -8 32 -8 31 -27 3 -27 3 0 -39z"/>
</g>
</svg>
