<?xml version="1.0" standalone="no"?>
<!DOCTYPE svg PUBLIC "-//W3C//DTD SVG 20010904//EN"
 "http://www.w3.org/TR/2001/REC-SVG-20010904/DTD/svg10.dtd">
<svg version="1.0" xmlns="http://www.w3.org/2000/svg"
 width="45.000000pt" height="37.000000pt" viewBox="0 0 45.000000 37.000000"
 preserveAspectRatio="xMidYMid meet">
<metadata>
Created by potrace 1.16, written by Peter Selinger 2001-2019
</metadata>
<g transform="translate(0.000000,37.000000) scale(0.100000,-0.100000)"
fill="#000000" stroke="none">
<path d="M180 332 l0 -40 -16 -6 -16 -6 -44 0 -44 0 0 -36 0 -36 -30 -11 -30
-11 0 -33 0 -33 25 0 25 0 0 -22 0 -23 11 -38 10 -37 50 0 50 0 15 14 14 15 0
20 0 21 19 0 19 0 6 -24 6 -24 34 -6 35 -7 25 7 25 6 6 39 7 39 22 0 23 0 11
25 12 26 0 19 0 20 -40 6 -40 7 0 49 0 50 -32 -3 -33 -2 -17 2 -17 1 -9 33 -8
32 -37 3 -37 3 0 -39z"/>
</g>
</svg>
