<?xml version="1.0" standalone="no"?>
<!DOCTYPE svg PUBLIC "-//W3C//DTD SVG 20010904//EN"
 "http://www.w3.org/TR/2001/REC-SVG-20010904/DTD/svg10.dtd">
<svg version="1.0" xmlns="http://www.w3.org/2000/svg"
 width="38.000000pt" height="35.000000pt" viewBox="0 0 38.000000 35.000000"
 preserveAspectRatio="xMidYMid meet">
<metadata>
Created by potrace 1.16, written by Peter Selinger 2001-2019
</metadata>
<g transform="translate(0.000000,35.000000) scale(0.100000,-0.100000)"
fill="#000000" stroke="none">
<path d="M194 333 l-5 -18 -8 -15 -8 -15 -49 -1 -49 -1 -3 -35 -3 -36 -29 -5
-28 -6 -7 -21 -6 -20 15 -15 15 -15 31 0 32 0 -7 -49 -7 -49 31 -7 31 -6 20 6
20 6 0 25 0 25 28 -3 27 -3 -2 -30 -2 -29 12 -8 12 -8 30 6 30 5 16 5 16 5 17
43 17 43 -7 17 -6 16 -32 -2 -32 -2 -12 8 -12 7 0 15 0 14 24 0 24 0 16 6 16
6 0 44 0 45 -51 -7 -51 -7 -9 14 -9 14 0 28 0 27 -20 0 -21 0 -5 -17z"/>
</g>
</svg>
