<?xml version="1.0" standalone="no"?>
<!DOCTYPE svg PUBLIC "-//W3C//DTD SVG 20010904//EN"
 "http://www.w3.org/TR/2001/REC-SVG-20010904/DTD/svg10.dtd">
<svg version="1.0" xmlns="http://www.w3.org/2000/svg"
 width="29.000000pt" height="35.000000pt" viewBox="0 0 29.000000 35.000000"
 preserveAspectRatio="xMidYMid meet">
<metadata>
Created by potrace 1.16, written by Peter Selinger 2001-2019
</metadata>
<g transform="translate(0.000000,35.000000) scale(0.100000,-0.100000)"
fill="#000000" stroke="none">
<path d="M129 343 l-1 -8 -2 -28 -2 -28 -14 -10 -15 -10 -48 3 -47 3 0 -38 0
-38 14 -15 15 -14 25 0 26 0 0 -25 0 -25 -19 0 -20 0 -15 -16 -16 -15 0 -35 0
-34 27 -6 27 -7 25 15 26 14 -2 22 -3 22 29 0 30 0 6 -19 6 -19 28 -5 28 -6
22 6 22 6 -7 31 -6 31 -8 3 -7 3 -18 13 -18 13 6 17 6 16 16 0 16 0 15 14 14
15 0 41 0 41 -36 -7 -36 -7 -24 13 -24 13 3 31 2 31 -22 3 -23 3 -1 -8z"/>
</g>
</svg>
