<?xml version="1.0" standalone="no"?>
<!DOCTYPE svg PUBLIC "-//W3C//DTD SVG 20010904//EN"
 "http://www.w3.org/TR/2001/REC-SVG-20010904/DTD/svg10.dtd">
<svg version="1.0" xmlns="http://www.w3.org/2000/svg"
 width="40.000000pt" height="37.000000pt" viewBox="0 0 40.000000 37.000000"
 preserveAspectRatio="xMidYMid meet">
<metadata>
Created by potrace 1.16, written by Peter Selinger 2001-2019
</metadata>
<g transform="translate(0.000000,37.000000) scale(0.100000,-0.100000)"
fill="#000000" stroke="none">
<path d="M194 353 l-5 -18 -8 -15 -8 -15 -49 0 -49 0 -3 -37 -3 -38 -19 0 -19
0 -15 -16 -16 -15 0 -20 0 -20 14 -15 15 -14 30 0 30 0 -6 -49 -6 -50 37 -6
36 -7 25 6 25 6 0 26 0 25 18 -3 17 -3 -3 -32 -3 -31 21 -7 20 -6 33 6 32 6
16 5 16 5 18 45 17 45 -6 24 -6 25 -40 0 -39 0 -6 10 -6 10 25 0 24 0 16 6 16
6 0 55 0 56 -52 -7 -51 -7 -8 13 -9 13 0 28 0 27 -30 0 -31 0 -5 -17z"/>
</g>
</svg>
