<?xml version="1.0" standalone="no"?>
<!DOCTYPE svg PUBLIC "-//W3C//DTD SVG 20010904//EN"
 "http://www.w3.org/TR/2001/REC-SVG-20010904/DTD/svg10.dtd">
<svg version="1.0" xmlns="http://www.w3.org/2000/svg"
 width="31.000000pt" height="37.000000pt" viewBox="0 0 31.000000 37.000000"
 preserveAspectRatio="xMidYMid meet">
<metadata>
Created by potrace 1.16, written by Peter Selinger 2001-2019
</metadata>
<g transform="translate(0.000000,37.000000) scale(0.100000,-0.100000)"
fill="#000000" stroke="none">
<path d="M125 351 l-6 -21 5 -9 6 -9 -17 -17 -17 -17 -48 5 -48 6 0 -50 0 -50
14 -15 15 -14 25 0 26 0 0 -15 0 -15 -19 0 -20 0 -15 -16 -16 -15 0 -44 0 -43
16 -6 16 -6 27 0 27 0 22 16 22 15 0 20 0 19 14 0 15 0 6 -19 6 -19 34 -6 34
-7 25 7 26 6 0 13 0 12 -6 31 -6 30 -25 11 -24 11 6 10 6 10 15 0 15 0 15 14
14 15 0 52 0 52 -41 -7 -40 -6 -17 12 -17 13 0 30 0 30 -32 3 -31 3 -7 -20z"/>
</g>
</svg>
