<?xml version="1.0" standalone="no"?>
<!DOCTYPE svg PUBLIC "-//W3C//DTD SVG 20010904//EN"
 "http://www.w3.org/TR/2001/REC-SVG-20010904/DTD/svg10.dtd">
<svg version="1.0" xmlns="http://www.w3.org/2000/svg"
 width="35.000000pt" height="40.000000pt" viewBox="0 0 35.000000 40.000000"
 preserveAspectRatio="xMidYMid meet">
<metadata>
Created by potrace 1.16, written by Peter Selinger 2001-2019
</metadata>
<g transform="translate(0.000000,40.000000) scale(0.100000,-0.100000)"
fill="#000000" stroke="none">
<path d="M177 393 l-7 -6 0 -30 0 -29 -55 4 -54 5 -3 -51 -3 -51 -22 3 -21 3
-6 -19 -6 -19 6 -17 6 -16 24 0 24 0 0 -36 0 -35 14 -15 15 -14 40 0 41 0 0
-29 0 -29 24 -6 24 -6 16 6 16 6 0 24 0 24 34 0 34 0 16 6 16 6 0 40 0 39 -15
16 -16 15 -13 -5 -14 -6 -6 15 -6 16 0 14 0 14 24 0 24 0 12 29 12 29 -4 23
-3 24 -42 -3 -43 -3 -20 6 -21 7 6 29 7 29 -25 0 -24 0 -6 -7z"/>
</g>
</svg>
