<?xml version="1.0" standalone="no"?>
<!DOCTYPE svg PUBLIC "-//W3C//DTD SVG 20010904//EN"
 "http://www.w3.org/TR/2001/REC-SVG-20010904/DTD/svg10.dtd">
<svg version="1.0" xmlns="http://www.w3.org/2000/svg"
 width="28.000000pt" height="41.000000pt" viewBox="0 0 28.000000 41.000000"
 preserveAspectRatio="xMidYMid meet">
<metadata>
Created by potrace 1.16, written by Peter Selinger 2001-2019
</metadata>
<g transform="translate(0.000000,41.000000) scale(0.100000,-0.100000)"
fill="#000000" stroke="none">
<path d="M130 384 l0 -25 -16 -16 -15 -15 -50 4 -49 5 0 -33 0 -33 16 -16 17
-16 22 5 23 6 6 -16 6 -16 0 -18 0 -18 -23 -6 -24 -6 -11 -25 -12 -26 0 -19 0
-20 38 -6 39 -6 -5 -25 -5 -25 14 -9 14 -9 22 0 22 0 16 16 16 17 -3 31 -3 31
34 -3 34 -4 -8 39 -7 38 -19 18 -19 18 0 10 0 10 15 15 15 15 19 -6 19 -6 4
55 3 55 -43 -6 -43 -6 -13 18 -13 18 5 19 4 18 -21 0 -21 0 0 -26z"/>
</g>
</svg>
