<?xml version="1.0" standalone="no"?>
<!DOCTYPE svg PUBLIC "-//W3C//DTD SVG 20010904//EN"
 "http://www.w3.org/TR/2001/REC-SVG-20010904/DTD/svg10.dtd">
<svg version="1.0" xmlns="http://www.w3.org/2000/svg"
 width="37.000000pt" height="36.000000pt" viewBox="0 0 37.000000 36.000000"
 preserveAspectRatio="xMidYMid meet">
<metadata>
Created by potrace 1.16, written by Peter Selinger 2001-2019
</metadata>
<g transform="translate(0.000000,36.000000) scale(0.100000,-0.100000)"
fill="#000000" stroke="none">
<path d="M167 353 l-7 -6 0 -26 0 -26 -9 -13 -8 -13 -37 6 -36 7 0 -35 0 -35
-6 -16 -6 -16 -29 0 -29 0 0 -36 0 -36 20 5 20 5 9 -36 9 -37 4 -20 3 -20 57
-3 57 -3 3 33 3 33 16 3 16 3 -5 -27 -5 -26 14 -9 14 -9 52 0 52 0 15 16 16
15 0 55 0 54 -45 0 -45 0 0 9 0 8 28 6 27 6 13 27 12 28 0 23 0 23 -23 5 -23
6 -24 -9 -25 -9 -12 4 -13 5 0 38 0 38 -16 6 -16 6 -17 0 -18 0 -6 -7z"/>
</g>
</svg>
