<?xml version="1.0" standalone="no"?>
<!DOCTYPE svg PUBLIC "-//W3C//DTD SVG 20010904//EN"
 "http://www.w3.org/TR/2001/REC-SVG-20010904/DTD/svg10.dtd">
<svg version="1.0" xmlns="http://www.w3.org/2000/svg"
 width="30.000000pt" height="43.000000pt" viewBox="0 0 30.000000 43.000000"
 preserveAspectRatio="xMidYMid meet">
<metadata>
Created by potrace 1.16, written by Peter Selinger 2001-2019
</metadata>
<g transform="translate(0.000000,43.000000) scale(0.100000,-0.100000)"
fill="#000000" stroke="none">
<path d="M130 404 l0 -25 -16 -16 -15 -15 -50 6 -49 7 0 -43 0 -43 9 -13 8
-14 34 -7 34 -7 3 -16 3 -16 -24 -6 -24 -6 -11 -25 -12 -26 0 -29 0 -29 35 -7
35 -6 0 -28 0 -28 16 -6 16 -6 28 0 29 0 15 16 16 15 0 30 0 29 31 0 32 0 -7
47 -6 47 -20 18 -20 19 12 13 12 12 23 -4 23 -4 0 43 0 44 7 24 6 24 -48 -7
-48 -8 -8 14 -9 13 0 23 0 22 -30 0 -30 0 0 -26z"/>
</g>
</svg>
