<?xml version="1.0" standalone="no"?>
<!DOCTYPE svg PUBLIC "-//W3C//DTD SVG 20010904//EN"
 "http://www.w3.org/TR/2001/REC-SVG-20010904/DTD/svg10.dtd">
<svg version="1.0" xmlns="http://www.w3.org/2000/svg"
 width="35.000000pt" height="34.000000pt" viewBox="0 0 35.000000 34.000000"
 preserveAspectRatio="xMidYMid meet">
<metadata>
Created by potrace 1.16, written by Peter Selinger 2001-2019
</metadata>
<g transform="translate(0.000000,34.000000) scale(0.100000,-0.100000)"
fill="#000000" stroke="none">
<path d="M167 333 l-7 -6 0 -26 0 -26 -9 -14 -9 -14 -36 6 -36 6 0 -34 0 -33
-6 -16 -6 -16 -29 0 -29 0 0 -24 0 -24 19 5 20 5 10 -39 9 -38 4 -20 3 -20 47
-3 47 -3 3 33 3 33 29 3 29 4 -7 -28 -7 -27 13 -8 13 -9 42 0 42 0 15 16 16
15 0 45 0 44 -44 0 -44 0 -6 16 -6 16 0 9 0 9 23 -5 22 -5 10 7 10 8 13 22 12
23 0 14 0 14 -15 6 -15 5 -26 -10 -27 -10 -18 6 -19 6 0 39 0 38 -16 6 -16 6
-7 0 -8 0 -6 -7z"/>
</g>
</svg>
