<?xml version="1.0" standalone="no"?>
<!DOCTYPE svg PUBLIC "-//W3C//DTD SVG 20010904//EN"
 "http://www.w3.org/TR/2001/REC-SVG-20010904/DTD/svg10.dtd">
<svg version="1.0" xmlns="http://www.w3.org/2000/svg"
 width="37.000000pt" height="42.000000pt" viewBox="0 0 37.000000 42.000000"
 preserveAspectRatio="xMidYMid meet">
<metadata>
Created by potrace 1.16, written by Peter Selinger 2001-2019
</metadata>
<g transform="translate(0.000000,42.000000) scale(0.100000,-0.100000)"
fill="#000000" stroke="none">
<path d="M177 413 l-7 -6 0 -30 0 -30 -55 7 -55 6 0 -50 0 -50 -25 0 -25 0 -6
-24 -6 -25 7 -20 6 -21 25 0 24 0 0 -36 0 -35 14 -15 15 -14 40 0 41 0 0 -29
0 -29 30 -7 30 -6 20 6 20 6 0 25 0 24 34 0 34 0 16 6 16 6 0 50 0 49 -13 14
-13 13 -19 3 -18 4 -5 13 -4 12 25 0 25 0 12 29 11 29 -3 33 -3 34 -39 -3 -39
-3 -22 5 -22 6 5 30 4 30 -34 0 -35 0 -6 -7z"/>
</g>
</svg>
