<?xml version="1.0" standalone="no"?>
<!DOCTYPE svg PUBLIC "-//W3C//DTD SVG 20010904//EN"
 "http://www.w3.org/TR/2001/REC-SVG-20010904/DTD/svg10.dtd">
<svg version="1.0" xmlns="http://www.w3.org/2000/svg"
 width="41.000000pt" height="28.000000pt" viewBox="0 0 41.000000 28.000000"
 preserveAspectRatio="xMidYMid meet">
<metadata>
Created by potrace 1.16, written by Peter Selinger 2001-2019
</metadata>
<g transform="translate(0.000000,28.000000) scale(0.100000,-0.100000)"
fill="#000000" stroke="none">
<path d="M249 270 l-1 -5 2 -26 1 -26 -16 -17 -16 -16 -22 0 -22 0 -14 9 -14
9 5 26 5 26 -16 0 -16 0 -23 7 -24 6 7 -57 7 -56 -30 0 -30 0 -16 -6 -16 -6 0
-18 0 -18 29 -7 30 -6 7 -45 6 -44 124 0 124 0 0 43 0 42 9 13 8 13 28 -7 27
-7 9 14 9 14 0 13 0 12 -34 0 -34 0 -12 30 -12 30 5 22 6 23 -7 10 -7 10 -32
0 -33 0 -1 -5z"/>
</g>
</svg>
