<?xml version="1.0" standalone="no"?>
<!DOCTYPE svg PUBLIC "-//W3C//DTD SVG 20010904//EN"
 "http://www.w3.org/TR/2001/REC-SVG-20010904/DTD/svg10.dtd">
<svg version="1.0" xmlns="http://www.w3.org/2000/svg"
 width="43.000000pt" height="30.000000pt" viewBox="0 0 43.000000 30.000000"
 preserveAspectRatio="xMidYMid meet">
<metadata>
Created by potrace 1.16, written by Peter Selinger 2001-2019
</metadata>
<g transform="translate(0.000000,30.000000) scale(0.100000,-0.100000)"
fill="#000000" stroke="none">
<path d="M244 289 l-5 -8 6 -24 6 -24 -16 -17 -16 -16 -12 0 -12 0 -13 9 -13
8 7 26 6 27 -13 0 -14 0 -39 7 -39 6 7 -56 6 -57 -29 0 -29 0 -16 -6 -16 -6 0
-28 0 -28 29 -7 30 -6 7 -45 6 -44 134 0 134 0 0 39 0 39 5 14 6 14 30 -4 31
-5 9 14 9 14 0 23 0 22 -34 0 -34 0 -12 29 -12 30 7 11 7 11 -6 23 -6 23 -45
0 -46 0 -5 -8z"/>
</g>
</svg>
