<?xml version="1.0" standalone="no"?>
<!DOCTYPE svg PUBLIC "-//W3C//DTD SVG 20010904//EN"
 "http://www.w3.org/TR/2001/REC-SVG-20010904/DTD/svg10.dtd">
<svg version="1.0" xmlns="http://www.w3.org/2000/svg"
 width="39.000000pt" height="36.000000pt" viewBox="0 0 39.000000 36.000000"
 preserveAspectRatio="xMidYMid meet">
<metadata>
Created by potrace 1.16, written by Peter Selinger 2001-2019
</metadata>
<g transform="translate(0.000000,36.000000) scale(0.100000,-0.100000)"
fill="#000000" stroke="none">
<path d="M60 312 l0 -49 -31 5 -30 4 3 -38 3 -39 23 1 22 1 6 -24 6 -23 -6
-35 -7 -35 39 0 40 0 6 -34 7 -34 15 -6 16 -6 25 0 24 0 15 14 14 15 0 25 0
26 46 0 46 0 -7 23 -7 22 -2 25 -1 25 33 10 32 9 0 34 0 34 -18 -4 -18 -5 -13
15 -14 15 1 33 1 34 -49 0 -50 0 0 -24 0 -24 -12 -5 -13 -4 -17 5 -18 4 0 29
0 29 -55 0 -55 0 0 -48z"/>
</g>
</svg>
