<?xml version="1.0" standalone="no"?>
<!DOCTYPE svg PUBLIC "-//W3C//DTD SVG 20010904//EN"
 "http://www.w3.org/TR/2001/REC-SVG-20010904/DTD/svg10.dtd">
<svg version="1.0" xmlns="http://www.w3.org/2000/svg"
 width="37.000000pt" height="34.000000pt" viewBox="0 0 37.000000 34.000000"
 preserveAspectRatio="xMidYMid meet">
<metadata>
Created by potrace 1.16, written by Peter Selinger 2001-2019
</metadata>
<g transform="translate(0.000000,34.000000) scale(0.100000,-0.100000)"
fill="#000000" stroke="none">
<path d="M63 301 l5 -38 -8 -12 -7 -12 -27 7 -28 7 4 -29 3 -29 22 3 22 3 7
-25 6 -26 -4 -35 -4 -35 41 0 42 0 0 -31 0 -31 14 -9 14 -9 18 0 18 0 15 14
14 15 0 25 0 26 45 0 46 0 -11 20 -11 21 3 27 3 27 33 10 32 9 0 23 0 22 -15
-5 -14 -6 -18 17 -17 18 0 33 0 34 -38 0 -38 0 1 -7 1 -8 -1 -16 -1 -17 -16
-6 -16 -6 -24 6 -24 6 0 29 0 29 -46 0 -47 0 6 -39z"/>
</g>
</svg>
