<?xml version="1.0" standalone="no"?>
<!DOCTYPE svg PUBLIC "-//W3C//DTD SVG 20010904//EN"
 "http://www.w3.org/TR/2001/REC-SVG-20010904/DTD/svg10.dtd">
<svg version="1.0" xmlns="http://www.w3.org/2000/svg"
 width="40.000000pt" height="27.000000pt" viewBox="0 0 40.000000 27.000000"
 preserveAspectRatio="xMidYMid meet">
<metadata>
Created by potrace 1.16, written by Peter Selinger 2001-2019
</metadata>
<g transform="translate(0.000000,27.000000) scale(0.100000,-0.100000)"
fill="#000000" stroke="none">
<path d="M85 225 l7 -44 -23 -5 -24 -5 -20 -3 -20 -3 0 -20 0 -20 20 -3 20 -3
24 -5 23 -5 -4 -37 -5 -37 -7 -18 -8 -17 43 0 44 0 15 10 14 9 2 28 2 28 1 8
1 8 23 -3 22 -3 -2 -31 -3 -31 24 -13 24 -13 36 7 36 7 0 9 0 10 -10 0 -10 0
6 27 6 28 4 17 5 17 22 3 22 3 3 21 3 22 -35 6 -36 7 -2 22 -1 22 2 23 2 22
-39 0 -39 0 0 -24 -1 -25 -15 -15 -16 -16 -18 0 -18 0 -14 9 -14 9 0 31 0 31
-39 0 -39 0 6 -45z"/>
</g>
</svg>
