<?xml version="1.0" standalone="no"?>
<!DOCTYPE svg PUBLIC "-//W3C//DTD SVG 20010904//EN"
 "http://www.w3.org/TR/2001/REC-SVG-20010904/DTD/svg10.dtd">
<svg version="1.0" xmlns="http://www.w3.org/2000/svg"
 width="42.000000pt" height="29.000000pt" viewBox="0 0 42.000000 29.000000"
 preserveAspectRatio="xMidYMid meet">
<metadata>
Created by potrace 1.16, written by Peter Selinger 2001-2019
</metadata>
<g transform="translate(0.000000,29.000000) scale(0.100000,-0.100000)"
fill="#000000" stroke="none">
<path d="M83 245 l7 -45 -23 -4 -22 -5 -20 -3 -20 -3 0 -30 0 -30 20 -3 20 -3
24 -5 23 -5 -5 -27 -6 -27 -7 -27 -6 -28 55 0 56 0 15 16 16 15 0 31 0 30 13
-5 12 -4 -3 -27 -4 -28 19 -13 18 -14 30 -1 30 0 23 6 23 7 -6 41 -6 41 8 11
8 12 20 3 20 4 3 31 3 32 -35 6 -36 7 0 44 0 45 -50 0 -50 0 0 -26 0 -25 -15
-15 -15 -15 -20 6 -20 6 0 35 0 34 -51 0 -52 0 6 -45z"/>
</g>
</svg>
