<?xml version="1.0" standalone="no"?>
<!DOCTYPE svg PUBLIC "-//W3C//DTD SVG 20010904//EN"
 "http://www.w3.org/TR/2001/REC-SVG-20010904/DTD/svg10.dtd">
<svg version="1.0" xmlns="http://www.w3.org/2000/svg"
 width="43.000000pt" height="36.000000pt" viewBox="0 0 43.000000 36.000000"
 preserveAspectRatio="xMidYMid meet">
<metadata>
Created by potrace 1.16, written by Peter Selinger 2001-2019
</metadata>
<g transform="translate(0.000000,36.000000) scale(0.100000,-0.100000)"
fill="#000000" stroke="none">
<path d="M278 353 l-38 -4 0 -29 0 -28 -12 -5 -13 -4 -15 31 -15 31 -60 0 -60
0 0 -38 0 -37 -26 0 -27 0 -6 -16 -6 -16 0 -29 0 -29 15 0 15 0 0 -10 0 -10
20 0 20 0 0 -39 0 -39 23 -6 22 -6 28 0 27 0 0 -29 0 -29 30 -7 30 -6 20 6 20
6 0 19 0 19 35 7 36 6 14 15 15 14 0 40 0 39 25 0 25 0 6 24 6 25 -7 20 -6 21
-30 0 -30 0 3 48 3 47 -25 1 -25 1 -37 -4z"/>
</g>
</svg>
