<?xml version="1.0" standalone="no"?>
<!DOCTYPE svg PUBLIC "-//W3C//DTD SVG 20010904//EN"
 "http://www.w3.org/TR/2001/REC-SVG-20010904/DTD/svg10.dtd">
<svg version="1.0" xmlns="http://www.w3.org/2000/svg"
 width="41.000000pt" height="34.000000pt" viewBox="0 0 41.000000 34.000000"
 preserveAspectRatio="xMidYMid meet">
<metadata>
Created by potrace 1.16, written by Peter Selinger 2001-2019
</metadata>
<g transform="translate(0.000000,34.000000) scale(0.100000,-0.100000)"
fill="#000000" stroke="none">
<path d="M278 333 l-38 -4 0 -29 0 -29 -22 -7 -22 -7 -3 9 -3 9 -13 25 -13 25
-49 0 -50 0 2 -37 2 -38 -28 0 -29 0 -6 -16 -6 -16 0 -19 0 -19 15 0 15 0 0
-10 0 -10 20 0 20 0 0 -39 0 -39 23 -6 22 -6 28 0 27 0 0 -29 0 -29 24 -6 24
-6 17 6 17 7 -5 18 -5 18 39 6 39 7 15 15 15 14 0 40 0 39 24 0 25 0 6 19 5
18 -6 17 -6 16 -30 0 -30 0 4 47 3 48 -15 1 -15 1 -37 -4z"/>
</g>
</svg>
