<?xml version="1.0" standalone="no"?>
<!DOCTYPE svg PUBLIC "-//W3C//DTD SVG 20010904//EN"
 "http://www.w3.org/TR/2001/REC-SVG-20010904/DTD/svg10.dtd">
<svg version="1.0" xmlns="http://www.w3.org/2000/svg"
 width="33.000000pt" height="28.000000pt" viewBox="0 0 33.000000 28.000000"
 preserveAspectRatio="xMidYMid meet">
<metadata>
Created by potrace 1.16, written by Peter Selinger 2001-2019
</metadata>
<g transform="translate(0.000000,28.000000) scale(0.100000,-0.100000)"
fill="#000000" stroke="none">
<path d="M256 273 l-7 -8 -12 -1 -12 -1 -27 -1 -28 -2 0 -16 0 -15 -14 -15
-15 -14 -18 0 -18 0 -13 9 -13 8 7 26 6 27 -46 0 -46 0 0 -46 0 -45 10 6 10 6
20 -6 19 -6 6 -20 6 -19 -15 -15 -15 -15 -9 0 -9 0 -10 -50 -10 -50 37 0 38 0
10 13 10 12 4 20 3 20 23 3 22 3 0 -24 0 -25 6 -16 6 -16 33 0 32 0 21 18 20
18 7 37 7 37 24 0 24 0 0 33 0 32 -9 14 -9 14 -16 -6 -17 -7 -10 27 -10 26 6
18 6 19 -4 0 -4 0 -7 -7z"/>
</g>
</svg>
