<?xml version="1.0" standalone="no"?>
<!DOCTYPE svg PUBLIC "-//W3C//DTD SVG 20010904//EN"
 "http://www.w3.org/TR/2001/REC-SVG-20010904/DTD/svg10.dtd">
<svg version="1.0" xmlns="http://www.w3.org/2000/svg"
 width="35.000000pt" height="30.000000pt" viewBox="0 0 35.000000 30.000000"
 preserveAspectRatio="xMidYMid meet">
<metadata>
Created by potrace 1.16, written by Peter Selinger 2001-2019
</metadata>
<g transform="translate(0.000000,30.000000) scale(0.100000,-0.100000)"
fill="#000000" stroke="none">
<path d="M218 287 l-48 -10 0 -14 0 -14 -15 -15 -15 -15 -18 5 -19 6 5 30 4
30 -56 0 -56 0 0 -56 0 -56 20 5 20 5 15 -15 15 -14 -14 -15 -15 -14 -9 0 -10
0 -7 -38 -6 -37 -6 -22 -5 -23 50 0 50 0 10 13 10 12 3 19 4 19 13 5 12 4 0
-25 0 -25 6 -16 6 -16 43 0 42 0 21 18 20 18 7 37 7 37 24 0 24 0 0 39 0 39
-6 16 -6 16 -24 0 -24 0 -1 18 -1 17 2 23 1 22 -13 -1 -13 -2 -47 -10z"/>
</g>
</svg>
