<?xml version="1.0" standalone="no"?>
<!DOCTYPE svg PUBLIC "-//W3C//DTD SVG 20010904//EN"
 "http://www.w3.org/TR/2001/REC-SVG-20010904/DTD/svg10.dtd">
<svg version="1.0" xmlns="http://www.w3.org/2000/svg"
 width="27.000000pt" height="28.000000pt" viewBox="0 0 27.000000 28.000000"
 preserveAspectRatio="xMidYMid meet">
<metadata>
Created by potrace 1.16, written by Peter Selinger 2001-2019
</metadata>
<g transform="translate(0.000000,28.000000) scale(0.100000,-0.100000)"
fill="#000000" stroke="none">
<path d="M180 246 l0 -34 -16 -6 -16 -6 -25 6 -25 7 4 29 5 29 -46 -3 -46 -3
-3 -18 -4 -19 6 -24 7 -25 19 6 20 6 16 -15 15 -16 -6 -20 -6 -20 -13 0 -14 0
-10 -27 -10 -28 -6 -28 -6 -27 44 0 44 0 6 16 6 16 0 23 0 24 8 5 8 5 11 -7
11 -7 12 -44 11 -43 36 5 35 6 4 4 4 4 6 47 7 48 -22 -7 -22 -7 -20 23 -19 22
0 12 0 13 27 7 28 7 7 11 8 12 0 31 0 32 -16 6 -16 6 -24 0 -24 0 0 -34z"/>
</g>
</svg>
