<?xml version="1.0" standalone="no"?>
<!DOCTYPE svg PUBLIC "-//W3C//DTD SVG 20010904//EN"
 "http://www.w3.org/TR/2001/REC-SVG-20010904/DTD/svg10.dtd">
<svg version="1.0" xmlns="http://www.w3.org/2000/svg"
 width="29.000000pt" height="30.000000pt" viewBox="0 0 29.000000 30.000000"
 preserveAspectRatio="xMidYMid meet">
<metadata>
Created by potrace 1.16, written by Peter Selinger 2001-2019
</metadata>
<g transform="translate(0.000000,30.000000) scale(0.100000,-0.100000)"
fill="#000000" stroke="none">
<path d="M6 291 l-7 -10 5 -23 5 -23 6 -29 6 -28 22 4 23 4 10 -10 11 -11 -5
-13 -4 -12 -13 0 -13 0 -10 -28 -11 -27 -7 -38 -6 -37 55 0 55 0 6 16 6 16 0
24 0 24 9 0 9 0 11 -46 12 -46 45 5 45 5 5 5 5 5 6 57 6 57 -24 -4 -24 -3 -18
20 -18 20 28 9 28 9 7 11 8 11 0 41 0 42 -16 6 -16 6 -34 0 -34 0 0 -34 0 -34
-12 -5 -13 -4 -18 5 -18 5 6 28 7 29 -39 0 -38 0 -21 6 -22 6 -6 -11z"/>
</g>
</svg>
