<?xml version="1.0" standalone="no"?>
<!DOCTYPE svg PUBLIC "-//W3C//DTD SVG 20010904//EN"
 "http://www.w3.org/TR/2001/REC-SVG-20010904/DTD/svg10.dtd">
<svg version="1.0" xmlns="http://www.w3.org/2000/svg"
 width="32.000000pt" height="30.000000pt" viewBox="0 0 32.000000 30.000000"
 preserveAspectRatio="xMidYMid meet">
<metadata>
Created by potrace 1.16, written by Peter Selinger 2001-2019
</metadata>
<g transform="translate(0.000000,30.000000) scale(0.100000,-0.100000)"
fill="#000000" stroke="none">
<path d="M175 272 l6 -28 -20 -23 -20 -23 -20 7 -21 6 3 32 2 32 -48 5 -48 6
-5 -8 -5 -8 11 0 11 0 -6 -33 -7 -34 30 5 29 4 16 -17 17 -16 0 -14 0 -14 -26
-26 -26 -27 -24 6 -24 6 6 -42 7 -43 3 -3 2 -4 42 -5 42 -6 9 14 9 14 0 27 0
26 13 5 12 4 13 -5 12 -4 0 -28 0 -28 6 -16 6 -16 19 0 18 0 26 12 25 11 0 9
0 8 -9 0 -9 0 -7 41 -7 41 13 9 14 9 28 0 27 0 0 14 0 15 -22 7 -23 7 -7 11
-8 11 0 45 0 45 -46 3 -46 2 7 -28z"/>
</g>
</svg>
