<?xml version="1.0" standalone="no"?>
<!DOCTYPE svg PUBLIC "-//W3C//DTD SVG 20010904//EN"
 "http://www.w3.org/TR/2001/REC-SVG-20010904/DTD/svg10.dtd">
<svg version="1.0" xmlns="http://www.w3.org/2000/svg"
 width="34.000000pt" height="32.000000pt" viewBox="0 0 34.000000 32.000000"
 preserveAspectRatio="xMidYMid meet">
<metadata>
Created by potrace 1.16, written by Peter Selinger 2001-2019
</metadata>
<g transform="translate(0.000000,32.000000) scale(0.100000,-0.100000)"
fill="#000000" stroke="none">
<path d="M172 286 l2 -34 -15 -14 -14 -15 -11 4 -10 3 4 30 4 30 -13 4 -14 4
-48 6 -48 6 -6 -17 -7 -17 10 -3 10 -3 -4 -36 -4 -36 30 6 30 7 16 -16 16 -16
0 -4 0 -4 -24 -24 -24 -25 -27 6 -27 5 7 -54 7 -54 4 -4 4 -4 51 -5 51 -5 9
14 9 14 0 28 0 27 15 0 15 0 0 -29 0 -29 6 -16 6 -16 29 0 28 0 26 12 25 11 0
19 0 18 -9 0 -8 0 -7 32 -6 32 12 8 13 8 28 0 27 0 0 24 0 25 -22 7 -23 7 -7
11 -8 11 0 46 0 46 -55 2 -56 1 3 -34z"/>
</g>
</svg>
