<?xml version="1.0" standalone="no"?>
<!DOCTYPE svg PUBLIC "-//W3C//DTD SVG 20010904//EN"
 "http://www.w3.org/TR/2001/REC-SVG-20010904/DTD/svg10.dtd">
<svg version="1.0" xmlns="http://www.w3.org/2000/svg"
 width="35.000000pt" height="38.000000pt" viewBox="0 0 35.000000 38.000000"
 preserveAspectRatio="xMidYMid meet">
<metadata>
Created by potrace 1.16, written by Peter Selinger 2001-2019
</metadata>
<g transform="translate(0.000000,38.000000) scale(0.100000,-0.100000)"
fill="#000000" stroke="none">
<path d="M240 372 l0 -8 -41 4 -42 4 5 -26 5 -27 -13 -14 -14 -13 -20 5 -20 5
0 24 0 24 -19 0 -18 0 -30 6 -29 6 -1 -56 -1 -56 29 0 29 0 0 -10 0 -10 15 0
15 0 0 -10 0 -11 -12 -13 -12 -12 -22 4 -21 4 -7 -32 -6 -33 0 -28 0 -29 28 0
27 0 11 -8 11 -7 7 -28 6 -27 18 0 17 0 23 6 22 6 6 38 6 37 44 -5 44 -5 0 24
0 24 10 36 10 36 22 -1 23 -1 0 30 0 29 -37 9 -38 9 0 54 0 54 -15 0 -15 0 0
-8z"/>
</g>
</svg>
