<?xml version="1.0" standalone="no"?>
<!DOCTYPE svg PUBLIC "-//W3C//DTD SVG 20010904//EN"
 "http://www.w3.org/TR/2001/REC-SVG-20010904/DTD/svg10.dtd">
<svg version="1.0" xmlns="http://www.w3.org/2000/svg"
 width="33.000000pt" height="36.000000pt" viewBox="0 0 33.000000 36.000000"
 preserveAspectRatio="xMidYMid meet">
<metadata>
Created by potrace 1.16, written by Peter Selinger 2001-2019
</metadata>
<g transform="translate(0.000000,36.000000) scale(0.100000,-0.100000)"
fill="#000000" stroke="none">
<path d="M242 352 l-2 -12 -41 6 -41 7 6 -20 6 -20 -6 -16 -6 -15 -15 -6 -15
-6 -24 6 -24 6 0 24 0 24 -24 0 -24 0 -14 5 -13 5 -1 -45 -1 -45 28 0 29 0 0
-10 0 -10 15 0 15 0 0 -21 0 -20 -15 -15 -15 -15 -19 6 -18 6 -7 -32 -6 -32 0
-18 0 -19 28 0 27 0 11 -8 11 -7 7 -28 7 -29 27 7 27 7 4 4 5 5 0 35 0 35 48
-6 48 -7 0 24 0 23 11 38 10 38 22 -3 22 -3 0 20 0 19 -37 9 -37 9 -4 56 -3
57 -2 -13z"/>
</g>
</svg>
