<?xml version="1.0" standalone="no"?>
<!DOCTYPE svg PUBLIC "-//W3C//DTD SVG 20010904//EN"
 "http://www.w3.org/TR/2001/REC-SVG-20010904/DTD/svg10.dtd">
<svg version="1.0" xmlns="http://www.w3.org/2000/svg"
 width="43.000000pt" height="35.000000pt" viewBox="0 0 43.000000 35.000000"
 preserveAspectRatio="xMidYMid meet">
<metadata>
Created by potrace 1.16, written by Peter Selinger 2001-2019
</metadata>
<g transform="translate(0.000000,35.000000) scale(0.100000,-0.100000)"
fill="#000000" stroke="none">
<path d="M97 343 l-7 -6 0 -34 0 -34 -14 -15 -15 -14 -30 0 -31 0 0 -14 0 -15
16 -15 15 -16 14 0 13 0 8 -47 9 -48 48 -3 47 -3 0 -24 0 -23 6 -16 6 -16 20
0 21 0 19 22 20 23 -5 28 -4 28 42 -6 41 -7 12 27 12 26 0 19 0 18 19 -5 18
-5 17 17 16 16 0 22 0 22 -21 13 -20 13 -20 -6 -19 -6 0 45 0 46 -123 0 -124
0 -6 -7z"/>
</g>
</svg>
