<?xml version="1.0" standalone="no"?>
<!DOCTYPE svg PUBLIC "-//W3C//DTD SVG 20010904//EN"
 "http://www.w3.org/TR/2001/REC-SVG-20010904/DTD/svg10.dtd">
<svg version="1.0" xmlns="http://www.w3.org/2000/svg"
 width="33.000000pt" height="36.000000pt" viewBox="0 0 33.000000 36.000000"
 preserveAspectRatio="xMidYMid meet">
<metadata>
Created by potrace 1.16, written by Peter Selinger 2001-2019
</metadata>
<g transform="translate(0.000000,36.000000) scale(0.100000,-0.100000)"
fill="#000000" stroke="none">
<path d="M10 335 l-8 -21 5 -27 5 -27 35 -6 34 -6 -3 -22 -3 -21 -22 -3 -23
-3 -6 -27 -6 -27 -4 -13 -4 -13 14 -15 15 -14 31 0 32 0 -6 -15 -5 -15 11 -25
11 -24 14 -5 15 -6 24 6 24 6 0 24 0 24 28 6 27 6 18 5 17 4 0 44 0 44 16 15
15 16 10 0 9 0 0 20 0 20 -18 0 -19 0 -11 25 -12 26 0 28 0 29 -31 6 -31 6
-12 0 -11 0 -1 -36 -1 -36 -14 -9 -14 -9 -25 6 -25 6 -7 11 -8 12 5 21 5 22
-41 4 -41 4 -8 -21z"/>
</g>
</svg>
