<?xml version="1.0" standalone="no"?>
<!DOCTYPE svg PUBLIC "-//W3C//DTD SVG 20010904//EN"
 "http://www.w3.org/TR/2001/REC-SVG-20010904/DTD/svg10.dtd">
<svg version="1.0" xmlns="http://www.w3.org/2000/svg"
 width="35.000000pt" height="38.000000pt" viewBox="0 0 35.000000 38.000000"
 preserveAspectRatio="xMidYMid meet">
<metadata>
Created by potrace 1.16, written by Peter Selinger 2001-2019
</metadata>
<g transform="translate(0.000000,38.000000) scale(0.100000,-0.100000)"
fill="#000000" stroke="none">
<path d="M10 355 l-10 -27 6 -34 6 -33 35 -7 34 -6 -4 -12 -4 -11 -21 -3 -21
-3 -5 -17 -5 -17 -6 -32 -7 -33 16 -15 15 -15 25 0 26 0 0 -15 0 -14 12 -25
11 -26 19 -6 18 -5 30 6 30 7 0 24 0 24 28 6 27 6 17 5 18 4 0 44 0 44 16 15
15 16 10 0 9 0 0 30 0 30 -18 0 -19 0 -11 25 -12 26 0 28 0 29 -31 6 -31 6
-23 0 -23 0 1 -36 1 -35 -13 -8 -13 -9 -19 5 -19 5 -1 12 -1 11 2 23 1 22 -28
0 -28 0 -22 6 -23 6 -10 -27z"/>
</g>
</svg>
