<?xml version="1.0" standalone="no"?>
<!DOCTYPE svg PUBLIC "-//W3C//DTD SVG 20010904//EN"
 "http://www.w3.org/TR/2001/REC-SVG-20010904/DTD/svg10.dtd">
<svg version="1.0" xmlns="http://www.w3.org/2000/svg"
 width="40.000000pt" height="33.000000pt" viewBox="0 0 40.000000 33.000000"
 preserveAspectRatio="xMidYMid meet">
<metadata>
Created by potrace 1.16, written by Peter Selinger 2001-2019
</metadata>
<g transform="translate(0.000000,33.000000) scale(0.100000,-0.100000)"
fill="#000000" stroke="none">
<path d="M80 296 l0 -34 -6 -16 -6 -15 -34 -7 -34 -6 0 -13 0 -14 19 -6 19 -6
18 -54 17 -55 33 0 34 0 0 -16 0 -17 22 -18 21 -19 8 0 8 0 26 12 25 11 0 19
0 18 23 0 22 0 14 9 13 8 -11 21 -11 21 0 16 0 16 15 15 15 15 12 -2 13 -1 23
1 22 1 0 24 0 24 -34 6 -34 6 -6 23 -6 22 0 24 0 23 -16 -6 -16 -6 -29 0 -28
0 5 -15 6 -14 -15 -16 -16 -15 -18 0 -18 0 -14 9 -14 9 5 26 5 26 -38 0 -39 0
0 -34z"/>
</g>
</svg>
