<?xml version="1.0" standalone="no"?>
<!DOCTYPE svg PUBLIC "-//W3C//DTD SVG 20010904//EN"
 "http://www.w3.org/TR/2001/REC-SVG-20010904/DTD/svg10.dtd">
<svg version="1.0" xmlns="http://www.w3.org/2000/svg"
 width="42.000000pt" height="35.000000pt" viewBox="0 0 42.000000 35.000000"
 preserveAspectRatio="xMidYMid meet">
<metadata>
Created by potrace 1.16, written by Peter Selinger 2001-2019
</metadata>
<g transform="translate(0.000000,35.000000) scale(0.100000,-0.100000)"
fill="#000000" stroke="none">
<path d="M80 316 l0 -34 -6 -16 -6 -15 -34 -7 -34 -6 0 -23 0 -24 19 -6 19 -6
18 -54 17 -55 33 0 34 0 0 -16 0 -17 22 -18 21 -19 18 0 18 0 26 12 25 11 0
19 0 18 23 0 22 0 15 10 14 9 -12 36 -13 35 13 13 13 12 18 1 17 1 20 1 20 2
0 34 0 34 -34 6 -34 6 -6 23 -6 22 0 24 0 24 -31 -7 -31 -6 -25 0 -25 0 4 -18
5 -18 -14 -12 -13 -13 -21 6 -20 7 6 29 7 29 -51 0 -51 0 0 -34z"/>
</g>
</svg>
