<?xml version="1.0" standalone="no"?>
<!DOCTYPE svg PUBLIC "-//W3C//DTD SVG 20010904//EN"
 "http://www.w3.org/TR/2001/REC-SVG-20010904/DTD/svg10.dtd">
<svg version="1.0" xmlns="http://www.w3.org/2000/svg"
 width="34.000000pt" height="43.000000pt" viewBox="0 0 34.000000 43.000000"
 preserveAspectRatio="xMidYMid meet">
<metadata>
Created by potrace 1.16, written by Peter Selinger 2001-2019
</metadata>
<g transform="translate(0.000000,43.000000) scale(0.100000,-0.100000)"
fill="#000000" stroke="none">
<path d="M105 411 l5 -18 -6 -16 -6 -17 -42 -12 -41 -12 -6 -8 -5 -8 4 -29 4
-29 39 -6 39 -6 0 -10 0 -9 -12 -26 -12 -26 -20 3 -20 3 -7 -25 -7 -25 -1 -22
-1 -23 36 0 35 0 -6 -11 -7 -10 12 -29 12 -29 15 -6 16 -5 19 6 20 6 -4 28 -4
28 52 7 51 6 12 25 11 25 0 29 0 30 16 0 15 0 15 14 14 15 0 6 0 6 -14 15 -15
14 -20 0 -21 0 0 45 0 45 -30 -6 -29 -6 -26 6 -25 6 0 24 0 24 -6 16 -6 16
-25 0 -24 0 6 -19z"/>
</g>
</svg>
