<?xml version="1.0" standalone="no"?>
<!DOCTYPE svg PUBLIC "-//W3C//DTD SVG 20010904//EN"
 "http://www.w3.org/TR/2001/REC-SVG-20010904/DTD/svg10.dtd">
<svg version="1.0" xmlns="http://www.w3.org/2000/svg"
 width="36.000000pt" height="45.000000pt" viewBox="0 0 36.000000 45.000000"
 preserveAspectRatio="xMidYMid meet">
<metadata>
Created by potrace 1.16, written by Peter Selinger 2001-2019
</metadata>
<g transform="translate(0.000000,45.000000) scale(0.100000,-0.100000)"
fill="#000000" stroke="none">
<path d="M103 424 l4 -25 -14 -14 -14 -14 -34 -7 -34 -6 -5 -13 -5 -14 6 -34
5 -35 39 -6 38 -6 -10 -23 -11 -23 -21 0 -21 1 -7 -25 -7 -25 -1 -32 -1 -33
30 0 30 0 0 -15 0 -14 12 -26 11 -25 23 -6 23 -6 20 7 21 6 0 29 0 28 49 7 48
7 12 24 11 25 0 29 0 30 16 0 15 0 15 14 14 15 0 16 0 16 -14 15 -15 14 -20 0
-21 0 0 46 0 46 -35 -6 -36 -7 -19 6 -20 6 0 24 0 23 -6 16 -6 16 -35 0 -35 0
5 -26z"/>
</g>
</svg>
