<?xml version="1.0" standalone="no"?>
<!DOCTYPE svg PUBLIC "-//W3C//DTD SVG 20010904//EN"
 "http://www.w3.org/TR/2001/REC-SVG-20010904/DTD/svg10.dtd">
<svg version="1.0" xmlns="http://www.w3.org/2000/svg"
 width="41.000000pt" height="43.000000pt" viewBox="0 0 41.000000 43.000000"
 preserveAspectRatio="xMidYMid meet">
<metadata>
Created by potrace 1.16, written by Peter Selinger 2001-2019
</metadata>
<g transform="translate(0.000000,43.000000) scale(0.100000,-0.100000)"
fill="#000000" stroke="none">
<path d="M170 401 l0 -30 -20 -6 -19 -6 -36 7 -35 6 0 -45 0 -45 -30 -7 -30
-7 0 -34 0 -34 15 0 15 0 0 -10 0 -10 20 0 21 0 -7 -35 -6 -34 15 -16 16 -15
25 0 26 0 0 -30 0 -30 15 0 15 0 0 -10 0 -10 31 0 30 0 15 14 14 15 0 20 0 21
25 0 24 0 26 12 26 12 -5 19 -5 20 6 27 5 28 24 11 24 11 0 25 0 25 -21 0 -20
0 -15 14 -14 15 0 40 0 41 -37 0 -38 0 -11 8 -11 7 -7 23 -7 22 -30 0 -29 0 0
-29z"/>
</g>
</svg>
