<?xml version="1.0" standalone="no"?>
<!DOCTYPE svg PUBLIC "-//W3C//DTD SVG 20010904//EN"
 "http://www.w3.org/TR/2001/REC-SVG-20010904/DTD/svg10.dtd">
<svg version="1.0" xmlns="http://www.w3.org/2000/svg"
 width="27.000000pt" height="32.000000pt" viewBox="0 0 27.000000 32.000000"
 preserveAspectRatio="xMidYMid meet">
<metadata>
Created by potrace 1.16, written by Peter Selinger 2001-2019
</metadata>
<g transform="translate(0.000000,32.000000) scale(0.100000,-0.100000)"
fill="#000000" stroke="none">
<path d="M127 313 l-7 -6 0 -23 0 -24 -25 -6 -26 -6 -29 6 -30 5 -6 -24 -6
-25 12 -30 12 -30 34 0 34 0 0 -12 0 -13 -9 -14 -9 -14 -27 7 -28 7 -8 -13 -9
-13 0 -42 0 -43 136 0 136 0 -6 22 -6 23 0 23 0 22 -21 0 -20 0 -15 14 -14 15
0 16 0 16 14 15 15 14 25 0 26 0 0 35 0 35 -34 0 -34 0 -16 6 -16 6 0 29 0 29
-18 0 -19 0 -6 -7z"/>
</g>
</svg>
