<?xml version="1.0" standalone="no"?>
<!DOCTYPE svg PUBLIC "-//W3C//DTD SVG 20010904//EN"
 "http://www.w3.org/TR/2001/REC-SVG-20010904/DTD/svg10.dtd">
<svg version="1.0" xmlns="http://www.w3.org/2000/svg"
 width="29.000000pt" height="34.000000pt" viewBox="0 0 29.000000 34.000000"
 preserveAspectRatio="xMidYMid meet">
<metadata>
Created by potrace 1.16, written by Peter Selinger 2001-2019
</metadata>
<g transform="translate(0.000000,34.000000) scale(0.100000,-0.100000)"
fill="#000000" stroke="none">
<path d="M127 333 l-7 -6 0 -23 0 -23 -20 -6 -20 -6 -31 6 -31 7 -9 -13 -9
-14 0 -27 0 -27 12 -26 11 -25 33 0 33 0 -5 -15 -6 -14 -30 6 -30 6 -9 -14 -9
-14 0 -52 0 -53 146 0 147 0 -7 37 -6 38 0 18 0 17 -21 0 -20 0 -15 14 -14 15
0 6 0 6 14 15 15 14 25 0 26 0 0 45 0 45 -34 0 -34 0 -16 6 -16 6 0 29 0 29
-28 0 -29 0 -6 -7z"/>
</g>
</svg>
