<?xml version="1.0" standalone="no"?>
<!DOCTYPE svg PUBLIC "-//W3C//DTD SVG 20010904//EN"
 "http://www.w3.org/TR/2001/REC-SVG-20010904/DTD/svg10.dtd">
<svg version="1.0" xmlns="http://www.w3.org/2000/svg"
 width="39.000000pt" height="41.000000pt" viewBox="0 0 39.000000 41.000000"
 preserveAspectRatio="xMidYMid meet">
<metadata>
Created by potrace 1.16, written by Peter Selinger 2001-2019
</metadata>
<g transform="translate(0.000000,41.000000) scale(0.100000,-0.100000)"
fill="#000000" stroke="none">
<path d="M170 380 l0 -30 -25 -6 -26 -6 -29 6 -30 6 0 -44 0 -44 -30 -7 -30
-7 0 -24 0 -24 15 0 15 0 0 -11 0 -11 21 5 21 6 -5 -41 -5 -41 13 -13 14 -14
29 0 29 0 -5 -30 -4 -30 16 0 16 0 0 -10 0 -10 21 0 20 0 15 14 14 15 0 20 0
21 25 0 24 0 25 11 25 12 -5 9 -6 9 7 38 6 38 25 11 24 12 0 15 0 15 -21 0
-20 0 -15 14 -14 15 0 40 0 41 -37 0 -38 0 -11 8 -11 7 -7 23 -7 22 -20 0 -19
0 0 -30z"/>
</g>
</svg>
