<?xml version="1.0" standalone="no"?>
<!DOCTYPE svg PUBLIC "-//W3C//DTD SVG 20010904//EN"
 "http://www.w3.org/TR/2001/REC-SVG-20010904/DTD/svg10.dtd">
<svg version="1.0" xmlns="http://www.w3.org/2000/svg"
 width="43.000000pt" height="42.000000pt" viewBox="0 0 43.000000 42.000000"
 preserveAspectRatio="xMidYMid meet">
<metadata>
Created by potrace 1.16, written by Peter Selinger 2001-2019
</metadata>
<g transform="translate(0.000000,42.000000) scale(0.100000,-0.100000)"
fill="#000000" stroke="none">
<path d="M197 413 l-7 -6 0 -18 0 -17 -16 -6 -16 -6 -44 0 -44 0 0 -14 0 -14
11 -4 12 -4 -14 -24 -14 -25 -8 -6 -8 -6 -25 5 -24 4 0 -20 0 -20 6 -16 6 -16
45 0 45 0 -5 -37 -5 -38 -7 -22 -7 -23 36 0 36 0 0 -18 0 -19 19 -21 18 -22
31 0 30 0 7 30 7 30 21 0 21 0 33 12 33 12 0 43 0 43 14 0 15 0 15 16 16 15 0
35 0 35 -30 6 -30 6 0 44 0 45 -32 -3 -33 -3 -22 8 -23 7 0 20 0 19 -28 0 -29
0 -6 -7z"/>
</g>
</svg>
