<?xml version="1.0" standalone="no"?>
<!DOCTYPE svg PUBLIC "-//W3C//DTD SVG 20010904//EN"
 "http://www.w3.org/TR/2001/REC-SVG-20010904/DTD/svg10.dtd">
<svg version="1.0" xmlns="http://www.w3.org/2000/svg"
 width="41.000000pt" height="40.000000pt" viewBox="0 0 41.000000 40.000000"
 preserveAspectRatio="xMidYMid meet">
<metadata>
Created by potrace 1.16, written by Peter Selinger 2001-2019
</metadata>
<g transform="translate(0.000000,40.000000) scale(0.100000,-0.100000)"
fill="#000000" stroke="none">
<path d="M197 393 l-7 -6 0 -18 0 -17 -16 -6 -16 -6 -46 -1 -47 -1 13 -5 12
-5 0 -14 0 -14 -13 -23 -12 -22 -10 -8 -10 -7 -22 5 -23 5 0 -9 0 -9 6 -16 6
-16 44 0 44 0 0 -41 0 -40 -10 -20 -11 -19 40 0 39 0 -5 -18 -4 -18 19 -22 19
-22 21 0 20 0 7 30 7 30 21 0 21 0 33 12 33 12 0 43 0 43 14 0 15 0 15 16 16
15 0 25 0 25 -30 6 -30 6 0 45 0 45 -30 -7 -30 -6 -25 12 -25 11 0 19 0 18
-18 0 -19 0 -6 -7z"/>
</g>
</svg>
