<?xml version="1.0" standalone="no"?>
<!DOCTYPE svg PUBLIC "-//W3C//DTD SVG 20010904//EN"
 "http://www.w3.org/TR/2001/REC-SVG-20010904/DTD/svg10.dtd">
<svg version="1.0" xmlns="http://www.w3.org/2000/svg"
 width="29.000000pt" height="42.000000pt" viewBox="0 0 29.000000 42.000000"
 preserveAspectRatio="xMidYMid meet">
<metadata>
Created by potrace 1.16, written by Peter Selinger 2001-2019
</metadata>
<g transform="translate(0.000000,42.000000) scale(0.100000,-0.100000)"
fill="#000000" stroke="none">
<path d="M136 413 l-6 -6 0 -26 0 -26 -9 -14 -9 -14 -51 5 -51 5 -6 -19 -5
-18 7 -33 7 -32 11 -7 11 -8 22 0 21 0 -5 -21 -6 -20 -25 6 -25 6 -8 -13 -9
-13 0 -41 0 -42 16 -6 16 -6 39 0 39 0 0 -21 0 -20 15 -15 14 -15 26 7 25 6 0
24 0 24 33 0 32 0 14 9 14 9 -5 47 -6 47 -13 9 -14 9 -23 0 -23 0 3 17 3 18
20 3 20 3 23 5 22 4 0 46 0 46 -50 -7 -49 -7 -12 45 -11 46 -13 5 -13 5 -6 -6z"/>
</g>
</svg>
