<?xml version="1.0" standalone="no"?>
<!DOCTYPE svg PUBLIC "-//W3C//DTD SVG 20010904//EN"
 "http://www.w3.org/TR/2001/REC-SVG-20010904/DTD/svg10.dtd">
<svg version="1.0" xmlns="http://www.w3.org/2000/svg"
 width="31.000000pt" height="44.000000pt" viewBox="0 0 31.000000 44.000000"
 preserveAspectRatio="xMidYMid meet">
<metadata>
Created by potrace 1.16, written by Peter Selinger 2001-2019
</metadata>
<g transform="translate(0.000000,44.000000) scale(0.100000,-0.100000)"
fill="#000000" stroke="none">
<path d="M137 433 l-7 -6 0 -26 0 -26 -9 -14 -9 -14 -50 7 -50 6 -7 -21 -7
-21 7 -44 6 -45 30 -6 29 -6 0 -7 0 -7 -26 5 -26 5 -9 -14 -9 -14 0 -51 0 -52
16 -6 16 -6 39 0 39 0 0 -21 0 -20 15 -16 16 -15 34 6 35 7 0 24 0 25 33 0 32
0 14 9 14 9 -5 57 -5 57 -14 9 -14 9 -23 0 -23 0 6 10 6 10 24 0 23 0 16 6 16
6 0 55 0 56 -50 -6 -49 -6 -12 42 -11 42 -12 7 -11 8 -11 0 -11 0 -6 -7z"/>
</g>
</svg>
