<?xml version="1.0" standalone="no"?>
<!DOCTYPE svg PUBLIC "-//W3C//DTD SVG 20010904//EN"
 "http://www.w3.org/TR/2001/REC-SVG-20010904/DTD/svg10.dtd">
<svg version="1.0" xmlns="http://www.w3.org/2000/svg"
 width="31.000000pt" height="40.000000pt" viewBox="0 0 31.000000 40.000000"
 preserveAspectRatio="xMidYMid meet">
<metadata>
Created by potrace 1.16, written by Peter Selinger 2001-2019
</metadata>
<g transform="translate(0.000000,40.000000) scale(0.100000,-0.100000)"
fill="#000000" stroke="none">
<path d="M126 385 l6 -16 -23 -20 -24 -20 -37 4 -37 4 -5 -23 -6 -22 7 -19 7
-18 13 -13 14 -14 14 6 15 5 0 -22 0 -23 -33 -9 -32 -10 -3 -30 -2 -30 8 -13
9 -14 41 -5 42 -6 -5 -21 -5 -21 8 -12 7 -11 25 -6 25 -6 14 9 14 9 1 37 1 37
37 -6 36 -6 15 6 15 5 12 30 12 29 -6 25 -6 25 -38 -5 -37 -6 -14 10 -14 9 7
17 6 18 35 -6 35 -6 6 23 5 23 -3 34 -3 34 -54 12 -54 12 -9 15 -9 16 -19 0
-19 0 5 -15z"/>
</g>
</svg>
