<?xml version="1.0" standalone="no"?>
<!DOCTYPE svg PUBLIC "-//W3C//DTD SVG 20010904//EN"
 "http://www.w3.org/TR/2001/REC-SVG-20010904/DTD/svg10.dtd">
<svg version="1.0" xmlns="http://www.w3.org/2000/svg"
 width="31.000000pt" height="41.000000pt" viewBox="0 0 31.000000 41.000000"
 preserveAspectRatio="xMidYMid meet">
<metadata>
Created by potrace 1.16, written by Peter Selinger 2001-2019
</metadata>
<g transform="translate(0.000000,41.000000) scale(0.100000,-0.100000)"
fill="#000000" stroke="none">
<path d="M130 380 l0 -30 -12 -1 -13 -1 -44 2 -44 2 -8 -14 -9 -13 0 -37 0
-36 6 -16 6 -16 30 0 29 0 -5 -9 -6 -8 -30 -6 -30 -6 0 -55 0 -54 16 -6 16 -6
34 0 34 0 0 -29 0 -29 16 -6 16 -6 25 0 24 0 15 14 14 15 0 14 0 14 41 6 41 5
5 6 6 6 5 51 5 51 -14 9 -14 9 -28 0 -28 0 3 18 3 17 33 3 32 3 6 23 5 23 -3
33 -3 34 -54 12 -54 12 -9 16 -9 16 -24 0 -25 0 0 -30z"/>
</g>
</svg>
