<?xml version="1.0" standalone="no"?>
<!DOCTYPE svg PUBLIC "-//W3C//DTD SVG 20010904//EN"
 "http://www.w3.org/TR/2001/REC-SVG-20010904/DTD/svg10.dtd">
<svg version="1.0" xmlns="http://www.w3.org/2000/svg"
 width="33.000000pt" height="42.000000pt" viewBox="0 0 33.000000 42.000000"
 preserveAspectRatio="xMidYMid meet">
<metadata>
Created by potrace 1.16, written by Peter Selinger 2001-2019
</metadata>
<g transform="translate(0.000000,42.000000) scale(0.100000,-0.100000)"
fill="#000000" stroke="none">
<path d="M122 403 l4 -18 -19 -17 -20 -18 -37 6 -38 6 -7 -31 -6 -31 7 -22 7
-22 13 -13 13 -13 15 0 16 0 0 -8 0 -8 -33 -9 -32 -10 -3 -29 -4 -28 6 -24 6
-24 40 -6 40 -7 0 -21 0 -21 8 -11 7 -11 23 -8 23 -7 25 6 24 6 6 40 7 40 23
-6 24 -6 23 6 24 6 11 25 12 26 0 27 0 27 -9 14 -9 14 -31 -6 -31 -6 -15 5
-15 6 6 9 6 10 33 -7 34 -6 6 24 6 25 -3 44 -3 44 -54 12 -54 12 -9 15 -9 16
-30 0 -30 0 3 -17z"/>
</g>
</svg>
