<?xml version="1.0" standalone="no"?>
<!DOCTYPE svg PUBLIC "-//W3C//DTD SVG 20010904//EN"
 "http://www.w3.org/TR/2001/REC-SVG-20010904/DTD/svg10.dtd">
<svg version="1.0" xmlns="http://www.w3.org/2000/svg"
 width="29.000000pt" height="39.000000pt" viewBox="0 0 29.000000 39.000000"
 preserveAspectRatio="xMidYMid meet">
<metadata>
Created by potrace 1.16, written by Peter Selinger 2001-2019
</metadata>
<g transform="translate(0.000000,39.000000) scale(0.100000,-0.100000)"
fill="#000000" stroke="none">
<path d="M130 361 l0 -29 -14 -5 -14 -5 -42 5 -42 6 -9 -14 -9 -14 0 -30 0
-30 9 -14 9 -14 27 7 26 7 -3 -23 -3 -22 -32 -8 -33 -9 0 -43 0 -44 16 -6 16
-6 37 0 38 0 -5 -26 -5 -26 14 -9 14 -9 18 0 18 0 16 15 15 16 -5 13 -5 14 44
5 45 5 5 5 6 5 5 42 6 42 -14 9 -14 9 -28 0 -28 0 3 28 3 27 32 3 33 3 6 24 6
23 -4 23 -3 23 -54 12 -54 12 -9 16 -9 16 -14 0 -15 0 0 -29z"/>
</g>
</svg>
