<?xml version="1.0" standalone="no"?>
<!DOCTYPE svg PUBLIC "-//W3C//DTD SVG 20010904//EN"
 "http://www.w3.org/TR/2001/REC-SVG-20010904/DTD/svg10.dtd">
<svg version="1.0" xmlns="http://www.w3.org/2000/svg"
 width="42.000000pt" height="35.000000pt" viewBox="0 0 42.000000 35.000000"
 preserveAspectRatio="xMidYMid meet">
<metadata>
Created by potrace 1.16, written by Peter Selinger 2001-2019
</metadata>
<g transform="translate(0.000000,35.000000) scale(0.100000,-0.100000)"
fill="#000000" stroke="none">
<path d="M195 331 l5 -18 -5 -16 -6 -15 -30 -12 -29 -12 -30 4 -30 5 0 -49 0
-49 -20 6 -20 6 -15 -15 -15 -15 0 -10 0 -10 18 -18 18 -18 14 -42 13 -43 33
-6 34 -6 25 6 25 6 0 30 0 30 25 0 25 0 0 -29 0 -29 16 -6 16 -6 38 0 38 0 5
14 6 15 -6 35 -6 36 26 0 25 0 16 6 16 6 0 23 0 24 -16 16 -16 16 -19 -6 -19
-6 0 35 0 35 -9 5 -8 5 -33 -9 -33 -10 -13 11 -12 10 0 36 0 36 -13 8 -14 9
-13 0 -13 0 6 -19z"/>
</g>
</svg>
