<?xml version="1.0" standalone="no"?>
<!DOCTYPE svg PUBLIC "-//W3C//DTD SVG 20010904//EN"
 "http://www.w3.org/TR/2001/REC-SVG-20010904/DTD/svg10.dtd">
<svg version="1.0" xmlns="http://www.w3.org/2000/svg"
 width="44.000000pt" height="37.000000pt" viewBox="0 0 44.000000 37.000000"
 preserveAspectRatio="xMidYMid meet">
<metadata>
Created by potrace 1.16, written by Peter Selinger 2001-2019
</metadata>
<g transform="translate(0.000000,37.000000) scale(0.100000,-0.100000)"
fill="#000000" stroke="none">
<path d="M190 348 l2 -23 -1 -11 -1 -12 -29 -12 -30 -12 -30 7 -31 7 0 -46 0
-46 -21 0 -20 0 -15 -14 -14 -15 0 -20 0 -20 18 -18 18 -18 13 -42 14 -41 21
-6 21 -6 32 0 31 0 16 6 16 6 0 29 0 29 15 0 15 0 0 -29 0 -29 16 -6 16 -6 48
0 49 0 6 20 6 20 -6 30 -7 30 25 0 25 0 16 6 16 6 0 33 0 34 -16 15 -15 16
-19 0 -19 0 -3 33 -3 32 -49 0 -48 0 -4 39 -3 39 -13 9 -13 8 -23 0 -23 0 1
-22z"/>
</g>
</svg>
