<?xml version="1.0" standalone="no"?>
<!DOCTYPE svg PUBLIC "-//W3C//DTD SVG 20010904//EN"
 "http://www.w3.org/TR/2001/REC-SVG-20010904/DTD/svg10.dtd">
<svg version="1.0" xmlns="http://www.w3.org/2000/svg"
 width="40.000000pt" height="28.000000pt" viewBox="0 0 40.000000 28.000000"
 preserveAspectRatio="xMidYMid meet">
<metadata>
Created by potrace 1.16, written by Peter Selinger 2001-2019
</metadata>
<g transform="translate(0.000000,28.000000) scale(0.100000,-0.100000)"
fill="#000000" stroke="none">
<path d="M70 240 l0 -39 -35 -7 -35 -6 0 -23 0 -23 6 -16 6 -16 14 0 13 0 10
-37 11 -38 0 -17 0 -18 49 0 49 0 16 6 16 6 0 24 0 24 15 0 15 0 0 -19 0 -19
30 -12 30 -12 25 6 25 6 -6 55 -7 55 36 0 36 0 6 10 6 10 -6 19 -6 19 -29 6
-30 6 0 46 0 46 -22 -6 -23 -6 -27 0 -28 0 0 -24 0 -24 -18 -4 -18 -5 -12 13
-12 13 0 21 0 20 -50 0 -50 0 0 -40z"/>
</g>
</svg>
