<?xml version="1.0" standalone="no"?>
<!DOCTYPE svg PUBLIC "-//W3C//DTD SVG 20010904//EN"
 "http://www.w3.org/TR/2001/REC-SVG-20010904/DTD/svg10.dtd">
<svg version="1.0" xmlns="http://www.w3.org/2000/svg"
 width="38.000000pt" height="26.000000pt" viewBox="0 0 38.000000 26.000000"
 preserveAspectRatio="xMidYMid meet">
<metadata>
Created by potrace 1.16, written by Peter Selinger 2001-2019
</metadata>
<g transform="translate(0.000000,26.000000) scale(0.100000,-0.100000)"
fill="#000000" stroke="none">
<path d="M70 220 l0 -39 -35 -7 -35 -6 0 -13 0 -13 6 -16 6 -16 14 0 13 0 10
-37 11 -38 0 -17 0 -18 39 0 39 0 16 6 16 6 0 24 0 24 25 0 25 0 0 -18 0 -19
26 -12 26 -12 17 6 18 5 -5 55 -4 55 35 0 36 0 5 8 5 8 -7 10 -7 11 -27 7 -28
6 0 43 0 43 -40 -4 -39 -4 1 -7 0 -6 -1 -16 -1 -17 -25 -6 -26 -7 -14 15 -15
15 0 20 0 21 -40 0 -40 0 0 -40z"/>
</g>
</svg>
