<?xml version="1.0" standalone="no"?>
<!DOCTYPE svg PUBLIC "-//W3C//DTD SVG 20010904//EN"
 "http://www.w3.org/TR/2001/REC-SVG-20010904/DTD/svg10.dtd">
<svg version="1.0" xmlns="http://www.w3.org/2000/svg"
 width="28.000000pt" height="29.000000pt" viewBox="0 0 28.000000 29.000000"
 preserveAspectRatio="xMidYMid meet">
<metadata>
Created by potrace 1.16, written by Peter Selinger 2001-2019
</metadata>
<g transform="translate(0.000000,29.000000) scale(0.100000,-0.100000)"
fill="#000000" stroke="none">
<path d="M7 269 l-6 -20 6 -35 6 -34 29 0 29 0 5 -15 6 -14 -15 -16 -16 -15
-9 0 -10 0 -11 -31 -11 -32 0 -28 0 -29 39 0 39 0 16 6 16 6 0 29 0 29 9 0 10
0 7 -22 7 -23 11 -7 11 -8 54 0 53 0 -6 23 -7 22 -6 38 -6 39 -16 -5 -17 -4
-12 13 -12 13 0 10 0 10 33 9 32 8 3 49 3 48 -47 -7 -47 -6 -14 0 -15 0 7 -29
6 -28 -15 -6 -15 -6 -16 15 -15 15 -1 12 -1 12 1 18 2 17 -44 0 -45 0 -5 -21z"/>
</g>
</svg>
