<?xml version="1.0" standalone="no"?>
<!DOCTYPE svg PUBLIC "-//W3C//DTD SVG 20010904//EN"
 "http://www.w3.org/TR/2001/REC-SVG-20010904/DTD/svg10.dtd">
<svg version="1.0" xmlns="http://www.w3.org/2000/svg"
 width="26.000000pt" height="27.000000pt" viewBox="0 0 26.000000 27.000000"
 preserveAspectRatio="xMidYMid meet">
<metadata>
Created by potrace 1.16, written by Peter Selinger 2001-2019
</metadata>
<g transform="translate(0.000000,27.000000) scale(0.100000,-0.100000)"
fill="#000000" stroke="none">
<path d="M8 253 l-4 -18 5 -28 4 -29 27 6 28 5 6 -15 6 -16 0 -15 0 -14 -14
-15 -15 -14 -9 0 -10 0 -11 -31 -11 -32 0 -18 0 -19 29 0 29 0 16 6 16 6 0 29
0 29 19 0 20 0 7 -22 7 -23 11 -7 11 -8 42 0 43 0 -10 26 -10 25 0 24 0 24
-15 -5 -14 -6 -16 15 -15 16 0 20 0 20 33 9 32 8 3 38 3 39 -32 -7 -31 -6 -18
0 -17 0 5 -29 4 -29 -20 -6 -19 -6 -16 5 -15 6 -12 29 -12 29 7 10 6 11 -35 0
-35 0 -3 -17z"/>
</g>
</svg>
