<?xml version="1.0" standalone="no"?>
<!DOCTYPE svg PUBLIC "-//W3C//DTD SVG 20010904//EN"
 "http://www.w3.org/TR/2001/REC-SVG-20010904/DTD/svg10.dtd">
<svg version="1.0" xmlns="http://www.w3.org/2000/svg"
 width="32.000000pt" height="31.000000pt" viewBox="0 0 32.000000 31.000000"
 preserveAspectRatio="xMidYMid meet">
<metadata>
Created by potrace 1.16, written by Peter Selinger 2001-2019
</metadata>
<g transform="translate(0.000000,31.000000) scale(0.100000,-0.100000)"
fill="#000000" stroke="none">
<path d="M226 278 l6 -35 -17 -16 -16 -17 -14 0 -14 0 -16 16 -16 17 6 25 6
25 -32 -7 -31 -6 -9 0 -9 0 0 -45 0 -45 -35 0 -35 0 0 -25 0 -25 14 0 15 0 15
-16 16 -15 0 -45 0 -44 31 0 30 0 22 11 22 12 8 11 7 11 -5 23 -5 22 12 0 13
0 14 -9 13 -8 0 -36 0 -36 12 -10 12 -10 37 10 37 10 0 9 0 10 -10 0 -10 0 0
28 0 27 -8 11 -7 11 -27 6 -27 7 -6 20 -6 20 16 16 16 16 24 -4 24 -5 5 14 6
15 0 38 0 39 -17 -1 -18 -1 -27 8 -27 7 5 -34z"/>
</g>
</svg>
