<?xml version="1.0" standalone="no"?>
<!DOCTYPE svg PUBLIC "-//W3C//DTD SVG 20010904//EN"
 "http://www.w3.org/TR/2001/REC-SVG-20010904/DTD/svg10.dtd">
<svg version="1.0" xmlns="http://www.w3.org/2000/svg"
 width="34.000000pt" height="33.000000pt" viewBox="0 0 34.000000 33.000000"
 preserveAspectRatio="xMidYMid meet">
<metadata>
Created by potrace 1.16, written by Peter Selinger 2001-2019
</metadata>
<g transform="translate(0.000000,33.000000) scale(0.100000,-0.100000)"
fill="#000000" stroke="none">
<path d="M224 298 l7 -36 -16 -16 -16 -15 -14 5 -15 6 -1 12 -1 11 2 23 1 22
-19 0 -20 0 -31 -6 -31 -6 0 -44 0 -44 -35 0 -35 0 0 -35 0 -35 14 0 15 0 15
-16 16 -15 0 -45 0 -44 40 0 39 0 26 12 26 12 6 28 6 28 8 0 8 0 3 -41 3 -42
15 -9 15 -10 43 11 42 12 0 19 0 20 -10 0 -10 0 0 24 0 24 -6 16 -6 16 -18 0
-19 0 -15 16 -16 15 15 15 15 15 21 -6 21 -7 9 13 9 14 0 53 0 52 -17 0 -18 0
-39 7 -39 6 7 -35z"/>
</g>
</svg>
