<?xml version="1.0" standalone="no"?>
<!DOCTYPE svg PUBLIC "-//W3C//DTD SVG 20010904//EN"
 "http://www.w3.org/TR/2001/REC-SVG-20010904/DTD/svg10.dtd">
<svg version="1.0" xmlns="http://www.w3.org/2000/svg"
 width="42.000000pt" height="35.000000pt" viewBox="0 0 42.000000 35.000000"
 preserveAspectRatio="xMidYMid meet">
<metadata>
Created by potrace 1.16, written by Peter Selinger 2001-2019
</metadata>
<g transform="translate(0.000000,35.000000) scale(0.100000,-0.100000)"
fill="#000000" stroke="none">
<path d="M80 306 l0 -44 -16 -6 -16 -6 -24 0 -24 0 0 -25 0 -24 20 -11 20 -10
23 6 24 5 6 -14 5 -14 -9 -14 -9 -14 0 -32 0 -33 40 0 40 0 0 -29 0 -29 30 -7
30 -6 20 6 20 6 0 36 0 35 41 -7 41 -7 9 13 9 14 0 31 0 32 31 6 30 6 -3 37
-3 38 -37 3 -38 3 0 51 0 51 -31 -7 -31 -6 -19 0 -19 0 0 -19 0 -19 -6 -16 -6
-16 -18 0 -18 0 -6 16 -6 16 6 24 6 24 -56 0 -56 0 0 -44z"/>
</g>
</svg>
