<?xml version="1.0" standalone="no"?>
<!DOCTYPE svg PUBLIC "-//W3C//DTD SVG 20010904//EN"
 "http://www.w3.org/TR/2001/REC-SVG-20010904/DTD/svg10.dtd">
<svg version="1.0" xmlns="http://www.w3.org/2000/svg"
 width="40.000000pt" height="33.000000pt" viewBox="0 0 40.000000 33.000000"
 preserveAspectRatio="xMidYMid meet">
<metadata>
Created by potrace 1.16, written by Peter Selinger 2001-2019
</metadata>
<g transform="translate(0.000000,33.000000) scale(0.100000,-0.100000)"
fill="#000000" stroke="none">
<path d="M80 286 l0 -44 -16 -6 -16 -6 -24 0 -24 0 0 -14 0 -15 12 -7 12 -8
32 2 32 3 7 -20 6 -20 -10 -20 -11 -20 0 -20 0 -21 43 0 44 0 -5 -29 -4 -28
25 -7 25 -6 16 6 16 6 0 35 0 36 44 -6 44 -6 6 15 6 16 0 34 0 35 10 -6 10 -6
21 6 20 7 -3 26 -3 27 -37 3 -38 3 0 51 0 50 -16 -6 -16 -6 -24 0 -24 0 0 -19
0 -19 -6 -16 -6 -16 -29 0 -29 0 -6 25 -6 25 6 15 5 15 -44 0 -45 0 0 -44z"/>
</g>
</svg>
