<?xml version="1.0" standalone="no"?>
<!DOCTYPE svg PUBLIC "-//W3C//DTD SVG 20010904//EN"
 "http://www.w3.org/TR/2001/REC-SVG-20010904/DTD/svg10.dtd">
<svg version="1.0" xmlns="http://www.w3.org/2000/svg"
 width="34.000000pt" height="29.000000pt" viewBox="0 0 34.000000 29.000000"
 preserveAspectRatio="xMidYMid meet">
<metadata>
Created by potrace 1.16, written by Peter Selinger 2001-2019
</metadata>
<g transform="translate(0.000000,29.000000) scale(0.100000,-0.100000)"
fill="#000000" stroke="none">
<path d="M6 274 l-6 -16 0 -24 0 -25 11 -21 11 -20 25 7 26 6 8 -12 7 -12 -5
-14 -5 -13 -29 0 -29 0 0 -19 0 -18 -6 -47 -7 -46 26 0 26 0 28 11 28 10 7 12
8 12 0 23 0 22 9 0 9 0 6 -16 6 -16 0 -24 0 -24 24 -6 23 -5 34 3 34 3 1 35 1
35 1 23 2 23 31 6 30 6 -3 31 -3 31 -19 3 -20 4 -13 13 -13 14 0 31 0 32 -22
-6 -23 -6 -22 0 -23 0 0 -18 0 -19 -24 -11 -24 -11 -21 18 -21 18 0 17 0 16
-39 0 -39 0 -6 -16z"/>
</g>
</svg>
