<?xml version="1.0" standalone="no"?>
<!DOCTYPE svg PUBLIC "-//W3C//DTD SVG 20010904//EN"
 "http://www.w3.org/TR/2001/REC-SVG-20010904/DTD/svg10.dtd">
<svg version="1.0" xmlns="http://www.w3.org/2000/svg"
 width="28.000000pt" height="36.000000pt" viewBox="0 0 28.000000 36.000000"
 preserveAspectRatio="xMidYMid meet">
<metadata>
Created by potrace 1.16, written by Peter Selinger 2001-2019
</metadata>
<g transform="translate(0.000000,36.000000) scale(0.100000,-0.100000)"
fill="#000000" stroke="none">
<path d="M3 344 l-6 -15 10 -32 9 -32 19 0 20 0 7 -10 8 -10 0 -22 0 -23 -24
0 -23 0 -7 -31 -6 -32 0 -28 0 -29 40 0 40 0 0 -24 0 -24 6 -16 6 -16 38 0 38
0 6 16 6 16 0 19 0 19 28 0 27 0 12 8 13 8 7 64 6 63 -26 -5 -27 -5 0 8 0 9
-15 0 -15 0 0 15 0 14 35 7 35 6 0 50 0 51 -31 -7 -31 -6 -19 0 -19 0 0 -21 0
-20 -14 -15 -15 -14 -10 0 -11 0 0 10 0 10 -16 0 -16 0 7 30 7 30 -47 0 -46 0
-6 -16z"/>
</g>
</svg>
