<?xml version="1.0" standalone="no"?>
<!DOCTYPE svg PUBLIC "-//W3C//DTD SVG 20010904//EN"
 "http://www.w3.org/TR/2001/REC-SVG-20010904/DTD/svg10.dtd">
<svg version="1.0" xmlns="http://www.w3.org/2000/svg"
 width="32.000000pt" height="27.000000pt" viewBox="0 0 32.000000 27.000000"
 preserveAspectRatio="xMidYMid meet">
<metadata>
Created by potrace 1.16, written by Peter Selinger 2001-2019
</metadata>
<g transform="translate(0.000000,27.000000) scale(0.100000,-0.100000)"
fill="#000000" stroke="none">
<path d="M4 244 l-7 -25 11 -23 10 -23 30 5 29 4 7 -17 6 -18 -5 -18 -6 -19
-28 0 -28 0 -6 -52 -7 -52 5 -5 5 -4 39 11 39 12 6 17 6 16 -5 18 -6 19 24 0
25 0 6 -16 6 -16 0 -24 0 -24 24 -6 24 -6 23 4 22 3 2 53 2 54 14 9 14 9 18 0
18 0 -3 22 -3 23 -19 3 -20 4 -13 13 -13 14 0 28 0 29 -35 -4 -35 -4 0 -17 0
-18 -25 -11 -26 -12 -8 0 -8 0 -21 19 -22 18 0 17 0 16 -30 0 -30 0 -6 -26z"/>
</g>
</svg>
