<?xml version="1.0" standalone="no"?>
<!DOCTYPE svg PUBLIC "-//W3C//DTD SVG 20010904//EN"
 "http://www.w3.org/TR/2001/REC-SVG-20010904/DTD/svg10.dtd">
<svg version="1.0" xmlns="http://www.w3.org/2000/svg"
 width="26.000000pt" height="34.000000pt" viewBox="0 0 26.000000 34.000000"
 preserveAspectRatio="xMidYMid meet">
<metadata>
Created by potrace 1.16, written by Peter Selinger 2001-2019
</metadata>
<g transform="translate(0.000000,34.000000) scale(0.100000,-0.100000)"
fill="#000000" stroke="none">
<path d="M4 327 l-5 -14 10 -26 10 -27 17 7 16 6 9 -14 9 -14 0 -32 0 -33 -24
0 -23 0 -7 -31 -6 -32 0 -18 0 -19 45 0 44 0 -5 -15 -6 -15 6 -25 6 -25 29 0
29 0 6 16 6 16 0 19 0 19 28 0 27 0 12 8 12 7 7 53 7 53 -27 -7 -26 -6 0 11 0
11 -15 0 -15 0 0 25 0 24 35 7 35 6 0 40 0 40 -16 -6 -16 -6 -24 0 -24 0 0
-21 0 -20 -14 -15 -15 -14 -20 0 -21 0 0 10 0 10 -16 0 -16 0 4 30 5 30 -34 0
-34 0 -5 -13z"/>
</g>
</svg>
