<?xml version="1.0" standalone="no"?>
<!DOCTYPE svg PUBLIC "-//W3C//DTD SVG 20010904//EN"
 "http://www.w3.org/TR/2001/REC-SVG-20010904/DTD/svg10.dtd">
<svg version="1.0" xmlns="http://www.w3.org/2000/svg"
 width="42.000000pt" height="29.000000pt" viewBox="0 0 42.000000 29.000000"
 preserveAspectRatio="xMidYMid meet">
<metadata>
Created by potrace 1.16, written by Peter Selinger 2001-2019
</metadata>
<g transform="translate(0.000000,29.000000) scale(0.100000,-0.100000)"
fill="#000000" stroke="none">
<path d="M70 265 l0 -24 -12 -26 -11 -25 -24 0 -23 0 0 -27 0 -28 9 -14 9 -13
13 4 14 5 14 -14 14 -14 -7 -45 -6 -44 44 0 43 0 21 19 22 18 0 17 0 16 10 0
10 0 0 -14 0 -15 18 -5 17 -5 39 -7 38 -7 9 14 9 14 0 31 0 31 40 7 40 6 0 33
0 32 -8 11 -7 12 -25 3 -25 4 -3 39 -3 38 -27 -6 -27 -6 -37 -6 -37 -6 -6 -29
-7 -29 -10 0 -11 0 -17 20 -18 21 5 19 5 20 -46 0 -46 0 0 -25z"/>
</g>
</svg>
