<?xml version="1.0" standalone="no"?>
<!DOCTYPE svg PUBLIC "-//W3C//DTD SVG 20010904//EN"
 "http://www.w3.org/TR/2001/REC-SVG-20010904/DTD/svg10.dtd">
<svg version="1.0" xmlns="http://www.w3.org/2000/svg"
 width="40.000000pt" height="27.000000pt" viewBox="0 0 40.000000 27.000000"
 preserveAspectRatio="xMidYMid meet">
<metadata>
Created by potrace 1.16, written by Peter Selinger 2001-2019
</metadata>
<g transform="translate(0.000000,27.000000) scale(0.100000,-0.100000)"
fill="#000000" stroke="none">
<path d="M70 245 l0 -24 -12 -26 -11 -25 -24 0 -23 0 0 -14 0 -14 6 -16 6 -15
14 6 13 5 15 -15 15 -14 3 -44 3 -44 25 -3 26 -3 23 20 23 20 -6 16 -5 15 24
0 25 0 0 -14 0 -15 18 -4 17 -5 29 -7 29 -6 8 13 9 13 0 31 0 31 40 7 40 6 0
23 0 22 -9 14 -9 14 -18 -7 -17 -7 -9 13 -8 13 0 34 0 33 -17 -7 -18 -7 -37
-5 -37 -5 -6 -29 -7 -29 -20 0 -21 0 -19 22 -19 22 4 18 5 18 -34 0 -34 0 0
-25z"/>
</g>
</svg>
