<?xml version="1.0" standalone="no"?>
<!DOCTYPE svg PUBLIC "-//W3C//DTD SVG 20010904//EN"
 "http://www.w3.org/TR/2001/REC-SVG-20010904/DTD/svg10.dtd">
<svg version="1.0" xmlns="http://www.w3.org/2000/svg"
 width="31.000000pt" height="34.000000pt" viewBox="0 0 31.000000 34.000000"
 preserveAspectRatio="xMidYMid meet">
<metadata>
Created by potrace 1.16, written by Peter Selinger 2001-2019
</metadata>
<g transform="translate(0.000000,34.000000) scale(0.100000,-0.100000)"
fill="#000000" stroke="none">
<path d="M70 299 l0 -40 -13 -14 -13 -13 -20 -4 -19 -3 -3 -18 -3 -17 24 -11
25 -11 6 -31 6 -31 -12 -7 -12 -8 8 -8 8 -8 49 2 49 1 -6 -23 -5 -22 16 -17
16 -16 14 0 14 0 16 17 17 16 -5 33 -6 33 46 -6 46 -6 -8 19 -8 19 -4 21 -5
22 -17 -5 -17 -4 -12 26 -13 27 6 19 6 18 35 7 34 6 0 34 0 33 -12 -3 -13 -4
-27 -6 -28 -6 0 -24 0 -24 -24 -6 -24 -6 -15 6 -14 5 -11 24 -11 25 5 15 6 15
-36 0 -36 0 0 -41z"/>
</g>
</svg>
