<?xml version="1.0" standalone="no"?>
<!DOCTYPE svg PUBLIC "-//W3C//DTD SVG 20010904//EN"
 "http://www.w3.org/TR/2001/REC-SVG-20010904/DTD/svg10.dtd">
<svg version="1.0" xmlns="http://www.w3.org/2000/svg"
 width="34.000000pt" height="31.000000pt" viewBox="0 0 34.000000 31.000000"
 preserveAspectRatio="xMidYMid meet">
<metadata>
Created by potrace 1.16, written by Peter Selinger 2001-2019
</metadata>
<g transform="translate(0.000000,31.000000) scale(0.100000,-0.100000)"
fill="#000000" stroke="none">
<path d="M175 282 l6 -28 -19 -22 -19 -22 -11 0 -10 0 -6 16 -6 16 0 24 0 24
-49 0 -49 0 -6 -16 -6 -16 0 -39 0 -39 29 0 29 0 4 -12 5 -13 -4 -12 -5 -13
-24 0 -24 0 0 -59 0 -59 43 -6 44 -7 16 7 17 6 0 29 0 29 10 0 10 0 0 -15 0
-14 38 -10 37 -11 26 0 26 0 1 45 1 45 13 14 12 13 18 -5 18 -4 0 35 0 35 -35
6 -35 7 0 43 0 44 -31 6 -31 6 -20 0 -20 0 7 -28z"/>
</g>
</svg>
