<?xml version="1.0" standalone="no"?>
<!DOCTYPE svg PUBLIC "-//W3C//DTD SVG 20010904//EN"
 "http://www.w3.org/TR/2001/REC-SVG-20010904/DTD/svg10.dtd">
<svg version="1.0" xmlns="http://www.w3.org/2000/svg"
 width="33.000000pt" height="36.000000pt" viewBox="0 0 33.000000 36.000000"
 preserveAspectRatio="xMidYMid meet">
<metadata>
Created by potrace 1.16, written by Peter Selinger 2001-2019
</metadata>
<g transform="translate(0.000000,36.000000) scale(0.100000,-0.100000)"
fill="#000000" stroke="none">
<path d="M70 319 l0 -40 -13 -14 -13 -13 -20 -4 -19 -3 -3 -28 -3 -27 24 -11
25 -11 5 -24 4 -24 -8 0 -9 0 0 -20 0 -19 35 -7 35 -6 15 6 15 5 0 -24 0 -24
16 -15 15 -16 24 0 24 0 15 16 16 15 0 30 0 29 40 0 40 0 0 10 0 10 -12 41
-13 40 -16 -4 -17 -5 -9 22 -10 21 4 12 4 12 35 7 34 6 0 45 0 45 -32 -7 -33
-6 -17 -5 -18 -5 0 -24 0 -23 -20 -5 -20 -5 -15 15 -15 14 0 30 0 29 -45 0
-45 0 0 -41z"/>
</g>
</svg>
