<?xml version="1.0" standalone="no"?>
<!DOCTYPE svg PUBLIC "-//W3C//DTD SVG 20010904//EN"
 "http://www.w3.org/TR/2001/REC-SVG-20010904/DTD/svg10.dtd">
<svg version="1.0" xmlns="http://www.w3.org/2000/svg"
 width="35.000000pt" height="36.000000pt" viewBox="0 0 35.000000 36.000000"
 preserveAspectRatio="xMidYMid meet">
<metadata>
Created by potrace 1.16, written by Peter Selinger 2001-2019
</metadata>
<g transform="translate(0.000000,36.000000) scale(0.100000,-0.100000)"
fill="#000000" stroke="none">
<path d="M90 318 l0 -38 30 0 30 0 0 -10 0 -10 -32 -1 -33 -1 -7 1 -8 1 0 -32
0 -33 -8 -12 -7 -11 -28 -7 -27 -7 0 -13 0 -12 19 -22 20 -23 22 7 22 7 -5
-38 -5 -39 13 -13 13 -12 31 0 30 0 0 10 0 10 16 0 16 0 -6 25 -6 25 24 0 24
0 6 -30 6 -30 55 0 55 0 0 43 0 42 -8 12 -8 12 -29 -2 -30 -2 -3 26 -3 26 40
7 41 6 0 41 0 41 -43 -6 -44 -7 -11 13 -10 13 -4 30 -3 30 -27 3 -28 3 0 -35
0 -36 -9 0 -10 0 -3 43 -3 42 -32 0 -33 0 0 -37z"/>
</g>
</svg>
