<?xml version="1.0" standalone="no"?>
<!DOCTYPE svg PUBLIC "-//W3C//DTD SVG 20010904//EN"
 "http://www.w3.org/TR/2001/REC-SVG-20010904/DTD/svg10.dtd">
<svg version="1.0" xmlns="http://www.w3.org/2000/svg"
 width="39.000000pt" height="38.000000pt" viewBox="0 0 39.000000 38.000000"
 preserveAspectRatio="xMidYMid meet">
<metadata>
Created by potrace 1.16, written by Peter Selinger 2001-2019
</metadata>
<g transform="translate(0.000000,38.000000) scale(0.100000,-0.100000)"
fill="#000000" stroke="none">
<path d="M17 374 l-7 -7 0 -54 0 -53 30 -6 30 -6 0 -9 0 -9 -35 0 -35 0 0 -54
0 -55 16 -15 15 -16 40 0 39 0 0 -29 0 -30 16 -15 15 -16 19 0 18 0 16 6 16 6
0 24 0 24 28 6 27 6 17 4 17 5 6 29 6 30 -5 18 -6 18 45 12 45 12 0 39 0 39
-37 9 -38 9 -3 40 -3 41 -60 1 -59 1 0 -29 0 -28 -6 -16 -6 -16 -14 0 -13 0
-11 40 -11 40 -32 0 -32 0 -20 6 -21 5 -7 -7z"/>
</g>
</svg>
