<?xml version="1.0" standalone="no"?>
<!DOCTYPE svg PUBLIC "-//W3C//DTD SVG 20010904//EN"
 "http://www.w3.org/TR/2001/REC-SVG-20010904/DTD/svg10.dtd">
<svg version="1.0" xmlns="http://www.w3.org/2000/svg"
 width="37.000000pt" height="36.000000pt" viewBox="0 0 37.000000 36.000000"
 preserveAspectRatio="xMidYMid meet">
<metadata>
Created by potrace 1.16, written by Peter Selinger 2001-2019
</metadata>
<g transform="translate(0.000000,36.000000) scale(0.100000,-0.100000)"
fill="#000000" stroke="none">
<path d="M14 351 l-4 -4 0 -43 0 -44 28 -6 27 -7 7 -11 7 -10 -5 -8 -5 -8 -35
0 -34 0 0 -44 0 -45 16 -15 15 -16 44 0 44 0 -5 -15 -6 -15 6 -24 6 -25 19 -6
18 -5 17 6 16 6 0 24 0 24 28 6 27 6 16 4 17 5 5 20 6 20 -6 36 -6 36 12 -7
11 -7 35 11 35 12 0 28 0 28 -37 9 -38 9 -3 39 -3 40 -49 2 -50 1 0 -28 0 -28
-6 -16 -6 -16 -24 0 -23 0 -11 39 -10 39 -46 4 -45 3 -5 -4z"/>
</g>
</svg>
