<?xml version="1.0" standalone="no"?>
<!DOCTYPE svg PUBLIC "-//W3C//DTD SVG 20010904//EN"
 "http://www.w3.org/TR/2001/REC-SVG-20010904/DTD/svg10.dtd">
<svg version="1.0" xmlns="http://www.w3.org/2000/svg"
 width="35.000000pt" height="27.000000pt" viewBox="0 0 35.000000 27.000000"
 preserveAspectRatio="xMidYMid meet">
<metadata>
Created by potrace 1.16, written by Peter Selinger 2001-2019
</metadata>
<g transform="translate(0.000000,27.000000) scale(0.100000,-0.100000)"
fill="#000000" stroke="none">
<path d="M17 263 l-7 -6 0 -39 0 -39 19 6 20 6 20 -13 21 -13 0 -22 0 -22 -16
-16 -17 -17 -18 5 -19 5 0 -20 0 -19 -11 -21 -11 -21 13 -8 14 -9 32 0 32 0
11 40 11 40 19 0 20 0 0 -27 0 -28 9 -14 9 -14 52 5 52 5 9 14 9 14 0 20 0 21
20 17 20 17 10 0 10 0 0 13 0 12 -8 11 -7 11 -25 8 -25 8 -7 11 -8 11 0 38 0
37 -123 0 -124 0 -6 -7z"/>
</g>
</svg>
