<?xml version="1.0" standalone="no"?>
<!DOCTYPE svg PUBLIC "-//W3C//DTD SVG 20010904//EN"
 "http://www.w3.org/TR/2001/REC-SVG-20010904/DTD/svg10.dtd">
<svg version="1.0" xmlns="http://www.w3.org/2000/svg"
 width="37.000000pt" height="29.000000pt" viewBox="0 0 37.000000 29.000000"
 preserveAspectRatio="xMidYMid meet">
<metadata>
Created by potrace 1.16, written by Peter Selinger 2001-2019
</metadata>
<g transform="translate(0.000000,29.000000) scale(0.100000,-0.100000)"
fill="#000000" stroke="none">
<path d="M17 283 l-7 -6 0 -49 0 -49 23 2 22 2 18 -8 17 -7 0 -13 0 -14 -15
-14 -15 -15 -20 5 -20 5 0 -18 0 -18 -12 -33 -12 -34 14 -9 15 -10 42 0 42 0
11 40 11 40 9 0 10 0 0 -27 0 -28 9 -14 9 -14 62 5 62 4 9 15 9 14 0 20 0 21
20 17 20 17 10 0 10 0 0 23 0 22 -8 11 -7 11 -25 8 -25 8 -7 11 -8 11 0 38 0
37 -133 0 -134 0 -6 -7z"/>
</g>
</svg>
