<?xml version="1.0" standalone="no"?>
<!DOCTYPE svg PUBLIC "-//W3C//DTD SVG 20010904//EN"
 "http://www.w3.org/TR/2001/REC-SVG-20010904/DTD/svg10.dtd">
<svg version="1.0" xmlns="http://www.w3.org/2000/svg"
 width="37.000000pt" height="38.000000pt" viewBox="0 0 37.000000 38.000000"
 preserveAspectRatio="xMidYMid meet">
<metadata>
Created by potrace 1.16, written by Peter Selinger 2001-2019
</metadata>
<g transform="translate(0.000000,38.000000) scale(0.100000,-0.100000)"
fill="#000000" stroke="none">
<path d="M90 329 l0 -49 -10 0 -10 0 0 -32 0 -33 -8 -12 -7 -11 -28 -7 -27 -7
0 -23 0 -22 19 -21 18 -22 22 0 23 0 -7 -30 -7 -30 16 -15 15 -15 40 0 41 0 0
10 0 10 15 0 15 0 0 25 0 25 9 0 9 0 5 -30 6 -30 66 0 65 0 0 53 0 52 -9 13
-8 14 -29 -4 -29 -3 -3 16 -3 16 41 7 40 6 0 51 0 52 -45 -5 -45 -6 -9 12 -9
11 -4 30 -3 30 -35 3 -35 4 -10 8 -10 8 -37 0 -38 0 0 -49z"/>
</g>
</svg>
