<?xml version="1.0" standalone="no"?>
<!DOCTYPE svg PUBLIC "-//W3C//DTD SVG 20010904//EN"
 "http://www.w3.org/TR/2001/REC-SVG-20010904/DTD/svg10.dtd">
<svg version="1.0" xmlns="http://www.w3.org/2000/svg"
 width="33.000000pt" height="35.000000pt" viewBox="0 0 33.000000 35.000000"
 preserveAspectRatio="xMidYMid meet">
<metadata>
Created by potrace 1.16, written by Peter Selinger 2001-2019
</metadata>
<g transform="translate(0.000000,35.000000) scale(0.100000,-0.100000)"
fill="#000000" stroke="none">
<path d="M300 339 l-15 -9 -26 0 -27 0 -6 -25 -6 -25 -25 0 -25 0 -6 30 -6 30
-44 0 -44 0 0 -33 0 -34 -20 -23 -19 -22 -16 6 -16 6 3 -22 3 -23 20 -3 20 -4
13 -11 14 -11 -4 -43 -3 -43 49 0 48 0 -6 -24 -6 -24 6 -16 6 -16 22 0 21 0
14 9 13 9 -4 37 -4 37 47 -6 47 -6 5 14 5 14 -5 41 -6 41 -33 6 -34 6 0 25 0
25 25 -6 26 -7 14 15 15 15 0 35 0 35 -8 5 -8 5 -14 -10z"/>
</g>
</svg>
