<?xml version="1.0" standalone="no"?>
<!DOCTYPE svg PUBLIC "-//W3C//DTD SVG 20010904//EN"
 "http://www.w3.org/TR/2001/REC-SVG-20010904/DTD/svg10.dtd">
<svg version="1.0" xmlns="http://www.w3.org/2000/svg"
 width="35.000000pt" height="37.000000pt" viewBox="0 0 35.000000 37.000000"
 preserveAspectRatio="xMidYMid meet">
<metadata>
Created by potrace 1.16, written by Peter Selinger 2001-2019
</metadata>
<g transform="translate(0.000000,37.000000) scale(0.100000,-0.100000)"
fill="#000000" stroke="none">
<path d="M300 360 l-15 -10 -26 0 -27 0 -6 -25 -6 -25 -15 0 -15 0 -6 30 -6
30 -54 0 -54 0 0 -33 0 -34 -17 -19 -18 -20 -18 4 -18 4 3 -34 3 -33 20 -3 20
-4 14 -11 13 -11 -6 -43 -6 -43 50 0 49 0 -5 -15 -6 -15 6 -25 6 -25 29 0 29
0 16 6 16 6 0 39 0 39 43 -6 44 -6 7 17 6 18 -6 48 -7 49 -33 6 -34 6 0 13 0
12 25 -4 24 -5 16 16 16 16 -3 47 -3 48 -15 2 -15 3 -15 -10z"/>
</g>
</svg>
