<?xml version="1.0" standalone="no"?>
<!DOCTYPE svg PUBLIC "-//W3C//DTD SVG 20010904//EN"
 "http://www.w3.org/TR/2001/REC-SVG-20010904/DTD/svg10.dtd">
<svg version="1.0" xmlns="http://www.w3.org/2000/svg"
 width="42.000000pt" height="28.000000pt" viewBox="0 0 42.000000 28.000000"
 preserveAspectRatio="xMidYMid meet">
<metadata>
Created by potrace 1.16, written by Peter Selinger 2001-2019
</metadata>
<g transform="translate(0.000000,28.000000) scale(0.100000,-0.100000)"
fill="#000000" stroke="none">
<path d="M230 247 l0 -35 -6 -16 -6 -16 -20 0 -19 0 -15 15 -15 14 7 26 6 25
-41 0 -41 0 0 -36 0 -35 -14 -15 -15 -14 -25 0 -26 0 0 -25 0 -25 28 0 27 0
14 -9 13 -9 -3 -46 -4 -46 37 0 36 0 16 6 16 6 0 35 0 34 28 -3 27 -3 -3 -14
-3 -13 6 -18 6 -17 41 -6 42 -6 19 22 18 22 6 27 6 28 23 0 24 0 0 35 0 35
-39 6 -40 6 -3 42 -3 41 -20 2 -20 1 -32 7 -33 8 0 -36z"/>
</g>
</svg>
