<?xml version="1.0" standalone="no"?>
<!DOCTYPE svg PUBLIC "-//W3C//DTD SVG 20010904//EN"
 "http://www.w3.org/TR/2001/REC-SVG-20010904/DTD/svg10.dtd">
<svg version="1.0" xmlns="http://www.w3.org/2000/svg"
 width="44.000000pt" height="30.000000pt" viewBox="0 0 44.000000 30.000000"
 preserveAspectRatio="xMidYMid meet">
<metadata>
Created by potrace 1.16, written by Peter Selinger 2001-2019
</metadata>
<g transform="translate(0.000000,30.000000) scale(0.100000,-0.100000)"
fill="#000000" stroke="none">
<path d="M230 267 l0 -35 -6 -16 -6 -16 -9 0 -10 0 -12 12 -13 12 4 28 4 28
-51 0 -51 0 0 -36 0 -35 -14 -15 -15 -14 -25 0 -26 0 0 -35 0 -35 28 0 27 0
14 -9 14 -9 -6 -46 -7 -46 49 0 49 0 16 6 16 6 0 34 0 34 15 0 15 0 0 -22 0
-23 8 -11 7 -11 48 -7 48 -7 20 23 20 23 6 27 6 28 23 0 24 0 0 45 0 45 -40 6
-40 7 0 38 0 38 -7 4 -8 5 -57 7 -58 7 0 -35z"/>
</g>
</svg>
