<?xml version="1.0" standalone="no"?>
<!DOCTYPE svg PUBLIC "-//W3C//DTD SVG 20010904//EN"
 "http://www.w3.org/TR/2001/REC-SVG-20010904/DTD/svg10.dtd">
<svg version="1.0" xmlns="http://www.w3.org/2000/svg"
 width="44.000000pt" height="29.000000pt" viewBox="0 0 44.000000 29.000000"
 preserveAspectRatio="xMidYMid meet">
<metadata>
Created by potrace 1.16, written by Peter Selinger 2001-2019
</metadata>
<g transform="translate(0.000000,29.000000) scale(0.100000,-0.100000)"
fill="#000000" stroke="none">
<path d="M88 243 l-3 -48 -40 -5 -40 -5 -3 -27 -3 -27 26 -7 25 -6 25 4 25 5
5 -18 6 -18 -15 -30 -16 -30 0 -16 0 -15 43 0 44 0 21 19 22 18 0 17 0 16 10
0 10 0 11 -24 11 -24 30 -6 31 -6 23 0 24 0 0 45 0 45 24 0 25 0 15 16 16 15
0 30 0 30 -14 15 -15 14 -20 0 -20 0 -3 28 -3 27 -33 -2 -33 -1 -24 -6 -24 -6
-6 -20 -6 -20 -24 0 -23 0 -6 16 -6 16 0 19 0 19 -44 0 -45 0 -3 -47z"/>
</g>
</svg>
