<?xml version="1.0" standalone="no"?>
<!DOCTYPE svg PUBLIC "-//W3C//DTD SVG 20010904//EN"
 "http://www.w3.org/TR/2001/REC-SVG-20010904/DTD/svg10.dtd">
<svg version="1.0" xmlns="http://www.w3.org/2000/svg"
 width="42.000000pt" height="27.000000pt" viewBox="0 0 42.000000 27.000000"
 preserveAspectRatio="xMidYMid meet">
<metadata>
Created by potrace 1.16, written by Peter Selinger 2001-2019
</metadata>
<g transform="translate(0.000000,27.000000) scale(0.100000,-0.100000)"
fill="#000000" stroke="none">
<path d="M90 231 l0 -39 -6 -15 -6 -15 -34 5 -34 6 -6 -18 -7 -17 14 -9 14
-10 37 6 38 5 6 -26 7 -26 -17 -34 -16 -35 0 -4 0 -5 33 0 34 0 23 20 22 19
-6 16 -5 15 25 0 24 0 11 -24 11 -24 30 -6 31 -6 13 0 14 0 0 45 0 45 24 0 25
0 15 16 16 15 0 20 0 20 -15 15 -15 15 -19 -6 -20 -6 -3 33 -3 33 -25 -2 -25
-3 -22 -5 -22 -5 -6 -20 -6 -20 -34 0 -33 0 -6 16 -6 16 0 19 0 19 -35 0 -35
0 0 -39z"/>
</g>
</svg>
