<?xml version="1.0" standalone="no"?>
<!DOCTYPE svg PUBLIC "-//W3C//DTD SVG 20010904//EN"
 "http://www.w3.org/TR/2001/REC-SVG-20010904/DTD/svg10.dtd">
<svg version="1.0" xmlns="http://www.w3.org/2000/svg"
 width="35.000000pt" height="33.000000pt" viewBox="0 0 35.000000 33.000000"
 preserveAspectRatio="xMidYMid meet">
<metadata>
Created by potrace 1.16, written by Peter Selinger 2001-2019
</metadata>
<g transform="translate(0.000000,33.000000) scale(0.100000,-0.100000)"
fill="#000000" stroke="none">
<path d="M20 298 l0 -33 8 -13 9 -13 17 7 18 7 9 -14 9 -14 0 -22 0 -23 -39
-6 -39 -6 -4 -42 -4 -41 10 -7 11 -8 33 0 32 0 0 -19 0 -19 6 -16 6 -16 33 0
34 0 6 20 6 20 27 6 27 5 21 9 21 8 0 29 0 28 7 28 6 27 24 0 24 0 4 13 5 12
-4 13 -5 12 -33 0 -33 0 -6 16 -6 16 0 29 0 30 -42 -3 -43 -3 3 -21 3 -21 -23
-7 -23 -6 -7 0 -7 0 -9 33 -8 32 -42 3 -42 3 0 -33z"/>
</g>
</svg>
