<?xml version="1.0" standalone="no"?>
<!DOCTYPE svg PUBLIC "-//W3C//DTD SVG 20010904//EN"
 "http://www.w3.org/TR/2001/REC-SVG-20010904/DTD/svg10.dtd">
<svg version="1.0" xmlns="http://www.w3.org/2000/svg"
 width="37.000000pt" height="35.000000pt" viewBox="0 0 37.000000 35.000000"
 preserveAspectRatio="xMidYMid meet">
<metadata>
Created by potrace 1.16, written by Peter Selinger 2001-2019
</metadata>
<g transform="translate(0.000000,35.000000) scale(0.100000,-0.100000)"
fill="#000000" stroke="none">
<path d="M20 308 l0 -43 9 -14 9 -14 20 5 21 6 5 -15 6 -15 0 -9 0 -9 -39 -6
-38 -6 -7 -51 -6 -51 13 -8 12 -8 33 0 32 0 0 -19 0 -19 6 -16 6 -16 43 0 44
0 6 20 6 20 27 6 27 5 22 9 23 10 0 39 0 39 6 16 6 16 23 0 24 0 6 19 5 18 -6
17 -6 16 -33 0 -33 0 -6 16 -6 16 0 29 0 30 -52 -3 -53 -3 1 -22 0 -22 -18 -4
-18 -5 -8 31 -8 32 -52 3 -52 3 0 -43z"/>
</g>
</svg>
