<?xml version="1.0" standalone="no"?>
<!DOCTYPE svg PUBLIC "-//W3C//DTD SVG 20010904//EN"
 "http://www.w3.org/TR/2001/REC-SVG-20010904/DTD/svg10.dtd">
<svg version="1.0" xmlns="http://www.w3.org/2000/svg"
 width="31.000000pt" height="37.000000pt" viewBox="0 0 31.000000 37.000000"
 preserveAspectRatio="xMidYMid meet">
<metadata>
Created by potrace 1.16, written by Peter Selinger 2001-2019
</metadata>
<g transform="translate(0.000000,37.000000) scale(0.100000,-0.100000)"
fill="#000000" stroke="none">
<path d="M134 346 l6 -25 -16 -16 -16 -16 -42 3 -41 3 -3 -24 -4 -24 7 -33 6
-33 34 -7 35 -6 0 -14 0 -14 -36 0 -35 0 -15 -14 -14 -15 0 -25 0 -25 11 -25
11 -24 59 -7 59 -7 15 15 15 16 0 10 0 11 9 0 9 0 4 -9 3 -9 53 -7 52 -7 0 24
0 23 -11 38 -10 37 -13 0 -14 0 -5 14 -6 14 15 6 16 6 19 0 19 0 0 43 0 42 -9
13 -8 14 -34 -10 -34 -9 -11 11 -11 11 5 13 4 13 -6 24 -6 25 -36 0 -36 0 6
-24z"/>
</g>
</svg>
