<?xml version="1.0" standalone="no"?>
<!DOCTYPE svg PUBLIC "-//W3C//DTD SVG 20010904//EN"
 "http://www.w3.org/TR/2001/REC-SVG-20010904/DTD/svg10.dtd">
<svg version="1.0" xmlns="http://www.w3.org/2000/svg"
 width="34.000000pt" height="41.000000pt" viewBox="0 0 34.000000 41.000000"
 preserveAspectRatio="xMidYMid meet">
<metadata>
Created by potrace 1.16, written by Peter Selinger 2001-2019
</metadata>
<g transform="translate(0.000000,41.000000) scale(0.100000,-0.100000)"
fill="#000000" stroke="none">
<path d="M189 403 l-1 -8 1 -17 2 -18 -15 0 -16 0 0 -10 0 -10 -35 0 -35 0 0
-45 0 -45 -22 -4 -23 -5 -20 -3 -20 -3 -3 -18 -3 -17 23 0 23 0 13 -9 14 -8 5
-44 6 -44 11 -7 11 -8 32 0 32 0 11 -40 11 -40 23 0 24 0 6 16 6 16 0 30 0 30
41 -7 41 -7 -6 18 -5 19 -7 28 -6 27 -23 6 -23 6 -6 24 -7 25 15 14 15 15 24
0 25 0 5 13 4 12 -4 33 -5 32 -44 0 -44 0 -6 30 -6 30 -19 0 -19 0 -1 -7z"/>
</g>
</svg>
