<?xml version="1.0" standalone="no"?>
<!DOCTYPE svg PUBLIC "-//W3C//DTD SVG 20010904//EN"
 "http://www.w3.org/TR/2001/REC-SVG-20010904/DTD/svg10.dtd">
<svg version="1.0" xmlns="http://www.w3.org/2000/svg"
 width="30.000000pt" height="39.000000pt" viewBox="0 0 30.000000 39.000000"
 preserveAspectRatio="xMidYMid meet">
<metadata>
Created by potrace 1.16, written by Peter Selinger 2001-2019
</metadata>
<g transform="translate(0.000000,39.000000) scale(0.100000,-0.100000)"
fill="#000000" stroke="none">
<path d="M110 356 l0 -36 -25 -6 -26 -6 -29 6 -30 6 0 -41 0 -40 14 -15 15
-14 20 0 21 0 0 -15 0 -15 -24 -11 -24 -11 -7 -35 -6 -34 6 -18 6 -19 38 5 38
5 6 -31 7 -31 30 0 30 0 0 24 0 24 55 4 55 5 5 5 5 5 6 47 7 48 -14 9 -14 9
-27 0 -28 0 0 26 0 26 29 -7 29 -6 7 21 7 21 -7 26 -6 25 -49 -7 -49 -7 -5 24
-5 23 -3 20 -3 20 -28 3 -27 3 0 -35z"/>
</g>
</svg>
