<?xml version="1.0" standalone="no"?>
<!DOCTYPE svg PUBLIC "-//W3C//DTD SVG 20010904//EN"
 "http://www.w3.org/TR/2001/REC-SVG-20010904/DTD/svg10.dtd">
<svg version="1.0" xmlns="http://www.w3.org/2000/svg"
 width="36.000000pt" height="43.000000pt" viewBox="0 0 36.000000 43.000000"
 preserveAspectRatio="xMidYMid meet">
<metadata>
Created by potrace 1.16, written by Peter Selinger 2001-2019
</metadata>
<g transform="translate(0.000000,43.000000) scale(0.100000,-0.100000)"
fill="#000000" stroke="none">
<path d="M184 415 l-6 -14 7 -11 6 -10 -15 0 -16 0 0 -10 0 -10 -35 0 -35 0 0
-45 0 -45 -22 -4 -23 -5 -20 -3 -20 -3 -3 -28 -3 -27 23 0 23 0 13 -9 14 -8 5
-44 6 -44 11 -7 11 -8 32 0 32 0 11 -40 11 -40 33 0 34 0 6 16 6 16 0 28 0 28
40 -5 40 -6 0 12 0 12 -11 45 -11 44 -23 6 -23 6 -5 17 -4 17 13 12 13 12 25
0 24 0 6 16 6 16 -6 39 -7 39 -44 0 -43 0 -6 30 -6 30 -30 0 -29 0 -5 -15z"/>
</g>
</svg>
