<?xml version="1.0" standalone="no"?>
<!DOCTYPE svg PUBLIC "-//W3C//DTD SVG 20010904//EN"
 "http://www.w3.org/TR/2001/REC-SVG-20010904/DTD/svg10.dtd">
<svg version="1.0" xmlns="http://www.w3.org/2000/svg"
 width="29.000000pt" height="35.000000pt" viewBox="0 0 29.000000 35.000000"
 preserveAspectRatio="xMidYMid meet">
<metadata>
Created by potrace 1.16, written by Peter Selinger 2001-2019
</metadata>
<g transform="translate(0.000000,35.000000) scale(0.100000,-0.100000)"
fill="#000000" stroke="none">
<path d="M137 327 l5 -24 -18 -17 -17 -17 -40 3 -41 2 -4 -12 -4 -13 6 -34 7
-34 34 -7 35 -6 0 -24 0 -24 -22 -1 -23 -1 -13 1 -12 2 -15 -15 -15 -15 0 -15
0 -15 11 -24 11 -25 49 -6 50 -7 14 15 15 15 0 25 0 26 10 0 10 0 0 -11 0 -10
13 -13 12 -13 43 -6 42 -7 0 12 0 13 -11 38 -10 37 -14 0 -14 0 -6 21 -7 21
13 9 14 9 23 0 22 0 0 29 0 29 -6 15 -5 15 -35 -10 -34 -9 -16 16 -16 16 6 16
6 16 -5 18 -6 19 -23 0 -23 0 4 -23z"/>
</g>
</svg>
