<?xml version="1.0" standalone="no"?>
<!DOCTYPE svg PUBLIC "-//W3C//DTD SVG 20010904//EN"
 "http://www.w3.org/TR/2001/REC-SVG-20010904/DTD/svg10.dtd">
<svg version="1.0" xmlns="http://www.w3.org/2000/svg"
 width="35.000000pt" height="33.000000pt" viewBox="0 0 35.000000 33.000000"
 preserveAspectRatio="xMidYMid meet">
<metadata>
Created by potrace 1.16, written by Peter Selinger 2001-2019
</metadata>
<g transform="translate(0.000000,33.000000) scale(0.100000,-0.100000)"
fill="#000000" stroke="none">
<path d="M116 315 l6 -16 -23 -20 -24 -21 -37 4 -38 4 0 -28 0 -27 12 -26 11
-25 19 0 18 0 0 -20 0 -20 -9 0 -10 0 -15 -16 -16 -15 0 -45 0 -44 39 0 39 0
16 6 16 6 0 34 0 34 25 0 24 0 -6 -16 -6 -16 14 -9 14 -9 38 -11 39 -10 19 22
19 22 0 27 0 28 25 6 25 6 0 21 0 20 -15 15 -15 15 -20 -6 -20 -6 0 51 0 51
-10 -6 -11 -7 -38 7 -38 6 -11 25 -12 24 -24 0 -25 0 5 -15z"/>
</g>
</svg>
