<?xml version="1.0" standalone="no"?>
<!DOCTYPE svg PUBLIC "-//W3C//DTD SVG 20010904//EN"
 "http://www.w3.org/TR/2001/REC-SVG-20010904/DTD/svg10.dtd">
<svg version="1.0" xmlns="http://www.w3.org/2000/svg"
 width="32.000000pt" height="41.000000pt" viewBox="0 0 32.000000 41.000000"
 preserveAspectRatio="xMidYMid meet">
<metadata>
Created by potrace 1.16, written by Peter Selinger 2001-2019
</metadata>
<g transform="translate(0.000000,41.000000) scale(0.100000,-0.100000)"
fill="#000000" stroke="none">
<path d="M110 376 l0 -35 -20 -6 -19 -6 -36 7 -35 6 0 -52 0 -51 13 -14 14
-13 24 -4 24 -4 -27 -14 -27 -13 -7 -42 -6 -43 7 -22 7 -21 38 6 37 6 6 -30 6
-31 41 0 40 0 0 24 0 24 55 4 55 5 6 5 5 6 6 57 6 57 -14 9 -14 9 -27 0 -28 0
0 14 0 13 26 -5 26 -5 9 14 9 14 0 30 0 30 -9 14 -9 14 -46 -6 -46 -7 -4 23
-5 22 -3 20 -3 20 -38 3 -37 3 0 -35z"/>
</g>
</svg>
