<?xml version="1.0" standalone="no"?>
<!DOCTYPE svg PUBLIC "-//W3C//DTD SVG 20010904//EN"
 "http://www.w3.org/TR/2001/REC-SVG-20010904/DTD/svg10.dtd">
<svg version="1.0" xmlns="http://www.w3.org/2000/svg"
 width="37.000000pt" height="35.000000pt" viewBox="0 0 37.000000 35.000000"
 preserveAspectRatio="xMidYMid meet">
<metadata>
Created by potrace 1.16, written by Peter Selinger 2001-2019
</metadata>
<g transform="translate(0.000000,35.000000) scale(0.100000,-0.100000)"
fill="#000000" stroke="none">
<path d="M112 333 l4 -18 -21 -18 -20 -19 -37 6 -38 6 0 -39 0 -40 12 -26 11
-25 19 0 18 0 0 -10 0 -10 -9 0 -10 0 -15 -16 -16 -15 0 -55 0 -54 49 0 49 0
16 6 16 6 0 34 0 34 10 0 10 0 0 -18 0 -19 24 -11 24 -11 36 -7 37 -6 19 22
20 23 0 27 0 28 25 6 25 6 0 31 0 30 -14 15 -15 14 -20 0 -21 0 0 46 0 46 -21
-5 -22 -6 -27 6 -28 5 -11 24 -11 24 -36 0 -35 0 3 -17z"/>
</g>
</svg>
