<?xml version="1.0" standalone="no"?>
<!DOCTYPE svg PUBLIC "-//W3C//DTD SVG 20010904//EN"
 "http://www.w3.org/TR/2001/REC-SVG-20010904/DTD/svg10.dtd">
<svg version="1.0" xmlns="http://www.w3.org/2000/svg"
 width="46.000000pt" height="38.000000pt" viewBox="0 0 46.000000 38.000000"
 preserveAspectRatio="xMidYMid meet">
<metadata>
Created by potrace 1.16, written by Peter Selinger 2001-2019
</metadata>
<g transform="translate(0.000000,38.000000) scale(0.100000,-0.100000)"
fill="#000000" stroke="none">
<path d="M200 346 l0 -34 -16 -6 -16 -6 -44 0 -44 0 0 -34 0 -34 -35 -6 -35
-7 -6 -25 -6 -24 12 -30 12 -30 18 0 17 0 13 -39 13 -39 21 -6 21 -6 33 0 33
0 15 14 14 15 0 25 0 26 9 0 10 0 7 -12 8 -12 -2 -32 -3 -32 21 -7 20 -6 31 6
30 7 25 25 25 25 6 28 5 29 24 18 24 18 0 17 0 16 -6 16 -6 16 -28 0 -28 0 -6
16 -6 16 0 28 0 28 -36 7 -36 6 -23 11 -23 10 5 19 5 19 -36 0 -36 0 0 -34z"/>
</g>
</svg>
