<?xml version="1.0" standalone="no"?>
<!DOCTYPE svg PUBLIC "-//W3C//DTD SVG 20010904//EN"
 "http://www.w3.org/TR/2001/REC-SVG-20010904/DTD/svg10.dtd">
<svg version="1.0" xmlns="http://www.w3.org/2000/svg"
 width="29.000000pt" height="42.000000pt" viewBox="0 0 29.000000 42.000000"
 preserveAspectRatio="xMidYMid meet">
<metadata>
Created by potrace 1.16, written by Peter Selinger 2001-2019
</metadata>
<g transform="translate(0.000000,42.000000) scale(0.100000,-0.100000)"
fill="#000000" stroke="none">
<path d="M110 379 l-11 -42 -50 6 -49 6 0 -44 0 -44 35 -7 35 -6 0 -24 0 -23
-15 5 -14 6 -14 -14 -14 -13 -6 -38 -6 -38 6 -15 5 -14 49 0 49 0 0 -24 0 -24
6 -16 6 -16 23 0 24 0 16 16 16 17 -5 23 -6 24 26 0 25 0 15 15 15 14 -11 41
-11 40 -15 0 -15 0 3 27 3 27 33 8 32 9 0 28 0 29 -5 15 -6 14 -51 -5 -50 -5
-9 14 -9 14 0 28 0 27 -20 0 -19 0 -11 -41z"/>
</g>
</svg>
