<?xml version="1.0" standalone="no"?>
<!DOCTYPE svg PUBLIC "-//W3C//DTD SVG 20010904//EN"
 "http://www.w3.org/TR/2001/REC-SVG-20010904/DTD/svg10.dtd">
<svg version="1.0" xmlns="http://www.w3.org/2000/svg"
 width="31.000000pt" height="44.000000pt" viewBox="0 0 31.000000 44.000000"
 preserveAspectRatio="xMidYMid meet">
<metadata>
Created by potrace 1.16, written by Peter Selinger 2001-2019
</metadata>
<g transform="translate(0.000000,44.000000) scale(0.100000,-0.100000)"
fill="#000000" stroke="none">
<path d="M110 399 l-11 -41 -50 7 -49 7 0 -56 0 -55 35 -7 35 -6 0 -9 0 -9
-16 0 -15 0 -13 -13 -13 -13 -7 -45 -7 -46 7 -16 6 -17 49 0 49 0 0 -24 0 -24
6 -16 6 -16 33 0 34 0 15 16 16 15 0 25 0 24 21 0 20 0 15 14 14 15 0 13 0 13
-11 38 -10 37 -15 0 -15 0 3 17 3 17 33 8 32 9 0 38 0 39 -6 16 -6 16 -50 -6
-50 -7 -9 14 -9 14 0 28 0 27 -30 0 -29 0 -11 -41z"/>
</g>
</svg>
