<?xml version="1.0" standalone="no"?>
<!DOCTYPE svg PUBLIC "-//W3C//DTD SVG 20010904//EN"
 "http://www.w3.org/TR/2001/REC-SVG-20010904/DTD/svg10.dtd">
<svg version="1.0" xmlns="http://www.w3.org/2000/svg"
 width="44.000000pt" height="36.000000pt" viewBox="0 0 44.000000 36.000000"
 preserveAspectRatio="xMidYMid meet">
<metadata>
Created by potrace 1.16, written by Peter Selinger 2001-2019
</metadata>
<g transform="translate(0.000000,36.000000) scale(0.100000,-0.100000)"
fill="#000000" stroke="none">
<path d="M200 326 l0 -34 -16 -6 -16 -6 -44 0 -44 0 0 -34 0 -34 -34 -6 -35
-7 -6 -18 -6 -19 13 -27 12 -26 16 4 16 4 13 -42 13 -43 21 -6 22 -6 23 0 23
0 15 14 14 15 0 25 0 26 20 0 19 0 11 -20 10 -20 -6 -24 -6 -24 20 -6 19 -7
28 11 28 11 19 21 19 22 6 25 6 26 24 22 25 22 -7 20 -6 21 -29 0 -28 0 -6 16
-6 16 0 28 0 28 -36 7 -36 6 -25 12 -24 11 4 18 5 18 -24 0 -24 0 0 -34z"/>
</g>
</svg>
