<?xml version="1.0" standalone="no"?>
<!DOCTYPE svg PUBLIC "-//W3C//DTD SVG 20010904//EN"
 "http://www.w3.org/TR/2001/REC-SVG-20010904/DTD/svg10.dtd">
<svg version="1.0" xmlns="http://www.w3.org/2000/svg"
 width="38.000000pt" height="35.000000pt" viewBox="0 0 38.000000 35.000000"
 preserveAspectRatio="xMidYMid meet">
<metadata>
Created by potrace 1.16, written by Peter Selinger 2001-2019
</metadata>
<g transform="translate(0.000000,35.000000) scale(0.100000,-0.100000)"
fill="#000000" stroke="none">
<path d="M210 329 l0 -22 -22 -19 -22 -19 -41 3 -40 3 -3 -37 -3 -38 -25 0
-25 0 -15 -14 -14 -15 0 -26 0 -26 14 -15 15 -14 20 0 21 0 0 -22 0 -23 6 -22
6 -23 128 0 128 0 16 6 16 6 0 17 0 16 -11 38 -10 37 -14 0 -15 0 0 20 0 20
24 0 24 0 6 16 6 16 0 36 0 37 -9 13 -8 14 -14 -3 -14 -3 -32 8 -32 7 -3 22
-3 22 -27 3 -28 3 0 -22z"/>
</g>
</svg>
