<?xml version="1.0" standalone="no"?>
<!DOCTYPE svg PUBLIC "-//W3C//DTD SVG 20010904//EN"
 "http://www.w3.org/TR/2001/REC-SVG-20010904/DTD/svg10.dtd">
<svg version="1.0" xmlns="http://www.w3.org/2000/svg"
 width="36.000000pt" height="33.000000pt" viewBox="0 0 36.000000 33.000000"
 preserveAspectRatio="xMidYMid meet">
<metadata>
Created by potrace 1.16, written by Peter Selinger 2001-2019
</metadata>
<g transform="translate(0.000000,33.000000) scale(0.100000,-0.100000)"
fill="#000000" stroke="none">
<path d="M210 309 l0 -22 -22 -19 -22 -19 -41 3 -40 3 -3 -38 -3 -37 -25 0
-25 0 -15 -14 -14 -15 0 -16 0 -16 14 -15 15 -14 20 0 21 0 0 -22 0 -23 6 -23
6 -22 122 0 121 0 13 9 14 8 -12 42 -11 41 -13 0 -14 0 -4 17 -5 18 4 13 5 12
23 0 23 0 6 16 6 16 0 23 0 23 -6 16 -6 16 -9 -6 -9 -5 -39 12 -40 12 -3 21
-3 21 -17 3 -18 3 0 -22z"/>
</g>
</svg>
