<?xml version="1.0" standalone="no"?>
<!DOCTYPE svg PUBLIC "-//W3C//DTD SVG 20010904//EN"
 "http://www.w3.org/TR/2001/REC-SVG-20010904/DTD/svg10.dtd">
<svg version="1.0" xmlns="http://www.w3.org/2000/svg"
 width="36.000000pt" height="40.000000pt" viewBox="0 0 36.000000 40.000000"
 preserveAspectRatio="xMidYMid meet">
<metadata>
Created by potrace 1.16, written by Peter Selinger 2001-2019
</metadata>
<g transform="translate(0.000000,40.000000) scale(0.100000,-0.100000)"
fill="#000000" stroke="none">
<path d="M130 374 l0 -25 -15 -15 -14 -15 -51 7 -50 7 0 -32 0 -32 13 -14 13
-13 20 -4 19 -3 3 -21 3 -21 -29 -6 -30 -6 -6 -36 -7 -36 6 -19 6 -20 50 0 49
0 0 -21 0 -20 14 -15 15 -14 6 0 6 0 15 14 14 15 0 27 0 27 29 -6 28 -6 22 6
21 5 0 49 0 48 15 -5 15 -6 25 6 25 6 0 21 0 20 -15 16 -16 15 -24 -5 -25 -4
0 41 0 41 -8 10 -7 10 -45 3 -45 4 -3 9 -4 9 -9 -6 -9 -5 0 20 0 21 -10 0 -10
0 0 -26z"/>
</g>
</svg>
