<?xml version="1.0" standalone="no"?>
<!DOCTYPE svg PUBLIC "-//W3C//DTD SVG 20010904//EN"
 "http://www.w3.org/TR/2001/REC-SVG-20010904/DTD/svg10.dtd">
<svg version="1.0" xmlns="http://www.w3.org/2000/svg"
 width="38.000000pt" height="42.000000pt" viewBox="0 0 38.000000 42.000000"
 preserveAspectRatio="xMidYMid meet">
<metadata>
Created by potrace 1.16, written by Peter Selinger 2001-2019
</metadata>
<g transform="translate(0.000000,42.000000) scale(0.100000,-0.100000)"
fill="#000000" stroke="none">
<path d="M130 395 l0 -26 -12 -13 -13 -14 -53 5 -52 6 0 -42 0 -42 13 -14 13
-13 19 -3 18 -4 4 -11 4 -11 -30 -6 -30 -6 -6 -45 -7 -44 7 -21 6 -21 50 0 49
0 0 -21 0 -20 14 -15 15 -14 16 0 16 0 15 14 14 15 0 26 0 26 20 -6 20 -6 30
6 30 7 0 44 0 44 24 0 24 0 16 6 16 6 0 30 0 29 -14 15 -15 14 -25 0 -26 0 0
38 0 37 -8 11 -7 11 -43 1 -43 2 -15 14 -14 15 0 10 0 11 -20 0 -20 0 0 -25z"/>
</g>
</svg>
