<?xml version="1.0" standalone="no"?>
<!DOCTYPE svg PUBLIC "-//W3C//DTD SVG 20010904//EN"
 "http://www.w3.org/TR/2001/REC-SVG-20010904/DTD/svg10.dtd">
<svg version="1.0" xmlns="http://www.w3.org/2000/svg"
 width="28.000000pt" height="34.000000pt" viewBox="0 0 28.000000 34.000000"
 preserveAspectRatio="xMidYMid meet">
<metadata>
Created by potrace 1.16, written by Peter Selinger 2001-2019
</metadata>
<g transform="translate(0.000000,34.000000) scale(0.100000,-0.100000)"
fill="#000000" stroke="none">
<path d="M16 309 l-6 -31 0 -15 0 -15 23 4 23 4 12 -12 12 -13 0 -11 0 -11
-12 -13 -12 -13 -18 5 -18 4 0 -41 0 -41 -10 0 -10 0 0 -19 0 -19 16 -6 16 -6
38 0 38 0 6 -30 6 -30 35 0 35 0 6 25 6 25 23 0 23 0 16 6 16 6 0 60 0 59 -17
-2 -18 -3 -22 8 -23 7 0 12 0 12 8 12 8 12 29 -2 30 -2 3 54 3 54 -23 -7 -23
-8 -30 -7 -30 -7 -3 -21 -3 -22 -21 -7 -20 -6 -9 13 -9 14 0 28 0 27 -44 0
-43 0 -7 -31z"/>
</g>
</svg>
