<?xml version="1.0" standalone="no"?>
<!DOCTYPE svg PUBLIC "-//W3C//DTD SVG 20010904//EN"
 "http://www.w3.org/TR/2001/REC-SVG-20010904/DTD/svg10.dtd">
<svg version="1.0" xmlns="http://www.w3.org/2000/svg"
 width="26.000000pt" height="32.000000pt" viewBox="0 0 26.000000 32.000000"
 preserveAspectRatio="xMidYMid meet">
<metadata>
Created by potrace 1.16, written by Peter Selinger 2001-2019
</metadata>
<g transform="translate(0.000000,32.000000) scale(0.100000,-0.100000)"
fill="#000000" stroke="none">
<path d="M20 308 l0 -13 -7 -24 -6 -23 22 7 21 6 15 -15 15 -15 0 -21 0 -21
-15 -16 -16 -15 -14 6 -15 5 0 -38 0 -39 -12 -5 -13 -5 15 -11 15 -11 41 0 42
0 6 -30 6 -30 25 0 25 0 6 25 6 25 23 0 23 0 16 6 16 6 0 50 0 49 -11 -6 -10
-7 -30 12 -29 12 0 22 0 21 9 13 8 14 29 -4 29 -3 3 42 3 42 -33 -11 -33 -11
-12 -3 -13 -3 0 -20 0 -19 -16 -6 -16 -6 -18 0 -18 0 -6 16 -6 16 0 24 0 24
-35 0 -35 0 0 -12z"/>
</g>
</svg>
