<?xml version="1.0" standalone="no"?>
<!DOCTYPE svg PUBLIC "-//W3C//DTD SVG 20010904//EN"
 "http://www.w3.org/TR/2001/REC-SVG-20010904/DTD/svg10.dtd">
<svg version="1.0" xmlns="http://www.w3.org/2000/svg"
 width="27.000000pt" height="34.000000pt" viewBox="0 0 27.000000 34.000000"
 preserveAspectRatio="xMidYMid meet">
<metadata>
Created by potrace 1.16, written by Peter Selinger 2001-2019
</metadata>
<g transform="translate(0.000000,34.000000) scale(0.100000,-0.100000)"
fill="#000000" stroke="none">
<path d="M180 301 l0 -39 -16 -6 -16 -6 -15 0 -14 0 -15 14 -14 15 0 19 0 20
-37 5 -38 4 -7 -4 -8 -4 0 -40 0 -40 15 -15 14 -15 26 7 27 7 -4 -24 -3 -24
-18 3 -19 3 -19 -22 -19 -22 0 -32 0 -33 22 -6 23 -6 23 0 22 0 0 -24 0 -24
24 -6 24 -6 16 6 15 6 6 18 5 17 -6 18 -7 18 41 -7 42 -6 0 19 0 20 -12 26
-11 25 -9 0 -9 0 -15 14 -14 15 0 19 0 20 16 6 16 6 26 0 27 0 -3 44 -4 44
-21 6 -22 6 -17 0 -18 0 0 -39z"/>
</g>
</svg>
