<?xml version="1.0" standalone="no"?>
<!DOCTYPE svg PUBLIC "-//W3C//DTD SVG 20010904//EN"
 "http://www.w3.org/TR/2001/REC-SVG-20010904/DTD/svg10.dtd">
<svg version="1.0" xmlns="http://www.w3.org/2000/svg"
 width="29.000000pt" height="36.000000pt" viewBox="0 0 29.000000 36.000000"
 preserveAspectRatio="xMidYMid meet">
<metadata>
Created by potrace 1.16, written by Peter Selinger 2001-2019
</metadata>
<g transform="translate(0.000000,36.000000) scale(0.100000,-0.100000)"
fill="#000000" stroke="none">
<path d="M180 321 l0 -40 -20 -6 -20 -6 -15 15 -15 15 0 19 0 19 -46 7 -46 6
-9 -6 -9 -5 0 -50 0 -50 15 -16 16 -15 24 5 25 4 0 -8 0 -9 -21 0 -22 0 -18
-22 -19 -21 0 -42 0 -43 23 -6 22 -6 23 0 22 0 0 -24 0 -24 23 -6 22 -6 17 0
17 0 15 16 16 15 0 24 0 24 35 -6 35 -6 0 31 0 31 -12 26 -11 25 -9 0 -9 0
-15 14 -14 15 0 9 0 10 16 6 16 6 26 0 27 0 0 59 0 58 -52 2 -53 1 0 -39z"/>
</g>
</svg>
