<?xml version="1.0" standalone="no"?>
<!DOCTYPE svg PUBLIC "-//W3C//DTD SVG 20010904//EN"
 "http://www.w3.org/TR/2001/REC-SVG-20010904/DTD/svg10.dtd">
<svg version="1.0" xmlns="http://www.w3.org/2000/svg"
 width="35.000000pt" height="33.000000pt" viewBox="0 0 35.000000 33.000000"
 preserveAspectRatio="xMidYMid meet">
<metadata>
Created by potrace 1.16, written by Peter Selinger 2001-2019
</metadata>
<g transform="translate(0.000000,33.000000) scale(0.100000,-0.100000)"
fill="#000000" stroke="none">
<path d="M110 305 l0 -25 -25 -6 -26 -6 -29 6 -30 6 0 -55 0 -54 37 -3 38 -3
3 -20 3 -20 4 -21 5 -21 37 1 38 1 3 -32 3 -32 14 -11 13 -11 34 6 33 6 -4 46
-3 45 13 9 14 9 33 0 33 0 -3 27 -3 28 -20 3 -20 3 -22 5 -23 4 0 38 0 38 -47
15 -48 15 3 17 3 17 -31 0 -30 0 0 -25z"/>
</g>
</svg>
