<?xml version="1.0" standalone="no"?>
<!DOCTYPE svg PUBLIC "-//W3C//DTD SVG 20010904//EN"
 "http://www.w3.org/TR/2001/REC-SVG-20010904/DTD/svg10.dtd">
<svg version="1.0" xmlns="http://www.w3.org/2000/svg"
 width="45.000000pt" height="38.000000pt" viewBox="0 0 45.000000 38.000000"
 preserveAspectRatio="xMidYMid meet">
<metadata>
Created by potrace 1.16, written by Peter Selinger 2001-2019
</metadata>
<g transform="translate(0.000000,38.000000) scale(0.100000,-0.100000)"
fill="#000000" stroke="none">
<path d="M185 370 l-6 -9 6 -24 6 -23 -26 -12 -26 -12 -34 0 -34 0 -3 -37 -3
-37 -33 -8 -32 -9 0 -30 0 -30 14 -15 15 -14 14 0 14 0 6 -35 6 -35 15 -15 15
-15 34 0 35 0 16 6 16 6 0 35 0 34 17 -3 18 -3 6 -38 6 -37 6 -6 6 -6 54 6 55
7 17 45 17 44 18 0 18 0 6 16 6 16 0 38 0 38 -16 6 -16 6 -24 0 -24 0 0 36 0
37 -49 -6 -49 -6 -6 15 -6 16 0 34 0 34 -34 0 -35 0 -6 -10z"/>
</g>
</svg>
