<?xml version="1.0" standalone="no"?>
<!DOCTYPE svg PUBLIC "-//W3C//DTD SVG 20010904//EN"
 "http://www.w3.org/TR/2001/REC-SVG-20010904/DTD/svg10.dtd">
<svg version="1.0" xmlns="http://www.w3.org/2000/svg"
 width="37.000000pt" height="35.000000pt" viewBox="0 0 37.000000 35.000000"
 preserveAspectRatio="xMidYMid meet">
<metadata>
Created by potrace 1.16, written by Peter Selinger 2001-2019
</metadata>
<g transform="translate(0.000000,35.000000) scale(0.100000,-0.100000)"
fill="#000000" stroke="none">
<path d="M110 326 l0 -25 -20 -6 -19 -6 -36 7 -35 6 0 -65 0 -66 37 -3 38 -3
3 -20 3 -20 5 -23 5 -23 37 3 37 3 3 -32 3 -32 14 -11 15 -12 45 6 44 7 -6 46
-6 45 14 9 14 9 33 0 33 0 -3 37 -3 38 -20 3 -20 3 -22 5 -23 4 0 39 0 38 -45
13 -45 13 0 18 0 19 -40 0 -40 0 0 -24z"/>
</g>
</svg>
