<?xml version="1.0" standalone="no"?>
<!DOCTYPE svg PUBLIC "-//W3C//DTD SVG 20010904//EN"
 "http://www.w3.org/TR/2001/REC-SVG-20010904/DTD/svg10.dtd">
<svg version="1.0" xmlns="http://www.w3.org/2000/svg"
 width="43.000000pt" height="36.000000pt" viewBox="0 0 43.000000 36.000000"
 preserveAspectRatio="xMidYMid meet">
<metadata>
Created by potrace 1.16, written by Peter Selinger 2001-2019
</metadata>
<g transform="translate(0.000000,36.000000) scale(0.100000,-0.100000)"
fill="#000000" stroke="none">
<path d="M189 353 l-1 -8 1 -26 2 -25 -26 -12 -26 -12 -34 0 -34 0 -3 -37 -3
-37 -33 -8 -32 -9 0 -20 0 -20 15 -16 16 -15 13 5 14 5 5 -39 5 -38 15 -16 16
-15 24 0 25 0 16 6 16 6 0 35 0 34 27 -3 28 -3 6 -38 6 -37 6 -6 5 -6 45 7 46
7 17 48 17 48 15 -5 14 -6 9 14 9 14 0 31 0 32 -16 6 -16 6 -24 0 -24 0 0 36
0 36 -46 -7 -47 -7 -8 14 -9 13 0 38 0 37 -25 0 -25 0 -1 -7z"/>
</g>
</svg>
