<?xml version="1.0" standalone="no"?>
<!DOCTYPE svg PUBLIC "-//W3C//DTD SVG 20010904//EN"
 "http://www.w3.org/TR/2001/REC-SVG-20010904/DTD/svg10.dtd">
<svg version="1.0" xmlns="http://www.w3.org/2000/svg"
 width="45.000000pt" height="42.000000pt" viewBox="0 0 45.000000 42.000000"
 preserveAspectRatio="xMidYMid meet">
<metadata>
Created by potrace 1.16, written by Peter Selinger 2001-2019
</metadata>
<g transform="translate(0.000000,42.000000) scale(0.100000,-0.100000)"
fill="#000000" stroke="none">
<path d="M210 394 l0 -25 -16 -16 -15 -16 -45 7 -44 6 0 -34 0 -34 -6 -15 -5
-14 -24 5 -24 4 -16 -16 -16 -16 6 -20 6 -20 27 -7 27 -6 7 -11 8 -11 0 -23 0
-23 14 -15 15 -14 41 0 42 0 -6 -25 -7 -26 15 -14 15 -15 23 0 23 0 14 9 15
10 0 40 1 41 47 0 47 0 11 39 10 39 25 6 25 6 0 24 0 24 -16 6 -16 6 -18 0
-18 0 -6 16 -6 16 0 23 0 24 -9 5 -9 6 -27 -10 -28 -11 -19 7 -20 6 6 24 6 24
-10 20 -11 20 -19 0 -20 0 0 -26z"/>
</g>
</svg>
