<?xml version="1.0" standalone="no"?>
<!DOCTYPE svg PUBLIC "-//W3C//DTD SVG 20010904//EN"
 "http://www.w3.org/TR/2001/REC-SVG-20010904/DTD/svg10.dtd">
<svg version="1.0" xmlns="http://www.w3.org/2000/svg"
 width="47.000000pt" height="44.000000pt" viewBox="0 0 47.000000 44.000000"
 preserveAspectRatio="xMidYMid meet">
<metadata>
Created by potrace 1.16, written by Peter Selinger 2001-2019
</metadata>
<g transform="translate(0.000000,44.000000) scale(0.100000,-0.100000)"
fill="#000000" stroke="none">
<path d="M210 414 l0 -25 -15 -15 -15 -15 -44 6 -45 7 -3 -43 -3 -44 -29 -3
-29 -4 -14 -13 -13 -14 0 -20 0 -20 16 -15 15 -16 19 0 18 0 6 -16 6 -16 0
-20 0 -19 14 -15 15 -14 39 0 39 0 -4 -25 -5 -24 15 -16 16 -15 33 0 33 0 13
9 14 8 5 42 6 41 43 0 43 0 11 39 10 39 25 6 25 6 0 34 0 34 -16 6 -16 6 -18
0 -18 0 -6 16 -6 16 0 24 0 25 -15 5 -15 6 -27 -9 -28 -10 -11 4 -11 4 4 23 5
24 -11 21 -12 21 -29 0 -30 0 0 -26z"/>
</g>
</svg>
