<?xml version="1.0" standalone="no"?>
<!DOCTYPE svg PUBLIC "-//W3C//DTD SVG 20010904//EN"
 "http://www.w3.org/TR/2001/REC-SVG-20010904/DTD/svg10.dtd">
<svg version="1.0" xmlns="http://www.w3.org/2000/svg"
 width="36.000000pt" height="30.000000pt" viewBox="0 0 36.000000 30.000000"
 preserveAspectRatio="xMidYMid meet">
<metadata>
Created by potrace 1.16, written by Peter Selinger 2001-2019
</metadata>
<g transform="translate(0.000000,30.000000) scale(0.100000,-0.100000)"
fill="#000000" stroke="none">
<path d="M183 278 l6 -22 -5 -23 -6 -23 -24 -6 -23 -6 -13 13 -14 13 4 28 4
28 -57 0 -57 0 6 -22 6 -23 0 -27 0 -28 29 0 30 0 6 -21 7 -21 -13 -9 -14 -9
-27 0 -28 0 0 -22 0 -23 6 -38 7 -37 42 0 42 0 21 19 22 18 0 22 0 22 10 -6
10 -6 0 -18 0 -18 39 -11 38 -12 17 0 16 0 0 45 0 46 12 12 11 13 34 -4 33 -4
0 37 0 37 -34 -6 -33 -6 -13 29 -12 30 7 30 7 31 -52 0 -52 0 5 -22z"/>
</g>
</svg>
