<?xml version="1.0" standalone="no"?>
<!DOCTYPE svg PUBLIC "-//W3C//DTD SVG 20010904//EN"
 "http://www.w3.org/TR/2001/REC-SVG-20010904/DTD/svg10.dtd">
<svg version="1.0" xmlns="http://www.w3.org/2000/svg"
 width="34.000000pt" height="28.000000pt" viewBox="0 0 34.000000 28.000000"
 preserveAspectRatio="xMidYMid meet">
<metadata>
Created by potrace 1.16, written by Peter Selinger 2001-2019
</metadata>
<g transform="translate(0.000000,28.000000) scale(0.100000,-0.100000)"
fill="#000000" stroke="none">
<path d="M184 239 l0 -40 -15 -10 -14 -9 -23 0 -23 0 -15 15 -15 14 7 26 6 25
-44 0 -44 0 4 -40 4 -41 18 6 18 6 16 -16 16 -16 0 -24 0 -23 -16 -6 -16 -6
-24 0 -24 0 0 -12 0 -13 6 -38 7 -37 32 0 32 0 21 19 22 18 0 22 0 22 18 -3
17 -3 3 -21 3 -21 38 -12 38 -11 7 0 6 0 0 46 0 45 14 15 14 14 31 -6 31 -6 0
25 0 26 -33 -6 -34 -5 -13 31 -12 31 4 28 4 29 -35 1 -36 2 -1 -41z"/>
</g>
</svg>
