<?xml version="1.0" standalone="no"?>
<!DOCTYPE svg PUBLIC "-//W3C//DTD SVG 20010904//EN"
 "http://www.w3.org/TR/2001/REC-SVG-20010904/DTD/svg10.dtd">
<svg version="1.0" xmlns="http://www.w3.org/2000/svg"
 width="27.000000pt" height="29.000000pt" viewBox="0 0 27.000000 29.000000"
 preserveAspectRatio="xMidYMid meet">
<metadata>
Created by potrace 1.16, written by Peter Selinger 2001-2019
</metadata>
<g transform="translate(0.000000,29.000000) scale(0.100000,-0.100000)"
fill="#000000" stroke="none">
<path d="M170 264 l0 -25 -14 -15 -15 -14 -6 0 -6 0 -15 14 -14 15 0 20 0 21
-45 0 -45 0 0 -45 0 -45 21 0 20 0 15 -14 14 -15 0 -6 0 -6 -14 -15 -15 -14
-14 0 -15 0 -4 -37 -5 -38 -7 -18 -8 -17 30 0 31 0 26 12 26 12 -3 30 -3 31
28 3 27 3 0 -38 0 -38 9 -14 9 -14 36 7 36 7 0 15 0 14 -12 40 -13 39 -22 6
-23 5 0 25 0 24 33 9 32 8 3 41 3 40 -32 7 -31 6 -9 0 -9 0 0 -26z"/>
</g>
</svg>
