<?xml version="1.0" standalone="no"?>
<!DOCTYPE svg PUBLIC "-//W3C//DTD SVG 20010904//EN"
 "http://www.w3.org/TR/2001/REC-SVG-20010904/DTD/svg10.dtd">
<svg version="1.0" xmlns="http://www.w3.org/2000/svg"
 width="29.000000pt" height="31.000000pt" viewBox="0 0 29.000000 31.000000"
 preserveAspectRatio="xMidYMid meet">
<metadata>
Created by potrace 1.16, written by Peter Selinger 2001-2019
</metadata>
<g transform="translate(0.000000,31.000000) scale(0.100000,-0.100000)"
fill="#000000" stroke="none">
<path d="M170 284 l0 -25 -12 -13 -12 -13 -13 13 -13 13 0 20 0 21 -55 0 -55
0 0 -55 0 -55 21 0 20 0 13 -13 13 -13 -13 -12 -13 -12 -15 0 -14 0 -5 -37 -5
-38 -7 -28 -7 -27 40 0 41 0 26 12 25 11 0 34 0 33 15 0 15 0 0 -34 0 -34 6
-16 6 -16 27 0 26 0 23 6 22 6 0 24 0 24 -12 40 -13 39 -22 6 -23 5 0 15 0 14
33 9 32 8 3 42 3 42 10 0 9 0 0 14 0 13 -60 1 -60 1 0 -25z"/>
</g>
</svg>
