<?xml version="1.0" standalone="no"?>
<!DOCTYPE svg PUBLIC "-//W3C//DTD SVG 20010904//EN"
 "http://www.w3.org/TR/2001/REC-SVG-20010904/DTD/svg10.dtd">
<svg version="1.0" xmlns="http://www.w3.org/2000/svg"
 width="26.000000pt" height="33.000000pt" viewBox="0 0 26.000000 33.000000"
 preserveAspectRatio="xMidYMid meet">
<metadata>
Created by potrace 1.16, written by Peter Selinger 2001-2019
</metadata>
<g transform="translate(0.000000,33.000000) scale(0.100000,-0.100000)"
fill="#000000" stroke="none">
<path d="M0 291 l0 -38 30 -6 30 -6 0 -25 0 -25 -16 -15 -15 -16 -15 0 -14 0
0 -44 0 -45 42 -3 42 -3 8 -34 9 -33 22 6 22 6 8 0 8 0 -3 23 -3 22 30 3 30 2
20 5 20 4 1 55 2 55 -17 -1 -16 -1 -16 1 -17 2 -6 25 -7 26 16 15 15 15 20 -6
20 -6 0 20 0 19 -6 16 -6 15 -11 -4 -12 -3 -27 -6 -28 -6 0 -25 0 -24 -19 -6
-18 -5 -17 6 -16 6 -6 24 -6 24 6 15 5 15 -44 0 -45 0 0 -39z"/>
</g>
</svg>
