<?xml version="1.0" standalone="no"?>
<!DOCTYPE svg PUBLIC "-//W3C//DTD SVG 20010904//EN"
 "http://www.w3.org/TR/2001/REC-SVG-20010904/DTD/svg10.dtd">
<svg version="1.0" xmlns="http://www.w3.org/2000/svg"
 width="38.000000pt" height="32.000000pt" viewBox="0 0 38.000000 32.000000"
 preserveAspectRatio="xMidYMid meet">
<metadata>
Created by potrace 1.16, written by Peter Selinger 2001-2019
</metadata>
<g transform="translate(0.000000,32.000000) scale(0.100000,-0.100000)"
fill="#000000" stroke="none">
<path d="M310 310 l0 -10 -31 0 -30 0 1 -22 2 -23 -1 -12 -1 -12 -21 -6 -21
-7 -9 13 -9 14 0 28 0 27 -55 0 -55 0 0 -32 0 -33 -8 -12 -7 -11 -30 -4 -30
-3 -3 -37 -3 -38 28 0 28 0 13 -8 13 -9 -3 -44 -3 -44 34 -3 34 -3 23 5 23 6
7 35 6 35 9 0 9 0 1 -12 1 -13 -2 -22 -1 -23 16 -16 16 -17 54 12 54 12 11 37
10 37 0 26 0 27 -16 6 -16 6 -23 0 -24 0 -6 10 -6 10 28 0 28 0 14 9 14 9 -6
53 -6 52 -13 9 -13 8 -12 0 -13 0 0 -10z"/>
</g>
</svg>
