<?xml version="1.0" standalone="no"?>
<!DOCTYPE svg PUBLIC "-//W3C//DTD SVG 20010904//EN"
 "http://www.w3.org/TR/2001/REC-SVG-20010904/DTD/svg10.dtd">
<svg version="1.0" xmlns="http://www.w3.org/2000/svg"
 width="28.000000pt" height="35.000000pt" viewBox="0 0 28.000000 35.000000"
 preserveAspectRatio="xMidYMid meet">
<metadata>
Created by potrace 1.16, written by Peter Selinger 2001-2019
</metadata>
<g transform="translate(0.000000,35.000000) scale(0.100000,-0.100000)"
fill="#000000" stroke="none">
<path d="M0 301 l0 -48 30 -6 30 -6 0 -15 0 -15 -16 -15 -15 -16 -15 0 -14 0
0 -54 0 -55 42 -3 42 -3 8 -33 9 -32 17 0 17 0 22 6 23 6 0 24 0 24 38 0 37 0
11 8 10 7 2 63 1 62 -34 0 -34 0 -3 18 -4 17 10 11 10 10 23 -4 23 -4 0 33 0
34 -9 14 -9 13 -18 -5 -19 -5 -27 -6 -28 -6 0 -24 0 -24 -15 -6 -14 -5 -16 16
-16 15 6 29 7 29 -56 0 -56 0 0 -49z"/>
</g>
</svg>
