<?xml version="1.0" standalone="no"?>
<!DOCTYPE svg PUBLIC "-//W3C//DTD SVG 20010904//EN"
 "http://www.w3.org/TR/2001/REC-SVG-20010904/DTD/svg10.dtd">
<svg version="1.0" xmlns="http://www.w3.org/2000/svg"
 width="36.000000pt" height="30.000000pt" viewBox="0 0 36.000000 30.000000"
 preserveAspectRatio="xMidYMid meet">
<metadata>
Created by potrace 1.16, written by Peter Selinger 2001-2019
</metadata>
<g transform="translate(0.000000,30.000000) scale(0.100000,-0.100000)"
fill="#000000" stroke="none">
<path d="M287 283 l-37 -4 6 -23 5 -23 -16 -17 -16 -16 -24 0 -23 0 -6 16 -6
16 0 24 0 24 -45 0 -45 0 0 -32 0 -33 -8 -12 -7 -11 -30 -4 -30 -3 -3 -27 -3
-28 28 0 28 0 13 -9 14 -8 -4 -44 -3 -44 35 -3 35 -2 14 9 14 9 1 31 1 31 22
0 22 0 6 -19 5 -18 -6 -16 -6 -16 16 -16 15 -16 45 12 46 11 10 37 10 36 0 17
0 18 -22 4 -23 5 -20 3 -20 3 -3 18 -3 17 28 0 28 0 14 9 14 9 -7 46 -7 46 -7
-2 -7 -1 -38 -4z"/>
</g>
</svg>
