<?xml version="1.0" standalone="no"?>
<!DOCTYPE svg PUBLIC "-//W3C//DTD SVG 20010904//EN"
 "http://www.w3.org/TR/2001/REC-SVG-20010904/DTD/svg10.dtd">
<svg version="1.0" xmlns="http://www.w3.org/2000/svg"
 width="34.000000pt" height="33.000000pt" viewBox="0 0 34.000000 33.000000"
 preserveAspectRatio="xMidYMid meet">
<metadata>
Created by potrace 1.16, written by Peter Selinger 2001-2019
</metadata>
<g transform="translate(0.000000,33.000000) scale(0.100000,-0.100000)"
fill="#000000" stroke="none">
<path d="M9 325 l-5 -4 4 -36 4 -36 19 6 19 6 15 -15 15 -15 0 -20 0 -20 -16
-15 -15 -16 -25 0 -24 0 0 -29 0 -29 6 -16 6 -16 43 0 43 0 5 -29 6 -29 21 -7
21 -7 17 19 17 19 43 14 42 13 0 21 0 21 11 38 10 38 22 -3 22 -3 3 29 4 29
-27 -7 -26 -7 -14 15 -15 15 0 36 0 37 -22 -6 -23 -6 -22 0 -23 0 0 -24 0 -24
-25 -6 -26 -7 -14 15 -15 15 0 25 0 26 -38 0 -39 0 -4 -5z"/>
</g>
</svg>
