<?xml version="1.0" standalone="no"?>
<!DOCTYPE svg PUBLIC "-//W3C//DTD SVG 20010904//EN"
 "http://www.w3.org/TR/2001/REC-SVG-20010904/DTD/svg10.dtd">
<svg version="1.0" xmlns="http://www.w3.org/2000/svg"
 width="36.000000pt" height="35.000000pt" viewBox="0 0 36.000000 35.000000"
 preserveAspectRatio="xMidYMid meet">
<metadata>
Created by potrace 1.16, written by Peter Selinger 2001-2019
</metadata>
<g transform="translate(0.000000,35.000000) scale(0.100000,-0.100000)"
fill="#000000" stroke="none">
<path d="M6 342 l-5 -8 6 -43 6 -43 21 4 22 4 12 -12 12 -13 0 -10 0 -10 -16
-15 -15 -16 -25 0 -24 0 0 -39 0 -39 6 -16 6 -16 44 0 44 0 0 -19 0 -20 16
-15 15 -16 21 0 21 0 16 18 16 18 43 14 42 13 0 21 0 21 10 36 10 36 22 -1 23
-1 3 39 3 38 -29 -4 -28 -4 -12 13 -12 12 0 37 0 37 -37 -7 -38 -6 -17 0 -18
0 0 -24 0 -24 -18 -4 -18 -5 -12 13 -12 13 0 26 0 25 -49 0 -50 0 -5 -8z"/>
</g>
</svg>
