<?xml version="1.0" standalone="no"?>
<!DOCTYPE svg PUBLIC "-//W3C//DTD SVG 20010904//EN"
 "http://www.w3.org/TR/2001/REC-SVG-20010904/DTD/svg10.dtd">
<svg version="1.0" xmlns="http://www.w3.org/2000/svg"
 width="37.000000pt" height="38.000000pt" viewBox="0 0 37.000000 38.000000"
 preserveAspectRatio="xMidYMid meet">
<metadata>
Created by potrace 1.16, written by Peter Selinger 2001-2019
</metadata>
<g transform="translate(0.000000,38.000000) scale(0.100000,-0.100000)"
fill="#000000" stroke="none">
<path d="M13 365 l-13 -14 0 -40 0 -39 6 -16 6 -16 34 0 34 0 0 -15 0 -15 -25
0 -25 0 -6 -27 -6 -28 -5 -17 -4 -18 6 -20 6 -20 40 0 39 0 0 -26 0 -25 15
-16 16 -15 34 6 35 7 0 23 0 23 50 7 50 7 6 24 6 25 8 0 8 0 7 40 7 40 14 0
14 0 0 34 0 34 -30 7 -30 7 0 39 0 39 -71 0 -70 0 2 -17 1 -18 -1 -12 -1 -12
-15 5 -15 6 0 18 0 18 -16 6 -16 6 -29 0 -29 0 0 10 0 10 -12 0 -13 -1 -12
-14z"/>
</g>
</svg>
