<?xml version="1.0" standalone="no"?>
<!DOCTYPE svg PUBLIC "-//W3C//DTD SVG 20010904//EN"
 "http://www.w3.org/TR/2001/REC-SVG-20010904/DTD/svg10.dtd">
<svg version="1.0" xmlns="http://www.w3.org/2000/svg"
 width="41.000000pt" height="36.000000pt" viewBox="0 0 41.000000 36.000000"
 preserveAspectRatio="xMidYMid meet">
<metadata>
Created by potrace 1.16, written by Peter Selinger 2001-2019
</metadata>
<g transform="translate(0.000000,36.000000) scale(0.100000,-0.100000)"
fill="#000000" stroke="none">
<path d="M68 313 l4 -42 -33 -8 -34 -9 -3 -27 -3 -27 15 0 15 0 11 -40 11 -40
-6 -10 -6 -9 23 -5 23 -6 29 -2 29 -3 2 -34 3 -34 13 -8 14 -9 11 0 11 0 22
19 22 19 -3 19 -3 18 29 3 29 4 13 13 13 13 -5 34 -6 35 29 -4 28 -5 23 20 22
19 0 21 0 20 -35 12 -35 11 -11 -7 -12 -7 6 48 7 47 -23 -6 -22 -6 -32 0 -32
0 5 -15 6 -14 -15 -16 -16 -15 -20 0 -20 0 -16 16 -17 17 5 18 5 17 -38 4 -37
3 5 -42z"/>
</g>
</svg>
