<?xml version="1.0" standalone="no"?>
<!DOCTYPE svg PUBLIC "-//W3C//DTD SVG 20010904//EN"
 "http://www.w3.org/TR/2001/REC-SVG-20010904/DTD/svg10.dtd">
<svg version="1.0" xmlns="http://www.w3.org/2000/svg"
 width="35.000000pt" height="36.000000pt" viewBox="0 0 35.000000 36.000000"
 preserveAspectRatio="xMidYMid meet">
<metadata>
Created by potrace 1.16, written by Peter Selinger 2001-2019
</metadata>
<g transform="translate(0.000000,36.000000) scale(0.100000,-0.100000)"
fill="#000000" stroke="none">
<path d="M0 306 l0 -34 6 -16 6 -16 33 0 33 0 4 -12 5 -13 -4 -12 -5 -13 -24
0 -24 0 -6 -27 -6 -28 -4 -12 -3 -13 5 -15 6 -15 39 0 39 0 0 -26 0 -25 15
-15 14 -15 26 7 25 6 0 23 0 22 50 7 50 7 6 24 6 25 8 0 8 0 7 40 7 40 14 0
14 0 0 24 0 24 -30 7 -30 7 0 39 0 39 -59 0 -59 0 4 -17 4 -18 -9 -14 -9 -13
-21 7 -21 6 0 19 0 18 -16 6 -16 6 -44 0 -44 0 0 -34z"/>
</g>
</svg>
