<?xml version="1.0" standalone="no"?>
<!DOCTYPE svg PUBLIC "-//W3C//DTD SVG 20010904//EN"
 "http://www.w3.org/TR/2001/REC-SVG-20010904/DTD/svg10.dtd">
<svg version="1.0" xmlns="http://www.w3.org/2000/svg"
 width="40.000000pt" height="35.000000pt" viewBox="0 0 40.000000 35.000000"
 preserveAspectRatio="xMidYMid meet">
<metadata>
Created by potrace 1.16, written by Peter Selinger 2001-2019
</metadata>
<g transform="translate(0.000000,35.000000) scale(0.100000,-0.100000)"
fill="#000000" stroke="none">
<path d="M216 316 l5 -23 -16 -17 -16 -16 -9 0 -8 0 -16 6 -16 6 0 29 0 29
-41 0 -40 0 6 -21 7 -20 -6 -25 -7 -25 -29 6 -30 7 0 -26 0 -26 28 0 27 0 14
-9 14 -9 -7 -56 -7 -56 36 0 37 0 -7 -29 -6 -29 21 -7 20 -6 30 6 30 7 0 23 0
23 38 7 39 6 -10 51 -10 50 14 9 14 9 37 0 36 0 5 13 4 12 -5 13 -4 12 -23 0
-23 0 -16 6 -16 6 0 44 0 44 -50 0 -50 0 6 -24z"/>
</g>
</svg>
