<?xml version="1.0" standalone="no"?>
<!DOCTYPE svg PUBLIC "-//W3C//DTD SVG 20010904//EN"
 "http://www.w3.org/TR/2001/REC-SVG-20010904/DTD/svg10.dtd">
<svg version="1.0" xmlns="http://www.w3.org/2000/svg"
 width="32.000000pt" height="30.000000pt" viewBox="0 0 32.000000 30.000000"
 preserveAspectRatio="xMidYMid meet">
<metadata>
Created by potrace 1.16, written by Peter Selinger 2001-2019
</metadata>
<g transform="translate(0.000000,30.000000) scale(0.100000,-0.100000)"
fill="#000000" stroke="none">
<path d="M4 253 l7 -48 5 -17 5 -18 19 0 18 0 16 -6 16 -6 0 -14 0 -14 -25 -6
-25 -6 -10 -37 -10 -36 0 -22 0 -23 44 0 44 0 6 16 6 16 0 25 0 24 18 -3 17
-3 3 -30 4 -30 11 -7 12 -8 35 0 35 0 22 6 23 6 10 37 10 36 0 26 0 27 -16 6
-16 6 -34 0 -34 0 0 36 0 36 -37 -2 -38 -2 -12 1 -13 1 0 36 0 36 -40 -4 -40
-4 0 8 0 8 -21 0 -21 0 6 -47z"/>
</g>
</svg>
