<?xml version="1.0" standalone="no"?>
<!DOCTYPE svg PUBLIC "-//W3C//DTD SVG 20010904//EN"
 "http://www.w3.org/TR/2001/REC-SVG-20010904/DTD/svg10.dtd">
<svg version="1.0" xmlns="http://www.w3.org/2000/svg"
 width="43.000000pt" height="38.000000pt" viewBox="0 0 43.000000 38.000000"
 preserveAspectRatio="xMidYMid meet">
<metadata>
Created by potrace 1.16, written by Peter Selinger 2001-2019
</metadata>
<g transform="translate(0.000000,38.000000) scale(0.100000,-0.100000)"
fill="#000000" stroke="none">
<path d="M65 337 l7 -46 -33 -9 -34 -8 -3 -37 -3 -37 15 0 16 0 7 -27 7 -28
-2 -20 -1 -19 12 -8 12 -8 36 0 36 0 7 -39 6 -39 16 -6 16 -6 17 0 18 0 21 19
22 18 0 22 0 21 26 0 25 0 16 15 15 16 -6 29 -5 30 28 0 28 0 21 19 22 18 0
32 0 31 -45 12 -45 12 7 40 6 39 -39 -6 -39 -7 -29 0 -28 0 4 -18 5 -18 -14
-12 -13 -13 -20 6 -20 6 -1 12 -1 12 1 18 2 17 -28 0 -28 0 -23 7 -24 6 7 -46z"/>
</g>
</svg>
