<?xml version="1.0" standalone="no"?>
<!DOCTYPE svg PUBLIC "-//W3C//DTD SVG 20010904//EN"
 "http://www.w3.org/TR/2001/REC-SVG-20010904/DTD/svg10.dtd">
<svg version="1.0" xmlns="http://www.w3.org/2000/svg"
 width="46.000000pt" height="29.000000pt" viewBox="0 0 46.000000 29.000000"
 preserveAspectRatio="xMidYMid meet">
<metadata>
Created by potrace 1.16, written by Peter Selinger 2001-2019
</metadata>
<g transform="translate(0.000000,29.000000) scale(0.100000,-0.100000)"
fill="#000000" stroke="none">
<path d="M70 246 l0 -44 -35 -6 -35 -7 0 -34 0 -35 15 0 15 0 0 -10 0 -10 25
0 25 0 -6 -41 -7 -41 14 -9 14 -9 37 0 36 0 16 6 16 6 0 24 0 24 20 0 20 0 0
-19 0 -18 45 -13 44 -12 25 6 24 6 7 40 7 40 23 0 23 0 11 33 11 32 -9 30 -8
30 4 31 5 31 -50 5 -50 5 -56 -5 -56 -4 0 -24 0 -24 -20 0 -20 0 -6 30 -6 30
-59 0 -59 0 0 -44z"/>
</g>
</svg>
