<?xml version="1.0" standalone="no"?>
<!DOCTYPE svg PUBLIC "-//W3C//DTD SVG 20010904//EN"
 "http://www.w3.org/TR/2001/REC-SVG-20010904/DTD/svg10.dtd">
<svg version="1.0" xmlns="http://www.w3.org/2000/svg"
 width="30.000000pt" height="28.000000pt" viewBox="0 0 30.000000 28.000000"
 preserveAspectRatio="xMidYMid meet">
<metadata>
Created by potrace 1.16, written by Peter Selinger 2001-2019
</metadata>
<g transform="translate(0.000000,28.000000) scale(0.100000,-0.100000)"
fill="#000000" stroke="none">
<path d="M5 243 l7 -38 5 -17 4 -18 19 0 18 0 16 -6 16 -6 0 -24 0 -24 -25 -6
-25 -6 -10 -37 -10 -36 0 -12 0 -13 34 0 34 0 6 16 6 16 0 24 0 24 24 0 24 0
10 -13 11 -13 -5 -22 -6 -21 26 -7 26 -6 35 6 34 7 11 37 10 37 0 16 0 17 -16
6 -16 6 -34 0 -34 0 0 34 0 34 -32 -3 -33 -3 -17 5 -18 4 0 36 0 35 -46 -7
-46 -7 7 11 6 11 -11 0 -11 0 6 -37z"/>
</g>
</svg>
