<?xml version="1.0" standalone="no"?>
<!DOCTYPE svg PUBLIC "-//W3C//DTD SVG 20010904//EN"
 "http://www.w3.org/TR/2001/REC-SVG-20010904/DTD/svg10.dtd">
<svg version="1.0" xmlns="http://www.w3.org/2000/svg"
 width="27.000000pt" height="34.000000pt" viewBox="0 0 27.000000 34.000000"
 preserveAspectRatio="xMidYMid meet">
<metadata>
Created by potrace 1.16, written by Peter Selinger 2001-2019
</metadata>
<g transform="translate(0.000000,34.000000) scale(0.100000,-0.100000)"
fill="#000000" stroke="none">
<path d="M7 333 l-7 -6 0 -31 0 -31 8 -11 7 -11 25 -8 25 -8 7 -11 8 -11 0
-12 0 -13 -10 0 -11 0 -18 -17 -18 -18 -7 -37 -7 -38 35 0 34 0 -5 -19 -5 -18
17 -17 16 -16 20 0 20 0 16 15 15 16 -6 14 -5 15 33 0 34 0 16 6 16 6 0 39 0
38 -12 26 -12 26 -28 -6 -28 -7 0 26 0 26 20 1 20 2 10 2 10 3 15 1 15 1 0 45
0 45 -128 0 -129 0 -6 -7z"/>
</g>
</svg>
