<?xml version="1.0" standalone="no"?>
<!DOCTYPE svg PUBLIC "-//W3C//DTD SVG 20010904//EN"
 "http://www.w3.org/TR/2001/REC-SVG-20010904/DTD/svg10.dtd">
<svg version="1.0" xmlns="http://www.w3.org/2000/svg"
 width="44.000000pt" height="27.000000pt" viewBox="0 0 44.000000 27.000000"
 preserveAspectRatio="xMidYMid meet">
<metadata>
Created by potrace 1.16, written by Peter Selinger 2001-2019
</metadata>
<g transform="translate(0.000000,27.000000) scale(0.100000,-0.100000)"
fill="#000000" stroke="none">
<path d="M70 224 l0 -42 -35 -6 -35 -7 0 -24 0 -25 15 0 15 0 0 -11 0 -11 26
6 27 7 -7 -49 -6 -50 16 -6 16 -6 23 0 23 0 16 6 16 6 0 24 0 24 30 0 30 0 0
-18 0 -19 40 -12 41 -12 19 6 18 6 7 39 7 40 23 0 23 0 9 27 9 28 -4 22 -3 21
-35 -10 -36 -9 -14 18 -13 18 -1 28 0 27 -45 0 -45 0 0 -25 0 -25 -30 0 -30 0
-6 30 -6 30 -49 -2 -49 -2 0 -42z M350 238 l0 -23 9 -13 8 -13 26 6 25 7 6 21
6 22 0 8 0 7 -40 0 -40 0 0 -22z"/>
</g>
</svg>
