<?xml version="1.0" standalone="no"?>
<!DOCTYPE svg PUBLIC "-//W3C//DTD SVG 20010904//EN"
 "http://www.w3.org/TR/2001/REC-SVG-20010904/DTD/svg10.dtd">
<svg version="1.0" xmlns="http://www.w3.org/2000/svg"
 width="42.000000pt" height="37.000000pt" viewBox="0 0 42.000000 37.000000"
 preserveAspectRatio="xMidYMid meet">
<metadata>
Created by potrace 1.16, written by Peter Selinger 2001-2019
</metadata>
<g transform="translate(0.000000,37.000000) scale(0.100000,-0.100000)"
fill="#000000" stroke="none">
<path d="M63 329 l5 -41 -4 -12 -5 -12 -29 4 -30 4 0 -36 0 -36 24 0 24 0 17
-6 16 -6 -7 -59 -7 -59 35 0 35 0 -5 -30 -4 -29 26 -7 26 -6 35 6 35 7 0 24 0
23 40 7 40 7 0 6 0 7 -11 44 -10 44 13 8 13 9 37 0 37 0 6 19 5 18 -6 17 -6
16 -23 0 -23 0 -16 6 -16 6 0 44 0 44 -61 0 -61 0 5 -26 4 -25 -14 -14 -14
-14 -14 5 -15 6 0 29 0 29 -35 0 -35 0 0 10 0 10 -16 0 -17 0 6 -41z"/>
</g>
</svg>
