<?xml version="1.0" standalone="no"?>
<!DOCTYPE svg PUBLIC "-//W3C//DTD SVG 20010904//EN"
 "http://www.w3.org/TR/2001/REC-SVG-20010904/DTD/svg10.dtd">
<svg version="1.0" xmlns="http://www.w3.org/2000/svg"
 width="42.000000pt" height="41.000000pt" viewBox="0 0 42.000000 41.000000"
 preserveAspectRatio="xMidYMid meet">
<metadata>
Created by potrace 1.16, written by Peter Selinger 2001-2019
</metadata>
<g transform="translate(0.000000,41.000000) scale(0.100000,-0.100000)"
fill="#000000" stroke="none">
<path d="M180 380 l0 -30 -25 -6 -26 -6 -29 5 -29 6 -3 -41 -3 -42 -33 -8 -32
-9 0 -24 0 -25 23 -5 23 -6 13 -44 13 -44 15 -5 15 -6 39 0 39 0 -6 -30 -6
-29 16 -16 16 -16 18 6 19 5 12 26 11 25 -6 25 -6 24 57 -6 57 -7 9 14 9 14 0
23 0 22 14 0 14 0 6 16 6 16 0 28 0 29 -35 7 -35 6 7 41 6 40 -19 -7 -19 -8
-29 -10 -28 -11 -9 14 -9 14 0 26 0 27 -16 6 -16 6 -19 0 -19 0 0 -30z"/>
</g>
</svg>
