<?xml version="1.0" standalone="no"?>
<!DOCTYPE svg PUBLIC "-//W3C//DTD SVG 20010904//EN"
 "http://www.w3.org/TR/2001/REC-SVG-20010904/DTD/svg10.dtd">
<svg version="1.0" xmlns="http://www.w3.org/2000/svg"
 width="37.000000pt" height="40.000000pt" viewBox="0 0 37.000000 40.000000"
 preserveAspectRatio="xMidYMid meet">
<metadata>
Created by potrace 1.16, written by Peter Selinger 2001-2019
</metadata>
<g transform="translate(0.000000,40.000000) scale(0.100000,-0.100000)"
fill="#000000" stroke="none">
<path d="M110 373 l0 -28 -9 -14 -9 -14 -46 6 -46 7 0 -30 0 -29 12 -27 12
-26 33 5 33 6 0 -26 0 -25 -31 6 -31 6 -14 -14 -14 -15 0 -34 0 -35 6 -16 6
-16 54 0 53 0 -5 -15 -6 -14 15 -16 16 -15 16 0 16 0 16 15 15 16 -6 14 -5 15
43 0 44 0 6 16 6 16 0 34 0 34 24 -6 23 -5 17 16 16 16 0 20 0 20 -14 15 -15
14 -31 0 -31 0 3 38 3 37 -34 -3 -33 -4 -25 7 -25 6 6 21 5 22 -11 13 -10 13
-24 0 -24 0 0 -27z"/>
</g>
</svg>
