<?xml version="1.0" standalone="no"?>
<!DOCTYPE svg PUBLIC "-//W3C//DTD SVG 20010904//EN"
 "http://www.w3.org/TR/2001/REC-SVG-20010904/DTD/svg10.dtd">
<svg version="1.0" xmlns="http://www.w3.org/2000/svg"
 width="34.000000pt" height="27.000000pt" viewBox="0 0 34.000000 27.000000"
 preserveAspectRatio="xMidYMid meet">
<metadata>
Created by potrace 1.16, written by Peter Selinger 2001-2019
</metadata>
<g transform="translate(0.000000,27.000000) scale(0.100000,-0.100000)"
fill="#000000" stroke="none">
<path d="M70 241 l0 -29 -6 -16 -6 -16 -23 0 -23 0 -6 -16 -6 -16 6 -24 6 -24
13 0 14 0 7 -22 7 -23 -1 -27 -1 -28 140 0 139 0 0 23 0 22 -10 36 -10 37 -25
6 -25 6 0 11 0 10 15 15 14 15 26 -7 25 -6 0 51 0 51 -51 0 -51 0 4 -18 5 -18
-13 -12 -13 -12 -6 0 -6 0 -13 12 -13 12 5 18 4 18 -61 0 -61 0 0 -29z"/>
</g>
</svg>
