<?xml version="1.0" standalone="no"?>
<!DOCTYPE svg PUBLIC "-//W3C//DTD SVG 20010904//EN"
 "http://www.w3.org/TR/2001/REC-SVG-20010904/DTD/svg10.dtd">
<svg version="1.0" xmlns="http://www.w3.org/2000/svg"
 width="39.000000pt" height="42.000000pt" viewBox="0 0 39.000000 42.000000"
 preserveAspectRatio="xMidYMid meet">
<metadata>
Created by potrace 1.16, written by Peter Selinger 2001-2019
</metadata>
<g transform="translate(0.000000,42.000000) scale(0.100000,-0.100000)"
fill="#000000" stroke="none">
<path d="M110 393 l0 -28 -9 -13 -8 -14 -47 7 -46 7 0 -40 0 -41 12 -26 11
-25 34 0 33 0 0 -10 0 -10 -30 6 -29 6 -16 -15 -15 -16 0 -44 0 -45 6 -16 6
-16 49 0 49 0 0 -16 0 -15 14 -15 15 -14 26 0 26 0 15 14 14 15 0 15 0 16 39
0 39 0 6 16 6 16 0 29 0 29 24 0 25 0 15 16 16 15 0 30 0 30 -14 15 -15 14
-29 0 -29 0 1 38 1 37 -35 -2 -35 -3 -22 5 -21 5 5 20 5 20 -12 15 -12 15 -34
0 -34 0 0 -27z"/>
</g>
</svg>
