<?xml version="1.0" standalone="no"?>
<!DOCTYPE svg PUBLIC "-//W3C//DTD SVG 20010904//EN"
 "http://www.w3.org/TR/2001/REC-SVG-20010904/DTD/svg10.dtd">
<svg version="1.0" xmlns="http://www.w3.org/2000/svg"
 width="44.000000pt" height="43.000000pt" viewBox="0 0 44.000000 43.000000"
 preserveAspectRatio="xMidYMid meet">
<metadata>
Created by potrace 1.16, written by Peter Selinger 2001-2019
</metadata>
<g transform="translate(0.000000,43.000000) scale(0.100000,-0.100000)"
fill="#000000" stroke="none">
<path d="M180 401 l0 -30 -20 -6 -19 -6 -35 6 -35 7 -3 -43 -3 -43 -33 -8 -32
-9 0 -34 0 -35 23 -5 23 -6 13 -44 13 -44 15 -5 15 -6 34 0 34 0 0 -31 0 -30
14 -15 15 -14 20 0 20 0 15 16 16 15 6 25 6 24 -5 13 -5 13 55 -4 55 -5 9 14
9 14 0 23 0 22 14 0 14 0 6 16 6 16 0 38 0 39 -33 6 -32 6 3 40 4 39 -15 0
-15 0 -35 -15 -35 -14 -6 15 -6 16 0 23 0 23 -16 6 -16 6 -29 0 -29 0 0 -29z"/>
</g>
</svg>
