<?xml version="1.0" standalone="no"?>
<!DOCTYPE svg PUBLIC "-//W3C//DTD SVG 20010904//EN"
 "http://www.w3.org/TR/2001/REC-SVG-20010904/DTD/svg10.dtd">
<svg version="1.0" xmlns="http://www.w3.org/2000/svg"
 width="32.000000pt" height="25.000000pt" viewBox="0 0 32.000000 25.000000"
 preserveAspectRatio="xMidYMid meet">
<metadata>
Created by potrace 1.16, written by Peter Selinger 2001-2019
</metadata>
<g transform="translate(0.000000,25.000000) scale(0.100000,-0.100000)"
fill="#000000" stroke="none">
<path d="M70 221 l0 -29 -6 -16 -6 -16 -23 0 -23 0 -5 -12 -4 -13 5 -17 4 -18
14 0 13 0 11 -40 11 -40 -6 -10 -6 -10 130 0 131 0 0 13 0 12 -10 36 -10 37
-25 6 -25 6 0 21 0 20 15 16 16 15 24 -5 25 -4 0 38 0 39 -40 0 -39 0 5 -15 6
-14 -15 -16 -16 -15 -16 0 -16 0 -16 15 -15 16 6 14 5 15 -49 0 -50 0 0 -29z"/>
</g>
</svg>
