<?xml version="1.0" standalone="no"?>
<!DOCTYPE svg PUBLIC "-//W3C//DTD SVG 20010904//EN"
 "http://www.w3.org/TR/2001/REC-SVG-20010904/DTD/svg10.dtd">
<svg version="1.0" xmlns="http://www.w3.org/2000/svg"
 width="33.000000pt" height="29.000000pt" viewBox="0 0 33.000000 29.000000"
 preserveAspectRatio="xMidYMid meet">
<metadata>
Created by potrace 1.16, written by Peter Selinger 2001-2019
</metadata>
<g transform="translate(0.000000,29.000000) scale(0.100000,-0.100000)"
fill="#000000" stroke="none">
<path d="M0 246 l0 -43 25 4 24 5 16 -15 15 -16 0 -20 0 -21 -25 -6 -25 -6
-15 6 -15 5 0 -59 0 -60 29 0 29 0 16 6 16 6 0 29 0 29 19 0 19 0 16 -6 16 -6
0 -27 0 -26 9 -14 9 -14 46 17 46 18 -5 9 -6 9 11 40 11 40 9 0 9 0 15 16 16
16 -5 9 -6 9 -29 0 -28 0 -6 16 -6 16 0 34 0 34 -32 -7 -33 -6 -22 -24 -21
-24 -27 7 -27 7 4 28 5 29 -49 0 -48 0 0 -44z"/>
</g>
</svg>
