<?xml version="1.0" standalone="no"?>
<!DOCTYPE svg PUBLIC "-//W3C//DTD SVG 20010904//EN"
 "http://www.w3.org/TR/2001/REC-SVG-20010904/DTD/svg10.dtd">
<svg version="1.0" xmlns="http://www.w3.org/2000/svg"
 width="35.000000pt" height="31.000000pt" viewBox="0 0 35.000000 31.000000"
 preserveAspectRatio="xMidYMid meet">
<metadata>
Created by potrace 1.16, written by Peter Selinger 2001-2019
</metadata>
<g transform="translate(0.000000,31.000000) scale(0.100000,-0.100000)"
fill="#000000" stroke="none">
<path d="M0 254 l0 -56 25 6 26 7 14 -15 15 -15 0 -9 0 -10 -16 -6 -16 -6 -24
6 -24 6 0 -71 0 -71 39 0 39 0 16 6 16 6 0 29 0 29 9 0 9 0 16 -6 16 -6 0 -23
0 -23 6 -16 6 -16 19 0 19 0 39 16 40 16 -1 26 -1 27 7 22 7 22 19 6 19 6 6
19 6 20 -6 10 -6 10 -29 0 -28 0 -6 16 -6 16 0 35 0 35 -42 -7 -43 -7 -20 -22
-20 -22 -18 4 -18 4 6 29 7 29 -61 0 -61 0 0 -56z"/>
</g>
</svg>
