<?xml version="1.0" standalone="no"?>
<!DOCTYPE svg PUBLIC "-//W3C//DTD SVG 20010904//EN"
 "http://www.w3.org/TR/2001/REC-SVG-20010904/DTD/svg10.dtd">
<svg version="1.0" xmlns="http://www.w3.org/2000/svg"
 width="37.000000pt" height="37.000000pt" viewBox="0 0 37.000000 37.000000"
 preserveAspectRatio="xMidYMid meet">
<metadata>
Created by potrace 1.16, written by Peter Selinger 2001-2019
</metadata>
<g transform="translate(0.000000,37.000000) scale(0.100000,-0.100000)"
fill="#000000" stroke="none">
<path d="M187 363 l-7 -6 0 -23 0 -23 -20 -6 -19 -6 -36 7 -35 6 6 -46 7 -45
-42 -7 -42 -7 3 -36 3 -36 33 0 33 0 6 -22 5 -23 -6 -34 -6 -33 49 -7 48 -6
17 6 17 7 -1 26 -2 26 1 13 1 12 10 0 9 0 7 -50 7 -50 38 0 38 0 25 11 26 12
0 21 0 21 6 43 6 42 -42 0 -41 0 -15 15 -15 15 15 0 16 0 0 9 0 9 21 -5 21 -6
9 14 9 14 0 54 0 53 -21 -5 -20 -5 -29 9 -28 10 5 20 5 19 -34 0 -35 0 -6 -7z"/>
</g>
</svg>
