<?xml version="1.0" standalone="no"?>
<!DOCTYPE svg PUBLIC "-//W3C//DTD SVG 20010904//EN"
 "http://www.w3.org/TR/2001/REC-SVG-20010904/DTD/svg10.dtd">
<svg version="1.0" xmlns="http://www.w3.org/2000/svg"
 width="34.000000pt" height="41.000000pt" viewBox="0 0 34.000000 41.000000"
 preserveAspectRatio="xMidYMid meet">
<metadata>
Created by potrace 1.16, written by Peter Selinger 2001-2019
</metadata>
<g transform="translate(0.000000,41.000000) scale(0.100000,-0.100000)"
fill="#000000" stroke="none">
<path d="M100 381 l0 -29 -30 -12 -30 -12 -20 5 -20 5 0 -28 0 -28 6 -16 6
-16 28 0 29 0 6 -21 7 -20 -23 -20 -23 -20 -13 -37 -13 -37 0 -13 0 -12 40 6
40 7 0 -36 0 -35 16 -6 16 -6 24 6 24 6 0 19 0 19 20 0 19 0 25 11 25 12 11
53 11 54 24 0 23 0 6 16 6 16 0 18 0 18 -16 6 -16 6 -19 0 -19 0 0 41 0 41
-12 -6 -13 -5 -37 -12 -37 -12 -16 17 -17 17 6 16 6 16 -5 18 -6 19 -20 0 -19
0 0 -29z"/>
</g>
</svg>
