<?xml version="1.0" standalone="no"?>
<!DOCTYPE svg PUBLIC "-//W3C//DTD SVG 20010904//EN"
 "http://www.w3.org/TR/2001/REC-SVG-20010904/DTD/svg10.dtd">
<svg version="1.0" xmlns="http://www.w3.org/2000/svg"
 width="35.000000pt" height="35.000000pt" viewBox="0 0 35.000000 35.000000"
 preserveAspectRatio="xMidYMid meet">
<metadata>
Created by potrace 1.16, written by Peter Selinger 2001-2019
</metadata>
<g transform="translate(0.000000,35.000000) scale(0.100000,-0.100000)"
fill="#000000" stroke="none">
<path d="M187 343 l-7 -6 0 -23 0 -24 -25 -6 -26 -6 -27 5 -27 6 3 -44 4 -44
-42 -7 -41 -7 3 -26 3 -26 32 3 33 2 6 -25 6 -25 -4 -34 -4 -34 39 -5 39 -5
15 5 14 6 -5 23 -6 22 6 16 6 16 19 0 18 0 7 -50 7 -50 31 0 31 1 20 12 20 12
2 20 2 20 7 32 6 33 -42 0 -41 0 -15 14 -14 15 0 10 0 11 15 0 15 0 0 11 0 11
24 -6 24 -6 6 16 6 16 0 39 0 38 -15 -5 -14 -6 -36 12 -37 12 5 19 5 19 -22 0
-23 0 -6 -7z"/>
</g>
</svg>
