<?xml version="1.0" standalone="no"?>
<!DOCTYPE svg PUBLIC "-//W3C//DTD SVG 20010904//EN"
 "http://www.w3.org/TR/2001/REC-SVG-20010904/DTD/svg10.dtd">
<svg version="1.0" xmlns="http://www.w3.org/2000/svg"
 width="36.000000pt" height="43.000000pt" viewBox="0 0 36.000000 43.000000"
 preserveAspectRatio="xMidYMid meet">
<metadata>
Created by potrace 1.16, written by Peter Selinger 2001-2019
</metadata>
<g transform="translate(0.000000,43.000000) scale(0.100000,-0.100000)"
fill="#000000" stroke="none">
<path d="M100 402 l0 -29 -26 -11 -25 -12 -25 6 -24 6 0 -40 0 -40 6 -16 6
-16 28 0 28 0 5 -12 4 -13 -20 -18 -21 -18 -13 -37 -13 -37 0 -24 0 -24 40 7
40 6 0 -34 0 -35 20 -6 20 -6 30 6 30 7 0 19 0 19 20 0 19 0 25 11 25 12 11
53 11 54 24 0 23 0 6 16 6 16 0 28 0 28 -16 6 -16 6 -19 0 -19 0 0 40 0 40
-14 0 -14 0 -36 -15 -37 -16 -13 13 -13 13 5 13 4 13 -6 24 -6 25 -30 0 -30 0
0 -28z"/>
</g>
</svg>
