<?xml version="1.0" standalone="no"?>
<!DOCTYPE svg PUBLIC "-//W3C//DTD SVG 20010904//EN"
 "http://www.w3.org/TR/2001/REC-SVG-20010904/DTD/svg10.dtd">
<svg version="1.0" xmlns="http://www.w3.org/2000/svg"
 width="45.000000pt" height="43.000000pt" viewBox="0 0 45.000000 43.000000"
 preserveAspectRatio="xMidYMid meet">
<metadata>
Created by potrace 1.16, written by Peter Selinger 2001-2019
</metadata>
<g transform="translate(0.000000,43.000000) scale(0.100000,-0.100000)"
fill="#000000" stroke="none">
<path d="M190 401 l0 -29 -6 -17 -6 -16 -60 7 -60 7 7 -47 7 -46 -20 0 -20 0
-16 -6 -16 -6 0 -18 0 -18 6 -16 6 -16 13 0 14 0 16 -55 16 -55 49 0 50 0 0
-30 0 -29 35 -7 36 -6 22 26 23 26 21 0 22 0 26 25 25 26 0 34 0 35 19 0 19 0
16 6 16 6 0 30 0 29 -15 16 -16 15 -24 -5 -25 -4 0 49 0 49 -49 -7 -50 -6 -15
15 -16 16 0 25 0 26 -25 0 -25 0 0 -29z"/>
</g>
</svg>
