<?xml version="1.0" standalone="no"?>
<!DOCTYPE svg PUBLIC "-//W3C//DTD SVG 20010904//EN"
 "http://www.w3.org/TR/2001/REC-SVG-20010904/DTD/svg10.dtd">
<svg version="1.0" xmlns="http://www.w3.org/2000/svg"
 width="40.000000pt" height="44.000000pt" viewBox="0 0 40.000000 44.000000"
 preserveAspectRatio="xMidYMid meet">
<metadata>
Created by potrace 1.16, written by Peter Selinger 2001-2019
</metadata>
<g transform="translate(0.000000,44.000000) scale(0.100000,-0.100000)"
fill="#000000" stroke="none">
<path d="M194 415 l-6 -25 6 -15 5 -15 -12 -1 -12 -1 -47 2 -48 1 0 -40 0 -41
-26 0 -25 0 -16 -15 -15 -16 6 -33 7 -34 24 -6 24 -6 7 -35 6 -35 14 0 14 0 0
-10 0 -10 45 0 45 0 0 -26 0 -25 14 -15 15 -14 18 0 18 0 11 8 11 7 11 22 12
21 40 7 40 7 10 36 10 37 0 26 0 27 -22 6 -23 6 -22 0 -23 0 0 15 0 15 21 0
22 0 19 22 19 22 -3 36 -3 35 -25 -2 -25 -2 -31 -6 -31 -7 -7 51 -7 51 -29 0
-30 0 -6 -25z"/>
</g>
</svg>
