<?xml version="1.0" standalone="no"?>
<!DOCTYPE svg PUBLIC "-//W3C//DTD SVG 20010904//EN"
 "http://www.w3.org/TR/2001/REC-SVG-20010904/DTD/svg10.dtd">
<svg version="1.0" xmlns="http://www.w3.org/2000/svg"
 width="38.000000pt" height="42.000000pt" viewBox="0 0 38.000000 42.000000"
 preserveAspectRatio="xMidYMid meet">
<metadata>
Created by potrace 1.16, written by Peter Selinger 2001-2019
</metadata>
<g transform="translate(0.000000,42.000000) scale(0.100000,-0.100000)"
fill="#000000" stroke="none">
<path d="M195 401 l-5 -18 6 -18 7 -17 -13 -8 -14 -9 -49 6 -50 6 6 -28 5 -29
-5 -13 -5 -13 -25 0 -24 0 -15 -15 -15 -14 7 -25 6 -24 23 -6 24 -6 7 -35 6
-35 14 0 14 0 0 -10 0 -10 49 0 48 0 -4 -25 -5 -24 16 -16 16 -16 18 6 19 5
11 24 11 24 40 7 41 7 10 36 10 37 0 16 0 17 -22 6 -23 6 -22 0 -23 0 0 25 0
25 21 0 22 0 19 22 19 22 -3 26 -3 25 -20 -3 -20 -4 -36 -5 -36 -5 -7 51 -7
51 -19 0 -19 0 -6 -19z"/>
</g>
</svg>
