<?xml version="1.0" standalone="no"?>
<!DOCTYPE svg PUBLIC "-//W3C//DTD SVG 20010904//EN"
 "http://www.w3.org/TR/2001/REC-SVG-20010904/DTD/svg10.dtd">
<svg version="1.0" xmlns="http://www.w3.org/2000/svg"
 width="43.000000pt" height="41.000000pt" viewBox="0 0 43.000000 41.000000"
 preserveAspectRatio="xMidYMid meet">
<metadata>
Created by potrace 1.16, written by Peter Selinger 2001-2019
</metadata>
<g transform="translate(0.000000,41.000000) scale(0.100000,-0.100000)"
fill="#000000" stroke="none">
<path d="M190 378 l0 -33 -9 -14 -9 -14 -55 7 -55 7 5 -45 6 -46 -24 0 -24 0
-14 -9 -13 -9 7 -21 6 -21 14 0 14 0 16 -55 16 -55 53 0 53 0 -5 -29 -4 -28
27 -7 27 -7 22 26 22 25 21 0 22 0 26 25 25 26 0 34 0 35 19 0 19 0 16 6 16 6
0 20 0 19 -15 15 -14 15 -26 -7 -25 -6 0 49 0 50 -49 -5 -50 -4 -15 15 -16 16
0 25 0 26 -15 0 -15 0 0 -32z"/>
</g>
</svg>
