<?xml version="1.0" standalone="no"?>
<!DOCTYPE svg PUBLIC "-//W3C//DTD SVG 20010904//EN"
 "http://www.w3.org/TR/2001/REC-SVG-20010904/DTD/svg10.dtd">
<svg version="1.0" xmlns="http://www.w3.org/2000/svg"
 width="41.000000pt" height="33.000000pt" viewBox="0 0 41.000000 33.000000"
 preserveAspectRatio="xMidYMid meet">
<metadata>
Created by potrace 1.16, written by Peter Selinger 2001-2019
</metadata>
<g transform="translate(0.000000,33.000000) scale(0.100000,-0.100000)"
fill="#000000" stroke="none">
<path d="M234 321 l7 -10 -7 -26 -6 -25 -30 0 -30 0 7 31 7 30 -59 -3 -58 -3
3 -38 4 -39 -21 7 -21 6 -15 -15 -16 -15 7 -26 6 -25 17 -2 16 -1 18 1 19 2
-7 -40 -7 -40 15 -15 16 -15 24 0 25 0 16 -6 16 -6 0 -18 0 -19 21 -6 21 -7 9
13 9 14 -4 18 -4 17 50 0 49 0 14 14 14 13 7 38 7 38 18 4 19 5 0 23 0 23 -29
7 -30 6 -3 47 -3 46 -58 4 -59 3 6 -10z"/>
</g>
</svg>
