<?xml version="1.0" standalone="no"?>
<!DOCTYPE svg PUBLIC "-//W3C//DTD SVG 20010904//EN"
 "http://www.w3.org/TR/2001/REC-SVG-20010904/DTD/svg10.dtd">
<svg version="1.0" xmlns="http://www.w3.org/2000/svg"
 width="43.000000pt" height="35.000000pt" viewBox="0 0 43.000000 35.000000"
 preserveAspectRatio="xMidYMid meet">
<metadata>
Created by potrace 1.16, written by Peter Selinger 2001-2019
</metadata>
<g transform="translate(0.000000,35.000000) scale(0.100000,-0.100000)"
fill="#000000" stroke="none">
<path d="M230 333 l2 -18 -1 -17 -1 -18 -18 0 -19 0 5 30 4 31 -68 -3 -69 -3
1 -32 2 -33 -20 0 -19 0 -16 -15 -15 -16 6 -34 7 -34 32 -6 33 -6 -4 -34 -4
-34 15 -16 16 -15 24 0 25 0 16 -6 16 -6 0 -18 0 -18 16 -6 16 -6 19 0 20 0 6
30 6 30 44 0 44 0 14 14 14 13 7 38 7 38 18 4 19 5 0 33 0 33 -29 7 -30 6 -3
47 -3 47 -68 3 -68 3 1 -18z"/>
</g>
</svg>
