<?xml version="1.0" standalone="no"?>
<!DOCTYPE svg PUBLIC "-//W3C//DTD SVG 20010904//EN"
 "http://www.w3.org/TR/2001/REC-SVG-20010904/DTD/svg10.dtd">
<svg version="1.0" xmlns="http://www.w3.org/2000/svg"
 width="30.000000pt" height="29.000000pt" viewBox="0 0 30.000000 29.000000"
 preserveAspectRatio="xMidYMid meet">
<metadata>
Created by potrace 1.16, written by Peter Selinger 2001-2019
</metadata>
<g transform="translate(0.000000,29.000000) scale(0.100000,-0.100000)"
fill="#000000" stroke="none">
<path d="M17 283 l-7 -6 0 -38 0 -37 6 -16 6 -16 23 0 23 0 4 -12 5 -13 -13
-12 -13 -13 -20 0 -21 0 0 -37 0 -38 -6 -23 -6 -22 55 0 56 0 15 16 16 15 1
22 0 22 11 -21 10 -22 30 -6 31 -6 38 0 39 0 0 55 0 54 -35 7 -35 6 0 9 0 9
23 0 24 0 11 25 12 26 0 39 0 40 -138 0 -139 0 -6 -7z"/>
</g>
</svg>
