<?xml version="1.0" standalone="no"?>
<!DOCTYPE svg PUBLIC "-//W3C//DTD SVG 20010904//EN"
 "http://www.w3.org/TR/2001/REC-SVG-20010904/DTD/svg10.dtd">
<svg version="1.0" xmlns="http://www.w3.org/2000/svg"
 width="36.000000pt" height="30.000000pt" viewBox="0 0 36.000000 30.000000"
 preserveAspectRatio="xMidYMid meet">
<metadata>
Created by potrace 1.16, written by Peter Selinger 2001-2019
</metadata>
<g transform="translate(0.000000,30.000000) scale(0.100000,-0.100000)"
fill="#000000" stroke="none">
<path d="M70 252 l0 -50 -16 -6 -16 -6 -19 0 -19 0 0 -35 0 -35 24 -11 24 -11
9 -47 8 -46 53 -3 52 -3 15 15 15 15 1 28 1 28 5 -19 5 -20 13 -13 14 -13 34
0 35 0 16 6 16 6 0 23 0 22 -6 32 -7 32 -29 6 -29 6 4 11 4 11 30 3 30 3 12
25 11 25 0 26 0 26 -50 -7 -50 -7 -15 -5 -15 -6 0 -10 0 -9 -13 -13 -12 -13
-13 5 -12 4 0 28 0 27 -32 6 -33 6 -22 7 -23 6 0 -50z"/>
</g>
</svg>
