<?xml version="1.0" standalone="no"?>
<!DOCTYPE svg PUBLIC "-//W3C//DTD SVG 20010904//EN"
 "http://www.w3.org/TR/2001/REC-SVG-20010904/DTD/svg10.dtd">
<svg version="1.0" xmlns="http://www.w3.org/2000/svg"
 width="36.000000pt" height="38.000000pt" viewBox="0 0 36.000000 38.000000"
 preserveAspectRatio="xMidYMid meet">
<metadata>
Created by potrace 1.16, written by Peter Selinger 2001-2019
</metadata>
<g transform="translate(0.000000,38.000000) scale(0.100000,-0.100000)"
fill="#000000" stroke="none">
<path d="M181 358 l3 -23 -8 -22 -7 -23 -15 0 -14 0 0 -10 0 -9 -13 5 -13 5 4
34 4 34 -23 5 -24 5 -39 6 -39 6 7 -32 6 -31 0 -25 0 -24 18 2 17 1 12 -1 12
-1 6 -20 6 -20 -15 -15 -15 -15 -10 0 -11 0 0 -30 0 -30 -11 0 -10 0 3 -23 3
-22 42 -9 43 -10 0 -27 0 -27 16 -6 16 -6 15 0 14 0 15 14 14 15 0 10 0 11 28
6 27 6 18 5 19 5 -6 24 -6 24 -6 26 -7 26 14 9 14 9 38 0 37 0 0 30 0 30 -39
0 -39 0 -6 34 -7 35 6 24 6 24 -32 7 -31 6 -20 0 -19 0 2 -22z"/>
</g>
</svg>
