<?xml version="1.0" standalone="no"?>
<!DOCTYPE svg PUBLIC "-//W3C//DTD SVG 20010904//EN"
 "http://www.w3.org/TR/2001/REC-SVG-20010904/DTD/svg10.dtd">
<svg version="1.0" xmlns="http://www.w3.org/2000/svg"
 width="34.000000pt" height="28.000000pt" viewBox="0 0 34.000000 28.000000"
 preserveAspectRatio="xMidYMid meet">
<metadata>
Created by potrace 1.16, written by Peter Selinger 2001-2019
</metadata>
<g transform="translate(0.000000,28.000000) scale(0.100000,-0.100000)"
fill="#000000" stroke="none">
<path d="M70 229 l0 -47 -16 -6 -16 -6 -19 0 -19 0 0 -25 0 -25 24 -11 24 -11
9 -47 8 -46 43 -3 42 -3 14 14 14 14 4 27 3 27 10 2 10 2 3 -19 4 -20 13 -13
14 -13 28 0 28 0 14 9 13 9 -7 41 -7 42 -29 6 -30 6 3 21 3 21 31 3 31 3 12
25 11 25 0 16 0 15 -37 -6 -38 -7 -17 -5 -18 -5 0 -10 0 -10 -15 -15 -15 -15
-20 6 -20 6 0 27 0 27 -45 11 -45 10 0 -47z"/>
</g>
</svg>
