<?xml version="1.0" standalone="no"?>
<!DOCTYPE svg PUBLIC "-//W3C//DTD SVG 20010904//EN"
 "http://www.w3.org/TR/2001/REC-SVG-20010904/DTD/svg10.dtd">
<svg version="1.0" xmlns="http://www.w3.org/2000/svg"
 width="34.000000pt" height="36.000000pt" viewBox="0 0 34.000000 36.000000"
 preserveAspectRatio="xMidYMid meet">
<metadata>
Created by potrace 1.16, written by Peter Selinger 2001-2019
</metadata>
<g transform="translate(0.000000,36.000000) scale(0.100000,-0.100000)"
fill="#000000" stroke="none">
<path d="M185 341 l6 -19 -12 -26 -12 -26 -13 0 -12 0 -4 -11 -4 -12 -22 7
-23 8 7 33 6 34 -23 5 -24 5 -28 4 -28 4 5 -14 6 -15 0 -28 0 -28 19 5 18 5
17 -17 16 -16 0 -20 0 -20 -14 -15 -15 -14 -10 0 -11 0 0 -29 0 -29 -12 -4
-12 -4 8 -12 7 -12 40 -6 39 -7 0 -28 0 -28 20 -6 20 -6 15 15 15 15 0 10 0
10 18 4 17 5 28 6 29 7 -8 17 -7 17 -5 34 -4 33 13 9 14 9 38 0 37 0 0 20 0
20 -39 0 -40 0 -7 45 -6 45 5 14 6 14 -31 6 -30 6 -10 0 -9 0 6 -19z"/>
</g>
</svg>
