<?xml version="1.0" standalone="no"?>
<!DOCTYPE svg PUBLIC "-//W3C//DTD SVG 20010904//EN"
 "http://www.w3.org/TR/2001/REC-SVG-20010904/DTD/svg10.dtd">
<svg version="1.0" xmlns="http://www.w3.org/2000/svg"
 width="39.000000pt" height="37.000000pt" viewBox="0 0 39.000000 37.000000"
 preserveAspectRatio="xMidYMid meet">
<metadata>
Created by potrace 1.16, written by Peter Selinger 2001-2019
</metadata>
<g transform="translate(0.000000,37.000000) scale(0.100000,-0.100000)"
fill="#000000" stroke="none">
<path d="M86 362 l-6 -5 0 -39 0 -38 -34 0 -34 0 -6 -16 -6 -16 0 -27 0 -28
25 -11 26 -12 14 0 15 0 0 -29 0 -29 6 -16 6 -16 39 0 39 0 0 -24 0 -25 16
-15 15 -16 30 0 30 0 15 14 14 15 0 15 0 16 24 0 25 0 15 16 16 15 0 23 0 23
-6 32 -7 32 -28 6 -29 6 0 18 0 19 29 0 29 0 16 6 16 6 0 49 0 49 -65 0 -65 0
0 -21 0 -20 -14 -15 -15 -14 -14 14 -14 15 4 24 5 25 -60 0 -61 0 -5 -6z"/>
</g>
</svg>
