<?xml version="1.0" standalone="no"?>
<!DOCTYPE svg PUBLIC "-//W3C//DTD SVG 20010904//EN"
 "http://www.w3.org/TR/2001/REC-SVG-20010904/DTD/svg10.dtd">
<svg version="1.0" xmlns="http://www.w3.org/2000/svg"
 width="37.000000pt" height="35.000000pt" viewBox="0 0 37.000000 35.000000"
 preserveAspectRatio="xMidYMid meet">
<metadata>
Created by potrace 1.16, written by Peter Selinger 2001-2019
</metadata>
<g transform="translate(0.000000,35.000000) scale(0.100000,-0.100000)"
fill="#000000" stroke="none">
<path d="M84 335 l-3 -10 -3 -35 -3 -35 -29 3 -29 4 -8 -14 -9 -13 0 -21 0
-22 29 -12 30 -12 10 7 11 6 0 -38 0 -38 9 -14 9 -13 36 4 36 4 0 -27 0 -28
16 -15 15 -16 20 0 20 0 15 14 14 15 0 15 0 16 24 0 25 0 16 17 17 16 -6 41
-7 40 -12 8 -12 8 -17 0 -18 0 0 30 0 30 29 0 29 0 16 6 16 6 0 39 0 39 -56 0
-56 0 6 -17 7 -16 -20 -19 -20 -18 -10 0 -10 0 -16 16 -16 17 5 22 6 22 -51
-1 -52 -1 -3 -10z"/>
</g>
</svg>
