<?xml version="1.0" standalone="no"?>
<!DOCTYPE svg PUBLIC "-//W3C//DTD SVG 20010904//EN"
 "http://www.w3.org/TR/2001/REC-SVG-20010904/DTD/svg10.dtd">
<svg version="1.0" xmlns="http://www.w3.org/2000/svg"
 width="42.000000pt" height="27.000000pt" viewBox="0 0 42.000000 27.000000"
 preserveAspectRatio="xMidYMid meet">
<metadata>
Created by potrace 1.16, written by Peter Selinger 2001-2019
</metadata>
<g transform="translate(0.000000,27.000000) scale(0.100000,-0.100000)"
fill="#000000" stroke="none">
<path d="M90 220 l0 -50 -22 0 -23 0 -23 -6 -22 -6 0 -14 0 -13 22 -21 22 -20
18 6 18 5 0 -35 0 -35 17 -16 17 -17 44 5 44 5 9 13 9 14 -4 18 -4 17 24 0 24
0 0 -9 0 -10 16 -15 15 -16 30 0 29 0 -6 24 -6 25 7 20 6 21 32 -3 32 -2 3 27
3 28 -13 -5 -13 -4 -16 12 -15 12 -10 45 -9 45 -32 3 -33 3 6 -29 6 -29 -17
-16 -16 -17 -20 0 -20 0 -21 19 -21 20 6 20 5 21 -26 1 -27 0 -22 5 -23 4 0
-50z"/>
</g>
</svg>
