<?xml version="1.0" standalone="no"?>
<!DOCTYPE svg PUBLIC "-//W3C//DTD SVG 20010904//EN"
 "http://www.w3.org/TR/2001/REC-SVG-20010904/DTD/svg10.dtd">
<svg version="1.0" xmlns="http://www.w3.org/2000/svg"
 width="44.000000pt" height="29.000000pt" viewBox="0 0 44.000000 29.000000"
 preserveAspectRatio="xMidYMid meet">
<metadata>
Created by potrace 1.16, written by Peter Selinger 2001-2019
</metadata>
<g transform="translate(0.000000,29.000000) scale(0.100000,-0.100000)"
fill="#000000" stroke="none">
<path d="M90 240 l0 -50 -22 0 -23 0 -23 -6 -22 -6 0 -24 0 -23 22 -21 22 -20
18 0 18 0 0 -29 0 -30 16 -15 15 -16 37 0 37 0 23 6 23 7 6 28 6 29 8 0 9 0 0
-9 0 -10 16 -15 15 -16 41 0 40 0 -6 33 -6 32 8 10 7 10 30 0 30 0 3 36 3 36
-29 6 -28 6 -10 48 -9 48 -44 3 -44 3 6 -30 6 -30 -15 -16 -15 -15 -10 0 -9 0
-20 17 -19 17 5 22 5 21 -47 7 -47 6 -13 0 -14 0 0 -50z"/>
</g>
</svg>
