<?xml version="1.0" standalone="no"?>
<!DOCTYPE svg PUBLIC "-//W3C//DTD SVG 20010904//EN"
 "http://www.w3.org/TR/2001/REC-SVG-20010904/DTD/svg10.dtd">
<svg version="1.0" xmlns="http://www.w3.org/2000/svg"
 width="37.000000pt" height="30.000000pt" viewBox="0 0 37.000000 30.000000"
 preserveAspectRatio="xMidYMid meet">
<metadata>
Created by potrace 1.16, written by Peter Selinger 2001-2019
</metadata>
<g transform="translate(0.000000,30.000000) scale(0.100000,-0.100000)"
fill="#000000" stroke="none">
<path d="M80 247 l0 -55 -16 -6 -16 -6 -24 0 -24 0 0 -30 0 -30 19 0 20 0 15
-16 16 -15 0 -45 0 -44 48 0 47 0 23 6 22 6 0 40 0 39 10 -6 10 -6 0 -24 0
-24 41 -11 42 -11 23 5 24 6 0 28 0 27 -11 38 -10 37 -27 1 -27 1 20 5 20 4
23 5 23 5 -3 57 -3 57 -22 3 -23 3 0 -10 0 -11 -27 0 -28 0 -11 -8 -11 -7 -7
-21 -7 -22 -19 5 -20 5 0 28 0 28 -32 5 -33 5 -22 7 -23 7 0 -55z"/>
</g>
</svg>
