<?xml version="1.0" standalone="no"?>
<!DOCTYPE svg PUBLIC "-//W3C//DTD SVG 20010904//EN"
 "http://www.w3.org/TR/2001/REC-SVG-20010904/DTD/svg10.dtd">
<svg version="1.0" xmlns="http://www.w3.org/2000/svg"
 width="35.000000pt" height="28.000000pt" viewBox="0 0 35.000000 28.000000"
 preserveAspectRatio="xMidYMid meet">
<metadata>
Created by potrace 1.16, written by Peter Selinger 2001-2019
</metadata>
<g transform="translate(0.000000,28.000000) scale(0.100000,-0.100000)"
fill="#000000" stroke="none">
<path d="M91 262 l-11 -4 0 -43 0 -43 -16 -6 -16 -6 -24 0 -24 0 0 -20 0 -20
19 0 20 0 15 -16 16 -15 0 -45 0 -44 38 0 37 0 23 6 22 6 0 40 0 39 18 -3 17
-3 3 -27 3 -28 39 -10 38 -10 16 6 16 6 0 17 0 16 -11 38 -10 39 -25 -6 -24
-6 0 20 0 20 24 0 24 0 16 6 16 6 0 43 0 44 -12 7 -12 8 -4 -12 -4 -12 -23 0
-23 0 -16 -6 -16 -6 0 -12 0 -11 -9 -13 -8 -13 -26 7 -27 6 0 28 0 28 -34 4
-34 4 -11 -4z"/>
</g>
</svg>
