<?xml version="1.0" standalone="no"?>
<!DOCTYPE svg PUBLIC "-//W3C//DTD SVG 20010904//EN"
 "http://www.w3.org/TR/2001/REC-SVG-20010904/DTD/svg10.dtd">
<svg version="1.0" xmlns="http://www.w3.org/2000/svg"
 width="38.000000pt" height="37.000000pt" viewBox="0 0 38.000000 37.000000"
 preserveAspectRatio="xMidYMid meet">
<metadata>
Created by potrace 1.16, written by Peter Selinger 2001-2019
</metadata>
<g transform="translate(0.000000,37.000000) scale(0.100000,-0.100000)"
fill="#000000" stroke="none">
<path d="M160 343 l2 -28 -1 -12 -1 -13 -20 0 -19 0 -7 35 -6 35 -48 0 -47 0
-7 -37 -6 -38 0 -12 0 -13 26 0 25 0 13 -13 13 -12 -4 -12 -4 -12 -35 -7 -35
-6 3 -57 3 -56 41 -3 41 -3 -5 -24 -4 -24 15 -16 16 -15 29 0 30 0 6 16 6 16
0 32 0 33 56 -5 57 -5 -7 45 -7 45 36 6 35 6 16 16 17 16 -7 67 -7 66 -3 3 -3
3 -102 5 -103 6 2 -28z"/>
</g>
</svg>
