<?xml version="1.0" standalone="no"?>
<!DOCTYPE svg PUBLIC "-//W3C//DTD SVG 20010904//EN"
 "http://www.w3.org/TR/2001/REC-SVG-20010904/DTD/svg10.dtd">
<svg version="1.0" xmlns="http://www.w3.org/2000/svg"
 width="36.000000pt" height="35.000000pt" viewBox="0 0 36.000000 35.000000"
 preserveAspectRatio="xMidYMid meet">
<metadata>
Created by potrace 1.16, written by Peter Selinger 2001-2019
</metadata>
<g transform="translate(0.000000,35.000000) scale(0.100000,-0.100000)"
fill="#000000" stroke="none">
<path d="M164 326 l6 -24 -6 -16 -6 -16 -29 0 -28 0 -7 35 -6 35 -39 0 -39 0
0 -17 0 -18 -6 -22 -6 -23 27 0 26 0 15 -15 15 -15 -6 -20 -6 -19 -35 -7 -35
-6 3 -47 3 -46 43 -3 44 -3 -6 -25 -7 -25 15 -14 15 -15 19 0 20 0 6 16 6 16
0 34 0 34 55 -6 54 -7 -5 50 -6 49 35 0 34 0 15 15 15 14 0 33 0 32 -8 0 -8 0
6 30 6 30 -32 0 -31 0 -7 3 -8 2 -3 -18 -4 -19 6 -24 6 -24 28 -1 27 -1 -28
-10 -28 -10 -14 18 -14 19 -1 31 0 32 -22 6 -23 6 -24 0 -23 0 6 -24z"/>
</g>
</svg>
