<?xml version="1.0" standalone="no"?>
<!DOCTYPE svg PUBLIC "-//W3C//DTD SVG 20010904//EN"
 "http://www.w3.org/TR/2001/REC-SVG-20010904/DTD/svg10.dtd">
<svg version="1.0" xmlns="http://www.w3.org/2000/svg"
 width="34.000000pt" height="36.000000pt" viewBox="0 0 34.000000 36.000000"
 preserveAspectRatio="xMidYMid meet">
<metadata>
Created by potrace 1.16, written by Peter Selinger 2001-2019
</metadata>
<g transform="translate(0.000000,36.000000) scale(0.100000,-0.100000)"
fill="#000000" stroke="none">
<path d="M174 337 l6 -26 -11 -25 -12 -26 -19 -5 -18 -6 -16 16 -16 16 5 29 6
28 -50 4 -49 3 5 -13 5 -14 0 -29 0 -29 24 0 24 0 16 -6 16 -6 0 -32 0 -31 -9
-14 -9 -13 -13 4 -14 5 -12 -30 -13 -29 0 -19 0 -19 35 0 35 0 0 -29 0 -29 16
-6 16 -6 8 0 9 0 16 16 16 17 -5 23 -6 24 47 0 48 0 -3 50 -4 49 24 5 23 5 20
3 20 3 3 29 4 29 -25 -7 -25 -6 -16 6 -16 6 0 49 0 49 -14 0 -13 0 -33 7 -33
6 7 -26z"/>
</g>
</svg>
