<?xml version="1.0" standalone="no"?>
<!DOCTYPE svg PUBLIC "-//W3C//DTD SVG 20010904//EN"
 "http://www.w3.org/TR/2001/REC-SVG-20010904/DTD/svg10.dtd">
<svg version="1.0" xmlns="http://www.w3.org/2000/svg"
 width="36.000000pt" height="38.000000pt" viewBox="0 0 36.000000 38.000000"
 preserveAspectRatio="xMidYMid meet">
<metadata>
Created by potrace 1.16, written by Peter Selinger 2001-2019
</metadata>
<g transform="translate(0.000000,38.000000) scale(0.100000,-0.100000)"
fill="#000000" stroke="none">
<path d="M170 353 l2 -28 -1 -12 -1 -12 -16 -15 -15 -16 -15 14 -14 14 6 30 6
29 -59 5 -58 5 -2 -1 -3 -2 7 -52 6 -52 23 0 22 0 16 -6 16 -6 0 -18 0 -18 -6
-15 -5 -15 -17 5 -18 4 -12 -34 -12 -33 0 -27 0 -27 35 0 35 0 0 -29 0 -29 16
-6 16 -6 18 0 19 0 15 16 16 15 0 25 0 24 45 0 44 0 -6 49 -6 50 24 5 24 5 20
3 20 3 3 38 3 39 -28 -2 -28 -2 -12 1 -13 1 0 49 0 48 -37 7 -38 6 -18 0 -19
0 2 -27z"/>
</g>
</svg>
