<?xml version="1.0" standalone="no"?>
<!DOCTYPE svg PUBLIC "-//W3C//DTD SVG 20010904//EN"
 "http://www.w3.org/TR/2001/REC-SVG-20010904/DTD/svg10.dtd">
<svg version="1.0" xmlns="http://www.w3.org/2000/svg"
 width="29.000000pt" height="52.000000pt" viewBox="0 0 29.000000 52.000000"
 preserveAspectRatio="xMidYMid meet">
<metadata>
Created by potrace 1.16, written by Peter Selinger 2001-2019
</metadata>
<g transform="translate(0.000000,52.000000) scale(0.100000,-0.100000)"
fill="#000000" stroke="none">
<path d="M213 513 l-23 -4 0 -24 0 -24 -34 -7 -35 -6 -11 7 -11 7 2 -34 2 -33
-7 -22 -7 -23 -25 0 -24 0 0 -12 0 -13 -6 -22 -6 -23 36 0 36 0 0 -11 0 -11
-48 4 -47 3 -3 -42 -3 -42 23 -5 23 -5 20 -3 20 -3 3 -28 3 -27 -30 0 -29 0
-16 -6 -16 -6 0 -44 0 -43 35 -7 35 -6 25 6 25 6 0 30 0 30 29 0 29 0 -5 -19
-5 -18 33 -12 32 -11 11 0 11 0 13 9 14 8 -11 41 -11 40 -25 6 -25 6 0 18 0
17 9 14 9 14 11 -7 11 -7 20 6 20 6 0 45 0 44 -11 0 -11 0 7 39 6 39 -34 6
-35 7 -6 25 -7 25 16 15 15 15 20 -6 20 -6 0 45 0 46 -17 -1 -18 -2 -22 -4z
m-33 -188 l13 -25 -11 -22 -11 -23 0 22 -1 21 -6 16 -6 16 -24 0 -24 0 6 -25
6 -25 -11 0 -11 0 0 8 0 7 -6 22 -6 21 19 5 18 5 21 1 21 1 13 -25z m60 -70
l-35 -13 -12 -1 -13 -1 0 9 0 10 28 4 27 4 20 1 20 0 -35 -13z"/>
</g>
</svg>
