<?xml version="1.0" standalone="no"?>
<!DOCTYPE svg PUBLIC "-//W3C//DTD SVG 20010904//EN"
 "http://www.w3.org/TR/2001/REC-SVG-20010904/DTD/svg10.dtd">
<svg version="1.0" xmlns="http://www.w3.org/2000/svg"
 width="31.000000pt" height="54.000000pt" viewBox="0 0 31.000000 54.000000"
 preserveAspectRatio="xMidYMid meet">
<metadata>
Created by potrace 1.16, written by Peter Selinger 2001-2019
</metadata>
<g transform="translate(0.000000,54.000000) scale(0.100000,-0.100000)"
fill="#000000" stroke="none">
<path d="M213 533 l-23 -4 0 -24 0 -23 -23 -6 -23 -5 -22 6 -22 5 0 -40 0 -40
-6 -16 -6 -16 -23 0 -23 0 -7 -39 -6 -39 -15 -6 -14 -5 0 -50 0 -51 22 -4 23
-5 20 -3 20 -3 3 -18 3 -17 -29 0 -30 0 -16 -6 -16 -6 0 -53 0 -53 23 -6 22
-6 32 0 31 0 16 6 16 6 0 29 0 29 15 0 15 0 0 -20 0 -19 39 -12 39 -12 26 7
26 6 0 18 0 17 -10 36 -10 37 -25 6 -25 6 0 11 0 10 13 3 12 4 28 6 27 6 0 55
0 55 -9 0 -9 0 5 39 5 38 -35 7 -36 7 -3 17 -4 17 10 11 10 10 23 -4 23 -4 0
56 0 56 -27 -1 -28 -2 -22 -4z"/>
</g>
</svg>
