<?xml version="1.0" standalone="no"?>
<!DOCTYPE svg PUBLIC "-//W3C//DTD SVG 20010904//EN"
 "http://www.w3.org/TR/2001/REC-SVG-20010904/DTD/svg10.dtd">
<svg version="1.0" xmlns="http://www.w3.org/2000/svg"
 width="28.000000pt" height="34.000000pt" viewBox="0 0 28.000000 34.000000"
 preserveAspectRatio="xMidYMid meet">
<metadata>
Created by potrace 1.16, written by Peter Selinger 2001-2019
</metadata>
<g transform="translate(0.000000,34.000000) scale(0.100000,-0.100000)"
fill="#000000" stroke="none">
<path d="M12 293 l3 -47 38 -9 37 -9 0 -19 0 -19 -27 -7 -28 -7 -17 3 -18 2 1
-60 1 -61 52 0 53 0 -5 -30 -4 -30 40 0 41 0 7 36 6 35 39 -6 39 -7 0 49 0 48
-8 11 -7 11 -22 7 -23 7 0 12 0 12 9 13 8 13 26 -7 27 -6 0 52 0 53 -42 -7
-43 -7 -12 -17 -12 -17 -11 -13 -11 -12 -15 14 -15 15 7 26 6 25 -61 0 -62 0
3 -47z"/>
</g>
</svg>
