<?xml version="1.0" standalone="no"?>
<!DOCTYPE svg PUBLIC "-//W3C//DTD SVG 20010904//EN"
 "http://www.w3.org/TR/2001/REC-SVG-20010904/DTD/svg10.dtd">
<svg version="1.0" xmlns="http://www.w3.org/2000/svg"
 width="26.000000pt" height="32.000000pt" viewBox="0 0 26.000000 32.000000"
 preserveAspectRatio="xMidYMid meet">
<metadata>
Created by potrace 1.16, written by Peter Selinger 2001-2019
</metadata>
<g transform="translate(0.000000,32.000000) scale(0.100000,-0.100000)"
fill="#000000" stroke="none">
<path d="M12 283 l3 -37 38 -9 37 -9 0 -28 0 -28 -35 -12 -35 -11 -9 6 -10 6
2 -51 2 -50 53 0 54 0 -7 -30 -7 -30 30 0 30 0 6 25 7 26 -7 11 -7 11 47 -5
46 -6 0 37 0 36 -8 11 -7 11 -22 7 -23 7 0 22 0 22 9 14 9 14 26 -5 26 -5 0
40 0 39 -22 -6 -23 -6 -13 0 -12 0 -12 -25 -11 -25 -19 -5 -18 -6 -16 16 -16
16 5 24 4 25 -49 0 -49 0 3 -37z"/>
</g>
</svg>
