<?xml version="1.0" standalone="no"?>
<!DOCTYPE svg PUBLIC "-//W3C//DTD SVG 20010904//EN"
 "http://www.w3.org/TR/2001/REC-SVG-20010904/DTD/svg10.dtd">
<svg version="1.0" xmlns="http://www.w3.org/2000/svg"
 width="34.000000pt" height="29.000000pt" viewBox="0 0 34.000000 29.000000"
 preserveAspectRatio="xMidYMid meet">
<metadata>
Created by potrace 1.16, written by Peter Selinger 2001-2019
</metadata>
<g transform="translate(0.000000,29.000000) scale(0.100000,-0.100000)"
fill="#000000" stroke="none">
<path d="M10 244 l0 -45 20 6 20 6 15 -15 15 -15 0 -20 0 -21 -25 -6 -25 -6 0
-28 0 -29 -17 -16 -16 -17 14 -9 14 -9 17 0 17 0 26 12 25 11 0 29 0 28 19 0
20 0 6 -19 5 -18 -6 -16 -6 -16 17 -17 16 -17 38 12 38 11 -5 49 -4 50 15 15
15 15 28 -2 29 -2 0 20 0 20 -20 3 -20 3 -22 5 -23 4 0 36 0 36 -32 -8 -33 -7
-17 -19 -17 -20 -21 7 -21 7 -6 29 -5 29 -44 0 -44 0 0 -46z"/>
</g>
</svg>
