<?xml version="1.0" standalone="no"?>
<!DOCTYPE svg PUBLIC "-//W3C//DTD SVG 20010904//EN"
 "http://www.w3.org/TR/2001/REC-SVG-20010904/DTD/svg10.dtd">
<svg version="1.0" xmlns="http://www.w3.org/2000/svg"
 width="36.000000pt" height="31.000000pt" viewBox="0 0 36.000000 31.000000"
 preserveAspectRatio="xMidYMid meet">
<metadata>
Created by potrace 1.16, written by Peter Selinger 2001-2019
</metadata>
<g transform="translate(0.000000,31.000000) scale(0.100000,-0.100000)"
fill="#000000" stroke="none">
<path d="M10 254 l0 -56 23 4 23 4 12 -12 12 -13 0 -10 0 -11 -25 -6 -25 -6 0
-28 0 -29 -15 -15 -15 -15 0 -14 0 -15 16 -6 16 -6 23 0 24 0 26 12 25 11 0
29 0 28 10 0 10 0 1 -12 1 -13 -2 -22 -1 -23 15 -15 15 -15 19 0 19 0 32 11
31 11 -6 49 -6 48 13 13 14 13 30 0 30 0 0 30 0 30 -20 3 -20 3 -24 5 -23 5 6
39 6 40 -6 0 -7 0 -41 -12 -41 -12 -16 -18 -17 -19 -16 16 -16 16 0 20 0 19
-55 0 -55 0 0 -56z"/>
</g>
</svg>
