<?xml version="1.0" standalone="no"?>
<!DOCTYPE svg PUBLIC "-//W3C//DTD SVG 20010904//EN"
 "http://www.w3.org/TR/2001/REC-SVG-20010904/DTD/svg10.dtd">
<svg version="1.0" xmlns="http://www.w3.org/2000/svg"
 width="37.000000pt" height="36.000000pt" viewBox="0 0 37.000000 36.000000"
 preserveAspectRatio="xMidYMid meet">
<metadata>
Created by potrace 1.16, written by Peter Selinger 2001-2019
</metadata>
<g transform="translate(0.000000,36.000000) scale(0.100000,-0.100000)"
fill="#000000" stroke="none">
<path d="M53 338 l-53 -11 0 -28 0 -29 10 0 10 0 0 -35 0 -35 38 0 37 0 14 -9
14 -9 -17 -50 -16 -51 0 -5 0 -6 45 0 45 0 0 -19 0 -20 16 -15 15 -16 23 0 23
0 11 25 12 25 19 0 20 0 24 11 24 11 2 54 1 54 -23 0 -22 0 -12 8 -11 7 -2 15
-2 15 1 13 1 14 30 -7 30 -7 0 57 0 57 -26 -6 -26 -7 -28 -6 -28 -5 -6 -24 -6
-24 -11 0 -10 0 -14 13 -13 13 -4 20 -3 19 -40 1 -40 2 -52 -10z"/>
</g>
</svg>
