<?xml version="1.0" standalone="no"?>
<!DOCTYPE svg PUBLIC "-//W3C//DTD SVG 20010904//EN"
 "http://www.w3.org/TR/2001/REC-SVG-20010904/DTD/svg10.dtd">
<svg version="1.0" xmlns="http://www.w3.org/2000/svg"
 width="43.000000pt" height="30.000000pt" viewBox="0 0 43.000000 30.000000"
 preserveAspectRatio="xMidYMid meet">
<metadata>
Created by potrace 1.16, written by Peter Selinger 2001-2019
</metadata>
<g transform="translate(0.000000,30.000000) scale(0.100000,-0.100000)"
fill="#000000" stroke="none">
<path d="M310 291 l0 -10 -32 -3 -33 -3 0 -20 0 -20 -18 -17 -19 -17 -14 6
-14 5 -1 17 -1 16 -2 20 -1 20 -54 3 -53 3 6 -44 7 -45 -16 -6 -17 -6 -24 0
-25 0 3 -27 3 -28 38 -6 37 -6 6 -5 5 -6 -12 -46 -12 -47 6 -6 7 -6 51 -5 51
-5 9 14 9 14 1 35 2 35 4 -29 5 -29 13 -14 14 -13 50 0 51 0 0 10 0 10 15 0
15 0 0 29 0 29 6 16 6 16 10 0 9 0 15 14 14 15 0 19 0 20 -16 6 -16 6 -18 0
-19 0 -3 48 -3 47 -22 3 -23 3 0 -10z"/>
</g>
</svg>
