<?xml version="1.0" standalone="no"?>
<!DOCTYPE svg PUBLIC "-//W3C//DTD SVG 20010904//EN"
 "http://www.w3.org/TR/2001/REC-SVG-20010904/DTD/svg10.dtd">
<svg version="1.0" xmlns="http://www.w3.org/2000/svg"
 width="35.000000pt" height="34.000000pt" viewBox="0 0 35.000000 34.000000"
 preserveAspectRatio="xMidYMid meet">
<metadata>
Created by potrace 1.16, written by Peter Selinger 2001-2019
</metadata>
<g transform="translate(0.000000,34.000000) scale(0.100000,-0.100000)"
fill="#000000" stroke="none">
<path d="M100 296 l0 -35 -20 -11 -21 -11 -19 6 -20 6 0 -25 0 -26 34 0 34 0
16 -6 16 -6 0 -22 -1 -21 -13 -37 -14 -38 48 0 48 0 -5 -19 -5 -18 17 -17 16
-16 13 0 13 0 11 25 12 25 22 0 23 1 20 12 20 12 3 42 3 43 -23 0 -23 0 -12 8
-11 7 -6 25 -6 25 9 14 9 14 26 -5 26 -5 0 42 0 42 -44 -10 -45 -10 -5 -24 -6
-23 -21 0 -20 0 -14 13 -13 13 -4 20 -3 19 -33 3 -32 3 0 -35z M27 313 l-27
-4 0 -19 0 -20 25 -6 25 -6 15 6 15 5 0 26 0 25 -12 -1 -13 -2 -28 -4z"/>
</g>
</svg>
