<?xml version="1.0" standalone="no"?>
<!DOCTYPE svg PUBLIC "-//W3C//DTD SVG 20010904//EN"
 "http://www.w3.org/TR/2001/REC-SVG-20010904/DTD/svg10.dtd">
<svg version="1.0" xmlns="http://www.w3.org/2000/svg"
 width="41.000000pt" height="28.000000pt" viewBox="0 0 41.000000 28.000000"
 preserveAspectRatio="xMidYMid meet">
<metadata>
Created by potrace 1.16, written by Peter Selinger 2001-2019
</metadata>
<g transform="translate(0.000000,28.000000) scale(0.100000,-0.100000)"
fill="#000000" stroke="none">
<path d="M314 272 l6 -11 -37 -3 -38 -3 3 -18 3 -19 -22 -19 -22 -19 -11 0
-11 0 -14 9 -13 8 -3 34 -2 34 -42 3 -41 3 6 -41 7 -42 -14 -9 -14 -9 -28 0
-28 0 3 -17 3 -18 38 -6 37 -6 7 -6 6 -7 -10 -47 -11 -48 3 -3 3 -4 42 -5 42
-6 9 14 9 14 0 33 0 32 15 0 15 0 0 -26 0 -25 14 -15 15 -14 40 0 41 0 0 10 0
10 15 0 15 0 0 29 0 29 6 16 6 16 10 0 9 0 15 14 14 15 0 9 0 10 -16 6 -16 6
-19 0 -19 0 -1 13 -2 12 -1 34 -1 34 -14 5 -14 5 7 -11z"/>
</g>
</svg>
