<?xml version="1.0" standalone="no"?>
<!DOCTYPE svg PUBLIC "-//W3C//DTD SVG 20010904//EN"
 "http://www.w3.org/TR/2001/REC-SVG-20010904/DTD/svg10.dtd">
<svg version="1.0" xmlns="http://www.w3.org/2000/svg"
 width="42.000000pt" height="36.000000pt" viewBox="0 0 42.000000 36.000000"
 preserveAspectRatio="xMidYMid meet">
<metadata>
Created by potrace 1.16, written by Peter Selinger 2001-2019
</metadata>
<g transform="translate(0.000000,36.000000) scale(0.100000,-0.100000)"
fill="#000000" stroke="none">
<path d="M76 344 l-6 -16 0 -29 0 -29 -29 0 -29 0 -6 -16 -6 -16 0 -28 0 -29
23 -7 22 -7 7 -11 8 -11 0 -31 0 -32 16 -6 16 -6 34 0 34 0 0 -21 0 -20 15
-16 16 -15 34 6 35 7 0 12 0 12 41 13 41 13 13 13 13 13 -5 45 -5 46 31 7 31
7 0 28 0 28 -30 7 -30 7 -6 39 -7 39 -27 0 -28 0 -16 -6 -16 -6 0 -10 0 -9
-14 -15 -15 -14 -6 0 -6 0 -15 14 -14 15 0 15 0 15 -17 4 -18 5 -36 6 -37 6
-6 -16z"/>
</g>
</svg>
