<?xml version="1.0" standalone="no"?>
<!DOCTYPE svg PUBLIC "-//W3C//DTD SVG 20010904//EN"
 "http://www.w3.org/TR/2001/REC-SVG-20010904/DTD/svg10.dtd">
<svg version="1.0" xmlns="http://www.w3.org/2000/svg"
 width="40.000000pt" height="34.000000pt" viewBox="0 0 40.000000 34.000000"
 preserveAspectRatio="xMidYMid meet">
<metadata>
Created by potrace 1.16, written by Peter Selinger 2001-2019
</metadata>
<g transform="translate(0.000000,34.000000) scale(0.100000,-0.100000)"
fill="#000000" stroke="none">
<path d="M83 323 l-13 -5 0 -37 0 -38 -26 5 -26 5 -9 -14 -9 -14 0 -22 0 -22
23 -7 22 -7 7 -11 8 -11 0 -31 0 -32 16 -6 16 -6 34 0 34 0 0 -21 0 -20 15
-15 14 -15 26 7 25 6 0 12 0 11 41 13 40 13 12 11 12 11 -3 47 -4 48 31 7 31
7 0 18 0 18 -30 7 -30 7 -6 39 -7 39 -17 0 -18 0 -16 -6 -16 -6 0 -10 0 -9
-14 -15 -15 -14 -16 0 -16 0 -15 14 -14 15 0 14 0 15 -16 6 -16 6 -21 -1 -22
-1 -12 -5z"/>
</g>
</svg>
