<?xml version="1.0" standalone="no"?>
<!DOCTYPE svg PUBLIC "-//W3C//DTD SVG 20010904//EN"
 "http://www.w3.org/TR/2001/REC-SVG-20010904/DTD/svg10.dtd">
<svg version="1.0" xmlns="http://www.w3.org/2000/svg"
 width="35.000000pt" height="36.000000pt" viewBox="0 0 35.000000 36.000000"
 preserveAspectRatio="xMidYMid meet">
<metadata>
Created by potrace 1.16, written by Peter Selinger 2001-2019
</metadata>
<g transform="translate(0.000000,36.000000) scale(0.100000,-0.100000)"
fill="#000000" stroke="none">
<path d="M0 317 l0 -45 6 -16 6 -16 28 0 29 0 6 -9 5 -9 -16 -16 -15 -16 -9 0
-9 0 -10 -37 -11 -38 0 -7 0 -8 45 -11 45 -11 0 -34 0 -33 19 -6 18 -5 16 6
16 6 11 34 11 34 -6 10 -6 10 37 0 37 0 -6 44 -6 44 15 6 16 6 33 0 34 0 6 10
6 10 -6 19 -6 19 -39 6 -40 6 0 40 0 40 -40 0 -40 0 0 -19 0 -19 -6 -16 -6
-16 -29 0 -29 0 0 35 0 35 -39 0 -39 0 -16 6 -16 6 0 -45z"/>
</g>
</svg>
