<?xml version="1.0" standalone="no"?>
<!DOCTYPE svg PUBLIC "-//W3C//DTD SVG 20010904//EN"
 "http://www.w3.org/TR/2001/REC-SVG-20010904/DTD/svg10.dtd">
<svg version="1.0" xmlns="http://www.w3.org/2000/svg"
 width="43.000000pt" height="34.000000pt" viewBox="0 0 43.000000 34.000000"
 preserveAspectRatio="xMidYMid meet">
<metadata>
Created by potrace 1.16, written by Peter Selinger 2001-2019
</metadata>
<g transform="translate(0.000000,34.000000) scale(0.100000,-0.100000)"
fill="#000000" stroke="none">
<path d="M97 333 l-7 -6 0 -39 0 -38 -15 -1 -15 -1 -10 -3 -10 -2 -20 -2 -20
-1 0 -26 0 -26 28 7 28 6 12 -26 12 -26 0 -39 0 -40 40 0 40 0 0 -19 0 -19 6
-16 6 -16 27 0 26 0 14 9 14 9 1 31 1 31 48 0 47 0 0 50 0 50 26 0 25 0 15 14
14 15 0 19 0 20 -16 6 -16 6 -24 0 -24 0 0 40 0 40 -123 0 -124 0 -6 -7z"/>
</g>
</svg>
