<?xml version="1.0" standalone="no"?>
<!DOCTYPE svg PUBLIC "-//W3C//DTD SVG 20010904//EN"
 "http://www.w3.org/TR/2001/REC-SVG-20010904/DTD/svg10.dtd">
<svg version="1.0" xmlns="http://www.w3.org/2000/svg"
 width="38.000000pt" height="31.000000pt" viewBox="0 0 38.000000 31.000000"
 preserveAspectRatio="xMidYMid meet">
<metadata>
Created by potrace 1.16, written by Peter Selinger 2001-2019
</metadata>
<g transform="translate(0.000000,31.000000) scale(0.100000,-0.100000)"
fill="#000000" stroke="none">
<path d="M10 291 l-10 -20 0 -41 0 -41 15 -16 16 -15 24 5 25 4 0 -13 0 -14
-25 0 -24 0 -10 -37 -11 -38 0 -26 0 -27 22 -6 23 -6 22 0 22 0 26 12 25 11 0
29 0 28 10 0 10 0 0 -19 0 -20 16 -15 15 -16 44 0 44 0 6 19 6 19 -7 26 -6 26
27 0 28 0 18 22 19 21 0 21 0 21 -9 14 -9 14 -25 -5 -26 -5 -5 14 -6 15 0 30
0 30 -22 -6 -23 -6 -37 0 -38 0 0 -22 0 -23 -8 -11 -7 -11 -15 -5 -15 -5 -12
13 -13 13 0 30 0 31 -30 0 -30 0 0 10 0 10 -15 0 -14 0 -11 -19z"/>
</g>
</svg>
