<?xml version="1.0" standalone="no"?>
<!DOCTYPE svg PUBLIC "-//W3C//DTD SVG 20010904//EN"
 "http://www.w3.org/TR/2001/REC-SVG-20010904/DTD/svg10.dtd">
<svg version="1.0" xmlns="http://www.w3.org/2000/svg"
 width="30.000000pt" height="39.000000pt" viewBox="0 0 30.000000 39.000000"
 preserveAspectRatio="xMidYMid meet">
<metadata>
Created by potrace 1.16, written by Peter Selinger 2001-2019
</metadata>
<g transform="translate(0.000000,39.000000) scale(0.100000,-0.100000)"
fill="#000000" stroke="none">
<path d="M4 359 l6 -31 0 -28 0 -28 30 -7 30 -7 0 -14 0 -14 -14 0 -14 0 -7
-37 -7 -38 -10 -6 -11 -7 7 -26 6 -26 30 0 30 0 0 -31 0 -30 15 -16 16 -15 33
6 34 7 6 15 6 16 0 19 0 19 44 0 44 0 11 31 11 32 0 23 0 22 -6 16 -6 16 -33
0 -33 0 -6 15 -5 15 33 0 34 0 6 16 6 16 0 48 0 47 -37 7 -38 6 -17 0 -18 0 0
-26 0 -27 -22 -18 -21 -19 -14 0 -13 0 -7 31 -6 30 -28 6 -29 6 0 8 0 9 -21 0
-22 0 7 -31z"/>
</g>
</svg>
