<?xml version="1.0" standalone="no"?>
<!DOCTYPE svg PUBLIC "-//W3C//DTD SVG 20010904//EN"
 "http://www.w3.org/TR/2001/REC-SVG-20010904/DTD/svg10.dtd">
<svg version="1.0" xmlns="http://www.w3.org/2000/svg"
 width="45.000000pt" height="36.000000pt" viewBox="0 0 45.000000 36.000000"
 preserveAspectRatio="xMidYMid meet">
<metadata>
Created by potrace 1.16, written by Peter Selinger 2001-2019
</metadata>
<g transform="translate(0.000000,36.000000) scale(0.100000,-0.100000)"
fill="#000000" stroke="none">
<path d="M97 353 l-7 -6 0 -38 0 -37 -45 -6 -45 -7 0 -36 0 -35 29 4 29 4 11
-23 11 -24 0 -39 0 -40 40 0 40 0 0 -19 0 -19 6 -16 6 -16 33 0 33 0 16 6 15
6 7 34 6 34 44 0 44 0 0 50 0 50 26 0 25 0 15 14 14 15 0 29 0 30 -16 6 -16 6
-24 0 -24 0 0 40 0 40 -133 0 -134 0 -6 -7z"/>
</g>
</svg>
