<?xml version="1.0" standalone="no"?>
<!DOCTYPE svg PUBLIC "-//W3C//DTD SVG 20010904//EN"
 "http://www.w3.org/TR/2001/REC-SVG-20010904/DTD/svg10.dtd">
<svg version="1.0" xmlns="http://www.w3.org/2000/svg"
 width="36.000000pt" height="29.000000pt" viewBox="0 0 36.000000 29.000000"
 preserveAspectRatio="xMidYMid meet">
<metadata>
Created by potrace 1.16, written by Peter Selinger 2001-2019
</metadata>
<g transform="translate(0.000000,29.000000) scale(0.100000,-0.100000)"
fill="#000000" stroke="none">
<path d="M5 262 l-5 -14 0 -30 0 -29 15 -15 14 -15 26 7 27 7 -4 -29 -3 -29
-22 3 -22 3 -10 -38 -11 -38 0 -17 0 -16 31 -7 30 -7 30 13 30 12 -3 29 -3 30
8 -1 7 -1 15 0 15 0 0 -19 0 -20 16 -15 15 -16 34 0 33 0 5 13 4 12 -5 33 -5
32 28 0 28 0 18 22 19 21 0 11 0 11 -9 14 -9 13 -22 -7 -22 -7 -9 13 -9 14 0
30 0 30 -50 -3 -50 -4 0 -21 0 -22 -8 -11 -7 -11 -23 -7 -22 -7 -15 15 -15 15
0 29 0 30 -40 4 -40 3 -5 -13z"/>
</g>
</svg>
