<?xml version="1.0" standalone="no"?>
<!DOCTYPE svg PUBLIC "-//W3C//DTD SVG 20010904//EN"
 "http://www.w3.org/TR/2001/REC-SVG-20010904/DTD/svg10.dtd">
<svg version="1.0" xmlns="http://www.w3.org/2000/svg"
 width="37.000000pt" height="38.000000pt" viewBox="0 0 37.000000 38.000000"
 preserveAspectRatio="xMidYMid meet">
<metadata>
Created by potrace 1.16, written by Peter Selinger 2001-2019
</metadata>
<g transform="translate(0.000000,38.000000) scale(0.100000,-0.100000)"
fill="#000000" stroke="none">
<path d="M0 327 l0 -55 6 -16 6 -16 29 0 29 0 0 -9 0 -10 -20 -6 -19 -6 -11
-37 -10 -37 0 -17 0 -18 45 -11 45 -11 0 -34 0 -33 21 -6 20 -7 25 6 24 6 12
45 12 45 29 0 29 0 -4 45 -3 45 13 5 14 5 34 0 35 0 5 15 6 15 -6 24 -6 23
-40 7 -40 6 0 40 0 40 -50 0 -50 0 0 -19 0 -19 -6 -16 -6 -16 -19 0 -19 0 0
35 0 35 -34 0 -33 0 -32 6 -31 7 0 -56z"/>
</g>
</svg>
