<?xml version="1.0" standalone="no"?>
<!DOCTYPE svg PUBLIC "-//W3C//DTD SVG 20010904//EN"
 "http://www.w3.org/TR/2001/REC-SVG-20010904/DTD/svg10.dtd">
<svg version="1.0" xmlns="http://www.w3.org/2000/svg"
 width="29.000000pt" height="29.000000pt" viewBox="0 0 29.000000 29.000000"
 preserveAspectRatio="xMidYMid meet">
<metadata>
Created by potrace 1.16, written by Peter Selinger 2001-2019
</metadata>
<g transform="translate(0.000000,29.000000) scale(0.100000,-0.100000)"
fill="#000000" stroke="none">
<path d="M207 282 l-37 -3 6 -10 5 -9 -11 -34 -11 -34 -16 -6 -16 -6 -18 5
-19 6 0 33 0 34 -40 10 -40 10 0 -22 0 -21 -6 -21 -6 -21 36 -7 36 -7 0 -29 0
-28 -6 -16 -6 -16 -14 0 -14 0 0 -14 0 -14 -6 -31 -6 -31 24 0 25 0 22 19 23
20 -7 20 -6 21 24 0 25 0 6 -24 6 -25 18 -4 17 -5 36 -6 37 -7 11 32 11 32 0
17 0 18 -37 9 -38 9 -3 27 -3 27 15 -6 15 -6 16 15 15 16 0 34 0 35 -12 8 -13
9 -38 -3z"/>
</g>
</svg>
