<?xml version="1.0" standalone="no"?>
<!DOCTYPE svg PUBLIC "-//W3C//DTD SVG 20010904//EN"
 "http://www.w3.org/TR/2001/REC-SVG-20010904/DTD/svg10.dtd">
<svg version="1.0" xmlns="http://www.w3.org/2000/svg"
 width="31.000000pt" height="31.000000pt" viewBox="0 0 31.000000 31.000000"
 preserveAspectRatio="xMidYMid meet">
<metadata>
Created by potrace 1.16, written by Peter Selinger 2001-2019
</metadata>
<g transform="translate(0.000000,31.000000) scale(0.100000,-0.100000)"
fill="#000000" stroke="none">
<path d="M207 303 l-38 -4 2 -17 1 -17 -1 -17 -1 -17 -15 -15 -16 -15 -14 5
-15 6 0 33 0 33 -46 11 -46 12 -3 -3 -3 -3 -7 -51 -7 -51 36 -7 36 -7 0 -19 0
-18 -6 -16 -6 -16 -13 0 -12 0 -7 -38 -6 -37 0 -17 0 -18 33 0 34 0 21 19 22
18 0 22 0 21 9 0 9 0 6 -24 6 -25 18 -5 17 -5 46 -6 46 -7 12 33 11 32 0 27 0
28 -37 9 -36 8 -5 13 -4 12 17 0 16 0 15 14 14 15 0 43 0 44 -12 12 -12 12
-10 -2 -11 -1 -38 -4z"/>
</g>
</svg>
