<?xml version="1.0" standalone="no"?>
<!DOCTYPE svg PUBLIC "-//W3C//DTD SVG 20010904//EN"
 "http://www.w3.org/TR/2001/REC-SVG-20010904/DTD/svg10.dtd">
<svg version="1.0" xmlns="http://www.w3.org/2000/svg"
 width="33.000000pt" height="35.000000pt" viewBox="0 0 33.000000 35.000000"
 preserveAspectRatio="xMidYMid meet">
<metadata>
Created by potrace 1.16, written by Peter Selinger 2001-2019
</metadata>
<g transform="translate(0.000000,35.000000) scale(0.100000,-0.100000)"
fill="#000000" stroke="none">
<path d="M0 296 l0 -54 30 -7 30 -7 0 -13 0 -13 -18 -5 -19 -4 -6 -33 -7 -33
0 -27 0 -28 29 -5 28 -6 6 -30 6 -31 34 0 34 0 21 19 22 18 0 26 0 25 40 -5
41 -6 -7 41 -6 41 28 7 29 7 7 11 8 11 0 22 0 22 -20 6 -20 6 -9 -5 -9 -6 -6
16 -6 16 0 34 0 34 -15 0 -15 0 -40 -12 -40 -13 0 -11 0 -12 -18 -4 -18 -5
-12 13 -12 13 0 21 0 20 -45 0 -45 0 0 -54z"/>
</g>
</svg>
