<?xml version="1.0" standalone="no"?>
<!DOCTYPE svg PUBLIC "-//W3C//DTD SVG 20010904//EN"
 "http://www.w3.org/TR/2001/REC-SVG-20010904/DTD/svg10.dtd">
<svg version="1.0" xmlns="http://www.w3.org/2000/svg"
 width="31.000000pt" height="33.000000pt" viewBox="0 0 31.000000 33.000000"
 preserveAspectRatio="xMidYMid meet">
<metadata>
Created by potrace 1.16, written by Peter Selinger 2001-2019
</metadata>
<g transform="translate(0.000000,33.000000) scale(0.100000,-0.100000)"
fill="#000000" stroke="none">
<path d="M0 286 l0 -44 30 -7 30 -7 0 -23 0 -23 -18 -5 -19 -4 -6 -33 -7 -33
0 -17 0 -17 29 -6 28 -6 6 -30 6 -31 24 0 24 0 21 19 22 18 0 28 0 27 38 -7
38 -6 -4 41 -4 40 31 6 30 6 7 20 6 20 -13 8 -12 8 -15 -5 -14 -6 -9 14 -9 14
0 39 0 38 -22 -7 -23 -7 -22 -5 -23 -5 0 -13 0 -13 -25 -6 -26 -7 -15 16 -15
15 -2 20 -1 20 -33 0 -33 0 0 -44z"/>
</g>
</svg>
