<?xml version="1.0" standalone="no"?>
<!DOCTYPE svg PUBLIC "-//W3C//DTD SVG 20010904//EN"
 "http://www.w3.org/TR/2001/REC-SVG-20010904/DTD/svg10.dtd">
<svg version="1.0" xmlns="http://www.w3.org/2000/svg"
 width="35.000000pt" height="28.000000pt" viewBox="0 0 35.000000 28.000000"
 preserveAspectRatio="xMidYMid meet">
<metadata>
Created by potrace 1.16, written by Peter Selinger 2001-2019
</metadata>
<g transform="translate(0.000000,28.000000) scale(0.100000,-0.100000)"
fill="#000000" stroke="none">
<path d="M6 241 l-6 -39 6 -16 6 -16 18 0 18 0 16 -6 15 -6 -14 -14 -14 -14
-10 0 -10 0 -4 -17 -5 -18 -7 -47 -6 -48 54 0 55 0 6 16 6 16 0 19 0 19 15 0
15 0 0 -11 0 -10 13 -12 12 -12 36 -12 35 -13 16 0 15 0 1 45 1 45 13 14 12
13 18 -5 18 -4 0 36 0 36 -24 0 -24 0 -16 6 -16 6 0 44 0 44 -50 0 -50 0 0
-24 0 -24 -6 -16 -6 -16 -19 0 -19 0 -1 18 -1 17 2 23 1 22 -54 0 -54 0 -7
-39z"/>
</g>
</svg>
