<?xml version="1.0" standalone="no"?>
<!DOCTYPE svg PUBLIC "-//W3C//DTD SVG 20010904//EN"
 "http://www.w3.org/TR/2001/REC-SVG-20010904/DTD/svg10.dtd">
<svg version="1.0" xmlns="http://www.w3.org/2000/svg"
 width="33.000000pt" height="26.000000pt" viewBox="0 0 33.000000 26.000000"
 preserveAspectRatio="xMidYMid meet">
<metadata>
Created by potrace 1.16, written by Peter Selinger 2001-2019
</metadata>
<g transform="translate(0.000000,26.000000) scale(0.100000,-0.100000)"
fill="#000000" stroke="none">
<path d="M7 228 l-4 -33 4 -12 5 -13 18 0 18 0 16 -6 16 -6 0 -10 0 -9 -14
-15 -15 -14 -10 0 -11 0 -4 -22 -5 -23 -5 -32 -5 -33 43 0 44 0 6 16 6 16 0
19 0 19 25 0 25 0 0 -11 0 -10 13 -12 12 -12 36 -13 35 -12 5 0 4 0 3 46 2 46
15 15 16 15 14 -6 15 -5 0 24 0 25 -24 0 -24 0 -16 6 -16 6 0 44 0 44 -40 0
-40 0 0 -24 0 -24 -6 -16 -6 -16 -28 0 -28 0 -6 24 -6 24 6 16 6 16 -45 0 -45
0 -5 -32z"/>
</g>
</svg>
