<?xml version="1.0" standalone="no"?>
<!DOCTYPE svg PUBLIC "-//W3C//DTD SVG 20010904//EN"
 "http://www.w3.org/TR/2001/REC-SVG-20010904/DTD/svg10.dtd">
<svg version="1.0" xmlns="http://www.w3.org/2000/svg"
 width="27.000000pt" height="28.000000pt" viewBox="0 0 27.000000 28.000000"
 preserveAspectRatio="xMidYMid meet">
<metadata>
Created by potrace 1.16, written by Peter Selinger 2001-2019
</metadata>
<g transform="translate(0.000000,28.000000) scale(0.100000,-0.100000)"
fill="#000000" stroke="none">
<path d="M6 258 l-6 -23 0 -22 0 -23 31 0 30 0 15 -15 15 -15 -6 -20 -6 -20
-12 -1 -12 -1 -22 2 -23 1 0 -29 0 -30 -6 -31 -6 -31 50 0 50 0 16 6 16 6 0
29 0 29 10 0 10 0 0 -19 0 -19 6 -16 6 -16 55 0 55 0 -7 42 -6 43 -5 18 -5 17
-14 0 -13 0 -6 16 -6 17 5 18 6 19 25 0 24 0 0 46 0 46 -22 -7 -23 -7 -28 -5
-28 -5 -13 -25 -13 -25 -15 16 -16 16 5 20 5 20 -55 0 -55 0 -6 -22z"/>
</g>
</svg>
