<?xml version="1.0" standalone="no"?>
<!DOCTYPE svg PUBLIC "-//W3C//DTD SVG 20010904//EN"
 "http://www.w3.org/TR/2001/REC-SVG-20010904/DTD/svg10.dtd">
<svg version="1.0" xmlns="http://www.w3.org/2000/svg"
 width="38.000000pt" height="41.000000pt" viewBox="0 0 38.000000 41.000000"
 preserveAspectRatio="xMidYMid meet">
<metadata>
Created by potrace 1.16, written by Peter Selinger 2001-2019
</metadata>
<g transform="translate(0.000000,41.000000) scale(0.100000,-0.100000)"
fill="#000000" stroke="none">
<path d="M128 380 l4 -29 -26 -7 -27 -6 -29 6 -30 6 0 -44 0 -44 16 -6 16 -6
23 0 23 0 4 -12 5 -13 -4 -12 -5 -13 -36 0 -37 0 -13 -9 -14 -8 7 -47 7 -46
22 -5 21 -5 29 -2 30 -3 8 -32 8 -32 21 -6 20 -7 20 23 19 22 0 24 0 23 26 0
25 0 14 14 14 14 -6 36 -6 36 24 0 24 0 22 6 22 6 7 20 6 20 -13 9 -14 9 -27
0 -28 0 0 34 0 34 -6 16 -6 16 -24 0 -23 0 -26 12 -25 11 0 14 0 13 -33 0 -34
0 5 -30z"/>
</g>
</svg>
