<?xml version="1.0" standalone="no"?>
<!DOCTYPE svg PUBLIC "-//W3C//DTD SVG 20010904//EN"
 "http://www.w3.org/TR/2001/REC-SVG-20010904/DTD/svg10.dtd">
<svg version="1.0" xmlns="http://www.w3.org/2000/svg"
 width="25.000000pt" height="26.000000pt" viewBox="0 0 25.000000 26.000000"
 preserveAspectRatio="xMidYMid meet">
<metadata>
Created by potrace 1.16, written by Peter Selinger 2001-2019
</metadata>
<g transform="translate(0.000000,26.000000) scale(0.100000,-0.100000)"
fill="#000000" stroke="none">
<path d="M6 238 l-6 -23 0 -12 0 -13 31 0 30 0 15 -14 14 -15 0 -20 0 -20 -16
-16 -17 -16 -23 5 -24 6 0 -34 0 -34 -6 -16 -6 -16 40 0 40 0 16 6 16 6 0 29
0 29 20 0 20 0 0 -19 0 -19 6 -16 6 -16 44 0 44 0 -5 25 -5 25 -5 25 -5 25
-15 0 -15 0 -6 24 -6 25 7 20 6 21 25 0 24 0 0 35 0 36 -19 -11 -20 -10 -21 0
-20 0 -12 -25 -11 -25 -13 0 -13 0 -16 16 -17 17 5 18 5 19 -43 0 -43 0 -6
-22z"/>
</g>
</svg>
