<?xml version="1.0" standalone="no"?>
<!DOCTYPE svg PUBLIC "-//W3C//DTD SVG 20010904//EN"
 "http://www.w3.org/TR/2001/REC-SVG-20010904/DTD/svg10.dtd">
<svg version="1.0" xmlns="http://www.w3.org/2000/svg"
 width="40.000000pt" height="43.000000pt" viewBox="0 0 40.000000 43.000000"
 preserveAspectRatio="xMidYMid meet">
<metadata>
Created by potrace 1.16, written by Peter Selinger 2001-2019
</metadata>
<g transform="translate(0.000000,43.000000) scale(0.100000,-0.100000)"
fill="#000000" stroke="none">
<path d="M125 401 l6 -29 -20 -7 -20 -6 -36 7 -35 6 0 -55 0 -55 16 -6 16 -6
24 0 24 0 0 -15 0 -15 -37 0 -38 0 -14 -9 -14 -9 7 -56 7 -56 22 -5 22 -5 29
-2 30 -3 7 -29 8 -29 13 -8 13 -9 19 0 19 0 18 22 19 21 0 24 0 23 26 0 25 0
16 15 15 16 -6 33 -6 33 41 6 42 5 8 14 9 13 0 21 0 22 -16 6 -16 6 -24 0 -24
0 0 34 0 34 -6 16 -6 16 -24 0 -23 0 -26 12 -25 11 0 14 0 13 -46 0 -46 0 7
-29z"/>
</g>
</svg>
