<?xml version="1.0" standalone="no"?>
<!DOCTYPE svg PUBLIC "-//W3C//DTD SVG 20010904//EN"
 "http://www.w3.org/TR/2001/REC-SVG-20010904/DTD/svg10.dtd">
<svg version="1.0" xmlns="http://www.w3.org/2000/svg"
 width="38.000000pt" height="36.000000pt" viewBox="0 0 38.000000 36.000000"
 preserveAspectRatio="xMidYMid meet">
<metadata>
Created by potrace 1.16, written by Peter Selinger 2001-2019
</metadata>
<g transform="translate(0.000000,36.000000) scale(0.100000,-0.100000)"
fill="#000000" stroke="none">
<path d="M123 345 l-5 -16 6 -6 6 -6 -22 -18 -21 -19 -38 6 -39 7 0 -57 0 -56
25 -6 25 -6 16 6 15 6 -3 -17 -3 -18 -20 -3 -20 -3 -23 -5 -22 -4 0 -55 0 -55
15 0 15 0 0 -10 0 -10 39 0 39 0 16 6 16 6 0 29 0 29 20 0 20 0 0 -13 0 -14
25 -11 26 -12 28 0 29 0 6 16 6 16 0 24 0 24 23 0 22 0 13 8 13 9 5 35 6 35
-17 16 -16 17 -20 0 -19 0 0 35 0 34 -37 6 -38 7 -17 5 -18 4 -6 25 -6 24 -29
0 -30 0 -6 -15z"/>
</g>
</svg>
