<?xml version="1.0" standalone="no"?>
<!DOCTYPE svg PUBLIC "-//W3C//DTD SVG 20010904//EN"
 "http://www.w3.org/TR/2001/REC-SVG-20010904/DTD/svg10.dtd">
<svg version="1.0" xmlns="http://www.w3.org/2000/svg"
 width="36.000000pt" height="34.000000pt" viewBox="0 0 36.000000 34.000000"
 preserveAspectRatio="xMidYMid meet">
<metadata>
Created by potrace 1.16, written by Peter Selinger 2001-2019
</metadata>
<g transform="translate(0.000000,34.000000) scale(0.100000,-0.100000)"
fill="#000000" stroke="none">
<path d="M127 334 l-6 -6 6 -14 5 -15 -23 -20 -24 -21 -37 6 -38 6 0 -44 0
-44 16 -6 16 -6 25 6 25 7 -4 -29 -3 -29 -20 -3 -20 -3 -23 -5 -22 -4 0 -45 0
-45 15 0 15 0 0 -10 0 -10 33 0 32 0 14 9 14 9 -5 26 -5 26 33 0 34 0 0 -13 0
-14 25 -11 26 -12 18 0 19 0 6 16 6 16 0 24 0 24 23 0 22 0 12 8 11 7 7 26 6
26 -17 17 -17 18 -18 -5 -19 -5 0 38 0 39 -37 6 -38 7 -17 5 -18 4 -6 25 -6
24 -17 0 -18 0 -6 -6z"/>
</g>
</svg>
