<?xml version="1.0" standalone="no"?>
<!DOCTYPE svg PUBLIC "-//W3C//DTD SVG 20010904//EN"
 "http://www.w3.org/TR/2001/REC-SVG-20010904/DTD/svg10.dtd">
<svg version="1.0" xmlns="http://www.w3.org/2000/svg"
 width="43.000000pt" height="36.000000pt" viewBox="0 0 43.000000 36.000000"
 preserveAspectRatio="xMidYMid meet">
<metadata>
Created by potrace 1.16, written by Peter Selinger 2001-2019
</metadata>
<g transform="translate(0.000000,36.000000) scale(0.100000,-0.100000)"
fill="#000000" stroke="none">
<path d="M172 329 l1 -31 -14 -9 -14 -9 -32 0 -33 0 0 -40 0 -40 -12 -1 -13
-1 -19 2 -19 2 -8 -14 -9 -13 0 -27 0 -28 25 -6 24 -6 7 -21 7 -22 -1 -32 -1
-33 63 0 64 0 6 16 6 16 0 23 0 24 10 6 10 6 0 -21 0 -21 14 -15 15 -14 45 -6
45 -7 16 17 17 16 9 35 10 35 14 0 15 0 6 24 6 25 -7 21 -7 21 -29 6 -29 6 0
37 0 38 -32 10 -33 10 -27 6 -28 6 0 20 0 20 -34 0 -35 0 1 -31z"/>
</g>
</svg>
