<?xml version="1.0" standalone="no"?>
<!DOCTYPE svg PUBLIC "-//W3C//DTD SVG 20010904//EN"
 "http://www.w3.org/TR/2001/REC-SVG-20010904/DTD/svg10.dtd">
<svg version="1.0" xmlns="http://www.w3.org/2000/svg"
 width="41.000000pt" height="34.000000pt" viewBox="0 0 41.000000 34.000000"
 preserveAspectRatio="xMidYMid meet">
<metadata>
Created by potrace 1.16, written by Peter Selinger 2001-2019
</metadata>
<g transform="translate(0.000000,34.000000) scale(0.100000,-0.100000)"
fill="#000000" stroke="none">
<path d="M174 309 l-1 -31 -14 -9 -14 -9 -32 0 -33 0 0 -39 0 -40 -20 -6 -20
-6 -11 7 -11 7 -9 -14 -9 -14 0 -17 0 -18 25 -6 25 -6 10 -38 10 -38 -6 -16
-6 -16 56 0 56 0 4 23 5 22 3 20 3 20 20 0 20 0 -3 -18 -3 -17 14 -15 14 -14
36 -6 36 -7 17 16 16 16 9 35 10 35 14 0 14 0 6 19 5 18 -6 17 -7 17 -28 6
-29 6 0 37 0 38 -32 10 -33 10 -27 6 -28 6 0 20 0 20 -22 0 -23 0 -1 -31z"/>
</g>
</svg>
