<?xml version="1.0" standalone="no"?>
<!DOCTYPE svg PUBLIC "-//W3C//DTD SVG 20010904//EN"
 "http://www.w3.org/TR/2001/REC-SVG-20010904/DTD/svg10.dtd">
<svg version="1.0" xmlns="http://www.w3.org/2000/svg"
 width="33.000000pt" height="40.000000pt" viewBox="0 0 33.000000 40.000000"
 preserveAspectRatio="xMidYMid meet">
<metadata>
Created by potrace 1.16, written by Peter Selinger 2001-2019
</metadata>
<g transform="translate(0.000000,40.000000) scale(0.100000,-0.100000)"
fill="#000000" stroke="none">
<path d="M100 381 l0 -19 -6 -16 -6 -16 -44 0 -44 0 0 -46 0 -46 25 6 26 7 14
-15 15 -15 0 -19 0 -20 -16 -6 -16 -6 -18 0 -18 0 -4 -42 -5 -43 4 -7 4 -8 40
0 39 0 0 -35 0 -35 29 0 29 0 6 16 6 16 0 19 0 19 45 0 45 0 0 18 0 17 10 37
11 37 29 6 30 7 0 22 0 22 -40 -4 -39 -4 -5 23 -6 24 -2 30 -3 30 -30 10 -30
10 -12 12 -13 12 0 10 0 11 -25 0 -25 0 0 -19z"/>
</g>
</svg>
