<?xml version="1.0" standalone="no"?>
<!DOCTYPE svg PUBLIC "-//W3C//DTD SVG 20010904//EN"
 "http://www.w3.org/TR/2001/REC-SVG-20010904/DTD/svg10.dtd">
<svg version="1.0" xmlns="http://www.w3.org/2000/svg"
 width="35.000000pt" height="42.000000pt" viewBox="0 0 35.000000 42.000000"
 preserveAspectRatio="xMidYMid meet">
<metadata>
Created by potrace 1.16, written by Peter Selinger 2001-2019
</metadata>
<g transform="translate(0.000000,42.000000) scale(0.100000,-0.100000)"
fill="#000000" stroke="none">
<path d="M100 401 l0 -19 -6 -16 -6 -16 -44 0 -44 0 0 -56 0 -56 28 4 28 4 12
-13 12 -12 0 -10 0 -9 -16 -6 -16 -6 -17 0 -18 0 -6 -51 -6 -52 5 -8 5 -9 40
0 39 0 0 -35 0 -35 39 0 39 0 6 16 6 16 0 19 0 19 45 0 45 0 0 18 0 17 10 37
11 37 29 6 30 7 0 34 0 34 -40 -6 -39 -6 -5 23 -6 24 -2 30 -3 30 -30 10 -30
10 -12 12 -13 12 0 10 0 11 -35 0 -35 0 0 -19z"/>
</g>
</svg>
