<?xml version="1.0" standalone="no"?>
<!DOCTYPE svg PUBLIC "-//W3C//DTD SVG 20010904//EN"
 "http://www.w3.org/TR/2001/REC-SVG-20010904/DTD/svg10.dtd">
<svg version="1.0" xmlns="http://www.w3.org/2000/svg"
 width="42.000000pt" height="41.000000pt" viewBox="0 0 42.000000 41.000000"
 preserveAspectRatio="xMidYMid meet">
<metadata>
Created by potrace 1.16, written by Peter Selinger 2001-2019
</metadata>
<g transform="translate(0.000000,41.000000) scale(0.100000,-0.100000)"
fill="#000000" stroke="none">
<path d="M187 404 l-7 -7 0 -28 0 -29 -25 -6 -26 -6 -29 5 -29 6 6 -32 5 -32
-20 -22 -19 -23 -22 0 -21 0 0 -25 0 -25 23 0 22 0 23 -6 24 -7 -7 -48 -7 -49
25 0 25 0 16 -6 16 -6 0 -15 0 -14 14 -15 15 -14 16 0 16 0 15 14 14 15 0 10
0 11 28 6 27 6 16 4 16 4 11 26 12 25 0 15 0 15 18 6 17 7 13 12 12 13 0 18 0
18 -9 14 -9 13 -22 -7 -22 -7 -9 13 -9 14 0 38 0 38 -35 -7 -35 -6 -25 6 -25
6 2 32 3 32 -15 3 -16 4 -7 -7z"/>
</g>
</svg>
