<?xml version="1.0" standalone="no"?>
<!DOCTYPE svg PUBLIC "-//W3C//DTD SVG 20010904//EN"
 "http://www.w3.org/TR/2001/REC-SVG-20010904/DTD/svg10.dtd">
<svg version="1.0" xmlns="http://www.w3.org/2000/svg"
 width="44.000000pt" height="43.000000pt" viewBox="0 0 44.000000 43.000000"
 preserveAspectRatio="xMidYMid meet">
<metadata>
Created by potrace 1.16, written by Peter Selinger 2001-2019
</metadata>
<g transform="translate(0.000000,43.000000) scale(0.100000,-0.100000)"
fill="#000000" stroke="none">
<path d="M187 424 l-7 -7 0 -28 0 -28 -20 -6 -19 -6 -37 7 -37 7 7 -35 6 -35
-19 -21 -18 -22 -22 0 -21 0 0 -35 0 -35 23 0 22 0 22 -6 22 -6 -6 -49 -6 -49
26 0 25 0 16 -6 16 -6 0 -15 0 -14 14 -15 15 -14 26 0 26 0 15 14 14 15 0 10
0 10 18 4 17 5 26 6 26 6 11 25 12 26 0 15 0 15 18 6 17 7 13 12 12 13 0 28 0
28 -9 14 -9 14 -25 -5 -26 -5 -5 14 -6 15 0 35 0 35 -47 -6 -48 -6 -10 7 -10
8 0 30 0 30 -25 3 -26 3 -7 -7z"/>
</g>
</svg>
