<?xml version="1.0" standalone="no"?>
<!DOCTYPE svg PUBLIC "-//W3C//DTD SVG 20010904//EN"
 "http://www.w3.org/TR/2001/REC-SVG-20010904/DTD/svg10.dtd">
<svg version="1.0" xmlns="http://www.w3.org/2000/svg"
 width="37.000000pt" height="35.000000pt" viewBox="0 0 37.000000 35.000000"
 preserveAspectRatio="xMidYMid meet">
<metadata>
Created by potrace 1.16, written by Peter Selinger 2001-2019
</metadata>
<g transform="translate(0.000000,35.000000) scale(0.100000,-0.100000)"
fill="#000000" stroke="none">
<path d="M217 344 l-7 -7 0 -23 0 -22 -6 -16 -6 -16 -54 0 -54 0 0 -29 0 -29
-6 -16 -6 -16 -24 6 -24 6 0 -11 0 -11 -15 0 -15 0 0 -11 0 -10 14 -15 15 -14
41 0 42 0 -5 -28 -5 -27 -7 -22 -7 -22 36 -6 36 -7 24 6 25 6 3 33 3 32 20 0
20 0 -2 -30 -2 -29 12 -8 12 -8 30 0 30 0 13 9 14 8 -12 42 -11 41 -19 0 -20
0 0 35 0 35 21 0 20 0 15 14 14 15 0 34 0 34 -46 7 -45 6 -15 15 -15 15 3 17
3 17 -15 3 -16 4 -7 -7z"/>
</g>
</svg>
