<?xml version="1.0" standalone="no"?>
<!DOCTYPE svg PUBLIC "-//W3C//DTD SVG 20010904//EN"
 "http://www.w3.org/TR/2001/REC-SVG-20010904/DTD/svg10.dtd">
<svg version="1.0" xmlns="http://www.w3.org/2000/svg"
 width="39.000000pt" height="37.000000pt" viewBox="0 0 39.000000 37.000000"
 preserveAspectRatio="xMidYMid meet">
<metadata>
Created by potrace 1.16, written by Peter Selinger 2001-2019
</metadata>
<g transform="translate(0.000000,37.000000) scale(0.100000,-0.100000)"
fill="#000000" stroke="none">
<path d="M217 364 l-7 -7 0 -23 0 -22 -6 -16 -6 -16 -53 0 -54 0 -3 -37 -3
-38 -27 -3 -28 -3 0 -10 0 -9 -15 0 -15 0 0 -21 0 -20 14 -15 15 -14 41 0 42
0 -7 -22 -7 -23 -5 -26 -5 -26 24 -6 23 -7 35 0 35 0 12 8 11 7 4 30 3 30 10
-5 9 -5 -3 -24 -3 -24 14 -8 13 -9 37 0 36 0 16 6 16 6 0 17 0 16 -11 37 -10
38 -19 0 -20 0 0 25 0 25 21 0 20 0 15 14 14 15 0 44 0 44 -46 7 -45 6 -12 12
-12 13 0 20 0 20 -25 3 -26 3 -7 -7z"/>
</g>
</svg>
