<?xml version="1.0" standalone="no"?>
<!DOCTYPE svg PUBLIC "-//W3C//DTD SVG 20010904//EN"
 "http://www.w3.org/TR/2001/REC-SVG-20010904/DTD/svg10.dtd">
<svg version="1.0" xmlns="http://www.w3.org/2000/svg"
 width="38.000000pt" height="38.000000pt" viewBox="0 0 38.000000 38.000000"
 preserveAspectRatio="xMidYMid meet">
<metadata>
Created by potrace 1.16, written by Peter Selinger 2001-2019
</metadata>
<g transform="translate(0.000000,38.000000) scale(0.100000,-0.100000)"
fill="#000000" stroke="none">
<path d="M135 370 l-6 -9 6 -24 6 -23 -25 -12 -26 -12 -30 6 -30 6 -15 -12
-15 -12 0 -44 0 -44 22 -4 23 -5 20 -3 20 -3 -3 -10 -3 -10 -24 3 -25 3 -15
-15 -15 -15 0 -50 0 -51 15 0 15 0 0 -10 0 -10 54 0 54 0 6 16 6 16 0 24 0 24
10 0 10 0 -6 -39 -6 -39 22 -7 22 -7 41 6 42 7 13 8 14 8 5 42 6 41 22 0 23 0
6 16 6 16 0 28 0 29 -16 15 -15 16 -20 0 -19 0 0 35 0 35 -39 0 -40 0 -15 16
-16 15 0 19 0 18 -22 6 -23 6 -7 0 -7 0 -6 -10z"/>
</g>
</svg>
