<?xml version="1.0" standalone="no"?>
<!DOCTYPE svg PUBLIC "-//W3C//DTD SVG 20010904//EN"
 "http://www.w3.org/TR/2001/REC-SVG-20010904/DTD/svg10.dtd">
<svg version="1.0" xmlns="http://www.w3.org/2000/svg"
 width="36.000000pt" height="36.000000pt" viewBox="0 0 36.000000 36.000000"
 preserveAspectRatio="xMidYMid meet">
<metadata>
Created by potrace 1.16, written by Peter Selinger 2001-2019
</metadata>
<g transform="translate(0.000000,36.000000) scale(0.100000,-0.100000)"
fill="#000000" stroke="none">
<path d="M139 352 l-1 -7 2 -26 1 -26 -30 -13 -31 -12 -26 6 -26 7 -14 -12
-14 -11 0 -34 0 -34 23 -4 22 -5 20 -3 20 -3 0 -20 0 -20 -29 2 -28 2 -14 -14
-14 -14 0 -40 0 -41 15 0 15 0 0 -10 0 -10 44 0 44 0 6 16 6 16 0 24 0 24 21
0 22 0 -7 -40 -6 -40 24 -6 23 -5 41 10 40 11 6 23 6 22 0 23 0 22 24 0 24 0
6 16 6 16 0 18 0 19 -16 16 -17 17 -18 -5 -19 -5 0 39 0 39 -39 0 -40 0 -15
16 -16 15 0 19 0 18 -20 5 -20 5 -1 -6z"/>
</g>
</svg>
