<?xml version="1.0" standalone="no"?>
<!DOCTYPE svg PUBLIC "-//W3C//DTD SVG 20010904//EN"
 "http://www.w3.org/TR/2001/REC-SVG-20010904/DTD/svg10.dtd">
<svg version="1.0" xmlns="http://www.w3.org/2000/svg"
 width="35.000000pt" height="41.000000pt" viewBox="0 0 35.000000 41.000000"
 preserveAspectRatio="xMidYMid meet">
<metadata>
Created by potrace 1.16, written by Peter Selinger 2001-2019
</metadata>
<g transform="translate(0.000000,41.000000) scale(0.100000,-0.100000)"
fill="#000000" stroke="none">
<path d="M110 386 l0 -24 -6 -16 -6 -16 -44 0 -44 0 0 -35 0 -35 19 0 19 0 16
-6 16 -6 0 -18 0 -18 -6 -16 -6 -16 -23 0 -23 0 -11 -47 -10 -48 7 -7 7 -6 30
-4 30 -3 3 -19 4 -20 13 -13 14 -13 20 0 21 0 6 24 6 25 38 6 39 7 20 17 21
18 0 26 0 26 16 15 15 16 14 0 14 0 6 19 5 18 -6 16 -6 16 -34 7 -34 6 0 35 0
36 -49 -7 -48 -6 -17 6 -16 6 6 39 7 39 -22 0 -21 0 0 -24z"/>
</g>
</svg>
