<?xml version="1.0" standalone="no"?>
<!DOCTYPE svg PUBLIC "-//W3C//DTD SVG 20010904//EN"
 "http://www.w3.org/TR/2001/REC-SVG-20010904/DTD/svg10.dtd">
<svg version="1.0" xmlns="http://www.w3.org/2000/svg"
 width="37.000000pt" height="43.000000pt" viewBox="0 0 37.000000 43.000000"
 preserveAspectRatio="xMidYMid meet">
<metadata>
Created by potrace 1.16, written by Peter Selinger 2001-2019
</metadata>
<g transform="translate(0.000000,43.000000) scale(0.100000,-0.100000)"
fill="#000000" stroke="none">
<path d="M110 406 l0 -24 -6 -16 -6 -16 -44 0 -44 0 0 -45 0 -45 23 0 22 0 14
-9 13 -9 -7 -21 -6 -21 -24 0 -24 0 -11 -56 -12 -56 9 -8 8 -8 30 -4 30 -3 3
-19 4 -20 13 -13 14 -13 30 0 31 0 6 24 6 25 38 6 39 7 20 17 21 18 0 26 0 26
16 15 15 16 15 0 14 0 6 24 6 25 -7 20 -6 20 -35 7 -34 6 0 36 0 35 -52 -5
-53 -5 -10 3 -11 4 4 40 4 40 -31 0 -31 0 0 -24z"/>
</g>
</svg>
