<?xml version="1.0" standalone="no"?>
<!DOCTYPE svg PUBLIC "-//W3C//DTD SVG 20010904//EN"
 "http://www.w3.org/TR/2001/REC-SVG-20010904/DTD/svg10.dtd">
<svg version="1.0" xmlns="http://www.w3.org/2000/svg"
 width="42.000000pt" height="34.000000pt" viewBox="0 0 42.000000 34.000000"
 preserveAspectRatio="xMidYMid meet">
<metadata>
Created by potrace 1.16, written by Peter Selinger 2001-2019
</metadata>
<g transform="translate(0.000000,34.000000) scale(0.100000,-0.100000)"
fill="#000000" stroke="none">
<path d="M200 311 l0 -29 -16 -6 -16 -6 -44 0 -44 0 0 -35 0 -35 -26 0 -25 0
-15 -14 -14 -15 0 -30 0 -31 25 -6 25 -6 10 -37 10 -36 0 -12 0 -13 145 0 145
0 0 24 0 24 6 30 6 30 24 6 24 6 0 25 0 25 -16 0 -15 0 -15 14 -14 15 0 35 0
36 -44 0 -44 0 -6 16 -6 16 0 19 0 19 -30 0 -30 0 0 -29z"/>
</g>
</svg>
