<?xml version="1.0" standalone="no"?>
<!DOCTYPE svg PUBLIC "-//W3C//DTD SVG 20010904//EN"
 "http://www.w3.org/TR/2001/REC-SVG-20010904/DTD/svg10.dtd">
<svg version="1.0" xmlns="http://www.w3.org/2000/svg"
 width="40.000000pt" height="32.000000pt" viewBox="0 0 40.000000 32.000000"
 preserveAspectRatio="xMidYMid meet">
<metadata>
Created by potrace 1.16, written by Peter Selinger 2001-2019
</metadata>
<g transform="translate(0.000000,32.000000) scale(0.100000,-0.100000)"
fill="#000000" stroke="none">
<path d="M200 291 l0 -29 -16 -6 -16 -6 -44 0 -44 0 0 -39 0 -38 -25 4 -24 5
-16 -15 -15 -16 0 -20 0 -21 25 -6 25 -6 10 -37 10 -36 0 -12 0 -13 135 0 135
0 0 24 0 23 6 31 6 30 24 6 24 6 0 15 0 15 -16 0 -15 0 -15 14 -14 15 0 35 0
36 -40 0 -41 0 -13 12 -12 12 4 23 4 23 -21 0 -21 0 0 -29z"/>
</g>
</svg>
