<?xml version="1.0" standalone="no"?>
<!DOCTYPE svg PUBLIC "-//W3C//DTD SVG 20010904//EN"
 "http://www.w3.org/TR/2001/REC-SVG-20010904/DTD/svg10.dtd">
<svg version="1.0" xmlns="http://www.w3.org/2000/svg"
 width="35.000000pt" height="37.000000pt" viewBox="0 0 35.000000 37.000000"
 preserveAspectRatio="xMidYMid meet">
<metadata>
Created by potrace 1.16, written by Peter Selinger 2001-2019
</metadata>
<g transform="translate(0.000000,37.000000) scale(0.100000,-0.100000)"
fill="#000000" stroke="none">
<path d="M181 353 l1 -18 -1 -17 -1 -18 -26 -6 -26 -7 -9 14 -9 14 0 23 0 22
-44 0 -44 0 -6 -22 -6 -23 0 -33 0 -33 18 2 17 3 28 -7 27 -7 0 -12 0 -11 -22
-19 -22 -19 -28 6 -28 7 0 -25 0 -25 6 -31 6 -31 43 0 42 0 7 -40 6 -40 39 0
39 0 6 16 6 16 0 24 0 24 45 0 45 0 0 28 0 27 10 37 10 36 20 -5 20 -5 0 30 0
30 -27 7 -28 7 -7 11 -8 12 0 38 0 37 -51 0 -50 0 2 -17z"/>
</g>
</svg>
