<?xml version="1.0" standalone="no"?>
<!DOCTYPE svg PUBLIC "-//W3C//DTD SVG 20010904//EN"
 "http://www.w3.org/TR/2001/REC-SVG-20010904/DTD/svg10.dtd">
<svg version="1.0" xmlns="http://www.w3.org/2000/svg"
 width="33.000000pt" height="35.000000pt" viewBox="0 0 33.000000 35.000000"
 preserveAspectRatio="xMidYMid meet">
<metadata>
Created by potrace 1.16, written by Peter Selinger 2001-2019
</metadata>
<g transform="translate(0.000000,35.000000) scale(0.100000,-0.100000)"
fill="#000000" stroke="none">
<path d="M184 319 l-1 -31 -14 -9 -14 -9 -26 0 -27 0 -6 16 -6 16 0 19 0 19
-34 0 -34 0 -6 -22 -6 -23 0 -23 0 -23 10 6 10 6 35 -11 35 -12 0 -20 0 -21
-22 -19 -23 -20 -27 4 -28 5 0 -12 0 -13 6 -31 6 -31 50 0 50 0 -6 -16 -6 -16
6 -24 6 -24 28 0 28 0 6 16 6 16 0 24 0 24 45 0 45 0 0 28 0 27 11 38 10 39
20 -5 19 -5 0 18 0 18 -27 7 -28 7 -7 11 -8 12 0 38 0 37 -37 0 -38 0 -1 -31z"/>
</g>
</svg>
