<?xml version="1.0" standalone="no"?>
<!DOCTYPE svg PUBLIC "-//W3C//DTD SVG 20010904//EN"
 "http://www.w3.org/TR/2001/REC-SVG-20010904/DTD/svg10.dtd">
<svg version="1.0" xmlns="http://www.w3.org/2000/svg"
 width="42.000000pt" height="28.000000pt" viewBox="0 0 42.000000 28.000000"
 preserveAspectRatio="xMidYMid meet">
<metadata>
Created by potrace 1.16, written by Peter Selinger 2001-2019
</metadata>
<g transform="translate(0.000000,28.000000) scale(0.100000,-0.100000)"
fill="#000000" stroke="none">
<path d="M320 273 l0 -10 -30 5 -30 4 0 -24 0 -25 -19 -22 -20 -23 -20 7 -21
6 -8 32 -8 32 -47 5 -47 6 0 -49 0 -48 -20 6 -20 6 -15 -15 -16 -15 7 -25 6
-25 35 -7 35 -7 -6 -29 -6 -30 14 -14 15 -14 28 0 28 0 14 9 14 9 1 31 1 31
23 0 22 0 0 -19 0 -20 18 -5 17 -5 34 -6 34 -7 -7 11 -7 11 10 0 11 0 0 30 0
30 26 0 25 0 15 14 14 15 0 16 0 16 -14 15 -15 14 -20 0 -21 0 0 34 0 34 -15
12 -15 12 0 -9z"/>
</g>
</svg>
