<?xml version="1.0" standalone="no"?>
<!DOCTYPE svg PUBLIC "-//W3C//DTD SVG 20010904//EN"
 "http://www.w3.org/TR/2001/REC-SVG-20010904/DTD/svg10.dtd">
<svg version="1.0" xmlns="http://www.w3.org/2000/svg"
 width="44.000000pt" height="30.000000pt" viewBox="0 0 44.000000 30.000000"
 preserveAspectRatio="xMidYMid meet">
<metadata>
Created by potrace 1.16, written by Peter Selinger 2001-2019
</metadata>
<g transform="translate(0.000000,30.000000) scale(0.100000,-0.100000)"
fill="#000000" stroke="none">
<path d="M293 293 l-33 -4 0 -23 0 -23 -19 -22 -19 -22 -16 16 -16 16 0 20 0
20 -12 3 -13 4 -47 6 -48 6 0 -45 0 -45 -21 0 -20 0 -16 -15 -15 -16 6 -34 7
-34 34 -7 34 -6 -6 -29 -5 -28 15 -16 16 -15 34 0 35 0 16 6 15 6 7 34 6 34 9
0 9 0 0 -19 0 -20 18 -5 17 -5 39 -7 38 -7 9 14 9 14 0 28 0 27 26 0 25 0 15
14 14 15 0 26 0 26 -14 15 -15 14 -20 0 -21 0 0 33 0 33 -12 12 -12 12 -10 -2
-11 -1 -32 -4z"/>
</g>
</svg>
