<?xml version="1.0" standalone="no"?>
<!DOCTYPE svg PUBLIC "-//W3C//DTD SVG 20010904//EN"
 "http://www.w3.org/TR/2001/REC-SVG-20010904/DTD/svg10.dtd">
<svg version="1.0" xmlns="http://www.w3.org/2000/svg"
 width="36.000000pt" height="31.000000pt" viewBox="0 0 36.000000 31.000000"
 preserveAspectRatio="xMidYMid meet">
<metadata>
Created by potrace 1.16, written by Peter Selinger 2001-2019
</metadata>
<g transform="translate(0.000000,31.000000) scale(0.100000,-0.100000)"
fill="#000000" stroke="none">
<path d="M7 303 l-7 -7 5 -35 6 -36 5 -24 5 -23 29 4 29 4 5 -12 5 -12 -18
-21 -18 -21 -27 0 -27 0 3 -57 3 -58 54 -3 54 -3 8 13 9 13 0 28 0 27 15 0 15
0 0 -25 0 -24 38 -10 37 -11 23 0 22 0 0 39 0 39 6 16 6 15 34 7 34 6 0 23 0
23 -16 6 -16 6 -29 0 -29 0 0 56 0 57 -31 -7 -31 -6 -20 0 -20 0 4 -24 5 -25
-6 -9 -6 -10 -15 -2 -15 -2 -12 1 -13 1 0 35 0 35 -35 0 -35 0 0 10 0 10 -13
0 -14 0 -6 -7z"/>
</g>
</svg>
