<?xml version="1.0" standalone="no"?>
<!DOCTYPE svg PUBLIC "-//W3C//DTD SVG 20010904//EN"
 "http://www.w3.org/TR/2001/REC-SVG-20010904/DTD/svg10.dtd">
<svg version="1.0" xmlns="http://www.w3.org/2000/svg"
 width="36.000000pt" height="27.000000pt" viewBox="0 0 36.000000 27.000000"
 preserveAspectRatio="xMidYMid meet">
<metadata>
Created by potrace 1.16, written by Peter Selinger 2001-2019
</metadata>
<g transform="translate(0.000000,27.000000) scale(0.100000,-0.100000)"
fill="#000000" stroke="none">
<path d="M17 263 l-7 -6 0 -34 0 -33 24 0 24 0 16 -6 16 -6 0 -20 0 -19 -14
-15 -15 -14 -24 0 -25 0 -4 -55 -3 -55 40 0 40 0 13 9 13 8 -7 26 -6 27 26 0
26 0 0 -20 0 -19 38 -10 37 -11 26 0 26 0 11 25 12 26 0 13 0 14 24 6 24 6 6
26 7 27 -13 8 -13 9 -32 0 -33 0 0 50 0 50 -123 0 -124 0 -6 -7z"/>
</g>
</svg>
