<?xml version="1.0" standalone="no"?>
<!DOCTYPE svg PUBLIC "-//W3C//DTD SVG 20010904//EN"
 "http://www.w3.org/TR/2001/REC-SVG-20010904/DTD/svg10.dtd">
<svg version="1.0" xmlns="http://www.w3.org/2000/svg"
 width="34.000000pt" height="29.000000pt" viewBox="0 0 34.000000 29.000000"
 preserveAspectRatio="xMidYMid meet">
<metadata>
Created by potrace 1.16, written by Peter Selinger 2001-2019
</metadata>
<g transform="translate(0.000000,29.000000) scale(0.100000,-0.100000)"
fill="#000000" stroke="none">
<path d="M77 283 l-7 -6 0 -29 0 -29 -14 -15 -15 -14 -20 0 -21 0 0 -45 0 -45
19 0 20 0 13 -47 14 -48 33 -3 34 -3 23 5 24 6 6 25 6 25 18 0 18 0 5 -30 6
-30 46 0 45 0 0 14 0 13 -6 46 -7 46 -28 6 -29 7 0 23 0 23 16 6 16 6 18 0 18
0 6 23 6 22 0 21 0 22 -22 6 -23 6 -27 0 -28 0 0 -31 0 -30 -14 -15 -15 -14
-10 0 -10 0 -7 36 -7 36 -11 3 -11 3 -36 6 -35 6 -7 -7z"/>
</g>
</svg>
