<?xml version="1.0" standalone="no"?>
<!DOCTYPE svg PUBLIC "-//W3C//DTD SVG 20010904//EN"
 "http://www.w3.org/TR/2001/REC-SVG-20010904/DTD/svg10.dtd">
<svg version="1.0" xmlns="http://www.w3.org/2000/svg"
 width="38.000000pt" height="29.000000pt" viewBox="0 0 38.000000 29.000000"
 preserveAspectRatio="xMidYMid meet">
<metadata>
Created by potrace 1.16, written by Peter Selinger 2001-2019
</metadata>
<g transform="translate(0.000000,29.000000) scale(0.100000,-0.100000)"
fill="#000000" stroke="none">
<path d="M17 283 l-7 -6 0 -44 0 -43 24 0 24 0 16 -6 16 -6 0 -10 0 -9 -14
-15 -15 -14 -25 0 -26 0 0 -42 0 -43 -6 -23 -6 -22 53 0 54 0 14 9 14 9 -5 26
-5 26 13 0 14 0 0 -20 0 -19 38 -10 37 -11 36 0 36 0 11 25 12 26 0 13 0 14
25 6 24 6 7 36 7 36 -14 9 -14 9 -32 0 -33 0 0 50 0 50 -133 0 -134 0 -6 -7z"/>
</g>
</svg>
