<?xml version="1.0" standalone="no"?>
<!DOCTYPE svg PUBLIC "-//W3C//DTD SVG 20010904//EN"
 "http://www.w3.org/TR/2001/REC-SVG-20010904/DTD/svg10.dtd">
<svg version="1.0" xmlns="http://www.w3.org/2000/svg"
 width="35.000000pt" height="33.000000pt" viewBox="0 0 35.000000 33.000000"
 preserveAspectRatio="xMidYMid meet">
<metadata>
Created by potrace 1.16, written by Peter Selinger 2001-2019
</metadata>
<g transform="translate(0.000000,33.000000) scale(0.100000,-0.100000)"
fill="#000000" stroke="none">
<path d="M53 323 l-33 -4 0 -35 0 -34 21 0 20 0 15 -14 14 -15 0 -16 0 -16
-14 -15 -15 -14 -24 0 -24 0 -6 -42 -6 -43 12 -7 12 -8 43 0 42 0 0 -24 0 -25
19 -6 18 -5 17 6 18 7 -5 18 -5 19 15 0 16 0 39 12 39 12 -6 46 -6 47 40 7 41
6 0 21 0 20 -15 15 -15 15 -20 -6 -20 -6 0 42 0 42 -31 -7 -31 -6 -14 0 -14 0
0 -24 0 -24 -16 -6 -16 -6 -24 6 -24 6 0 34 0 34 -12 -2 -13 -1 -32 -4z"/>
</g>
</svg>
