<?xml version="1.0" standalone="no"?>
<!DOCTYPE svg PUBLIC "-//W3C//DTD SVG 20010904//EN"
 "http://www.w3.org/TR/2001/REC-SVG-20010904/DTD/svg10.dtd">
<svg version="1.0" xmlns="http://www.w3.org/2000/svg"
 width="32.000000pt" height="27.000000pt" viewBox="0 0 32.000000 27.000000"
 preserveAspectRatio="xMidYMid meet">
<metadata>
Created by potrace 1.16, written by Peter Selinger 2001-2019
</metadata>
<g transform="translate(0.000000,27.000000) scale(0.100000,-0.100000)"
fill="#000000" stroke="none">
<path d="M75 262 l-5 -5 0 -29 0 -29 -14 -15 -15 -14 -20 0 -21 0 0 -35 0 -35
19 0 20 0 13 -47 14 -48 23 -3 23 -4 24 6 24 6 6 25 6 25 28 0 28 0 6 -30 6
-30 36 0 37 0 -7 31 -6 31 0 18 0 18 -30 7 -30 7 0 33 0 33 16 6 16 6 18 0 18
0 7 31 7 30 -5 5 -5 5 -36 6 -36 6 0 -32 0 -32 -14 -15 -15 -14 -19 0 -20 0
-9 37 -9 38 -37 6 -37 6 -5 -5z"/>
</g>
</svg>
