<?xml version="1.0" standalone="no"?>
<!DOCTYPE svg PUBLIC "-//W3C//DTD SVG 20010904//EN"
 "http://www.w3.org/TR/2001/REC-SVG-20010904/DTD/svg10.dtd">
<svg version="1.0" xmlns="http://www.w3.org/2000/svg"
 width="34.000000pt" height="29.000000pt" viewBox="0 0 34.000000 29.000000"
 preserveAspectRatio="xMidYMid meet">
<metadata>
Created by potrace 1.16, written by Peter Selinger 2001-2019
</metadata>
<g transform="translate(0.000000,29.000000) scale(0.100000,-0.100000)"
fill="#000000" stroke="none">
<path d="M202 273 l-33 -4 6 -18 5 -18 -5 -16 -6 -15 -24 -6 -23 -6 -16 6 -16
6 0 34 0 34 -40 0 -40 0 0 -32 0 -33 9 -14 9 -13 22 7 22 7 9 -13 9 -14 0 -11
0 -11 -19 -21 -18 -22 -27 0 -26 0 3 -47 3 -48 43 -3 44 -3 8 13 9 13 0 28 0
28 28 -3 27 -3 -3 -22 -3 -22 38 -10 38 -11 13 0 12 0 0 39 0 39 6 16 6 15 34
7 34 6 0 13 0 13 -16 6 -16 6 -29 0 -29 0 0 55 0 55 -7 -2 -8 -1 -33 -4z"/>
</g>
</svg>
