<?xml version="1.0" standalone="no"?>
<!DOCTYPE svg PUBLIC "-//W3C//DTD SVG 20010904//EN"
 "http://www.w3.org/TR/2001/REC-SVG-20010904/DTD/svg10.dtd">
<svg version="1.0" xmlns="http://www.w3.org/2000/svg"
 width="37.000000pt" height="35.000000pt" viewBox="0 0 37.000000 35.000000"
 preserveAspectRatio="xMidYMid meet">
<metadata>
Created by potrace 1.16, written by Peter Selinger 2001-2019
</metadata>
<g transform="translate(0.000000,35.000000) scale(0.100000,-0.100000)"
fill="#000000" stroke="none">
<path d="M14 325 l6 -20 0 -27 0 -28 21 0 20 0 15 -14 14 -15 0 -6 0 -6 -14
-15 -15 -14 -24 0 -24 0 -7 -52 -7 -51 13 -8 13 -9 43 0 42 0 0 -24 0 -25 21
-6 20 -7 25 6 24 6 0 18 0 18 51 13 51 13 -5 48 -6 48 40 6 39 6 0 31 0 30
-14 15 -15 14 -20 0 -21 0 0 35 0 35 -17 0 -18 0 -37 -6 -38 -7 0 -22 0 -23
-12 -5 -13 -4 -17 5 -18 4 0 33 0 33 -61 -1 -60 -2 5 -20z"/>
</g>
</svg>
