<?xml version="1.0" standalone="no"?>
<!DOCTYPE svg PUBLIC "-//W3C//DTD SVG 20010904//EN"
 "http://www.w3.org/TR/2001/REC-SVG-20010904/DTD/svg10.dtd">
<svg version="1.0" xmlns="http://www.w3.org/2000/svg"
 width="35.000000pt" height="36.000000pt" viewBox="0 0 35.000000 36.000000"
 preserveAspectRatio="xMidYMid meet">
<metadata>
Created by potrace 1.16, written by Peter Selinger 2001-2019
</metadata>
<g transform="translate(0.000000,36.000000) scale(0.100000,-0.100000)"
fill="#000000" stroke="none">
<path d="M80 326 l0 -34 -6 -16 -6 -15 -29 6 -29 5 -6 -16 -6 -16 6 -25 6 -25
35 0 34 0 6 -20 6 -20 -6 -10 -7 -11 6 -25 6 -24 35 0 35 0 0 -34 0 -35 21 -6
20 -7 27 7 27 7 7 11 8 12 0 23 0 22 23 0 22 0 14 9 14 9 -14 48 -14 47 -17 5
-18 4 0 24 0 24 15 0 15 0 0 9 0 9 20 -5 20 -5 0 46 0 46 -34 0 -34 0 -16 -6
-16 -6 0 -17 0 -16 -9 -13 -8 -13 -26 7 -27 6 0 34 0 34 -50 0 -50 0 0 -34z"/>
</g>
</svg>
