<?xml version="1.0" standalone="no"?>
<!DOCTYPE svg PUBLIC "-//W3C//DTD SVG 20010904//EN"
 "http://www.w3.org/TR/2001/REC-SVG-20010904/DTD/svg10.dtd">
<svg version="1.0" xmlns="http://www.w3.org/2000/svg"
 width="33.000000pt" height="34.000000pt" viewBox="0 0 33.000000 34.000000"
 preserveAspectRatio="xMidYMid meet">
<metadata>
Created by potrace 1.16, written by Peter Selinger 2001-2019
</metadata>
<g transform="translate(0.000000,34.000000) scale(0.100000,-0.100000)"
fill="#000000" stroke="none">
<path d="M80 303 l0 -38 -9 -14 -9 -14 -25 7 -26 6 -6 -10 -6 -10 6 -20 6 -20
34 0 35 0 6 -25 6 -25 -6 -15 -5 -15 5 -15 6 -15 34 0 34 0 0 -34 0 -34 16 -6
16 -6 23 6 24 6 6 18 5 17 -6 17 -6 16 28 0 29 0 12 8 12 8 -13 39 -14 40 -16
3 -16 3 0 35 0 34 15 0 15 0 0 11 0 11 20 -5 20 -5 0 34 0 34 -27 0 -28 0 -11
-8 -11 -7 -7 -27 -6 -28 -18 0 -17 0 -22 6 -23 6 0 34 0 34 -40 0 -40 0 0 -37z"/>
</g>
</svg>
