<?xml version="1.0" standalone="no"?>
<!DOCTYPE svg PUBLIC "-//W3C//DTD SVG 20010904//EN"
 "http://www.w3.org/TR/2001/REC-SVG-20010904/DTD/svg10.dtd">
<svg version="1.0" xmlns="http://www.w3.org/2000/svg"
 width="41.000000pt" height="29.000000pt" viewBox="0 0 41.000000 29.000000"
 preserveAspectRatio="xMidYMid meet">
<metadata>
Created by potrace 1.16, written by Peter Selinger 2001-2019
</metadata>
<g transform="translate(0.000000,29.000000) scale(0.100000,-0.100000)"
fill="#000000" stroke="none">
<path d="M60 255 l0 -36 -12 -13 -12 -13 -19 5 -18 5 3 -39 3 -38 38 -9 39 -9
-8 -27 -7 -26 -1 -25 -1 -25 34 -3 34 -3 23 5 24 6 0 31 0 31 13 -4 12 -5 4
-19 3 -19 12 -7 11 -8 53 0 53 0 -2 18 -1 17 1 32 1 31 30 7 29 6 6 20 6 19
-6 10 -6 10 -25 0 -25 0 -15 14 -14 15 0 40 0 41 -56 0 -56 0 6 -31 6 -31 -13
-12 -13 -13 -12 13 -12 14 6 23 5 24 -23 7 -23 6 -37 0 -38 0 0 -35z"/>
</g>
</svg>
