<?xml version="1.0" standalone="no"?>
<!DOCTYPE svg PUBLIC "-//W3C//DTD SVG 20010904//EN"
 "http://www.w3.org/TR/2001/REC-SVG-20010904/DTD/svg10.dtd">
<svg version="1.0" xmlns="http://www.w3.org/2000/svg"
 width="36.000000pt" height="44.000000pt" viewBox="0 0 36.000000 44.000000"
 preserveAspectRatio="xMidYMid meet">
<metadata>
Created by potrace 1.16, written by Peter Selinger 2001-2019
</metadata>
<g transform="translate(0.000000,44.000000) scale(0.100000,-0.100000)"
fill="#000000" stroke="none">
<path d="M198 428 l-1 -13 -1 -25 -1 -25 -60 0 -60 0 -3 -42 -3 -43 -29 0 -30
0 -6 -24 -6 -25 7 -23 8 -23 11 -7 11 -8 23 0 22 0 -6 -39 -6 -38 23 -6 24 -7
28 0 27 0 0 -24 0 -24 6 -16 6 -16 33 0 34 0 15 15 15 16 7 34 6 35 29 0 29 0
0 45 0 45 -21 0 -22 0 -18 21 -18 21 13 13 13 13 29 4 29 3 3 49 3 49 -40 -6
-41 -5 -19 5 -20 5 6 14 5 14 -6 25 -6 25 -20 0 -20 0 -2 -12z"/>
</g>
</svg>
