<?xml version="1.0" standalone="no"?>
<!DOCTYPE svg PUBLIC "-//W3C//DTD SVG 20010904//EN"
 "http://www.w3.org/TR/2001/REC-SVG-20010904/DTD/svg10.dtd">
<svg version="1.0" xmlns="http://www.w3.org/2000/svg"
 width="34.000000pt" height="42.000000pt" viewBox="0 0 34.000000 42.000000"
 preserveAspectRatio="xMidYMid meet">
<metadata>
Created by potrace 1.16, written by Peter Selinger 2001-2019
</metadata>
<g transform="translate(0.000000,42.000000) scale(0.100000,-0.100000)"
fill="#000000" stroke="none">
<path d="M199 408 l-1 -13 -1 -25 -2 -25 -60 -1 -60 -1 -3 -45 -3 -45 -26 5
-25 5 -9 -14 -9 -14 6 -25 6 -25 11 -7 12 -8 24 0 24 0 -7 -39 -6 -39 23 -6
22 -6 28 0 27 0 0 -24 0 -24 6 -16 6 -16 22 0 21 0 12 8 12 7 11 29 11 29 -5
14 -5 13 34 0 35 0 0 35 0 35 -21 0 -22 0 -18 22 -19 21 0 9 0 9 13 14 14 13
29 4 29 3 3 39 3 38 -35 -6 -35 -7 -26 7 -27 7 6 22 6 23 -6 16 -6 16 -9 0 -9
0 -1 -12z"/>
</g>
</svg>
