<?xml version="1.0" standalone="no"?>
<!DOCTYPE svg PUBLIC "-//W3C//DTD SVG 20010904//EN"
 "http://www.w3.org/TR/2001/REC-SVG-20010904/DTD/svg10.dtd">
<svg version="1.0" xmlns="http://www.w3.org/2000/svg"
 width="34.000000pt" height="35.000000pt" viewBox="0 0 34.000000 35.000000"
 preserveAspectRatio="xMidYMid meet">
<metadata>
Created by potrace 1.16, written by Peter Selinger 2001-2019
</metadata>
<g transform="translate(0.000000,35.000000) scale(0.100000,-0.100000)"
fill="#000000" stroke="none">
<path d="M114 323 l7 -26 -13 -8 -13 -9 -47 0 -48 0 0 -32 0 -33 8 -12 7 -11
28 -7 27 -7 0 -18 0 -18 -19 5 -20 5 -10 -39 -11 -38 0 -13 0 -13 14 -15 15
-14 34 0 35 0 6 16 6 16 0 19 0 19 25 0 25 0 1 -22 1 -23 -1 -16 -2 -17 17 -6
16 -6 39 10 39 11 0 9 0 10 -10 0 -10 0 0 44 0 44 16 6 16 6 24 0 24 0 0 9 0
9 -6 16 -6 16 -18 0 -18 0 -16 6 -16 6 0 44 0 44 -12 0 -13 0 -37 11 -38 10 0
19 0 20 -26 0 -26 0 6 -27z"/>
</g>
</svg>
