<?xml version="1.0" standalone="no"?>
<!DOCTYPE svg PUBLIC "-//W3C//DTD SVG 20010904//EN"
 "http://www.w3.org/TR/2001/REC-SVG-20010904/DTD/svg10.dtd">
<svg version="1.0" xmlns="http://www.w3.org/2000/svg"
 width="39.000000pt" height="27.000000pt" viewBox="0 0 39.000000 27.000000"
 preserveAspectRatio="xMidYMid meet">
<metadata>
Created by potrace 1.16, written by Peter Selinger 2001-2019
</metadata>
<g transform="translate(0.000000,27.000000) scale(0.100000,-0.100000)"
fill="#000000" stroke="none">
<path d="M60 234 l0 -35 -15 -16 -16 -15 -15 6 -15 6 3 -27 3 -27 39 -9 38
-10 -6 -31 -6 -31 -2 -20 -3 -20 24 -3 23 -4 24 6 24 6 0 31 0 30 22 -3 23 -3
4 -20 3 -20 12 -7 11 -8 41 0 41 0 0 18 -1 17 2 32 2 31 29 7 29 6 5 14 6 13
-6 6 -6 6 -24 0 -24 0 -15 14 -14 15 0 40 0 41 -45 0 -44 0 5 -30 6 -29 -15
-16 -16 -15 -6 0 -6 0 -16 15 -15 16 4 24 5 23 -21 6 -21 6 -27 0 -28 0 0 -36z"/>
</g>
</svg>
