<?xml version="1.0" standalone="no"?>
<!DOCTYPE svg PUBLIC "-//W3C//DTD SVG 20010904//EN"
 "http://www.w3.org/TR/2001/REC-SVG-20010904/DTD/svg10.dtd">
<svg version="1.0" xmlns="http://www.w3.org/2000/svg"
 width="36.000000pt" height="37.000000pt" viewBox="0 0 36.000000 37.000000"
 preserveAspectRatio="xMidYMid meet">
<metadata>
Created by potrace 1.16, written by Peter Selinger 2001-2019
</metadata>
<g transform="translate(0.000000,37.000000) scale(0.100000,-0.100000)"
fill="#000000" stroke="none">
<path d="M112 340 l4 -29 -14 -6 -14 -5 -44 0 -44 0 0 -42 0 -43 8 -11 7 -11
30 -11 30 -10 -22 -1 -22 -1 -10 -37 -11 -38 0 -23 0 -23 14 -15 15 -14 44 0
45 0 6 16 6 16 0 19 0 19 15 0 15 0 0 -40 0 -40 24 -6 23 -5 42 11 41 11 0 19
0 20 -10 0 -10 0 0 34 0 34 16 6 16 6 24 0 24 0 0 19 0 19 -6 16 -6 16 -18 0
-18 0 -16 6 -16 6 0 44 0 44 -12 0 -13 0 -37 11 -38 10 0 19 0 20 -36 0 -36 0
4 -30z"/>
</g>
</svg>
