<?xml version="1.0" standalone="no"?>
<!DOCTYPE svg PUBLIC "-//W3C//DTD SVG 20010904//EN"
 "http://www.w3.org/TR/2001/REC-SVG-20010904/DTD/svg10.dtd">
<svg version="1.0" xmlns="http://www.w3.org/2000/svg"
 width="35.000000pt" height="40.000000pt" viewBox="0 0 35.000000 40.000000"
 preserveAspectRatio="xMidYMid meet">
<metadata>
Created by potrace 1.16, written by Peter Selinger 2001-2019
</metadata>
<g transform="translate(0.000000,40.000000) scale(0.100000,-0.100000)"
fill="#000000" stroke="none">
<path d="M110 376 l0 -24 -6 -16 -6 -16 -44 0 -44 0 0 -34 0 -34 19 5 18 5 17
-17 16 -16 0 -19 0 -18 -6 -16 -6 -16 -24 0 -24 0 0 -24 0 -25 -10 -26 -10
-27 30 7 30 6 19 -6 19 -6 6 -29 6 -30 25 0 25 0 6 24 6 24 48 6 48 6 11 28
10 27 7 28 6 27 24 6 24 6 0 8 0 8 -6 16 -6 15 -34 7 -34 6 0 44 0 44 -17 0
-18 0 -38 11 -38 10 3 22 3 22 -27 3 -28 3 0 -25z"/>
</g>
</svg>
