<?xml version="1.0" standalone="no"?>
<!DOCTYPE svg PUBLIC "-//W3C//DTD SVG 20010904//EN"
 "http://www.w3.org/TR/2001/REC-SVG-20010904/DTD/svg10.dtd">
<svg version="1.0" xmlns="http://www.w3.org/2000/svg"
 width="37.000000pt" height="42.000000pt" viewBox="0 0 37.000000 42.000000"
 preserveAspectRatio="xMidYMid meet">
<metadata>
Created by potrace 1.16, written by Peter Selinger 2001-2019
</metadata>
<g transform="translate(0.000000,42.000000) scale(0.100000,-0.100000)"
fill="#000000" stroke="none">
<path d="M110 396 l0 -24 -6 -16 -6 -16 -44 0 -44 0 0 -46 0 -45 18 2 17 1 12
-1 12 -1 6 -19 5 -18 -6 -17 -6 -16 -23 0 -22 0 -6 -38 -6 -37 -7 -24 -7 -24
39 6 39 6 11 -7 11 -7 7 -28 6 -27 35 0 35 0 6 24 6 24 48 6 48 6 11 28 10 27
7 28 6 27 24 6 24 6 0 18 0 18 -6 16 -6 15 -34 7 -34 6 0 44 0 44 -17 0 -18 0
-36 10 -36 10 1 22 1 23 -37 3 -38 3 0 -25z"/>
</g>
</svg>
