<?xml version="1.0" standalone="no"?>
<!DOCTYPE svg PUBLIC "-//W3C//DTD SVG 20010904//EN"
 "http://www.w3.org/TR/2001/REC-SVG-20010904/DTD/svg10.dtd">
<svg version="1.0" xmlns="http://www.w3.org/2000/svg"
 width="37.000000pt" height="34.000000pt" viewBox="0 0 37.000000 34.000000"
 preserveAspectRatio="xMidYMid meet">
<metadata>
Created by potrace 1.16, written by Peter Selinger 2001-2019
</metadata>
<g transform="translate(0.000000,34.000000) scale(0.100000,-0.100000)"
fill="#000000" stroke="none">
<path d="M127 334 l-7 -7 0 -26 0 -26 -9 -14 -9 -14 -51 5 -51 5 0 -39 0 -39
14 -15 15 -14 15 0 16 0 0 -15 0 -15 -24 -6 -24 -6 -6 -30 -6 -30 0 -24 0 -24
141 0 141 0 -7 41 -7 42 30 -6 29 -6 22 20 21 20 0 17 -1 17 -14 19 -14 19
-25 -5 -25 -5 -5 14 -6 15 0 27 0 27 -60 18 -61 18 3 21 3 22 -15 3 -16 3 -7
-7z"/>
</g>
</svg>
