<?xml version="1.0" standalone="no"?>
<!DOCTYPE svg PUBLIC "-//W3C//DTD SVG 20010904//EN"
 "http://www.w3.org/TR/2001/REC-SVG-20010904/DTD/svg10.dtd">
<svg version="1.0" xmlns="http://www.w3.org/2000/svg"
 width="39.000000pt" height="36.000000pt" viewBox="0 0 39.000000 36.000000"
 preserveAspectRatio="xMidYMid meet">
<metadata>
Created by potrace 1.16, written by Peter Selinger 2001-2019
</metadata>
<g transform="translate(0.000000,36.000000) scale(0.100000,-0.100000)"
fill="#000000" stroke="none">
<path d="M127 354 l-7 -7 0 -26 0 -26 -9 -14 -9 -14 -51 7 -51 7 0 -51 0 -51
13 -14 13 -13 20 -4 19 -5 -26 -7 -27 -8 -6 -30 -6 -30 0 -34 0 -34 151 0 152
0 -6 40 -5 39 27 -5 26 -5 23 21 22 21 0 27 -1 27 -12 17 -13 16 -29 4 -30 3
-3 36 -3 36 -58 17 -57 17 0 22 1 22 -25 3 -26 3 -7 -7z"/>
</g>
</svg>
