<?xml version="1.0" standalone="no"?>
<!DOCTYPE svg PUBLIC "-//W3C//DTD SVG 20010904//EN"
 "http://www.w3.org/TR/2001/REC-SVG-20010904/DTD/svg10.dtd">
<svg version="1.0" xmlns="http://www.w3.org/2000/svg"
 width="32.000000pt" height="36.000000pt" viewBox="0 0 32.000000 36.000000"
 preserveAspectRatio="xMidYMid meet">
<metadata>
Created by potrace 1.16, written by Peter Selinger 2001-2019
</metadata>
<g transform="translate(0.000000,36.000000) scale(0.100000,-0.100000)"
fill="#000000" stroke="none">
<path d="M130 325 l0 -35 -24 -6 -25 -6 -20 7 -21 6 -20 -6 -20 -6 0 -44 0
-43 6 -16 6 -16 39 0 39 0 0 -9 0 -9 -30 -7 -29 -6 -11 -37 -10 -37 0 -13 0
-13 14 -15 15 -14 36 0 36 0 15 14 14 15 0 15 0 16 10 0 10 0 0 -14 0 -14 31
-11 32 -11 31 0 31 0 14 9 13 9 5 45 5 46 -38 6 -39 7 -13 4 -13 4 6 10 6 10
21 0 21 0 18 22 19 21 0 44 0 44 -17 -2 -18 -3 -43 8 -43 8 -6 29 -5 29 -24 0
-24 0 0 -35z"/>
</g>
</svg>
