<?xml version="1.0" standalone="no"?>
<!DOCTYPE svg PUBLIC "-//W3C//DTD SVG 20010904//EN"
 "http://www.w3.org/TR/2001/REC-SVG-20010904/DTD/svg10.dtd">
<svg version="1.0" xmlns="http://www.w3.org/2000/svg"
 width="30.000000pt" height="34.000000pt" viewBox="0 0 30.000000 34.000000"
 preserveAspectRatio="xMidYMid meet">
<metadata>
Created by potrace 1.16, written by Peter Selinger 2001-2019
</metadata>
<g transform="translate(0.000000,34.000000) scale(0.100000,-0.100000)"
fill="#000000" stroke="none">
<path d="M130 305 l0 -35 -25 -6 -25 -6 -27 5 -27 5 -13 -5 -13 -5 0 -37 0
-36 9 -14 9 -13 36 4 36 4 0 -22 0 -22 -30 -7 -30 -7 -10 -39 -11 -40 15 -14
15 -15 26 0 26 0 15 14 14 15 0 15 0 16 20 0 20 0 0 -15 0 -14 39 -12 39 -12
26 7 25 6 7 36 6 35 -5 5 -5 6 -41 5 -41 6 -6 8 -5 9 6 21 7 20 19 -6 20 -7
20 23 19 22 0 34 0 34 -9 -5 -9 -6 -52 12 -51 12 -6 28 -5 28 -14 0 -14 0 0
-35z"/>
</g>
</svg>
