<?xml version="1.0" standalone="no"?>
<!DOCTYPE svg PUBLIC "-//W3C//DTD SVG 20010904//EN"
 "http://www.w3.org/TR/2001/REC-SVG-20010904/DTD/svg10.dtd">
<svg version="1.0" xmlns="http://www.w3.org/2000/svg"
 width="29.000000pt" height="40.000000pt" viewBox="0 0 29.000000 40.000000"
 preserveAspectRatio="xMidYMid meet">
<metadata>
Created by potrace 1.16, written by Peter Selinger 2001-2019
</metadata>
<g transform="translate(0.000000,40.000000) scale(0.100000,-0.100000)"
fill="#000000" stroke="none">
<path d="M120 371 l0 -31 -25 -6 -25 -6 -25 4 -25 5 0 -37 0 -38 19 5 18 5 17
-18 17 -17 -6 -26 -7 -26 -11 -7 -12 -8 -21 0 -22 0 -4 -37 -5 -38 5 -13 4
-13 46 3 45 3 10 -35 9 -35 3 -3 3 -3 26 7 26 6 0 23 0 23 23 6 22 6 23 0 22
0 0 24 0 23 -6 31 -6 31 -19 6 -19 6 0 25 0 24 29 0 29 0 6 16 6 16 0 36 0 37
-47 -3 -48 -3 -13 9 -13 9 -3 19 -3 19 -21 3 -22 3 0 -30z"/>
</g>
</svg>
