<?xml version="1.0" standalone="no"?>
<!DOCTYPE svg PUBLIC "-//W3C//DTD SVG 20010904//EN"
 "http://www.w3.org/TR/2001/REC-SVG-20010904/DTD/svg10.dtd">
<svg version="1.0" xmlns="http://www.w3.org/2000/svg"
 width="29.000000pt" height="41.000000pt" viewBox="0 0 29.000000 41.000000"
 preserveAspectRatio="xMidYMid meet">
<metadata>
Created by potrace 1.16, written by Peter Selinger 2001-2019
</metadata>
<g transform="translate(0.000000,41.000000) scale(0.100000,-0.100000)"
fill="#000000" stroke="none">
<path d="M120 376 l0 -34 -15 -6 -15 -5 -30 6 -30 6 0 9 0 10 -15 -12 -15 -12
0 -42 0 -41 9 -14 9 -14 14 6 15 5 12 -8 13 -8 -6 -20 -7 -20 -29 -6 -30 -5 0
-31 0 -31 14 -15 15 -14 35 0 36 0 0 -34 0 -34 23 -6 22 -6 17 0 18 0 6 28 7
27 11 7 11 8 31 0 32 0 6 16 6 16 0 26 0 27 -8 12 -7 11 -28 7 -27 7 0 24 0
24 23 0 24 0 11 25 12 26 0 17 0 17 -9 14 -9 14 -17 -16 -16 -17 -22 0 -22 0
-14 9 -14 9 7 17 6 18 -5 18 -6 19 -25 0 -24 0 0 -34z"/>
</g>
</svg>
