<?xml version="1.0" standalone="no"?>
<!DOCTYPE svg PUBLIC "-//W3C//DTD SVG 20010904//EN"
 "http://www.w3.org/TR/2001/REC-SVG-20010904/DTD/svg10.dtd">
<svg version="1.0" xmlns="http://www.w3.org/2000/svg"
 width="31.000000pt" height="42.000000pt" viewBox="0 0 31.000000 42.000000"
 preserveAspectRatio="xMidYMid meet">
<metadata>
Created by potrace 1.16, written by Peter Selinger 2001-2019
</metadata>
<g transform="translate(0.000000,42.000000) scale(0.100000,-0.100000)"
fill="#000000" stroke="none">
<path d="M120 391 l0 -30 -20 -6 -20 -6 -30 6 -30 7 0 -52 0 -52 20 5 20 5 15
-14 14 -15 -6 -17 -7 -17 -10 -7 -11 -8 -21 0 -21 0 -6 -45 -7 -45 7 -16 6
-16 45 4 46 3 9 -38 9 -37 16 0 17 0 23 6 22 6 0 23 0 23 23 6 22 6 23 0 22 0
0 34 0 33 -6 31 -6 31 -19 6 -19 6 0 15 0 14 29 0 29 0 6 16 6 16 0 49 0 50
-35 -7 -35 -6 -24 6 -25 6 -3 23 -3 22 -32 3 -33 3 0 -30z"/>
</g>
</svg>
