<?xml version="1.0" standalone="no"?>
<!DOCTYPE svg PUBLIC "-//W3C//DTD SVG 20010904//EN"
 "http://www.w3.org/TR/2001/REC-SVG-20010904/DTD/svg10.dtd">
<svg version="1.0" xmlns="http://www.w3.org/2000/svg"
 width="31.000000pt" height="43.000000pt" viewBox="0 0 31.000000 43.000000"
 preserveAspectRatio="xMidYMid meet">
<metadata>
Created by potrace 1.16, written by Peter Selinger 2001-2019
</metadata>
<g transform="translate(0.000000,43.000000) scale(0.100000,-0.100000)"
fill="#000000" stroke="none">
<path d="M120 395 l0 -35 -12 -1 -13 -1 -20 2 -20 2 -7 12 -7 11 -18 -11 -18
-11 -3 -43 -3 -43 6 -24 5 -23 30 0 29 0 -5 -14 -5 -14 -30 -6 -29 -5 0 -41 0
-41 14 -15 15 -14 35 0 36 0 0 -34 0 -34 22 -6 23 -6 27 0 28 0 6 28 7 27 11
7 11 8 31 0 32 0 6 16 6 16 0 36 0 37 -8 12 -7 11 -28 7 -27 7 0 14 0 14 23 0
24 0 11 25 12 26 0 24 0 23 -6 16 -6 16 -19 0 -19 0 0 -9 0 -10 -19 -6 -18 -5
-16 6 -16 6 6 14 5 14 -6 25 -6 25 -35 0 -35 0 0 -35z"/>
</g>
</svg>
