<?xml version="1.0" standalone="no"?>
<!DOCTYPE svg PUBLIC "-//W3C//DTD SVG 20010904//EN"
 "http://www.w3.org/TR/2001/REC-SVG-20010904/DTD/svg10.dtd">
<svg version="1.0" xmlns="http://www.w3.org/2000/svg"
 width="30.000000pt" height="35.000000pt" viewBox="0 0 30.000000 35.000000"
 preserveAspectRatio="xMidYMid meet">
<metadata>
Created by potrace 1.16, written by Peter Selinger 2001-2019
</metadata>
<g transform="translate(0.000000,35.000000) scale(0.100000,-0.100000)"
fill="#000000" stroke="none">
<path d="M120 331 l0 -19 -6 -16 -6 -16 -29 0 -29 0 0 10 0 10 -19 0 -19 0 -6
-16 -6 -16 0 -48 0 -48 16 -6 16 -6 24 0 24 0 0 -10 0 -10 -16 0 -15 0 -14
-13 -13 -13 -7 -51 -7 -50 24 -7 23 -6 32 0 31 0 16 6 16 6 1 37 1 36 9 -31 9
-30 51 -12 51 -12 11 0 12 0 2 66 2 65 -22 -1 -22 -2 -16 1 -17 1 -4 18 -5 18
11 10 11 10 19 -4 19 -4 8 14 9 13 0 38 0 39 -32 -7 -33 -7 -5 0 -5 0 -13 1
-13 1 5 9 6 9 -6 31 -6 31 -34 0 -34 0 0 -19z"/>
</g>
</svg>
