<?xml version="1.0" standalone="no"?>
<!DOCTYPE svg PUBLIC "-//W3C//DTD SVG 20010904//EN"
 "http://www.w3.org/TR/2001/REC-SVG-20010904/DTD/svg10.dtd">
<svg version="1.0" xmlns="http://www.w3.org/2000/svg"
 width="28.000000pt" height="33.000000pt" viewBox="0 0 28.000000 33.000000"
 preserveAspectRatio="xMidYMid meet">
<metadata>
Created by potrace 1.16, written by Peter Selinger 2001-2019
</metadata>
<g transform="translate(0.000000,33.000000) scale(0.100000,-0.100000)"
fill="#000000" stroke="none">
<path d="M120 311 l0 -19 -6 -16 -6 -16 -38 0 -38 0 -5 13 -5 12 -11 -15 -11
-15 0 -41 0 -42 16 -6 16 -6 24 0 24 0 0 -25 0 -24 -15 5 -14 6 -14 -14 -14
-13 -6 -42 -7 -42 35 -7 35 -6 25 6 25 6 0 35 0 35 14 0 14 0 5 -29 6 -28 29
-6 30 -6 23 -6 24 -6 2 56 1 56 -15 -5 -15 -6 -23 6 -23 6 -6 24 -7 25 16 15
16 16 16 -6 16 -7 9 13 8 13 0 27 0 27 -32 -10 -33 -9 -18 6 -18 6 2 16 1 17
-1 23 -1 22 -25 0 -25 0 0 -19z"/>
</g>
</svg>
