<?xml version="1.0" standalone="no"?>
<!DOCTYPE svg PUBLIC "-//W3C//DTD SVG 20010904//EN"
 "http://www.w3.org/TR/2001/REC-SVG-20010904/DTD/svg10.dtd">
<svg version="1.0" xmlns="http://www.w3.org/2000/svg"
 width="34.000000pt" height="43.000000pt" viewBox="0 0 34.000000 43.000000"
 preserveAspectRatio="xMidYMid meet">
<metadata>
Created by potrace 1.16, written by Peter Selinger 2001-2019
</metadata>
<g transform="translate(0.000000,43.000000) scale(0.100000,-0.100000)"
fill="#000000" stroke="none">
<path d="M140 414 l0 -15 -15 -15 -14 -14 -43 2 -43 3 -3 -52 -3 -52 38 -7 38
-7 7 -10 7 -11 -5 -8 -5 -8 -37 0 -37 0 -14 -9 -13 -9 7 -43 7 -43 13 -13 14
-13 29 0 30 0 16 -6 16 -6 0 -25 0 -24 14 -15 15 -14 16 0 16 0 15 14 14 15 0
30 0 31 43 0 42 0 13 8 13 9 6 51 6 51 -39 6 -39 7 -12 3 -13 4 0 15 0 15 36
-6 36 -6 9 14 9 14 0 53 0 52 -34 0 -33 0 -32 11 -31 11 0 14 0 14 -30 0 -30
0 0 -16z"/>
</g>
</svg>
