<?xml version="1.0" standalone="no"?>
<!DOCTYPE svg PUBLIC "-//W3C//DTD SVG 20010904//EN"
 "http://www.w3.org/TR/2001/REC-SVG-20010904/DTD/svg10.dtd">
<svg version="1.0" xmlns="http://www.w3.org/2000/svg"
 width="29.000000pt" height="37.000000pt" viewBox="0 0 29.000000 37.000000"
 preserveAspectRatio="xMidYMid meet">
<metadata>
Created by potrace 1.16, written by Peter Selinger 2001-2019
</metadata>
<g transform="translate(0.000000,37.000000) scale(0.100000,-0.100000)"
fill="#000000" stroke="none">
<path d="M125 356 l-18 -13 6 -16 6 -17 -24 -6 -25 -6 -16 6 -17 6 -18 -5 -19
-6 0 -32 0 -32 6 -22 6 -22 29 -6 29 -7 0 -8 0 -8 -30 -7 -30 -7 0 -50 0 -49
13 -13 13 -14 32 -7 32 -6 20 6 20 6 0 35 0 34 15 0 15 0 1 -12 1 -13 -2 -24
-2 -24 14 -8 13 -9 30 0 30 0 13 9 13 8 -3 59 -3 58 -32 9 -31 9 -5 17 -4 16
4 11 3 10 29 -4 29 -4 6 10 6 10 6 46 7 46 -32 0 -32 0 -20 10 -19 11 0 13 0
14 -16 6 -16 6 -7 0 -7 0 -19 -14z"/>
</g>
</svg>
