<?xml version="1.0" standalone="no"?>
<!DOCTYPE svg PUBLIC "-//W3C//DTD SVG 20010904//EN"
 "http://www.w3.org/TR/2001/REC-SVG-20010904/DTD/svg10.dtd">
<svg version="1.0" xmlns="http://www.w3.org/2000/svg"
 width="32.000000pt" height="41.000000pt" viewBox="0 0 32.000000 41.000000"
 preserveAspectRatio="xMidYMid meet">
<metadata>
Created by potrace 1.16, written by Peter Selinger 2001-2019
</metadata>
<g transform="translate(0.000000,41.000000) scale(0.100000,-0.100000)"
fill="#000000" stroke="none">
<path d="M140 394 l0 -15 -15 -16 -15 -15 -43 4 -42 3 -3 -42 -3 -43 40 -6 40
-6 6 -19 6 -19 -6 -10 -6 -10 -34 0 -33 0 -16 -6 -16 -6 6 -36 7 -36 13 -13
13 -13 28 0 28 0 21 -6 21 -6 -5 -23 -4 -24 15 -16 16 -15 6 0 6 0 16 15 15
16 -6 29 -6 30 48 0 47 0 12 8 12 8 7 41 6 42 -38 6 -39 7 -12 3 -13 4 0 27 0
26 36 -7 37 -6 8 13 9 13 0 43 0 42 -34 0 -33 0 -32 11 -31 11 0 14 0 14 -20
0 -20 0 0 -16z"/>
</g>
</svg>
