<?xml version="1.0" standalone="no"?>
<!DOCTYPE svg PUBLIC "-//W3C//DTD SVG 20010904//EN"
 "http://www.w3.org/TR/2001/REC-SVG-20010904/DTD/svg10.dtd">
<svg version="1.0" xmlns="http://www.w3.org/2000/svg"
 width="33.000000pt" height="34.000000pt" viewBox="0 0 33.000000 34.000000"
 preserveAspectRatio="xMidYMid meet">
<metadata>
Created by potrace 1.16, written by Peter Selinger 2001-2019
</metadata>
<g transform="translate(0.000000,34.000000) scale(0.100000,-0.100000)"
fill="#000000" stroke="none">
<path d="M100 326 l0 -15 -16 -15 -15 -16 -35 0 -34 0 0 -42 0 -43 9 -14 9
-14 26 5 26 5 5 -18 6 -19 -13 -13 -13 -13 -16 -6 -16 -6 -7 -32 -6 -33 0 -18
0 -19 39 0 39 0 16 6 16 6 0 24 0 24 15 0 15 0 0 -9 0 -10 16 -15 15 -16 40 0
41 0 -2 38 -2 37 1 12 1 12 35 -6 35 -6 0 37 0 36 -25 6 -25 6 -10 37 -10 36
0 13 0 12 -35 0 -35 0 -6 30 -6 30 -39 0 -39 0 0 -14z"/>
</g>
</svg>
