<?xml version="1.0" standalone="no"?>
<!DOCTYPE svg PUBLIC "-//W3C//DTD SVG 20010904//EN"
 "http://www.w3.org/TR/2001/REC-SVG-20010904/DTD/svg10.dtd">
<svg version="1.0" xmlns="http://www.w3.org/2000/svg"
 width="31.000000pt" height="32.000000pt" viewBox="0 0 31.000000 32.000000"
 preserveAspectRatio="xMidYMid meet">
<metadata>
Created by potrace 1.16, written by Peter Selinger 2001-2019
</metadata>
<g transform="translate(0.000000,32.000000) scale(0.100000,-0.100000)"
fill="#000000" stroke="none">
<path d="M100 306 l0 -15 -16 -15 -15 -16 -35 0 -34 0 0 -32 0 -33 9 -14 9
-13 22 7 22 7 9 -13 9 -14 0 -18 0 -18 -14 -15 -15 -14 -10 0 -10 0 -5 -8 -4
-7 -7 -38 -7 -37 33 0 34 0 14 9 14 9 -6 16 -6 16 19 10 19 10 13 -15 13 -14
13 -16 13 -15 31 0 31 0 -6 38 -6 37 8 14 9 13 31 -7 31 -7 0 26 0 26 -25 6
-25 6 -10 37 -10 36 0 13 0 12 -35 0 -35 0 -6 30 -6 30 -29 0 -29 0 0 -14z"/>
</g>
</svg>
