<?xml version="1.0" standalone="no"?>
<!DOCTYPE svg PUBLIC "-//W3C//DTD SVG 20010904//EN"
 "http://www.w3.org/TR/2001/REC-SVG-20010904/DTD/svg10.dtd">
<svg version="1.0" xmlns="http://www.w3.org/2000/svg"
 width="27.000000pt" height="35.000000pt" viewBox="0 0 27.000000 35.000000"
 preserveAspectRatio="xMidYMid meet">
<metadata>
Created by potrace 1.16, written by Peter Selinger 2001-2019
</metadata>
<g transform="translate(0.000000,35.000000) scale(0.100000,-0.100000)"
fill="#000000" stroke="none">
<path d="M128 339 l-16 -9 5 -19 5 -19 -21 -7 -21 -6 -28 1 -27 2 -12 -1 -13
-1 0 -22 0 -23 6 -22 6 -22 29 -6 29 -7 0 -18 0 -18 -30 -7 -30 -7 0 -40 0
-39 13 -13 12 -13 27 -6 26 -7 16 6 16 6 0 34 0 34 24 0 24 0 6 -16 6 -16 -6
-23 -6 -24 25 -6 26 -7 21 7 21 7 -3 51 -3 51 -32 9 -31 9 -6 23 -6 23 6 17 7
16 27 -6 28 -6 5 8 5 8 7 38 7 37 -32 0 -31 0 -20 10 -19 11 0 13 0 14 -13 5
-13 5 -16 -9z"/>
</g>
</svg>
