<?xml version="1.0" standalone="no"?>
<!DOCTYPE svg PUBLIC "-//W3C//DTD SVG 20010904//EN"
 "http://www.w3.org/TR/2001/REC-SVG-20010904/DTD/svg10.dtd">
<svg version="1.0" xmlns="http://www.w3.org/2000/svg"
 width="30.000000pt" height="36.000000pt" viewBox="0 0 30.000000 36.000000"
 preserveAspectRatio="xMidYMid meet">
<metadata>
Created by potrace 1.16, written by Peter Selinger 2001-2019
</metadata>
<g transform="translate(0.000000,36.000000) scale(0.100000,-0.100000)"
fill="#000000" stroke="none">
<path d="M43 353 l-23 -4 0 -50 0 -49 28 0 27 0 12 -8 12 -8 -8 -13 -8 -13
-41 -5 -42 -6 1 -58 1 -58 34 -7 34 -6 20 5 20 5 0 -33 0 -33 30 -7 30 -6 20
6 20 6 0 24 0 23 43 6 42 6 1 65 2 65 -38 0 -38 0 -4 12 -5 13 13 12 13 13 25
0 26 0 0 50 0 50 -36 0 -35 0 -20 -10 -19 -11 0 -18 0 -19 -19 -5 -20 -5 -8
37 -9 36 -29 1 -30 2 -22 -5z"/>
</g>
</svg>
