<?xml version="1.0" standalone="no"?>
<!DOCTYPE svg PUBLIC "-//W3C//DTD SVG 20010904//EN"
 "http://www.w3.org/TR/2001/REC-SVG-20010904/DTD/svg10.dtd">
<svg version="1.0" xmlns="http://www.w3.org/2000/svg"
 width="28.000000pt" height="34.000000pt" viewBox="0 0 28.000000 34.000000"
 preserveAspectRatio="xMidYMid meet">
<metadata>
Created by potrace 1.16, written by Peter Selinger 2001-2019
</metadata>
<g transform="translate(0.000000,34.000000) scale(0.100000,-0.100000)"
fill="#000000" stroke="none">
<path d="M43 333 l-23 -4 0 -40 0 -39 28 0 27 0 14 -9 13 -9 -6 -20 -7 -20
-22 -6 -22 -6 -22 0 -22 0 2 -50 2 -50 26 -5 26 -6 27 7 26 6 0 -35 0 -35 24
-6 24 -6 16 6 16 6 0 23 0 23 43 6 42 7 1 54 1 55 -38 0 -38 0 -6 20 -6 20 15
15 15 15 25 0 26 0 0 40 0 40 -26 0 -25 0 -20 -10 -19 -11 0 -18 0 -19 -26 -6
-26 -7 -3 3 -3 3 -9 35 -9 35 -20 1 -19 2 -22 -5z"/>
</g>
</svg>
