<?xml version="1.0" standalone="no"?>
<!DOCTYPE svg PUBLIC "-//W3C//DTD SVG 20010904//EN"
 "http://www.w3.org/TR/2001/REC-SVG-20010904/DTD/svg10.dtd">
<svg version="1.0" xmlns="http://www.w3.org/2000/svg"
 width="42.000000pt" height="30.000000pt" viewBox="0 0 42.000000 30.000000"
 preserveAspectRatio="xMidYMid meet">
<metadata>
Created by potrace 1.16, written by Peter Selinger 2001-2019
</metadata>
<g transform="translate(0.000000,30.000000) scale(0.100000,-0.100000)"
fill="#000000" stroke="none">
<path d="M251 283 l3 -18 -7 -27 -7 -27 -21 -6 -21 -7 -9 13 -9 14 0 26 0 26
-51 6 -52 6 -8 -5 -9 -5 0 -35 0 -34 -24 0 -24 0 -6 -16 -6 -16 0 -23 0 -23 6
-16 6 -16 13 0 13 0 6 -16 6 -16 0 -24 0 -24 15 0 15 0 0 -10 0 -10 54 0 54 0
6 16 6 16 0 23 0 24 10 6 10 6 0 -24 0 -24 51 -16 51 -17 18 0 17 0 7 41 7 41
14 14 14 14 10 0 11 0 0 30 0 30 -28 0 -29 0 -11 25 -12 26 0 34 0 35 -46 0
-45 0 2 -17z"/>
</g>
</svg>
