<?xml version="1.0" standalone="no"?>
<!DOCTYPE svg PUBLIC "-//W3C//DTD SVG 20010904//EN"
 "http://www.w3.org/TR/2001/REC-SVG-20010904/DTD/svg10.dtd">
<svg version="1.0" xmlns="http://www.w3.org/2000/svg"
 width="40.000000pt" height="28.000000pt" viewBox="0 0 40.000000 28.000000"
 preserveAspectRatio="xMidYMid meet">
<metadata>
Created by potrace 1.16, written by Peter Selinger 2001-2019
</metadata>
<g transform="translate(0.000000,28.000000) scale(0.100000,-0.100000)"
fill="#000000" stroke="none">
<path d="M256 267 l5 -14 -11 -29 -11 -29 -12 -7 -12 -8 -21 0 -22 0 -6 16 -6
16 0 23 0 23 -42 4 -43 5 -7 -4 -8 -4 0 -35 0 -34 -25 0 -25 0 -6 -24 -6 -25
7 -20 6 -21 14 0 13 0 6 -16 6 -16 0 -24 0 -24 15 0 15 0 0 -10 0 -10 45 0 45
0 4 23 5 22 3 20 3 20 20 0 20 0 -3 -21 -3 -21 52 -16 51 -17 8 0 7 0 7 41 7
41 14 14 14 14 10 0 11 0 0 20 0 20 -28 0 -29 0 -11 25 -12 26 0 34 0 35 -35
0 -34 0 5 -13z"/>
</g>
</svg>
