<?xml version="1.0" standalone="no"?>
<!DOCTYPE svg PUBLIC "-//W3C//DTD SVG 20010904//EN"
 "http://www.w3.org/TR/2001/REC-SVG-20010904/DTD/svg10.dtd">
<svg version="1.0" xmlns="http://www.w3.org/2000/svg"
 width="28.000000pt" height="30.000000pt" viewBox="0 0 28.000000 30.000000"
 preserveAspectRatio="xMidYMid meet">
<metadata>
Created by potrace 1.16, written by Peter Selinger 2001-2019
</metadata>
<g transform="translate(0.000000,30.000000) scale(0.100000,-0.100000)"
fill="#000000" stroke="none">
<path d="M13 293 l-13 -5 0 -43 0 -43 34 -6 34 -7 5 -13 5 -13 -6 -10 -7 -10
-22 -7 -22 -7 -5 -17 -5 -17 -6 -43 -7 -43 79 0 78 -1 58 0 58 0 4 4 4 4 -6
56 -6 57 -28 6 -27 6 -6 15 -6 15 29 5 29 6 6 22 6 21 0 34 0 34 -37 -7 -38
-6 -16 0 -17 0 -6 -25 -6 -25 -15 0 -15 0 -6 28 -7 27 -11 7 -11 8 -30 -1 -30
-1 -12 -5z"/>
</g>
</svg>
