<?xml version="1.0" standalone="no"?>
<!DOCTYPE svg PUBLIC "-//W3C//DTD SVG 20010904//EN"
 "http://www.w3.org/TR/2001/REC-SVG-20010904/DTD/svg10.dtd">
<svg version="1.0" xmlns="http://www.w3.org/2000/svg"
 width="26.000000pt" height="28.000000pt" viewBox="0 0 26.000000 28.000000"
 preserveAspectRatio="xMidYMid meet">
<metadata>
Created by potrace 1.16, written by Peter Selinger 2001-2019
</metadata>
<g transform="translate(0.000000,28.000000) scale(0.100000,-0.100000)"
fill="#000000" stroke="none">
<path d="M13 273 l-13 -5 0 -33 0 -33 34 -6 34 -7 6 -16 6 -16 -5 -17 -6 -18
-24 -6 -25 -6 -5 -25 -5 -25 -5 -25 -5 -25 42 0 43 0 14 9 14 9 -5 20 -6 20 9
13 9 14 10 -15 10 -15 -6 -26 -5 -27 25 -6 26 -6 40 6 41 7 -5 14 -6 15 0 33
0 33 -30 7 -29 6 -7 21 -6 20 13 9 14 9 16 0 17 0 6 23 6 22 0 24 0 23 -22 -6
-23 -6 -21 0 -22 0 -6 -25 -6 -25 -25 0 -25 0 -6 28 -7 27 -11 7 -11 8 -20 -1
-20 -1 -12 -5z"/>
</g>
</svg>
