<?xml version="1.0" standalone="no"?>
<!DOCTYPE svg PUBLIC "-//W3C//DTD SVG 20010904//EN"
 "http://www.w3.org/TR/2001/REC-SVG-20010904/DTD/svg10.dtd">
<svg version="1.0" xmlns="http://www.w3.org/2000/svg"
 width="35.000000pt" height="37.000000pt" viewBox="0 0 35.000000 37.000000"
 preserveAspectRatio="xMidYMid meet">
<metadata>
Created by potrace 1.16, written by Peter Selinger 2001-2019
</metadata>
<g transform="translate(0.000000,37.000000) scale(0.100000,-0.100000)"
fill="#000000" stroke="none">
<path d="M202 356 l-43 -10 4 -17 5 -18 -12 -4 -11 -4 -12 4 -13 5 0 24 0 24
-55 0 -55 0 0 -45 0 -45 19 0 20 0 15 -15 15 -16 -5 -14 -6 -15 -14 0 -13 0
-11 -40 -11 -40 -9 0 -10 0 0 -20 0 -19 38 -6 37 -7 11 -3 11 -3 7 -36 7 -36
30 0 30 0 15 14 14 15 0 30 0 31 40 -6 40 -7 0 44 1 44 12 20 12 20 20 0 20 0
3 38 3 37 -29 0 -29 0 -11 25 -12 26 0 19 0 20 -12 -1 -13 -2 -43 -11z"/>
</g>
</svg>
