<?xml version="1.0" standalone="no"?>
<!DOCTYPE svg PUBLIC "-//W3C//DTD SVG 20010904//EN"
 "http://www.w3.org/TR/2001/REC-SVG-20010904/DTD/svg10.dtd">
<svg version="1.0" xmlns="http://www.w3.org/2000/svg"
 width="33.000000pt" height="35.000000pt" viewBox="0 0 33.000000 35.000000"
 preserveAspectRatio="xMidYMid meet">
<metadata>
Created by potrace 1.16, written by Peter Selinger 2001-2019
</metadata>
<g transform="translate(0.000000,35.000000) scale(0.100000,-0.100000)"
fill="#000000" stroke="none">
<path d="M205 335 l-40 -10 3 -16 3 -16 -17 -7 -17 -6 -18 5 -19 6 0 25 0 24
-45 0 -45 0 0 -34 0 -33 29 -6 28 -6 7 -17 6 -17 -5 -18 -6 -19 -14 0 -14 0
-11 -39 -10 -39 -13 -5 -12 -4 6 -7 6 -7 44 -7 43 -7 9 -38 9 -37 20 0 19 0
15 14 14 15 0 32 0 32 40 -7 40 -6 0 39 0 40 12 26 12 26 20 -3 21 -3 3 28 3
27 -29 0 -30 0 -10 28 -11 27 -3 15 -3 15 -40 -10z"/>
</g>
</svg>
