<?xml version="1.0" standalone="no"?>
<!DOCTYPE svg PUBLIC "-//W3C//DTD SVG 20010904//EN"
 "http://www.w3.org/TR/2001/REC-SVG-20010904/DTD/svg10.dtd">
<svg version="1.0" xmlns="http://www.w3.org/2000/svg"
 width="30.000000pt" height="29.000000pt" viewBox="0 0 30.000000 29.000000"
 preserveAspectRatio="xMidYMid meet">
<metadata>
Created by potrace 1.16, written by Peter Selinger 2001-2019
</metadata>
<g transform="translate(0.000000,29.000000) scale(0.100000,-0.100000)"
fill="#000000" stroke="none">
<path d="M15 282 l-5 -5 0 -50 0 -49 23 4 23 4 12 -12 12 -13 0 -10 0 -11 -40
-6 -39 -6 1 -64 2 -64 38 0 37 0 26 12 25 11 0 24 0 23 19 0 18 0 -5 -26 -5
-26 14 -9 14 -9 40 0 40 0 12 8 12 8 7 57 7 58 -29 -2 -29 -2 -22 7 -23 7 0
12 0 12 8 10 7 10 30 0 30 0 3 48 3 48 -48 -3 -48 -3 -3 -27 -3 -27 -20 -6
-19 -6 -15 15 -15 15 0 25 0 25 -45 -1 -44 -1 -6 -5z"/>
</g>
</svg>
