<?xml version="1.0" standalone="no"?>
<!DOCTYPE svg PUBLIC "-//W3C//DTD SVG 20010904//EN"
 "http://www.w3.org/TR/2001/REC-SVG-20010904/DTD/svg10.dtd">
<svg version="1.0" xmlns="http://www.w3.org/2000/svg"
 width="35.000000pt" height="31.000000pt" viewBox="0 0 35.000000 31.000000"
 preserveAspectRatio="xMidYMid meet">
<metadata>
Created by potrace 1.16, written by Peter Selinger 2001-2019
</metadata>
<g transform="translate(0.000000,31.000000) scale(0.100000,-0.100000)"
fill="#000000" stroke="none">
<path d="M7 303 l-7 -6 0 -54 0 -53 29 0 29 0 15 -6 15 -5 -5 -20 -5 -19 -22
-6 -22 -5 -13 -44 -13 -44 7 -10 6 -11 39 0 38 0 16 6 16 6 1 37 1 36 3 -10 4
-10 11 -42 11 -43 28 0 28 0 30 10 29 11 12 33 12 32 0 17 0 17 25 6 25 6 0
34 0 34 -30 7 -30 6 0 48 0 49 -138 0 -139 0 -6 -7z"/>
</g>
</svg>
