<?xml version="1.0" standalone="no"?>
<!DOCTYPE svg PUBLIC "-//W3C//DTD SVG 20010904//EN"
 "http://www.w3.org/TR/2001/REC-SVG-20010904/DTD/svg10.dtd">
<svg version="1.0" xmlns="http://www.w3.org/2000/svg"
 width="28.000000pt" height="27.000000pt" viewBox="0 0 28.000000 27.000000"
 preserveAspectRatio="xMidYMid meet">
<metadata>
Created by potrace 1.16, written by Peter Selinger 2001-2019
</metadata>
<g transform="translate(0.000000,27.000000) scale(0.100000,-0.100000)"
fill="#000000" stroke="none">
<path d="M14 261 l-4 -4 0 -39 0 -39 20 6 20 6 15 -15 15 -15 0 -20 0 -21 -40
-6 -39 -6 2 -54 2 -54 27 0 27 0 26 12 25 11 0 24 0 23 31 0 31 0 -6 -27 -7
-26 13 -8 13 -9 30 0 30 0 12 8 11 7 7 49 8 49 -18 -7 -18 -7 -34 12 -33 11 0
21 0 22 8 12 8 12 29 -2 30 -2 3 38 3 38 -38 -3 -38 -3 -4 -25 -3 -25 -12 -7
-11 -8 -18 0 -18 0 -15 14 -14 15 0 25 0 25 -36 -2 -35 -2 -5 -4z"/>
</g>
</svg>
