<?xml version="1.0" standalone="no"?>
<!DOCTYPE svg PUBLIC "-//W3C//DTD SVG 20010904//EN"
 "http://www.w3.org/TR/2001/REC-SVG-20010904/DTD/svg10.dtd">
<svg version="1.0" xmlns="http://www.w3.org/2000/svg"
 width="33.000000pt" height="29.000000pt" viewBox="0 0 33.000000 29.000000"
 preserveAspectRatio="xMidYMid meet">
<metadata>
Created by potrace 1.16, written by Peter Selinger 2001-2019
</metadata>
<g transform="translate(0.000000,29.000000) scale(0.100000,-0.100000)"
fill="#000000" stroke="none">
<path d="M7 283 l-7 -6 0 -44 0 -43 33 0 32 0 13 -9 13 -8 -7 -27 -6 -26 -22
-6 -21 -5 -12 -37 -11 -36 4 -8 5 -8 29 0 28 0 16 6 16 6 0 34 0 34 15 0 15 0
0 -12 0 -13 11 -38 10 -37 18 0 18 0 30 10 29 11 12 33 12 32 0 17 0 17 25 6
25 6 0 24 0 25 -30 6 -30 6 0 48 0 49 -128 0 -129 0 -6 -7z"/>
</g>
</svg>
