<?xml version="1.0" standalone="no"?>
<!DOCTYPE svg PUBLIC "-//W3C//DTD SVG 20010904//EN"
 "http://www.w3.org/TR/2001/REC-SVG-20010904/DTD/svg10.dtd">
<svg version="1.0" xmlns="http://www.w3.org/2000/svg"
 width="36.000000pt" height="33.000000pt" viewBox="0 0 36.000000 33.000000"
 preserveAspectRatio="xMidYMid meet">
<metadata>
Created by potrace 1.16, written by Peter Selinger 2001-2019
</metadata>
<g transform="translate(0.000000,33.000000) scale(0.100000,-0.100000)"
fill="#000000" stroke="none">
<path d="M90 295 l0 -32 -19 -22 -20 -23 -20 7 -19 6 -7 -20 -6 -21 6 -10 6
-10 22 0 22 0 23 -6 24 -7 -7 -46 -6 -47 43 -9 43 -10 3 -22 3 -23 29 0 28 0
6 24 6 23 46 6 46 5 9 13 9 14 0 27 0 26 -6 16 -6 16 -34 -6 -34 -6 0 35 0 35
30 7 30 7 6 23 6 23 -4 19 -3 18 -46 3 -47 3 -6 -34 -6 -35 -23 -6 -22 -6 -7
0 -7 0 -9 32 -8 33 -37 6 -37 6 0 -32z"/>
</g>
</svg>
