<?xml version="1.0" standalone="no"?>
<!DOCTYPE svg PUBLIC "-//W3C//DTD SVG 20010904//EN"
 "http://www.w3.org/TR/2001/REC-SVG-20010904/DTD/svg10.dtd">
<svg version="1.0" xmlns="http://www.w3.org/2000/svg"
 width="45.000000pt" height="30.000000pt" viewBox="0 0 45.000000 30.000000"
 preserveAspectRatio="xMidYMid meet">
<metadata>
Created by potrace 1.16, written by Peter Selinger 2001-2019
</metadata>
<g transform="translate(0.000000,30.000000) scale(0.100000,-0.100000)"
fill="#000000" stroke="none">
<path d="M77 284 l-5 -19 -6 -36 -6 -37 -30 -6 -30 -6 0 -22 0 -23 8 -12 7
-11 28 -7 27 -7 0 -33 0 -33 6 -16 6 -16 53 0 53 0 6 16 6 16 0 23 0 24 10 6
10 6 0 -24 0 -24 24 -11 24 -11 37 -7 37 -7 9 14 9 14 0 26 0 27 31 6 30 6 15
14 14 15 0 29 0 30 -22 6 -23 6 -21 0 -22 0 6 45 5 45 -62 0 -61 0 0 -29 0
-29 -15 -6 -14 -5 -16 15 -15 15 0 20 0 19 -24 0 -23 0 -31 6 -30 6 -5 -18z"/>
</g>
</svg>
