<?xml version="1.0" standalone="no"?>
<!DOCTYPE svg PUBLIC "-//W3C//DTD SVG 20010904//EN"
 "http://www.w3.org/TR/2001/REC-SVG-20010904/DTD/svg10.dtd">
<svg version="1.0" xmlns="http://www.w3.org/2000/svg"
 width="38.000000pt" height="35.000000pt" viewBox="0 0 38.000000 35.000000"
 preserveAspectRatio="xMidYMid meet">
<metadata>
Created by potrace 1.16, written by Peter Selinger 2001-2019
</metadata>
<g transform="translate(0.000000,35.000000) scale(0.100000,-0.100000)"
fill="#000000" stroke="none">
<path d="M90 317 l0 -34 -17 -19 -18 -20 -19 4 -19 4 -8 -14 -9 -13 0 -23 0
-23 13 -4 12 -3 37 -7 37 -6 -6 -47 -5 -48 43 -9 44 -10 3 -22 3 -23 39 0 38
0 6 24 6 23 46 6 46 5 9 13 9 14 0 40 0 40 -9 14 -9 14 -31 -6 -31 -6 0 23 0
24 30 7 30 7 6 23 6 23 -4 28 -3 29 -56 3 -57 3 -6 -34 -6 -35 -21 -5 -20 -5
-6 30 -6 30 -11 3 -11 3 -37 7 -38 6 0 -34z"/>
</g>
</svg>
