<?xml version="1.0" standalone="no"?>
<!DOCTYPE svg PUBLIC "-//W3C//DTD SVG 20010904//EN"
 "http://www.w3.org/TR/2001/REC-SVG-20010904/DTD/svg10.dtd">
<svg version="1.0" xmlns="http://www.w3.org/2000/svg"
 width="43.000000pt" height="28.000000pt" viewBox="0 0 43.000000 28.000000"
 preserveAspectRatio="xMidYMid meet">
<metadata>
Created by potrace 1.16, written by Peter Selinger 2001-2019
</metadata>
<g transform="translate(0.000000,28.000000) scale(0.100000,-0.100000)"
fill="#000000" stroke="none">
<path d="M77 263 l-5 -18 -7 -37 -6 -38 -17 0 -17 0 -14 -9 -13 -9 6 -20 7
-21 29 -6 30 -7 0 -33 0 -33 6 -16 6 -16 44 0 44 0 4 22 5 23 3 20 3 20 20 0
20 0 -3 -21 -3 -21 28 -11 28 -11 27 -7 26 -6 7 22 7 21 -6 24 -6 23 34 -1 34
-1 16 16 16 17 0 20 0 20 -34 7 -35 6 -11 -7 -12 -8 7 52 7 51 -51 0 -51 0 0
-29 0 -30 -19 -6 -18 -5 -17 6 -17 7 -6 28 -5 29 -28 0 -28 0 -15 6 -15 5 -5
-18z"/>
</g>
</svg>
