<?xml version="1.0" standalone="no"?>
<!DOCTYPE svg PUBLIC "-//W3C//DTD SVG 20010904//EN"
 "http://www.w3.org/TR/2001/REC-SVG-20010904/DTD/svg10.dtd">
<svg version="1.0" xmlns="http://www.w3.org/2000/svg"
 width="41.000000pt" height="37.000000pt" viewBox="0 0 41.000000 37.000000"
 preserveAspectRatio="xMidYMid meet">
<metadata>
Created by potrace 1.16, written by Peter Selinger 2001-2019
</metadata>
<g transform="translate(0.000000,37.000000) scale(0.100000,-0.100000)"
fill="#000000" stroke="none">
<path d="M80 320 l0 -50 -41 -6 -40 -7 3 -26 3 -26 20 -3 20 -3 23 -5 23 -5
-3 -46 -3 -47 20 -4 20 -3 22 -5 22 -4 -6 -31 -6 -31 14 -9 14 -9 23 0 22 0 0
10 0 10 13 0 14 0 11 25 12 26 0 17 0 18 40 -4 40 -4 0 18 0 19 11 38 10 37
14 0 15 0 0 30 0 30 -23 0 -24 0 -11 25 -12 26 0 21 0 20 -26 -6 -26 -7 -30
-6 -30 -6 5 -16 4 -17 -13 -12 -13 -12 -15 16 -16 15 -1 12 -1 12 1 18 2 17
-50 0 -51 0 0 -50z"/>
</g>
</svg>
