<?xml version="1.0" standalone="no"?>
<!DOCTYPE svg PUBLIC "-//W3C//DTD SVG 20010904//EN"
 "http://www.w3.org/TR/2001/REC-SVG-20010904/DTD/svg10.dtd">
<svg version="1.0" xmlns="http://www.w3.org/2000/svg"
 width="39.000000pt" height="35.000000pt" viewBox="0 0 39.000000 35.000000"
 preserveAspectRatio="xMidYMid meet">
<metadata>
Created by potrace 1.16, written by Peter Selinger 2001-2019
</metadata>
<g transform="translate(0.000000,35.000000) scale(0.100000,-0.100000)"
fill="#000000" stroke="none">
<path d="M80 300 l0 -50 -40 -6 -41 -7 3 -16 3 -16 20 -3 20 -3 23 -5 24 -5
-4 -47 -3 -47 20 -3 20 -3 24 -5 23 -5 -6 -34 -7 -33 23 -8 22 -7 4 12 4 11
12 0 13 0 12 26 12 26 -7 20 -6 19 46 -6 46 -7 0 18 0 19 11 38 10 37 14 0 15
0 0 20 0 20 -23 0 -24 0 -11 25 -12 26 0 18 0 18 -44 -10 -44 -10 5 -13 5 -13
-16 -16 -16 -16 -19 6 -19 6 -12 29 -12 29 7 10 6 11 -40 0 -41 0 0 -50z"/>
</g>
</svg>
