<?xml version="1.0" standalone="no"?>
<!DOCTYPE svg PUBLIC "-//W3C//DTD SVG 20010904//EN"
 "http://www.w3.org/TR/2001/REC-SVG-20010904/DTD/svg10.dtd">
<svg version="1.0" xmlns="http://www.w3.org/2000/svg"
 width="44.000000pt" height="43.000000pt" viewBox="0 0 44.000000 43.000000"
 preserveAspectRatio="xMidYMid meet">
<metadata>
Created by potrace 1.16, written by Peter Selinger 2001-2019
</metadata>
<g transform="translate(0.000000,43.000000) scale(0.100000,-0.100000)"
fill="#000000" stroke="none">
<path d="M178 388 l-3 -42 -47 2 -47 3 -3 -33 -3 -33 -24 -3 -24 -4 -15 -14
-14 -15 6 -34 7 -35 37 -6 37 -6 -3 -43 -4 -44 39 -6 38 -7 13 -3 12 -4 0 -18
0 -18 9 -14 9 -14 36 7 35 7 7 34 6 35 49 0 49 0 0 45 0 45 24 0 24 0 6 16 6
16 0 23 0 23 -6 16 -6 16 -24 0 -24 0 0 36 0 37 -59 -7 -59 -7 -6 16 -6 17 0
29 0 29 -34 0 -35 0 -3 -42z"/>
</g>
</svg>
