<?xml version="1.0" standalone="no"?>
<!DOCTYPE svg PUBLIC "-//W3C//DTD SVG 20010904//EN"
 "http://www.w3.org/TR/2001/REC-SVG-20010904/DTD/svg10.dtd">
<svg version="1.0" xmlns="http://www.w3.org/2000/svg"
 width="42.000000pt" height="41.000000pt" viewBox="0 0 42.000000 41.000000"
 preserveAspectRatio="xMidYMid meet">
<metadata>
Created by potrace 1.16, written by Peter Selinger 2001-2019
</metadata>
<g transform="translate(0.000000,41.000000) scale(0.100000,-0.100000)"
fill="#000000" stroke="none">
<path d="M183 371 l5 -40 -13 -5 -13 -4 -41 5 -41 6 0 -29 0 -29 -8 -13 -9
-13 -16 7 -16 6 -16 -16 -16 -15 7 -25 6 -24 23 -6 23 -6 17 6 16 7 -7 -51 -6
-51 38 -6 39 -7 13 -3 12 -4 0 -18 0 -18 9 -13 8 -13 26 6 26 7 7 34 6 34 49
0 49 0 0 50 0 50 24 -6 24 -6 7 22 7 21 -7 26 -6 25 -24 -6 -25 -6 0 41 0 40
-56 -7 -56 -7 -9 14 -9 14 0 33 0 32 -26 0 -27 0 6 -39z"/>
</g>
</svg>
