<?xml version="1.0" standalone="no"?>
<!DOCTYPE svg PUBLIC "-//W3C//DTD SVG 20010904//EN"
 "http://www.w3.org/TR/2001/REC-SVG-20010904/DTD/svg10.dtd">
<svg version="1.0" xmlns="http://www.w3.org/2000/svg"
 width="38.000000pt" height="36.000000pt" viewBox="0 0 38.000000 36.000000"
 preserveAspectRatio="xMidYMid meet">
<metadata>
Created by potrace 1.16, written by Peter Selinger 2001-2019
</metadata>
<g transform="translate(0.000000,36.000000) scale(0.100000,-0.100000)"
fill="#000000" stroke="none">
<path d="M127 353 l-7 -6 0 -17 0 -18 -29 -12 -30 -12 -30 7 -31 7 0 -31 0
-30 12 -26 11 -25 29 0 28 0 0 -15 0 -15 -23 0 -24 0 -11 -25 -12 -26 0 -35 0
-35 14 -15 15 -14 36 0 36 0 14 13 13 13 3 18 4 17 10 -1 10 -1 -3 -26 -4 -26
14 -8 13 -9 26 0 26 0 32 11 31 11 0 31 0 32 8 12 7 11 27 7 27 7 6 19 6 19
-6 21 -7 20 -27 -6 -27 -6 -12 26 -12 26 0 30 0 31 -30 -7 -30 -6 -18 5 -19 6
5 30 4 30 -34 0 -35 0 -6 -7z"/>
</g>
</svg>
