<?xml version="1.0" standalone="no"?>
<!DOCTYPE svg PUBLIC "-//W3C//DTD SVG 20010904//EN"
 "http://www.w3.org/TR/2001/REC-SVG-20010904/DTD/svg10.dtd">
<svg version="1.0" xmlns="http://www.w3.org/2000/svg"
 width="36.000000pt" height="34.000000pt" viewBox="0 0 36.000000 34.000000"
 preserveAspectRatio="xMidYMid meet">
<metadata>
Created by potrace 1.16, written by Peter Selinger 2001-2019
</metadata>
<g transform="translate(0.000000,34.000000) scale(0.100000,-0.100000)"
fill="#000000" stroke="none">
<path d="M127 333 l-7 -6 0 -17 0 -18 -30 -12 -30 -12 -30 4 -30 5 0 -18 0
-18 12 -26 11 -25 29 0 29 0 -3 -27 -3 -28 -21 3 -20 3 -12 -26 -12 -26 0 -25
0 -25 14 -15 15 -14 26 0 26 0 14 13 13 13 4 20 3 19 20 0 20 0 -3 -32 -2 -33
24 -6 25 -6 35 12 36 12 0 31 0 32 8 12 7 11 27 7 27 7 5 14 5 14 -5 13 -5 13
-27 -4 -28 -4 -12 27 -12 26 0 28 0 28 -25 -5 -25 -4 -26 6 -25 7 6 29 7 30
-25 0 -24 0 -6 -7z"/>
</g>
</svg>
