<?xml version="1.0" standalone="no"?>
<!DOCTYPE svg PUBLIC "-//W3C//DTD SVG 20010904//EN"
 "http://www.w3.org/TR/2001/REC-SVG-20010904/DTD/svg10.dtd">
<svg version="1.0" xmlns="http://www.w3.org/2000/svg"
 width="38.000000pt" height="34.000000pt" viewBox="0 0 38.000000 34.000000"
 preserveAspectRatio="xMidYMid meet">
<metadata>
Created by potrace 1.16, written by Peter Selinger 2001-2019
</metadata>
<g transform="translate(0.000000,34.000000) scale(0.100000,-0.100000)"
fill="#000000" stroke="none">
<path d="M114 313 l-7 -28 -11 -7 -11 -7 -37 6 -38 6 0 -44 0 -44 9 -14 9 -13
21 7 22 7 14 -19 14 -18 1 -7 0 -7 -16 -15 -15 -16 -35 0 -34 0 0 -19 0 -19 6
-31 7 -31 142 0 142 0 11 25 12 26 0 14 0 15 24 0 24 0 6 16 6 16 0 25 0 24
-14 15 -15 14 -25 0 -25 0 -3 42 -3 43 -20 3 -20 4 -37 9 -36 9 5 20 5 20 -36
0 -36 0 -6 -27z"/>
</g>
</svg>
