<?xml version="1.0" standalone="no"?>
<!DOCTYPE svg PUBLIC "-//W3C//DTD SVG 20010904//EN"
 "http://www.w3.org/TR/2001/REC-SVG-20010904/DTD/svg10.dtd">
<svg version="1.0" xmlns="http://www.w3.org/2000/svg"
 width="36.000000pt" height="32.000000pt" viewBox="0 0 36.000000 32.000000"
 preserveAspectRatio="xMidYMid meet">
<metadata>
Created by potrace 1.16, written by Peter Selinger 2001-2019
</metadata>
<g transform="translate(0.000000,32.000000) scale(0.100000,-0.100000)"
fill="#000000" stroke="none">
<path d="M116 304 l-6 -16 5 -8 6 -9 -22 -11 -21 -12 -34 7 -34 6 0 -30 0 -29
6 -15 5 -14 25 5 25 5 14 -19 14 -19 1 -17 0 -17 -21 -20 -22 -20 -30 6 -30 6
6 -33 7 -33 0 -8 0 -9 133 0 134 0 11 25 12 26 0 14 0 15 24 0 24 0 6 16 6 16
0 15 0 14 -15 16 -16 15 -24 -4 -24 -5 -3 46 -3 46 -20 3 -20 4 -38 9 -39 10
5 20 5 19 -23 0 -23 0 -6 -16z"/>
</g>
</svg>
