<?xml version="1.0" standalone="no"?>
<!DOCTYPE svg PUBLIC "-//W3C//DTD SVG 20010904//EN"
 "http://www.w3.org/TR/2001/REC-SVG-20010904/DTD/svg10.dtd">
<svg version="1.0" xmlns="http://www.w3.org/2000/svg"
 width="38.000000pt" height="35.000000pt" viewBox="0 0 38.000000 35.000000"
 preserveAspectRatio="xMidYMid meet">
<metadata>
Created by potrace 1.16, written by Peter Selinger 2001-2019
</metadata>
<g transform="translate(0.000000,35.000000) scale(0.100000,-0.100000)"
fill="#000000" stroke="none">
<path d="M130 316 l0 -35 -21 -6 -21 -7 -44 7 -44 6 0 -44 0 -45 16 -6 16 -6
18 0 18 0 6 -16 6 -16 0 -9 0 -9 -24 0 -24 0 -16 -6 -16 -6 0 -40 0 -39 13
-13 12 -13 32 -6 33 -6 14 5 14 5 -5 40 -6 39 27 0 26 0 0 -29 0 -29 6 -16 6
-16 28 0 27 0 31 11 32 11 10 36 10 37 0 13 0 12 29 0 30 0 6 21 7 21 -5 5 -5
5 -41 5 -41 6 0 38 0 38 -8 5 -8 4 -42 -11 -43 -11 -9 14 -9 15 -6 37 -7 38
-14 0 -14 0 0 -34z"/>
</g>
</svg>
