<?xml version="1.0" standalone="no"?>
<!DOCTYPE svg PUBLIC "-//W3C//DTD SVG 20010904//EN"
 "http://www.w3.org/TR/2001/REC-SVG-20010904/DTD/svg10.dtd">
<svg version="1.0" xmlns="http://www.w3.org/2000/svg"
 width="27.000000pt" height="42.000000pt" viewBox="0 0 27.000000 42.000000"
 preserveAspectRatio="xMidYMid meet">
<metadata>
Created by potrace 1.16, written by Peter Selinger 2001-2019
</metadata>
<g transform="translate(0.000000,42.000000) scale(0.100000,-0.100000)"
fill="#000000" stroke="none">
<path d="M110 393 l0 -28 -9 -14 -9 -14 -46 6 -46 7 0 -54 0 -54 34 -6 34 -7
5 -13 6 -14 -23 -6 -24 -6 -11 -44 -11 -45 6 -15 6 -16 33 0 33 0 5 -29 6 -29
21 -7 21 -7 25 6 24 6 0 30 0 30 40 0 40 0 0 18 0 17 -6 37 -7 38 -22 0 -23 0
-6 16 -6 16 0 9 0 8 33 9 32 8 3 56 3 56 -45 6 -46 7 -6 25 -6 24 -29 0 -29 0
0 -27z"/>
</g>
</svg>
