<?xml version="1.0" standalone="no"?>
<!DOCTYPE svg PUBLIC "-//W3C//DTD SVG 20010904//EN"
 "http://www.w3.org/TR/2001/REC-SVG-20010904/DTD/svg10.dtd">
<svg version="1.0" xmlns="http://www.w3.org/2000/svg"
 width="45.000000pt" height="37.000000pt" viewBox="0 0 45.000000 37.000000"
 preserveAspectRatio="xMidYMid meet">
<metadata>
Created by potrace 1.16, written by Peter Selinger 2001-2019
</metadata>
<g transform="translate(0.000000,37.000000) scale(0.100000,-0.100000)"
fill="#000000" stroke="none">
<path d="M207 364 l-7 -7 0 -23 0 -22 -6 -16 -6 -16 -48 0 -49 0 -3 -37 -3
-38 -29 -3 -29 -4 -14 -13 -13 -14 0 -19 0 -19 19 -21 18 -22 22 0 21 0 0 -39
0 -39 16 -6 16 -6 48 0 48 0 6 16 6 16 0 22 0 23 6 6 6 6 14 -6 14 -5 0 -13 0
-14 16 -15 15 -16 50 0 49 0 0 39 0 39 30 7 30 7 0 30 0 29 -14 15 -15 14 -15
0 -16 0 0 44 0 44 -42 6 -43 7 -20 12 -20 12 0 20 0 20 -25 3 -26 3 -7 -7z"/>
</g>
</svg>
