<?xml version="1.0" standalone="no"?>
<!DOCTYPE svg PUBLIC "-//W3C//DTD SVG 20010904//EN"
 "http://www.w3.org/TR/2001/REC-SVG-20010904/DTD/svg10.dtd">
<svg version="1.0" xmlns="http://www.w3.org/2000/svg"
 width="25.000000pt" height="40.000000pt" viewBox="0 0 25.000000 40.000000"
 preserveAspectRatio="xMidYMid meet">
<metadata>
Created by potrace 1.16, written by Peter Selinger 2001-2019
</metadata>
<g transform="translate(0.000000,40.000000) scale(0.100000,-0.100000)"
fill="#000000" stroke="none">
<path d="M110 373 l0 -28 -9 -14 -9 -13 -46 3 -46 4 0 -41 0 -42 34 -6 34 -7
6 -15 6 -16 0 -8 0 -8 -24 -6 -24 -6 -9 -37 -10 -38 5 -13 4 -12 33 0 33 0 5
-29 6 -28 17 -7 17 -6 18 5 19 6 0 30 0 29 41 0 42 0 -7 31 -6 32 0 13 0 14
-24 0 -24 0 -6 16 -6 16 0 15 0 14 13 14 14 13 19 -1 19 -2 3 46 3 47 -45 6
-46 7 -6 25 -6 24 -19 0 -19 0 0 -27z"/>
</g>
</svg>
