<?xml version="1.0" standalone="no"?>
<!DOCTYPE svg PUBLIC "-//W3C//DTD SVG 20010904//EN"
 "http://www.w3.org/TR/2001/REC-SVG-20010904/DTD/svg10.dtd">
<svg version="1.0" xmlns="http://www.w3.org/2000/svg"
 width="40.000000pt" height="37.000000pt" viewBox="0 0 40.000000 37.000000"
 preserveAspectRatio="xMidYMid meet">
<metadata>
Created by potrace 1.16, written by Peter Selinger 2001-2019
</metadata>
<g transform="translate(0.000000,37.000000) scale(0.100000,-0.100000)"
fill="#000000" stroke="none">
<path d="M130 336 l0 -34 -16 -6 -17 -6 -48 6 -49 7 0 -56 0 -55 16 -6 16 -6
18 0 18 0 6 -15 5 -15 -23 0 -24 0 -16 -6 -16 -6 0 -50 0 -49 13 -13 13 -13
37 -7 38 -7 20 6 20 7 -6 39 -7 39 16 0 16 0 0 -29 0 -29 6 -16 6 -16 38 0 37
0 31 11 32 11 10 36 10 37 0 13 0 12 29 0 29 0 6 16 6 16 0 18 0 18 -22 6 -23
6 -22 0 -23 0 0 40 0 41 -15 5 -14 6 -37 -12 -36 -12 -9 13 -8 14 -6 37 -7 38
-24 0 -24 0 0 -34z"/>
</g>
</svg>
