<?xml version="1.0" standalone="no"?>
<!DOCTYPE svg PUBLIC "-//W3C//DTD SVG 20010904//EN"
 "http://www.w3.org/TR/2001/REC-SVG-20010904/DTD/svg10.dtd">
<svg version="1.0" xmlns="http://www.w3.org/2000/svg"
 width="38.000000pt" height="35.000000pt" viewBox="0 0 38.000000 35.000000"
 preserveAspectRatio="xMidYMid meet">
<metadata>
Created by potrace 1.16, written by Peter Selinger 2001-2019
</metadata>
<g transform="translate(0.000000,35.000000) scale(0.100000,-0.100000)"
fill="#000000" stroke="none">
<path d="M197 344 l-7 -7 0 -14 0 -14 -15 -16 -15 -15 -39 7 -38 6 -7 -40 -6
-41 -19 0 -19 0 -16 -6 -16 -6 0 -43 0 -43 30 -7 30 -7 0 -27 0 -28 19 -21 18
-22 46 0 45 0 16 6 16 6 0 29 0 29 14 0 13 0 -5 -26 -5 -26 14 -9 14 -9 37 0
36 0 16 6 16 6 0 14 0 14 -12 40 -13 39 -22 6 -23 5 0 20 0 20 25 0 25 0 0 10
0 10 15 0 15 0 0 45 0 46 -15 5 -14 6 -35 -12 -35 -11 -13 8 -13 8 0 30 0 30
-25 3 -26 3 -7 -7z"/>
</g>
</svg>
