<?xml version="1.0" standalone="no"?>
<!DOCTYPE svg PUBLIC "-//W3C//DTD SVG 20010904//EN"
 "http://www.w3.org/TR/2001/REC-SVG-20010904/DTD/svg10.dtd">
<svg version="1.0" xmlns="http://www.w3.org/2000/svg"
 width="40.000000pt" height="43.000000pt" viewBox="0 0 40.000000 43.000000"
 preserveAspectRatio="xMidYMid meet">
<metadata>
Created by potrace 1.16, written by Peter Selinger 2001-2019
</metadata>
<g transform="translate(0.000000,43.000000) scale(0.100000,-0.100000)"
fill="#000000" stroke="none">
<path d="M200 401 l0 -29 -29 -12 -30 -12 -30 7 -31 7 0 -46 0 -46 -26 0 -25
0 -15 -14 -14 -15 0 -14 0 -15 6 -16 6 -16 37 0 36 0 -3 -49 -4 -50 35 -6 36
-7 10 7 11 6 0 -26 0 -26 14 -15 15 -14 28 0 28 0 11 8 12 7 3 25 4 25 25 3
25 3 21 4 21 5 13 44 12 44 -7 22 -7 22 -35 -5 -34 -6 -15 6 -14 5 0 13 0 12
39 7 39 6 6 22 6 23 0 33 0 32 -40 0 -39 0 -24 11 -24 11 5 24 4 24 -31 0 -31
0 0 -29z"/>
</g>
</svg>
