<?xml version="1.0" standalone="no"?>
<!DOCTYPE svg PUBLIC "-//W3C//DTD SVG 20010904//EN"
 "http://www.w3.org/TR/2001/REC-SVG-20010904/DTD/svg10.dtd">
<svg version="1.0" xmlns="http://www.w3.org/2000/svg"
 width="36.000000pt" height="33.000000pt" viewBox="0 0 36.000000 33.000000"
 preserveAspectRatio="xMidYMid meet">
<metadata>
Created by potrace 1.16, written by Peter Selinger 2001-2019
</metadata>
<g transform="translate(0.000000,33.000000) scale(0.100000,-0.100000)"
fill="#000000" stroke="none">
<path d="M197 324 l-7 -7 0 -14 0 -14 -16 -16 -15 -15 -38 5 -39 5 -6 -39 -6
-39 -19 0 -19 0 -16 -6 -16 -6 0 -33 0 -33 30 -7 30 -7 0 -27 0 -28 19 -21 18
-22 36 0 35 0 16 6 16 6 0 27 0 28 6 5 5 6 20 -5 20 -6 -6 -25 -6 -25 13 -8
13 -9 30 0 30 0 13 9 13 8 -13 41 -13 41 -23 6 -23 6 3 32 3 32 23 -2 22 -3 0
10 0 10 15 0 15 0 0 34 0 35 -9 5 -9 6 -31 -11 -31 -11 -25 6 -25 6 2 32 3 32
-15 3 -16 4 -7 -7z"/>
</g>
</svg>
