<?xml version="1.0" standalone="no"?>
<!DOCTYPE svg PUBLIC "-//W3C//DTD SVG 20010904//EN"
 "http://www.w3.org/TR/2001/REC-SVG-20010904/DTD/svg10.dtd">
<svg version="1.0" xmlns="http://www.w3.org/2000/svg"
 width="38.000000pt" height="41.000000pt" viewBox="0 0 38.000000 41.000000"
 preserveAspectRatio="xMidYMid meet">
<metadata>
Created by potrace 1.16, written by Peter Selinger 2001-2019
</metadata>
<g transform="translate(0.000000,41.000000) scale(0.100000,-0.100000)"
fill="#000000" stroke="none">
<path d="M200 381 l0 -29 -30 -12 -30 -12 -30 4 -30 5 0 -44 0 -43 -26 0 -25
0 -15 -15 -15 -15 6 -20 6 -20 39 0 39 0 -6 -49 -5 -48 23 -6 23 -6 23 5 23 6
0 -27 0 -26 14 -15 15 -14 18 0 18 0 11 8 12 7 3 25 4 25 25 3 25 3 21 4 21 5
11 39 12 39 -6 16 -7 17 -28 -6 -29 -6 -20 6 -21 7 3 26 3 26 33 2 33 2 5 5 6
5 5 41 6 41 -41 0 -41 0 -26 12 -26 12 5 21 5 21 -19 1 -20 2 0 -28z"/>
</g>
</svg>
