<?xml version="1.0" standalone="no"?>
<!DOCTYPE svg PUBLIC "-//W3C//DTD SVG 20010904//EN"
 "http://www.w3.org/TR/2001/REC-SVG-20010904/DTD/svg10.dtd">
<svg version="1.0" xmlns="http://www.w3.org/2000/svg"
 width="30.000000pt" height="34.000000pt" viewBox="0 0 30.000000 34.000000"
 preserveAspectRatio="xMidYMid meet">
<metadata>
Created by potrace 1.16, written by Peter Selinger 2001-2019
</metadata>
<g transform="translate(0.000000,34.000000) scale(0.100000,-0.100000)"
fill="#000000" stroke="none">
<path d="M110 310 l0 -30 -25 -6 -26 -6 -29 6 -30 6 0 -55 0 -55 29 0 29 0 16
-6 16 -6 0 -13 0 -13 -34 -6 -34 -7 -6 -15 -6 -16 0 -38 0 -38 16 -6 16 -6 38
0 38 0 6 16 6 16 0 24 0 24 19 0 19 0 6 -24 6 -23 31 -7 31 -6 23 0 23 0 6 16
6 16 0 28 0 28 -22 6 -23 6 -22 0 -23 0 0 25 0 25 35 0 35 0 6 24 6 24 -4 28
-3 29 -15 2 -15 2 -37 6 -38 6 -6 24 -6 25 -29 0 -29 0 0 -30z"/>
</g>
</svg>
