<?xml version="1.0" standalone="no"?>
<!DOCTYPE svg PUBLIC "-//W3C//DTD SVG 20010904//EN"
 "http://www.w3.org/TR/2001/REC-SVG-20010904/DTD/svg10.dtd">
<svg version="1.0" xmlns="http://www.w3.org/2000/svg"
 width="34.000000pt" height="41.000000pt" viewBox="0 0 34.000000 41.000000"
 preserveAspectRatio="xMidYMid meet">
<metadata>
Created by potrace 1.16, written by Peter Selinger 2001-2019
</metadata>
<g transform="translate(0.000000,41.000000) scale(0.100000,-0.100000)"
fill="#000000" stroke="none">
<path d="M118 382 l4 -28 -27 -12 -26 -12 -19 0 -18 0 -4 12 -4 12 -12 -8 -12
-7 0 -40 0 -40 14 -15 15 -14 24 0 24 0 6 -6 6 -6 -6 -13 -5 -14 -28 -6 -28
-6 -5 -42 -6 -42 12 -7 12 -8 30 0 30 0 1 -31 1 -31 14 -9 14 -9 25 6 25 6 8
11 8 12 -5 33 -5 34 41 -7 41 -7 -6 42 -5 43 14 14 14 14 12 -2 13 -1 18 1 17
1 0 15 0 15 -21 0 -20 0 -15 14 -14 15 0 40 0 41 -29 0 -30 0 -25 10 -26 10 0
25 0 25 -23 0 -24 0 5 -28z"/>
</g>
</svg>
