<?xml version="1.0" standalone="no"?>
<!DOCTYPE svg PUBLIC "-//W3C//DTD SVG 20010904//EN"
 "http://www.w3.org/TR/2001/REC-SVG-20010904/DTD/svg10.dtd">
<svg version="1.0" xmlns="http://www.w3.org/2000/svg"
 width="32.000000pt" height="36.000000pt" viewBox="0 0 32.000000 36.000000"
 preserveAspectRatio="xMidYMid meet">
<metadata>
Created by potrace 1.16, written by Peter Selinger 2001-2019
</metadata>
<g transform="translate(0.000000,36.000000) scale(0.100000,-0.100000)"
fill="#000000" stroke="none">
<path d="M110 331 l0 -30 -20 -6 -19 -6 -36 7 -35 6 0 -66 0 -66 33 0 32 0 13
-9 14 -8 -35 -7 -35 -7 -6 -15 -6 -16 0 -48 0 -48 16 -6 16 -6 48 0 48 0 6 16
6 16 0 24 0 24 9 0 9 0 6 -24 6 -23 31 -7 32 -6 32 0 33 0 6 16 6 16 0 38 0
38 -22 6 -23 6 -22 0 -23 0 0 15 0 15 35 0 35 0 6 23 5 24 -3 39 -3 39 -15 2
-15 2 -37 6 -38 6 -6 24 -6 25 -39 0 -39 0 0 -29z"/>
</g>
</svg>
