<?xml version="1.0" standalone="no"?>
<!DOCTYPE svg PUBLIC "-//W3C//DTD SVG 20010904//EN"
 "http://www.w3.org/TR/2001/REC-SVG-20010904/DTD/svg10.dtd">
<svg version="1.0" xmlns="http://www.w3.org/2000/svg"
 width="39.000000pt" height="43.000000pt" viewBox="0 0 39.000000 43.000000"
 preserveAspectRatio="xMidYMid meet">
<metadata>
Created by potrace 1.16, written by Peter Selinger 2001-2019
</metadata>
<g transform="translate(0.000000,43.000000) scale(0.100000,-0.100000)"
fill="#000000" stroke="none">
<path d="M213 410 l5 -20 -16 -16 -16 -16 -47 5 -46 6 -9 -42 -9 -42 -32 3
-31 3 -7 -21 -6 -20 6 -29 6 -28 32 -10 32 -9 3 -41 3 -42 37 -6 37 -6 15 -2
15 -2 3 -32 3 -32 36 -7 35 -7 9 14 9 14 0 28 0 27 34 0 34 0 16 6 16 6 0 52
0 51 -9 13 -8 14 -28 -4 -28 -3 -4 11 -4 11 40 7 39 6 6 16 6 16 0 36 0 37 -8
12 -7 12 -30 -1 -30 -1 -21 7 -22 7 -5 19 -5 20 -27 0 -27 0 5 -20z"/>
</g>
</svg>
