<?xml version="1.0" standalone="no"?>
<!DOCTYPE svg PUBLIC "-//W3C//DTD SVG 20010904//EN"
 "http://www.w3.org/TR/2001/REC-SVG-20010904/DTD/svg10.dtd">
<svg version="1.0" xmlns="http://www.w3.org/2000/svg"
 width="36.000000pt" height="43.000000pt" viewBox="0 0 36.000000 43.000000"
 preserveAspectRatio="xMidYMid meet">
<metadata>
Created by potrace 1.16, written by Peter Selinger 2001-2019
</metadata>
<g transform="translate(0.000000,43.000000) scale(0.100000,-0.100000)"
fill="#000000" stroke="none">
<path d="M115 401 l6 -28 -31 -13 -32 -13 -8 12 -7 13 -19 -4 -19 -3 -3 -53
-3 -52 15 -15 15 -15 25 0 26 0 0 -9 0 -9 -29 -7 -29 -6 -6 -51 -7 -51 13 -8
13 -9 26 0 27 0 6 -34 7 -35 20 -6 20 -7 27 7 27 7 7 11 8 12 0 30 0 31 36 -4
36 -4 -3 44 -4 45 11 11 12 11 5 -5 5 -5 26 7 26 6 0 24 0 24 -21 0 -20 0 -15
14 -14 15 0 40 0 41 -29 0 -30 0 -25 10 -26 10 0 25 0 25 -36 0 -36 0 7 -29z"/>
</g>
</svg>
