<?xml version="1.0" standalone="no"?>
<!DOCTYPE svg PUBLIC "-//W3C//DTD SVG 20010904//EN"
 "http://www.w3.org/TR/2001/REC-SVG-20010904/DTD/svg10.dtd">
<svg version="1.0" xmlns="http://www.w3.org/2000/svg"
 width="37.000000pt" height="41.000000pt" viewBox="0 0 37.000000 41.000000"
 preserveAspectRatio="xMidYMid meet">
<metadata>
Created by potrace 1.16, written by Peter Selinger 2001-2019
</metadata>
<g transform="translate(0.000000,41.000000) scale(0.100000,-0.100000)"
fill="#000000" stroke="none">
<path d="M217 391 l5 -18 -17 -17 -17 -17 -47 3 -46 3 -11 -40 -10 -40 -31 2
-31 3 -6 -16 -6 -16 6 -23 6 -23 31 -9 32 -9 3 -41 3 -42 37 -6 37 -6 15 -2
15 -2 3 -32 3 -31 26 -7 26 -6 9 13 9 13 -4 27 -4 28 38 0 37 0 16 6 16 6 0
42 0 41 -8 12 -8 12 -29 -2 -30 -2 -3 26 -3 25 36 0 36 0 10 15 9 14 0 30 0
30 -9 14 -9 14 -11 -7 -11 -7 -39 11 -39 10 -5 20 -5 20 -15 0 -15 0 5 -19z"/>
</g>
</svg>
