<?xml version="1.0" standalone="no"?>
<!DOCTYPE svg PUBLIC "-//W3C//DTD SVG 20010904//EN"
 "http://www.w3.org/TR/2001/REC-SVG-20010904/DTD/svg10.dtd">
<svg version="1.0" xmlns="http://www.w3.org/2000/svg"
 width="38.000000pt" height="35.000000pt" viewBox="0 0 38.000000 35.000000"
 preserveAspectRatio="xMidYMid meet">
<metadata>
Created by potrace 1.16, written by Peter Selinger 2001-2019
</metadata>
<g transform="translate(0.000000,35.000000) scale(0.100000,-0.100000)"
fill="#000000" stroke="none">
<path d="M127 343 l-7 -6 0 -26 0 -26 -9 -14 -9 -14 -51 5 -51 5 0 -28 0 -28
12 -26 11 -25 29 0 28 0 0 -20 0 -20 -11 0 -10 0 -14 -14 -14 -14 -7 -40 -6
-40 31 -7 31 -6 19 6 19 6 6 29 6 30 24 0 24 0 -5 -19 -5 -20 39 -10 38 -11
16 0 17 0 6 16 6 16 0 24 0 24 33 0 34 0 12 26 12 26 -6 18 -6 18 -24 6 -23 6
-16 -6 -16 -6 0 51 0 51 -38 0 -39 0 -21 19 -22 18 7 7 7 7 -14 9 -15 10 -11
0 -11 0 -6 -7z"/>
</g>
</svg>
