<?xml version="1.0" standalone="no"?>
<!DOCTYPE svg PUBLIC "-//W3C//DTD SVG 20010904//EN"
 "http://www.w3.org/TR/2001/REC-SVG-20010904/DTD/svg10.dtd">
<svg version="1.0" xmlns="http://www.w3.org/2000/svg"
 width="30.000000pt" height="34.000000pt" viewBox="0 0 30.000000 34.000000"
 preserveAspectRatio="xMidYMid meet">
<metadata>
Created by potrace 1.16, written by Peter Selinger 2001-2019
</metadata>
<g transform="translate(0.000000,34.000000) scale(0.100000,-0.100000)"
fill="#000000" stroke="none">
<path d="M146 332 l-6 -5 0 -28 0 -29 -26 -6 -25 -6 -40 5 -39 5 0 -16 0 -17
10 -36 10 -37 25 -6 25 -6 0 -26 0 -26 -31 7 -31 7 -9 -13 -9 -14 7 -35 6 -35
11 -7 11 -8 42 0 42 0 16 16 17 17 -5 18 -5 19 19 0 19 0 0 -20 0 -19 37 -10
37 -10 23 5 23 6 0 48 0 49 -32 3 -33 3 -3 17 -3 18 30 0 31 0 6 24 6 24 -4
28 -3 29 -34 -3 -33 -4 -25 7 -24 6 6 28 6 28 -20 6 -20 5 -5 -6z"/>
</g>
</svg>
