<?xml version="1.0" standalone="no"?>
<!DOCTYPE svg PUBLIC "-//W3C//DTD SVG 20010904//EN"
 "http://www.w3.org/TR/2001/REC-SVG-20010904/DTD/svg10.dtd">
<svg version="1.0" xmlns="http://www.w3.org/2000/svg"
 width="41.000000pt" height="27.000000pt" viewBox="0 0 41.000000 27.000000"
 preserveAspectRatio="xMidYMid meet">
<metadata>
Created by potrace 1.16, written by Peter Selinger 2001-2019
</metadata>
<g transform="translate(0.000000,27.000000) scale(0.100000,-0.100000)"
fill="#000000" stroke="none">
<path d="M75 252 l-5 -14 0 -28 0 -28 -20 5 -20 5 0 -11 0 -11 -15 0 -15 0 0
-34 0 -34 18 -5 19 -4 6 -30 6 -31 16 -16 16 -16 29 0 28 0 16 6 16 6 0 29 0
29 29 0 29 0 6 -24 6 -24 22 -6 23 -6 23 0 22 0 0 38 0 37 10 15 9 14 28 2 28
1 0 19 0 19 -30 3 -30 4 -7 11 -8 12 0 40 0 40 -48 3 -49 2 5 -28 4 -29 -17
-16 -16 -17 -15 0 -14 0 0 10 0 10 -16 0 -16 0 7 29 6 29 -40 4 -41 3 -5 -13z"/>
</g>
</svg>
