<?xml version="1.0" standalone="no"?>
<!DOCTYPE svg PUBLIC "-//W3C//DTD SVG 20010904//EN"
 "http://www.w3.org/TR/2001/REC-SVG-20010904/DTD/svg10.dtd">
<svg version="1.0" xmlns="http://www.w3.org/2000/svg"
 width="40.000000pt" height="37.000000pt" viewBox="0 0 40.000000 37.000000"
 preserveAspectRatio="xMidYMid meet">
<metadata>
Created by potrace 1.16, written by Peter Selinger 2001-2019
</metadata>
<g transform="translate(0.000000,37.000000) scale(0.100000,-0.100000)"
fill="#000000" stroke="none">
<path d="M127 363 l-7 -6 0 -26 0 -26 -9 -14 -9 -14 -51 7 -51 7 0 -40 0 -40
12 -26 11 -25 29 0 28 0 0 -10 0 -10 -11 0 -10 0 -15 -15 -15 -14 -6 -50 -6
-50 37 -6 36 -7 24 6 23 6 6 30 7 30 10 0 10 0 0 -20 0 -19 38 -10 37 -11 26
0 27 0 6 16 6 16 0 24 0 24 34 0 34 0 12 30 12 30 -6 25 -6 25 -40 6 -40 7 0
43 0 44 -39 0 -40 0 -15 16 -16 15 0 14 0 13 -16 6 -16 6 -17 0 -18 0 -6 -7z"/>
</g>
</svg>
