<?xml version="1.0" standalone="no"?>
<!DOCTYPE svg PUBLIC "-//W3C//DTD SVG 20010904//EN"
 "http://www.w3.org/TR/2001/REC-SVG-20010904/DTD/svg10.dtd">
<svg version="1.0" xmlns="http://www.w3.org/2000/svg"
 width="43.000000pt" height="29.000000pt" viewBox="0 0 43.000000 29.000000"
 preserveAspectRatio="xMidYMid meet">
<metadata>
Created by potrace 1.16, written by Peter Selinger 2001-2019
</metadata>
<g transform="translate(0.000000,29.000000) scale(0.100000,-0.100000)"
fill="#000000" stroke="none">
<path d="M76 275 l-6 -17 0 -24 0 -24 -20 0 -20 0 0 -10 0 -10 -15 0 -15 0 0
-44 0 -44 18 -5 19 -4 6 -30 6 -31 16 -16 16 -16 39 0 38 0 16 6 16 6 0 29 0
29 19 0 19 0 6 -24 6 -24 22 -6 23 -6 33 0 32 0 0 38 0 37 9 14 9 14 29 1 28
1 0 30 0 30 -30 3 -30 4 -7 11 -8 12 0 41 0 41 -61 2 -61 1 7 -29 6 -29 -18
-17 -17 -18 -4 12 -4 11 -12 0 -13 0 5 30 4 30 -28 0 -29 0 -21 6 -21 6 -7
-17z"/>
</g>
</svg>
