<?xml version="1.0" standalone="no"?>
<!DOCTYPE svg PUBLIC "-//W3C//DTD SVG 20010904//EN"
 "http://www.w3.org/TR/2001/REC-SVG-20010904/DTD/svg10.dtd">
<svg version="1.0" xmlns="http://www.w3.org/2000/svg"
 width="32.000000pt" height="36.000000pt" viewBox="0 0 32.000000 36.000000"
 preserveAspectRatio="xMidYMid meet">
<metadata>
Created by potrace 1.16, written by Peter Selinger 2001-2019
</metadata>
<g transform="translate(0.000000,36.000000) scale(0.100000,-0.100000)"
fill="#000000" stroke="none">
<path d="M147 353 l-7 -6 0 -28 0 -28 -21 -6 -21 -7 -44 7 -44 6 0 -28 0 -28
10 -36 10 -37 25 -6 25 -6 0 -13 0 -14 -31 5 -31 5 -9 -14 -10 -14 7 -45 6
-45 11 -7 12 -8 50 0 50 0 13 9 13 8 9 29 8 29 1 -22 1 -22 41 -11 41 -11 29
6 29 7 0 59 0 59 -29 0 -30 0 -6 10 -6 10 30 0 31 0 6 23 5 24 -3 39 -3 39
-35 -2 -35 -3 -21 5 -21 5 5 28 4 29 -24 6 -23 7 -6 0 -6 0 -6 -7z"/>
</g>
</svg>
