<?xml version="1.0" standalone="no"?>
<!DOCTYPE svg PUBLIC "-//W3C//DTD SVG 20010904//EN"
 "http://www.w3.org/TR/2001/REC-SVG-20010904/DTD/svg10.dtd">
<svg version="1.0" xmlns="http://www.w3.org/2000/svg"
 width="38.000000pt" height="29.000000pt" viewBox="0 0 38.000000 29.000000"
 preserveAspectRatio="xMidYMid meet">
<metadata>
Created by potrace 1.16, written by Peter Selinger 2001-2019
</metadata>
<g transform="translate(0.000000,29.000000) scale(0.100000,-0.100000)"
fill="#000000" stroke="none">
<path d="M226 257 l5 -32 -8 -12 -8 -11 -25 -6 -25 -6 -14 9 -14 9 -1 31 -1
31 -32 0 -33 0 0 -34 0 -34 -6 -16 -6 -16 -29 0 -29 0 0 -24 0 -25 19 -6 19
-6 6 -37 7 -37 5 -18 5 -17 29 0 29 0 26 12 25 11 0 29 0 28 20 0 20 0 -5 -23
-6 -23 26 -12 26 -12 29 0 29 0 12 55 12 55 24 6 23 6 0 23 0 23 -19 -5 -18
-5 -17 17 -16 16 0 42 0 42 -44 2 -45 2 5 -32z"/>
</g>
</svg>
