<?xml version="1.0" standalone="no"?>
<!DOCTYPE svg PUBLIC "-//W3C//DTD SVG 20010904//EN"
 "http://www.w3.org/TR/2001/REC-SVG-20010904/DTD/svg10.dtd">
<svg version="1.0" xmlns="http://www.w3.org/2000/svg"
 width="40.000000pt" height="31.000000pt" viewBox="0 0 40.000000 31.000000"
 preserveAspectRatio="xMidYMid meet">
<metadata>
Created by potrace 1.16, written by Peter Selinger 2001-2019
</metadata>
<g transform="translate(0.000000,31.000000) scale(0.100000,-0.100000)"
fill="#000000" stroke="none">
<path d="M224 277 l6 -32 -8 -11 -7 -10 -16 -6 -16 -6 -13 8 -13 8 1 31 1 31
-45 0 -44 0 0 -34 0 -34 -6 -16 -6 -16 -29 0 -29 0 0 -34 0 -35 19 -6 19 -6 6
-37 7 -37 5 -17 5 -18 39 0 39 0 26 12 25 11 1 31 2 31 4 -26 4 -26 25 -12 25
-11 39 0 39 0 12 55 12 55 24 6 23 6 0 35 0 35 -20 -5 -20 -5 -15 15 -15 14 0
43 0 42 -56 2 -56 1 6 -32z"/>
</g>
</svg>
