<?xml version="1.0" standalone="no"?>
<!DOCTYPE svg PUBLIC "-//W3C//DTD SVG 20010904//EN"
 "http://www.w3.org/TR/2001/REC-SVG-20010904/DTD/svg10.dtd">
<svg version="1.0" xmlns="http://www.w3.org/2000/svg"
 width="32.000000pt" height="33.000000pt" viewBox="0 0 32.000000 33.000000"
 preserveAspectRatio="xMidYMid meet">
<metadata>
Created by potrace 1.16, written by Peter Selinger 2001-2019
</metadata>
<g transform="translate(0.000000,33.000000) scale(0.100000,-0.100000)"
fill="#000000" stroke="none">
<path d="M65 286 l7 -45 -36 -6 -36 -7 0 -13 0 -13 35 -6 35 -7 0 -44 0 -43
-12 -5 -13 -4 8 -9 9 -9 44 1 44 1 -6 -22 -5 -22 16 -17 16 -16 10 0 10 0 20
18 20 19 -7 16 -6 17 52 0 52 0 -6 16 -6 16 0 39 0 39 -24 -6 -23 -5 -17 16
-16 16 0 15 0 14 15 0 15 0 0 10 0 10 25 0 25 0 0 39 0 39 -36 -11 -36 -11
-11 -23 -10 -23 -21 -6 -20 -7 -4 12 -4 11 -15 0 -15 0 7 30 7 30 -47 0 -46 0
6 -44z"/>
</g>
</svg>
