<?xml version="1.0" standalone="no"?>
<!DOCTYPE svg PUBLIC "-//W3C//DTD SVG 20010904//EN"
 "http://www.w3.org/TR/2001/REC-SVG-20010904/DTD/svg10.dtd">
<svg version="1.0" xmlns="http://www.w3.org/2000/svg"
 width="34.000000pt" height="35.000000pt" viewBox="0 0 34.000000 35.000000"
 preserveAspectRatio="xMidYMid meet">
<metadata>
Created by potrace 1.16, written by Peter Selinger 2001-2019
</metadata>
<g transform="translate(0.000000,35.000000) scale(0.100000,-0.100000)"
fill="#000000" stroke="none">
<path d="M63 305 l7 -44 -35 -7 -35 -6 0 -23 0 -23 35 -6 35 -7 0 -34 0 -35
-10 0 -10 0 0 -19 0 -19 23 -6 22 -6 23 0 22 0 0 -19 0 -20 16 -15 15 -16 20
0 19 0 20 17 20 17 0 18 0 18 46 0 47 0 -7 31 -6 31 0 35 0 35 -26 -5 -25 -4
-16 16 -17 16 17 3 17 3 0 10 0 9 25 0 25 0 0 51 0 51 -25 -6 -24 -6 -25 -10
-24 -9 -7 -20 -6 -19 -14 -6 -15 -5 0 9 0 10 -13 0 -14 0 5 30 4 30 -57 0 -58
0 6 -45z"/>
</g>
</svg>
