<?xml version="1.0" standalone="no"?>
<!DOCTYPE svg PUBLIC "-//W3C//DTD SVG 20010904//EN"
 "http://www.w3.org/TR/2001/REC-SVG-20010904/DTD/svg10.dtd">
<svg version="1.0" xmlns="http://www.w3.org/2000/svg"
 width="35.000000pt" height="37.000000pt" viewBox="0 0 35.000000 37.000000"
 preserveAspectRatio="xMidYMid meet">
<metadata>
Created by potrace 1.16, written by Peter Selinger 2001-2019
</metadata>
<g transform="translate(0.000000,37.000000) scale(0.100000,-0.100000)"
fill="#000000" stroke="none">
<path d="M63 340 l7 -30 -12 -25 -11 -25 -24 0 -23 0 0 -34 0 -34 27 -7 28 -7
7 -11 8 -12 0 -37 0 -38 33 0 34 0 -5 -30 -4 -30 16 0 16 0 0 -10 0 -10 24 0
25 0 15 16 16 15 0 31 0 30 26 -6 27 -7 29 6 30 7 -7 51 -7 51 -13 13 -14 13
-20 0 -21 0 0 15 0 15 34 0 34 0 6 16 6 16 0 45 0 46 -31 -7 -31 -6 -40 0 -40
0 6 -24 6 -24 -6 -15 -5 -15 -20 5 -19 5 0 29 0 30 -12 3 -13 4 -44 6 -44 7 6
-31z"/>
</g>
</svg>
