<?xml version="1.0" standalone="no"?>
<!DOCTYPE svg PUBLIC "-//W3C//DTD SVG 20010904//EN"
 "http://www.w3.org/TR/2001/REC-SVG-20010904/DTD/svg10.dtd">
<svg version="1.0" xmlns="http://www.w3.org/2000/svg"
 width="44.000000pt" height="29.000000pt" viewBox="0 0 44.000000 29.000000"
 preserveAspectRatio="xMidYMid meet">
<metadata>
Created by potrace 1.16, written by Peter Selinger 2001-2019
</metadata>
<g transform="translate(0.000000,29.000000) scale(0.100000,-0.100000)"
fill="#000000" stroke="none">
<path d="M90 256 l0 -34 -6 -15 -5 -15 -40 5 -39 6 0 -37 0 -37 13 -4 12 -3
37 -7 36 -6 -5 -54 -6 -55 31 0 31 0 26 12 25 11 0 29 0 28 9 0 9 0 5 -29 6
-28 23 -7 23 -6 35 0 35 0 14 9 13 9 -7 41 -7 41 25 0 26 0 15 16 16 15 0 25
0 24 -40 6 -39 6 6 46 6 45 -33 -6 -32 -7 -29 0 -29 0 -6 -25 -6 -25 -19 0
-19 0 0 20 0 20 -26 10 -25 10 -30 0 -29 0 0 -34z"/>
</g>
</svg>
