<?xml version="1.0" standalone="no"?>
<!DOCTYPE svg PUBLIC "-//W3C//DTD SVG 20010904//EN"
 "http://www.w3.org/TR/2001/REC-SVG-20010904/DTD/svg10.dtd">
<svg version="1.0" xmlns="http://www.w3.org/2000/svg"
 width="42.000000pt" height="27.000000pt" viewBox="0 0 42.000000 27.000000"
 preserveAspectRatio="xMidYMid meet">
<metadata>
Created by potrace 1.16, written by Peter Selinger 2001-2019
</metadata>
<g transform="translate(0.000000,27.000000) scale(0.100000,-0.100000)"
fill="#000000" stroke="none">
<path d="M90 233 l0 -38 -9 -13 -8 -13 -37 6 -36 7 0 -26 0 -27 13 -4 12 -3
38 -7 38 -6 -7 -55 -6 -54 20 0 21 0 26 12 27 12 -4 28 -5 28 22 0 23 0 5 -29
6 -30 36 -7 35 -6 24 6 25 6 -6 51 -6 50 25 -6 25 -6 17 16 16 16 0 15 0 14
-41 6 -41 7 7 45 7 45 -17 -7 -17 -6 -34 0 -34 0 -6 -25 -6 -25 -29 0 -29 0 0
20 0 20 -26 10 -25 10 -20 0 -19 0 0 -37z"/>
</g>
</svg>
