<?xml version="1.0" standalone="no"?>
<!DOCTYPE svg PUBLIC "-//W3C//DTD SVG 20010904//EN"
 "http://www.w3.org/TR/2001/REC-SVG-20010904/DTD/svg10.dtd">
<svg version="1.0" xmlns="http://www.w3.org/2000/svg"
 width="33.000000pt" height="35.000000pt" viewBox="0 0 33.000000 35.000000"
 preserveAspectRatio="xMidYMid meet">
<metadata>
Created by potrace 1.16, written by Peter Selinger 2001-2019
</metadata>
<g transform="translate(0.000000,35.000000) scale(0.100000,-0.100000)"
fill="#000000" stroke="none">
<path d="M66 323 l6 -23 -12 -30 -12 -30 -24 0 -24 0 0 -24 0 -24 27 -7 28 -7
7 -11 8 -12 0 -37 0 -38 36 0 36 0 -7 -30 -7 -30 16 0 16 0 0 -10 0 -10 14 0
15 0 16 17 17 16 -5 30 -4 29 39 -5 38 -5 20 5 20 5 -7 42 -6 41 -13 13 -14
13 -17 -3 -18 -3 -3 28 -3 27 34 0 35 0 6 16 6 16 0 35 0 35 -16 -6 -16 -6
-42 0 -43 0 4 -27 4 -28 -9 -13 -9 -13 -26 6 -26 7 -3 31 -3 32 -42 6 -42 5 5
-23z"/>
</g>
</svg>
