<?xml version="1.0" standalone="no"?>
<!DOCTYPE svg PUBLIC "-//W3C//DTD SVG 20010904//EN"
 "http://www.w3.org/TR/2001/REC-SVG-20010904/DTD/svg10.dtd">
<svg version="1.0" xmlns="http://www.w3.org/2000/svg"
 width="37.000000pt" height="31.000000pt" viewBox="0 0 37.000000 31.000000"
 preserveAspectRatio="xMidYMid meet">
<metadata>
Created by potrace 1.16, written by Peter Selinger 2001-2019
</metadata>
<g transform="translate(0.000000,31.000000) scale(0.100000,-0.100000)"
fill="#000000" stroke="none">
<path d="M0 250 l0 -62 18 4 18 5 12 -13 12 -13 0 -10 0 -9 -30 -7 -30 -7 0
-60 0 -60 48 4 47 4 18 8 17 8 0 -15 0 -16 20 -6 20 -6 33 6 32 6 26 10 25 10
13 49 13 50 14 0 14 0 0 10 0 10 15 0 15 0 0 28 0 28 -12 12 -12 12 -28 0 -28
0 -6 28 -6 27 -4 13 -3 12 -51 0 -50 0 0 -21 0 -20 -14 -15 -15 -14 -9 0 -10
0 -12 30 -12 30 -27 0 -26 0 -22 6 -23 6 0 -62z"/>
</g>
</svg>
