<?xml version="1.0" standalone="no"?>
<!DOCTYPE svg PUBLIC "-//W3C//DTD SVG 20010904//EN"
 "http://www.w3.org/TR/2001/REC-SVG-20010904/DTD/svg10.dtd">
<svg version="1.0" xmlns="http://www.w3.org/2000/svg"
 width="36.000000pt" height="35.000000pt" viewBox="0 0 36.000000 35.000000"
 preserveAspectRatio="xMidYMid meet">
<metadata>
Created by potrace 1.16, written by Peter Selinger 2001-2019
</metadata>
<g transform="translate(0.000000,35.000000) scale(0.100000,-0.100000)"
fill="#000000" stroke="none">
<path d="M16 313 l-6 -38 0 -24 0 -23 23 6 23 5 22 -6 22 -5 0 -10 0 -9 -14
-15 -15 -14 -34 0 -34 0 0 -54 0 -54 21 -6 21 -6 26 0 27 0 12 -30 12 -30 30
0 29 0 15 14 14 15 0 20 0 21 35 0 36 0 -7 38 -6 37 0 5 0 5 1 11 1 11 24 -4
24 -5 21 11 21 12 0 34 0 35 -40 0 -40 0 0 41 0 42 -31 -7 -31 -6 -14 0 -14 0
0 -11 0 -10 -14 -15 -15 -14 -11 0 -10 0 -6 29 -6 29 -37 6 -36 6 -16 0 -16 0
-7 -37z"/>
</g>
</svg>
