<?xml version="1.0" standalone="no"?>
<!DOCTYPE svg PUBLIC "-//W3C//DTD SVG 20010904//EN"
 "http://www.w3.org/TR/2001/REC-SVG-20010904/DTD/svg10.dtd">
<svg version="1.0" xmlns="http://www.w3.org/2000/svg"
 width="35.000000pt" height="29.000000pt" viewBox="0 0 35.000000 29.000000"
 preserveAspectRatio="xMidYMid meet">
<metadata>
Created by potrace 1.16, written by Peter Selinger 2001-2019
</metadata>
<g transform="translate(0.000000,29.000000) scale(0.100000,-0.100000)"
fill="#000000" stroke="none">
<path d="M0 238 l0 -47 15 5 14 6 16 -15 15 -16 0 -19 0 -20 -30 -7 -30 -7 0
-49 0 -49 30 0 29 0 26 12 26 12 -6 23 -5 23 15 0 15 0 1 -12 1 -13 -2 -26 -1
-26 16 -7 17 -6 26 6 27 6 26 9 25 10 13 49 13 50 14 0 14 0 0 10 0 10 15 0
15 0 0 18 0 18 -12 12 -12 12 -28 0 -28 0 -6 28 -6 27 -4 13 -3 12 -41 0 -40
0 0 -21 0 -20 -14 -15 -15 -14 -19 0 -20 0 -12 29 -12 29 -39 4 -39 4 0 -48z"/>
</g>
</svg>
