<?xml version="1.0" standalone="no"?>
<!DOCTYPE svg PUBLIC "-//W3C//DTD SVG 20010904//EN"
 "http://www.w3.org/TR/2001/REC-SVG-20010904/DTD/svg10.dtd">
<svg version="1.0" xmlns="http://www.w3.org/2000/svg"
 width="29.000000pt" height="37.000000pt" viewBox="0 0 29.000000 37.000000"
 preserveAspectRatio="xMidYMid meet">
<metadata>
Created by potrace 1.16, written by Peter Selinger 2001-2019
</metadata>
<g transform="translate(0.000000,37.000000) scale(0.100000,-0.100000)"
fill="#000000" stroke="none">
<path d="M17 363 l-7 -6 0 -52 0 -52 30 -6 30 -6 0 -15 0 -14 -25 -6 -25 -6 0
-17 0 -17 -12 -33 -12 -32 7 -7 7 -7 37 -6 38 -6 3 -32 3 -32 35 -7 35 -6 19
22 20 23 0 22 0 22 40 7 40 6 0 24 0 23 -6 31 -6 30 -27 13 -26 13 24 4 24 4
14 13 13 14 0 50 0 51 -133 0 -134 0 -6 -7z"/>
</g>
</svg>
