<?xml version="1.0" standalone="no"?>
<!DOCTYPE svg PUBLIC "-//W3C//DTD SVG 20010904//EN"
 "http://www.w3.org/TR/2001/REC-SVG-20010904/DTD/svg10.dtd">
<svg version="1.0" xmlns="http://www.w3.org/2000/svg"
 width="36.000000pt" height="32.000000pt" viewBox="0 0 36.000000 32.000000"
 preserveAspectRatio="xMidYMid meet">
<metadata>
Created by potrace 1.16, written by Peter Selinger 2001-2019
</metadata>
<g transform="translate(0.000000,32.000000) scale(0.100000,-0.100000)"
fill="#000000" stroke="none">
<path d="M201 313 l-33 -4 5 -25 4 -24 -16 -18 -16 -18 -17 4 -17 3 -3 32 -3
32 -50 7 -49 7 -3 -2 -2 -3 6 -57 6 -57 21 0 21 0 22 -6 22 -6 -6 -14 -5 -14
-27 0 -28 0 -12 -55 -12 -55 6 -10 6 -10 39 0 38 0 16 6 16 6 1 32 1 31 15
-48 14 -47 27 0 27 0 38 11 39 10 -5 21 -6 21 6 28 5 27 26 7 27 7 7 11 8 12
0 23 0 22 -26 0 -27 0 -18 22 -19 21 0 39 0 38 -17 -2 -18 -1 -34 -4z"/>
</g>
</svg>
