<?xml version="1.0" standalone="no"?>
<!DOCTYPE svg PUBLIC "-//W3C//DTD SVG 20010904//EN"
 "http://www.w3.org/TR/2001/REC-SVG-20010904/DTD/svg10.dtd">
<svg version="1.0" xmlns="http://www.w3.org/2000/svg"
 width="34.000000pt" height="33.000000pt" viewBox="0 0 34.000000 33.000000"
 preserveAspectRatio="xMidYMid meet">
<metadata>
Created by potrace 1.16, written by Peter Selinger 2001-2019
</metadata>
<g transform="translate(0.000000,33.000000) scale(0.100000,-0.100000)"
fill="#000000" stroke="none">
<path d="M20 316 l0 -11 -7 -39 -6 -39 12 7 12 8 35 -6 34 -7 0 -20 0 -20 -16
-17 -16 -16 -32 1 -31 1 0 -44 0 -43 20 -5 20 -6 26 0 27 0 12 -30 12 -30 20
0 19 0 15 14 14 15 0 20 0 21 34 0 34 0 -9 38 -8 37 5 18 6 19 24 -6 24 -6 20
10 20 11 0 24 0 25 -40 0 -40 0 0 41 0 41 -16 -6 -16 -6 -19 0 -19 0 0 -11 0
-10 -14 -15 -15 -14 -21 0 -20 0 -6 30 -6 30 -22 1 -21 1 -22 2 -23 3 0 -11z"/>
</g>
</svg>
