<?xml version="1.0" standalone="no"?>
<!DOCTYPE svg PUBLIC "-//W3C//DTD SVG 20010904//EN"
 "http://www.w3.org/TR/2001/REC-SVG-20010904/DTD/svg10.dtd">
<svg version="1.0" xmlns="http://www.w3.org/2000/svg"
 width="27.000000pt" height="35.000000pt" viewBox="0 0 27.000000 35.000000"
 preserveAspectRatio="xMidYMid meet">
<metadata>
Created by potrace 1.16, written by Peter Selinger 2001-2019
</metadata>
<g transform="translate(0.000000,35.000000) scale(0.100000,-0.100000)"
fill="#000000" stroke="none">
<path d="M17 343 l-7 -6 0 -42 0 -42 30 -6 30 -6 0 -25 0 -24 -25 -6 -25 -6 0
-21 0 -20 -11 -21 -11 -20 6 -5 6 -6 37 -6 38 -6 3 -32 3 -31 26 -6 25 -7 19
23 20 22 -5 22 -6 21 41 6 41 5 5 5 5 6 -7 39 -6 39 -25 11 -24 12 0 15 0 15
21 0 20 0 15 14 14 15 0 40 0 41 -123 0 -124 0 -6 -7z"/>
</g>
</svg>
