<?xml version="1.0" standalone="no"?>
<!DOCTYPE svg PUBLIC "-//W3C//DTD SVG 20010904//EN"
 "http://www.w3.org/TR/2001/REC-SVG-20010904/DTD/svg10.dtd">
<svg version="1.0" xmlns="http://www.w3.org/2000/svg"
 width="34.000000pt" height="30.000000pt" viewBox="0 0 34.000000 30.000000"
 preserveAspectRatio="xMidYMid meet">
<metadata>
Created by potrace 1.16, written by Peter Selinger 2001-2019
</metadata>
<g transform="translate(0.000000,30.000000) scale(0.100000,-0.100000)"
fill="#000000" stroke="none">
<path d="M202 293 l-32 -4 6 -22 5 -23 -20 -22 -19 -23 -25 7 -26 6 -3 31 -3
32 -43 6 -43 5 6 -14 5 -14 0 -33 0 -32 41 -6 41 -5 5 -5 5 -5 -7 -21 -6 -21
-28 0 -28 0 -10 -47 -11 -48 4 -7 5 -8 29 0 28 0 16 6 16 6 0 29 0 29 14 0 14
0 11 -45 11 -45 18 0 17 0 38 11 38 10 -7 10 -6 10 7 38 6 39 27 7 27 7 7 11
8 12 0 13 0 12 -26 0 -27 0 -18 22 -19 21 0 39 0 38 -7 -2 -8 -1 -33 -4z"/>
</g>
</svg>
