<?xml version="1.0" standalone="no"?>
<!DOCTYPE svg PUBLIC "-//W3C//DTD SVG 20010904//EN"
 "http://www.w3.org/TR/2001/REC-SVG-20010904/DTD/svg10.dtd">
<svg version="1.0" xmlns="http://www.w3.org/2000/svg"
 width="34.000000pt" height="27.000000pt" viewBox="0 0 34.000000 27.000000"
 preserveAspectRatio="xMidYMid meet">
<metadata>
Created by potrace 1.16, written by Peter Selinger 2001-2019
</metadata>
<g transform="translate(0.000000,27.000000) scale(0.100000,-0.100000)"
fill="#000000" stroke="none">
<path d="M80 236 l0 -34 -6 -16 -6 -16 -34 0 -34 0 0 -25 0 -25 23 0 22 0 24
-7 23 -6 -6 -53 -6 -54 19 0 20 0 26 12 25 11 0 29 0 29 16 6 17 6 13 -17 13
-18 -6 -14 -5 -13 15 -16 16 -15 28 1 28 0 15 7 15 7 3 42 3 42 -34 -6 -34 -5
-16 17 -17 16 0 14 0 14 16 15 15 16 24 0 24 0 5 8 5 9 -6 36 -6 37 -33 0 -34
0 0 -29 0 -30 -16 -15 -15 -16 -20 0 -20 0 -14 14 -14 14 2 28 2 29 -37 3 -38
3 0 -35z"/>
</g>
</svg>
