<?xml version="1.0" standalone="no"?>
<!DOCTYPE svg PUBLIC "-//W3C//DTD SVG 20010904//EN"
 "http://www.w3.org/TR/2001/REC-SVG-20010904/DTD/svg10.dtd">
<svg version="1.0" xmlns="http://www.w3.org/2000/svg"
 width="36.000000pt" height="29.000000pt" viewBox="0 0 36.000000 29.000000"
 preserveAspectRatio="xMidYMid meet">
<metadata>
Created by potrace 1.16, written by Peter Selinger 2001-2019
</metadata>
<g transform="translate(0.000000,29.000000) scale(0.100000,-0.100000)"
fill="#000000" stroke="none">
<path d="M80 256 l0 -34 -6 -16 -6 -16 -34 0 -34 0 0 -35 0 -35 23 0 22 0 23
-6 23 -7 -7 -53 -6 -54 30 0 31 0 25 11 25 12 3 31 3 31 10 -2 10 -2 3 -27 4
-27 13 -14 14 -13 33 0 33 0 21 6 21 6 2 55 1 55 -34 -6 -34 -7 -16 16 -16 16
0 4 0 4 16 15 15 16 24 0 24 0 6 10 6 10 -7 45 -6 45 -44 0 -44 0 0 -29 0 -30
-16 -15 -15 -16 -10 0 -10 0 -12 13 -12 12 0 30 0 30 -47 3 -48 3 0 -35z"/>
</g>
</svg>
