<?xml version="1.0" standalone="no"?>
<!DOCTYPE svg PUBLIC "-//W3C//DTD SVG 20010904//EN"
 "http://www.w3.org/TR/2001/REC-SVG-20010904/DTD/svg10.dtd">
<svg version="1.0" xmlns="http://www.w3.org/2000/svg"
 width="43.000000pt" height="35.000000pt" viewBox="0 0 43.000000 35.000000"
 preserveAspectRatio="xMidYMid meet">
<metadata>
Created by potrace 1.16, written by Peter Selinger 2001-2019
</metadata>
<g transform="translate(0.000000,35.000000) scale(0.100000,-0.100000)"
fill="#000000" stroke="none">
<path d="M162 332 l5 -18 -13 -12 -13 -12 -30 6 -31 7 0 -41 0 -40 -38 -9 -37
-9 -3 -41 -3 -42 24 -6 24 -6 13 -50 14 -49 52 0 52 0 6 16 6 16 0 19 0 19 20
0 20 0 0 -24 0 -24 6 -16 6 -16 39 0 38 0 25 11 25 12 3 46 3 46 22 3 23 3 6
24 6 24 -7 20 -6 20 -29 6 -30 7 0 30 0 31 -54 -6 -54 -5 -6 15 -6 15 0 24 0
24 -41 0 -41 0 4 -18z"/>
</g>
</svg>
