<?xml version="1.0" standalone="no"?>
<!DOCTYPE svg PUBLIC "-//W3C//DTD SVG 20010904//EN"
 "http://www.w3.org/TR/2001/REC-SVG-20010904/DTD/svg10.dtd">
<svg version="1.0" xmlns="http://www.w3.org/2000/svg"
 width="41.000000pt" height="33.000000pt" viewBox="0 0 41.000000 33.000000"
 preserveAspectRatio="xMidYMid meet">
<metadata>
Created by potrace 1.16, written by Peter Selinger 2001-2019
</metadata>
<g transform="translate(0.000000,33.000000) scale(0.100000,-0.100000)"
fill="#000000" stroke="none">
<path d="M166 315 l6 -14 -16 -17 -17 -16 -29 6 -30 6 0 -40 0 -40 -15 0 -15
0 0 -10 0 -10 -23 3 -22 2 -3 -32 -3 -32 24 -6 24 -6 13 -50 14 -49 42 0 42 0
6 16 6 16 0 19 0 19 30 0 30 0 0 -24 0 -24 6 -16 6 -16 29 0 28 0 25 11 25 12
3 46 3 46 22 3 21 3 6 16 6 16 -5 18 -6 18 -29 6 -30 7 0 30 0 31 -52 -7 -51
-7 -8 13 -9 13 0 28 0 27 -30 0 -29 0 5 -15z"/>
</g>
</svg>
