<?xml version="1.0" standalone="no"?>
<!DOCTYPE svg PUBLIC "-//W3C//DTD SVG 20010904//EN"
 "http://www.w3.org/TR/2001/REC-SVG-20010904/DTD/svg10.dtd">
<svg version="1.0" xmlns="http://www.w3.org/2000/svg"
 width="38.000000pt" height="45.000000pt" viewBox="0 0 38.000000 45.000000"
 preserveAspectRatio="xMidYMid meet">
<metadata>
Created by potrace 1.16, written by Peter Selinger 2001-2019
</metadata>
<g transform="translate(0.000000,45.000000) scale(0.100000,-0.100000)"
fill="#000000" stroke="none">
<path d="M110 411 l0 -40 -20 -6 -19 -6 -36 7 -35 6 0 -45 0 -46 16 -15 15
-16 20 0 19 0 0 -9 0 -9 -24 -6 -23 -6 -13 -61 -13 -61 14 -9 14 -9 32 0 32 0
-5 -15 -6 -15 6 -25 6 -25 41 0 40 0 15 14 14 15 0 30 0 31 34 0 34 0 16 6 16
6 0 34 0 34 18 0 19 0 21 19 22 18 0 16 0 15 -6 16 -6 15 -34 7 -34 6 0 50 0
50 -30 -7 -30 -6 -20 6 -20 6 0 29 0 28 -16 6 -16 6 -29 0 -29 0 0 -39z"/>
</g>
</svg>
