<?xml version="1.0" standalone="no"?>
<!DOCTYPE svg PUBLIC "-//W3C//DTD SVG 20010904//EN"
 "http://www.w3.org/TR/2001/REC-SVG-20010904/DTD/svg10.dtd">
<svg version="1.0" xmlns="http://www.w3.org/2000/svg"
 width="33.000000pt" height="33.000000pt" viewBox="0 0 33.000000 33.000000"
 preserveAspectRatio="xMidYMid meet">
<metadata>
Created by potrace 1.16, written by Peter Selinger 2001-2019
</metadata>
<g transform="translate(0.000000,33.000000) scale(0.100000,-0.100000)"
fill="#000000" stroke="none">
<path d="M160 311 l0 -19 -6 -16 -6 -16 -39 0 -39 0 0 -34 0 -34 -6 -16 -6
-16 -30 0 -29 0 3 -17 3 -18 34 -3 33 -3 -4 -60 -4 -59 40 0 41 0 13 9 13 8
-7 27 -7 28 24 -4 23 -3 8 -32 9 -33 35 0 35 0 15 15 15 14 -11 41 -11 40 -14
0 -15 0 0 25 0 24 15 -5 14 -6 16 15 15 16 0 40 0 41 -46 -7 -46 -6 -9 14 -9
14 0 28 0 27 -30 0 -30 0 0 -19z"/>
</g>
</svg>
