<?xml version="1.0" standalone="no"?>
<!DOCTYPE svg PUBLIC "-//W3C//DTD SVG 20010904//EN"
 "http://www.w3.org/TR/2001/REC-SVG-20010904/DTD/svg10.dtd">
<svg version="1.0" xmlns="http://www.w3.org/2000/svg"
 width="35.000000pt" height="35.000000pt" viewBox="0 0 35.000000 35.000000"
 preserveAspectRatio="xMidYMid meet">
<metadata>
Created by potrace 1.16, written by Peter Selinger 2001-2019
</metadata>
<g transform="translate(0.000000,35.000000) scale(0.100000,-0.100000)"
fill="#000000" stroke="none">
<path d="M160 331 l0 -19 -6 -16 -6 -16 -39 0 -39 0 0 -34 0 -34 -6 -16 -6
-16 -30 0 -29 0 3 -27 3 -28 34 -3 34 -3 -6 -60 -7 -59 53 0 52 0 14 9 14 9
-5 26 -5 27 10 -4 11 -3 8 -32 9 -32 45 0 45 0 15 14 14 15 0 13 0 13 -11 37
-10 38 -14 0 -15 0 0 10 0 10 16 0 15 0 15 14 14 15 0 51 0 52 -46 -7 -47 -7
-8 14 -9 13 0 28 0 27 -40 0 -40 0 0 -19z"/>
</g>
</svg>
