<?xml version="1.0" standalone="no"?>
<!DOCTYPE svg PUBLIC "-//W3C//DTD SVG 20010904//EN"
 "http://www.w3.org/TR/2001/REC-SVG-20010904/DTD/svg10.dtd">
<svg version="1.0" xmlns="http://www.w3.org/2000/svg"
 width="36.000000pt" height="43.000000pt" viewBox="0 0 36.000000 43.000000"
 preserveAspectRatio="xMidYMid meet">
<metadata>
Created by potrace 1.16, written by Peter Selinger 2001-2019
</metadata>
<g transform="translate(0.000000,43.000000) scale(0.100000,-0.100000)"
fill="#000000" stroke="none">
<path d="M110 390 l0 -40 -25 -6 -26 -6 -29 6 -30 6 0 -35 0 -34 16 -16 17
-17 18 5 19 5 0 -23 0 -23 -23 -6 -23 -5 -12 -53 -12 -52 12 -8 13 -8 15 1 15
1 19 -1 18 -1 -6 -24 -6 -24 6 -16 6 -16 30 0 29 0 15 14 14 15 0 30 0 31 34
0 34 0 16 6 16 6 0 40 0 39 18 -5 19 -6 22 19 23 20 -7 20 -6 20 -35 7 -34 6
0 48 0 47 -25 -5 -25 -4 -25 6 -25 6 0 29 0 29 -16 6 -16 6 -19 0 -19 0 0 -40z"/>
</g>
</svg>
