<?xml version="1.0" standalone="no"?>
<!DOCTYPE svg PUBLIC "-//W3C//DTD SVG 20010904//EN"
 "http://www.w3.org/TR/2001/REC-SVG-20010904/DTD/svg10.dtd">
<svg version="1.0" xmlns="http://www.w3.org/2000/svg"
 width="46.000000pt" height="43.000000pt" viewBox="0 0 46.000000 43.000000"
 preserveAspectRatio="xMidYMid meet">
<metadata>
Created by potrace 1.16, written by Peter Selinger 2001-2019
</metadata>
<g transform="translate(0.000000,43.000000) scale(0.100000,-0.100000)"
fill="#000000" stroke="none">
<path d="M187 423 l-7 -6 0 -27 0 -27 -25 -11 -25 -12 -30 6 -30 7 0 -42 0
-41 -21 0 -20 0 -15 -14 -14 -15 0 -24 0 -25 6 -16 6 -16 23 0 23 0 6 -44 7
-44 22 -6 22 -6 31 0 32 0 6 -30 6 -30 30 0 31 0 15 14 14 15 0 9 0 9 36 6 36
6 20 23 19 23 6 27 6 28 13 0 13 0 15 16 16 15 0 24 0 24 -16 15 -15 16 -30 0
-29 0 0 41 0 41 -45 -6 -45 -7 -13 13 -14 13 4 12 4 12 -11 20 -11 21 -23 0
-23 0 -6 -7z"/>
</g>
</svg>
