<?xml version="1.0" standalone="no"?>
<!DOCTYPE svg PUBLIC "-//W3C//DTD SVG 20010904//EN"
 "http://www.w3.org/TR/2001/REC-SVG-20010904/DTD/svg10.dtd">
<svg version="1.0" xmlns="http://www.w3.org/2000/svg"
 width="44.000000pt" height="41.000000pt" viewBox="0 0 44.000000 41.000000"
 preserveAspectRatio="xMidYMid meet">
<metadata>
Created by potrace 1.16, written by Peter Selinger 2001-2019
</metadata>
<g transform="translate(0.000000,41.000000) scale(0.100000,-0.100000)"
fill="#000000" stroke="none">
<path d="M187 403 l-7 -6 0 -27 0 -28 -30 -12 -30 -12 -24 6 -25 6 -3 -42 -3
-43 -19 2 -19 1 -14 -13 -13 -14 0 -14 0 -15 6 -16 6 -16 23 0 23 0 6 -45 7
-45 17 -2 17 -1 10 -2 10 -3 26 -1 27 -1 6 -30 6 -30 20 0 21 0 15 14 14 15 0
9 0 9 36 6 36 6 20 23 19 23 6 27 6 28 13 0 13 0 15 16 16 15 0 14 0 14 -17
16 -16 17 -29 -4 -28 -5 0 44 0 43 -44 -6 -45 -7 -16 17 -17 16 5 13 4 12 -9
18 -9 17 -13 0 -13 0 -6 -7z"/>
</g>
</svg>
