<?xml version="1.0" standalone="no"?>
<!DOCTYPE svg PUBLIC "-//W3C//DTD SVG 20010904//EN"
 "http://www.w3.org/TR/2001/REC-SVG-20010904/DTD/svg10.dtd">
<svg version="1.0" xmlns="http://www.w3.org/2000/svg"
 width="34.000000pt" height="40.000000pt" viewBox="0 0 34.000000 40.000000"
 preserveAspectRatio="xMidYMid meet">
<metadata>
Created by potrace 1.16, written by Peter Selinger 2001-2019
</metadata>
<g transform="translate(0.000000,40.000000) scale(0.100000,-0.100000)"
fill="#000000" stroke="none">
<path d="M110 370 l0 -30 -25 -6 -26 -6 -27 5 -27 6 3 -45 4 -44 23 6 23 6 7
-22 7 -21 -7 -26 -6 -25 -24 6 -23 6 -4 -55 -3 -55 47 0 46 0 -4 -17 -4 -18 7
-12 8 -11 28 -7 27 -7 0 16 0 16 23 10 22 9 28 5 27 6 0 15 0 15 9 0 8 0 7 40
6 40 19 0 19 0 6 16 6 16 0 7 0 8 -20 23 -19 22 -16 -6 -15 -5 0 35 0 36 -55
-7 -54 -6 -12 45 -11 46 -14 0 -14 0 0 -30z"/>
</g>
</svg>
