<?xml version="1.0" standalone="no"?>
<!DOCTYPE svg PUBLIC "-//W3C//DTD SVG 20010904//EN"
 "http://www.w3.org/TR/2001/REC-SVG-20010904/DTD/svg10.dtd">
<svg version="1.0" xmlns="http://www.w3.org/2000/svg"
 width="36.000000pt" height="42.000000pt" viewBox="0 0 36.000000 42.000000"
 preserveAspectRatio="xMidYMid meet">
<metadata>
Created by potrace 1.16, written by Peter Selinger 2001-2019
</metadata>
<g transform="translate(0.000000,42.000000) scale(0.100000,-0.100000)"
fill="#000000" stroke="none">
<path d="M110 391 l0 -30 -20 -6 -19 -6 -37 7 -37 7 6 -24 7 -24 0 -34 0 -33
25 4 25 5 5 -17 5 -17 -5 -15 -6 -15 -25 5 -24 4 0 -43 0 -44 -6 -22 -6 -23
45 0 45 0 5 -29 6 -28 23 -7 23 -6 18 0 17 0 0 15 0 15 23 10 22 9 28 5 27 6
0 15 0 15 9 0 8 0 7 40 6 40 19 0 19 0 6 16 6 16 0 17 0 18 -19 21 -18 22 -17
0 -16 0 0 31 0 32 -55 -6 -55 -6 -11 45 -11 44 -24 0 -24 0 0 -29z"/>
</g>
</svg>
