<?xml version="1.0" standalone="no"?>
<!DOCTYPE svg PUBLIC "-//W3C//DTD SVG 20010904//EN"
 "http://www.w3.org/TR/2001/REC-SVG-20010904/DTD/svg10.dtd">
<svg version="1.0" xmlns="http://www.w3.org/2000/svg"
 width="27.000000pt" height="40.000000pt" viewBox="0 0 27.000000 40.000000"
 preserveAspectRatio="xMidYMid meet">
<metadata>
Created by potrace 1.16, written by Peter Selinger 2001-2019
</metadata>
<g transform="translate(0.000000,40.000000) scale(0.100000,-0.100000)"
fill="#000000" stroke="none">
<path d="M115 377 l6 -23 -26 -12 -26 -12 -29 0 -30 0 0 -41 0 -41 16 6 16 6
23 -6 24 -6 6 -18 6 -18 -12 -26 -12 -26 -33 0 -32 0 -5 -37 -4 -38 4 -8 4 -7
35 0 34 0 0 -19 0 -19 6 -16 6 -16 32 0 31 0 14 9 13 9 -7 21 -6 21 31 0 31 0
15 15 15 14 -11 40 -10 39 -20 5 -20 5 0 26 0 26 21 0 20 0 15 14 14 15 0 41
0 41 -17 -9 -18 -9 -35 -7 -35 -6 -13 9 -14 8 2 24 2 24 -1 13 -1 12 -15 0
-15 0 5 -23z"/>
</g>
</svg>
