<?xml version="1.0" standalone="no"?>
<!DOCTYPE svg PUBLIC "-//W3C//DTD SVG 20010904//EN"
 "http://www.w3.org/TR/2001/REC-SVG-20010904/DTD/svg10.dtd">
<svg version="1.0" xmlns="http://www.w3.org/2000/svg"
 width="29.000000pt" height="42.000000pt" viewBox="0 0 29.000000 42.000000"
 preserveAspectRatio="xMidYMid meet">
<metadata>
Created by potrace 1.16, written by Peter Selinger 2001-2019
</metadata>
<g transform="translate(0.000000,42.000000) scale(0.100000,-0.100000)"
fill="#000000" stroke="none">
<path d="M112 396 l5 -24 -24 -11 -24 -11 -29 0 -30 0 0 -50 0 -49 36 1 36 1
8 -13 8 -13 -11 -24 -10 -23 -32 0 -32 0 -7 -46 -6 -46 6 -9 5 -9 35 0 34 0 0
-19 0 -19 6 -16 6 -16 38 0 38 0 16 6 16 6 0 24 0 24 26 0 25 0 15 14 14 15 0
13 0 13 -10 36 -10 37 -20 5 -20 5 0 16 0 16 21 0 20 0 15 14 14 15 0 51 0 52
-22 -7 -23 -6 -31 -8 -32 -8 -12 7 -12 8 6 19 6 20 -6 17 -6 16 -25 0 -25 0 4
-24z"/>
</g>
</svg>
