<?xml version="1.0" standalone="no"?>
<!DOCTYPE svg PUBLIC "-//W3C//DTD SVG 20010904//EN"
 "http://www.w3.org/TR/2001/REC-SVG-20010904/DTD/svg10.dtd">
<svg version="1.0" xmlns="http://www.w3.org/2000/svg"
 width="35.000000pt" height="39.000000pt" viewBox="0 0 35.000000 39.000000"
 preserveAspectRatio="xMidYMid meet">
<metadata>
Created by potrace 1.16, written by Peter Selinger 2001-2019
</metadata>
<g transform="translate(0.000000,39.000000) scale(0.100000,-0.100000)"
fill="#000000" stroke="none">
<path d="M184 364 l7 -27 -13 -8 -13 -9 -37 0 -38 0 0 -32 0 -33 -9 -14 -10
-15 -36 0 -36 0 3 -25 3 -26 32 3 33 2 5 -22 5 -23 2 -35 3 -35 37 -3 37 -3 7
-22 7 -22 11 -7 11 -8 11 0 11 0 23 20 23 20 23 0 23 0 15 16 16 15 0 29 0 29
-12 26 -12 26 -18 -4 -18 -5 0 18 0 18 19 -5 18 -5 17 17 16 16 0 43 0 44 -15
12 -15 12 0 -11 0 -11 -40 0 -39 0 -9 33 -8 32 -23 3 -24 4 7 -28z"/>
</g>
</svg>
