<?xml version="1.0" standalone="no"?>
<!DOCTYPE svg PUBLIC "-//W3C//DTD SVG 20010904//EN"
 "http://www.w3.org/TR/2001/REC-SVG-20010904/DTD/svg10.dtd">
<svg version="1.0" xmlns="http://www.w3.org/2000/svg"
 width="37.000000pt" height="41.000000pt" viewBox="0 0 37.000000 41.000000"
 preserveAspectRatio="xMidYMid meet">
<metadata>
Created by potrace 1.16, written by Peter Selinger 2001-2019
</metadata>
<g transform="translate(0.000000,41.000000) scale(0.100000,-0.100000)"
fill="#000000" stroke="none">
<path d="M182 381 l4 -30 -14 -6 -14 -5 -34 0 -34 0 0 -32 0 -33 -9 -14 -9
-14 -37 1 -36 1 3 -37 3 -37 33 0 33 0 4 -20 5 -20 2 -35 3 -35 37 -3 37 -3 7
-22 7 -22 11 -7 11 -8 21 0 21 0 23 20 23 20 23 0 23 0 15 16 16 15 0 39 0 39
-11 25 -12 25 17 17 17 16 -3 56 -3 55 -19 11 -19 11 -4 -12 -5 -13 -29 0 -28
0 -9 33 -8 32 -33 3 -33 3 4 -30z"/>
</g>
</svg>
