<?xml version="1.0" standalone="no"?>
<!DOCTYPE svg PUBLIC "-//W3C//DTD SVG 20010904//EN"
 "http://www.w3.org/TR/2001/REC-SVG-20010904/DTD/svg10.dtd">
<svg version="1.0" xmlns="http://www.w3.org/2000/svg"
 width="29.000000pt" height="33.000000pt" viewBox="0 0 29.000000 33.000000"
 preserveAspectRatio="xMidYMid meet">
<metadata>
Created by potrace 1.16, written by Peter Selinger 2001-2019
</metadata>
<g transform="translate(0.000000,33.000000) scale(0.100000,-0.100000)"
fill="#000000" stroke="none">
<path d="M140 314 l0 -15 -16 -16 -15 -16 -45 -1 -44 -1 0 -38 0 -38 14 -15
15 -14 20 0 21 0 0 -15 0 -15 -17 -1 -18 -1 -13 1 -12 2 -16 -15 -15 -15 12
-43 11 -43 12 -7 11 -8 27 0 26 0 16 6 16 6 0 39 0 39 19 0 19 0 16 -6 16 -6
0 -28 0 -28 16 -6 16 -6 26 0 27 0 -3 55 -4 55 -21 -5 -22 -5 -13 8 -13 9 6
26 7 26 34 7 34 6 0 22 0 21 -9 13 -8 13 -26 -12 -26 -12 -15 16 -16 16 0 28
0 29 -25 2 -25 2 0 -16z"/>
</g>
</svg>
