<?xml version="1.0" standalone="no"?>
<!DOCTYPE svg PUBLIC "-//W3C//DTD SVG 20010904//EN"
 "http://www.w3.org/TR/2001/REC-SVG-20010904/DTD/svg10.dtd">
<svg version="1.0" xmlns="http://www.w3.org/2000/svg"
 width="31.000000pt" height="35.000000pt" viewBox="0 0 31.000000 35.000000"
 preserveAspectRatio="xMidYMid meet">
<metadata>
Created by potrace 1.16, written by Peter Selinger 2001-2019
</metadata>
<g transform="translate(0.000000,35.000000) scale(0.100000,-0.100000)"
fill="#000000" stroke="none">
<path d="M140 334 l0 -15 -16 -16 -16 -16 -44 0 -44 0 0 -49 0 -49 13 -14 14
-13 24 -5 24 -4 -33 -2 -33 -1 -16 -16 -16 -15 12 -54 12 -53 15 -6 16 -6 33
0 33 0 16 6 16 6 0 39 0 39 9 0 9 0 16 -6 16 -6 0 -28 0 -28 16 -6 16 -6 40 0
40 0 -6 22 -6 23 0 43 0 43 -22 -1 -23 -2 -12 1 -11 1 5 20 5 20 34 6 34 6 0
32 0 31 -10 15 -9 15 -28 -11 -29 -11 -12 13 -12 13 0 31 0 30 -35 0 -35 0 0
-16z"/>
</g>
</svg>
