<?xml version="1.0" standalone="no"?>
<!DOCTYPE svg PUBLIC "-//W3C//DTD SVG 20010904//EN"
 "http://www.w3.org/TR/2001/REC-SVG-20010904/DTD/svg10.dtd">
<svg version="1.0" xmlns="http://www.w3.org/2000/svg"
 width="38.000000pt" height="44.000000pt" viewBox="0 0 38.000000 44.000000"
 preserveAspectRatio="xMidYMid meet">
<metadata>
Created by potrace 1.16, written by Peter Selinger 2001-2019
</metadata>
<g transform="translate(0.000000,44.000000) scale(0.100000,-0.100000)"
fill="#000000" stroke="none">
<path d="M122 411 l5 -31 -20 -6 -19 -6 -44 7 -44 6 0 -50 0 -49 6 -16 6 -16
28 0 29 0 6 -10 6 -10 -25 0 -25 0 -15 -16 -16 -15 0 -42 0 -42 8 -12 7 -12
40 -3 40 -3 -3 -27 -3 -28 15 -15 15 -15 30 0 30 0 15 16 16 15 0 30 0 29 40
0 40 0 6 24 6 25 -7 20 -6 21 20 0 20 0 26 12 25 11 0 29 0 29 -14 15 -15 14
-25 0 -26 0 0 41 0 41 -47 -6 -48 -6 -10 7 -10 8 0 30 0 30 -34 3 -33 3 4 -30z"/>
</g>
</svg>
