<?xml version="1.0" standalone="no"?>
<!DOCTYPE svg PUBLIC "-//W3C//DTD SVG 20010904//EN"
 "http://www.w3.org/TR/2001/REC-SVG-20010904/DTD/svg10.dtd">
<svg version="1.0" xmlns="http://www.w3.org/2000/svg"
 width="37.000000pt" height="38.000000pt" viewBox="0 0 37.000000 38.000000"
 preserveAspectRatio="xMidYMid meet">
<metadata>
Created by potrace 1.16, written by Peter Selinger 2001-2019
</metadata>
<g transform="translate(0.000000,38.000000) scale(0.100000,-0.100000)"
fill="#000000" stroke="none">
<path d="M114 365 l-6 -14 6 -10 6 -9 -15 -16 -16 -15 -44 6 -45 6 0 -41 0
-41 12 -26 11 -25 29 0 28 0 0 -14 0 -14 -27 -7 -28 -7 -7 -11 -8 -12 0 -41 0
-42 22 -6 23 -6 23 0 23 0 15 14 14 15 0 15 0 16 15 0 15 0 0 -27 0 -28 9 -14
9 -14 52 7 52 7 13 12 12 13 7 37 7 37 10 0 10 0 15 14 14 15 0 30 0 31 -15 0
-15 0 -20 20 -20 20 0 40 0 40 -24 0 -23 0 -31 11 -30 10 -5 20 -5 19 -31 0
-32 0 -5 -15z"/>
</g>
</svg>
