<?xml version="1.0" standalone="no"?>
<!DOCTYPE svg PUBLIC "-//W3C//DTD SVG 20010904//EN"
 "http://www.w3.org/TR/2001/REC-SVG-20010904/DTD/svg10.dtd">
<svg version="1.0" xmlns="http://www.w3.org/2000/svg"
 width="36.000000pt" height="42.000000pt" viewBox="0 0 36.000000 42.000000"
 preserveAspectRatio="xMidYMid meet">
<metadata>
Created by potrace 1.16, written by Peter Selinger 2001-2019
</metadata>
<g transform="translate(0.000000,42.000000) scale(0.100000,-0.100000)"
fill="#000000" stroke="none">
<path d="M125 391 l6 -30 -26 -7 -26 -6 -40 5 -39 5 0 -41 0 -42 8 -12 7 -11
30 -4 30 -3 0 -19 0 -19 -28 -1 -28 -2 -9 -14 -10 -15 0 -30 0 -30 8 -12 7
-12 40 -3 40 -3 -2 -29 -2 -28 14 -14 14 -14 20 0 20 0 15 16 16 15 0 30 0 29
39 0 39 0 5 14 6 15 -6 37 -6 36 20 -6 21 -7 26 12 26 12 0 19 0 19 -15 16
-16 15 -24 -5 -25 -4 0 44 0 44 -35 -7 -35 -6 -25 6 -25 6 2 33 3 32 -23 3
-24 4 7 -31z"/>
</g>
</svg>
