<?xml version="1.0" standalone="no"?>
<!DOCTYPE svg PUBLIC "-//W3C//DTD SVG 20010904//EN"
 "http://www.w3.org/TR/2001/REC-SVG-20010904/DTD/svg10.dtd">
<svg version="1.0" xmlns="http://www.w3.org/2000/svg"
 width="35.000000pt" height="36.000000pt" viewBox="0 0 35.000000 36.000000"
 preserveAspectRatio="xMidYMid meet">
<metadata>
Created by potrace 1.16, written by Peter Selinger 2001-2019
</metadata>
<g transform="translate(0.000000,36.000000) scale(0.100000,-0.100000)"
fill="#000000" stroke="none">
<path d="M119 358 l-1 -3 -2 -28 -2 -28 -14 -10 -15 -10 -42 6 -43 6 0 -30 0
-30 12 -26 12 -27 28 4 27 4 5 -13 5 -13 -5 -14 -5 -14 -27 -7 -27 -7 -7 -11
-8 -12 0 -32 0 -32 35 -7 34 -6 17 16 16 17 -6 14 -5 15 29 0 30 0 0 -27 0
-28 9 -14 9 -13 43 7 43 7 11 12 12 12 7 37 7 37 10 0 10 0 15 14 14 15 0 20
0 21 -15 0 -15 0 -20 20 -20 20 0 40 0 40 -24 0 -23 0 -31 11 -30 10 -5 20 -5
19 -21 0 -21 0 -1 -2z"/>
</g>
</svg>
