<?xml version="1.0" standalone="no"?>
<!DOCTYPE svg PUBLIC "-//W3C//DTD SVG 20010904//EN"
 "http://www.w3.org/TR/2001/REC-SVG-20010904/DTD/svg10.dtd">
<svg version="1.0" xmlns="http://www.w3.org/2000/svg"
 width="37.000000pt" height="33.000000pt" viewBox="0 0 37.000000 33.000000"
 preserveAspectRatio="xMidYMid meet">
<metadata>
Created by potrace 1.16, written by Peter Selinger 2001-2019
</metadata>
<g transform="translate(0.000000,33.000000) scale(0.100000,-0.100000)"
fill="#000000" stroke="none">
<path d="M200 308 l0 -23 -9 -14 -9 -14 -50 5 -51 5 -3 -41 -3 -41 -30 2 -29
2 -8 -12 -8 -12 0 -22 0 -21 33 -11 34 -12 18 7 17 7 -7 -50 -7 -50 24 -7 23
-6 15 0 15 0 15 10 14 9 1 28 2 28 26 3 27 3 0 -19 0 -20 31 -11 32 -11 22 0
23 0 6 16 6 16 0 28 0 28 -16 6 -16 6 -29 0 -29 0 0 20 0 20 26 0 25 0 15 14
14 15 0 41 0 41 -20 -6 -20 -6 -30 6 -30 7 0 29 0 29 -30 0 -30 0 0 -22z"/>
</g>
</svg>
