<?xml version="1.0" standalone="no"?>
<!DOCTYPE svg PUBLIC "-//W3C//DTD SVG 20010904//EN"
 "http://www.w3.org/TR/2001/REC-SVG-20010904/DTD/svg10.dtd">
<svg version="1.0" xmlns="http://www.w3.org/2000/svg"
 width="39.000000pt" height="35.000000pt" viewBox="0 0 39.000000 35.000000"
 preserveAspectRatio="xMidYMid meet">
<metadata>
Created by potrace 1.16, written by Peter Selinger 2001-2019
</metadata>
<g transform="translate(0.000000,35.000000) scale(0.100000,-0.100000)"
fill="#000000" stroke="none">
<path d="M200 328 l0 -23 -9 -14 -9 -14 -50 7 -51 7 -3 -43 -3 -43 -29 3 -29
4 -8 -14 -9 -13 0 -32 0 -31 31 -11 32 -11 17 0 18 0 -5 -44 -5 -43 23 -6 24
-7 27 0 27 0 15 16 16 15 0 25 0 24 15 0 15 0 0 -19 0 -19 31 -11 32 -11 32 0
33 0 6 16 6 16 0 38 0 38 -16 6 -16 6 -29 0 -29 0 0 10 0 10 26 0 25 0 15 14
14 15 0 52 0 52 -29 -6 -28 -6 -22 6 -21 5 0 29 0 29 -40 0 -40 0 0 -22z"/>
</g>
</svg>
