<?xml version="1.0" standalone="no"?>
<!DOCTYPE svg PUBLIC "-//W3C//DTD SVG 20010904//EN"
 "http://www.w3.org/TR/2001/REC-SVG-20010904/DTD/svg10.dtd">
<svg version="1.0" xmlns="http://www.w3.org/2000/svg"
 width="38.000000pt" height="34.000000pt" viewBox="0 0 38.000000 34.000000"
 preserveAspectRatio="xMidYMid meet">
<metadata>
Created by potrace 1.16, written by Peter Selinger 2001-2019
</metadata>
<g transform="translate(0.000000,34.000000) scale(0.100000,-0.100000)"
fill="#000000" stroke="none">
<path d="M70 313 l0 -28 -8 -12 -7 -11 -28 -7 -27 -7 0 -35 0 -35 35 6 34 7 7
-26 6 -26 -6 -29 -5 -30 34 0 35 0 0 -24 0 -24 6 -16 6 -16 22 0 21 0 11 8 12
7 3 19 4 19 53 15 52 15 0 8 0 9 -10 0 -10 0 0 33 0 32 8 11 7 12 25 3 25 4 3
28 3 27 -20 0 -19 0 -16 6 -16 6 0 33 0 33 -41 -11 -42 -10 -5 -19 -5 -19 -26
6 -26 7 -8 11 -7 12 4 18 4 17 -44 0 -44 0 0 -27z"/>
</g>
</svg>
