<?xml version="1.0" standalone="no"?>
<!DOCTYPE svg PUBLIC "-//W3C//DTD SVG 20010904//EN"
 "http://www.w3.org/TR/2001/REC-SVG-20010904/DTD/svg10.dtd">
<svg version="1.0" xmlns="http://www.w3.org/2000/svg"
 width="40.000000pt" height="36.000000pt" viewBox="0 0 40.000000 36.000000"
 preserveAspectRatio="xMidYMid meet">
<metadata>
Created by potrace 1.16, written by Peter Selinger 2001-2019
</metadata>
<g transform="translate(0.000000,36.000000) scale(0.100000,-0.100000)"
fill="#000000" stroke="none">
<path d="M70 333 l0 -28 -8 -12 -7 -11 -28 -7 -27 -7 0 -45 0 -45 35 4 35 4 5
-18 6 -17 -7 -36 -6 -35 36 0 36 0 0 -24 0 -24 6 -16 6 -16 32 0 31 0 11 8 12
7 3 19 4 19 53 15 52 15 0 18 0 19 -10 0 -10 0 0 23 0 22 8 11 7 12 25 3 25 4
3 38 3 37 -20 0 -19 0 -16 6 -16 6 0 35 0 35 -32 -7 -33 -8 -22 -8 -23 -9 0
-14 0 -14 -20 5 -20 5 -1 12 -1 11 1 18 2 17 -55 0 -56 0 0 -27z"/>
</g>
</svg>
