<?xml version="1.0" standalone="no"?>
<!DOCTYPE svg PUBLIC "-//W3C//DTD SVG 20010904//EN"
 "http://www.w3.org/TR/2001/REC-SVG-20010904/DTD/svg10.dtd">
<svg version="1.0" xmlns="http://www.w3.org/2000/svg"
 width="44.000000pt" height="37.000000pt" viewBox="0 0 44.000000 37.000000"
 preserveAspectRatio="xMidYMid meet">
<metadata>
Created by potrace 1.16, written by Peter Selinger 2001-2019
</metadata>
<g transform="translate(0.000000,37.000000) scale(0.100000,-0.100000)"
fill="#000000" stroke="none">
<path d="M210 331 l0 -40 -35 -7 -35 -6 -31 4 -31 5 4 -44 3 -43 -27 0 -26 0
-16 -6 -16 -6 0 -20 0 -19 14 -15 15 -14 9 0 10 0 17 -45 18 -45 33 -6 34 -6
25 6 25 6 0 30 0 30 20 0 20 0 0 -39 0 -39 17 -6 16 -7 36 12 36 12 7 11 8 11
0 38 0 38 21 -6 20 -7 20 23 19 22 0 9 0 9 -14 15 -15 14 -25 0 -26 0 0 34 0
34 -6 16 -6 16 -9 -6 -9 -5 -39 11 -40 10 -3 28 -3 27 -17 3 -18 3 0 -40z"/>
</g>
</svg>
