<?xml version="1.0" standalone="no"?>
<!DOCTYPE svg PUBLIC "-//W3C//DTD SVG 20010904//EN"
 "http://www.w3.org/TR/2001/REC-SVG-20010904/DTD/svg10.dtd">
<svg version="1.0" xmlns="http://www.w3.org/2000/svg"
 width="46.000000pt" height="39.000000pt" viewBox="0 0 46.000000 39.000000"
 preserveAspectRatio="xMidYMid meet">
<metadata>
Created by potrace 1.16, written by Peter Selinger 2001-2019
</metadata>
<g transform="translate(0.000000,39.000000) scale(0.100000,-0.100000)"
fill="#000000" stroke="none">
<path d="M210 351 l0 -39 -31 -7 -31 -7 -34 6 -34 7 0 -46 0 -45 -24 0 -24 0
-16 -6 -16 -6 0 -30 0 -29 14 -15 15 -14 9 0 10 0 17 -44 17 -44 22 -6 21 -6
32 0 31 0 16 6 16 6 0 29 0 29 10 0 10 0 0 -40 0 -40 24 -6 25 -6 38 12 38 13
7 11 8 11 0 33 0 32 21 0 22 0 18 22 19 21 0 19 0 19 -14 15 -15 14 -25 0 -26
0 0 38 0 37 -8 12 -8 12 -19 -1 -20 -2 -27 7 -27 7 -3 28 -3 27 -27 3 -28 3 0
-40z"/>
</g>
</svg>
