<?xml version="1.0" standalone="no"?>
<!DOCTYPE svg PUBLIC "-//W3C//DTD SVG 20010904//EN"
 "http://www.w3.org/TR/2001/REC-SVG-20010904/DTD/svg10.dtd">
<svg version="1.0" xmlns="http://www.w3.org/2000/svg"
 width="34.000000pt" height="27.000000pt" viewBox="0 0 34.000000 27.000000"
 preserveAspectRatio="xMidYMid meet">
<metadata>
Created by potrace 1.16, written by Peter Selinger 2001-2019
</metadata>
<g transform="translate(0.000000,27.000000) scale(0.100000,-0.100000)"
fill="#000000" stroke="none">
<path d="M80 241 l0 -29 -6 -16 -6 -16 -35 0 -34 0 3 -27 3 -28 18 3 17 3 14
-13 13 -14 7 -47 7 -47 42 0 42 0 13 9 13 8 -7 26 -6 27 27 0 27 0 -6 -35 -7
-34 26 -7 25 -6 35 6 35 7 0 9 0 10 -14 0 -14 0 -6 33 -6 33 -20 14 -20 14 0
19 0 18 14 15 15 14 22 0 22 0 -7 32 -6 32 -3 2 -3 3 -36 -8 -37 -9 -16 -16
-16 -16 -12 0 -12 0 -11 8 -11 7 -7 23 -7 22 -35 0 -34 0 0 -29z"/>
</g>
</svg>
