<?xml version="1.0" standalone="no"?>
<!DOCTYPE svg PUBLIC "-//W3C//DTD SVG 20010904//EN"
 "http://www.w3.org/TR/2001/REC-SVG-20010904/DTD/svg10.dtd">
<svg version="1.0" xmlns="http://www.w3.org/2000/svg"
 width="36.000000pt" height="29.000000pt" viewBox="0 0 36.000000 29.000000"
 preserveAspectRatio="xMidYMid meet">
<metadata>
Created by potrace 1.16, written by Peter Selinger 2001-2019
</metadata>
<g transform="translate(0.000000,29.000000) scale(0.100000,-0.100000)"
fill="#000000" stroke="none">
<path d="M80 261 l0 -29 -6 -16 -6 -16 -35 0 -34 0 3 -37 3 -38 20 0 20 0 11
-10 11 -11 7 -47 7 -47 52 0 52 0 14 9 14 9 -5 26 -5 26 13 0 14 0 -7 -31 -6
-31 14 -9 14 -9 35 0 35 0 23 6 22 6 0 19 0 19 -14 0 -14 0 -6 33 -6 33 -20
14 -20 14 0 9 0 8 14 15 15 14 22 0 22 0 -6 41 -5 41 -5 4 -4 5 -42 -7 -41 -7
-21 -18 -21 -18 -13 5 -13 5 -6 25 -6 24 -45 0 -45 0 0 -29z"/>
</g>
</svg>
