<?xml version="1.0" standalone="no"?>
<!DOCTYPE svg PUBLIC "-//W3C//DTD SVG 20010904//EN"
 "http://www.w3.org/TR/2001/REC-SVG-20010904/DTD/svg10.dtd">
<svg version="1.0" xmlns="http://www.w3.org/2000/svg"
 width="33.000000pt" height="29.000000pt" viewBox="0 0 33.000000 29.000000"
 preserveAspectRatio="xMidYMid meet">
<metadata>
Created by potrace 1.16, written by Peter Selinger 2001-2019
</metadata>
<g transform="translate(0.000000,29.000000) scale(0.100000,-0.100000)"
fill="#000000" stroke="none">
<path d="M6 259 l-6 -31 0 -13 0 -12 40 -7 40 -6 0 -14 0 -15 -16 -16 -17 -16
-24 5 -23 6 2 -61 3 -61 38 6 39 7 14 14 14 14 0 15 0 16 25 0 25 0 0 -31 0
-30 16 -16 16 -16 34 16 34 17 0 29 0 30 12 26 12 26 20 -3 21 -3 3 27 3 27
-40 11 -41 11 0 38 0 39 -42 -13 -43 -12 -4 -19 -3 -19 -12 -7 -11 -8 -21 0
-22 0 -6 16 -6 16 0 24 0 24 -34 0 -33 0 -7 -31z"/>
</g>
</svg>
