<?xml version="1.0" standalone="no"?>
<!DOCTYPE svg PUBLIC "-//W3C//DTD SVG 20010904//EN"
 "http://www.w3.org/TR/2001/REC-SVG-20010904/DTD/svg10.dtd">
<svg version="1.0" xmlns="http://www.w3.org/2000/svg"
 width="27.000000pt" height="28.000000pt" viewBox="0 0 27.000000 28.000000"
 preserveAspectRatio="xMidYMid meet">
<metadata>
Created by potrace 1.16, written by Peter Selinger 2001-2019
</metadata>
<g transform="translate(0.000000,28.000000) scale(0.100000,-0.100000)"
fill="#000000" stroke="none">
<path d="M230 270 l0 -10 -36 0 -36 0 4 -24 5 -25 -14 -5 -15 -6 -18 0 -18 0
-6 16 -6 16 0 19 0 19 -45 0 -45 0 0 -56 0 -56 25 6 26 7 15 -16 15 -15 -6
-20 -6 -20 -22 0 -22 0 -13 -40 -12 -40 0 -10 0 -10 135 0 135 0 0 60 0 60
-19 0 -19 0 -16 6 -16 6 0 13 0 13 30 7 30 7 0 54 0 54 -15 0 -15 0 0 -10z"/>
</g>
</svg>
