<?xml version="1.0" standalone="no"?>
<!DOCTYPE svg PUBLIC "-//W3C//DTD SVG 20010904//EN"
 "http://www.w3.org/TR/2001/REC-SVG-20010904/DTD/svg10.dtd">
<svg version="1.0" xmlns="http://www.w3.org/2000/svg"
 width="35.000000pt" height="31.000000pt" viewBox="0 0 35.000000 31.000000"
 preserveAspectRatio="xMidYMid meet">
<metadata>
Created by potrace 1.16, written by Peter Selinger 2001-2019
</metadata>
<g transform="translate(0.000000,31.000000) scale(0.100000,-0.100000)"
fill="#000000" stroke="none">
<path d="M6 279 l-6 -31 0 -24 0 -24 23 -1 22 0 19 -8 18 -7 -15 -16 -16 -15
-25 4 -26 5 1 -72 1 -73 49 6 50 6 14 15 15 15 0 15 0 16 15 0 15 0 0 -31 0
-30 14 -15 15 -14 16 0 16 0 29 15 30 16 0 32 1 32 12 20 12 20 20 0 20 0 3
37 3 37 -40 11 -41 11 0 39 0 40 -7 0 -8 0 -45 -14 -45 -13 -3 -21 -3 -21 -21
-7 -20 -6 -9 13 -9 14 0 28 0 27 -44 0 -43 0 -7 -31z"/>
</g>
</svg>
