<?xml version="1.0" standalone="no"?>
<!DOCTYPE svg PUBLIC "-//W3C//DTD SVG 20010904//EN"
 "http://www.w3.org/TR/2001/REC-SVG-20010904/DTD/svg10.dtd">
<svg version="1.0" xmlns="http://www.w3.org/2000/svg"
 width="25.000000pt" height="26.000000pt" viewBox="0 0 25.000000 26.000000"
 preserveAspectRatio="xMidYMid meet">
<metadata>
Created by potrace 1.16, written by Peter Selinger 2001-2019
</metadata>
<g transform="translate(0.000000,26.000000) scale(0.100000,-0.100000)"
fill="#000000" stroke="none">
<path d="M0 206 l0 -43 25 4 24 5 16 -15 15 -16 0 -14 0 -15 -6 -16 -6 -16
-23 0 -23 0 -5 -22 -4 -23 -8 -17 -7 -18 126 0 126 0 0 50 0 50 -19 0 -19 0
-16 6 -16 6 0 23 0 23 30 7 30 7 0 34 0 34 -41 0 -40 0 6 -21 7 -21 -13 -9
-14 -9 -31 0 -32 0 -6 16 -6 16 0 19 0 19 -35 0 -35 0 0 -44z"/>
</g>
</svg>
