<?xml version="1.0" standalone="no"?>
<!DOCTYPE svg PUBLIC "-//W3C//DTD SVG 20010904//EN"
 "http://www.w3.org/TR/2001/REC-SVG-20010904/DTD/svg10.dtd">
<svg version="1.0" xmlns="http://www.w3.org/2000/svg"
 width="45.000000pt" height="30.000000pt" viewBox="0 0 45.000000 30.000000"
 preserveAspectRatio="xMidYMid meet">
<metadata>
Created by potrace 1.16, written by Peter Selinger 2001-2019
</metadata>
<g transform="translate(0.000000,30.000000) scale(0.100000,-0.100000)"
fill="#000000" stroke="none">
<path d="M293 293 l-43 -4 0 -30 0 -30 -14 -15 -15 -14 -20 0 -21 0 -1 13 -1
12 2 26 1 26 -23 6 -22 6 -22 -5 -22 -6 -6 -38 -6 -39 -38 -3 -37 -3 -3 -37
-3 -37 26 -7 25 -6 25 4 24 5 4 -11 4 -11 -8 -20 -8 -20 0 -27 -1 -28 54 0 54
0 6 16 6 16 0 19 0 19 20 0 20 0 0 -29 0 -29 23 -6 22 -6 27 0 27 0 15 16 16
15 0 30 0 29 21 0 20 0 15 14 14 15 0 40 0 40 -34 6 -34 7 -6 21 -6 22 0 23 0
22 -17 -2 -18 -1 -42 -4z"/>
</g>
</svg>
