<?xml version="1.0" standalone="no"?>
<!DOCTYPE svg PUBLIC "-//W3C//DTD SVG 20010904//EN"
 "http://www.w3.org/TR/2001/REC-SVG-20010904/DTD/svg10.dtd">
<svg version="1.0" xmlns="http://www.w3.org/2000/svg"
 width="43.000000pt" height="28.000000pt" viewBox="0 0 43.000000 28.000000"
 preserveAspectRatio="xMidYMid meet">
<metadata>
Created by potrace 1.16, written by Peter Selinger 2001-2019
</metadata>
<g transform="translate(0.000000,28.000000) scale(0.100000,-0.100000)"
fill="#000000" stroke="none">
<path d="M293 273 l-43 -4 0 -30 0 -30 -14 -15 -15 -14 -29 0 -30 0 -6 16 -6
16 6 22 5 23 -18 5 -18 4 -16 -3 -17 -4 -6 -40 -6 -39 -18 -1 -17 -2 -20 -1
-20 -1 -3 -27 -3 -26 21 -7 20 -6 29 6 29 6 6 -19 7 -19 -11 -27 -10 -27 0
-15 0 -14 44 0 44 0 6 16 6 16 0 19 0 19 30 0 30 0 0 -29 0 -29 23 -6 22 -6
15 0 15 0 14 9 14 9 6 38 7 39 17 -3 17 -3 15 15 15 15 0 30 0 30 -34 6 -34 7
-6 21 -6 22 0 23 0 22 -7 -2 -8 -1 -42 -4z"/>
</g>
</svg>
