<?xml version="1.0" standalone="no"?>
<!DOCTYPE svg PUBLIC "-//W3C//DTD SVG 20010904//EN"
 "http://www.w3.org/TR/2001/REC-SVG-20010904/DTD/svg10.dtd">
<svg version="1.0" xmlns="http://www.w3.org/2000/svg"
 width="32.000000pt" height="35.000000pt" viewBox="0 0 32.000000 35.000000"
 preserveAspectRatio="xMidYMid meet">
<metadata>
Created by potrace 1.16, written by Peter Selinger 2001-2019
</metadata>
<g transform="translate(0.000000,35.000000) scale(0.100000,-0.100000)"
fill="#000000" stroke="none">
<path d="M10 306 l0 -34 29 -7 29 -6 6 -16 6 -16 -5 -18 -6 -18 -22 -3 -22 -3
-5 -52 -6 -53 44 0 44 0 -6 -15 -5 -15 11 -25 11 -25 23 0 23 0 6 19 5 18 -6
17 -6 16 35 0 35 0 16 6 16 6 0 12 0 11 10 37 11 37 19 6 20 6 0 30 0 29 -30
0 -30 0 0 46 0 45 -23 -6 -22 -7 -20 -5 -20 -6 -17 -19 -17 -20 -20 7 -21 6 0
25 0 24 -45 0 -45 0 0 -34z"/>
</g>
</svg>
