<?xml version="1.0" standalone="no"?>
<!DOCTYPE svg PUBLIC "-//W3C//DTD SVG 20010904//EN"
 "http://www.w3.org/TR/2001/REC-SVG-20010904/DTD/svg10.dtd">
<svg version="1.0" xmlns="http://www.w3.org/2000/svg"
 width="34.000000pt" height="37.000000pt" viewBox="0 0 34.000000 37.000000"
 preserveAspectRatio="xMidYMid meet">
<metadata>
Created by potrace 1.16, written by Peter Selinger 2001-2019
</metadata>
<g transform="translate(0.000000,37.000000) scale(0.100000,-0.100000)"
fill="#000000" stroke="none">
<path d="M3 349 l7 -24 0 -26 0 -27 27 -7 28 -7 6 -10 7 -11 -5 -14 -5 -13
-19 0 -20 0 -3 -12 -4 -13 -6 -53 -5 -52 39 0 40 0 0 -15 0 -14 12 -26 11 -25
33 0 32 0 6 16 6 16 0 19 0 19 29 0 29 0 16 6 16 6 0 12 0 11 10 37 11 37 19
6 20 6 0 40 0 39 -30 0 -30 0 0 45 0 45 -12 0 -13 0 -40 -11 -40 -11 -15 -18
-15 -17 -12 4 -13 5 0 24 0 24 -37 0 -38 0 -24 7 -24 6 6 -24z"/>
</g>
</svg>
