<?xml version="1.0" standalone="no"?>
<!DOCTYPE svg PUBLIC "-//W3C//DTD SVG 20010904//EN"
 "http://www.w3.org/TR/2001/REC-SVG-20010904/DTD/svg10.dtd">
<svg version="1.0" xmlns="http://www.w3.org/2000/svg"
 width="36.000000pt" height="31.000000pt" viewBox="0 0 36.000000 31.000000"
 preserveAspectRatio="xMidYMid meet">
<metadata>
Created by potrace 1.16, written by Peter Selinger 2001-2019
</metadata>
<g transform="translate(0.000000,31.000000) scale(0.100000,-0.100000)"
fill="#000000" stroke="none">
<path d="M62 267 l6 -47 -20 0 -19 0 -15 -14 -14 -15 0 -28 0 -29 20 -14 20
-14 6 -33 6 -33 14 0 14 0 0 -10 0 -10 55 0 56 0 6 30 6 31 11 -4 11 -4 3 -31
3 -31 21 -7 20 -6 43 6 43 7 1 71 1 70 -18 -5 -19 -4 -22 12 -23 12 17 16 16
17 20 0 19 0 0 50 0 50 -55 0 -55 0 0 -26 0 -25 -13 -13 -12 -13 -13 5 -12 4
0 34 0 34 -34 0 -33 0 -33 7 -33 6 5 -46z"/>
</g>
</svg>
