<?xml version="1.0" standalone="no"?>
<!DOCTYPE svg PUBLIC "-//W3C//DTD SVG 20010904//EN"
 "http://www.w3.org/TR/2001/REC-SVG-20010904/DTD/svg10.dtd">
<svg version="1.0" xmlns="http://www.w3.org/2000/svg"
 width="42.000000pt" height="27.000000pt" viewBox="0 0 42.000000 27.000000"
 preserveAspectRatio="xMidYMid meet">
<metadata>
Created by potrace 1.16, written by Peter Selinger 2001-2019
</metadata>
<g transform="translate(0.000000,27.000000) scale(0.100000,-0.100000)"
fill="#000000" stroke="none">
<path d="M77 263 l-7 -6 0 -34 0 -34 -14 -15 -15 -14 -20 0 -21 0 0 -15 0 -15
24 -12 25 -11 6 -38 7 -38 -6 -10 -6 -9 16 -6 16 -6 33 0 33 0 16 6 16 6 0 30
0 29 23 -3 22 -3 -3 -22 -3 -21 35 -12 36 -11 20 6 20 6 0 50 0 49 23 -5 23
-6 23 20 23 20 -7 22 -7 21 -34 -5 -34 -6 0 50 0 49 -128 0 -129 0 -6 -7z"/>
</g>
</svg>
