<?xml version="1.0" standalone="no"?>
<!DOCTYPE svg PUBLIC "-//W3C//DTD SVG 20010904//EN"
 "http://www.w3.org/TR/2001/REC-SVG-20010904/DTD/svg10.dtd">
<svg version="1.0" xmlns="http://www.w3.org/2000/svg"
 width="40.000000pt" height="27.000000pt" viewBox="0 0 40.000000 27.000000"
 preserveAspectRatio="xMidYMid meet">
<metadata>
Created by potrace 1.16, written by Peter Selinger 2001-2019
</metadata>
<g transform="translate(0.000000,27.000000) scale(0.100000,-0.100000)"
fill="#000000" stroke="none">
<path d="M320 261 l0 -9 -35 -6 -35 -7 0 -20 0 -20 -15 -15 -14 -15 -26 7 -25
6 0 34 0 34 -39 0 -39 0 -16 6 -16 6 0 -45 0 -45 -30 -7 -30 -7 0 -23 0 -23
16 -6 16 -6 19 0 19 0 0 -50 0 -50 130 0 130 0 0 46 0 45 15 15 15 15 20 -6
20 -6 0 20 0 21 -26 0 -25 0 -15 14 -14 15 0 26 0 26 10 20 11 19 -11 0 -10 0
0 -9z"/>
</g>
</svg>
