<?xml version="1.0" standalone="no"?>
<!DOCTYPE svg PUBLIC "-//W3C//DTD SVG 20010904//EN"
 "http://www.w3.org/TR/2001/REC-SVG-20010904/DTD/svg10.dtd">
<svg version="1.0" xmlns="http://www.w3.org/2000/svg"
 width="44.000000pt" height="29.000000pt" viewBox="0 0 44.000000 29.000000"
 preserveAspectRatio="xMidYMid meet">
<metadata>
Created by potrace 1.16, written by Peter Selinger 2001-2019
</metadata>
<g transform="translate(0.000000,29.000000) scale(0.100000,-0.100000)"
fill="#000000" stroke="none">
<path d="M77 283 l-7 -6 0 -34 0 -34 -14 -15 -15 -14 -20 0 -21 0 0 -25 0 -25
24 -11 24 -11 6 -29 5 -29 -6 -16 -6 -16 14 -9 14 -9 47 0 46 0 16 6 16 6 0
29 0 29 10 0 10 0 0 -25 0 -24 39 -12 39 -12 26 7 26 6 0 45 0 45 23 0 24 0
21 19 22 18 0 16 0 15 -6 16 -6 16 -34 0 -34 0 0 45 0 45 -138 0 -139 0 -6 -7z"/>
</g>
</svg>
