<?xml version="1.0" standalone="no"?>
<!DOCTYPE svg PUBLIC "-//W3C//DTD SVG 20010904//EN"
 "http://www.w3.org/TR/2001/REC-SVG-20010904/DTD/svg10.dtd">
<svg version="1.0" xmlns="http://www.w3.org/2000/svg"
 width="42.000000pt" height="29.000000pt" viewBox="0 0 42.000000 29.000000"
 preserveAspectRatio="xMidYMid meet">
<metadata>
Created by potrace 1.16, written by Peter Selinger 2001-2019
</metadata>
<g transform="translate(0.000000,29.000000) scale(0.100000,-0.100000)"
fill="#000000" stroke="none">
<path d="M320 281 l0 -9 -35 -6 -35 -7 0 -20 0 -20 -12 -13 -12 -13 -18 5 -18
4 0 34 0 34 -34 0 -34 0 -31 6 -31 7 0 -46 0 -45 -30 -7 -30 -7 0 -33 0 -33
16 -6 16 -6 19 0 19 0 0 -50 0 -50 140 0 140 0 0 45 0 46 12 13 12 12 23 -4
23 -4 0 31 0 31 -26 0 -25 0 -16 15 -15 16 5 22 5 22 7 23 7 22 -21 0 -21 0 0
-9z"/>
</g>
</svg>
