<?xml version="1.0" standalone="no"?>
<!DOCTYPE svg PUBLIC "-//W3C//DTD SVG 20010904//EN"
 "http://www.w3.org/TR/2001/REC-SVG-20010904/DTD/svg10.dtd">
<svg version="1.0" xmlns="http://www.w3.org/2000/svg"
 width="34.000000pt" height="29.000000pt" viewBox="0 0 34.000000 29.000000"
 preserveAspectRatio="xMidYMid meet">
<metadata>
Created by potrace 1.16, written by Peter Selinger 2001-2019
</metadata>
<g transform="translate(0.000000,29.000000) scale(0.100000,-0.100000)"
fill="#000000" stroke="none">
<path d="M64 247 l7 -47 -21 0 -21 0 -15 -14 -14 -15 0 -18 0 -19 20 -14 20
-14 6 -33 6 -33 14 0 14 0 0 -10 0 -10 44 0 45 0 6 20 6 20 -6 11 -7 11 28 -4
29 -3 3 -32 3 -32 19 -6 19 -6 33 6 33 6 3 60 2 60 -10 -6 -11 -7 -30 12 -29
12 0 13 0 14 16 15 15 16 20 0 19 0 0 40 0 40 -45 0 -45 0 0 -26 0 -25 -15
-15 -15 -15 -20 6 -20 6 0 35 0 34 -39 0 -39 0 -18 7 -17 6 7 -46z"/>
</g>
</svg>
