<?xml version="1.0" standalone="no"?>
<!DOCTYPE svg PUBLIC "-//W3C//DTD SVG 20010904//EN"
 "http://www.w3.org/TR/2001/REC-SVG-20010904/DTD/svg10.dtd">
<svg version="1.0" xmlns="http://www.w3.org/2000/svg"
 width="39.000000pt" height="39.000000pt" viewBox="0 0 39.000000 39.000000"
 preserveAspectRatio="xMidYMid meet">
<metadata>
Created by potrace 1.16, written by Peter Selinger 2001-2019
</metadata>
<g transform="translate(0.000000,39.000000) scale(0.100000,-0.100000)"
fill="#000000" stroke="none">
<path d="M36 374 l-16 -15 0 -50 0 -49 40 0 40 0 0 -14 0 -15 -12 -7 -12 -8
-32 2 -32 3 -7 -20 -6 -20 7 -38 7 -37 14 -14 14 -14 40 5 39 5 0 -28 0 -29
16 -15 15 -16 17 0 17 0 23 6 22 6 0 22 0 22 38 13 37 14 7 11 8 11 0 38 0 37
19 0 19 0 16 6 16 6 0 43 0 43 -30 7 -30 7 -1 11 -1 12 1 22 2 21 -20 7 -20 6
-20 -10 -20 -11 -21 0 -21 0 3 -17 4 -18 -20 -18 -21 -18 -3 10 -4 11 -14 0
-14 0 -1 13 -1 12 1 18 2 17 -30 6 -31 7 0 8 0 9 -14 0 -15 0 -15 -16z"/>
</g>
</svg>
