<?xml version="1.0" standalone="no"?>
<!DOCTYPE svg PUBLIC "-//W3C//DTD SVG 20010904//EN"
 "http://www.w3.org/TR/2001/REC-SVG-20010904/DTD/svg10.dtd">
<svg version="1.0" xmlns="http://www.w3.org/2000/svg"
 width="37.000000pt" height="37.000000pt" viewBox="0 0 37.000000 37.000000"
 preserveAspectRatio="xMidYMid meet">
<metadata>
Created by potrace 1.16, written by Peter Selinger 2001-2019
</metadata>
<g transform="translate(0.000000,37.000000) scale(0.100000,-0.100000)"
fill="#000000" stroke="none">
<path d="M26 344 l-6 -16 0 -34 0 -34 40 0 40 0 0 -25 0 -24 -20 -11 -21 -11
-21 7 -20 6 -9 -13 -9 -14 7 -35 6 -34 14 -14 13 -14 40 7 40 7 0 -30 0 -31
16 -16 17 -17 21 6 21 6 9 0 8 0 -6 23 -5 23 44 13 44 13 5 15 6 15 0 34 0 34
19 0 19 0 16 6 16 6 0 33 0 33 -29 7 -29 6 -6 16 -6 16 5 17 6 18 -14 5 -14 5
-14 -9 -14 -9 -22 0 -22 0 5 -15 6 -16 -22 -19 -23 -20 -14 0 -13 0 0 10 0 10
-14 0 -15 0 -6 20 -6 20 5 9 6 10 -17 4 -18 5 -26 6 -27 6 -6 -16z"/>
</g>
</svg>
