<?xml version="1.0" standalone="no"?>
<!DOCTYPE svg PUBLIC "-//W3C//DTD SVG 20010904//EN"
 "http://www.w3.org/TR/2001/REC-SVG-20010904/DTD/svg10.dtd">
<svg version="1.0" xmlns="http://www.w3.org/2000/svg"
 width="39.000000pt" height="45.000000pt" viewBox="0 0 39.000000 45.000000"
 preserveAspectRatio="xMidYMid meet">
<metadata>
Created by potrace 1.16, written by Peter Selinger 2001-2019
</metadata>
<g transform="translate(0.000000,45.000000) scale(0.100000,-0.100000)"
fill="#000000" stroke="none">
<path d="M137 444 l-7 -7 0 -24 0 -24 -16 -16 -15 -15 -50 6 -49 7 0 -55 0
-55 13 -13 14 -12 -14 -14 -13 -13 0 -50 0 -50 14 -15 15 -14 39 0 39 0 -5
-30 -4 -30 16 0 16 0 0 -10 0 -10 23 0 22 0 11 8 11 7 11 21 11 20 39 12 39
12 17 43 16 43 0 11 0 11 30 7 30 7 0 31 0 32 -8 12 -7 11 -35 4 -35 3 -3 43
-3 42 -45 0 -45 0 -14 13 -13 13 -4 20 -3 19 -16 3 -15 3 -7 -7z"/>
</g>
</svg>
