<?xml version="1.0" standalone="no"?>
<!DOCTYPE svg PUBLIC "-//W3C//DTD SVG 20010904//EN"
 "http://www.w3.org/TR/2001/REC-SVG-20010904/DTD/svg10.dtd">
<svg version="1.0" xmlns="http://www.w3.org/2000/svg"
 width="37.000000pt" height="43.000000pt" viewBox="0 0 37.000000 43.000000"
 preserveAspectRatio="xMidYMid meet">
<metadata>
Created by potrace 1.16, written by Peter Selinger 2001-2019
</metadata>
<g transform="translate(0.000000,43.000000) scale(0.100000,-0.100000)"
fill="#000000" stroke="none">
<path d="M136 423 l-6 -6 0 -24 0 -24 -16 -16 -15 -15 -50 4 -49 5 0 -43 0
-43 16 -16 17 -16 24 6 25 6 -4 -18 -4 -18 -29 2 -29 2 -8 -12 -8 -12 0 -38 0
-38 14 -15 15 -14 41 0 42 0 -7 -30 -7 -30 15 0 15 0 4 -11 4 -12 20 7 21 6
10 23 11 23 40 12 39 12 17 43 16 43 0 11 0 11 30 7 30 7 0 21 0 22 -8 12 -7
11 -35 4 -35 3 -3 43 -3 42 -45 0 -45 0 -15 14 -14 15 0 15 0 15 -9 5 -8 5 -7
-6z"/>
</g>
</svg>
