<?xml version="1.0" standalone="no"?>
<!DOCTYPE svg PUBLIC "-//W3C//DTD SVG 20010904//EN"
 "http://www.w3.org/TR/2001/REC-SVG-20010904/DTD/svg10.dtd">
<svg version="1.0" xmlns="http://www.w3.org/2000/svg"
 width="34.000000pt" height="35.000000pt" viewBox="0 0 34.000000 35.000000"
 preserveAspectRatio="xMidYMid meet">
<metadata>
Created by potrace 1.16, written by Peter Selinger 2001-2019
</metadata>
<g transform="translate(0.000000,35.000000) scale(0.100000,-0.100000)"
fill="#000000" stroke="none">
<path d="M172 322 l4 -28 -12 -12 -12 -11 -13 -1 -14 -2 -12 1 -13 1 0 35 0
35 -50 0 -50 0 0 -40 0 -40 20 -20 20 -20 15 0 15 0 0 -11 0 -10 -14 -15 -15
-14 -9 0 -10 0 -11 -50 -11 -51 0 -4 0 -5 45 0 45 0 0 -24 0 -24 16 -6 16 -6
17 0 17 0 14 19 14 20 48 11 48 12 0 19 0 19 -9 0 -9 0 -11 31 -11 31 8 12 7
11 40 0 40 0 3 26 3 27 -35 6 -36 7 0 43 0 44 -16 6 -16 6 -35 0 -35 0 4 -28z"/>
</g>
</svg>
