<?xml version="1.0" standalone="no"?>
<!DOCTYPE svg PUBLIC "-//W3C//DTD SVG 20010904//EN"
 "http://www.w3.org/TR/2001/REC-SVG-20010904/DTD/svg10.dtd">
<svg version="1.0" xmlns="http://www.w3.org/2000/svg"
 width="32.000000pt" height="33.000000pt" viewBox="0 0 32.000000 33.000000"
 preserveAspectRatio="xMidYMid meet">
<metadata>
Created by potrace 1.16, written by Peter Selinger 2001-2019
</metadata>
<g transform="translate(0.000000,33.000000) scale(0.100000,-0.100000)"
fill="#000000" stroke="none">
<path d="M174 305 l7 -26 -14 -14 -15 -14 -23 -6 -24 -5 -13 8 -13 9 -1 31 -1
32 -39 0 -38 0 0 -30 0 -30 20 -20 20 -20 15 0 15 0 0 -21 0 -20 -14 -15 -15
-14 -10 0 -10 0 -8 -42 -9 -43 43 -3 43 -3 0 -24 0 -24 21 -6 20 -7 18 21 17
20 47 12 47 11 0 9 0 9 -9 0 -9 0 -12 35 -11 35 6 19 6 20 42 -2 41 -2 4 16 3
17 -35 6 -36 7 0 43 0 44 -16 6 -16 6 -25 0 -25 0 6 -25z"/>
</g>
</svg>
