<?xml version="1.0" standalone="no"?>
<!DOCTYPE svg PUBLIC "-//W3C//DTD SVG 20010904//EN"
 "http://www.w3.org/TR/2001/REC-SVG-20010904/DTD/svg10.dtd">
<svg version="1.0" xmlns="http://www.w3.org/2000/svg"
 width="30.000000pt" height="41.000000pt" viewBox="0 0 30.000000 41.000000"
 preserveAspectRatio="xMidYMid meet">
<metadata>
Created by potrace 1.16, written by Peter Selinger 2001-2019
</metadata>
<g transform="translate(0.000000,41.000000) scale(0.100000,-0.100000)"
fill="#000000" stroke="none">
<path d="M100 393 l2 -18 -1 -12 -1 -13 -45 0 -45 0 0 -56 0 -56 25 6 26 7 14
-15 15 -15 0 -10 0 -10 -22 -7 -23 -8 -22 3 -23 2 1 -60 1 -61 44 0 44 0 0
-21 0 -20 14 -15 15 -14 14 0 15 0 16 6 15 6 7 34 6 35 45 -7 45 -7 9 14 9 14
0 52 0 53 -22 4 -23 5 -20 4 -20 5 23 1 23 1 16 16 16 15 5 46 5 46 -50 -6
-49 -6 -11 7 -11 7 -4 30 -3 30 -38 3 -38 3 1 -18z"/>
</g>
</svg>
