<?xml version="1.0" standalone="no"?>
<!DOCTYPE svg PUBLIC "-//W3C//DTD SVG 20010904//EN"
 "http://www.w3.org/TR/2001/REC-SVG-20010904/DTD/svg10.dtd">
<svg version="1.0" xmlns="http://www.w3.org/2000/svg"
 width="38.000000pt" height="42.000000pt" viewBox="0 0 38.000000 42.000000"
 preserveAspectRatio="xMidYMid meet">
<metadata>
Created by potrace 1.16, written by Peter Selinger 2001-2019
</metadata>
<g transform="translate(0.000000,42.000000) scale(0.100000,-0.100000)"
fill="#000000" stroke="none">
<path d="M122 395 l5 -25 -23 -6 -24 -6 -34 6 -34 6 -6 -16 -6 -16 0 -38 0
-38 16 -6 16 -6 20 0 19 0 -3 -17 -3 -18 -25 -4 -25 -3 -7 -12 -8 -11 0 -38 0
-38 14 -15 15 -14 40 0 41 0 0 -34 0 -34 16 -6 16 -6 19 0 19 0 0 10 0 10 15
0 16 0 6 30 6 30 19 0 19 0 16 15 15 16 -5 28 -6 29 35 5 34 6 15 15 15 15 0
26 0 26 -15 16 -16 15 -19 -5 -20 -5 0 40 0 41 -49 -7 -48 -6 -17 6 -16 6 6 9
5 9 -6 20 -6 20 -31 0 -30 0 4 -25z"/>
</g>
</svg>
