<?xml version="1.0" standalone="no"?>
<!DOCTYPE svg PUBLIC "-//W3C//DTD SVG 20010904//EN"
 "http://www.w3.org/TR/2001/REC-SVG-20010904/DTD/svg10.dtd">
<svg version="1.0" xmlns="http://www.w3.org/2000/svg"
 width="36.000000pt" height="40.000000pt" viewBox="0 0 36.000000 40.000000"
 preserveAspectRatio="xMidYMid meet">
<metadata>
Created by potrace 1.16, written by Peter Selinger 2001-2019
</metadata>
<g transform="translate(0.000000,40.000000) scale(0.100000,-0.100000)"
fill="#000000" stroke="none">
<path d="M126 375 l6 -24 -26 -7 -26 -6 -35 4 -34 4 -6 -14 -5 -14 0 -28 0
-28 16 -6 16 -6 19 0 20 0 -3 -27 -3 -28 -25 -4 -25 -3 -7 -12 -8 -11 0 -28 0
-28 14 -15 15 -14 45 0 45 0 -6 -34 -5 -34 23 -7 23 -8 4 12 4 11 13 0 13 0 6
16 6 17 -6 20 -6 20 26 -7 27 -7 14 15 14 14 -5 34 -6 34 35 0 34 0 17 16 16
17 0 16 0 16 -14 14 -13 14 -22 -6 -21 -5 0 41 0 42 -44 -6 -44 -7 -22 7 -21
7 2 16 1 17 -1 13 -1 12 -20 0 -20 0 6 -25z"/>
</g>
</svg>
