<?xml version="1.0" standalone="no"?>
<!DOCTYPE svg PUBLIC "-//W3C//DTD SVG 20010904//EN"
 "http://www.w3.org/TR/2001/REC-SVG-20010904/DTD/svg10.dtd">
<svg version="1.0" xmlns="http://www.w3.org/2000/svg"
 width="28.000000pt" height="39.000000pt" viewBox="0 0 28.000000 39.000000"
 preserveAspectRatio="xMidYMid meet">
<metadata>
Created by potrace 1.16, written by Peter Selinger 2001-2019
</metadata>
<g transform="translate(0.000000,39.000000) scale(0.100000,-0.100000)"
fill="#000000" stroke="none">
<path d="M105 381 l6 -11 -6 -20 -6 -20 -45 0 -44 0 0 -44 0 -43 25 4 24 5 16
-15 15 -16 0 -19 0 -19 -26 -12 -26 -12 -19 6 -18 6 2 -50 2 -51 43 0 42 0 0
-21 0 -20 15 -15 15 -15 19 6 19 6 6 25 7 25 -7 11 -7 11 55 -6 56 -7 6 16 6
16 0 39 0 39 -22 4 -23 5 -20 3 -20 3 -3 19 -4 19 26 -7 27 -7 15 16 15 15 6
36 6 36 -49 -6 -49 -6 -12 7 -11 8 -4 30 -3 30 -29 3 -28 4 7 -11z"/>
</g>
</svg>
