<?xml version="1.0" standalone="no"?>
<!DOCTYPE svg PUBLIC "-//W3C//DTD SVG 20010904//EN"
 "http://www.w3.org/TR/2001/REC-SVG-20010904/DTD/svg10.dtd">
<svg version="1.0" xmlns="http://www.w3.org/2000/svg"
 width="39.000000pt" height="43.000000pt" viewBox="0 0 39.000000 43.000000"
 preserveAspectRatio="xMidYMid meet">
<metadata>
Created by potrace 1.16, written by Peter Selinger 2001-2019
</metadata>
<g transform="translate(0.000000,43.000000) scale(0.100000,-0.100000)"
fill="#000000" stroke="none">
<path d="M183 401 l6 -30 -19 -6 -19 -6 -36 7 -35 6 0 -42 0 -41 -14 -15 -15
-14 -25 0 -26 0 0 -30 0 -30 33 0 32 0 13 -9 13 -8 -7 -51 -7 -52 42 0 41 0 0
-34 0 -35 21 -6 20 -7 26 7 25 6 15 15 15 15 -5 25 -4 25 41 -6 42 -7 12 26
12 27 6 38 6 38 -23 6 -24 7 -27 0 -28 0 0 10 0 10 24 0 24 0 16 6 16 6 0 58
0 59 -55 12 -55 12 -5 19 -6 18 -36 0 -35 0 5 -29z"/>
</g>
</svg>
