<?xml version="1.0" standalone="no"?>
<!DOCTYPE svg PUBLIC "-//W3C//DTD SVG 20010904//EN"
 "http://www.w3.org/TR/2001/REC-SVG-20010904/DTD/svg10.dtd">
<svg version="1.0" xmlns="http://www.w3.org/2000/svg"
 width="40.000000pt" height="43.000000pt" viewBox="0 0 40.000000 43.000000"
 preserveAspectRatio="xMidYMid meet">
<metadata>
Created by potrace 1.16, written by Peter Selinger 2001-2019
</metadata>
<g transform="translate(0.000000,43.000000) scale(0.100000,-0.100000)"
fill="#000000" stroke="none">
<path d="M183 423 l-12 -4 5 -29 6 -28 -22 -12 -23 -12 -36 5 -36 4 3 -47 4
-47 -18 -17 -17 -18 -18 5 -19 5 0 -18 0 -18 18 5 18 4 12 -26 12 -26 0 -28 0
-29 16 -6 16 -6 34 0 34 0 0 -34 0 -35 20 -6 20 -6 15 15 15 15 0 25 0 26 45
0 45 0 0 54 0 54 16 6 16 6 18 0 18 0 5 13 5 14 -7 12 -8 12 -25 -6 -24 -6
-12 25 -12 26 6 28 6 27 -47 -3 -47 -4 -9 13 -9 14 0 27 0 27 -7 4 -8 4 -12
-4z"/>
</g>
</svg>
