<?xml version="1.0" standalone="no"?>
<!DOCTYPE svg PUBLIC "-//W3C//DTD SVG 20010904//EN"
 "http://www.w3.org/TR/2001/REC-SVG-20010904/DTD/svg10.dtd">
<svg version="1.0" xmlns="http://www.w3.org/2000/svg"
 width="42.000000pt" height="45.000000pt" viewBox="0 0 42.000000 45.000000"
 preserveAspectRatio="xMidYMid meet">
<metadata>
Created by potrace 1.16, written by Peter Selinger 2001-2019
</metadata>
<g transform="translate(0.000000,45.000000) scale(0.100000,-0.100000)"
fill="#000000" stroke="none">
<path d="M181 441 l-14 -9 7 -26 6 -25 -21 -11 -20 -12 -39 7 -39 7 6 -49 5
-49 -16 -16 -16 -16 -20 5 -20 5 0 -32 0 -32 19 5 19 5 11 -25 11 -24 0 -28 0
-29 16 -6 16 -6 34 0 34 0 0 -34 0 -34 16 -6 16 -6 15 0 14 0 15 14 14 15 0
25 0 26 45 0 45 0 0 54 0 54 16 6 16 6 18 0 18 0 6 16 6 17 -6 19 -6 20 -29
-4 -29 -5 -7 21 -7 21 3 32 2 32 -50 -6 -50 -6 -5 24 -5 24 -3 20 -3 20 -15 2
-15 3 -14 -9z"/>
</g>
</svg>
