<?xml version="1.0" standalone="no"?>
<!DOCTYPE svg PUBLIC "-//W3C//DTD SVG 20010904//EN"
 "http://www.w3.org/TR/2001/REC-SVG-20010904/DTD/svg10.dtd">
<svg version="1.0" xmlns="http://www.w3.org/2000/svg"
 width="37.000000pt" height="41.000000pt" viewBox="0 0 37.000000 41.000000"
 preserveAspectRatio="xMidYMid meet">
<metadata>
Created by potrace 1.16, written by Peter Selinger 2001-2019
</metadata>
<g transform="translate(0.000000,41.000000) scale(0.100000,-0.100000)"
fill="#000000" stroke="none">
<path d="M186 380 l6 -29 -26 -7 -27 -6 -29 6 -30 6 0 -41 0 -40 -14 -15 -15
-14 -25 0 -26 0 0 -20 0 -20 33 0 32 0 14 -9 14 -9 -7 -51 -7 -51 41 0 40 0 0
-34 0 -34 16 -6 17 -6 20 6 21 7 13 13 14 13 -7 27 -7 27 45 -6 46 -6 11 27
10 27 6 26 6 26 -23 7 -23 6 -26 0 -27 0 -5 14 -6 14 6 6 6 6 23 0 22 0 16 6
16 6 0 48 0 49 -55 12 -55 12 -5 19 -6 18 -24 0 -24 0 5 -30z"/>
</g>
</svg>
