<?xml version="1.0" standalone="no"?>
<!DOCTYPE svg PUBLIC "-//W3C//DTD SVG 20010904//EN"
 "http://www.w3.org/TR/2001/REC-SVG-20010904/DTD/svg10.dtd">
<svg version="1.0" xmlns="http://www.w3.org/2000/svg"
 width="36.000000pt" height="36.000000pt" viewBox="0 0 36.000000 36.000000"
 preserveAspectRatio="xMidYMid meet">
<metadata>
Created by potrace 1.16, written by Peter Selinger 2001-2019
</metadata>
<g transform="translate(0.000000,36.000000) scale(0.100000,-0.100000)"
fill="#000000" stroke="none">
<path d="M187 353 l-7 -6 0 -28 0 -27 -14 -5 -14 -5 -42 5 -43 6 6 -40 7 -41
-35 -6 -34 -7 -7 -35 -7 -36 14 -9 14 -9 23 0 22 0 0 -41 0 -40 14 -15 15 -14
25 0 25 0 26 12 25 11 6 24 6 23 14 0 14 0 0 -9 0 -10 16 -15 15 -16 35 0 34
0 0 18 0 17 -6 37 -7 38 -28 0 -29 0 0 11 0 10 14 15 15 14 30 0 31 0 0 54 0
55 -47 3 -48 3 -3 33 -3 32 -33 0 -33 0 -6 -7z"/>
</g>
</svg>
