<?xml version="1.0" standalone="no"?>
<!DOCTYPE svg PUBLIC "-//W3C//DTD SVG 20010904//EN"
 "http://www.w3.org/TR/2001/REC-SVG-20010904/DTD/svg10.dtd">
<svg version="1.0" xmlns="http://www.w3.org/2000/svg"
 width="34.000000pt" height="34.000000pt" viewBox="0 0 34.000000 34.000000"
 preserveAspectRatio="xMidYMid meet">
<metadata>
Created by potrace 1.16, written by Peter Selinger 2001-2019
</metadata>
<g transform="translate(0.000000,34.000000) scale(0.100000,-0.100000)"
fill="#000000" stroke="none">
<path d="M187 333 l-7 -6 0 -28 0 -28 -20 -6 -19 -6 -36 7 -36 6 7 -40 6 -39
-35 -7 -35 -7 -7 -26 -6 -26 13 -9 13 -8 23 5 22 5 0 -46 0 -45 14 -15 15 -14
15 0 15 0 26 12 25 11 6 24 6 23 24 0 24 0 0 -9 0 -10 16 -15 15 -16 26 0 26
0 -7 31 -6 32 0 13 0 14 -30 0 -30 0 0 21 0 20 16 16 16 16 29 0 29 0 0 43 0
43 -47 3 -48 3 -3 33 -3 32 -23 0 -23 0 -6 -7z"/>
</g>
</svg>
