<?xml version="1.0" standalone="no"?>
<!DOCTYPE svg PUBLIC "-//W3C//DTD SVG 20010904//EN"
 "http://www.w3.org/TR/2001/REC-SVG-20010904/DTD/svg10.dtd">
<svg version="1.0" xmlns="http://www.w3.org/2000/svg"
 width="41.000000pt" height="37.000000pt" viewBox="0 0 41.000000 37.000000"
 preserveAspectRatio="xMidYMid meet">
<metadata>
Created by potrace 1.16, written by Peter Selinger 2001-2019
</metadata>
<g transform="translate(0.000000,37.000000) scale(0.100000,-0.100000)"
fill="#000000" stroke="none">
<path d="M229 365 l0 0 -4 -33 -3 -33 -3 -4 -4 -3 -27 -7 -26 -7 -4 29 -3 28
-42 3 -43 3 0 -36 0 -36 -14 -15 -15 -14 -20 0 -21 0 0 -26 0 -26 20 -5 20 -5
11 -42 11 -41 12 -7 11 -8 38 0 37 0 0 -34 0 -34 25 -6 26 -7 14 15 15 15 0
19 0 20 33 7 32 8 7 11 8 11 -6 33 -6 32 33 0 34 0 11 8 11 7 6 23 6 24 -6 14
-5 14 -23 -6 -22 -5 -17 17 -18 17 4 38 3 37 -47 4 -48 3 -1 0z"/>
</g>
</svg>
