<?xml version="1.0" standalone="no"?>
<!DOCTYPE svg PUBLIC "-//W3C//DTD SVG 20010904//EN"
 "http://www.w3.org/TR/2001/REC-SVG-20010904/DTD/svg10.dtd">
<svg version="1.0" xmlns="http://www.w3.org/2000/svg"
 width="28.000000pt" height="41.000000pt" viewBox="0 0 28.000000 41.000000"
 preserveAspectRatio="xMidYMid meet">
<metadata>
Created by potrace 1.16, written by Peter Selinger 2001-2019
</metadata>
<g transform="translate(0.000000,41.000000) scale(0.100000,-0.100000)"
fill="#000000" stroke="none">
<path d="M96 387 l-6 -24 -25 -11 -26 -12 -19 0 -20 0 0 -49 0 -49 34 -6 35
-7 4 -12 4 -12 -13 -12 -13 -13 -25 0 -26 0 0 -61 0 -61 32 4 32 3 8 -33 9
-32 38 0 39 0 16 6 16 6 0 18 0 18 16 6 16 6 27 0 28 0 0 60 1 60 -33 0 -34 0
-6 19 -5 18 6 17 6 16 30 0 29 0 -3 58 -3 57 -29 -2 -29 -2 -18 10 -19 10 0
14 0 15 -34 0 -34 0 -6 -23z"/>
</g>
</svg>
