<?xml version="1.0" standalone="no"?>
<!DOCTYPE svg PUBLIC "-//W3C//DTD SVG 20010904//EN"
 "http://www.w3.org/TR/2001/REC-SVG-20010904/DTD/svg10.dtd">
<svg version="1.0" xmlns="http://www.w3.org/2000/svg"
 width="43.000000pt" height="39.000000pt" viewBox="0 0 43.000000 39.000000"
 preserveAspectRatio="xMidYMid meet">
<metadata>
Created by potrace 1.16, written by Peter Selinger 2001-2019
</metadata>
<g transform="translate(0.000000,39.000000) scale(0.100000,-0.100000)"
fill="#000000" stroke="none">
<path d="M225 378 l-6 -15 2 -9 1 -9 -1 -16 -1 -17 -19 -5 -20 -5 -3 27 -3 26
-52 3 -53 3 0 -36 0 -36 -14 -15 -15 -14 -20 0 -21 0 0 -36 0 -36 20 -5 20 -5
11 -42 11 -41 12 -7 11 -8 38 0 37 0 0 -35 0 -34 35 -7 34 -6 16 15 15 16 0
20 0 20 35 7 35 6 6 23 6 24 -7 20 -6 21 33 0 33 0 11 8 11 7 7 28 7 29 -7 20
-6 20 -25 -5 -24 -4 -16 15 -15 15 6 39 6 38 -37 0 -38 0 -22 6 -23 6 -5 -14z"/>
</g>
</svg>
