<?xml version="1.0" standalone="no"?>
<!DOCTYPE svg PUBLIC "-//W3C//DTD SVG 20010904//EN"
 "http://www.w3.org/TR/2001/REC-SVG-20010904/DTD/svg10.dtd">
<svg version="1.0" xmlns="http://www.w3.org/2000/svg"
 width="44.000000pt" height="30.000000pt" viewBox="0 0 44.000000 30.000000"
 preserveAspectRatio="xMidYMid meet">
<metadata>
Created by potrace 1.16, written by Peter Selinger 2001-2019
</metadata>
<g transform="translate(0.000000,30.000000) scale(0.100000,-0.100000)"
fill="#000000" stroke="none">
<path d="M252 269 l1 -31 -13 -8 -13 -8 -14 13 -13 14 0 20 0 21 -61 0 -61 0
4 -42 3 -42 -34 -7 -34 -7 -8 -14 -9 -13 0 -22 0 -22 16 -15 15 -16 34 0 35 0
-6 -30 -6 -29 15 -16 16 -15 39 0 39 0 21 19 22 18 0 17 0 16 9 0 9 0 6 -31 6
-30 47 3 48 3 -3 44 -3 44 13 9 13 8 28 0 27 0 0 35 0 35 -35 0 -35 0 -1 18
-2 17 2 31 2 31 -23 7 -23 6 -37 0 -37 0 1 -31z"/>
</g>
</svg>
