<?xml version="1.0" standalone="no"?>
<!DOCTYPE svg PUBLIC "-//W3C//DTD SVG 20010904//EN"
 "http://www.w3.org/TR/2001/REC-SVG-20010904/DTD/svg10.dtd">
<svg version="1.0" xmlns="http://www.w3.org/2000/svg"
 width="33.000000pt" height="33.000000pt" viewBox="0 0 33.000000 33.000000"
 preserveAspectRatio="xMidYMid meet">
<metadata>
Created by potrace 1.16, written by Peter Selinger 2001-2019
</metadata>
<g transform="translate(0.000000,33.000000) scale(0.100000,-0.100000)"
fill="#000000" stroke="none">
<path d="M126 315 l6 -14 -17 -17 -16 -16 -38 5 -38 5 -14 -9 -14 -9 13 0 12
0 0 -35 0 -34 15 5 16 6 19 -22 20 -23 0 -8 0 -7 -6 -16 -6 -16 -18 0 -18 0
-7 -32 -6 -33 -5 -17 -5 -18 43 0 43 0 14 9 13 9 -7 21 -6 21 20 0 21 0 1 -12
1 -13 -1 -17 -2 -17 25 -7 26 -6 33 6 34 6 -1 18 0 17 2 31 2 32 25 6 25 6 0
19 0 19 -30 6 -30 6 0 51 0 52 -30 -6 -30 -6 -15 5 -15 6 0 29 0 29 -30 0 -29
0 5 -15z"/>
</g>
</svg>
