<?xml version="1.0" standalone="no"?>
<!DOCTYPE svg PUBLIC "-//W3C//DTD SVG 20010904//EN"
 "http://www.w3.org/TR/2001/REC-SVG-20010904/DTD/svg10.dtd">
<svg version="1.0" xmlns="http://www.w3.org/2000/svg"
 width="35.000000pt" height="35.000000pt" viewBox="0 0 35.000000 35.000000"
 preserveAspectRatio="xMidYMid meet">
<metadata>
Created by potrace 1.16, written by Peter Selinger 2001-2019
</metadata>
<g transform="translate(0.000000,35.000000) scale(0.100000,-0.100000)"
fill="#000000" stroke="none">
<path d="M122 332 l5 -18 -14 -13 -14 -13 -33 6 -33 6 -17 -6 -16 -6 0 -14 0
-14 10 0 10 0 0 -36 0 -35 18 3 17 4 17 -19 17 -19 -6 -14 -5 -14 -18 0 -18 0
-11 -50 -11 -51 0 -9 0 -10 53 0 52 0 11 8 12 7 5 25 4 25 2 -31 1 -32 16 -6
16 -6 31 0 32 0 23 6 23 7 -2 16 -1 16 1 31 1 32 25 6 25 6 0 29 0 29 -30 6
-30 6 0 51 0 51 -32 -2 -33 -2 -12 1 -13 1 0 30 0 30 -41 0 -41 0 4 -18z"/>
</g>
</svg>
