<?xml version="1.0" standalone="no"?>
<!DOCTYPE svg PUBLIC "-//W3C//DTD SVG 20010904//EN"
 "http://www.w3.org/TR/2001/REC-SVG-20010904/DTD/svg10.dtd">
<svg version="1.0" xmlns="http://www.w3.org/2000/svg"
 width="29.000000pt" height="43.000000pt" viewBox="0 0 29.000000 43.000000"
 preserveAspectRatio="xMidYMid meet">
<metadata>
Created by potrace 1.16, written by Peter Selinger 2001-2019
</metadata>
<g transform="translate(0.000000,43.000000) scale(0.100000,-0.100000)"
fill="#000000" stroke="none">
<path d="M112 413 l4 -18 -20 -17 -19 -18 -24 0 -23 0 0 10 0 10 -15 0 -15 0
0 -61 0 -61 29 7 29 6 15 -16 16 -16 -6 -14 -5 -15 -22 -6 -21 -5 -13 -39 -12
-39 6 -15 6 -15 21 -3 21 -3 8 -32 9 -33 14 0 15 0 0 -10 0 -10 23 0 24 0 21
19 22 18 0 15 0 16 28 5 27 6 14 10 14 9 -13 61 -13 60 -18 6 -19 6 0 10 0 9
35 0 35 0 0 59 0 59 -14 5 -15 6 -35 -6 -36 -6 -6 32 -6 31 -35 0 -34 0 3 -17z"/>
</g>
</svg>
