<?xml version="1.0" standalone="no"?>
<!DOCTYPE svg PUBLIC "-//W3C//DTD SVG 20010904//EN"
 "http://www.w3.org/TR/2001/REC-SVG-20010904/DTD/svg10.dtd">
<svg version="1.0" xmlns="http://www.w3.org/2000/svg"
 width="26.000000pt" height="39.000000pt" viewBox="0 0 26.000000 39.000000"
 preserveAspectRatio="xMidYMid meet">
<metadata>
Created by potrace 1.16, written by Peter Selinger 2001-2019
</metadata>
<g transform="translate(0.000000,39.000000) scale(0.100000,-0.100000)"
fill="#000000" stroke="none">
<path d="M96 367 l-6 -24 -25 -11 -26 -12 -19 0 -20 0 0 -39 0 -39 34 -6 35
-7 6 -20 7 -20 -23 -20 -22 -19 -19 6 -18 5 0 -51 0 -52 24 6 24 6 16 -6 16
-6 -6 -9 -5 -9 6 -20 6 -20 32 0 32 0 14 9 14 9 -6 15 -6 15 22 6 22 6 25 0
25 0 1 50 0 50 -33 0 -33 0 -6 24 -6 25 7 20 6 21 30 0 30 0 -3 48 -3 47 -27
-3 -27 -3 -20 11 -21 11 0 14 0 15 -24 0 -24 0 -6 -23z"/>
</g>
</svg>
