<?xml version="1.0" standalone="no"?>
<!DOCTYPE svg PUBLIC "-//W3C//DTD SVG 20010904//EN"
 "http://www.w3.org/TR/2001/REC-SVG-20010904/DTD/svg10.dtd">
<svg version="1.0" xmlns="http://www.w3.org/2000/svg"
 width="27.000000pt" height="41.000000pt" viewBox="0 0 27.000000 41.000000"
 preserveAspectRatio="xMidYMid meet">
<metadata>
Created by potrace 1.16, written by Peter Selinger 2001-2019
</metadata>
<g transform="translate(0.000000,41.000000) scale(0.100000,-0.100000)"
fill="#000000" stroke="none">
<path d="M116 395 l6 -16 -22 -19 -23 -20 -33 0 -32 0 -5 13 -5 12 -1 -51 -1
-51 28 5 29 4 16 -17 17 -16 0 -14 0 -14 -16 -15 -15 -16 -12 0 -12 0 -11 -35
-11 -34 6 -9 6 -9 28 -7 28 -7 -6 -9 -6 -10 6 -20 6 -20 15 0 14 0 0 -10 0
-10 13 0 14 0 23 20 22 19 -6 16 -5 15 19 0 19 0 26 12 26 12 -6 24 -6 24 -6
29 -5 28 -19 6 -19 6 0 20 0 19 35 0 35 0 0 50 0 50 -12 1 -13 1 -38 -2 -37
-2 -6 31 -6 31 -24 0 -23 0 5 -15z"/>
</g>
</svg>
