<?xml version="1.0" standalone="no"?>
<!DOCTYPE svg PUBLIC "-//W3C//DTD SVG 20010904//EN"
 "http://www.w3.org/TR/2001/REC-SVG-20010904/DTD/svg10.dtd">
<svg version="1.0" xmlns="http://www.w3.org/2000/svg"
 width="42.000000pt" height="28.000000pt" viewBox="0 0 42.000000 28.000000"
 preserveAspectRatio="xMidYMid meet">
<metadata>
Created by potrace 1.16, written by Peter Selinger 2001-2019
</metadata>
<g transform="translate(0.000000,28.000000) scale(0.100000,-0.100000)"
fill="#000000" stroke="none">
<path d="M255 270 l6 -9 -7 -25 -6 -25 -19 -6 -19 -6 -15 15 -15 15 0 20 0 21
-51 0 -50 0 3 -42 3 -42 -34 -7 -34 -7 -8 -14 -9 -13 0 -12 0 -12 17 -16 16
-17 35 6 34 5 -5 -36 -6 -35 14 -14 14 -14 29 0 29 0 23 20 22 19 -6 16 -5 15
23 0 24 0 6 -31 6 -30 37 3 38 3 -3 44 -4 44 14 8 13 9 28 0 27 0 0 25 0 25
-34 0 -34 0 -6 25 -6 25 6 24 5 23 -23 7 -23 6 -28 0 -28 0 6 -10z"/>
</g>
</svg>
