<?xml version="1.0" standalone="no"?>
<!DOCTYPE svg PUBLIC "-//W3C//DTD SVG 20010904//EN"
 "http://www.w3.org/TR/2001/REC-SVG-20010904/DTD/svg10.dtd">
<svg version="1.0" xmlns="http://www.w3.org/2000/svg"
 width="36.000000pt" height="33.000000pt" viewBox="0 0 36.000000 33.000000"
 preserveAspectRatio="xMidYMid meet">
<metadata>
Created by potrace 1.16, written by Peter Selinger 2001-2019
</metadata>
<g transform="translate(0.000000,33.000000) scale(0.100000,-0.100000)"
fill="#000000" stroke="none">
<path d="M120 300 l0 -30 -25 -6 -25 -6 -35 6 -35 7 0 -45 0 -44 38 -9 37 -9
0 -19 0 -20 -22 3 -22 3 -10 -38 -11 -38 0 -13 0 -13 14 -15 15 -14 29 0 29 0
22 19 23 20 -7 20 -6 21 20 0 21 0 0 -19 0 -20 16 -15 15 -16 35 0 34 0 0 43
0 44 30 -5 30 -4 0 11 0 11 15 0 15 0 0 19 0 19 -6 16 -6 16 -34 0 -34 0 0 34
0 34 -15 6 -15 5 -26 -10 -27 -10 -18 6 -19 6 0 40 0 39 -20 0 -20 0 0 -30z"/>
</g>
</svg>
