<?xml version="1.0" standalone="no"?>
<!DOCTYPE svg PUBLIC "-//W3C//DTD SVG 20010904//EN"
 "http://www.w3.org/TR/2001/REC-SVG-20010904/DTD/svg10.dtd">
<svg version="1.0" xmlns="http://www.w3.org/2000/svg"
 width="38.000000pt" height="35.000000pt" viewBox="0 0 38.000000 35.000000"
 preserveAspectRatio="xMidYMid meet">
<metadata>
Created by potrace 1.16, written by Peter Selinger 2001-2019
</metadata>
<g transform="translate(0.000000,35.000000) scale(0.100000,-0.100000)"
fill="#000000" stroke="none">
<path d="M120 321 l0 -29 -17 -6 -16 -7 -44 7 -43 6 0 -55 0 -56 35 -7 35 -6
6 -9 5 -9 -25 0 -25 0 -10 -37 -11 -38 0 -23 0 -23 14 -15 15 -14 39 0 39 0
21 19 22 18 1 24 1 24 8 -29 9 -29 13 -8 13 -9 43 0 42 0 0 40 0 40 30 0 30 0
0 10 0 10 15 0 15 0 0 29 0 29 -6 16 -6 16 -34 0 -34 0 0 35 0 35 -23 5 -23 6
-24 -9 -25 -9 -12 4 -13 5 0 39 0 39 -30 0 -30 0 0 -29z"/>
</g>
</svg>
