<?xml version="1.0" standalone="no"?>
<!DOCTYPE svg PUBLIC "-//W3C//DTD SVG 20010904//EN"
 "http://www.w3.org/TR/2001/REC-SVG-20010904/DTD/svg10.dtd">
<svg version="1.0" xmlns="http://www.w3.org/2000/svg"
 width="35.000000pt" height="34.000000pt" viewBox="0 0 35.000000 34.000000"
 preserveAspectRatio="xMidYMid meet">
<metadata>
Created by potrace 1.16, written by Peter Selinger 2001-2019
</metadata>
<g transform="translate(0.000000,34.000000) scale(0.100000,-0.100000)"
fill="#000000" stroke="none">
<path d="M130 311 l0 -31 -26 -6 -25 -6 -40 5 -39 5 0 -32 0 -33 19 -21 18
-22 27 0 26 0 0 -12 0 -13 -8 -12 -7 -11 -27 -7 -27 -7 -6 -40 -7 -39 5 -6 5
-5 41 -5 40 -5 16 16 17 17 -6 14 -5 15 29 0 30 0 0 -29 0 -29 14 -5 15 -6 33
5 33 6 -3 48 -4 49 41 11 41 11 0 24 0 24 -15 -5 -15 -6 -26 6 -26 7 4 49 3
50 -18 -6 -17 -5 -36 11 -35 12 3 21 3 22 -22 3 -23 3 0 -30z"/>
</g>
</svg>
