<?xml version="1.0" standalone="no"?>
<!DOCTYPE svg PUBLIC "-//W3C//DTD SVG 20010904//EN"
 "http://www.w3.org/TR/2001/REC-SVG-20010904/DTD/svg10.dtd">
<svg version="1.0" xmlns="http://www.w3.org/2000/svg"
 width="37.000000pt" height="36.000000pt" viewBox="0 0 37.000000 36.000000"
 preserveAspectRatio="xMidYMid meet">
<metadata>
Created by potrace 1.16, written by Peter Selinger 2001-2019
</metadata>
<g transform="translate(0.000000,36.000000) scale(0.100000,-0.100000)"
fill="#000000" stroke="none">
<path d="M130 331 l0 -30 -21 -6 -21 -7 -44 7 -44 6 0 -44 0 -44 19 -21 18
-22 26 0 26 0 -5 -14 -6 -15 -28 -6 -28 -6 -6 -31 -6 -31 0 -22 0 -23 23 -6
22 -6 33 0 33 0 15 14 14 15 0 15 0 16 15 0 15 0 0 -29 0 -29 17 -6 16 -7 43
7 43 6 -6 48 -6 49 42 11 41 11 0 35 0 36 -27 -6 -28 -6 -14 9 -14 9 6 47 7
47 -27 -5 -26 -5 -27 9 -27 10 1 22 1 22 -32 3 -33 3 0 -30z"/>
</g>
</svg>
