<?xml version="1.0" standalone="no"?>
<!DOCTYPE svg PUBLIC "-//W3C//DTD SVG 20010904//EN"
 "http://www.w3.org/TR/2001/REC-SVG-20010904/DTD/svg10.dtd">
<svg version="1.0" xmlns="http://www.w3.org/2000/svg"
 width="36.000000pt" height="31.000000pt" viewBox="0 0 36.000000 31.000000"
 preserveAspectRatio="xMidYMid meet">
<metadata>
Created by potrace 1.16, written by Peter Selinger 2001-2019
</metadata>
<g transform="translate(0.000000,31.000000) scale(0.100000,-0.100000)"
fill="#000000" stroke="none">
<path d="M250 302 l0 -9 -31 5 -31 5 2 -24 2 -24 -1 -12 -1 -13 -15 0 -15 0 0
-10 0 -9 -15 5 -15 6 6 34 6 34 -71 0 -71 0 0 -50 0 -49 40 -11 40 -11 0 -14
0 -15 -23 0 -24 0 -11 -25 -12 -26 0 -39 0 -39 35 -7 35 -6 24 6 25 6 3 32 3
33 17 3 17 3 3 -33 3 -33 56 -3 57 -3 7 53 7 53 7 10 6 10 20 0 20 0 3 28 3
27 -23 0 -23 0 -15 10 -15 9 0 48 0 47 -17 4 -18 3 0 -9z"/>
</g>
</svg>
