<?xml version="1.0" standalone="no"?>
<!DOCTYPE svg PUBLIC "-//W3C//DTD SVG 20010904//EN"
 "http://www.w3.org/TR/2001/REC-SVG-20010904/DTD/svg10.dtd">
<svg version="1.0" xmlns="http://www.w3.org/2000/svg"
 width="34.000000pt" height="29.000000pt" viewBox="0 0 34.000000 29.000000"
 preserveAspectRatio="xMidYMid meet">
<metadata>
Created by potrace 1.16, written by Peter Selinger 2001-2019
</metadata>
<g transform="translate(0.000000,29.000000) scale(0.100000,-0.100000)"
fill="#000000" stroke="none">
<path d="M250 280 l0 -12 -31 7 -31 7 6 -20 6 -19 -6 -17 -6 -16 -13 0 -13 0
-4 -11 -4 -12 -23 8 -23 7 5 34 6 34 -60 0 -59 0 0 -40 0 -39 41 -11 40 -11
-3 -27 -3 -27 -21 3 -20 3 -12 -26 -12 -26 0 -29 0 -28 30 -7 30 -6 19 6 20 6
3 32 3 32 27 3 27 3 3 -33 3 -33 46 -3 47 -3 6 48 7 48 5 18 6 18 21 -3 22 -3
3 18 3 17 -23 0 -24 0 -19 13 -18 14 7 41 6 41 -10 6 -10 6 0 -11z"/>
</g>
</svg>
