<?xml version="1.0" standalone="no"?>
<!DOCTYPE svg PUBLIC "-//W3C//DTD SVG 20010904//EN"
 "http://www.w3.org/TR/2001/REC-SVG-20010904/DTD/svg10.dtd">
<svg version="1.0" xmlns="http://www.w3.org/2000/svg"
 width="32.000000pt" height="27.000000pt" viewBox="0 0 32.000000 27.000000"
 preserveAspectRatio="xMidYMid meet">
<metadata>
Created by potrace 1.16, written by Peter Selinger 2001-2019
</metadata>
<g transform="translate(0.000000,27.000000) scale(0.100000,-0.100000)"
fill="#000000" stroke="none">
<path d="M18 263 l-18 -4 0 -12 0 -12 6 -22 6 -21 34 -7 34 -6 0 -30 0 -30
-15 -15 -15 -15 -17 3 -17 3 -7 -40 -7 -40 12 -7 11 -8 30 0 30 0 14 9 14 9
-7 26 -6 26 24 0 25 0 6 -19 6 -19 35 -7 35 -6 13 -5 14 -5 6 45 7 46 9 0 9 0
15 16 16 15 0 15 0 14 -29 0 -29 0 -6 16 -6 16 0 34 0 34 -14 0 -13 0 -31 -6
-31 -6 6 -15 6 -15 -14 -9 -14 -9 -32 0 -32 0 -6 20 -6 20 5 9 6 9 -16 6 -16
6 -6 -1 -7 -1 -17 -5z"/>
</g>
</svg>
