<?xml version="1.0" standalone="no"?>
<!DOCTYPE svg PUBLIC "-//W3C//DTD SVG 20010904//EN"
 "http://www.w3.org/TR/2001/REC-SVG-20010904/DTD/svg10.dtd">
<svg version="1.0" xmlns="http://www.w3.org/2000/svg"
 width="34.000000pt" height="29.000000pt" viewBox="0 0 34.000000 29.000000"
 preserveAspectRatio="xMidYMid meet">
<metadata>
Created by potrace 1.16, written by Peter Selinger 2001-2019
</metadata>
<g transform="translate(0.000000,29.000000) scale(0.100000,-0.100000)"
fill="#000000" stroke="none">
<path d="M18 283 l-18 -4 0 -22 0 -22 6 -22 6 -21 34 -7 34 -6 0 -20 0 -20
-12 -12 -13 -12 -20 0 -20 0 -8 -49 -8 -49 13 -8 13 -9 37 0 36 0 16 6 16 6 0
29 0 29 9 0 10 0 5 -18 6 -19 51 -11 51 -12 8 0 8 0 6 45 7 45 9 0 9 0 15 16
16 15 0 25 0 24 -29 0 -29 0 -6 16 -6 16 0 34 0 34 -24 0 -23 0 -33 -6 -32 -7
5 -18 5 -18 -15 -5 -15 -6 -19 0 -19 0 -1 13 -1 12 2 14 2 14 -14 8 -13 9 -20
-1 -20 -1 -17 -5z"/>
</g>
</svg>
