<?xml version="1.0" standalone="no"?>
<!DOCTYPE svg PUBLIC "-//W3C//DTD SVG 20010904//EN"
 "http://www.w3.org/TR/2001/REC-SVG-20010904/DTD/svg10.dtd">
<svg version="1.0" xmlns="http://www.w3.org/2000/svg"
 width="26.000000pt" height="34.000000pt" viewBox="0 0 26.000000 34.000000"
 preserveAspectRatio="xMidYMid meet">
<metadata>
Created by potrace 1.16, written by Peter Selinger 2001-2019
</metadata>
<g transform="translate(0.000000,34.000000) scale(0.100000,-0.100000)"
fill="#000000" stroke="none">
<path d="M23 323 l-23 -4 0 -19 0 -18 6 -16 6 -16 18 0 18 0 16 6 16 6 0 34 0
34 -17 -1 -18 -2 -22 -4z M198 307 l-38 -10 6 -22 6 -22 -25 -6 -24 -7 -21 5
-21 4 6 -30 6 -29 -17 0 -16 0 0 -10 0 -10 -14 0 -13 0 -15 -52 -15 -53 41 -5
41 -5 3 -28 4 -29 26 7 27 7 4 3 3 4 3 33 2 32 43 -3 43 -3 -8 19 -8 18 -5 24
-5 24 -18 4 -18 5 -6 19 -6 19 16 16 16 16 24 -5 25 -4 0 43 0 44 -7 -1 -8 -2
-37 -10z"/>
</g>
</svg>
