<?xml version="1.0" standalone="no"?>
<!DOCTYPE svg PUBLIC "-//W3C//DTD SVG 20010904//EN"
 "http://www.w3.org/TR/2001/REC-SVG-20010904/DTD/svg10.dtd">
<svg version="1.0" xmlns="http://www.w3.org/2000/svg"
 width="28.000000pt" height="36.000000pt" viewBox="0 0 28.000000 36.000000"
 preserveAspectRatio="xMidYMid meet">
<metadata>
Created by potrace 1.16, written by Peter Selinger 2001-2019
</metadata>
<g transform="translate(0.000000,36.000000) scale(0.100000,-0.100000)"
fill="#000000" stroke="none">
<path d="M250 350 l0 -10 -46 -12 -45 -13 4 -22 4 -21 -16 -4 -16 -4 -18 4
-17 3 0 40 0 39 -19 0 -19 0 -31 -6 -31 -6 0 -28 0 -28 6 -16 6 -16 33 0 33 0
6 -16 6 -16 0 -4 0 -4 -15 0 -15 0 0 -10 0 -10 -14 0 -13 0 -17 -58 -16 -58 0
-7 0 -6 43 -3 42 -3 3 -27 3 -28 17 0 17 0 22 6 23 6 6 34 6 34 39 0 39 0 0
13 0 12 -14 40 -14 39 -13 5 -14 4 -7 10 -6 10 13 14 14 14 26 -7 25 -6 0 43
0 44 6 23 6 22 -16 0 -16 0 0 -10z"/>
</g>
</svg>
