<?xml version="1.0" standalone="no"?>
<!DOCTYPE svg PUBLIC "-//W3C//DTD SVG 20010904//EN"
 "http://www.w3.org/TR/2001/REC-SVG-20010904/DTD/svg10.dtd">
<svg version="1.0" xmlns="http://www.w3.org/2000/svg"
 width="33.000000pt" height="27.000000pt" viewBox="0 0 33.000000 27.000000"
 preserveAspectRatio="xMidYMid meet">
<metadata>
Created by potrace 1.16, written by Peter Selinger 2001-2019
</metadata>
<g transform="translate(0.000000,27.000000) scale(0.100000,-0.100000)"
fill="#000000" stroke="none">
<path d="M300 260 l-15 -10 -39 0 -38 0 6 -16 6 -17 -5 -18 -6 -19 -23 0 -23
0 -11 25 -11 25 5 15 6 15 -46 0 -46 0 0 -41 0 -40 -15 -16 -16 -15 -14 6 -15
5 0 -24 0 -25 15 0 14 0 11 -40 11 -40 -5 -9 -6 -9 23 -6 22 -6 27 0 27 0 16
16 16 17 -5 22 -6 23 14 5 14 6 6 -6 6 -6 0 -23 0 -22 6 -16 6 -16 37 0 36 0
23 6 22 6 0 44 0 44 -22 4 -23 5 -20 3 -20 3 -3 27 -3 27 33 -6 34 -5 12 26
12 27 0 29 0 30 -7 0 -8 0 -15 -10z"/>
</g>
</svg>
