<?xml version="1.0" standalone="no"?>
<!DOCTYPE svg PUBLIC "-//W3C//DTD SVG 20010904//EN"
 "http://www.w3.org/TR/2001/REC-SVG-20010904/DTD/svg10.dtd">
<svg version="1.0" xmlns="http://www.w3.org/2000/svg"
 width="35.000000pt" height="29.000000pt" viewBox="0 0 35.000000 29.000000"
 preserveAspectRatio="xMidYMid meet">
<metadata>
Created by potrace 1.16, written by Peter Selinger 2001-2019
</metadata>
<g transform="translate(0.000000,29.000000) scale(0.100000,-0.100000)"
fill="#000000" stroke="none">
<path d="M300 280 l-15 -10 -38 0 -38 0 1 -22 2 -23 -1 -12 -1 -13 -14 0 -14
0 -6 16 -6 16 0 24 0 24 -55 0 -55 0 0 -40 0 -41 -12 -13 -12 -13 -18 5 -18 4
0 -36 0 -36 14 0 15 0 7 -22 7 -23 -1 -26 -1 -27 22 -6 22 -6 37 0 37 0 15 16
16 15 1 27 1 27 5 -20 4 -20 5 -23 4 -22 48 0 47 0 23 6 22 6 0 54 0 54 -22 4
-23 5 -19 3 -19 3 -5 13 -4 12 35 0 34 0 11 25 12 26 0 39 0 40 -17 0 -18 0
-15 -10z"/>
</g>
</svg>
