<?xml version="1.0" standalone="no"?>
<!DOCTYPE svg PUBLIC "-//W3C//DTD SVG 20010904//EN"
 "http://www.w3.org/TR/2001/REC-SVG-20010904/DTD/svg10.dtd">
<svg version="1.0" xmlns="http://www.w3.org/2000/svg"
 width="39.000000pt" height="43.000000pt" viewBox="0 0 39.000000 43.000000"
 preserveAspectRatio="xMidYMid meet">
<metadata>
Created by potrace 1.16, written by Peter Selinger 2001-2019
</metadata>
<g transform="translate(0.000000,43.000000) scale(0.100000,-0.100000)"
fill="#000000" stroke="none">
<path d="M130 411 l0 -20 -17 -16 -17 -17 -48 5 -48 6 0 -54 0 -55 15 0 15 0
0 -10 0 -10 25 0 25 0 0 -14 0 -13 -29 -6 -28 -6 -7 -32 -6 -32 0 -22 0 -23
23 -6 22 -6 23 0 22 0 -6 -25 -6 -24 15 -16 16 -15 24 0 25 0 16 6 16 6 0 19
0 18 40 11 39 11 16 15 15 15 0 40 0 39 25 0 25 0 0 10 0 10 15 0 15 0 0 33 0
32 -9 14 -9 14 -27 -7 -28 -7 -8 13 -9 13 0 38 0 37 -24 0 -23 0 -31 6 -31 6
-6 19 -6 19 -25 0 -24 0 0 -19z"/>
</g>
</svg>
