<?xml version="1.0" standalone="no"?>
<!DOCTYPE svg PUBLIC "-//W3C//DTD SVG 20010904//EN"
 "http://www.w3.org/TR/2001/REC-SVG-20010904/DTD/svg10.dtd">
<svg version="1.0" xmlns="http://www.w3.org/2000/svg"
 width="37.000000pt" height="41.000000pt" viewBox="0 0 37.000000 41.000000"
 preserveAspectRatio="xMidYMid meet">
<metadata>
Created by potrace 1.16, written by Peter Selinger 2001-2019
</metadata>
<g transform="translate(0.000000,41.000000) scale(0.100000,-0.100000)"
fill="#000000" stroke="none">
<path d="M130 391 l0 -20 -17 -16 -16 -17 -49 4 -48 3 0 -42 0 -43 15 0 15 0
0 -11 0 -11 25 6 25 6 0 -29 0 -28 -29 -6 -29 -6 -7 -41 -7 -41 5 -6 5 -5 42
-5 42 -6 -5 -25 -5 -26 13 -13 14 -13 18 0 18 0 14 9 14 9 -6 15 -6 15 44 11
43 11 16 16 16 15 0 40 0 39 25 0 25 0 0 10 0 10 15 0 15 0 0 19 0 19 -6 16
-6 15 -30 -6 -30 -6 -9 14 -9 14 0 38 0 37 -24 0 -23 0 -31 6 -31 6 -6 19 -6
19 -15 0 -14 0 0 -19z"/>
</g>
</svg>
