<?xml version="1.0" standalone="no"?>
<!DOCTYPE svg PUBLIC "-//W3C//DTD SVG 20010904//EN"
 "http://www.w3.org/TR/2001/REC-SVG-20010904/DTD/svg10.dtd">
<svg version="1.0" xmlns="http://www.w3.org/2000/svg"
 width="38.000000pt" height="37.000000pt" viewBox="0 0 38.000000 37.000000"
 preserveAspectRatio="xMidYMid meet">
<metadata>
Created by potrace 1.16, written by Peter Selinger 2001-2019
</metadata>
<g transform="translate(0.000000,37.000000) scale(0.100000,-0.100000)"
fill="#000000" stroke="none">
<path d="M117 363 l-7 -6 0 -28 0 -27 -16 -6 -16 -6 -40 0 -40 0 6 -22 6 -23
0 -32 0 -33 29 0 29 0 4 -12 5 -13 -13 -12 -13 -13 -10 0 -11 0 0 -22 0 -22
-12 -33 -12 -34 14 -9 15 -10 32 0 32 0 15 16 16 15 0 20 0 19 19 0 19 0 6
-30 6 -30 37 0 38 0 23 6 22 6 0 14 0 14 10 0 10 0 0 20 0 20 25 12 25 11 6
24 6 23 -12 15 -12 14 -34 7 -34 6 0 38 0 38 -6 16 -6 16 -34 0 -33 0 -21 22
-20 22 0 8 0 8 -23 0 -24 0 -6 -7z"/>
</g>
</svg>
