<?xml version="1.0" standalone="no"?>
<!DOCTYPE svg PUBLIC "-//W3C//DTD SVG 20010904//EN"
 "http://www.w3.org/TR/2001/REC-SVG-20010904/DTD/svg10.dtd">
<svg version="1.0" xmlns="http://www.w3.org/2000/svg"
 width="40.000000pt" height="35.000000pt" viewBox="0 0 40.000000 35.000000"
 preserveAspectRatio="xMidYMid meet">
<metadata>
Created by potrace 1.16, written by Peter Selinger 2001-2019
</metadata>
<g transform="translate(0.000000,35.000000) scale(0.100000,-0.100000)"
fill="#000000" stroke="none">
<path d="M143 331 l5 -19 -9 -13 -8 -14 -56 1 -55 2 0 -52 0 -51 8 -10 7 -11
25 -11 25 -12 -30 0 -30 -1 -14 -9 -14 -9 6 -47 7 -46 14 -15 15 -14 44 0 45
0 16 6 16 6 0 28 0 29 9 6 10 6 12 -23 12 -23 11 -7 11 -8 27 0 26 0 16 6 16
6 0 28 0 28 31 6 30 6 15 14 14 15 0 30 0 30 -35 7 -35 6 -6 49 -7 49 -38 0
-39 0 -22 25 -22 25 -29 0 -29 0 5 -19z"/>
</g>
</svg>
