<?xml version="1.0" standalone="no"?>
<!DOCTYPE svg PUBLIC "-//W3C//DTD SVG 20010904//EN"
 "http://www.w3.org/TR/2001/REC-SVG-20010904/DTD/svg10.dtd">
<svg version="1.0" xmlns="http://www.w3.org/2000/svg"
 width="36.000000pt" height="35.000000pt" viewBox="0 0 36.000000 35.000000"
 preserveAspectRatio="xMidYMid meet">
<metadata>
Created by potrace 1.16, written by Peter Selinger 2001-2019
</metadata>
<g transform="translate(0.000000,35.000000) scale(0.100000,-0.100000)"
fill="#000000" stroke="none">
<path d="M117 343 l-7 -6 0 -28 0 -27 -16 -6 -16 -6 -36 0 -37 0 3 -45 4 -45
28 0 29 0 6 -20 6 -20 -15 -15 -15 -15 -9 0 -10 0 -4 -32 -5 -33 -7 -17 -7
-16 21 -7 21 -7 25 6 25 7 6 29 6 30 27 0 28 0 6 -30 6 -30 27 0 28 0 23 6 22
6 0 14 0 14 10 0 10 0 0 20 0 20 24 12 25 11 6 15 5 15 -11 13 -11 13 -34 7
-34 6 0 38 0 38 -6 16 -6 16 -34 0 -33 0 -21 22 -20 22 0 8 0 8 -13 0 -14 0
-6 -7z"/>
</g>
</svg>
