<?xml version="1.0" standalone="no"?>
<!DOCTYPE svg PUBLIC "-//W3C//DTD SVG 20010904//EN"
 "http://www.w3.org/TR/2001/REC-SVG-20010904/DTD/svg10.dtd">
<svg version="1.0" xmlns="http://www.w3.org/2000/svg"
 width="38.000000pt" height="33.000000pt" viewBox="0 0 38.000000 33.000000"
 preserveAspectRatio="xMidYMid meet">
<metadata>
Created by potrace 1.16, written by Peter Selinger 2001-2019
</metadata>
<g transform="translate(0.000000,33.000000) scale(0.100000,-0.100000)"
fill="#000000" stroke="none">
<path d="M146 313 l4 -18 -10 -15 -9 -15 -56 0 -55 0 0 -40 0 -40 8 -11 7 -11
23 -7 22 -7 0 -15 0 -14 -27 0 -28 0 -14 -9 -14 -9 7 -37 7 -38 14 -13 14 -14
38 0 38 0 12 8 11 7 4 30 3 30 17 3 18 3 12 -26 11 -25 23 -6 23 -6 21 7 22 7
-5 28 -6 28 35 5 34 6 15 15 15 15 0 20 0 20 -35 7 -35 6 -6 49 -7 49 -38 0
-39 0 -22 25 -22 25 -17 0 -17 0 4 -17z"/>
</g>
</svg>
