<?xml version="1.0" standalone="no"?>
<!DOCTYPE svg PUBLIC "-//W3C//DTD SVG 20010904//EN"
 "http://www.w3.org/TR/2001/REC-SVG-20010904/DTD/svg10.dtd">
<svg version="1.0" xmlns="http://www.w3.org/2000/svg"
 width="37.000000pt" height="41.000000pt" viewBox="0 0 37.000000 41.000000"
 preserveAspectRatio="xMidYMid meet">
<metadata>
Created by potrace 1.16, written by Peter Selinger 2001-2019
</metadata>
<g transform="translate(0.000000,41.000000) scale(0.100000,-0.100000)"
fill="#000000" stroke="none">
<path d="M200 391 l0 -20 -17 -16 -16 -17 -44 7 -43 6 0 -38 0 -38 -8 -13 -9
-13 -16 7 -16 6 -16 -15 -15 -16 0 -16 0 -16 15 -16 16 -15 12 5 13 5 13 -44
13 -44 37 0 36 0 23 -6 23 -7 -5 -23 -6 -22 6 -16 6 -16 20 0 19 0 16 15 15
16 -4 35 -4 36 35 -6 36 -5 12 7 12 7 -6 43 -6 43 -28 6 -29 6 0 23 0 24 23
-5 22 -5 13 8 13 9 6 51 6 51 -52 -6 -51 -6 -6 30 -6 29 -29 2 -29 2 0 -19z"/>
</g>
</svg>
