<?xml version="1.0" standalone="no"?>
<!DOCTYPE svg PUBLIC "-//W3C//DTD SVG 20010904//EN"
 "http://www.w3.org/TR/2001/REC-SVG-20010904/DTD/svg10.dtd">
<svg version="1.0" xmlns="http://www.w3.org/2000/svg"
 width="39.000000pt" height="43.000000pt" viewBox="0 0 39.000000 43.000000"
 preserveAspectRatio="xMidYMid meet">
<metadata>
Created by potrace 1.16, written by Peter Selinger 2001-2019
</metadata>
<g transform="translate(0.000000,43.000000) scale(0.100000,-0.100000)"
fill="#000000" stroke="none">
<path d="M200 411 l0 -20 -15 -15 -16 -15 -44 6 -44 6 -3 -44 -3 -44 -24 -3
-24 -4 -14 -13 -13 -14 0 -26 0 -26 14 -15 15 -14 14 0 14 0 13 -40 13 -40 36
0 36 0 22 -6 22 -6 -6 -14 -5 -14 6 -25 6 -25 31 0 30 0 15 14 14 15 0 35 0
35 33 -5 32 -5 13 9 13 9 -7 52 -7 52 -28 6 -29 6 0 8 0 9 23 0 22 0 13 9 14
8 5 63 6 62 -52 -7 -51 -7 -6 31 -6 31 -39 0 -39 0 0 -19z"/>
</g>
</svg>
