<?xml version="1.0" standalone="no"?>
<!DOCTYPE svg PUBLIC "-//W3C//DTD SVG 20010904//EN"
 "http://www.w3.org/TR/2001/REC-SVG-20010904/DTD/svg10.dtd">
<svg version="1.0" xmlns="http://www.w3.org/2000/svg"
 width="42.000000pt" height="33.000000pt" viewBox="0 0 42.000000 33.000000"
 preserveAspectRatio="xMidYMid meet">
<metadata>
Created by potrace 1.16, written by Peter Selinger 2001-2019
</metadata>
<g transform="translate(0.000000,33.000000) scale(0.100000,-0.100000)"
fill="#000000" stroke="none">
<path d="M205 309 l7 -20 -24 -21 -23 -20 -47 6 -48 5 0 -39 0 -38 -30 -7 -29
-6 -6 -20 -6 -19 15 -15 15 -15 23 -9 22 -8 -3 -42 -3 -41 141 0 141 0 0 18 0
17 11 37 10 38 24 6 25 6 0 14 0 14 -27 0 -28 0 -12 8 -11 7 -7 48 -7 47 -28
0 -27 0 -19 18 -20 17 4 18 3 17 -21 0 -21 0 6 -21z"/>
</g>
</svg>
