<?xml version="1.0" standalone="no"?>
<!DOCTYPE svg PUBLIC "-//W3C//DTD SVG 20010904//EN"
 "http://www.w3.org/TR/2001/REC-SVG-20010904/DTD/svg10.dtd">
<svg version="1.0" xmlns="http://www.w3.org/2000/svg"
 width="44.000000pt" height="35.000000pt" viewBox="0 0 44.000000 35.000000"
 preserveAspectRatio="xMidYMid meet">
<metadata>
Created by potrace 1.16, written by Peter Selinger 2001-2019
</metadata>
<g transform="translate(0.000000,35.000000) scale(0.100000,-0.100000)"
fill="#000000" stroke="none">
<path d="M202 328 l3 -23 -20 -18 -20 -18 -47 6 -48 7 0 -40 0 -40 -27 -7 -28
-7 -7 -11 -8 -12 0 -19 0 -19 22 -18 21 -19 14 0 13 0 0 -45 0 -45 150 0 150
0 0 18 0 17 11 37 10 38 24 6 25 6 0 24 0 24 -27 0 -28 0 -12 8 -11 7 -7 48
-7 47 -28 0 -29 0 -15 16 -16 15 0 20 0 19 -31 0 -30 0 3 -22z"/>
</g>
</svg>
