<?xml version="1.0" standalone="no"?>
<!DOCTYPE svg PUBLIC "-//W3C//DTD SVG 20010904//EN"
 "http://www.w3.org/TR/2001/REC-SVG-20010904/DTD/svg10.dtd">
<svg version="1.0" xmlns="http://www.w3.org/2000/svg"
 width="28.000000pt" height="35.000000pt" viewBox="0 0 28.000000 35.000000"
 preserveAspectRatio="xMidYMid meet">
<metadata>
Created by potrace 1.16, written by Peter Selinger 2001-2019
</metadata>
<g transform="translate(0.000000,35.000000) scale(0.100000,-0.100000)"
fill="#000000" stroke="none">
<path d="M41 342 l-43 -3 7 -32 7 -32 -1 -10 -1 -10 -6 -37 -6 -37 15 -16 16
-15 25 0 26 0 0 -21 0 -20 -20 6 -20 6 -15 -15 -15 -15 0 -45 0 -46 135 0 135
0 -1 138 -1 137 -5 -12 -5 -13 -33 0 -34 0 -11 39 -10 40 -20 6 -20 6 -10 -6
-10 -6 0 -33 0 -34 -22 -6 -23 -6 -28 0 -28 0 6 10 6 10 38 0 37 0 -4 35 -4
35 -7 3 -6 2 -44 -3z"/>
</g>
</svg>
