<?xml version="1.0" standalone="no"?>
<!DOCTYPE svg PUBLIC "-//W3C//DTD SVG 20010904//EN"
 "http://www.w3.org/TR/2001/REC-SVG-20010904/DTD/svg10.dtd">
<svg version="1.0" xmlns="http://www.w3.org/2000/svg"
 width="30.000000pt" height="37.000000pt" viewBox="0 0 30.000000 37.000000"
 preserveAspectRatio="xMidYMid meet">
<metadata>
Created by potrace 1.16, written by Peter Selinger 2001-2019
</metadata>
<g transform="translate(0.000000,37.000000) scale(0.100000,-0.100000)"
fill="#000000" stroke="none">
<path d="M44 363 l-41 -4 -1 -91 0 -91 13 -14 14 -13 28 -1 28 -2 -24 -4 -24
-5 -14 -13 -13 -14 0 -55 0 -56 145 0 145 0 0 145 0 145 -15 0 -15 0 0 -10 0
-10 -25 0 -24 0 -11 40 -11 40 -24 6 -25 6 -15 -5 -14 -6 -6 9 -6 10 -12 -2
-12 -1 -41 -4z"/>
</g>
</svg>
