<?xml version="1.0" standalone="no"?>
<!DOCTYPE svg PUBLIC "-//W3C//DTD SVG 20010904//EN"
 "http://www.w3.org/TR/2001/REC-SVG-20010904/DTD/svg10.dtd">
<svg version="1.0" xmlns="http://www.w3.org/2000/svg"
 width="34.000000pt" height="26.000000pt" viewBox="0 0 34.000000 26.000000"
 preserveAspectRatio="xMidYMid meet">
<metadata>
Created by potrace 1.16, written by Peter Selinger 2001-2019
</metadata>
<g transform="translate(0.000000,26.000000) scale(0.100000,-0.100000)"
fill="#000000" stroke="none">
<path d="M90 236 l0 -25 -12 -27 -12 -26 -34 5 -33 6 3 -27 3 -27 20 -3 20 -3
23 -5 22 -4 0 -50 0 -50 44 0 44 0 6 16 6 16 0 20 0 19 17 -3 17 -3 8 -33 9
-32 43 0 44 0 6 16 6 16 0 115 0 115 -16 -6 -16 -6 -29 0 -29 0 0 -19 0 -19
-6 -16 -6 -16 -32 0 -31 0 -12 8 -12 8 2 29 2 30 -32 3 -33 3 0 -25z"/>
</g>
</svg>
