<?xml version="1.0" standalone="no"?>
<!DOCTYPE svg PUBLIC "-//W3C//DTD SVG 20010904//EN"
 "http://www.w3.org/TR/2001/REC-SVG-20010904/DTD/svg10.dtd">
<svg version="1.0" xmlns="http://www.w3.org/2000/svg"
 width="36.000000pt" height="28.000000pt" viewBox="0 0 36.000000 28.000000"
 preserveAspectRatio="xMidYMid meet">
<metadata>
Created by potrace 1.16, written by Peter Selinger 2001-2019
</metadata>
<g transform="translate(0.000000,28.000000) scale(0.100000,-0.100000)"
fill="#000000" stroke="none">
<path d="M90 256 l0 -25 -12 -26 -11 -25 -34 6 -34 6 3 -38 3 -39 20 -3 20 -3
22 -5 23 -4 0 -50 0 -50 54 0 54 0 6 16 6 16 0 19 0 20 9 -5 8 -6 6 -30 7 -30
54 0 54 0 6 16 6 16 0 125 0 126 -31 -7 -31 -6 -24 0 -24 0 0 -19 0 -19 -6
-16 -6 -16 -22 0 -21 0 -10 8 -10 7 0 30 0 30 -42 3 -43 3 0 -25z"/>
</g>
</svg>
