<?xml version="1.0" standalone="no"?>
<!DOCTYPE svg PUBLIC "-//W3C//DTD SVG 20010904//EN"
 "http://www.w3.org/TR/2001/REC-SVG-20010904/DTD/svg10.dtd">
<svg version="1.0" xmlns="http://www.w3.org/2000/svg"
 width="44.000000pt" height="38.000000pt" viewBox="0 0 44.000000 38.000000"
 preserveAspectRatio="xMidYMid meet">
<metadata>
Created by potrace 1.16, written by Peter Selinger 2001-2019
</metadata>
<g transform="translate(0.000000,38.000000) scale(0.100000,-0.100000)"
fill="#000000" stroke="none">
<path d="M245 343 l6 -38 -10 -14 -9 -14 -26 7 -27 7 7 34 6 35 -61 0 -61 0 0
-40 0 -40 -29 0 -29 0 -6 -16 -6 -16 0 -25 0 -24 14 -15 15 -14 25 0 26 0 0
-40 0 -40 40 -6 40 -7 0 -21 0 -22 20 -17 20 -17 29 0 30 0 15 16 16 15 0 30
0 30 36 -7 36 -7 9 14 9 14 0 38 0 37 25 0 24 0 7 36 7 36 -14 9 -14 9 -17 0
-17 0 -6 43 -7 44 -32 11 -32 12 -32 0 -32 0 5 -37z"/>
</g>
</svg>
