<?xml version="1.0" standalone="no"?>
<!DOCTYPE svg PUBLIC "-//W3C//DTD SVG 20010904//EN"
 "http://www.w3.org/TR/2001/REC-SVG-20010904/DTD/svg10.dtd">
<svg version="1.0" xmlns="http://www.w3.org/2000/svg"
 width="42.000000pt" height="36.000000pt" viewBox="0 0 42.000000 36.000000"
 preserveAspectRatio="xMidYMid meet">
<metadata>
Created by potrace 1.16, written by Peter Selinger 2001-2019
</metadata>
<g transform="translate(0.000000,36.000000) scale(0.100000,-0.100000)"
fill="#000000" stroke="none">
<path d="M248 335 l4 -25 -6 -25 -6 -25 -28 0 -27 0 -14 9 -14 9 6 31 7 31
-50 0 -50 0 0 -44 0 -43 -26 5 -26 5 -9 -14 -9 -14 0 -18 0 -18 14 -15 15 -14
25 0 26 0 0 -39 0 -39 23 -6 22 -6 22 0 21 0 -5 -21 -6 -20 21 -20 21 -19 20
0 20 0 16 17 17 16 -6 30 -6 30 44 -6 44 -6 6 15 6 16 0 34 0 34 24 0 24 0 6
27 7 26 -13 8 -13 9 -17 0 -17 0 -6 43 -7 44 -32 11 -32 12 -21 0 -20 0 5 -25z"/>
</g>
</svg>
