<?xml version="1.0" standalone="no"?>
<!DOCTYPE svg PUBLIC "-//W3C//DTD SVG 20010904//EN"
 "http://www.w3.org/TR/2001/REC-SVG-20010904/DTD/svg10.dtd">
<svg version="1.0" xmlns="http://www.w3.org/2000/svg"
 width="27.000000pt" height="34.000000pt" viewBox="0 0 27.000000 34.000000"
 preserveAspectRatio="xMidYMid meet">
<metadata>
Created by potrace 1.16, written by Peter Selinger 2001-2019
</metadata>
<g transform="translate(0.000000,34.000000) scale(0.100000,-0.100000)"
fill="#000000" stroke="none">
<path d="M118 312 l4 -29 -31 -13 -31 -12 -30 4 -30 5 0 -33 0 -33 16 -16 17
-16 23 5 22 6 5 -13 4 -12 -5 -32 -5 -33 31 0 30 0 16 -6 16 -6 10 -39 11 -39
33 0 34 0 6 16 6 16 0 119 0 119 -27 -11 -28 -10 -32 6 -33 6 6 39 7 40 -25 0
-25 0 5 -28z"/>
</g>
</svg>
