<?xml version="1.0" standalone="no"?>
<!DOCTYPE svg PUBLIC "-//W3C//DTD SVG 20010904//EN"
 "http://www.w3.org/TR/2001/REC-SVG-20010904/DTD/svg10.dtd">
<svg version="1.0" xmlns="http://www.w3.org/2000/svg"
 width="36.000000pt" height="43.000000pt" viewBox="0 0 36.000000 43.000000"
 preserveAspectRatio="xMidYMid meet">
<metadata>
Created by potrace 1.16, written by Peter Selinger 2001-2019
</metadata>
<g transform="translate(0.000000,43.000000) scale(0.100000,-0.100000)"
fill="#000000" stroke="none">
<path d="M188 393 l-3 -38 -47 2 -48 3 0 -49 0 -49 -16 -6 -16 -6 -23 0 -24 0
-6 -10 -6 -10 6 -20 6 -20 27 0 27 0 22 -6 21 -6 -9 -31 -9 -32 0 -22 0 -23
35 0 35 0 0 -21 0 -20 14 -15 15 -14 24 0 25 0 16 6 16 6 0 38 0 39 43 -2 42
-2 3 138 3 139 -30 -7 -31 -6 -19 6 -20 6 -3 32 -3 32 -32 3 -32 3 -3 -38z"/>
</g>
</svg>
