<?xml version="1.0" standalone="no"?>
<!DOCTYPE svg PUBLIC "-//W3C//DTD SVG 20010904//EN"
 "http://www.w3.org/TR/2001/REC-SVG-20010904/DTD/svg10.dtd">
<svg version="1.0" xmlns="http://www.w3.org/2000/svg"
 width="30.000000pt" height="35.000000pt" viewBox="0 0 30.000000 35.000000"
 preserveAspectRatio="xMidYMid meet">
<metadata>
Created by potrace 1.16, written by Peter Selinger 2001-2019
</metadata>
<g transform="translate(0.000000,35.000000) scale(0.100000,-0.100000)"
fill="#000000" stroke="none">
<path d="M122 333 l4 -18 -19 -17 -20 -18 -37 6 -38 6 -7 -31 -7 -31 7 -30 7
-30 34 0 34 0 0 -15 0 -15 -27 0 -28 0 -14 -9 -14 -9 5 -52 5 -52 14 -9 14 -9
31 0 31 0 21 19 22 18 0 23 0 22 12 -4 12 -4 8 -32 9 -32 53 0 54 0 6 16 6 16
0 129 0 130 -22 -2 -23 -2 -27 1 -28 2 -6 25 -6 25 -35 0 -34 0 3 -17z"/>
</g>
</svg>
