<?xml version="1.0" standalone="no"?>
<!DOCTYPE svg PUBLIC "-//W3C//DTD SVG 20010904//EN"
 "http://www.w3.org/TR/2001/REC-SVG-20010904/DTD/svg10.dtd">
<svg version="1.0" xmlns="http://www.w3.org/2000/svg"
 width="38.000000pt" height="37.000000pt" viewBox="0 0 38.000000 37.000000"
 preserveAspectRatio="xMidYMid meet">
<metadata>
Created by potrace 1.16, written by Peter Selinger 2001-2019
</metadata>
<g transform="translate(0.000000,37.000000) scale(0.100000,-0.100000)"
fill="#000000" stroke="none">
<path d="M204 345 l7 -27 -22 -19 -22 -19 -38 6 -39 7 0 -40 0 -40 -31 -7 -30
-6 -15 -14 -14 -15 0 -30 0 -31 30 0 30 0 0 -20 0 -19 17 -37 18 -36 56 4 57
4 16 16 16 17 0 20 0 21 10 0 10 0 0 -24 0 -24 29 -12 29 -12 28 4 29 3 3 137
3 137 -50 -6 -50 -6 -5 24 -5 24 -3 20 -3 20 -34 3 -34 3 7 -26z"/>
</g>
</svg>
