<?xml version="1.0" standalone="no"?>
<!DOCTYPE svg PUBLIC "-//W3C//DTD SVG 20010904//EN"
 "http://www.w3.org/TR/2001/REC-SVG-20010904/DTD/svg10.dtd">
<svg version="1.0" xmlns="http://www.w3.org/2000/svg"
 width="36.000000pt" height="35.000000pt" viewBox="0 0 36.000000 35.000000"
 preserveAspectRatio="xMidYMid meet">
<metadata>
Created by potrace 1.16, written by Peter Selinger 2001-2019
</metadata>
<g transform="translate(0.000000,35.000000) scale(0.100000,-0.100000)"
fill="#000000" stroke="none">
<path d="M208 325 l4 -26 -23 -20 -24 -21 -37 6 -38 6 0 -43 0 -44 -29 0 -29
0 -16 -16 -16 -16 0 -20 0 -21 30 0 30 0 0 -20 0 -19 17 -37 18 -36 47 4 46 5
17 16 16 17 -6 20 -6 20 25 0 26 0 0 -24 0 -24 29 -12 29 -12 19 4 18 3 3 125
3 125 -50 -3 -50 -4 -5 24 -5 23 -3 20 -3 20 -21 3 -21 3 5 -26z"/>
</g>
</svg>
