<?xml version="1.0" standalone="no"?>
<!DOCTYPE svg PUBLIC "-//W3C//DTD SVG 20010904//EN"
 "http://www.w3.org/TR/2001/REC-SVG-20010904/DTD/svg10.dtd">
<svg version="1.0" xmlns="http://www.w3.org/2000/svg"
 width="34.000000pt" height="33.000000pt" viewBox="0 0 34.000000 33.000000"
 preserveAspectRatio="xMidYMid meet">
<metadata>
Created by potrace 1.16, written by Peter Selinger 2001-2019
</metadata>
<g transform="translate(0.000000,33.000000) scale(0.100000,-0.100000)"
fill="#000000" stroke="none">
<path d="M177 300 l-6 -30 -51 0 -50 0 0 -40 0 -40 -19 0 -20 0 -15 -16 -16
-15 0 -14 0 -13 29 -12 30 -12 12 8 12 7 -6 -50 -6 -50 38 -12 38 -11 16 0 15
0 6 16 6 16 0 19 0 19 14 0 15 0 6 -19 6 -19 38 -6 39 -6 16 -6 16 -6 0 131 0
131 -45 0 -45 0 -6 30 -6 30 -28 0 -27 0 -6 -30z"/>
</g>
</svg>
