<?xml version="1.0" standalone="no"?>
<!DOCTYPE svg PUBLIC "-//W3C//DTD SVG 20010904//EN"
 "http://www.w3.org/TR/2001/REC-SVG-20010904/DTD/svg10.dtd">
<svg version="1.0" xmlns="http://www.w3.org/2000/svg"
 width="28.000000pt" height="33.000000pt" viewBox="0 0 28.000000 33.000000"
 preserveAspectRatio="xMidYMid meet">
<metadata>
Created by potrace 1.16, written by Peter Selinger 2001-2019
</metadata>
<g transform="translate(0.000000,33.000000) scale(0.100000,-0.100000)"
fill="#000000" stroke="none">
<path d="M126 315 l6 -16 -23 -20 -24 -21 -36 6 -37 6 -6 -25 -6 -25 6 -25 6
-25 34 0 34 0 0 -25 0 -25 -27 0 -28 0 -14 -9 -14 -9 6 -42 5 -43 14 -8 13 -9
21 0 21 0 21 19 22 18 0 22 0 22 22 -3 22 -3 8 -32 9 -33 43 0 44 0 6 16 6 16
0 119 0 120 -9 -6 -10 -5 -41 6 -40 7 -6 23 -6 24 -24 0 -23 0 5 -15z"/>
</g>
</svg>
