<?xml version="1.0" standalone="no"?>
<!DOCTYPE svg PUBLIC "-//W3C//DTD SVG 20010904//EN"
 "http://www.w3.org/TR/2001/REC-SVG-20010904/DTD/svg10.dtd">
<svg version="1.0" xmlns="http://www.w3.org/2000/svg"
 width="29.000000pt" height="36.000000pt" viewBox="0 0 29.000000 36.000000"
 preserveAspectRatio="xMidYMid meet">
<metadata>
Created by potrace 1.16, written by Peter Selinger 2001-2019
</metadata>
<g transform="translate(0.000000,36.000000) scale(0.100000,-0.100000)"
fill="#000000" stroke="none">
<path d="M115 331 l6 -28 -30 -13 -30 -12 -30 7 -31 7 0 -45 0 -46 16 -15 15
-16 25 0 24 0 0 -40 0 -40 29 0 29 0 16 -6 16 -6 10 -39 11 -39 43 0 44 0 6
16 6 16 0 129 0 129 -9 0 -10 0 -26 -10 -26 -10 -22 5 -22 6 3 40 4 39 -37 0
-37 0 7 -29z"/>
</g>
</svg>
