<?xml version="1.0" standalone="no"?>
<!DOCTYPE svg PUBLIC "-//W3C//DTD SVG 20010904//EN"
 "http://www.w3.org/TR/2001/REC-SVG-20010904/DTD/svg10.dtd">
<svg version="1.0" xmlns="http://www.w3.org/2000/svg"
 width="36.000000pt" height="35.000000pt" viewBox="0 0 36.000000 35.000000"
 preserveAspectRatio="xMidYMid meet">
<metadata>
Created by potrace 1.16, written by Peter Selinger 2001-2019
</metadata>
<g transform="translate(0.000000,35.000000) scale(0.100000,-0.100000)"
fill="#000000" stroke="none">
<path d="M177 320 l-6 -30 -51 0 -50 0 0 -40 0 -40 -19 0 -20 0 -15 -16 -16
-15 0 -23 0 -23 25 -11 26 -12 15 0 15 0 -6 -43 -7 -43 40 -12 39 -12 26 0 25
0 6 16 6 16 1 21 0 22 11 -21 10 -22 32 -5 31 -6 33 -7 32 -6 0 141 0 141 -45
0 -45 0 -6 30 -6 30 -38 0 -37 0 -6 -30z"/>
</g>
</svg>
