<?xml version="1.0" standalone="no"?>
<!DOCTYPE svg PUBLIC "-//W3C//DTD SVG 20010904//EN"
 "http://www.w3.org/TR/2001/REC-SVG-20010904/DTD/svg10.dtd">
<svg version="1.0" xmlns="http://www.w3.org/2000/svg"
 width="27.000000pt" height="41.000000pt" viewBox="0 0 27.000000 41.000000"
 preserveAspectRatio="xMidYMid meet">
<metadata>
Created by potrace 1.16, written by Peter Selinger 2001-2019
</metadata>
<g transform="translate(0.000000,41.000000) scale(0.100000,-0.100000)"
fill="#000000" stroke="none">
<path d="M104 383 l-7 -28 -11 -7 -11 -8 -37 0 -38 0 0 -45 0 -45 30 0 30 0 0
-29 0 -30 -20 -6 -20 -6 -10 -41 -11 -40 5 -6 6 -5 37 -6 38 -7 -2 -29 -2 -29
12 -8 12 -8 31 0 32 0 6 16 6 16 0 19 0 19 29 0 29 0 16 6 16 6 0 129 0 129
-3 0 -2 0 -34 -10 -34 -10 -24 6 -23 6 6 39 7 39 -27 0 -26 0 -6 -27z"/>
</g>
</svg>
