<?xml version="1.0" standalone="no"?>
<!DOCTYPE svg PUBLIC "-//W3C//DTD SVG 20010904//EN"
 "http://www.w3.org/TR/2001/REC-SVG-20010904/DTD/svg10.dtd">
<svg version="1.0" xmlns="http://www.w3.org/2000/svg"
 width="34.000000pt" height="41.000000pt" viewBox="0 0 34.000000 41.000000"
 preserveAspectRatio="xMidYMid meet">
<metadata>
Created by potrace 1.16, written by Peter Selinger 2001-2019
</metadata>
<g transform="translate(0.000000,41.000000) scale(0.100000,-0.100000)"
fill="#000000" stroke="none">
<path d="M188 373 l-3 -38 -47 1 -48 0 0 -47 0 -47 -16 -6 -16 -6 -22 0 -23 0
-6 -6 -6 -6 6 -14 5 -14 27 0 26 0 23 -6 23 -7 -6 -25 -6 -24 -6 -29 -5 -29
41 0 42 0 -6 -20 -6 -20 15 -15 15 -15 14 0 15 0 16 6 16 6 0 40 0 39 43 -3
42 -3 3 126 3 126 -26 -4 -25 -5 -24 6 -25 6 -3 33 -3 32 -22 3 -22 3 -3 -38z"/>
</g>
</svg>
