<?xml version="1.0" standalone="no"?>
<!DOCTYPE svg PUBLIC "-//W3C//DTD SVG 20010904//EN"
 "http://www.w3.org/TR/2001/REC-SVG-20010904/DTD/svg10.dtd">
<svg version="1.0" xmlns="http://www.w3.org/2000/svg"
 width="29.000000pt" height="43.000000pt" viewBox="0 0 29.000000 43.000000"
 preserveAspectRatio="xMidYMid meet">
<metadata>
Created by potrace 1.16, written by Peter Selinger 2001-2019
</metadata>
<g transform="translate(0.000000,43.000000) scale(0.100000,-0.100000)"
fill="#000000" stroke="none">
<path d="M104 403 l-7 -28 -11 -7 -11 -8 -37 0 -38 0 0 -55 0 -55 30 0 30 0 0
-19 0 -20 -20 -6 -19 -6 -11 -37 -10 -37 0 -17 0 -18 23 -4 22 -5 20 -3 20 -3
-3 -29 -4 -29 14 -8 13 -9 41 0 42 0 6 16 6 16 0 19 0 19 29 0 29 0 16 6 16 6
0 140 0 140 -37 -7 -38 -7 -5 0 -5 0 -15 1 -16 1 4 40 4 40 -36 0 -36 0 -6
-27z"/>
</g>
</svg>
