<?xml version="1.0" standalone="no"?>
<!DOCTYPE svg PUBLIC "-//W3C//DTD SVG 20010904//EN"
 "http://www.w3.org/TR/2001/REC-SVG-20010904/DTD/svg10.dtd">
<svg version="1.0" xmlns="http://www.w3.org/2000/svg"
 width="27.000000pt" height="41.000000pt" viewBox="0 0 27.000000 41.000000"
 preserveAspectRatio="xMidYMid meet">
<metadata>
Created by potrace 1.16, written by Peter Selinger 2001-2019
</metadata>
<g transform="translate(0.000000,41.000000) scale(0.100000,-0.100000)"
fill="#000000" stroke="none">
<path d="M127 403 l-7 -6 0 -23 0 -24 -24 -6 -24 -6 -33 4 -34 3 -3 -53 -3
-52 30 -6 31 -6 0 -19 0 -19 -24 -6 -24 -6 -5 -41 -6 -42 12 -7 12 -8 26 0 27
0 10 -13 11 -13 -5 -21 -6 -20 28 -7 28 -8 4 11 4 11 13 0 13 0 6 25 7 26 -6
9 -6 10 45 0 46 0 0 133 0 132 -35 2 -35 2 -15 15 -15 15 0 10 0 11 -18 0 -19
0 -6 -7z"/>
</g>
</svg>
