<?xml version="1.0" standalone="no"?>
<!DOCTYPE svg PUBLIC "-//W3C//DTD SVG 20010904//EN"
 "http://www.w3.org/TR/2001/REC-SVG-20010904/DTD/svg10.dtd">
<svg version="1.0" xmlns="http://www.w3.org/2000/svg"
 width="34.000000pt" height="33.000000pt" viewBox="0 0 34.000000 33.000000"
 preserveAspectRatio="xMidYMid meet">
<metadata>
Created by potrace 1.16, written by Peter Selinger 2001-2019
</metadata>
<g transform="translate(0.000000,33.000000) scale(0.100000,-0.100000)"
fill="#000000" stroke="none">
<path d="M190 308 l0 -23 -9 -14 -9 -14 -28 6 -29 6 -15 5 -15 6 0 -43 0 -43
-17 -18 -17 -17 -27 7 -26 7 4 -19 3 -19 20 -3 20 -3 24 -5 23 -5 -4 -54 -5
-54 15 -6 14 -5 17 0 18 0 23 20 22 19 -6 16 -5 15 23 0 24 0 6 -24 6 -23 42
-7 41 -7 9 13 8 13 0 117 0 117 -37 10 -38 11 -17 0 -17 0 -6 20 -6 20 -15 0
-14 0 0 -22z"/>
</g>
</svg>
