<?xml version="1.0" standalone="no"?>
<!DOCTYPE svg PUBLIC "-//W3C//DTD SVG 20010904//EN"
 "http://www.w3.org/TR/2001/REC-SVG-20010904/DTD/svg10.dtd">
<svg version="1.0" xmlns="http://www.w3.org/2000/svg"
 width="36.000000pt" height="35.000000pt" viewBox="0 0 36.000000 35.000000"
 preserveAspectRatio="xMidYMid meet">
<metadata>
Created by potrace 1.16, written by Peter Selinger 2001-2019
</metadata>
<g transform="translate(0.000000,35.000000) scale(0.100000,-0.100000)"
fill="#000000" stroke="none">
<path d="M190 328 l0 -23 -9 -14 -9 -14 -32 12 -33 11 -13 0 -12 0 1 -43 2
-43 -14 -15 -15 -15 -29 4 -29 5 4 -29 3 -29 20 -3 20 -3 24 -5 24 -5 -7 -53
-6 -54 16 -6 16 -6 27 0 28 0 21 19 22 18 0 17 0 16 9 0 9 0 6 -24 6 -24 51
-7 51 -7 9 13 9 14 0 127 0 127 -37 10 -38 11 -17 0 -17 0 -6 20 -6 20 -25 0
-24 0 0 -22z"/>
</g>
</svg>
