<?xml version="1.0" standalone="no"?>
<!DOCTYPE svg PUBLIC "-//W3C//DTD SVG 20010904//EN"
 "http://www.w3.org/TR/2001/REC-SVG-20010904/DTD/svg10.dtd">
<svg version="1.0" xmlns="http://www.w3.org/2000/svg"
 width="30.000000pt" height="35.000000pt" viewBox="0 0 30.000000 35.000000"
 preserveAspectRatio="xMidYMid meet">
<metadata>
Created by potrace 1.16, written by Peter Selinger 2001-2019
</metadata>
<g transform="translate(0.000000,35.000000) scale(0.100000,-0.100000)"
fill="#000000" stroke="none">
<path d="M130 328 l0 -23 -9 -14 -9 -14 -50 7 -50 6 -7 -36 -6 -37 12 -29 12
-30 29 4 28 5 0 -14 0 -13 -19 0 -19 0 -16 -6 -16 -6 0 -50 0 -49 14 -15 15
-14 46 0 46 0 6 30 6 30 17 0 18 0 6 -30 6 -30 55 0 55 0 0 145 0 144 -49 -6
-50 -6 -8 34 -9 34 -27 3 -27 3 0 -23z"/>
</g>
</svg>
