<?xml version="1.0" standalone="no"?>
<!DOCTYPE svg PUBLIC "-//W3C//DTD SVG 20010904//EN"
 "http://www.w3.org/TR/2001/REC-SVG-20010904/DTD/svg10.dtd">
<svg version="1.0" xmlns="http://www.w3.org/2000/svg"
 width="34.000000pt" height="34.000000pt" viewBox="0 0 34.000000 34.000000"
 preserveAspectRatio="xMidYMid meet">
<metadata>
Created by potrace 1.16, written by Peter Selinger 2001-2019
</metadata>
<g transform="translate(0.000000,34.000000) scale(0.100000,-0.100000)"
fill="#000000" stroke="none">
<path d="M195 320 l6 -20 -16 -17 -17 -16 -49 -5 -49 -5 0 -33 0 -34 -30 0
-30 0 -6 -24 -6 -25 7 -20 6 -21 35 0 35 0 -7 -35 -6 -34 15 -16 16 -15 26 0
26 0 15 15 15 14 -6 24 -6 24 16 7 16 6 21 -11 20 -11 -7 -25 -6 -26 13 -8 13
-9 27 0 26 0 16 6 16 6 0 133 0 133 -20 -5 -20 -5 -30 12 -30 12 0 24 0 24
-26 0 -25 0 6 -20z"/>
</g>
</svg>
