<?xml version="1.0" standalone="no"?>
<!DOCTYPE svg PUBLIC "-//W3C//DTD SVG 20010904//EN"
 "http://www.w3.org/TR/2001/REC-SVG-20010904/DTD/svg10.dtd">
<svg version="1.0" xmlns="http://www.w3.org/2000/svg"
 width="36.000000pt" height="36.000000pt" viewBox="0 0 36.000000 36.000000"
 preserveAspectRatio="xMidYMid meet">
<metadata>
Created by potrace 1.16, written by Peter Selinger 2001-2019
</metadata>
<g transform="translate(0.000000,36.000000) scale(0.100000,-0.100000)"
fill="#000000" stroke="none">
<path d="M192 337 l4 -23 -14 -14 -15 -13 -48 -5 -49 -5 0 -33 0 -34 -29 0
-29 0 -6 -16 -6 -16 0 -23 0 -23 6 -16 6 -16 32 0 32 0 -4 -35 -4 -34 15 -16
16 -15 36 0 36 0 16 15 15 16 -5 25 -4 25 21 -3 21 -3 -3 -29 -4 -29 14 -8 13
-9 37 0 36 0 16 6 16 6 0 145 0 145 -24 -6 -25 -6 -25 12 -26 11 0 24 0 23
-36 0 -36 0 4 -23z"/>
</g>
</svg>
