<?xml version="1.0" standalone="no"?>
<!DOCTYPE svg PUBLIC "-//W3C//DTD SVG 20010904//EN"
 "http://www.w3.org/TR/2001/REC-SVG-20010904/DTD/svg10.dtd">
<svg version="1.0" xmlns="http://www.w3.org/2000/svg"
 width="29.000000pt" height="43.000000pt" viewBox="0 0 29.000000 43.000000"
 preserveAspectRatio="xMidYMid meet">
<metadata>
Created by potrace 1.16, written by Peter Selinger 2001-2019
</metadata>
<g transform="translate(0.000000,43.000000) scale(0.100000,-0.100000)"
fill="#000000" stroke="none">
<path d="M127 423 l-7 -6 0 -23 0 -24 -22 -5 -23 -5 -35 3 -35 2 -3 -63 -3
-62 31 -6 30 -7 0 -8 0 -9 -24 -6 -24 -6 -6 -50 -7 -50 5 -6 6 -5 37 -6 38 -6
3 -32 3 -32 37 -7 36 -7 4 12 4 11 13 0 14 0 7 35 6 35 39 0 39 0 0 144 0 144
-35 0 -34 0 -16 15 -15 16 0 10 0 11 -28 0 -29 0 -6 -7z"/>
</g>
</svg>
