<?xml version="1.0" standalone="no"?>
<!DOCTYPE svg PUBLIC "-//W3C//DTD SVG 20010904//EN"
 "http://www.w3.org/TR/2001/REC-SVG-20010904/DTD/svg10.dtd">
<svg version="1.0" xmlns="http://www.w3.org/2000/svg"
 width="37.000000pt" height="37.000000pt" viewBox="0 0 37.000000 37.000000"
 preserveAspectRatio="xMidYMid meet">
<metadata>
Created by potrace 1.16, written by Peter Selinger 2001-2019
</metadata>
<g transform="translate(0.000000,37.000000) scale(0.100000,-0.100000)"
fill="#000000" stroke="none">
<path d="M201 361 l-14 -9 5 -20 6 -20 -23 -12 -23 -13 -36 7 -36 7 0 -46 0
-45 -26 0 -25 0 -15 -14 -14 -15 0 -18 0 -18 8 -11 7 -10 16 -6 16 -6 6 -29 6
-28 19 -23 19 -22 36 0 36 0 26 12 25 11 0 29 0 28 10 0 10 0 -6 -39 -6 -40
37 -7 36 -6 32 9 32 9 3 146 3 147 -50 -6 -50 -6 -8 34 -9 34 -20 3 -19 2 -14
-9z"/>
</g>
</svg>
