<?xml version="1.0" standalone="no"?>
<!DOCTYPE svg PUBLIC "-//W3C//DTD SVG 20010904//EN"
 "http://www.w3.org/TR/2001/REC-SVG-20010904/DTD/svg10.dtd">
<svg version="1.0" xmlns="http://www.w3.org/2000/svg"
 width="27.000000pt" height="33.000000pt" viewBox="0 0 27.000000 33.000000"
 preserveAspectRatio="xMidYMid meet">
<metadata>
Created by potrace 1.16, written by Peter Selinger 2001-2019
</metadata>
<g transform="translate(0.000000,33.000000) scale(0.100000,-0.100000)"
fill="#000000" stroke="none">
<path d="M127 323 l-7 -6 0 -28 0 -28 -18 -5 -17 -6 -34 10 -34 9 -8 -5 -9 -5
0 -44 0 -45 25 -6 25 -6 15 6 15 5 0 -24 0 -24 -40 -11 -40 -11 0 -44 0 -44
35 -7 35 -6 25 6 25 6 0 30 0 30 25 0 25 0 0 -11 0 -10 13 -13 12 -13 29 -7
29 -7 8 13 9 13 0 111 0 111 -45 -14 -44 -15 -16 15 -15 16 0 35 0 36 -8 0 -9
0 -6 -7z"/>
</g>
</svg>
