<?xml version="1.0" standalone="no"?>
<!DOCTYPE svg PUBLIC "-//W3C//DTD SVG 20010904//EN"
 "http://www.w3.org/TR/2001/REC-SVG-20010904/DTD/svg10.dtd">
<svg version="1.0" xmlns="http://www.w3.org/2000/svg"
 width="35.000000pt" height="35.000000pt" viewBox="0 0 35.000000 35.000000"
 preserveAspectRatio="xMidYMid meet">
<metadata>
Created by potrace 1.16, written by Peter Selinger 2001-2019
</metadata>
<g transform="translate(0.000000,35.000000) scale(0.100000,-0.100000)"
fill="#000000" stroke="none">
<path d="M203 343 l-13 -5 6 -22 5 -22 -25 -13 -24 -13 -36 4 -36 4 0 -47 0
-46 -25 4 -24 5 -16 -16 -16 -16 6 -19 6 -19 18 -5 18 -4 6 -29 6 -29 19 -23
19 -22 26 0 26 0 26 12 27 12 -4 28 -5 28 25 0 25 0 -7 -40 -6 -39 33 -6 32
-6 28 10 27 11 0 132 0 133 -49 -3 -50 -4 -8 33 -9 33 -9 2 -10 2 -12 -5z"/>
</g>
</svg>
