<?xml version="1.0" standalone="no"?>
<!DOCTYPE svg PUBLIC "-//W3C//DTD SVG 20010904//EN"
 "http://www.w3.org/TR/2001/REC-SVG-20010904/DTD/svg10.dtd">
<svg version="1.0" xmlns="http://www.w3.org/2000/svg"
 width="29.000000pt" height="35.000000pt" viewBox="0 0 29.000000 35.000000"
 preserveAspectRatio="xMidYMid meet">
<metadata>
Created by potrace 1.16, written by Peter Selinger 2001-2019
</metadata>
<g transform="translate(0.000000,35.000000) scale(0.100000,-0.100000)"
fill="#000000" stroke="none">
<path d="M127 343 l-7 -6 0 -28 0 -27 -12 -5 -13 -4 -33 9 -34 9 -14 -5 -14
-5 0 -55 0 -54 16 -6 16 -6 24 0 24 0 0 -10 0 -9 -40 -11 -40 -11 0 -53 0 -54
22 -6 23 -6 32 0 31 0 16 6 16 6 0 29 0 29 15 0 15 0 0 -11 0 -10 14 -14 13
-14 38 -7 37 -7 9 14 9 14 0 123 0 122 -7 0 -8 0 -39 -14 -40 -14 -13 13 -13
14 0 35 0 36 -18 0 -19 0 -6 -7z"/>
</g>
</svg>
