<?xml version="1.0" standalone="no"?>
<!DOCTYPE svg PUBLIC "-//W3C//DTD SVG 20010904//EN"
 "http://www.w3.org/TR/2001/REC-SVG-20010904/DTD/svg10.dtd">
<svg version="1.0" xmlns="http://www.w3.org/2000/svg"
 width="29.000000pt" height="37.000000pt" viewBox="0 0 29.000000 37.000000"
 preserveAspectRatio="xMidYMid meet">
<metadata>
Created by potrace 1.16, written by Peter Selinger 2001-2019
</metadata>
<g transform="translate(0.000000,37.000000) scale(0.100000,-0.100000)"
fill="#000000" stroke="none">
<path d="M111 361 l-14 -9 5 -24 4 -24 -13 -12 -13 -13 -38 3 -37 3 -3 -39 -3
-39 5 -23 6 -23 32 -3 32 -3 -17 -17 -17 -16 -10 -4 -10 -3 -6 -51 -6 -51 23
-6 24 -7 36 0 37 0 6 16 6 16 0 25 0 25 13 -4 12 -5 3 -29 4 -29 11 -7 12 -8
41 0 42 0 6 16 6 16 0 130 0 130 -35 -6 -36 -7 -18 6 -18 5 5 27 5 26 -18 14
-19 13 -15 0 -16 0 -14 -9z"/>
</g>
</svg>
