<?xml version="1.0" standalone="no"?>
<!DOCTYPE svg PUBLIC "-//W3C//DTD SVG 20010904//EN"
 "http://www.w3.org/TR/2001/REC-SVG-20010904/DTD/svg10.dtd">
<svg version="1.0" xmlns="http://www.w3.org/2000/svg"
 width="28.000000pt" height="34.000000pt" viewBox="0 0 28.000000 34.000000"
 preserveAspectRatio="xMidYMid meet">
<metadata>
Created by potrace 1.16, written by Peter Selinger 2001-2019
</metadata>
<g transform="translate(0.000000,34.000000) scale(0.100000,-0.100000)"
fill="#000000" stroke="none">
<path d="M125 330 l-6 -9 7 -25 6 -24 -22 -7 -22 -7 -35 7 -36 6 -8 -13 -9
-13 0 -27 0 -27 19 -11 20 -10 21 0 21 0 -3 -17 -3 -18 -22 3 -21 3 -6 -18 -5
-18 -6 -46 -7 -46 24 -6 23 -7 16 0 16 0 23 20 22 19 -4 26 -5 26 21 -3 21 -3
3 -20 3 -20 5 -23 5 -23 47 3 47 3 3 138 3 137 -46 0 -45 0 0 10 0 10 -16 0
-16 0 5 20 5 20 -18 0 -19 0 -6 -10z"/>
</g>
</svg>
