<?xml version="1.0" standalone="no"?>
<!DOCTYPE svg PUBLIC "-//W3C//DTD SVG 20010904//EN"
 "http://www.w3.org/TR/2001/REC-SVG-20010904/DTD/svg10.dtd">
<svg version="1.0" xmlns="http://www.w3.org/2000/svg"
 width="30.000000pt" height="36.000000pt" viewBox="0 0 30.000000 36.000000"
 preserveAspectRatio="xMidYMid meet">
<metadata>
Created by potrace 1.16, written by Peter Selinger 2001-2019
</metadata>
<g transform="translate(0.000000,36.000000) scale(0.100000,-0.100000)"
fill="#000000" stroke="none">
<path d="M124 345 l-6 -15 5 -20 5 -19 -15 -5 -15 -6 -40 6 -40 7 -9 -14 -9
-14 0 -37 0 -37 12 -7 11 -7 31 -8 31 -7 -26 -1 -27 -1 -5 -14 -6 -15 -7 -59
-6 -59 23 -6 24 -7 26 0 26 0 21 19 22 18 0 27 0 27 10 -6 10 -6 0 -27 0 -27
9 -13 8 -13 54 3 54 3 3 148 3 147 -46 0 -45 0 0 10 0 10 -14 0 -14 0 5 20 5
20 -31 0 -32 0 -5 -15z"/>
</g>
</svg>
