<?xml version="1.0" standalone="no"?>
<!DOCTYPE svg PUBLIC "-//W3C//DTD SVG 20010904//EN"
 "http://www.w3.org/TR/2001/REC-SVG-20010904/DTD/svg10.dtd">
<svg version="1.0" xmlns="http://www.w3.org/2000/svg"
 width="32.000000pt" height="40.000000pt" viewBox="0 0 32.000000 40.000000"
 preserveAspectRatio="xMidYMid meet">
<metadata>
Created by potrace 1.16, written by Peter Selinger 2001-2019
</metadata>
<g transform="translate(0.000000,40.000000) scale(0.100000,-0.100000)"
fill="#000000" stroke="none">
<path d="M160 379 l0 -22 -22 -18 -21 -19 -24 0 -23 0 0 -45 0 -45 -35 0 -35
0 0 -19 0 -20 18 -5 19 -6 11 -51 12 -51 -5 -8 -5 -8 47 1 48 2 -3 -18 -3 -17
15 -15 15 -15 19 0 20 0 12 29 12 30 -8 12 -7 12 51 -6 52 -6 0 132 0 132 -49
-3 -50 -4 -9 34 -8 33 -22 3 -22 3 0 -22z"/>
</g>
</svg>
