<?xml version="1.0" standalone="no"?>
<!DOCTYPE svg PUBLIC "-//W3C//DTD SVG 20010904//EN"
 "http://www.w3.org/TR/2001/REC-SVG-20010904/DTD/svg10.dtd">
<svg version="1.0" xmlns="http://www.w3.org/2000/svg"
 width="27.000000pt" height="35.000000pt" viewBox="0 0 27.000000 35.000000"
 preserveAspectRatio="xMidYMid meet">
<metadata>
Created by potrace 1.16, written by Peter Selinger 2001-2019
</metadata>
<g transform="translate(0.000000,35.000000) scale(0.100000,-0.100000)"
fill="#000000" stroke="none">
<path d="M111 341 l-13 -9 7 -21 6 -21 -15 -16 -16 -16 -38 4 -37 3 -3 -29 -4
-28 6 -24 6 -24 30 0 30 0 0 -14 0 -15 -15 -14 -15 -15 -9 -4 -10 -3 -7 -41
-6 -41 23 -6 24 -7 26 0 27 0 6 16 6 16 0 25 0 24 23 -3 22 -3 3 -30 4 -30 11
-7 12 -8 31 0 32 0 6 16 6 16 0 119 0 119 -30 -6 -29 -6 -26 6 -26 7 6 29 6
29 -20 10 -20 11 -3 0 -3 0 -14 -9z"/>
</g>
</svg>
