<?xml version="1.0" standalone="no"?>
<!DOCTYPE svg PUBLIC "-//W3C//DTD SVG 20010904//EN"
 "http://www.w3.org/TR/2001/REC-SVG-20010904/DTD/svg10.dtd">
<svg version="1.0" xmlns="http://www.w3.org/2000/svg"
 width="26.000000pt" height="28.000000pt" viewBox="0 0 26.000000 28.000000"
 preserveAspectRatio="xMidYMid meet">
<metadata>
Created by potrace 1.16, written by Peter Selinger 2001-2019
</metadata>
<g transform="translate(0.000000,28.000000) scale(0.100000,-0.100000)"
fill="#000000" stroke="none">
<path d="M165 269 l7 -10 -12 -30 -12 -29 -20 0 -19 0 -15 15 -15 15 3 17 3
18 -32 3 -32 3 -11 -21 -11 -21 6 -19 6 -19 29 -6 30 -7 0 -33 0 -33 -16 -6
-16 -6 -19 0 -19 0 0 -50 0 -50 38 0 37 1 18 14 19 14 -6 19 -7 20 17 6 16 6
8 -5 7 -5 6 -30 7 -30 44 0 44 0 6 16 6 16 0 113 0 113 -22 6 -23 6 -28 0 -28
0 6 -11z"/>
</g>
</svg>
