<?xml version="1.0" standalone="no"?>
<!DOCTYPE svg PUBLIC "-//W3C//DTD SVG 20010904//EN"
 "http://www.w3.org/TR/2001/REC-SVG-20010904/DTD/svg10.dtd">
<svg version="1.0" xmlns="http://www.w3.org/2000/svg"
 width="29.000000pt" height="37.000000pt" viewBox="0 0 29.000000 37.000000"
 preserveAspectRatio="xMidYMid meet">
<metadata>
Created by potrace 1.16, written by Peter Selinger 2001-2019
</metadata>
<g transform="translate(0.000000,37.000000) scale(0.100000,-0.100000)"
fill="#000000" stroke="none">
<path d="M166 336 l6 -35 -15 -16 -16 -15 -10 0 -11 0 -1 13 -1 12 2 26 1 26
-23 7 -23 6 -37 0 -38 0 0 -51 0 -51 25 6 26 7 14 -15 15 -15 0 -14 0 -15 -27
-7 -28 -7 -7 -11 -8 -12 0 -52 0 -53 40 0 40 0 0 -29 0 -29 23 -6 22 -6 17 0
17 0 7 23 7 22 11 7 11 8 23 0 23 0 15 14 14 15 0 35 0 35 -12 26 -11 25 -24
0 -23 0 0 15 0 15 28 0 29 0 11 25 12 26 0 34 0 34 -17 4 -18 5 -48 1 -48 2 7
-35z"/>
</g>
</svg>
