<?xml version="1.0" standalone="no"?>
<!DOCTYPE svg PUBLIC "-//W3C//DTD SVG 20010904//EN"
 "http://www.w3.org/TR/2001/REC-SVG-20010904/DTD/svg10.dtd">
<svg version="1.0" xmlns="http://www.w3.org/2000/svg"
 width="27.000000pt" height="35.000000pt" viewBox="0 0 27.000000 35.000000"
 preserveAspectRatio="xMidYMid meet">
<metadata>
Created by potrace 1.16, written by Peter Selinger 2001-2019
</metadata>
<g transform="translate(0.000000,35.000000) scale(0.100000,-0.100000)"
fill="#000000" stroke="none">
<path d="M168 315 l4 -34 -15 -16 -16 -15 -19 0 -20 0 -6 16 -6 16 6 22 5 23
-23 7 -23 6 -27 0 -28 0 0 -39 0 -38 25 4 24 5 16 -15 15 -16 0 -24 0 -25 -27
-7 -28 -7 -7 -11 -8 -12 0 -42 0 -43 8 1 7 1 33 -1 32 -1 0 -29 0 -29 27 -6
26 -7 8 13 9 13 0 11 0 12 16 6 16 6 20 0 19 0 15 14 14 15 0 25 0 25 -12 26
-12 26 -20 -3 -21 -3 -3 28 -3 27 29 0 29 0 11 25 12 26 0 24 0 25 -7 1 -8 0
-46 5 -45 4 4 -35z"/>
</g>
</svg>
