<?xml version="1.0" standalone="no"?>
<!DOCTYPE svg PUBLIC "-//W3C//DTD SVG 20010904//EN"
 "http://www.w3.org/TR/2001/REC-SVG-20010904/DTD/svg10.dtd">
<svg version="1.0" xmlns="http://www.w3.org/2000/svg"
 width="28.000000pt" height="28.000000pt" viewBox="0 0 28.000000 28.000000"
 preserveAspectRatio="xMidYMid meet">
<metadata>
Created by potrace 1.16, written by Peter Selinger 2001-2019
</metadata>
<g transform="translate(0.000000,28.000000) scale(0.100000,-0.100000)"
fill="#000000" stroke="none">
<path d="M195 271 l6 -10 -7 -26 -6 -25 -13 0 -13 0 -4 -11 -4 -11 -28 8 -28
7 6 20 5 21 -11 13 -10 13 -29 0 -29 0 0 -41 0 -41 21 5 22 6 13 -14 14 -14 0
-16 0 -16 -16 -17 -17 -16 -33 0 -34 0 3 -43 2 -44 37 -11 36 -11 26 7 26 6
-2 33 -3 32 22 3 21 3 -5 -20 -5 -21 16 0 16 0 0 -10 0 -10 45 0 45 0 0 128 0
129 -46 1 -45 2 6 -9z"/>
</g>
</svg>
