<?xml version="1.0" standalone="no"?>
<!DOCTYPE svg PUBLIC "-//W3C//DTD SVG 20010904//EN"
 "http://www.w3.org/TR/2001/REC-SVG-20010904/DTD/svg10.dtd">
<svg version="1.0" xmlns="http://www.w3.org/2000/svg"
 width="30.000000pt" height="30.000000pt" viewBox="0 0 30.000000 30.000000"
 preserveAspectRatio="xMidYMid meet">
<metadata>
Created by potrace 1.16, written by Peter Selinger 2001-2019
</metadata>
<g transform="translate(0.000000,30.000000) scale(0.100000,-0.100000)"
fill="#000000" stroke="none">
<path d="M191 283 l1 -18 -1 -17 -1 -18 -15 0 -15 0 0 -9 0 -9 -19 5 -19 5 5
19 5 19 -12 15 -12 15 -39 0 -39 0 0 -50 0 -50 19 0 19 0 16 -6 16 -6 0 -10 0
-9 -16 -16 -16 -16 -34 1 -34 1 1 -54 2 -54 30 -10 30 -11 31 0 31 0 14 9 14
9 -5 26 -5 26 8 6 9 5 0 -20 0 -21 15 0 15 0 0 -10 0 -10 55 0 55 0 0 140 0
140 -56 0 -55 0 2 -17z"/>
</g>
</svg>
