<?xml version="1.0" standalone="no"?>
<!DOCTYPE svg PUBLIC "-//W3C//DTD SVG 20010904//EN"
 "http://www.w3.org/TR/2001/REC-SVG-20010904/DTD/svg10.dtd">
<svg version="1.0" xmlns="http://www.w3.org/2000/svg"
 width="28.000000pt" height="32.000000pt" viewBox="0 0 28.000000 32.000000"
 preserveAspectRatio="xMidYMid meet">
<metadata>
Created by potrace 1.16, written by Peter Selinger 2001-2019
</metadata>
<g transform="translate(0.000000,32.000000) scale(0.100000,-0.100000)"
fill="#000000" stroke="none">
<path d="M10 259 l0 -61 34 6 34 7 5 -13 4 -13 -19 -16 -18 -16 -25 5 -25 4 0
-60 0 -61 41 -11 42 -11 23 5 23 6 4 33 4 32 1 -33 2 -33 15 -16 16 -15 37 7
37 7 18 9 18 10 -3 142 -3 142 -132 3 -133 3 0 -62z"/>
</g>
</svg>
