<?xml version="1.0" standalone="no"?>
<!DOCTYPE svg PUBLIC "-//W3C//DTD SVG 20010904//EN"
 "http://www.w3.org/TR/2001/REC-SVG-20010904/DTD/svg10.dtd">
<svg version="1.0" xmlns="http://www.w3.org/2000/svg"
 width="30.000000pt" height="30.000000pt" viewBox="0 0 30.000000 30.000000"
 preserveAspectRatio="xMidYMid meet">
<metadata>
Created by potrace 1.16, written by Peter Selinger 2001-2019
</metadata>
<g transform="translate(0.000000,30.000000) scale(0.100000,-0.100000)"
fill="#000000" stroke="none">
<path d="M210 261 l0 -39 -16 -6 -16 -6 -15 0 -14 0 -15 15 -15 15 6 20 6 20
-50 0 -51 0 0 -45 0 -44 36 -7 35 -6 -3 -17 -4 -16 -42 2 -42 2 -6 -23 -5 -22
10 -28 11 -28 14 -14 15 -14 28 0 28 0 11 8 11 7 7 28 6 27 26 0 27 0 -7 -39
-6 -39 23 -6 23 -5 37 10 37 10 0 130 0 129 -26 10 -25 10 -20 0 -19 0 0 -39z"/>
</g>
</svg>
