<?xml version="1.0" standalone="no"?>
<!DOCTYPE svg PUBLIC "-//W3C//DTD SVG 20010904//EN"
 "http://www.w3.org/TR/2001/REC-SVG-20010904/DTD/svg10.dtd">
<svg version="1.0" xmlns="http://www.w3.org/2000/svg"
 width="32.000000pt" height="32.000000pt" viewBox="0 0 32.000000 32.000000"
 preserveAspectRatio="xMidYMid meet">
<metadata>
Created by potrace 1.16, written by Peter Selinger 2001-2019
</metadata>
<g transform="translate(0.000000,32.000000) scale(0.100000,-0.100000)"
fill="#000000" stroke="none">
<path d="M210 281 l0 -40 -20 -6 -20 -6 -13 12 -13 13 4 23 4 23 -61 0 -61 0
0 -55 0 -54 35 -7 35 -6 -6 -9 -5 -9 -39 6 -38 6 -7 -22 -7 -22 6 -33 6 -32
19 -22 18 -21 39 0 39 0 11 8 11 7 7 28 6 27 15 0 15 0 -6 -39 -6 -39 30 -7
30 -6 41 11 41 11 0 148 0 148 -55 2 -55 1 0 -39z"/>
</g>
</svg>
