<?xml version="1.0" standalone="no"?>
<!DOCTYPE svg PUBLIC "-//W3C//DTD SVG 20010904//EN"
 "http://www.w3.org/TR/2001/REC-SVG-20010904/DTD/svg10.dtd">
<svg version="1.0" xmlns="http://www.w3.org/2000/svg"
 width="26.000000pt" height="30.000000pt" viewBox="0 0 26.000000 30.000000"
 preserveAspectRatio="xMidYMid meet">
<metadata>
Created by potrace 1.16, written by Peter Selinger 2001-2019
</metadata>
<g transform="translate(0.000000,30.000000) scale(0.100000,-0.100000)"
fill="#000000" stroke="none">
<path d="M10 251 l0 -50 34 6 34 5 7 -21 7 -22 -23 -20 -23 -20 -23 6 -23 5 0
-49 0 -50 39 -11 39 -10 15 6 16 6 3 31 3 30 12 5 13 4 0 -37 0 -36 15 -16 15
-15 43 14 42 13 0 135 0 135 -122 3 -123 3 0 -50z"/>
</g>
</svg>
