<?xml version="1.0" standalone="no"?>
<!DOCTYPE svg PUBLIC "-//W3C//DTD SVG 20010904//EN"
 "http://www.w3.org/TR/2001/REC-SVG-20010904/DTD/svg10.dtd">
<svg version="1.0" xmlns="http://www.w3.org/2000/svg"
 width="26.000000pt" height="27.000000pt" viewBox="0 0 26.000000 27.000000"
 preserveAspectRatio="xMidYMid meet">
<metadata>
Created by potrace 1.16, written by Peter Selinger 2001-2019
</metadata>
<g transform="translate(0.000000,27.000000) scale(0.100000,-0.100000)"
fill="#000000" stroke="none">
<path d="M0 133 l0 -133 44 0 45 0 15 16 16 15 0 31 0 30 13 -5 12 -4 -3 -20
-3 -19 26 -12 26 -12 30 0 29 0 -6 28 -7 27 -9 18 -9 17 -13 0 -14 0 -6 16 -6
16 0 9 0 9 15 0 15 0 0 10 0 10 25 0 25 0 0 28 0 27 -8 13 -8 12 -32 -6 -32
-6 6 -22 5 -22 -27 -12 -26 -13 -19 6 -19 6 0 40 0 40 -50 -3 -50 -3 0 -132z"/>
</g>
</svg>
