<?xml version="1.0" standalone="no"?>
<!DOCTYPE svg PUBLIC "-//W3C//DTD SVG 20010904//EN"
 "http://www.w3.org/TR/2001/REC-SVG-20010904/DTD/svg10.dtd">
<svg version="1.0" xmlns="http://www.w3.org/2000/svg"
 width="28.000000pt" height="29.000000pt" viewBox="0 0 28.000000 29.000000"
 preserveAspectRatio="xMidYMid meet">
<metadata>
Created by potrace 1.16, written by Peter Selinger 2001-2019
</metadata>
<g transform="translate(0.000000,29.000000) scale(0.100000,-0.100000)"
fill="#000000" stroke="none">
<path d="M0 144 l0 -144 55 0 54 0 20 21 19 21 20 -11 21 -11 41 0 42 0 -7 37
-7 38 -9 17 -10 18 -13 0 -14 0 -6 15 -5 15 14 0 15 0 0 10 0 10 25 0 25 0 0
38 0 37 -9 14 -9 13 -42 -7 -42 -7 4 -23 5 -23 -21 -10 -21 -9 -12 4 -13 5 0
39 0 39 -60 -1 -60 -2 0 -143z"/>
</g>
</svg>
