<?xml version="1.0" encoding="utf-8"?>
<svg baseProfile="full" height="0" version="1.1" width="0" xmlns="http://www.w3.org/2000/svg" xmlns:ev="http://www.w3.org/2001/xml-events" xmlns:xlink="http://www.w3.org/1999/xlink"><defs><clipPath id="piece-mask-11-0" shape-rendering="crispEdges"><path d="M64 683 l-41 -4 -6 -107 -5 -107 8 -8 8 -9 38 11 39 11 52 0 52 0 24 -11 25 -11 11 -25 11 -24 0 -38 0 -38 -19 -21 -18 -22 -11 0 -10 0 -4 -10 -3 -11 -40 -14 -40 -14 -32 -1 -33 0 0 10 0 10 -30 0 -30 0 -6 -26 -7 -26 8 -72 7 -71 2 -27 1 -28 393 0 393 0 -15 29 -15 29 -12 74 -11 73 -10 28 -10 27 -20 0 -19 0 -19 -10 -20 -10 -25 6 -25 6 0 14 0 14 -10 0 -10 0 0 61 0 60 12 22 11 22 14 14 14 14 25 -12 25 -11 43 0 42 0 17 35 17 36 0 79 0 80 -107 -1 -108 0 -40 -7 -40 -8 3 -34 3 -35 1 -27 1 -26 -14 -15 -14 -14 -22 -11 -22 -12 -35 0 -35 0 -25 12 -26 11 -6 36 -7 35 12 44 11 43 -5 10 -6 9 -107 -2 -107 -1 -41 -4z" transform="translate(0.000000,69.000000) scale(0.100000,-0.100000)"/></clipPath><clipPath id="piece-mask-11-1" shape-rendering="crispEdges"><path d="M383 894 l-22 -5 -7 -21 -6 -20 7 -64 6 -63 -37 -7 -37 -7 -128 6 -127 5 -6 -76 -6 -77 -6 -66 -6 -66 16 -6 15 -6 53 11 53 11 57 -7 56 -7 12 -29 12 -29 -16 -17 -16 -16 -65 -11 -65 -11 -34 12 -33 12 -15 -5 -15 -6 -12 -25 -11 -25 1 -42 0 -42 13 -72 13 -71 16 -16 16 -16 83 0 83 0 36 10 36 10 22 19 21 18 0 17 0 17 -16 31 -16 31 11 23 10 23 38 10 38 11 30 0 30 0 38 -11 39 -10 13 -32 13 -32 -8 -45 -9 -45 -1 -22 0 -23 15 0 15 0 0 -12 0 -11 93 7 92 6 28 6 27 6 0 20 0 19 -14 14 -14 14 -18 58 -17 58 -15 30 -15 29 -13 13 -13 13 -23 0 -23 0 -14 -9 -15 -10 -18 10 -17 9 -11 38 -10 37 0 16 0 16 18 21 19 22 53 11 54 11 62 -5 62 -5 12 8 13 8 -7 88 -6 89 -6 41 -6 40 -141 18 -142 19 -20 10 -20 10 -14 14 -14 15 16 33 16 34 -9 6 -10 6 -47 4 -48 3 -22 -4z" transform="translate(0.000000,90.000000) scale(0.100000,-0.100000)"/></clipPath><clipPath id="piece-mask-11-2" shape-rendering="crispEdges"><path d="M704 926 l-5 -14 16 -32 16 -32 -6 -40 -7 -39 -34 -35 -35 -34 -50 0 -50 0 -16 16 -16 15 12 25 11 25 0 37 0 37 -9 13 -8 13 -39 9 -39 10 -102 0 -103 0 0 -62 -1 -63 -8 -41 -8 -42 -24 -24 -24 -24 -31 -13 -32 -13 -30 16 -31 16 -10 0 -10 0 -16 -30 -15 -29 0 -25 0 -25 12 -26 11 -25 14 0 13 0 0 10 0 10 23 0 22 0 11 -8 11 -7 12 -23 13 -23 23 -77 23 -77 18 -40 18 -40 3 -4 3 -4 139 -1 140 -1 12 -12 13 -13 -17 -35 -17 -36 0 -18 0 -19 30 -33 31 -32 62 -1 62 -1 43 19 42 19 0 14 0 13 -10 0 -10 0 0 19 0 19 28 10 27 11 35 6 35 7 58 20 57 21 0 8 0 9 15 0 15 0 0 353 0 353 -88 17 -89 17 -67 0 -67 0 -5 -14z" transform="translate(0.000000,94.000000) scale(0.100000,-0.100000)"/></clipPath><clipPath id="piece-mask-11-3" shape-rendering="crispEdges"><path d="M526 847 l-20 -15 12 -52 12 -52 0 -14 0 -14 -15 0 -15 0 0 -10 0 -10 -156 0 -156 0 6 -27 5 -28 7 -77 6 -77 -15 -16 -16 -16 -25 7 -25 6 -55 -17 -54 -17 -11 -24 -11 -25 0 -38 0 -38 11 -32 11 -31 14 0 14 0 0 11 0 11 26 -6 26 -7 14 -13 13 -13 21 -84 22 -84 1 -22 2 -23 392 0 392 0 6 10 6 10 -19 58 -20 57 -7 39 -6 38 -16 33 -16 34 -24 6 -23 5 -20 -10 -19 -10 -19 0 -19 0 -12 26 -12 27 7 42 6 42 38 13 39 13 48 -6 48 -6 20 -6 20 -5 14 9 14 9 -2 123 -1 123 -11 11 -11 10 -5 -12 -5 -13 -16 0 -17 0 -63 -20 -64 -20 -48 0 -49 0 -16 16 -17 17 6 21 7 21 5 46 6 45 -25 28 -25 27 -48 5 -49 6 -19 -15z" transform="translate(0.000000,86.000000) scale(0.100000,-0.100000)"/></clipPath><clipPath id="piece-mask-11-4" shape-rendering="crispEdges"><path d="M272 683 l-22 -4 1 -126 2 -125 -14 -9 -14 -9 -20 5 -20 6 -48 6 -48 6 -39 -13 -38 -13 -6 -42 -7 -42 12 -27 12 -26 19 0 19 0 19 10 20 10 23 -5 24 -6 15 -32 15 -32 7 -35 7 -35 22 -72 22 -73 398 0 397 0 0 340 0 340 -15 0 -15 0 0 -9 0 -8 -57 -21 -58 -20 -35 -7 -35 -6 -27 -11 -28 -10 0 -19 0 -19 10 0 10 0 0 -13 0 -14 -42 -19 -43 -19 -62 1 -62 1 -31 32 -30 33 0 19 0 18 17 36 17 35 -13 13 -12 12 -112 2 -112 1 -23 -5z" transform="translate(0.000000,69.000000) scale(0.100000,-0.100000)"/></clipPath><clipPath id="piece-mask-11-5" shape-rendering="crispEdges"><path d="M323 883 l-32 -16 -12 -28 -11 -29 5 -27 5 -28 7 -21 7 -21 -17 -17 -16 -16 -124 0 -123 0 -5 13 -5 12 -1 -353 -1 -352 398 2 397 3 -2 25 -1 25 -7 71 -8 72 7 26 6 26 30 0 30 0 0 -10 0 -10 33 0 32 1 40 14 40 14 3 11 4 10 10 0 11 0 18 22 19 21 0 38 0 38 -11 25 -12 25 -29 12 -29 12 -67 -7 -67 -6 -25 -2 -25 -3 4 120 3 120 -103 19 -104 18 -32 8 -33 8 -15 15 -15 16 0 20 0 21 10 0 10 0 0 23 0 23 -35 17 -36 17 -47 -1 -47 0 -32 -16z" transform="translate(0.000000,90.000000) scale(0.100000,-0.100000)"/></clipPath><clipPath id="piece-mask-11-6" shape-rendering="crispEdges"><path d="M0 370 l0 -350 18 0 17 -1 129 -9 130 -9 24 6 24 6 -8 21 -7 21 -1 45 -1 45 14 33 14 32 23 6 24 6 29 -12 28 -11 12 -25 11 -25 0 -29 0 -30 -10 0 -10 0 0 -25 0 -25 11 0 10 0 17 -16 16 -16 128 4 129 4 10 14 9 15 -4 15 -5 15 -17 45 -17 45 -1 60 -1 60 25 -3 25 -3 48 -6 48 -5 40 16 41 17 14 14 14 13 10 28 11 28 -12 28 -11 28 -10 0 -9 0 -15 15 -15 15 -37 0 -37 -1 -44 -8 -43 -9 7 134 7 134 -401 0 -401 -1 0 -349z" transform="translate(0.000000,72.000000) scale(0.100000,-0.100000)"/></clipPath><clipPath id="piece-mask-11-7" shape-rendering="crispEdges"><path d="M16 869 l-6 -31 0 -65 0 -64 15 -29 16 -30 15 0 15 0 44 11 45 11 24 -6 25 -6 10 -38 11 -37 0 -32 0 -32 -11 -24 -11 -25 -26 -12 -26 -11 -63 12 -63 13 -7 -8 -8 -8 -5 -121 -5 -122 10 -7 10 -8 100 0 100 0 39 -10 39 -9 8 -13 9 -13 0 -37 0 -37 -11 -25 -12 -25 16 -15 16 -16 50 0 50 0 35 34 34 35 7 39 6 40 -16 32 -16 32 5 14 5 14 73 0 73 -1 65 -14 65 -14 18 -1 17 0 -2 343 -3 342 -386 3 -386 2 -7 -31z" transform="translate(0.000000,90.000000) scale(0.100000,-0.100000)"/></clipPath><clipPath id="piece-mask-11-8" shape-rendering="crispEdges"><path d="M586 916 l-39 -15 -8 -12 -8 -13 15 -28 15 -29 -6 -19 -6 -20 -14 0 -13 0 -4 -11 -3 -10 -40 -9 -40 -10 -57 0 -57 0 -27 10 -26 10 6 -42 6 -43 6 -89 7 -88 -13 -8 -12 -8 -62 5 -62 5 -54 -11 -53 -11 -19 -22 -18 -21 0 -16 0 -16 10 -37 11 -38 17 -9 18 -10 15 10 14 9 23 0 23 0 13 -13 13 -13 15 -29 15 -30 17 -58 18 -58 14 -14 14 -14 0 -6 0 -6 14 -15 15 -14 150 0 151 0 0 10 0 10 15 0 15 0 0 14 0 14 -12 52 -12 52 20 15 19 15 49 -6 48 -5 25 -27 25 -28 -6 -45 -5 -46 -7 -21 -6 -21 17 -17 16 -16 49 0 48 0 64 20 63 20 17 0 17 0 6 20 6 19 -16 32 -17 31 -23 78 -23 79 -13 23 -12 23 -11 7 -11 8 -22 0 -23 0 0 -10 0 -10 -13 0 -14 0 -11 25 -12 26 0 25 0 25 15 29 16 30 10 0 10 0 31 -16 30 -16 32 13 31 13 24 24 24 24 8 42 8 41 1 68 0 67 -16 0 -16 0 -66 19 -67 19 -63 13 -64 12 -13 14 -14 13 -10 0 -11 0 0 24 0 24 13 5 12 4 -6 7 -6 6 -59 5 -59 5 -39 -14z" transform="translate(0.000000,93.000000) scale(0.100000,-0.100000)"/></clipPath><clipPath id="piece-mask-11-9" shape-rendering="crispEdges"><path d="M217 703 l-5 -8 9 -105 10 -105 -6 -23 -6 -23 -59 7 -59 6 -24 -6 -23 -5 -20 -18 -21 -18 -6 -23 -5 -23 9 -29 10 -28 15 -6 15 -6 19 10 19 10 17 0 17 0 18 -21 18 -21 5 -17 5 -16 12 -80 12 -80 0 -26 0 -27 37 -11 37 -11 54 0 54 0 40 10 40 9 3 10 4 11 13 0 14 0 6 20 6 19 -15 30 -16 30 16 15 15 15 41 12 42 11 53 -7 53 -6 0 -10 0 -9 -10 0 -10 0 0 -25 0 -25 11 0 10 0 14 -13 13 -14 64 -12 63 -13 67 -19 66 -19 7 0 6 0 -6 10 -6 10 10 0 11 0 0 108 0 107 9 14 10 15 63 -13 64 -12 26 11 26 12 11 25 11 24 0 32 0 32 -11 37 -10 38 -25 6 -24 6 -45 -11 -44 -11 -15 0 -15 0 -17 32 -17 32 5 93 5 93 -393 0 -393 0 -4 -7z" transform="translate(0.000000,71.000000) scale(0.100000,-0.100000)"/></clipPath><clipPath id="piece-mask-11-10" shape-rendering="crispEdges"><path d="M104 893 l-81 -4 -7 -123 -7 -122 7 -18 7 -17 16 7 16 7 50 8 49 8 38 -11 38 -11 0 -9 0 -8 14 0 14 0 5 -27 6 -28 -11 -37 -11 -38 -9 0 -8 0 0 -14 0 -14 -31 -13 -32 -12 -56 11 -57 12 -22 0 -22 0 0 -57 0 -58 6 -67 7 -66 147 5 147 6 7 -11 6 -11 -11 -43 -12 -44 7 -35 6 -36 26 -11 25 -12 35 0 35 0 22 12 22 11 14 14 14 15 -1 26 -1 27 -3 35 -3 34 40 8 40 7 114 0 113 1 -7 18 -8 17 -13 70 -13 70 0 42 -1 42 11 25 12 25 15 6 15 5 33 -12 34 -12 65 11 65 11 16 16 16 17 -12 29 -12 29 -56 7 -57 7 -53 -11 -53 -11 -15 6 -16 6 6 66 6 66 6 75 6 75 -129 -7 -128 -6 -25 -1 -25 -1 -14 -9 -15 -9 18 -41 18 -40 -5 -24 -6 -23 -19 -22 -19 -22 -12 0 -11 0 0 -10 0 -10 -21 0 -21 0 -29 31 -29 31 -6 25 -6 24 5 42 6 42 7 23 6 22 -78 -2 -79 -2 -81 -3z" transform="translate(0.000000,90.000000) scale(0.100000,-0.100000)"/></clipPath><clipPath id="piece-mask-11-11" shape-rendering="crispEdges"><path d="M66 922 l-4 -7 -7 -126 -8 -127 44 9 44 8 37 1 37 0 15 -15 15 -15 9 0 10 0 11 -28 12 -28 -11 -28 -10 -28 -14 -13 -14 -14 -41 -17 -40 -16 -48 5 -48 6 -25 3 -25 3 1 -60 1 -60 18 -45 17 -45 2 -22 1 -22 25 -6 24 -6 145 7 144 7 -7 -24 -7 -24 -6 -42 -5 -42 6 -24 6 -25 29 -31 29 -31 21 0 21 0 0 10 0 10 11 0 12 0 19 22 19 22 6 23 5 24 -17 40 -18 39 7 7 7 7 57 7 57 7 95 1 95 1 15 10 15 9 6 110 5 111 7 7 7 6 49 -11 50 -11 30 10 31 11 10 36 10 37 0 43 0 43 -12 22 -11 22 -14 14 -14 14 -42 4 -43 5 -38 -11 -39 -10 6 119 6 120 -394 0 -394 0 -5 -8z" transform="translate(0.000000,93.000000) scale(0.100000,-0.100000)"/></clipPath><clipPath id="piece-mask-11-12" shape-rendering="crispEdges"><path d="M356 885 l-15 -16 -12 -41 -11 -42 5 -25 5 -26 7 -21 7 -21 -24 -6 -24 -6 -130 9 -129 9 -17 1 -18 0 0 -334 0 -334 6 -16 6 -16 123 0 124 0 16 16 17 17 -7 21 -7 21 -5 28 -5 27 11 29 12 28 35 16 35 17 44 0 44 0 36 -17 35 -17 0 -23 0 -23 -10 0 -10 0 0 -21 0 -22 21 -18 20 -17 72 -12 72 -12 35 -9 35 -9 22 0 22 0 -6 115 -6 115 23 0 24 0 57 -12 56 -11 32 12 31 13 0 14 0 14 8 0 9 0 11 38 11 37 -6 28 -5 27 -14 0 -14 0 0 8 0 9 -37 11 -38 11 -45 -6 -45 -6 -19 -9 -19 -10 -8 13 -9 14 6 127 7 126 -145 -5 -144 -6 -16 17 -17 16 -10 0 -11 0 0 25 0 25 10 0 10 0 0 30 0 29 -11 24 -11 25 -25 11 -24 11 -19 0 -19 0 -15 -15z" transform="translate(0.000000,90.000000) scale(0.100000,-0.100000)"/></clipPath><clipPath id="piece-mask-11-13" shape-rendering="crispEdges"><path d="M14 699 l-7 -11 -5 -109 -5 -108 39 10 38 11 43 -5 42 -4 14 -14 14 -14 11 -22 12 -22 0 -43 0 -43 -10 -37 -10 -36 -31 -11 -30 -10 -50 11 -49 11 -7 -6 -7 -7 -6 -113 -6 -112 3 -4 3 -4 119 -5 119 -5 36 7 37 7 -6 72 -6 72 10 15 10 15 58 0 58 0 17 -7 18 -7 -17 -35 -17 -36 24 -20 24 -21 20 -4 21 -4 119 -17 118 -16 9 13 9 14 -5 20 -5 20 -11 75 -10 75 -5 16 -5 17 -18 21 -18 21 -17 0 -17 0 -19 -10 -19 -10 -15 6 -15 6 -10 28 -9 29 5 23 6 23 21 18 20 18 23 5 24 6 59 -6 58 -7 7 20 6 21 -6 72 -6 73 -5 43 -5 42 -389 0 -389 0 -7 -11z" transform="translate(0.000000,71.000000) scale(0.100000,-0.100000)"/></clipPath><clipPath id="piece-mask-11-14" shape-rendering="crispEdges"><path d="M552 889 l-33 -10 -10 -23 -11 -23 16 -31 16 -31 0 -17 0 -17 -22 -18 -21 -19 -39 -11 -39 -10 -92 2 -92 2 -5 -89 -6 -89 -13 -27 -14 -28 -43 0 -43 0 -25 11 -25 12 -14 -14 -14 -14 -11 -22 -12 -22 0 -60 0 -61 10 0 10 0 0 -14 0 -14 25 -6 25 -6 20 10 19 10 19 0 20 0 10 -28 11 -27 6 -50 6 -50 10 -37 10 -37 15 -16 15 -15 382 0 382 0 14 9 14 9 -11 29 -12 28 -15 69 -16 68 -13 14 -14 13 -26 7 -26 6 0 -11 0 -11 -14 0 -14 0 -11 31 -11 32 0 38 0 38 11 25 11 24 54 17 55 17 25 -6 25 -7 16 16 16 16 -11 106 -11 105 -3 4 -4 4 -35 -10 -34 -10 -92 -7 -93 -6 0 11 0 12 -15 0 -15 0 0 23 1 22 9 45 8 45 -13 32 -13 32 -39 10 -38 11 -35 -1 -35 -1 -33 -9z" transform="translate(0.000000,90.000000) scale(0.100000,-0.100000)"/></clipPath></defs></svg>