<?xml version="1.0" standalone="no"?>
<!DOCTYPE svg PUBLIC "-//W3C//DTD SVG 20010904//EN"
 "http://www.w3.org/TR/2001/REC-SVG-20010904/DTD/svg10.dtd">
<svg version="1.0" xmlns="http://www.w3.org/2000/svg"
 width="104.000000pt" height="111.000000pt" viewBox="0 0 104.000000 111.000000"
 preserveAspectRatio="xMidYMid meet">
<metadata>
Created by potrace 1.16, written by Peter Selinger 2001-2019
</metadata>
<g transform="translate(0.000000,111.000000) scale(0.100000,-0.100000)"
fill="#000000" stroke="none">
<path d="M366 1088 l-16 -22 0 -29 0 -28 10 -19 10 -20 -6 -25 -6 -25 -13 0
-13 0 -4 -12 -5 -13 -140 -3 -141 -3 -6 -22 -6 -22 0 -72 0 -72 12 -25 11 -26
18 -5 18 -6 20 10 20 11 38 0 39 0 17 -13 18 -12 13 -40 14 -39 -10 -22 -10
-22 -55 -17 -54 -17 -44 12 -44 12 -27 -6 -26 -7 5 -87 4 -87 18 -52 18 -53
16 -1 16 -2 122 -1 121 -1 8 -7 7 -8 -13 -39 -13 -40 13 -32 13 -32 24 -23 24
-24 37 0 36 0 43 16 43 17 0 13 0 12 -11 4 -12 4 7 22 7 22 27 6 27 5 50 16
50 15 48 20 47 20 0 14 0 14 8 0 8 0 11 33 12 32 6 50 6 50 11 54 10 53 31 -7
32 -7 32 0 32 1 25 24 24 24 6 20 7 21 -12 26 -12 25 -34 12 -34 11 -31 -11
-31 -11 -28 0 -28 0 -18 33 -17 32 -4 113 -5 112 -8 0 -9 0 0 -9 0 -9 -114 -7
-114 -7 -35 11 -35 12 -7 27 -7 26 11 4 11 4 0 38 0 39 -17 36 -17 35 -32 0
-33 0 -15 -22z"/>
</g>
</svg>
