<?xml version="1.0" standalone="no"?>
<!DOCTYPE svg PUBLIC "-//W3C//DTD SVG 20010904//EN"
 "http://www.w3.org/TR/2001/REC-SVG-20010904/DTD/svg10.dtd">
<svg version="1.0" xmlns="http://www.w3.org/2000/svg"
 width="106.000000pt" height="113.000000pt" viewBox="0 0 106.000000 113.000000"
 preserveAspectRatio="xMidYMid meet">
<metadata>
Created by potrace 1.16, written by Peter Selinger 2001-2019
</metadata>
<g transform="translate(0.000000,113.000000) scale(0.100000,-0.100000)"
fill="#000000" stroke="none">
<path d="M366 1108 l-16 -22 0 -41 0 -40 9 -14 9 -13 -5 -19 -5 -19 -13 0 -13
0 -4 -12 -5 -13 -140 -3 -141 -3 -6 -22 -6 -22 0 -82 0 -82 12 -26 11 -25 24
-7 24 -6 25 12 25 11 25 0 25 0 18 -10 18 -9 13 -30 12 -31 -6 -23 -6 -24 -53
-17 -54 -17 -27 11 -27 10 -32 0 -32 0 -14 -9 -13 -9 4 -93 5 -94 18 -52 18
-52 29 -7 30 -6 55 7 55 7 60 -7 59 -7 -7 -17 -7 -16 -4 -31 -5 -31 18 -34 17
-34 20 -18 20 -17 46 0 45 0 43 16 43 17 0 23 0 22 -11 4 -12 4 17 17 17 17
19 0 19 0 48 16 48 16 48 20 47 20 0 14 0 14 8 0 8 0 11 33 12 32 6 50 6 50
11 53 10 54 21 -8 22 -7 42 0 41 0 26 26 25 25 7 26 6 26 -12 30 -12 30 -39
12 -39 11 -39 -11 -38 -12 -16 0 -16 0 -18 33 -17 32 -4 113 -5 112 -18 0 -19
0 0 -9 0 -9 -105 -7 -104 -7 -34 11 -35 12 -5 19 -5 20 9 0 9 0 0 50 0 49 -17
36 -17 35 -42 0 -43 0 -15 -22z"/>
</g>
</svg>
