<?xml version="1.0" standalone="no"?>
<!DOCTYPE svg PUBLIC "-//W3C//DTD SVG 20010904//EN"
 "http://www.w3.org/TR/2001/REC-SVG-20010904/DTD/svg10.dtd">
<svg version="1.0" xmlns="http://www.w3.org/2000/svg"
 width="75.000000pt" height="72.000000pt" viewBox="0 0 75.000000 72.000000"
 preserveAspectRatio="xMidYMid meet">
<metadata>
Created by potrace 1.16, written by Peter Selinger 2001-2019
</metadata>
<g transform="translate(0.000000,72.000000) scale(0.100000,-0.100000)"
fill="#000000" stroke="none">
<path d="M2 608 l4 -113 17 -32 18 -33 39 0 39 0 25 10 25 9 30 -10 30 -11 8
-21 7 -22 -3 -14 -2 -13 -24 -24 -24 -24 -23 0 -23 0 -42 6 -41 6 -10 -54 -11
-53 -6 -50 -6 -50 -17 -47 -16 -47 6 -6 6 -6 136 -2 137 -2 10 15 10 15 -5 25
-5 25 -7 28 -7 29 13 38 13 38 24 11 24 11 37 0 37 0 11 -8 11 -7 12 -23 12
-22 -11 -38 -10 -37 0 -32 0 -33 14 0 14 0 4 -12 5 -13 130 -3 129 -4 -4 119
-4 118 -7 35 -7 35 -30 -2 -29 -2 -30 -6 -30 -7 -23 20 -22 19 0 12 0 11 -10
0 -10 0 0 34 0 35 15 15 15 15 0 9 0 10 38 -9 37 -9 41 0 41 0 11 25 12 26 0
73 0 73 -6 33 -7 32 -26 -6 -26 -6 -85 -10 -85 -11 -17 -5 -18 -5 0 -20 0 -20
10 -18 9 -19 -18 -21 -18 -21 -7 0 -7 0 -15 -15 -15 -15 -59 0 -59 0 -25 11
-25 12 -4 11 -4 11 15 48 15 47 -11 25 -12 25 -126 0 -127 0 5 -112z"/>
</g>
</svg>
