<?xml version="1.0" standalone="no"?>
<!DOCTYPE svg PUBLIC "-//W3C//DTD SVG 20010904//EN"
 "http://www.w3.org/TR/2001/REC-SVG-20010904/DTD/svg10.dtd">
<svg version="1.0" xmlns="http://www.w3.org/2000/svg"
 width="73.000000pt" height="70.000000pt" viewBox="0 0 73.000000 70.000000"
 preserveAspectRatio="xMidYMid meet">
<metadata>
Created by potrace 1.16, written by Peter Selinger 2001-2019
</metadata>
<g transform="translate(0.000000,70.000000) scale(0.100000,-0.100000)"
fill="#000000" stroke="none">
<path d="M2 598 l5 -103 17 -32 17 -33 28 0 28 0 31 11 31 11 34 -11 34 -12
12 -25 12 -26 -7 -21 -6 -20 -24 -24 -25 -24 -32 -1 -32 0 -32 7 -31 7 -11
-53 -10 -54 -7 -54 -6 -54 -15 -35 -14 -34 4 -5 5 -4 126 -2 127 -2 9 15 10
15 -6 20 -6 20 -5 34 -5 33 12 38 13 38 24 11 24 11 49 0 49 0 15 -16 16 -15
6 -24 6 -23 -11 -38 -11 -39 0 -22 0 -23 14 0 14 0 4 -12 5 -13 119 -3 119 -4
-3 109 -4 108 -7 35 -7 35 -25 -3 -24 -3 -35 -5 -35 -6 -23 20 -22 19 0 12 0
11 -10 0 -10 0 0 44 0 45 15 15 15 15 0 11 0 12 23 -6 22 -6 55 -6 56 -6 12
26 12 27 0 63 0 63 -6 32 -7 32 -16 -6 -16 -6 -85 -10 -85 -10 -18 -5 -19 -6
6 -19 6 -19 6 -18 5 -18 -19 -22 -19 -22 -7 0 -7 0 -15 -15 -15 -15 -69 0 -69
0 -25 12 -26 11 -5 17 -6 18 16 46 16 46 -11 20 -11 20 -116 0 -116 0 5 -102z"/>
</g>
</svg>
