<?xml version="1.0" standalone="no"?>
<!DOCTYPE svg PUBLIC "-//W3C//DTD SVG 20010904//EN"
 "http://www.w3.org/TR/2001/REC-SVG-20010904/DTD/svg10.dtd">
<svg version="1.0" xmlns="http://www.w3.org/2000/svg"
 width="78.000000pt" height="91.000000pt" viewBox="0 0 78.000000 91.000000"
 preserveAspectRatio="xMidYMid meet">
<metadata>
Created by potrace 1.16, written by Peter Selinger 2001-2019
</metadata>
<g transform="translate(0.000000,91.000000) scale(0.100000,-0.100000)"
fill="#000000" stroke="none">
<path d="M20 884 l-10 -25 0 -73 0 -73 6 -33 7 -32 51 6 51 6 43 6 43 6 20
-23 20 -23 5 -22 6 -23 -12 -35 -12 -36 -9 0 -10 0 -15 -15 -15 -14 -36 -7
-36 -7 -32 12 -31 11 -21 0 -21 0 -6 -16 -6 -16 0 -66 0 -67 7 -67 6 -68 113
0 113 0 9 -16 9 -16 -15 -44 -14 -44 6 -23 6 -24 25 -11 26 -12 79 0 79 0 15
15 15 15 7 0 7 0 18 22 19 21 0 19 0 19 -10 19 -10 18 15 5 14 6 63 6 63 6 48
11 47 10 0 19 0 20 -13 27 -14 27 -23 85 -24 85 -12 12 -12 12 -26 7 -26 6
-15 -12 -14 -11 -10 38 -11 38 9 30 8 30 14 -4 14 -5 44 -4 43 -4 24 13 24 12
0 14 0 13 10 0 9 0 10 38 11 37 0 66 0 66 -6 32 -6 31 -369 0 -369 0 -10 -26z"/>
</g>
</svg>
