<?xml version="1.0" standalone="no"?>
<!DOCTYPE svg PUBLIC "-//W3C//DTD SVG 20010904//EN"
 "http://www.w3.org/TR/2001/REC-SVG-20010904/DTD/svg10.dtd">
<svg version="1.0" xmlns="http://www.w3.org/2000/svg"
 width="76.000000pt" height="89.000000pt" viewBox="0 0 76.000000 89.000000"
 preserveAspectRatio="xMidYMid meet">
<metadata>
Created by potrace 1.16, written by Peter Selinger 2001-2019
</metadata>
<g transform="translate(0.000000,89.000000) scale(0.100000,-0.100000)"
fill="#000000" stroke="none">
<path d="M20 864 l-10 -25 0 -63 0 -63 6 -33 7 -32 41 6 41 6 52 6 52 6 14
-14 14 -13 11 -22 12 -22 0 -24 0 -24 -11 -32 -11 -31 -14 0 -14 0 0 -9 0 -9
-31 -11 -32 -11 -30 0 -31 0 -33 12 -34 12 -9 -14 -10 -15 0 -60 0 -60 7 -67
6 -68 113 0 113 0 11 -20 11 -20 -16 -46 -16 -46 6 -18 5 -17 26 -11 25 -12
69 0 69 0 15 15 15 15 7 0 7 0 18 22 19 21 0 8 0 8 -12 26 -12 26 14 9 14 9
66 6 65 6 48 11 47 10 0 9 0 10 -13 27 -14 27 -23 85 -24 85 -11 11 -11 11
-21 7 -21 7 -7 -11 -6 -10 -14 0 -14 0 -11 41 -11 41 8 37 9 36 20 -2 19 -3
38 -6 39 -6 24 12 24 13 0 14 0 13 10 0 9 0 10 38 11 37 0 56 0 56 -6 32 -7
31 -358 0 -359 0 -10 -26z"/>
</g>
</svg>
