<?xml version="1.0" standalone="no"?>
<!DOCTYPE svg PUBLIC "-//W3C//DTD SVG 20010904//EN"
 "http://www.w3.org/TR/2001/REC-SVG-20010904/DTD/svg10.dtd">
<svg version="1.0" xmlns="http://www.w3.org/2000/svg"
 width="105.000000pt" height="91.000000pt" viewBox="0 0 105.000000 91.000000"
 preserveAspectRatio="xMidYMid meet">
<metadata>
Created by potrace 1.16, written by Peter Selinger 2001-2019
</metadata>
<g transform="translate(0.000000,91.000000) scale(0.100000,-0.100000)"
fill="#000000" stroke="none">
<path d="M384 898 l-21 -10 -13 -38 -12 -38 5 -33 5 -34 6 -20 6 -20 -10 -15
-9 -15 -135 2 -135 3 -7 -35 -6 -35 4 -80 3 -81 15 -10 15 -9 20 6 20 6 39 5
39 5 37 -12 38 -12 12 -38 12 -37 -6 -20 -7 -20 -54 -18 -55 -17 -57 5 -58 4
-21 7 -21 8 -18 -18 -17 -18 5 -55 5 -56 17 -50 16 -50 11 -27 10 -28 384 0
384 0 6 25 6 25 7 0 7 0 19 78 18 77 10 23 10 22 14 0 14 0 20 -11 20 -10 19
6 20 6 14 50 15 50 -8 44 -8 44 -15 15 -15 15 -75 -6 -75 -6 -16 42 -17 41 0
78 0 77 -127 0 -126 0 -5 13 -4 12 -14 0 -14 0 0 23 0 22 11 39 11 38 -6 23
-6 24 -16 15 -15 16 -52 -1 -52 0 -21 -11z"/>
</g>
</svg>
