<?xml version="1.0" standalone="no"?>
<!DOCTYPE svg PUBLIC "-//W3C//DTD SVG 20010904//EN"
 "http://www.w3.org/TR/2001/REC-SVG-20010904/DTD/svg10.dtd">
<svg version="1.0" xmlns="http://www.w3.org/2000/svg"
 width="107.000000pt" height="93.000000pt" viewBox="0 0 107.000000 93.000000"
 preserveAspectRatio="xMidYMid meet">
<metadata>
Created by potrace 1.16, written by Peter Selinger 2001-2019
</metadata>
<g transform="translate(0.000000,93.000000) scale(0.100000,-0.100000)"
fill="#000000" stroke="none">
<path d="M384 919 l-21 -11 -11 -32 -12 -32 0 -43 0 -42 9 -18 10 -17 -9 -15
-9 -14 -135 3 -135 2 -7 -34 -6 -35 3 -91 4 -91 15 -10 15 -10 25 5 25 5 33 7
34 7 37 -13 38 -12 12 -33 11 -32 -5 -16 -6 -15 -55 -17 -54 -17 -48 5 -47 6
-31 6 -31 7 -18 -18 -17 -18 5 -65 5 -66 16 -50 17 -50 11 -27 10 -28 394 0
394 0 6 25 6 25 7 0 7 0 18 78 18 77 11 20 10 20 2 3 2 3 26 -12 26 -12 25 7
25 6 16 52 15 52 -6 48 -7 48 -17 20 -18 21 -75 -7 -74 -6 -16 41 -17 41 0 78
0 77 -127 0 -126 0 -4 13 -5 12 -14 0 -14 0 0 9 0 9 11 50 12 49 -7 26 -6 26
-16 15 -15 16 -62 -1 -62 0 -21 -10z"/>
</g>
</svg>
