<?xml version="1.0" standalone="no"?>
<!DOCTYPE svg PUBLIC "-//W3C//DTD SVG 20010904//EN"
 "http://www.w3.org/TR/2001/REC-SVG-20010904/DTD/svg10.dtd">
<svg version="1.0" xmlns="http://www.w3.org/2000/svg"
 width="75.000000pt" height="88.000000pt" viewBox="0 0 75.000000 88.000000"
 preserveAspectRatio="xMidYMid meet">
<metadata>
Created by potrace 1.16, written by Peter Selinger 2001-2019
</metadata>
<g transform="translate(0.000000,88.000000) scale(0.100000,-0.100000)"
fill="#000000" stroke="none">
<path d="M0 530 l0 -350 131 7 131 6 -11 -21 -11 -21 0 -26 0 -26 12 -22 11
-22 12 -11 11 -11 31 -17 32 -16 24 0 24 0 32 11 31 11 0 38 0 39 18 4 17 5
55 12 55 11 55 17 55 16 18 20 19 21 -4 115 -4 115 -14 28 -13 27 -24 0 -23 0
0 -10 0 -10 -21 0 -20 0 -22 11 -22 12 -7 11 -8 11 0 43 0 42 10 0 10 0 0 -11
0 -12 47 6 47 5 4 11 4 11 12 0 13 0 13 28 13 27 5 108 4 107 -376 0 -376 -1
0 -349z"/>
</g>
</svg>
