<?xml version="1.0" standalone="no"?>
<!DOCTYPE svg PUBLIC "-//W3C//DTD SVG 20010904//EN"
 "http://www.w3.org/TR/2001/REC-SVG-20010904/DTD/svg10.dtd">
<svg version="1.0" xmlns="http://www.w3.org/2000/svg"
 width="77.000000pt" height="90.000000pt" viewBox="0 0 77.000000 90.000000"
 preserveAspectRatio="xMidYMid meet">
<metadata>
Created by potrace 1.16, written by Peter Selinger 2001-2019
</metadata>
<g transform="translate(0.000000,90.000000) scale(0.100000,-0.100000)"
fill="#000000" stroke="none">
<path d="M0 539 l0 -361 123 7 123 7 -4 -36 -4 -36 6 -23 5 -23 18 -21 18 -20
32 -17 32 -16 34 0 34 0 32 11 31 11 0 38 0 39 18 4 17 5 55 12 55 11 55 17
55 16 18 20 19 21 -4 125 -4 125 -14 28 -13 27 -33 0 -32 0 -4 -11 -4 -12 -22
7 -22 7 -15 15 -15 15 0 23 0 24 57 4 57 5 4 11 4 12 12 0 13 0 13 28 14 27 4
118 4 117 -386 0 -386 0 0 -361z"/>
</g>
</svg>
