<?xml version="1.0" standalone="no"?>
<!DOCTYPE svg PUBLIC "-//W3C//DTD SVG 20010904//EN"
 "http://www.w3.org/TR/2001/REC-SVG-20010904/DTD/svg10.dtd">
<svg version="1.0" xmlns="http://www.w3.org/2000/svg"
 width="116.000000pt" height="91.000000pt" viewBox="0 0 116.000000 91.000000"
 preserveAspectRatio="xMidYMid meet">
<metadata>
Created by potrace 1.16, written by Peter Selinger 2001-2019
</metadata>
<g transform="translate(0.000000,91.000000) scale(0.100000,-0.100000)"
fill="#000000" stroke="none">
<path d="M219 903 l-2 -8 3 -75 2 -76 -11 -42 -12 -42 -9 0 -10 0 0 -13 0 -14
-24 -13 -24 -12 -39 6 -38 6 -19 3 -20 2 -9 -36 -8 -37 11 -41 11 -41 14 0 14
0 6 10 7 11 21 -7 21 -7 11 -11 11 -11 24 -85 23 -85 20 -37 21 -38 106 0 106
0 18 -13 19 -14 -6 -34 -6 -34 -7 -33 -6 -32 11 0 11 0 0 -13 0 -14 25 -11 26
-12 39 0 40 0 0 10 0 10 11 0 10 0 13 13 13 12 11 22 12 22 0 50 0 51 -10 0
-10 0 0 25 0 25 28 2 27 2 20 -1 20 0 103 -13 102 -13 5 5 5 4 -15 85 -15 84
0 40 0 40 9 14 9 15 40 -13 40 -13 51 17 51 17 0 9 0 9 14 0 14 0 6 16 6 16 0
23 0 24 -17 35 -17 36 -34 11 -34 11 -39 -12 -38 -13 -15 6 -16 6 0 111 0 110
-365 0 -365 0 -1 -7z"/>
</g>
</svg>
