<?xml version="1.0" standalone="no"?>
<!DOCTYPE svg PUBLIC "-//W3C//DTD SVG 20010904//EN"
 "http://www.w3.org/TR/2001/REC-SVG-20010904/DTD/svg10.dtd">
<svg version="1.0" xmlns="http://www.w3.org/2000/svg"
 width="118.000000pt" height="93.000000pt" viewBox="0 0 118.000000 93.000000"
 preserveAspectRatio="xMidYMid meet">
<metadata>
Created by potrace 1.16, written by Peter Selinger 2001-2019
</metadata>
<g transform="translate(0.000000,93.000000) scale(0.100000,-0.100000)"
fill="#000000" stroke="none">
<path d="M217 924 l-6 -7 6 -76 5 -76 -11 -42 -12 -43 -9 0 -10 0 0 -13 0 -14
-24 -13 -25 -13 -28 8 -28 7 -30 1 -30 2 -9 -45 -8 -45 12 -44 11 -43 40 6 40
6 13 -12 12 -13 24 -85 23 -85 20 -37 21 -38 106 0 106 0 19 -13 18 -14 -7
-29 -8 -29 -5 -37 -5 -38 11 0 11 0 0 -13 0 -14 25 -11 26 -12 49 0 50 0 0 10
0 10 11 0 10 0 13 13 13 12 11 22 12 22 0 60 0 61 -10 0 -10 0 0 14 0 15 28 3
27 3 55 -7 55 -7 73 -7 72 -7 0 9 0 9 -17 105 -16 106 7 28 7 28 17 -8 17 -7
27 -4 27 -5 50 17 51 17 0 9 0 9 14 0 14 0 6 16 6 16 0 33 0 34 -17 35 -17 36
-34 11 -34 11 -31 -6 -32 -7 -20 -2 -20 -2 -3 113 -3 112 -373 0 -373 0 -6 -6z"/>
</g>
</svg>
