<?xml version="1.0" standalone="no"?>
<!DOCTYPE svg PUBLIC "-//W3C//DTD SVG 20010904//EN"
 "http://www.w3.org/TR/2001/REC-SVG-20010904/DTD/svg10.dtd">
<svg version="1.0" xmlns="http://www.w3.org/2000/svg"
 width="79.000000pt" height="88.000000pt" viewBox="0 0 79.000000 88.000000"
 preserveAspectRatio="xMidYMid meet">
<metadata>
Created by potrace 1.16, written by Peter Selinger 2001-2019
</metadata>
<g transform="translate(0.000000,88.000000) scale(0.100000,-0.100000)"
fill="#000000" stroke="none">
<path d="M284 872 l-11 -7 -6 -20 -7 -20 14 -50 13 -51 -16 -14 -16 -15 -127
3 -128 3 0 -85 0 -86 17 -41 16 -41 77 4 76 4 14 -14 13 -15 7 -37 7 -37 -13
-43 -13 -43 -12 -8 -13 -8 -17 10 -18 9 -24 0 -25 0 -10 -27 -11 -28 -17 -70
-17 -70 -8 -5 -9 -6 -6 -32 -6 -32 375 0 376 0 11 38 10 37 6 67 7 67 -13 31
-13 30 -23 6 -24 6 -31 -11 -32 -11 -34 0 -34 0 -13 13 -13 12 -12 24 -13 23
6 33 6 32 26 11 25 12 24 0 24 0 25 -11 25 -12 24 7 25 6 13 37 12 37 -7 104
-6 104 -5 8 -5 7 -112 12 -113 12 -27 11 -27 10 -6 19 -6 18 10 20 11 20 0 19
0 20 -16 6 -16 6 -76 0 -77 0 -11 -8z"/>
</g>
</svg>
