<?xml version="1.0" standalone="no"?>
<!DOCTYPE svg PUBLIC "-//W3C//DTD SVG 20010904//EN"
 "http://www.w3.org/TR/2001/REC-SVG-20010904/DTD/svg10.dtd">
<svg version="1.0" xmlns="http://www.w3.org/2000/svg"
 width="77.000000pt" height="86.000000pt" viewBox="0 0 77.000000 86.000000"
 preserveAspectRatio="xMidYMid meet">
<metadata>
Created by potrace 1.16, written by Peter Selinger 2001-2019
</metadata>
<g transform="translate(0.000000,86.000000) scale(0.100000,-0.100000)"
fill="#000000" stroke="none">
<path d="M281 851 l-13 -9 0 -23 0 -24 11 -43 12 -43 -17 -17 -18 -17 -128 3
-128 3 0 -75 0 -76 17 -41 16 -42 75 6 75 6 15 -15 15 -15 8 -44 8 -44 -15
-50 -14 -50 -20 -6 -19 -6 -20 10 -20 11 -14 0 -15 0 -10 -27 -11 -28 -17 -70
-17 -70 -7 -5 -7 -5 -7 -22 -7 -23 365 0 365 0 10 38 10 37 7 57 7 57 -13 30
-12 30 -18 6 -17 6 -27 -11 -27 -10 -46 0 -46 0 -19 22 -19 22 -5 23 -6 23 6
34 6 33 26 11 25 12 35 0 35 0 20 -11 20 -10 19 6 19 6 12 36 12 36 -7 95 -7
95 -4 7 -5 7 -112 12 -113 12 -28 11 -27 11 -6 23 -6 24 12 31 13 31 -14 9
-14 9 -70 0 -70 0 -14 -9z"/>
</g>
</svg>
