<?xml version="1.0" standalone="no"?>
<!DOCTYPE svg PUBLIC "-//W3C//DTD SVG 20010904//EN"
 "http://www.w3.org/TR/2001/REC-SVG-20010904/DTD/svg10.dtd">
<svg version="1.0" xmlns="http://www.w3.org/2000/svg"
 width="96.000000pt" height="71.000000pt" viewBox="0 0 96.000000 71.000000"
 preserveAspectRatio="xMidYMid meet">
<metadata>
Created by potrace 1.16, written by Peter Selinger 2001-2019
</metadata>
<g transform="translate(0.000000,71.000000) scale(0.100000,-0.100000)"
fill="#000000" stroke="none">
<path d="M47 703 l-47 -4 2 -342 3 -342 116 -9 117 -9 25 7 26 6 -6 53 -5 53
17 35 18 34 11 7 11 8 47 0 47 0 26 -12 25 -11 6 -24 6 -23 -6 -28 -7 -27 -6
-26 -5 -26 31 -13 32 -13 95 5 95 5 6 7 6 6 -18 52 -18 53 -4 87 -5 87 26 7
27 6 44 -12 44 -12 54 17 55 17 10 22 10 22 -14 39 -13 40 -18 12 -17 13 -39
0 -38 0 -20 -11 -20 -10 -18 6 -19 6 -12 29 -12 30 4 90 4 90 -5 -8 -6 -8 -55
-16 -55 -17 -55 -11 -55 -12 -17 -5 -18 -4 0 -39 0 -38 -31 -11 -32 -11 -24 0
-24 0 -32 16 -31 17 -11 11 -12 11 -11 22 -12 22 0 26 0 26 10 20 11 19 -83
-2 -83 -2 -48 -3z"/>
</g>
</svg>
