<?xml version="1.0" standalone="no"?>
<!DOCTYPE svg PUBLIC "-//W3C//DTD SVG 20010904//EN"
 "http://www.w3.org/TR/2001/REC-SVG-20010904/DTD/svg10.dtd">
<svg version="1.0" xmlns="http://www.w3.org/2000/svg"
 width="98.000000pt" height="73.000000pt" viewBox="0 0 98.000000 73.000000"
 preserveAspectRatio="xMidYMid meet">
<metadata>
Created by potrace 1.16, written by Peter Selinger 2001-2019
</metadata>
<g transform="translate(0.000000,73.000000) scale(0.100000,-0.100000)"
fill="#000000" stroke="none">
<path d="M48 723 l-48 -4 0 -349 0 -349 8 -5 8 -5 121 -7 121 -7 27 7 26 7 -6
53 -7 53 17 34 18 34 11 7 11 8 37 0 37 0 26 -12 25 -11 7 -24 6 -24 -12 -25
-11 -25 0 -28 0 -28 25 -11 26 -12 77 0 77 0 38 7 39 6 -5 31 -5 31 -16 55
-16 55 0 57 0 58 23 5 23 6 28 -10 27 -11 24 0 23 0 50 16 50 16 11 25 11 25
-10 39 -11 40 -20 20 -19 19 -51 0 -50 0 -19 -10 -19 -10 -15 16 -16 15 -6 26
-7 25 6 84 6 84 -14 0 -15 0 0 -9 0 -9 -22 -5 -23 -6 -85 -20 -85 -21 -22 -5
-23 -5 0 -40 0 -39 -39 -12 -40 -12 -32 13 -32 13 -23 24 -24 24 -6 25 -7 25
12 25 11 25 0 9 0 10 -92 -2 -93 -2 -47 -3z"/>
</g>
</svg>
