<?xml version="1.0" standalone="no"?>
<!DOCTYPE svg PUBLIC "-//W3C//DTD SVG 20010904//EN"
 "http://www.w3.org/TR/2001/REC-SVG-20010904/DTD/svg10.dtd">
<svg version="1.0" xmlns="http://www.w3.org/2000/svg"
 width="112.000000pt" height="74.000000pt" viewBox="0 0 112.000000 74.000000"
 preserveAspectRatio="xMidYMid meet">
<metadata>
Created by potrace 1.16, written by Peter Selinger 2001-2019
</metadata>
<g transform="translate(0.000000,74.000000) scale(0.100000,-0.100000)"
fill="#000000" stroke="none">
<path d="M678 733 l-28 -4 0 -25 0 -24 10 0 10 0 0 -51 0 -50 -12 -22 -11 -22
-13 -12 -13 -13 -10 0 -11 0 0 -10 0 -10 -40 0 -39 0 -26 12 -25 11 0 14 0 13
-11 0 -11 0 6 33 7 32 6 37 5 36 -19 11 -20 10 -114 2 -114 1 4 -91 3 -91 -13
-31 -12 -31 -56 6 -56 6 -23 6 -22 6 0 -12 0 -11 -15 -15 -15 -15 0 -45 0 -44
10 0 10 0 0 -11 0 -12 22 -19 23 -20 35 6 35 5 25 3 24 3 7 -30 7 -30 1 -98 1
-98 14 -14 14 -14 124 -3 124 -3 18 17 17 17 -12 43 -11 43 0 24 0 23 13 9 14
9 70 0 70 0 14 -9 14 -9 -13 -31 -12 -31 6 -24 6 -23 27 -11 28 -11 97 -10 96
-11 22 0 21 0 -6 9 -5 10 10 93 10 93 11 27 11 26 21 6 22 5 9 -9 10 -10 23 0
23 0 10 26 10 25 0 50 0 50 -16 30 -16 31 -21 -7 -22 -7 -36 -5 -36 -5 -16 17
-17 16 0 108 0 108 -87 12 -88 12 -30 3 -30 3 -27 -4z"/>
</g>
</svg>
