<?xml version="1.0" standalone="no"?>
<!DOCTYPE svg PUBLIC "-//W3C//DTD SVG 20010904//EN"
 "http://www.w3.org/TR/2001/REC-SVG-20010904/DTD/svg10.dtd">
<svg version="1.0" xmlns="http://www.w3.org/2000/svg"
 width="114.000000pt" height="76.000000pt" viewBox="0 0 114.000000 76.000000"
 preserveAspectRatio="xMidYMid meet">
<metadata>
Created by potrace 1.16, written by Peter Selinger 2001-2019
</metadata>
<g transform="translate(0.000000,76.000000) scale(0.100000,-0.100000)"
fill="#000000" stroke="none">
<path d="M678 753 l-28 -4 0 -35 0 -34 10 0 10 0 0 -41 0 -40 -12 -22 -11 -22
-13 -12 -13 -13 -10 0 -11 0 0 -10 0 -10 -30 0 -29 0 -26 12 -25 11 0 13 0 12
-12 4 -13 5 13 27 12 27 0 39 0 39 -18 10 -17 9 -125 3 -125 3 4 -92 3 -92
-13 -31 -12 -31 -41 6 -41 6 -37 6 -38 7 0 -12 0 -12 -15 -15 -15 -15 0 -55 0
-54 10 0 10 0 0 -11 0 -12 22 -19 23 -20 45 4 45 4 14 5 15 4 7 -30 7 -30 1
-98 1 -98 14 -14 14 -15 134 -2 134 -3 18 18 18 18 -13 65 -13 65 15 10 14 9
60 0 60 0 12 -8 12 -8 -9 -14 -10 -15 0 -32 0 -32 16 -15 15 -16 22 -5 22 -4
90 -11 90 -10 34 0 33 0 -5 20 -5 19 9 83 9 83 11 27 11 28 54 -6 53 -7 11 27
10 27 0 60 0 60 -16 31 -16 30 -26 -6 -27 -5 -31 -7 -31 -6 -16 17 -17 16 0
108 0 108 -87 12 -88 12 -40 3 -40 4 -27 -5z"/>
</g>
</svg>
