<?xml version="1.0" standalone="no"?>
<!DOCTYPE svg PUBLIC "-//W3C//DTD SVG 20010904//EN"
 "http://www.w3.org/TR/2001/REC-SVG-20010904/DTD/svg10.dtd">
<svg version="1.0" xmlns="http://www.w3.org/2000/svg"
 width="95.000000pt" height="86.000000pt" viewBox="0 0 95.000000 86.000000"
 preserveAspectRatio="xMidYMid meet">
<metadata>
Created by potrace 1.16, written by Peter Selinger 2001-2019
</metadata>
<g transform="translate(0.000000,86.000000) scale(0.100000,-0.100000)"
fill="#000000" stroke="none">
<path d="M479 839 l-22 -22 7 -68 6 -69 -26 -6 -27 -7 -91 7 -91 6 -3 10 -4
10 -7 -4 -8 -5 8 -53 8 -53 0 -56 1 -56 -11 -31 -11 -31 -18 -6 -19 -6 -20 10
-20 11 -35 0 -35 0 -25 -12 -26 -11 -6 -33 -6 -34 6 -23 5 -23 19 -22 19 -22
46 0 46 0 27 10 27 11 17 -6 18 -6 13 -31 13 -31 -11 -76 -12 -76 -6 -17 -7
-18 366 0 366 0 0 343 0 342 -111 -3 -112 -3 -28 11 -28 12 -7 21 -7 21 12 4
11 4 0 16 0 16 -12 32 -12 33 -20 5 -21 6 -57 0 -58 0 -21 -21z"/>
</g>
</svg>
