<?xml version="1.0" standalone="no"?>
<!DOCTYPE svg PUBLIC "-//W3C//DTD SVG 20010904//EN"
 "http://www.w3.org/TR/2001/REC-SVG-20010904/DTD/svg10.dtd">
<svg version="1.0" xmlns="http://www.w3.org/2000/svg"
 width="97.000000pt" height="88.000000pt" viewBox="0 0 97.000000 88.000000"
 preserveAspectRatio="xMidYMid meet">
<metadata>
Created by potrace 1.16, written by Peter Selinger 2001-2019
</metadata>
<g transform="translate(0.000000,88.000000) scale(0.100000,-0.100000)"
fill="#000000" stroke="none">
<path d="M479 859 l-22 -22 5 -68 5 -69 -24 -6 -25 -7 -81 7 -81 7 -7 11 -7
11 -17 -7 -17 -6 5 -23 6 -22 7 -81 7 -81 -12 -36 -12 -35 -13 -5 -13 -5 -14
9 -14 9 -47 0 -47 0 -25 -11 -24 -11 -6 -22 -6 -21 0 -33 0 -33 12 -22 11 -22
13 -12 13 -13 55 0 55 0 25 10 25 9 16 -15 15 -15 6 -25 6 -24 -11 -62 -12
-63 -6 -27 -5 -28 376 0 376 0 0 353 0 352 -110 -3 -110 -4 -30 12 -29 12 -5
14 -5 14 9 0 10 0 0 27 0 27 -12 32 -12 33 -20 5 -21 6 -67 0 -68 0 -21 -21z"/>
</g>
</svg>
