<?xml version="1.0" standalone="no"?>
<!DOCTYPE svg PUBLIC "-//W3C//DTD SVG 20010904//EN"
 "http://www.w3.org/TR/2001/REC-SVG-20010904/DTD/svg10.dtd">
<svg version="1.0" xmlns="http://www.w3.org/2000/svg"
 width="96.000000pt" height="87.000000pt" viewBox="0 0 96.000000 87.000000"
 preserveAspectRatio="xMidYMid meet">
<metadata>
Created by potrace 1.16, written by Peter Selinger 2001-2019
</metadata>
<g transform="translate(0.000000,87.000000) scale(0.100000,-0.100000)"
fill="#000000" stroke="none">
<path d="M324 862 l-11 -7 -18 -34 -17 -35 5 -53 6 -53 -27 -7 -26 -6 -118 9
-118 9 0 -342 0 -343 374 0 374 0 4 135 3 134 12 12 11 11 35 -13 35 -12 45
17 45 17 11 28 12 28 -12 25 -11 26 -39 17 -38 18 -43 -7 -43 -7 -24 -6 -24
-6 7 89 7 89 6 42 5 43 -110 -7 -111 -6 -31 13 -32 13 5 26 6 26 7 27 6 28 -6
23 -6 24 -25 11 -26 12 -47 0 -47 0 -11 -8z"/>
</g>
</svg>
