<?xml version="1.0" standalone="no"?>
<!DOCTYPE svg PUBLIC "-//W3C//DTD SVG 20010904//EN"
 "http://www.w3.org/TR/2001/REC-SVG-20010904/DTD/svg10.dtd">
<svg version="1.0" xmlns="http://www.w3.org/2000/svg"
 width="98.000000pt" height="89.000000pt" viewBox="0 0 98.000000 89.000000"
 preserveAspectRatio="xMidYMid meet">
<metadata>
Created by potrace 1.16, written by Peter Selinger 2001-2019
</metadata>
<g transform="translate(0.000000,89.000000) scale(0.100000,-0.100000)"
fill="#000000" stroke="none">
<path d="M324 882 l-11 -7 -17 -34 -18 -33 4 -54 3 -54 -19 -6 -19 -6 -101 7
-101 6 -23 6 -22 5 0 -356 0 -356 385 0 385 0 1 118 1 117 7 25 8 25 14 -4 14
-4 28 -5 28 -4 43 16 43 17 12 25 11 25 0 14 0 14 -11 24 -11 24 -34 17 -35
16 -32 0 -32 0 -39 -9 -38 -9 6 64 6 64 6 66 6 65 -110 -7 -111 -7 -31 13 -32
13 7 21 7 21 5 32 5 33 -6 23 -6 24 -25 11 -26 12 -57 0 -57 0 -11 -8z"/>
</g>
</svg>
