<?xml version="1.0" standalone="no"?>
<!DOCTYPE svg PUBLIC "-//W3C//DTD SVG 20010904//EN"
 "http://www.w3.org/TR/2001/REC-SVG-20010904/DTD/svg10.dtd">
<svg version="1.0" xmlns="http://www.w3.org/2000/svg"
 width="75.000000pt" height="74.000000pt" viewBox="0 0 75.000000 74.000000"
 preserveAspectRatio="xMidYMid meet">
<metadata>
Created by potrace 1.16, written by Peter Selinger 2001-2019
</metadata>
<g transform="translate(0.000000,74.000000) scale(0.100000,-0.100000)"
fill="#000000" stroke="none">
<path d="M451 731 l-14 -9 7 -28 7 -29 6 -32 5 -33 -6 -25 -6 -24 -27 -27 -26
-26 -59 5 -59 5 -20 23 -19 22 0 3 0 4 16 40 16 40 -6 24 -6 24 -22 6 -23 6
-107 0 -108 0 0 -104 0 -105 17 -16 16 -17 36 5 36 5 22 7 21 7 16 -31 16 -30
0 -50 0 -50 -10 -25 -10 -26 -23 0 -23 0 -10 10 -9 9 -22 -5 -21 -6 -11 -26
-11 -27 -10 -93 -10 -93 14 -15 15 -14 89 -6 89 -7 27 7 26 6 -6 69 -7 68 22
22 21 21 58 0 57 0 21 -6 20 -5 12 -33 12 -32 0 -16 0 -16 -11 -4 -12 -4 7
-21 7 -21 27 -11 28 -12 109 3 110 3 3 346 2 345 -104 17 -104 17 -38 0 -39 0
-14 -9z"/>
</g>
</svg>
