<?xml version="1.0" standalone="no"?>
<!DOCTYPE svg PUBLIC "-//W3C//DTD SVG 20010904//EN"
 "http://www.w3.org/TR/2001/REC-SVG-20010904/DTD/svg10.dtd">
<svg version="1.0" xmlns="http://www.w3.org/2000/svg"
 width="77.000000pt" height="76.000000pt" viewBox="0 0 77.000000 76.000000"
 preserveAspectRatio="xMidYMid meet">
<metadata>
Created by potrace 1.16, written by Peter Selinger 2001-2019
</metadata>
<g transform="translate(0.000000,76.000000) scale(0.100000,-0.100000)"
fill="#000000" stroke="none">
<path d="M451 751 l-13 -9 5 -33 6 -34 6 -27 7 -28 -6 -24 -6 -25 -27 -27 -26
-26 -49 5 -49 6 -15 16 -16 16 7 27 7 27 4 35 5 35 -10 15 -10 15 -136 3 -135
4 0 -116 0 -115 16 -15 15 -16 40 0 40 0 19 10 19 10 17 -31 16 -32 -4 -54 -5
-54 -12 -12 -11 -11 -21 12 -21 13 -27 -6 -28 -6 -11 -24 -11 -24 -11 -105
-12 -106 16 -15 15 -16 99 -6 99 -6 28 7 27 7 -7 69 -7 68 21 21 21 21 48 0
47 0 21 -6 20 -5 14 -37 13 -36 -12 -4 -11 -4 0 -23 0 -24 16 -15 15 -16 22
-5 22 -6 115 3 115 3 3 356 2 355 -104 17 -104 17 -48 0 -49 0 -14 -9z"/>
</g>
</svg>
