<?xml version="1.0" standalone="no"?>
<!DOCTYPE svg PUBLIC "-//W3C//DTD SVG 20010904//EN"
 "http://www.w3.org/TR/2001/REC-SVG-20010904/DTD/svg10.dtd">
<svg version="1.0" xmlns="http://www.w3.org/2000/svg"
 width="78.000000pt" height="92.000000pt" viewBox="0 0 78.000000 92.000000"
 preserveAspectRatio="xMidYMid meet">
<metadata>
Created by potrace 1.16, written by Peter Selinger 2001-2019
</metadata>
<g transform="translate(0.000000,92.000000) scale(0.100000,-0.100000)"
fill="#000000" stroke="none">
<path d="M32 798 l3 -123 32 -3 32 -3 21 11 21 11 33 -11 33 -11 18 -39 17
-39 -6 -25 -6 -26 -15 0 -15 0 0 -9 0 -9 -49 -17 -50 -16 -20 10 -20 11 -24 0
-25 0 -6 -16 -6 -16 0 -47 0 -48 10 -54 11 -54 1 -38 0 -37 102 0 101 0 22 -6
22 -6 6 -17 5 -18 -15 -36 -15 -36 0 -14 0 -14 20 -23 20 -23 68 -5 69 -4 26
26 27 27 6 24 6 25 -5 42 -5 43 -7 22 -7 22 27 7 27 7 82 -13 81 -12 48 -5 47
-6 -2 354 -3 354 -373 3 -373 2 3 -122z"/>
</g>
</svg>
