<?xml version="1.0" standalone="no"?>
<!DOCTYPE svg PUBLIC "-//W3C//DTD SVG 20010904//EN"
 "http://www.w3.org/TR/2001/REC-SVG-20010904/DTD/svg10.dtd">
<svg version="1.0" xmlns="http://www.w3.org/2000/svg"
 width="76.000000pt" height="90.000000pt" viewBox="0 0 76.000000 90.000000"
 preserveAspectRatio="xMidYMid meet">
<metadata>
Created by potrace 1.16, written by Peter Selinger 2001-2019
</metadata>
<g transform="translate(0.000000,90.000000) scale(0.100000,-0.100000)"
fill="#000000" stroke="none">
<path d="M30 790 l0 -111 16 -6 15 -6 38 13 39 12 34 -11 34 -11 17 -36 17
-35 0 -24 0 -23 -6 -16 -6 -16 -14 0 -14 0 0 -9 0 -9 -51 -17 -51 -17 -40 13
-40 13 -9 -15 -9 -14 0 -40 0 -40 15 -84 15 -84 -6 -8 -5 -9 103 0 103 0 23
-6 22 -6 6 -24 6 -24 -16 -40 -16 -40 0 -4 0 -3 19 -22 20 -23 59 -5 59 -5 26
26 27 27 6 24 6 25 -5 33 -6 32 -7 32 -6 32 28 7 29 7 95 -13 95 -13 33 -4 32
-5 -2 343 -3 344 -362 3 -363 2 0 -110z"/>
</g>
</svg>
