<?xml version="1.0" standalone="no"?>
<!DOCTYPE svg PUBLIC "-//W3C//DTD SVG 20010904//EN"
 "http://www.w3.org/TR/2001/REC-SVG-20010904/DTD/svg10.dtd">
<svg version="1.0" xmlns="http://www.w3.org/2000/svg"
 width="116.000000pt" height="71.000000pt" viewBox="0 0 116.000000 71.000000"
 preserveAspectRatio="xMidYMid meet">
<metadata>
Created by potrace 1.16, written by Peter Selinger 2001-2019
</metadata>
<g transform="translate(0.000000,71.000000) scale(0.100000,-0.100000)"
fill="#000000" stroke="none">
<path d="M185 698 l-4 -13 -4 -95 -4 -95 -13 -27 -13 -28 -13 0 -12 0 -4 -11
-4 -11 -47 -5 -47 -6 0 12 0 11 -10 0 -10 0 0 -42 0 -43 8 -11 7 -11 22 -12
22 -11 20 0 21 0 0 10 0 10 24 0 24 0 13 -32 14 -33 0 -123 0 -123 134 3 134
3 5 13 4 12 13 0 13 0 6 25 6 25 -10 20 -10 19 0 25 0 25 12 26 11 25 37 0 36
0 17 -35 17 -36 0 -39 0 -38 -11 -4 -11 -4 7 -26 7 -27 35 -12 36 -11 110 7
110 7 13 12 12 13 -4 114 -5 114 10 15 10 14 34 -12 33 -12 31 0 30 0 32 11
31 11 0 9 0 9 14 0 14 0 11 31 11 32 0 24 0 24 -12 22 -11 22 -14 13 -14 14
-52 -6 -52 -6 -42 -6 -41 -6 -8 47 -7 48 6 73 5 74 -364 0 -365 0 -4 -12z"/>
</g>
</svg>
