<?xml version="1.0" standalone="no"?>
<!DOCTYPE svg PUBLIC "-//W3C//DTD SVG 20010904//EN"
 "http://www.w3.org/TR/2001/REC-SVG-20010904/DTD/svg10.dtd">
<svg version="1.0" xmlns="http://www.w3.org/2000/svg"
 width="118.000000pt" height="73.000000pt" viewBox="0 0 118.000000 73.000000"
 preserveAspectRatio="xMidYMid meet">
<metadata>
Created by potrace 1.16, written by Peter Selinger 2001-2019
</metadata>
<g transform="translate(0.000000,73.000000) scale(0.100000,-0.100000)"
fill="#000000" stroke="none">
<path d="M185 718 l-4 -13 -4 -95 -4 -95 -13 -27 -13 -28 -14 0 -13 0 0 -10 0
-9 -37 -7 -37 -7 -4 12 -4 11 -19 0 -19 0 0 -52 0 -53 8 -11 7 -11 22 -12 22
-11 30 0 31 0 0 10 0 10 14 0 14 0 13 -32 14 -33 0 -123 0 -123 144 3 144 3 5
13 4 12 13 0 13 0 7 30 6 29 -12 35 -12 34 13 31 12 31 27 0 27 0 17 -35 17
-36 0 -29 0 -28 -11 -4 -12 -4 7 -36 7 -37 36 -12 36 -12 120 7 120 7 13 14
14 14 -6 113 -5 113 9 14 9 13 21 -11 21 -11 44 0 44 0 32 11 31 11 0 9 0 9
14 0 14 0 11 31 11 32 0 34 0 34 -12 22 -11 22 -14 13 -14 14 -62 -5 -62 -6
-32 -7 -31 -6 -8 47 -7 47 7 74 7 74 -376 0 -376 0 -4 -12z"/>
</g>
</svg>
