<?xml version="1.0" standalone="no"?>
<!DOCTYPE svg PUBLIC "-//W3C//DTD SVG 20010904//EN"
 "http://www.w3.org/TR/2001/REC-SVG-20010904/DTD/svg10.dtd">
<svg version="1.0" xmlns="http://www.w3.org/2000/svg"
 width="98.000000pt" height="69.000000pt" viewBox="0 0 98.000000 69.000000"
 preserveAspectRatio="xMidYMid meet">
<metadata>
Created by potrace 1.16, written by Peter Selinger 2001-2019
</metadata>
<g transform="translate(0.000000,69.000000) scale(0.100000,-0.100000)"
fill="#000000" stroke="none">
<path d="M64 683 l-42 -4 -6 -42 -5 -42 -7 -89 -7 -89 24 6 24 6 43 7 43 7 38
-18 39 -17 11 -26 12 -25 -12 -28 -11 -28 -45 -17 -45 -17 -35 12 -35 13 -11
-11 -12 -12 -3 -134 -4 -135 357 0 357 0 -7 18 -7 17 -20 60 -20 60 -5 56 -5
55 17 18 18 18 21 -8 21 -7 58 -4 57 -5 55 17 54 18 7 20 6 20 -12 37 -12 38
-38 12 -37 12 -39 -5 -39 -5 -20 -6 -20 -6 -15 10 -15 9 0 111 0 110 0 0 0 0
-74 -30 -73 -30 -40 -6 -39 -7 -15 -14 -14 -14 0 -15 0 -14 10 0 10 0 0 -14 0
-13 -43 -17 -43 -16 -36 0 -37 0 -24 24 -24 23 -13 32 -13 32 13 40 13 39 -5
6 -6 5 -88 3 -89 4 -41 -5z"/>
</g>
</svg>
