<?xml version="1.0" standalone="no"?>
<!DOCTYPE svg PUBLIC "-//W3C//DTD SVG 20010904//EN"
 "http://www.w3.org/TR/2001/REC-SVG-20010904/DTD/svg10.dtd">
<svg version="1.0" xmlns="http://www.w3.org/2000/svg"
 width="100.000000pt" height="71.000000pt" viewBox="0 0 100.000000 71.000000"
 preserveAspectRatio="xMidYMid meet">
<metadata>
Created by potrace 1.16, written by Peter Selinger 2001-2019
</metadata>
<g transform="translate(0.000000,71.000000) scale(0.100000,-0.100000)"
fill="#000000" stroke="none">
<path d="M0 693 l0 -11 9 -4 8 -3 -10 -123 -10 -122 6 -7 6 -6 62 12 62 13 37
-17 38 -17 9 -22 10 -21 -10 -22 -10 -22 -39 -16 -40 -16 -33 12 -32 12 -15
-6 -15 -5 -7 -32 -6 -33 0 -118 0 -119 365 0 365 0 0 11 0 10 -26 77 -26 77
-5 46 -5 45 17 17 16 17 19 -10 19 -10 65 0 65 0 48 16 48 16 7 12 8 11 0 24
0 25 -11 31 -12 32 -32 12 -31 11 -48 0 -47 0 -18 -9 -17 -10 -15 9 -14 9 0
111 0 110 -10 0 -10 0 -74 -30 -73 -30 -40 -6 -39 -7 -15 -14 -14 -14 0 -25 0
-24 13 -1 12 0 -40 -19 -40 -19 -31 0 -31 -1 -20 18 -20 17 -17 34 -18 34 11
24 11 24 0 24 0 23 -62 6 -63 6 -92 -2 -93 -3 0 -12z"/>
</g>
</svg>
