<?xml version="1.0" encoding="utf-8"?>
<svg baseProfile="full" height="0" version="1.1" width="0" xmlns="http://www.w3.org/2000/svg" xmlns:ev="http://www.w3.org/2001/xml-events" xmlns:xlink="http://www.w3.org/1999/xlink"><defs><clipPath id="piece-mask-21-0" shape-rendering="crispEdges"><path d="M388 712 l-28 -3 0 -10 0 -10 11 -20 10 -20 -10 -31 -11 -31 -21 -18 -22 -19 -38 0 -37 0 -16 6 -16 6 0 64 0 63 -37 10 -38 11 -61 0 -62 0 -6 -31 -6 -32 0 -74 0 -75 17 6 17 7 43 6 43 6 20 -23 19 -22 6 -19 6 -19 -11 -34 -11 -34 -25 -6 -25 -7 -34 7 -33 6 -5 -19 -6 -18 -7 -89 -7 -89 39 6 39 6 59 -8 59 -8 13 -18 13 -18 -9 -18 -10 -18 0 -20 0 -20 16 -15 15 -16 25 -6 25 -6 40 17 39 18 9 33 9 33 -9 41 -9 41 6 11 7 11 51 -6 51 -6 38 -7 37 -7 0 269 0 269 -73 0 -72 0 -27 -3z" transform="translate(0.000000,72.000000) scale(0.100000,-0.100000)"/></clipPath><clipPath id="piece-mask-21-1" shape-rendering="crispEdges"><path d="M269 679 l-21 -21 5 -35 6 -35 -15 -15 -14 -15 -109 4 -108 3 -7 -97 -6 -96 6 -15 5 -15 59 5 59 6 16 -17 16 -16 -3 -32 -3 -33 -61 2 -61 3 -12 -26 -11 -25 0 -88 0 -89 23 -6 22 -6 66 0 66 0 20 17 19 18 7 18 7 18 -11 46 -12 45 14 9 14 9 40 0 40 0 11 -8 11 -7 6 -24 6 -24 -10 -50 -9 -50 22 -18 21 -19 29 0 29 0 69 11 69 12 6 14 5 15 -15 44 -15 45 0 49 0 50 9 0 10 0 28 -11 28 -10 42 12 43 12 0 13 0 14 15 0 15 0 0 35 0 34 -26 26 -27 27 -18 -6 -19 -6 -17 -5 -18 -5 -15 10 -15 9 0 96 0 95 -12 -4 -11 -5 -74 10 -73 10 -27 10 -27 11 -7 21 -7 21 12 4 11 4 0 13 0 13 -22 6 -23 6 -22 0 -23 0 -21 -21z" transform="translate(0.000000,70.000000) scale(0.100000,-0.100000)"/></clipPath><clipPath id="piece-mask-21-2" shape-rendering="crispEdges"><path d="M394 796 l-6 -14 11 -21 11 -20 0 -16 0 -16 -16 -17 -17 -16 -71 1 -71 2 -30 3 -30 3 3 -86 4 -85 -65 4 -64 4 -26 -26 -27 -27 0 -34 0 -35 10 0 10 0 0 -15 0 -14 39 -12 40 -12 31 13 31 13 7 -8 7 -7 -2 -100 -2 -101 12 -11 12 -11 88 0 88 -1 9 -14 10 -15 0 -35 0 -35 8 -12 7 -11 28 -8 29 -7 39 13 39 13 0 18 0 18 18 9 17 9 35 7 35 6 53 21 52 21 0 14 0 14 10 0 10 0 0 15 0 15 9 0 9 0 6 32 6 32 11 39 10 39 30 -6 31 -6 15 16 16 15 4 42 5 42 -19 21 -18 20 -33 13 -32 14 -39 -7 -39 -6 5 98 6 97 -90 -3 -90 -3 -17 16 -16 16 6 41 7 40 -14 9 -14 9 -63 0 -63 0 -5 -14z" transform="translate(0.000000,81.000000) scale(0.100000,-0.100000)"/></clipPath><clipPath id="piece-mask-21-3" shape-rendering="crispEdges"><path d="M387 817 l5 -44 -27 -27 -28 -28 -81 4 -82 3 7 -45 8 -45 0 -62 1 -61 -78 5 -78 6 -17 -17 -17 -17 0 -24 0 -24 17 -16 17 -17 46 5 46 6 11 -7 10 -7 11 -21 11 -21 3 -93 3 -93 113 7 114 6 -7 -64 -7 -64 7 -21 6 -21 15 0 14 0 0 -10 0 -10 21 0 22 0 19 22 19 22 5 23 6 23 -12 30 -12 29 7 10 6 11 83 0 83 0 32 11 31 11 0 16 0 17 15 40 14 40 1 53 0 52 -54 -6 -53 -6 -39 12 -38 13 -13 13 -13 13 0 25 0 25 12 27 12 26 36 -7 35 -7 26 -5 25 -5 12 27 12 26 0 69 0 70 -4 0 -5 0 -28 -11 -28 -12 -55 -12 -55 -12 -28 10 -27 9 6 67 7 67 -17 17 -17 17 -48 0 -49 0 5 -43z" transform="translate(0.000000,86.000000) scale(0.100000,-0.100000)"/></clipPath><clipPath id="piece-mask-21-4" shape-rendering="crispEdges"><path d="M385 840 l-6 -10 11 -39 10 -39 -6 -15 -6 -16 -35 -12 -36 -12 -65 6 -66 7 -7 12 -8 12 -5 -4 -4 -5 10 -55 10 -55 -5 -48 -4 -47 -7 -8 -8 -7 -76 0 -77 0 -3 -56 -3 -57 16 -16 16 -15 43 5 43 6 11 -28 11 -29 11 -58 12 -58 -6 -15 -5 -14 78 0 78 0 31 -6 31 -6 5 -14 5 -13 -9 -32 -10 -32 6 -22 5 -22 39 -12 39 -11 35 16 35 17 12 30 12 29 -13 8 -13 8 6 15 5 14 32 7 32 6 36 0 36 0 33 12 32 12 -5 75 -6 76 -9 37 -9 37 -22 7 -22 7 -4 -12 -4 -11 -24 0 -24 0 -20 20 -20 20 0 24 0 25 16 15 15 16 10 0 10 0 21 -11 20 -11 33 6 33 6 11 28 12 28 -3 75 -3 74 -29 14 -29 13 -61 14 -61 14 -27 11 -27 11 -7 21 -7 21 12 4 11 4 -6 9 -5 9 -54 0 -54 0 -6 -10z" transform="translate(0.000000,85.000000) scale(0.100000,-0.100000)"/></clipPath><clipPath id="piece-mask-21-5" shape-rendering="crispEdges"><path d="M38 543 l-38 -4 0 -95 0 -94 15 0 15 0 0 -10 0 -10 28 0 27 0 33 9 33 10 15 -6 14 -5 0 -48 0 -49 -15 -15 -16 -15 -43 5 -43 6 -11 -28 -12 -29 -10 -50 -10 -50 -6 -26 -6 -26 24 -6 23 -7 57 0 57 0 26 25 25 26 0 32 0 32 -10 15 -9 14 12 8 12 8 53 0 53 0 -7 -45 -6 -45 16 0 16 0 0 -9 0 -10 48 -6 47 -7 40 -10 40 -9 18 -5 17 -5 0 90 0 90 11 25 12 26 61 -3 61 -2 3 33 3 32 -16 16 -16 17 -59 -6 -59 -5 -5 15 -6 15 6 96 7 97 -94 -3 -94 -3 -9 -9 -9 -9 13 -30 12 -30 -14 -14 -13 -14 -22 -11 -22 -12 -29 0 -30 0 -6 16 -6 16 0 26 -1 27 -13 18 -14 18 -58 9 -59 10 -10 -2 -10 -1 -37 -4z" transform="translate(0.000000,55.000000) scale(0.100000,-0.100000)"/></clipPath><clipPath id="piece-mask-21-6" shape-rendering="crispEdges"><path d="M229 679 l-11 -22 5 -51 5 -51 -13 -12 -13 -12 -101 6 -101 6 2 -269 3 -269 89 -3 90 -3 27 11 27 12 6 23 6 24 -12 26 -12 26 15 10 14 10 40 -6 39 -6 5 -5 5 -5 -2 -32 -2 -32 19 -12 19 -12 81 -11 81 -11 14 13 14 13 -6 99 -5 99 24 -7 24 -7 46 -5 45 -6 16 16 17 16 9 0 10 0 6 16 6 16 0 27 0 28 -21 24 -21 24 -78 0 -78 0 5 86 6 87 -46 20 -45 20 -33 7 -34 8 -33 15 -33 16 3 31 3 30 -57 3 -57 3 -12 -22z" transform="translate(0.000000,70.000000) scale(0.100000,-0.100000)"/></clipPath><clipPath id="piece-mask-21-7" shape-rendering="crispEdges"><path d="M11 603 l5 -78 9 -19 8 -18 48 4 48 5 6 -14 5 -15 0 -32 0 -33 -11 -32 -11 -31 -12 0 -12 0 -13 13 -12 12 -14 -18 -13 -18 -11 -75 -11 -76 -10 -18 -10 -19 0 -7 0 -7 44 6 44 6 57 -9 57 -9 14 -18 13 -18 1 -27 0 -26 6 -16 6 -16 30 0 29 0 22 12 22 11 13 14 14 14 -12 29 -12 29 7 10 6 11 87 1 87 0 15 7 15 7 2 25 2 25 7 68 7 69 -64 -7 -64 -7 -21 19 -21 18 -12 23 -13 24 12 28 11 27 24 13 24 13 32 -13 32 -14 13 18 13 18 6 39 7 39 -7 51 -7 50 -12 -4 -13 -5 -65 -7 -65 -7 -13 -8 -13 -8 12 -31 13 -30 -24 -24 -25 -25 -41 -7 -41 -7 -23 13 -23 12 -18 21 -19 21 5 35 4 35 7 18 8 17 -98 0 -99 0 6 -77z" transform="translate(0.000000,68.000000) scale(0.100000,-0.100000)"/></clipPath><clipPath id="piece-mask-21-8" shape-rendering="crispEdges"><path d="M150 645 l0 -66 -12 -22 -11 -22 -15 -15 -15 -15 -46 0 -46 -1 0 -50 0 -49 51 3 51 2 12 -27 11 -28 9 -85 9 -85 -4 -7 -5 -8 71 0 71 0 35 -15 36 -15 -7 -48 -6 -47 19 -23 19 -22 46 0 46 0 25 25 25 25 7 35 6 35 -10 39 -9 39 21 6 21 5 40 -9 40 -8 24 -8 24 -7 -7 67 -7 66 -12 38 -12 37 -33 -3 -33 -4 -20 23 -19 22 0 22 0 22 19 21 18 22 12 0 11 0 0 10 0 10 21 0 20 0 21 -11 21 -11 8 13 9 14 0 83 0 82 -4 0 -5 0 -28 -11 -28 -11 -65 -18 -65 -17 3 -37 3 -37 -13 -12 -13 -13 -31 -12 -31 -13 -26 12 -26 12 -11 28 -12 28 4 53 3 53 -102 3 -103 3 0 -66z" transform="translate(0.000000,72.000000) scale(0.100000,-0.100000)"/></clipPath><clipPath id="piece-mask-21-9" shape-rendering="crispEdges"><path d="M433 819 l-21 -8 -6 -19 -7 -20 12 -26 12 -26 -23 -20 -23 -20 -104 0 -103 0 0 -70 0 -69 -12 -27 -12 -26 -36 7 -35 7 -26 5 -25 5 -12 -27 -12 -26 0 -25 0 -25 13 -13 13 -13 38 -13 39 -12 53 6 54 6 0 -52 -1 -53 -14 -40 -15 -40 0 -16 0 -17 16 -6 16 -6 69 0 69 0 21 -21 21 -21 -6 -15 -6 -15 -6 -22 -5 -22 26 -12 26 -12 34 0 34 0 25 11 25 12 10 29 11 30 -11 46 -10 45 13 8 13 9 35 -6 35 -6 43 -14 43 -14 9 0 10 0 0 269 0 269 -87 21 -88 22 -28 11 -28 11 6 28 7 29 -4 0 -3 0 -30 9 -30 8 -22 -8z" transform="translate(0.000000,83.000000) scale(0.100000,-0.100000)"/></clipPath><clipPath id="piece-mask-21-10" shape-rendering="crispEdges"><path d="M612 550 l-92 -7 -6 -6 -7 -6 11 -41 10 -40 -5 -20 -5 -19 -30 -10 -31 -11 -28 0 -28 0 -15 16 -16 15 0 15 0 14 10 0 10 0 0 36 0 35 -35 15 -34 14 -76 0 -75 0 0 -91 0 -90 -15 -16 -16 -15 -24 6 -25 6 -24 6 -24 6 -21 -21 -21 -21 0 -32 0 -33 9 -14 9 -14 10 7 11 7 25 -7 24 -6 11 -26 10 -27 11 -45 11 -45 16 -42 16 -43 99 0 99 0 15 15 15 15 -6 42 -6 43 14 20 15 19 35 -1 36 -1 11 -7 12 -8 -5 -34 -6 -35 14 -14 13 -14 69 -10 68 -10 33 0 32 0 0 48 1 47 8 44 9 43 13 9 14 9 15 -4 15 -4 16 -6 15 -7 24 21 24 21 0 55 0 55 -14 10 -15 10 -58 -5 -57 -4 -16 16 -16 16 7 83 7 83 -4 -2 -3 -1 -93 -7z" transform="translate(0.000000,56.000000) scale(0.100000,-0.100000)"/></clipPath><clipPath id="piece-mask-21-11" shape-rendering="crispEdges"><path d="M150 449 l0 -102 -60 7 -60 7 -15 -15 -15 -15 0 -30 0 -30 16 -35 17 -34 20 -6 20 -5 19 10 19 10 18 -6 19 -6 6 -25 7 -25 -7 -76 -7 -75 106 4 105 3 8 7 7 7 -13 30 -12 31 6 24 6 25 16 15 15 16 29 0 29 0 25 -11 24 -11 5 -17 4 -16 -8 -20 -8 -20 0 -21 -1 -21 25 -11 26 -12 81 0 80 0 -7 18 -8 17 -5 86 -4 85 17 18 17 17 30 -6 30 -7 32 6 33 6 11 24 10 23 -6 10 -7 10 -24 12 -23 13 -44 -7 -44 -6 -17 16 -16 16 7 95 6 94 -67 -24 -68 -24 -42 -12 -43 -11 0 -15 0 -15 -16 -16 -15 -15 -35 5 -34 6 -16 15 -15 16 6 43 7 44 -32 7 -32 6 -69 0 -69 0 0 -101z" transform="translate(0.000000,57.000000) scale(0.100000,-0.100000)"/></clipPath><clipPath id="piece-mask-21-12" shape-rendering="crispEdges"><path d="M57 723 l-5 -8 -3 -85 -4 -84 51 3 52 2 26 -26 26 -26 0 -33 0 -33 -17 -20 -18 -19 -33 -13 -32 -14 -50 7 -50 7 0 -33 1 -33 15 -40 16 -40 1 -20 2 -20 10 -7 10 -8 82 0 81 0 16 -6 16 -6 -6 -49 -6 -48 6 -24 6 -24 30 -13 30 -12 24 6 25 6 26 26 25 25 0 24 0 25 -10 0 -10 0 0 14 0 15 18 5 17 5 55 6 55 7 39 11 38 11 -3 85 -2 86 1 22 2 23 60 -7 59 -6 28 12 28 11 12 26 12 26 -16 33 -16 34 -23 5 -22 6 -47 -7 -47 -6 -9 14 -9 14 0 88 0 87 -279 0 -280 0 -4 -7z" transform="translate(0.000000,73.000000) scale(0.100000,-0.100000)"/></clipPath><clipPath id="piece-mask-21-13" shape-rendering="crispEdges"><path d="M2 427 l3 -272 102 -3 103 -3 0 -4 0 -4 -11 -25 -12 -25 6 -23 6 -24 19 -22 19 -22 42 0 42 0 13 13 13 12 12 24 13 23 -6 33 -6 33 22 6 23 6 72 0 72 0 6 20 6 19 -16 31 -16 31 -6 50 -6 50 51 -7 52 -7 32 14 33 13 18 19 17 20 0 33 0 33 -26 26 -26 26 -52 -2 -51 -3 4 92 3 93 -286 -1 -286 -1 2 -272z" transform="translate(0.000000,70.000000) scale(0.100000,-0.100000)"/></clipPath><clipPath id="piece-mask-21-14" shape-rendering="crispEdges"><path d="M221 761 l-14 -9 12 -45 11 -46 -7 -18 -7 -18 -20 -19 -21 -18 -88 4 -89 4 4 -93 3 -94 15 -9 15 -10 23 0 22 0 0 10 0 10 23 0 24 0 21 -19 22 -18 0 -26 0 -26 -16 -15 -15 -16 -24 -6 -23 -6 -21 12 -22 11 -18 -6 -19 -6 -6 -31 -6 -30 0 -83 0 -83 23 -6 22 -6 67 0 67 0 27 27 26 26 -5 44 -5 43 49 0 48 0 17 -17 17 -17 -7 -67 -6 -67 28 -10 27 -9 40 9 40 8 53 17 53 17 13 47 14 47 7 54 7 55 8 13 9 14 26 -12 26 -12 15 0 15 0 24 25 25 24 0 20 0 20 -16 15 -15 16 -25 6 -25 6 -49 -6 -49 -7 -7 36 -6 35 4 71 4 71 -51 -6 -50 -7 -55 -6 -55 -5 -22 20 -23 19 9 50 10 50 -6 24 -6 24 -11 7 -11 8 -40 0 -40 0 -14 -9z" transform="translate(0.000000,77.000000) scale(0.100000,-0.100000)"/></clipPath><clipPath id="piece-mask-21-15" shape-rendering="crispEdges"><path d="M394 546 l7 -37 -7 -44 -6 -44 -17 -19 -16 -19 -22 -11 -22 -12 -19 0 -19 0 -22 19 -22 20 8 33 9 33 -4 21 -3 21 -25 12 -25 11 -89 0 -90 0 -2 -27 -1 -28 2 -30 2 -30 4 -22 5 -23 15 0 15 0 0 -10 0 -9 34 -6 34 -7 22 12 23 12 8 -13 9 -14 0 -47 0 -47 -12 -27 -12 -26 -61 6 -62 6 -11 -25 -12 -26 0 -68 0 -69 16 -6 16 -6 268 0 268 0 -14 37 -13 38 -1 47 0 46 6 16 6 16 68 -6 68 -7 11 39 11 39 0 27 0 26 -6 15 -5 15 -39 -5 -38 -5 -29 28 -28 28 0 73 0 72 -47 16 -48 15 -46 7 -47 6 7 -37z" transform="translate(0.000000,58.000000) scale(0.100000,-0.100000)"/></clipPath><clipPath id="piece-mask-21-16" shape-rendering="crispEdges"><path d="M233 563 l-73 -4 7 -75 6 -75 -14 -41 -13 -40 -58 6 -57 6 -16 -6 -15 -6 0 -23 0 -24 16 -15 15 -16 15 0 15 0 20 11 20 10 18 -6 18 -5 11 -26 12 -25 0 -98 0 -99 93 -4 92 -4 4 3 4 3 1 69 2 70 23 20 24 21 34 0 34 0 15 -14 14 -15 1 -23 1 -23 -7 -21 -7 -21 29 -11 28 -12 65 -10 65 -10 13 0 12 0 0 93 0 92 -10 15 -9 14 -34 -12 -34 -12 -31 11 -32 11 0 9 0 9 -15 0 -15 0 0 33 0 34 21 24 21 24 80 0 80 0 -6 59 -6 59 0 38 0 39 -26 -10 -25 -10 -84 0 -84 0 -6 -11 -7 -10 12 -29 12 -30 -6 -23 -5 -23 -19 -22 -19 -22 -22 0 -21 0 0 10 0 10 -14 0 -15 0 -6 21 -7 21 7 64 7 64 -39 -2 -38 -2 -72 -3z" transform="translate(0.000000,57.000000) scale(0.100000,-0.100000)"/></clipPath><clipPath id="piece-mask-21-17" shape-rendering="crispEdges"><path d="M105 713 l-81 -4 7 -77 7 -77 7 -18 8 -19 54 7 54 7 19 -22 19 -22 7 -21 6 -20 -12 -38 -13 -39 -9 0 -9 0 -17 -16 -16 -16 -45 6 -46 5 -23 7 -22 6 0 -50 0 -51 9 -23 10 -23 6 -28 6 -29 57 3 57 3 34 -2 34 -2 -7 -61 -7 -61 22 -19 22 -19 54 0 53 0 0 10 0 10 15 0 15 0 0 14 0 14 12 4 13 5 0 49 0 49 -5 25 -5 25 49 -2 48 -1 30 -13 29 -12 12 12 12 12 -11 7 -10 7 -17 55 -17 55 -6 33 -6 32 -22 0 -21 0 -22 6 -23 6 0 43 0 42 20 23 19 22 54 -6 54 -7 7 23 6 23 0 75 0 75 -8 -10 -7 -11 -40 -16 -40 -17 -45 -11 -45 -11 -18 -5 -18 -6 6 -40 7 -40 -13 -9 -14 -9 -27 0 -26 0 -16 6 -16 6 0 10 0 9 -16 17 -17 16 6 63 6 63 -27 -2 -27 -2 -80 -3z" transform="translate(0.000000,72.000000) scale(0.100000,-0.100000)"/></clipPath><clipPath id="piece-mask-21-18" shape-rendering="crispEdges"><path d="M168 682 l-17 -3 6 -69 6 -68 -7 -27 -7 -26 -29 6 -30 7 -33 -12 -34 -11 -12 -25 -11 -25 0 -38 0 -38 19 -21 18 -22 31 6 31 6 11 -43 11 -44 5 -20 5 -20 11 -27 10 -28 84 0 83 0 27 -10 26 -10 -6 -28 -6 -27 -6 -22 -6 -23 16 0 16 0 0 -10 0 -10 45 0 45 0 0 10 0 10 16 0 16 0 -7 28 -6 28 63 12 63 13 50 16 50 16 3 2 3 3 -14 33 -14 34 -13 63 -13 63 -9 5 -9 6 -29 -12 -29 -12 -27 27 -27 27 -1 43 -1 43 24 21 24 21 34 6 33 6 41 -10 40 -10 -7 91 -7 92 -3 4 -3 3 -15 -14 -14 -15 -59 -17 -58 -17 -25 -7 -25 -7 -3 -30 -4 -30 -11 -7 -12 -8 -37 0 -37 0 -26 12 -25 11 0 13 0 13 10 6 10 6 0 27 0 27 -9 14 -9 13 -89 7 -89 6 -16 -3z" transform="translate(0.000000,69.000000) scale(0.100000,-0.100000)"/></clipPath><clipPath id="piece-mask-21-19" shape-rendering="crispEdges"><path d="M391 701 l-14 -9 6 -23 5 -24 7 -21 7 -21 -27 -27 -26 -26 -94 0 -95 0 -1 -72 -1 -73 -7 -25 -7 -25 -60 3 -60 3 -12 -26 -12 -26 0 -14 0 -14 12 -26 11 -25 43 0 42 0 12 -72 11 -73 15 -36 16 -36 97 -7 98 -7 17 7 18 7 -7 54 -7 55 12 29 12 28 19 6 19 6 20 -6 20 -6 11 -41 11 -41 -12 -7 -12 -8 6 -20 7 -20 17 -7 17 -7 103 -6 102 -5 0 9 0 9 -15 55 -15 55 0 28 0 29 41 -7 41 -7 44 12 44 13 0 8 0 9 11 0 12 0 18 22 19 21 0 30 0 30 -22 19 -23 20 -55 -5 -55 -5 -16 -7 -16 -6 -7 33 -6 33 6 70 6 71 -53 17 -54 16 -59 17 -58 17 6 38 6 37 -16 6 -16 6 -46 0 -47 0 -14 -9z" transform="translate(0.000000,71.000000) scale(0.100000,-0.100000)"/></clipPath><clipPath id="piece-mask-21-20" shape-rendering="crispEdges"><path d="M38 694 l-18 -5 0 -47 0 -47 -6 -35 -6 -35 80 0 80 0 21 -24 21 -24 0 -28 0 -27 -6 -16 -6 -16 -10 0 -9 0 -17 -16 -16 -16 -45 6 -46 5 -24 7 -24 7 5 -101 6 -101 -11 -4 -12 -4 8 -9 8 -9 77 -3 77 -3 24 -5 23 -5 -5 -37 -5 -37 -7 -22 -7 -23 16 0 16 0 0 -10 0 -10 54 0 54 0 32 30 33 31 -6 50 -6 50 94 -2 95 -3 5 6 5 5 16 74 15 74 11 29 11 28 38 -5 38 -5 5 15 6 15 0 44 0 45 -11 21 -11 20 -70 -7 -71 -7 5 90 5 91 -14 5 -15 6 -90 0 -90 0 6 -47 6 -48 -7 -11 -8 -11 -22 -12 -22 -11 -41 0 -42 0 3 38 2 37 -7 22 -7 21 -13 5 -14 6 -68 5 -69 5 -17 -5z" transform="translate(0.000000,70.000000) scale(0.100000,-0.100000)"/></clipPath><clipPath id="piece-mask-21-21" shape-rendering="crispEdges"><path d="M242 721 l-14 -8 -1 -39 -2 -39 8 -37 8 -37 -37 -7 -37 -7 -83 7 -84 6 0 -94 0 -94 14 -5 15 -6 71 6 72 6 9 -14 9 -14 0 -42 0 -42 -16 -16 -17 -16 -47 6 -47 6 -11 -28 -11 -28 -16 -74 -15 -74 18 -13 17 -13 62 -1 62 0 26 12 25 11 7 24 6 24 -12 25 -11 25 0 9 0 10 20 20 20 20 41 0 40 0 13 -13 13 -12 12 -24 13 -23 -7 -54 -6 -53 26 -7 27 -7 63 6 64 5 17 16 16 17 -11 27 -11 27 -10 55 -10 55 -11 28 -12 27 -32 -6 -32 -6 -6 21 -5 21 5 40 6 39 19 -10 19 -10 33 11 32 10 17 36 17 35 0 60 0 60 -22 -7 -23 -7 -28 -14 -28 -14 -63 -6 -63 -6 -6 17 -7 16 12 49 11 48 -7 27 -7 27 -19 19 -20 20 -32 0 -33 0 -13 -9z" transform="translate(0.000000,73.000000) scale(0.100000,-0.100000)"/></clipPath><clipPath id="piece-mask-21-22" shape-rendering="crispEdges"><path d="M264 689 l-16 -32 7 -52 6 -52 -18 -7 -17 -7 -106 2 -105 2 -6 -24 -7 -24 -1 -69 -1 -68 69 7 69 7 11 -20 11 -21 0 -45 0 -44 -6 -15 -5 -15 -38 5 -38 5 -11 -28 -11 -29 -16 -74 -15 -75 6 -5 5 -6 75 -3 75 -4 28 12 28 11 12 26 12 25 -13 35 -12 34 14 9 15 10 30 0 30 0 11 -8 11 -7 12 -22 11 -22 0 -20 0 -21 -10 0 -10 0 0 -15 0 -15 11 0 10 0 15 -15 15 -15 80 0 80 0 14 13 13 14 -9 74 -8 74 -1 6 0 6 -20 23 -20 23 -24 -12 -24 -13 -23 7 -24 8 -17 20 -18 20 0 28 0 28 20 6 20 6 54 -12 55 -12 18 18 18 19 3 102 4 103 -34 14 -33 14 -50 12 -50 12 -29 11 -28 11 6 38 6 38 -19 11 -20 10 -30 0 -30 0 -17 -31z" transform="translate(0.000000,72.000000) scale(0.100000,-0.100000)"/></clipPath><clipPath id="piece-mask-21-23" shape-rendering="crispEdges"><path d="M2 453 l3 -98 52 3 53 4 15 -15 15 -16 0 -34 0 -34 -11 -32 -11 -31 -13 0 -13 0 -4 -12 -5 -13 -26 12 -27 12 -10 -19 -11 -20 3 -78 3 -77 64 -3 64 -3 29 12 28 12 6 24 7 24 -12 25 -11 25 0 13 0 13 25 11 26 12 30 0 29 0 12 -25 12 -26 -12 -33 -12 -33 6 -16 5 -15 22 -6 22 -6 96 0 96 0 6 38 6 37 6 60 6 60 -10 15 -10 14 -34 -12 -35 -12 -27 10 -27 10 -14 14 -14 15 0 35 0 35 11 25 11 24 52 -5 52 -5 12 26 12 27 0 65 0 65 -9 -5 -8 -5 -74 -11 -74 -11 -22 -5 -23 -4 0 -15 0 -15 10 0 10 0 0 -25 0 -24 -25 -25 -26 -26 -25 -6 -24 -6 -30 12 -30 13 -6 24 -6 24 6 48 6 49 -16 6 -16 6 -84 0 -85 0 3 -97z" transform="translate(0.000000,55.000000) scale(0.100000,-0.100000)"/></clipPath><clipPath id="piece-mask-21-24" shape-rendering="crispEdges"><path d="M353 762 l-13 -8 11 -30 11 -29 -11 -41 -11 -41 -18 -21 -18 -21 -27 -6 -26 -7 -36 12 -37 12 7 22 7 21 5 27 5 26 -21 21 -21 21 -74 0 -73 0 -7 -46 -6 -47 0 -43 0 -42 36 10 36 10 26 -7 26 -6 18 -21 18 -21 0 -43 0 -43 -16 -15 -15 -16 -23 0 -23 0 -10 -23 -11 -23 -12 -57 -13 -57 -9 0 -8 0 0 -25 0 -25 84 0 84 0 -5 -57 -5 -58 18 -21 19 -20 31 -13 31 -12 25 11 25 12 12 34 13 35 -12 51 -13 50 14 9 14 9 25 0 25 0 69 -15 70 -15 3 4 4 4 2 105 2 105 -7 7 -7 8 -31 -13 -31 -13 -40 12 -39 12 0 14 0 15 -10 0 -10 0 0 35 0 34 27 27 26 26 64 -4 64 -4 -3 88 -3 88 -15 0 -15 0 -40 14 -40 14 -40 6 -40 6 -12 -8z" transform="translate(0.000000,77.000000) scale(0.100000,-0.100000)"/></clipPath><clipPath id="piece-mask-21-25" shape-rendering="crispEdges"><path d="M240 863 l0 -18 11 -39 11 -38 -6 -22 -6 -23 -25 -11 -26 -12 -99 0 -100 0 0 -56 0 -55 12 -22 11 -22 15 -15 16 -15 62 1 62 1 6 -36 5 -36 -6 -25 -6 -25 -20 -17 -20 -18 -18 0 -17 0 -4 11 -4 11 -27 -7 -27 -7 -5 -22 -5 -21 -9 -68 -10 -69 6 -14 5 -14 103 0 102 0 -10 -44 -10 -43 6 -25 7 -25 25 -11 26 -12 33 0 33 0 32 11 33 12 -7 21 -7 21 -1 19 -2 19 55 14 55 13 38 12 39 12 -5 25 -5 26 -16 60 -17 60 -10 27 -11 26 -24 6 -25 7 -11 -7 -10 -7 -9 14 -9 14 0 33 0 32 21 21 21 21 24 -6 24 -6 25 -6 24 -6 16 15 15 16 0 84 0 85 -6 16 -6 16 -18 0 -19 0 -90 24 -91 25 -14 13 -14 14 2 40 1 39 -47 3 -48 3 0 -18z" transform="translate(0.000000,88.000000) scale(0.100000,-0.100000)"/></clipPath><clipPath id="piece-mask-21-26" shape-rendering="crispEdges"><path d="M248 673 l-18 -4 0 -7 0 -7 11 -38 10 -38 -22 -20 -23 -20 -22 -5 -22 -6 -76 4 -76 3 0 -66 0 -66 11 -31 10 -30 29 -12 28 -12 22 12 22 12 5 -6 5 -5 1 -48 0 -48 -7 -22 -7 -23 -55 3 -55 2 -9 -15 -10 -15 0 -67 0 -66 6 -16 6 -16 282 0 281 0 12 8 12 8 10 49 10 50 6 47 6 47 49 -2 48 -2 21 24 21 24 0 21 0 21 -10 15 -9 15 -64 -3 -64 -2 -13 27 -13 28 -5 83 -5 84 -21 -7 -21 -6 -63 -10 -63 -11 -22 6 -22 6 -13 8 -14 9 12 42 11 41 -12 22 -12 23 -11 7 -11 8 -30 -1 -30 -1 -17 -5z" transform="translate(0.000000,68.000000) scale(0.100000,-0.100000)"/></clipPath><clipPath id="piece-mask-21-27" shape-rendering="crispEdges"><path d="M7 553 l-7 -6 0 -267 0 -267 102 -6 101 -5 13 13 13 13 -2 61 -1 62 14 10 15 9 35 -6 34 -6 19 -21 18 -22 -6 -45 -6 -46 26 -12 26 -12 82 6 82 7 2 21 1 21 20 83 19 82 4 4 4 4 28 7 27 7 0 -13 0 -14 10 15 10 15 0 52 0 52 -16 15 -15 16 -55 -6 -54 -7 0 93 0 92 -87 -6 -88 -7 -17 -5 -17 -5 6 -44 6 -44 -37 -6 -36 -7 -24 6 -25 6 -6 19 -6 19 13 27 12 27 -19 14 -19 14 -96 0 -97 0 -6 -7z" transform="translate(0.000000,57.000000) scale(0.100000,-0.100000)"/></clipPath><clipPath id="piece-mask-21-28" shape-rendering="crispEdges"><path d="M528 573 l-18 -4 0 -7 0 -6 12 -32 11 -32 -12 -30 -13 -31 -30 -10 -31 -11 -8 0 -8 0 -26 26 -27 27 4 49 3 49 -114 -3 -114 -3 6 -106 6 -106 -5 -6 -6 -6 -24 11 -24 11 -42 -12 -41 -13 -14 -13 -13 -14 0 -19 0 -20 6 -31 7 -31 34 0 34 0 3 -12 4 -13 27 -72 27 -73 14 0 14 0 0 -9 0 -9 48 -6 47 -7 48 9 47 10 20 22 20 23 0 8 0 8 -12 27 -12 26 19 14 19 14 42 0 43 0 16 -17 17 -16 -5 -26 -5 -26 -7 -22 -7 -23 15 0 15 0 5 -12 4 -13 86 1 85 1 16 16 16 16 12 74 11 74 -6 25 -7 26 -13 5 -14 5 -39 -11 -40 -10 -26 6 -27 7 -15 16 -16 15 0 14 0 14 16 15 16 16 58 -2 58 -3 7 7 7 7 9 48 9 48 -6 56 -6 56 -52 11 -51 11 -45 4 -45 5 -17 -5z" transform="translate(0.000000,58.000000) scale(0.100000,-0.100000)"/></clipPath><clipPath id="piece-mask-21-29" shape-rendering="crispEdges"><path d="M242 698 l-24 -12 7 -33 6 -34 -6 -19 -6 -18 -41 -17 -42 -16 -60 2 -61 3 -7 -45 -7 -44 0 -53 -1 -53 15 -15 15 -15 44 6 44 7 23 -13 24 -12 7 -10 6 -10 -10 -23 -11 -24 -33 -6 -32 -6 -30 7 -30 6 -17 -17 -17 -18 4 -87 4 -86 16 -17 17 -16 98 0 98 0 13 9 14 8 -7 47 -7 46 12 30 12 30 30 0 29 0 18 -10 18 -9 12 -30 13 -29 -12 -21 -11 -22 6 -19 6 -18 30 -11 31 -11 74 7 74 6 5 16 5 16 10 70 10 70 0 9 0 9 36 -6 36 -6 13 12 12 12 11 22 12 22 0 35 0 34 -6 15 -5 15 -59 -5 -58 -6 -11 39 -11 39 0 66 0 67 -99 4 -98 4 -14 14 -14 15 0 47 0 46 -7 7 -7 7 -43 4 -43 4 -23 -12z" transform="translate(0.000000,71.000000) scale(0.100000,-0.100000)"/></clipPath><clipPath id="piece-mask-21-30" shape-rendering="crispEdges"><path d="M244 656 l-6 -14 12 -22 11 -21 -6 -18 -6 -18 -45 -18 -46 -17 -79 4 -79 5 0 -78 0 -78 12 -26 11 -25 14 0 13 0 0 -11 0 -11 27 4 28 5 18 8 17 7 0 -40 0 -41 -12 -26 -12 -27 -29 6 -29 6 -13 -14 -14 -14 -11 -83 -10 -83 0 -8 0 -8 279 0 279 0 16 65 16 64 0 46 0 45 -54 -6 -54 -7 -35 7 -34 6 -22 19 -21 18 0 20 0 20 18 20 17 20 33 8 33 7 31 -13 31 -13 13 19 14 19 0 82 0 82 -16 6 -16 6 -61 0 -61 0 -34 12 -34 13 7 41 6 42 -32 11 -32 11 -24 0 -24 0 -5 -14z" transform="translate(0.000000,67.000000) scale(0.100000,-0.100000)"/></clipPath><clipPath id="piece-mask-21-31" shape-rendering="crispEdges"><path d="M240 861 l-14 -10 1 -62 2 -61 -13 -13 -13 -13 -101 5 -102 6 0 -265 0 -266 16 -6 16 -6 74 0 74 0 21 -21 21 -21 -6 -19 -6 -19 -6 -20 -6 -20 11 0 11 0 0 -13 0 -14 24 -11 25 -11 34 6 33 5 14 21 13 21 -12 4 -11 4 0 23 0 24 58 11 57 11 51 20 51 20 7 85 7 86 11 23 11 24 14 6 15 5 38 -11 37 -11 22 11 21 12 0 45 0 45 -17 6 -16 6 -56 -11 -56 -12 -3 10 -4 10 -13 0 -12 0 -7 31 -6 31 0 76 0 75 -74 -7 -74 -7 -27 13 -26 12 6 46 6 45 -18 22 -19 21 -34 6 -35 6 -15 -9z" transform="translate(0.000000,87.000000) scale(0.100000,-0.100000)"/></clipPath><clipPath id="piece-mask-21-32" shape-rendering="crispEdges"><path d="M140 613 l0 -82 -11 -25 -11 -24 -20 -5 -19 -6 -34 6 -34 5 -6 -25 -7 -25 4 -23 3 -24 46 3 46 3 12 -28 11 -28 3 -87 2 -88 10 -3 10 -4 86 6 86 6 -1 -56 -1 -55 15 -16 15 -15 22 -11 22 -12 40 0 40 0 15 16 16 15 0 24 0 24 42 11 43 11 33 12 32 11 0 7 0 7 23 6 23 5 16 33 15 33 13 55 12 55 10 28 10 27 34 0 34 0 0 33 0 34 -20 23 -20 23 -27 0 -28 0 -22 -8 -23 -7 0 106 0 106 -13 0 -14 0 -56 -19 -56 -20 -46 -6 -45 -7 -9 -16 -9 -16 11 -23 10 -23 -23 -20 -23 -20 -18 0 -18 0 -26 12 -25 11 0 13 0 12 -12 5 -13 4 0 62 1 62 -88 -3 -88 -3 0 -82z" transform="translate(0.000000,70.000000) scale(0.100000,-0.100000)"/></clipPath><clipPath id="piece-mask-21-33" shape-rendering="crispEdges"><path d="M160 463 l0 -68 -11 -37 -10 -38 -22 -5 -22 -5 -45 2 -45 3 -3 -24 -4 -23 7 -25 6 -25 28 5 28 6 21 -5 20 -6 10 -26 11 -27 6 -50 6 -50 6 -32 5 -33 279 0 279 0 0 8 0 8 10 83 11 83 14 14 13 14 29 -6 29 -6 12 27 12 26 0 41 0 40 -17 -7 -18 -8 -27 -5 -28 -4 0 11 0 11 -13 0 -14 0 -11 25 -12 26 0 69 0 70 -4 0 -5 0 -73 -15 -73 -15 -27 -11 -28 -11 0 -19 0 -19 10 0 10 0 0 -15 0 -15 -10 0 -10 0 0 -14 0 -14 -29 -11 -28 -12 -39 7 -38 7 -14 13 -13 14 7 58 6 58 -26 12 -27 12 -64 0 -65 0 0 -67z" transform="translate(0.000000,54.000000) scale(0.100000,-0.100000)"/></clipPath><clipPath id="piece-mask-21-34" shape-rendering="crispEdges"><path d="M400 740 l-25 -21 -1 -67 -2 -67 -1 -5 -1 -6 -105 4 -105 4 6 -45 7 -45 -7 -46 -7 -46 -53 6 -53 6 -26 -26 -27 -27 0 -29 0 -29 12 -26 11 -25 9 0 9 0 17 -16 16 -16 54 6 55 7 -7 -90 -7 -89 23 -5 23 -5 77 -7 77 -7 26 6 26 7 -6 30 -7 29 7 40 7 40 23 6 24 6 19 -6 20 -7 11 -28 12 -28 1 -19 1 -19 -7 -33 -8 -32 16 0 16 0 0 -11 0 -12 48 6 47 6 52 21 51 22 7 81 6 82 6 18 5 19 33 -6 34 -7 25 7 25 6 11 34 11 34 -6 19 -6 19 -19 22 -20 23 -43 -6 -43 -6 -18 -7 -19 -7 5 107 5 106 -21 5 -21 5 -70 10 -70 10 -28 12 -29 11 7 21 7 21 -1 23 -1 23 -12 12 -13 13 -35 2 -36 3 -24 -21z" transform="translate(0.000000,76.000000) scale(0.100000,-0.100000)"/></clipPath><clipPath id="piece-mask-21-35" shape-rendering="crispEdges"><path d="M158 584 l-6 -6 5 -93 6 -93 -14 -14 -13 -15 -68 5 -68 5 0 -42 0 -42 10 -20 11 -19 19 10 19 10 8 0 9 0 17 -35 17 -36 1 -22 0 -22 18 -55 18 -55 54 -9 54 -8 42 11 42 11 6 20 6 20 -10 17 -9 17 14 27 13 27 16 6 17 6 23 0 24 0 27 -12 26 -12 -6 -67 -6 -68 16 -16 17 -16 51 6 51 6 45 17 45 16 7 10 8 11 0 56 0 57 6 31 7 32 41 -6 41 -6 10 8 10 8 13 28 12 28 0 22 0 22 -11 38 -10 38 -53 -6 -53 -7 -13 31 -13 32 6 59 5 60 -277 0 -278 0 -5 -6z" transform="translate(0.000000,59.000000) scale(0.100000,-0.100000)"/></clipPath><clipPath id="piece-mask-21-36" shape-rendering="crispEdges"><path d="M228 869 l-17 -10 11 -24 11 -25 -11 -39 -12 -39 -33 -13 -32 -14 -67 0 -66 0 -6 -35 -6 -35 0 -66 0 -67 21 -5 21 -6 47 6 47 5 17 -17 17 -16 0 -19 0 -19 -12 -26 -11 -25 -11 0 -11 0 -35 10 -35 10 -17 -6 -17 -5 -12 -36 -11 -36 6 -64 7 -65 11 -11 11 -12 83 4 84 3 6 -15 6 -15 -12 -22 -11 -21 11 -34 12 -35 13 0 13 0 4 -10 3 -10 36 -6 36 -6 28 28 27 27 -5 46 -6 47 -3 14 -3 15 110 0 110 0 3 270 2 271 -91 19 -91 20 -19 16 -19 16 0 11 0 10 11 4 12 4 -7 20 -6 21 -26 11 -25 12 -37 0 -37 -1 -17 -10z" transform="translate(0.000000,88.000000) scale(0.100000,-0.100000)"/></clipPath><clipPath id="piece-mask-21-37" shape-rendering="crispEdges"><path d="M356 661 l7 -71 -23 -20 -23 -20 -17 0 -17 0 -32 11 -31 11 -6 24 -6 24 6 28 7 27 2 20 2 20 -105 2 -105 1 -7 -21 -6 -22 -1 -82 -1 -83 18 -2 17 -1 57 2 56 3 12 -22 12 -22 -7 -35 -6 -35 -58 6 -58 7 -11 -28 -10 -28 -7 -86 -6 -87 16 -6 17 -6 73 0 74 0 25 -11 25 -12 3 -21 4 -21 -9 -33 -8 -33 22 -20 22 -19 19 0 19 0 22 12 22 11 16 19 17 19 6 44 7 44 -7 37 -7 37 49 -7 49 -6 40 -15 40 -14 11 -1 11 0 16 38 16 37 11 40 10 40 0 6 0 6 -19 22 -19 21 -57 -6 -58 -7 -18 24 -19 24 0 45 0 45 9 14 8 13 21 -11 21 -11 16 0 16 0 13 13 13 12 11 22 12 22 0 65 0 66 -2 1 -3 0 -118 5 -118 6 7 -71z" transform="translate(0.000000,73.000000) scale(0.100000,-0.100000)"/></clipPath><clipPath id="piece-mask-21-38" shape-rendering="crispEdges"><path d="M387 593 l-6 -9 10 -14 9 -15 0 -28 0 -28 -15 -35 -14 -35 -16 -15 -15 -15 -32 -5 -33 -6 -21 19 -21 18 -17 34 -18 34 4 35 4 34 -82 -6 -82 -7 -5 13 -5 13 -11 -15 -11 -15 0 -45 0 -45 -6 -52 -7 -53 87 1 88 1 4 -5 5 -5 5 -34 6 -35 -18 -17 -17 -18 -26 5 -26 5 -21 7 -21 7 -16 -16 -15 -16 -7 -75 -7 -75 6 -34 6 -34 23 -6 22 -6 63 0 63 0 14 14 14 13 -6 56 -6 56 27 11 27 10 41 0 40 0 -6 -33 -6 -32 8 -11 7 -11 107 -26 107 -27 16 0 16 0 -6 10 -6 10 10 74 11 74 12 26 11 27 58 -7 58 -6 6 25 7 25 -4 23 -3 24 -80 1 -80 0 -14 2 -14 2 6 113 5 114 -7 12 -8 12 -16 -6 -15 -7 -19 10 -18 10 -51 7 -52 7 -5 -9z" transform="translate(0.000000,60.000000) scale(0.100000,-0.100000)"/></clipPath><clipPath id="piece-mask-21-39" shape-rendering="crispEdges"><path d="M410 690 l-14 -9 12 -34 13 -35 -12 -25 -12 -26 -29 -12 -29 -12 -83 5 -84 6 -4 -105 -4 -104 -14 -10 -15 -10 -25 5 -25 6 -20 5 -21 6 -22 -19 -22 -19 0 -26 0 -26 17 -36 17 -35 32 6 33 6 11 -44 11 -43 21 -47 21 -46 21 -6 21 -6 87 0 87 0 16 16 17 17 -6 21 -6 21 -6 36 -6 36 17 16 16 17 34 0 34 0 12 -21 11 -21 -6 -28 -5 -28 -6 -24 -6 -25 28 -11 28 -10 86 -7 87 -6 6 16 6 16 -8 17 -9 17 -18 83 -19 84 -38 -6 -38 -6 0 15 0 15 -10 0 -10 0 0 44 0 45 15 15 15 15 51 -6 51 -6 9 14 9 14 0 78 0 77 -84 0 -85 0 -15 15 -15 15 -10 0 -11 0 0 15 0 15 10 0 10 0 0 21 0 20 -11 22 -12 22 -11 7 -11 8 -30 0 -30 0 -15 -10z" transform="translate(0.000000,70.000000) scale(0.100000,-0.100000)"/></clipPath><clipPath id="piece-mask-21-40" shape-rendering="crispEdges"><path d="M498 754 l-6 -6 9 -31 9 -32 0 -37 0 -37 -25 -26 -26 -25 -14 0 -14 0 -15 15 -15 15 -9 0 -9 0 -18 39 -17 40 4 29 4 29 -90 -1 -91 -1 4 -78 3 -78 -12 -29 -12 -30 -33 -6 -33 -6 -20 11 -21 11 -10 0 -10 0 -15 -16 -16 -15 0 -25 0 -24 20 -20 20 -20 24 0 24 0 4 11 4 12 22 -7 21 -7 11 -37 10 -37 0 -40 0 -40 7 -39 6 -39 103 6 103 6 -6 -63 -6 -62 17 -16 16 -17 0 -9 0 -10 16 -6 16 -6 26 0 27 0 14 9 13 9 -7 40 -6 40 18 6 18 5 45 11 45 11 42 17 43 17 5 13 5 13 -14 37 -14 37 -6 33 -6 32 12 26 12 26 44 -7 44 -7 28 12 28 12 12 29 12 29 -6 24 -6 24 -22 6 -23 6 -54 0 -54 0 7 105 7 104 -39 10 -39 11 -53 10 -53 10 -17 0 -17 0 -5 -6z" transform="translate(0.000000,76.000000) scale(0.100000,-0.100000)"/></clipPath><clipPath id="piece-mask-21-41" shape-rendering="crispEdges"><path d="M5 657 l-5 -12 2 -255 3 -255 107 -5 107 -5 12 -12 12 -12 -12 -27 -12 -26 6 -19 6 -19 25 -6 24 -6 36 7 37 6 -6 44 -6 44 17 5 17 5 93 7 92 7 0 6 1 6 3 100 4 100 7 17 7 17 18 6 18 6 25 -12 26 -12 25 7 25 6 6 20 6 20 -6 30 -7 30 -36 1 -37 1 -53 -2 -52 -1 6 101 7 102 -19 -5 -19 -6 -76 -6 -76 -7 -14 -9 -14 -8 13 -13 12 -12 0 -18 0 -17 -11 -25 -12 -25 -32 -11 -32 -11 -16 7 -17 6 0 9 0 9 -14 0 -14 0 -7 30 -7 30 7 40 7 40 -101 0 -102 0 -4 -13z" transform="translate(0.000000,69.000000) scale(0.100000,-0.100000)"/></clipPath><clipPath id="piece-mask-21-42" shape-rendering="crispEdges"><path d="M416 660 l7 -50 -23 -20 -22 -19 -55 -7 -55 -7 -54 6 -54 6 0 -72 0 -72 -6 -23 -7 -23 -54 7 -54 6 -19 -22 -20 -23 0 -42 0 -43 23 -6 22 -6 21 0 22 0 6 -32 6 -33 17 -57 17 -58 8 0 8 0 0 -11 0 -10 14 -15 15 -14 76 0 76 0 22 12 22 11 13 13 13 14 -10 37 -11 38 0 7 0 7 35 7 35 6 24 -6 23 -6 12 -27 11 -28 -10 -35 -10 -35 0 -6 0 -7 30 -12 29 -12 53 7 53 6 31 10 31 10 7 52 6 52 0 38 0 37 -53 -6 -53 -6 -16 16 -17 16 -9 0 -9 0 -11 25 -12 26 0 29 0 29 27 27 26 26 53 -6 53 -6 7 46 6 45 -5 40 -5 41 -6 5 -5 5 -48 -15 -48 -16 -37 -7 -38 -6 -25 6 -26 7 7 59 7 60 -13 30 -12 30 -35 0 -34 0 7 -50z" transform="translate(0.000000,71.000000) scale(0.100000,-0.100000)"/></clipPath><clipPath id="piece-mask-21-43" shape-rendering="crispEdges"><path d="M6 668 l-6 -23 0 -42 0 -42 12 -26 12 -27 52 7 53 6 10 -38 11 -38 0 -22 0 -22 -12 -28 -13 -28 -10 -8 -10 -8 -42 6 -42 6 -5 -43 -5 -43 -4 -58 -4 -57 91 0 91 0 15 -10 14 -9 -11 -42 -11 -42 14 -14 14 -14 33 -6 33 -5 34 32 33 31 1 61 1 60 67 -5 67 -6 21 -11 22 -12 14 6 14 6 -2 262 -3 263 -271 3 -272 2 -6 -22z" transform="translate(0.000000,69.000000) scale(0.100000,-0.100000)"/></clipPath><clipPath id="piece-mask-21-44" shape-rendering="crispEdges"><path d="M439 679 l-21 -21 6 -58 7 -58 -21 -7 -22 -7 -100 4 -100 3 -2 -92 -1 -92 -10 -10 -11 -11 -34 10 -35 10 -23 0 -23 0 -13 -13 -13 -12 -12 -24 -13 -23 12 -27 11 -27 34 -13 34 -12 58 10 57 11 10 -10 10 -10 -13 -77 -13 -78 -2 -20 -1 -20 274 -3 275 -2 7 7 8 8 -10 75 -11 75 -10 27 -10 26 -20 6 -21 5 -28 -6 -28 -5 -6 25 -7 25 4 23 3 24 45 -3 45 -2 22 5 22 5 10 38 11 37 0 66 0 67 -17 6 -16 7 -6 -9 -6 -9 -68 -13 -67 -12 -26 17 -26 16 8 17 8 17 -1 43 -1 42 -26 25 -27 25 -20 0 -19 0 -21 -21z" transform="translate(0.000000,70.000000) scale(0.100000,-0.100000)"/></clipPath><clipPath id="piece-mask-21-45" shape-rendering="crispEdges"><path d="M370 672 l0 -7 10 -35 10 -35 -6 -17 -5 -18 -38 -11 -37 -11 -62 4 -62 3 0 -106 0 -107 -20 -5 -20 -5 -40 5 -40 6 -30 -13 -30 -12 0 -23 0 -23 29 -11 28 -12 36 6 36 7 16 -15 15 -15 6 -89 5 -88 5 -23 4 -22 103 0 102 0 13 9 13 8 -7 50 -6 50 16 31 17 32 30 0 30 0 20 -10 19 -11 -6 -38 -6 -38 28 -11 29 -11 60 -17 60 -16 27 -5 27 -5 11 43 11 44 10 40 10 40 5 18 5 17 15 0 14 0 0 -10 0 -10 14 0 15 0 15 15 15 15 6 0 6 0 15 14 14 15 0 35 0 35 -12 27 -12 26 -72 -7 -72 -7 -11 21 -11 20 0 67 0 67 -32 -6 -33 -6 -58 -10 -58 -10 -25 11 -25 11 7 57 6 56 -17 17 -16 17 -60 0 -59 0 0 -8z" transform="translate(0.000000,68.000000) scale(0.100000,-0.100000)"/></clipPath><clipPath id="piece-mask-21-46" shape-rendering="crispEdges"><path d="M6 524 l-6 -16 0 -66 0 -67 6 -23 6 -22 49 6 48 6 25 -6 25 -6 15 -16 16 -15 0 -20 0 -20 -26 -26 -25 -25 -22 5 -22 5 -22 7 -22 7 -5 -23 -5 -24 -15 -75 -14 -75 -7 -17 -7 -18 99 0 100 0 23 20 23 20 -12 26 -12 26 6 19 6 19 18 10 18 9 37 -10 37 -10 -6 -28 -6 -28 28 -11 28 -11 82 -21 81 -20 6 0 6 0 0 265 0 265 -102 0 -103 0 -15 -10 -14 -9 12 -34 12 -33 0 -7 0 -6 -25 -26 -26 -25 -43 0 -43 0 -23 20 -23 20 11 26 12 25 0 9 0 10 -20 20 -20 20 -69 0 -69 0 -6 -16z" transform="translate(0.000000,54.000000) scale(0.100000,-0.100000)"/></clipPath><clipPath id="piece-mask-21-47" shape-rendering="crispEdges"><path d="M364 531 l-1 -60 -33 -31 -34 -32 -33 5 -33 6 -14 14 -14 14 11 42 11 42 -14 9 -15 10 -100 -1 -100 -1 12 -4 11 -5 -5 -59 -6 -58 7 -37 7 -37 37 6 37 6 21 6 21 6 16 -16 16 -16 9 0 10 0 6 -16 6 -16 0 -33 0 -34 -12 -25 -11 -26 -18 -5 -18 -6 -20 10 -20 11 -8 0 -8 0 -17 -53 -18 -54 0 -16 0 -17 -10 0 -10 0 0 -14 0 -14 -12 -5 -13 -5 15 -12 15 -11 55 4 55 5 28 13 27 12 12 39 11 38 -11 25 -11 25 19 10 19 10 35 0 35 0 25 -12 26 -11 6 -21 7 -20 -12 -4 -11 -4 0 -10 0 -9 15 -15 15 -15 81 -20 80 -19 15 0 14 0 0 273 0 272 -22 1 -23 2 -40 11 -40 11 -40 0 -40 0 -1 -59z" transform="translate(0.000000,59.000000) scale(0.100000,-0.100000)"/></clipPath><clipPath id="piece-mask-21-48" shape-rendering="crispEdges"><path d="M221 553 l-53 -4 6 -57 6 -57 -9 -48 -9 -48 -7 -7 -7 -7 -58 3 -58 2 -16 -16 -16 -15 0 -14 0 -14 16 -15 15 -16 27 -7 26 -6 40 10 39 11 14 -5 13 -5 7 -25 6 -26 -13 -84 -12 -84 4 -5 5 -4 65 -7 65 -6 36 12 35 12 6 16 6 15 -10 39 -11 39 6 10 6 10 54 0 54 0 5 -9 6 -9 -11 -4 -12 -4 7 -21 7 -21 27 -11 27 -11 65 -16 65 -16 20 -4 20 -5 13 33 13 33 19 58 19 58 15 15 15 15 25 -7 24 -6 11 20 11 21 0 36 0 36 -11 20 -11 21 -47 -7 -46 -6 -24 20 -23 20 -9 38 -9 38 0 36 0 35 -77 -8 -78 -8 -23 -5 -22 -5 10 -20 10 -19 0 -20 0 -20 -25 -26 -26 -25 -30 0 -30 0 -22 12 -22 11 -14 14 -14 15 0 59 1 59 -37 -2 -36 -2 -54 -3z" transform="translate(0.000000,56.000000) scale(0.100000,-0.100000)"/></clipPath><clipPath id="piece-mask-21-49" shape-rendering="crispEdges"><path d="M279 839 l-22 -22 7 -68 6 -69 -22 -5 -23 -6 -94 10 -94 10 -10 -6 -10 -6 6 -84 5 -84 23 -20 24 -20 46 6 47 7 11 -21 11 -20 0 -29 0 -29 -20 -23 -19 -22 -38 5 -38 5 -21 7 -21 7 -18 -18 -18 -18 6 -60 6 -61 11 -32 12 -33 119 0 119 0 0 -10 0 -9 -11 -25 -12 -25 7 -25 6 -26 15 0 15 0 0 -11 0 -12 46 6 46 5 9 13 9 14 0 22 0 22 18 4 17 5 77 22 76 22 6 24 7 24 -12 65 -11 65 6 25 6 25 58 -6 58 -6 35 17 34 18 7 11 8 11 0 19 0 19 -22 19 -22 19 -24 -6 -24 -6 -28 -5 -27 -6 -16 17 -17 16 -2 37 -2 37 -1 59 0 59 -15 7 -15 8 -83 18 -83 17 -19 17 -20 17 7 33 6 33 -18 14 -19 13 -23 0 -23 0 -21 -21z" transform="translate(0.000000,86.000000) scale(0.100000,-0.100000)"/></clipPath><clipPath id="piece-mask-21-50" shape-rendering="crispEdges"><path d="M420 670 l-12 -29 7 -49 7 -49 -18 -7 -18 -7 -106 2 -105 1 4 -99 3 -99 -68 4 -69 4 -23 -20 -22 -19 0 -27 0 -27 17 -17 17 -17 62 2 61 1 7 -60 6 -61 0 -49 0 -48 293 2 292 3 12 55 11 55 1 43 1 42 -15 0 -15 0 0 9 0 9 -59 -5 -59 -6 -12 23 -12 22 7 34 6 34 21 -11 20 -11 34 6 33 7 16 52 15 52 -6 59 -7 59 -73 -6 -72 -7 -31 11 -30 11 -6 18 -6 19 11 22 12 21 -13 29 -12 30 -18 9 -18 10 -29 0 -30 0 -12 -30z" transform="translate(0.000000,70.000000) scale(0.100000,-0.100000)"/></clipPath><clipPath id="piece-mask-21-51" shape-rendering="crispEdges"><path d="M363 828 l-23 -11 0 -13 0 -13 11 -25 12 -25 -6 -24 -7 -24 -25 -11 -26 -12 -64 0 -64 0 -6 10 -6 10 -9 0 -9 0 10 -32 9 -33 0 -66 0 -66 -19 -22 -20 -22 -38 10 -38 11 -16 0 -17 0 -4 -29 -4 -30 13 -34 14 -35 29 -5 28 -6 34 9 33 10 7 0 7 0 16 -16 16 -16 -7 -36 -7 -37 -18 -54 -19 -54 0 -1 0 -1 73 -1 72 0 27 -7 27 -7 7 -23 7 -22 -2 -38 -3 -37 42 0 41 0 22 11 22 12 8 11 7 11 -6 49 -6 48 112 -4 113 -3 -6 107 -6 108 -16 16 -16 16 -36 -7 -36 -6 -28 12 -29 11 0 23 0 23 30 12 30 13 40 -6 40 -5 20 5 20 5 0 109 0 109 -107 0 -108 0 -22 6 -22 6 -5 15 -6 16 12 33 12 33 -12 26 -12 25 -32 -1 -33 0 -22 -11z" transform="translate(0.000000,84.000000) scale(0.100000,-0.100000)"/></clipPath><clipPath id="piece-mask-21-52" shape-rendering="crispEdges"><path d="M4 531 l-4 -4 0 -264 0 -263 278 0 279 0 11 51 12 51 6 52 6 53 -10 7 -10 6 -56 -11 -57 -10 -34 12 -34 13 -11 27 -12 27 13 23 12 24 14 14 14 14 42 -7 42 -6 19 -3 20 -2 7 25 7 25 1 57 1 56 -6 15 -5 15 -47 -18 -47 -19 -57 -11 -58 -11 0 -24 0 -23 11 -4 12 -4 -13 -21 -14 -21 -33 -5 -34 -6 -25 11 -24 11 0 13 0 12 -12 4 -12 4 13 31 13 31 -11 21 -12 21 -22 5 -22 4 -73 3 -74 3 -4 -4z" transform="translate(0.000000,54.000000) scale(0.100000,-0.100000)"/></clipPath><clipPath id="piece-mask-21-53" shape-rendering="crispEdges"><path d="M528 575 l-6 -6 10 -39 10 -40 -6 -35 -7 -35 -9 0 -10 0 0 -15 0 -15 -15 0 -15 0 0 -10 0 -10 -53 0 -54 0 -22 19 -22 19 7 60 6 59 -40 5 -40 6 -46 -5 -46 -6 0 -104 0 -105 -42 6 -43 6 -34 -10 -35 -10 -8 -12 -8 -13 0 -12 0 -12 16 -15 16 -16 64 2 65 3 10 -15 10 -15 -7 -103 -6 -102 269 0 268 0 -3 82 -3 83 10 15 10 15 55 -2 55 -3 7 23 7 22 0 48 -1 48 -5 5 -5 6 -22 -12 -22 -12 -28 12 -29 12 -7 16 -7 17 -6 89 -6 89 -25 3 -25 2 -40 11 -40 11 -21 0 -21 0 -5 -5z" transform="translate(0.000000,58.000000) scale(0.100000,-0.100000)"/></clipPath><clipPath id="piece-mask-21-54" shape-rendering="crispEdges"><path d="M157 593 l-7 -6 0 -52 0 -51 -15 -51 -15 -51 -29 -12 -29 -12 -22 12 -23 12 -8 -13 -9 -14 0 -29 0 -29 23 -19 22 -20 53 6 53 6 16 -15 15 -16 -7 -57 -7 -57 -14 -34 -14 -34 5 -5 4 -5 70 -5 69 -5 36 7 37 7 -8 37 -8 37 2 39 1 39 14 8 13 9 33 0 32 0 20 -20 19 -19 7 -27 7 -27 -11 -48 -12 -49 7 -16 6 -17 62 6 62 6 39 18 39 18 13 12 12 12 0 10 0 11 8 0 8 0 11 42 12 43 6 35 6 35 6 18 5 18 35 -7 35 -7 9 14 9 14 0 28 0 28 -12 22 -11 22 -15 15 -16 15 -54 -1 -55 -2 6 89 6 89 -273 0 -273 0 -6 -7z" transform="translate(0.000000,60.000000) scale(0.100000,-0.100000)"/></clipPath><clipPath id="piece-mask-21-55" shape-rendering="crispEdges"><path d="M245 863 l-17 -16 6 -36 6 -36 6 -21 6 -21 -18 -17 -17 -18 -103 4 -102 3 -6 -44 -6 -44 0 -68 0 -69 13 -2 12 -2 80 0 80 -1 3 -24 4 -23 -7 -25 -6 -25 -58 6 -58 7 -11 -26 -12 -27 -10 -70 -10 -71 5 -19 6 -18 75 0 74 0 21 -21 21 -21 -5 -26 -5 -27 -7 -21 -7 -22 37 -12 36 -12 26 7 27 6 18 21 18 21 11 41 11 41 -11 29 -11 30 13 8 12 8 40 -6 40 -6 40 -14 40 -14 26 0 26 0 16 43 17 42 6 35 7 35 14 28 14 27 34 0 35 0 0 40 0 39 -11 25 -12 25 -26 10 -26 11 -40 -2 -40 -3 3 90 4 90 -104 2 -103 3 -28 11 -28 12 6 25 6 24 5 28 6 28 -11 21 -12 21 -34 0 -34 0 -16 -17z" transform="translate(0.000000,88.000000) scale(0.100000,-0.100000)"/></clipPath><clipPath id="piece-mask-21-56" shape-rendering="crispEdges"><path d="M267 698 l-27 -10 -6 -25 -7 -25 6 -53 5 -53 -16 -4 -17 -5 -85 7 -85 7 -9 -5 -8 -5 4 -67 5 -68 27 -27 28 -27 38 5 39 5 5 -15 6 -15 0 -26 0 -27 -11 -39 -11 -39 -69 7 -69 6 -6 -26 -7 -26 6 -53 5 -53 12 -21 11 -21 284 0 284 0 5 8 4 8 7 94 6 95 -10 15 -10 15 -65 -3 -64 -2 -16 16 -16 15 0 12 0 12 8 13 8 12 35 10 34 10 43 -6 42 -6 0 103 0 104 -8 10 -7 10 -72 1 -72 1 -31 13 -31 13 7 58 6 57 -38 11 -39 11 -15 -1 -15 -1 -28 -10z" transform="translate(0.000000,71.000000) scale(0.100000,-0.100000)"/></clipPath><clipPath id="piece-mask-21-57" shape-rendering="crispEdges"><path d="M18 693 l-18 -4 0 -106 0 -105 22 7 23 8 28 0 27 0 20 -23 20 -23 0 -34 0 -33 -33 0 -34 0 -11 -25 -12 -26 0 -18 0 -18 -19 -54 -18 -54 -8 -19 -8 -19 74 5 74 6 29 -5 28 -6 -7 -26 -7 -26 0 -22 0 -22 25 -25 26 -26 23 0 23 0 23 6 24 7 -7 47 -7 48 64 10 63 11 43 6 42 7 0 9 0 9 15 0 15 0 -6 110 -7 110 9 0 9 0 35 -10 35 -10 42 16 41 16 12 28 12 28 -13 23 -12 24 -13 12 -12 13 -28 10 -28 11 -27 -12 -28 -11 -10 7 -11 6 0 80 0 79 -28 0 -29 0 -77 -7 -78 -6 -5 -15 -6 -14 11 -7 11 -7 -6 -37 -6 -37 -13 0 -14 0 0 -14 0 -14 -35 -12 -35 -12 -35 12 -34 11 -6 18 -6 19 12 25 12 26 -7 24 -6 24 -27 11 -28 11 -45 4 -45 5 -17 -5z" transform="translate(0.000000,70.000000) scale(0.100000,-0.100000)"/></clipPath><clipPath id="piece-mask-21-58" shape-rendering="crispEdges"><path d="M181 533 l-43 -4 6 -57 6 -57 -15 -52 -16 -52 -33 -7 -34 -6 -20 11 -21 11 -6 -34 -7 -34 12 -22 12 -23 59 6 59 5 0 -9 0 -9 16 0 17 0 -6 -62 -7 -63 -6 -38 -7 -37 274 0 274 0 -3 71 -4 71 12 29 13 29 61 -6 62 -6 12 26 12 27 0 47 0 47 -9 14 -8 13 -23 -12 -22 -12 -34 7 -34 6 0 9 0 10 -14 0 -15 0 -6 21 -7 21 0 59 0 59 -71 -1 -72 -1 -25 -7 -25 -7 -3 -17 -3 -17 10 0 11 0 0 -21 0 -20 -12 -22 -11 -22 -13 -12 -13 -13 -10 0 -11 0 0 -10 0 -10 -23 0 -24 0 -20 18 -20 17 -11 22 -12 22 0 50 0 49 13 5 12 5 -65 -1 -65 0 -44 -4z" transform="translate(0.000000,54.000000) scale(0.100000,-0.100000)"/></clipPath><clipPath id="piece-mask-21-59" shape-rendering="crispEdges"><path d="M147 703 l-7 -6 0 -60 0 -60 -12 -38 -11 -39 -33 -6 -34 -6 -25 6 -25 6 0 -44 0 -45 12 -26 12 -26 46 6 47 6 13 -30 12 -30 -4 -76 -3 -75 78 0 78 0 34 -14 35 -15 0 -35 0 -36 -10 0 -10 0 0 -14 0 -15 16 -15 15 -16 28 0 28 0 31 11 30 10 5 19 5 20 -10 40 -11 41 6 6 6 6 101 7 100 6 4 5 5 4 -14 94 -14 93 -6 18 -6 19 -22 7 -21 7 -4 -12 -4 -11 -13 0 -14 0 -15 16 -16 15 0 49 0 48 25 6 26 7 48 -7 48 -6 7 17 6 17 -6 79 -7 79 -272 0 -272 0 -6 -7z" transform="translate(0.000000,71.000000) scale(0.100000,-0.100000)"/></clipPath><clipPath id="piece-mask-21-60" shape-rendering="crispEdges"><path d="M367 823 l-18 -5 7 -54 6 -54 -12 0 -11 0 -15 -15 -15 -15 -75 0 -74 0 0 -93 0 -94 -19 -22 -20 -22 -36 10 -36 10 -17 -6 -17 -7 -7 -10 -8 -11 0 -20 0 -20 9 -14 10 -15 26 12 27 13 18 -6 18 -6 6 -16 6 -16 15 -98 15 -99 0 -5 0 -5 80 0 79 0 26 -12 25 -11 6 -23 6 -23 -7 -20 -6 -21 16 -16 16 -16 34 6 35 7 0 9 0 10 15 0 15 0 5 23 5 22 -2 30 -3 30 100 5 100 5 -2 15 -2 15 -15 55 -16 55 0 25 0 25 10 15 9 15 81 -3 80 -3 6 30 6 31 0 5 0 5 -6 31 -6 31 -50 -7 -50 -7 -17 18 -18 18 0 85 0 86 -32 11 -32 11 -43 7 -43 7 -32 10 -32 10 -7 21 -6 20 13 9 14 9 -19 15 -20 15 -40 -1 -41 -1 -18 -5z" transform="translate(0.000000,83.000000) scale(0.100000,-0.100000)"/></clipPath><clipPath id="piece-mask-21-61" shape-rendering="crispEdges"><path d="M20 595 l0 -84 12 -27 12 -26 45 5 45 5 18 -21 18 -20 0 -22 0 -22 -19 -21 -18 -22 -12 0 -11 0 0 -11 0 -11 -27 5 -28 5 -24 8 -24 7 5 -91 5 -91 -11 -4 -11 -4 8 -9 9 -9 56 3 57 2 44 -6 43 -6 -5 -26 -5 -27 -6 -20 -6 -20 8 -13 9 -14 60 -5 59 -5 16 16 17 16 10 0 11 0 0 25 0 25 -11 0 -10 0 3 17 3 18 40 7 40 7 62 0 62 1 5 43 5 42 6 67 6 67 20 22 19 22 26 -11 25 -12 14 0 14 0 15 16 16 15 0 33 0 32 -13 18 -13 18 -39 -11 -39 -10 -22 5 -21 6 -12 24 -11 25 0 69 0 70 -109 0 -110 0 -6 -11 -7 -10 12 -29 12 -30 -6 -24 -6 -25 -16 -15 -15 -16 -25 0 -24 0 0 10 0 10 -15 0 -15 0 -6 25 -6 25 5 23 5 22 7 23 7 22 -116 0 -116 0 0 -85z" transform="translate(0.000000,68.000000) scale(0.100000,-0.100000)"/></clipPath><clipPath id="piece-mask-21-62" shape-rendering="crispEdges"><path d="M10 663 l0 -72 12 -26 11 -25 24 0 23 0 0 10 0 10 15 0 14 0 26 -25 25 -26 0 -43 0 -44 -30 -32 -30 -32 -23 5 -22 5 -22 7 -23 7 -1 -28 -2 -29 -1 -71 -1 -70 62 -1 63 0 30 -13 30 -13 6 -24 7 -24 -12 -26 -12 -25 6 -19 6 -18 34 -11 35 -12 35 12 35 12 0 14 0 14 14 0 13 0 6 37 6 37 -11 7 -11 7 6 15 6 15 105 7 106 7 0 25 0 24 16 48 15 48 -3 39 -3 39 -15 -3 -14 -3 -47 -6 -46 -5 -26 26 -27 27 0 32 0 32 10 15 9 15 50 -2 50 -2 11 37 10 37 0 58 0 57 -10 0 -10 0 -92 -16 -93 -16 -8 -5 -7 -4 6 -38 6 -37 -27 -12 -26 -12 -18 0 -18 0 -21 18 -21 18 -6 27 -7 27 11 0 11 0 0 25 0 25 -22 5 -23 5 -88 2 -87 3 0 -72z" transform="translate(0.000000,74.000000) scale(0.100000,-0.100000)"/></clipPath><clipPath id="piece-mask-21-63" shape-rendering="crispEdges"><path d="M393 698 l-23 -11 0 -19 0 -19 11 -20 10 -20 -6 -19 -6 -20 -94 0 -93 0 -4 -98 -3 -98 -18 -19 -18 -18 -55 12 -54 12 -20 -6 -20 -6 0 -28 0 -28 17 -20 18 -20 24 -8 23 -7 24 13 24 12 19 -22 20 -23 6 -41 6 -42 2 -51 2 -52 85 -6 85 -7 17 6 18 7 -7 75 -6 76 18 13 19 14 42 0 42 0 13 -32 14 -33 -1 -65 -1 -65 11 -7 11 -8 35 1 35 0 58 14 59 14 6 5 5 6 -17 92 -18 91 -10 23 -11 24 -21 6 -20 7 -4 -12 -4 -11 -14 0 -14 0 0 53 0 52 9 14 9 13 41 -7 41 -7 16 16 15 16 10 32 9 33 0 51 0 52 -22 5 -23 6 -60 6 -60 6 -29 11 -28 11 5 38 5 38 -15 5 -15 6 -51 -1 -52 0 -22 -11z" transform="translate(0.000000,71.000000) scale(0.100000,-0.100000)"/></clipPath><clipPath id="piece-mask-21-64" shape-rendering="crispEdges"><path d="M255 683 l-20 -5 -9 -9 -10 -9 3 -49 2 -50 -25 -7 -26 -6 -79 3 -80 4 -6 -83 -7 -82 12 -30 13 -30 36 5 36 6 27 5 27 5 22 -11 21 -12 -6 -40 -7 -40 -12 -13 -13 -12 -23 -8 -22 -7 -30 12 -29 13 -20 -23 -20 -23 0 -82 0 -83 22 -5 23 -5 76 -7 77 -7 22 7 22 7 -6 66 -7 67 9 13 9 13 35 5 35 6 13 -31 12 -31 -5 -27 -5 -28 -7 -23 -7 -22 16 0 16 0 0 -10 0 -10 58 0 57 0 53 7 53 6 13 31 13 31 13 55 13 55 14 13 14 14 34 -5 34 -6 6 42 7 43 -4 34 -3 35 -20 -3 -20 -3 -27 -6 -28 -5 -24 6 -24 6 -11 31 -11 32 0 68 0 69 -94 0 -95 0 -15 15 -15 15 -10 0 -11 0 0 15 0 15 10 0 10 0 0 23 0 22 -8 12 -8 13 -29 4 -30 4 -20 -5z" transform="translate(0.000000,69.000000) scale(0.100000,-0.100000)"/></clipPath><clipPath id="piece-mask-21-65" shape-rendering="crispEdges"><path d="M27 583 l-7 -6 0 -81 0 -81 9 -14 9 -14 47 6 47 7 22 -6 23 -5 16 -34 16 -33 -12 -26 -12 -26 -28 -11 -28 -12 -58 6 -59 6 -4 -23 -5 -23 5 -86 5 -87 46 -1 46 -1 45 2 45 2 20 10 20 11 13 13 13 13 -12 45 -11 46 6 15 5 15 25 0 25 0 15 -15 15 -16 12 -42 11 -42 -6 -42 -6 -43 27 -6 27 -7 60 12 61 12 27 5 27 6 4 13 5 12 -12 94 -13 94 -8 17 -7 17 -21 7 -21 7 -4 -12 -4 -11 -23 0 -24 0 -15 16 -16 15 0 11 0 11 12 40 12 39 62 -6 63 -6 14 47 15 48 -6 53 -5 52 -272 0 -272 0 -6 -7z" transform="translate(0.000000,59.000000) scale(0.100000,-0.100000)"/></clipPath><clipPath id="piece-mask-21-66" shape-rendering="crispEdges"><path d="M425 846 l-19 -14 12 -26 12 -27 0 -8 0 -8 -20 -23 -20 -22 -47 -10 -48 -9 -54 7 -54 7 7 -96 7 -95 -40 10 -41 10 -33 -6 -34 -6 -24 -21 -24 -21 1 -43 1 -43 27 -27 27 -27 29 12 29 12 9 -6 9 -5 12 -58 12 -58 12 -30 11 -30 11 -10 10 -10 100 0 100 0 -2 -20 -2 -20 -7 -27 -6 -28 6 -24 6 -24 31 -11 32 -11 17 0 17 0 23 20 23 20 -7 70 -7 71 109 -3 110 -3 7 7 8 7 -12 63 -12 63 -11 29 -11 28 -43 -6 -43 -5 -16 15 -16 16 3 57 3 56 70 1 70 0 12 2 12 2 7 35 6 35 -7 64 -6 64 -96 -1 -96 -2 -4 13 -5 12 -15 0 -15 0 7 23 7 22 5 26 5 26 -17 16 -16 17 -43 0 -42 0 -19 -14z" transform="translate(0.000000,86.000000) scale(0.100000,-0.100000)"/></clipPath><clipPath id="piece-mask-21-67" shape-rendering="crispEdges"><path d="M183 480 l7 -90 -61 0 -60 0 -28 -15 -29 -14 -6 -16 -6 -17 0 -29 0 -29 26 -6 26 -7 63 7 62 6 13 -30 13 -31 -11 -77 -11 -77 -6 -15 -5 -15 32 -3 33 -3 53 6 53 7 24 24 25 25 0 30 0 30 -10 19 -10 19 19 11 20 10 25 0 25 0 25 -11 24 -11 6 -28 5 -29 -6 -49 -5 -49 30 -12 31 -13 28 6 28 5 58 11 58 12 -5 13 -5 13 10 69 9 68 5 21 5 22 27 7 27 7 4 -11 4 -11 17 0 18 0 20 17 20 18 6 25 6 25 -5 36 -6 36 -62 -1 -62 -1 -16 15 -15 15 -11 22 -12 22 0 51 0 52 -17 -7 -18 -8 -75 -17 -75 -18 -17 -7 -18 -7 0 -13 0 -13 11 -4 12 -4 -7 -20 -6 -20 -30 -11 -31 -12 -30 11 -29 10 -6 23 -6 23 11 38 11 39 0 13 0 12 -111 0 -112 0 6 -90z" transform="translate(0.000000,57.000000) scale(0.100000,-0.100000)"/></clipPath><clipPath id="piece-mask-21-68" shape-rendering="crispEdges"><path d="M46 708 l-4 -13 -6 -59 -5 -59 6 -29 6 -30 26 7 26 7 28 0 27 1 20 -23 20 -23 0 -33 0 -33 -27 -27 -26 -26 -46 5 -46 6 -17 6 -17 7 -6 -24 -6 -24 15 -73 15 -74 -4 -7 -5 -8 16 -6 16 -6 104 0 104 0 0 -12 0 -13 -11 -39 -11 -38 6 -23 6 -23 29 -10 30 -11 31 12 30 11 6 20 7 20 -12 4 -11 4 0 13 0 13 28 10 27 11 60 12 59 11 32 16 32 15 6 30 6 30 0 71 0 71 -9 14 -9 14 -64 -7 -64 -7 -12 26 -12 26 0 29 0 29 18 10 17 9 68 -5 67 -6 0 75 0 76 -6 31 -6 31 -275 0 -274 0 -3 -12z" transform="translate(0.000000,72.000000) scale(0.100000,-0.100000)"/></clipPath><clipPath id="piece-mask-21-69" shape-rendering="crispEdges"><path d="M260 657 l-20 -45 11 -26 12 -26 -7 -8 -8 -7 -124 3 -124 3 0 -69 0 -69 11 -32 11 -31 24 -6 24 -6 28 5 27 6 20 3 20 3 3 -35 4 -34 -7 -43 -6 -42 -34 6 -34 5 -14 -14 -15 -14 -7 -35 -7 -34 -15 -43 -14 -44 5 -5 5 -5 88 -9 88 -10 23 6 22 5 -6 69 -7 68 22 22 21 21 23 0 23 0 19 -13 18 -14 -6 -32 -7 -33 16 -15 15 -15 76 -20 76 -19 24 6 25 6 -7 77 -6 77 -11 28 -11 28 -46 -3 -46 -3 -3 24 -4 23 7 25 6 25 34 -5 34 -6 19 6 20 5 11 24 11 25 0 80 0 80 -14 14 -14 14 -4 -5 -5 -5 -49 11 -49 10 -37 11 -38 12 -5 18 -6 18 11 21 11 20 -18 0 -18 0 -37 6 -38 7 -20 -46z" transform="translate(0.000000,70.000000) scale(0.100000,-0.100000)"/></clipPath><clipPath id="piece-mask-21-70" shape-rendering="crispEdges"><path d="M47 693 l-7 -6 0 -46 1 -46 8 -44 9 -43 13 -9 14 -9 66 6 66 6 13 -33 14 -33 -12 -4 -12 -4 0 -14 0 -13 -72 -22 -71 -22 -18 12 -19 11 -14 0 -14 0 -6 -16 -6 -15 17 -77 16 -77 1 -22 1 -23 87 0 87 0 25 -11 24 -11 5 -20 6 -20 -11 -24 -11 -24 23 -20 23 -20 19 0 19 0 15 15 15 14 20 46 20 45 -11 19 -10 20 0 12 0 12 78 -7 77 -7 28 -1 27 -1 5 5 5 4 -16 74 -15 74 6 24 6 24 17 -7 17 -6 46 -6 46 -5 26 26 27 27 0 33 0 33 -20 23 -20 23 -27 -1 -28 0 -26 -7 -26 -7 -6 28 -5 29 5 72 6 73 -280 0 -280 0 -6 -7z" transform="translate(0.000000,70.000000) scale(0.100000,-0.100000)"/></clipPath><clipPath id="piece-mask-21-71" shape-rendering="crispEdges"><path d="M130 695 l1 -10 9 -75 8 -75 -11 -7 -12 -8 -40 0 -40 0 -11 -8 -11 -7 -12 -22 -11 -22 0 -39 0 -39 23 -10 24 -11 46 9 47 8 15 -5 15 -6 0 -52 -1 -51 -14 -40 -15 -40 0 -13 0 -13 83 7 83 6 -4 -34 -4 -35 18 -34 17 -34 21 -18 21 -19 33 6 34 5 18 22 19 21 12 35 11 35 -4 26 -5 27 -4 15 -4 15 50 -3 50 -2 28 -11 28 -12 10 10 10 10 -15 34 -15 34 -11 43 -11 44 -33 -6 -32 -6 -17 35 -17 36 0 26 0 26 22 19 22 19 21 -6 20 -5 25 -6 25 -5 15 10 14 10 4 104 4 103 -96 3 -95 2 6 -50 6 -50 -33 -31 -32 -30 -54 0 -54 0 0 10 0 10 -16 0 -16 0 7 23 7 22 5 37 5 37 -23 5 -24 5 -73 3 -72 3 0 -10z" transform="translate(0.000000,71.000000) scale(0.100000,-0.100000)"/></clipPath><clipPath id="piece-mask-21-72" shape-rendering="crispEdges"><path d="M242 728 l-22 -11 -6 -24 -6 -24 5 -41 5 -41 -14 -14 -14 -14 -84 8 -84 9 -11 -4 -11 -4 0 -73 0 -72 6 -32 7 -31 12 0 13 0 4 -10 3 -10 56 12 56 11 16 -6 17 -6 0 -45 0 -45 -21 -12 -22 -11 -37 11 -38 11 -15 -5 -14 -6 -11 -23 -10 -23 -7 -80 -7 -80 23 -6 24 -7 82 0 81 0 17 6 16 6 -7 58 -6 58 21 21 21 21 19 0 20 0 27 -25 26 -25 1 -42 1 -43 -8 -17 -8 -17 26 -16 25 -17 71 13 70 12 0 9 0 8 16 0 16 0 -5 18 -6 17 -15 55 -16 55 0 39 0 38 23 -7 22 -7 26 -5 25 -5 42 11 41 12 15 14 15 15 10 0 11 0 0 21 0 22 -22 19 -22 19 -23 5 -23 6 -28 -6 -27 -7 -20 -2 -20 -2 2 107 3 107 -78 16 -77 16 -27 11 -27 10 -5 15 -6 15 6 22 5 23 -16 17 -16 16 -42 -1 -42 0 -23 -11z" transform="translate(0.000000,74.000000) scale(0.100000,-0.100000)"/></clipPath><clipPath id="piece-mask-21-73" shape-rendering="crispEdges"><path d="M389 583 l-17 -4 10 -39 10 -40 -6 -35 -7 -35 -25 -25 -25 -25 -46 0 -46 0 -19 22 -19 23 6 47 7 48 -36 15 -35 15 -68 0 -68 0 5 -77 5 -78 9 -13 8 -14 72 7 72 7 12 -26 12 -27 0 -35 0 -35 -14 -15 -15 -14 -6 0 -6 0 -15 -15 -15 -15 -15 0 -14 0 0 10 0 10 -15 0 -14 0 -10 -37 -10 -38 -14 -55 -15 -55 -7 -17 -7 -18 95 0 96 0 6 20 6 19 -10 20 -11 20 0 19 0 19 25 11 26 12 49 0 48 0 15 -6 15 -5 -5 -38 -5 -38 28 -11 29 -11 57 -6 58 -6 19 6 18 6 -5 91 -5 91 24 -7 24 -8 28 -5 27 -5 0 11 0 11 11 0 12 0 18 22 19 21 0 22 0 22 -18 20 -18 21 -45 -5 -45 -5 -12 26 -12 27 0 83 0 84 -13 11 -14 11 -6 -6 -6 -7 -28 11 -28 10 -35 5 -35 5 -16 -5z" transform="translate(0.000000,59.000000) scale(0.100000,-0.100000)"/></clipPath><clipPath id="piece-mask-21-74" shape-rendering="crispEdges"><path d="M546 562 l-6 -11 9 -41 9 -41 -9 -33 -9 -33 -39 -18 -40 -17 -25 6 -25 6 -15 16 -16 15 0 20 0 20 10 18 9 18 -13 18 -13 18 -59 8 -59 8 -39 -6 -39 -6 6 -88 6 -89 -14 -14 -14 -14 -67 6 -67 5 -14 -18 -13 -19 0 -27 0 -27 5 -15 6 -14 48 5 48 4 11 -28 11 -29 16 -61 15 -62 0 -21 0 -21 285 0 285 0 0 274 0 273 -42 7 -43 8 -46 5 -47 5 -6 -10z" transform="translate(0.000000,57.000000) scale(0.100000,-0.100000)"/></clipPath><clipPath id="piece-mask-21-75" shape-rendering="crispEdges"><path d="M490 553 l-65 -3 -33 -5 -33 -6 7 -33 6 -34 -13 -23 -12 -24 -13 -12 -13 -13 -42 0 -42 0 -19 22 -19 22 -6 24 -6 23 12 25 11 25 0 5 0 5 -102 -3 -103 -3 -3 -273 -2 -274 103 4 103 3 18 17 17 18 -12 34 -12 34 12 31 13 30 19 6 18 6 22 -11 21 -12 -6 -39 -6 -39 14 0 14 0 4 -11 4 -11 84 -19 85 -18 33 0 32 -1 0 71 0 70 10 19 10 19 27 -12 26 -12 5 13 4 12 13 0 13 0 11 31 11 32 0 34 0 34 -15 16 -15 15 -53 -4 -52 -3 -3 103 -3 102 -7 -2 -7 -2 -65 -3z" transform="translate(0.000000,56.000000) scale(0.100000,-0.100000)"/></clipPath><clipPath id="piece-mask-21-76" shape-rendering="crispEdges"><path d="M373 704 l-11 -5 9 -32 9 -32 0 -27 0 -27 -27 -27 -26 -26 -36 6 -36 6 -3 10 -4 10 -13 0 -13 0 -12 35 -11 34 11 21 12 22 -6 14 -5 14 -74 0 -73 0 -19 -13 -18 -14 5 -77 5 -78 14 -9 14 -9 18 5 17 5 19 6 18 6 27 -27 26 -26 0 -34 0 -35 -15 0 -15 0 0 -14 0 -13 -43 -12 -42 -12 -28 10 -28 11 -10 0 -9 0 0 -50 0 -49 15 -45 15 -44 -6 -16 -6 -16 81 0 81 0 20 -20 20 -20 0 -10 0 -9 -12 -25 -11 -26 23 -20 23 -20 43 0 43 0 26 25 25 26 0 6 0 7 -12 33 -12 32 8 8 8 8 106 5 107 5 3 275 2 275 -102 2 -103 2 -12 -5z" transform="translate(0.000000,71.000000) scale(0.100000,-0.100000)"/></clipPath><clipPath id="piece-mask-21-77" shape-rendering="crispEdges"><path d="M300 863 l-15 -6 -8 -11 -8 -11 7 -67 6 -67 -26 -7 -27 -6 -87 9 -87 10 -9 -7 -8 -8 3 -79 4 -79 18 -18 17 -18 50 7 50 7 6 -31 6 -31 0 -5 0 -5 -6 -31 -6 -30 -80 3 -81 3 -10 -15 -10 -15 5 -45 5 -45 11 -35 10 -35 10 -15 9 -15 90 -3 90 -4 11 -13 11 -14 -10 -20 -11 -20 0 -19 0 -19 18 -20 17 -20 39 -7 39 -7 28 12 29 11 0 14 0 14 11 0 11 0 -7 50 -7 50 84 0 83 0 13 9 14 8 -13 75 -12 74 6 26 7 27 20 6 19 6 20 -10 20 -11 32 0 32 0 18 22 19 21 0 29 0 29 -11 20 -11 21 -47 -7 -46 -6 -24 20 -23 20 -5 85 -6 85 -103 -6 -104 -6 0 11 0 12 -16 0 -16 0 7 23 7 22 5 28 5 27 -12 30 -12 30 -22 -1 -21 -1 -15 -5z" transform="translate(0.000000,87.000000) scale(0.100000,-0.100000)"/></clipPath><clipPath id="piece-mask-21-78" shape-rendering="crispEdges"><path d="M6 641 l-6 -74 0 -34 0 -33 40 6 40 7 45 -17 44 -17 6 -19 6 -19 -12 -23 -12 -23 -13 -13 -13 -13 -31 -10 -30 -11 -16 13 -15 12 -9 -9 -9 -9 -7 -94 -7 -94 84 5 84 4 18 -4 17 -3 -6 -39 -6 -39 6 -34 6 -35 30 -12 29 -12 33 7 33 8 18 20 18 21 -5 21 -5 20 -6 26 -6 26 32 7 32 6 66 0 66 0 12 8 12 7 10 45 10 45 6 69 7 68 35 -5 35 -6 15 15 15 15 5 40 6 41 -14 9 -14 9 -46 0 -47 0 -8 18 -8 17 -5 80 -6 80 -15 -5 -15 -4 -88 -4 -89 -3 7 -50 7 -49 -11 0 -11 0 0 -14 0 -14 -29 -11 -28 -12 -39 7 -39 7 -17 20 -18 20 0 19 0 19 11 20 10 20 -11 14 -11 14 -83 3 -84 3 -6 -74z" transform="translate(0.000000,72.000000) scale(0.100000,-0.100000)"/></clipPath><clipPath id="piece-mask-21-79" shape-rendering="crispEdges"><path d="M0 470 l0 -91 21 12 22 11 39 -5 39 -5 21 -24 20 -23 -5 -42 -4 -42 -16 -15 -15 -15 -35 6 -35 5 -11 -68 -12 -69 -14 -48 -14 -47 72 -2 72 -3 42 1 43 0 6 7 7 7 -12 26 -11 26 20 45 20 46 38 -7 37 -6 18 0 18 0 -11 -20 -11 -21 6 -18 5 -18 38 -12 37 -11 45 -10 45 -10 8 0 7 0 0 53 0 52 -7 38 -6 39 -28 -6 -29 -5 -15 5 -15 6 0 10 0 9 -15 15 -15 15 0 30 0 30 17 17 17 17 59 0 59 -1 -7 96 -7 95 -2 1 -1 2 -90 -22 -90 -22 2 -20 1 -19 7 -21 7 -21 -33 -12 -32 -11 -33 0 -33 0 -26 12 -25 11 -7 25 -6 25 10 43 10 44 -103 0 -104 0 0 -90z" transform="translate(0.000000,56.000000) scale(0.100000,-0.100000)"/></clipPath><clipPath id="piece-mask-21-80" shape-rendering="crispEdges"><path d="M154 539 l-6 -11 6 -71 6 -72 -9 -14 -9 -14 -45 7 -45 7 -26 -7 -26 -6 0 -48 0 -49 16 -15 15 -16 15 0 14 0 0 10 0 10 14 0 15 0 14 -15 15 -15 6 -37 5 -38 11 -72 12 -73 83 0 84 0 26 26 26 26 -7 32 -7 31 -1 20 -1 20 42 3 41 3 34 -9 33 -8 0 -38 0 -37 15 -9 15 -10 35 -10 35 -10 18 0 18 0 20 -11 20 -10 19 6 19 6 10 32 10 32 7 52 6 52 -15 16 -16 15 -53 -6 -53 -6 -22 20 -23 19 0 29 0 29 9 14 8 13 23 -12 22 -12 29 12 29 12 15 51 15 51 0 58 0 58 -279 0 -280 0 -7 -11z" transform="translate(0.000000,55.000000) scale(0.100000,-0.100000)"/></clipPath><clipPath id="piece-mask-21-81" shape-rendering="crispEdges"><path d="M390 680 l-22 -22 7 -36 6 -37 6 -22 5 -23 -18 -1 -19 -2 -80 3 -80 2 -3 8 -3 9 -15 -6 -15 -6 6 -61 7 -62 -11 -42 -12 -41 -10 -7 -10 -6 -30 12 -30 13 -24 -13 -24 -13 -11 -27 -12 -28 13 -24 12 -23 21 -18 21 -19 63 7 62 7 0 -35 0 -34 -10 -52 -9 -51 5 -15 6 -15 100 0 99 0 14 14 14 14 -6 35 -5 35 21 21 21 21 23 0 22 0 23 -6 22 -6 0 -13 0 -13 -11 -4 -12 -4 7 -21 7 -21 27 -10 27 -11 50 -6 50 -6 28 -6 29 -5 -7 75 -7 75 12 36 11 35 17 5 17 6 35 -10 35 -10 11 0 11 0 11 25 12 26 0 19 0 19 -17 16 -17 17 -47 -5 -47 -6 -22 6 -23 6 6 104 5 103 -82 0 -81 0 -39 11 -38 11 5 41 6 42 -12 20 -12 20 -32 3 -32 3 -21 -21z" transform="translate(0.000000,70.000000) scale(0.100000,-0.100000)"/></clipPath><clipPath id="piece-mask-21-82" shape-rendering="crispEdges"><path d="M69 703 l-56 -4 -7 -52 -6 -52 0 -34 0 -33 30 6 30 6 28 -13 27 -12 23 -22 22 -22 0 -31 0 -30 -10 0 -10 0 0 -11 0 -10 -15 -16 -16 -15 -39 6 -40 6 -5 -22 -4 -23 -4 -65 -3 -65 -9 -19 -8 -19 95 7 96 7 -1 -60 0 -59 14 -15 14 -14 22 -11 22 -12 30 0 30 0 26 25 25 26 0 20 0 20 -10 19 -10 20 22 4 23 5 78 10 79 9 4 5 5 5 -15 33 -15 34 -11 73 -12 72 -42 0 -43 0 -11 25 -12 26 0 14 0 14 12 26 12 26 60 -3 60 -3 7 25 7 25 1 72 1 72 -10 6 -10 6 0 -10 0 -9 -42 -7 -43 -6 -63 -11 -64 -10 7 -48 7 -47 -24 -7 -23 -6 -23 0 -23 0 -26 26 -25 25 0 22 0 22 7 26 7 26 -32 7 -32 6 -12 -2 -11 -2 -56 -3z" transform="translate(0.000000,71.000000) scale(0.100000,-0.100000)"/></clipPath><clipPath id="piece-mask-21-83" shape-rendering="crispEdges"><path d="M381 751 l-14 -9 13 -50 12 -51 -13 -35 -12 -34 -25 -12 -25 -11 -31 12 -31 13 -19 20 -18 21 5 58 5 57 -83 0 -83 0 -5 13 -4 12 -8 -107 -7 -107 6 -17 6 -16 23 7 22 7 22 5 23 5 23 -6 23 -5 22 -19 22 -19 0 -22 0 -21 -11 0 -10 0 -15 -15 -15 -14 -41 -12 -42 -11 -25 5 -26 5 -22 7 -23 7 0 -38 0 -39 16 -55 16 -55 2 -22 1 -23 72 0 72 0 27 -12 26 -12 -6 -58 -7 -58 13 -14 14 -13 38 -7 39 -7 28 12 29 11 0 14 0 14 10 0 10 0 0 15 0 15 -10 0 -10 0 0 19 0 19 28 11 27 11 67 14 67 13 16 17 16 16 -11 77 -12 76 -11 24 -11 24 -51 -6 -51 -7 -12 27 -12 26 0 28 0 28 20 22 19 23 35 0 35 0 10 -6 10 -7 24 6 25 7 6 38 6 38 -7 61 -6 62 -13 -5 -13 -5 -68 14 -68 15 -25 0 -25 0 -14 -9z" transform="translate(0.000000,76.000000) scale(0.100000,-0.100000)"/></clipPath><clipPath id="piece-mask-21-84" shape-rendering="crispEdges"><path d="M436 674 l-16 -15 -6 -25 -6 -24 12 -31 13 -30 -7 -7 -8 -7 -114 0 -114 0 0 -86 0 -85 -14 -19 -13 -19 -31 13 -31 13 -33 -7 -33 -8 -17 -20 -18 -20 0 -20 0 -20 21 -18 22 -19 34 -6 35 -7 54 7 54 6 0 -47 0 -48 -15 -55 -15 -55 0 -7 0 -8 280 0 280 0 0 49 0 48 -6 61 -7 60 -61 -1 -62 -2 -17 17 -17 17 0 27 0 27 23 19 22 20 68 -4 67 -4 0 52 0 51 -6 47 -7 46 -73 0 -73 0 -26 12 -25 11 1 21 0 21 8 20 8 20 -4 16 -5 17 -24 11 -25 11 -29 0 -29 0 -15 -16z" transform="translate(0.000000,69.000000) scale(0.100000,-0.100000)"/></clipPath><clipPath id="piece-mask-21-85" shape-rendering="crispEdges"><path d="M0 663 l0 -68 11 -39 11 -39 58 6 59 5 5 -15 6 -15 0 -34 0 -35 -12 -22 -11 -22 -12 -12 -13 -12 -36 6 -36 6 0 -9 0 -9 -10 -70 -10 -70 -6 -18 -6 -18 109 6 108 5 -12 -6 -13 -6 0 -49 0 -50 12 -22 11 -22 20 -18 20 -17 24 0 23 0 0 10 0 10 11 0 10 0 13 13 13 12 11 22 12 22 0 20 0 21 -11 0 -10 0 3 17 3 17 25 7 25 7 75 1 75 1 3 93 3 92 11 28 11 28 58 -7 58 -6 6 35 7 35 -12 22 -12 22 -56 -3 -57 -2 -19 1 -18 2 4 101 4 100 -21 -6 -20 -6 -75 -19 -75 -20 -18 0 -19 0 7 -30 7 -30 -16 0 -16 0 0 -10 0 -10 -45 0 -45 0 0 10 0 10 -16 0 -16 0 6 23 6 22 6 27 6 28 -26 10 -27 10 -75 0 -74 0 0 -67z" transform="translate(0.000000,73.000000) scale(0.100000,-0.100000)"/></clipPath><clipPath id="piece-mask-21-86" shape-rendering="crispEdges"><path d="M169 543 l-1 -8 2 -99 2 -99 -68 6 -69 5 -17 -9 -18 -10 0 -29 0 -29 12 -26 12 -26 67 7 68 6 7 -27 7 -27 -5 -89 -5 -89 88 0 88 0 26 12 25 11 6 23 6 22 -11 38 -11 39 0 18 0 18 48 -3 47 -3 -1 -39 -2 -40 14 -14 14 -13 91 -25 90 -24 25 0 24 0 0 70 0 69 -12 26 -12 26 -46 -6 -46 -6 -12 26 -12 26 0 45 0 44 25 -6 25 -6 34 6 33 6 11 39 12 38 0 67 0 66 -280 0 -280 0 -1 -7z" transform="translate(0.000000,55.000000) scale(0.100000,-0.100000)"/></clipPath><clipPath id="piece-mask-21-87" shape-rendering="crispEdges"><path d="M510 721 l0 -12 10 -20 11 -19 -20 -45 -20 -46 -15 -14 -15 -15 -19 0 -19 0 -23 20 -23 20 11 24 11 24 -6 20 -5 20 -24 11 -25 11 -89 0 -90 0 0 -87 0 -88 -9 -14 -8 -13 -21 11 -21 11 -20 0 -21 0 0 -10 0 -10 -11 0 -12 0 -18 -22 -19 -21 0 -22 0 -22 20 -23 19 -22 31 4 31 5 9 -17 9 -16 14 -83 14 -83 14 -9 14 -9 114 0 113 0 -7 -22 -7 -23 -5 -22 -5 -23 6 -25 6 -25 15 0 15 0 0 -10 0 -10 24 0 25 0 15 16 16 15 6 25 6 24 -12 30 -12 29 7 10 6 11 107 0 107 0 12 8 13 8 11 81 12 82 -13 31 -13 30 -62 -6 -63 -7 -26 7 -26 6 0 29 0 29 6 17 6 16 29 14 28 15 60 0 61 0 -7 93 -6 92 -3 4 -4 4 -33 3 -32 3 -77 7 -78 7 0 -12z" transform="translate(0.000000,73.000000) scale(0.100000,-0.100000)"/></clipPath><clipPath id="piece-mask-21-88" shape-rendering="crispEdges"><path d="M403 860 l-21 -9 -7 -20 -6 -20 7 -35 6 -35 -16 -16 -16 -16 -106 3 -106 3 7 -100 7 -101 -59 1 -59 0 -17 -17 -17 -17 0 -30 0 -30 15 -15 15 -15 0 -9 0 -10 15 -6 15 -5 30 6 30 6 1 -14 0 -14 8 -78 8 -78 7 -7 7 -6 92 2 93 3 -1 -62 0 -62 13 -4 12 -5 0 -12 0 -13 25 -11 26 -12 18 0 18 0 23 20 23 20 -11 24 -11 24 12 15 12 15 40 6 40 7 68 22 68 21 6 24 5 23 -5 41 -5 40 5 35 6 35 21 -7 21 -7 22 -5 23 -5 30 32 30 32 0 44 0 43 -25 26 -26 25 -14 0 -15 0 0 -10 0 -10 -23 0 -24 0 -11 25 -12 26 0 72 0 73 -105 11 -104 11 -15 15 -15 15 6 35 5 34 -8 5 -9 5 -25 6 -25 5 -22 -8z" transform="translate(0.000000,87.000000) scale(0.100000,-0.100000)"/></clipPath><clipPath id="piece-mask-21-89" shape-rendering="crispEdges"><path d="M231 699 l-24 -9 6 -56 6 -57 -15 -14 -15 -15 -92 3 -92 4 -3 -94 -3 -94 55 7 55 6 15 -16 16 -15 0 -49 0 -48 -6 -17 -7 -17 -7 12 -7 11 -26 -6 -27 -7 -10 -37 -10 -36 0 -17 0 -17 -16 -47 -16 -47 12 -7 12 -7 79 -7 80 -7 14 14 13 14 -5 41 -5 41 6 24 6 24 25 11 26 12 39 0 39 0 16 -16 16 -16 -6 -28 -6 -28 16 -16 16 -16 22 -5 22 -5 69 -15 69 -16 9 13 8 13 0 13 0 12 8 0 9 0 13 57 12 57 11 23 10 23 23 0 23 0 15 16 16 15 0 43 0 43 -18 21 -18 21 -26 6 -26 7 -37 -11 -37 -10 3 91 4 92 -120 29 -120 30 -7 11 -8 11 6 31 6 30 -44 2 -43 1 -24 -10z" transform="translate(0.000000,71.000000) scale(0.100000,-0.100000)"/></clipPath><clipPath id="piece-mask-21-90" shape-rendering="crispEdges"><path d="M173 543 l-23 -4 0 -47 0 -47 -9 -33 -10 -32 -15 -16 -16 -16 -41 7 -41 7 -9 -13 -9 -14 0 -52 0 -53 14 0 14 0 4 11 4 12 20 -7 21 -6 11 -25 11 -24 18 -95 17 -96 82 0 83 0 15 15 15 15 12 0 12 0 -7 52 -7 51 13 8 13 9 46 0 45 0 20 -15 19 -15 -14 -9 -13 -9 6 -20 7 -20 17 -7 17 -7 65 -13 65 -14 23 -6 22 -7 0 84 0 85 20 23 20 23 29 -13 30 -12 22 7 23 8 13 12 12 13 7 40 6 40 -21 11 -21 12 -38 -6 -37 -6 -26 -5 -26 -5 -13 31 -13 30 7 80 7 80 -63 -1 -63 0 -40 -7 -40 -7 -3 -18 -3 -17 10 0 11 0 0 -25 0 -25 -11 0 -10 0 -17 -16 -16 -16 -59 5 -60 5 -9 14 -8 13 6 20 6 20 5 26 5 26 -32 7 -32 6 -37 -1 -36 -2 -22 -4z" transform="translate(0.000000,55.000000) scale(0.100000,-0.100000)"/></clipPath><clipPath id="piece-mask-21-91" shape-rendering="crispEdges"><path d="M170 573 l0 -103 -43 6 -44 6 -34 -17 -34 -18 -7 -11 -8 -11 0 -29 0 -29 22 -18 21 -19 32 6 32 6 11 -29 10 -28 12 -61 12 -61 9 -14 8 -14 88 -3 88 -3 23 -5 24 -5 -7 -49 -7 -50 16 0 16 0 0 -10 0 -10 49 0 49 0 16 6 16 6 -6 39 -6 38 23 5 24 5 73 11 74 11 13 12 12 13 8 87 7 87 9 6 10 6 14 -12 15 -12 30 11 31 10 13 13 13 13 12 23 12 23 -6 19 -6 19 -44 17 -45 17 -41 -7 -42 -7 7 108 7 108 -103 -3 -103 -3 -13 -4 -14 -5 7 -30 6 -30 -6 -20 -6 -20 -15 0 -14 0 0 -10 0 -9 -35 -7 -34 -6 -16 16 -16 15 7 25 6 25 -6 19 -7 20 -17 8 -17 8 -93 5 -92 6 0 -102z" transform="translate(0.000000,68.000000) scale(0.100000,-0.100000)"/></clipPath><clipPath id="piece-mask-21-92" shape-rendering="crispEdges"><path d="M227 709 l-17 -10 10 -19 10 -19 0 -30 0 -30 -25 -25 -24 -24 -53 -7 -53 -6 -38 5 -37 4 0 -68 0 -69 11 -25 12 -24 21 -6 22 -5 39 10 39 11 13 -18 13 -18 0 -32 0 -33 -16 -15 -15 -16 -14 0 -14 0 -25 12 -26 11 -20 -23 -20 -23 -1 -16 0 -16 -8 -85 -9 -85 12 -7 11 -8 80 0 80 0 13 9 13 8 -2 47 -3 46 12 12 11 11 46 1 46 1 9 -15 10 -15 0 -22 0 -23 -10 0 -10 0 0 -15 0 -15 11 0 10 0 15 -15 15 -15 87 0 87 0 21 6 21 6 17 71 16 72 6 39 7 38 34 -5 35 -6 15 15 16 15 4 42 5 42 -20 23 -21 24 -39 5 -39 5 -22 -11 -21 -12 0 92 0 91 -22 -5 -23 -6 -64 -11 -64 -11 -29 12 -30 12 5 49 6 49 -5 29 -6 28 -24 11 -25 11 -27 0 -27 -1 -18 -10z" transform="translate(0.000000,72.000000) scale(0.100000,-0.100000)"/></clipPath><clipPath id="piece-mask-21-93" shape-rendering="crispEdges"><path d="M256 553 l-68 -4 7 -95 7 -95 -11 -13 -11 -13 -81 5 -81 5 -9 -14 -9 -14 0 -22 0 -22 17 -16 17 -17 53 5 53 6 14 -15 15 -14 6 -43 5 -42 3 -65 2 -65 55 -3 54 -3 43 16 42 16 6 19 6 19 -6 34 -7 34 31 13 31 13 36 -6 36 -6 7 -6 6 -7 0 -46 0 -47 14 -14 14 -15 90 -4 90 -5 -8 19 -7 19 -8 30 -9 30 -11 44 -11 43 -31 -6 -31 -6 -18 22 -19 21 0 38 0 38 11 25 12 25 34 12 34 11 26 -7 26 -6 8 13 9 13 0 55 0 55 -6 23 -6 22 -68 0 -67 0 -32 -6 -32 -7 5 -23 6 -24 6 -23 5 -23 -18 -21 -18 -20 -33 -8 -33 -7 -29 12 -30 12 -6 35 -6 34 6 38 6 39 -23 6 -22 6 -10 -2 -10 -2 -69 -3z" transform="translate(0.000000,56.000000) scale(0.100000,-0.100000)"/></clipPath><clipPath id="piece-mask-21-94" shape-rendering="crispEdges"><path d="M242 841 l-14 -8 11 -39 11 -39 0 -7 0 -7 -26 -26 -27 -27 -92 4 -93 3 -6 -59 -6 -59 0 -23 0 -23 15 -14 15 -15 57 4 58 5 15 -10 14 -10 0 -55 0 -55 -24 -21 -24 -21 -15 7 -16 6 -15 4 -15 4 -14 -9 -13 -9 -9 -43 -8 -44 -1 -46 0 -47 16 -6 16 -6 83 0 83 0 16 -6 16 -6 0 -24 0 -24 -11 0 -11 0 7 -27 6 -27 21 -18 21 -18 18 0 18 0 26 12 26 12 -3 40 -3 39 30 8 30 7 76 12 76 12 17 91 18 90 11 24 11 24 46 -6 47 -6 17 16 16 16 0 42 0 42 -9 14 -9 14 -72 -6 -71 -6 -15 6 -14 5 0 94 0 94 10 0 10 0 0 8 0 7 -22 2 -23 1 -50 11 -50 11 -27 11 -28 11 -2 12 -1 11 -1 29 -1 30 -25 7 -25 7 -40 1 -40 1 -13 -9z" transform="translate(0.000000,85.000000) scale(0.100000,-0.100000)"/></clipPath><clipPath id="piece-mask-21-95" shape-rendering="crispEdges"><path d="M246 714 l-16 -15 -6 -25 -6 -24 12 -30 12 -29 -18 -18 -18 -18 -103 -3 -103 -4 0 -267 0 -268 101 -6 101 -6 13 12 13 12 -5 51 -5 51 11 22 12 22 57 -3 57 -3 -3 -31 -3 -30 38 -16 38 -16 50 -17 50 -17 25 -5 26 -5 16 54 16 53 7 31 6 32 -16 16 -16 16 -7 0 -7 0 -33 -10 -34 -9 -28 6 -29 5 -14 35 -13 34 4 30 4 29 17 0 16 0 38 -11 38 -10 20 22 19 22 -1 71 -1 71 -7 24 -7 24 -109 22 -109 22 -4 11 -4 12 -14 0 -14 0 6 39 6 39 -20 11 -21 11 -10 0 -10 0 -15 -16z" transform="translate(0.000000,73.000000) scale(0.100000,-0.100000)"/></clipPath><clipPath id="piece-mask-21-96" shape-rendering="crispEdges"><path d="M264 872 l-11 -7 -12 -23 -13 -24 7 -58 7 -57 -18 -7 -17 -6 -103 6 -104 7 0 -39 0 -39 9 -38 9 -38 23 -20 24 -20 46 6 47 7 11 -21 11 -20 0 -36 0 -36 -11 -21 -11 -20 -24 6 -25 7 -14 -15 -14 -14 -26 -73 -26 -74 -6 -17 -5 -17 27 -7 26 -6 68 6 68 7 -5 -31 -4 -31 17 -40 18 -39 9 0 9 0 15 -15 15 -15 14 0 14 0 27 27 26 26 -5 56 -5 56 -3 15 -4 15 52 -2 52 -2 60 -16 59 -15 16 6 16 6 6 24 6 24 9 0 9 0 0 18 0 18 16 48 16 48 23 -6 23 -6 15 6 15 5 7 49 7 49 -7 20 -6 20 -35 7 -34 6 -40 -10 -40 -10 -5 32 -6 31 3 80 3 80 -100 6 -100 5 -22 8 -22 7 -7 21 -6 20 12 8 12 7 -11 41 -11 40 -16 6 -16 6 -11 0 -12 0 -11 -8z" transform="translate(0.000000,88.000000) scale(0.100000,-0.100000)"/></clipPath><clipPath id="piece-mask-21-97" shape-rendering="crispEdges"><path d="M360 830 l-20 -20 0 -10 0 -9 11 -25 12 -25 -7 -24 -6 -24 -30 -13 -30 -13 -75 5 -75 5 0 -61 0 -61 -10 -37 -11 -37 -50 2 -50 2 -9 -15 -10 -15 0 -32 0 -32 27 -27 26 -26 46 5 47 6 14 3 15 3 3 -39 3 -39 -15 -48 -16 -48 0 -24 0 -25 105 6 105 5 -6 -31 -6 -31 6 -26 6 -25 15 0 15 0 0 -9 0 -9 30 -7 30 -6 20 6 20 6 0 38 0 38 95 18 96 18 20 18 20 17 9 34 8 33 7 52 7 51 13 19 14 18 12 -12 13 -13 12 0 12 0 11 31 11 32 0 33 0 32 -5 15 -6 14 -47 -5 -48 -4 -12 26 -12 27 0 62 0 62 -10 15 -10 15 -9 -14 -8 -13 -66 -5 -65 -6 -27 7 -26 7 6 53 7 54 -13 23 -12 24 -13 12 -13 13 -40 0 -41 0 -20 -20z" transform="translate(0.000000,85.000000) scale(0.100000,-0.100000)"/></clipPath><clipPath id="piece-mask-21-98" shape-rendering="crispEdges"><path d="M241 841 l-15 -10 12 -26 12 -26 -6 -24 -6 -23 -28 -12 -28 -11 -91 3 -91 3 0 -257 0 -256 6 -16 6 -16 100 0 100 0 -7 -40 -7 -40 7 -30 7 -30 14 0 14 0 0 -9 0 -9 17 -6 16 -7 32 11 32 11 12 25 11 25 0 17 0 18 -12 12 -12 12 8 7 7 7 100 12 100 12 19 22 20 23 10 36 10 36 0 46 0 47 -15 6 -15 5 -47 -8 -46 -9 -24 11 -23 10 0 39 0 39 11 22 12 22 11 7 11 8 30 0 30 0 23 6 22 6 -4 32 -5 31 -6 56 -6 56 -95 12 -95 11 -19 13 -20 12 2 32 2 32 -5 5 -5 5 -39 6 -40 6 -14 -10z" transform="translate(0.000000,85.000000) scale(0.100000,-0.100000)"/></clipPath><clipPath id="piece-mask-21-99" shape-rendering="crispEdges"><path d="M150 650 l0 -59 -17 -35 -17 -36 -32 -10 -33 -11 -19 10 -19 10 -6 -39 -5 -40 5 -21 6 -21 32 6 32 6 12 -27 11 -28 9 -51 10 -51 13 -41 13 -42 99 0 98 0 -8 -18 -7 -17 -4 -35 -5 -35 19 -21 18 -21 23 -12 23 -13 41 7 41 7 25 25 24 24 -13 30 -12 31 13 8 13 8 66 7 66 7 20 11 20 12 1 30 1 30 7 60 7 60 -10 14 -9 14 -46 -12 -46 -11 -37 15 -37 16 -8 12 -8 12 0 27 0 26 6 16 6 16 62 0 61 0 14 9 15 10 4 90 4 91 -44 -19 -44 -18 -34 -7 -35 -7 -27 -11 -28 -10 0 -28 0 -28 -16 -6 -16 -6 -37 0 -38 0 -20 18 -21 18 5 45 5 45 -26 12 -27 12 -69 0 -70 0 0 -60z" transform="translate(0.000000,73.000000) scale(0.100000,-0.100000)"/></clipPath><clipPath id="piece-mask-21-100" shape-rendering="crispEdges"><path d="M219 689 l-21 -21 5 -26 5 -27 6 -20 6 -20 -10 -15 -9 -15 -94 2 -95 3 -7 -83 -6 -83 6 -26 7 -25 39 9 39 10 34 -6 35 -7 6 -20 7 -20 -7 -49 -7 -49 -15 -5 -15 -6 -23 6 -23 6 -16 -48 -16 -48 0 -17 0 -17 -10 -4 -9 -3 -3 -25 -3 -25 56 -9 56 -9 46 7 47 7 6 25 6 24 -12 29 -12 29 12 22 11 21 47 -3 47 -3 -3 -47 -4 -47 24 -6 23 -6 90 -18 90 -18 7 11 8 11 -6 70 -5 70 -5 22 -4 22 -15 15 -15 15 -48 -6 -48 -5 -17 17 -17 16 0 24 0 24 17 17 17 17 78 -6 78 -5 -1 61 0 62 -7 44 -7 45 -50 12 -50 13 -53 7 -53 6 -14 14 -14 14 -10 0 -11 0 0 10 0 9 12 26 12 26 -15 10 -14 9 -32 0 -33 0 -21 -21z" transform="translate(0.000000,71.000000) scale(0.100000,-0.100000)"/></clipPath><clipPath id="piece-mask-21-101" shape-rendering="crispEdges"><path d="M173 725 l-5 -16 5 -35 6 -34 -15 -50 -15 -50 -63 6 -62 6 -12 -39 -12 -40 0 -11 0 -11 16 -15 15 -16 24 0 23 0 4 11 4 12 21 -7 21 -7 10 -27 11 -27 6 -60 6 -60 6 -32 5 -32 102 -3 101 -3 -3 -53 -4 -53 12 -28 11 -28 26 -12 26 -12 31 13 31 12 13 13 13 12 -3 37 -3 37 65 18 65 17 32 12 32 12 6 19 6 19 -4 7 -5 8 -16 77 -16 77 6 15 6 16 14 0 14 0 19 -11 18 -12 71 22 72 22 0 13 0 14 12 4 12 4 -14 33 -13 33 -66 -6 -66 -6 -14 9 -13 9 -9 43 -8 44 -1 53 0 52 -275 0 -276 0 -6 -15z" transform="translate(0.000000,74.000000) scale(0.100000,-0.100000)"/></clipPath><clipPath id="piece-mask-21-102" shape-rendering="crispEdges"><path d="M16 668 l-4 -13 -6 -83 -5 -82 39 6 40 7 32 -14 33 -13 18 -20 19 -21 -5 -42 -4 -42 -16 -15 -15 -16 -31 6 -30 6 -10 -38 -10 -39 -7 -30 -7 -30 -7 -5 -7 -5 -7 -22 -7 -23 69 0 69 0 33 -6 32 -7 -7 -44 -6 -43 15 -16 16 -15 34 -6 35 -5 15 15 16 16 0 15 0 15 43 11 42 12 73 25 72 26 0 81 0 81 -10 34 -10 35 -11 7 -12 7 -52 -5 -51 -5 -17 17 -17 16 0 22 0 22 9 14 9 14 81 -5 81 -5 11 13 11 13 -7 96 -7 96 -15 -5 -15 -6 -72 -11 -71 -10 -24 -5 -23 -5 6 -38 6 -39 -16 -6 -16 -6 -49 0 -49 0 0 10 0 10 -16 0 -16 0 7 46 7 47 -14 8 -13 9 -88 0 -88 0 -3 -12z" transform="translate(0.000000,69.000000) scale(0.100000,-0.100000)"/></clipPath><clipPath id="piece-mask-21-103" shape-rendering="crispEdges"><path d="M394 735 l-6 -15 11 -46 12 -45 -13 -13 -13 -13 -23 -12 -23 -12 -94 0 -95 0 0 -64 0 -64 -12 -27 -12 -26 -52 5 -52 5 -11 -24 -11 -25 0 -35 0 -35 14 -15 14 -14 27 -10 27 -10 35 12 34 12 10 -14 10 -15 -6 -60 -6 -60 -6 -36 -5 -36 23 -6 24 -7 56 0 56 0 31 11 31 11 6 17 5 16 -10 35 -10 35 0 7 0 8 59 0 60 0 16 -17 17 -17 -6 -56 -7 -57 25 -11 25 -11 53 9 53 9 32 7 32 6 4 13 5 12 -9 84 -9 84 -11 28 -12 27 -51 -2 -51 -3 0 49 0 50 46 1 46 0 15 15 15 15 11 22 12 22 0 61 0 62 -32 -6 -33 -5 -61 -12 -60 -12 -27 7 -27 6 6 43 6 42 -11 42 -12 42 -15 16 -15 15 -25 0 -25 0 -5 -15z" transform="translate(0.000000,75.000000) scale(0.100000,-0.100000)"/></clipPath><clipPath id="piece-mask-21-104" shape-rendering="crispEdges"><path d="M250 670 l-15 -9 0 -66 0 -66 -23 -6 -23 -5 -77 6 -77 7 -19 6 -19 5 5 -83 5 -84 13 -28 13 -27 64 2 64 3 9 -15 10 -15 0 -21 0 -21 -21 -24 -21 -24 -48 2 -49 2 -6 -47 -6 -47 -10 -48 -9 -48 0 -9 0 -10 265 0 266 0 5 15 6 15 -16 68 -17 67 -11 29 -11 28 -48 -4 -48 -5 -6 14 -5 15 0 27 0 27 13 19 14 18 67 -5 67 -6 14 14 14 14 -6 93 -6 92 -2 3 -2 3 -49 -21 -49 -21 -47 -6 -48 -6 0 12 0 11 -15 0 -15 0 0 8 0 7 9 31 9 31 -14 38 -13 38 -13 8 -13 9 -20 0 -20 0 -15 -10z" transform="translate(0.000000,68.000000) scale(0.100000,-0.100000)"/></clipPath><clipPath id="piece-mask-21-105" shape-rendering="crispEdges"><path d="M14 688 l-8 -12 -4 -77 -4 -77 54 2 54 1 16 -15 15 -15 11 -22 12 -22 0 -28 0 -28 -9 -14 -9 -14 -35 7 -35 7 -6 -18 -5 -18 -6 -40 -7 -40 -11 -35 -12 -35 -8 -6 -8 -6 7 -16 6 -17 64 0 63 0 27 -12 26 -12 -5 -45 -5 -45 21 -18 20 -18 38 0 37 0 16 6 16 6 0 28 0 28 28 10 27 10 30 7 30 6 53 21 54 21 -6 31 -5 31 -14 60 -15 60 -12 28 -13 27 -9 0 -9 0 -19 -10 -19 -10 -11 19 -10 20 0 42 0 42 68 -5 68 -5 12 13 12 13 0 54 0 54 -6 47 -7 46 -273 0 -273 0 -7 -12z" transform="translate(0.000000,70.000000) scale(0.100000,-0.100000)"/></clipPath><clipPath id="piece-mask-21-106" shape-rendering="crispEdges"><path d="M0 620 l0 -69 12 -26 11 -25 46 0 46 0 14 -9 14 -9 -6 -41 -5 -40 -15 -15 -15 -15 -35 6 -35 5 -7 -68 -6 -69 -9 -40 -9 -39 5 -6 5 -5 91 -6 90 -7 9 -13 9 -14 0 -27 0 -27 -10 -6 -10 -6 0 -13 0 -13 25 -11 26 -12 37 0 37 0 12 8 11 7 4 30 3 30 25 7 25 7 58 17 57 17 23 20 22 20 -12 4 -12 4 -26 72 -27 72 -4 13 -3 12 -34 0 -35 0 -6 31 -6 31 0 20 0 19 13 14 14 13 41 13 42 12 25 -11 24 -11 5 8 6 8 -7 97 -6 96 -7 0 -6 0 -45 -15 -44 -14 -43 -11 -42 -11 0 -22 0 -22 -9 -14 -9 -13 -46 -5 -46 -6 0 12 0 11 -15 0 -15 0 -6 26 -7 25 12 25 11 25 0 9 0 10 -115 0 -115 0 0 -70z" transform="translate(0.000000,69.000000) scale(0.100000,-0.100000)"/></clipPath><clipPath id="piece-mask-21-107" shape-rendering="crispEdges"><path d="M140 494 l0 -65 -12 -22 -11 -22 -13 -12 -13 -13 -16 0 -16 0 -21 11 -21 11 -8 -13 -9 -14 0 -45 0 -45 19 -24 18 -24 58 7 57 6 20 -22 19 -22 -7 -30 -6 -31 -15 -40 -14 -40 -2 -15 -2 -15 80 -6 80 -6 17 5 16 4 -5 53 -6 53 6 24 7 25 25 11 26 12 17 0 17 0 39 -11 38 -11 -6 -57 -7 -58 28 -11 28 -11 46 -6 47 -6 27 7 27 7 -7 31 -7 31 -5 59 -5 59 24 -7 23 -7 46 -5 45 -6 16 16 17 16 9 0 9 0 13 39 12 38 -6 20 -7 21 -19 22 -19 22 -54 -7 -55 -7 -8 23 -8 24 -5 70 -6 70 -20 -3 -20 -4 -72 -8 -72 -8 -11 -7 -10 -6 0 -14 0 -13 12 -4 12 -4 -13 -31 -12 -30 -35 -17 -35 -16 -39 11 -39 12 -5 22 -6 22 10 32 9 32 -5 13 -5 14 -31 6 -30 6 -69 0 -69 0 0 -66z" transform="translate(0.000000,56.000000) scale(0.100000,-0.100000)"/></clipPath><clipPath id="piece-mask-21-108" shape-rendering="crispEdges"><path d="M412 703 l-12 -5 -14 -27 -14 -27 9 -17 10 -17 -6 -20 -6 -20 -40 -10 -39 -11 -63 3 -62 3 -6 -93 -6 -94 -14 -9 -14 -9 -61 0 -62 0 -6 -16 -6 -16 0 -26 0 -27 8 -12 8 -12 37 -16 37 -15 46 11 46 12 9 -14 9 -14 0 -19 0 -19 -11 -63 -11 -63 14 -15 14 -14 80 -2 79 -3 19 2 18 1 -5 23 -6 22 -6 37 -7 36 21 21 21 21 33 0 34 0 11 -24 10 -24 -5 -40 -5 -40 38 -11 39 -11 83 0 83 0 15 14 14 15 0 10 0 11 10 0 10 0 0 17 0 16 18 54 17 53 8 0 8 0 20 -11 20 -10 18 6 18 5 11 26 12 25 0 34 0 33 -6 16 -6 16 -10 0 -9 0 -16 16 -16 16 -21 -6 -21 -6 -37 -6 -37 -6 -7 37 -7 37 6 58 5 59 -15 5 -14 6 -32 -14 -33 -13 -56 -7 -55 -7 -17 16 -16 16 6 68 6 67 -26 12 -27 12 -27 -1 -27 -1 -13 -5z" transform="translate(0.000000,71.000000) scale(0.100000,-0.100000)"/></clipPath><clipPath id="piece-mask-21-109" shape-rendering="crispEdges"><path d="M150 693 l-55 -3 -31 -5 -32 -5 -6 -40 -6 -40 6 -56 7 -56 15 -15 15 -15 27 6 28 5 24 6 24 6 22 -19 22 -19 0 -19 0 -19 -8 -11 -7 -11 -34 -18 -35 -17 -57 6 -58 6 -6 -21 -7 -20 13 -90 13 -90 105 7 106 7 -3 -50 -4 -50 27 -27 26 -26 8 0 8 0 31 11 30 10 13 31 12 30 -11 32 -12 32 0 6 0 6 23 5 22 6 60 -8 60 -9 26 -7 25 -6 12 26 12 26 0 64 0 63 6 16 6 16 39 -6 38 -6 16 15 15 16 0 10 0 11 10 0 10 0 0 30 0 31 -22 22 -23 22 -27 12 -28 13 -31 -7 -32 -6 7 87 7 88 -23 -7 -23 -8 -5 -6 -5 -7 -30 -12 -30 -11 -42 -11 -43 -11 0 -24 0 -24 -16 -15 -15 -16 -40 0 -40 0 -22 12 -22 11 -15 15 -15 16 1 58 1 58 -1 -2 -1 -2 -55 -3z" transform="translate(0.000000,70.000000) scale(0.100000,-0.100000)"/></clipPath><clipPath id="piece-mask-21-110" shape-rendering="crispEdges"><path d="M572 742 l-13 -9 10 -45 11 -46 -11 -30 -10 -29 -25 -12 -25 -11 -34 0 -34 0 -26 12 -26 12 5 22 6 22 6 15 6 15 -21 21 -21 21 -67 0 -68 0 -24 7 -24 6 7 -99 7 -99 -80 0 -79 0 -21 -24 -21 -24 0 -34 0 -33 15 0 15 0 0 -9 0 -9 32 -11 31 -11 34 12 34 12 9 -14 10 -15 0 -82 0 -81 6 -16 6 -16 72 0 71 0 38 -11 37 -10 0 -63 0 -64 16 -6 16 -6 37 0 38 0 21 18 21 19 11 28 11 29 -12 28 -12 29 7 6 6 6 77 -1 78 -2 17 6 18 5 0 268 0 267 -57 17 -58 16 -30 5 -30 6 -13 -8z" transform="translate(0.000000,75.000000) scale(0.100000,-0.100000)"/></clipPath><clipPath id="piece-mask-21-111" shape-rendering="crispEdges"><path d="M188 544 l-1 -9 -1 -82 -1 -82 -7 -7 -8 -7 -27 1 -28 0 -38 2 -38 2 -19 -23 -20 -22 0 -28 0 -28 12 -26 12 -27 51 7 51 6 11 -24 11 -24 12 -79 12 -79 12 -7 11 -8 65 0 64 0 43 16 42 17 6 18 6 18 -11 21 -12 22 6 14 5 14 24 0 24 0 32 -11 32 -11 -6 -42 -7 -41 34 -12 33 -12 75 -1 75 -2 11 1 11 1 7 69 7 69 -7 25 -6 26 -19 6 -18 6 -19 -10 -19 -10 -20 5 -20 6 -17 34 -16 35 0 30 0 30 15 15 15 15 60 -7 60 -7 0 98 0 97 -17 -5 -18 -5 -65 -22 -65 -21 -25 -7 -25 -7 -3 -21 -3 -21 -39 -13 -38 -13 -29 7 -28 8 -7 11 -8 12 0 35 0 35 -9 14 -9 14 -86 5 -86 5 -2 -9z" transform="translate(0.000000,55.000000) scale(0.100000,-0.100000)"/></clipPath><clipPath id="piece-mask-21-112" shape-rendering="crispEdges"><path d="M280 720 l-12 -22 12 -29 12 -29 -6 -24 -6 -25 -47 -7 -48 -7 -60 10 -60 10 -11 -4 -11 -4 -7 -61 -6 -61 0 -43 0 -44 53 0 52 0 23 -6 22 -6 6 -24 6 -24 -12 -29 -12 -29 -28 -12 -28 -12 -44 7 -44 7 -12 -26 -12 -26 6 -32 6 -33 15 -42 15 -41 22 -6 21 -6 55 0 55 0 37 9 37 9 17 16 16 17 -6 50 -7 49 34 0 35 0 12 -30 13 -30 -7 -60 -7 -59 26 -7 25 -6 38 6 37 7 50 16 50 16 12 13 13 13 0 85 0 85 -12 25 -11 26 -18 5 -18 6 -20 -10 -20 -11 -15 0 -15 0 -15 16 -16 15 0 24 0 23 15 6 16 6 57 -6 58 -6 13 40 14 41 -6 72 -6 71 -4 5 -5 4 -98 20 -99 20 -18 5 -18 6 3 46 3 47 -47 3 -47 3 -11 -21z" transform="translate(0.000000,74.000000) scale(0.100000,-0.100000)"/></clipPath><clipPath id="piece-mask-21-113" shape-rendering="crispEdges"><path d="M6 469 l-7 -80 7 -10 6 -11 35 7 36 6 27 -11 27 -11 12 -25 11 -25 0 -39 0 -40 -35 0 -34 0 -16 -30 -15 -29 0 -16 0 -15 -20 -57 -20 -57 0 -3 0 -2 42 -12 42 -11 49 7 49 6 15 15 15 15 -6 27 -7 27 -2 20 -2 20 54 3 55 3 24 -6 25 -6 -6 -44 -6 -44 15 -16 15 -15 85 0 85 0 -10 18 -9 17 -12 60 -12 60 -11 28 -10 29 -32 -6 -32 -6 -21 19 -22 18 0 29 0 29 8 11 7 11 34 18 34 17 44 -6 43 -6 0 95 0 95 -3 0 -3 0 -57 -20 -57 -20 -14 0 -15 0 -26 -12 -25 -11 0 -14 0 -13 10 0 10 0 0 -25 0 -25 -11 0 -10 0 -17 -16 -16 -16 -45 5 -45 5 -4 11 -4 11 -13 0 -13 0 -12 31 -13 31 12 34 12 34 -6 10 -6 10 -88 0 -88 0 -7 -81z" transform="translate(0.000000,55.000000) scale(0.100000,-0.100000)"/></clipPath><clipPath id="piece-mask-21-114" shape-rendering="crispEdges"><path d="M375 886 l-18 -13 6 -76 7 -75 -17 -6 -17 -7 -93 7 -93 7 0 -79 0 -79 -9 -14 -9 -14 -51 6 -51 6 -15 -15 -15 -15 0 -45 0 -44 10 0 10 0 0 -15 0 -15 38 6 38 6 18 -79 17 -78 12 -30 11 -30 10 -7 11 -8 87 0 87 0 6 -10 6 -10 -12 -34 -12 -34 13 -31 12 -31 13 0 13 0 4 -11 4 -11 45 -5 45 -5 16 16 17 16 10 0 11 0 0 25 0 25 -10 0 -10 0 0 14 0 14 28 10 27 10 30 7 30 6 42 16 42 15 5 13 5 13 -14 95 -15 94 -6 16 -6 16 -18 6 -18 6 -27 -13 -26 -12 -10 15 -9 14 0 20 0 20 8 11 7 10 17 7 17 6 36 -10 36 -10 20 22 19 22 0 94 0 93 -12 0 -13 0 -60 -15 -60 -14 -35 0 -35 -1 -11 8 -11 7 1 65 1 65 -14 33 -13 32 -42 0 -42 0 -19 -14z" transform="translate(0.000000,90.000000) scale(0.100000,-0.100000)"/></clipPath><clipPath id="piece-mask-21-115" shape-rendering="crispEdges"><path d="M37 543 l-27 -4 0 -79 0 -79 11 -6 10 -7 28 11 27 12 28 -11 28 -10 12 -13 13 -12 12 -24 13 -23 -12 -28 -12 -28 -41 -16 -42 -16 -35 10 -35 10 -8 0 -9 0 4 -115 3 -115 92 0 92 0 26 26 27 27 -7 21 -7 21 -5 24 -6 23 14 9 14 9 47 0 46 0 16 -6 16 -6 -6 -37 -6 -38 53 -15 54 -16 40 -12 40 -11 11 -5 11 -5 13 58 12 58 9 35 9 35 9 14 9 14 40 -7 41 -6 15 16 16 15 0 49 0 48 -14 5 -15 6 -33 -10 -33 -9 -27 0 -28 0 0 10 0 10 -15 0 -15 0 0 96 0 96 -12 -5 -13 -4 -92 -18 -93 -18 0 -38 0 -38 -20 -6 -20 -6 -30 6 -30 7 0 9 0 9 -15 0 -15 0 -6 25 -6 26 6 29 6 30 -78 -1 -77 -2 -28 -4z" transform="translate(0.000000,55.000000) scale(0.100000,-0.100000)"/></clipPath><clipPath id="piece-mask-21-116" shape-rendering="crispEdges"><path d="M233 702 l-12 -8 9 -14 10 -15 0 -32 0 -32 -26 -27 -27 -26 -72 4 -73 3 -6 -70 -6 -70 6 -33 7 -33 16 6 16 7 55 5 55 5 23 -20 22 -19 0 -30 0 -30 -19 -21 -18 -22 -12 0 -11 0 0 -9 0 -8 -44 -13 -44 -12 -41 7 -41 7 0 -24 0 -23 16 -71 17 -71 76 -6 76 -6 27 6 27 5 6 19 6 18 -10 20 -11 20 0 20 0 21 20 20 20 20 32 0 33 0 14 -9 15 -10 -12 -26 -12 -26 0 -9 0 -10 14 0 14 0 4 -11 4 -11 74 -13 75 -13 28 -7 27 -7 0 85 0 84 6 31 6 31 19 6 18 6 22 -11 21 -12 23 6 24 6 15 16 16 15 0 26 0 26 -22 18 -21 19 -24 0 -23 0 0 -10 0 -10 -22 0 -23 0 -15 10 -15 9 -3 95 -4 96 -41 11 -40 11 -61 9 -61 10 -3 10 -4 9 -15 0 -15 0 6 45 7 45 -53 0 -53 0 -12 -8z" transform="translate(0.000000,71.000000) scale(0.100000,-0.100000)"/></clipPath></defs></svg>