<svg baseProfile="full" height="1066" preserveAspectRatio="none" shape-rendering="geometricPrecision" version="1.1" viewBox="0,0,1600,1066" width="1600" xmlns="http://www.w3.org/2000/svg" xmlns:ev="http://www.w3.org/2001/xml-events" xmlns:xlink="http://www.w3.org/1999/xlink"><title>Jigsaw puzzle piece clips</title><desc>Created with the piecemaker. Piece count: 12</desc><defs /><g><g><rect fill="white" height="1066" width="1600" x="0" y="0" /></g></g><g><g><path d="M 0 0  L 400.000000 0  c -0.0,18.822431154418044 20.0,157.5419242652259 4.498231156151974,132.66859093189257&#10;c -136.1641402772769,-21.319999999999997 -135.33647204951544,0 -135.33647204951544,44.99807573477409&#10;c 0,49.24009990305123 78.8736920999066,70.56009990305122 91.61669032158179,49.24009990305123&#10;c 52.0,-21.319999999999997 32.0,74.61999999999999 39.22155057178168,128.42656676361543 c -0.0,19.126164343049965 20.0,160.097905951481 -73.57210625022296,135.22457261814768&#10;c -11.787001353417272,-21.319999999999997 -34.83777855957361,0 -34.83777855957361,42.44209404851898&#10;c 0,43.08722843473791 14.954880003488913,64.4072284347379 41.6408079472119,43.08722843473791&#10;c 52.0,-21.319999999999997 32.0,74.61999999999999 66.76907686258467,134.57943823192875 c -0.0,50.60710961100988 20.0,163.11846456238013 -22.633333934873136,138.2451312290468&#10;c -82.92952593367312,-21.319999999999997 -91.7072853126362,0 -91.7072853126362,39.421535437619866&#10;c 0,46.513079401886415 88.44023502843902,67.83307940188641 91.41409770875197,46.513079401886415&#10;c 52.0,-21.319999999999997 32.0,74.61999999999999 22.92652153875737,131.15358726478024 L 0 1066 " fill="none" stroke="black" stroke-width="1.0" style="vector-effect:non-scaling-stroke;" /></g><g><path d="M 0 0  L 800.000000 0  c -0.0,60.86879763799928 20.0,171.64054153296436 -39.75827144440077,146.76720819963103&#10;c -31.20473706943698,-21.319999999999997 -84.69641360562505,0 -84.69641360562505,30.89945846703563&#10;c 0,53.51135761500527 47.48793599490032,74.83135761500526 54.83909563585631,53.51135761500527&#10;c 52.0,-21.319999999999997 32.0,74.61999999999999 69.61558941416952,124.15530905166139 c 0.0,24.318412379590153 -20.0,171.79947044553228 -5.298711468976728,146.92613711219894&#10;c 66.00733980527028,-21.319999999999997 132.51936771609383,0 132.51936771609383,30.740529554467713&#10;c 0,30.604005740777325 -47.59171840202697,51.92400574077732 -95.21499049744841,30.604005740777325&#10;c -52.0,-21.319999999999997 -32.0,74.61999999999999 -32.00566574966868,147.06266092588933 c -0.0,95.5023733802694 20.0,155.74951792868487 -72.71605592858614,130.87618459535153&#10;c -18.924148937292518,-21.319999999999997 -43.48457242339761,0 -43.48457242339761,46.790482071315125&#10;c 0,27.504648198503986 59.85347913283901,48.82464819850398 116.82256507979086,27.504648198503986&#10;c 52.0,-21.319999999999997 32.0,74.61999999999999 -0.6219367278071104,150.16201846816267 L 0 1066 " fill="none" stroke="black" stroke-width="1.0" style="vector-effect:non-scaling-stroke;" /></g><g><path d="M 0 0  L 1200.000000 0  c -0.0,30.93973691907642 20.0,177.58625786068387 -0.3789431581146335,152.71292452735054&#10;c -58.05710723200866,-21.319999999999997 -111.97243842538411,0 -111.97243842538411,24.95374213931612&#10;c 0,54.58466555689617 107.48994989175127,75.90466555689616 116.65310815248864,54.58466555689617&#10;c 52.0,-21.319999999999997 32.0,74.61999999999999 -4.301726568989892,123.08200110977049 c -0.0,24.374085668817703 20.0,167.86498236927306 -29.41557600203455,142.99164903593973&#10;c -18.954627434278287,-21.319999999999997 -84.92099629705442,0 -84.92099629705442,34.67501763072693&#10;c 0,52.55678782157506 86.06031059934134,73.87678782157505 101.11954595661982,52.55678782157506&#10;c 52.0,-21.319999999999997 32.0,74.61999999999999 13.217026342469154,125.1098788450916 c -0.0,97.74111680243459 20.0,167.84662557385334 -6.336324754694771,142.97329224052&#10;c -47.32185487202671,-21.319999999999997 -103.12113740444899,0 -103.12113740444899,34.69337442614665&#10;c 0,56.264157266379925 70.82227229432118,77.58415726637992 74.50570108590125,56.264157266379925&#10;c 52.0,-21.319999999999997 32.0,74.61999999999999 34.95176107324251,121.40250940028673 L 0 1066 " fill="none" stroke="black" stroke-width="1.0" style="vector-effect:non-scaling-stroke;" /></g></g><g><g><path d="M 0 0  L 0 355.333333  c 93.47334783751997,0.0 187.88909831980686,-17.766666666666666 159.88909831980686,73.61667578804857&#10;c -24.0,35.83127486590698 0,45.226008612788874 40.11090168019314,45.226008612788874&#10;c 40.048676012121376,0 64.04867601212138,-21.495231630128266 40.048676012121376,-82.52802500189642&#10;c -24.0,-46.193333333333335 84.0,-28.426666666666666 159.95132398787862,-36.31465939894102 c 31.106020582977195,0.0 184.19072345973325,-17.766666666666666 156.19072345973325,71.42846729273924&#10;c -24.0,12.811721707815932 0,40.787083613471154 43.80927654026675,40.787083613471154&#10;c 30.270176718822142,0 54.27017671882214,-76.77024103465841 30.270176718822142,-118.47500868089453&#10;c -24.0,-46.193333333333335 84.0,-28.426666666666666 169.72982328117786,6.259457774684137 c 66.72643301643579,0.0 173.2222942403282,-17.766666666666666 145.2222942403282,53.35606163174831&#10;c -24.0,17.592241757506894 0,54.922126759410084 54.77770575967179,54.922126759410084&#10;c 54.99790861610677,0 78.99790861610677,-7.870297084182908 54.99790861610677,-35.41102956971467&#10;c -24.0,-46.193333333333335 84.0,-28.426666666666666 145.00209138389323,-72.86715882144372 c 92.18299226109967,-0.0 168.62993178102155,17.766666666666666 140.62993178102155,-7.066260285192518&#10;c -24.0,-27.999457790267204 0,-85.7394259218301 59.370068218978446,-85.7394259218301&#10;c 40.72870855029839,0 64.72870855029839,56.08331978729322 40.72870855029839,85.55154810819545&#10;c -24.0,46.193333333333335 84.0,28.426666666666666 159.2712914497016,7.25413809882717 L 1600 0 " fill="none" stroke="black" stroke-width="1.0" style="vector-effect:non-scaling-stroke;" /></g><g><path d="M 0 0  L 0 710.666667  c 111.39045386990418,-0.0 193.70916216348303,17.766666666666666 165.70916216348303,-51.37979747477406&#10;c -24.0,-33.77929182544196 0,-45.85845361646556 34.29083783651697,-45.85845361646556&#10;c 52.70752728129827,0 76.70752728129827,45.394397472904444 52.70752728129827,63.346918030662806&#10;c -24.0,46.193333333333335 84.0,28.426666666666666 147.29247271870173,33.89133306057681 c 52.27558586874335,-0.0 175.0373695198768,17.766666666666666 147.0373695198768,-62.12400422663598&#10;c -24.0,-53.619297991854104 0,-56.581675000954284 52.96263048012321,-56.581675000954284&#10;c 44.28651597038069,0 68.28651597038069,31.943449467755038 44.28651597038069,77.36406650141305&#10;c -24.0,46.193333333333335 84.0,28.426666666666666 155.7134840296193,41.34161272617722 c 53.85833650697391,-0.0 185.8383203453746,17.766666666666666 157.8383203453746,-59.398895748398324&#10;c -24.0,-48.88113486775834 0,-60.793090421263194 42.1616796546254,-60.793090421263194&#10;c 49.25563483456173,0 73.25563483456173,24.844998032430038 49.25563483456173,53.89979006822435&#10;c -24.0,46.193333333333335 84.0,28.426666666666666 150.74436516543827,66.29219610143717 c 52.65742259201648,0.0 166.53920125455207,-17.766666666666666 138.53920125455207,5.33749529340336&#10;c -24.0,72.46081860527025 0,110.81946612538543 61.46079874544793,110.81946612538543&#10;c 57.48821677565837,0 81.48821677565837,-52.59007062000451 57.48821677565837,-80.51281514870956&#10;c -24.0,-46.193333333333335 84.0,-28.426666666666666 142.51178322434163,-35.64414627007923 L 1600 0 " fill="none" stroke="black" stroke-width="1.0" style="vector-effect:non-scaling-stroke;" /></g></g></svg>