<?xml version="1.0" encoding="utf-8"?>
<svg baseProfile="full" height="0" version="1.1" width="0" xmlns="http://www.w3.org/2000/svg" xmlns:ev="http://www.w3.org/2001/xml-events" xmlns:xlink="http://www.w3.org/1999/xlink"><defs><clipPath id="piece-mask-30-0" shape-rendering="crispEdges"><path d="M147 533 l-7 -6 0 -43 0 -43 -10 -26 -10 -27 -16 -15 -15 -16 -45 7 -45 6 3 -38 3 -37 41 3 41 3 8 -18 7 -18 14 -63 13 -63 -5 -14 -6 -14 24 -6 23 -5 70 -2 70 -3 3 -40 3 -40 12 -7 12 -8 52 0 52 0 3 32 3 32 40 8 40 8 38 10 37 11 0 17 0 17 -15 40 -14 40 -1 23 0 24 38 -7 37 -6 40 17 40 16 17 21 18 20 0 11 0 11 -9 14 -9 14 -57 -8 -58 -7 -8 14 -9 13 0 78 0 77 -228 0 -229 0 -6 -7z" transform="translate(0.000000,54.000000) scale(0.100000,-0.100000)"/></clipPath><clipPath id="piece-mask-30-1" shape-rendering="crispEdges"><path d="M165 432 l-10 -7 -1 -47 -1 -46 -13 -32 -13 -32 -59 6 -58 7 -6 -16 -6 -15 6 -25 6 -25 55 0 55 0 7 -27 7 -28 0 -65 1 -65 10 -7 10 -8 67 0 67 0 25 11 25 12 6 14 5 15 -11 40 -10 40 4 5 5 4 32 1 33 1 14 -19 15 -19 -6 -47 -5 -46 15 -6 16 -6 80 0 80 0 -6 16 -6 16 0 65 0 65 -30 -6 -30 -6 -24 12 -25 11 -11 28 -12 29 6 26 7 26 43 -6 43 -7 16 7 17 6 0 74 0 74 -32 0 -33 0 -38 -6 -38 -7 6 -26 6 -27 -18 -20 -18 -21 -23 -12 -24 -13 -29 12 -29 12 -2 12 -1 11 -1 40 -1 40 -30 6 -30 7 -45 1 -45 1 -10 -8z" transform="translate(0.000000,44.000000) scale(0.100000,-0.100000)"/></clipPath><clipPath id="piece-mask-30-2" shape-rendering="crispEdges"><path d="M304 666 l-6 -14 11 -21 11 -21 -6 -25 -6 -25 -39 -12 -39 -11 -48 11 -47 10 -9 -5 -9 -6 6 -73 5 -74 -37 6 -38 6 -27 -26 -26 -27 0 -30 0 -30 14 -15 15 -14 25 10 25 9 5 -7 4 -7 12 -64 11 -64 14 -13 14 -14 90 0 91 0 -6 -44 -7 -45 16 -15 16 -16 30 0 30 0 15 15 15 15 10 0 11 0 0 13 0 12 -10 15 -9 14 12 8 12 8 35 0 35 0 37 11 38 10 0 6 0 5 -15 59 -16 60 5 8 5 8 48 -7 48 -8 25 12 25 11 18 19 17 19 0 18 0 18 -12 27 -12 26 -62 -5 -62 -6 -5 29 -6 29 6 52 6 52 -16 -6 -16 -6 -60 -11 -60 -11 -21 13 -20 13 6 57 6 56 -20 11 -21 11 -41 0 -41 0 -5 -14z" transform="translate(0.000000,68.000000) scale(0.100000,-0.100000)"/></clipPath><clipPath id="piece-mask-30-3" shape-rendering="crispEdges"><path d="M215 630 l-7 -11 6 -33 6 -33 -30 -13 -29 -12 -76 4 -75 3 -5 -13 -5 -14 0 -43 0 -44 12 -26 12 -27 63 7 63 7 0 -34 0 -33 -8 -11 -7 -11 -24 -13 -23 -12 -30 6 -30 6 -14 -14 -14 -15 0 -70 0 -71 18 -1 17 -1 52 2 52 2 21 -7 21 -7 -7 -33 -6 -34 15 -16 16 -15 34 0 34 0 31 11 31 11 6 18 6 19 -11 21 -11 20 77 0 77 0 17 20 17 20 18 45 17 46 -6 25 -7 26 -45 -7 -44 -6 -35 13 -36 12 -6 24 -6 23 12 26 12 26 46 -6 46 -5 14 13 13 14 0 64 0 65 -67 16 -68 17 -28 11 -28 11 3 21 3 21 -47 3 -46 3 -7 -11z" transform="translate(0.000000,64.000000) scale(0.100000,-0.100000)"/></clipPath><clipPath id="piece-mask-30-4" shape-rendering="crispEdges"><path d="M6 528 l-6 -23 0 -40 0 -40 8 -10 7 -10 37 -1 37 -1 15 -16 16 -16 0 -40 0 -40 -33 -6 -34 -7 -16 -71 -17 -72 0 -7 0 -8 70 0 69 0 9 -17 10 -17 -11 -23 -10 -23 23 -20 23 -20 28 0 28 0 26 12 27 12 -6 37 -6 36 63 7 62 7 20 5 21 5 14 47 13 47 15 33 16 32 28 0 29 0 -3 48 -3 47 -53 0 -53 1 -10 14 -10 15 5 73 5 74 -17 -8 -17 -7 -65 -12 -65 -11 4 -15 3 -14 5 -17 5 -18 -16 0 -16 0 0 -10 0 -10 -35 0 -34 0 -26 25 -25 26 0 14 0 13 12 4 12 4 -7 17 -6 17 -80 0 -79 0 -6 -22z" transform="translate(0.000000,55.000000) scale(0.100000,-0.100000)"/></clipPath><clipPath id="piece-mask-30-5" shape-rendering="crispEdges"><path d="M185 650 l-16 -31 7 -21 6 -20 -13 -9 -14 -9 -77 0 -78 0 0 -202 0 -203 8 -10 7 -10 85 0 85 0 -3 -51 -4 -51 17 -17 16 -16 33 0 33 0 23 20 23 20 -6 56 -6 57 71 -6 70 -6 15 15 15 14 9 63 9 62 0 9 0 8 24 -6 24 -6 16 6 16 6 0 13 0 13 11 4 12 4 -7 22 -7 22 -15 0 -14 0 0 11 0 12 -39 -7 -39 -6 -5 28 -5 27 5 48 6 49 -13 8 -13 8 -21 -8 -21 -8 -51 -6 -51 -7 -17 16 -17 17 7 33 6 33 -11 21 -12 21 -34 0 -34 0 -16 -30z" transform="translate(0.000000,68.000000) scale(0.100000,-0.100000)"/></clipPath><clipPath id="piece-mask-30-6" shape-rendering="crispEdges"><path d="M333 573 l-23 -4 11 -21 11 -20 -6 -33 -6 -33 -29 -12 -29 -12 -71 4 -71 3 0 -62 0 -62 -12 -26 -12 -26 -42 7 -43 6 -7 -26 -6 -26 6 -26 7 -26 43 6 44 7 6 -16 6 -17 0 -61 0 -62 8 -12 7 -12 75 -1 75 -2 28 7 29 8 -5 16 -5 16 -2 10 -2 10 1 22 1 23 25 6 25 6 30 -12 30 -12 0 -38 0 -39 16 -15 15 -16 37 0 36 0 33 12 34 12 -6 21 -6 20 -6 60 -5 61 59 -1 59 0 18 18 18 17 -7 41 -7 41 -53 -7 -52 -6 -7 32 -6 32 0 39 0 40 -27 -5 -28 -6 -46 -12 -46 -12 -28 7 -27 7 6 42 6 42 -10 34 -10 35 -12 8 -13 8 -5 -2 -5 -1 -22 -4z" transform="translate(0.000000,58.000000) scale(0.100000,-0.100000)"/></clipPath><clipPath id="piece-mask-30-7" shape-rendering="crispEdges"><path d="M491 442 l-93 -3 6 -30 6 -31 -12 -21 -11 -22 -13 -12 -13 -13 -20 0 -20 0 -15 16 -16 15 0 7 0 7 9 33 10 32 -20 10 -19 11 -68 -3 -67 -3 -5 -83 -5 -83 -15 -9 -15 -9 -41 6 -41 5 -7 -17 -6 -18 6 -19 6 -20 34 7 34 6 0 -11 0 -10 14 0 13 0 7 -46 6 -47 0 -37 0 -38 16 -6 16 -6 65 0 64 0 15 15 15 14 -7 26 -6 25 12 30 12 30 22 0 21 0 14 -9 14 -9 -6 -32 -7 -32 13 -13 13 -13 89 -11 88 -12 8 13 9 13 0 50 0 50 6 22 6 23 39 -6 39 -7 0 12 0 11 15 0 15 0 0 15 0 15 10 0 10 0 0 19 0 19 -6 16 -6 16 -14 0 -14 0 0 11 0 11 -42 -7 -43 -7 -10 -2 -10 -1 -5 75 -5 75 -94 -3z" transform="translate(0.000000,45.000000) scale(0.100000,-0.100000)"/></clipPath><clipPath id="piece-mask-30-8" shape-rendering="crispEdges"><path d="M33 433 l-13 -5 0 -69 0 -70 43 6 42 7 23 -20 22 -19 0 -31 0 -31 -27 -27 -26 -26 -48 5 -48 6 4 -72 5 -72 0 -7 0 -8 84 0 84 0 6 16 6 16 0 18 0 19 12 26 11 25 34 0 33 0 0 -24 0 -23 58 -17 57 -18 28 -10 28 -11 6 6 6 6 -12 45 -11 45 0 21 0 21 14 15 15 14 54 -6 54 -6 21 11 22 12 0 24 0 24 -22 12 -21 11 -47 -5 -46 -6 -14 9 -13 8 7 75 7 74 -51 7 -51 7 -34 -7 -35 -6 11 -19 10 -20 -6 -18 -5 -18 -26 -11 -25 -12 -19 0 -19 0 -16 16 -16 16 7 33 6 32 -32 7 -32 6 -47 -1 -46 -1 -12 -5z" transform="translate(0.000000,44.000000) scale(0.100000,-0.100000)"/></clipPath><clipPath id="piece-mask-30-9" shape-rendering="crispEdges"><path d="M321 551 l-13 -8 11 -21 11 -21 0 -17 0 -17 -22 -19 -22 -19 -22 -5 -23 -6 -54 4 -55 3 -5 -64 -5 -64 -13 -8 -14 -8 -36 5 -36 6 -12 -31 -13 -31 6 -25 6 -25 15 0 15 0 0 -10 0 -10 39 0 39 0 7 -30 7 -31 -7 -50 -7 -49 239 2 238 3 -2 20 -1 20 -15 54 -16 53 -6 6 -6 6 -37 0 -37 0 -7 10 -8 11 0 31 0 32 17 6 17 7 54 -7 54 -7 9 14 9 14 0 72 0 72 -10 6 -11 7 -77 18 -76 18 -4 11 -4 11 -14 0 -14 0 0 14 0 14 11 4 12 4 -17 17 -17 17 -32 0 -32 0 -14 -9z" transform="translate(0.000000,56.000000) scale(0.100000,-0.100000)"/></clipPath><clipPath id="piece-mask-30-10" shape-rendering="crispEdges"><path d="M70 553 l-55 -4 -7 -12 -8 -12 0 -51 0 -51 6 -5 6 -6 31 9 32 9 31 -10 31 -11 11 -24 12 -25 -7 -32 -6 -33 -15 -15 -15 -15 -38 1 -38 1 -5 -16 -5 -16 -6 -40 -7 -40 -5 -17 -4 -18 75 0 75 0 -6 -48 -5 -49 31 -13 31 -13 45 13 45 13 0 33 0 33 38 6 37 6 40 7 40 7 -3 75 -3 75 -5 18 -6 18 -43 -7 -44 -6 -7 26 -6 26 6 26 7 26 43 -6 42 -7 12 26 12 26 0 57 0 58 -72 -4 -73 -3 -11 -4 -12 -3 5 -26 5 -25 -15 -16 -16 -15 -30 0 -30 0 -26 12 -25 11 0 14 0 13 -11 0 -11 0 4 30 5 30 -11 -2 -11 -2 -55 -3z" transform="translate(0.000000,56.000000) scale(0.100000,-0.100000)"/></clipPath><clipPath id="piece-mask-30-11" shape-rendering="crispEdges"><path d="M359 518 l-1 -3 -2 -26 -2 -26 -18 -19 -19 -18 -81 -1 -81 0 -7 -10 -8 -10 0 -55 0 -55 -10 -15 -9 -14 -34 12 -34 12 -15 -5 -15 -6 -12 -25 -11 -25 0 -14 0 -14 12 -26 11 -25 31 5 31 6 26 -78 26 -78 241 -3 242 -2 0 211 0 211 -15 -6 -16 -6 -55 -16 -55 -16 -26 7 -26 6 7 45 6 46 -10 19 -11 19 -29 0 -30 0 -1 -2z" transform="translate(0.000000,52.000000) scale(0.100000,-0.100000)"/></clipPath><clipPath id="piece-mask-30-12" shape-rendering="crispEdges"><path d="M9 508 l-1 -33 1 -15 2 -15 4 -21 5 -22 53 2 53 1 18 -18 18 -18 -6 -31 -6 -31 -22 -19 -23 -20 -42 7 -42 6 -5 -23 -5 -23 -3 -61 -3 -61 77 1 76 1 8 -7 7 -8 -1 -38 -2 -39 26 -12 25 -11 27 7 27 6 13 14 13 13 -3 27 -3 28 15 2 15 2 68 6 67 7 0 73 0 73 -6 17 -6 16 -44 -7 -44 -6 0 11 0 11 -15 0 -15 0 0 15 0 15 -10 0 -10 0 0 24 0 25 17 16 17 17 58 -6 58 -7 0 72 0 71 -17 -7 -18 -8 -57 -12 -56 -13 -11 -6 -11 -7 0 -29 0 -28 -16 -6 -16 -6 -35 0 -34 0 -15 15 -15 14 7 25 6 25 -6 19 -6 19 -75 2 -75 2 -1 -33z" transform="translate(0.000000,54.000000) scale(0.100000,-0.100000)"/></clipPath><clipPath id="piece-mask-30-13" shape-rendering="crispEdges"><path d="M7 433 l-7 -6 0 -209 0 -208 83 0 82 0 14 9 14 9 -11 30 -10 30 11 11 11 11 35 0 36 -1 19 -14 18 -14 -6 -25 -6 -24 6 -16 6 -16 70 0 69 0 16 16 16 16 -17 34 -16 35 0 34 0 34 31 -9 32 -9 41 9 41 9 3 10 4 11 10 0 9 0 15 14 14 15 0 19 0 19 -19 22 -20 23 -66 -4 -67 -3 7 68 6 67 -18 -1 -18 -1 -75 -16 -75 -17 3 -29 4 -29 -14 -8 -13 -9 -48 0 -48 0 -14 14 -14 14 6 37 6 37 -14 9 -14 9 -61 0 -61 0 -6 -7z" transform="translate(0.000000,44.000000) scale(0.100000,-0.100000)"/></clipPath><clipPath id="piece-mask-30-14" shape-rendering="crispEdges"><path d="M288 508 l4 -53 -20 -22 -19 -23 -21 0 -21 0 -25 11 -25 12 -11 28 -12 29 4 30 5 30 -67 0 -67 0 -7 -31 -6 -31 0 -48 0 -48 20 5 20 5 35 -6 34 -7 16 -15 15 -15 0 -34 0 -34 -17 -16 -17 -17 -42 6 -42 5 -6 -31 -6 -31 0 -43 0 -44 80 0 81 0 6 -17 7 -17 -12 -4 -12 -4 0 -13 0 -14 25 -26 26 -25 34 0 35 0 0 10 0 10 16 0 16 0 -5 18 -5 17 -3 14 -4 15 65 12 65 12 23 7 22 7 0 14 0 14 14 0 14 0 5 28 6 27 8 35 9 35 31 -2 31 -3 11 32 11 31 0 14 0 14 -12 13 -13 12 -34 12 -33 12 -26 -7 -25 -6 5 75 5 76 -51 6 -51 6 -46 0 -46 0 5 -52z" transform="translate(0.000000,57.000000) scale(0.100000,-0.100000)"/></clipPath><clipPath id="piece-mask-30-15" shape-rendering="crispEdges"><path d="M317 395 l6 -55 -23 -20 -23 -20 -33 0 -33 0 -16 16 -17 17 4 51 3 51 -92 1 -93 1 0 -212 0 -213 16 -6 16 -6 55 0 54 0 15 15 15 15 -6 43 -7 44 17 16 16 17 27 0 27 0 14 -9 14 -9 -6 -43 -6 -43 21 -18 21 -18 69 0 69 0 16 15 15 15 -7 60 -7 59 49 -6 50 -5 26 26 27 27 0 31 0 31 -22 19 -23 20 -42 -7 -43 -6 0 74 0 74 -52 7 -53 6 -32 0 -32 0 6 -55z" transform="translate(0.000000,45.000000) scale(0.100000,-0.100000)"/></clipPath><clipPath id="piece-mask-30-16" shape-rendering="crispEdges"><path d="M163 544 l-13 -6 0 -78 0 -78 -22 -6 -23 -6 -42 0 -42 0 -9 -17 -10 -17 11 -23 10 -23 21 -1 21 -1 42 2 41 1 7 -21 7 -22 -7 -64 -7 -64 39 -1 38 0 35 -12 35 -12 0 -38 0 -38 15 -9 15 -10 28 0 28 0 22 12 22 11 14 14 13 14 -5 41 -5 41 78 -6 79 -6 4 12 4 12 -5 60 -4 60 54 0 54 0 16 15 15 15 12 23 12 23 -6 19 -6 20 -15 0 -14 0 0 10 0 10 -38 -6 -37 -6 -18 36 -17 37 0 39 0 40 -85 0 -86 0 11 -20 11 -21 -6 -19 -6 -18 -31 -11 -31 -11 -34 0 -34 0 -16 15 -15 16 6 33 6 34 -12 4 -13 5 -50 1 -50 1 -12 -5z" transform="translate(0.000000,55.000000) scale(0.100000,-0.100000)"/></clipPath><clipPath id="piece-mask-30-17" shape-rendering="crispEdges"><path d="M205 533 l-20 -5 -12 -15 -11 -15 5 -35 6 -35 -14 -9 -14 -9 -67 7 -68 6 0 -35 0 -35 -6 -44 -6 -44 69 0 69 0 18 -17 17 -18 -7 -22 -7 -23 -20 -18 -21 -18 -30 7 -31 6 -9 2 -10 1 -7 -40 -8 -40 0 -42 -1 -43 219 0 220 0 6 10 6 9 -15 55 -14 55 -16 16 -15 16 -25 -7 -25 -6 -6 25 -7 25 4 23 3 24 47 -3 48 -4 15 15 15 16 0 75 0 76 -82 0 -83 1 -18 13 -18 14 6 25 7 25 -21 21 -21 21 -12 -1 -13 -1 -20 -5z" transform="translate(0.000000,54.000000) scale(0.100000,-0.100000)"/></clipPath><clipPath id="piece-mask-30-18" shape-rendering="crispEdges"><path d="M150 450 l0 -79 -34 -7 -35 -6 -9 6 -10 6 -31 -6 -31 -6 0 -22 0 -21 9 -14 9 -14 38 6 39 6 14 -8 13 -9 9 -43 8 -44 1 -46 0 -46 88 5 88 5 -4 -40 -4 -40 17 -16 16 -17 30 0 30 0 16 15 15 16 -6 16 -7 16 13 9 13 8 33 0 33 0 45 11 44 11 6 27 6 26 13 54 14 54 13 9 13 8 20 -3 20 -2 3 39 3 38 -5 14 -5 14 -27 -12 -27 -13 -5 13 -4 12 -13 0 -13 0 -12 36 -12 35 4 40 4 39 -31 -5 -30 -4 -48 -6 -48 -6 6 -30 7 -29 -11 0 -11 0 0 -15 0 -14 -34 -6 -34 -7 -19 6 -18 6 -13 20 -12 20 11 21 11 21 -6 14 -5 14 -81 0 -80 0 0 -80z" transform="translate(0.000000,53.000000) scale(0.100000,-0.100000)"/></clipPath><clipPath id="piece-mask-30-19" shape-rendering="crispEdges"><path d="M165 485 l7 -85 -75 0 -76 0 -11 -20 -10 -20 21 -21 22 -22 67 7 68 6 6 -16 6 -16 0 -34 0 -35 -15 -29 -15 -29 6 -15 6 -16 62 0 63 0 -5 -30 -4 -30 12 -29 11 -28 25 -12 25 -11 21 0 21 0 19 23 20 22 -4 54 -5 54 99 -7 98 -6 0 20 0 20 17 63 17 62 13 13 13 13 17 -3 18 -3 3 33 3 32 -15 15 -15 15 -51 0 -52 0 4 73 3 73 -35 -13 -35 -12 -27 -1 -26 0 -16 -6 -16 -6 0 -22 0 -21 -8 -11 -7 -11 -28 -7 -27 -6 -22 11 -23 12 -14 14 -14 14 11 24 11 25 -19 10 -19 10 -66 0 -67 0 7 -85z" transform="translate(0.000000,57.000000) scale(0.100000,-0.100000)"/></clipPath><clipPath id="piece-mask-30-20" shape-rendering="crispEdges"><path d="M130 487 l0 -64 -20 -23 -20 -23 -26 12 -26 12 -19 -6 -19 -6 0 -45 0 -44 29 0 29 0 12 -32 12 -33 20 -46 20 -47 -6 -11 -7 -10 83 1 83 2 13 -7 12 -8 -6 -38 -6 -38 17 -16 16 -17 29 0 29 0 16 17 17 17 -6 54 -6 54 90 -7 90 -7 0 28 -1 29 -8 42 -8 41 -17 17 -17 17 -14 -6 -15 -5 -10 19 -10 19 0 30 0 30 33 -6 32 -5 24 21 24 21 1 63 1 62 -15 -2 -15 -1 -65 -14 -65 -14 -3 -32 -3 -32 -52 0 -52 0 -12 8 -12 7 -3 40 -3 40 -82 3 -83 3 0 -64z" transform="translate(0.000000,55.000000) scale(0.100000,-0.100000)"/></clipPath><clipPath id="piece-mask-30-21" shape-rendering="crispEdges"><path d="M17 563 l-7 -6 0 -74 0 -73 53 6 52 6 23 -20 22 -19 0 -16 0 -15 -6 -16 -6 -15 -33 -11 -32 -11 -42 10 -41 9 0 -57 0 -56 6 -37 7 -38 68 0 68 0 10 -18 10 -18 -10 -15 -9 -14 0 -11 0 -11 19 -21 18 -22 25 0 25 0 31 11 31 11 10 31 11 32 -9 33 -10 33 16 6 16 6 53 -11 52 -11 20 6 20 5 6 48 6 48 -12 27 -12 27 -38 -6 -38 -6 -24 6 -24 6 -12 28 -12 28 11 21 11 20 49 -2 49 -2 21 24 21 24 0 64 0 63 -228 0 -229 0 -6 -7z" transform="translate(0.000000,57.000000) scale(0.100000,-0.100000)"/></clipPath><clipPath id="piece-mask-30-22" shape-rendering="crispEdges"><path d="M27 453 l-27 -4 0 -63 0 -63 5 -5 6 -5 46 10 47 10 4 -12 4 -11 13 0 13 0 6 -16 6 -16 0 -19 0 -19 -10 0 -10 0 0 -15 0 -15 -15 0 -15 0 0 -11 0 -12 -40 7 -39 6 -5 -32 -5 -33 -4 -52 -4 -52 14 -6 15 -5 63 0 64 0 26 12 26 12 -6 20 -7 21 -5 27 -5 28 40 0 41 0 16 -16 16 -17 -6 -37 -6 -37 16 -17 16 -16 17 0 17 0 35 9 35 9 27 6 26 6 7 64 7 64 -7 22 -7 21 -41 -1 -42 -2 -21 1 -21 1 -10 23 -11 23 10 17 9 17 42 0 42 0 23 6 22 6 0 85 0 85 -22 -5 -23 -5 -78 -7 -79 -8 6 -28 5 -29 -5 -15 -6 -15 -14 0 -14 0 0 -10 0 -10 -15 0 -14 0 -26 25 -25 26 0 34 0 33 13 5 12 5 -70 0 -70 -1 -28 -4z" transform="translate(0.000000,46.000000) scale(0.100000,-0.100000)"/></clipPath><clipPath id="piece-mask-30-23" shape-rendering="crispEdges"><path d="M336 564 l-16 -15 -2 -22 -1 -22 2 -26 2 -26 -16 -13 -15 -13 -59 6 -58 6 -18 7 -17 7 7 -92 7 -91 -25 9 -24 9 -34 -8 -34 -8 -17 -7 -18 -7 0 -30 0 -31 22 -19 22 -19 27 6 27 6 13 -65 13 -66 6 -11 7 -10 39 -9 39 -10 51 0 52 0 6 16 6 16 0 42 0 42 13 18 13 18 34 -4 35 -3 3 -42 3 -41 17 -7 17 -7 63 -14 63 -13 14 6 15 5 0 204 0 205 -17 -9 -18 -10 -42 -7 -43 -7 -30 7 -31 7 7 56 6 57 -20 23 -19 22 -31 0 -31 0 -15 -16z" transform="translate(0.000000,58.000000) scale(0.100000,-0.100000)"/></clipPath><clipPath id="piece-mask-30-24" shape-rendering="crispEdges"><path d="M348 670 l-17 -11 5 -14 6 -15 -6 -24 -6 -23 -30 -13 -30 -12 -65 4 -65 4 6 -33 6 -33 -7 -46 -7 -47 -54 6 -54 6 -15 -15 -15 -15 0 -24 0 -24 16 -15 15 -16 34 0 34 0 7 -48 7 -47 15 -30 15 -29 13 -14 14 -13 32 6 33 6 45 -9 45 -8 1 -49 1 -50 2 -12 1 -13 45 0 44 0 25 25 24 24 8 23 7 22 -12 4 -11 4 0 14 0 14 76 0 75 0 15 14 14 14 10 69 10 68 0 9 0 8 24 -6 24 -6 14 -5 14 -6 22 19 22 19 0 27 0 27 -13 13 -13 13 -34 11 -35 12 -32 -9 -31 -9 5 74 6 75 -96 -7 -96 -7 -14 14 -14 14 1 50 1 50 -25 2 -25 3 -17 -10z" transform="translate(0.000000,68.000000) scale(0.100000,-0.100000)"/></clipPath><clipPath id="piece-mask-30-25" shape-rendering="crispEdges"><path d="M569 565 l-6 -6 -79 -7 -79 -7 3 -41 3 -41 -29 -12 -29 -12 -26 12 -26 12 -3 46 -3 46 -87 3 -88 3 0 -64 0 -64 -20 -23 -19 -22 -34 6 -35 6 -5 -21 -6 -22 6 -28 6 -29 17 0 17 0 16 -37 16 -38 17 -48 17 -47 91 2 91 3 -3 -48 -4 -48 23 -20 22 -19 7 0 7 0 31 11 31 11 6 27 6 28 -6 26 -7 25 32 7 32 7 41 -6 42 -6 13 8 12 8 -2 213 -3 213 -6 -7z" transform="translate(0.000000,57.000000) scale(0.100000,-0.100000)"/></clipPath><clipPath id="piece-mask-30-26" shape-rendering="crispEdges"><path d="M140 462 l0 -68 -21 -17 -20 -18 -33 12 -33 12 -17 -6 -17 -7 3 -47 3 -48 40 1 40 2 16 -19 16 -19 7 -70 7 -70 77 0 77 0 14 -9 14 -9 -7 -26 -7 -27 15 -14 15 -15 25 0 25 0 16 17 17 16 -5 34 -6 33 97 0 97 0 -3 68 -3 67 20 23 20 24 19 -6 19 -6 17 6 16 6 0 32 0 31 -9 14 -9 14 -37 -6 -37 -6 -14 14 -14 14 0 70 0 71 -68 0 -69 0 -6 -6 -6 -6 11 -24 11 -24 -23 -20 -24 -21 -23 -5 -24 -6 -30 6 -30 6 -14 14 -14 14 6 36 6 36 -72 0 -71 0 0 -68z" transform="translate(0.000000,54.000000) scale(0.100000,-0.100000)"/></clipPath><clipPath id="piece-mask-30-27" shape-rendering="crispEdges"><path d="M138 352 l-3 -69 -18 -18 -18 -18 -37 11 -37 12 -12 -17 -13 -17 0 -23 0 -23 13 -1 12 -1 26 2 26 1 11 -28 11 -28 6 -35 7 -35 11 -33 11 -32 234 0 234 0 -7 23 -7 22 -13 55 -13 55 -7 18 -8 19 -33 -4 -34 -4 0 43 0 43 44 -6 45 -7 16 17 17 17 5 58 5 58 -13 5 -14 5 -77 -10 -78 -10 6 -37 6 -36 -27 -12 -26 -12 -28 0 -28 0 -23 20 -23 20 10 23 11 23 -10 17 -9 17 -73 0 -74 0 -4 -68z" transform="translate(0.000000,44.000000) scale(0.100000,-0.100000)"/></clipPath><clipPath id="piece-mask-30-28" shape-rendering="crispEdges"><path d="M314 569 l6 -24 6 -26 6 -26 -26 -27 -27 -26 -40 0 -40 0 -15 14 -14 15 0 9 0 10 -11 4 -11 4 10 36 10 36 -33 5 -33 5 -41 -5 -42 -6 3 -71 3 -71 51 0 50 0 17 -17 17 -17 0 -20 0 -20 -15 -14 -15 -15 -35 -12 -36 -12 -23 6 -24 6 -5 -19 -5 -19 10 -52 9 -52 -5 -14 -5 -13 88 2 89 2 7 -6 6 -7 -10 -40 -11 -40 6 -16 6 -16 14 0 14 0 0 -10 0 -10 21 0 22 0 19 22 19 22 5 23 6 23 -6 35 -7 35 16 6 16 7 64 -11 64 -10 20 5 21 5 0 38 0 37 6 46 7 46 46 -6 47 -5 17 17 17 16 0 19 0 19 -12 25 -11 26 -33 6 -32 6 -31 -7 -31 -7 0 66 0 65 -9 6 -10 6 -82 6 -82 6 7 -24z" transform="translate(0.000000,59.000000) scale(0.100000,-0.100000)"/></clipPath><clipPath id="piece-mask-30-29" shape-rendering="crispEdges"><path d="M175 434 l-20 -5 0 -59 -1 -59 -24 -21 -24 -21 -21 6 -20 6 -32 6 -33 6 0 -42 0 -42 17 -17 16 -17 74 -3 73 -4 6 -24 6 -24 -16 -49 -16 -50 0 -12 0 -12 62 7 62 7 19 22 19 22 -5 31 -5 32 30 6 30 6 24 -6 24 -6 0 -38 0 -38 33 -10 32 -10 60 -6 61 -7 12 59 12 58 0 21 0 20 -64 -1 -64 -1 -21 24 -21 24 0 19 0 19 11 22 12 22 10 7 11 7 47 -6 46 -5 7 37 7 37 -6 29 -7 29 -74 0 -74 0 0 -14 0 -14 11 -4 12 -4 -7 -22 -8 -23 -24 -24 -25 -25 -44 0 -43 0 -5 13 -5 12 5 46 5 46 -8 6 -9 5 -55 5 -55 5 -20 -4z" transform="translate(0.000000,44.000000) scale(0.100000,-0.100000)"/></clipPath><clipPath id="piece-mask-30-30" shape-rendering="crispEdges"><path d="M27 563 l-7 -6 0 -74 0 -73 38 6 39 6 16 -17 17 -16 0 -28 0 -28 -21 -24 -21 -24 -44 0 -45 0 5 -75 5 -75 0 -4 1 -4 47 6 47 5 32 -5 32 -5 -10 -36 -10 -36 11 -4 11 -4 0 -10 0 -9 14 -15 15 -14 40 0 40 0 27 26 26 27 -6 26 -6 26 -6 24 -7 24 78 -6 78 -6 14 14 14 14 -7 49 -6 49 -9 14 -8 14 -38 0 -38 0 -3 53 -3 52 35 0 36 0 0 10 0 10 14 0 14 0 6 16 6 16 0 59 0 59 -228 0 -229 0 -6 -7z" transform="translate(0.000000,57.000000) scale(0.100000,-0.100000)"/></clipPath><clipPath id="piece-mask-30-31" shape-rendering="crispEdges"><path d="M47 553 l-7 -6 0 -71 0 -71 9 -13 8 -14 58 7 57 8 9 -14 9 -14 0 -11 0 -11 -18 -20 -17 -21 -40 -16 -40 -17 -37 6 -38 7 0 -24 1 -23 14 -40 15 -40 0 -17 0 -18 73 0 72 0 14 -9 14 -9 -6 -46 -7 -46 26 -6 25 -6 30 6 30 6 16 15 15 16 -6 29 -5 30 2 0 2 0 84 10 85 10 8 12 8 13 0 57 0 57 -12 26 -12 26 -49 -6 -49 -7 -9 13 -9 14 0 44 0 43 23 -7 22 -8 27 0 26 0 18 18 18 18 4 63 4 64 -229 0 -230 0 -6 -7z" transform="translate(0.000000,56.000000) scale(0.100000,-0.100000)"/></clipPath><clipPath id="piece-mask-30-32" shape-rendering="crispEdges"><path d="M183 509 l-11 -11 10 -30 11 -30 -14 -9 -14 -9 -82 0 -83 0 0 -210 0 -210 234 0 235 0 14 14 13 14 18 48 18 49 4 13 3 12 29 0 29 0 6 36 6 35 -11 24 -10 23 -39 17 -38 18 -21 -6 -21 -6 6 63 7 63 -16 6 -16 6 0 -9 0 -10 -74 0 -74 0 -6 16 -6 16 6 24 6 25 -18 14 -19 14 -35 1 -36 0 -11 -11z" transform="translate(0.000000,52.000000) scale(0.100000,-0.100000)"/></clipPath><clipPath id="piece-mask-30-33" shape-rendering="crispEdges"><path d="M283 442 l7 -32 -12 -25 -11 -25 -14 0 -13 0 0 -10 0 -10 -31 0 -30 0 -15 15 -15 14 6 23 5 23 -9 14 -8 13 -65 5 -65 6 -7 -47 -7 -47 6 -29 7 -30 9 0 10 0 20 11 20 10 30 -10 30 -10 15 -16 16 -16 -6 -30 -6 -30 -15 -16 -16 -15 -39 6 -39 6 -6 -37 -6 -38 -9 -31 -10 -30 0 -17 0 -17 60 0 59 0 26 12 25 11 6 23 6 23 -7 20 -6 20 25 7 24 6 22 -12 22 -12 -5 -46 -5 -45 13 -14 14 -13 43 0 43 0 33 9 32 10 15 15 15 15 0 33 -1 33 -8 44 -9 43 -13 9 -14 8 -39 -6 -38 -6 -9 14 -9 14 0 21 0 22 31 6 31 6 10 -6 9 -6 35 6 34 7 0 84 0 85 -23 0 -24 0 -78 7 -78 6 6 -31z" transform="translate(0.000000,47.000000) scale(0.100000,-0.100000)"/></clipPath><clipPath id="piece-mask-30-34" shape-rendering="crispEdges"><path d="M210 650 l-12 -30 6 -25 7 -26 -16 -16 -16 -15 -84 4 -84 4 -6 -14 -5 -14 0 -59 0 -59 51 0 50 0 15 -15 15 -15 -3 -32 -3 -33 -18 3 -17 3 -13 -13 -13 -13 -17 -62 -17 -63 0 -20 0 -20 39 0 39 0 30 -6 31 -6 7 -21 7 -21 -12 -4 -11 -4 0 -10 0 -9 16 -16 16 -16 46 -5 47 -4 23 21 24 20 -7 39 -6 40 80 3 79 4 6 6 6 5 -14 65 -14 64 -7 18 -7 17 -39 0 -39 0 0 35 0 35 59 0 59 0 6 16 6 16 0 73 0 73 -97 12 -96 12 -14 13 -13 13 7 32 6 32 -14 9 -14 9 -21 0 -22 0 -12 -30z" transform="translate(0.000000,68.000000) scale(0.100000,-0.100000)"/></clipPath><clipPath id="piece-mask-30-35" shape-rendering="crispEdges"><path d="M352 662 l-13 -9 7 -16 6 -17 -6 -23 -6 -24 -27 -12 -27 -12 -65 2 -66 3 -3 -73 -3 -72 -58 7 -57 6 -17 -17 -17 -16 0 -25 0 -24 10 0 10 0 0 -15 0 -15 15 0 15 0 0 -11 0 -11 44 6 44 7 6 -16 6 -17 0 -59 0 -60 11 -12 11 -12 68 3 68 4 20 -11 21 -11 -10 -32 -9 -33 0 -7 0 -7 16 -15 15 -16 20 0 20 0 13 13 13 12 11 22 12 21 -6 31 -6 31 88 0 89 0 11 8 10 7 11 30 12 30 6 41 6 41 40 -1 40 -1 9 15 10 15 0 26 0 25 -22 23 -21 23 -50 -5 -50 -6 6 74 5 75 -7 4 -7 5 -40 -14 -39 -14 -48 -1 -48 0 -14 14 -13 13 5 43 6 43 -18 14 -19 13 -15 0 -16 0 -13 -8z" transform="translate(0.000000,67.000000) scale(0.100000,-0.100000)"/></clipPath><clipPath id="piece-mask-30-36" shape-rendering="crispEdges"><path d="M0 429 l0 -10 10 6 10 6 0 5 0 4 -10 0 -10 0 0 -11z M20 386 l0 -44 6 -31 7 -32 52 6 53 7 7 -41 7 -41 -18 -17 -18 -18 -58 0 -58 1 0 -37 0 -37 12 -51 11 -51 59 0 59 0 22 12 22 11 12 13 13 13 0 16 0 16 -11 21 -11 21 13 8 14 9 32 0 32 0 17 -17 17 -17 -12 -4 -11 -4 0 -14 0 -14 14 0 14 0 4 -10 3 -11 55 -14 55 -15 18 0 17 0 0 69 0 70 17 16 16 17 38 -6 38 -6 11 21 11 20 -6 30 -7 30 -16 -6 -17 -7 -17 -5 -18 -5 0 11 0 11 -13 0 -14 0 -11 25 -12 26 0 49 0 50 -89 0 -90 0 6 -33 5 -34 -17 -16 -16 -17 -25 0 -25 0 -15 15 -15 14 7 27 7 26 -14 9 -14 9 -77 0 -78 0 0 -44z" transform="translate(0.000000,44.000000) scale(0.100000,-0.100000)"/></clipPath><clipPath id="piece-mask-30-37" shape-rendering="crispEdges"><path d="M113 418 l-4 -8 12 0 12 0 -6 -60 -5 -59 -17 -17 -16 -17 -45 7 -44 6 0 -43 0 -43 33 4 33 4 12 -27 12 -26 0 -18 0 -19 17 -51 16 -51 236 2 236 3 3 73 3 73 -16 15 -15 16 -41 -7 -41 -7 -9 13 -9 14 0 39 0 38 18 -7 17 -7 16 -5 16 -5 16 16 16 16 9 0 10 0 6 31 6 31 0 33 0 33 -12 5 -13 4 -82 -14 -83 -15 0 -18 0 -18 -6 -16 -6 -16 -38 0 -38 0 -12 30 -12 30 5 19 5 20 -95 3 -95 3 -5 -7z" transform="translate(0.000000,43.000000) scale(0.100000,-0.100000)"/></clipPath><clipPath id="piece-mask-30-38" shape-rendering="crispEdges"><path d="M341 521 l-14 -9 6 -32 7 -32 -17 -16 -16 -17 -74 2 -73 3 0 -73 0 -72 -9 -14 -9 -14 -54 7 -54 7 -17 -7 -17 -6 0 -32 0 -31 8 -11 7 -10 37 0 37 0 6 -6 6 -6 16 -53 15 -54 2 -22 1 -23 248 0 247 0 1 43 0 42 8 40 7 40 10 -1 9 -2 31 -6 30 -7 21 18 20 18 7 23 7 22 -17 18 -18 17 -68 0 -68 0 6 76 7 76 -90 5 -90 4 -17 17 -17 16 7 27 7 26 -14 9 -14 9 -20 0 -20 0 -14 -9z" transform="translate(0.000000,53.000000) scale(0.100000,-0.100000)"/></clipPath><clipPath id="piece-mask-30-39" shape-rendering="crispEdges"><path d="M227 607 l5 -43 -25 -11 -25 -12 -35 -6 -34 -7 -39 11 -38 11 -7 -8 -7 -7 -5 -62 -5 -62 18 -21 17 -20 47 0 46 0 20 -20 21 -21 -16 -16 -16 -16 -69 7 -70 6 -6 -25 -6 -25 12 -68 13 -67 11 -7 11 -8 56 0 56 0 33 -6 32 -7 -5 -35 -6 -34 14 -14 14 -14 20 0 21 0 0 10 0 10 15 0 14 0 7 35 6 35 -6 26 -7 27 53 -6 53 -6 35 -6 35 -6 14 10 14 9 6 63 6 64 38 -3 39 -3 19 22 19 22 0 20 0 20 -22 19 -22 19 -41 -3 -40 -3 -3 84 -3 83 -22 -7 -22 -6 -35 -9 -35 -10 -49 0 -49 0 6 35 6 34 -10 36 -10 35 -33 0 -34 0 5 -43z" transform="translate(0.000000,65.000000) scale(0.100000,-0.100000)"/></clipPath><clipPath id="piece-mask-30-40" shape-rendering="crispEdges"><path d="M207 634 l-6 -7 6 -42 5 -43 -33 -11 -34 -10 -60 8 -60 9 -9 -8 -9 -9 -4 -68 -4 -68 10 -15 10 -14 53 -1 53 0 3 -47 3 -48 -29 0 -29 0 -12 -27 -13 -28 -15 -44 -15 -44 14 -8 13 -9 82 0 81 0 -5 -20 -5 -20 12 -30 12 -30 38 0 38 0 6 16 6 16 0 18 0 17 85 16 85 16 14 13 13 14 7 48 8 49 4 12 5 12 38 -1 38 -1 15 15 15 15 6 33 7 32 -12 25 -11 24 -31 11 -31 10 -33 -9 -33 -10 -6 15 -6 15 6 58 5 58 -65 6 -65 6 -35 13 -34 12 6 25 6 24 -13 8 -13 9 -36 0 -36 0 -6 -6z" transform="translate(0.000000,64.000000) scale(0.100000,-0.100000)"/></clipPath><clipPath id="piece-mask-30-41" shape-rendering="crispEdges"><path d="M206 635 l6 -34 -14 -14 -13 -14 -22 -11 -22 -12 -70 -1 -71 -1 0 -214 0 -214 68 0 67 0 14 -9 14 -9 -6 -37 -6 -37 14 -14 14 -14 48 0 48 0 13 9 14 8 -4 29 -3 29 79 16 78 17 11 11 12 12 -12 7 -11 7 -12 65 -12 65 -4 7 -5 7 -25 -9 -25 -10 -15 14 -14 15 0 30 0 30 26 27 27 26 37 -6 36 -6 0 78 -1 77 -65 3 -65 2 -27 11 -28 11 0 12 0 11 9 14 10 15 -10 18 -10 18 -40 0 -40 0 7 -35z" transform="translate(0.000000,67.000000) scale(0.100000,-0.100000)"/></clipPath><clipPath id="piece-mask-30-42" shape-rendering="crispEdges"><path d="M437 493 l-6 -9 10 -14 9 -15 0 -21 0 -22 -30 -32 -30 -33 -42 6 -41 5 -9 14 -9 13 5 32 5 32 -17 5 -17 5 -65 1 -65 2 -15 -1 -15 -1 12 -8 12 -8 7 -66 7 -66 -14 -15 -14 -15 -52 5 -52 6 -6 -26 -7 -25 4 -23 3 -24 26 3 26 2 12 -27 13 -28 14 -43 15 -42 -6 -9 -5 -9 50 -11 51 -11 30 0 30 0 15 15 15 14 -2 23 -2 23 1 22 2 22 16 15 15 16 31 0 31 0 19 -22 20 -23 -6 -57 -7 -56 31 -7 30 -7 43 7 42 7 18 10 17 9 0 224 0 224 -14 -5 -14 -6 -19 10 -18 10 -41 7 -42 6 -5 -8z" transform="translate(0.000000,50.000000) scale(0.100000,-0.100000)"/></clipPath><clipPath id="piece-mask-30-43" shape-rendering="crispEdges"><path d="M29 553 l-17 -4 -6 -31 -6 -30 0 -44 0 -43 48 6 49 5 21 -23 22 -23 0 -25 0 -26 -10 -15 -9 -15 -40 1 -40 1 -7 -46 -7 -46 -13 -32 -14 -32 0 -5 0 -4 98 4 97 4 -12 -6 -13 -6 0 -33 0 -34 25 -26 26 -25 14 0 15 0 0 10 0 10 14 0 14 0 6 15 5 15 -5 29 -6 29 86 7 86 7 0 75 0 74 14 15 14 14 30 -6 30 -6 23 12 24 13 7 11 8 11 0 33 0 34 -63 -7 -64 -7 -12 30 -13 31 4 51 3 51 -20 -6 -20 -5 -45 -6 -45 -5 -23 -5 -23 -5 6 -19 6 -20 -15 -15 -15 -15 -30 0 -30 0 -16 17 -17 16 4 39 4 38 -66 -1 -65 -1 -16 -5z" transform="translate(0.000000,56.000000) scale(0.100000,-0.100000)"/></clipPath><clipPath id="piece-mask-30-44" shape-rendering="crispEdges"><path d="M313 643 l5 -28 7 -21 7 -21 -30 -12 -30 -13 -71 4 -71 3 0 -72 0 -71 -6 -16 -6 -16 -59 0 -59 0 0 -35 0 -35 39 0 39 0 7 -17 7 -18 14 -64 14 -64 -6 -8 -5 -8 98 -3 98 -3 -2 -48 -3 -48 15 -16 16 -15 30 6 30 6 16 16 16 16 -10 44 -10 44 87 0 88 0 6 16 6 16 0 58 0 59 -16 16 -16 16 -42 -3 -41 -3 -3 38 -3 37 23 1 23 1 10 -2 9 -1 33 6 33 6 0 85 0 84 -27 -6 -28 -6 -35 -9 -35 -9 -17 0 -17 0 -16 16 -16 17 6 37 6 37 -16 17 -16 16 -41 0 -40 0 5 -27z" transform="translate(0.000000,67.000000) scale(0.100000,-0.100000)"/></clipPath><clipPath id="piece-mask-30-45" shape-rendering="crispEdges"><path d="M317 483 l-6 -6 6 -43 6 -43 -16 -15 -16 -16 -10 0 -11 0 0 -10 0 -10 -31 0 -30 0 -16 15 -15 16 4 30 5 30 -9 5 -10 6 -79 7 -79 7 0 -78 0 -77 19 -10 18 -10 33 9 33 10 24 -6 23 -6 0 -17 0 -16 -6 -22 -6 -21 -29 -12 -29 -13 -40 7 -40 6 -1 -80 -2 -80 -1 -12 -1 -13 60 -3 60 -3 38 11 38 11 -3 42 -3 42 40 0 40 0 -3 -52 -3 -52 27 -7 26 -7 64 7 64 7 15 5 15 6 -6 9 -5 9 10 33 10 32 5 26 5 25 19 22 19 21 28 -2 29 -2 10 26 9 27 -6 16 -6 16 -65 0 -64 0 -6 16 -6 16 0 67 0 68 -37 16 -38 15 -31 6 -32 5 -5 -6z" transform="translate(0.000000,49.000000) scale(0.100000,-0.100000)"/></clipPath><clipPath id="piece-mask-30-46" shape-rendering="crispEdges"><path d="M159 563 l-1 -8 2 -43 2 -42 -12 -35 -11 -34 -34 -7 -33 -6 -20 11 -21 11 -15 -6 -16 -6 0 -34 0 -33 35 -7 35 -6 25 6 26 7 17 -17 17 -18 -1 -60 -2 -61 -3 -20 -4 -20 65 -5 65 -5 14 -9 13 -9 -5 -34 -6 -35 13 -13 12 -13 33 -7 32 -7 29 12 29 12 6 19 6 18 -10 20 -11 20 7 4 8 5 67 7 68 7 18 17 19 16 8 69 7 68 30 -6 30 -6 14 14 14 15 0 10 0 11 10 0 10 0 0 31 0 30 -16 17 -17 16 -36 0 -36 0 -7 10 -8 11 0 63 0 62 -230 0 -230 0 -1 -7z" transform="translate(0.000000,57.000000) scale(0.100000,-0.100000)"/></clipPath><clipPath id="piece-mask-30-47" shape-rendering="crispEdges"><path d="M222 661 l-13 -8 6 -37 7 -37 -22 -19 -23 -20 -34 -6 -35 -7 -54 6 -54 6 0 -86 0 -85 44 6 45 7 20 -20 21 -21 -1 -12 -1 -13 -7 -25 -7 -25 -31 3 -30 3 -11 -28 -11 -28 -6 -44 -7 -43 13 -9 14 -9 64 0 64 0 -6 -36 -6 -36 14 -14 14 -14 30 -6 30 -6 24 6 23 5 24 21 23 20 -11 24 -11 24 6 6 6 6 61 0 61 0 21 6 22 6 16 42 16 42 0 23 0 22 -13 14 -14 13 -46 -5 -47 -6 -20 23 -20 23 0 23 0 23 19 11 20 10 45 0 46 0 0 63 0 62 -6 21 -5 20 -87 13 -87 12 -18 14 -19 14 6 19 6 19 -6 17 -6 16 -22 0 -21 0 -13 -9z" transform="translate(0.000000,67.000000) scale(0.100000,-0.100000)"/></clipPath><clipPath id="piece-mask-30-48" shape-rendering="crispEdges"><path d="M363 602 l-12 -8 -6 -44 -6 -45 -5 -24 -5 -23 -89 4 -89 4 -3 -80 -3 -81 -53 3 -53 4 -19 -23 -20 -22 0 -14 0 -13 15 0 15 0 0 -14 0 -14 15 -6 15 -5 30 5 29 6 5 -23 5 -24 5 -48 6 -48 14 -15 15 -14 65 0 65 0 25 12 26 11 6 32 6 33 -11 20 -11 20 27 5 27 5 13 -5 13 -5 10 -39 11 -39 -7 -36 -7 -36 14 -9 14 -9 27 0 27 0 47 16 47 16 14 13 13 13 -7 61 -6 61 -16 19 -16 19 -40 -2 -40 -1 -3 48 -3 47 17 7 17 6 33 -12 33 -12 20 18 21 17 0 68 0 67 -65 -6 -64 -6 -30 12 -29 13 5 55 6 55 -14 9 -14 9 -30 0 -30 0 -12 -8z" transform="translate(0.000000,61.000000) scale(0.100000,-0.100000)"/></clipPath><clipPath id="piece-mask-30-49" shape-rendering="crispEdges"><path d="M341 541 l-15 -10 12 -26 12 -26 0 -9 0 -10 -11 0 -10 0 -16 -16 -16 -16 -84 4 -83 3 0 -76 0 -77 -17 -6 -16 -7 -43 7 -43 6 -7 -26 -6 -26 12 -29 11 -28 25 -11 24 -12 30 6 30 7 0 -66 0 -65 6 -16 6 -16 70 0 69 0 22 11 22 12 7 11 7 11 -6 39 -6 38 14 9 14 9 33 0 32 0 0 -44 0 -45 18 -5 17 -5 74 -15 75 -16 8 13 8 12 0 78 0 77 40 -6 40 -7 29 13 29 12 6 21 6 22 0 16 0 17 -23 6 -24 6 -33 -10 -33 -9 -18 10 -19 10 0 74 0 75 -2 0 -3 0 -75 15 -75 16 -28 11 -28 11 5 22 6 23 -16 6 -16 6 -16 0 -17 0 -14 -9z" transform="translate(0.000000,55.000000) scale(0.100000,-0.100000)"/></clipPath><clipPath id="piece-mask-30-50" shape-rendering="crispEdges"><path d="M345 670 l-15 -29 0 -20 0 -19 -6 -16 -6 -16 -73 0 -73 0 -5 13 -5 12 -11 -15 -11 -15 6 -27 5 -26 -7 -37 -7 -37 -46 5 -47 6 -11 -7 -10 -7 -12 -22 -11 -22 0 -19 0 -19 21 -24 21 -24 64 1 64 1 0 -26 0 -26 -11 -38 -10 -37 15 -15 15 -15 79 0 80 0 -10 -36 -10 -36 7 -25 6 -25 14 -15 15 -14 22 7 23 7 19 21 18 21 -5 63 -5 62 29 0 28 0 53 -11 52 -12 4 12 4 11 10 -7 11 -6 -6 71 -7 70 -6 16 -6 16 -54 0 -54 0 -6 25 -6 25 6 15 6 16 58 -7 59 -6 11 28 11 29 6 31 6 30 -9 24 -9 23 -71 -2 -72 -2 -35 12 -35 13 0 9 0 8 10 19 10 19 -10 25 -10 26 -24 0 -25 0 -16 -30z" transform="translate(0.000000,70.000000) scale(0.100000,-0.100000)"/></clipPath><clipPath id="piece-mask-30-51" shape-rendering="crispEdges"><path d="M426 422 l-5 -8 10 -14 9 -15 0 -18 0 -18 -12 -13 -13 -12 -19 -7 -19 -7 -18 5 -19 6 0 14 0 13 -12 4 -13 5 12 25 12 26 -6 6 -6 6 -94 0 -93 0 0 -66 0 -66 -49 7 -48 6 -17 -16 -16 -16 -6 -25 -6 -24 12 -29 12 -30 39 -15 38 -16 32 7 32 6 -6 -49 -6 -49 -7 -22 -6 -23 242 0 242 0 -7 23 -7 22 -13 55 -13 55 -7 18 -8 18 -26 -1 -26 -2 -12 1 -13 1 0 23 0 23 13 17 12 17 37 -12 37 -11 18 18 18 18 3 71 4 71 -100 3 -100 3 -6 -9z" transform="translate(0.000000,43.000000) scale(0.100000,-0.100000)"/></clipPath><clipPath id="piece-mask-30-52" shape-rendering="crispEdges"><path d="M377 442 l-79 -3 7 -40 7 -40 -24 -20 -23 -21 -47 4 -46 5 -16 16 -16 16 0 9 0 10 11 4 12 4 -7 21 -7 21 -31 6 -30 6 -38 0 -38 0 -6 -22 -6 -23 0 -54 0 -53 24 6 24 6 33 -12 34 -12 13 -12 12 -13 0 -14 0 -14 -11 -31 -11 -32 -31 3 -31 2 -9 -35 -8 -35 -6 -27 -5 -28 -14 0 -14 0 0 -10 0 -10 22 -4 23 -5 41 -5 41 -6 32 11 32 11 -3 47 -3 46 29 3 28 4 25 -7 24 -6 -6 -27 -6 -28 33 -11 33 -11 42 -7 43 -7 28 7 28 6 17 52 16 52 6 23 6 22 34 0 35 0 6 25 6 25 -12 31 -13 30 -48 -6 -48 -7 -11 41 -10 40 6 39 6 39 -13 4 -14 4 -78 -3z" transform="translate(0.000000,45.000000) scale(0.100000,-0.100000)"/></clipPath><clipPath id="piece-mask-30-53" shape-rendering="crispEdges"><path d="M186 616 l7 -45 -19 -18 -18 -18 -78 0 -78 0 0 -67 0 -66 6 -16 6 -16 64 0 65 0 6 -16 6 -16 -9 -27 -10 -26 -29 2 -28 2 -19 -21 -19 -22 -5 -25 -5 -26 -10 -34 -11 -33 13 -9 14 -9 62 0 61 0 15 -6 15 -6 -4 -31 -5 -32 9 -13 9 -14 41 -5 42 -6 31 34 31 33 -5 25 -4 26 -4 15 -4 15 40 -2 40 -3 28 -12 29 -11 9 14 9 14 0 201 0 201 -57 7 -58 7 -37 10 -38 10 0 24 0 23 -6 16 -6 16 -49 0 -49 0 6 -44z" transform="translate(0.000000,66.000000) scale(0.100000,-0.100000)"/></clipPath><clipPath id="piece-mask-30-54" shape-rendering="crispEdges"><path d="M355 621 l6 -29 -16 -15 -16 -16 -33 -7 -34 -6 -59 4 -58 3 0 -73 -1 -73 -14 -9 -15 -9 -37 6 -38 6 0 -12 0 -11 -14 0 -14 0 -6 -16 -6 -16 0 -18 0 -19 16 -15 15 -16 25 0 24 0 6 -27 7 -28 20 -39 19 -40 12 -12 12 -11 88 -1 89 -1 8 -13 9 -13 -6 -32 -6 -32 15 -16 16 -15 20 0 20 0 15 15 15 15 9 0 10 0 6 16 6 16 -6 22 -5 23 23 7 23 6 50 0 50 0 14 9 13 9 -10 57 -9 58 4 18 5 19 24 -6 23 -6 36 12 35 12 15 15 15 14 0 20 0 20 -17 17 -17 17 -50 0 -51 0 -5 75 -5 75 -8 13 -8 12 -9 -5 -9 -6 -77 20 -76 19 -15 21 -14 21 -30 0 -31 0 7 -29z" transform="translate(0.000000,65.000000) scale(0.100000,-0.100000)"/></clipPath><clipPath id="piece-mask-30-55" shape-rendering="crispEdges"><path d="M342 662 l-14 -9 7 -47 7 -46 -16 0 -16 0 0 -10 0 -10 -95 0 -95 0 0 -80 0 -81 -19 11 -20 10 -19 0 -19 0 -21 -19 -22 -18 0 -30 0 -30 20 -23 20 -23 40 7 40 6 0 -64 0 -64 6 -16 6 -16 87 0 88 0 6 -6 6 -6 -12 -26 -12 -25 13 -5 12 -4 0 -13 0 -14 19 -6 18 -5 19 7 19 7 14 13 13 14 -5 22 -4 22 -4 15 -4 15 93 -2 92 -3 0 10 0 10 15 0 14 0 10 38 11 38 6 31 6 31 34 7 34 6 0 40 0 40 -16 17 -17 16 -38 1 -39 0 -6 18 -6 19 4 56 3 57 -70 11 -70 11 -18 8 -17 7 2 34 2 33 -6 6 -6 6 -33 5 -34 5 -13 -9z" transform="translate(0.000000,67.000000) scale(0.100000,-0.100000)"/></clipPath><clipPath id="piece-mask-30-56" shape-rendering="crispEdges"><path d="M117 533 l-7 -6 0 -53 0 -52 -6 -16 -6 -16 -14 0 -14 0 0 -10 0 -10 -36 0 -35 0 3 -52 3 -53 38 0 38 0 8 -14 9 -14 6 -50 7 -50 -13 -9 -13 -8 15 -10 15 -10 88 7 88 6 -7 -40 -6 -40 17 -16 16 -17 22 0 22 0 11 8 11 7 12 23 12 23 -3 27 -3 27 70 -3 70 -3 21 5 20 5 -4 85 -4 84 42 -9 43 -10 32 11 33 11 6 15 6 16 0 15 0 16 -22 19 -23 20 -52 -6 -53 -6 0 80 0 80 -228 0 -229 0 -6 -7z" transform="translate(0.000000,54.000000) scale(0.100000,-0.100000)"/></clipPath><clipPath id="piece-mask-30-57" shape-rendering="crispEdges"><path d="M328 649 l-18 -10 0 -39 0 -39 -21 -6 -21 -7 -70 7 -71 7 7 -75 8 -75 -59 5 -59 5 -12 -26 -12 -27 0 -18 0 -18 20 -23 20 -23 65 5 65 6 0 -29 0 -28 -16 -47 -16 -47 14 -8 13 -9 58 0 58 0 20 -11 20 -10 -6 -29 -6 -30 6 -19 6 -20 36 -7 35 -7 39 13 40 13 -6 27 -6 27 33 7 33 6 40 16 41 15 -4 72 -3 72 -4 13 -5 13 -21 -11 -21 -12 -31 13 -32 13 -17 19 -18 20 0 33 0 33 22 21 22 20 15 -4 16 -5 29 -7 28 -7 9 14 9 14 0 58 0 57 -63 0 -64 0 -21 18 -21 19 2 29 2 29 -45 2 -45 3 -17 -11z" transform="translate(0.000000,66.000000) scale(0.100000,-0.100000)"/></clipPath><clipPath id="piece-mask-30-58" shape-rendering="crispEdges"><path d="M23 434 l-13 -6 0 -38 0 -39 17 -37 18 -36 37 6 38 6 0 -10 0 -10 14 0 15 0 6 -20 6 -19 -12 -23 -12 -23 -15 -15 -16 -15 -53 0 -54 0 3 -70 3 -70 10 -7 10 -8 52 0 52 0 26 10 27 10 15 15 15 16 -7 36 -6 36 13 8 13 9 21 0 22 0 6 -16 6 -16 -5 -21 -6 -22 20 -12 19 -12 87 -13 86 -12 10 14 9 15 11 39 10 39 -5 22 -6 23 -73 4 -74 3 -16 17 -17 17 0 42 0 42 33 -6 32 -6 20 -6 21 -6 22 19 23 20 5 48 5 49 -9 13 -9 13 -69 -11 -69 -11 -22 -9 -21 -9 5 -19 5 -19 -17 -17 -16 -16 -33 0 -33 0 -24 21 -24 21 0 36 0 37 -60 2 -60 2 -12 -5z" transform="translate(0.000000,44.000000) scale(0.100000,-0.100000)"/></clipPath><clipPath id="piece-mask-30-59" shape-rendering="crispEdges"><path d="M212 564 l-13 -14 -1 -53 0 -52 -11 -7 -12 -8 -47 0 -47 0 -25 10 -26 9 -15 -5 -15 -6 0 -70 0 -69 14 -14 14 -14 37 6 37 6 9 -14 9 -14 0 -32 0 -32 -19 -6 -18 -5 -17 6 -17 6 -19 -22 -20 -23 0 -63 0 -62 29 -7 29 -6 53 -1 53 0 4 11 4 11 15 0 15 0 -6 20 -6 20 -6 19 -6 18 32 7 32 6 23 -6 23 -6 -5 -17 -5 -18 29 -11 28 -11 62 -16 61 -15 16 6 16 6 0 78 0 78 47 -1 46 -2 4 13 5 12 14 0 14 0 0 21 0 20 -13 14 -13 13 -41 7 -42 7 -19 -11 -20 -11 6 87 5 86 -17 -6 -16 -6 -65 -12 -65 -11 -26 6 -27 7 6 49 6 50 -10 30 -11 30 -21 0 -22 -1 -13 -15z" transform="translate(0.000000,58.000000) scale(0.100000,-0.100000)"/></clipPath><clipPath id="piece-mask-30-60" shape-rendering="crispEdges"><path d="M42 563 l-10 -18 -4 -66 -4 -67 38 5 37 5 24 -6 25 -6 6 -16 6 -16 -6 -23 -6 -23 -29 -12 -29 -12 -45 6 -45 7 0 -33 1 -33 14 -40 15 -40 0 -19 0 -18 95 7 94 7 -8 -30 -9 -29 6 -29 5 -29 20 -17 20 -18 9 0 9 0 22 11 22 12 8 11 8 11 -7 64 -6 64 49 -7 48 -7 36 -6 36 -5 16 16 16 17 11 41 11 41 -6 24 -6 25 -58 -7 -58 -7 -16 17 -17 16 -6 26 -7 25 14 9 14 9 48 0 47 0 0 11 0 10 10 -6 10 -6 0 85 0 86 -230 0 -229 0 -9 -17z" transform="translate(0.000000,58.000000) scale(0.100000,-0.100000)"/></clipPath><clipPath id="piece-mask-30-61" shape-rendering="crispEdges"><path d="M186 527 l-19 -14 12 -21 11 -21 0 -10 0 -10 -38 -12 -38 -11 -57 3 -57 4 0 -72 0 -72 16 -16 17 -16 48 6 47 7 12 -22 11 -21 -6 -19 -6 -19 -43 5 -43 6 -10 -28 -10 -29 -16 -65 -15 -65 5 -5 5 -5 71 0 72 0 33 14 33 14 -3 41 -3 41 22 3 22 3 21 -11 21 -11 -7 -34 -6 -34 15 -16 16 -15 63 0 63 0 23 6 22 6 0 63 0 63 6 17 6 16 42 -6 41 -7 23 20 22 19 6 31 6 31 -18 18 -18 18 -53 -1 -52 -2 -7 21 -7 21 2 48 1 48 -18 0 -17 0 -49 -15 -49 -15 -24 0 -24 0 -15 15 -15 14 7 26 6 25 -12 30 -12 30 -32 0 -32 0 -18 -13z" transform="translate(0.000000,54.000000) scale(0.100000,-0.100000)"/></clipPath><clipPath id="piece-mask-30-62" shape-rendering="crispEdges"><path d="M188 652 l-17 -7 9 -15 10 -15 0 -19 0 -19 -22 -19 -22 -19 -23 -5 -24 -6 -50 6 -49 7 0 -81 0 -81 13 -13 12 -13 50 1 50 1 0 -30 0 -30 -37 -3 -38 -3 -10 -42 -11 -42 -10 -39 -11 -39 14 -8 13 -9 55 -1 55 -1 25 -7 25 -7 -3 -32 -3 -32 15 -15 15 -15 30 0 31 0 0 10 0 10 11 0 10 0 16 15 15 15 -4 48 -3 47 35 -3 35 -3 38 -16 39 -17 9 15 9 14 0 60 0 60 -9 14 -9 14 -36 -7 -36 -7 -15 15 -15 15 0 40 0 41 49 0 50 0 16 16 16 17 -7 56 -7 56 -3 4 -4 4 -85 -2 -85 -2 -15 15 -15 14 6 30 6 30 -11 21 -12 21 -32 -1 -32 0 -17 -7z" transform="translate(0.000000,66.000000) scale(0.100000,-0.100000)"/></clipPath><clipPath id="piece-mask-30-63" shape-rendering="crispEdges"><path d="M205 563 l-17 -17 5 -45 5 -44 -15 -15 -14 -15 -85 7 -84 7 0 -44 0 -45 6 -30 6 -30 24 -11 24 -11 25 10 26 10 5 -14 5 -14 -3 -29 -3 -28 -27 -3 -26 -3 -7 -17 -7 -17 -14 -53 -14 -53 0 -23 0 -23 65 -6 65 -6 16 6 16 6 -5 38 -5 38 12 15 11 14 32 7 32 6 21 -21 22 -22 -7 -25 -6 -25 18 -14 18 -13 78 -1 77 0 2 13 2 12 0 70 1 70 38 -3 37 -4 0 11 0 11 14 0 14 0 6 16 6 16 0 31 0 32 -9 13 -8 14 -44 -4 -44 -3 -3 67 -3 66 -77 7 -77 6 -28 11 -27 11 6 32 6 33 -11 21 -12 21 -24 0 -24 0 -16 -17z" transform="translate(0.000000,58.000000) scale(0.100000,-0.100000)"/></clipPath><clipPath id="piece-mask-30-64" shape-rendering="crispEdges"><path d="M43 433 l-33 -4 0 -43 0 -44 -6 -30 -6 -31 33 9 34 10 35 -12 34 -11 13 -13 13 -13 0 -27 0 -27 -22 -19 -22 -19 -14 6 -14 5 -23 6 -22 6 -6 -34 -6 -33 -7 -58 -6 -57 76 0 77 0 -6 10 -6 10 10 0 11 0 0 25 0 26 15 29 16 30 25 0 24 0 10 -26 10 -25 -10 -19 -10 -19 0 -8 0 -9 33 -12 33 -12 67 0 67 0 0 15 0 16 -14 27 -13 27 -7 37 -7 36 16 15 15 15 61 -5 61 -6 9 14 9 14 0 31 0 32 -15 6 -15 5 -30 -5 -29 -6 -17 16 -16 17 -6 64 -5 65 -51 0 -51 0 -23 -6 -23 -7 5 -23 6 -22 -6 -16 -6 -16 -10 0 -9 0 -15 -15 -15 -15 -20 0 -20 0 -16 15 -15 16 6 32 6 32 -8 10 -7 10 -25 3 -25 2 -30 4 -30 3 -32 -4z" transform="translate(0.000000,44.000000) scale(0.100000,-0.100000)"/></clipPath><clipPath id="piece-mask-30-65" shape-rendering="crispEdges"><path d="M247 643 l-7 -6 6 -37 6 -37 -33 -14 -34 -14 -76 0 -77 0 -6 -50 -6 -50 0 -32 0 -31 13 -5 12 -5 46 5 46 5 21 -11 22 -12 0 -24 0 -24 -22 -12 -21 -11 -54 6 -54 6 -15 -14 -14 -15 0 -21 0 -21 12 -47 11 -47 11 -7 11 -8 61 0 61 0 32 -6 31 -7 -6 -33 -6 -33 16 -17 17 -16 34 6 34 7 16 16 16 16 -3 31 -3 31 81 3 81 3 12 26 12 26 6 43 6 43 -7 25 -6 26 -54 0 -54 0 -16 6 -16 6 0 18 0 18 6 16 6 16 10 -6 9 -6 35 6 34 7 0 10 0 10 15 16 16 15 -3 51 -3 52 -82 -4 -83 -3 -16 16 -16 17 6 34 7 34 -20 10 -20 11 -19 0 -19 0 -6 -7z" transform="translate(0.000000,65.000000) scale(0.100000,-0.100000)"/></clipPath><clipPath id="piece-mask-30-66" shape-rendering="crispEdges"><path d="M140 482 l0 -63 -13 -14 -14 -13 -46 5 -46 6 -12 -26 -12 -26 6 -23 6 -24 36 -12 35 -13 44 6 45 7 7 -26 6 -27 -22 -52 -22 -52 -4 -10 -4 -10 72 0 73 0 0 -37 0 -36 24 -21 24 -21 31 0 31 0 15 10 14 9 1 28 2 28 24 7 24 8 58 11 57 10 0 15 0 15 -14 27 -13 27 -7 48 -7 47 -34 0 -34 0 -15 16 -16 15 0 24 0 24 15 15 15 15 54 -6 54 -6 7 47 7 46 -6 35 -7 34 -25 -9 -25 -10 -33 0 -33 0 -31 -6 -31 -6 9 -19 10 -18 0 -10 0 -10 -27 -27 -26 -26 -34 5 -33 6 -16 16 -16 16 6 32 6 32 -8 11 -7 12 -63 3 -62 4 0 -63z" transform="translate(0.000000,55.000000) scale(0.100000,-0.100000)"/></clipPath><clipPath id="piece-mask-30-67" shape-rendering="crispEdges"><path d="M156 433 l-38 -4 6 -59 7 -58 -16 -16 -16 -16 -50 0 -49 0 0 -41 0 -40 14 -15 15 -14 39 6 40 6 7 -22 7 -21 -4 -67 -3 -67 71 0 70 0 19 18 18 18 -7 45 -6 44 49 0 49 0 6 -16 6 -16 0 -23 0 -24 38 -10 37 -10 58 -7 57 -7 0 209 0 209 -53 3 -52 2 -33 -6 -33 -5 6 -28 6 -28 -6 -26 -7 -26 -30 -10 -31 -11 -7 0 -7 0 -22 19 -23 20 4 48 3 48 -50 1 -50 1 -39 -4z" transform="translate(0.000000,44.000000) scale(0.100000,-0.100000)"/></clipPath><clipPath id="piece-mask-30-68" shape-rendering="crispEdges"><path d="M209 559 l-21 -21 5 -49 6 -49 -25 -6 -24 -6 -70 4 -70 4 0 -52 0 -52 -6 -32 -7 -32 22 12 22 12 42 -7 41 -7 13 -13 13 -14 0 -20 0 -21 -14 0 -14 0 -5 -12 -4 -13 -46 2 -46 1 -3 -86 -3 -87 1 -3 2 -3 70 -6 71 -6 14 15 15 15 -5 44 -5 45 17 17 16 17 24 0 24 0 12 -21 11 -21 -6 -33 -6 -32 27 -11 28 -11 73 -6 73 -6 18 20 18 21 18 55 17 55 32 0 33 0 11 25 12 26 0 25 0 25 -26 26 -26 26 -40 -12 -41 -13 -8 14 -9 13 0 58 0 57 -9 0 -8 0 -43 -15 -43 -15 -32 0 -33 0 -5 14 -6 15 6 35 6 36 -13 30 -13 31 -18 9 -18 10 -10 0 -11 0 -21 -21z" transform="translate(0.000000,58.000000) scale(0.100000,-0.100000)"/></clipPath><clipPath id="piece-mask-30-69" shape-rendering="crispEdges"><path d="M212 543 l-24 -5 6 -19 6 -19 6 -20 6 -20 -15 0 -15 0 -4 -11 -4 -11 -62 1 -63 1 -9 5 -8 5 -16 -6 -16 -6 0 -49 0 -48 12 -26 11 -25 14 0 13 0 0 -11 0 -11 18 5 17 5 17 7 16 6 7 -30 6 -30 -11 -20 -11 -21 -38 6 -38 6 -16 -17 -17 -16 0 -74 0 -74 37 -7 36 -7 52 -1 52 0 16 16 16 16 -6 35 -5 36 25 6 26 7 21 -7 22 -7 -6 -30 -6 -30 16 -16 17 -16 88 -4 89 -4 0 25 0 26 14 53 14 53 7 17 7 17 26 3 27 3 3 28 3 29 -5 14 -5 14 -26 -10 -25 -10 -25 12 -24 11 -7 43 -6 44 4 34 4 35 -66 16 -65 16 -28 11 -29 11 5 18 5 17 -22 6 -21 6 -10 -1 -10 -2 -23 -4z" transform="translate(0.000000,55.000000) scale(0.100000,-0.100000)"/></clipPath><clipPath id="piece-mask-30-70" shape-rendering="crispEdges"><path d="M303 573 l-22 -4 6 -32 5 -32 -19 -22 -19 -21 -58 -7 -58 -8 -7 12 -7 11 4 -85 5 -85 -47 0 -47 0 -20 -10 -19 -11 0 -23 0 -23 20 -23 20 -23 47 6 46 5 14 -13 13 -14 0 -24 0 -25 -16 -37 -15 -38 10 -10 10 -10 50 -5 50 -4 25 6 25 6 0 55 0 55 15 15 15 15 19 0 20 0 11 -30 10 -30 -6 -50 -6 -49 26 -6 26 -7 68 12 69 11 14 9 14 9 -17 36 -17 36 0 34 0 34 50 -6 50 -6 0 12 0 11 14 0 14 0 12 30 12 30 -6 24 -6 25 -17 16 -17 17 -43 -5 -44 -5 7 72 6 71 -68 3 -69 2 -32 11 -33 11 0 38 0 38 -22 6 -23 6 -10 -1 -10 -2 -22 -4z" transform="translate(0.000000,58.000000) scale(0.100000,-0.100000)"/></clipPath><clipPath id="piece-mask-30-71" shape-rendering="crispEdges"><path d="M130 381 l0 -38 -6 -32 -6 -31 -10 0 -9 0 -16 -16 -16 -16 -16 5 -16 5 -17 7 -18 7 0 -38 0 -39 9 -14 9 -13 41 7 41 7 16 -16 16 -16 -4 -75 -3 -75 237 0 237 0 -5 14 -5 14 14 29 15 28 7 34 7 35 15 14 14 14 29 -5 28 -6 6 15 6 16 0 9 0 9 -20 20 -20 20 -54 0 -54 0 -6 16 -6 16 0 59 0 60 -47 -6 -48 -6 -27 -5 -28 -6 0 -32 0 -33 -45 -13 -45 -13 -31 13 -31 13 5 49 6 48 -74 0 -75 0 0 -39z" transform="translate(0.000000,43.000000) scale(0.100000,-0.100000)"/></clipPath><clipPath id="piece-mask-30-72" shape-rendering="crispEdges"><path d="M317 434 l-6 -7 10 -19 10 -19 -7 -22 -7 -22 -20 -17 -20 -18 -30 0 -30 0 -19 22 -19 22 7 29 6 29 -13 9 -14 9 -61 0 -61 0 -6 -51 -6 -50 6 -29 5 -29 62 6 62 5 12 -26 12 -27 0 -18 0 -18 -17 -19 -18 -19 -25 -11 -25 -12 -48 8 -48 7 -5 -8 -4 -8 16 -65 16 -66 89 0 89 0 0 10 0 10 16 0 16 0 -7 49 -7 49 21 7 21 6 30 -6 30 -7 1 -11 1 -12 -1 -26 -2 -25 24 -11 24 -11 66 -7 67 -7 0 40 0 39 6 31 6 31 42 -5 42 -6 17 17 17 16 0 34 0 34 -15 15 -16 15 -34 7 -35 6 -22 -5 -21 -6 6 82 6 82 -93 2 -93 3 -6 -6z" transform="translate(0.000000,45.000000) scale(0.100000,-0.100000)"/></clipPath><clipPath id="piece-mask-30-73" shape-rendering="crispEdges"><path d="M6 490 l-6 -41 10 -40 11 -41 48 7 48 6 13 -30 12 -31 -6 -25 -6 -25 -35 0 -35 0 -6 -27 -6 -28 -19 -53 -19 -53 0 -6 0 -6 68 5 68 5 -4 -28 -4 -29 11 0 11 0 0 -13 0 -14 25 -11 26 -12 30 0 30 0 15 15 15 15 -3 28 -3 27 77 5 76 5 6 6 6 5 -10 35 -10 34 0 35 0 35 -9 14 -9 14 -25 -7 -25 -6 -16 6 -16 6 0 14 0 14 -15 0 -15 0 0 13 0 14 20 22 19 23 53 -4 53 -3 3 83 3 82 -89 0 -89 0 10 -44 10 -44 -16 -16 -16 -16 -30 -6 -30 -6 -16 15 -15 16 3 48 2 48 -86 3 -86 3 -7 -41z" transform="translate(0.000000,53.000000) scale(0.100000,-0.100000)"/></clipPath><clipPath id="piece-mask-30-74" shape-rendering="crispEdges"><path d="M312 545 l-12 -26 0 -19 0 -18 -6 -16 -6 -16 -79 0 -79 0 0 -49 0 -49 -6 -16 -6 -16 -13 0 -13 0 -4 -12 -4 -12 -33 14 -33 13 -9 -14 -9 -14 0 -37 0 -36 6 -16 6 -16 43 0 43 0 5 -14 6 -15 7 -60 7 -61 36 -10 36 -10 21 0 21 0 31 11 30 10 6 25 6 24 -11 21 -11 21 6 14 5 14 41 0 41 0 21 -11 20 -11 -6 -56 -6 -57 20 -13 21 -12 65 11 65 11 14 15 15 14 0 16 0 16 11 65 11 64 34 -7 34 -6 0 11 0 10 14 0 14 0 6 24 6 24 -6 16 -6 16 -22 5 -21 4 -40 -2 -40 -2 -3 78 -3 78 -12 3 -12 3 -35 11 -35 10 -57 17 -58 18 0 23 0 24 -33 0 -34 0 -11 -25z" transform="translate(0.000000,57.000000) scale(0.100000,-0.100000)"/></clipPath><clipPath id="piece-mask-30-75" shape-rendering="crispEdges"><path d="M17 433 l-7 -6 0 -56 0 -56 8 -11 7 -10 36 0 36 0 17 -16 16 -17 0 -30 0 -31 -10 0 -10 0 0 -11 0 -10 -14 -15 -14 -14 -30 6 -30 6 -7 -63 -6 -64 -5 -17 -5 -18 70 0 70 0 28 11 28 10 7 12 8 12 -6 28 -6 27 36 0 35 0 6 -20 6 -20 42 -10 42 -11 38 -10 37 -10 14 13 14 13 -5 55 -5 55 45 0 45 0 21 24 21 24 0 28 0 28 -17 16 -16 17 -39 -6 -38 -6 0 80 0 80 -228 0 -229 0 -6 -7z" transform="translate(0.000000,44.000000) scale(0.100000,-0.100000)"/></clipPath><clipPath id="piece-mask-30-76" shape-rendering="crispEdges"><path d="M308 455 l-6 -7 9 -31 9 -32 -11 -32 -10 -31 -31 -11 -31 -11 -25 0 -25 0 -18 22 -19 21 0 11 0 11 9 14 10 15 -10 18 -10 18 -69 0 -70 0 0 -66 0 -65 45 7 45 6 0 -11 0 -11 14 0 13 0 7 -31 6 -32 0 -12 0 -12 -19 -21 -18 -22 -31 6 -31 6 -5 -23 -5 -24 -6 -45 -6 -44 -12 -8 -11 -7 6 -6 6 -7 41 -5 40 -5 24 5 23 6 22 19 22 19 0 19 0 19 -10 15 -9 15 17 7 17 7 32 0 32 1 12 -21 11 -21 -6 -30 -6 -30 14 -14 15 -14 80 0 81 0 0 20 0 19 -9 23 -9 23 -17 43 -18 42 -17 0 -17 0 -6 29 -6 28 6 22 5 21 35 -6 34 -6 19 22 20 23 0 73 0 73 -32 -1 -33 -1 -50 8 -50 7 -7 -7z" transform="translate(0.000000,46.000000) scale(0.100000,-0.100000)"/></clipPath><clipPath id="piece-mask-30-77" shape-rendering="crispEdges"><path d="M147 543 l-7 -6 0 -69 0 -68 -54 0 -55 0 -15 -16 -16 -15 0 -23 0 -23 19 -21 18 -22 44 0 44 0 23 -6 22 -6 0 -23 0 -22 -15 -43 -15 -43 0 -12 0 -12 66 -6 67 -5 8 -13 9 -14 -5 -23 -6 -23 15 -14 15 -15 30 0 31 0 0 10 0 10 13 0 14 0 11 25 12 25 -7 31 -6 32 85 -7 84 -7 17 7 17 6 0 70 0 71 39 -7 40 -6 24 11 24 11 12 33 12 33 -12 25 -12 26 -14 6 -15 5 -40 -11 -41 -10 -11 11 -11 11 0 70 0 69 -226 0 -226 0 -6 -7z" transform="translate(0.000000,55.000000) scale(0.100000,-0.100000)"/></clipPath><clipPath id="piece-mask-30-78" shape-rendering="crispEdges"><path d="M450 550 l11 -21 -6 -18 -6 -19 -19 -22 -19 -22 -40 -5 -40 -5 -16 16 -17 16 7 40 7 40 -86 0 -86 0 0 -76 0 -76 -30 7 -30 7 -34 -12 -34 -11 -6 -15 -6 -16 6 -23 6 -23 21 -6 22 -6 31 0 32 0 6 -16 6 -16 0 -52 0 -53 19 -21 18 -22 71 0 72 0 6 -24 6 -25 -7 -20 -6 -21 15 -15 15 -15 34 0 35 0 16 6 16 6 0 29 0 28 19 11 20 10 19 0 20 0 50 16 50 16 16 42 16 42 0 19 0 20 6 22 6 23 39 -6 38 -6 16 15 15 16 6 30 6 30 -15 16 -15 15 -28 10 -28 11 -28 -12 -29 -12 -7 8 -7 7 0 71 0 72 -45 7 -45 7 -48 0 -48 1 11 -20z" transform="translate(0.000000,57.000000) scale(0.100000,-0.100000)"/></clipPath><clipPath id="piece-mask-30-79" shape-rendering="crispEdges"><path d="M0 218 l0 -220 67 4 67 4 4 12 4 12 13 0 14 0 6 20 6 19 -7 36 -6 36 58 -3 59 -3 -2 -29 -2 -28 15 -16 16 -15 56 -13 57 -14 10 0 10 0 12 8 13 8 -14 65 -14 64 -7 18 -8 18 -41 -3 -41 -3 -3 37 -3 38 45 -6 45 -7 15 16 16 15 10 27 10 26 0 50 0 50 -240 -1 -240 -1 0 -221z" transform="translate(0.000000,44.000000) scale(0.100000,-0.100000)"/></clipPath><clipPath id="piece-mask-30-80" shape-rendering="crispEdges"><path d="M347 584 l-7 -8 6 -33 6 -33 -6 -23 -5 -23 -19 -22 -19 -22 -22 0 -21 0 0 10 0 10 -14 0 -14 0 -6 16 -6 16 11 40 10 40 -6 7 -7 6 -95 0 -95 0 4 -67 5 -67 17 -16 17 -17 29 6 30 5 15 -5 15 -6 0 -32 0 -31 -9 -14 -9 -14 -61 6 -61 5 -16 -15 -15 -15 6 -32 6 -31 21 -47 21 -46 51 5 51 5 40 -9 40 -9 1 -40 1 -39 1 -11 2 -12 29 -12 29 -12 24 13 23 12 18 21 18 20 -6 27 -6 26 38 7 38 6 28 0 28 0 15 14 14 15 0 74 0 75 -6 17 -6 16 -58 -7 -58 -6 -7 20 -6 21 11 21 11 20 64 0 65 0 0 54 0 54 -6 29 -6 30 -26 0 -27 -1 -60 8 -60 8 -8 -8z" transform="translate(0.000000,59.000000) scale(0.100000,-0.100000)"/></clipPath><clipPath id="piece-mask-30-81" shape-rendering="crispEdges"><path d="M36 488 l-6 -53 0 -20 0 -20 66 3 65 4 20 -23 19 -22 0 -19 0 -19 -14 -15 -15 -14 -9 0 -10 0 -4 -11 -3 -10 -41 -9 -41 -9 -32 9 -31 9 0 -35 0 -35 16 -30 15 -31 -5 -14 -5 -14 85 0 85 0 -11 -19 -10 -20 0 -10 0 -10 27 -27 26 -26 54 4 55 5 9 14 10 14 -6 38 -5 37 75 0 75 0 0 80 0 80 -40 -6 -40 -7 -20 23 -20 23 0 30 0 30 22 18 21 19 19 0 19 0 20 -10 19 -11 0 80 0 80 -32 -10 -33 -9 -35 0 -35 0 -12 -8 -12 -8 9 -14 10 -15 0 -12 0 -13 -11 0 -10 0 -15 -15 -15 -15 -30 0 -30 0 -16 16 -16 15 7 45 6 44 -89 0 -88 0 -7 -52z" transform="translate(0.000000,54.000000) scale(0.100000,-0.100000)"/></clipPath><clipPath id="piece-mask-30-82" shape-rendering="crispEdges"><path d="M201 521 l-14 -9 6 -32 7 -32 -14 -14 -15 -14 -60 0 -60 0 -26 10 -27 10 6 -16 6 -16 0 -51 0 -52 9 -13 8 -14 41 13 40 12 26 -26 26 -26 0 -25 0 -25 -12 -26 -11 -25 -32 0 -32 0 -20 -57 -21 -58 -7 -17 -7 -18 62 0 61 0 22 12 22 11 13 14 14 14 -6 29 -6 30 46 0 45 0 -6 -21 -7 -20 22 -19 21 -18 66 -12 65 -11 5 5 5 5 -12 65 -12 66 6 25 6 25 70 -6 69 -7 16 16 16 16 -21 21 -20 20 -46 0 -47 0 -18 21 -18 21 5 51 5 52 4 17 3 17 -76 18 -76 18 -27 27 -26 28 -24 0 -24 0 -14 -9z" transform="translate(0.000000,53.000000) scale(0.100000,-0.100000)"/></clipPath><clipPath id="piece-mask-30-83" shape-rendering="crispEdges"><path d="M351 591 l-11 -20 0 -43 0 -43 -9 -14 -9 -14 -86 7 -86 6 0 -57 0 -58 -9 -14 -9 -14 -28 7 -29 7 -16 5 -15 4 -22 -20 -22 -21 0 -33 0 -33 17 -20 18 -19 32 -13 31 -13 20 11 19 10 7 -6 6 -6 0 -68 0 -69 26 -6 26 -7 64 6 65 5 20 23 20 23 -6 23 -5 23 34 0 35 0 11 -19 10 -19 -6 -46 -7 -45 27 -7 26 -6 70 21 70 22 0 225 0 226 -15 -5 -14 -6 -63 13 -63 14 -17 7 -17 7 -3 41 -3 42 -37 3 -37 3 -10 -20z" transform="translate(0.000000,61.000000) scale(0.100000,-0.100000)"/></clipPath><clipPath id="piece-mask-30-84" shape-rendering="crispEdges"><path d="M351 581 l-14 -9 6 -38 6 -39 -7 -11 -7 -11 -22 -12 -22 -11 -65 0 -66 0 0 -48 0 -49 -20 -23 -20 -23 -45 6 -45 7 -16 -31 -16 -31 13 -30 12 -30 53 5 52 5 11 -26 11 -27 2 -58 2 -57 40 -11 39 -11 34 7 35 6 25 12 25 11 -5 43 -5 43 34 0 33 0 10 -35 10 -36 -6 -36 -6 -36 74 6 74 6 33 13 32 12 0 13 0 13 10 0 9 0 11 43 11 42 6 18 5 19 31 -6 32 -6 11 8 11 7 12 22 11 22 0 19 0 19 -20 22 -19 23 -50 -7 -49 -7 -11 21 -11 20 0 59 0 59 -62 13 -63 12 -37 9 -38 10 0 44 0 45 -32 0 -33 0 -14 -9z" transform="translate(0.000000,59.000000) scale(0.100000,-0.100000)"/></clipPath><clipPath id="piece-mask-30-85" shape-rendering="crispEdges"><path d="M20 363 l0 -58 9 -14 10 -15 26 12 27 13 21 -7 20 -6 24 -24 23 -23 0 -15 0 -14 -6 -16 -6 -16 -10 0 -9 0 -17 -16 -16 -16 -53 4 -53 5 -5 -18 -6 -18 10 -58 11 -57 0 -3 0 -3 220 0 220 0 0 12 0 12 -22 69 -23 68 -31 -6 -31 -5 -11 25 -12 26 0 14 0 14 11 25 12 25 15 6 15 5 34 -12 34 -12 9 14 10 15 0 57 0 56 -55 -19 -55 -19 -16 0 -16 0 7 -28 6 -29 -40 -13 -39 -13 -35 7 -36 7 -6 20 -6 19 6 30 6 29 -20 10 -20 11 -65 0 -66 0 0 -57z" transform="translate(0.000000,43.000000) scale(0.100000,-0.100000)"/></clipPath><clipPath id="piece-mask-30-86" shape-rendering="crispEdges"><path d="M115 395 l-1 -64 -24 -21 -25 -22 -33 5 -32 6 0 -30 0 -30 10 -19 10 -19 15 5 14 6 18 -17 17 -18 11 -71 11 -71 54 -3 55 -3 37 11 38 11 0 10 0 10 -11 21 -12 21 19 14 18 13 32 0 32 0 12 -30 12 -30 -6 -25 -7 -26 15 -14 15 -15 22 0 23 0 57 16 58 16 -5 67 -5 66 -5 23 -4 22 -33 0 -32 0 -22 6 -21 6 -6 23 -6 23 6 16 6 15 34 11 34 12 30 -7 30 -7 0 76 0 76 -37 -5 -38 -4 -47 -6 -47 -6 6 -29 5 -29 -15 -16 -16 -15 -30 -6 -30 -6 -25 6 -26 6 7 46 6 46 -14 9 -14 9 -70 0 -70 0 0 -65z" transform="translate(0.000000,46.000000) scale(0.100000,-0.100000)"/></clipPath><clipPath id="piece-mask-30-87" shape-rendering="crispEdges"><path d="M223 572 l-23 -3 0 -7 0 -7 10 -35 10 -35 -5 -16 -6 -17 -29 -12 -29 -12 -76 4 -75 3 0 -47 0 -47 11 -24 11 -25 25 -11 25 -12 35 13 34 12 9 -14 10 -15 0 -42 0 -42 -19 -10 -18 -10 -37 6 -36 6 0 -12 0 -11 -14 0 -13 0 -5 -51 -5 -52 4 -18 5 -17 21 -6 22 -6 58 0 58 0 15 14 14 14 -7 32 -6 32 14 9 14 9 33 0 32 0 0 -11 0 -10 15 -16 16 -15 76 -20 76 -19 7 11 7 12 -4 46 -5 47 -10 27 -10 26 -52 -5 -53 -5 -12 30 -13 30 16 31 16 31 45 -7 45 -6 20 23 20 23 0 49 0 48 -84 0 -84 0 -16 6 -15 6 5 42 6 43 -11 20 -10 21 -18 4 -18 4 -22 -4z" transform="translate(0.000000,58.000000) scale(0.100000,-0.100000)"/></clipPath><clipPath id="piece-mask-30-88" shape-rendering="crispEdges"><path d="M135 429 l7 -11 -7 -54 -7 -55 -25 -25 -26 -26 -39 6 -39 6 3 -37 3 -38 38 0 38 0 9 -14 8 -15 7 -35 6 -36 11 -42 12 -43 58 0 57 0 26 12 25 11 6 22 5 22 -3 19 -3 18 26 10 27 9 17 -7 18 -6 -6 -47 -5 -46 15 -15 14 -15 80 6 81 5 4 5 5 5 -24 49 -24 48 -7 28 -6 27 -24 0 -25 0 -15 16 -16 15 0 19 0 18 6 16 6 16 14 0 14 0 0 11 0 12 38 -6 37 -6 12 7 13 8 5 60 6 59 -8 11 -8 11 -70 -9 -70 -9 -13 -5 -13 -4 11 -20 11 -21 -6 -18 -6 -19 -29 -12 -29 -12 -32 7 -33 7 -13 13 -13 13 7 33 6 32 -18 14 -19 13 -59 0 -58 0 6 -11z" transform="translate(0.000000,44.000000) scale(0.100000,-0.100000)"/></clipPath><clipPath id="piece-mask-30-89" shape-rendering="crispEdges"><path d="M206 510 l6 -29 -14 -14 -13 -14 -22 -11 -22 -12 -60 0 -59 0 -6 13 -5 12 2 -80 2 -80 44 3 44 4 8 -14 9 -13 0 -32 0 -31 -6 -16 -6 -16 -14 0 -14 0 0 -11 0 -11 -37 4 -38 3 0 -83 0 -82 77 0 77 0 26 12 26 12 -3 40 -3 41 38 3 38 3 -6 -24 -6 -24 18 -8 18 -7 60 -15 60 -15 28 -1 27 0 4 4 3 4 6 52 6 51 -18 21 -19 21 -53 -5 -54 -6 -13 9 -14 9 0 39 0 38 19 14 18 13 50 -5 50 -6 14 9 14 9 -7 68 -7 67 -4 7 -4 7 -75 12 -74 12 -22 19 -22 19 7 20 6 21 -45 0 -45 0 5 -30z" transform="translate(0.000000,54.000000) scale(0.100000,-0.100000)"/></clipPath><clipPath id="piece-mask-30-90" shape-rendering="crispEdges"><path d="M286 452 l-5 -8 10 -14 9 -15 0 -22 0 -22 -25 -26 -26 -25 -24 0 -25 0 0 10 0 10 -16 0 -17 0 6 50 6 50 -74 0 -73 0 -17 6 -16 6 3 -88 3 -89 40 3 41 3 22 -19 22 -19 0 -20 0 -20 -20 -23 -19 -22 -36 6 -35 7 -4 -13 -4 -13 -6 -67 -6 -67 55 -6 55 -7 25 6 25 6 0 40 0 39 20 11 21 11 42 -3 42 -3 -2 -29 -2 -29 21 -19 21 -18 64 0 64 0 -9 18 -9 17 -13 63 -13 63 -27 -6 -26 -6 -22 19 -22 19 0 31 0 30 18 7 17 7 34 8 34 8 23 -9 24 -9 -1 38 -1 37 -6 53 -7 53 -77 5 -77 4 -5 -8z" transform="translate(0.000000,46.000000) scale(0.100000,-0.100000)"/></clipPath><clipPath id="piece-mask-30-91" shape-rendering="crispEdges"><path d="M9 538 l-11 -21 6 -50 5 -50 9 -9 9 -9 41 10 40 11 15 -5 14 -6 12 -26 12 -25 -12 -33 -12 -33 -24 -11 -24 -11 -40 6 -39 7 0 -82 0 -81 80 0 81 0 5 -14 6 -14 -11 -21 -11 -21 12 -20 13 -20 18 -6 19 -6 34 7 34 6 0 14 0 15 11 0 11 0 -7 29 -6 30 48 6 48 6 32 5 31 5 6 15 6 16 -15 44 -15 45 0 30 0 30 45 -7 45 -6 29 12 29 12 6 23 6 23 -6 16 -6 16 -25 6 -24 6 -39 -5 -38 -5 3 32 4 31 5 53 5 52 -229 0 -229 0 -12 -22z" transform="translate(0.000000,56.000000) scale(0.100000,-0.100000)"/></clipPath><clipPath id="piece-mask-30-92" shape-rendering="crispEdges"><path d="M160 497 l0 -64 -21 -24 -21 -24 -49 2 -49 2 -11 -20 -11 -21 12 -28 12 -28 24 -6 24 -6 38 6 38 6 12 -26 12 -26 -7 -60 -6 -59 89 -3 89 -3 3 -46 3 -47 28 -12 28 -11 27 12 27 13 -3 40 -3 41 73 6 72 7 15 6 15 6 -2 212 -3 213 -227 3 -228 2 0 -63z" transform="translate(0.000000,56.000000) scale(0.100000,-0.100000)"/></clipPath><clipPath id="piece-mask-30-93" shape-rendering="crispEdges"><path d="M289 544 l-1 -9 2 -22 1 -22 -12 -23 -12 -23 -11 -7 -11 -8 -22 0 -22 0 -16 17 -17 16 6 39 6 38 -37 0 -38 0 -53 -6 -52 -7 0 -64 0 -64 34 7 34 6 30 -7 29 -6 12 -25 11 -25 0 -19 0 -19 -17 -16 -17 -17 -47 5 -46 6 -7 -46 -6 -46 0 -49 0 -49 37 2 38 3 33 -2 32 -2 0 -39 0 -39 31 -11 32 -11 27 0 27 0 24 21 24 20 -1 41 -2 41 70 -6 70 -6 14 13 13 14 6 44 6 43 5 24 5 23 31 -6 31 -6 18 22 19 21 0 12 0 13 -6 31 -6 31 -14 0 -14 0 0 11 0 11 -45 -6 -45 -7 0 70 0 71 -37 0 -38 0 -52 6 -53 7 -1 -9z" transform="translate(0.000000,55.000000) scale(0.100000,-0.100000)"/></clipPath><clipPath id="piece-mask-30-94" shape-rendering="crispEdges"><path d="M306 565 l6 -25 -6 -34 -6 -33 -18 -20 -17 -20 -21 -7 -22 -7 -25 12 -26 12 -11 27 -11 27 7 38 7 38 -73 -7 -73 -7 -8 13 -9 13 0 -57 0 -57 12 -26 11 -25 47 0 47 0 12 -24 13 -24 -7 -23 -8 -24 -11 -7 -11 -8 -22 0 -22 0 -11 -42 -11 -43 -15 -38 -14 -38 5 -10 6 -9 59 0 58 0 6 -15 5 -15 -5 -30 -6 -29 16 -16 16 -16 33 -6 34 -5 26 26 27 27 0 10 0 10 -10 18 -9 19 31 6 31 6 30 0 30 0 39 12 39 12 -6 20 -6 21 -13 57 -13 58 -7 7 -8 8 -36 0 -37 0 -3 38 -3 37 39 -6 39 -6 25 25 26 26 7 50 7 50 -7 19 -6 20 -63 11 -63 11 -22 0 -21 0 6 -25z" transform="translate(0.000000,59.000000) scale(0.100000,-0.100000)"/></clipPath><clipPath id="piece-mask-30-95" shape-rendering="crispEdges"><path d="M147 573 l-7 -6 0 -78 0 -77 -16 -6 -16 -6 -41 0 -42 0 -14 -9 -14 -9 7 -25 6 -26 17 -16 16 -17 58 7 58 7 7 -26 6 -26 -16 -49 -16 -50 0 -11 0 -12 76 7 77 8 -7 -38 -7 -38 11 -27 11 -27 26 -12 25 -12 22 7 21 7 17 20 18 20 6 33 6 34 -6 26 -7 27 58 -7 57 -7 22 -5 22 -6 12 37 12 37 -5 44 -4 43 -16 16 -16 16 -26 -7 -25 -6 -35 6 -35 7 0 33 0 34 16 6 15 6 21 -11 20 -11 33 6 33 7 11 31 11 31 0 38 0 37 -6 16 -6 16 -222 0 -223 0 -6 -7z" transform="translate(0.000000,58.000000) scale(0.100000,-0.100000)"/></clipPath><clipPath id="piece-mask-30-96" shape-rendering="crispEdges"><path d="M427 411 l5 -40 -13 -14 -14 -14 -22 -11 -22 -12 -28 0 -28 0 -15 10 -15 9 0 38 0 38 -35 12 -35 12 -37 0 -38 1 0 -85 0 -84 -33 -6 -33 -6 -9 1 -10 2 -23 -1 -23 -1 3 -37 3 -38 41 3 42 3 16 -16 16 -16 0 -74 0 -73 16 -6 16 -6 69 0 69 0 4 22 5 23 6 47 6 46 15 6 16 6 26 0 27 0 14 -9 14 -9 -6 -55 -5 -55 24 -11 25 -11 45 0 45 0 18 10 19 9 6 48 7 48 11 28 11 28 30 -3 31 -3 7 25 7 25 1 13 1 12 -21 21 -20 20 -45 -7 -44 -6 0 85 0 85 -31 6 -31 6 -43 0 -43 0 5 -39z" transform="translate(0.000000,45.000000) scale(0.100000,-0.100000)"/></clipPath><clipPath id="piece-mask-30-97" shape-rendering="crispEdges"><path d="M296 497 l6 -53 -17 -17 -16 -17 -29 0 -29 0 -16 16 -16 16 3 41 3 41 -35 7 -35 7 -46 -5 -46 -5 -6 -52 -5 -51 5 -28 5 -27 39 6 39 7 0 -12 0 -11 14 0 15 0 7 -22 7 -22 -12 -4 -11 -4 0 -13 0 -13 -16 -6 -16 -6 -24 6 -24 6 0 -8 0 -9 -10 -64 -9 -64 -13 -9 -13 -8 13 -9 14 -8 43 5 44 4 46 -7 47 -7 -6 -33 -7 -33 16 -16 16 -16 19 0 19 0 25 12 26 11 5 18 6 18 -10 20 -11 19 35 6 34 7 49 -7 49 -6 16 59 17 59 0 17 0 16 12 27 12 26 43 -6 42 -5 6 19 6 19 -11 21 -12 22 -47 -7 -48 -6 -17 16 -16 16 0 73 0 73 -67 6 -68 7 -23 0 -22 0 6 -53z" transform="translate(0.000000,55.000000) scale(0.100000,-0.100000)"/></clipPath><clipPath id="piece-mask-30-98" shape-rendering="crispEdges"><path d="M408 454 l-6 -6 9 -31 9 -31 -10 -37 -11 -38 -16 -17 -16 -16 -34 5 -33 6 -16 16 -17 16 12 26 12 25 -6 18 -6 18 -22 6 -22 6 -47 0 -48 0 0 10 0 10 -7 0 -8 0 3 -82 4 -83 -21 -24 -21 -24 -26 12 -26 12 -19 -6 -19 -6 0 -19 0 -19 12 -27 12 -26 62 6 62 6 6 -16 6 -16 0 -34 0 -35 -15 -29 -16 -30 236 0 235 0 0 3 0 3 -11 57 -10 58 6 18 5 18 53 -5 53 -4 16 16 17 16 9 0 10 0 6 16 6 16 0 14 0 15 -23 23 -24 24 -20 6 -21 7 -26 -12 -26 -12 -8 7 -7 8 -5 65 -5 66 -75 18 -75 18 -16 1 -16 0 -5 -6z" transform="translate(0.000000,46.000000) scale(0.100000,-0.100000)"/></clipPath><clipPath id="piece-mask-30-99" shape-rendering="crispEdges"><path d="M145 538 l-3 -13 -5 -52 -4 -51 -17 -18 -18 -17 -26 0 -27 0 -22 8 -23 7 0 -43 0 -44 9 -14 9 -13 49 7 50 6 13 -30 12 -31 -4 -65 -4 -65 79 0 79 0 -7 -40 -7 -40 17 -16 16 -16 40 5 40 5 19 22 19 22 6 19 6 18 -12 22 -11 22 94 -7 94 -7 17 54 17 54 0 20 0 21 -22 6 -23 6 -44 0 -44 0 -18 22 -19 21 0 23 0 23 16 15 15 16 55 0 54 0 0 75 0 75 -230 0 -231 0 -4 -12z" transform="translate(0.000000,55.000000) scale(0.100000,-0.100000)"/></clipPath><clipPath id="piece-mask-30-100" shape-rendering="crispEdges"><path d="M223 532 l-13 -8 -1 -25 -1 -24 7 -21 7 -21 -29 -8 -28 -7 -80 -1 -80 -2 -3 -54 -3 -55 6 -23 5 -23 55 0 55 0 20 -20 20 -20 0 -9 0 -9 -6 -16 -6 -15 -28 6 -29 5 -14 -14 -15 -14 -7 -35 -7 -34 -15 -28 -14 -29 5 -14 5 -14 220 0 219 0 7 50 7 49 -7 31 -7 30 -39 0 -39 0 0 10 0 10 -15 0 -15 0 -6 25 -6 25 13 31 12 31 36 -6 36 -5 14 8 13 8 6 68 5 68 -19 -8 -19 -9 -46 -4 -46 -4 -16 17 -17 16 0 38 0 38 -25 11 -26 12 -17 0 -17 0 -12 -8z" transform="translate(0.000000,54.000000) scale(0.100000,-0.100000)"/></clipPath><clipPath id="piece-mask-30-101" shape-rendering="crispEdges"><path d="M327 524 l-7 -7 6 -36 6 -37 -27 -12 -26 -12 -74 0 -75 0 0 -76 0 -75 -15 -16 -15 -15 -48 4 -47 3 -3 -24 -4 -23 7 -25 6 -25 25 6 25 7 15 -16 16 -16 14 -55 15 -55 -6 -9 -6 -10 245 0 245 0 16 30 15 29 0 35 0 34 -6 16 -6 16 -62 -6 -62 -6 -12 26 -12 27 0 19 0 19 19 6 19 6 26 -12 26 -12 20 23 20 23 0 71 0 71 -8 10 -7 10 -20 2 -20 2 -60 14 -60 15 -18 7 -18 7 3 22 3 21 -30 3 -31 3 -7 -7z" transform="translate(0.000000,53.000000) scale(0.100000,-0.100000)"/></clipPath><clipPath id="piece-mask-30-102" shape-rendering="crispEdges"><path d="M454 411 l1 -40 -24 -20 -24 -21 -27 0 -27 0 -32 11 -31 11 0 38 0 37 -37 5 -38 5 -35 -4 -35 -5 3 -74 4 -74 -66 0 -65 0 -11 -20 -11 -21 6 -21 7 -20 58 6 58 7 6 -16 6 -17 0 -89 0 -89 74 0 75 0 15 15 15 15 11 0 12 0 -5 18 -6 17 -6 22 -7 21 22 7 21 7 25 -6 24 -6 -6 -24 -5 -23 28 -11 28 -11 75 -16 75 -15 3 0 3 0 -6 10 -6 10 11 40 10 40 10 39 10 40 38 3 37 3 0 30 0 30 -50 -1 -50 -1 -12 13 -13 13 0 79 0 80 -31 6 -31 6 -38 0 -37 0 1 -39z" transform="translate(0.000000,45.000000) scale(0.100000,-0.100000)"/></clipPath><clipPath id="piece-mask-30-103" shape-rendering="crispEdges"><path d="M436 575 l6 -25 -6 -35 -7 -35 -14 0 -15 0 0 -10 0 -10 -21 0 -20 0 -14 14 -14 14 6 34 5 35 -32 7 -32 6 -60 0 -59 0 7 -71 7 -71 -14 -9 -14 -9 -50 6 -50 5 -19 -13 -18 -14 0 -38 0 -39 13 -9 14 -9 54 6 53 5 18 -20 18 -20 -6 -65 -5 -65 49 0 49 0 22 -6 22 -6 6 -18 6 -18 -12 -25 -12 -26 17 -16 16 -16 33 -6 34 -5 16 16 16 17 11 38 10 37 -10 33 -9 32 15 6 14 5 65 -16 64 -16 14 0 14 0 16 51 17 51 0 28 0 28 -65 -6 -65 -5 -20 23 -20 23 0 18 0 18 12 27 12 26 59 -5 60 -5 -7 51 -6 52 0 26 0 26 -64 11 -63 12 -27 0 -26 0 6 -25z" transform="translate(0.000000,60.000000) scale(0.100000,-0.100000)"/></clipPath><clipPath id="piece-mask-30-104" shape-rendering="crispEdges"><path d="M315 450 l-6 -10 6 -44 7 -44 -6 -19 -6 -20 -26 -11 -25 -12 -8 0 -8 0 -20 18 -20 17 -5 29 -6 29 9 29 8 30 -97 -7 -97 -7 -7 -5 -8 -4 0 -38 0 -38 11 -32 11 -31 13 0 13 0 4 -12 5 -13 27 13 27 12 5 -14 5 -14 -3 -38 -3 -39 -20 2 -20 3 -13 -8 -13 -9 -15 -58 -15 -58 5 -24 6 -23 70 0 69 0 25 11 25 12 -2 41 -2 41 50 0 50 0 -3 -21 -3 -21 28 -11 28 -11 61 -16 62 -15 5 0 4 0 16 43 16 42 11 43 11 42 22 0 22 0 11 8 11 7 8 24 7 23 -13 24 -12 24 -47 0 -47 0 -11 25 -12 26 0 52 0 52 -32 0 -33 0 -52 8 -52 7 -6 -10z" transform="translate(0.000000,46.000000) scale(0.100000,-0.100000)"/></clipPath><clipPath id="piece-mask-30-105" shape-rendering="crispEdges"><path d="M153 544 l-23 -5 0 -49 0 -49 -15 -15 -15 -15 0 -10 0 -10 -34 -7 -35 -6 -9 6 -10 6 -6 -16 -6 -16 0 -18 0 -18 16 -6 16 -6 54 0 54 0 6 -26 6 -25 -5 -37 -5 -37 -7 -32 -7 -33 66 0 67 0 19 -10 19 -10 -11 -25 -11 -24 14 -14 14 -14 23 -12 22 -11 27 6 28 7 7 11 8 11 0 22 0 23 23 4 22 5 38 6 39 6 24 11 24 11 0 37 0 37 -6 47 -7 46 -13 0 -14 0 0 10 0 11 -34 -6 -34 -7 -6 20 -6 19 6 18 7 17 43 -6 43 -5 16 15 15 15 0 76 0 75 -87 -7 -88 -7 -6 -4 -6 -4 4 -24 5 -25 -14 -14 -13 -14 -27 -6 -27 -7 -25 11 -26 12 2 39 1 38 -5 6 -6 5 -53 4 -54 3 -22 -4z" transform="translate(0.000000,55.000000) scale(0.100000,-0.100000)"/></clipPath><clipPath id="piece-mask-30-106" shape-rendering="crispEdges"><path d="M2 473 l3 -78 40 2 40 2 21 -4 22 -5 6 -16 6 -16 -6 -24 -6 -24 -14 0 -14 0 0 -10 0 -11 -34 6 -34 7 -11 -64 -11 -65 0 -26 0 -27 58 0 57 0 14 -9 13 -9 -6 -29 -7 -29 19 -22 19 -22 30 0 30 0 23 20 23 20 0 27 1 28 -5 15 -4 15 92 0 91 0 4 5 4 5 17 38 17 38 0 34 0 33 -6 16 -6 16 -68 -6 -67 -7 -22 22 -21 21 10 20 11 20 74 0 75 0 0 24 0 23 -6 62 -7 62 -86 -3 -86 -3 3 -31 3 -31 -16 -16 -16 -16 -34 -7 -34 -6 -17 16 -16 17 6 33 6 33 -31 7 -31 6 -60 0 -59 0 3 -77z" transform="translate(0.000000,55.000000) scale(0.100000,-0.100000)"/></clipPath><clipPath id="piece-mask-30-107" shape-rendering="crispEdges"><path d="M307 439 l5 -64 -18 -21 -19 -21 -23 -7 -22 -7 -15 14 -14 15 -6 25 -7 25 10 36 10 36 -84 0 -84 0 0 10 0 10 -7 0 -8 0 -2 -79 -2 -78 43 4 42 5 17 -17 17 -16 6 -25 6 -24 -12 -30 -12 -30 -14 0 -14 0 0 -11 0 -12 -50 6 -50 6 0 -34 0 -34 18 -38 17 -38 10 -7 10 -8 67 0 66 0 16 6 16 6 -6 34 -6 34 6 25 6 24 20 11 21 11 19 -6 20 -6 16 -31 16 -31 -5 -40 -5 -39 5 -14 5 -14 32 0 32 0 47 16 47 16 1 11 2 12 2 20 2 20 1 43 2 42 15 0 15 0 0 11 0 12 36 -6 37 -6 18 10 19 10 0 42 0 42 -10 15 -9 14 -34 -12 -35 -13 -25 12 -25 11 -11 25 -11 24 0 57 0 57 -27 1 -28 1 -61 8 -62 8 5 -64z" transform="translate(0.000000,50.000000) scale(0.100000,-0.100000)"/></clipPath><clipPath id="piece-mask-30-108" shape-rendering="crispEdges"><path d="M190 573 l-15 -6 -8 -11 -8 -11 6 -43 6 -42 -16 -16 -16 -16 -69 4 -70 4 0 -201 0 -200 9 -14 9 -14 62 2 63 2 21 11 21 11 13 14 14 14 -6 34 -7 35 40 0 40 0 10 -18 10 -18 -10 -15 -9 -14 0 -11 0 -12 28 -10 27 -10 56 -5 56 -5 13 8 13 8 -8 57 -7 58 -5 14 -5 13 -43 0 -43 0 -6 16 -6 16 0 36 0 37 9 14 9 14 33 -13 33 -14 4 12 4 12 13 0 13 0 6 16 6 16 0 43 0 43 -5 14 -5 13 -83 -3 -82 -4 -22 19 -22 19 6 43 6 43 -14 9 -14 9 -20 -1 -20 -1 -15 -5z" transform="translate(0.000000,58.000000) scale(0.100000,-0.100000)"/></clipPath><clipPath id="piece-mask-30-109" shape-rendering="crispEdges"><path d="M189 643 l-1 -8 2 -36 1 -37 -32 -11 -32 -11 -63 0 -64 0 0 -56 0 -55 11 -20 11 -21 49 7 50 7 19 -23 20 -22 0 -19 0 -19 -11 -22 -12 -22 -11 -7 -11 -8 -32 6 -32 6 -10 -39 -11 -38 0 -12 0 -12 -17 -16 -16 -17 14 -9 14 -9 77 0 77 0 -6 -50 -6 -50 17 0 16 0 0 -10 0 -10 25 0 24 0 26 26 27 27 -5 26 -4 26 -4 15 -4 15 70 -3 70 -2 13 9 14 8 -15 44 -15 44 -13 28 -12 27 -26 -2 -26 -3 -3 24 -4 23 7 25 6 26 52 -6 52 -5 13 14 12 13 0 24 0 24 -6 47 -7 48 -82 -7 -82 -7 -22 7 -21 6 2 52 3 52 -37 3 -38 3 -1 -8z" transform="translate(0.000000,65.000000) scale(0.100000,-0.100000)"/></clipPath><clipPath id="piece-mask-30-110" shape-rendering="crispEdges"><path d="M10 401 l0 -18 -6 -46 -7 -46 22 6 22 6 38 -18 39 -17 10 -23 11 -24 -6 -35 -5 -35 -30 -3 -30 -3 -20 -55 -20 -55 -5 -17 -5 -18 220 0 220 0 11 44 11 45 0 27 0 26 -30 -6 -31 -6 -38 16 -39 15 -12 30 -12 29 6 24 6 25 16 16 17 16 48 -6 49 -7 0 66 0 66 -75 0 -75 0 5 -37 6 -38 -10 -14 -9 -14 -55 -5 -54 -4 -26 26 -27 27 0 10 0 10 10 20 11 19 -76 0 -75 0 0 -19z" transform="translate(0.000000,42.000000) scale(0.100000,-0.100000)"/></clipPath><clipPath id="piece-mask-30-111" shape-rendering="crispEdges"><path d="M174 555 l7 -36 -6 -19 -6 -20 -14 0 -13 0 -4 -12 -4 -12 -67 -4 -67 -4 2 -212 3 -211 65 -3 64 -3 24 6 24 6 -6 25 -6 24 15 30 16 30 34 0 34 0 12 -21 11 -21 -6 -33 -7 -33 17 -17 17 -17 46 7 46 6 32 10 33 11 0 9 0 8 -19 43 -19 43 -12 32 -12 33 -29 0 -29 0 0 44 0 45 19 6 19 6 26 -12 26 -12 20 23 20 23 0 64 0 64 -14 14 -14 14 -5 -5 -5 -5 -61 12 -61 12 -20 17 -19 17 2 29 2 29 -59 3 -58 3 6 -36z" transform="translate(0.000000,59.000000) scale(0.100000,-0.100000)"/></clipPath></defs></svg>