<?xml version="1.0" standalone="no"?>
<!DOCTYPE svg PUBLIC "-//W3C//DTD SVG 20010904//EN"
 "http://www.w3.org/TR/2001/REC-SVG-20010904/DTD/svg10.dtd">
<svg version="1.0" xmlns="http://www.w3.org/2000/svg"
 width="47.000000pt" height="57.000000pt" viewBox="0 0 47.000000 57.000000"
 preserveAspectRatio="xMidYMid meet">
<metadata>
Created by potrace 1.16, written by Peter Selinger 2001-2019
</metadata>
<g transform="translate(0.000000,57.000000) scale(0.100000,-0.100000)"
fill="#000000" stroke="none">
<path d="M282 562 l-14 -9 7 -44 7 -44 -19 -21 -18 -20 -17 -7 -18 -6 -20 21
-20 22 4 15 5 16 6 27 7 27 -44 5 -43 5 -53 5 -52 5 0 -231 0 -231 75 7 75 7
0 -40 0 -40 16 -15 15 -16 49 0 49 0 9 32 8 32 40 8 39 8 36 10 36 10 11 25
12 26 0 54 0 53 -6 16 -6 16 -45 0 -44 0 -15 14 -14 15 0 18 0 19 59 -4 58 -4
7 37 7 37 -6 63 -7 63 -42 5 -41 6 -40 6 -40 6 -13 -9z"/>
</g>
</svg>
