<?xml version="1.0" standalone="no"?>
<!DOCTYPE svg PUBLIC "-//W3C//DTD SVG 20010904//EN"
 "http://www.w3.org/TR/2001/REC-SVG-20010904/DTD/svg10.dtd">
<svg version="1.0" xmlns="http://www.w3.org/2000/svg"
 width="45.000000pt" height="55.000000pt" viewBox="0 0 45.000000 55.000000"
 preserveAspectRatio="xMidYMid meet">
<metadata>
Created by potrace 1.16, written by Peter Selinger 2001-2019
</metadata>
<g transform="translate(0.000000,55.000000) scale(0.100000,-0.100000)"
fill="#000000" stroke="none">
<path d="M283 544 l-12 -5 6 -47 5 -47 -19 -22 -19 -22 -26 -6 -26 -7 -21 23
-21 23 0 10 0 11 9 32 9 32 -41 6 -42 7 -40 -4 -40 -3 -3 -213 -2 -213 78 6
78 7 -4 -39 -4 -40 17 -16 16 -17 39 0 39 0 9 32 8 32 40 8 39 8 36 10 36 10
11 25 12 26 0 44 0 43 -6 16 -6 16 -45 0 -44 0 -15 14 -14 15 0 30 0 31 58 -6
59 -7 7 34 6 34 -6 56 -6 57 -52 6 -51 7 -20 4 -20 4 -12 -5z"/>
</g>
</svg>
