<?xml version="1.0" standalone="no"?>
<!DOCTYPE svg PUBLIC "-//W3C//DTD SVG 20010904//EN"
 "http://www.w3.org/TR/2001/REC-SVG-20010904/DTD/svg10.dtd">
<svg version="1.0" xmlns="http://www.w3.org/2000/svg"
 width="44.000000pt" height="47.000000pt" viewBox="0 0 44.000000 47.000000"
 preserveAspectRatio="xMidYMid meet">
<metadata>
Created by potrace 1.16, written by Peter Selinger 2001-2019
</metadata>
<g transform="translate(0.000000,47.000000) scale(0.100000,-0.100000)"
fill="#000000" stroke="none">
<path d="M7 463 l-7 -6 0 -209 0 -208 60 0 59 0 26 12 25 11 0 14 0 13 11 0
11 0 -4 30 -5 30 28 0 28 0 12 -21 11 -21 -5 -27 -6 -26 -6 -16 -6 -16 28 -12
29 -12 66 21 66 20 6 23 6 22 0 68 0 67 -15 0 -15 0 0 10 0 10 -40 -6 -39 -6
-6 25 -7 26 7 21 7 22 45 -7 46 -7 8 14 9 13 0 64 0 63 -22 -5 -23 -6 -55 -13
-55 -14 -1 -29 -1 -30 -1 -12 -2 -11 -31 -11 -32 -11 -7 0 -7 0 -22 19 -21 18
2 49 3 48 -25 7 -25 7 -51 1 -51 1 -6 -7z"/>
</g>
</svg>
