<?xml version="1.0" standalone="no"?>
<!DOCTYPE svg PUBLIC "-//W3C//DTD SVG 20010904//EN"
 "http://www.w3.org/TR/2001/REC-SVG-20010904/DTD/svg10.dtd">
<svg version="1.0" xmlns="http://www.w3.org/2000/svg"
 width="46.000000pt" height="49.000000pt" viewBox="0 0 46.000000 49.000000"
 preserveAspectRatio="xMidYMid meet">
<metadata>
Created by potrace 1.16, written by Peter Selinger 2001-2019
</metadata>
<g transform="translate(0.000000,49.000000) scale(0.100000,-0.100000)"
fill="#000000" stroke="none">
<path d="M7 483 l-7 -6 0 -219 0 -218 70 0 69 0 26 12 25 11 0 14 0 13 10 0
10 0 0 30 0 30 15 0 14 0 11 -20 11 -20 -12 -41 -13 -41 15 -9 14 -9 22 -6 23
-6 69 21 69 21 6 22 6 23 0 78 0 77 -15 0 -15 0 0 11 0 12 -39 -7 -40 -6 -6
19 -5 18 6 16 6 16 45 -6 45 -6 9 14 9 14 0 74 0 73 -32 -5 -33 -5 -55 -14
-55 -14 -2 -29 -1 -30 -1 -12 -1 -11 -29 -10 -30 -10 -19 16 -19 17 1 49 1 50
-25 7 -25 7 -61 1 -61 1 -6 -7z"/>
</g>
</svg>
