<?xml version="1.0" standalone="no"?>
<!DOCTYPE svg PUBLIC "-//W3C//DTD SVG 20010904//EN"
 "http://www.w3.org/TR/2001/REC-SVG-20010904/DTD/svg10.dtd">
<svg version="1.0" xmlns="http://www.w3.org/2000/svg"
 width="43.000000pt" height="44.000000pt" viewBox="0 0 43.000000 44.000000"
 preserveAspectRatio="xMidYMid meet">
<metadata>
Created by potrace 1.16, written by Peter Selinger 2001-2019
</metadata>
<g transform="translate(0.000000,44.000000) scale(0.100000,-0.100000)"
fill="#000000" stroke="none">
<path d="M275 381 l7 -49 -27 -26 -26 -26 -24 0 -24 0 -16 16 -17 17 4 51 3
51 -77 3 -78 3 0 -211 0 -210 210 0 210 0 0 5 0 4 -15 33 -14 33 -11 42 -10
41 -30 7 -30 7 0 31 0 32 10 15 9 15 45 -2 44 -1 6 24 6 23 -6 55 -6 54 -37 6
-36 6 -38 0 -39 0 7 -49z"/>
</g>
</svg>
