<?xml version="1.0" standalone="no"?>
<!DOCTYPE svg PUBLIC "-//W3C//DTD SVG 20010904//EN"
 "http://www.w3.org/TR/2001/REC-SVG-20010904/DTD/svg10.dtd">
<svg version="1.0" xmlns="http://www.w3.org/2000/svg"
 width="45.000000pt" height="46.000000pt" viewBox="0 0 45.000000 46.000000"
 preserveAspectRatio="xMidYMid meet">
<metadata>
Created by potrace 1.16, written by Peter Selinger 2001-2019
</metadata>
<g transform="translate(0.000000,46.000000) scale(0.100000,-0.100000)"
fill="#000000" stroke="none">
<path d="M0 230 l0 -230 220 0 220 0 0 15 0 14 -15 33 -14 33 -11 42 -10 41
-30 7 -30 7 0 21 0 22 9 14 9 14 45 -1 45 -2 7 27 6 26 -6 63 -7 62 -37 6 -36
6 -49 0 -49 0 6 -50 6 -50 -25 -25 -25 -25 -12 0 -12 0 -15 10 -15 9 0 58 0
58 -72 3 -73 3 0 9 0 10 -15 0 -15 0 0 -230z"/>
</g>
</svg>
