<?xml version="1.0" standalone="no"?>
<!DOCTYPE svg PUBLIC "-//W3C//DTD SVG 20010904//EN"
 "http://www.w3.org/TR/2001/REC-SVG-20010904/DTD/svg10.dtd">
<svg version="1.0" xmlns="http://www.w3.org/2000/svg"
 width="58.000000pt" height="59.000000pt" viewBox="0 0 58.000000 59.000000"
 preserveAspectRatio="xMidYMid meet">
<metadata>
Created by potrace 1.16, written by Peter Selinger 2001-2019
</metadata>
<g transform="translate(0.000000,59.000000) scale(0.100000,-0.100000)"
fill="#000000" stroke="none">
<path d="M2 366 l3 -221 45 -3 45 -2 32 -5 33 -6 -6 -42 -6 -42 23 -24 22 -23
34 5 35 6 20 23 20 23 -4 47 -3 48 10 3 9 3 41 -7 40 -8 27 -1 27 0 6 58 6 57
10 25 10 25 38 -3 38 -4 13 31 12 31 -6 24 -6 25 -35 6 -35 5 -32 5 -33 5 3
76 4 77 -48 -7 -47 -6 -44 0 -45 0 2 -32 2 -33 -1 -11 -1 -11 -22 -9 -23 -10
-16 3 -17 4 -6 22 -6 22 0 22 0 22 -17 9 -18 9 -68 6 -67 5 2 -222z"/>
</g>
</svg>
