<?xml version="1.0" standalone="no"?>
<!DOCTYPE svg PUBLIC "-//W3C//DTD SVG 20010904//EN"
 "http://www.w3.org/TR/2001/REC-SVG-20010904/DTD/svg10.dtd">
<svg version="1.0" xmlns="http://www.w3.org/2000/svg"
 width="56.000000pt" height="57.000000pt" viewBox="0 0 56.000000 57.000000"
 preserveAspectRatio="xMidYMid meet">
<metadata>
Created by potrace 1.16, written by Peter Selinger 2001-2019
</metadata>
<g transform="translate(0.000000,57.000000) scale(0.100000,-0.100000)"
fill="#000000" stroke="none">
<path d="M4 547 l-4 -13 2 -194 3 -195 40 -3 40 -2 42 -5 41 -6 -9 -32 -9 -32
0 -11 0 -10 21 -23 21 -23 26 7 26 6 19 22 19 22 -5 47 -6 46 15 6 14 5 51 -9
52 -10 13 0 13 0 6 58 6 57 11 27 10 28 37 -6 37 -6 12 27 13 27 -6 19 -6 18
-35 6 -34 5 -33 5 -34 5 5 77 5 76 -33 -6 -32 -7 -50 0 -50 0 6 -32 6 -33 -8
-11 -7 -11 -22 -12 -23 -11 -24 6 -24 6 -6 21 -6 22 0 22 0 22 -19 11 -20 10
-51 0 -51 0 -5 -13z"/>
</g>
</svg>
