<?xml version="1.0" standalone="no"?>
<!DOCTYPE svg PUBLIC "-//W3C//DTD SVG 20010904//EN"
 "http://www.w3.org/TR/2001/REC-SVG-20010904/DTD/svg10.dtd">
<svg version="1.0" xmlns="http://www.w3.org/2000/svg"
 width="59.000000pt" height="56.000000pt" viewBox="0 0 59.000000 56.000000"
 preserveAspectRatio="xMidYMid meet">
<metadata>
Created by potrace 1.16, written by Peter Selinger 2001-2019
</metadata>
<g transform="translate(0.000000,56.000000) scale(0.100000,-0.100000)"
fill="#000000" stroke="none">
<path d="M175 549 l-7 -10 6 -34 7 -33 -17 -17 -17 -17 -73 4 -72 3 5 -35 6
-35 11 -35 11 -35 39 -6 38 -6 9 -14 9 -14 0 -16 0 -16 -11 -32 -11 -31 -24 0
-24 0 -6 -28 -6 -27 -15 -40 -15 -40 -5 -12 -5 -13 64 0 65 0 22 19 22 19 -3
39 -3 38 33 3 32 3 16 -16 16 -16 -6 -33 -7 -34 18 -17 17 -17 50 6 51 6 19 0
19 0 -6 43 -6 42 -7 38 -7 38 50 -7 50 -6 24 12 24 13 11 12 11 11 7 21 7 21
-13 27 -12 26 -47 -6 -47 -7 -12 22 -12 22 -1 54 -1 54 -2 0 -3 0 -70 -15 -70
-15 -16 6 -15 6 0 49 0 49 -20 20 -20 20 -24 0 -25 0 -6 -11z"/>
</g>
</svg>
