<?xml version="1.0" standalone="no"?>
<!DOCTYPE svg PUBLIC "-//W3C//DTD SVG 20010904//EN"
 "http://www.w3.org/TR/2001/REC-SVG-20010904/DTD/svg10.dtd">
<svg version="1.0" xmlns="http://www.w3.org/2000/svg"
 width="49.000000pt" height="56.000000pt" viewBox="0 0 49.000000 56.000000"
 preserveAspectRatio="xMidYMid meet">
<metadata>
Created by potrace 1.16, written by Peter Selinger 2001-2019
</metadata>
<g transform="translate(0.000000,56.000000) scale(0.100000,-0.100000)"
fill="#000000" stroke="none">
<path d="M223 523 l6 -38 -9 -15 -9 -15 -88 0 -88 0 -3 -54 -3 -54 12 -29 11
-28 20 0 19 0 20 11 20 10 19 -6 20 -6 0 -34 0 -34 -39 -11 -40 -10 -40 6 -40
6 -6 -25 -7 -26 16 -62 15 -62 6 -6 6 -6 72 -3 72 -3 15 10 15 10 0 48 0 48
27 3 27 3 20 -20 21 -21 0 -49 0 -49 16 -6 15 -6 47 10 47 10 24 6 24 5 -7 69
-6 68 -6 17 -7 17 -38 -6 -39 -6 0 46 0 46 35 -6 35 -7 0 11 0 10 14 0 14 0 6
31 6 31 0 53 0 53 -64 -5 -64 -6 -27 7 -27 7 5 34 6 35 -15 15 -15 15 -36 0
-36 0 6 -37z"/>
</g>
</svg>
