<?xml version="1.0" standalone="no"?>
<!DOCTYPE svg PUBLIC "-//W3C//DTD SVG 20010904//EN"
 "http://www.w3.org/TR/2001/REC-SVG-20010904/DTD/svg10.dtd">
<svg version="1.0" xmlns="http://www.w3.org/2000/svg"
 width="51.000000pt" height="58.000000pt" viewBox="0 0 51.000000 58.000000"
 preserveAspectRatio="xMidYMid meet">
<metadata>
Created by potrace 1.16, written by Peter Selinger 2001-2019
</metadata>
<g transform="translate(0.000000,58.000000) scale(0.100000,-0.100000)"
fill="#000000" stroke="none">
<path d="M221 535 l3 -45 -8 -7 -8 -8 -86 0 -87 0 -3 -64 -3 -64 12 -29 11
-28 32 0 31 0 14 9 14 9 14 -5 13 -5 0 -24 0 -23 -35 -10 -34 -9 -42 5 -41 6
-9 -14 -9 -14 0 -27 0 -27 15 -57 15 -57 6 -6 6 -6 82 -3 83 -4 17 17 17 17
-3 41 -3 41 17 4 17 3 20 -20 21 -21 0 -49 0 -50 20 -6 20 -6 58 11 57 11 19
6 19 5 -6 77 -6 77 -7 18 -7 18 -38 -4 -39 -4 0 33 0 32 35 -6 35 -6 0 12 0
11 14 0 14 0 6 31 6 32 0 64 0 64 -64 -7 -64 -7 -27 7 -26 7 6 33 7 33 -17 16
-16 17 -45 0 -45 0 2 -45z"/>
</g>
</svg>
