<?xml version="1.0" standalone="no"?>
<!DOCTYPE svg PUBLIC "-//W3C//DTD SVG 20010904//EN"
 "http://www.w3.org/TR/2001/REC-SVG-20010904/DTD/svg10.dtd">
<svg version="1.0" xmlns="http://www.w3.org/2000/svg"
 width="61.000000pt" height="58.000000pt" viewBox="0 0 61.000000 58.000000"
 preserveAspectRatio="xMidYMid meet">
<metadata>
Created by potrace 1.16, written by Peter Selinger 2001-2019
</metadata>
<g transform="translate(0.000000,58.000000) scale(0.100000,-0.100000)"
fill="#000000" stroke="none">
<path d="M175 570 l-6 -9 3 -41 2 -41 -15 -10 -14 -10 -73 5 -73 5 7 -47 7
-47 11 -35 11 -35 20 -3 20 -3 21 -4 22 -5 6 -16 7 -17 -12 -34 -11 -33 -24 0
-24 0 -6 -28 -6 -27 -19 -49 -19 -49 0 -13 0 -14 73 0 74 0 22 19 23 20 -4 38
-3 38 23 3 22 3 15 -14 14 -15 -5 -34 -6 -35 17 -16 16 -17 27 0 27 0 54 7 53
6 -5 56 -6 56 -6 22 -7 21 40 -5 41 -5 24 5 23 6 21 19 22 18 6 27 7 27 -13
31 -12 31 -49 -5 -48 -6 -11 20 -10 20 0 55 0 54 -17 0 -17 -1 -60 -13 -60
-13 -13 5 -12 4 0 49 0 49 -20 20 -20 20 -34 0 -35 0 -6 -10z"/>
</g>
</svg>
