<?xml version="1.0" standalone="no"?>
<!DOCTYPE svg PUBLIC "-//W3C//DTD SVG 20010904//EN"
 "http://www.w3.org/TR/2001/REC-SVG-20010904/DTD/svg10.dtd">
<svg version="1.0" xmlns="http://www.w3.org/2000/svg"
 width="61.000000pt" height="55.000000pt" viewBox="0 0 61.000000 55.000000"
 preserveAspectRatio="xMidYMid meet">
<metadata>
Created by potrace 1.16, written by Peter Selinger 2001-2019
</metadata>
<g transform="translate(0.000000,55.000000) scale(0.100000,-0.100000)"
fill="#000000" stroke="none">
<path d="M314 535 l-6 -15 6 -26 7 -26 -23 -20 -23 -20 -74 5 -73 6 5 -35 6
-34 -6 -36 -6 -36 -57 6 -58 7 -6 -16 -6 -17 0 -55 0 -54 15 -16 16 -15 29 5
29 6 22 -75 22 -74 236 2 236 3 0 81 -1 81 -17 18 -18 17 -26 -5 -27 -5 -14
14 -14 15 5 13 5 13 31 -5 31 -4 0 11 0 11 13 0 14 0 11 25 12 26 0 61 0 61
-78 -6 -77 -6 -15 9 -14 9 2 41 3 41 -15 14 -15 15 -41 0 -41 0 -5 -15z"/>
</g>
</svg>
