<?xml version="1.0" standalone="no"?>
<!DOCTYPE svg PUBLIC "-//W3C//DTD SVG 20010904//EN"
 "http://www.w3.org/TR/2001/REC-SVG-20010904/DTD/svg10.dtd">
<svg version="1.0" xmlns="http://www.w3.org/2000/svg"
 width="57.000000pt" height="71.000000pt" viewBox="0 0 57.000000 71.000000"
 preserveAspectRatio="xMidYMid meet">
<metadata>
Created by potrace 1.16, written by Peter Selinger 2001-2019
</metadata>
<g transform="translate(0.000000,71.000000) scale(0.100000,-0.100000)"
fill="#000000" stroke="none">
<path d="M297 703 l-17 -4 2 -60 3 -60 -15 -9 -15 -10 -67 0 -68 0 0 -51 0
-50 -11 -20 -10 -20 -10 7 -10 6 -35 -6 -34 -7 -6 -24 -6 -24 12 -36 12 -36
33 7 34 6 5 -23 5 -24 5 -54 5 -54 7 -6 6 -6 88 -3 89 -4 -6 -46 -5 -47 20
-22 19 -23 19 0 19 0 15 10 15 9 0 37 0 37 70 19 70 19 3 10 4 9 14 0 14 0 0
71 0 70 -15 15 -14 15 -25 -7 -25 -6 -21 7 -21 7 3 36 3 37 50 -1 50 -1 7 11
8 11 0 83 0 83 -10 -6 -11 -7 -72 12 -72 12 -7 12 -7 11 6 41 5 41 -23 6 -24
7 -20 -1 -20 -1 -18 -5z"/>
</g>
</svg>
