<?xml version="1.0" standalone="no"?>
<!DOCTYPE svg PUBLIC "-//W3C//DTD SVG 20010904//EN"
 "http://www.w3.org/TR/2001/REC-SVG-20010904/DTD/svg10.dtd">
<svg version="1.0" xmlns="http://www.w3.org/2000/svg"
 width="59.000000pt" height="53.000000pt" viewBox="0 0 59.000000 53.000000"
 preserveAspectRatio="xMidYMid meet">
<metadata>
Created by potrace 1.16, written by Peter Selinger 2001-2019
</metadata>
<g transform="translate(0.000000,53.000000) scale(0.100000,-0.100000)"
fill="#000000" stroke="none">
<path d="M317 523 l-7 -7 6 -33 6 -34 -23 -20 -24 -21 -73 4 -73 3 6 -23 6
-24 -7 -45 -7 -46 -58 6 -58 5 -5 -15 -6 -15 0 -45 0 -44 14 -15 14 -14 30 6
30 6 22 -76 23 -76 226 2 226 3 -1 71 0 72 -17 16 -16 17 -25 -7 -25 -6 -16
15 -15 16 0 14 0 15 6 16 6 15 26 -12 25 -12 5 13 4 12 12 0 13 0 11 25 12 26
0 51 0 51 -79 -7 -78 -7 -17 16 -17 17 7 34 6 33 -15 16 -16 15 -29 0 -29 0
-6 -7z"/>
</g>
</svg>
