<?xml version="1.0" standalone="no"?>
<!DOCTYPE svg PUBLIC "-//W3C//DTD SVG 20010904//EN"
 "http://www.w3.org/TR/2001/REC-SVG-20010904/DTD/svg10.dtd">
<svg version="1.0" xmlns="http://www.w3.org/2000/svg"
 width="59.000000pt" height="73.000000pt" viewBox="0 0 59.000000 73.000000"
 preserveAspectRatio="xMidYMid meet">
<metadata>
Created by potrace 1.16, written by Peter Selinger 2001-2019
</metadata>
<g transform="translate(0.000000,73.000000) scale(0.100000,-0.100000)"
fill="#000000" stroke="none">
<path d="M297 723 l-18 -5 2 -60 2 -60 -14 -9 -14 -9 -67 0 -68 0 0 -52 0 -53
-8 -11 -7 -11 -44 -6 -44 -5 -8 -14 -9 -13 0 -26 0 -26 11 -33 12 -32 33 5 34
6 4 -22 5 -22 5 -54 5 -54 7 -6 6 -6 86 -3 87 -4 -3 -46 -4 -47 20 -23 19 -22
31 0 31 0 16 16 16 17 -3 30 -3 30 70 19 70 19 3 10 4 9 14 0 14 0 0 81 0 80
-15 16 -16 15 -32 -6 -32 -6 -13 9 -14 8 4 24 3 24 49 -3 50 -2 8 12 8 13 0
94 0 93 -21 -5 -20 -5 -65 10 -64 11 -1 11 -1 11 2 41 1 41 -23 7 -23 6 -30
-1 -30 -1 -18 -5z"/>
</g>
</svg>
