<?xml version="1.0" standalone="no"?>
<!DOCTYPE svg PUBLIC "-//W3C//DTD SVG 20010904//EN"
 "http://www.w3.org/TR/2001/REC-SVG-20010904/DTD/svg10.dtd">
<svg version="1.0" xmlns="http://www.w3.org/2000/svg"
 width="58.000000pt" height="46.000000pt" viewBox="0 0 58.000000 46.000000"
 preserveAspectRatio="xMidYMid meet">
<metadata>
Created by potrace 1.16, written by Peter Selinger 2001-2019
</metadata>
<g transform="translate(0.000000,46.000000) scale(0.100000,-0.100000)"
fill="#000000" stroke="none">
<path d="M287 412 l5 -48 -16 -16 -16 -17 0 -10 0 -11 -26 0 -25 0 -13 13 -13
12 -12 24 -13 23 6 31 6 30 -46 -7 -47 -6 -40 0 -39 0 4 -68 3 -69 18 -18 18
-17 34 6 34 7 11 -21 11 -21 -3 -22 -3 -22 -18 3 -17 3 -16 -16 -16 -16 -15
-52 -15 -52 -5 -28 -5 -27 63 0 64 0 15 10 15 9 -3 60 -2 59 30 7 30 7 31 -7
31 -7 -5 -42 -6 -41 7 -11 7 -11 66 -12 66 -11 9 0 9 0 -4 85 -3 85 16 0 16 0
0 9 0 9 53 -2 52 -1 3 49 3 49 -41 -7 -40 -6 -25 6 -24 6 -11 34 -12 34 7 38
6 38 -51 12 -52 12 -28 0 -29 0 6 -48z"/>
</g>
</svg>
