<?xml version="1.0" standalone="no"?>
<!DOCTYPE svg PUBLIC "-//W3C//DTD SVG 20010904//EN"
 "http://www.w3.org/TR/2001/REC-SVG-20010904/DTD/svg10.dtd">
<svg version="1.0" xmlns="http://www.w3.org/2000/svg"
 width="60.000000pt" height="48.000000pt" viewBox="0 0 60.000000 48.000000"
 preserveAspectRatio="xMidYMid meet">
<metadata>
Created by potrace 1.16, written by Peter Selinger 2001-2019
</metadata>
<g transform="translate(0.000000,48.000000) scale(0.100000,-0.100000)"
fill="#000000" stroke="none">
<path d="M285 431 l6 -48 -15 -16 -16 -16 0 -10 0 -11 -16 0 -15 0 -13 13 -13
12 -11 22 -12 21 7 33 6 32 -63 -6 -63 -7 -35 0 -34 0 3 -78 4 -78 18 -18 17
-18 36 4 35 3 9 -15 10 -15 0 -12 0 -13 -21 0 -20 0 -16 -15 -15 -16 -15 -52
-15 -52 -5 -37 -5 -38 73 0 74 0 15 10 15 9 -2 60 -1 59 24 6 24 6 25 -6 26
-6 -6 -42 -6 -41 8 -11 8 -11 66 -12 66 -11 20 0 21 0 -6 85 -5 85 17 0 16 0
0 8 0 7 52 0 53 0 3 59 3 59 -46 -5 -47 -6 -18 5 -19 5 -10 30 -10 29 5 43 6
42 -52 12 -52 12 -40 0 -40 0 7 -49z"/>
</g>
</svg>
