<?xml version="1.0" standalone="no"?>
<!DOCTYPE svg PUBLIC "-//W3C//DTD SVG 20010904//EN"
 "http://www.w3.org/TR/2001/REC-SVG-20010904/DTD/svg10.dtd">
<svg version="1.0" xmlns="http://www.w3.org/2000/svg"
 width="46.000000pt" height="57.000000pt" viewBox="0 0 46.000000 57.000000"
 preserveAspectRatio="xMidYMid meet">
<metadata>
Created by potrace 1.16, written by Peter Selinger 2001-2019
</metadata>
<g transform="translate(0.000000,57.000000) scale(0.100000,-0.100000)"
fill="#000000" stroke="none">
<path d="M0 551 l0 -21 10 0 10 0 0 -70 0 -71 50 7 50 7 20 -23 20 -23 0 -9 0
-9 -16 -17 -16 -16 -38 2 -38 3 -6 -38 -5 -38 -7 -57 -6 -58 70 0 70 0 -5 -40
-6 -40 23 -20 23 -20 27 0 27 0 32 11 33 12 -4 27 -4 28 55 12 56 11 17 5 18
5 0 92 0 92 -8 11 -7 12 -43 -2 -43 -1 -9 15 -10 15 0 11 0 11 19 22 19 22 39
-3 38 -3 3 79 3 79 -32 -7 -31 -6 -42 0 -41 0 -14 -9 -15 -10 12 -25 12 -26
-15 0 -15 0 0 -10 0 -10 -32 0 -33 0 -20 6 -20 5 3 45 4 44 -60 0 -59 0 -32 6
-31 7 0 -22z"/>
</g>
</svg>
