<?xml version="1.0" standalone="no"?>
<!DOCTYPE svg PUBLIC "-//W3C//DTD SVG 20010904//EN"
 "http://www.w3.org/TR/2001/REC-SVG-20010904/DTD/svg10.dtd">
<svg version="1.0" xmlns="http://www.w3.org/2000/svg"
 width="44.000000pt" height="55.000000pt" viewBox="0 0 44.000000 55.000000"
 preserveAspectRatio="xMidYMid meet">
<metadata>
Created by potrace 1.16, written by Peter Selinger 2001-2019
</metadata>
<g transform="translate(0.000000,55.000000) scale(0.100000,-0.100000)"
fill="#000000" stroke="none">
<path d="M0 540 l0 -10 10 0 10 0 0 -69 0 -68 50 5 50 5 20 -23 20 -23 0 -20
0 -20 -22 -18 -21 -19 -33 6 -32 6 -7 -49 -6 -48 -5 -37 -6 -38 72 0 72 0 -7
-40 -7 -41 23 -19 22 -20 17 0 17 0 32 11 32 11 -6 27 -6 28 58 12 58 12 18 5
17 5 0 82 0 82 -8 10 -7 10 -43 1 -43 0 -10 15 -9 14 0 22 0 22 26 26 26 26
21 -7 22 -6 10 -2 10 -1 3 66 3 66 -53 -4 -53 -4 -23 -5 -22 -4 10 -20 10 -19
0 -10 0 -11 -14 0 -14 0 -4 -11 -3 -10 -30 -1 -30 -1 -32 7 -32 7 6 46 6 45
-72 -4 -71 -3 0 8 0 7 -10 0 -10 0 0 -10z"/>
</g>
</svg>
