<?xml version="1.0" standalone="no"?>
<!DOCTYPE svg PUBLIC "-//W3C//DTD SVG 20010904//EN"
 "http://www.w3.org/TR/2001/REC-SVG-20010904/DTD/svg10.dtd">
<svg version="1.0" xmlns="http://www.w3.org/2000/svg"
 width="56.000000pt" height="56.000000pt" viewBox="0 0 56.000000 56.000000"
 preserveAspectRatio="xMidYMid meet">
<metadata>
Created by potrace 1.16, written by Peter Selinger 2001-2019
</metadata>
<g transform="translate(0.000000,56.000000) scale(0.100000,-0.100000)"
fill="#000000" stroke="none">
<path d="M137 553 l-7 -6 0 -67 0 -66 -12 -12 -12 -12 -34 0 -33 0 -20 -10
-19 -11 0 -36 0 -36 37 6 36 6 19 -21 18 -21 2 -41 2 -41 -1 -22 -2 -22 17 -5
17 -5 53 -6 52 -7 6 -23 6 -24 -7 -20 -6 -21 16 -16 16 -16 40 5 40 5 21 24
20 23 -6 53 -6 52 30 0 29 0 47 -16 47 -16 8 14 9 13 0 35 0 35 -11 38 -10 38
-34 -7 -34 -6 -16 15 -15 16 0 35 0 36 24 -6 23 -5 16 15 16 16 9 0 9 0 11 25
12 26 0 49 0 50 -208 0 -209 0 -6 -7z"/>
</g>
</svg>
