<?xml version="1.0" standalone="no"?>
<!DOCTYPE svg PUBLIC "-//W3C//DTD SVG 20010904//EN"
 "http://www.w3.org/TR/2001/REC-SVG-20010904/DTD/svg10.dtd">
<svg version="1.0" xmlns="http://www.w3.org/2000/svg"
 width="58.000000pt" height="58.000000pt" viewBox="0 0 58.000000 58.000000"
 preserveAspectRatio="xMidYMid meet">
<metadata>
Created by potrace 1.16, written by Peter Selinger 2001-2019
</metadata>
<g transform="translate(0.000000,58.000000) scale(0.100000,-0.100000)"
fill="#000000" stroke="none">
<path d="M137 573 l-7 -6 0 -67 0 -66 -12 -12 -12 -12 -34 0 -33 0 -20 -10
-19 -11 0 -45 0 -45 37 3 38 3 18 -19 17 -19 1 -41 1 -41 -1 -22 -2 -21 18 -5
18 -6 52 -6 52 -7 5 -14 5 -14 -5 -30 -6 -29 16 -17 17 -16 50 4 49 5 21 24
21 24 -4 53 -5 52 21 0 21 -1 40 -14 40 -15 16 0 17 0 6 16 6 16 0 41 0 42
-11 39 -11 38 -35 -5 -35 -6 -14 14 -14 14 0 20 0 21 24 0 25 0 15 15 15 15 9
0 9 0 11 25 12 26 0 59 0 60 -218 0 -219 0 -6 -7z"/>
</g>
</svg>
