<?xml version="1.0" standalone="no"?>
<!DOCTYPE svg PUBLIC "-//W3C//DTD SVG 20010904//EN"
 "http://www.w3.org/TR/2001/REC-SVG-20010904/DTD/svg10.dtd">
<svg version="1.0" xmlns="http://www.w3.org/2000/svg"
 width="69.000000pt" height="52.000000pt" viewBox="0 0 69.000000 52.000000"
 preserveAspectRatio="xMidYMid meet">
<metadata>
Created by potrace 1.16, written by Peter Selinger 2001-2019
</metadata>
<g transform="translate(0.000000,52.000000) scale(0.100000,-0.100000)"
fill="#000000" stroke="none">
<path d="M280 500 l10 -20 -6 -24 -6 -23 -24 -12 -25 -11 -54 0 -55 0 0 -50 0
-49 -12 -26 -11 -25 -13 0 -12 0 -4 -12 -5 -13 -25 12 -26 12 -6 -15 -6 -16 0
-15 0 -14 15 -16 16 -15 25 6 25 7 16 -17 16 -16 5 -74 5 -74 206 2 206 3 -3
70 -4 70 58 0 57 0 5 13 4 12 13 0 13 0 6 16 6 16 0 15 0 14 -17 17 -17 17
-53 -1 -53 -2 0 79 0 78 -83 -2 -84 -2 -18 18 -18 18 10 22 10 22 -4 13 -5 12
-44 0 -45 0 11 -20z"/>
</g>
</svg>
