<?xml version="1.0" standalone="no"?>
<!DOCTYPE svg PUBLIC "-//W3C//DTD SVG 20010904//EN"
 "http://www.w3.org/TR/2001/REC-SVG-20010904/DTD/svg10.dtd">
<svg version="1.0" xmlns="http://www.w3.org/2000/svg"
 width="44.000000pt" height="67.000000pt" viewBox="0 0 44.000000 67.000000"
 preserveAspectRatio="xMidYMid meet">
<metadata>
Created by potrace 1.16, written by Peter Selinger 2001-2019
</metadata>
<g transform="translate(0.000000,67.000000) scale(0.100000,-0.100000)"
fill="#000000" stroke="none">
<path d="M185 622 l6 -49 -31 -13 -31 -13 -59 6 -59 5 -6 -39 -7 -39 12 -34
11 -34 24 -6 25 -6 40 6 41 7 -3 -49 -3 -49 -52 1 -53 2 0 -9 0 -9 -15 0 -15
0 0 -71 0 -70 14 -15 15 -14 69 0 69 0 -5 -30 -4 -30 12 -29 12 -30 15 -5 15
-6 24 6 23 6 7 33 6 33 -7 32 -7 33 86 -8 86 -7 0 45 0 44 -6 45 -6 45 -42 -4
-42 -5 -17 17 -17 16 0 24 0 24 17 16 17 17 48 -5 48 -6 0 74 0 75 -5 0 -6 0
-36 -15 -35 -15 -27 0 -26 0 -14 9 -14 9 6 42 5 42 -10 24 -11 24 -45 0 -44 0
7 -48z"/>
</g>
</svg>
