<?xml version="1.0" standalone="no"?>
<!DOCTYPE svg PUBLIC "-//W3C//DTD SVG 20010904//EN"
 "http://www.w3.org/TR/2001/REC-SVG-20010904/DTD/svg10.dtd">
<svg version="1.0" xmlns="http://www.w3.org/2000/svg"
 width="46.000000pt" height="69.000000pt" viewBox="0 0 46.000000 69.000000"
 preserveAspectRatio="xMidYMid meet">
<metadata>
Created by potrace 1.16, written by Peter Selinger 2001-2019
</metadata>
<g transform="translate(0.000000,69.000000) scale(0.100000,-0.100000)"
fill="#000000" stroke="none">
<path d="M183 641 l6 -49 -30 -12 -29 -13 -59 7 -60 7 -7 -47 -7 -46 12 -38
11 -38 31 -7 31 -7 34 7 35 6 -3 -38 -3 -38 -52 3 -53 3 0 -11 0 -10 -15 0
-15 0 0 -81 0 -80 14 -15 15 -14 65 0 66 0 0 -35 0 -34 12 -25 11 -26 19 -6
18 -5 30 6 29 6 7 35 6 34 -4 30 -5 31 84 -7 83 -7 0 55 0 55 -6 47 -7 47 -42
-6 -42 -7 -16 17 -17 16 0 14 0 14 16 16 17 16 48 -6 49 -7 0 86 0 86 -15 0
-15 0 -40 -16 -40 -16 -26 6 -26 7 6 43 7 43 -12 27 -12 26 -55 0 -55 0 6 -49z"/>
</g>
</svg>
