<?xml version="1.0" standalone="no"?>
<!DOCTYPE svg PUBLIC "-//W3C//DTD SVG 20010904//EN"
 "http://www.w3.org/TR/2001/REC-SVG-20010904/DTD/svg10.dtd">
<svg version="1.0" xmlns="http://www.w3.org/2000/svg"
 width="71.000000pt" height="54.000000pt" viewBox="0 0 71.000000 54.000000"
 preserveAspectRatio="xMidYMid meet">
<metadata>
Created by potrace 1.16, written by Peter Selinger 2001-2019
</metadata>
<g transform="translate(0.000000,54.000000) scale(0.100000,-0.100000)"
fill="#000000" stroke="none">
<path d="M273 523 l5 -18 2 -10 2 -10 -1 -16 -1 -16 -25 -11 -26 -12 -54 0
-55 0 0 -50 0 -49 -12 -26 -11 -25 -14 0 -13 0 0 -10 0 -10 -26 12 -25 12 -10
-15 -9 -14 0 -28 0 -28 15 -16 16 -15 28 4 27 4 14 -14 13 -15 5 -73 5 -74
216 2 216 3 -3 66 -4 66 58 5 58 5 4 11 4 12 13 0 13 0 6 16 6 16 0 25 0 24
-17 17 -17 17 -53 0 -53 0 0 77 0 78 -84 -2 -84 -2 -15 15 -15 15 10 17 9 17
-6 20 -6 20 -56 0 -55 0 5 -17z"/>
</g>
</svg>
