<?xml version="1.0" standalone="no"?>
<!DOCTYPE svg PUBLIC "-//W3C//DTD SVG 20010904//EN"
 "http://www.w3.org/TR/2001/REC-SVG-20010904/DTD/svg10.dtd">
<svg version="1.0" xmlns="http://www.w3.org/2000/svg"
 width="66.000000pt" height="57.000000pt" viewBox="0 0 66.000000 57.000000"
 preserveAspectRatio="xMidYMid meet">
<metadata>
Created by potrace 1.16, written by Peter Selinger 2001-2019
</metadata>
<g transform="translate(0.000000,57.000000) scale(0.100000,-0.100000)"
fill="#000000" stroke="none">
<path d="M365 559 l-7 -10 7 -26 6 -26 -6 -27 -6 -28 -18 -5 -19 -5 -9 7 -10
6 -12 24 -13 23 7 34 6 34 -86 0 -85 0 0 -77 0 -78 -8 -10 -7 -10 -50 0 -50 0
-3 -47 -3 -47 26 -7 25 -6 23 4 23 4 13 -14 14 -14 -5 -74 -5 -74 69 0 69 0
-6 -44 -7 -44 49 -10 48 -10 28 5 27 5 0 9 0 9 16 0 16 0 -4 32 -3 33 45 3 45
2 23 6 24 5 -7 52 -6 52 -5 26 -5 27 16 16 16 16 34 0 33 0 16 6 16 6 0 30 0
29 -11 20 -10 20 -28 -6 -29 -6 -16 16 -16 16 0 63 0 63 -61 7 -62 6 -28 0
-28 0 -6 -11z"/>
</g>
</svg>
