<?xml version="1.0" standalone="no"?>
<!DOCTYPE svg PUBLIC "-//W3C//DTD SVG 20010904//EN"
 "http://www.w3.org/TR/2001/REC-SVG-20010904/DTD/svg10.dtd">
<svg version="1.0" xmlns="http://www.w3.org/2000/svg"
 width="64.000000pt" height="55.000000pt" viewBox="0 0 64.000000 55.000000"
 preserveAspectRatio="xMidYMid meet">
<metadata>
Created by potrace 1.16, written by Peter Selinger 2001-2019
</metadata>
<g transform="translate(0.000000,55.000000) scale(0.100000,-0.100000)"
fill="#000000" stroke="none">
<path d="M367 544 l-7 -7 6 -24 6 -23 -6 -34 -7 -34 -23 -6 -24 -6 -15 6 -15
5 -12 30 -12 29 4 30 5 30 -74 0 -73 0 0 -77 0 -78 -8 -11 -7 -11 -50 1 -50 1
-3 -37 -3 -37 25 -7 25 -6 20 7 21 6 16 -15 16 -16 -4 -75 -3 -75 69 0 69 0
-6 -44 -6 -45 32 -7 32 -7 30 1 30 1 3 10 4 11 14 0 14 0 0 13 0 12 -10 15 -9
14 12 8 12 8 50 0 50 0 12 8 12 8 -9 64 -10 65 0 12 0 12 16 15 15 16 34 0 33
0 16 6 16 6 0 22 0 21 -10 15 -9 15 -29 -3 -29 -3 -17 16 -16 16 0 63 0 63
-61 7 -62 6 -17 0 -17 0 -6 -6z"/>
</g>
</svg>
