<?xml version="1.0" standalone="no"?>
<!DOCTYPE svg PUBLIC "-//W3C//DTD SVG 20010904//EN"
 "http://www.w3.org/TR/2001/REC-SVG-20010904/DTD/svg10.dtd">
<svg version="1.0" xmlns="http://www.w3.org/2000/svg"
 width="58.000000pt" height="51.000000pt" viewBox="0 0 58.000000 51.000000"
 preserveAspectRatio="xMidYMid meet">
<metadata>
Created by potrace 1.16, written by Peter Selinger 2001-2019
</metadata>
<g transform="translate(0.000000,51.000000) scale(0.100000,-0.100000)"
fill="#000000" stroke="none">
<path d="M274 459 l7 -55 -19 -22 -19 -22 -31 -6 -30 -6 -14 12 -13 13 3 36 3
36 -9 13 -8 12 -66 7 -65 6 -6 -33 -7 -33 0 -57 0 -57 49 -5 49 -5 16 -16 16
-16 0 -10 0 -11 -10 0 -10 0 0 -15 0 -15 -15 0 -15 0 0 -8 0 -9 -31 5 -31 5
-9 -14 -9 -14 1 -65 2 -65 11 -7 11 -8 57 0 57 0 27 12 26 12 -5 48 -6 48 34
0 34 0 7 -22 7 -23 -2 -44 -3 -44 14 -8 13 -9 34 0 33 0 50 18 49 17 -7 30 -7
30 -6 45 -7 45 10 22 9 22 43 -6 43 -6 25 7 26 6 0 46 0 45 -16 6 -17 6 -35
-13 -36 -13 -4 12 -4 11 -14 0 -14 0 0 73 0 74 -27 12 -28 13 -59 6 -59 5 7
-54z"/>
</g>
</svg>
