<?xml version="1.0" standalone="no"?>
<!DOCTYPE svg PUBLIC "-//W3C//DTD SVG 20010904//EN"
 "http://www.w3.org/TR/2001/REC-SVG-20010904/DTD/svg10.dtd">
<svg version="1.0" xmlns="http://www.w3.org/2000/svg"
 width="56.000000pt" height="49.000000pt" viewBox="0 0 56.000000 49.000000"
 preserveAspectRatio="xMidYMid meet">
<metadata>
Created by potrace 1.16, written by Peter Selinger 2001-2019
</metadata>
<g transform="translate(0.000000,49.000000) scale(0.100000,-0.100000)"
fill="#000000" stroke="none">
<path d="M276 439 l6 -54 -20 -23 -21 -24 -40 -5 -40 -5 -15 15 -15 15 5 33 5
34 -9 12 -8 12 -55 7 -56 6 -7 -32 -6 -33 0 -47 0 -47 49 -5 49 -5 16 -16 16
-16 0 -20 0 -21 -10 0 -10 0 0 -15 0 -15 -15 0 -15 0 0 -10 0 -11 -35 7 -34 6
-6 -23 -5 -24 2 -45 3 -45 10 -7 10 -8 47 0 47 0 26 12 26 12 -6 48 -7 48 44
0 45 0 11 -24 10 -24 -5 -42 -6 -42 14 -9 14 -9 24 0 23 0 49 17 49 18 -6 15
-6 15 -8 58 -9 59 12 25 11 24 47 -6 48 -7 21 7 21 7 -3 36 -3 37 -20 -2 -20
-2 -32 -7 -33 -6 0 11 0 11 -15 0 -15 0 0 73 0 74 -27 12 -27 12 -48 6 -49 6
7 -54z"/>
</g>
</svg>
