<?xml version="1.0" standalone="no"?>
<!DOCTYPE svg PUBLIC "-//W3C//DTD SVG 20010904//EN"
 "http://www.w3.org/TR/2001/REC-SVG-20010904/DTD/svg10.dtd">
<svg version="1.0" xmlns="http://www.w3.org/2000/svg"
 width="55.000000pt" height="53.000000pt" viewBox="0 0 55.000000 53.000000"
 preserveAspectRatio="xMidYMid meet">
<metadata>
Created by potrace 1.16, written by Peter Selinger 2001-2019
</metadata>
<g transform="translate(0.000000,53.000000) scale(0.100000,-0.100000)"
fill="#000000" stroke="none">
<path d="M110 476 l0 -53 -6 -32 -6 -31 -14 0 -14 0 0 -10 0 -11 -35 7 -35 6
0 -46 0 -46 39 6 38 6 7 -17 6 -17 7 -70 6 -70 61 4 61 5 10 -4 11 -3 -4 -39
-4 -39 37 -12 36 -12 23 6 23 6 11 27 11 28 -2 25 -2 25 76 -3 75 -3 12 64 12
64 0 18 0 18 -30 -7 -30 -6 -26 10 -26 10 -15 15 -15 16 12 30 13 30 34 -3 34
-3 9 15 10 15 0 63 0 63 -17 -5 -18 -5 -58 -12 -58 -12 6 -28 6 -27 -32 -11
-32 -11 -17 0 -17 0 -22 20 -23 19 7 41 7 40 -71 0 -71 0 0 -54z"/>
</g>
</svg>
