<?xml version="1.0" standalone="no"?>
<!DOCTYPE svg PUBLIC "-//W3C//DTD SVG 20010904//EN"
 "http://www.w3.org/TR/2001/REC-SVG-20010904/DTD/svg10.dtd">
<svg version="1.0" xmlns="http://www.w3.org/2000/svg"
 width="57.000000pt" height="55.000000pt" viewBox="0 0 57.000000 55.000000"
 preserveAspectRatio="xMidYMid meet">
<metadata>
Created by potrace 1.16, written by Peter Selinger 2001-2019
</metadata>
<g transform="translate(0.000000,55.000000) scale(0.100000,-0.100000)"
fill="#000000" stroke="none">
<path d="M110 496 l0 -53 -6 -32 -6 -31 -14 0 -14 0 0 -8 0 -8 -35 4 -35 4 0
-57 0 -58 39 7 39 6 6 -16 6 -16 7 -69 6 -70 66 2 66 3 3 -41 3 -41 31 -11 31
-11 26 0 26 0 11 8 11 7 12 23 12 23 -3 27 -3 27 76 -3 75 -4 12 65 12 64 0
27 0 28 -32 -2 -33 -2 -15 1 -16 1 -21 17 -21 17 11 24 11 23 32 -6 33 -6 10
20 11 20 0 70 0 71 -10 0 -9 0 -77 -17 -76 -16 4 -28 4 -28 -29 -11 -30 -10
-7 0 -7 0 -21 18 -21 18 6 42 6 42 -82 0 -81 0 0 -54z"/>
</g>
</svg>
