<?xml version="1.0" standalone="no"?>
<!DOCTYPE svg PUBLIC "-//W3C//DTD SVG 20010904//EN"
 "http://www.w3.org/TR/2001/REC-SVG-20010904/DTD/svg10.dtd">
<svg version="1.0" xmlns="http://www.w3.org/2000/svg"
 width="62.000000pt" height="47.000000pt" viewBox="0 0 62.000000 47.000000"
 preserveAspectRatio="xMidYMid meet">
<metadata>
Created by potrace 1.16, written by Peter Selinger 2001-2019
</metadata>
<g transform="translate(0.000000,47.000000) scale(0.100000,-0.100000)"
fill="#000000" stroke="none">
<path d="M306 461 l-7 -11 2 -23 3 -22 -8 -22 -7 -21 -16 -6 -16 -7 -35 12
-34 11 6 38 6 38 -15 6 -15 5 -64 -6 -65 -6 -5 -23 -6 -24 6 -42 7 -43 9 -19
10 -19 49 6 48 6 7 -22 8 -22 -3 -14 -3 -14 -11 -12 -12 -12 -23 -12 -22 -12
-50 7 -50 7 0 -29 0 -29 9 -35 9 -35 6 -28 6 -27 70 0 69 0 25 12 26 11 6 33
6 33 -7 10 -6 11 31 0 31 0 -7 -35 -6 -34 18 -18 18 -18 88 1 89 2 6 6 6 6 11
67 11 68 35 3 34 4 18 20 18 21 0 33 0 33 -15 15 -16 15 -33 7 -34 6 -22 -7
-21 -7 7 75 7 74 -9 6 -9 5 -81 7 -81 7 -7 -11z"/>
</g>
</svg>
