<?xml version="1.0" standalone="no"?>
<!DOCTYPE svg PUBLIC "-//W3C//DTD SVG 20010904//EN"
 "http://www.w3.org/TR/2001/REC-SVG-20010904/DTD/svg10.dtd">
<svg version="1.0" xmlns="http://www.w3.org/2000/svg"
 width="60.000000pt" height="45.000000pt" viewBox="0 0 60.000000 45.000000"
 preserveAspectRatio="xMidYMid meet">
<metadata>
Created by potrace 1.16, written by Peter Selinger 2001-2019
</metadata>
<g transform="translate(0.000000,45.000000) scale(0.100000,-0.100000)"
fill="#000000" stroke="none">
<path d="M306 441 l-7 -11 6 -19 6 -19 -12 -26 -12 -26 -23 -6 -23 -6 -36 12
-37 12 4 39 3 39 -10 3 -10 4 -57 -5 -56 -4 -6 -22 -5 -21 8 -41 8 -41 7 -12
8 -13 47 7 47 6 12 -26 13 -27 -7 -21 -7 -21 -11 -11 -11 -12 -24 -13 -24 -12
-48 6 -49 7 0 -18 0 -18 9 -35 9 -35 6 -27 6 -28 60 0 59 0 25 11 24 12 6 23
6 24 -10 20 -11 20 45 0 44 0 5 -12 4 -13 -10 -22 -10 -22 18 -18 18 -18 80 2
80 1 7 13 8 12 7 55 7 55 5 13 5 13 29 -6 29 -6 20 23 20 23 0 23 0 23 -15 14
-15 15 -28 7 -29 6 -27 -11 -28 -10 4 82 3 83 -20 1 -20 2 -56 7 -56 7 -7 -11z"/>
</g>
</svg>
