<?xml version="1.0" standalone="no"?>
<!DOCTYPE svg PUBLIC "-//W3C//DTD SVG 20010904//EN"
 "http://www.w3.org/TR/2001/REC-SVG-20010904/DTD/svg10.dtd">
<svg version="1.0" xmlns="http://www.w3.org/2000/svg"
 width="44.000000pt" height="46.000000pt" viewBox="0 0 44.000000 46.000000"
 preserveAspectRatio="xMidYMid meet">
<metadata>
Created by potrace 1.16, written by Peter Selinger 2001-2019
</metadata>
<g transform="translate(0.000000,46.000000) scale(0.100000,-0.100000)"
fill="#000000" stroke="none">
<path d="M416 451 l-6 -8 -70 -7 -70 -7 0 -13 0 -12 13 -13 12 -14 -12 -4 -13
-5 0 -10 0 -9 -16 -17 -17 -16 -33 0 -33 0 -21 24 -22 25 7 42 6 43 -64 0 -64
0 -7 -52 -6 -53 0 -27 0 -28 27 11 26 10 29 -6 28 -7 15 -15 15 -14 0 -23 0
-23 -20 -23 -20 -23 -29 6 -30 6 -5 -17 -4 -17 -6 -40 -7 -40 -5 -27 -6 -28
86 0 86 0 2 13 1 12 1 40 1 39 15 3 15 3 13 -8 13 -9 6 -51 6 -52 18 -5 18 -6
62 11 62 11 12 12 12 12 -7 61 -7 60 -7 21 -7 22 -37 3 -37 3 -3 38 -3 38 25
-7 25 -6 19 6 19 6 11 26 12 25 0 59 0 60 -9 0 -10 0 -5 -9z"/>
</g>
</svg>
