<?xml version="1.0" standalone="no"?>
<!DOCTYPE svg PUBLIC "-//W3C//DTD SVG 20010904//EN"
 "http://www.w3.org/TR/2001/REC-SVG-20010904/DTD/svg10.dtd">
<svg version="1.0" xmlns="http://www.w3.org/2000/svg"
 width="59.000000pt" height="46.000000pt" viewBox="0 0 59.000000 46.000000"
 preserveAspectRatio="xMidYMid meet">
<metadata>
Created by potrace 1.16, written by Peter Selinger 2001-2019
</metadata>
<g transform="translate(0.000000,46.000000) scale(0.100000,-0.100000)"
fill="#000000" stroke="none">
<path d="M127 453 l-7 -6 0 -43 0 -43 -12 -26 -11 -25 -13 0 -12 0 -4 -12 -5
-13 -31 3 -32 2 0 -46 0 -45 15 -16 16 -15 34 4 35 4 11 -38 10 -39 -3 -47 -3
-47 59 -3 59 -3 30 12 29 12 -6 57 -7 58 24 4 23 4 12 -4 12 -4 0 -48 0 -48
33 -11 32 -10 70 -6 70 -6 12 9 12 8 7 56 7 56 -7 28 -7 27 -52 -6 -52 -6 -11
7 -11 7 -12 23 -12 23 6 18 6 19 19 -5 20 -5 35 6 35 7 0 14 0 15 10 0 10 0 0
75 0 75 -218 0 -219 0 -6 -7z"/>
</g>
</svg>
