<?xml version="1.0" standalone="no"?>
<!DOCTYPE svg PUBLIC "-//W3C//DTD SVG 20010904//EN"
 "http://www.w3.org/TR/2001/REC-SVG-20010904/DTD/svg10.dtd">
<svg version="1.0" xmlns="http://www.w3.org/2000/svg"
 width="46.000000pt" height="48.000000pt" viewBox="0 0 46.000000 48.000000"
 preserveAspectRatio="xMidYMid meet">
<metadata>
Created by potrace 1.16, written by Peter Selinger 2001-2019
</metadata>
<g transform="translate(0.000000,48.000000) scale(0.100000,-0.100000)"
fill="#000000" stroke="none">
<path d="M2 386 l-2 -96 9 0 10 0 25 10 26 10 27 -11 28 -10 7 -12 8 -12 0
-11 0 -11 -19 -21 -18 -22 -31 6 -31 6 -5 -23 -5 -24 -11 -59 -10 -60 0 -13 0
-13 94 0 95 0 6 20 6 20 -6 29 -6 29 8 5 9 6 12 -8 13 -8 6 -51 6 -52 23 -6
24 -6 66 11 66 12 14 14 14 13 -10 74 -9 74 -6 16 -7 17 -36 3 -37 3 -3 23 -3
22 33 0 33 0 11 8 11 7 12 22 11 22 0 70 0 71 -19 0 -20 0 -5 -9 -6 -8 -70 -7
-70 -7 2 -39 1 -38 -17 -17 -17 -17 -25 0 -24 0 -20 22 -19 22 6 44 6 44 -59
0 -59 0 -20 6 -20 5 -3 -95z"/>
</g>
</svg>
