<?xml version="1.0" standalone="no"?>
<!DOCTYPE svg PUBLIC "-//W3C//DTD SVG 20010904//EN"
 "http://www.w3.org/TR/2001/REC-SVG-20010904/DTD/svg10.dtd">
<svg version="1.0" xmlns="http://www.w3.org/2000/svg"
 width="57.000000pt" height="44.000000pt" viewBox="0 0 57.000000 44.000000"
 preserveAspectRatio="xMidYMid meet">
<metadata>
Created by potrace 1.16, written by Peter Selinger 2001-2019
</metadata>
<g transform="translate(0.000000,44.000000) scale(0.100000,-0.100000)"
fill="#000000" stroke="none">
<path d="M127 433 l-7 -6 0 -43 0 -43 -12 -26 -11 -25 -9 0 -9 0 -16 -16 -16
-15 -23 5 -24 6 0 -36 0 -35 15 -16 16 -15 34 6 34 7 11 -42 12 -42 -4 -46 -3
-46 49 -3 49 -3 29 12 29 12 -7 58 -7 59 14 0 14 0 21 6 21 6 16 -16 15 -16
-5 -39 -5 -39 33 -10 34 -10 57 -6 56 -6 16 6 15 6 6 53 7 53 -7 22 -7 22 -44
-7 -44 -6 -19 6 -19 6 -12 29 -12 30 6 26 7 25 28 -6 28 -6 27 7 26 6 0 14 0
14 10 0 10 0 0 65 0 65 -208 0 -209 0 -6 -7z"/>
</g>
</svg>
