<?xml version="1.0" standalone="no"?>
<!DOCTYPE svg PUBLIC "-//W3C//DTD SVG 20010904//EN"
 "http://www.w3.org/TR/2001/REC-SVG-20010904/DTD/svg10.dtd">
<svg version="1.0" xmlns="http://www.w3.org/2000/svg"
 width="59.000000pt" height="54.000000pt" viewBox="0 0 59.000000 54.000000"
 preserveAspectRatio="xMidYMid meet">
<metadata>
Created by potrace 1.16, written by Peter Selinger 2001-2019
</metadata>
<g transform="translate(0.000000,54.000000) scale(0.100000,-0.100000)"
fill="#000000" stroke="none">
<path d="M195 530 l-6 -10 1 -33 2 -32 -1 -12 -1 -13 -85 0 -85 0 0 -85 0 -85
53 3 53 2 18 -17 17 -18 -6 -20 -6 -20 -14 0 -13 0 -5 -12 -4 -13 -57 1 -56 2
1 -84 1 -84 229 0 229 0 10 26 10 25 0 42 0 42 8 13 9 13 16 -7 17 -6 25 6 24
6 7 35 6 35 -6 25 -6 25 -49 0 -49 0 -6 16 -6 16 0 64 0 64 -7 0 -8 0 -72 -15
-71 -15 -15 6 -14 5 -6 51 -6 51 -13 9 -13 8 -22 0 -22 0 -6 -10z"/>
</g>
</svg>
