<?xml version="1.0" standalone="no"?>
<!DOCTYPE svg PUBLIC "-//W3C//DTD SVG 20010904//EN"
 "http://www.w3.org/TR/2001/REC-SVG-20010904/DTD/svg10.dtd">
<svg version="1.0" xmlns="http://www.w3.org/2000/svg"
 width="53.000000pt" height="60.000000pt" viewBox="0 0 53.000000 60.000000"
 preserveAspectRatio="xMidYMid meet">
<metadata>
Created by potrace 1.16, written by Peter Selinger 2001-2019
</metadata>
<g transform="translate(0.000000,60.000000) scale(0.100000,-0.100000)"
fill="#000000" stroke="none">
<path d="M201 593 l-24 -5 6 -58 5 -58 -29 -13 -30 -12 -54 7 -55 6 0 -85 0
-85 15 0 15 0 0 -11 0 -11 37 4 38 5 15 4 15 4 3 -24 4 -24 -14 -8 -13 -9 -55
6 -56 6 -12 -27 -12 -27 6 -51 6 -52 9 -31 10 -31 75 -7 75 -7 14 15 15 15 0
45 0 45 16 16 16 16 17 -4 16 -3 -4 -15 -4 -14 -4 -25 -4 -25 8 -12 8 -12 97
-15 97 -16 15 6 16 6 0 15 0 14 16 50 16 49 -6 24 -6 24 -68 4 -69 3 -16 17
-17 17 0 25 0 26 13 2 12 1 57 1 56 1 7 6 6 6 -7 80 -7 79 -65 2 -66 2 -33 11
-34 11 6 38 6 37 -16 17 -16 16 -22 -1 -22 -2 -24 -4z"/>
</g>
</svg>
