<?xml version="1.0" standalone="no"?>
<!DOCTYPE svg PUBLIC "-//W3C//DTD SVG 20010904//EN"
 "http://www.w3.org/TR/2001/REC-SVG-20010904/DTD/svg10.dtd">
<svg version="1.0" xmlns="http://www.w3.org/2000/svg"
 width="59.000000pt" height="70.000000pt" viewBox="0 0 59.000000 70.000000"
 preserveAspectRatio="xMidYMid meet">
<metadata>
Created by potrace 1.16, written by Peter Selinger 2001-2019
</metadata>
<g transform="translate(0.000000,70.000000) scale(0.100000,-0.100000)"
fill="#000000" stroke="none">
<path d="M305 680 l-6 -19 7 -35 6 -35 -16 -17 -17 -16 -85 4 -84 4 0 -65 0
-66 -10 -15 -9 -15 -34 3 -34 3 -13 -30 -12 -30 15 -16 15 -15 26 -10 26 -10
30 6 30 7 0 -20 0 -20 -12 -57 -11 -58 14 -9 14 -9 58 0 58 0 -6 -43 -7 -42
22 -25 21 -24 33 0 33 0 17 16 16 17 0 9 0 10 13 5 12 5 -12 13 -13 13 0 12 0
13 68 6 68 7 15 12 16 11 16 49 17 50 0 22 0 22 -6 15 -6 15 -52 -5 -52 -5
-17 17 -17 16 0 34 0 34 35 -6 35 -6 0 12 0 11 13 0 14 0 11 25 12 26 0 44 0
45 -60 0 -59 0 -26 12 -26 12 2 41 3 41 -8 12 -7 12 -34 0 -34 0 -6 -20z"/>
</g>
</svg>
