<?xml version="1.0" standalone="no"?>
<!DOCTYPE svg PUBLIC "-//W3C//DTD SVG 20010904//EN"
 "http://www.w3.org/TR/2001/REC-SVG-20010904/DTD/svg10.dtd">
<svg version="1.0" xmlns="http://www.w3.org/2000/svg"
 width="61.000000pt" height="69.000000pt" viewBox="0 0 61.000000 69.000000"
 preserveAspectRatio="xMidYMid meet">
<metadata>
Created by potrace 1.16, written by Peter Selinger 2001-2019
</metadata>
<g transform="translate(0.000000,69.000000) scale(0.100000,-0.100000)"
fill="#000000" stroke="none">
<path d="M316 675 l-16 -16 -2 -27 -1 -27 1 -18 2 -18 -14 -14 -14 -14 -71 6
-71 6 0 -76 0 -76 -48 6 -48 5 -17 -17 -17 -16 0 -24 0 -24 17 -16 17 -17 42
5 43 4 6 -66 6 -66 5 -22 4 -22 68 -3 67 -3 -1 -39 -2 -40 12 -11 11 -12 23
-12 23 -12 19 6 20 6 0 15 0 14 16 0 17 0 -6 61 -5 62 51 -8 52 -8 37 -1 37 0
5 5 5 5 9 55 8 55 -8 26 -9 27 -51 -6 -50 -6 -9 14 -9 14 0 22 0 22 16 15 15
16 39 0 38 0 6 15 6 16 -7 59 -6 59 -6 -3 -6 -4 -90 15 -90 14 -7 12 -8 12 6
20 6 20 1 20 2 20 -26 3 -26 3 -17 -16z"/>
</g>
</svg>
