<?xml version="1.0" standalone="no"?>
<!DOCTYPE svg PUBLIC "-//W3C//DTD SVG 20010904//EN"
 "http://www.w3.org/TR/2001/REC-SVG-20010904/DTD/svg10.dtd">
<svg version="1.0" xmlns="http://www.w3.org/2000/svg"
 width="57.000000pt" height="52.000000pt" viewBox="0 0 57.000000 52.000000"
 preserveAspectRatio="xMidYMid meet">
<metadata>
Created by potrace 1.16, written by Peter Selinger 2001-2019
</metadata>
<g transform="translate(0.000000,52.000000) scale(0.100000,-0.100000)"
fill="#000000" stroke="none">
<path d="M194 505 l-6 -15 6 -24 6 -24 -6 -16 -6 -16 -84 0 -84 0 0 -74 0 -74
53 2 53 1 17 -17 17 -17 0 -14 0 -15 -6 -16 -6 -16 -13 0 -13 0 -4 -12 -5 -13
-57 0 -57 0 3 -72 3 -73 218 0 217 0 10 26 10 25 0 42 0 42 9 14 9 14 25 -7
25 -6 16 6 15 6 6 29 6 29 -6 20 -6 20 -49 0 -48 0 -6 16 -6 16 0 65 0 65 -14
-5 -15 -6 -61 -11 -61 -11 -18 6 -18 5 -6 52 -6 51 -13 9 -13 8 -13 0 -13 0
-5 -15z"/>
</g>
</svg>
