<?xml version="1.0" standalone="no"?>
<!DOCTYPE svg PUBLIC "-//W3C//DTD SVG 20010904//EN"
 "http://www.w3.org/TR/2001/REC-SVG-20010904/DTD/svg10.dtd">
<svg version="1.0" xmlns="http://www.w3.org/2000/svg"
 width="60.000000pt" height="59.000000pt" viewBox="0 0 60.000000 59.000000"
 preserveAspectRatio="xMidYMid meet">
<metadata>
Created by potrace 1.16, written by Peter Selinger 2001-2019
</metadata>
<g transform="translate(0.000000,59.000000) scale(0.100000,-0.100000)"
fill="#000000" stroke="none">
<path d="M315 580 l-6 -10 2 -51 3 -51 -15 -9 -14 -10 -82 4 -83 5 0 -70 0
-69 -34 6 -33 7 -27 -27 -26 -26 0 -32 0 -32 9 -13 8 -13 49 -7 49 -7 3 -82 3
-81 22 -6 22 -6 73 0 73 0 16 16 16 15 -6 42 -6 42 8 14 8 13 24 -4 24 -3 3
-51 3 -51 25 -12 25 -11 61 0 61 0 -7 69 -6 69 -6 16 -6 15 -33 7 -33 6 -4 23
-5 23 10 17 9 17 45 -7 46 -7 8 14 9 13 0 36 0 36 -6 48 -7 47 -66 -3 -66 -3
-26 8 -27 8 11 28 11 29 -17 36 -17 35 -34 0 -35 0 -6 -10z"/>
</g>
</svg>
