<?xml version="1.0" standalone="no"?>
<!DOCTYPE svg PUBLIC "-//W3C//DTD SVG 20010904//EN"
 "http://www.w3.org/TR/2001/REC-SVG-20010904/DTD/svg10.dtd">
<svg version="1.0" xmlns="http://www.w3.org/2000/svg"
 width="61.000000pt" height="72.000000pt" viewBox="0 0 61.000000 72.000000"
 preserveAspectRatio="xMidYMid meet">
<metadata>
Created by potrace 1.16, written by Peter Selinger 2001-2019
</metadata>
<g transform="translate(0.000000,72.000000) scale(0.100000,-0.100000)"
fill="#000000" stroke="none">
<path d="M304 695 l-6 -26 6 -30 6 -31 -16 -15 -15 -16 -85 6 -84 6 0 -64 0
-63 -6 -16 -6 -16 -37 0 -38 0 -11 -25 -12 -26 0 -16 0 -16 21 -18 21 -18 29
-6 29 -6 21 6 22 7 -7 -33 -7 -34 -6 -43 -6 -44 14 -9 14 -9 56 0 57 0 -5 -43
-5 -42 22 -25 22 -25 42 0 42 0 17 17 17 17 0 10 0 11 10 0 10 0 0 18 0 18
-11 11 -12 12 70 6 69 7 15 12 16 11 16 49 17 50 0 35 0 36 -9 13 -8 13 -50
-7 -49 -6 -17 17 -17 16 0 20 0 19 35 0 35 0 0 10 0 10 13 0 14 0 11 25 12 26
0 54 0 55 -60 0 -59 0 -27 12 -26 12 6 34 5 35 -10 18 -10 19 -44 0 -45 0 -6
-25z"/>
</g>
</svg>
