<?xml version="1.0" standalone="no"?>
<!DOCTYPE svg PUBLIC "-//W3C//DTD SVG 20010904//EN"
 "http://www.w3.org/TR/2001/REC-SVG-20010904/DTD/svg10.dtd">
<svg version="1.0" xmlns="http://www.w3.org/2000/svg"
 width="63.000000pt" height="71.000000pt" viewBox="0 0 63.000000 71.000000"
 preserveAspectRatio="xMidYMid meet">
<metadata>
Created by potrace 1.16, written by Peter Selinger 2001-2019
</metadata>
<g transform="translate(0.000000,71.000000) scale(0.100000,-0.100000)"
fill="#000000" stroke="none">
<path d="M317 696 l-14 -15 -7 -42 -7 -42 5 -4 5 -5 -12 -12 -11 -13 -73 5
-73 5 0 -74 0 -74 -48 3 -49 4 -16 -17 -17 -16 0 -34 0 -34 16 -15 15 -16 43
0 43 0 7 -38 6 -37 0 -35 0 -35 8 -12 8 -12 64 -3 65 -3 -3 -38 -3 -39 22 -19
23 -20 22 -5 23 -6 20 7 21 6 0 15 0 14 16 0 16 0 -4 61 -3 61 40 -8 40 -8 47
-1 46 0 6 5 5 6 10 62 10 62 -11 31 -10 31 -50 -7 -50 -7 -9 13 -9 14 0 12 0
12 16 15 15 16 39 0 38 0 6 17 7 17 -7 66 -6 66 -96 11 -95 12 -7 11 -7 12 10
28 10 27 -6 17 -6 16 -35 0 -35 0 -14 -14z"/>
</g>
</svg>
