<?xml version="1.0" standalone="no"?>
<!DOCTYPE svg PUBLIC "-//W3C//DTD SVG 20010904//EN"
 "http://www.w3.org/TR/2001/REC-SVG-20010904/DTD/svg10.dtd">
<svg version="1.0" xmlns="http://www.w3.org/2000/svg"
 width="58.000000pt" height="57.000000pt" viewBox="0 0 58.000000 57.000000"
 preserveAspectRatio="xMidYMid meet">
<metadata>
Created by potrace 1.16, written by Peter Selinger 2001-2019
</metadata>
<g transform="translate(0.000000,57.000000) scale(0.100000,-0.100000)"
fill="#000000" stroke="none">
<path d="M313 555 l-5 -16 6 -39 6 -39 -17 -16 -16 -17 -83 4 -83 3 -3 -70 -3
-70 -10 1 -10 2 -22 6 -21 7 -26 -26 -26 -26 0 -22 0 -22 9 -14 10 -15 43 0
43 -1 7 -10 8 -10 0 -76 0 -77 23 -6 22 -6 63 0 63 0 16 15 15 16 -6 35 -7 35
6 19 6 20 34 0 34 0 7 -12 8 -12 -3 -41 -2 -41 26 -12 26 -12 51 0 51 0 -7 61
-7 60 -6 14 -5 14 -33 7 -33 6 -6 30 -6 30 11 20 11 21 49 -6 48 -6 7 21 6 20
-7 66 -7 65 -64 -6 -65 -6 -27 11 -27 12 -4 3 -4 2 12 30 13 29 -16 31 -17 31
-25 0 -25 0 -6 -15z"/>
</g>
</svg>
