<?xml version="1.0" standalone="no"?>
<!DOCTYPE svg PUBLIC "-//W3C//DTD SVG 20010904//EN"
 "http://www.w3.org/TR/2001/REC-SVG-20010904/DTD/svg10.dtd">
<svg version="1.0" xmlns="http://www.w3.org/2000/svg"
 width="51.000000pt" height="58.000000pt" viewBox="0 0 51.000000 58.000000"
 preserveAspectRatio="xMidYMid meet">
<metadata>
Created by potrace 1.16, written by Peter Selinger 2001-2019
</metadata>
<g transform="translate(0.000000,58.000000) scale(0.100000,-0.100000)"
fill="#000000" stroke="none">
<path d="M201 573 l-23 -5 6 -57 7 -58 -31 -13 -30 -12 -55 4 -55 5 0 -74 0
-73 15 0 15 0 0 -11 0 -11 33 6 32 7 20 2 20 2 3 -37 3 -36 -21 -7 -21 -7 -48
7 -47 6 -11 -24 -12 -25 9 -59 8 -58 7 -16 6 -16 66 -6 65 -6 12 12 13 12 0
30 0 30 6 28 7 27 25 6 25 6 16 -6 16 -6 -6 -20 -6 -20 -5 -18 -5 -17 8 -12 7
-12 90 -14 90 -14 13 4 12 5 0 17 0 16 15 44 16 43 -6 18 -6 18 -68 4 -68 3
-16 17 -17 17 0 35 0 35 18 5 17 6 52 -3 51 -2 6 5 5 6 -6 69 -6 70 -66 3 -66
2 -34 11 -33 11 5 39 5 39 -15 15 -14 15 -12 -1 -12 -2 -24 -4z"/>
</g>
</svg>
