<?xml version="1.0" standalone="no"?>
<!DOCTYPE svg PUBLIC "-//W3C//DTD SVG 20010904//EN"
 "http://www.w3.org/TR/2001/REC-SVG-20010904/DTD/svg10.dtd">
<svg version="1.0" xmlns="http://www.w3.org/2000/svg"
 width="49.000000pt" height="49.000000pt" viewBox="0 0 49.000000 49.000000"
 preserveAspectRatio="xMidYMid meet">
<metadata>
Created by potrace 1.16, written by Peter Selinger 2001-2019
</metadata>
<g transform="translate(0.000000,49.000000) scale(0.100000,-0.100000)"
fill="#000000" stroke="none">
<path d="M296 430 l7 -60 -17 0 -16 0 0 -14 0 -14 -12 -5 -13 -4 -20 10 -20
10 -10 11 -10 11 0 40 0 40 -82 3 -83 3 0 -75 0 -75 16 -15 15 -16 34 0 34 0
6 -21 7 -21 -13 -9 -14 -9 -37 0 -37 0 -16 -17 -17 -17 6 -50 6 -51 0 -22 0
-22 16 -15 15 -16 82 0 82 0 15 10 15 9 0 58 0 58 17 3 17 3 15 -28 15 -29
-10 -15 -9 -14 0 -20 0 -21 35 -13 34 -12 61 7 60 7 0 13 0 13 -19 43 -19 43
-12 33 -12 32 -10 0 -9 0 -15 14 -14 15 0 17 0 17 23 19 22 20 39 -6 39 -7 -6
76 -7 75 10 0 10 0 0 15 0 15 -27 6 -28 6 -35 9 -35 9 -38 0 -38 0 7 -60z"/>
</g>
</svg>
