<?xml version="1.0" standalone="no"?>
<!DOCTYPE svg PUBLIC "-//W3C//DTD SVG 20010904//EN"
 "http://www.w3.org/TR/2001/REC-SVG-20010904/DTD/svg10.dtd">
<svg version="1.0" xmlns="http://www.w3.org/2000/svg"
 width="47.000000pt" height="47.000000pt" viewBox="0 0 47.000000 47.000000"
 preserveAspectRatio="xMidYMid meet">
<metadata>
Created by potrace 1.16, written by Peter Selinger 2001-2019
</metadata>
<g transform="translate(0.000000,47.000000) scale(0.100000,-0.100000)"
fill="#000000" stroke="none">
<path d="M297 410 l6 -60 -17 0 -16 0 0 -14 0 -15 -20 -6 -19 -6 -23 12 -23
12 -11 12 -12 11 2 40 1 39 -72 3 -73 3 0 -65 0 -65 16 -16 17 -16 29 3 29 3
9 -15 10 -15 0 -21 0 -22 -16 -6 -16 -6 -33 0 -34 0 -16 -17 -17 -16 6 -36 6
-36 0 -27 0 -27 16 -15 15 -16 72 0 72 0 15 10 15 9 0 58 0 58 27 3 27 3 16
-31 17 -32 -13 -29 -12 -30 4 -2 4 -3 28 -12 28 -12 55 6 54 7 0 3 0 3 -19 43
-19 43 -12 33 -12 32 -10 0 -9 0 -15 14 -14 15 0 27 0 27 22 19 23 20 38 -4
39 -4 -7 73 -7 73 13 0 12 0 -5 6 -6 5 -59 14 -58 14 -27 1 -26 0 5 -60z"/>
</g>
</svg>
