<?xml version="1.0" standalone="no"?>
<!DOCTYPE svg PUBLIC "-//W3C//DTD SVG 20010904//EN"
 "http://www.w3.org/TR/2001/REC-SVG-20010904/DTD/svg10.dtd">
<svg version="1.0" xmlns="http://www.w3.org/2000/svg"
 width="48.000000pt" height="57.000000pt" viewBox="0 0 48.000000 57.000000"
 preserveAspectRatio="xMidYMid meet">
<metadata>
Created by potrace 1.16, written by Peter Selinger 2001-2019
</metadata>
<g transform="translate(0.000000,57.000000) scale(0.100000,-0.100000)"
fill="#000000" stroke="none">
<path d="M2 348 l3 -223 35 -3 35 -2 30 -5 31 -5 -4 -35 -4 -34 15 -15 14 -15
34 -6 34 -6 29 11 29 11 20 22 19 22 -6 34 -5 33 64 -7 65 -7 16 16 15 16 6
54 6 54 -7 26 -6 26 -54 0 -54 0 -6 16 -6 16 0 14 0 14 33 0 32 0 11 8 11 7
12 22 11 22 0 70 0 71 -230 0 -230 0 2 -222z"/>
</g>
</svg>
