<?xml version="1.0" standalone="no"?>
<!DOCTYPE svg PUBLIC "-//W3C//DTD SVG 20010904//EN"
 "http://www.w3.org/TR/2001/REC-SVG-20010904/DTD/svg10.dtd">
<svg version="1.0" xmlns="http://www.w3.org/2000/svg"
 width="46.000000pt" height="55.000000pt" viewBox="0 0 46.000000 55.000000"
 preserveAspectRatio="xMidYMid meet">
<metadata>
Created by potrace 1.16, written by Peter Selinger 2001-2019
</metadata>
<g transform="translate(0.000000,55.000000) scale(0.100000,-0.100000)"
fill="#000000" stroke="none">
<path d="M2 337 l3 -212 35 -3 35 -2 33 -6 33 -5 -7 -34 -6 -34 14 -14 13 -14
27 -6 27 -7 27 10 27 11 19 21 18 21 -6 35 -7 35 68 -6 67 -6 14 14 14 14 6
45 7 45 -7 25 -6 26 -54 0 -54 0 -6 16 -6 16 0 29 0 29 24 -6 25 -6 19 6 19 6
11 26 12 25 0 60 0 60 -220 -1 -220 -1 2 -212z"/>
</g>
</svg>
