<?xml version="1.0" standalone="no"?>
<!DOCTYPE svg PUBLIC "-//W3C//DTD SVG 20010904//EN"
 "http://www.w3.org/TR/2001/REC-SVG-20010904/DTD/svg10.dtd">
<svg version="1.0" xmlns="http://www.w3.org/2000/svg"
 width="68.000000pt" height="47.000000pt" viewBox="0 0 68.000000 47.000000"
 preserveAspectRatio="xMidYMid meet">
<metadata>
Created by potrace 1.16, written by Peter Selinger 2001-2019
</metadata>
<g transform="translate(0.000000,47.000000) scale(0.100000,-0.100000)"
fill="#000000" stroke="none">
<path d="M147 463 l-7 -6 0 -59 0 -58 -10 0 -10 0 0 -14 0 -14 -29 -7 -28 -6
-26 6 -26 7 -7 -26 -6 -26 12 -30 12 -29 19 -6 19 -6 44 6 44 7 7 -21 7 -22
-8 -66 -7 -66 58 7 58 7 19 21 18 21 0 23 0 22 -12 5 -13 5 47 1 47 1 15 -29
15 -28 -6 -36 -5 -35 21 -7 21 -6 33 6 32 6 38 16 39 17 -6 30 -6 31 -6 52 -7
53 15 0 14 0 10 -10 11 -11 27 11 28 10 14 14 14 15 0 25 0 25 -15 15 -16 15
-34 7 -34 6 -11 -7 -11 -7 7 76 7 76 -210 0 -210 0 -6 -7z"/>
</g>
</svg>
