<?xml version="1.0" standalone="no"?>
<!DOCTYPE svg PUBLIC "-//W3C//DTD SVG 20010904//EN"
 "http://www.w3.org/TR/2001/REC-SVG-20010904/DTD/svg10.dtd">
<svg version="1.0" xmlns="http://www.w3.org/2000/svg"
 width="70.000000pt" height="49.000000pt" viewBox="0 0 70.000000 49.000000"
 preserveAspectRatio="xMidYMid meet">
<metadata>
Created by potrace 1.16, written by Peter Selinger 2001-2019
</metadata>
<g transform="translate(0.000000,49.000000) scale(0.100000,-0.100000)"
fill="#000000" stroke="none">
<path d="M147 483 l-7 -6 0 -59 0 -58 -10 0 -10 0 0 -14 0 -14 -21 -5 -22 -6
-29 6 -30 6 -9 -14 -9 -14 0 -27 0 -27 12 -26 11 -25 24 -6 24 -6 38 6 39 6 6
-16 6 -16 -7 -70 -6 -71 68 6 67 6 19 22 19 22 0 29 0 28 25 0 24 0 12 -22 12
-23 -2 -42 -2 -41 22 -7 21 -7 45 7 46 7 34 16 35 17 -6 40 -5 40 -7 45 -7 45
16 -13 16 -14 30 7 29 6 21 18 21 18 0 34 0 34 -8 12 -7 12 -28 10 -28 11 -23
0 -23 0 5 70 5 70 -220 0 -220 0 -6 -7z"/>
</g>
</svg>
