<?xml version="1.0" standalone="no"?>
<!DOCTYPE svg PUBLIC "-//W3C//DTD SVG 20010904//EN"
 "http://www.w3.org/TR/2001/REC-SVG-20010904/DTD/svg10.dtd">
<svg version="1.0" xmlns="http://www.w3.org/2000/svg"
 width="55.000000pt" height="42.000000pt" viewBox="0 0 55.000000 42.000000"
 preserveAspectRatio="xMidYMid meet">
<metadata>
Created by potrace 1.16, written by Peter Selinger 2001-2019
</metadata>
<g transform="translate(0.000000,42.000000) scale(0.100000,-0.100000)"
fill="#000000" stroke="none">
<path d="M10 357 l0 -65 6 -16 6 -16 48 0 49 0 6 -20 6 -20 -6 -29 -6 -29 -15
-6 -16 -6 -25 6 -25 7 -9 -14 -9 -14 0 -42 0 -42 -10 -25 -10 -26 209 0 208 0
8 82 7 81 13 13 13 13 37 -6 37 -6 9 14 9 14 0 22 0 23 -25 6 -25 6 -34 -6
-34 -6 -6 16 -6 16 0 65 0 66 -29 -6 -28 -6 -52 -7 -52 -7 6 -24 6 -24 -15
-14 -15 -15 -28 0 -28 0 -14 9 -13 9 6 19 6 20 -6 16 -6 15 -16 7 -17 6 -57 6
-58 5 0 -65z"/>
</g>
</svg>
