<?xml version="1.0" standalone="no"?>
<!DOCTYPE svg PUBLIC "-//W3C//DTD SVG 20010904//EN"
 "http://www.w3.org/TR/2001/REC-SVG-20010904/DTD/svg10.dtd">
<svg version="1.0" xmlns="http://www.w3.org/2000/svg"
 width="57.000000pt" height="44.000000pt" viewBox="0 0 57.000000 44.000000"
 preserveAspectRatio="xMidYMid meet">
<metadata>
Created by potrace 1.16, written by Peter Selinger 2001-2019
</metadata>
<g transform="translate(0.000000,44.000000) scale(0.100000,-0.100000)"
fill="#000000" stroke="none">
<path d="M10 366 l0 -74 6 -16 6 -16 48 0 48 0 6 -16 6 -16 -6 -24 -6 -24 -12
-1 -11 -1 -32 2 -32 1 -5 -23 -5 -23 -5 -45 -5 -45 -7 -23 -6 -22 220 0 219 0
8 81 7 82 10 11 11 11 40 -4 39 -3 9 13 9 14 0 32 0 33 -25 6 -25 6 -35 -4
-34 -4 -6 14 -5 14 0 64 0 64 -12 0 -13 0 -78 -12 -79 -12 4 -26 4 -26 -13
-12 -12 -12 -15 0 -14 0 -16 6 -15 6 6 14 5 14 -6 25 -6 24 -38 10 -37 11 -47
0 -48 0 0 -74z"/>
</g>
</svg>
