<?xml version="1.0" standalone="no"?>
<!DOCTYPE svg PUBLIC "-//W3C//DTD SVG 20010904//EN"
 "http://www.w3.org/TR/2001/REC-SVG-20010904/DTD/svg10.dtd">
<svg version="1.0" xmlns="http://www.w3.org/2000/svg"
 width="68.000000pt" height="67.000000pt" viewBox="0 0 68.000000 67.000000"
 preserveAspectRatio="xMidYMid meet">
<metadata>
Created by potrace 1.16, written by Peter Selinger 2001-2019
</metadata>
<g transform="translate(0.000000,67.000000) scale(0.100000,-0.100000)"
fill="#000000" stroke="none">
<path d="M288 663 l12 -5 0 -22 0 -23 -18 -21 -18 -21 -53 -7 -53 -7 -10 14
-10 14 6 -76 6 -77 -22 -5 -21 -6 -28 6 -28 5 -26 -6 -25 -6 0 -36 0 -35 17
-17 16 -17 68 -3 68 -4 6 -17 5 -16 -11 -35 -11 -35 -8 -32 -8 -33 53 0 54 0
15 -16 16 -15 -6 -38 -6 -38 17 -16 16 -17 19 0 19 0 25 11 25 12 11 27 11 27
-7 38 -7 38 81 -6 80 -6 11 63 11 63 0 15 0 15 18 21 19 21 29 -2 29 -2 3 27
3 27 -33 -5 -33 -6 -20 19 -20 18 -13 28 -12 28 0 46 0 45 -17 -7 -18 -7 -40
-10 -39 -9 -24 6 -24 6 5 36 6 36 -15 28 -15 29 -47 -1 -47 -1 13 -5z"/>
</g>
</svg>
