<?xml version="1.0" standalone="no"?>
<!DOCTYPE svg PUBLIC "-//W3C//DTD SVG 20010904//EN"
 "http://www.w3.org/TR/2001/REC-SVG-20010904/DTD/svg10.dtd">
<svg version="1.0" xmlns="http://www.w3.org/2000/svg"
 width="70.000000pt" height="69.000000pt" viewBox="0 0 70.000000 69.000000"
 preserveAspectRatio="xMidYMid meet">
<metadata>
Created by potrace 1.16, written by Peter Selinger 2001-2019
</metadata>
<g transform="translate(0.000000,69.000000) scale(0.100000,-0.100000)"
fill="#000000" stroke="none">
<path d="M280 675 l0 -15 10 0 10 0 0 -13 0 -14 -18 -21 -18 -20 -47 -7 -47
-7 0 11 0 11 -16 0 -17 0 5 -75 5 -75 -16 -1 -16 -1 -37 2 -38 1 -20 -6 -20
-6 0 -45 0 -45 17 -17 16 -17 68 -3 68 -4 4 -12 5 -12 -13 -37 -13 -38 -6 -34
-7 -35 53 0 53 0 14 -9 15 -10 -2 -44 -3 -45 16 -16 16 -16 29 0 29 0 25 11
25 12 12 28 12 29 -6 36 -6 37 78 -7 79 -7 11 64 11 64 0 15 0 15 18 19 17 19
30 0 30 0 3 39 3 38 -34 -6 -34 -6 -19 17 -19 18 -13 28 -12 28 0 46 0 45 -22
-5 -23 -6 -40 -10 -40 -10 -18 5 -18 6 7 33 6 33 -16 31 -17 31 -54 0 -55 0 0
-15z"/>
</g>
</svg>
