<?xml version="1.0" standalone="no"?>
<!DOCTYPE svg PUBLIC "-//W3C//DTD SVG 20010904//EN"
 "http://www.w3.org/TR/2001/REC-SVG-20010904/DTD/svg10.dtd">
<svg version="1.0" xmlns="http://www.w3.org/2000/svg"
 width="70.000000pt" height="68.000000pt" viewBox="0 0 70.000000 68.000000"
 preserveAspectRatio="xMidYMid meet">
<metadata>
Created by potrace 1.16, written by Peter Selinger 2001-2019
</metadata>
<g transform="translate(0.000000,68.000000) scale(0.100000,-0.100000)"
fill="#000000" stroke="none">
<path d="M298 674 l-6 -6 8 -28 8 -29 -5 -20 -5 -20 -43 -17 -43 -16 -46 4
-46 3 0 -42 0 -42 -12 -26 -11 -25 -14 0 -13 0 0 -11 0 -12 -35 6 -35 6 0 -34
0 -34 17 -16 17 -17 53 5 53 6 7 -27 6 -26 -13 -45 -13 -46 -4 -22 -5 -23 70
0 71 0 15 -15 15 -16 -11 -24 -11 -25 23 -20 23 -20 7 0 7 0 30 10 30 11 11
24 12 25 -7 31 -6 32 68 -5 68 -6 12 12 12 12 16 31 16 31 7 41 7 41 11 1 11
1 26 -1 25 -2 12 26 12 26 0 19 0 19 -16 16 -17 16 -50 -6 -49 -7 -9 13 -9 14
0 52 0 51 -5 15 -6 14 -49 -5 -49 -4 -25 6 -26 6 0 40 0 40 -20 20 -20 20 -23
0 -24 0 -5 -6z"/>
</g>
</svg>
