<?xml version="1.0" standalone="no"?>
<!DOCTYPE svg PUBLIC "-//W3C//DTD SVG 20010904//EN"
 "http://www.w3.org/TR/2001/REC-SVG-20010904/DTD/svg10.dtd">
<svg version="1.0" xmlns="http://www.w3.org/2000/svg"
 width="72.000000pt" height="70.000000pt" viewBox="0 0 72.000000 70.000000"
 preserveAspectRatio="xMidYMid meet">
<metadata>
Created by potrace 1.16, written by Peter Selinger 2001-2019
</metadata>
<g transform="translate(0.000000,70.000000) scale(0.100000,-0.100000)"
fill="#000000" stroke="none">
<path d="M297 694 l-6 -6 6 -48 5 -47 -46 -18 -46 -18 -45 6 -45 7 0 -45 0
-44 -12 -26 -11 -25 -14 0 -13 0 0 -10 0 -11 -35 7 -35 6 0 -45 0 -46 17 -16
16 -17 54 4 54 3 5 -22 6 -23 -16 -47 -16 -47 0 -23 0 -23 64 0 64 0 16 -6 16
-6 -6 -34 -6 -35 22 -19 23 -20 17 0 17 0 31 11 30 10 12 29 12 30 -6 26 -7
27 66 -7 66 -7 13 14 13 13 16 31 16 31 7 41 7 41 37 0 37 0 11 25 12 26 0 29
0 29 -17 16 -17 17 -52 -6 -52 -6 -6 16 -6 16 0 48 0 48 -6 16 -6 16 -49 -6
-48 -6 -25 6 -26 6 0 40 0 40 -20 20 -20 20 -33 0 -34 0 -6 -6z"/>
</g>
</svg>
