<?xml version="1.0" standalone="no"?>
<!DOCTYPE svg PUBLIC "-//W3C//DTD SVG 20010904//EN"
 "http://www.w3.org/TR/2001/REC-SVG-20010904/DTD/svg10.dtd">
<svg version="1.0" xmlns="http://www.w3.org/2000/svg"
 width="55.000000pt" height="56.000000pt" viewBox="0 0 55.000000 56.000000"
 preserveAspectRatio="xMidYMid meet">
<metadata>
Created by potrace 1.16, written by Peter Selinger 2001-2019
</metadata>
<g transform="translate(0.000000,56.000000) scale(0.100000,-0.100000)"
fill="#000000" stroke="none">
<path d="M301 551 l-15 -10 12 -26 13 -27 -6 -18 -5 -17 -26 -11 -25 -12 -65
0 -66 0 7 -64 7 -64 -6 -20 -7 -21 -48 6 -49 6 -11 -21 -11 -20 6 -30 6 -30
33 -6 33 -7 5 -14 6 -14 7 -59 6 -60 22 -6 21 -6 37 0 38 0 39 16 39 15 5 20
5 20 -8 29 -8 28 6 6 5 6 24 0 23 0 20 -20 20 -20 0 -39 0 -39 16 -6 16 -6 41
0 42 0 23 6 22 6 0 49 0 48 -12 26 -12 26 -39 -3 -40 -3 -8 30 -9 30 6 18 5
17 10 -6 10 -6 34 6 33 7 11 31 11 31 0 50 0 49 -22 -5 -23 -4 -46 -13 -46
-13 -15 14 -16 14 5 56 5 55 -17 17 -16 17 -22 0 -22 0 -14 -9z"/>
</g>
</svg>
