<?xml version="1.0" standalone="no"?>
<!DOCTYPE svg PUBLIC "-//W3C//DTD SVG 20010904//EN"
 "http://www.w3.org/TR/2001/REC-SVG-20010904/DTD/svg10.dtd">
<svg version="1.0" xmlns="http://www.w3.org/2000/svg"
 width="57.000000pt" height="58.000000pt" viewBox="0 0 57.000000 58.000000"
 preserveAspectRatio="xMidYMid meet">
<metadata>
Created by potrace 1.16, written by Peter Selinger 2001-2019
</metadata>
<g transform="translate(0.000000,58.000000) scale(0.100000,-0.100000)"
fill="#000000" stroke="none">
<path d="M303 573 l-13 -5 0 -19 0 -20 9 -18 10 -17 -7 -11 -7 -10 -22 -12
-22 -11 -67 0 -67 0 7 -68 7 -68 -6 -15 -5 -14 -49 3 -49 4 -12 -22 -12 -21 7
-39 6 -38 34 -6 33 -7 5 -14 6 -14 7 -59 6 -60 22 -6 21 -6 47 0 48 0 39 16
39 15 6 24 6 23 -6 31 -7 31 17 0 16 0 20 -20 20 -20 0 -39 0 -39 16 -6 16 -6
51 0 52 0 23 6 22 6 0 59 0 58 -12 26 -12 26 -40 -3 -40 -3 -7 28 -8 28 12 4
12 3 37 7 36 6 11 31 11 31 0 58 0 59 -23 0 -23 0 -47 -16 -46 -16 -13 12 -13
12 3 58 4 57 -17 16 -16 17 -32 -1 -32 -1 -12 -5z"/>
</g>
</svg>
