<?xml version="1.0" standalone="no"?>
<!DOCTYPE svg PUBLIC "-//W3C//DTD SVG 20010904//EN"
 "http://www.w3.org/TR/2001/REC-SVG-20010904/DTD/svg10.dtd">
<svg version="1.0" xmlns="http://www.w3.org/2000/svg"
 width="59.000000pt" height="60.000000pt" viewBox="0 0 59.000000 60.000000"
 preserveAspectRatio="xMidYMid meet">
<metadata>
Created by potrace 1.16, written by Peter Selinger 2001-2019
</metadata>
<g transform="translate(0.000000,60.000000) scale(0.100000,-0.100000)"
fill="#000000" stroke="none">
<path d="M291 591 l-14 -9 0 -43 -1 -44 -11 -7 -10 -8 -74 0 -74 0 7 -70 6
-70 -38 0 -39 0 -21 -19 -22 -18 0 -37 0 -37 14 -15 15 -14 9 0 10 0 11 -30
11 -30 11 -30 11 -29 18 -21 17 -20 76 0 76 0 26 12 25 11 7 24 6 24 -11 24
-11 24 18 6 18 5 16 -6 16 -6 7 -20 6 -20 -7 -44 -6 -44 15 -15 15 -15 25 0
25 0 57 21 56 21 -5 27 -5 26 -18 65 -18 65 -12 13 -13 12 -15 0 -16 0 0 24 0
25 33 -6 34 -5 16 16 16 16 6 44 7 44 -7 41 -7 41 -11 0 -12 0 -40 -15 -40
-14 -28 -1 -28 0 -12 12 -13 11 4 34 4 33 -6 25 -6 25 -43 0 -42 0 -14 -9z"/>
</g>
</svg>
