<?xml version="1.0" standalone="no"?>
<!DOCTYPE svg PUBLIC "-//W3C//DTD SVG 20010904//EN"
 "http://www.w3.org/TR/2001/REC-SVG-20010904/DTD/svg10.dtd">
<svg version="1.0" xmlns="http://www.w3.org/2000/svg"
 width="57.000000pt" height="58.000000pt" viewBox="0 0 57.000000 58.000000"
 preserveAspectRatio="xMidYMid meet">
<metadata>
Created by potrace 1.16, written by Peter Selinger 2001-2019
</metadata>
<g transform="translate(0.000000,58.000000) scale(0.100000,-0.100000)"
fill="#000000" stroke="none">
<path d="M291 571 l-13 -9 0 -43 1 -44 -12 -7 -12 -8 -73 0 -74 0 7 -73 7 -73
-39 4 -38 4 -23 -20 -22 -19 0 -27 0 -27 14 -15 15 -14 9 0 10 0 11 -30 11
-30 11 -30 11 -29 18 -21 17 -20 66 0 66 0 25 12 26 11 5 17 6 18 -13 27 -12
26 15 10 14 9 22 0 22 0 16 -17 17 -17 -5 -55 -5 -56 14 -13 13 -12 15 0 15 0
57 21 56 21 -7 22 -6 21 -17 60 -16 60 -13 13 -14 14 -14 -5 -14 -6 -3 17 -4
17 4 23 5 24 28 -6 29 -5 15 5 15 6 11 41 11 41 -7 43 -6 43 -2 0 -2 0 -40
-15 -40 -14 -38 -1 -38 0 -15 14 -14 14 6 31 6 30 -6 26 -6 25 -33 0 -32 0
-14 -9z"/>
</g>
</svg>
