<?xml version="1.0" standalone="no"?>
<!DOCTYPE svg PUBLIC "-//W3C//DTD SVG 20010904//EN"
 "http://www.w3.org/TR/2001/REC-SVG-20010904/DTD/svg10.dtd">
<svg version="1.0" xmlns="http://www.w3.org/2000/svg"
 width="67.000000pt" height="48.000000pt" viewBox="0 0 67.000000 48.000000"
 preserveAspectRatio="xMidYMid meet">
<metadata>
Created by potrace 1.16, written by Peter Selinger 2001-2019
</metadata>
<g transform="translate(0.000000,48.000000) scale(0.100000,-0.100000)"
fill="#000000" stroke="none">
<path d="M373 439 l5 -41 -10 -23 -10 -23 -25 -11 -24 -11 -9 0 -9 0 -15 16
-16 15 6 38 6 38 -17 16 -16 17 -66 0 -66 0 5 -57 5 -58 -4 -12 -5 -13 -38 0
-39 0 -15 -16 -16 -15 0 -32 0 -32 9 -14 8 -13 52 3 51 4 5 -13 5 -14 0 -28 0
-28 -6 -31 -6 -31 -14 0 -14 0 0 -19 0 -19 16 -6 16 -6 63 0 63 0 16 6 16 6 0
48 0 48 16 6 16 6 18 0 19 0 6 -20 6 -19 -7 -35 -6 -35 15 -16 16 -15 43 0 43
0 38 11 37 10 0 72 0 72 9 14 9 13 38 -6 39 -6 13 8 13 9 2 47 2 47 -15 10
-15 10 -36 -6 -36 -5 -11 26 -12 25 0 58 0 59 -31 6 -31 6 -56 0 -55 0 6 -41z"/>
</g>
</svg>
