<?xml version="1.0" standalone="no"?>
<!DOCTYPE svg PUBLIC "-//W3C//DTD SVG 20010904//EN"
 "http://www.w3.org/TR/2001/REC-SVG-20010904/DTD/svg10.dtd">
<svg version="1.0" xmlns="http://www.w3.org/2000/svg"
 width="65.000000pt" height="46.000000pt" viewBox="0 0 65.000000 46.000000"
 preserveAspectRatio="xMidYMid meet">
<metadata>
Created by potrace 1.16, written by Peter Selinger 2001-2019
</metadata>
<g transform="translate(0.000000,46.000000) scale(0.100000,-0.100000)"
fill="#000000" stroke="none">
<path d="M375 424 l6 -37 -11 -27 -11 -27 -25 -12 -25 -11 -19 0 -19 0 -16 17
-17 16 6 38 6 38 -16 15 -15 16 -56 0 -56 0 7 -54 6 -54 -6 -16 -6 -16 -38 0
-39 0 -15 -16 -16 -15 0 -22 0 -22 9 -14 9 -14 51 6 51 6 7 -27 7 -27 -1 -10
-1 -10 -7 -48 -6 -47 -15 0 -14 0 0 -9 0 -9 16 -6 16 -6 56 0 57 0 12 8 12 7
-1 44 0 43 13 9 14 9 32 0 33 0 6 -25 6 -26 -6 -30 -6 -31 14 -14 15 -14 33 0
33 0 38 11 37 10 0 72 0 72 9 14 9 14 40 -5 39 -6 12 7 11 7 2 38 1 38 -14 9
-14 8 -35 -5 -36 -6 -12 27 -12 26 0 58 0 59 -31 6 -31 6 -45 0 -45 0 7 -36z"/>
</g>
</svg>
