<?xml version="1.0" standalone="no"?>
<!DOCTYPE svg PUBLIC "-//W3C//DTD SVG 20010904//EN"
 "http://www.w3.org/TR/2001/REC-SVG-20010904/DTD/svg10.dtd">
<svg version="1.0" xmlns="http://www.w3.org/2000/svg"
 width="67.000000pt" height="56.000000pt" viewBox="0 0 67.000000 56.000000"
 preserveAspectRatio="xMidYMid meet">
<metadata>
Created by potrace 1.16, written by Peter Selinger 2001-2019
</metadata>
<g transform="translate(0.000000,56.000000) scale(0.100000,-0.100000)"
fill="#000000" stroke="none">
<path d="M391 528 l3 -33 -8 -22 -7 -21 -29 -10 -29 -10 -20 17 -20 17 10 15
9 14 0 12 0 12 -16 15 -15 16 -80 0 -79 0 0 -56 0 -55 -11 -22 -12 -22 -11 -7
-11 -8 -33 6 -33 6 3 -48 3 -49 37 -3 37 -3 11 -37 10 -37 0 -30 0 -30 6 -23
6 -22 37 0 36 0 38 -11 37 -10 1 -12 1 -12 -2 -24 -2 -24 14 -8 13 -9 38 0 38
0 16 15 15 16 -4 23 -5 23 84 13 84 12 13 13 13 13 13 61 13 61 19 0 19 0 15
14 14 15 0 44 0 45 -6 16 -6 16 -43 0 -43 0 -6 23 -6 22 0 56 0 56 -86 2 -86
2 3 -33z"/>
</g>
</svg>
