<?xml version="1.0" standalone="no"?>
<!DOCTYPE svg PUBLIC "-//W3C//DTD SVG 20010904//EN"
 "http://www.w3.org/TR/2001/REC-SVG-20010904/DTD/svg10.dtd">
<svg version="1.0" xmlns="http://www.w3.org/2000/svg"
 width="65.000000pt" height="54.000000pt" viewBox="0 0 65.000000 54.000000"
 preserveAspectRatio="xMidYMid meet">
<metadata>
Created by potrace 1.16, written by Peter Selinger 2001-2019
</metadata>
<g transform="translate(0.000000,54.000000) scale(0.100000,-0.100000)"
fill="#000000" stroke="none">
<path d="M393 511 l7 -31 -12 -25 -11 -24 -30 -11 -30 -10 -7 0 -7 0 -23 20
-23 20 11 25 11 24 -15 16 -15 15 -70 0 -69 0 0 -55 0 -54 -12 -25 -11 -26
-19 -6 -19 -6 -25 6 -25 7 3 -38 3 -38 37 -3 37 -3 11 -37 10 -37 0 -30 0 -30
6 -22 6 -23 37 0 36 0 37 -10 37 -11 6 -18 5 -18 -6 -18 -7 -17 14 -9 14 -9
28 0 28 0 15 15 15 14 -6 24 -6 24 86 12 86 13 13 13 13 13 13 61 13 61 19 0
19 0 15 14 14 15 0 34 0 35 -6 16 -6 16 -43 0 -43 0 -6 23 -6 22 0 55 0 55
-76 3 -77 4 6 -31z"/>
</g>
</svg>
