<?xml version="1.0" standalone="no"?>
<!DOCTYPE svg PUBLIC "-//W3C//DTD SVG 20010904//EN"
 "http://www.w3.org/TR/2001/REC-SVG-20010904/DTD/svg10.dtd">
<svg version="1.0" xmlns="http://www.w3.org/2000/svg"
 width="55.000000pt" height="67.000000pt" viewBox="0 0 55.000000 67.000000"
 preserveAspectRatio="xMidYMid meet">
<metadata>
Created by potrace 1.16, written by Peter Selinger 2001-2019
</metadata>
<g transform="translate(0.000000,67.000000) scale(0.100000,-0.100000)"
fill="#000000" stroke="none">
<path d="M188 640 l4 -30 -11 0 -11 0 0 -13 0 -14 -25 -11 -26 -12 -59 0 -60
0 0 -197 0 -198 8 -12 8 -12 69 -3 70 -3 -3 -51 -4 -51 17 -17 16 -16 24 0 24
0 26 26 27 26 -7 51 -7 50 79 -7 80 -6 14 76 13 76 17 19 17 20 26 -7 25 -6 6
25 7 25 -4 23 -3 24 -20 -2 -20 -1 -20 -7 -21 -6 -22 19 -22 19 0 61 0 60 -62
-19 -62 -20 -29 12 -28 12 6 16 6 16 6 26 5 27 -11 21 -12 21 -28 0 -28 0 5
-30z"/>
</g>
</svg>
