<?xml version="1.0" standalone="no"?>
<!DOCTYPE svg PUBLIC "-//W3C//DTD SVG 20010904//EN"
 "http://www.w3.org/TR/2001/REC-SVG-20010904/DTD/svg10.dtd">
<svg version="1.0" xmlns="http://www.w3.org/2000/svg"
 width="57.000000pt" height="69.000000pt" viewBox="0 0 57.000000 69.000000"
 preserveAspectRatio="xMidYMid meet">
<metadata>
Created by potrace 1.16, written by Peter Selinger 2001-2019
</metadata>
<g transform="translate(0.000000,69.000000) scale(0.100000,-0.100000)"
fill="#000000" stroke="none">
<path d="M185 660 l7 -30 -11 0 -11 0 0 -13 0 -14 -25 -11 -26 -12 -59 0 -60
0 0 -207 0 -208 8 -12 8 -12 69 -3 69 -3 -3 -51 -2 -51 16 -17 16 -16 34 0 34
0 27 27 26 26 -5 50 -6 49 78 -7 78 -7 14 77 13 77 16 17 15 16 24 -3 24 -4 8
14 9 13 0 43 0 43 -16 6 -17 6 -28 -10 -28 -11 -21 18 -20 17 0 62 0 61 -7 0
-8 0 -60 -19 -60 -19 -17 9 -18 9 6 44 6 43 -11 22 -12 21 -40 0 -41 0 7 -30z"/>
</g>
</svg>
