<?xml version="1.0" standalone="no"?>
<!DOCTYPE svg PUBLIC "-//W3C//DTD SVG 20010904//EN"
 "http://www.w3.org/TR/2001/REC-SVG-20010904/DTD/svg10.dtd">
<svg version="1.0" xmlns="http://www.w3.org/2000/svg"
 width="65.000000pt" height="44.000000pt" viewBox="0 0 65.000000 44.000000"
 preserveAspectRatio="xMidYMid meet">
<metadata>
Created by potrace 1.16, written by Peter Selinger 2001-2019
</metadata>
<g transform="translate(0.000000,44.000000) scale(0.100000,-0.100000)"
fill="#000000" stroke="none">
<path d="M163 433 l-43 -4 0 -53 0 -53 -11 -31 -11 -31 -33 -7 -34 -6 -10 6
-10 6 -5 -17 -6 -18 9 -30 8 -30 40 3 40 3 13 -31 12 -30 -4 -55 -5 -55 46 0
46 0 39 10 39 9 9 13 9 13 -6 37 -5 38 46 0 46 0 -6 -34 -6 -34 17 -7 18 -7
63 -14 63 -13 12 5 12 4 2 52 2 51 12 29 12 29 25 -6 25 -6 8 13 9 13 0 49 0
49 -41 -6 -42 -5 -15 15 -16 15 -4 60 -5 60 -21 -6 -21 -6 -43 0 -44 0 7 -29
6 -29 -16 -16 -16 -16 -44 0 -44 0 -15 16 -16 15 0 40 0 39 -27 -2 -28 -1 -42
-4z"/>
</g>
</svg>
