<?xml version="1.0" standalone="no"?>
<!DOCTYPE svg PUBLIC "-//W3C//DTD SVG 20010904//EN"
 "http://www.w3.org/TR/2001/REC-SVG-20010904/DTD/svg10.dtd">
<svg version="1.0" xmlns="http://www.w3.org/2000/svg"
 width="67.000000pt" height="46.000000pt" viewBox="0 0 67.000000 46.000000"
 preserveAspectRatio="xMidYMid meet">
<metadata>
Created by potrace 1.16, written by Peter Selinger 2001-2019
</metadata>
<g transform="translate(0.000000,46.000000) scale(0.100000,-0.100000)"
fill="#000000" stroke="none">
<path d="M153 453 l-53 -4 0 -15 0 -14 10 0 10 0 0 -39 0 -38 -11 -31 -10 -30
-22 -6 -23 -5 -21 5 -22 6 -6 -24 -6 -25 9 -34 9 -34 40 2 41 2 12 -30 13 -30
-7 -54 -6 -55 57 0 58 0 39 10 39 9 9 13 9 13 -3 38 -4 37 33 0 32 0 -6 -33
-5 -34 28 -10 29 -11 57 -12 58 -11 18 5 18 6 1 50 1 50 11 29 12 28 26 -5 25
-5 9 14 9 14 0 59 0 58 -44 -3 -43 -4 -14 14 -13 14 -4 60 -5 59 -36 -6 -36
-6 -38 0 -38 0 3 -36 2 -35 -14 -9 -15 -10 -32 0 -32 0 -15 16 -16 15 0 40 0
39 -37 -2 -38 -2 -52 -3z"/>
</g>
</svg>
