<?xml version="1.0" standalone="no"?>
<!DOCTYPE svg PUBLIC "-//W3C//DTD SVG 20010904//EN"
 "http://www.w3.org/TR/2001/REC-SVG-20010904/DTD/svg10.dtd">
<svg version="1.0" xmlns="http://www.w3.org/2000/svg"
 width="48.000000pt" height="46.000000pt" viewBox="0 0 48.000000 46.000000"
 preserveAspectRatio="xMidYMid meet">
<metadata>
Created by potrace 1.16, written by Peter Selinger 2001-2019
</metadata>
<g transform="translate(0.000000,46.000000) scale(0.100000,-0.100000)"
fill="#000000" stroke="none">
<path d="M27 453 l-5 -8 -7 -79 -8 -79 26 6 25 7 31 -11 31 -11 6 -24 6 -25
-23 -20 -23 -20 -44 7 -45 7 8 -69 7 -69 0 -32 -1 -33 80 0 80 0 16 15 15 16
-7 54 -6 55 15 6 16 6 28 -11 28 -12 -4 -28 -4 -28 16 -16 16 -15 50 -11 51
-11 22 0 22 0 14 9 13 9 -7 43 -7 44 -9 38 -10 37 -38 0 -39 0 -6 16 -6 16 0
18 0 18 14 5 15 6 35 -6 36 -6 0 12 0 11 15 0 15 0 0 85 0 85 -224 0 -225 0
-4 -7z"/>
</g>
</svg>
