<?xml version="1.0" standalone="no"?>
<!DOCTYPE svg PUBLIC "-//W3C//DTD SVG 20010904//EN"
 "http://www.w3.org/TR/2001/REC-SVG-20010904/DTD/svg10.dtd">
<svg version="1.0" xmlns="http://www.w3.org/2000/svg"
 width="45.000000pt" height="48.000000pt" viewBox="0 0 45.000000 48.000000"
 preserveAspectRatio="xMidYMid meet">
<metadata>
Created by potrace 1.16, written by Peter Selinger 2001-2019
</metadata>
<g transform="translate(0.000000,48.000000) scale(0.100000,-0.100000)"
fill="#000000" stroke="none">
<path d="M6 418 l5 -63 5 -32 5 -33 43 0 44 0 6 -16 6 -16 0 -25 0 -24 -14
-15 -15 -14 -18 0 -19 0 -16 -62 -16 -63 -7 -22 -7 -23 72 0 71 0 15 14 14 15
-2 28 -2 29 8 12 7 12 24 0 24 0 7 -12 8 -12 -3 -43 -2 -42 26 -7 26 -6 74 7
75 7 0 9 0 10 -10 42 -9 42 -6 47 -6 47 -36 -1 -37 -1 -4 11 -4 12 -14 0 -14
0 0 11 0 10 17 17 17 17 50 0 51 0 3 98 3 97 -15 0 -14 0 -4 -11 -3 -10 -45
-5 -45 -5 -34 -5 -33 -5 5 -34 6 -34 -6 -20 -5 -20 -20 -7 -19 -6 -21 24 -20
23 5 47 6 46 -16 6 -16 7 -59 -7 -58 -7 0 12 0 11 -19 0 -19 0 4 -62z"/>
</g>
</svg>
