<?xml version="1.0" standalone="no"?>
<!DOCTYPE svg PUBLIC "-//W3C//DTD SVG 20010904//EN"
 "http://www.w3.org/TR/2001/REC-SVG-20010904/DTD/svg10.dtd">
<svg version="1.0" xmlns="http://www.w3.org/2000/svg"
 width="46.000000pt" height="44.000000pt" viewBox="0 0 46.000000 44.000000"
 preserveAspectRatio="xMidYMid meet">
<metadata>
Created by potrace 1.16, written by Peter Selinger 2001-2019
</metadata>
<g transform="translate(0.000000,44.000000) scale(0.100000,-0.100000)"
fill="#000000" stroke="none">
<path d="M27 433 l-5 -8 -7 -69 -7 -68 12 7 11 7 34 -6 34 -7 16 -15 15 -15 0
-25 0 -25 -14 -15 -14 -14 -28 -10 -27 -11 -11 11 -10 10 -14 0 -15 0 8 -58 8
-57 1 -32 1 -33 68 0 68 0 14 14 14 14 -2 58 -2 59 23 3 24 4 29 -13 30 -12
-6 -27 -6 -28 15 -15 16 -16 55 -11 55 -11 20 6 21 7 -7 36 -6 37 -9 38 -10
37 -38 0 -39 0 -6 16 -6 16 0 28 0 29 20 6 20 6 30 -6 30 -7 0 11 0 11 15 0
15 0 0 75 0 75 -214 0 -215 0 -4 -7z"/>
</g>
</svg>
