<?xml version="1.0" standalone="no"?>
<!DOCTYPE svg PUBLIC "-//W3C//DTD SVG 20010904//EN"
 "http://www.w3.org/TR/2001/REC-SVG-20010904/DTD/svg10.dtd">
<svg version="1.0" xmlns="http://www.w3.org/2000/svg"
 width="43.000000pt" height="46.000000pt" viewBox="0 0 43.000000 46.000000"
 preserveAspectRatio="xMidYMid meet">
<metadata>
Created by potrace 1.16, written by Peter Selinger 2001-2019
</metadata>
<g transform="translate(0.000000,46.000000) scale(0.100000,-0.100000)"
fill="#000000" stroke="none">
<path d="M420 452 l-5 -13 -45 -5 -45 -5 -31 -5 -30 -4 0 -50 1 -51 -15 -9
-15 -10 -19 0 -19 0 -19 22 -20 23 4 47 3 48 -11 4 -10 4 -67 -5 -67 -6 0 -51
0 -51 6 -22 6 -23 43 0 43 0 6 -16 6 -16 0 -35 0 -34 -14 -15 -15 -14 -19 0
-19 0 -13 -57 -12 -58 -9 -17 -10 -18 61 0 61 0 15 15 15 15 -6 20 -6 19 11
21 11 20 34 0 34 0 10 -19 10 -18 -6 -36 -5 -35 22 -7 22 -7 69 7 70 7 -6 16
-5 15 -10 66 -10 66 0 6 0 5 -37 0 -37 0 -4 12 -4 12 -14 0 -14 0 0 21 0 20
17 17 16 17 51 1 51 2 3 46 3 47 -3 42 -3 42 -5 -13z"/>
</g>
</svg>
