<?xml version="1.0" standalone="no"?>
<!DOCTYPE svg PUBLIC "-//W3C//DTD SVG 20010904//EN"
 "http://www.w3.org/TR/2001/REC-SVG-20010904/DTD/svg10.dtd">
<svg version="1.0" xmlns="http://www.w3.org/2000/svg"
 width="48.000000pt" height="54.000000pt" viewBox="0 0 48.000000 54.000000"
 preserveAspectRatio="xMidYMid meet">
<metadata>
Created by potrace 1.16, written by Peter Selinger 2001-2019
</metadata>
<g transform="translate(0.000000,54.000000) scale(0.100000,-0.100000)"
fill="#000000" stroke="none">
<path d="M169 519 l-11 -21 4 -22 4 -22 -13 -13 -14 -13 -67 4 -67 3 -3 -70
-3 -70 6 -23 6 -24 47 6 47 6 14 -9 13 -9 -7 -21 -7 -22 -39 6 -39 7 -14 -15
-15 -15 -7 -91 -7 -91 237 0 237 0 -6 58 -7 57 -9 38 -10 37 -35 0 -35 0 3 27
3 28 41 -3 40 -3 12 26 12 26 0 71 0 71 -84 -7 -84 -6 -16 6 -16 6 6 33 6 33
-11 21 -12 21 -44 0 -44 0 -12 -21z"/>
</g>
</svg>
