<?xml version="1.0" standalone="no"?>
<!DOCTYPE svg PUBLIC "-//W3C//DTD SVG 20010904//EN"
 "http://www.w3.org/TR/2001/REC-SVG-20010904/DTD/svg10.dtd">
<svg version="1.0" xmlns="http://www.w3.org/2000/svg"
 width="46.000000pt" height="58.000000pt" viewBox="0 0 46.000000 58.000000"
 preserveAspectRatio="xMidYMid meet">
<metadata>
Created by potrace 1.16, written by Peter Selinger 2001-2019
</metadata>
<g transform="translate(0.000000,58.000000) scale(0.100000,-0.100000)"
fill="#000000" stroke="none">
<path d="M181 571 l-14 -9 7 -51 7 -52 -16 -15 -15 -16 -75 4 -75 3 0 -47 0
-47 12 -28 13 -28 20 -18 20 -19 33 6 33 5 -3 -27 -3 -27 -29 2 -28 2 -16 -15
-15 -16 -13 -76 -14 -76 4 -4 4 -3 72 -10 73 -10 8 13 9 13 0 47 0 47 19 11
20 10 10 0 11 0 20 -20 21 -21 -7 -34 -6 -34 15 -16 16 -15 43 0 43 0 24 7 23
6 -5 51 -5 51 -13 28 -12 27 -28 0 -27 0 -6 16 -6 16 0 26 0 27 9 14 9 14 12
-8 11 -7 34 6 34 7 11 37 10 37 0 38 0 37 -22 10 -23 9 -57 11 -58 11 -16 16
-15 15 6 27 6 27 -26 12 -26 12 -17 0 -17 0 -14 -9z"/>
</g>
</svg>
