<?xml version="1.0" standalone="no"?>
<!DOCTYPE svg PUBLIC "-//W3C//DTD SVG 20010904//EN"
 "http://www.w3.org/TR/2001/REC-SVG-20010904/DTD/svg10.dtd">
<svg version="1.0" xmlns="http://www.w3.org/2000/svg"
 width="48.000000pt" height="60.000000pt" viewBox="0 0 48.000000 60.000000"
 preserveAspectRatio="xMidYMid meet">
<metadata>
Created by potrace 1.16, written by Peter Selinger 2001-2019
</metadata>
<g transform="translate(0.000000,60.000000) scale(0.100000,-0.100000)"
fill="#000000" stroke="none">
<path d="M181 591 l-14 -9 5 -54 6 -53 -15 -14 -15 -14 -74 5 -74 5 0 -58 0
-58 12 -28 13 -28 19 -18 19 -17 34 0 35 0 -5 -12 -4 -13 -27 3 -27 4 -18 -21
-17 -20 -13 -81 -12 -82 5 -5 5 -5 81 -10 82 -11 9 14 9 14 0 47 0 47 19 10
18 10 19 -13 18 -14 -2 -41 -3 -42 15 -14 15 -15 53 0 53 0 24 7 23 6 -5 61
-5 61 -12 28 -13 27 -28 0 -29 0 -6 25 -6 25 6 15 5 15 28 0 28 0 22 6 23 6
10 37 10 36 0 48 0 47 -22 10 -23 9 -55 11 -55 11 -15 9 -14 9 2 34 2 34 -25
11 -26 12 -27 0 -27 0 -14 -9z"/>
</g>
</svg>
