<?xml version="1.0" standalone="no"?>
<!DOCTYPE svg PUBLIC "-//W3C//DTD SVG 20010904//EN"
 "http://www.w3.org/TR/2001/REC-SVG-20010904/DTD/svg10.dtd">
<svg version="1.0" xmlns="http://www.w3.org/2000/svg"
 width="46.000000pt" height="52.000000pt" viewBox="0 0 46.000000 52.000000"
 preserveAspectRatio="xMidYMid meet">
<metadata>
Created by potrace 1.16, written by Peter Selinger 2001-2019
</metadata>
<g transform="translate(0.000000,52.000000) scale(0.100000,-0.100000)"
fill="#000000" stroke="none">
<path d="M170 500 l-11 -21 6 -19 6 -20 -15 -16 -16 -15 -67 2 -68 3 -3 -59
-3 -59 6 -23 6 -24 34 7 35 6 25 -6 25 -6 0 -23 0 -22 -9 -14 -9 -14 -37 6
-37 6 -13 -13 -13 -13 -7 -81 -8 -82 227 0 226 0 -6 47 -6 48 -9 38 -10 37
-35 0 -35 0 3 38 3 37 41 -3 40 -3 12 26 12 26 0 61 0 60 -87 -6 -88 -7 -14
10 -14 9 6 32 7 32 -10 19 -11 19 -34 0 -34 0 -11 -20z"/>
</g>
</svg>
