<?xml version="1.0" standalone="no"?>
<!DOCTYPE svg PUBLIC "-//W3C//DTD SVG 20010904//EN"
 "http://www.w3.org/TR/2001/REC-SVG-20010904/DTD/svg10.dtd">
<svg version="1.0" xmlns="http://www.w3.org/2000/svg"
 width="46.000000pt" height="70.000000pt" viewBox="0 0 46.000000 70.000000"
 preserveAspectRatio="xMidYMid meet">
<metadata>
Created by potrace 1.16, written by Peter Selinger 2001-2019
</metadata>
<g transform="translate(0.000000,70.000000) scale(0.100000,-0.100000)"
fill="#000000" stroke="none">
<path d="M173 663 l6 -38 -8 -13 -8 -13 -39 -9 -39 -10 -42 0 -43 0 0 -67 0
-68 9 -14 9 -14 51 6 51 6 15 -15 15 -15 0 -9 0 -9 -12 -26 -12 -26 -25 6 -26
5 -11 -8 -11 -7 -7 -40 -8 -39 -14 -28 -14 -27 0 -26 0 -27 68 4 67 3 5 -56 5
-55 17 -17 17 -17 28 0 28 0 15 10 15 9 0 51 0 50 30 4 30 5 44 5 44 4 9 14 9
13 -6 68 -5 69 -15 15 -15 14 -28 -3 -27 -3 -3 31 -3 31 46 5 46 6 5 5 6 5 9
39 9 38 0 58 0 58 -22 -2 -23 -3 -45 8 -45 7 -25 10 -26 10 4 34 4 35 -57 0
-58 0 6 -37z"/>
</g>
</svg>
