<?xml version="1.0" standalone="no"?>
<!DOCTYPE svg PUBLIC "-//W3C//DTD SVG 20010904//EN"
 "http://www.w3.org/TR/2001/REC-SVG-20010904/DTD/svg10.dtd">
<svg version="1.0" xmlns="http://www.w3.org/2000/svg"
 width="44.000000pt" height="68.000000pt" viewBox="0 0 44.000000 68.000000"
 preserveAspectRatio="xMidYMid meet">
<metadata>
Created by potrace 1.16, written by Peter Selinger 2001-2019
</metadata>
<g transform="translate(0.000000,68.000000) scale(0.100000,-0.100000)"
fill="#000000" stroke="none">
<path d="M175 643 l6 -38 -9 -13 -9 -13 -39 -9 -39 -10 -42 0 -43 0 0 -57 0
-58 9 -14 9 -13 49 7 50 6 17 -16 16 -16 0 -19 0 -19 -12 -26 -12 -26 -25 2
-26 1 -11 -1 -11 -1 -7 -41 -7 -41 -14 -29 -15 -28 0 -17 0 -17 63 5 62 6 10
-4 10 -4 -3 -48 -4 -47 20 -23 19 -22 19 0 19 0 15 10 15 9 -1 51 0 50 30 4
31 5 44 5 44 4 9 14 9 13 -6 59 -6 59 -13 13 -14 13 -28 -2 -29 -2 -3 45 -3
45 45 0 44 0 7 7 7 6 9 39 9 38 0 49 0 48 -15 -5 -14 -6 -63 13 -63 14 -18 7
-17 7 6 34 6 34 -46 0 -46 0 5 -37z"/>
</g>
</svg>
