<?xml version="1.0" standalone="no"?>
<!DOCTYPE svg PUBLIC "-//W3C//DTD SVG 20010904//EN"
 "http://www.w3.org/TR/2001/REC-SVG-20010904/DTD/svg10.dtd">
<svg version="1.0" xmlns="http://www.w3.org/2000/svg"
 width="48.000000pt" height="68.000000pt" viewBox="0 0 48.000000 68.000000"
 preserveAspectRatio="xMidYMid meet">
<metadata>
Created by potrace 1.16, written by Peter Selinger 2001-2019
</metadata>
<g transform="translate(0.000000,68.000000) scale(0.100000,-0.100000)"
fill="#000000" stroke="none">
<path d="M198 669 l-18 -10 0 -47 0 -47 -8 -12 -8 -12 -66 9 -67 10 -15 -6
-16 -6 0 -69 0 -68 12 -26 12 -26 35 1 36 2 13 -1 12 -1 0 -35 0 -35 -54 0
-54 0 -6 -16 -6 -16 0 -68 0 -68 16 -6 16 -6 59 0 59 0 -6 -28 -6 -27 21 -24
21 -24 49 -5 50 -4 16 16 16 16 -3 28 -3 27 83 9 82 8 -1 27 -1 26 7 63 8 63
-39 -2 -39 -2 -22 7 -23 7 0 10 0 9 -14 0 -14 0 -6 16 -6 16 0 9 0 9 15 0 15
0 0 11 0 12 55 -6 55 -6 0 72 0 72 7 24 6 24 -29 -7 -29 -7 -47 -6 -47 -5 -15
15 -15 15 6 35 5 35 -21 21 -21 21 -22 0 -23 -1 -17 -10z"/>
</g>
</svg>
