<?xml version="1.0" standalone="no"?>
<!DOCTYPE svg PUBLIC "-//W3C//DTD SVG 20010904//EN"
 "http://www.w3.org/TR/2001/REC-SVG-20010904/DTD/svg10.dtd">
<svg version="1.0" xmlns="http://www.w3.org/2000/svg"
 width="46.000000pt" height="66.000000pt" viewBox="0 0 46.000000 66.000000"
 preserveAspectRatio="xMidYMid meet">
<metadata>
Created by potrace 1.16, written by Peter Selinger 2001-2019
</metadata>
<g transform="translate(0.000000,66.000000) scale(0.100000,-0.100000)"
fill="#000000" stroke="none">
<path d="M198 649 l-18 -10 0 -47 0 -47 -9 -13 -8 -13 -69 9 -69 9 -12 -4 -13
-5 0 -59 0 -58 12 -26 12 -27 36 6 35 5 14 -8 14 -9 -1 -38 -2 -38 -11 -7 -12
-7 -39 6 -40 5 -9 -14 -9 -14 0 -62 0 -63 25 -6 24 -6 52 4 51 3 -5 -32 -6
-32 19 -21 19 -22 40 -5 40 -5 15 15 15 15 -2 28 -2 29 81 8 81 9 0 26 -1 27
9 54 8 54 -31 -6 -31 -6 -31 10 -30 11 0 9 0 9 -14 0 -14 0 -6 16 -6 16 0 19
0 19 15 0 15 0 0 11 0 11 54 -4 55 -3 3 83 3 82 -15 -6 -15 -7 -57 -5 -57 -4
-17 16 -16 17 6 34 7 34 -21 21 -20 20 -12 0 -13 -1 -17 -10z"/>
</g>
</svg>
