<?xml version="1.0" standalone="no"?>
<!DOCTYPE svg PUBLIC "-//W3C//DTD SVG 20010904//EN"
 "http://www.w3.org/TR/2001/REC-SVG-20010904/DTD/svg10.dtd">
<svg version="1.0" xmlns="http://www.w3.org/2000/svg"
 width="55.000000pt" height="54.000000pt" viewBox="0 0 55.000000 54.000000"
 preserveAspectRatio="xMidYMid meet">
<metadata>
Created by potrace 1.16, written by Peter Selinger 2001-2019
</metadata>
<g transform="translate(0.000000,54.000000) scale(0.100000,-0.100000)"
fill="#000000" stroke="none">
<path d="M172 533 l-63 -4 6 -43 7 -42 -11 -41 -11 -41 -15 -6 -15 -5 -29 5
-28 6 -5 -24 -4 -23 4 -17 3 -17 14 6 14 5 14 -14 14 -13 7 -30 7 -30 16 -54
16 -53 69 6 68 7 0 -40 0 -40 16 -15 15 -16 44 0 44 0 16 16 16 16 -6 29 -7
29 40 0 40 0 29 6 30 6 12 50 11 50 0 35 0 35 -30 -7 -30 -7 -35 12 -35 12 0
13 0 13 -11 4 -12 4 7 21 7 21 29 12 30 12 30 -4 30 -5 0 74 0 74 -72 -7 -73
-7 -8 -4 -9 -5 6 -25 7 -24 -16 -16 -16 -15 -40 5 -40 5 -19 22 -19 21 6 35 6
34 -4 -2 -4 -2 -63 -3z"/>
</g>
</svg>
