<?xml version="1.0" standalone="no"?>
<!DOCTYPE svg PUBLIC "-//W3C//DTD SVG 20010904//EN"
 "http://www.w3.org/TR/2001/REC-SVG-20010904/DTD/svg10.dtd">
<svg version="1.0" xmlns="http://www.w3.org/2000/svg"
 width="57.000000pt" height="56.000000pt" viewBox="0 0 57.000000 56.000000"
 preserveAspectRatio="xMidYMid meet">
<metadata>
Created by potrace 1.16, written by Peter Selinger 2001-2019
</metadata>
<g transform="translate(0.000000,56.000000) scale(0.100000,-0.100000)"
fill="#000000" stroke="none">
<path d="M171 553 l-64 -4 7 -46 6 -46 -10 -38 -11 -39 -12 -1 -12 -1 -31 2
-31 1 -6 -29 -6 -29 6 -22 6 -23 16 5 17 4 10 -11 11 -12 7 -29 7 -30 16 -54
17 -54 68 6 68 6 0 -39 0 -39 16 -15 15 -16 54 0 54 0 16 17 17 16 -4 29 -5
28 37 0 38 0 29 6 30 6 12 50 11 50 0 45 0 46 -35 -6 -35 -6 -30 11 -30 10 0
14 0 14 -10 0 -9 0 5 14 5 14 29 12 29 12 30 -7 31 -7 0 87 0 87 -82 -7 -83
-7 -8 -5 -9 -5 4 -27 4 -27 -14 -13 -14 -13 -29 6 -30 6 -15 14 -14 15 0 40 0
41 -12 -2 -13 -2 -64 -3z"/>
</g>
</svg>
