<?xml version="1.0" standalone="no"?>
<!DOCTYPE svg PUBLIC "-//W3C//DTD SVG 20010904//EN"
 "http://www.w3.org/TR/2001/REC-SVG-20010904/DTD/svg10.dtd">
<svg version="1.0" xmlns="http://www.w3.org/2000/svg"
 width="46.000000pt" height="56.000000pt" viewBox="0 0 46.000000 56.000000"
 preserveAspectRatio="xMidYMid meet">
<metadata>
Created by potrace 1.16, written by Peter Selinger 2001-2019
</metadata>
<g transform="translate(0.000000,56.000000) scale(0.100000,-0.100000)"
fill="#000000" stroke="none">
<path d="M2 341 l3 -216 60 -5 60 -5 13 -8 12 -8 0 -22 0 -22 6 -22 6 -21 24
-6 24 -6 23 11 22 12 7 11 8 11 -6 33 -6 32 44 0 45 0 47 6 47 7 -6 14 -5 15
15 44 15 45 0 34 0 33 -37 -10 -37 -10 -40 12 -41 12 -7 12 -8 11 0 12 0 12
16 16 17 16 51 -2 51 -3 -3 79 -3 79 -4 4 -3 4 -63 5 -62 6 7 -35 6 -35 -18
-21 -19 -21 -27 -11 -27 -10 -27 7 -27 6 -13 14 -14 14 6 34 7 34 -33 5 -33 5
-38 4 -37 3 2 -215z"/>
</g>
</svg>
