<?xml version="1.0" standalone="no"?>
<!DOCTYPE svg PUBLIC "-//W3C//DTD SVG 20010904//EN"
 "http://www.w3.org/TR/2001/REC-SVG-20010904/DTD/svg10.dtd">
<svg version="1.0" xmlns="http://www.w3.org/2000/svg"
 width="48.000000pt" height="58.000000pt" viewBox="0 0 48.000000 58.000000"
 preserveAspectRatio="xMidYMid meet">
<metadata>
Created by potrace 1.16, written by Peter Selinger 2001-2019
</metadata>
<g transform="translate(0.000000,58.000000) scale(0.100000,-0.100000)"
fill="#000000" stroke="none">
<path d="M2 352 l3 -227 60 -5 60 -5 13 -8 12 -8 0 -22 0 -22 6 -22 6 -22 30
-6 29 -7 30 12 29 13 6 23 6 23 -7 20 -6 21 44 0 44 0 47 6 47 7 -2 21 -2 21
11 40 12 40 0 43 0 42 -8 0 -7 0 -34 -10 -35 -10 -37 12 -38 11 -5 13 -5 13
16 16 16 17 51 -4 51 -3 -3 89 -2 90 -5 4 -4 5 -71 5 -71 5 2 -41 3 -41 -24
-21 -23 -20 -16 -1 -16 -1 -19 2 -19 2 -13 13 -13 13 6 35 5 36 -33 5 -34 5
-48 5 -47 6 2 -228z"/>
</g>
</svg>
