<?xml version="1.0" standalone="no"?>
<!DOCTYPE svg PUBLIC "-//W3C//DTD SVG 20010904//EN"
 "http://www.w3.org/TR/2001/REC-SVG-20010904/DTD/svg10.dtd">
<svg version="1.0" xmlns="http://www.w3.org/2000/svg"
 width="64.000000pt" height="43.000000pt" viewBox="0 0 64.000000 43.000000"
 preserveAspectRatio="xMidYMid meet">
<metadata>
Created by potrace 1.16, written by Peter Selinger 2001-2019
</metadata>
<g transform="translate(0.000000,43.000000) scale(0.100000,-0.100000)"
fill="#000000" stroke="none">
<path d="M90 419 l0 -10 10 6 10 6 0 5 0 4 -10 0 -10 0 0 -11z M110 355 l0
-64 -12 -26 -12 -26 -40 3 -41 3 -3 -37 -3 -38 35 0 35 0 10 -38 11 -37 0 -25
0 -25 6 -22 6 -23 207 0 207 0 11 33 11 32 7 38 6 39 11 24 11 24 34 -6 33 -6
0 34 0 34 -13 19 -14 18 -30 -10 -29 -11 -19 14 -18 14 0 61 1 61 -25 -7 -25
-6 -32 -5 -31 -5 -23 -5 -23 -5 7 -34 6 -34 -15 -16 -16 -15 -25 0 -25 0 -25
12 -26 11 -5 17 -6 18 13 27 12 27 -19 14 -19 14 -53 0 -53 0 0 -65z"/>
</g>
</svg>
