<?xml version="1.0" standalone="no"?>
<!DOCTYPE svg PUBLIC "-//W3C//DTD SVG 20010904//EN"
 "http://www.w3.org/TR/2001/REC-SVG-20010904/DTD/svg10.dtd">
<svg version="1.0" xmlns="http://www.w3.org/2000/svg"
 width="58.000000pt" height="60.000000pt" viewBox="0 0 58.000000 60.000000"
 preserveAspectRatio="xMidYMid meet">
<metadata>
Created by potrace 1.16, written by Peter Selinger 2001-2019
</metadata>
<g transform="translate(0.000000,60.000000) scale(0.100000,-0.100000)"
fill="#000000" stroke="none">
<path d="M313 548 l7 -53 -24 -28 -23 -27 -30 0 -30 0 -22 20 -23 19 7 49 6
49 -83 6 -83 6 -9 -9 -8 -8 4 -65 4 -64 17 -17 17 -18 40 7 40 7 0 -35 0 -35
-5 -14 -6 -14 -28 4 -28 4 -11 -29 -11 -28 -7 -47 -6 -46 7 -21 6 -21 55 0 55
0 19 -10 19 -10 -10 -32 -9 -33 0 -17 0 -18 15 0 15 0 0 -10 0 -10 43 0 44 0
23 20 22 19 -4 24 -5 24 46 12 46 12 28 6 27 5 0 24 0 25 -14 34 -14 33 -2 29
-2 28 1 10 1 10 66 1 66 0 9 15 9 14 0 33 0 33 -44 -2 -44 -3 -15 16 -16 16
-2 38 -2 39 7 40 7 41 -82 2 -82 2 6 -52z"/>
</g>
</svg>
