<?xml version="1.0" standalone="no"?>
<!DOCTYPE svg PUBLIC "-//W3C//DTD SVG 20010904//EN"
 "http://www.w3.org/TR/2001/REC-SVG-20010904/DTD/svg10.dtd">
<svg version="1.0" xmlns="http://www.w3.org/2000/svg"
 width="56.000000pt" height="58.000000pt" viewBox="0 0 56.000000 58.000000"
 preserveAspectRatio="xMidYMid meet">
<metadata>
Created by potrace 1.16, written by Peter Selinger 2001-2019
</metadata>
<g transform="translate(0.000000,58.000000) scale(0.100000,-0.100000)"
fill="#000000" stroke="none">
<path d="M315 528 l6 -53 -24 -27 -24 -28 -40 0 -40 0 -23 20 -23 20 6 50 6
50 -59 1 -60 2 -17 1 -18 1 0 -61 0 -60 16 -16 16 -16 42 5 41 6 0 -49 0 -49
-9 -13 -8 -13 -25 6 -25 6 -11 -28 -10 -28 -7 -38 -6 -38 6 -19 6 -20 58 0 57
0 18 -13 18 -13 -11 -40 -11 -39 0 -7 0 -8 15 0 15 0 0 -10 0 -10 33 0 34 0
22 19 22 19 -6 24 -6 24 48 13 48 12 28 6 27 5 0 14 0 14 -14 37 -14 38 -6 35
-6 35 8 11 7 11 63 0 64 0 9 14 9 14 0 24 0 24 -39 -7 -38 -6 -22 19 -22 19
-1 59 -2 58 7 20 7 20 -71 3 -71 3 7 -53z"/>
</g>
</svg>
