<?xml version="1.0" standalone="no"?>
<!DOCTYPE svg PUBLIC "-//W3C//DTD SVG 20010904//EN"
 "http://www.w3.org/TR/2001/REC-SVG-20010904/DTD/svg10.dtd">
<svg version="1.0" xmlns="http://www.w3.org/2000/svg"
 width="66.000000pt" height="45.000000pt" viewBox="0 0 66.000000 45.000000"
 preserveAspectRatio="xMidYMid meet">
<metadata>
Created by potrace 1.16, written by Peter Selinger 2001-2019
</metadata>
<g transform="translate(0.000000,45.000000) scale(0.100000,-0.100000)"
fill="#000000" stroke="none">
<path d="M90 429 l0 -19 10 0 10 0 0 -50 0 -49 -11 -25 -12 -25 -41 2 -41 2
-3 -47 -3 -48 35 0 35 0 10 -38 11 -37 0 -25 0 -25 6 -23 6 -22 217 0 217 0
11 32 11 33 7 38 6 39 10 22 10 22 35 -4 34 -4 0 42 0 41 -11 21 -11 20 -36
-6 -37 -5 -14 8 -13 9 1 61 1 61 -14 0 -14 0 -54 -11 -53 -11 -24 -4 -23 -5 5
-36 6 -35 -14 -14 -14 -14 -16 0 -16 0 -22 11 -22 12 -7 10 -7 11 10 17 9 18
0 20 0 20 -17 9 -18 9 -72 6 -73 6 0 -20z"/>
</g>
</svg>
