<?xml version="1.0" standalone="no"?>
<!DOCTYPE svg PUBLIC "-//W3C//DTD SVG 20010904//EN"
 "http://www.w3.org/TR/2001/REC-SVG-20010904/DTD/svg10.dtd">
<svg version="1.0" xmlns="http://www.w3.org/2000/svg"
 width="60.000000pt" height="44.000000pt" viewBox="0 0 60.000000 44.000000"
 preserveAspectRatio="xMidYMid meet">
<metadata>
Created by potrace 1.16, written by Peter Selinger 2001-2019
</metadata>
<g transform="translate(0.000000,44.000000) scale(0.100000,-0.100000)"
fill="#000000" stroke="none">
<path d="M137 433 l-7 -6 0 -69 0 -68 -15 0 -15 0 0 -11 0 -11 -30 7 -30 6
-20 -6 -20 -6 0 -29 0 -28 6 -16 6 -16 38 0 39 0 5 -17 6 -18 10 -54 10 -55
-12 -8 -13 -8 15 -10 15 -10 35 0 35 0 38 9 39 9 6 7 7 6 -1 40 -1 39 52 0 53
0 -5 -19 -5 -19 56 -21 56 -21 40 -6 39 -6 6 28 7 29 10 27 10 28 -6 25 -6 24
-60 -2 -61 -2 -9 15 -10 15 2 35 3 35 53 6 53 7 4 4 4 4 -6 72 -6 72 -207 0
-207 0 -6 -7z"/>
</g>
</svg>
