<?xml version="1.0" standalone="no"?>
<!DOCTYPE svg PUBLIC "-//W3C//DTD SVG 20010904//EN"
 "http://www.w3.org/TR/2001/REC-SVG-20010904/DTD/svg10.dtd">
<svg version="1.0" xmlns="http://www.w3.org/2000/svg"
 width="62.000000pt" height="46.000000pt" viewBox="0 0 62.000000 46.000000"
 preserveAspectRatio="xMidYMid meet">
<metadata>
Created by potrace 1.16, written by Peter Selinger 2001-2019
</metadata>
<g transform="translate(0.000000,46.000000) scale(0.100000,-0.100000)"
fill="#000000" stroke="none">
<path d="M137 453 l-7 -6 0 -69 0 -68 -15 0 -15 0 0 -9 0 -8 -25 5 -25 4 -25
-6 -25 -6 0 -39 0 -39 6 -16 6 -16 38 0 39 0 5 -17 6 -18 9 -47 8 -48 -8 0 -9
0 0 -20 0 -20 26 -6 26 -7 57 6 58 6 16 7 16 6 7 33 6 34 -7 10 -6 11 40 0 41
0 0 -19 0 -20 57 -21 58 -22 47 -5 47 -6 6 29 6 29 10 23 9 23 0 27 0 27 -8
13 -8 12 -58 -2 -57 -2 -10 14 -9 15 2 25 3 25 53 6 53 7 5 5 5 4 -7 82 -7 81
-217 0 -217 0 -6 -7z"/>
</g>
</svg>
