<?xml version="1.0" standalone="no"?>
<!DOCTYPE svg PUBLIC "-//W3C//DTD SVG 20010904//EN"
 "http://www.w3.org/TR/2001/REC-SVG-20010904/DTD/svg10.dtd">
<svg version="1.0" xmlns="http://www.w3.org/2000/svg"
 width="61.000000pt" height="69.000000pt" viewBox="0 0 61.000000 69.000000"
 preserveAspectRatio="xMidYMid meet">
<metadata>
Created by potrace 1.16, written by Peter Selinger 2001-2019
</metadata>
<g transform="translate(0.000000,69.000000) scale(0.100000,-0.100000)"
fill="#000000" stroke="none">
<path d="M302 683 l-13 -5 7 -34 6 -35 -22 -19 -22 -19 -42 -6 -42 -7 -20 4
-19 3 -3 -76 -3 -75 -30 4 -29 4 -30 -12 -29 -12 -7 -21 -7 -21 12 -4 11 -4 0
-13 0 -13 35 -12 35 -12 32 7 31 7 -6 -58 -6 -59 -6 -21 -7 -21 24 -6 23 -7
52 0 52 0 -6 -50 -6 -50 23 -20 23 -20 40 0 40 0 24 27 24 28 -6 54 -7 54 65
-7 65 -6 16 15 15 16 11 37 10 37 0 23 0 23 -14 14 -13 13 -40 -5 -40 -5 -22
12 -22 11 3 27 3 27 40 1 40 1 18 1 17 2 0 84 0 83 -57 -13 -58 -14 -17 0 -17
0 -14 15 -15 14 6 47 5 47 -18 14 -19 13 -30 -1 -31 -1 -13 -5z"/>
</g>
</svg>
