<?xml version="1.0" standalone="no"?>
<!DOCTYPE svg PUBLIC "-//W3C//DTD SVG 20010904//EN"
 "http://www.w3.org/TR/2001/REC-SVG-20010904/DTD/svg10.dtd">
<svg version="1.0" xmlns="http://www.w3.org/2000/svg"
 width="63.000000pt" height="71.000000pt" viewBox="0 0 63.000000 71.000000"
 preserveAspectRatio="xMidYMid meet">
<metadata>
Created by potrace 1.16, written by Peter Selinger 2001-2019
</metadata>
<g transform="translate(0.000000,71.000000) scale(0.100000,-0.100000)"
fill="#000000" stroke="none">
<path d="M301 701 l-14 -9 7 -32 6 -33 -21 -18 -20 -17 -37 -6 -37 -5 -25 2
-25 2 -3 -72 -3 -73 -35 0 -35 0 -22 -11 -22 -12 -7 -11 -8 -11 0 -22 0 -23
10 0 10 0 0 -14 0 -14 36 -12 36 -12 30 4 30 5 -5 -41 -6 -41 -6 -36 -7 -36
23 -6 24 -7 50 0 50 0 -3 -50 -4 -51 23 -19 22 -20 50 0 50 0 24 28 24 27 -5
53 -5 53 63 -6 63 -7 16 16 16 17 11 37 10 37 0 33 0 33 -15 15 -15 15 -42 -6
-43 -6 -19 14 -19 14 6 18 7 17 26 -6 27 -7 28 6 29 7 0 94 0 94 -4 0 -5 0
-65 -15 -64 -15 -16 6 -16 6 0 59 0 58 -19 11 -20 10 -38 0 -38 0 -14 -9z"/>
</g>
</svg>
