<?xml version="1.0" standalone="no"?>
<!DOCTYPE svg PUBLIC "-//W3C//DTD SVG 20010904//EN"
 "http://www.w3.org/TR/2001/REC-SVG-20010904/DTD/svg10.dtd">
<svg version="1.0" xmlns="http://www.w3.org/2000/svg"
 width="60.000000pt" height="68.000000pt" viewBox="0 0 60.000000 68.000000"
 preserveAspectRatio="xMidYMid meet">
<metadata>
Created by potrace 1.16, written by Peter Selinger 2001-2019
</metadata>
<g transform="translate(0.000000,68.000000) scale(0.100000,-0.100000)"
fill="#000000" stroke="none">
<path d="M335 673 l-20 -5 -7 -12 -8 -11 6 -34 7 -33 -14 -9 -14 -9 -72 0 -72
0 -3 -76 -3 -76 -51 -2 -51 -1 -16 -17 -17 -17 0 -20 0 -21 14 0 14 0 4 -12 4
-12 37 0 36 0 5 -38 6 -38 6 -39 5 -39 22 -6 22 -6 46 0 45 0 19 -14 19 -14
-12 -27 -13 -27 6 -18 5 -17 26 -11 25 -12 25 0 25 0 16 15 15 16 -6 34 -7 34
23 5 23 5 61 11 62 12 5 42 6 41 7 39 7 38 -40 -7 -40 -6 -39 16 -38 16 -8 12
-8 12 0 33 0 32 15 0 15 0 0 9 0 10 18 5 17 6 32 -9 32 -9 5 15 6 15 0 59 0
59 -36 -15 -36 -15 -27 0 -26 0 -13 9 -14 8 7 46 7 45 -21 21 -21 21 -17 -1
-18 -1 -20 -5z"/>
</g>
</svg>
