<?xml version="1.0" standalone="no"?>
<!DOCTYPE svg PUBLIC "-//W3C//DTD SVG 20010904//EN"
 "http://www.w3.org/TR/2001/REC-SVG-20010904/DTD/svg10.dtd">
<svg version="1.0" xmlns="http://www.w3.org/2000/svg"
 width="64.000000pt" height="61.000000pt" viewBox="0 0 64.000000 61.000000"
 preserveAspectRatio="xMidYMid meet">
<metadata>
Created by potrace 1.16, written by Peter Selinger 2001-2019
</metadata>
<g transform="translate(0.000000,61.000000) scale(0.100000,-0.100000)"
fill="#000000" stroke="none">
<path d="M319 589 l-21 -21 4 -49 3 -49 -12 -4 -12 -5 -70 6 -71 6 0 -77 0
-76 -55 0 -55 0 0 -10 0 -10 -15 0 -15 0 0 -29 0 -29 6 -16 6 -16 14 0 14 0 0
-9 0 -9 36 -12 35 -12 25 6 24 6 0 -8 0 -9 -11 -56 -12 -56 16 -15 16 -16 33
0 33 0 33 9 32 10 16 16 16 16 -4 35 -4 35 24 6 23 6 26 -12 25 -12 -6 -48 -6
-49 15 -16 16 -16 23 0 23 0 55 11 56 11 21 58 21 57 0 34 0 34 -9 14 -9 14
-58 -6 -57 -6 -19 10 -18 10 0 29 0 29 30 -10 29 -11 35 12 35 11 6 42 6 42
-3 44 -3 45 -30 8 -30 9 -54 10 -54 11 -12 11 -12 12 5 13 4 13 -6 24 -6 25
-35 0 -35 0 -21 -21z"/>
</g>
</svg>
