<?xml version="1.0" standalone="no"?>
<!DOCTYPE svg PUBLIC "-//W3C//DTD SVG 20010904//EN"
 "http://www.w3.org/TR/2001/REC-SVG-20010904/DTD/svg10.dtd">
<svg version="1.0" xmlns="http://www.w3.org/2000/svg"
 width="62.000000pt" height="70.000000pt" viewBox="0 0 62.000000 70.000000"
 preserveAspectRatio="xMidYMid meet">
<metadata>
Created by potrace 1.16, written by Peter Selinger 2001-2019
</metadata>
<g transform="translate(0.000000,70.000000) scale(0.100000,-0.100000)"
fill="#000000" stroke="none">
<path d="M333 693 l-23 -4 -6 -24 -6 -24 7 -22 7 -21 -13 -9 -14 -9 -72 0 -73
0 0 -74 0 -74 -54 -4 -54 -4 -16 -17 -16 -16 0 -30 0 -31 15 0 15 0 0 -10 0
-10 39 -6 40 -6 5 -27 5 -26 6 -46 6 -47 22 -6 22 -6 43 0 43 0 19 -10 19 -10
-11 -24 -11 -25 6 -24 7 -24 25 -11 26 -12 35 0 35 0 16 15 15 16 -4 35 -4 35
20 4 21 4 61 11 62 12 6 44 6 44 6 47 7 46 -43 -6 -44 -6 -35 15 -35 15 -8 12
-8 12 0 23 0 22 11 0 10 0 15 14 14 14 36 -10 37 -10 8 14 9 13 0 73 0 72 -10
0 -10 0 -40 -16 -40 -16 -25 6 -24 6 6 49 5 49 -21 21 -21 21 -27 -1 -28 -2
-22 -4z"/>
</g>
</svg>
