<?xml version="1.0" standalone="no"?>
<!DOCTYPE svg PUBLIC "-//W3C//DTD SVG 20010904//EN"
 "http://www.w3.org/TR/2001/REC-SVG-20010904/DTD/svg10.dtd">
<svg version="1.0" xmlns="http://www.w3.org/2000/svg"
 width="62.000000pt" height="59.000000pt" viewBox="0 0 62.000000 59.000000"
 preserveAspectRatio="xMidYMid meet">
<metadata>
Created by potrace 1.16, written by Peter Selinger 2001-2019
</metadata>
<g transform="translate(0.000000,59.000000) scale(0.100000,-0.100000)"
fill="#000000" stroke="none">
<path d="M319 569 l-21 -21 5 -48 6 -48 -16 -7 -17 -6 -68 7 -68 7 0 -79 0
-79 -55 3 -55 4 0 -11 0 -11 -15 0 -15 0 0 -19 0 -19 6 -16 6 -16 14 0 14 0 0
-9 0 -9 30 -11 31 -10 29 6 30 6 0 -24 0 -24 -10 -43 -10 -43 14 -15 15 -14
23 0 23 0 33 9 32 10 16 16 16 16 -6 33 -6 34 16 6 16 6 27 0 27 0 19 -13 18
-14 -5 -47 -6 -47 15 -14 14 -15 13 0 13 0 55 11 56 11 21 58 21 57 0 24 0 24
-9 14 -9 14 -55 -7 -56 -7 -20 11 -21 11 0 39 0 40 9 0 10 0 25 -10 25 -9 30
10 30 11 6 42 7 42 -4 34 -3 34 -30 8 -30 9 -54 10 -54 11 -14 14 -14 14 6 19
5 18 -6 17 -6 16 -24 0 -24 0 -21 -21z"/>
</g>
</svg>
