<?xml version="1.0" standalone="no"?>
<!DOCTYPE svg PUBLIC "-//W3C//DTD SVG 20010904//EN"
 "http://www.w3.org/TR/2001/REC-SVG-20010904/DTD/svg10.dtd">
<svg version="1.0" xmlns="http://www.w3.org/2000/svg"
 width="67.000000pt" height="54.000000pt" viewBox="0 0 67.000000 54.000000"
 preserveAspectRatio="xMidYMid meet">
<metadata>
Created by potrace 1.16, written by Peter Selinger 2001-2019
</metadata>
<g transform="translate(0.000000,54.000000) scale(0.100000,-0.100000)"
fill="#000000" stroke="none">
<path d="M284 501 l1 -40 -7 -6 -6 -7 -39 -9 -38 -9 -32 0 -33 0 0 -37 0 -38
-10 -37 -11 -37 -34 -7 -34 -6 -11 7 -12 8 -9 -14 -9 -14 0 -27 0 -26 6 -16 6
-16 27 0 28 0 12 -27 12 -27 6 -47 6 -47 21 -6 21 -5 47 -6 46 -7 20 7 21 6
-6 48 -5 49 21 21 21 21 24 0 25 0 6 -19 5 -18 -6 -16 -6 -16 15 -15 14 -14
54 -10 54 -11 19 -7 18 -7 -5 19 -6 19 -12 56 -12 57 14 15 14 15 55 -5 55 -5
19 14 18 15 -6 21 -7 22 -22 2 -22 1 -22 -2 -23 -2 -20 11 -20 11 0 42 1 42 8
42 8 42 -31 7 -31 6 -53 20 -54 20 5 19 5 19 -53 0 -52 0 1 -39z"/>
</g>
</svg>
