<?xml version="1.0" standalone="no"?>
<!DOCTYPE svg PUBLIC "-//W3C//DTD SVG 20010904//EN"
 "http://www.w3.org/TR/2001/REC-SVG-20010904/DTD/svg10.dtd">
<svg version="1.0" xmlns="http://www.w3.org/2000/svg"
 width="69.000000pt" height="56.000000pt" viewBox="0 0 69.000000 56.000000"
 preserveAspectRatio="xMidYMid meet">
<metadata>
Created by potrace 1.16, written by Peter Selinger 2001-2019
</metadata>
<g transform="translate(0.000000,56.000000) scale(0.100000,-0.100000)"
fill="#000000" stroke="none">
<path d="M282 520 l1 -40 -6 -6 -5 -6 -39 -9 -38 -9 -32 0 -33 0 0 -37 0 -38
-10 -36 -10 -37 -22 -6 -22 -5 -24 6 -24 6 -9 -14 -9 -14 0 -37 0 -36 6 -16 6
-16 27 0 28 0 12 -27 12 -27 6 -47 6 -47 21 -6 21 -5 52 -7 52 -6 26 6 27 7
-7 49 -7 48 21 21 21 21 15 0 15 0 1 -12 1 -13 -2 -22 -1 -23 14 -14 14 -14
54 -11 54 -11 28 -6 27 -6 0 13 0 14 -15 63 -15 63 11 12 11 12 53 -3 53 -4
21 11 21 12 0 22 0 22 -9 14 -8 13 -51 3 -50 2 -12 8 -13 8 7 59 6 59 6 23 6
24 -34 7 -33 7 -51 20 -52 19 5 19 5 20 -66 0 -66 0 2 -40z"/>
</g>
</svg>
