<?xml version="1.0" standalone="no"?>
<!DOCTYPE svg PUBLIC "-//W3C//DTD SVG 20010904//EN"
 "http://www.w3.org/TR/2001/REC-SVG-20010904/DTD/svg10.dtd">
<svg version="1.0" xmlns="http://www.w3.org/2000/svg"
 width="54.000000pt" height="46.000000pt" viewBox="0 0 54.000000 46.000000"
 preserveAspectRatio="xMidYMid meet">
<metadata>
Created by potrace 1.16, written by Peter Selinger 2001-2019
</metadata>
<g transform="translate(0.000000,46.000000) scale(0.100000,-0.100000)"
fill="#000000" stroke="none">
<path d="M117 393 l-6 -68 -6 -17 -7 -17 -29 -6 -29 -6 -20 6 -21 7 3 -49 3
-48 29 2 28 2 14 -14 14 -13 6 -71 7 -71 71 0 71 0 14 9 14 9 -7 33 -6 34 8
12 7 11 37 7 36 7 22 -22 22 -22 -7 -45 -7 -46 14 -8 13 -9 25 0 24 0 41 15
40 16 3 76 3 75 -35 -6 -35 -7 -25 7 -26 6 0 10 0 9 -15 15 -15 15 0 24 0 24
16 16 17 16 47 -6 47 -6 7 32 6 32 0 38 0 39 -7 0 -8 0 -68 -17 -68 -18 6 -23
6 -24 -22 -19 -22 -19 -34 0 -33 0 0 10 0 10 -15 0 -15 0 0 8 0 7 11 39 11 40
-18 13 -18 13 -56 0 -57 0 -6 -67z"/>
</g>
</svg>
