<?xml version="1.0" standalone="no"?>
<!DOCTYPE svg PUBLIC "-//W3C//DTD SVG 20010904//EN"
 "http://www.w3.org/TR/2001/REC-SVG-20010904/DTD/svg10.dtd">
<svg version="1.0" xmlns="http://www.w3.org/2000/svg"
 width="56.000000pt" height="48.000000pt" viewBox="0 0 56.000000 48.000000"
 preserveAspectRatio="xMidYMid meet">
<metadata>
Created by potrace 1.16, written by Peter Selinger 2001-2019
</metadata>
<g transform="translate(0.000000,48.000000) scale(0.100000,-0.100000)"
fill="#000000" stroke="none">
<path d="M120 438 l0 -43 -9 -38 -9 -39 -7 -6 -7 -7 -44 2 -45 2 3 -57 3 -57
30 0 30 0 12 -12 13 -11 6 -71 7 -71 81 0 81 0 13 9 13 8 -2 41 -3 41 5 4 4 4
27 7 28 6 20 -20 20 -20 -7 -46 -6 -46 14 -9 14 -9 35 0 34 0 41 16 41 15 2
86 3 86 -41 -6 -40 -5 -20 5 -20 5 0 10 0 9 -15 15 -15 15 0 14 0 14 15 15 15
15 49 -6 48 -5 7 32 6 33 0 48 0 49 -17 0 -18 0 -68 -17 -68 -18 3 -25 3 -25
-19 -17 -19 -18 -24 0 -23 0 0 10 0 10 -14 0 -13 0 10 46 11 46 -19 14 -19 14
-68 0 -68 0 0 -42z"/>
</g>
</svg>
