<?xml version="1.0" standalone="no"?>
<!DOCTYPE svg PUBLIC "-//W3C//DTD SVG 20010904//EN"
 "http://www.w3.org/TR/2001/REC-SVG-20010904/DTD/svg10.dtd">
<svg version="1.0" xmlns="http://www.w3.org/2000/svg"
 width="70.000000pt" height="46.000000pt" viewBox="0 0 70.000000 46.000000"
 preserveAspectRatio="xMidYMid meet">
<metadata>
Created by potrace 1.16, written by Peter Selinger 2001-2019
</metadata>
<g transform="translate(0.000000,46.000000) scale(0.100000,-0.100000)"
fill="#000000" stroke="none">
<path d="M113 444 l-6 -15 6 -59 5 -59 -31 -6 -32 -5 -25 -2 -25 -3 -3 -45 -2
-45 10 -15 9 -15 60 1 61 1 5 -18 6 -18 -10 -19 -10 -19 -7 -53 -7 -53 71 5
71 5 16 17 17 17 -6 34 -7 34 25 7 25 6 18 -6 19 -6 -4 -35 -4 -34 15 -16 16
-15 70 0 71 0 6 25 6 26 -5 28 -6 29 -6 24 -6 25 55 -5 56 -4 30 12 29 12 7
20 6 19 -7 26 -6 25 -15 15 -14 15 -48 -3 -47 -3 -3 82 -3 82 -220 0 -220 0
-6 -16z"/>
</g>
</svg>
