<?xml version="1.0" standalone="no"?>
<!DOCTYPE svg PUBLIC "-//W3C//DTD SVG 20010904//EN"
 "http://www.w3.org/TR/2001/REC-SVG-20010904/DTD/svg10.dtd">
<svg version="1.0" xmlns="http://www.w3.org/2000/svg"
 width="68.000000pt" height="44.000000pt" viewBox="0 0 68.000000 44.000000"
 preserveAspectRatio="xMidYMid meet">
<metadata>
Created by potrace 1.16, written by Peter Selinger 2001-2019
</metadata>
<g transform="translate(0.000000,44.000000) scale(0.100000,-0.100000)"
fill="#000000" stroke="none">
<path d="M113 425 l-5 -16 6 -59 7 -59 -33 -5 -33 -6 -25 -2 -25 -3 -3 -35 -2
-35 10 -15 9 -15 61 2 60 2 6 -24 6 -25 -10 -28 -11 -27 -7 -39 -7 -39 61 6
61 5 17 17 17 16 -11 24 -11 24 15 16 15 15 29 0 28 0 16 -6 16 -6 -6 -34 -6
-33 15 -16 16 -15 60 0 61 0 6 24 6 24 -11 38 -11 39 0 18 0 17 55 -6 54 -7
30 13 30 12 6 18 5 17 -7 19 -7 19 -13 13 -13 14 -48 -4 -47 -3 -3 83 -3 82
-210 0 -210 0 -6 -15z"/>
</g>
</svg>
