<?xml version="1.0" standalone="no"?>
<!DOCTYPE svg PUBLIC "-//W3C//DTD SVG 20010904//EN"
 "http://www.w3.org/TR/2001/REC-SVG-20010904/DTD/svg10.dtd">
<svg version="1.0" xmlns="http://www.w3.org/2000/svg"
 width="53.000000pt" height="44.000000pt" viewBox="0 0 53.000000 44.000000"
 preserveAspectRatio="xMidYMid meet">
<metadata>
Created by potrace 1.16, written by Peter Selinger 2001-2019
</metadata>
<g transform="translate(0.000000,44.000000) scale(0.100000,-0.100000)"
fill="#000000" stroke="none">
<path d="M120 355 l0 -85 -17 -2 -18 -1 -40 -1 -40 -1 -3 -27 -3 -27 22 -11
22 -12 40 5 40 5 13 -13 14 -14 0 -28 -1 -28 -13 -35 -13 -35 -7 -16 -7 -17
55 -6 56 -7 20 6 20 6 -2 39 -1 38 13 31 12 31 30 0 29 0 20 -10 19 -11 0 -58
0 -59 16 -6 16 -6 33 0 34 0 26 10 27 10 -7 18 -8 17 -10 63 -9 62 -33 0 -33
0 -6 16 -6 16 0 25 0 26 22 18 21 19 21 -6 21 -7 13 -4 12 -5 0 77 0 77 -22
-7 -23 -7 -48 -10 -48 -11 6 -28 7 -29 -16 0 -16 0 0 -11 0 -12 -45 6 -46 5
-6 6 -6 6 12 26 12 26 -6 18 -6 18 -31 6 -30 6 -49 0 -49 0 0 -85z"/>
</g>
</svg>
