<?xml version="1.0" standalone="no"?>
<!DOCTYPE svg PUBLIC "-//W3C//DTD SVG 20010904//EN"
 "http://www.w3.org/TR/2001/REC-SVG-20010904/DTD/svg10.dtd">
<svg version="1.0" xmlns="http://www.w3.org/2000/svg"
 width="55.000000pt" height="46.000000pt" viewBox="0 0 55.000000 46.000000"
 preserveAspectRatio="xMidYMid meet">
<metadata>
Created by potrace 1.16, written by Peter Selinger 2001-2019
</metadata>
<g transform="translate(0.000000,46.000000) scale(0.100000,-0.100000)"
fill="#000000" stroke="none">
<path d="M120 375 l0 -85 -17 -1 -18 -1 -40 -1 -40 -2 -3 -37 -3 -37 22 -11
21 -12 43 4 42 3 13 -13 12 -13 -7 -37 -7 -36 -14 -28 -14 -27 0 -15 0 -14 64
-7 64 -7 21 7 21 6 0 44 0 44 12 26 11 25 19 0 19 0 20 -10 19 -11 0 -58 0
-59 16 -6 16 -6 43 0 44 0 26 10 27 10 -6 28 -7 27 -11 63 -10 62 -33 0 -33 0
-6 16 -6 16 0 15 0 14 15 16 15 15 40 -7 40 -7 0 87 0 87 -27 -5 -28 -6 -53
-12 -54 -12 4 -29 5 -28 -13 0 -12 0 -4 -11 -4 -12 -37 7 -36 7 11 24 11 24
-7 24 -6 24 -31 7 -31 6 -59 0 -59 0 0 -85z"/>
</g>
</svg>
