<?xml version="1.0" standalone="no"?>
<!DOCTYPE svg PUBLIC "-//W3C//DTD SVG 20010904//EN"
 "http://www.w3.org/TR/2001/REC-SVG-20010904/DTD/svg10.dtd">
<svg version="1.0" xmlns="http://www.w3.org/2000/svg"
 width="70.000000pt" height="57.000000pt" viewBox="0 0 70.000000 57.000000"
 preserveAspectRatio="xMidYMid meet">
<metadata>
Created by potrace 1.16, written by Peter Selinger 2001-2019
</metadata>
<g transform="translate(0.000000,57.000000) scale(0.100000,-0.100000)"
fill="#000000" stroke="none">
<path d="M184 563 l-41 -4 -5 -71 -5 -70 -14 -9 -14 -10 -52 6 -53 6 0 -50 0
-50 21 -12 22 -11 58 6 58 7 7 -26 6 -25 -16 -40 -16 -40 0 -24 0 -23 76 -5
76 -5 8 -14 9 -13 -10 -17 -9 -18 0 -19 0 -20 23 -6 22 -6 38 0 37 0 0 10 0
10 16 0 16 0 -4 29 -4 30 39 7 40 6 32 14 31 13 17 69 17 70 0 11 0 12 12 12
12 13 27 -4 28 -4 7 27 7 26 -12 26 -11 25 -50 -4 -50 -3 -7 20 -7 20 3 59 2
58 -28 -5 -28 -6 -52 -12 -53 -12 0 -27 0 -28 -16 -6 -16 -6 -17 0 -18 0 -24
21 -24 21 0 36 0 37 -35 1 -35 1 -41 -4z"/>
</g>
</svg>
