<?xml version="1.0" standalone="no"?>
<!DOCTYPE svg PUBLIC "-//W3C//DTD SVG 20010904//EN"
 "http://www.w3.org/TR/2001/REC-SVG-20010904/DTD/svg10.dtd">
<svg version="1.0" xmlns="http://www.w3.org/2000/svg"
 width="68.000000pt" height="55.000000pt" viewBox="0 0 68.000000 55.000000"
 preserveAspectRatio="xMidYMid meet">
<metadata>
Created by potrace 1.16, written by Peter Selinger 2001-2019
</metadata>
<g transform="translate(0.000000,55.000000) scale(0.100000,-0.100000)"
fill="#000000" stroke="none">
<path d="M183 543 l-43 -4 0 -43 0 -43 -6 -31 -6 -31 -30 -10 -29 -10 -25 9
-25 10 -10 0 -9 0 0 -40 0 -39 21 -11 20 -11 56 7 55 7 9 -14 9 -14 0 -26 0
-27 -15 -35 -15 -36 0 -16 0 -15 49 0 49 0 30 -6 31 -6 6 -18 6 -18 -12 -26
-12 -26 6 -6 6 -6 46 -5 45 -6 0 12 0 11 16 0 16 0 -7 29 -6 29 42 7 42 7 32
14 31 13 17 69 17 70 0 12 0 11 15 15 14 15 25 -7 24 -6 7 21 6 20 -11 22 -12
22 -48 -6 -48 -6 -11 30 -10 29 6 52 6 51 -24 -7 -24 -8 -47 -10 -48 -11 0
-27 0 -28 -16 -6 -16 -6 -28 0 -29 0 -26 26 -26 26 3 32 3 31 -25 1 -25 1 -42
-4z"/>
</g>
</svg>
