<?xml version="1.0" standalone="no"?>
<!DOCTYPE svg PUBLIC "-//W3C//DTD SVG 20010904//EN"
 "http://www.w3.org/TR/2001/REC-SVG-20010904/DTD/svg10.dtd">
<svg version="1.0" xmlns="http://www.w3.org/2000/svg"
 width="59.000000pt" height="55.000000pt" viewBox="0 0 59.000000 55.000000"
 preserveAspectRatio="xMidYMid meet">
<metadata>
Created by potrace 1.16, written by Peter Selinger 2001-2019
</metadata>
<g transform="translate(0.000000,55.000000) scale(0.100000,-0.100000)"
fill="#000000" stroke="none">
<path d="M174 535 l-6 -14 6 -10 7 -10 -6 -24 -7 -24 -24 -12 -25 -11 -53 0
-53 0 -6 -38 -6 -37 5 -37 6 -36 22 -11 22 -12 27 10 27 10 10 -19 10 -19 0
-20 0 -20 -33 6 -34 5 -11 -28 -12 -29 -11 -50 -10 -50 -6 -28 -5 -27 240 0
240 0 6 27 7 28 7 35 7 35 26 3 26 3 12 25 11 25 0 39 0 39 -25 26 -26 25 -34
0 -35 0 7 59 6 60 -14 14 -14 14 -40 1 -40 2 -27 11 -28 11 -1 12 -1 11 1 16
2 16 -32 7 -31 6 -40 0 -39 0 -5 -15z"/>
</g>
</svg>
