<?xml version="1.0" standalone="no"?>
<!DOCTYPE svg PUBLIC "-//W3C//DTD SVG 20010904//EN"
 "http://www.w3.org/TR/2001/REC-SVG-20010904/DTD/svg10.dtd">
<svg version="1.0" xmlns="http://www.w3.org/2000/svg"
 width="57.000000pt" height="53.000000pt" viewBox="0 0 57.000000 53.000000"
 preserveAspectRatio="xMidYMid meet">
<metadata>
Created by potrace 1.16, written by Peter Selinger 2001-2019
</metadata>
<g transform="translate(0.000000,53.000000) scale(0.100000,-0.100000)"
fill="#000000" stroke="none">
<path d="M179 523 l-1 -8 2 -10 1 -9 -5 -32 -6 -31 -26 -11 -25 -12 -54 0 -55
0 -2 -27 -2 -28 3 -34 2 -35 17 -12 16 -12 29 11 30 10 14 -18 13 -19 0 -34 0
-34 -34 6 -33 6 -12 -27 -11 -28 -9 -45 -9 -45 -7 -22 -7 -23 229 0 229 0 11
43 12 42 6 28 5 27 23 -5 23 -6 12 26 12 26 0 29 0 29 -26 26 -26 26 -32 -3
-31 -3 3 63 3 63 -13 12 -13 12 -40 3 -40 3 -27 10 -27 11 -6 19 -6 19 5 9 6
9 -31 6 -31 6 -29 0 -29 0 -1 -7z"/>
</g>
</svg>
