<?xml version="1.0" standalone="no"?>
<!DOCTYPE svg PUBLIC "-//W3C//DTD SVG 20010904//EN"
 "http://www.w3.org/TR/2001/REC-SVG-20010904/DTD/svg10.dtd">
<svg version="1.0" xmlns="http://www.w3.org/2000/svg"
 width="52.000000pt" height="60.000000pt" viewBox="0 0 52.000000 60.000000"
 preserveAspectRatio="xMidYMid meet">
<metadata>
Created by potrace 1.16, written by Peter Selinger 2001-2019
</metadata>
<g transform="translate(0.000000,60.000000) scale(0.100000,-0.100000)"
fill="#000000" stroke="none">
<path d="M209 568 l-13 -32 0 -35 0 -36 -10 -7 -11 -8 -66 7 -66 6 -6 -38 -6
-38 6 -46 6 -46 21 -18 21 -19 38 6 37 6 0 -12 0 -13 -9 -14 -9 -14 -65 1 -66
1 -6 -19 -6 -19 6 -38 7 -38 15 -42 15 -41 22 -6 21 -6 52 0 52 0 26 12 25 11
7 24 6 24 -11 24 -11 23 6 6 6 6 23 0 23 0 6 -20 6 -19 -7 -35 -6 -35 17 -17
16 -17 74 5 73 5 17 17 17 16 -12 70 -12 69 -17 20 -18 21 -21 0 -21 0 -6 10
-6 10 6 31 7 31 53 -7 52 -6 7 16 6 17 -6 69 -7 70 -9 5 -9 6 -48 -13 -48 -12
-26 7 -27 6 0 60 0 59 -19 11 -20 10 -39 0 -40 0 -13 -32z"/>
</g>
</svg>
