<?xml version="1.0" standalone="no"?>
<!DOCTYPE svg PUBLIC "-//W3C//DTD SVG 20010904//EN"
 "http://www.w3.org/TR/2001/REC-SVG-20010904/DTD/svg10.dtd">
<svg version="1.0" xmlns="http://www.w3.org/2000/svg"
 width="50.000000pt" height="58.000000pt" viewBox="0 0 50.000000 58.000000"
 preserveAspectRatio="xMidYMid meet">
<metadata>
Created by potrace 1.16, written by Peter Selinger 2001-2019
</metadata>
<g transform="translate(0.000000,58.000000) scale(0.100000,-0.100000)"
fill="#000000" stroke="none">
<path d="M210 549 l-13 -31 1 -38 2 -38 -17 -7 -18 -6 -62 7 -63 6 -2 -28 -1
-29 2 -45 3 -44 20 -18 21 -18 38 6 39 7 0 -24 0 -24 -9 -14 -9 -14 -64 0 -63
0 -7 -11 -8 -11 6 -35 6 -35 15 -42 15 -41 22 -6 21 -6 42 0 42 0 25 12 26 11
5 18 6 18 -11 21 -12 22 6 14 5 14 35 0 36 0 6 -25 6 -26 -6 -30 -6 -31 16
-15 15 -16 64 5 64 6 15 15 15 15 -10 61 -11 60 -18 21 -19 22 -20 -7 -19 -6
-7 21 -7 22 7 35 6 36 54 -6 54 -5 5 16 5 17 -7 60 -7 60 -20 -3 -20 -3 -37
-6 -37 -5 -25 6 -26 6 0 60 0 59 -19 11 -20 10 -29 0 -30 0 -12 -31z"/>
</g>
</svg>
