<?xml version="1.0" standalone="no"?>
<!DOCTYPE svg PUBLIC "-//W3C//DTD SVG 20010904//EN"
 "http://www.w3.org/TR/2001/REC-SVG-20010904/DTD/svg10.dtd">
<svg version="1.0" xmlns="http://www.w3.org/2000/svg"
 width="65.000000pt" height="67.000000pt" viewBox="0 0 65.000000 67.000000"
 preserveAspectRatio="xMidYMid meet">
<metadata>
Created by potrace 1.16, written by Peter Selinger 2001-2019
</metadata>
<g transform="translate(0.000000,67.000000) scale(0.100000,-0.100000)"
fill="#000000" stroke="none">
<path d="M216 654 l-16 -15 0 -12 0 -12 9 -14 9 -14 -16 -16 -16 -16 -72 1
-72 1 -6 -45 -6 -45 0 -43 0 -43 19 -11 20 -10 44 0 45 0 6 -15 5 -15 -21 -11
-21 -11 -49 6 -49 7 -14 -15 -15 -15 0 -23 1 -23 14 -58 14 -59 6 -6 7 -7 74
0 74 0 0 -32 0 -32 25 -26 26 -25 39 0 38 0 16 6 16 6 0 28 0 28 38 6 37 7 30
11 30 12 13 13 13 12 18 73 19 73 18 3 19 3 23 5 22 4 0 15 0 15 10 0 10 0 0
31 0 30 -15 16 -15 15 -53 -4 -52 -3 -5 80 -5 80 -72 -4 -72 -3 -16 15 -15 15
7 32 6 32 -14 9 -14 9 -42 0 -42 0 -15 -16z"/>
</g>
</svg>
