<?xml version="1.0" standalone="no"?>
<!DOCTYPE svg PUBLIC "-//W3C//DTD SVG 20010904//EN"
 "http://www.w3.org/TR/2001/REC-SVG-20010904/DTD/svg10.dtd">
<svg version="1.0" xmlns="http://www.w3.org/2000/svg"
 width="63.000000pt" height="65.000000pt" viewBox="0 0 63.000000 65.000000"
 preserveAspectRatio="xMidYMid meet">
<metadata>
Created by potrace 1.16, written by Peter Selinger 2001-2019
</metadata>
<g transform="translate(0.000000,65.000000) scale(0.100000,-0.100000)"
fill="#000000" stroke="none">
<path d="M216 635 l-15 -16 11 -24 11 -24 -18 -18 -19 -18 -72 0 -72 0 -6 -44
-6 -44 0 -33 0 -33 20 -11 20 -11 23 2 22 2 22 -1 22 -2 7 -22 6 -21 -18 -15
-19 -14 -55 5 -55 5 -13 -15 -14 -14 13 -64 13 -65 7 -12 8 -13 80 2 79 1 -5
-32 -5 -33 26 -26 27 -27 29 0 28 0 16 6 16 6 0 28 0 28 38 6 37 7 30 11 30
12 12 12 12 11 14 54 15 54 6 27 6 27 15 -5 15 -6 25 6 25 6 0 15 0 15 10 0
10 0 0 21 0 20 -15 15 -14 15 -53 -3 -53 -3 -5 80 -5 80 -72 -3 -73 -4 -16 16
-16 17 6 33 6 34 -16 6 -16 6 -28 0 -29 0 -15 -15z"/>
</g>
</svg>
