<?xml version="1.0" standalone="no"?>
<!DOCTYPE svg PUBLIC "-//W3C//DTD SVG 20010904//EN"
 "http://www.w3.org/TR/2001/REC-SVG-20010904/DTD/svg10.dtd">
<svg version="1.0" xmlns="http://www.w3.org/2000/svg"
 width="72.000000pt" height="58.000000pt" viewBox="0 0 72.000000 58.000000"
 preserveAspectRatio="xMidYMid meet">
<metadata>
Created by potrace 1.16, written by Peter Selinger 2001-2019
</metadata>
<g transform="translate(0.000000,58.000000) scale(0.100000,-0.100000)"
fill="#000000" stroke="none">
<path d="M335 570 l-6 -10 1 -33 2 -32 -1 -11 -1 -12 -30 -12 -29 -12 -63 3
-63 4 -5 -70 -5 -70 -41 3 -42 3 -15 -15 -16 -16 -10 0 -11 0 0 -44 0 -45 15
-14 15 -15 36 -12 36 -12 35 5 35 6 -6 -22 -7 -22 -6 -58 -6 -57 61 0 61 0 25
11 24 11 6 22 6 21 0 28 0 27 23 0 22 0 21 -6 22 -6 5 -27 6 -28 28 -11 28
-10 38 -7 38 -6 20 6 20 7 -7 59 -7 59 44 0 44 0 10 8 10 7 13 28 12 28 0 28
0 28 -20 23 -19 22 -36 -4 -35 -4 0 66 0 65 -8 11 -7 12 -42 0 -41 1 -41 11
-41 11 0 38 0 39 -16 6 -16 6 -28 0 -29 0 -6 -10z"/>
</g>
</svg>
