<?xml version="1.0" standalone="no"?>
<!DOCTYPE svg PUBLIC "-//W3C//DTD SVG 20010904//EN"
 "http://www.w3.org/TR/2001/REC-SVG-20010904/DTD/svg10.dtd">
<svg version="1.0" xmlns="http://www.w3.org/2000/svg"
 width="70.000000pt" height="56.000000pt" viewBox="0 0 70.000000 56.000000"
 preserveAspectRatio="xMidYMid meet">
<metadata>
Created by potrace 1.16, written by Peter Selinger 2001-2019
</metadata>
<g transform="translate(0.000000,56.000000) scale(0.100000,-0.100000)"
fill="#000000" stroke="none">
<path d="M335 549 l-7 -10 6 -32 6 -32 -8 -11 -7 -11 -23 -12 -23 -12 -67 2
-67 3 -3 -55 -2 -54 -5 -22 -5 -22 -32 10 -33 9 -17 -6 -18 -5 0 -10 0 -9 -15
0 -15 0 0 -32 0 -33 8 -12 8 -12 38 -16 39 -16 40 6 40 7 -7 -38 -7 -39 -6
-43 -6 -42 51 0 51 0 25 11 25 12 6 28 6 29 -6 20 -6 20 34 0 35 0 31 -6 31
-6 -6 -9 -5 -9 6 -19 6 -19 27 -10 27 -10 32 -6 33 -5 14 5 14 5 -5 63 -5 63
31 -5 31 -4 23 6 23 5 12 34 12 33 0 16 0 15 -20 23 -19 22 -36 -6 -35 -7 0
68 0 68 -8 10 -7 10 -43 2 -44 3 -39 10 -39 11 0 38 0 39 -16 6 -16 6 -18 0
-19 0 -6 -11z"/>
</g>
</svg>
