<?xml version="1.0" standalone="no"?>
<!DOCTYPE svg PUBLIC "-//W3C//DTD SVG 20010904//EN"
 "http://www.w3.org/TR/2001/REC-SVG-20010904/DTD/svg10.dtd">
<svg version="1.0" xmlns="http://www.w3.org/2000/svg"
 width="73.000000pt" height="55.000000pt" viewBox="0 0 73.000000 55.000000"
 preserveAspectRatio="xMidYMid meet">
<metadata>
Created by potrace 1.16, written by Peter Selinger 2001-2019
</metadata>
<g transform="translate(0.000000,55.000000) scale(0.100000,-0.100000)"
fill="#000000" stroke="none">
<path d="M314 536 l-6 -14 12 -22 11 -21 -6 -18 -6 -19 -30 -12 -30 -13 -59 6
-60 5 0 -48 0 -47 -6 -32 -7 -32 -47 6 -47 6 -17 -16 -16 -16 0 -24 0 -24 15
-15 15 -15 0 -9 0 -10 26 -6 25 -7 36 7 36 7 -6 -71 -7 -70 16 -6 16 -6 54 0
55 0 22 11 22 12 7 11 7 11 -6 37 -6 38 17 6 16 6 25 -6 25 -6 0 -40 0 -39 18
-5 17 -6 52 -10 53 -9 15 6 16 6 -7 79 -7 80 47 -7 46 -7 29 12 30 12 6 15 5
16 -5 17 -6 18 -24 6 -25 6 -40 -6 -40 -7 0 80 0 81 -14 11 -14 12 -4 -12 -4
-11 -66 -5 -67 -6 -15 16 -16 15 6 31 6 30 -6 26 -6 25 -36 0 -35 0 -5 -14z"/>
</g>
</svg>
