<?xml version="1.0" standalone="no"?>
<!DOCTYPE svg PUBLIC "-//W3C//DTD SVG 20010904//EN"
 "http://www.w3.org/TR/2001/REC-SVG-20010904/DTD/svg10.dtd">
<svg version="1.0" xmlns="http://www.w3.org/2000/svg"
 width="75.000000pt" height="57.000000pt" viewBox="0 0 75.000000 57.000000"
 preserveAspectRatio="xMidYMid meet">
<metadata>
Created by potrace 1.16, written by Peter Selinger 2001-2019
</metadata>
<g transform="translate(0.000000,57.000000) scale(0.100000,-0.100000)"
fill="#000000" stroke="none">
<path d="M313 554 l-6 -17 10 -27 10 -28 -6 -9 -6 -10 -24 -13 -24 -12 -64 6
-63 7 0 -49 0 -49 -6 -31 -6 -31 -47 6 -47 5 -17 -17 -17 -16 0 -34 0 -34 15
-15 15 -15 0 -10 0 -10 35 -7 35 -6 26 6 26 7 -7 -67 -7 -67 14 -8 13 -9 67 0
67 0 25 12 26 11 6 19 5 18 -6 29 -6 29 11 7 10 6 20 -6 20 -6 0 -39 0 -39 38
-10 37 -9 38 -7 38 -6 21 7 20 6 -6 78 -7 78 45 -5 46 -6 30 13 30 13 6 23 6
23 -7 20 -6 20 -34 7 -33 6 -31 -7 -30 -6 -3 82 -3 82 -18 11 -18 11 -8 -13
-8 -13 -55 -6 -56 -6 -14 13 -14 13 4 34 4 33 -6 25 -6 25 -46 0 -45 0 -6 -16z"/>
</g>
</svg>
