<?xml version="1.0" standalone="no"?>
<!DOCTYPE svg PUBLIC "-//W3C//DTD SVG 20010904//EN"
 "http://www.w3.org/TR/2001/REC-SVG-20010904/DTD/svg10.dtd">
<svg version="1.0" xmlns="http://www.w3.org/2000/svg"
 width="47.000000pt" height="56.000000pt" viewBox="0 0 47.000000 56.000000"
 preserveAspectRatio="xMidYMid meet">
<metadata>
Created by potrace 1.16, written by Peter Selinger 2001-2019
</metadata>
<g transform="translate(0.000000,56.000000) scale(0.100000,-0.100000)"
fill="#000000" stroke="none">
<path d="M44 547 l-5 -14 3 -69 3 -69 47 3 48 4 14 -14 13 -14 7 -21 6 -20 -5
-16 -6 -15 -30 -12 -30 -13 -54 7 -55 6 0 -17 0 -18 9 -35 9 -35 6 -27 6 -28
71 0 71 0 -6 -33 -6 -34 17 -20 18 -20 23 -12 24 -13 28 12 27 11 12 25 11 25
-6 25 -6 24 75 0 75 0 5 14 6 14 -9 65 -10 64 -6 17 -7 17 -31 -3 -31 -3 -3
39 -3 39 16 -7 17 -6 24 6 24 6 0 14 0 14 10 0 10 0 0 75 0 75 -210 0 -211 0
-5 -13z"/>
</g>
</svg>
