<?xml version="1.0" standalone="no"?>
<!DOCTYPE svg PUBLIC "-//W3C//DTD SVG 20010904//EN"
 "http://www.w3.org/TR/2001/REC-SVG-20010904/DTD/svg10.dtd">
<svg version="1.0" xmlns="http://www.w3.org/2000/svg"
 width="49.000000pt" height="58.000000pt" viewBox="0 0 49.000000 58.000000"
 preserveAspectRatio="xMidYMid meet">
<metadata>
Created by potrace 1.16, written by Peter Selinger 2001-2019
</metadata>
<g transform="translate(0.000000,58.000000) scale(0.100000,-0.100000)"
fill="#000000" stroke="none">
<path d="M44 567 l-5 -14 3 -79 3 -79 48 2 48 3 14 -14 13 -13 2 -14 2 -14 -1
-11 -1 -12 -29 -12 -29 -12 -56 7 -56 7 0 -28 0 -29 9 -35 9 -35 6 -27 6 -28
70 0 69 0 -6 -33 -5 -34 26 -26 27 -27 25 -6 24 -6 29 12 29 12 12 29 12 29
-5 20 -5 20 73 0 74 0 6 18 5 19 -10 70 -10 70 -6 17 -6 16 -34 0 -34 0 0 19
0 18 40 7 40 6 0 15 0 15 10 0 10 0 0 85 0 85 -220 0 -221 0 -5 -13z"/>
</g>
</svg>
