<?xml version="1.0" standalone="no"?>
<!DOCTYPE svg PUBLIC "-//W3C//DTD SVG 20010904//EN"
 "http://www.w3.org/TR/2001/REC-SVG-20010904/DTD/svg10.dtd">
<svg version="1.0" xmlns="http://www.w3.org/2000/svg"
 width="43.000000pt" height="45.000000pt" viewBox="0 0 43.000000 45.000000"
 preserveAspectRatio="xMidYMid meet">
<metadata>
Created by potrace 1.16, written by Peter Selinger 2001-2019
</metadata>
<g transform="translate(0.000000,45.000000) scale(0.100000,-0.100000)"
fill="#000000" stroke="none">
<path d="M2 363 l3 -88 54 2 54 1 14 -13 13 -14 0 -10 0 -11 -10 0 -10 0 0
-14 0 -14 -16 -6 -16 -6 -23 6 -24 6 -6 -29 -7 -28 -14 -52 -14 -51 0 -21 0
-21 74 0 75 0 16 17 17 16 -6 38 -6 38 19 6 19 6 26 -12 26 -12 -6 -39 -7 -38
17 0 16 0 0 -10 0 -10 76 0 77 0 -7 38 -6 37 -13 59 -13 60 -12 4 -11 3 -18
-9 -17 -10 -18 20 -18 21 0 9 0 9 11 22 12 22 11 7 11 7 42 -6 43 -6 0 77 0
76 -81 0 -81 0 3 -27 3 -28 -7 -21 -7 -21 -23 -10 -23 -11 -20 11 -19 11 -14
14 -15 14 3 39 2 39 -76 0 -76 0 3 -87z"/>
</g>
</svg>
