<?xml version="1.0" standalone="no"?>
<!DOCTYPE svg PUBLIC "-//W3C//DTD SVG 20010904//EN"
 "http://www.w3.org/TR/2001/REC-SVG-20010904/DTD/svg10.dtd">
<svg version="1.0" xmlns="http://www.w3.org/2000/svg"
 width="41.000000pt" height="43.000000pt" viewBox="0 0 41.000000 43.000000"
 preserveAspectRatio="xMidYMid meet">
<metadata>
Created by potrace 1.16, written by Peter Selinger 2001-2019
</metadata>
<g transform="translate(0.000000,43.000000) scale(0.100000,-0.100000)"
fill="#000000" stroke="none">
<path d="M2 353 l3 -78 53 3 53 3 14 -15 15 -15 0 -20 0 -21 -10 0 -10 0 0
-15 0 -15 -25 -6 -25 -6 -15 6 -15 5 -6 -27 -6 -27 -14 -52 -14 -51 0 -11 0
-11 64 0 65 0 15 16 16 15 -6 39 -6 39 26 7 26 6 29 -12 29 -12 5 -24 4 -24
-8 0 -9 0 0 -15 0 -15 15 0 15 0 0 -10 0 -10 65 0 65 0 0 8 0 7 -16 70 -17 70
-3 12 -3 13 -26 -12 -25 -11 -20 23 -20 23 0 19 0 19 11 22 12 22 11 8 11 8
43 -6 42 -6 0 65 0 66 -71 0 -71 0 6 -24 6 -25 -11 -25 -12 -25 -27 -11 -28
-12 -24 13 -23 12 -18 20 -17 20 6 34 6 33 -66 0 -67 0 3 -77z"/>
</g>
</svg>
