<?xml version="1.0" standalone="no"?>
<!DOCTYPE svg PUBLIC "-//W3C//DTD SVG 20010904//EN"
 "http://www.w3.org/TR/2001/REC-SVG-20010904/DTD/svg10.dtd">
<svg version="1.0" xmlns="http://www.w3.org/2000/svg"
 width="53.000000pt" height="56.000000pt" viewBox="0 0 53.000000 56.000000"
 preserveAspectRatio="xMidYMid meet">
<metadata>
Created by potrace 1.16, written by Peter Selinger 2001-2019
</metadata>
<g transform="translate(0.000000,56.000000) scale(0.100000,-0.100000)"
fill="#000000" stroke="none">
<path d="M122 498 l6 -63 -5 -12 -4 -11 -54 5 -54 6 -6 -36 -7 -35 7 -22 7
-21 19 6 20 7 19 -22 18 -21 11 -61 10 -61 -5 -8 -5 -9 79 0 79 0 -5 -50 -5
-50 23 -20 23 -20 33 0 32 0 16 6 16 6 0 14 0 14 11 0 12 0 -7 56 -7 57 60 -6
60 -7 4 8 4 7 -15 78 -15 77 -38 0 -39 0 0 10 0 10 -15 0 -15 0 0 19 0 19 6
16 6 16 14 0 14 0 0 11 0 11 50 -7 50 -7 0 75 0 74 -52 -4 -53 -5 -13 -4 -14
-4 7 -30 7 -30 -11 0 -11 0 0 -15 0 -14 -35 -7 -35 -6 -26 6 -26 7 5 36 6 36
-10 18 -10 19 -71 0 -71 0 5 -62z"/>
</g>
</svg>
