<?xml version="1.0" standalone="no"?>
<!DOCTYPE svg PUBLIC "-//W3C//DTD SVG 20010904//EN"
 "http://www.w3.org/TR/2001/REC-SVG-20010904/DTD/svg10.dtd">
<svg version="1.0" xmlns="http://www.w3.org/2000/svg"
 width="55.000000pt" height="58.000000pt" viewBox="0 0 55.000000 58.000000"
 preserveAspectRatio="xMidYMid meet">
<metadata>
Created by potrace 1.16, written by Peter Selinger 2001-2019
</metadata>
<g transform="translate(0.000000,58.000000) scale(0.100000,-0.100000)"
fill="#000000" stroke="none">
<path d="M120 518 l2 -63 -1 -10 -1 -10 -54 3 -53 4 -6 -24 -7 -23 0 -30 0
-30 9 -14 9 -14 19 5 19 5 13 -14 13 -14 9 -32 9 -32 1 -42 2 -43 73 0 74 0 0
-51 0 -52 22 -18 21 -19 43 0 42 0 16 6 16 6 0 14 0 14 11 0 11 0 -4 56 -5 56
57 -7 58 -7 6 11 6 10 -16 85 -17 86 -39 0 -38 0 0 10 0 10 -15 0 -15 0 0 9 0
9 6 16 6 16 14 0 14 0 0 10 0 9 50 -6 50 -6 0 86 0 87 -62 -6 -63 -6 -14 -4
-13 -4 4 -30 5 -30 -9 0 -8 0 0 -14 0 -14 -30 -7 -30 -6 -20 6 -21 7 7 33 6
33 -11 21 -12 21 -80 0 -81 0 2 -62z"/>
</g>
</svg>
