<?xml version="1.0" standalone="no"?>
<!DOCTYPE svg PUBLIC "-//W3C//DTD SVG 20010904//EN"
 "http://www.w3.org/TR/2001/REC-SVG-20010904/DTD/svg10.dtd">
<svg version="1.0" xmlns="http://www.w3.org/2000/svg"
 width="57.000000pt" height="43.000000pt" viewBox="0 0 57.000000 43.000000"
 preserveAspectRatio="xMidYMid meet">
<metadata>
Created by potrace 1.16, written by Peter Selinger 2001-2019
</metadata>
<g transform="translate(0.000000,43.000000) scale(0.100000,-0.100000)"
fill="#000000" stroke="none">
<path d="M20 360 l0 -71 35 7 36 6 19 -22 20 -23 0 -15 0 -16 -12 -33 -12 -34
-23 -5 -23 -6 -30 4 -31 5 3 -73 3 -73 20 -5 20 -6 43 0 43 0 22 12 22 11 14
14 14 14 -12 25 -11 25 0 4 0 5 33 0 32 0 15 -10 15 -9 -3 -30 -3 -29 18 -5
18 -5 48 -7 47 -6 19 6 18 5 7 71 6 71 15 14 14 15 25 -7 25 -6 20 7 21 6 0
34 0 34 -39 11 -39 10 -15 -6 -15 -6 -21 11 -20 11 6 72 6 71 -18 -7 -18 -7
-46 -10 -46 -10 -17 -5 -17 -5 6 -33 5 -33 -17 -16 -16 -17 -25 0 -24 0 0 10
0 10 -15 0 -15 0 -6 25 -6 25 6 35 7 35 -76 0 -75 0 0 -70z"/>
</g>
</svg>
