<?xml version="1.0" standalone="no"?>
<!DOCTYPE svg PUBLIC "-//W3C//DTD SVG 20010904//EN"
 "http://www.w3.org/TR/2001/REC-SVG-20010904/DTD/svg10.dtd">
<svg version="1.0" xmlns="http://www.w3.org/2000/svg"
 width="59.000000pt" height="45.000000pt" viewBox="0 0 59.000000 45.000000"
 preserveAspectRatio="xMidYMid meet">
<metadata>
Created by potrace 1.16, written by Peter Selinger 2001-2019
</metadata>
<g transform="translate(0.000000,45.000000) scale(0.100000,-0.100000)"
fill="#000000" stroke="none">
<path d="M20 369 l0 -82 37 6 36 6 19 -21 18 -21 0 -8 0 -8 -12 -28 -13 -28
-10 -8 -10 -8 -43 5 -42 6 1 -84 1 -84 22 -6 21 -6 53 0 53 0 22 12 22 11 13
14 14 14 -6 29 -5 30 13 0 14 0 16 -6 16 -6 0 -33 0 -34 18 -5 17 -5 56 -6 57
-7 20 6 19 6 7 71 6 70 12 13 12 12 23 -4 23 -4 25 6 25 6 0 45 0 44 -41 11
-42 12 -17 -5 -18 -5 -13 9 -14 8 4 71 3 70 -12 0 -13 0 -36 -10 -36 -10 -43
-11 -44 -10 6 -34 7 -33 -16 -16 -16 -16 -15 0 -14 0 0 10 0 10 -14 0 -14 0
-6 17 -7 16 7 44 6 43 -86 0 -86 0 0 -81z"/>
</g>
</svg>
