<?xml version="1.0" standalone="no"?>
<!DOCTYPE svg PUBLIC "-//W3C//DTD SVG 20010904//EN"
 "http://www.w3.org/TR/2001/REC-SVG-20010904/DTD/svg10.dtd">
<svg version="1.0" xmlns="http://www.w3.org/2000/svg"
 width="55.000000pt" height="54.000000pt" viewBox="0 0 55.000000 54.000000"
 preserveAspectRatio="xMidYMid meet">
<metadata>
Created by potrace 1.16, written by Peter Selinger 2001-2019
</metadata>
<g transform="translate(0.000000,54.000000) scale(0.100000,-0.100000)"
fill="#000000" stroke="none">
<path d="M174 526 l-6 -15 10 -18 10 -17 -21 -18 -21 -19 -24 -6 -23 -6 -44 6
-43 6 -7 -69 -7 -69 7 -11 7 -11 28 6 28 6 26 -26 26 -26 0 -19 0 -19 -11 -24
-11 -24 -23 5 -24 4 -6 -28 -6 -29 -9 -31 -10 -30 0 -22 0 -22 218 2 217 3 3
30 3 30 10 37 9 36 29 7 29 6 6 31 6 31 0 38 0 39 -10 0 -9 0 -25 -12 -26 -11
-21 24 -21 24 4 66 5 65 -62 1 -61 0 -23 8 -22 7 6 28 6 29 -20 10 -20 11 -36
0 -36 0 -5 -14z"/>
</g>
</svg>
