<?xml version="1.0" standalone="no"?>
<!DOCTYPE svg PUBLIC "-//W3C//DTD SVG 20010904//EN"
 "http://www.w3.org/TR/2001/REC-SVG-20010904/DTD/svg10.dtd">
<svg version="1.0" xmlns="http://www.w3.org/2000/svg"
 width="53.000000pt" height="52.000000pt" viewBox="0 0 53.000000 52.000000"
 preserveAspectRatio="xMidYMid meet">
<metadata>
Created by potrace 1.16, written by Peter Selinger 2001-2019
</metadata>
<g transform="translate(0.000000,52.000000) scale(0.100000,-0.100000)"
fill="#000000" stroke="none">
<path d="M177 514 l-6 -6 11 -24 11 -24 -23 -20 -24 -21 -23 -5 -23 -6 -44 3
-44 4 -7 -58 -6 -57 5 -8 5 -9 29 5 29 4 27 -27 26 -26 0 -29 0 -29 -12 -26
-12 -26 -23 6 -23 5 -5 -27 -6 -28 -9 -31 -10 -30 0 -12 0 -12 208 2 207 3 3
30 3 30 10 37 9 36 29 7 29 6 6 31 6 31 0 29 0 29 -19 -11 -20 -10 -17 0 -17
0 -19 22 -19 23 3 65 3 65 -56 1 -56 1 -27 7 -27 7 3 30 3 30 -15 9 -15 10
-26 0 -26 0 -6 -6z"/>
</g>
</svg>
