<?xml version="1.0" standalone="no"?>
<!DOCTYPE svg PUBLIC "-//W3C//DTD SVG 20010904//EN"
 "http://www.w3.org/TR/2001/REC-SVG-20010904/DTD/svg10.dtd">
<svg version="1.0" xmlns="http://www.w3.org/2000/svg"
 width="46.000000pt" height="55.000000pt" viewBox="0 0 46.000000 55.000000"
 preserveAspectRatio="xMidYMid meet">
<metadata>
Created by potrace 1.16, written by Peter Selinger 2001-2019
</metadata>
<g transform="translate(0.000000,55.000000) scale(0.100000,-0.100000)"
fill="#000000" stroke="none">
<path d="M191 541 l-14 -9 7 -35 7 -35 -17 -17 -17 -17 -73 4 -72 3 -5 -58 -5
-59 10 -28 10 -29 48 6 48 6 12 -22 11 -22 -6 -20 -7 -21 -24 6 -25 7 -13 -13
-12 -13 -13 -60 -13 -60 -5 -21 -5 -21 24 -6 23 -7 43 0 43 0 14 14 14 14 -5
34 -6 35 17 16 16 17 20 0 20 0 20 -10 19 -11 0 -38 0 -39 14 -5 13 -5 47 -7
46 -7 26 6 26 7 -7 47 -6 47 -10 38 -10 38 -32 -3 -31 -3 -6 25 -6 25 4 20 4
21 34 -4 35 -4 19 22 20 23 0 61 0 61 -75 -3 -75 -4 0 11 0 11 -15 0 -15 0 0
15 0 15 9 0 8 0 -4 24 -5 24 -24 11 -25 11 -17 0 -17 0 -14 -9z"/>
</g>
</svg>
