<?xml version="1.0" standalone="no"?>
<!DOCTYPE svg PUBLIC "-//W3C//DTD SVG 20010904//EN"
 "http://www.w3.org/TR/2001/REC-SVG-20010904/DTD/svg10.dtd">
<svg version="1.0" xmlns="http://www.w3.org/2000/svg"
 width="56.000000pt" height="67.000000pt" viewBox="0 0 56.000000 67.000000"
 preserveAspectRatio="xMidYMid meet">
<metadata>
Created by potrace 1.16, written by Peter Selinger 2001-2019
</metadata>
<g transform="translate(0.000000,67.000000) scale(0.100000,-0.100000)"
fill="#000000" stroke="none">
<path d="M285 653 l-17 -16 6 -35 5 -34 -15 -16 -15 -15 -70 6 -69 6 0 -80 0
-80 -22 7 -23 7 -11 4 -10 4 -22 -19 -22 -19 0 -26 0 -25 6 -16 6 -16 33 0 34
0 7 -57 7 -58 10 -20 10 -20 11 -7 11 -8 67 0 67 0 10 -19 10 -18 -6 -36 -5
-36 26 -7 26 -6 35 6 35 7 0 14 0 15 10 0 10 0 -2 33 -3 32 56 5 55 5 17 17
17 16 -7 62 -6 62 -15 14 -14 15 -29 -6 -28 -6 -10 20 -11 20 0 19 0 20 15 6
15 5 30 -5 29 -6 16 15 15 16 0 78 0 78 -62 0 -63 0 -27 8 -28 7 0 40 0 39
-19 11 -20 10 -20 0 -20 0 -16 -17z"/>
</g>
</svg>
