<?xml version="1.0" standalone="no"?>
<!DOCTYPE svg PUBLIC "-//W3C//DTD SVG 20010904//EN"
 "http://www.w3.org/TR/2001/REC-SVG-20010904/DTD/svg10.dtd">
<svg version="1.0" xmlns="http://www.w3.org/2000/svg"
 width="48.000000pt" height="57.000000pt" viewBox="0 0 48.000000 57.000000"
 preserveAspectRatio="xMidYMid meet">
<metadata>
Created by potrace 1.16, written by Peter Selinger 2001-2019
</metadata>
<g transform="translate(0.000000,57.000000) scale(0.100000,-0.100000)"
fill="#000000" stroke="none">
<path d="M192 561 l-13 -8 2 -42 3 -42 -15 -10 -14 -10 -71 5 -71 4 -7 -68 -6
-67 11 -32 11 -33 48 7 48 7 10 -19 9 -18 -4 -11 -4 -11 -24 5 -24 4 -14 -13
-13 -14 -13 -60 -13 -60 -5 -31 -5 -31 24 -6 23 -7 53 0 53 0 16 15 15 16 -6
33 -7 34 16 16 16 16 10 0 10 0 20 -10 19 -11 0 -38 0 -39 16 -6 16 -6 53 -6
53 -7 28 7 27 7 -7 57 -7 57 -10 38 -10 37 -34 0 -35 0 0 30 0 30 36 0 37 0
18 22 19 21 0 73 0 72 -75 -5 -75 -6 0 12 0 11 -17 0 -18 0 13 8 12 8 -6 31
-6 31 -24 11 -25 11 -27 0 -27 0 -13 -9z"/>
</g>
</svg>
