<?xml version="1.0" standalone="no"?>
<!DOCTYPE svg PUBLIC "-//W3C//DTD SVG 20010904//EN"
 "http://www.w3.org/TR/2001/REC-SVG-20010904/DTD/svg10.dtd">
<svg version="1.0" xmlns="http://www.w3.org/2000/svg"
 width="58.000000pt" height="69.000000pt" viewBox="0 0 58.000000 69.000000"
 preserveAspectRatio="xMidYMid meet">
<metadata>
Created by potrace 1.16, written by Peter Selinger 2001-2019
</metadata>
<g transform="translate(0.000000,69.000000) scale(0.100000,-0.100000)"
fill="#000000" stroke="none">
<path d="M285 673 l-17 -16 4 -37 3 -37 -13 -13 -14 -12 -69 6 -69 7 0 -76 0
-76 -33 6 -32 6 -23 -19 -22 -19 0 -36 0 -35 6 -16 6 -16 33 0 34 0 7 -57 7
-58 10 -20 10 -20 11 -7 11 -8 67 0 67 0 7 -12 8 -12 -3 -40 -2 -39 13 -8 13
-9 35 0 35 0 23 6 22 6 0 14 0 14 11 0 11 0 -4 33 -3 32 56 5 55 5 18 17 17
18 -7 71 -7 70 -15 16 -15 15 -30 -5 -29 -4 -11 24 -10 23 7 7 7 7 40 -2 40
-3 14 15 15 15 0 89 0 90 -62 -1 -63 -2 -27 8 -28 7 0 40 0 39 -19 11 -20 10
-30 0 -30 0 -16 -17z"/>
</g>
</svg>
