<?xml version="1.0" standalone="no"?>
<!DOCTYPE svg PUBLIC "-//W3C//DTD SVG 20010904//EN"
 "http://www.w3.org/TR/2001/REC-SVG-20010904/DTD/svg10.dtd">
<svg version="1.0" xmlns="http://www.w3.org/2000/svg"
 width="45.000000pt" height="58.000000pt" viewBox="0 0 45.000000 58.000000"
 preserveAspectRatio="xMidYMid meet">
<metadata>
Created by potrace 1.16, written by Peter Selinger 2001-2019
</metadata>
<g transform="translate(0.000000,58.000000) scale(0.100000,-0.100000)"
fill="#000000" stroke="none">
<path d="M306 525 l7 -55 -12 0 -11 0 0 -14 0 -14 -16 -6 -16 -6 -32 0 -33 0
-23 20 -23 20 5 50 5 50 -71 0 -71 0 3 -86 4 -86 39 6 39 6 25 -6 24 -6 6 -18
5 -17 -5 -16 -6 -15 -30 -12 -29 -12 -45 6 -45 7 0 -23 0 -23 7 -67 6 -68 79
0 79 0 -7 -35 -6 -35 6 -25 6 -25 15 0 15 0 0 -10 0 -10 24 0 25 0 16 17 17
16 -5 34 -6 33 42 10 42 10 40 11 40 11 7 12 8 11 0 57 0 56 -6 16 -6 16 -53
0 -53 0 -6 16 -6 16 0 28 0 28 39 -5 40 -5 14 13 14 14 11 22 12 22 0 58 0 58
-75 2 -75 3 6 -55z"/>
</g>
</svg>
