<?xml version="1.0" standalone="no"?>
<!DOCTYPE svg PUBLIC "-//W3C//DTD SVG 20010904//EN"
 "http://www.w3.org/TR/2001/REC-SVG-20010904/DTD/svg10.dtd">
<svg version="1.0" xmlns="http://www.w3.org/2000/svg"
 width="47.000000pt" height="60.000000pt" viewBox="0 0 47.000000 60.000000"
 preserveAspectRatio="xMidYMid meet">
<metadata>
Created by potrace 1.16, written by Peter Selinger 2001-2019
</metadata>
<g transform="translate(0.000000,60.000000) scale(0.100000,-0.100000)"
fill="#000000" stroke="none">
<path d="M305 545 l6 -55 -10 0 -11 0 0 -14 0 -14 -16 -6 -16 -6 -22 0 -23 0
-23 20 -23 20 7 50 7 50 -87 0 -86 0 6 -22 6 -23 0 -73 0 -72 60 2 61 3 8 -14
9 -14 -4 -12 -5 -12 -26 -12 -25 -11 -49 6 -49 7 0 -34 0 -34 7 -67 6 -68 76
0 77 0 -4 -35 -4 -35 6 -25 6 -25 15 0 15 0 0 -10 0 -10 33 0 32 0 14 9 14 9
6 43 6 43 74 18 75 18 8 13 8 12 0 67 0 66 -6 16 -6 16 -53 0 -53 0 -6 16 -6
16 0 14 0 14 41 0 40 0 13 13 13 12 11 22 12 22 0 69 0 69 -86 2 -86 1 7 -55z"/>
</g>
</svg>
