<?xml version="1.0" standalone="no"?>
<!DOCTYPE svg PUBLIC "-//W3C//DTD SVG 20010904//EN"
 "http://www.w3.org/TR/2001/REC-SVG-20010904/DTD/svg10.dtd">
<svg version="1.0" xmlns="http://www.w3.org/2000/svg"
 width="65.000000pt" height="45.000000pt" viewBox="0 0 65.000000 45.000000"
 preserveAspectRatio="xMidYMid meet">
<metadata>
Created by potrace 1.16, written by Peter Selinger 2001-2019
</metadata>
<g transform="translate(0.000000,45.000000) scale(0.100000,-0.100000)"
fill="#000000" stroke="none">
<path d="M130 387 l0 -58 -12 -22 -11 -22 -14 -14 -14 -13 -40 5 -39 5 0 -28
0 -28 6 -16 6 -16 54 0 54 0 6 -25 6 -26 -4 -58 -4 -58 70 -6 70 -6 8 12 8 12
-6 32 -6 33 6 25 6 25 44 0 43 0 11 -26 12 -25 -6 -23 -5 -23 16 -17 16 -16
57 0 57 0 22 6 23 6 -6 9 -5 9 11 42 11 43 11 28 11 28 21 -3 21 -3 3 34 3 34
-6 25 -6 26 -8 -13 -9 -13 -23 7 -23 8 -14 13 -13 14 -6 58 -6 57 -11 7 -11 8
-30 0 -30 0 -23 -6 -23 -7 5 -21 5 -22 -5 -21 -6 -21 -29 -12 -29 -12 -24 6
-23 6 -13 29 -12 29 11 20 11 21 0 5 0 5 -85 3 -85 3 0 -58z"/>
</g>
</svg>
