<?xml version="1.0" standalone="no"?>
<!DOCTYPE svg PUBLIC "-//W3C//DTD SVG 20010904//EN"
 "http://www.w3.org/TR/2001/REC-SVG-20010904/DTD/svg10.dtd">
<svg version="1.0" xmlns="http://www.w3.org/2000/svg"
 width="70.000000pt" height="46.000000pt" viewBox="0 0 70.000000 46.000000"
 preserveAspectRatio="xMidYMid meet">
<metadata>
Created by potrace 1.16, written by Peter Selinger 2001-2019
</metadata>
<g transform="translate(0.000000,46.000000) scale(0.100000,-0.100000)"
fill="#000000" stroke="none">
<path d="M107 453 l-7 -6 0 -69 0 -68 -10 0 -10 0 0 -15 0 -15 -17 -1 -18 -1
-23 2 -23 2 3 -49 3 -48 32 2 32 3 11 -40 11 -40 0 -55 1 -55 83 0 83 0 6 16
6 16 0 43 0 43 16 6 16 6 29 0 30 0 -7 -35 -6 -36 21 -18 21 -18 68 -7 68 -7
17 6 16 7 3 71 3 72 19 -3 18 -3 32 12 31 13 18 19 17 20 0 22 0 22 -21 24
-21 24 -48 -1 -49 0 -5 20 -6 21 0 53 0 52 -218 0 -219 0 -6 -7z"/>
</g>
</svg>
