<?xml version="1.0" standalone="no"?>
<!DOCTYPE svg PUBLIC "-//W3C//DTD SVG 20010904//EN"
 "http://www.w3.org/TR/2001/REC-SVG-20010904/DTD/svg10.dtd">
<svg version="1.0" xmlns="http://www.w3.org/2000/svg"
 width="67.000000pt" height="47.000000pt" viewBox="0 0 67.000000 47.000000"
 preserveAspectRatio="xMidYMid meet">
<metadata>
Created by potrace 1.16, written by Peter Selinger 2001-2019
</metadata>
<g transform="translate(0.000000,47.000000) scale(0.100000,-0.100000)"
fill="#000000" stroke="none">
<path d="M130 407 l0 -58 -12 -22 -11 -22 -14 -13 -13 -14 -40 7 -40 7 0 -40
0 -40 6 -16 6 -16 54 0 54 0 6 -26 7 -26 -6 -58 -6 -57 81 -7 81 -7 9 13 9 13
-6 41 -6 41 7 16 6 17 33 0 34 0 7 -22 8 -23 -3 -26 -2 -26 16 -17 16 -16 67
0 67 0 22 6 22 6 -1 26 -1 27 12 40 11 40 7 10 8 10 20 0 20 0 3 44 3 44 -6
24 -5 23 -15 0 -15 0 0 -10 0 -9 -17 6 -18 7 -13 13 -13 13 -6 58 -6 57 -11 7
-11 8 -40 0 -40 0 -23 -6 -23 -7 1 -26 2 -26 -1 -16 -1 -16 -26 -12 -26 -12
-18 6 -17 5 -10 22 -10 22 11 28 10 27 -4 4 -5 5 -92 4 -93 4 0 -59z"/>
</g>
</svg>
