<?xml version="1.0" standalone="no"?>
<!DOCTYPE svg PUBLIC "-//W3C//DTD SVG 20010904//EN"
 "http://www.w3.org/TR/2001/REC-SVG-20010904/DTD/svg10.dtd">
<svg version="1.0" xmlns="http://www.w3.org/2000/svg"
 width="68.000000pt" height="44.000000pt" viewBox="0 0 68.000000 44.000000"
 preserveAspectRatio="xMidYMid meet">
<metadata>
Created by potrace 1.16, written by Peter Selinger 2001-2019
</metadata>
<g transform="translate(0.000000,44.000000) scale(0.100000,-0.100000)"
fill="#000000" stroke="none">
<path d="M107 433 l-7 -6 0 -69 0 -68 -10 0 -10 0 0 -14 0 -14 -24 -6 -24 -6
-17 6 -16 7 3 -39 3 -39 32 3 32 3 10 -39 11 -40 3 -56 2 -56 72 0 72 0 5 18
5 17 -1 39 0 39 14 8 13 9 44 0 44 0 -6 -37 -6 -36 19 -17 20 -17 60 -6 59 -7
16 6 15 6 0 67 0 66 9 14 9 15 15 -12 15 -13 28 13 29 13 18 19 17 19 0 12 0
12 -17 20 -18 20 -22 7 -22 7 -19 -10 -18 -10 -14 9 -14 9 -4 70 -4 71 -207 0
-208 0 -6 -7z"/>
</g>
</svg>
