<?xml version="1.0" standalone="no"?>
<!DOCTYPE svg PUBLIC "-//W3C//DTD SVG 20010904//EN"
 "http://www.w3.org/TR/2001/REC-SVG-20010904/DTD/svg10.dtd">
<svg version="1.0" xmlns="http://www.w3.org/2000/svg"
 width="67.000000pt" height="49.000000pt" viewBox="0 0 67.000000 49.000000"
 preserveAspectRatio="xMidYMid meet">
<metadata>
Created by potrace 1.16, written by Peter Selinger 2001-2019
</metadata>
<g transform="translate(0.000000,49.000000) scale(0.100000,-0.100000)"
fill="#000000" stroke="none">
<path d="M120 403 l0 -68 -9 -13 -8 -14 -46 7 -46 7 -6 -25 -7 -26 7 -21 7
-22 39 6 39 6 0 -10 0 -10 16 0 16 0 -3 -87 -3 -88 69 -7 70 -7 26 11 27 10
-5 59 -6 59 18 6 18 7 14 -19 15 -19 -6 -57 -6 -57 17 -16 16 -16 21 4 21 5
58 13 58 12 -7 16 -6 16 -15 58 -15 58 7 26 6 25 40 -6 40 -6 40 10 39 11 0
34 0 34 -20 6 -19 6 -20 -10 -20 -11 -19 0 -19 0 -11 25 -12 26 0 54 0 55 -32
-15 -33 -14 -41 -11 -42 -10 -6 -31 -6 -32 -35 6 -35 6 -16 15 -15 15 3 38 3
38 -77 3 -78 3 0 -68z"/>
</g>
</svg>
