<?xml version="1.0" standalone="no"?>
<!DOCTYPE svg PUBLIC "-//W3C//DTD SVG 20010904//EN"
 "http://www.w3.org/TR/2001/REC-SVG-20010904/DTD/svg10.dtd">
<svg version="1.0" xmlns="http://www.w3.org/2000/svg"
 width="69.000000pt" height="51.000000pt" viewBox="0 0 69.000000 51.000000"
 preserveAspectRatio="xMidYMid meet">
<metadata>
Created by potrace 1.16, written by Peter Selinger 2001-2019
</metadata>
<g transform="translate(0.000000,51.000000) scale(0.100000,-0.100000)"
fill="#000000" stroke="none">
<path d="M117 446 l6 -64 -7 -26 -6 -26 -46 7 -46 6 -9 -14 -9 -14 0 -30 0
-30 9 -14 9 -13 36 4 36 4 0 -8 0 -8 16 0 16 0 -3 -88 -4 -87 80 -7 80 -8 28
11 28 12 -7 57 -6 57 10 7 11 7 11 -21 11 -21 -6 -53 -7 -53 17 -16 16 -17 14
0 14 0 77 17 76 16 -5 21 -5 21 -16 59 -16 59 5 18 6 19 38 -6 37 -6 42 11 42
12 0 44 0 45 -26 6 -25 7 -25 -12 -25 -11 -8 0 -8 0 -11 25 -12 26 0 54 0 55
-10 0 -9 0 -33 -15 -33 -14 -41 -11 -42 -10 -6 -31 -6 -31 -26 6 -26 7 -13 13
-13 12 2 40 1 39 -77 3 -78 3 0 9 0 10 -15 0 -14 0 6 -64z"/>
</g>
</svg>
