<?xml version="1.0" standalone="no"?>
<!DOCTYPE svg PUBLIC "-//W3C//DTD SVG 20010904//EN"
 "http://www.w3.org/TR/2001/REC-SVG-20010904/DTD/svg10.dtd">
<svg version="1.0" xmlns="http://www.w3.org/2000/svg"
 width="70.000000pt" height="57.000000pt" viewBox="0 0 70.000000 57.000000"
 preserveAspectRatio="xMidYMid meet">
<metadata>
Created by potrace 1.16, written by Peter Selinger 2001-2019
</metadata>
<g transform="translate(0.000000,57.000000) scale(0.100000,-0.100000)"
fill="#000000" stroke="none">
<path d="M140 488 l0 -77 -50 6 -50 6 0 -12 0 -11 -14 0 -14 0 -6 -16 -6 -16
0 -29 0 -29 15 0 15 0 0 -10 0 -10 39 0 39 0 12 -68 11 -68 9 -14 9 -15 85 -4
85 -3 -5 -28 -6 -28 12 -23 13 -24 11 -7 11 -8 27 0 27 0 25 12 26 11 6 33 6
33 -6 10 -6 9 30 7 30 7 30 -7 30 -6 20 6 20 6 0 20 0 19 -8 0 -9 0 8 54 7 54
6 20 7 21 32 3 32 3 3 48 3 49 -30 -7 -31 -7 0 11 0 11 -14 0 -14 0 -11 31
-11 32 0 40 0 39 -22 -7 -23 -7 -55 -12 -55 -12 -3 -29 -4 -28 -13 -14 -14
-13 -30 0 -30 0 -16 17 -17 16 5 26 5 26 7 21 7 22 -96 -2 -96 -1 0 -77z"/>
</g>
</svg>
