<?xml version="1.0" standalone="no"?>
<!DOCTYPE svg PUBLIC "-//W3C//DTD SVG 20010904//EN"
 "http://www.w3.org/TR/2001/REC-SVG-20010904/DTD/svg10.dtd">
<svg version="1.0" xmlns="http://www.w3.org/2000/svg"
 width="68.000000pt" height="55.000000pt" viewBox="0 0 68.000000 55.000000"
 preserveAspectRatio="xMidYMid meet">
<metadata>
Created by potrace 1.16, written by Peter Selinger 2001-2019
</metadata>
<g transform="translate(0.000000,55.000000) scale(0.100000,-0.100000)"
fill="#000000" stroke="none">
<path d="M140 467 l0 -79 -50 7 -50 7 0 -11 0 -11 -14 0 -14 0 -6 -16 -6 -16
0 -19 0 -19 15 0 15 0 0 -10 0 -10 39 0 39 0 12 -68 11 -68 9 -14 9 -15 91 -3
90 -4 0 -5 0 -4 -11 -21 -11 -20 12 -29 13 -29 23 -6 24 -6 29 12 29 12 6 22
5 22 -5 21 -6 22 36 6 36 7 33 -6 32 -6 15 10 15 10 -12 8 -12 8 9 65 10 66 6
16 6 16 31 3 32 3 3 36 3 36 -30 -5 -31 -4 0 11 0 11 -14 0 -14 0 -11 31 -11
32 0 39 0 39 -12 -8 -13 -7 -55 -11 -55 -11 -3 -29 -4 -28 -13 -14 -14 -13
-40 0 -40 0 -15 16 -16 15 0 30 0 30 10 18 9 18 -84 -1 -85 -1 0 -78z"/>
</g>
</svg>
