<?xml version="1.0" standalone="no"?>
<!DOCTYPE svg PUBLIC "-//W3C//DTD SVG 20010904//EN"
 "http://www.w3.org/TR/2001/REC-SVG-20010904/DTD/svg10.dtd">
<svg version="1.0" xmlns="http://www.w3.org/2000/svg"
 width="48.000000pt" height="56.000000pt" viewBox="0 0 48.000000 56.000000"
 preserveAspectRatio="xMidYMid meet">
<metadata>
Created by potrace 1.16, written by Peter Selinger 2001-2019
</metadata>
<g transform="translate(0.000000,56.000000) scale(0.100000,-0.100000)"
fill="#000000" stroke="none">
<path d="M174 535 l-6 -26 6 -29 5 -30 -5 -15 -6 -14 -77 6 -78 6 -6 -69 -6
-69 17 -13 17 -13 21 5 20 5 37 -10 37 -10 0 -34 0 -35 -24 -6 -25 -6 -20 7
-21 6 -14 -14 -14 -14 -7 -56 -7 -57 6 -25 6 -25 71 0 70 0 15 14 14 14 -6 30
-6 29 16 32 17 31 12 0 12 0 23 -6 22 -6 0 -14 0 -14 -10 0 -10 0 0 -15 0 -15
15 0 15 0 0 -10 0 -9 43 -11 42 -11 24 -10 23 -10 18 6 19 6 6 63 7 64 -7 22
-7 22 -43 -6 -43 -7 -16 16 -16 16 0 23 0 22 34 0 33 0 18 18 18 18 7 38 7 38
-4 28 -5 29 -72 -3 -73 -4 -17 17 -17 18 5 23 6 23 -12 25 -11 26 -43 0 -44 0
-6 -25z"/>
</g>
</svg>
