<?xml version="1.0" standalone="no"?>
<!DOCTYPE svg PUBLIC "-//W3C//DTD SVG 20010904//EN"
 "http://www.w3.org/TR/2001/REC-SVG-20010904/DTD/svg10.dtd">
<svg version="1.0" xmlns="http://www.w3.org/2000/svg"
 width="50.000000pt" height="58.000000pt" viewBox="0 0 50.000000 58.000000"
 preserveAspectRatio="xMidYMid meet">
<metadata>
Created by potrace 1.16, written by Peter Selinger 2001-2019
</metadata>
<g transform="translate(0.000000,58.000000) scale(0.100000,-0.100000)"
fill="#000000" stroke="none">
<path d="M175 560 l-6 -20 1 -38 2 -37 -1 -11 -1 -11 -78 5 -79 4 -7 -78 -6
-79 17 -12 16 -13 36 2 36 1 23 -7 22 -7 0 -24 0 -23 -15 -6 -15 -5 -30 5 -29
6 -15 -15 -15 -15 -7 -65 -7 -65 7 -26 6 -26 81 0 80 0 16 15 15 16 -6 30 -6
30 15 30 16 29 7 -1 7 0 20 -9 20 -9 -12 0 -13 -1 0 -25 0 -25 14 0 14 0 4
-10 3 -11 55 -15 55 -16 25 -4 25 -5 12 8 12 9 7 66 7 66 -7 27 -7 27 -45 -5
-45 -5 -14 15 -15 14 0 8 0 8 35 6 35 6 17 16 16 17 8 41 8 42 -6 37 -5 36
-72 -5 -72 -6 -16 17 -16 16 5 20 5 20 -12 30 -12 30 -54 0 -53 0 -6 -20z"/>
</g>
</svg>
