<?xml version="1.0" standalone="no"?>
<!DOCTYPE svg PUBLIC "-//W3C//DTD SVG 20010904//EN"
 "http://www.w3.org/TR/2001/REC-SVG-20010904/DTD/svg10.dtd">
<svg version="1.0" xmlns="http://www.w3.org/2000/svg"
 width="60.000000pt" height="46.000000pt" viewBox="0 0 60.000000 46.000000"
 preserveAspectRatio="xMidYMid meet">
<metadata>
Created by potrace 1.16, written by Peter Selinger 2001-2019
</metadata>
<g transform="translate(0.000000,46.000000) scale(0.100000,-0.100000)"
fill="#000000" stroke="none">
<path d="M117 453 l-7 -6 0 -54 0 -54 -11 -22 -12 -22 -11 -7 -11 -8 -33 6
-32 6 0 -40 0 -40 6 -16 6 -16 53 0 54 0 6 -21 7 -21 -7 -44 -6 -44 -10 0 -9
0 0 -20 0 -20 26 -6 26 -7 54 6 54 6 16 16 16 16 -4 39 -4 40 38 0 38 0 0 -24
0 -25 13 -13 14 -14 82 -18 82 -19 5 5 5 5 19 56 20 57 0 39 0 39 -22 6 -23 6
-37 0 -36 0 -16 6 -16 6 0 23 0 23 39 -5 40 -5 17 17 18 17 4 54 4 53 -6 26
-6 25 -219 0 -218 0 -6 -7z"/>
</g>
</svg>
