<?xml version="1.0" standalone="no"?>
<!DOCTYPE svg PUBLIC "-//W3C//DTD SVG 20010904//EN"
 "http://www.w3.org/TR/2001/REC-SVG-20010904/DTD/svg10.dtd">
<svg version="1.0" xmlns="http://www.w3.org/2000/svg"
 width="58.000000pt" height="44.000000pt" viewBox="0 0 58.000000 44.000000"
 preserveAspectRatio="xMidYMid meet">
<metadata>
Created by potrace 1.16, written by Peter Selinger 2001-2019
</metadata>
<g transform="translate(0.000000,44.000000) scale(0.100000,-0.100000)"
fill="#000000" stroke="none">
<path d="M117 433 l-7 -6 0 -53 0 -53 -12 -26 -11 -25 -23 -6 -23 -6 -20 7
-21 6 0 -30 0 -29 6 -16 6 -16 54 0 54 0 6 -26 7 -25 -7 -47 -6 -46 -13 -8
-12 -8 15 -11 15 -10 57 5 57 4 17 17 16 16 -6 39 -6 40 55 0 55 0 -5 -22 -5
-23 8 -13 9 -13 78 -20 78 -19 4 4 4 3 19 56 20 57 0 29 0 29 -22 6 -23 6 -40
0 -40 0 -13 9 -13 8 3 34 3 34 15 -4 15 -4 22 -4 22 -5 17 16 17 17 5 44 4 44
-6 25 -6 26 -209 0 -208 0 -6 -7z"/>
</g>
</svg>
