<?xml version="1.0" standalone="no"?>
<!DOCTYPE svg PUBLIC "-//W3C//DTD SVG 20010904//EN"
 "http://www.w3.org/TR/2001/REC-SVG-20010904/DTD/svg10.dtd">
<svg version="1.0" xmlns="http://www.w3.org/2000/svg"
 width="51.000000pt" height="58.000000pt" viewBox="0 0 51.000000 58.000000"
 preserveAspectRatio="xMidYMid meet">
<metadata>
Created by potrace 1.16, written by Peter Selinger 2001-2019
</metadata>
<g transform="translate(0.000000,58.000000) scale(0.100000,-0.100000)"
fill="#000000" stroke="none">
<path d="M194 549 l-16 -32 4 -32 4 -32 -14 -13 -14 -13 -79 6 -79 5 0 -72 0
-73 20 -23 19 -22 36 4 35 4 0 -12 0 -11 -6 -31 -6 -31 -29 -6 -28 -6 -11 -37
-10 -37 0 -42 0 -43 225 0 226 0 6 18 7 17 9 6 10 7 5 71 5 71 -73 -1 -72 -1
-9 13 -9 14 3 15 2 15 55 3 55 3 7 12 8 12 0 62 0 62 -9 23 -9 23 -33 12 -34
12 -42 11 -43 11 0 9 0 10 -17 1 -18 1 13 5 12 5 0 23 0 23 -22 6 -23 6 -22 0
-22 0 -17 -31z"/>
</g>
</svg>
