<?xml version="1.0" standalone="no"?>
<!DOCTYPE svg PUBLIC "-//W3C//DTD SVG 20010904//EN"
 "http://www.w3.org/TR/2001/REC-SVG-20010904/DTD/svg10.dtd">
<svg version="1.0" xmlns="http://www.w3.org/2000/svg"
 width="49.000000pt" height="56.000000pt" viewBox="0 0 49.000000 56.000000"
 preserveAspectRatio="xMidYMid meet">
<metadata>
Created by potrace 1.16, written by Peter Selinger 2001-2019
</metadata>
<g transform="translate(0.000000,56.000000) scale(0.100000,-0.100000)"
fill="#000000" stroke="none">
<path d="M194 529 l-16 -32 6 -29 6 -30 -15 -15 -16 -15 -79 4 -80 3 0 -61 0
-61 19 -21 18 -22 17 0 17 0 20 10 19 11 0 -29 0 -29 -6 -31 -6 -31 -29 -6
-28 -6 -11 -37 -10 -37 0 -32 0 -33 215 0 216 0 6 18 7 17 9 6 9 6 5 61 6 61
-72 -1 -73 -2 -9 15 -9 14 2 25 3 25 55 3 55 3 7 12 8 12 0 52 0 52 -9 23 -9
23 -33 12 -34 12 -42 11 -43 11 0 9 0 10 -15 0 -15 0 0 15 0 15 10 0 10 0 0
14 0 14 -22 6 -23 6 -12 0 -12 0 -17 -31z"/>
</g>
</svg>
