<?xml version="1.0" standalone="no"?>
<!DOCTYPE svg PUBLIC "-//W3C//DTD SVG 20010904//EN"
 "http://www.w3.org/TR/2001/REC-SVG-20010904/DTD/svg10.dtd">
<svg version="1.0" xmlns="http://www.w3.org/2000/svg"
 width="61.000000pt" height="69.000000pt" viewBox="0 0 61.000000 69.000000"
 preserveAspectRatio="xMidYMid meet">
<metadata>
Created by potrace 1.16, written by Peter Selinger 2001-2019
</metadata>
<g transform="translate(0.000000,69.000000) scale(0.100000,-0.100000)"
fill="#000000" stroke="none">
<path d="M311 681 l-13 -9 -3 -48 -3 -49 -1 -7 -1 -8 -80 0 -80 0 0 -65 0 -64
-30 5 -29 6 -24 -6 -24 -6 -11 -25 -12 -26 0 -28 0 -28 20 -23 20 -23 30 6 30
6 0 -21 0 -22 16 -58 16 -57 20 -7 20 -6 64 7 64 7 0 -45 0 -44 19 -21 18 -22
38 0 38 0 19 22 20 23 -6 38 -6 37 57 0 58 0 24 7 23 6 -6 66 -7 66 -11 29
-11 28 -34 -5 -34 -6 -15 6 -14 5 0 33 0 33 16 6 16 6 38 0 38 0 16 6 16 6 0
53 0 53 -6 31 -6 31 -27 -2 -26 -2 -41 2 -41 2 -19 18 -19 17 3 38 3 37 -53 0
-53 0 -14 -9z"/>
</g>
</svg>
