<?xml version="1.0" standalone="no"?>
<!DOCTYPE svg PUBLIC "-//W3C//DTD SVG 20010904//EN"
 "http://www.w3.org/TR/2001/REC-SVG-20010904/DTD/svg10.dtd">
<svg version="1.0" xmlns="http://www.w3.org/2000/svg"
 width="59.000000pt" height="67.000000pt" viewBox="0 0 59.000000 67.000000"
 preserveAspectRatio="xMidYMid meet">
<metadata>
Created by potrace 1.16, written by Peter Selinger 2001-2019
</metadata>
<g transform="translate(0.000000,67.000000) scale(0.100000,-0.100000)"
fill="#000000" stroke="none">
<path d="M312 661 l-14 -8 0 -39 1 -39 -5 -17 -5 -18 -80 0 -79 0 0 -66 0 -65
-43 6 -42 6 -11 -8 -11 -8 -12 -22 -11 -22 0 -19 0 -19 20 -23 20 -23 25 11
26 12 3 -13 3 -12 17 -70 17 -69 12 -8 12 -8 73 6 72 6 0 -44 0 -45 19 -21 18
-22 28 0 28 0 18 21 19 22 -6 38 -7 39 59 0 59 0 23 6 23 7 -6 56 -6 56 -11
27 -10 28 -37 -5 -36 -6 -13 9 -14 9 0 38 0 38 14 8 13 9 42 0 41 0 16 6 16 6
-1 52 -1 51 -6 20 -7 20 -27 1 -28 0 -38 2 -39 2 -21 18 -21 19 6 36 6 37 -44
0 -44 0 -13 -9z"/>
</g>
</svg>
