<?xml version="1.0" standalone="no"?>
<!DOCTYPE svg PUBLIC "-//W3C//DTD SVG 20010904//EN"
 "http://www.w3.org/TR/2001/REC-SVG-20010904/DTD/svg10.dtd">
<svg version="1.0" xmlns="http://www.w3.org/2000/svg"
 width="66.000000pt" height="59.000000pt" viewBox="0 0 66.000000 59.000000"
 preserveAspectRatio="xMidYMid meet">
<metadata>
Created by potrace 1.16, written by Peter Selinger 2001-2019
</metadata>
<g transform="translate(0.000000,59.000000) scale(0.100000,-0.100000)"
fill="#000000" stroke="none">
<path d="M158 583 l-38 -4 0 -58 0 -58 -20 -23 -19 -22 -34 6 -34 6 -6 -28 -6
-29 8 -29 8 -29 31 3 32 2 7 -27 7 -28 10 -60 11 -60 68 -3 67 -3 0 -50 0 -50
15 -15 15 -15 35 -6 35 -6 31 13 31 13 -5 32 -5 32 56 13 56 12 23 11 23 10 0
8 0 8 -11 51 -11 51 6 25 7 25 33 -7 34 -6 21 21 21 21 0 50 0 50 -55 0 -55 0
-1 13 -2 12 3 50 2 50 9 3 9 4 0 15 0 16 -31 -7 -31 -6 -60 0 -59 0 2 -44 3
-44 -16 -16 -17 -16 -17 0 -17 0 -18 22 -19 21 0 44 0 43 -47 -2 -48 -1 -37
-4z"/>
</g>
</svg>
