<?xml version="1.0" standalone="no"?>
<!DOCTYPE svg PUBLIC "-//W3C//DTD SVG 20010904//EN"
 "http://www.w3.org/TR/2001/REC-SVG-20010904/DTD/svg10.dtd">
<svg version="1.0" xmlns="http://www.w3.org/2000/svg"
 width="66.000000pt" height="55.000000pt" viewBox="0 0 66.000000 55.000000"
 preserveAspectRatio="xMidYMid meet">
<metadata>
Created by potrace 1.16, written by Peter Selinger 2001-2019
</metadata>
<g transform="translate(0.000000,55.000000) scale(0.100000,-0.100000)"
fill="#000000" stroke="none">
<path d="M120 474 l0 -75 -15 -16 -16 -15 -29 6 -30 5 -15 -5 -15 -6 0 -20 0
-19 11 -20 10 -20 28 6 29 6 15 -15 15 -15 7 -77 7 -77 74 7 75 6 -11 -19 -10
-20 0 -30 0 -30 16 -15 15 -16 40 0 40 0 14 13 13 14 4 29 3 29 25 3 25 3 53
16 52 16 0 4 0 4 -15 15 -14 15 -11 41 -11 41 5 23 6 24 65 0 64 0 11 19 10
20 0 20 0 20 -19 11 -20 10 -30 0 -29 0 -16 6 -16 6 0 69 0 70 -17 -10 -18 -9
-58 -13 -59 -13 6 -31 6 -32 -30 -13 -30 -12 -26 6 -26 7 -15 15 -15 15 4 50
5 49 -68 0 -69 0 0 -76z"/>
</g>
</svg>
