<?xml version="1.0" standalone="no"?>
<!DOCTYPE svg PUBLIC "-//W3C//DTD SVG 20010904//EN"
 "http://www.w3.org/TR/2001/REC-SVG-20010904/DTD/svg10.dtd">
<svg version="1.0" xmlns="http://www.w3.org/2000/svg"
 width="68.000000pt" height="57.000000pt" viewBox="0 0 68.000000 57.000000"
 preserveAspectRatio="xMidYMid meet">
<metadata>
Created by potrace 1.16, written by Peter Selinger 2001-2019
</metadata>
<g transform="translate(0.000000,57.000000) scale(0.100000,-0.100000)"
fill="#000000" stroke="none">
<path d="M120 494 l0 -75 -15 -15 -14 -15 -25 7 -25 6 -20 -7 -21 -6 0 -30 0
-30 11 -20 10 -20 35 3 35 2 9 -13 8 -14 7 -74 7 -75 66 4 67 3 -3 -46 -4 -46
17 -16 16 -17 50 0 50 0 14 13 13 14 4 29 3 29 25 3 25 3 53 16 52 16 0 14 0
14 -15 15 -14 15 -11 38 -10 39 6 16 6 16 64 0 63 0 11 19 10 20 0 30 0 30
-19 11 -20 10 -30 0 -29 0 -16 6 -16 6 0 70 0 70 -22 -7 -23 -7 -63 -16 -64
-16 4 -32 4 -33 -24 -11 -24 -11 -21 7 -21 7 -14 14 -14 14 6 50 7 49 -81 0
-80 0 0 -76z"/>
</g>
</svg>
