<?xml version="1.0" standalone="no"?>
<!DOCTYPE svg PUBLIC "-//W3C//DTD SVG 20010904//EN"
 "http://www.w3.org/TR/2001/REC-SVG-20010904/DTD/svg10.dtd">
<svg version="1.0" xmlns="http://www.w3.org/2000/svg"
 width="50.000000pt" height="46.000000pt" viewBox="0 0 50.000000 46.000000"
 preserveAspectRatio="xMidYMid meet">
<metadata>
Created by potrace 1.16, written by Peter Selinger 2001-2019
</metadata>
<g transform="translate(0.000000,46.000000) scale(0.100000,-0.100000)"
fill="#000000" stroke="none">
<path d="M36 443 l-6 -15 0 -73 0 -73 16 -6 16 -6 32 0 32 0 19 -14 19 -14
-12 -26 -12 -26 -64 0 -64 0 -6 -16 -6 -16 0 -21 0 -22 10 -36 10 -36 19 -22
18 -21 79 0 79 0 14 9 14 9 -6 42 -5 42 5 14 5 14 23 0 22 0 -4 -25 -5 -24 16
-17 17 -16 76 -19 76 -19 13 0 14 0 0 86 0 87 -37 -6 -38 -6 -11 7 -11 7 -12
23 -13 24 13 29 12 30 43 -7 43 -6 5 23 5 24 5 64 4 63 -31 -7 -32 -6 -52 -6
-53 -6 0 -38 0 -37 -30 -7 -30 -6 -20 6 -20 6 0 39 0 39 -37 10 -38 9 -57 5
-56 5 -6 -15z"/>
</g>
</svg>
