<?xml version="1.0" standalone="no"?>
<!DOCTYPE svg PUBLIC "-//W3C//DTD SVG 20010904//EN"
 "http://www.w3.org/TR/2001/REC-SVG-20010904/DTD/svg10.dtd">
<svg version="1.0" xmlns="http://www.w3.org/2000/svg"
 width="48.000000pt" height="44.000000pt" viewBox="0 0 48.000000 44.000000"
 preserveAspectRatio="xMidYMid meet">
<metadata>
Created by potrace 1.16, written by Peter Selinger 2001-2019
</metadata>
<g transform="translate(0.000000,44.000000) scale(0.100000,-0.100000)"
fill="#000000" stroke="none">
<path d="M43 423 l-13 -5 0 -68 0 -68 16 -6 16 -6 29 0 30 0 20 -10 19 -11 0
-20 0 -20 -10 -20 -11 -19 -64 0 -65 0 -6 -24 -5 -23 10 -40 11 -40 19 -21 18
-22 69 0 69 0 14 9 14 9 -7 36 -7 37 6 19 6 20 36 0 35 0 -6 -25 -7 -26 16
-15 16 -16 76 -19 76 -19 3 0 4 0 0 75 0 75 -38 -6 -39 -6 -16 17 -17 16 -6
25 -6 24 13 31 12 31 44 -6 43 -6 5 23 4 22 3 53 3 52 -14 -5 -14 -6 -59 -6
-58 -6 0 -38 0 -38 -35 -7 -35 -6 -25 6 -25 6 0 40 0 39 -37 10 -38 11 -40 -1
-40 -1 -12 -5z"/>
</g>
</svg>
