<?xml version="1.0" standalone="no"?>
<!DOCTYPE svg PUBLIC "-//W3C//DTD SVG 20010904//EN"
 "http://www.w3.org/TR/2001/REC-SVG-20010904/DTD/svg10.dtd">
<svg version="1.0" xmlns="http://www.w3.org/2000/svg"
 width="54.000000pt" height="46.000000pt" viewBox="0 0 54.000000 46.000000"
 preserveAspectRatio="xMidYMid meet">
<metadata>
Created by potrace 1.16, written by Peter Selinger 2001-2019
</metadata>
<g transform="translate(0.000000,46.000000) scale(0.100000,-0.100000)"
fill="#000000" stroke="none">
<path d="M3 445 l-5 -16 4 -55 5 -56 13 -8 14 -9 18 10 19 10 22 -7 22 -7 18
-20 17 -20 0 -12 0 -12 -17 -19 -18 -19 -29 -13 -28 -13 -15 13 -15 12 -9 -15
-9 -14 0 -62 0 -61 -7 -18 -6 -17 71 5 71 5 16 17 17 17 -7 35 -6 35 43 -3 43
-3 3 -57 3 -57 19 -6 19 -6 63 12 63 13 12 11 11 12 11 39 11 39 0 28 0 27 34
0 34 0 6 16 6 16 0 26 0 27 -9 14 -9 15 -44 0 -43 1 0 83 0 82 -213 0 -213 0
-6 -15z"/>
</g>
</svg>
