<?xml version="1.0" standalone="no"?>
<!DOCTYPE svg PUBLIC "-//W3C//DTD SVG 20010904//EN"
 "http://www.w3.org/TR/2001/REC-SVG-20010904/DTD/svg10.dtd">
<svg version="1.0" xmlns="http://www.w3.org/2000/svg"
 width="55.000000pt" height="44.000000pt" viewBox="0 0 55.000000 44.000000"
 preserveAspectRatio="xMidYMid meet">
<metadata>
Created by potrace 1.16, written by Peter Selinger 2001-2019
</metadata>
<g transform="translate(0.000000,44.000000) scale(0.100000,-0.100000)"
fill="#000000" stroke="none">
<path d="M110 429 l0 -10 10 6 10 6 0 5 0 4 -10 0 -10 0 0 -11z M530 422 l0
-8 -32 -11 -33 -11 -48 -7 -49 -6 7 -26 6 -26 -13 -8 -13 -9 -42 0 -42 0 -5
18 -6 17 9 32 9 31 -6 6 -5 6 -73 0 -72 0 5 -59 6 -59 -7 -26 -6 -25 -58 -3
-57 -3 -3 -25 -2 -25 9 -14 9 -15 73 2 72 1 -6 -62 -6 -62 -10 -3 -11 -4 0
-19 0 -19 203 0 202 0 -9 75 -10 75 -34 0 -33 0 -15 14 -14 15 0 30 0 31 25 5
25 5 25 5 25 5 5 23 5 22 8 63 9 62 -9 0 -8 0 0 -8z"/>
</g>
</svg>
