<?xml version="1.0" standalone="no"?>
<!DOCTYPE svg PUBLIC "-//W3C//DTD SVG 20010904//EN"
 "http://www.w3.org/TR/2001/REC-SVG-20010904/DTD/svg10.dtd">
<svg version="1.0" xmlns="http://www.w3.org/2000/svg"
 width="56.000000pt" height="48.000000pt" viewBox="0 0 56.000000 48.000000"
 preserveAspectRatio="xMidYMid meet">
<metadata>
Created by potrace 1.16, written by Peter Selinger 2001-2019
</metadata>
<g transform="translate(0.000000,48.000000) scale(0.100000,-0.100000)"
fill="#000000" stroke="none">
<path d="M4 465 l-6 -15 4 -66 4 -65 15 -10 14 -9 20 6 20 6 18 -1 19 0 19
-22 19 -22 0 -2 0 -2 -21 -24 -21 -24 -44 2 -44 1 -4 -21 -5 -22 -5 -79 -5
-78 79 4 78 5 17 17 17 17 -4 35 -4 35 30 -3 31 -3 3 -57 3 -58 25 -6 24 -6
67 12 68 13 11 12 12 12 11 39 11 39 0 28 0 27 34 0 34 0 6 16 6 16 0 36 0 37
-9 14 -9 15 -44 2 -43 2 1 81 1 81 -224 0 -224 0 -5 -15z"/>
</g>
</svg>
