<?xml version="1.0" standalone="no"?>
<!DOCTYPE svg PUBLIC "-//W3C//DTD SVG 20010904//EN"
 "http://www.w3.org/TR/2001/REC-SVG-20010904/DTD/svg10.dtd">
<svg version="1.0" xmlns="http://www.w3.org/2000/svg"
 width="57.000000pt" height="46.000000pt" viewBox="0 0 57.000000 46.000000"
 preserveAspectRatio="xMidYMid meet">
<metadata>
Created by potrace 1.16, written by Peter Selinger 2001-2019
</metadata>
<g transform="translate(0.000000,46.000000) scale(0.100000,-0.100000)"
fill="#000000" stroke="none">
<path d="M114 433 l7 -28 6 -42 5 -42 -6 -25 -6 -25 -58 -3 -57 -3 -3 -35 -2
-35 9 -15 10 -14 72 0 71 1 -6 -51 -6 -51 -10 -3 -10 -4 0 -29 0 -29 216 0
216 0 -6 25 -6 24 -7 61 -6 60 -34 0 -34 0 -15 14 -14 15 0 19 0 20 16 6 16 6
23 0 24 0 14 14 15 15 6 58 7 58 5 28 6 27 -21 0 -21 0 0 -8 0 -8 -32 -11 -33
-11 -49 -7 -48 -7 4 -28 4 -29 -14 -6 -14 -5 -28 0 -28 0 -5 13 -4 12 9 33 9
32 -6 10 -6 10 -70 0 -69 0 0 10 0 10 -21 0 -21 0 6 -27z"/>
</g>
</svg>
