<?xml version="1.0" standalone="no"?>
<!DOCTYPE svg PUBLIC "-//W3C//DTD SVG 20010904//EN"
 "http://www.w3.org/TR/2001/REC-SVG-20010904/DTD/svg10.dtd">
<svg version="1.0" xmlns="http://www.w3.org/2000/svg"
 width="55.000000pt" height="66.000000pt" viewBox="0 0 55.000000 66.000000"
 preserveAspectRatio="xMidYMid meet">
<metadata>
Created by potrace 1.16, written by Peter Selinger 2001-2019
</metadata>
<g transform="translate(0.000000,66.000000) scale(0.100000,-0.100000)"
fill="#000000" stroke="none">
<path d="M262 643 l-10 -16 6 -40 5 -39 -14 -9 -14 -9 -52 0 -53 0 0 11 0 10
-11 -6 -10 -7 2 -32 2 -31 -2 -31 -1 -31 -20 -23 -21 -24 -34 0 -35 0 0 -22 0
-23 16 -16 16 -16 43 7 43 6 7 -21 7 -22 -7 -74 -7 -75 69 0 70 0 5 -6 6 -6
-9 -31 -9 -32 6 -17 5 -18 42 0 42 0 13 9 13 8 -6 26 -7 26 49 6 48 6 30 12
30 11 12 12 12 12 -10 59 -10 59 -9 14 -8 14 -43 0 -43 1 -6 25 -6 25 4 23 5
24 48 -7 49 -7 0 11 0 11 14 0 14 0 6 31 6 32 0 41 0 41 -9 14 -9 14 -11 -7
-10 -7 -57 15 -57 15 -8 13 -9 13 0 33 0 32 -55 0 -54 0 -9 -17z"/>
</g>
</svg>
