<?xml version="1.0" standalone="no"?>
<!DOCTYPE svg PUBLIC "-//W3C//DTD SVG 20010904//EN"
 "http://www.w3.org/TR/2001/REC-SVG-20010904/DTD/svg10.dtd">
<svg version="1.0" xmlns="http://www.w3.org/2000/svg"
 width="48.000000pt" height="67.000000pt" viewBox="0 0 48.000000 67.000000"
 preserveAspectRatio="xMidYMid meet">
<metadata>
Created by potrace 1.16, written by Peter Selinger 2001-2019
</metadata>
<g transform="translate(0.000000,67.000000) scale(0.100000,-0.100000)"
fill="#000000" stroke="none">
<path d="M213 663 l-22 -4 -10 -34 -9 -35 5 -19 5 -20 -15 -15 -15 -15 -69 6
-70 6 -6 -63 -5 -63 5 -13 5 -14 54 0 54 0 0 -40 0 -40 -19 -19 -20 -20 -35 6
-35 5 -7 -26 -6 -26 7 -48 7 -47 11 -7 12 -8 40 0 40 0 38 -11 37 -10 0 -39 0
-40 25 -6 25 -6 35 6 35 7 0 39 0 40 30 0 29 0 49 11 49 10 7 46 6 46 0 34 0
34 -13 13 -12 13 -50 -1 -50 -1 -3 37 -3 37 34 -6 34 -5 16 16 16 17 11 40 11
40 -3 32 -3 32 -15 -4 -15 -4 -56 -10 -57 -10 -17 17 -18 17 7 45 6 44 -20 20
-20 20 -12 -1 -13 -2 -22 -4z"/>
</g>
</svg>
