<?xml version="1.0" standalone="no"?>
<!DOCTYPE svg PUBLIC "-//W3C//DTD SVG 20010904//EN"
 "http://www.w3.org/TR/2001/REC-SVG-20010904/DTD/svg10.dtd">
<svg version="1.0" xmlns="http://www.w3.org/2000/svg"
 width="57.000000pt" height="68.000000pt" viewBox="0 0 57.000000 68.000000"
 preserveAspectRatio="xMidYMid meet">
<metadata>
Created by potrace 1.16, written by Peter Selinger 2001-2019
</metadata>
<g transform="translate(0.000000,68.000000) scale(0.100000,-0.100000)"
fill="#000000" stroke="none">
<path d="M260 660 l-11 -20 7 -36 7 -36 -14 -9 -14 -9 -42 0 -41 0 -4 12 -4
12 -17 -7 -17 -6 0 -64 0 -64 -20 -23 -20 -23 -35 1 -35 1 0 -34 0 -34 17 -16
17 -17 42 6 42 5 6 -15 6 -16 -6 -79 -7 -79 73 0 72 0 -6 -35 -7 -36 6 -19 6
-20 52 0 52 0 14 9 14 9 -5 26 -5 25 46 6 46 6 30 12 30 11 13 13 14 13 -12
68 -11 68 -9 14 -8 14 -44 2 -43 2 -3 35 -3 36 50 -6 51 -6 0 12 0 11 14 0 14
0 6 31 6 32 0 51 0 51 -9 13 -8 14 -19 -3 -19 -3 -43 8 -42 8 -15 15 -15 14 0
35 0 34 -65 0 -64 0 -11 -20z"/>
</g>
</svg>
