<?xml version="1.0" standalone="no"?>
<!DOCTYPE svg PUBLIC "-//W3C//DTD SVG 20010904//EN"
 "http://www.w3.org/TR/2001/REC-SVG-20010904/DTD/svg10.dtd">
<svg version="1.0" xmlns="http://www.w3.org/2000/svg"
 width="50.000000pt" height="69.000000pt" viewBox="0 0 50.000000 69.000000"
 preserveAspectRatio="xMidYMid meet">
<metadata>
Created by potrace 1.16, written by Peter Selinger 2001-2019
</metadata>
<g transform="translate(0.000000,69.000000) scale(0.100000,-0.100000)"
fill="#000000" stroke="none">
<path d="M213 683 l-23 -4 -10 -41 -11 -40 5 -15 6 -14 -12 -13 -12 -13 -72 5
-71 4 -6 -70 -7 -70 6 -16 6 -16 54 0 54 0 0 -26 0 -25 -10 -20 -11 -19 -44 0
-45 0 -6 -26 -7 -26 7 -56 7 -56 12 -8 12 -8 40 0 40 0 38 -11 37 -10 0 -38 0
-39 16 -6 16 -6 31 0 32 0 23 6 22 6 0 39 0 39 30 0 29 0 49 11 49 10 7 46 6
46 0 44 0 44 -14 15 -15 14 -48 -3 -48 -2 -3 23 -3 22 35 0 35 0 15 15 15 16
11 40 11 40 -3 42 -3 42 -20 -2 -20 -2 -52 -12 -52 -11 -16 16 -16 16 6 44 7
44 -21 21 -21 21 -22 -1 -23 -2 -22 -4z"/>
</g>
</svg>
