<?xml version="1.0" standalone="no"?>
<!DOCTYPE svg PUBLIC "-//W3C//DTD SVG 20010904//EN"
 "http://www.w3.org/TR/2001/REC-SVG-20010904/DTD/svg10.dtd">
<svg version="1.0" xmlns="http://www.w3.org/2000/svg"
 width="59.000000pt" height="72.000000pt" viewBox="0 0 59.000000 72.000000"
 preserveAspectRatio="xMidYMid meet">
<metadata>
Created by potrace 1.16, written by Peter Selinger 2001-2019
</metadata>
<g transform="translate(0.000000,72.000000) scale(0.100000,-0.100000)"
fill="#000000" stroke="none">
<path d="M184 695 l-6 -25 6 -34 6 -34 -16 -6 -16 -6 -79 0 -79 0 0 -49 0 -48
11 -32 11 -31 14 0 14 0 0 -10 0 -10 31 0 30 0 -3 -22 -3 -23 -32 -3 -33 -3
-9 -37 -9 -37 -6 -53 -7 -53 15 -14 15 -15 44 0 45 0 16 -6 16 -6 -6 -34 -6
-34 6 -24 6 -23 30 -13 30 -12 27 7 27 6 19 22 19 22 -5 63 -5 62 37 -6 36 -6
27 -10 28 -10 24 6 24 6 7 75 7 75 33 0 34 0 15 16 16 15 0 39 0 39 -12 26
-11 25 -49 0 -48 0 0 71 0 70 -17 -2 -18 -2 -62 13 -63 13 -17 16 -18 16 3 28
3 27 -45 0 -46 0 -6 -25z"/>
</g>
</svg>
