<?xml version="1.0" standalone="no"?>
<!DOCTYPE svg PUBLIC "-//W3C//DTD SVG 20010904//EN"
 "http://www.w3.org/TR/2001/REC-SVG-20010904/DTD/svg10.dtd">
<svg version="1.0" xmlns="http://www.w3.org/2000/svg"
 width="57.000000pt" height="70.000000pt" viewBox="0 0 57.000000 70.000000"
 preserveAspectRatio="xMidYMid meet">
<metadata>
Created by potrace 1.16, written by Peter Selinger 2001-2019
</metadata>
<g transform="translate(0.000000,70.000000) scale(0.100000,-0.100000)"
fill="#000000" stroke="none">
<path d="M185 680 l-6 -19 7 -37 7 -36 -14 -9 -14 -9 -82 0 -83 0 0 -39 0 -38
11 -32 11 -31 14 0 14 0 0 -11 0 -11 31 4 30 5 -3 -36 -3 -36 -32 -3 -31 -3
-6 -16 -6 -16 -10 -65 -9 -65 14 -13 14 -14 48 0 48 0 13 -9 14 -8 -6 -44 -7
-44 8 -11 8 -11 23 -12 23 -12 22 7 22 7 19 21 18 21 -6 63 -7 64 53 -7 53 -7
18 -10 18 -9 18 6 19 6 7 74 7 75 33 0 34 0 15 16 16 15 0 29 0 29 -12 26 -12
27 -48 -4 -48 -3 0 73 0 73 -9 -5 -9 -6 -76 19 -75 19 -16 16 -16 15 7 26 6
25 -35 0 -36 0 -6 -20z"/>
</g>
</svg>
