<?xml version="1.0" standalone="no"?>
<!DOCTYPE svg PUBLIC "-//W3C//DTD SVG 20010904//EN"
 "http://www.w3.org/TR/2001/REC-SVG-20010904/DTD/svg10.dtd">
<svg version="1.0" xmlns="http://www.w3.org/2000/svg"
 width="71.000000pt" height="57.000000pt" viewBox="0 0 71.000000 57.000000"
 preserveAspectRatio="xMidYMid meet">
<metadata>
Created by potrace 1.16, written by Peter Selinger 2001-2019
</metadata>
<g transform="translate(0.000000,57.000000) scale(0.100000,-0.100000)"
fill="#000000" stroke="none">
<path d="M303 534 l6 -36 -15 -16 -15 -15 -69 -5 -69 -5 6 -59 6 -60 -14 -9
-14 -9 -45 0 -45 0 -14 -9 -14 -9 0 -47 0 -47 14 -9 14 -10 37 3 37 3 10 -25
10 -25 6 -61 7 -62 69 -6 69 -7 15 15 15 15 0 43 0 43 8 11 7 11 22 5 22 6 17
-13 18 -12 -3 -52 -2 -51 15 -15 15 -15 33 0 33 0 38 9 39 9 6 6 6 6 -23 68
-22 68 7 17 6 17 60 0 59 0 20 10 19 11 0 54 0 55 -18 0 -17 0 -30 -9 -30 -8
-11 11 -10 11 -13 32 -13 32 7 30 7 31 -29 0 -28 0 -40 -10 -40 -9 -17 5 -17
5 -3 57 -3 57 -54 3 -54 3 6 -37z"/>
</g>
</svg>
