<?xml version="1.0" standalone="no"?>
<!DOCTYPE svg PUBLIC "-//W3C//DTD SVG 20010904//EN"
 "http://www.w3.org/TR/2001/REC-SVG-20010904/DTD/svg10.dtd">
<svg version="1.0" xmlns="http://www.w3.org/2000/svg"
 width="69.000000pt" height="55.000000pt" viewBox="0 0 69.000000 55.000000"
 preserveAspectRatio="xMidYMid meet">
<metadata>
Created by potrace 1.16, written by Peter Selinger 2001-2019
</metadata>
<g transform="translate(0.000000,55.000000) scale(0.100000,-0.100000)"
fill="#000000" stroke="none">
<path d="M305 516 l7 -35 -17 -17 -16 -17 -68 -5 -67 -4 4 -60 5 -60 -14 -9
-14 -9 -45 0 -45 0 -14 -9 -13 -8 0 -38 0 -38 14 -9 13 -9 36 6 37 5 10 -28
11 -27 6 -61 7 -61 60 -7 60 -6 15 15 15 16 -5 20 -5 19 9 35 10 35 12 0 12 0
22 6 21 6 21 -21 21 -21 -6 -44 -7 -45 17 -17 17 -16 52 6 52 7 13 7 12 8 -20
57 -20 57 0 17 0 18 10 15 9 14 56 -2 56 -2 19 10 20 11 0 44 0 45 -7 0 -8 0
-38 -11 -37 -10 -13 13 -13 13 -13 32 -13 33 4 30 5 30 -16 0 -16 0 -45 -11
-44 -10 -23 6 -22 5 -3 58 -3 57 -43 3 -43 3 6 -35z"/>
</g>
</svg>
