<?xml version="1.0" standalone="no"?>
<!DOCTYPE svg PUBLIC "-//W3C//DTD SVG 20010904//EN"
 "http://www.w3.org/TR/2001/REC-SVG-20010904/DTD/svg10.dtd">
<svg version="1.0" xmlns="http://www.w3.org/2000/svg"
 width="56.000000pt" height="46.000000pt" viewBox="0 0 56.000000 46.000000"
 preserveAspectRatio="xMidYMid meet">
<metadata>
Created by potrace 1.16, written by Peter Selinger 2001-2019
</metadata>
<g transform="translate(0.000000,46.000000) scale(0.100000,-0.100000)"
fill="#000000" stroke="none">
<path d="M286 399 l6 -64 -18 -21 -19 -21 -22 -7 -22 -7 -23 12 -23 12 -8 11
-7 11 6 47 6 47 -24 6 -24 6 -55 -3 -54 -3 1 -62 1 -61 14 -15 15 -14 23 -8
23 -7 9 13 8 13 6 -26 6 -25 -3 -34 -3 -34 -21 3 -21 3 -11 -28 -11 -28 -11
-43 -11 -43 15 -14 15 -15 48 0 48 0 14 9 14 9 -5 39 -6 40 10 16 9 17 54 0
55 0 0 -32 0 -33 9 -13 8 -13 57 -15 58 -15 4 4 4 3 -11 62 -11 62 6 26 7 26
49 -7 49 -7 21 7 21 7 -3 26 -3 27 -40 -1 -40 -2 -17 20 -17 20 -7 44 -6 45 5
28 6 27 -32 12 -32 11 -48 7 -48 6 7 -63z"/>
</g>
</svg>
