<?xml version="1.0" standalone="no"?>
<!DOCTYPE svg PUBLIC "-//W3C//DTD SVG 20010904//EN"
 "http://www.w3.org/TR/2001/REC-SVG-20010904/DTD/svg10.dtd">
<svg version="1.0" xmlns="http://www.w3.org/2000/svg"
 width="58.000000pt" height="48.000000pt" viewBox="0 0 58.000000 48.000000"
 preserveAspectRatio="xMidYMid meet">
<metadata>
Created by potrace 1.16, written by Peter Selinger 2001-2019
</metadata>
<g transform="translate(0.000000,48.000000) scale(0.100000,-0.100000)"
fill="#000000" stroke="none">
<path d="M284 419 l7 -65 -18 -21 -19 -21 -14 -2 -15 -2 -12 1 -12 1 -15 15
-15 15 6 50 6 49 -24 6 -25 6 -64 -3 -65 -3 1 -71 0 -72 17 -16 17 -17 35 -6
35 -6 0 -33 0 -34 -23 0 -24 0 -10 -23 -11 -23 -12 -56 -13 -57 16 -15 16 -16
58 0 58 0 12 8 12 7 3 55 3 55 48 3 47 3 0 -35 0 -35 14 -14 14 -14 61 -13 61
-13 6 6 6 6 -11 66 -12 67 6 19 6 18 44 -6 44 -6 26 7 26 7 -3 37 -3 37 -40 0
-40 0 -17 18 -16 18 -7 38 -6 39 6 34 6 33 -33 12 -33 12 -59 7 -59 7 7 -64z"/>
</g>
</svg>
