<?xml version="1.0" standalone="no"?>
<!DOCTYPE svg PUBLIC "-//W3C//DTD SVG 20010904//EN"
 "http://www.w3.org/TR/2001/REC-SVG-20010904/DTD/svg10.dtd">
<svg version="1.0" xmlns="http://www.w3.org/2000/svg"
 width="44.000000pt" height="44.000000pt" viewBox="0 0 44.000000 44.000000"
 preserveAspectRatio="xMidYMid meet">
<metadata>
Created by potrace 1.16, written by Peter Selinger 2001-2019
</metadata>
<g transform="translate(0.000000,44.000000) scale(0.100000,-0.100000)"
fill="#000000" stroke="none">
<path d="M11 426 l-12 -14 3 -69 3 -68 43 -1 44 0 9 -15 9 -14 0 -27 0 -26 -6
-16 -6 -16 -34 0 -34 0 0 -28 0 -29 -15 -49 -15 -49 0 -2 0 -3 38 0 37 0 33 9
32 10 16 16 16 16 -5 22 -4 22 -4 15 -4 15 34 3 34 3 25 -6 24 -6 -6 -30 -6
-31 16 -16 16 -16 56 -7 57 -8 7 12 8 12 -6 20 -5 20 -10 40 -10 41 -30 11
-30 12 3 38 3 38 41 -3 40 -3 12 26 12 26 0 69 0 70 -209 0 -209 0 -11 -14z"/>
</g>
</svg>
