<?xml version="1.0" standalone="no"?>
<!DOCTYPE svg PUBLIC "-//W3C//DTD SVG 20010904//EN"
 "http://www.w3.org/TR/2001/REC-SVG-20010904/DTD/svg10.dtd">
<svg version="1.0" xmlns="http://www.w3.org/2000/svg"
 width="46.000000pt" height="46.000000pt" viewBox="0 0 46.000000 46.000000"
 preserveAspectRatio="xMidYMid meet">
<metadata>
Created by potrace 1.16, written by Peter Selinger 2001-2019
</metadata>
<g transform="translate(0.000000,46.000000) scale(0.100000,-0.100000)"
fill="#000000" stroke="none">
<path d="M11 446 l-12 -14 3 -79 3 -78 30 -2 30 -1 17 -1 18 -1 6 -24 6 -25
-7 -20 -6 -21 -35 0 -34 0 0 -28 0 -29 -15 -49 -15 -49 0 -12 0 -13 48 0 47 0
33 9 32 10 16 16 16 16 -5 40 -5 39 28 0 28 0 16 -6 15 -6 -6 -29 -6 -29 22
-19 21 -18 62 -7 62 -6 8 12 9 13 -5 25 -5 25 -11 45 -11 46 -30 11 -30 12 3
28 3 28 41 -3 40 -3 12 26 12 26 0 79 0 80 -219 0 -219 0 -11 -14z"/>
</g>
</svg>
