<?xml version="1.0" standalone="no"?>
<!DOCTYPE svg PUBLIC "-//W3C//DTD SVG 20010904//EN"
 "http://www.w3.org/TR/2001/REC-SVG-20010904/DTD/svg10.dtd">
<svg version="1.0" xmlns="http://www.w3.org/2000/svg"
 width="65.000000pt" height="46.000000pt" viewBox="0 0 65.000000 46.000000"
 preserveAspectRatio="xMidYMid meet">
<metadata>
Created by potrace 1.16, written by Peter Selinger 2001-2019
</metadata>
<g transform="translate(0.000000,46.000000) scale(0.100000,-0.100000)"
fill="#000000" stroke="none">
<path d="M120 428 l0 -33 -10 -37 -11 -37 -16 -17 -16 -16 -34 5 -34 6 3 -37
3 -37 50 1 50 1 12 -13 13 -13 0 -43 -1 -43 -8 -42 -8 -43 77 0 78 0 -5 59 -6
58 12 7 11 7 31 1 31 1 9 -14 10 -14 -6 -53 -5 -53 15 -15 15 -16 42 7 41 7
33 14 34 14 0 4 0 4 -20 47 -20 47 0 24 0 25 13 13 12 14 51 -5 50 -5 17 17
17 16 0 24 0 24 -49 -2 -49 -2 -7 7 -8 7 -8 43 -8 43 6 37 5 37 -33 -9 -34 -8
-37 -7 -38 -6 0 -27 0 -28 -34 -12 -34 -13 -25 12 -26 12 2 41 2 41 -77 3 -78
3 0 -33z"/>
</g>
</svg>
