<?xml version="1.0" standalone="no"?>
<!DOCTYPE svg PUBLIC "-//W3C//DTD SVG 20010904//EN"
 "http://www.w3.org/TR/2001/REC-SVG-20010904/DTD/svg10.dtd">
<svg version="1.0" xmlns="http://www.w3.org/2000/svg"
 width="67.000000pt" height="48.000000pt" viewBox="0 0 67.000000 48.000000"
 preserveAspectRatio="xMidYMid meet">
<metadata>
Created by potrace 1.16, written by Peter Selinger 2001-2019
</metadata>
<g transform="translate(0.000000,48.000000) scale(0.100000,-0.100000)"
fill="#000000" stroke="none">
<path d="M120 448 l0 -33 -10 -37 -11 -37 -15 -16 -16 -16 -35 7 -34 6 3 -48
3 -49 50 0 50 0 14 -13 14 -13 -7 -60 -6 -60 -6 -24 -6 -25 91 0 91 0 -3 63
-2 62 29 3 29 4 8 -14 9 -13 -6 -52 -6 -52 16 -17 17 -16 49 6 49 7 35 14 36
15 0 14 0 14 -20 47 -20 47 0 14 0 15 11 12 11 12 53 -3 52 -4 16 17 17 16 0
35 0 34 -51 -1 -51 -2 -9 14 -9 14 -1 30 -2 30 3 43 2 42 -9 0 -8 0 -35 -9
-35 -9 -37 -7 -38 -6 0 -27 0 -28 -29 -10 -28 -11 -19 11 -19 11 0 40 0 40
-87 3 -88 3 0 -33z"/>
</g>
</svg>
