<?xml version="1.0" standalone="no"?>
<!DOCTYPE svg PUBLIC "-//W3C//DTD SVG 20010904//EN"
 "http://www.w3.org/TR/2001/REC-SVG-20010904/DTD/svg10.dtd">
<svg version="1.0" xmlns="http://www.w3.org/2000/svg"
 width="71.000000pt" height="54.000000pt" viewBox="0 0 71.000000 54.000000"
 preserveAspectRatio="xMidYMid meet">
<metadata>
Created by potrace 1.16, written by Peter Selinger 2001-2019
</metadata>
<g transform="translate(0.000000,54.000000) scale(0.100000,-0.100000)"
fill="#000000" stroke="none">
<path d="M308 533 l12 -5 0 -23 0 -24 -25 -26 -26 -25 -59 0 -60 0 0 -44 0
-44 -6 -31 -6 -31 -14 0 -14 0 0 -11 0 -11 -49 7 -48 7 -5 -24 -4 -23 6 -25 6
-25 43 -1 43 0 8 -15 9 -14 12 -74 12 -73 78 4 77 5 17 17 18 17 -7 45 -6 44
35 0 34 0 7 -12 8 -12 -3 -40 -2 -39 13 -8 13 -9 58 0 58 0 15 14 14 14 -10
53 -10 52 0 14 0 15 49 -7 49 -7 24 13 23 12 7 11 8 11 0 22 0 22 -16 16 -17
17 -51 -4 -51 -3 -1 75 -1 75 -1 11 -2 11 -57 13 -57 12 -23 11 -23 10 0 24 0
23 -57 -1 -58 -1 13 -5z"/>
</g>
</svg>
