<?xml version="1.0" standalone="no"?>
<!DOCTYPE svg PUBLIC "-//W3C//DTD SVG 20010904//EN"
 "http://www.w3.org/TR/2001/REC-SVG-20010904/DTD/svg10.dtd">
<svg version="1.0" xmlns="http://www.w3.org/2000/svg"
 width="49.000000pt" height="66.000000pt" viewBox="0 0 49.000000 66.000000"
 preserveAspectRatio="xMidYMid meet">
<metadata>
Created by potrace 1.16, written by Peter Selinger 2001-2019
</metadata>
<g transform="translate(0.000000,66.000000) scale(0.100000,-0.100000)"
fill="#000000" stroke="none">
<path d="M206 652 l-5 -8 10 -14 9 -15 0 -19 0 -19 -21 -18 -21 -18 -44 -7
-44 -6 -25 4 -24 5 -5 -14 -6 -15 0 -23 0 -24 12 -28 13 -28 12 -13 13 -13 37
10 38 11 8 0 7 0 0 -45 0 -44 -20 -11 -19 -10 -56 2 -56 2 -9 -14 -10 -15 0
-17 0 -17 16 -47 16 -47 13 -13 13 -13 78 -3 79 -3 -2 -41 -2 -41 26 -12 25
-12 34 13 34 12 0 28 0 27 38 6 37 7 38 9 37 10 0 7 0 7 -20 74 -19 74 -13 9
-13 8 -17 -4 -17 -4 -6 29 -6 29 6 20 6 20 17 1 17 1 38 -2 37 -2 0 86 0 86
-27 -2 -28 -2 -41 2 -41 2 -22 19 -22 19 7 27 7 27 -14 9 -14 9 -42 0 -42 0
-5 -8z"/>
</g>
</svg>
