<?xml version="1.0" standalone="no"?>
<!DOCTYPE svg PUBLIC "-//W3C//DTD SVG 20010904//EN"
 "http://www.w3.org/TR/2001/REC-SVG-20010904/DTD/svg10.dtd">
<svg version="1.0" xmlns="http://www.w3.org/2000/svg"
 width="73.000000pt" height="56.000000pt" viewBox="0 0 73.000000 56.000000"
 preserveAspectRatio="xMidYMid meet">
<metadata>
Created by potrace 1.16, written by Peter Selinger 2001-2019
</metadata>
<g transform="translate(0.000000,56.000000) scale(0.100000,-0.100000)"
fill="#000000" stroke="none">
<path d="M300 545 l0 -15 10 0 10 0 0 -15 0 -14 -25 -26 -26 -25 -59 0 -60 0
0 -44 0 -44 -6 -31 -6 -31 -14 0 -14 0 0 -10 0 -9 -49 6 -48 5 -6 -29 -6 -30
8 -29 7 -29 43 -1 44 -2 8 -13 8 -14 12 -74 12 -73 87 4 87 4 18 17 17 18 -4
45 -3 45 25 -3 25 -3 3 -50 3 -50 12 -7 12 -8 68 0 68 0 16 15 15 16 -6 37 -7
37 -5 28 -6 28 41 -7 40 -6 25 6 25 6 15 16 16 15 0 34 0 34 -16 16 -17 16
-51 -2 -51 -3 0 75 -1 74 -2 11 -2 11 -57 13 -57 12 -23 11 -23 10 0 24 0 23
-65 0 -65 0 0 -15z"/>
</g>
</svg>
