<?xml version="1.0" standalone="no"?>
<!DOCTYPE svg PUBLIC "-//W3C//DTD SVG 20010904//EN"
 "http://www.w3.org/TR/2001/REC-SVG-20010904/DTD/svg10.dtd">
<svg version="1.0" xmlns="http://www.w3.org/2000/svg"
 width="57.000000pt" height="68.000000pt" viewBox="0 0 57.000000 68.000000"
 preserveAspectRatio="xMidYMid meet">
<metadata>
Created by potrace 1.16, written by Peter Selinger 2001-2019
</metadata>
<g transform="translate(0.000000,68.000000) scale(0.100000,-0.100000)"
fill="#000000" stroke="none">
<path d="M310 671 l-25 -7 0 -62 0 -62 -82 0 -83 0 0 -54 0 -54 -5 -14 -5 -13
-43 3 -43 4 -12 -27 -12 -26 0 -24 0 -24 12 -26 11 -25 24 -6 23 -6 25 4 25 5
0 -63 0 -62 6 -16 6 -16 69 0 69 0 0 -34 0 -34 6 -16 6 -16 54 0 54 0 0 10 0
10 16 0 17 0 -6 35 -6 35 37 0 37 0 38 6 37 7 0 26 0 27 -20 57 -20 57 0 16 0
16 -33 -4 -34 -4 -11 13 -12 12 0 18 0 18 8 12 7 12 30 11 30 11 32 -6 33 -6
0 81 0 80 -10 0 -10 0 -37 -14 -38 -14 -28 -6 -27 -6 -14 12 -14 13 5 55 4 55
-8 12 -8 11 -25 5 -25 5 -25 -7z"/>
</g>
</svg>
