<?xml version="1.0" standalone="no"?>
<!DOCTYPE svg PUBLIC "-//W3C//DTD SVG 20010904//EN"
 "http://www.w3.org/TR/2001/REC-SVG-20010904/DTD/svg10.dtd">
<svg version="1.0" xmlns="http://www.w3.org/2000/svg"
 width="55.000000pt" height="66.000000pt" viewBox="0 0 55.000000 66.000000"
 preserveAspectRatio="xMidYMid meet">
<metadata>
Created by potrace 1.16, written by Peter Selinger 2001-2019
</metadata>
<g transform="translate(0.000000,66.000000) scale(0.100000,-0.100000)"
fill="#000000" stroke="none">
<path d="M310 650 l-25 -6 1 -62 1 -62 -84 0 -83 0 0 -54 0 -54 -6 -16 -6 -15
-42 5 -43 6 -12 -31 -13 -31 6 -24 6 -25 17 -16 16 -17 39 6 38 6 0 -64 0 -64
6 -16 6 -16 69 0 69 0 0 -34 0 -34 6 -16 6 -16 44 0 44 0 0 10 0 10 15 0 16 0
-6 33 -7 34 72 6 72 6 6 6 6 6 -13 42 -12 42 -12 43 -11 44 -29 -6 -29 -6 -14
14 -14 15 0 30 0 30 15 15 16 15 34 7 35 6 20 -5 20 -5 0 69 0 69 -34 -14 -33
-14 -41 -7 -42 -7 -15 16 -16 16 6 44 7 44 -6 20 -7 20 -17 4 -17 4 -25 -6z"/>
</g>
</svg>
