<?xml version="1.0" standalone="no"?>
<!DOCTYPE svg PUBLIC "-//W3C//DTD SVG 20010904//EN"
 "http://www.w3.org/TR/2001/REC-SVG-20010904/DTD/svg10.dtd">
<svg version="1.0" xmlns="http://www.w3.org/2000/svg"
 width="51.000000pt" height="68.000000pt" viewBox="0 0 51.000000 68.000000"
 preserveAspectRatio="xMidYMid meet">
<metadata>
Created by potrace 1.16, written by Peter Selinger 2001-2019
</metadata>
<g transform="translate(0.000000,68.000000) scale(0.100000,-0.100000)"
fill="#000000" stroke="none">
<path d="M205 669 l-7 -10 12 -30 13 -29 -23 -20 -22 -19 -43 -7 -43 -6 -22 7
-22 7 -9 -13 -9 -14 0 -37 0 -37 12 -28 13 -28 13 -14 14 -14 44 10 44 10 0
-33 0 -33 -18 -10 -19 -10 -57 2 -57 2 -9 -15 -10 -15 0 -27 0 -27 16 -47 16
-47 13 -13 13 -13 78 -3 79 -3 -3 -41 -3 -41 31 -13 31 -13 40 13 39 13 0 28
0 28 38 6 37 7 38 9 37 10 0 17 0 17 -20 74 -19 74 -13 8 -13 9 -16 0 -17 0
-6 16 -6 17 5 18 6 19 55 0 54 0 0 96 0 96 -27 -2 -28 -2 -41 1 -41 1 -19 18
-19 17 3 29 4 29 -14 8 -13 9 -52 0 -52 0 -6 -11z"/>
</g>
</svg>
