<?xml version="1.0" standalone="no"?>
<!DOCTYPE svg PUBLIC "-//W3C//DTD SVG 20010904//EN"
 "http://www.w3.org/TR/2001/REC-SVG-20010904/DTD/svg10.dtd">
<svg version="1.0" xmlns="http://www.w3.org/2000/svg"
 width="70.000000pt" height="56.000000pt" viewBox="0 0 70.000000 56.000000"
 preserveAspectRatio="xMidYMid meet">
<metadata>
Created by potrace 1.16, written by Peter Selinger 2001-2019
</metadata>
<g transform="translate(0.000000,56.000000) scale(0.100000,-0.100000)"
fill="#000000" stroke="none">
<path d="M314 515 l7 -45 -17 -18 -18 -17 -82 0 -82 0 -7 -67 -6 -68 -15 -15
-15 -15 -24 0 -23 0 -16 -6 -16 -6 0 -40 0 -39 14 -15 15 -14 34 0 34 0 9 -72
9 -73 210 -3 210 -3 30 6 31 5 14 68 15 67 27 3 26 3 11 31 11 31 0 12 0 12
-19 21 -18 22 -32 0 -32 0 -5 14 -5 14 -2 68 -2 69 -67 -3 -66 -4 -22 7 -22 7
5 35 6 36 -10 18 -10 19 -45 0 -46 0 6 -45z"/>
</g>
</svg>
