<?xml version="1.0" standalone="no"?>
<!DOCTYPE svg PUBLIC "-//W3C//DTD SVG 20010904//EN"
 "http://www.w3.org/TR/2001/REC-SVG-20010904/DTD/svg10.dtd">
<svg version="1.0" xmlns="http://www.w3.org/2000/svg"
 width="68.000000pt" height="54.000000pt" viewBox="0 0 68.000000 54.000000"
 preserveAspectRatio="xMidYMid meet">
<metadata>
Created by potrace 1.16, written by Peter Selinger 2001-2019
</metadata>
<g transform="translate(0.000000,54.000000) scale(0.100000,-0.100000)"
fill="#000000" stroke="none">
<path d="M316 496 l7 -45 -19 -18 -18 -18 -82 0 -82 0 -7 -67 -6 -68 -15 -15
-15 -15 -24 0 -23 0 -16 -6 -16 -6 0 -30 0 -29 14 -15 15 -14 34 0 34 0 9 -72
9 -73 200 -3 200 -3 31 6 32 5 6 38 6 37 10 38 11 37 23 -6 24 -6 11 33 11 32
0 2 0 2 -20 23 -20 23 -30 -6 -30 -6 -7 27 -6 27 -1 60 -1 60 -67 -3 -67 -4
-21 7 -21 7 2 42 3 42 -8 12 -7 12 -34 0 -35 0 6 -44z"/>
</g>
</svg>
