<?xml version="1.0" standalone="no"?>
<!DOCTYPE svg PUBLIC "-//W3C//DTD SVG 20010904//EN"
 "http://www.w3.org/TR/2001/REC-SVG-20010904/DTD/svg10.dtd">
<svg version="1.0" xmlns="http://www.w3.org/2000/svg"
 width="60.000000pt" height="53.000000pt" viewBox="0 0 60.000000 53.000000"
 preserveAspectRatio="xMidYMid meet">
<metadata>
Created by potrace 1.16, written by Peter Selinger 2001-2019
</metadata>
<g transform="translate(0.000000,53.000000) scale(0.100000,-0.100000)"
fill="#000000" stroke="none">
<path d="M213 524 l-13 -6 0 -38 0 -39 -42 -12 -43 -11 -42 5 -42 4 -5 -14 -6
-15 0 -31 0 -32 9 -33 10 -32 13 -14 14 -14 40 2 39 1 3 -27 3 -26 -21 -7 -21
-7 -49 7 -48 7 -7 -21 -6 -21 6 -55 7 -55 18 -20 17 -20 61 0 61 0 26 25 25
26 0 24 0 23 -12 5 -13 5 58 1 57 1 0 -23 0 -24 23 -10 23 -11 57 -12 57 -13
5 5 5 5 6 62 7 63 31 -6 31 -6 11 8 11 7 12 22 11 22 0 20 0 20 -17 16 -16 17
-38 -6 -38 -6 -6 11 -7 10 1 75 1 74 -8 0 -7 0 -45 -16 -44 -15 -33 6 -33 6 0
47 0 47 -8 10 -7 11 -35 1 -35 2 -12 -5z"/>
</g>
</svg>
