<?xml version="1.0" standalone="no"?>
<!DOCTYPE svg PUBLIC "-//W3C//DTD SVG 20010904//EN"
 "http://www.w3.org/TR/2001/REC-SVG-20010904/DTD/svg10.dtd">
<svg version="1.0" xmlns="http://www.w3.org/2000/svg"
 width="62.000000pt" height="55.000000pt" viewBox="0 0 62.000000 55.000000"
 preserveAspectRatio="xMidYMid meet">
<metadata>
Created by potrace 1.16, written by Peter Selinger 2001-2019
</metadata>
<g transform="translate(0.000000,55.000000) scale(0.100000,-0.100000)"
fill="#000000" stroke="none">
<path d="M213 543 l-13 -5 0 -38 0 -39 -42 -11 -42 -12 -42 7 -42 6 -6 -16 -6
-17 0 -41 0 -42 9 -33 10 -32 16 -16 16 -16 34 6 35 7 7 -17 6 -16 -14 -9 -14
-9 -56 6 -57 6 -7 -22 -7 -22 7 -63 6 -64 18 -20 18 -21 71 0 71 0 26 25 25
26 0 29 0 30 35 0 35 0 0 -24 0 -24 28 -10 27 -11 40 -10 40 -11 26 0 26 0 7
37 6 38 0 28 0 28 21 -6 20 -7 23 6 23 6 11 25 12 26 0 29 0 29 -16 16 -17 16
-41 -3 -41 -3 -3 83 -3 82 -17 0 -17 0 -43 -15 -43 -15 -24 6 -25 6 0 43 0 43
-6 16 -6 16 -47 -1 -46 -1 -12 -5z"/>
</g>
</svg>
