<?xml version="1.0" standalone="no"?>
<!DOCTYPE svg PUBLIC "-//W3C//DTD SVG 20010904//EN"
 "http://www.w3.org/TR/2001/REC-SVG-20010904/DTD/svg10.dtd">
<svg version="1.0" xmlns="http://www.w3.org/2000/svg"
 width="58.000000pt" height="47.000000pt" viewBox="0 0 58.000000 47.000000"
 preserveAspectRatio="xMidYMid meet">
<metadata>
Created by potrace 1.16, written by Peter Selinger 2001-2019
</metadata>
<g transform="translate(0.000000,47.000000) scale(0.100000,-0.100000)"
fill="#000000" stroke="none">
<path d="M414 461 l6 -8 -47 -7 -46 -6 -35 0 -34 0 6 -35 7 -35 -16 0 -15 0 0
-10 0 -10 -44 0 -44 0 -6 16 -6 16 0 34 0 34 -70 0 -70 0 0 -62 0 -63 48 3 48
4 12 -27 12 -26 0 -29 0 -29 -16 -15 -15 -16 -33 0 -33 0 -7 -52 -6 -53 0 -32
0 -33 38 0 37 0 38 11 37 10 0 38 0 39 16 6 16 6 33 0 33 0 6 -16 6 -16 0 -43
0 -43 29 -7 30 -6 35 10 36 9 16 17 16 16 -11 27 -10 27 -3 39 -3 39 68 -2 68
-2 20 22 19 22 0 21 0 21 -10 15 -9 15 -49 -2 -49 -2 -12 25 -11 25 0 49 0 48
-6 16 -6 16 -10 0 -9 0 5 -9z"/>
</g>
</svg>
