<?xml version="1.0" standalone="no"?>
<!DOCTYPE svg PUBLIC "-//W3C//DTD SVG 20010904//EN"
 "http://www.w3.org/TR/2001/REC-SVG-20010904/DTD/svg10.dtd">
<svg version="1.0" xmlns="http://www.w3.org/2000/svg"
 width="60.000000pt" height="49.000000pt" viewBox="0 0 60.000000 49.000000"
 preserveAspectRatio="xMidYMid meet">
<metadata>
Created by potrace 1.16, written by Peter Selinger 2001-2019
</metadata>
<g transform="translate(0.000000,49.000000) scale(0.100000,-0.100000)"
fill="#000000" stroke="none">
<path d="M408 480 l-3 -11 -74 -6 -73 -6 4 -34 4 -33 -13 0 -13 0 0 -10 0 -10
-34 0 -34 0 -6 16 -6 16 0 34 0 34 -80 0 -80 0 0 -75 0 -74 48 6 48 5 12 -26
12 -27 0 -19 0 -19 -16 -15 -15 -16 -33 0 -33 0 -7 -52 -6 -53 0 -42 0 -43 48
0 47 0 38 11 37 10 0 38 0 39 16 6 16 6 23 0 23 0 6 -16 6 -16 0 -43 0 -43 30
-7 30 -7 40 7 39 7 22 18 21 19 -6 28 -7 28 -8 38 -8 37 70 0 70 0 18 22 19
21 0 31 0 31 -10 15 -9 15 -50 -1 -49 0 -11 23 -11 24 0 49 0 48 -6 16 -6 16
-18 0 -18 0 -4 -10z"/>
</g>
</svg>
