<?xml version="1.0" standalone="no"?>
<!DOCTYPE svg PUBLIC "-//W3C//DTD SVG 20010904//EN"
 "http://www.w3.org/TR/2001/REC-SVG-20010904/DTD/svg10.dtd">
<svg version="1.0" xmlns="http://www.w3.org/2000/svg"
 width="46.000000pt" height="57.000000pt" viewBox="0 0 46.000000 57.000000"
 preserveAspectRatio="xMidYMid meet">
<metadata>
Created by potrace 1.16, written by Peter Selinger 2001-2019
</metadata>
<g transform="translate(0.000000,57.000000) scale(0.100000,-0.100000)"
fill="#000000" stroke="none">
<path d="M40 515 l0 -54 11 -25 12 -25 49 2 49 2 9 -15 10 -15 0 -21 0 -21
-19 -22 -20 -22 -68 2 -68 2 3 -44 4 -44 10 -18 10 -19 -6 -14 -5 -14 78 0 78
0 6 -6 6 -7 -10 -19 -10 -19 10 -31 11 -31 21 -18 22 -19 13 0 13 0 15 15 15
15 10 0 11 0 6 24 5 23 -3 19 -3 19 65 13 64 13 8 12 8 12 0 204 0 203 -17 -7
-18 -7 -63 -15 -63 -15 6 -29 7 -29 -16 0 -16 0 0 -9 0 -10 -19 -6 -19 -6 -26
12 -26 12 0 6 0 6 9 31 9 31 -10 16 -9 17 -74 0 -75 0 0 -55z"/>
</g>
</svg>
