<?xml version="1.0" standalone="no"?>
<!DOCTYPE svg PUBLIC "-//W3C//DTD SVG 20010904//EN"
 "http://www.w3.org/TR/2001/REC-SVG-20010904/DTD/svg10.dtd">
<svg version="1.0" xmlns="http://www.w3.org/2000/svg"
 width="45.000000pt" height="58.000000pt" viewBox="0 0 45.000000 58.000000"
 preserveAspectRatio="xMidYMid meet">
<metadata>
Created by potrace 1.16, written by Peter Selinger 2001-2019
</metadata>
<g transform="translate(0.000000,58.000000) scale(0.100000,-0.100000)"
fill="#000000" stroke="none">
<path d="M8 525 l-5 -56 6 -37 7 -37 39 -1 40 -1 12 -1 12 -2 6 -19 6 -19 -12
-26 -12 -26 -11 -1 -11 -1 -31 2 -31 1 -6 -53 -6 -53 -7 -32 -6 -33 68 0 69 0
14 -9 15 -10 -12 -26 -12 -26 0 -17 0 -18 35 -13 36 -12 29 6 30 7 0 14 0 14
11 0 11 0 -4 51 -3 52 83 -6 82 -6 0 226 0 225 -27 -7 -28 -7 -55 -12 -55 -11
-1 -30 -1 -30 -1 -12 -2 -13 -15 0 -15 0 0 -9 0 -9 -14 -5 -14 -6 -21 18 -20
18 -10 24 -9 25 10 18 10 17 -6 15 -5 14 -79 0 -80 0 -4 -55z"/>
</g>
</svg>
