<?xml version="1.0" standalone="no"?>
<!DOCTYPE svg PUBLIC "-//W3C//DTD SVG 20010904//EN"
 "http://www.w3.org/TR/2001/REC-SVG-20010904/DTD/svg10.dtd">
<svg version="1.0" xmlns="http://www.w3.org/2000/svg"
 width="48.000000pt" height="59.000000pt" viewBox="0 0 48.000000 59.000000"
 preserveAspectRatio="xMidYMid meet">
<metadata>
Created by potrace 1.16, written by Peter Selinger 2001-2019
</metadata>
<g transform="translate(0.000000,59.000000) scale(0.100000,-0.100000)"
fill="#000000" stroke="none">
<path d="M40 525 l0 -64 12 -26 11 -25 50 1 49 2 9 -14 9 -14 0 -11 0 -11 -20
-23 -20 -23 -66 6 -65 5 -5 -13 -5 -13 11 -53 11 -54 0 -23 -1 -22 81 0 80 0
-6 -20 -6 -20 6 -31 7 -30 24 -24 25 -25 24 0 24 0 15 15 15 15 9 0 10 0 6 16
6 16 0 28 0 28 62 11 62 11 8 12 8 13 0 214 0 213 -22 -5 -23 -6 -68 -16 -69
-17 4 -29 5 -29 -9 0 -9 0 -15 -15 -15 -14 -23 10 -24 11 10 34 9 34 -11 20
-11 20 -84 0 -85 0 0 -65z"/>
</g>
</svg>
