<?xml version="1.0" standalone="no"?>
<!DOCTYPE svg PUBLIC "-//W3C//DTD SVG 20010904//EN"
 "http://www.w3.org/TR/2001/REC-SVG-20010904/DTD/svg10.dtd">
<svg version="1.0" xmlns="http://www.w3.org/2000/svg"
 width="43.000000pt" height="56.000000pt" viewBox="0 0 43.000000 56.000000"
 preserveAspectRatio="xMidYMid meet">
<metadata>
Created by potrace 1.16, written by Peter Selinger 2001-2019
</metadata>
<g transform="translate(0.000000,56.000000) scale(0.100000,-0.100000)"
fill="#000000" stroke="none">
<path d="M8 513 l-3 -48 5 -35 5 -35 41 3 42 3 16 -16 16 -16 0 -20 0 -20 -11
-22 -12 -22 -11 -7 -11 -8 -31 6 -31 6 -6 -59 -6 -60 -7 -16 -6 -17 68 0 69 0
14 -9 14 -9 -6 -23 -5 -24 -7 -20 -6 -21 33 -12 33 -11 23 5 22 6 0 14 0 14
11 0 12 0 -6 50 -6 50 22 1 22 1 35 -1 35 -2 28 -5 27 -6 0 216 0 215 -15 -6
-16 -5 -57 -12 -57 -11 3 -19 3 -19 -5 -23 -6 -24 -11 0 -10 0 -15 -15 -15
-15 -13 0 -13 0 -22 19 -21 18 -11 31 -10 31 10 19 10 19 -6 7 -6 6 -68 0 -67
0 -4 -47z"/>
</g>
</svg>
