<?xml version="1.0" standalone="no"?>
<!DOCTYPE svg PUBLIC "-//W3C//DTD SVG 20010904//EN"
 "http://www.w3.org/TR/2001/REC-SVG-20010904/DTD/svg10.dtd">
<svg version="1.0" xmlns="http://www.w3.org/2000/svg"
 width="56.000000pt" height="58.000000pt" viewBox="0 0 56.000000 58.000000"
 preserveAspectRatio="xMidYMid meet">
<metadata>
Created by potrace 1.16, written by Peter Selinger 2001-2019
</metadata>
<g transform="translate(0.000000,58.000000) scale(0.100000,-0.100000)"
fill="#000000" stroke="none">
<path d="M281 571 l-13 -9 6 -29 7 -29 -19 -22 -19 -22 -62 -6 -61 -7 0 -75 0
-75 -34 6 -35 6 -20 -6 -21 -5 -6 -24 -6 -24 7 -36 6 -36 20 5 19 5 13 -12 13
-13 17 -75 18 -75 70 -6 70 -6 26 12 25 11 -6 38 -6 38 20 20 20 20 15 0 15 0
0 -31 0 -30 13 -13 12 -12 55 -13 55 -13 30 -1 30 -2 3 219 2 218 -22 -6 -23
-6 -54 -12 -55 -12 -4 12 -4 12 -14 0 -14 0 11 23 10 22 -13 40 -13 40 -35 3
-35 2 -14 -9z"/>
</g>
</svg>
