<?xml version="1.0" standalone="no"?>
<!DOCTYPE svg PUBLIC "-//W3C//DTD SVG 20010904//EN"
 "http://www.w3.org/TR/2001/REC-SVG-20010904/DTD/svg10.dtd">
<svg version="1.0" xmlns="http://www.w3.org/2000/svg"
 width="60.000000pt" height="71.000000pt" viewBox="0 0 60.000000 71.000000"
 preserveAspectRatio="xMidYMid meet">
<metadata>
Created by potrace 1.16, written by Peter Selinger 2001-2019
</metadata>
<g transform="translate(0.000000,71.000000) scale(0.100000,-0.100000)"
fill="#000000" stroke="none">
<path d="M315 696 l-18 -13 6 -45 6 -45 -24 -13 -24 -13 -61 6 -60 7 0 -65 0
-65 -34 0 -35 0 -28 -11 -28 -10 -7 -12 -8 -12 0 -38 0 -38 15 -16 16 -15 29
6 30 6 0 -15 0 -15 22 -62 21 -63 12 -12 13 -12 78 -3 79 -3 -3 -51 -2 -51 30
-13 30 -12 25 6 25 6 0 10 0 10 16 0 16 0 -4 29 -4 30 50 11 51 12 28 10 27
10 0 219 0 219 -82 0 -83 0 -10 8 -11 7 0 45 1 45 -7 18 -7 17 -34 0 -33 0
-19 -14z"/>
</g>
</svg>
