<?xml version="1.0" standalone="no"?>
<!DOCTYPE svg PUBLIC "-//W3C//DTD SVG 20010904//EN"
 "http://www.w3.org/TR/2001/REC-SVG-20010904/DTD/svg10.dtd">
<svg version="1.0" xmlns="http://www.w3.org/2000/svg"
 width="58.000000pt" height="69.000000pt" viewBox="0 0 58.000000 69.000000"
 preserveAspectRatio="xMidYMid meet">
<metadata>
Created by potrace 1.16, written by Peter Selinger 2001-2019
</metadata>
<g transform="translate(0.000000,69.000000) scale(0.100000,-0.100000)"
fill="#000000" stroke="none">
<path d="M317 679 l-19 -11 7 -47 6 -47 -25 -13 -24 -14 -61 5 -61 4 0 -67 0
-67 -20 5 -20 5 -35 -6 -34 -7 -16 -15 -15 -15 0 -30 0 -30 14 -15 14 -14 31
6 31 7 0 -17 0 -16 22 -62 21 -63 13 -12 13 -13 75 0 75 0 9 -17 10 -16 -9
-31 -9 -31 0 -6 0 -6 26 -12 26 -12 19 6 19 6 0 10 0 9 16 0 16 0 -7 29 -6 29
53 12 53 12 28 10 27 10 0 209 0 209 -82 0 -83 0 -11 8 -12 7 1 50 1 51 -8 12
-7 12 -22 0 -22 -1 -18 -10z"/>
</g>
</svg>
