<?xml version="1.0" standalone="no"?>
<!DOCTYPE svg PUBLIC "-//W3C//DTD SVG 20010904//EN"
 "http://www.w3.org/TR/2001/REC-SVG-20010904/DTD/svg10.dtd">
<svg version="1.0" xmlns="http://www.w3.org/2000/svg"
 width="54.000000pt" height="56.000000pt" viewBox="0 0 54.000000 56.000000"
 preserveAspectRatio="xMidYMid meet">
<metadata>
Created by potrace 1.16, written by Peter Selinger 2001-2019
</metadata>
<g transform="translate(0.000000,56.000000) scale(0.100000,-0.100000)"
fill="#000000" stroke="none">
<path d="M283 554 l-12 -5 6 -32 5 -32 -20 -23 -19 -22 -62 -6 -61 -7 0 -74 0
-75 -37 2 -38 2 -17 -1 -17 -1 -6 -20 -6 -20 6 -29 6 -29 18 5 18 5 14 -15 15
-14 17 -75 18 -76 62 -4 62 -5 22 10 23 10 -6 37 -6 38 22 22 21 21 27 -3 27
-3 -3 -27 -3 -28 13 -13 13 -13 55 -13 55 -12 20 -2 20 -2 3 207 2 206 -52
-14 -53 -14 -27 0 -28 0 0 10 0 10 -16 0 -16 0 7 23 7 22 -1 23 -1 23 -10 20
-11 19 -22 -1 -22 -1 -12 -4z"/>
</g>
</svg>
