<?xml version="1.0" standalone="no"?>
<!DOCTYPE svg PUBLIC "-//W3C//DTD SVG 20010904//EN"
 "http://www.w3.org/TR/2001/REC-SVG-20010904/DTD/svg10.dtd">
<svg version="1.0" xmlns="http://www.w3.org/2000/svg"
 width="50.000000pt" height="58.000000pt" viewBox="0 0 50.000000 58.000000"
 preserveAspectRatio="xMidYMid meet">
<metadata>
Created by potrace 1.16, written by Peter Selinger 2001-2019
</metadata>
<g transform="translate(0.000000,58.000000) scale(0.100000,-0.100000)"
fill="#000000" stroke="none">
<path d="M230 560 l-22 -22 4 -39 4 -39 -21 -7 -20 -6 -66 2 -67 2 -6 -43 -6
-43 9 -48 9 -48 7 -7 7 -7 49 1 49 0 0 -12 0 -13 -17 -16 -17 -17 -48 6 -49 7
-14 -15 -15 -15 0 -34 0 -35 21 -48 20 -49 12 -7 12 -8 65 0 65 1 19 14 19 14
-6 46 -7 46 25 11 26 11 11 -11 11 -11 -2 -52 -1 -53 13 -8 12 -8 93 0 92 0 0
235 0 235 -22 -1 -23 0 -55 12 -55 13 -12 12 -12 12 2 28 2 29 -37 3 -37 3
-21 -21z"/>
</g>
</svg>
