<?xml version="1.0" standalone="no"?>
<!DOCTYPE svg PUBLIC "-//W3C//DTD SVG 20010904//EN"
 "http://www.w3.org/TR/2001/REC-SVG-20010904/DTD/svg10.dtd">
<svg version="1.0" xmlns="http://www.w3.org/2000/svg"
 width="48.000000pt" height="56.000000pt" viewBox="0 0 48.000000 56.000000"
 preserveAspectRatio="xMidYMid meet">
<metadata>
Created by potrace 1.16, written by Peter Selinger 2001-2019
</metadata>
<g transform="translate(0.000000,56.000000) scale(0.100000,-0.100000)"
fill="#000000" stroke="none">
<path d="M230 540 l-22 -22 6 -38 6 -37 -23 -10 -22 -10 -66 5 -66 4 -6 -38
-6 -39 8 -43 8 -43 8 -7 7 -7 49 2 49 2 0 -24 0 -24 -17 -16 -17 -17 -50 5
-51 5 -12 -14 -13 -13 0 -25 0 -24 21 -48 20 -49 12 -7 12 -8 55 0 55 1 18 13
18 14 -6 45 -7 45 20 11 21 11 20 0 20 0 7 -12 8 -12 -1 -51 -1 -50 12 -7 11
-8 83 0 82 0 0 223 0 222 -22 2 -23 1 -55 13 -55 13 -13 13 -13 13 3 28 3 27
-27 3 -27 3 -21 -21z"/>
</g>
</svg>
