<?xml version="1.0" standalone="no"?>
<!DOCTYPE svg PUBLIC "-//W3C//DTD SVG 20010904//EN"
 "http://www.w3.org/TR/2001/REC-SVG-20010904/DTD/svg10.dtd">
<svg version="1.0" xmlns="http://www.w3.org/2000/svg"
 width="56.000000pt" height="56.000000pt" viewBox="0 0 56.000000 56.000000"
 preserveAspectRatio="xMidYMid meet">
<metadata>
Created by potrace 1.16, written by Peter Selinger 2001-2019
</metadata>
<g transform="translate(0.000000,56.000000) scale(0.100000,-0.100000)"
fill="#000000" stroke="none">
<path d="M123 498 l5 -63 -5 -28 -6 -29 -58 7 -59 7 0 -42 0 -41 14 -15 15
-14 45 0 45 0 6 -21 7 -21 -7 -64 -7 -64 70 0 69 0 5 -6 6 -5 -11 -29 -11 -30
21 -20 22 -20 40 0 40 0 27 27 26 26 -5 45 -5 44 32 -6 31 -7 38 -6 39 -6 -7
69 -6 69 -5 24 -5 23 -34 -4 -35 -4 -10 31 -11 32 6 16 6 15 24 6 23 6 18 -7
17 -6 13 18 14 19 0 63 0 63 -57 0 -58 0 -23 -7 -24 -6 7 -34 6 -35 -22 -19
-22 -19 -22 0 -22 0 -22 19 -22 20 6 45 7 46 -87 0 -88 0 6 -62z"/>
</g>
</svg>
