<?xml version="1.0" standalone="no"?>
<!DOCTYPE svg PUBLIC "-//W3C//DTD SVG 20010904//EN"
 "http://www.w3.org/TR/2001/REC-SVG-20010904/DTD/svg10.dtd">
<svg version="1.0" xmlns="http://www.w3.org/2000/svg"
 width="54.000000pt" height="54.000000pt" viewBox="0 0 54.000000 54.000000"
 preserveAspectRatio="xMidYMid meet">
<metadata>
Created by potrace 1.16, written by Peter Selinger 2001-2019
</metadata>
<g transform="translate(0.000000,54.000000) scale(0.100000,-0.100000)"
fill="#000000" stroke="none">
<path d="M124 482 l6 -57 -6 -34 -7 -34 -59 7 -58 6 0 -31 0 -30 14 -15 15
-14 45 0 46 0 6 -26 7 -26 -7 -59 -6 -59 70 0 71 0 5 -14 6 -14 -12 -22 -12
-22 21 -19 20 -19 30 0 30 0 26 26 27 27 -7 45 -7 45 46 -6 46 -7 25 -6 25 -6
-5 58 -6 59 -5 24 -5 23 -34 -6 -33 -7 -12 36 -12 36 6 24 6 24 34 7 35 6 10
-6 10 -7 10 20 11 20 0 50 0 51 -47 0 -48 0 -22 -6 -21 -6 5 -34 6 -34 -23
-20 -23 -20 -32 0 -32 0 -23 20 -23 20 6 45 7 45 -76 0 -77 0 7 -58z"/>
</g>
</svg>
