<?xml version="1.0" standalone="no"?>
<!DOCTYPE svg PUBLIC "-//W3C//DTD SVG 20010904//EN"
 "http://www.w3.org/TR/2001/REC-SVG-20010904/DTD/svg10.dtd">
<svg version="1.0" xmlns="http://www.w3.org/2000/svg"
 width="44.000000pt" height="45.000000pt" viewBox="0 0 44.000000 45.000000"
 preserveAspectRatio="xMidYMid meet">
<metadata>
Created by potrace 1.16, written by Peter Selinger 2001-2019
</metadata>
<g transform="translate(0.000000,45.000000) scale(0.100000,-0.100000)"
fill="#000000" stroke="none">
<path d="M297 403 l5 -50 -26 -26 -27 -27 -23 0 -23 0 -20 18 -20 17 -12 22
-11 23 5 23 6 23 -63 -4 -63 -4 -4 -4 -3 -3 -1 -58 0 -58 7 -22 7 -22 30 6 29
6 20 -23 20 -23 0 -2 0 -2 -11 -32 -11 -33 -24 6 -23 6 -11 -37 -10 -38 -6
-37 -6 -37 -17 -4 -16 -5 223 -1 222 -1 0 214 0 214 -27 6 -28 7 -47 6 -47 5
6 -49z"/>
</g>
</svg>
