<?xml version="1.0" standalone="no"?>
<!DOCTYPE svg PUBLIC "-//W3C//DTD SVG 20010904//EN"
 "http://www.w3.org/TR/2001/REC-SVG-20010904/DTD/svg10.dtd">
<svg version="1.0" xmlns="http://www.w3.org/2000/svg"
 width="46.000000pt" height="47.000000pt" viewBox="0 0 46.000000 47.000000"
 preserveAspectRatio="xMidYMid meet">
<metadata>
Created by potrace 1.16, written by Peter Selinger 2001-2019
</metadata>
<g transform="translate(0.000000,47.000000) scale(0.100000,-0.100000)"
fill="#000000" stroke="none">
<path d="M295 421 l7 -49 -27 -26 -26 -26 -14 0 -14 0 -26 25 -25 26 -1 12 -1
12 2 27 1 27 -73 -6 -73 -6 -4 -3 -4 -4 0 -67 -1 -68 8 -24 8 -23 30 6 30 6
14 -14 14 -15 0 -14 0 -15 -6 -15 -5 -14 -24 5 -23 4 -11 -38 -11 -39 -6 -37
-7 -38 -13 0 -14 0 0 -15 0 -15 230 0 230 0 0 223 0 222 -40 13 -40 12 -46 0
-46 0 7 -49z"/>
</g>
</svg>
