<?xml version="1.0" standalone="no"?>
<!DOCTYPE svg PUBLIC "-//W3C//DTD SVG 20010904//EN"
 "http://www.w3.org/TR/2001/REC-SVG-20010904/DTD/svg10.dtd">
<svg version="1.0" xmlns="http://www.w3.org/2000/svg"
 width="71.000000pt" height="68.000000pt" viewBox="0 0 71.000000 68.000000"
 preserveAspectRatio="xMidYMid meet">
<metadata>
Created by potrace 1.16, written by Peter Selinger 2001-2019
</metadata>
<g transform="translate(0.000000,68.000000) scale(0.100000,-0.100000)"
fill="#000000" stroke="none">
<path d="M306 640 l6 -39 -18 -18 -18 -18 -73 0 -74 0 3 -79 3 -80 -51 3 -51
2 -17 -16 -16 -16 0 -12 0 -12 8 -11 7 -12 41 -12 40 -12 37 10 37 10 0 -33 0
-34 -15 -45 -15 -44 6 -16 6 -15 66 -3 67 -3 0 -58 0 -58 15 -9 15 -10 20 0
20 0 11 8 12 7 16 40 17 40 -6 33 -6 32 48 0 48 0 39 -11 39 -11 7 12 8 12 7
70 6 70 30 -6 29 -5 15 5 15 6 0 14 0 14 10 0 10 0 0 23 0 24 -21 24 -21 24
-44 -2 -44 -1 0 72 0 73 -42 11 -43 12 -42 10 -42 10 -6 19 -5 18 6 17 6 16
-56 0 -56 0 6 -40z"/>
</g>
</svg>
