<?xml version="1.0" standalone="no"?>
<!DOCTYPE svg PUBLIC "-//W3C//DTD SVG 20010904//EN"
 "http://www.w3.org/TR/2001/REC-SVG-20010904/DTD/svg10.dtd">
<svg version="1.0" xmlns="http://www.w3.org/2000/svg"
 width="73.000000pt" height="70.000000pt" viewBox="0 0 73.000000 70.000000"
 preserveAspectRatio="xMidYMid meet">
<metadata>
Created by potrace 1.16, written by Peter Selinger 2001-2019
</metadata>
<g transform="translate(0.000000,70.000000) scale(0.100000,-0.100000)"
fill="#000000" stroke="none">
<path d="M304 659 l6 -40 -17 -17 -17 -17 -74 1 -75 1 7 -78 6 -79 -54 0 -55
0 -15 -16 -16 -15 0 -22 0 -22 8 -11 7 -11 39 -13 38 -12 39 6 39 6 0 -20 0
-19 -16 -47 -16 -46 6 -24 6 -23 68 -3 67 -3 -3 -51 -4 -51 17 -17 16 -16 32
0 32 0 12 8 11 7 17 43 17 42 -4 30 -5 30 33 0 32 0 52 -12 51 -12 9 13 8 13
6 69 7 69 24 -6 24 -6 20 7 21 6 0 15 0 14 10 0 10 0 0 33 0 34 -21 24 -21 24
-44 0 -44 0 0 71 0 71 -42 11 -43 12 -42 10 -43 11 -1 12 -1 12 2 23 1 22 -67
0 -67 0 7 -41z"/>
</g>
</svg>
