<?xml version="1.0" standalone="no"?>
<!DOCTYPE svg PUBLIC "-//W3C//DTD SVG 20010904//EN"
 "http://www.w3.org/TR/2001/REC-SVG-20010904/DTD/svg10.dtd">
<svg version="1.0" xmlns="http://www.w3.org/2000/svg"
 width="47.000000pt" height="58.000000pt" viewBox="0 0 47.000000 58.000000"
 preserveAspectRatio="xMidYMid meet">
<metadata>
Created by potrace 1.16, written by Peter Selinger 2001-2019
</metadata>
<g transform="translate(0.000000,58.000000) scale(0.100000,-0.100000)"
fill="#000000" stroke="none">
<path d="M302 573 l-24 -5 7 -49 7 -49 -11 0 -11 0 0 -14 0 -14 -17 -4 -18 -5
-27 11 -27 12 9 14 10 15 0 31 0 32 -16 6 -16 6 -68 0 -69 0 -6 -52 -7 -53 4
-35 3 -35 58 0 58 0 9 -15 10 -15 0 -10 0 -10 -8 -11 -7 -11 -21 -11 -21 -11
-52 6 -51 6 0 -22 0 -22 11 -70 12 -69 63 0 64 0 0 -21 0 -20 12 -22 11 -22
20 -18 20 -17 33 0 33 0 26 26 27 27 -4 49 -3 50 40 -6 40 -7 30 -2 30 -2 3
212 2 212 -32 5 -33 5 -40 4 -40 4 -23 -4z"/>
</g>
</svg>
