<?xml version="1.0" standalone="no"?>
<!DOCTYPE svg PUBLIC "-//W3C//DTD SVG 20010904//EN"
 "http://www.w3.org/TR/2001/REC-SVG-20010904/DTD/svg10.dtd">
<svg version="1.0" xmlns="http://www.w3.org/2000/svg"
 width="45.000000pt" height="56.000000pt" viewBox="0 0 45.000000 56.000000"
 preserveAspectRatio="xMidYMid meet">
<metadata>
Created by potrace 1.16, written by Peter Selinger 2001-2019
</metadata>
<g transform="translate(0.000000,56.000000) scale(0.100000,-0.100000)"
fill="#000000" stroke="none">
<path d="M303 552 l-22 -3 6 -50 6 -49 -12 0 -11 0 0 -14 0 -14 -22 -6 -23 -5
-33 11 -33 12 6 21 7 20 5 24 6 23 -14 9 -14 9 -62 0 -62 0 -6 -53 -7 -53 4
-25 3 -24 51 3 51 4 17 -17 16 -16 0 -22 0 -22 -8 -11 -7 -11 -23 -12 -24 -13
-49 7 -49 7 0 -12 0 -11 12 -71 11 -70 69 4 69 4 -6 -23 -5 -23 11 -23 12 -22
20 -18 20 -17 23 0 23 0 27 27 26 26 -5 50 -6 49 47 -5 47 -6 25 -3 25 -3 3
202 2 202 -32 5 -33 5 -30 3 -30 3 -22 -3z"/>
</g>
</svg>
