<?xml version="1.0" standalone="no"?>
<!DOCTYPE svg PUBLIC "-//W3C//DTD SVG 20010904//EN"
 "http://www.w3.org/TR/2001/REC-SVG-20010904/DTD/svg10.dtd">
<svg version="1.0" xmlns="http://www.w3.org/2000/svg"
 width="55.000000pt" height="48.000000pt" viewBox="0 0 55.000000 48.000000"
 preserveAspectRatio="xMidYMid meet">
<metadata>
Created by potrace 1.16, written by Peter Selinger 2001-2019
</metadata>
<g transform="translate(0.000000,48.000000) scale(0.100000,-0.100000)"
fill="#000000" stroke="none">
<path d="M110 411 l0 -70 -11 -25 -12 -25 -41 2 -41 2 -3 -48 -3 -48 30 -12
30 -11 11 -46 11 -45 0 -22 -1 -23 15 0 15 0 0 -11 0 -12 71 6 71 6 19 22 19
22 0 34 0 34 16 6 17 6 14 -19 14 -19 -6 -47 -7 -48 16 0 16 0 0 -10 0 -10 38
0 37 0 50 13 50 13 0 225 0 224 -217 3 -218 2 0 -69z"/>
</g>
</svg>
