<?xml version="1.0" standalone="no"?>
<!DOCTYPE svg PUBLIC "-//W3C//DTD SVG 20010904//EN"
 "http://www.w3.org/TR/2001/REC-SVG-20010904/DTD/svg10.dtd">
<svg version="1.0" xmlns="http://www.w3.org/2000/svg"
 width="53.000000pt" height="46.000000pt" viewBox="0 0 53.000000 46.000000"
 preserveAspectRatio="xMidYMid meet">
<metadata>
Created by potrace 1.16, written by Peter Selinger 2001-2019
</metadata>
<g transform="translate(0.000000,46.000000) scale(0.100000,-0.100000)"
fill="#000000" stroke="none">
<path d="M110 391 l0 -70 -12 -26 -12 -26 -40 3 -41 3 -3 -38 -3 -38 30 -12
30 -11 12 -46 11 -45 1 -22 2 -23 13 0 12 0 0 -11 0 -12 61 7 62 6 19 22 20
23 -5 32 -5 31 15 6 15 6 18 0 19 0 11 -19 10 -20 1 -23 1 -23 -7 -22 -7 -23
16 0 16 0 0 -10 0 -10 28 0 27 0 50 13 50 13 0 215 0 214 -207 3 -208 2 0 -69z"/>
</g>
</svg>
