<?xml version="1.0" standalone="no"?>
<!DOCTYPE svg PUBLIC "-//W3C//DTD SVG 20010904//EN"
 "http://www.w3.org/TR/2001/REC-SVG-20010904/DTD/svg10.dtd">
<svg version="1.0" xmlns="http://www.w3.org/2000/svg"
 width="55.000000pt" height="52.000000pt" viewBox="0 0 55.000000 52.000000"
 preserveAspectRatio="xMidYMid meet">
<metadata>
Created by potrace 1.16, written by Peter Selinger 2001-2019
</metadata>
<g transform="translate(0.000000,52.000000) scale(0.100000,-0.100000)"
fill="#000000" stroke="none">
<path d="M292 470 l5 -50 -25 -7 -24 -6 -70 6 -71 6 7 -55 6 -55 -6 -23 -6
-24 -44 1 -45 2 -9 -15 -10 -15 0 -32 0 -31 30 -7 30 -7 10 -41 11 -42 16 -37
16 -38 214 0 213 0 0 6 0 6 -21 70 -22 70 -29 -6 -30 -6 -14 14 -14 15 0 44 0
45 6 15 5 15 60 -5 59 -6 2 29 2 29 0 46 1 47 -69 12 -70 13 -14 13 -13 14 6
20 6 20 -52 0 -52 0 5 -50z"/>
</g>
</svg>
