<?xml version="1.0" standalone="no"?>
<!DOCTYPE svg PUBLIC "-//W3C//DTD SVG 20010904//EN"
 "http://www.w3.org/TR/2001/REC-SVG-20010904/DTD/svg10.dtd">
<svg version="1.0" xmlns="http://www.w3.org/2000/svg"
 width="57.000000pt" height="54.000000pt" viewBox="0 0 57.000000 54.000000"
 preserveAspectRatio="xMidYMid meet">
<metadata>
Created by potrace 1.16, written by Peter Selinger 2001-2019
</metadata>
<g transform="translate(0.000000,54.000000) scale(0.100000,-0.100000)"
fill="#000000" stroke="none">
<path d="M288 488 l-3 -53 -89 2 -89 2 6 -59 5 -60 -4 -18 -5 -17 -45 0 -45 0
-9 -15 -10 -15 0 -42 0 -41 30 -7 30 -7 10 -41 11 -42 16 -37 16 -38 224 0
223 0 0 16 0 16 -21 70 -22 70 -32 -4 -32 -4 -11 13 -12 12 0 35 0 34 5 14 5
13 59 -3 59 -4 6 49 6 48 -1 36 -1 36 -71 13 -70 12 -12 11 -11 11 4 23 4 23
-60 0 -61 0 -3 -52z"/>
</g>
</svg>
