<?xml version="1.0" standalone="no"?>
<!DOCTYPE svg PUBLIC "-//W3C//DTD SVG 20010904//EN"
 "http://www.w3.org/TR/2001/REC-SVG-20010904/DTD/svg10.dtd">
<svg version="1.0" xmlns="http://www.w3.org/2000/svg"
 width="59.000000pt" height="59.000000pt" viewBox="0 0 59.000000 59.000000"
 preserveAspectRatio="xMidYMid meet">
<metadata>
Created by potrace 1.16, written by Peter Selinger 2001-2019
</metadata>
<g transform="translate(0.000000,59.000000) scale(0.100000,-0.100000)"
fill="#000000" stroke="none">
<path d="M204 575 l-6 -15 4 -50 3 -50 -20 -7 -20 -6 -82 2 -83 3 0 -72 0 -73
22 -18 21 -19 19 0 19 0 20 10 19 11 6 -16 6 -15 -6 -24 -6 -23 -24 4 -25 5
-17 -16 -16 -16 -14 -68 -14 -67 0 -21 0 -22 23 -6 22 -6 62 0 61 0 16 6 16 6
-6 49 -7 49 37 0 36 0 0 -21 0 -20 13 -13 12 -12 59 -12 59 -12 32 0 32 0 16
42 15 43 6 28 6 27 24 0 24 0 11 31 11 32 0 28 0 28 -16 15 -15 16 -29 0 -29
0 -11 20 -10 19 -6 46 -7 45 -26 0 -26 -1 -56 -13 -57 -14 -13 9 -14 8 3 60 3
60 -11 21 -11 20 -25 0 -25 0 -5 -15z"/>
</g>
</svg>
