<?xml version="1.0" standalone="no"?>
<!DOCTYPE svg PUBLIC "-//W3C//DTD SVG 20010904//EN"
 "http://www.w3.org/TR/2001/REC-SVG-20010904/DTD/svg10.dtd">
<svg version="1.0" xmlns="http://www.w3.org/2000/svg"
 width="57.000000pt" height="57.000000pt" viewBox="0 0 57.000000 57.000000"
 preserveAspectRatio="xMidYMid meet">
<metadata>
Created by potrace 1.16, written by Peter Selinger 2001-2019
</metadata>
<g transform="translate(0.000000,57.000000) scale(0.100000,-0.100000)"
fill="#000000" stroke="none">
<path d="M203 554 l-6 -15 6 -48 6 -48 -22 -10 -22 -10 -82 5 -83 5 0 -63 0
-63 22 -19 22 -19 21 6 20 7 20 1 20 2 3 -24 4 -23 -7 -25 -6 -25 -25 6 -25 7
-16 -16 -15 -16 -15 -75 -15 -75 6 -6 6 -7 60 -4 59 -4 24 6 24 6 -5 50 -5 50
52 0 52 0 -6 -20 -6 -20 13 -13 13 -13 59 -12 59 -12 22 0 22 0 16 43 15 42 6
28 6 27 24 0 24 0 11 31 11 32 0 18 0 18 -16 15 -15 16 -29 0 -29 0 -11 20
-10 19 -6 46 -7 45 -16 0 -16 -1 -60 -14 -60 -15 -7 0 -7 0 -15 16 -16 15 6
53 6 53 -11 21 -12 22 -15 0 -15 0 -6 -16z"/>
</g>
</svg>
