<?xml version="1.0" standalone="no"?>
<!DOCTYPE svg PUBLIC "-//W3C//DTD SVG 20010904//EN"
 "http://www.w3.org/TR/2001/REC-SVG-20010904/DTD/svg10.dtd">
<svg version="1.0" xmlns="http://www.w3.org/2000/svg"
 width="59.000000pt" height="57.000000pt" viewBox="0 0 59.000000 57.000000"
 preserveAspectRatio="xMidYMid meet">
<metadata>
Created by potrace 1.16, written by Peter Selinger 2001-2019
</metadata>
<g transform="translate(0.000000,57.000000) scale(0.100000,-0.100000)"
fill="#000000" stroke="none">
<path d="M315 526 l7 -43 -27 -27 -26 -26 -30 0 -30 0 -20 19 -21 19 12 22 12
22 -6 14 -5 14 -81 0 -80 0 0 -72 0 -73 9 -14 10 -15 38 1 38 1 23 -4 22 -4 0
-24 0 -25 -17 -16 -17 -17 -45 5 -45 5 -19 -21 -18 -21 5 -21 6 -20 0 -21 0
-21 18 -21 19 -21 74 -3 74 -3 -3 -38 -3 -38 15 -15 16 -15 35 -6 35 -6 6 32
6 31 42 10 41 11 46 20 47 21 20 47 21 46 6 23 6 22 10 0 10 0 13 13 13 12 6
25 6 25 -12 16 -12 16 -37 12 -38 12 -10 -6 -10 -6 0 84 0 84 -64 11 -63 12
-17 0 -17 0 6 -44z"/>
</g>
</svg>
