<?xml version="1.0" standalone="no"?>
<!DOCTYPE svg PUBLIC "-//W3C//DTD SVG 20010904//EN"
 "http://www.w3.org/TR/2001/REC-SVG-20010904/DTD/svg10.dtd">
<svg version="1.0" xmlns="http://www.w3.org/2000/svg"
 width="61.000000pt" height="59.000000pt" viewBox="0 0 61.000000 59.000000"
 preserveAspectRatio="xMidYMid meet">
<metadata>
Created by potrace 1.16, written by Peter Selinger 2001-2019
</metadata>
<g transform="translate(0.000000,59.000000) scale(0.100000,-0.100000)"
fill="#000000" stroke="none">
<path d="M313 545 l7 -45 -26 -25 -25 -25 -20 0 -20 0 -14 13 -13 13 2 40 1
39 -93 3 -92 3 0 -83 0 -83 10 -15 9 -15 51 -1 50 -1 10 -2 10 -1 0 -14 0 -15
-17 -16 -16 -17 -44 7 -44 6 -21 -23 -20 -23 6 -35 6 -35 0 -16 0 -16 18 -21
19 -21 74 -3 74 -3 -3 -37 -4 -38 17 -16 16 -17 45 -5 44 -5 6 32 6 31 42 10
41 11 46 20 47 21 20 47 21 46 6 23 6 22 10 0 10 0 13 13 14 13 6 31 7 31 -13
21 -12 20 -48 13 -48 12 0 76 0 77 -64 11 -63 12 -28 0 -28 0 6 -45z"/>
</g>
</svg>
