<?xml version="1.0" standalone="no"?>
<!DOCTYPE svg PUBLIC "-//W3C//DTD SVG 20010904//EN"
 "http://www.w3.org/TR/2001/REC-SVG-20010904/DTD/svg10.dtd">
<svg version="1.0" xmlns="http://www.w3.org/2000/svg"
 width="59.000000pt" height="59.000000pt" viewBox="0 0 59.000000 59.000000"
 preserveAspectRatio="xMidYMid meet">
<metadata>
Created by potrace 1.16, written by Peter Selinger 2001-2019
</metadata>
<g transform="translate(0.000000,59.000000) scale(0.100000,-0.100000)"
fill="#000000" stroke="none">
<path d="M283 555 l6 -35 -16 -38 -15 -37 -12 -7 -11 -8 -10 0 -10 0 -15 10
-15 9 0 58 0 58 -86 3 -86 3 -6 -83 -5 -83 3 -3 3 -3 63 -9 62 -9 8 -12 7 -12
-10 -23 -11 -24 -37 6 -37 6 -11 -28 -10 -29 -6 -51 -6 -51 6 -17 6 -16 72 0
71 0 -3 -45 -4 -46 22 -19 23 -20 42 0 42 0 21 19 22 18 0 36 0 35 16 6 16 6
53 0 53 0 5 28 5 27 15 52 15 52 14 13 13 13 20 0 20 0 3 32 3 32 -11 22 -12
21 -35 -5 -35 -6 -16 16 -16 15 -5 71 -6 71 -25 7 -25 7 -64 1 -64 1 6 -35z"/>
</g>
</svg>
