<?xml version="1.0" standalone="no"?>
<!DOCTYPE svg PUBLIC "-//W3C//DTD SVG 20010904//EN"
 "http://www.w3.org/TR/2001/REC-SVG-20010904/DTD/svg10.dtd">
<svg version="1.0" xmlns="http://www.w3.org/2000/svg"
 width="57.000000pt" height="57.000000pt" viewBox="0 0 57.000000 57.000000"
 preserveAspectRatio="xMidYMid meet">
<metadata>
Created by potrace 1.16, written by Peter Selinger 2001-2019
</metadata>
<g transform="translate(0.000000,57.000000) scale(0.100000,-0.100000)"
fill="#000000" stroke="none">
<path d="M285 538 l6 -33 -17 -40 -16 -40 -12 -7 -11 -8 -20 0 -20 0 -15 10
-15 9 0 58 0 58 -77 3 -78 3 0 -53 0 -53 -6 -22 -6 -22 36 -5 36 -6 34 -5 35
-6 6 -18 6 -19 -13 -27 -12 -27 -37 6 -37 6 -10 -28 -10 -27 -5 -44 -5 -43 5
-14 5 -14 74 0 74 0 -7 -45 -6 -45 23 -20 23 -20 32 0 32 0 23 20 23 20 -6 34
-5 34 21 6 22 6 51 0 52 0 5 27 5 28 15 52 15 52 16 16 16 16 17 -3 18 -3 3
22 3 22 -11 21 -11 21 -34 -7 -34 -6 -18 17 -17 17 -5 71 -6 71 -25 7 -25 7
-53 1 -53 1 6 -32z"/>
</g>
</svg>
