<?xml version="1.0" standalone="no"?>
<!DOCTYPE svg PUBLIC "-//W3C//DTD SVG 20010904//EN"
 "http://www.w3.org/TR/2001/REC-SVG-20010904/DTD/svg10.dtd">
<svg version="1.0" xmlns="http://www.w3.org/2000/svg"
 width="56.000000pt" height="58.000000pt" viewBox="0 0 56.000000 58.000000"
 preserveAspectRatio="xMidYMid meet">
<metadata>
Created by potrace 1.16, written by Peter Selinger 2001-2019
</metadata>
<g transform="translate(0.000000,58.000000) scale(0.100000,-0.100000)"
fill="#000000" stroke="none">
<path d="M38 573 l-38 -4 0 -210 0 -209 58 -1 57 -1 25 -7 25 -7 -3 -48 -2
-49 21 -18 22 -19 7 0 7 0 32 11 31 11 2 11 1 12 1 29 1 30 35 8 35 8 38 12
37 11 0 9 0 9 -9 17 -8 17 -7 41 -6 41 18 21 18 20 45 -5 45 -5 17 17 17 16 0
25 0 24 -22 4 -23 4 -38 -1 -38 -1 -10 15 -9 14 0 71 0 71 -62 -15 -63 -14
-11 -3 -11 -3 -6 -31 -6 -31 -40 0 -40 0 -16 17 -17 16 4 39 4 38 -41 -2 -40
-1 -37 -4z"/>
</g>
</svg>
