<?xml version="1.0" standalone="no"?>
<!DOCTYPE svg PUBLIC "-//W3C//DTD SVG 20010904//EN"
 "http://www.w3.org/TR/2001/REC-SVG-20010904/DTD/svg10.dtd">
<svg version="1.0" xmlns="http://www.w3.org/2000/svg"
 width="58.000000pt" height="60.000000pt" viewBox="0 0 58.000000 60.000000"
 preserveAspectRatio="xMidYMid meet">
<metadata>
Created by potrace 1.16, written by Peter Selinger 2001-2019
</metadata>
<g transform="translate(0.000000,60.000000) scale(0.100000,-0.100000)"
fill="#000000" stroke="none">
<path d="M38 593 l-38 -4 0 -220 0 -219 58 -1 57 -1 25 -7 25 -7 -3 -48 -4
-47 23 -20 22 -19 17 0 17 0 32 11 31 11 6 23 5 22 -3 18 -3 18 35 9 35 8 38
12 39 12 -6 25 -5 26 -9 43 -9 42 16 18 16 17 46 -3 47 -3 16 16 16 16 0 34 0
34 -18 5 -18 6 -43 -2 -43 -1 -9 14 -9 14 0 74 0 73 -27 -7 -28 -8 -54 -11
-55 -12 -8 -32 -9 -32 -29 0 -29 0 -16 17 -17 16 6 39 6 38 -52 -2 -53 -1 -37
-4z"/>
</g>
</svg>
