<?xml version="1.0" standalone="no"?>
<!DOCTYPE svg PUBLIC "-//W3C//DTD SVG 20010904//EN"
 "http://www.w3.org/TR/2001/REC-SVG-20010904/DTD/svg10.dtd">
<svg version="1.0" xmlns="http://www.w3.org/2000/svg"
 width="55.000000pt" height="54.000000pt" viewBox="0 0 55.000000 54.000000"
 preserveAspectRatio="xMidYMid meet">
<metadata>
Created by potrace 1.16, written by Peter Selinger 2001-2019
</metadata>
<g transform="translate(0.000000,54.000000) scale(0.100000,-0.100000)"
fill="#000000" stroke="none">
<path d="M120 538 l-1 -3 -2 -66 -2 -65 -18 -18 -18 -18 -22 5 -22 4 -15 4
-15 4 -3 -34 -3 -34 13 -8 13 -9 40 0 40 0 23 -6 22 -6 0 -32 -1 -31 -14 -40
-15 -40 0 -17 0 -18 70 0 69 0 -5 -15 -6 -15 6 -24 6 -25 16 -15 15 -16 25 0
25 0 13 13 13 12 12 24 13 23 -7 35 -6 36 38 -6 38 -6 36 -7 36 -6 6 15 6 15
-8 55 -7 55 -16 15 -16 16 -36 -6 -36 -6 0 36 0 36 19 11 20 10 31 0 31 0 15
14 14 15 0 70 0 71 -215 0 -215 0 0 -2z"/>
</g>
</svg>
