<?xml version="1.0" standalone="no"?>
<!DOCTYPE svg PUBLIC "-//W3C//DTD SVG 20010904//EN"
 "http://www.w3.org/TR/2001/REC-SVG-20010904/DTD/svg10.dtd">
<svg version="1.0" xmlns="http://www.w3.org/2000/svg"
 width="57.000000pt" height="56.000000pt" viewBox="0 0 57.000000 56.000000"
 preserveAspectRatio="xMidYMid meet">
<metadata>
Created by potrace 1.16, written by Peter Selinger 2001-2019
</metadata>
<g transform="translate(0.000000,56.000000) scale(0.100000,-0.100000)"
fill="#000000" stroke="none">
<path d="M119 553 l-1 -8 -2 -61 -1 -60 -18 -18 -18 -18 -29 12 -29 12 -10 -7
-11 -6 0 -44 0 -45 22 -4 23 -5 48 -4 48 -5 6 -6 6 -6 -12 -48 -13 -47 -5 -37
-5 -38 66 0 66 0 0 -26 0 -25 11 -22 12 -22 11 -7 11 -8 34 0 34 0 19 22 19
22 5 23 6 23 -5 26 -5 26 27 -6 26 -6 46 -6 46 -6 6 16 7 17 -7 59 -6 60 -18
21 -18 21 -36 -6 -35 -7 0 25 0 25 19 11 20 10 31 0 31 0 15 14 14 15 0 80 0
81 -225 0 -225 0 -1 -7z"/>
</g>
</svg>
