<?xml version="1.0" standalone="no"?>
<!DOCTYPE svg PUBLIC "-//W3C//DTD SVG 20010904//EN"
 "http://www.w3.org/TR/2001/REC-SVG-20010904/DTD/svg10.dtd">
<svg version="1.0" xmlns="http://www.w3.org/2000/svg"
 width="59.000000pt" height="46.000000pt" viewBox="0 0 59.000000 46.000000"
 preserveAspectRatio="xMidYMid meet">
<metadata>
Created by potrace 1.16, written by Peter Selinger 2001-2019
</metadata>
<g transform="translate(0.000000,46.000000) scale(0.100000,-0.100000)"
fill="#000000" stroke="none">
<path d="M0 366 l0 -97 18 2 17 3 30 -8 30 -8 7 -11 8 -12 0 -18 0 -18 -14
-15 -15 -14 -9 0 -10 0 -15 -43 -15 -42 -13 -33 -14 -33 15 -10 15 -10 73 3
73 3 10 15 10 15 -6 38 -5 37 19 0 19 0 16 -6 16 -6 0 -43 0 -43 16 -6 16 -6
61 0 62 0 22 6 22 6 5 36 5 37 6 47 6 47 32 -6 32 -5 23 20 22 19 0 30 0 30
-19 21 -18 22 -52 0 -51 0 0 65 0 65 -27 0 -28 -1 -65 -18 -65 -18 -2 -29 -1
-29 -1 -12 -1 -12 -21 -6 -20 -7 -20 23 -20 24 6 47 7 48 -74 0 -73 0 -22 6
-23 6 0 -96z"/>
</g>
</svg>
