<?xml version="1.0" standalone="no"?>
<!DOCTYPE svg PUBLIC "-//W3C//DTD SVG 20010904//EN"
 "http://www.w3.org/TR/2001/REC-SVG-20010904/DTD/svg10.dtd">
<svg version="1.0" xmlns="http://www.w3.org/2000/svg"
 width="57.000000pt" height="44.000000pt" viewBox="0 0 57.000000 44.000000"
 preserveAspectRatio="xMidYMid meet">
<metadata>
Created by potrace 1.16, written by Peter Selinger 2001-2019
</metadata>
<g transform="translate(0.000000,44.000000) scale(0.100000,-0.100000)"
fill="#000000" stroke="none">
<path d="M0 352 l0 -83 10 6 10 6 38 -12 37 -12 12 -16 12 -16 -6 -25 -6 -25
-13 -12 -13 -13 -10 0 -11 0 -6 -27 -7 -28 -19 -39 -20 -39 14 -9 13 -9 63 4
63 3 9 15 9 14 -6 38 -6 37 36 0 36 0 15 -15 15 -16 -6 -30 -6 -31 14 -9 14
-9 55 0 55 0 22 6 22 6 5 36 5 37 6 48 7 49 32 -6 33 -6 21 19 22 18 0 20 0
20 -20 23 -20 23 -50 -5 -50 -5 0 68 0 69 -17 0 -18 -1 -65 -18 -65 -18 0 -37
0 -37 -15 -9 -15 -10 -19 0 -19 0 -19 23 -20 22 5 47 6 47 -85 3 -84 3 0 -83z"/>
</g>
</svg>
