<?xml version="1.0" standalone="no"?>
<!DOCTYPE svg PUBLIC "-//W3C//DTD SVG 20010904//EN"
 "http://www.w3.org/TR/2001/REC-SVG-20010904/DTD/svg10.dtd">
<svg version="1.0" xmlns="http://www.w3.org/2000/svg"
 width="58.000000pt" height="60.000000pt" viewBox="0 0 58.000000 60.000000"
 preserveAspectRatio="xMidYMid meet">
<metadata>
Created by potrace 1.16, written by Peter Selinger 2001-2019
</metadata>
<g transform="translate(0.000000,60.000000) scale(0.100000,-0.100000)"
fill="#000000" stroke="none">
<path d="M273 565 l6 -38 -11 -21 -11 -21 -14 -13 -14 -14 -23 6 -23 6 -11 25
-12 26 6 25 6 24 -71 0 -71 0 0 10 0 10 -15 0 -15 0 0 -95 0 -95 45 2 45 1 20
-23 20 -23 0 -14 0 -13 -10 0 -10 0 0 -15 0 -15 -12 -1 -13 -1 -31 2 -32 1 -6
-58 -7 -58 -6 -34 -6 -34 72 5 71 5 0 -29 0 -29 12 -22 11 -22 13 -12 13 -13
35 0 36 0 0 11 0 10 16 16 16 16 -4 50 -3 49 40 -6 40 -7 41 -6 42 -5 7 21 6
21 -6 30 -6 30 6 19 6 20 34 -6 35 -6 0 12 0 11 15 0 15 0 0 15 0 15 10 0 10
0 0 31 0 30 -16 16 -16 16 -50 5 -51 5 7 82 7 82 -48 7 -48 7 -49 6 -49 6 6
-38z"/>
</g>
</svg>
