<?xml version="1.0" standalone="no"?>
<!DOCTYPE svg PUBLIC "-//W3C//DTD SVG 20010904//EN"
 "http://www.w3.org/TR/2001/REC-SVG-20010904/DTD/svg10.dtd">
<svg version="1.0" xmlns="http://www.w3.org/2000/svg"
 width="56.000000pt" height="58.000000pt" viewBox="0 0 56.000000 58.000000"
 preserveAspectRatio="xMidYMid meet">
<metadata>
Created by potrace 1.16, written by Peter Selinger 2001-2019
</metadata>
<g transform="translate(0.000000,58.000000) scale(0.100000,-0.100000)"
fill="#000000" stroke="none">
<path d="M275 547 l7 -35 -13 -23 -12 -24 -13 -12 -13 -13 -25 0 -25 0 -15 16
-16 15 -6 25 -6 24 6 15 5 15 -74 0 -75 0 0 -74 0 -74 44 1 44 2 21 -24 21
-24 0 -24 0 -23 -10 0 -10 0 0 -14 0 -14 -15 -6 -15 -5 -29 5 -29 6 -7 -63 -6
-64 -6 -19 -5 -19 76 7 76 7 -6 -29 -6 -30 13 -23 12 -24 13 -12 13 -13 25 0
26 0 0 11 0 10 16 17 16 16 -5 48 -6 48 29 0 28 0 52 -12 51 -12 10 15 9 14
-6 32 -6 33 6 26 7 26 34 -6 35 -7 0 11 0 10 15 0 15 0 0 15 0 15 10 0 10 0 0
21 0 20 -16 16 -16 16 -50 5 -51 5 6 82 6 83 -42 5 -42 6 -43 7 -43 7 6 -36z"/>
</g>
</svg>
