<svg baseProfile="full" height="628" preserveAspectRatio="none" shape-rendering="geometricPrecision" version="1.1" viewBox="0,0,1200,628" width="1200" xmlns="http://www.w3.org/2000/svg" xmlns:ev="http://www.w3.org/2001/xml-events" xmlns:xlink="http://www.w3.org/1999/xlink"><title>Jigsaw puzzle piece clips</title><desc>Created with the piecemaker. Piece count: 112</desc><defs /><g><g><rect fill="white" height="628" width="1200" x="0" y="0" /></g></g><g><g><path d="M 0 0  L 85.714286 0  c -0.0,10.581792203151425 4.285714285714286,36.523034251821116 -17.615945408714037,31.02803425182112&#10;c -4.749388586345988,-4.71 -8.063684737875956,0 -8.063684737875956,8.221965748178881&#10;c 0,5.952937965272206 5.711728934247008,10.662937965272206 11.498573999990835,5.952937965272206&#10;c 11.142857142857142,-4.71 6.857142857142857,16.485 14.181056146599158,33.297062034727794 c -0.0,17.26678432585165 4.285714285714286,35.71179330136729 -10.70236879182708,30.216793301367286&#10;c -5.567509121312436,-4.71 -13.790050022524223,0 -13.790050022524223,9.033206698632714&#10;c 0,8.947711526042688 5.112383914105802,13.65771152604269 6.140044173290828,8.947711526042688&#10;c 11.142857142857142,-4.71 6.857142857142857,16.485 18.352374641060475,30.30228847395731 c 0.0,10.844804028062235 -4.285714285714286,38.993220381201084 5.650557057528269,33.49822038120109&#10;c 12.731075283685602,-4.71 15.854821926351244,0 15.854821926351244,5.751779618798913&#10;c 0,8.024924401898076 -10.301994143510845,12.734924401898077 -10.744504374302768,8.024924401898076&#10;c -11.142857142857142,-4.71 -6.857142857142857,16.485 -10.760874609576746,31.225075598101924 c 0.0,17.49099331284823 -4.285714285714286,34.75425552121375 7.595076774082917,29.259255521213753&#10;c 6.872748991165648,-4.71 17.370252914493403,0 17.370252914493403,9.990744478786247&#10;c 0,11.488625385023695 -12.409012887429538,16.198625385023696 -20.641269972759527,11.488625385023695&#10;c -11.142857142857142,-4.71 -6.857142857142857,16.485 -4.324059715816791,27.761374614976305 c -0.0,17.143573801097332 4.285714285714286,32.19600309935176 -13.656616748115974,26.701003099351766&#10;c -5.3662740395573065,-4.71 -10.05750767395818,0 -10.05750767395818,12.548996900648234&#10;c 0,11.836209834593596 7.771613226082899,16.546209834593597 12.345889072220972,11.836209834593596&#10;c 11.142857142857142,-4.71 6.857142857142857,16.485 11.368235349853181,27.413790165406404 c -0.0,19.21792663495142 4.285714285714286,35.96497318887701 -2.9584403116149267,30.469973188877013&#10;c -8.380520638092946,-4.71 -19.23626471534219,0 -19.23626471534219,8.780026811122987&#10;c 0,8.887700620613998 1.9623402137153956,13.597700620613999 9.00963542441187,8.887700620613998&#10;c 11.142857142857142,-4.71 6.857142857142857,16.485 13.185069602545246,30.362299379386002 c 0.0,16.780440073635106 -4.285714285714286,35.44415329719604 -0.06680621599302833,29.949153297196037&#10;c 24.07236394543233,-4.71 29.046718827734107,0 29.046718827734107,9.300846702803963&#10;c 0,11.022616600601516 -22.008734888488984,15.732616600601517 -30.119916546626737,11.022616600601516&#10;c -11.142857142857142,-4.71 -6.857142857142857,16.485 1.1400039348856588,28.227383399398484 c 0.0,20.897256867923534 -4.285714285714286,32.48564281020649 -0.9063766675568034,26.990642810206495&#10;c 5.576768509387875,-4.71 24.14383935504991,0 24.14383935504991,12.259357189793505&#10;c 0,11.202373255996648 -4.4756686258423235,15.912373255996648 -5.3383397149136265,11.202373255996648&#10;c -11.142857142857142,-4.71 -6.857142857142857,16.485 -17.89912297257948,28.047626744003352 L 0 628 " fill="none" stroke="black" stroke-width="1.0" style="vector-effect:non-scaling-stroke;" /></g><g><path d="M 0 0  L 171.428571 0  c 0.0,17.973839529952592 -4.285714285714286,39.17738410890901 17.069762083602352,33.68238410890901&#10;c 9.7038331208083,-4.71 10.379864234606668,0 10.379864234606668,5.567615891090988&#10;c 0,10.304638664384342 -26.488909446735807,15.014638664384343 -27.080215617811323,10.304638664384342&#10;c -11.142857142857142,-4.71 -6.857142857142857,16.485 -0.3694107003976974,28.945361335615658 c -0.0,6.576717461648861 4.285714285714286,36.30066854987861 -16.00966734033151,30.805668549878607&#10;c -4.721903535448486,-4.71 -5.035036552568872,0 -5.035036552568872,8.444331450121393&#10;c 0,10.751557653798287 6.513447248533412,15.461557653798288 6.876763183262398,10.751557653798287&#10;c 11.142857142857142,-4.71 6.857142857142857,16.485 14.167940709637985,28.498442346201713 c 0.0,20.60653817631647 -4.285714285714286,36.97809088150123 13.999327259153079,31.483090881501234&#10;c 3.477929752227208,-4.71 13.333595431240143,0 13.333595431240143,7.766909118498766&#10;c 0,6.555801212788282 -4.7939523487755125,11.265801212788283 -12.583672036107192,6.555801212788282&#10;c -11.142857142857142,-4.71 -6.857142857142857,16.485 -14.74925065428603,32.69419878721172 c 0.0,16.968919987979145 -4.285714285714286,37.70995947505798 0.6092915080329151,32.21495947505798&#10;c 14.522222079263766,-4.71 27.893656072749895,0 27.893656072749895,7.035040524942019&#10;c 0,8.735845789159747 -12.285796470206684,13.445845789159748 -26.81293533301324,8.735845789159747&#10;c -11.142857142857142,-4.71 -6.857142857142857,16.485 -1.6900122477695696,30.514154210840253 c 0.0,12.700602705031464 -4.285714285714286,37.513478752954256 11.060108941213407,32.01847875295426&#10;c 11.257533110716924,-4.71 15.31237223597326,0 15.31237223597326,7.231521247045741&#10;c 0,5.576483801514058 -11.365724319178044,10.28648380151406 -13.349052104579522,5.576483801514058&#10;c -11.142857142857142,-4.71 -6.857142857142857,16.485 -13.023429072607145,33.67351619848594 c 0.0,12.897629202007467 -4.285714285714286,37.507196757133265 6.752876322916254,32.01219675713327&#10;c 18.061577953798654,-4.71 20.95601430437464,0 20.95601430437464,7.2378032428667325&#10;c 0,12.399957583134068 -7.886300511050988,17.10995758313407 -27.144090823088604,12.399957583134068&#10;c -11.142857142857142,-4.71 -6.857142857142857,16.485 -0.5647998042022913,26.850042416865932 c -0.0,19.952752982858613 4.285714285714286,36.10864795900598 -4.535129185267968,30.613647959005977&#10;c -12.262686339593653,-4.71 -17.783750238434564,0 -17.783750238434564,8.636352040994023&#10;c 0,10.810779594449677 7.700179530123356,15.520779594449678 15.068777014269497,10.810779594449677&#10;c 11.142857142857142,-4.71 6.857142857142857,16.485 7.250102409433037,28.439220405550323 c -0.0,5.871864121452183 4.285714285714286,32.856610007831776 -5.31047082620926,27.361610007831775&#10;c -18.628649447022145,-4.71 -19.46193408101967,0 -19.46193408101967,11.888389992168225&#10;c 0,11.801403062550357 17.643119015895717,16.511403062550357 21.470174057889206,11.801403062550357&#10;c 11.142857142857142,-4.71 6.857142857142857,16.485 3.3022308493397254,27.448596937449643 L 0 628 " fill="none" stroke="black" stroke-width="1.0" style="vector-effect:non-scaling-stroke;" /></g><g><path d="M 0 0  L 257.142857 0  c -0.0,19.89437623826755 4.285714285714286,33.194663082091 -17.36276431912562,27.699663082091&#10;c -6.1412285794777555,-4.71 -8.449300524231749,0 -8.449300524231749,11.550336917909&#10;c 0,8.625857301720828 10.518437099957175,13.335857301720829 17.88064962040814,8.625857301720828&#10;c 11.142857142857142,-4.71 6.857142857142857,16.485 7.93141522294923,30.624142698279172 c -0.0,8.65601291805496 4.285714285714286,36.8138506574338 -5.036271027852516,31.3188506574338&#10;c -8.918974385210142,-4.71 -21.422990984311042,0 -21.422990984311042,7.931149342566201&#10;c 0,6.4765349083219235 16.09891667836638,11.186534908321924 16.745437987791714,6.4765349083219235&#10;c 11.142857142857142,-4.71 6.857142857142857,16.485 9.713824024371842,32.77346509167808 c 0.0,8.781394002337485 -4.285714285714286,34.841169047447 11.453092648483755,29.346169047447002&#10;c 11.257578534595737,-4.71 17.193550999705366,0 17.193550999705366,9.903830952552998&#10;c 0,9.118719548100842 -13.205096950524547,13.828719548100842 -20.106277165944174,9.118719548100842&#10;c -11.142857142857142,-4.71 -6.857142857142857,16.485 -8.540366482244945,30.13128045189916 c -0.0,16.49524455752907 4.285714285714286,34.70631712694293 -18.04232896907807,29.211317126942927&#10;c -2.0208312014037597,-4.71 -4.92993880897502,0 -4.92993880897502,10.038682873057073&#10;c 0,6.266305212415119 16.209790892422497,10.97630521241512 20.347957314446507,6.266305212415119&#10;c 11.142857142857142,-4.71 6.857142857142857,16.485 2.6243104636065837,32.98369478758488 c -0.0,4.723811281858233 4.285714285714286,37.42809725051556 1.360111029805235,31.933097250515562&#10;c -22.321491079641692,-4.71 -29.44620335672857,0 -29.44620335672857,7.316902749484438&#10;c 0,7.393949755673091 12.554474523108913,12.103949755673092 27.744859784779415,7.393949755673091&#10;c 11.142857142857142,-4.71 6.857142857142857,16.485 0.3412325421439206,31.85605024432691 c 0.0,10.97992745884768 -4.285714285714286,37.52356137838387 0.9140298355572979,32.02856137838387&#10;c 13.532411301958241,-4.71 23.385360773129097,0 23.385360773129097,7.22143862161613&#10;c 0,12.433077914373214 -4.573540104645367,17.143077914373215 -15.082340895242409,12.433077914373214&#10;c -11.142857142857142,-4.71 -6.857142857142857,16.485 -9.217049713443986,26.816922085626786 c 0.0,6.179751746949056 -4.285714285714286,35.17092737538319 4.951769931230685,29.67592737538319&#10;c 8.5610666173861,-4.71 15.664938482835556,0 15.664938482835556,9.57407262461681&#10;c 0,10.515371129549976 -2.5278128322238826,15.225371129549977 -5.186963873935428,10.515371129549976&#10;c -11.142857142857142,-4.71 -6.857142857142857,16.485 -15.429744540130814,28.734628870450024 c -0.0,16.481454964904728 4.285714285714286,35.310868009217245 -11.174601919705559,29.815868009217247&#10;c -7.6134773744907935,-4.71 -13.795750976385616,0 -13.795750976385616,9.434131990782753&#10;c 0,5.843947147688745 8.69738841326477,10.553947147688746 8.86103912174745,5.843947147688745&#10;c 11.142857142857142,-4.71 6.857142857142857,16.485 16.109313774343725,33.406052852311255 L 0 628 " fill="none" stroke="black" stroke-width="1.0" style="vector-effect:non-scaling-stroke;" /></g><g><path d="M 0 0  L 342.857143 0  c -0.0,16.328259256367133 4.285714285714286,32.619789476227695 -1.9576634852919368,27.124789476227694&#10;c -10.394317404679741,-4.71 -22.989164183483073,0 -22.989164183483073,12.125210523772306&#10;c 0,11.16205333244222 21.392683103286384,15.87205333244222 23.67420357897462,11.16205333244222&#10;c 11.142857142857142,-4.71 6.857142857142857,16.485 1.2726240898003915,28.08794666755778 c 0.0,17.010670798789125 -4.285714285714286,35.4367394130846 7.457471865535412,29.941739413084605&#10;c 9.834678267539601,-4.71 20.686736308991172,0 20.686736308991172,9.308260586915395&#10;c 0,9.873744615529432 -7.323798624874837,14.583744615529433 -15.13178714159941,9.873744615529432&#10;c -11.142857142857142,-4.71 -6.857142857142857,16.485 -13.012421032927172,29.376255384470568 c -0.0,4.374513697879088 4.285714285714286,35.09964184960611 -4.776241324520954,29.604641849606107&#10;c -21.970586273120404,-4.71 -22.380292121933874,0 -22.380292121933874,9.645358150393893&#10;c 0,7.168048115675241 13.894664447366996,11.878048115675242 19.579613915923535,7.168048115675241&#10;c 11.142857142857142,-4.71 6.857142857142857,16.485 7.576919530531292,32.08195188432476 c -0.0,4.37220965863056 4.285714285714286,39.009682203454375 -4.688353329836358,33.51468220345438&#10;c -14.236410864929137,-4.71 -18.2260629747174,0 -18.2260629747174,5.735317796545623&#10;c 0,7.169504105501673 9.059484359332211,11.879504105501674 12.398535114870791,7.169504105501673&#10;c 11.142857142857142,-4.71 6.857142857142857,16.485 10.51588118968297,32.08049589449833 c 0.0,4.271427467274628 -4.285714285714286,33.03815084096715 2.6493135370233993,27.54315084096715&#10;c 6.220193166724753,-4.71 20.244626505800298,0 20.244626505800298,11.70684915903285&#10;c 0,6.944509594323868 -3.89138262074036,11.65450959432387 -4.63990753782403,6.944509594323868&#10;c -11.142857142857142,-4.71 -6.857142857142857,16.485 -18.254032504999667,32.30549040567613 c 0.0,9.671238809424272 -4.285714285714286,36.57190865332781 -0.8976365785340221,31.07690865332781&#10;c 16.27762474519764,-4.71 25.693061434602292,0 25.693061434602292,8.17309134667219&#10;c 0,9.690738873884108 -7.221638136341816,14.400738873884109 -7.968189635870843,9.690738873884108&#10;c -11.142857142857142,-4.71 -6.857142857142857,16.485 -16.827235220197426,29.559261126115892 c 0.0,11.74934501820033 -4.285714285714286,38.42442784249523 5.907694824990245,32.92942784249523&#10;c 13.321211639280113,-4.71 17.43584342389968,0 17.43584342389968,6.32057215750477&#10;c 0,12.210789266122148 -2.1973976926636034,16.92078926612215 -6.5196184493451526,12.210789266122148&#10;c -11.142857142857142,-4.71 -6.857142857142857,16.485 -16.823919799544772,27.03921073387785 c -0.0,11.821258434833819 4.285714285714286,34.09330012824723 -14.772386943620301,28.598300128247228&#10;c -5.344577681480176,-4.71 -8.651051648670325,0 -8.651051648670325,10.651699871752772&#10;c 0,5.548934157971821 2.464387894456261,10.258934157971822 7.30065775902084,5.548934157971821&#10;c 11.142857142857142,-4.71 6.857142857142857,16.485 16.122780833269786,33.70106584202818 L 0 628 " fill="none" stroke="black" stroke-width="1.0" style="vector-effect:non-scaling-stroke;" /></g><g><path d="M 0 0  L 428.571429 0  c 0.0,16.421201356253416 -4.285714285714286,34.96713558644737 11.947267503361562,29.472135586447372&#10;c 14.577815408099648,-4.71 15.354628620853713,0 15.354628620853713,9.777864413552628&#10;c 0,9.981257149636654 -7.975202635992014,14.691257149636655 -18.942647334867274,9.981257149636654&#10;c -11.142857142857142,-4.71 -6.857142857142857,16.485 -8.359248789348001,29.268742850363346 c -0.0,18.549992917098553 4.285714285714286,37.60552126682796 -1.6159836100799267,32.11052126682796&#10;c -18.13628926437905,-4.71 -25.43385900723752,0 -25.43385900723752,7.139478733172041&#10;c 0,7.629764160342049 8.239863182482368,12.33976416034205 16.557436491408406,7.629764160342049&#10;c 11.142857142857142,-4.71 6.857142857142857,16.485 10.492406125909039,31.62023583965795 c 0.0,20.355773233626785 -4.285714285714286,37.05137746821571 0.7093853987798908,31.556377468215715&#10;c 19.025237220813736,-4.71 23.37931172248964,0 23.37931172248964,7.6936225317842855&#10;c 0,9.67655316911489 -2.921748283469724,14.38655316911489 -10.074737059862688,9.67655316911489&#10;c -11.142857142857142,-4.71 -6.857142857142857,16.485 -14.013960061406841,29.57344683088511 c 0.0,9.110932699244284 -4.285714285714286,34.18737475385276 5.522461497424939,28.692374753852757&#10;c 19.990861362594934,-4.71 20.69221752516832,0 20.69221752516832,10.557625246147243&#10;c 0,7.801842674484554 -15.857698828184198,12.511842674484555 -16.79888905786836,7.801842674484554&#10;c -11.142857142857142,-4.71 -6.857142857142857,16.485 -9.415789964724897,31.448157325515446 c -0.0,5.622617368839489 4.285714285714286,38.780050430265504 -4.70280825587196,33.28505043026551&#10;c -14.585486012820807,-4.71 -18.848120364003588,0 -18.848120364003588,5.964949569734493&#10;c 0,8.297577428034579 3.850002535990111,13.00757742803458 9.7377780540406,8.297577428034579&#10;c 11.142857142857142,-4.71 6.857142857142857,16.485 13.813150565834949,30.95242257196542 c 0.0,18.8529857242664 -4.285714285714286,36.80237567641947 15.321363603008324,31.307375676419475&#10;c 3.5441303141941085,-4.71 8.980100888665744,0 8.980100888665744,7.9426243235805245&#10;c 0,8.321062618160582 -2.760801294950248,13.031062618160583 -6.518216347936892,8.321062618160582&#10;c -11.142857142857142,-4.71 -6.857142857142857,16.485 -17.783248143737175,30.928937381839418 c 0.0,9.102441980983041 -4.285714285714286,33.029791934650945 5.68998495705736,27.534791934650947&#10;c 14.323613150420996,-4.71 21.893824752851714,0 21.893824752851714,11.715208065349053&#10;c 0,12.426370175325843 -12.015679832764812,17.136370175325844 -14.708691847945474,12.426370175325843&#10;c -11.142857142857142,-4.71 -6.857142857142857,16.485 -12.875117861963602,26.823629824674157 c -0.0,15.985866409220534 4.285714285714286,34.75715798751755 -17.974131025007278,29.26215798751755&#10;c -3.8718363084265675,-4.71 -4.574975373093995,0 -4.574975373093995,9.98784201248245&#10;c 0,7.978014538721382 4.687740342269858,12.688014538721383 15.746512620260948,7.978014538721382&#10;c 11.142857142857142,-4.71 6.857142857142857,16.485 6.802593777840325,31.271985461278618 L 0 628 " fill="none" stroke="black" stroke-width="1.0" style="vector-effect:non-scaling-stroke;" /></g><g><path d="M 0 0  L 514.285714 0  c 0.0,19.641709722475536 -4.285714285714286,38.06242951148966 -0.632437065610137,32.567429511489664&#10;c 20.797165309323404,-4.71 24.23495080760374,0 24.23495080760374,6.682570488510336&#10;c 0,6.4901236414442 -13.186878265048867,11.2001236414442 -23.148229437732446,6.4901236414442&#10;c -11.142857142857142,-4.71 -6.857142857142857,16.485 -0.45428430426115796,32.7598763585558 c 0.0,14.528676862394715 -4.285714285714286,35.342651940279836 13.194385593895191,29.847651940279835&#10;c 7.376015463225769,-4.71 7.551534244120937,0 7.551534244120937,9.402348059720165&#10;c 0,9.908802401812764 -2.385943781079873,14.618802401812765 -6.233906204077973,9.908802401812764&#10;c -11.142857142857142,-4.71 -6.857142857142857,16.485 -14.512013633938155,29.341197598187236 c 0.0,22.516514384239795 -4.285714285714286,34.462973091612994 12.646090014082382,28.967973091612997&#10;c 12.157123639790223,-4.71 13.72422958936481,0 13.72422958936481,10.282026908387003&#10;c 0,10.764901491288889 -19.47079494501642,15.47490149128889 -20.318155553244917,10.764901491288889&#10;c -11.142857142857142,-4.71 -6.857142857142857,16.485 -6.0521640502022755,28.48509850871111 c -0.0,12.112746230273567 4.285714285714286,38.35974550818993 -1.7810061315076942,32.864745508189934&#10;c -9.710379884141322,-4.71 -24.070435161125282,0 -24.070435161125282,6.385254491810066&#10;c 0,10.109349038242122 11.311936111388263,14.819349038242123 21.267988523770534,10.109349038242122&#10;c 11.142857142857142,-4.71 6.857142857142857,16.485 4.583452768862443,29.140650961757878 c -0.0,10.978644465495453 4.285714285714286,38.51496160153222 -0.8332261546577406,33.01996160153222&#10;c -18.77438798674444,-4.71 -22.8472679724999,0 -22.8472679724999,6.2300383984677765&#10;c 0,8.968225675719204 3.347447280355829,13.678225675719204 14.601308492548075,8.968225675719204&#10;c 11.142857142857142,-4.71 6.857142857142857,16.485 9.079185634609566,30.281774324280796 c -0.0,9.404828651007755 4.285714285714286,38.727371533157914 -6.465406623352939,33.23237153315792&#10;c -10.41126314080562,-4.71 -19.64607848960204,0 -19.64607848960204,6.017628466842083&#10;c 0,8.663064045244923 13.859499620558369,13.373064045244924 14.302892693789978,8.663064045244923&#10;c 11.142857142857142,-4.71 6.857142857142857,16.485 11.808592419165002,30.586935954755077 c -0.0,15.057484353714269 4.285714285714286,38.56568184431827 -14.168014398956137,33.07068184431827&#10;c -3.2955162897927965,-4.71 -8.134557124628794,0 -8.134557124628794,6.179318155681727&#10;c 0,6.603648856477015 4.416998682695917,11.313648856477016 12.915591231770835,6.603648856477015&#10;c 11.142857142857142,-4.71 6.857142857142857,16.485 9.386980291814096,32.646351143522985 c 0.0,14.07963618815746 -4.285714285714286,36.010722322293205 5.075879967166257,30.515722322293204&#10;c 5.398138011859317,-4.71 22.625878644369926,0 22.625878644369926,8.734277677706796&#10;c 0,7.587921253287746 -7.812451344864562,12.297921253287747 -9.332689368274725,7.587921253287746&#10;c -11.142857142857142,-4.71 -6.857142857142857,16.485 -18.36906924326146,31.662078746712254 L 0 628 " fill="none" stroke="black" stroke-width="1.0" style="vector-effect:non-scaling-stroke;" /></g><g><path d="M 0 0  L 600.000000 0  c -0.0,22.23347479398336 4.285714285714286,37.9501089704855 0.32989878806476325,32.455108970485504&#10;c -12.50091667031372,-4.71 -24.312982908724173,0 -24.312982908724173,6.7948910295144955&#10;c 0,11.55970951833379 12.128223073889439,16.26970951833379 23.443122759352658,11.55970951833379&#10;c 11.142857142857142,-4.71 6.857142857142857,16.485 0.5399613613067515,27.69029048166621 c 0.0,4.017413720223633 -4.285714285714286,35.37390929462186 12.421463759309216,29.878909294621863&#10;c 8.742893197840198,-4.71 11.964366169899648,0 11.964366169899648,9.371090705378137&#10;c 0,7.009424574479034 -4.175670764832975,11.719424574479035 -6.808029538234347,7.009424574479034&#10;c -11.142857142857142,-4.71 -6.857142857142857,16.485 -17.577800390974517,32.240575425520966 c -0.0,14.382928576544733 4.285714285714286,33.09383291064568 -2.2297091521817154,27.59883291064568&#10;c -16.83373181302408,-4.71 -22.277953660057168,0 -22.277953660057168,11.65116708935432&#10;c 0,10.270068485196362 23.157032714182122,14.980068485196362 25.65137534743778,10.270068485196362&#10;c 11.142857142857142,-4.71 6.857142857142857,16.485 -1.1437125351988975,28.97993151480364 c 0.0,4.998046249304035 -4.285714285714286,36.72494747498783 16.543962411013375,31.229947474987828&#10;c 2.410854969992256,-4.71 9.283080646767694,0 9.283080646767694,8.020052525012172&#10;c 0,12.080679424086 -17.21203167126631,16.790679424086 -22.12431100884884,12.080679424086&#10;c -11.142857142857142,-4.71 -6.857142857142857,16.485 -3.70273204893223,27.169320575914 c 0.0,19.001855062547047 -4.285714285714286,36.42394765210823 3.186839559283372,30.92894765210823&#10;c 6.265444149093522,-4.71 18.99199221955687,0 18.99199221955687,8.321052347891769&#10;c 0,12.13253524899303 -3.985361647908179,16.84253524899303 -8.278584752165203,12.13253524899303&#10;c -11.142857142857142,-4.71 -6.857142857142857,16.485 -13.900247026675038,27.11746475100697 c -0.0,19.825215497805065 4.285714285714286,34.40120407649204 -8.386928288515946,28.906204076492042&#10;c -14.91935144573429,-4.71 -16.339941041137344,0 -16.339941041137344,10.343795923507958&#10;c 0,10.453357631771482 4.534768727521685,15.163357631771483 13.694937768149309,10.453357631771482&#10;c 11.142857142857142,-4.71 6.857142857142857,16.485 11.031931561503981,28.796642368228518 c 0.0,22.683131652220784 -4.285714285714286,34.54950666612331 15.367053125693051,29.05450666612331&#10;c 4.342588002139376,-4.71 6.959954885095776,0 6.959954885095776,10.19549333387669&#10;c 0,6.4341858507884595 -5.000305398392513,11.14418585078846 -20.844292904611898,6.4341858507884595&#10;c -11.142857142857142,-4.71 -6.857142857142857,16.485 -1.4827151061769293,32.81581414921154 c -0.0,7.440761357849706 4.285714285714286,33.14199021592616 -13.318544802720838,27.64699021592616&#10;c -5.565662870347526,-4.71 -9.451922836408785,0 -9.451922836408785,11.60300978407384&#10;c 0,7.843884176263508 13.032982759377813,12.553884176263509 15.177004152681807,7.843884176263508&#10;c 11.142857142857142,-4.71 6.857142857142857,16.485 7.593463486447817,31.406115823736492 L 0 628 " fill="none" stroke="black" stroke-width="1.0" style="vector-effect:non-scaling-stroke;" /></g><g><path d="M 0 0  L 685.714286 0  c -0.0,21.253433900290243 4.285714285714286,35.55240896264957 -14.632355569912816,30.057408962649575&#10;c -7.0605625121993265,-4.71 -14.140053728897941,0 -14.140053728897941,9.192591037350425&#10;c 0,7.262995612084765 21.64371464677125,11.972995612084766 21.467295397055103,7.262995612084765&#10;c 11.142857142857142,-4.71 6.857142857142857,16.485 7.305113901755654,31.987004387915235 c -0.0,9.047332559788773 4.285714285714286,38.62364887386292 -17.249295663017982,33.12864887386292&#10;c -3.2931327106124755,-4.71 -7.244821581945182,0 -7.244821581945182,6.121351126137078&#10;c 0,9.425332282881719 4.142174102726191,14.13533228288172 10.304109340626173,9.425332282881719&#10;c 11.142857142857142,-4.71 6.857142857142857,16.485 14.19000790433699,29.82466771711828 c -0.0,22.067093235047338 4.285714285714286,36.21691597012205 -18.470616880133182,30.72191597012205&#10;c -5.041748771784588,-4.71 -7.6855359755176735,0 -7.6855359755176735,8.528084029877949&#10;c 0,6.679572845697642 9.523510705605258,11.389572845697643 9.700786591797918,6.679572845697642&#10;c 11.142857142857142,-4.71 6.857142857142857,16.485 16.455366263852937,32.57042715430236 c -0.0,22.297668314581877 4.285714285714286,33.680630411093716 -18.04960326644611,28.185630411093715&#10;c -9.643970510421026,-4.71 -10.932862867417892,0 -10.932862867417892,11.064369588906285&#10;c 0,11.816614953176277 27.454677508817444,16.526614953176278 28.093933978732064,11.816614953176277&#10;c 11.142857142857142,-4.71 6.857142857142857,16.485 0.8885321551319372,27.433385046823723 c -0.0,19.130517719344834 4.285714285714286,35.87482543021247 0.8799845815670534,30.37982543021247&#10;c -12.827878943070909,-4.71 -24.154069719787287,0 -24.154069719787287,8.87017456978753&#10;c 0,11.988042097134723 23.659090501562762,16.698042097134724 23.569632148631836,11.988042097134723&#10;c 11.142857142857142,-4.71 6.857142857142857,16.485 -0.29554701041160314,27.261957902865277 c 0.0,20.534624462783157 -4.285714285714286,36.000957853622396 2.395829883692461,30.505957853622395&#10;c 10.087113018133321,-4.71 19.11558822087644,0 19.11558822087644,8.744042146377605&#10;c 0,10.139278251679599 -8.115458000261834,14.8492782516796 -12.492513148385806,10.139278251679599&#10;c -11.142857142857142,-4.71 -6.857142857142857,16.485 -9.018904956183095,29.1107217483204 c 0.0,13.527783741497242 -4.285714285714286,35.14799217779043 13.598688196988041,29.652992177790427&#10;c 4.5410697882005255,-4.71 8.939214922916962,0 8.939214922916962,9.597007822209573&#10;c 0,7.586305400502489 -3.850090020435598,12.29630540050249 -15.279601697136275,7.586305400502489&#10;c -11.142857142857142,-4.71 -6.857142857142857,16.485 -7.258301422768728,31.66369459949751 c -0.0,12.581458776680936 4.285714285714286,37.032222217718186 -2.0249279482506415,31.537222217718185&#10;c -22.37581956021111,-4.71 -26.391865800973765,0 -26.391865800973765,7.712777782281815&#10;c 0,9.637517296699635 3.8965113674106746,14.347517296699635 12.026096470431142,9.637517296699635&#10;c 11.142857142857142,-4.71 6.857142857142857,16.485 16.390697278793265,29.612482703300365 L 0 628 " fill="none" stroke="black" stroke-width="1.0" style="vector-effect:non-scaling-stroke;" /></g><g><path d="M 0 0  L 771.428571 0  c 0.0,4.9122553939256175 -4.285714285714286,33.65496172138354 7.853145599763417,28.159961721383542&#10;c 6.029980811909427,-4.71 13.863722552462578,0 13.863722552462578,11.090038278616458&#10;c 0,10.730651353605886 -13.675095503164675,15.440651353605887 -13.562112097947747,10.730651353605886&#10;c -11.142857142857142,-4.71 -6.857142857142857,16.485 -8.154756054278248,28.519348646394114 c -0.0,8.475196269354228 4.285714285714286,37.586448348531334 -11.279119255195567,32.09144834853134&#10;c -3.410540072425302,-4.71 -14.462876016044813,0 -14.462876016044813,7.158551651468663&#10;c 0,10.958156785671825 2.959449658424063,15.668156785671826 6.93073091706599,10.958156785671825&#10;c 11.142857142857142,-4.71 6.857142857142857,16.485 18.81126435417439,28.291843214328175 c 0.0,14.56478463309721 -4.285714285714286,35.79228773957358 -0.011365027109634265,30.29728773957358&#10;c 17.936223278598188,-4.71 26.72157288508355,0 26.72157288508355,8.95271226042642&#10;c 0,8.087097468695468 -4.447810526464945,12.797097468695469 -14.334031539444915,8.087097468695468&#10;c -11.142857142857142,-4.71 -6.857142857142857,16.485 -12.376176318529001,31.162902531304532 c -0.0,21.376747031166165 4.285714285714286,32.68942795668952 -16.377967055705795,27.19442795668952&#10;c -3.898859219345095,-4.71 -9.711188168605204,0 -9.711188168605204,12.05557204331048&#10;c 0,9.305675208421995 6.973578242669681,14.015675208421996 23.5558087696695,9.305675208421995&#10;c 11.142857142857142,-4.71 6.857142857142857,16.485 2.5333464546414994,29.944324791578005 c 0.0,4.36923375540313 -4.285714285714286,33.553207698754356 0.26175859137729596,28.058207698754355&#10;c 15.698496507604583,-4.71 20.467827701819644,0 20.467827701819644,11.191792301245645&#10;c 0,11.851377840226021 -6.582781396065666,16.561377840226022 -20.240786323489118,11.851377840226021&#10;c -11.142857142857142,-4.71 -6.857142857142857,16.485 -0.48879996970782,27.39862215977398 c 0.0,18.762992990059747 -4.285714285714286,38.11588675838494 0.09348444425418406,32.62088675838494&#10;c 14.002326886496865,-4.71 25.48857039573472,0 25.48857039573472,6.629113241615059&#10;c 0,5.742527766661809 -13.192915495245646,10.45252776666181 -16.654894750150028,5.742527766661809&#10;c -11.142857142857142,-4.71 -6.857142857142857,16.485 -8.927160089838875,33.50747223333819 c 0.0,8.584946810925269 -4.285714285714286,34.94934859283688 11.390368648994002,29.454348592836876&#10;c 7.639146073634237,-4.71 9.907576352490093,0 9.907576352490093,9.795651407163124&#10;c 0,7.2576445849768305 -4.868154459036214,11.967644584976831 -5.341626310745454,7.2576445849768305&#10;c -11.142857142857142,-4.71 -6.857142857142857,16.485 -15.956318690738641,31.99235541502317 c 0.0,12.843928471257232 -4.285714285714286,38.100751783442 -0.6083732984700229,32.605751783442&#10;c 28.696423228295604,-4.71 28.519571329475728,0 28.519571329475728,6.6442482165579975&#10;c 0,7.7446560927049575 -4.602547009592924,12.454656092704958 -17.472563757845855,7.7446560927049575&#10;c -11.142857142857142,-4.71 -6.857142857142857,16.485 -10.438634273159849,31.505343907295043 L 0 628 " fill="none" stroke="black" stroke-width="1.0" style="vector-effect:non-scaling-stroke;" /></g><g><path d="M 0 0  L 857.142857 0  c 0.0,14.80846794108683 -4.285714285714286,35.68318418656949 7.083096439304439,30.188184186569494&#10;c 8.200420640087735,-4.71 13.528657833849847,0 13.528657833849847,9.061815813430506&#10;c 0,10.601691980517245 -14.509103018849633,15.311691980517246 -18.605415628920248,10.601691980517245&#10;c -11.142857142857142,-4.71 -6.857142857142857,16.485 -2.006338644234038,28.648308019482755 c 0.0,10.569608245978037 -4.285714285714286,36.546649978793155 6.701628878502743,31.051649978793154&#10;c 12.88286361000437,-4.71 18.623066055083452,0 18.623066055083452,8.198350021206846&#10;c 0,9.04539833384105 -21.250860332604834,13.75539833384105 -21.471380226522584,9.04539833384105&#10;c -11.142857142857142,-4.71 -6.857142857142857,16.485 -3.8533147070636105,30.20460166615895 c 0.0,4.332198954624179 -4.285714285714286,35.28514518839105 11.805308467251983,29.790145188391048&#10;c 5.247509544774509,-4.71 11.528468265093235,0 11.528468265093235,9.459854811608952&#10;c 0,9.021151116768827 -8.198828660092259,13.731151116768828 -24.15383494188922,9.021151116768827&#10;c -11.142857142857142,-4.71 -6.857142857142857,16.485 0.8200582095440012,30.228848883231173 c -0.0,4.74694723727182 4.285714285714286,35.7377427356138 -11.518677878779803,30.242742735613803&#10;c -14.220835692454214,-4.71 -17.011273471910414,0 -17.011273471910414,9.007257264386197&#10;c 0,5.63024061171933 12.990303202487938,10.34024061171933 16.49906667887325,5.63024061171933&#10;c 11.142857142857142,-4.71 6.857142857142857,16.485 12.03088467181697,33.61975938828067 c 0.0,12.353610341137768 -4.285714285714286,34.39056931072502 16.361360317839193,28.895569310725023&#10;c 3.668145414062745,-4.71 12.767287408617022,0 12.767287408617022,10.354430689274977&#10;c 0,12.489842578144632 -7.1781382481820675,17.199842578144633 -17.904549084828762,12.489842578144632&#10;c -11.142857142857142,-4.71 -6.857142857142857,16.485 -11.224098641627453,26.760157421855368 c 0.0,9.993993717815487 -4.285714285714286,34.67755602442175 8.824194366831286,29.182556024421746&#10;c 11.828365417484864,-4.71 17.94433914755203,0 17.94433914755203,10.067443975578254&#10;c 0,11.316807369794454 -5.430153034217149,16.026807369794454 -8.643520187204139,11.316807369794454&#10;c -11.142857142857142,-4.71 -6.857142857142857,16.485 -18.125013327179175,27.933192630205546 c 0.0,21.67589011857982 -4.285714285714286,33.17013170781678 10.202939145478103,27.67513170781678&#10;c 7.915233621970388,-4.71 10.37893516495255,0 10.37893516495255,11.574868292183218&#10;c 0,9.352962835766462 -15.105342227192036,14.062962835766463 -15.407502320920775,9.352962835766462&#10;c -11.142857142857142,-4.71 -6.857142857142857,16.485 -5.174371989509877,29.897037164233538 c -0.0,19.63132938069526 4.285714285714286,37.66584278805902 -13.882281039053161,32.17084278805902&#10;c -2.3183078581450283,-4.71 -10.903653700308936,0 -10.903653700308936,7.079157211940981&#10;c 0,12.380176222790823 8.710430536966731,17.090176222790824 10.293752212246998,12.380176222790823&#10;c 11.142857142857142,-4.71 6.857142857142857,16.485 14.4921825271151,26.869823777209177 L 0 628 " fill="none" stroke="black" stroke-width="1.0" style="vector-effect:non-scaling-stroke;" /></g><g><path d="M 0 0  L 942.857143 0  c -0.0,13.5393423337589 4.285714285714286,34.91877937871927 -16.96517824118873,29.42377937871927&#10;c -1.9112693651770138,-4.71 -4.325577699097245,0 -4.325577699097245,9.82622062128073&#10;c 0,12.269323758862207 6.020764957428335,16.979323758862208 11.535048115166616,12.269323758862207&#10;c 11.142857142857142,-4.71 6.857142857142857,16.485 9.75570782511936,26.980676241137793 c 0.0,17.772231516465144 -4.285714285714286,33.03583475928257 4.893476073055329,27.540834759282575&#10;c 18.42948050041456,-4.71 22.256846801602805,0 22.256846801602805,11.709165240717425&#10;c 0,5.829734333874221 -7.195379133922801,10.539734333874222 -16.29661448940973,5.829734333874221&#10;c -11.142857142857142,-4.71 -6.857142857142857,16.485 -10.853708385248403,33.42026566612578 c -0.0,6.450605508895291 4.285714285714286,34.919162429513506 -1.1533261455226516,29.424162429513505&#10;c -15.83156598682142,-4.71 -25.034149141005486,0 -25.034149141005486,9.825837570486495&#10;c 0,5.712434779183468 9.707229890883957,10.422434779183469 18.961999933985922,5.712434779183468&#10;c 11.142857142857142,-4.71 6.857142857142857,16.485 7.225475352542215,33.53756522081653 c -0.0,21.50467925226054 4.285714285714286,37.68253068669747 -17.36084492230394,32.18753068669747&#10;c -4.817928440185601,-4.71 -7.082365575497686,0 -7.082365575497686,7.062469313302529&#10;c 0,10.675965663803325 12.247887031366087,15.385965663803326 16.65667215046494,10.675965663803325&#10;c 11.142857142857142,-4.71 6.857142857142857,16.485 7.786538347336688,28.574034336196675 c -0.0,7.705009589870525 4.285714285714286,32.21141555841806 -14.066968151913438,26.71641555841806&#10;c -4.492710759049985,-4.71 -14.93099322377231,0 -14.93099322377231,12.53358444158194&#10;c 0,10.148763313083244 16.51759198511576,14.858763313083244 18.61896184199422,10.148763313083244&#10;c 11.142857142857142,-4.71 6.857142857142857,16.485 10.378999533691527,29.101236686916756 c 0.0,3.9387514909692953 -4.285714285714286,37.40303526112373 2.152449756105593,31.908035261123736&#10;c 5.93217040261707,-4.71 25.93094999696963,0 25.93094999696963,7.341964738876264&#10;c 0,5.87257021876232 -14.571512158376903,10.58257021876232 -25.147335499515677,5.87257021876232&#10;c -11.142857142857142,-4.71 -6.857142857142857,16.485 -2.9360642535595467,33.37742978123768 c -0.0,15.91961039456739 4.285714285714286,34.99008120054733 -1.5334683759303274,29.49508120054733&#10;c -18.39769764827969,-4.71 -27.247065891709497,0 -27.247065891709497,9.754918799452671&#10;c 0,11.76376680601416 5.496920256708298,16.47376680601416 23.907471024632596,11.76376680601416&#10;c 11.142857142857142,-4.71 6.857142857142857,16.485 4.873063243007227,27.48623319398584 c -0.0,17.858027121619223 4.285714285714286,38.84278121937637 -11.291347166771553,33.34778121937637&#10;c -4.398407521665786,-4.71 -12.662184537326153,0 -12.662184537326153,5.9022187806236275&#10;c 0,12.324964623187476 10.492033897254158,17.034964623187477 22.828883114388095,12.324964623187476&#10;c 11.142857142857142,-4.71 6.857142857142857,16.485 1.1246485897096115,26.925035376812524 L 0 628 " fill="none" stroke="black" stroke-width="1.0" style="vector-effect:non-scaling-stroke;" /></g><g><path d="M 0 0  L 1028.571429 0  c 0.0,18.188055949598724 -4.285714285714286,36.230292208678094 7.047254997972086,30.735292208678096&#10;c 12.430438302206648,-4.71 20.57198169647308,0 20.57198169647308,8.514707791321904&#10;c 0,6.1304706030650635 -5.221036646429747,10.840470603065064 -23.317962418873016,6.1304706030650635&#10;c -11.142857142857142,-4.71 -6.857142857142857,16.485 -4.301274275572151,33.11952939693494 c 0.0,14.290425995951532 -4.285714285714286,32.71783140160045 6.956485003117984,27.222831401600452&#10;c 14.247420954905706,-4.71 15.851423652729974,0 15.851423652729974,12.027168598399548&#10;c 0,9.202104228500517 -4.416889415103836,13.912104228500517 -10.85543898893328,9.202104228500517&#10;c -11.142857142857142,-4.71 -6.857142857142857,16.485 -11.952469666914677,30.047895771499483 c 0.0,6.7429546457928655 -4.285714285714286,38.563031343948495 6.210670037981001,33.0680313439485&#10;c 10.382870648603452,-4.71 17.377213010882173,0 17.377213010882173,6.181968656051502&#10;c 0,7.5261723947837496 -4.337449679260333,12.23617239478375 -8.680718310081282,7.5261723947837496&#10;c -11.142857142857142,-4.71 -6.857142857142857,16.485 -14.90716473878189,31.72382760521625 c 0.0,22.750691007020833 -4.285714285714286,37.158684286009276 15.99728099020211,31.66368428600928&#10;c 9.151587680980851,-4.71 12.391473523272936,0 12.391473523272936,7.586315713990722&#10;c 0,5.924867591789734 -20.45821805085455,10.634867591789735 -21.120874146447512,5.924867591789734&#10;c -11.142857142857142,-4.71 -6.857142857142857,16.485 -7.267880367027534,33.325132408210266 c 0.0,18.270444819288425 -4.285714285714286,36.53228789793362 14.642339907989731,31.03728789793362&#10;c 7.463386022455239,-4.71 13.84858419736585,0 13.84858419736585,8.21271210206638&#10;c 0,11.36133602904038 -3.442888286961085,16.07133602904038 -12.877731894780277,11.36133602904038&#10;c -11.142857142857142,-4.71 -6.857142857142857,16.485 -15.613192210575304,27.88866397095962 c 0.0,6.403579699958142 -4.285714285714286,39.06863026583505 8.015217237996525,33.57363026583505&#10;c 5.976493825663845,-4.71 15.334066392948076,0 15.334066392948076,5.67636973416495&#10;c 0,10.09867650275725 -4.429255733297442,14.808676502757251 -13.84465124109832,10.09867650275725&#10;c -11.142857142857142,-4.71 -6.857142857142857,16.485 -9.50463238984628,29.15132349724275 c -0.0,19.893392225751583 4.285714285714286,35.95678214671259 -3.8462220361221195,30.46178214671259&#10;c -18.681451327975246,-4.71 -19.95578764447596,0 -19.95578764447596,8.78821785328741&#10;c 0,8.810126392886218 5.715436437622104,13.520126392886219 23.866327063190592,8.810126392886218&#10;c 11.142857142857142,-4.71 6.857142857142857,16.485 -0.06431738259250963,30.439873607113782 c 0.0,18.808587779070294 -4.285714285714286,32.825390353051816 12.382752413145528,27.33039035305182&#10;c 3.554841921024234,-4.71 16.610736940240212,0 16.610736940240212,11.919609646948182&#10;c 0,9.100268755217968 -15.462924331590543,13.810268755217969 -25.190080890885824,9.100268755217968&#10;c -11.142857142857142,-4.71 -6.857142857142857,16.485 -3.8034084624999167,30.149731244782032 L 0 628 " fill="none" stroke="black" stroke-width="1.0" style="vector-effect:non-scaling-stroke;" /></g><g><path d="M 0 0  L 1114.285714 0  c -0.0,4.968280334207557 4.285714285714286,36.43888414637218 -15.099224171520415,30.94388414637218&#10;c -3.1089186675860137,-4.71 -13.858257335275102,0 -13.858257335275102,8.30611585362782&#10;c 0,11.610366580428696 16.229760939918027,16.320366580428697 22.288450140194474,11.610366580428696&#10;c 11.142857142857142,-4.71 6.857142857142857,16.485 6.669031366601043,27.639633419571304 c -0.0,12.85343627384887 4.285714285714286,36.655115974401156 -11.505183503400694,31.160115974401158&#10;c -7.105507990928095,-4.71 -9.748150425660274,0 -9.748150425660274,8.089884025598842&#10;c 0,11.393819428310714 1.2610651121910268,16.103819428310715 2.797747896923603,11.393819428310714&#10;c 11.142857142857142,-4.71 6.857142857142857,16.485 18.455586032137365,27.856180571689286 c -0.0,12.754109885359952 4.285714285714286,34.396079714247875 -4.256315661961301,28.901079714247878&#10;c -14.680167036888054,-4.71 -18.40532169721643,0 -18.40532169721643,10.348920285752122&#10;c 0,10.426957762744294 14.116680738640316,15.136957762744295 15.378836269766156,10.426957762744294&#10;c 11.142857142857142,-4.71 6.857142857142857,16.485 7.282801089411576,28.823042237255706 c 0.0,7.403426992711742 -4.285714285714286,36.58973573102525 6.727005185385575,31.09473573102525&#10;c 19.863621853426096,-4.71 20.27932681573743,0 20.27932681573743,8.15526426897475&#10;c 0,9.767358783019588 -7.658022171932586,14.47735878301959 -11.63688731006482,9.767358783019588&#10;c -11.142857142857142,-4.71 -6.857142857142857,16.485 -15.369444691058186,29.48264121698041 c -0.0,16.486454298755902 4.285714285714286,37.908104389617826 0.7003996463390771,32.41310438961783&#10;c -17.906591122051054,-4.71 -25.066494860142143,0 -25.066494860142143,6.836895610382172&#10;c 0,10.726267981475246 4.612279834345518,15.436267981475247 6.099072794164467,10.726267981475246&#10;c 11.142857142857142,-4.71 6.857142857142857,16.485 18.2670224196386,28.523732018524754 c -0.0,19.59360540010873 4.285714285714286,38.51484831768811 -0.8657542867103887,33.019848317688115&#10;c -9.39410196669427,-4.71 -25.970547993965337,0 -25.970547993965337,6.2301516823118845&#10;c 0,9.835311325326543 11.155728434932366,14.545311325326544 11.264252989636095,9.835311325326543&#10;c 11.142857142857142,-4.71 6.857142857142857,16.485 15.57204929103963,29.414688674673457 c -0.0,4.378065394396394 4.285714285714286,33.26485387914439 -12.995955544779894,27.76985387914439&#10;c -12.24920890920955,-4.71 -15.153021142601785,0 -15.153021142601785,11.480146120855611&#10;c 0,10.98105513899771 17.797316274854797,15.691055138997712 20.005003469167,10.98105513899771&#10;c 11.142857142857142,-4.71 6.857142857142857,16.485 8.14397321821468,28.26894486100229 c -0.0,12.954218685949208 4.285714285714286,34.86396696331949 -13.809445070530222,29.36896696331949&#10;c -8.209774713078367,-4.71 -11.316927122638203,0 -11.316927122638203,9.88103303668051&#10;c 0,8.388759536340046 3.9538380740973387,13.098759536340047 8.15240367994543,8.388759536340046&#10;c 11.142857142857142,-4.71 6.857142857142857,16.485 16.973968513222996,30.861240463659954 L 0 628 " fill="none" stroke="black" stroke-width="1.0" style="vector-effect:non-scaling-stroke;" /></g></g><g><g><path d="M 0 0  L 0 78.500000  c 13.471739206936935,-0.0 36.33540944254203,3.9250000000000003 30.335409442542026,-15.814863487492083&#10;c -5.142857142857142,-6.360680841329571 0,-10.100663429144308 12.521733414600828,-10.100663429144308&#10;c 10.1716428493353,0 15.314499992192442,4.205658804084741 10.1716428493353,10.723907131215464&#10;c -5.142857142857142,10.205 17.999999999999996,6.28 32.685500007807555,15.191619785420928 c 23.704565289955532,0.0 40.51232831158375,-3.9250000000000003 34.51232831158375,14.985052161809584&#10;c -5.142857142857142,3.4821731602788315 0,4.313013300229358 8.344814545559103,4.313013300229358&#10;c 12.81028999106254,0 17.953147133919682,-3.5527051683534263 12.81028999106254,-5.3125337849941925&#10;c -5.142857142857142,-10.205 17.999999999999996,-6.28 30.046852866080314,-13.985531677044749 c 20.010729790866687,0.0 38.155261968479635,-3.9250000000000003 32.155261968479635,17.25909535151452&#10;c -5.142857142857142,4.31216728251876 0,5.4225682038361285 10.701880888663219,5.4225682038361285&#10;c 9.487460288032139,0 14.630317430889281,-7.370761113914332 9.487460288032139,-12.414109331026252&#10;c -5.142857142857142,-10.205 17.999999999999996,-6.28 33.369682569110715,-10.267554224324398 c 21.63463223484115,0.0 36.59969875073473,-3.9250000000000003 30.59969875073473,8.936675070724668&#10;c -5.142857142857142,11.551233896115484 0,11.56215983809766 12.257444106408123,11.56215983809766&#10;c 10.181992632943633,0 15.324849775800775,-17.570144519169872 10.181992632943633,-17.969793436472095&#10;c -5.142857142857142,-10.205 17.999999999999996,-6.28 32.67515022419922,-2.529041472350233 c 5.166599415924148,0.0 36.41212969668956,-3.9250000000000003 30.41212969668956,15.725419183371628&#10;c -5.142857142857142,3.907208422172839 0,5.075686124345893 12.445013160453293,5.075686124345893&#10;c 7.098736044226236,0 12.241593187083378,-17.24160507142392 7.098736044226236,-17.605493191533416&#10;c -5.142857142857142,-10.205 17.999999999999996,-6.28 35.75840681291662,-3.1956121161841047 c 8.831057975056561,0.0 40.238526941496545,-3.9250000000000003 34.238526941496545,8.534809456413353&#10;c -5.142857142857142,6.990254946588786 0,14.788303721876254 8.61861591564631,14.788303721876254&#10;c 11.689538748460507,0 16.83239589131765,-12.50463637662739 11.689538748460507,-12.690625347007925&#10;c -5.142857142857142,-10.205 17.999999999999996,-6.28 31.167604108682347,-10.632487831281681 c 24.765519663143625,0.0 42.58788849998195,-3.9250000000000003 36.58788849998195,0.9931881360540392&#10;c -5.142857142857142,14.32545439981556 0,24.82681375008141 6.269254357160904,24.82681375008141&#10;c 8.88390084758987,0 14.026757990447013,-5.1804573139878265 8.88390084758987,-23.93494726698483&#10;c -5.142857142857142,-10.205 17.999999999999996,-6.28 33.97324200955298,-1.885054619150619 c 16.064653474016644,0.0 38.60399637659816,-3.9250000000000003 32.60399637659816,1.445185850845236&#10;c -5.142857142857142,15.53688461694145 0,24.285211540447055 10.253146480544693,24.285211540447055&#10;c 11.606218920751566,0 16.749076063608708,-17.73995479630867 11.606218920751566,-24.600757877638575&#10;c -5.142857142857142,-10.205 17.999999999999996,-6.28 31.25092393639129,-1.1296395136537143 c 9.653131219047458,0.0 35.598131573306844,-3.9250000000000003 29.598131573306844,13.097909918001434&#10;c -5.142857142857142,6.844992121080488 0,10.373026100211902 13.25901128383601,10.373026100211902&#10;c 8.856139880863623,0 13.998997023720765,-3.2201303956277454 8.856139880863623,-11.856279267084048&#10;c -5.142857142857142,-10.205 17.999999999999996,-6.28 34.00100297627923,-11.614656751129289 c 16.053059234624236,-0.0 41.31914535223078,3.9250000000000003 35.31914535223078,-12.585188883985483&#10;c -5.142857142857142,-2.02182320637214 0,-6.299881262151002 7.537997504912077,-6.299881262151002&#10;c 7.162731461608523,0 12.305588604465665,0.7809479520664714 7.162731461608523,2.3975842096913027&#10;c -5.142857142857142,10.205 17.999999999999996,6.28 35.69441139553433,16.487485936445182 c 6.984144801646757,0.0 35.21424247507555,-3.9250000000000003 29.21424247507555,6.423691531897655&#10;c -5.142857142857142,12.061067660591041 0,17.99711953221336 13.642900382067303,17.99711953221336&#10;c 10.730939675074339,0 15.873796817931481,-5.85809372592771 10.730939675074339,-21.589631139380643&#10;c -5.142857142857142,-10.205 17.999999999999996,-6.28 32.126203182068515,-2.831179924730371 c 16.530071474962487,0.0 42.69052143716275,-3.9250000000000003 36.69052143716275,-0.62821382443697&#10;c -5.142857142857142,17.4390298933846 0,19.712986832363992 6.166621419980103,19.712986832363992&#10;c 8.804640728528078,0 13.94749787138522,-15.346091501706756 8.804640728528078,-15.425928046594699&#10;c -5.142857142857142,-10.205 17.999999999999996,-6.28 34.052502128614776,-3.658844961332324 c 7.903551514516473,0.0 37.01860276568176,-3.9250000000000003 31.018602765681766,11.751299451893976&#10;c -5.142857142857142,9.199634155381295 0,12.422640298219557 11.838540091461088,12.422640298219557&#10;c 11.076131180385836,0 16.21898832324298,-7.271138417565136 11.076131180385836,-23.254294442367375&#10;c -5.142857142857142,-10.205 17.999999999999996,-6.28 31.781011676757018,-0.9196453077461584 c 14.784758963877199,0.0 42.310315155117905,-3.9250000000000003 36.310315155117905,12.275094332035646&#10;c -5.142857142857142,3.9086889846234145 0,9.218178703288764 6.546827702024949,9.218178703288764&#10;c 9.002684353910297,0 14.14554149676744,-2.9258226709932553 9.002684353910297,-12.13802835164591&#10;c -5.142857142857142,-10.205 17.999999999999996,-6.28 33.85445850323256,-9.3552446836785 L 1200 0 " fill="none" stroke="black" stroke-width="1.0" style="vector-effect:non-scaling-stroke;" /></g><g><path d="M 0 0  L 0 157.000000  c 23.50506498663435,-0.0 37.741179106055895,3.9250000000000003 31.741179106055892,-0.5528619947969253&#10;c -5.142857142857142,-9.036355977853823 0,-21.401565145428627 11.115963751086962,-21.401565145428627&#10;c 9.77042613749542,0 14.913283280352562,8.513199497105372 9.77042613749542,18.91176662881696&#10;c -5.142857142857142,10.205 17.999999999999996,6.28 33.086716719647434,3.0426605114085916 c 19.151407365675524,0.0 40.16425997462052,-3.9250000000000003 34.16425997462052,10.40649870871409&#10;c -5.142857142857142,5.513393312364595 0,13.265225355513156 8.692882882522333,13.265225355513156&#10;c 6.797038924136963,0 11.939896066994105,-4.289331735473387 6.797038924136963,-20.021057873148372&#10;c -5.142857142857142,-10.205 17.999999999999996,-6.28 36.06010393300589,-3.650666191078873 c 6.338225747918088,-0.0 36.40617700223615,3.9250000000000003 30.406177002236145,-6.800911432666805&#10;c -5.142857142857142,-6.9012102876128765 0,-12.774050279972222 12.450965854906709,-12.774050279972222&#10;c 8.11819697684087,0 13.261054119698013,14.368176205374748 8.11819697684087,19.438027681930595&#10;c -5.142857142857142,10.205 17.999999999999996,6.28 34.73894588030198,0.13693403070843146 c 15.656701336051457,0.0 38.224145561263214,-3.9250000000000003 32.224145561263214,17.07272701438164&#10;c -5.142857142857142,3.9936834359311675 0,5.700843147697604 10.63299729587964,5.700843147697604&#10;c 8.62202660489045,0 13.764883747747593,-4.603688506318678 8.62202660489045,-7.970704140683834&#10;c -5.142857142857142,-10.205 17.999999999999996,-6.28 34.2351162522524,-14.802866021395412 c 24.706873304923644,-0.0 38.15075851812441,3.9250000000000003 32.15075851812441,-16.19578084826556&#10;c -5.142857142857142,-3.872891578162854 0,-4.556773102115859 10.706384339018442,-4.556773102115859&#10;c 7.229577006012157,0 12.3724341488693,11.03564653683615 7.229577006012157,19.290313159689685&#10;c -5.142857142857142,10.205 17.999999999999996,6.28 35.6275658511307,1.4622407906917338 c 8.511703603429856,0.0 40.52251369907212,-3.9250000000000003 34.52251369907212,0.49969916022864486&#10;c -5.142857142857142,14.679977980943884 0,18.550446880576104 8.334629158070733,18.550446880576104&#10;c 7.98304531047026,0 13.125902453327402,-6.054075315991695 7.98304531047026,-6.615958330250892&#10;c -5.142857142857142,-10.205 17.999999999999996,-6.28 34.874097546672594,-12.434187710553855 c 10.72491774819634,-0.0 41.090412269936394,3.9250000000000003 35.090412269936394,-7.6448299314403725&#10;c -5.142857142857142,-2.97609388294324 0,-12.421635456781356 7.76673058720646,-12.421635456781356&#10;c 13.516079709380413,0 18.658936852237556,5.0372839955307604 13.516079709380413,5.302564493176165&#10;c -5.142857142857142,10.205 17.999999999999996,6.28 29.34106314776244,14.763900895045564 c 8.892590439879795,0.0 35.21767409549561,-3.9250000000000003 29.21767409549561,12.806610839227405&#10;c -5.142857142857142,10.617938936836286 0,10.94610156484565 13.639468761647244,10.94610156484565&#10;c 6.8233575077511475,0 11.96621465060829,-8.930933535348677 6.8233575077511475,-13.353273746443984&#10;c -5.142857142857142,-10.205 17.999999999999996,-6.28 36.03378534939171,-10.399438657629071 c 9.492474420370332,-0.0 38.171668246228386,3.9250000000000003 32.171668246228386,-12.952198838185037&#10;c -5.142857142857142,-2.3636809335180193 0,-8.309780638000259 10.685474610914468,-8.309780638000259&#10;c 6.144151058317881,0 11.287008201175023,4.527263282197039 6.144151058317881,17.76693219745735&#10;c -5.142857142857142,10.205 17.999999999999996,6.28 36.71299179882497,3.495047278727945 c 10.344404803377662,0.0 42.67225968949686,-3.9250000000000003 36.67225968949686,11.26072382338913&#10;c -5.142857142857142,4.494207926752476 0,11.301635884070345 6.184883167645992,11.301635884070345&#10;c 12.069524305502924,0 17.212381448360066,-14.107883940566039 12.069524305502924,-14.318358783671417&#10;c -5.142857142857142,-10.205 17.999999999999996,-6.28 30.78761855163993,-8.244000923788057 c 21.414595556609616,0.0 41.02309930557744,-3.9250000000000003 35.02309930557744,7.347127363900724&#10;c -5.142857142857142,16.601510668170953 0,18.844449118863302 7.834043551565415,18.844449118863302&#10;c 8.22227879440917,0 13.365135937266313,-16.281468176960217 8.22227879440917,-24.563488551720138&#10;c -5.142857142857142,-10.205 17.999999999999996,-6.28 34.63486406273368,-1.6280879310438898 c 13.007512782781877,0.0 35.81382668277428,-3.9250000000000003 29.81382668277428,9.931416525000289&#10;c -5.142857142857142,2.053802386884045 0,9.08772416815039 13.043316174368574,9.08772416815039&#10;c 13.414504133244563,0 18.557361276101705,-11.316863827166788 13.414504133244563,-16.173611652913827&#10;c -5.142857142857142,-10.205 17.999999999999996,-6.28 29.44263872389829,-2.845529040236851 c 10.94802898971814,-0.0 35.54599136801785,3.9250000000000003 29.545991368017848,-15.548268615147679&#10;c -5.142857142857142,-3.345407999026232 0,-7.888758293701654 13.311151489125006,-7.888758293701654&#10;c 8.764617215431223,0 13.907474358288365,16.633850974580863 8.764617215431223,17.919253142317096&#10;c -5.142857142857142,10.205 17.999999999999996,6.28 34.09252564171163,5.517773766532237 c 21.863504918199418,0.0 42.17873289978389,-3.9250000000000003 36.17873289978389,4.663383442776202&#10;c -5.142857142857142,10.793853175857565 0,19.887900113282363 6.678409957358966,19.887900113282363&#10;c 10.844341978122927,0 15.987199120980069,-9.924673934406705 10.844341978122927,-18.315457046906264&#10;c -5.142857142857142,-10.205 17.999999999999996,-6.28 32.01280087901993,-6.2358265091523 L 1200 0 " fill="none" stroke="black" stroke-width="1.0" style="vector-effect:non-scaling-stroke;" /></g><g><path d="M 0 0  L 0 235.500000  c 16.76690148490474,0.0 42.43736347570057,-3.9250000000000003 36.43736347570057,6.649445287642248&#10;c -5.142857142857142,14.840749914337046 0,18.785868982676075 6.419779381442282,18.785868982676075&#10;c 12.129723303507788,0 17.27258044636493,-5.9042633316612205 12.129723303507788,-22.402939931309323&#10;c -5.142857142857142,-10.205 17.999999999999996,-6.28 30.727419553635066,-3.0323743390089994 c 15.039281432684449,0.0 42.17071918408159,-3.9250000000000003 36.17071918408159,8.22164145193207&#10;c -5.142857142857142,4.324389817699637 0,11.340660413808214 6.686423673061263,11.340660413808214&#10;c 9.986200444591567,0 15.12905758744871,-8.604868440357366 9.986200444591567,-12.811084368695429&#10;c -5.142857142857142,-10.205 17.999999999999996,-6.28 32.87094241255129,-6.7512174970448555 c 8.833534832475339,-0.0 42.72404186785672,3.9250000000000003 36.72404186785672,-11.322770181319475&#10;c -5.142857142857142,-3.1693554168563347 0,-10.061454231274192 6.133100989286135,-10.061454231274192&#10;c 9.8714741016041,0 15.014331244461243,6.659609338573452 9.8714741016041,15.620320820461345&#10;c -5.142857142857142,10.205 17.999999999999996,6.28 32.985668755538754,5.763903592132323 c 24.261677084694252,0.0 38.918475128294425,-3.9250000000000003 32.918475128294425,14.69723324717742&#10;c -5.142857142857142,4.312029361190058 0,5.407750310708336 9.93866772884843,5.407750310708336&#10;c 9.727763550578253,0 14.870620693435395,-7.9304773000847195 9.727763550578253,-10.095562242369962&#10;c -5.142857142857142,-10.205 17.999999999999996,-6.28 33.1293793065646,-10.009421315515795 c 9.810244043087948,0.0 41.67859653364087,-3.9250000000000003 35.67859653364087,6.816698568650977&#10;c -5.142857142857142,16.163661969022836 0,16.219897813801552 7.178546323501983,16.219897813801552&#10;c 6.900067661440588,0 12.04292480429773,-16.656897304475947 6.900067661440588,-17.815381899777474&#10;c -5.142857142857142,-10.205 17.999999999999996,-6.28 35.95707519570227,-5.221214482675055 c 24.84093479570364,0.0 41.22023724142595,-3.9250000000000003 35.22023724142595,2.992906556739097&#10;c -5.142857142857142,5.758790990583135 0,19.58136354005147 7.6369056157169055,19.58136354005147&#10;c 7.184123681046927,0 12.32698082390407,-7.201846424946637 7.184123681046927,-13.134129246928715&#10;c -5.142857142857142,-10.205 17.999999999999996,-6.28 35.67301917609593,-9.440140849861852 c 13.992441325395612,0.0 36.367361293519366,-3.9250000000000003 30.367361293519362,8.843981140017767&#10;c -5.142857142857142,6.317297059671522 0,10.694093953288789 12.489781563623492,10.694093953288789&#10;c 12.363518419594278,0 17.50637556245142,-7.898887929897045 12.363518419594278,-12.114533578816506&#10;c -5.142857142857142,-10.205 17.999999999999996,-6.28 30.493624437548576,-7.423541514490051 c 13.334230739148078,0.0 35.91751662217191,-3.9250000000000003 29.91751662217191,5.854506773747182&#10;c -5.142857142857142,7.010609120488986 0,14.901896139854593 12.939626234970945,14.901896139854593&#10;c 8.713908575381467,0 13.85676571823861,-5.444160217090909 8.713908575381467,-8.268633005578511&#10;c -5.142857142857142,-10.205 17.999999999999996,-6.28 34.14323428176139,-12.487769908023264 c 18.1941500088192,0.0 39.455278356422276,-3.9250000000000003 33.455278356422276,15.888831703061625&#10;c -5.142857142857142,7.396606970303556 0,8.97106955064814 9.401864500720578,8.97106955064814&#10;c 12.291460702856611,0 17.434317845713753,-15.37155503257343 12.291460702856611,-17.773327341997692&#10;c -5.142857142857142,-10.205 17.999999999999996,-6.28 30.565682154286243,-7.0865739117120725 c 22.057408192383804,-0.0 38.37360638848559,3.9250000000000003 32.37360638848559,0.4129619000863761&#10;c -5.142857142857142,-9.102328870836137 0,-23.8652481745588 10.483536468657263,-23.8652481745588&#10;c 6.6337227852381275,0 11.77657992809527,10.762603684366324 6.6337227852381275,16.547778479136454&#10;c -5.142857142857142,10.205 17.999999999999996,6.28 36.22342007190473,6.90450779533597 c 9.310095252079806,0.0 41.916788287418115,-3.9250000000000003 35.916788287418115,10.568093869359483&#10;c -5.142857142857142,9.148020219958463 0,13.33824871571725 6.9403545697247395,13.33824871571725&#10;c 13.133063426209247,0 18.27592056906639,-11.46276058987608 13.133063426209247,-14.770138730424451&#10;c -5.142857142857142,-10.205 17.999999999999996,-6.28 29.724079430933607,-9.136203854652281 c 21.957058069362198,-0.0 40.94058394034976,3.9250000000000003 34.94058394034976,-11.044195406155247&#10;c -5.142857142857142,-5.612103140723586 0,-9.744644828741599 7.916558916793093,-9.744644828741599&#10;c 8.489177345585361,0 13.632034488442503,6.031333338016009 8.489177345585361,6.372402648187972&#10;c -5.142857142857142,10.205 17.999999999999996,6.28 34.36796551155749,14.416437586708874 c 9.307513957477546,0.0 40.785953784704034,-3.9250000000000003 34.785953784704034,8.711180883876844&#10;c -5.142857142857142,3.4708927264673157 0,10.329989131572903 8.07118907243882,10.329989131572903&#10;c 11.474618321340145,0 16.617475464197287,-6.829382370822995 11.474618321340145,-20.548281254421077&#10;c -5.142857142857142,-10.205 17.999999999999996,-6.28 31.38252453580271,1.50711123897133 c 21.168981239333284,-0.0 36.12919394188994,3.9250000000000003 30.129193941889934,-15.774387060590183&#10;c -5.142857142857142,-6.75370392271286 0,-7.509160962200955 12.72794891525292,-7.509160962200955&#10;c 8.049172041386598,0 13.19202918424374,8.397727812347968 8.049172041386598,9.475168675554364&#10;c -5.142857142857142,10.205 17.999999999999996,6.28 34.807970815756256,13.808379347236773 L 1200 0 " fill="none" stroke="black" stroke-width="1.0" style="vector-effect:non-scaling-stroke;" /></g><g><path d="M 0 0  L 0 314.000000  c 7.88352987577249,-0.0 35.80387840480201,3.9250000000000003 29.803878404802013,-2.6607316802979613&#10;c -5.142857142857142,-17.391956117537507 0,-23.565486461765595 13.05326445234084,-23.565486461765595&#10;c 7.025042745319503,0 12.167899888176645,7.971399521169854 7.025042745319503,17.76405618954182&#10;c -5.142857142857142,10.205 17.999999999999996,6.28 35.83210011182335,8.462161952521736 c 21.815201240911577,-0.0 39.30525496925535,3.9250000000000003 33.30525496925535,-1.2868629300133714&#10;c -5.142857142857142,-7.836245771987916 0,-19.9961845202989 9.551887887887503,-19.9961845202989&#10;c 6.30859377743495,0 11.451450920292093,2.916354201667742 6.30859377743495,4.070248210794677&#10;c -5.142857142857142,10.205 17.999999999999996,6.28 36.548549079707904,17.212799239517594 c 5.95589975205239,0.0 42.20405399332212,-3.9250000000000003 36.20405399332212,8.793341777665455&#10;c -5.142857142857142,10.519631814015451 0,11.324072090570565 6.653088863820734,11.324072090570565&#10;c 11.114456426210836,0 16.25731356906798,-13.639712157390651 11.114456426210836,-14.118436127270606&#10;c -5.142857142857142,-10.205 17.999999999999996,-6.28 31.742686430932018,-5.998977740965415 c 4.7685344688847024,0.0 39.619726193459925,-3.9250000000000003 33.619726193459925,6.573991377306879&#10;c -5.142857142857142,4.040161439977518 0,13.792922032600703 9.237416663682929,13.792922032600703&#10;c 10.394830650682948,0 15.53768779354009,-4.705754570610407 10.394830650682948,-7.363453432895506&#10;c -5.142857142857142,-10.205 17.999999999999996,-6.28 32.462312206459906,-13.003459977012076 c 19.749485852041563,-0.0 39.57766668700494,3.9250000000000003 33.57766668700494,-5.4226526804935125&#10;c -5.142857142857142,-6.914098610320077 0,-19.68652434716252 9.279476170137912,-19.68652434716252&#10;c 7.6581872279265255,0 12.801044370783668,13.249690558913214 7.6581872279265255,13.415872409486113&#10;c -5.142857142857142,10.205 17.999999999999996,6.28 35.19895562921633,11.693304618169922 c 20.23180014051795,-0.0 41.8494004057772,3.9250000000000003 35.8494004057772,-6.16604359221439&#10;c -5.142857142857142,-15.673944993090414 0,-15.64022927759218 7.007742451365651,-15.64022927759218&#10;c 11.962156297635225,0 17.105013440492367,10.98599140096723 11.962156297635225,19.476599954158097&#10;c -5.142857142857142,10.205 17.999999999999996,6.28 30.89498655950763,2.329672915648473 c 4.626749649411747,0.0 36.86525635931126,-3.9250000000000003 30.865256359311264,12.95588669144169&#10;c -5.142857142857142,6.306057707360948 0,8.248040465093448 11.99188649783159,8.248040465093448&#10;c 11.394314661051801,0 16.537171803908944,-11.539004966684836 11.394314661051801,-17.551967089407544&#10;c -5.142857142857142,-10.205 17.999999999999996,-6.28 31.462828196091053,-3.651960067127593 c 19.000874755728667,-0.0 40.97801873235299,3.9250000000000003 34.97801873235299,-13.9091412479274&#10;c -5.142857142857142,-2.5395143584863953 0,-11.274522230573249 7.879124124789861,-11.274522230573249&#10;c 6.670895335052599,0 11.813752477909741,10.8949665120519 6.670895335052599,11.00835800972518&#10;c -5.142857142857142,10.205 17.999999999999996,6.28 36.186247522090255,14.175305468775468 c 8.245761153820048,-0.0 36.68269895840639,3.9250000000000003 30.68269895840639,-15.79610798102983&#10;c -5.142857142857142,-2.4594005291150034 0,-6.379857691012106 12.174443898736463,-6.379857691012106&#10;c 8.227075738078511,0 13.369932880935654,5.786422494533804 8.227075738078511,11.073967728665925&#10;c -5.142857142857142,10.205 17.999999999999996,6.28 34.63006711906434,11.101997943376011 c 16.82388939191061,0.0 40.497726454557956,-3.9250000000000003 34.497726454557956,2.6223520954053234&#10;c -5.142857142857142,23.530034967831924 0,23.533013488189603 8.359416402584898,23.533013488189603&#10;c 6.763144475056727,0 11.90600161791387,-24.013824804279725 6.763144475056727,-26.597573811028063&#10;c -5.142857142857142,-10.205 17.999999999999996,-6.28 36.09399838208613,0.44220822743313803 c 20.172734559513465,-0.0 40.75881397648943,3.9250000000000003 34.75881397648943,-10.889397579888717&#10;c -5.142857142857142,-14.160352695185699 0,-14.75041284622309 8.098328880653426,-14.75041284622309&#10;c 9.865150695428412,0 15.008007838285554,13.356274081711902 9.865150695428412,20.707335326330096&#10;c -5.142857142857142,10.205 17.999999999999996,6.28 32.99199216171444,4.932475099781712 c 4.288280654254347,-0.0 39.974944826562684,3.9250000000000003 33.974944826562684,-7.406882582360516&#10;c -5.142857142857142,-13.424947819411287 0,-17.620977939054185 8.88219803058017,-17.620977939054185&#10;c 8.09156131688193,0 13.234418459739071,4.9782873856941645 8.09156131688193,11.200487911890594&#10;c -5.142857142857142,10.205 17.999999999999996,6.28 34.765581540260925,13.827372609524108 c 23.26758063865171,-0.0 39.93007256883182,3.9250000000000003 33.93007256883182,-12.313099525788543&#10;c -5.142857142857142,-2.7742160308779984 0,-7.53973440338981 8.927070288311036,-7.53973440338981&#10;c 7.525317591880629,0 12.668174734737772,4.537738244154981 7.525317591880629,16.44445926072126&#10;c -5.142857142857142,10.205 17.999999999999996,6.28 35.331825265262225,3.4083746684570926 c 8.424212826568347,0.0 39.79086506874161,-3.9250000000000003 33.79086506874161,6.838634439422263&#10;c -5.142857142857142,10.466786485301352 0,12.747120364145315 9.066277788401244,12.747120364145315&#10;c 13.348235055200618,0 18.49109219805776,-12.238563501078376 13.348235055200618,-21.057020100817496&#10;c -5.142857142857142,-10.205 17.999999999999996,-6.28 29.508907801942236,1.4712652972499178 L 1200 0 " fill="none" stroke="black" stroke-width="1.0" style="vector-effect:non-scaling-stroke;" /></g><g><path d="M 0 0  L 0 392.500000  c 4.321609806892068,-0.0 42.16720419173617,3.9250000000000003 36.16720419173617,-16.02496853586634&#10;c -5.142857142857142,-7.1343933607638 0,-7.083330963493282 6.689938665406686,-7.083330963493282&#10;c 11.144012585656725,0 16.286869728513867,7.696847307443497 11.144012585656725,12.971883066536018&#10;c -5.142857142857142,10.205 17.999999999999996,6.28 31.71313027148613,10.136416432823603 c 23.83753776989195,-0.0 37.50673503587251,3.9250000000000003 31.506735035872506,-12.194270743857295&#10;c -5.142857142857142,-8.51316184197094 0,-12.822212658384803 11.350407821270348,-12.822212658384803&#10;c 12.000536629072705,0 17.143393771929848,6.97878100527384 12.000536629072705,22.690539661282667&#10;c -5.142857142857142,10.205 17.999999999999996,6.28 30.85660622807015,2.3259437409594312 c 10.446395206075438,0.0 36.97645531818808,-3.9250000000000003 30.97645531818808,8.841086768288285&#10;c -5.142857142857142,7.047587126544862 0,12.752088057517021 11.880687538954774,12.752088057517021&#10;c 8.262593655488011,0 13.405450798345154,-9.150493048369 8.262593655488011,-17.218606085110963&#10;c -5.142857142857142,-10.205 17.999999999999996,-6.28 34.59454920165484,-4.374568740694343 c 24.58167523916262,0.0 35.27364810398328,-3.9250000000000003 29.273648103983273,1.5484685368460764&#10;c -5.142857142857142,10.453881348779662 0,24.421818312506808 13.58349475315958,24.421818312506808&#10;c 7.325875370598602,0 12.468732513455745,-15.83022603630078 7.325875370598602,-22.116594769526163&#10;c -5.142857142857142,-10.205 17.999999999999996,-6.28 35.53126748654425,-3.853692079826722 c 4.6576957985474845,0.0 36.26898716467343,-3.9250000000000003 30.268987164673433,12.5599264157189&#10;c -5.142857142857142,2.160661483193678 0,9.738438539744378 12.588155692469421,9.738438539744378&#10;c 11.035484039908845,0 16.178341182765987,-10.597092949769795 11.035484039908845,-15.905007403206575&#10;c -5.142857142857142,-10.205 17.999999999999996,-6.28 31.82165881723401,-6.3933575522567025 c 24.573965683629584,0.0 42.27755193424638,-3.9250000000000003 36.27755193424638,11.445952098032034&#10;c -5.142857142857142,5.368205224281514 0,12.608069370737205 6.579590922896472,12.608069370737205&#10;c 8.629026217804387,0 13.77188336066153,-5.491229333582745 8.629026217804387,-17.96731649233983&#10;c -5.142857142857142,-10.205 17.999999999999996,-6.28 34.22811663933847,-6.086704976429409 c 12.418932067485706,-0.0 39.19627444384906,3.9250000000000003 33.19627444384906,0.26039356005804065&#10;c -5.142857142857142,-8.530563402569854 0,-26.864831912803762 9.660868413293791,-26.864831912803762&#10;c 13.494237133286191,0 18.637094276143333,6.324149341034537 13.494237133286191,20.45158866182917&#10;c -5.142857142857142,10.205 17.999999999999996,6.28 29.362905723856663,6.15284969091655 c 5.100665449660366,0.0 36.00205323702613,-3.9250000000000003 30.00205323702613,6.75775749949568&#10;c -5.142857142857142,11.295192272427274 0,12.4667852510079 12.855089620116726,12.4667852510079&#10;c 12.19580476746519,0 17.338661910322333,-5.660436086590354 12.19580476746519,-12.585165759803354&#10;c -5.142857142857142,-10.205 17.999999999999996,-6.28 30.661338089677663,-6.639376990700226 c 20.355669323552004,-0.0 39.131083297504254,3.9250000000000003 33.131083297504254,0.7741873199265445&#10;c -5.142857142857142,-14.806460846721553 0,-26.893689406676096 9.7260595596386,-26.893689406676096&#10;c 6.634296983068175,0 11.777154125925318,12.176868597800791 6.634296983068175,24.135460749842796&#10;c -5.142857142857142,10.205 17.999999999999996,6.28 36.22284587407468,1.9840413369067562 c 5.583053776317805,-0.0 39.754804491306906,3.9250000000000003 33.754804491306906,-2.5426957612381536&#10;c -5.142857142857142,-6.530767424724833 0,-23.11458631207778 9.102338365835948,-23.11458631207778&#10;c 12.933574267811004,0 18.076431410668146,14.747732023335114 12.933574267811004,27.195967570326907&#10;c -5.142857142857142,10.205 17.999999999999996,6.28 29.92356858933185,-1.5386854970109738 c 14.68518230081027,-0.0 40.15900005504488,3.9250000000000003 34.15900005504488,-3.758868120033459&#10;c -5.142857142857142,-7.847328574765097 0,-15.585920389620604 8.698142802097976,-15.585920389620604&#10;c 8.821028390895385,0 13.963885533752528,3.1658401721293217 8.821028390895385,3.287283664544141&#10;c -5.142857142857142,10.205 17.999999999999996,6.28 34.03611446624747,16.05750484510992 c 17.288427241673233,-0.0 40.05542086135186,3.9250000000000003 34.05542086135186,-13.835048384997616&#10;c -5.142857142857142,-3.847796394406657 0,-7.8162857542073 8.801721995790992,-7.8162857542073&#10;c 7.2335552888764525,0 12.376412431733595,19.855545797219296 7.2335552888764525,20.879818308549975&#10;c -5.142857142857142,10.205 17.999999999999996,6.28 35.6235875682664,0.7715158306549412 c 13.060837958519565,0.0 42.070885293722775,-3.9250000000000003 36.070885293722775,2.966012948844993&#10;c -5.142857142857142,15.676539309077468 0,18.16180254993379 6.7862575634200795,18.16180254993379&#10;c 9.38195467186226,0 14.524811814719403,-7.109804106372375 9.38195467186226,-18.537804925872678&#10;c -5.142857142857142,-10.205 17.999999999999996,-6.28 33.475188185280594,-2.5900105729061025 c 19.81770995914151,-0.0 36.03356200899255,3.9250000000000003 30.03356200899255,1.5678838542063698&#10;c -5.142857142857142,-14.471543964432863 0,-28.04727306994225 12.823580848150304,-28.04727306994225&#10;c 11.663362036467738,0 16.80621917932488,15.174419538543388 11.663362036467738,25.942621438188535&#10;c -5.142857142857142,10.205 17.999999999999996,6.28 31.193780820675116,0.5367677775473432 L 1200 0 " fill="none" stroke="black" stroke-width="1.0" style="vector-effect:non-scaling-stroke;" /></g><g><path d="M 0 0  L 0 471.000000  c 20.210078398602185,0.0 36.2384321860533,-3.9250000000000003 30.238432186053302,14.398015672670653&#10;c -5.142857142857142,6.719766992531847 0,8.020432342036187 12.618710671089552,8.020432342036187&#10;c 9.751397343121347,0 14.89425448597849,-5.800365645255211 9.751397343121347,-8.032804270404895&#10;c -5.142857142857142,-10.205 17.999999999999996,-6.28 33.10574551402151,-14.385643744301944 c 18.704941611767918,0.0 42.42118459725939,-3.9250000000000003 36.42118459725939,4.2130016172399225&#10;c -5.142857142857142,13.224180749883047 0,17.714444372601402 6.4359582598834635,17.714444372601402&#10;c 11.746534073598347,0 16.88939121645549,-6.91108440355697 11.746534073598347,-10.5605166360034&#10;c -5.142857142857142,-10.205 17.999999999999996,-6.28 31.110608783544507,-11.366929353837923 c 23.469165684978456,-0.0 42.230759668098386,3.9250000000000003 36.230759668098386,-10.693627821281476&#10;c -5.142857142857142,-3.412000741593724 0,-13.116495498428437 6.626383189044468,-13.116495498428437&#10;c 13.169029212288073,0 18.311886355145216,3.676155320459195 13.169029212288073,11.34877832208077&#10;c -5.142857142857142,10.205 17.999999999999996,6.28 29.68811364485478,12.461344997629142 c 9.938666146244874,0.0 40.129766214540076,-3.9250000000000003 34.129766214540076,7.1864219969023555&#10;c -5.142857142857142,4.268909691353032 0,15.408649229765713 8.727376642602778,15.408649229765713&#10;c 9.993030647698106,0 15.135887790555248,-5.610422337801337 9.993030647698106,-10.038176929328282&#10;c -5.142857142857142,-10.205 17.999999999999996,-6.28 32.86411220944475,-12.556894297339786 c 22.400018094740748,-0.0 39.47038587301847,3.9250000000000003 33.47038587301847,-8.142150271659295&#10;c -5.142857142857142,-10.248523754331792 0,-12.109192850774106 9.386756984124382,-12.109192850774106&#10;c 10.749072890981523,0 15.891930033838666,7.875683157268468 10.749072890981523,8.107336917767162&#10;c -5.142857142857142,10.205 17.999999999999996,6.28 32.10806996616133,12.144006204666239 c 18.5614330833018,0.0 35.99005419467432,-3.9250000000000003 29.99005419467432,-1.0370477404783391&#10;c -5.142857142857142,5.225712259765973 0,19.956069079866392 12.867088662468532,19.956069079866392&#10;c 9.994077627811535,0 15.136934770668677,-6.763560368222016 9.994077627811535,-10.283485590825576&#10;c -5.142857142857142,-10.205 17.999999999999996,-6.28 32.86306522933132,-8.635535748562477 c 18.763352340234253,-0.0 40.63986417767027,3.9250000000000003 34.63986417767027,-15.977747983441553&#10;c -5.142857142857142,-7.48177543036754 0,-9.323794429110173 8.217278679472585,-9.323794429110173&#10;c 8.364207181407856,0 13.507064324264999,19.75235247188345 8.364207181407856,26.316673562197433&#10;c -5.142857142857142,10.205 17.999999999999996,6.28 34.492935675735,-1.0151311496457076 c 7.202051688191351,0.0 41.42047294182348,-3.9250000000000003 35.42047294182348,7.540572170698062&#10;c -5.142857142857142,7.000103443470863 0,11.368582461950538 7.436669915319371,11.368582461950538&#10;c 6.479200639358446,0 11.622057782215588,-11.655273144318762 6.479200639358446,-13.340855118290545&#10;c -5.142857142857142,-10.205 17.999999999999996,-6.28 36.37794221778441,-5.568299514358056 c 20.805464132903364,-0.0 38.23858523714042,3.9250000000000003 32.23858523714042,-9.575157636954923&#10;c -5.142857142857142,-7.024179537709465 0,-10.285323235636422 10.618557620002434,-10.285323235636422&#10;c 9.627089356614178,0 14.76994649947132,2.012685818961953 9.627089356614178,4.233053674703726&#10;c -5.142857142857142,10.205 17.999999999999996,6.28 33.230053500528676,15.62742719788762 c 7.823628090589215,-0.0 38.324369357267344,3.9250000000000003 32.324369357267344,-2.8231531134621934&#10;c -5.142857142857142,-12.475275673212712 0,-23.18319719271669 10.53277349987551,-23.18319719271669&#10;c 7.661458862623043,0 12.804316005480185,12.535148148957791 7.661458862623043,16.13875864996499&#10;c -5.142857142857142,10.205 17.999999999999996,6.28 35.19568399451981,9.867591656213893 c 10.881963874278108,-0.0 41.948094037832426,3.9250000000000003 35.948094037832426,-15.097130574498898&#10;c -5.142857142857142,-5.234108210004098 0,-6.0293779921482376 6.909048819310428,-6.0293779921482376&#10;c 9.898693922754632,0 15.041551065611774,3.1600359126680577 9.898693922754632,7.5244886661549355&#10;c -5.142857142857142,10.205 17.999999999999996,6.28 32.95844893438822,13.6020199004922 c 9.202204525231329,0.0 42.18578437643812,-3.9250000000000003 36.18578437643812,11.51353408298929&#10;c -5.142857142857142,3.2703239066926675 0,9.009846793650977 6.671358480704733,9.009846793650977&#10;c 6.747871727944286,0 11.890728870801428,-11.325304949857601 6.747871727944286,-20.088943632047354&#10;c -5.142857142857142,-10.205 17.999999999999996,-6.28 36.10927112919857,-0.4344372445929139 c 12.813151661184932,-0.0 35.958639981373935,3.9250000000000003 29.95863998137394,-1.1397866263344556&#10;c -5.142857142857142,-8.401740902080956 0,-17.839784169459136 12.898502875768916,-17.839784169459136&#10;c 12.416731270319737,0 17.55958841317688,5.5792472435343745 12.416731270319737,10.791111499294043&#10;c -5.142857142857142,10.205 17.999999999999996,6.28 30.440411586823117,8.188459296499548 c 9.985852348823693,-0.0 38.257706138485304,3.9250000000000003 32.257706138485304,1.4189731711232416&#10;c -5.142857142857142,-20.74207830152647 0,-27.346623356799732 10.59943671865755,-27.346623356799732&#10;c 8.9872706244836,0 14.130127767340742,3.442741928920052 8.9872706244836,11.531603179389231&#10;c -5.142857142857142,10.205 17.999999999999996,6.28 33.869872232659255,14.39604700628726 L 1200 0 " fill="none" stroke="black" stroke-width="1.0" style="vector-effect:non-scaling-stroke;" /></g><g><path d="M 0 0  L 0 549.500000  c 18.5256527505026,-0.0 37.92367455891019,3.9250000000000003 31.92367455891019,-7.6494834464097305&#10;c -5.142857142857142,-6.16329820354684 0,-11.245739026884726 10.933468298232665,-11.245739026884726&#10;c 12.765523748039335,0 17.908380890896478,11.782375106803869 12.765523748039335,14.608436627733724&#10;c -5.142857142857142,10.205 17.999999999999996,6.28 30.09161910910352,4.286785845560733 c 20.47965218882637,0.0 35.413289760640296,-3.9250000000000003 29.4132897606403,5.253838071507301&#10;c -5.142857142857142,6.58188401447264 0,15.630834460979946 13.443853096502554,15.630834460979946&#10;c 12.38069441591339,0 17.52355155877053,-4.711295077969027 12.38069441591339,-13.868356129449335&#10;c -5.142857142857142,-10.205 17.999999999999996,-6.28 30.476448441229465,-7.016316403037912 c 12.20305097256745,0.0 41.31234904262736,-3.9250000000000003 35.31234904262736,6.6752729510541515&#10;c -5.142857142857142,4.745921412509796 0,13.569351574673494 7.544793814515494,13.569351574673494&#10;c 6.196989730733478,0 11.33984687359062,-7.078493361034387 6.196989730733478,-15.234152136082685&#10;c -5.142857142857142,-10.205 17.999999999999996,-6.28 36.66015312640938,-5.01047238964496 c 20.555021164014793,0.0 39.24164746332197,-3.9250000000000003 33.24164746332197,12.707426126283659&#10;c -5.142857142857142,6.0734651930544885 0,8.860955323195922 9.615495393820886,8.860955323195922&#10;c 11.467767662766185,0 16.610624805623328,-4.584374562520506 11.467767662766185,-10.746558312275361&#10;c -5.142857142857142,-10.205 17.999999999999996,-6.28 31.38937519437667,-10.82182313720422 c 15.806368678658066,0.0 42.72080986516464,-3.9250000000000003 36.72080986516464,4.0347047551409725&#10;c -5.142857142857142,3.818420939187231 0,15.01143693188375 6.136332991978215,15.01143693188375&#10;c 9.251444525011081,0 14.394301667868223,-2.7317705020016043 9.251444525011081,-7.047249260853292&#10;c -5.142857142857142,-10.205 17.999999999999996,-6.28 33.60569833213177,-11.99889242617143 c 22.794069148841757,0.0 37.11703564858155,-3.9250000000000003 31.117035648581552,8.065882062898163&#10;c -5.142857142857142,9.70374212551724 0,13.5406718438081 11.740107208561302,13.5406718438081&#10;c 11.452643720728055,0 16.595500863585197,-9.550457176643224 11.452643720728055,-9.873311139768322&#10;c -5.142857142857142,-10.205 17.999999999999996,-6.28 31.4044991364148,-11.733242766937941 c 22.665582354401458,-0.0 40.71556596689671,3.9250000000000003 34.71556596689671,-5.725646629014402&#10;c -5.142857142857142,-5.3120588549201395 0,-16.972646686858038 8.141576890246142,-16.972646686858038&#10;c 13.35137885526818,0 18.494235998125323,14.884348236720678 13.35137885526818,17.160202906522535&#10;c -5.142857142857142,10.205 17.999999999999996,6.28 29.505764001874674,5.5380904093499055 c 8.389763704131319,-0.0 38.87488003942089,3.9250000000000003 32.87488003942089,-13.602204925793&#10;c -5.142857142857142,-6.108277517869503 0,-12.055810201593037 9.982262817721967,-12.055810201593037&#10;c 10.14553698026156,0 15.288394123118703,6.132211539198518 10.14553698026156,9.892297373776097&#10;c -5.142857142857142,10.205 17.999999999999996,6.28 32.71160587688129,15.76571775360994 c 7.1220714181081,-0.0 39.7399632399753,3.9250000000000003 33.7399632399753,-4.666515203056787&#10;c -5.142857142857142,-9.144905299191512 0,-15.311634909384932 9.117179617167551,-15.311634909384932&#10;c 7.9967909260314585,0 13.1396480688886,5.968398509799612 7.9967909260314585,11.799685258157494&#10;c -5.142857142857142,10.205 17.999999999999996,6.28 34.860351931111396,8.178464854284224 c 19.338431971525676,-0.0 35.4896803304976,3.9250000000000003 29.4896803304976,-1.5679316185282928&#10;c -5.142857142857142,-13.712005911506878 0,-19.948226404877897 13.367462526645255,-19.948226404877897&#10;c 9.479011803609716,0 14.621868946466858,12.15631319162391 9.479011803609716,14.028358569258645&#10;c -5.142857142857142,10.205 17.999999999999996,6.28 33.37813105353314,7.487799454147543 c 8.212354545117288,-0.0 42.6169319852574,3.9250000000000003 36.6169319852574,-8.963333523963575&#10;c -5.142857142857142,-6.301434715179611 0,-12.017381944203494 6.240210871885452,-12.017381944203494&#10;c 7.718721746484178,0 12.86157888934132,1.8793054733996035 7.718721746484178,5.0816142881881685&#10;c -5.142857142857142,10.205 17.999999999999996,6.28 35.138421110658676,15.899101179978901 c 5.304085424784165,0.0 37.01965464898815,-3.9250000000000003 31.019654648988148,15.04134842533119&#10;c -5.142857142857142,7.4110964503586185 0,10.599765551311268 11.837488208154706,10.599765551311268&#10;c 7.142299632221409,0 12.285156775078551,-19.279280993265925 7.142299632221409,-26.318624238105716&#10;c -5.142857142857142,-10.205 17.999999999999996,-6.28 35.714843224921445,0.677510261463258 c 7.478420088265501,0.0 39.38755553790363,-3.9250000000000003 33.38755553790363,12.541903975598313&#10;c -5.142857142857142,9.270658646383085 0,10.550995134340159 9.469587319239224,10.550995134340159&#10;c 13.559730141894768,0 18.70258728475191,-2.713774304632637 13.559730141894768,-6.505523024821706&#10;c -5.142857142857142,-10.205 17.999999999999996,-6.28 29.297412715248086,-16.587376085116766 c 7.335675001897403,-0.0 42.486873453259285,3.9250000000000003 36.486873453259285,-14.749944462390483&#10;c -5.142857142857142,-2.0911717988001315 0,-4.419321919229079 6.370269403883569,-4.419321919229079&#10;c 9.359918997366407,0 14.502776140223549,8.75098739129074 9.359918997366407,19.673186020157797&#10;c -5.142857142857142,10.205 17.999999999999996,6.28 33.49722385977645,-0.5039196385382354 L 1200 0 " fill="none" stroke="black" stroke-width="1.0" style="vector-effect:non-scaling-stroke;" /></g></g></svg>