<svg baseProfile="full" height="575" preserveAspectRatio="none" shape-rendering="geometricPrecision" version="1.1" viewBox="0,0,1024,575" width="1024" xmlns="http://www.w3.org/2000/svg" xmlns:ev="http://www.w3.org/2001/xml-events" xmlns:xlink="http://www.w3.org/1999/xlink"><title>Jigsaw puzzle piece clips</title><desc>Created with the piecemaker. Piece count: 15</desc><defs /><g><g><rect fill="white" height="575" width="1024" x="0" y="0" /></g></g><g><g><path d="M 0 0  L 204.800000 0  c -0.0,27.94709693626748 10.240000000000002,92.83793934097345 -41.523702052383705,79.42127267430678&#10;c -5.614359373134515,-11.499999999999998 -7.886022863237763,0 -7.886022863237763,16.41206065902655&#10;c 0,15.848753573176381 29.580154845979884,27.34875357317638 30.12142607843133,15.848753573176381&#10;c 26.624000000000002,-11.499999999999998 16.384,40.25 19.288298837190137,79.98457976015695 c 0.0,16.818099071121207 -10.240000000000002,81.19494022948693 13.568507464060467,67.77827356282026&#10;c 25.866937245469686,-11.499999999999998 49.48744096704966,0 49.48744096704966,28.05505977051307&#10;c 0,17.88039136528623 -44.24922936704473,29.38039136528623 -58.18503218295826,17.88039136528623&#10;c -26.624000000000002,-11.499999999999998 -16.384,40.25 -4.870916248151865,77.9529419680471 c 0.0,22.57371956653063 -10.240000000000002,90.87311660125783 1.625820314152206,77.45644993459116&#10;c 42.34456168143331,-11.499999999999998 56.56595844600854,0 56.56595844600854,18.376883398742166&#10;c 0,14.268680296474471 -32.20440025090432,25.76868029647447 -37.99401119724769,14.268680296474471&#10;c -26.624000000000002,-11.499999999999998 -16.384,40.25 -20.197767562913057,81.56465303685886 L 0 575 " fill="none" stroke="black" stroke-width="1.0" style="vector-effect:non-scaling-stroke;" /></g><g><path d="M 0 0  L 409.600000 0  c 0.0,39.2044682674528 -10.240000000000002,80.52010227560332 23.993433005289425,67.10343560893665&#10;c 41.466658762517724,-11.499999999999998 43.25592280304283,0 43.25592280304283,28.72989772439668&#10;c 0,19.557414575289485 -29.680328282175136,31.057414575289485 -55.19875825036589,19.557414575289485&#10;c -26.624000000000002,-11.499999999999998 -16.384,40.25 -12.050597557966363,76.27591875804384 c 0.0,16.681463262222195 -10.240000000000002,93.40633705166441 29.494116931627698,79.98967038499774&#10;c 26.23050149467758,-11.499999999999998 37.622503105404235,0 37.622503105404235,15.843662948335592&#10;c 0,15.89487871548377 -29.674688788908483,27.39487871548377 -35.693569989942205,15.89487871548377&#10;c -26.624000000000002,-11.499999999999998 -16.384,40.25 -31.42305004708973,79.93845461784956 c 0.0,38.9451850279342 -10.240000000000002,80.91833748032644 14.19718887935537,67.50167081365977&#10;c 15.436724125626176,-11.499999999999998 53.20846824473689,0 53.20846824473689,28.331662519673557&#10;c 0,17.24734268436967 -59.442529978029135,28.74734268436967 -69.5278660442732,17.24734268436967&#10;c -26.624000000000002,-11.499999999999998 -16.384,40.25 2.122208920180938,78.58599064896366 L 0 575 " fill="none" stroke="black" stroke-width="1.0" style="vector-effect:non-scaling-stroke;" /></g><g><path d="M 0 0  L 614.400000 0  c -0.0,50.19875856016887 10.240000000000002,91.78816281357604 -42.861216688624886,78.37149614690937&#10;c -6.123134591280165,-11.499999999999998 -15.62038254134513,0 -15.62038254134513,17.461837186423963&#10;c 0,25.381002387132796 11.898837688088966,36.881002387132796 17.14967350816437,25.381002387132796&#10;c 26.624000000000002,-11.499999999999998 16.384,40.25 41.331925721805646,70.45233094620053 c -0.0,49.22931135101155 10.240000000000002,82.7884390192138 -35.16828832844267,69.37177235254713&#10;c -13.390179672826612,-11.499999999999998 -21.778440976038063,0 -21.778440976038063,26.461560980786203&#10;c 0,17.344201376780788 21.75007229805298,28.844201376780788 36.108769254119565,17.344201376780788&#10;c 26.624000000000002,-11.499999999999998 16.384,40.25 20.83796005036117,78.48913195655254 c 0.0,37.04581086902142 -10.240000000000002,81.08114600989933 42.39767599761267,67.66447934323266&#10;c 4.667397237968585,-11.499999999999998 19.131759773485804,0 19.131759773485804,28.168853990100672&#10;c 0,24.86285698843261 -9.07954692631505,36.36285698843261 -22.45225783899997,24.86285698843261&#10;c -26.624000000000002,-11.499999999999998 -16.384,40.25 -39.07717793209851,70.97047634490072 L 0 575 " fill="none" stroke="black" stroke-width="1.0" style="vector-effect:non-scaling-stroke;" /></g><g><path d="M 0 0  L 819.200000 0  c 0.0,21.32748947028136 -10.240000000000002,78.92633374562685 16.22249308937834,65.50966707896018&#10;c 26.864513821104136,-11.499999999999998 41.74377805398787,0 41.74377805398787,30.32366625437315&#10;c 0,15.998298145896925 -43.441721492221305,27.498298145896925 -49.393017218207994,15.998298145896925&#10;c -26.624000000000002,-11.499999999999998 -16.384,40.25 -8.573253925158212,79.8350351874364 c 0.0,23.8328441048632 -10.240000000000002,79.98518386590086 19.567314462012913,66.5685171992342&#10;c 20.99340475047779,-11.499999999999998 29.718580500300906,0 29.718580500300906,29.264816134099135&#10;c 0,25.658779841397745 -7.857184797519188,37.158779841397745 -22.920763324494516,25.658779841397745&#10;c -26.624000000000002,-11.499999999999998 -16.384,40.25 -26.365131637819303,70.17455349193558 c -0.0,38.56928639453233 10.240000000000002,88.87381844907247 -17.72986553651424,75.4571517824058&#10;c -10.28572358605683,-11.499999999999998 -44.21964952012539,0 -44.21964952012539,20.376181550927527&#10;c 0,28.173586004336812 21.62184563505595,39.67358600433681 52.4362189558427,28.173586004336812&#10;c 26.624000000000002,-11.499999999999998 16.384,40.25 9.513296100796929,67.65974732899652 L 0 575 " fill="none" stroke="black" stroke-width="1.0" style="vector-effect:non-scaling-stroke;" /></g></g><g><g><path d="M 0 0  L 0 191.666667  c 28.412535412308774,0.0 88.06158296423428,-9.583333333333334 73.72558296423428,0.8470745801842412&#10;c -12.288,14.181904590227758 0,49.434822547344865 28.674417035765728,49.434822547344865&#10;c 23.21110105616731,0 35.499101056167305,-11.063834306758704 23.21110105616731,-11.944492417180484&#10;c -12.288,-24.916666666666668 43.008,-15.333333333333332 79.1888989438327,-38.33740471034862 c 38.10841143175327,-0.0 99.44176002880648,9.583333333333334 85.10576002880649,-24.779564073653713&#10;c -12.288,-18.30775843872775 0,-37.00161914661891 17.29423997119352,-37.00161914661891&#10;c 15.754328294408566,0 28.042328294408566,35.225681943336156 15.754328294408566,47.17010338059256&#10;c -12.288,24.916666666666668 43.008,15.333333333333332 86.64567170559144,14.611079839680066 c 30.852927344303442,0.0 84.52736126059348,-9.583333333333334 70.19136126059348,23.21322383771136&#10;c -12.288,28.777193988208346 0,30.816852874377567 32.208638739406524,30.816852874377567&#10;c 30.884507268761666,0 43.17250726876166,-26.848445118511346 30.884507268761666,-28.46171563287251&#10;c -12.288,-24.916666666666668 43.008,-15.333333333333332 71.51549273123834,-25.568361079216416 c 48.268886126996996,0.0 86.49104560763297,-9.583333333333334 72.15504560763297,29.817212011660963&#10;c -12.288,20.178624317385 0,28.968890943595397 30.244954392367035,28.968890943595397&#10;c 17.20525702302257,0 29.49325702302257,-37.85305168730554 17.20525702302257,-52.675916042053444&#10;c -12.288,-24.916666666666668 43.008,-15.333333333333332 85.19474297697744,-6.1101869132029165 c 29.81311345438004,0.0 85.8876920184322,-9.583333333333334 71.5516920184322,28.24013081148337&#10;c -12.288,24.97670231488832 0,26.76595182186668 30.8483079815678,26.76595182186668&#10;c 14.520316201337167,0 26.808316201337167,-22.331220683612045 14.520316201337167,-50.07925134247836&#10;c -12.288,-24.916666666666668 43.008,-15.333333333333332 87.87968379866284,-4.926831290871689 L 1024 0 " fill="none" stroke="black" stroke-width="1.0" style="vector-effect:non-scaling-stroke;" /></g><g><path d="M 0 0  L 0 383.333333  c 38.73972908054478,-0.0 93.43694825860123,9.583333333333334 79.10094825860124,-0.9895343496493689&#10;c -12.288,-11.969509655561449 0,-52.900861157797735 23.29905174139877,-52.900861157797735&#10;c 32.1346507015993,0 44.422650701599295,16.881834414074284 32.1346507015993,41.200393711972325&#10;c -12.288,24.916666666666668 43.008,15.333333333333332 70.26534929840071,12.690001795474778 c 18.196621999583204,0.0 94.78748922526792,-9.583333333333334 80.45148922526792,12.611159034032575&#10;c -12.288,10.512827794421487 0,43.49228863674073 21.948510774732085,43.49228863674073&#10;c 27.750532064551805,0 40.0385320645518,-14.019462028497225 27.750532064551805,-14.387248760332398&#10;c -12.288,-24.916666666666668 43.008,-15.333333333333332 74.6494679354482,-41.71619891044091 c 35.70922290698168,-0.0 88.91572839719672,9.583333333333334 74.57972839719672,-12.982406298713654&#10;c -12.288,-17.97406746328358 0,-51.87218114206976 27.820271602803288,-51.87218114206976&#10;c 26.217452615512144,0 38.50545261551214,11.453913575182588 26.217452615512144,46.393480657933885&#10;c -12.288,24.916666666666668 43.008,15.333333333333332 76.18254738448786,18.461106782849534 c 50.958256167937094,-0.0 91.43431778273056,9.583333333333334 77.09831778273056,-15.141165654887173&#10;c -12.288,-32.20627709540825 0,-35.45722054823865 25.301682217269445,-35.45722054823865&#10;c 24.56890002046609,0 36.856900020466085,5.043027010031681 24.56890002046609,23.97766480781998&#10;c -12.288,24.916666666666668 43.008,15.333333333333332 77.83109997953392,26.620721395305846 c 17.928061386382655,-0.0 84.8745174157669,9.583333333333334 70.5385174157669,-0.457585885319725&#10;c -12.288,-43.345820255364956 0,-50.59692345167584 31.8614825842331,-50.59692345167584&#10;c 25.307195624845036,0 37.59519562484503,32.983509966749615 25.307195624845036,33.818813853243356&#10;c -12.288,24.916666666666668 43.008,15.333333333333332 77.09280437515497,17.23569548375221 L 1024 0 " fill="none" stroke="black" stroke-width="1.0" style="vector-effect:non-scaling-stroke;" /></g></g></svg>