<?xml version="1.0" encoding="utf-8"?>
<svg baseProfile="full" height="0" version="1.1" width="0" xmlns="http://www.w3.org/2000/svg" xmlns:ev="http://www.w3.org/2001/xml-events" xmlns:xlink="http://www.w3.org/1999/xlink"><defs><clipPath id="piece-mask-35-0" shape-rendering="crispEdges"><path d="M420 452 l-5 -13 -45 -5 -45 -5 -31 -5 -30 -4 0 -50 1 -51 -15 -9 -15 -10 -19 0 -19 0 -19 22 -20 23 4 47 3 48 -11 4 -10 4 -67 -5 -67 -6 0 -51 0 -51 6 -22 6 -23 43 0 43 0 6 -16 6 -16 0 -35 0 -34 -14 -15 -15 -14 -19 0 -19 0 -13 -57 -12 -58 -9 -17 -10 -18 61 0 61 0 15 15 15 15 -6 20 -6 19 11 21 11 20 34 0 34 0 10 -19 10 -18 -6 -36 -5 -35 22 -7 22 -7 69 7 70 7 -6 16 -5 15 -10 66 -10 66 0 6 0 5 -37 0 -37 0 -4 12 -4 12 -14 0 -14 0 0 21 0 20 17 17 16 17 51 1 51 2 3 46 3 47 -3 42 -3 42 -5 -13z" transform="translate(0.000000,46.000000) scale(0.100000,-0.100000)"/></clipPath><clipPath id="piece-mask-35-1" shape-rendering="crispEdges"><path d="M288 663 l12 -5 0 -22 0 -23 -18 -21 -18 -21 -53 -7 -53 -7 -10 14 -10 14 6 -76 6 -77 -22 -5 -21 -6 -28 6 -28 5 -26 -6 -25 -6 0 -36 0 -35 17 -17 16 -17 68 -3 68 -4 6 -17 5 -16 -11 -35 -11 -35 -8 -32 -8 -33 53 0 54 0 15 -16 16 -15 -6 -38 -6 -38 17 -16 16 -17 19 0 19 0 25 11 25 12 11 27 11 27 -7 38 -7 38 81 -6 80 -6 11 63 11 63 0 15 0 15 18 21 19 21 29 -2 29 -2 3 27 3 27 -33 -5 -33 -6 -20 19 -20 18 -13 28 -12 28 0 46 0 45 -17 -7 -18 -7 -40 -10 -39 -9 -24 6 -24 6 5 36 6 36 -15 28 -15 29 -47 -1 -47 -1 13 -5z" transform="translate(0.000000,67.000000) scale(0.100000,-0.100000)"/></clipPath><clipPath id="piece-mask-35-2" shape-rendering="crispEdges"><path d="M306 525 l7 -55 -12 0 -11 0 0 -14 0 -14 -16 -6 -16 -6 -32 0 -33 0 -23 20 -23 20 5 50 5 50 -71 0 -71 0 3 -86 4 -86 39 6 39 6 25 -6 24 -6 6 -18 5 -17 -5 -16 -6 -15 -30 -12 -29 -12 -45 6 -45 7 0 -23 0 -23 7 -67 6 -68 79 0 79 0 -7 -35 -6 -35 6 -25 6 -25 15 0 15 0 0 -10 0 -10 24 0 25 0 16 17 17 16 -5 34 -6 33 42 10 42 10 40 11 40 11 7 12 8 11 0 57 0 56 -6 16 -6 16 -53 0 -53 0 -6 16 -6 16 0 28 0 28 39 -5 40 -5 14 13 14 14 11 22 12 22 0 58 0 58 -75 2 -75 3 6 -55z" transform="translate(0.000000,58.000000) scale(0.100000,-0.100000)"/></clipPath><clipPath id="piece-mask-35-3" shape-rendering="crispEdges"><path d="M2 353 l3 -78 53 3 53 3 14 -15 15 -15 0 -20 0 -21 -10 0 -10 0 0 -15 0 -15 -25 -6 -25 -6 -15 6 -15 5 -6 -27 -6 -27 -14 -52 -14 -51 0 -11 0 -11 64 0 65 0 15 16 16 15 -6 39 -6 39 26 7 26 6 29 -12 29 -12 5 -24 4 -24 -8 0 -9 0 0 -15 0 -15 15 0 15 0 0 -10 0 -10 65 0 65 0 0 8 0 7 -16 70 -17 70 -3 12 -3 13 -26 -12 -25 -11 -20 23 -20 23 0 19 0 19 11 22 12 22 11 8 11 8 43 -6 42 -6 0 65 0 66 -71 0 -71 0 6 -24 6 -25 -11 -25 -12 -25 -27 -11 -28 -12 -24 13 -23 12 -18 20 -17 20 6 34 6 33 -66 0 -67 0 3 -77z" transform="translate(0.000000,43.000000) scale(0.100000,-0.100000)"/></clipPath><clipPath id="piece-mask-35-4" shape-rendering="crispEdges"><path d="M194 505 l-6 -15 6 -24 6 -24 -6 -16 -6 -16 -84 0 -84 0 0 -74 0 -74 53 2 53 1 17 -17 17 -17 0 -14 0 -15 -6 -16 -6 -16 -13 0 -13 0 -4 -12 -5 -13 -57 0 -57 0 3 -72 3 -73 218 0 217 0 10 26 10 25 0 42 0 42 9 14 9 14 25 -7 25 -6 16 6 15 6 6 29 6 29 -6 20 -6 20 -49 0 -48 0 -6 16 -6 16 0 65 0 65 -14 -5 -15 -6 -61 -11 -61 -11 -18 6 -18 5 -6 52 -6 51 -13 9 -13 8 -13 0 -13 0 -5 -15z" transform="translate(0.000000,52.000000) scale(0.100000,-0.100000)"/></clipPath><clipPath id="piece-mask-35-5" shape-rendering="crispEdges"><path d="M175 549 l-7 -10 6 -34 7 -33 -17 -17 -17 -17 -73 4 -72 3 5 -35 6 -35 11 -35 11 -35 39 -6 38 -6 9 -14 9 -14 0 -16 0 -16 -11 -32 -11 -31 -24 0 -24 0 -6 -28 -6 -27 -15 -40 -15 -40 -5 -12 -5 -13 64 0 65 0 22 19 22 19 -3 39 -3 38 33 3 32 3 16 -16 16 -16 -6 -33 -7 -34 18 -17 17 -17 50 6 51 6 19 0 19 0 -6 43 -6 42 -7 38 -7 38 50 -7 50 -6 24 12 24 13 11 12 11 11 7 21 7 21 -13 27 -12 26 -47 -6 -47 -7 -12 22 -12 22 -1 54 -1 54 -2 0 -3 0 -70 -15 -70 -15 -16 6 -15 6 0 49 0 49 -20 20 -20 20 -24 0 -25 0 -6 -11z" transform="translate(0.000000,56.000000) scale(0.100000,-0.100000)"/></clipPath><clipPath id="piece-mask-35-6" shape-rendering="crispEdges"><path d="M117 433 l-7 -6 0 -53 0 -53 -12 -26 -11 -25 -23 -6 -23 -6 -20 7 -21 6 0 -30 0 -29 6 -16 6 -16 54 0 54 0 6 -26 7 -25 -7 -47 -6 -46 -13 -8 -12 -8 15 -11 15 -10 57 5 57 4 17 17 16 16 -6 39 -6 40 55 0 55 0 -5 -22 -5 -23 8 -13 9 -13 78 -20 78 -19 4 4 4 3 19 56 20 57 0 29 0 29 -22 6 -23 6 -40 0 -40 0 -13 9 -13 8 3 34 3 34 15 -4 15 -4 22 -4 22 -5 17 16 17 17 5 44 4 44 -6 25 -6 26 -209 0 -208 0 -6 -7z" transform="translate(0.000000,44.000000) scale(0.100000,-0.100000)"/></clipPath><clipPath id="piece-mask-35-7" shape-rendering="crispEdges"><path d="M367 544 l-7 -7 6 -24 6 -23 -6 -34 -7 -34 -23 -6 -24 -6 -15 6 -15 5 -12 30 -12 29 4 30 5 30 -74 0 -73 0 0 -77 0 -78 -8 -11 -7 -11 -50 1 -50 1 -3 -37 -3 -37 25 -7 25 -6 20 7 21 6 16 -15 16 -16 -4 -75 -3 -75 69 0 69 0 -6 -44 -6 -45 32 -7 32 -7 30 1 30 1 3 10 4 11 14 0 14 0 0 13 0 12 -10 15 -9 14 12 8 12 8 50 0 50 0 12 8 12 8 -9 64 -10 65 0 12 0 12 16 15 15 16 34 0 33 0 16 6 16 6 0 22 0 21 -10 15 -9 15 -29 -3 -29 -3 -17 16 -16 16 0 63 0 63 -61 7 -62 6 -17 0 -17 0 -6 -6z" transform="translate(0.000000,55.000000) scale(0.100000,-0.100000)"/></clipPath><clipPath id="piece-mask-35-8" shape-rendering="crispEdges"><path d="M230 540 l-22 -22 6 -38 6 -37 -23 -10 -22 -10 -66 5 -66 4 -6 -38 -6 -39 8 -43 8 -43 8 -7 7 -7 49 2 49 2 0 -24 0 -24 -17 -16 -17 -17 -50 5 -51 5 -12 -14 -13 -13 0 -25 0 -24 21 -48 20 -49 12 -7 12 -8 55 0 55 1 18 13 18 14 -6 45 -7 45 20 11 21 11 20 0 20 0 7 -12 8 -12 -1 -51 -1 -50 12 -7 11 -8 83 0 82 0 0 223 0 222 -22 2 -23 1 -55 13 -55 13 -13 13 -13 13 3 28 3 27 -27 3 -27 3 -21 -21z" transform="translate(0.000000,56.000000) scale(0.100000,-0.100000)"/></clipPath><clipPath id="piece-mask-35-9" shape-rendering="crispEdges"><path d="M110 391 l0 -70 -12 -26 -12 -26 -40 3 -41 3 -3 -38 -3 -38 30 -12 30 -11 12 -46 11 -45 1 -22 2 -23 13 0 12 0 0 -11 0 -12 61 7 62 6 19 22 20 23 -5 32 -5 31 15 6 15 6 18 0 19 0 11 -19 10 -20 1 -23 1 -23 -7 -22 -7 -23 16 0 16 0 0 -10 0 -10 28 0 27 0 50 13 50 13 0 215 0 214 -207 3 -208 2 0 -69z" transform="translate(0.000000,46.000000) scale(0.100000,-0.100000)"/></clipPath><clipPath id="piece-mask-35-10" shape-rendering="crispEdges"><path d="M107 433 l-7 -6 0 -69 0 -68 -10 0 -10 0 0 -14 0 -14 -24 -6 -24 -6 -17 6 -16 7 3 -39 3 -39 32 3 32 3 10 -39 11 -40 3 -56 2 -56 72 0 72 0 5 18 5 17 -1 39 0 39 14 8 13 9 44 0 44 0 -6 -37 -6 -36 19 -17 20 -17 60 -6 59 -7 16 6 15 6 0 67 0 66 9 14 9 15 15 -12 15 -13 28 13 29 13 18 19 17 19 0 12 0 12 -17 20 -18 20 -22 7 -22 7 -19 -10 -18 -10 -14 9 -14 9 -4 70 -4 71 -207 0 -208 0 -6 -7z" transform="translate(0.000000,44.000000) scale(0.100000,-0.100000)"/></clipPath><clipPath id="piece-mask-35-11" shape-rendering="crispEdges"><path d="M201 573 l-23 -5 6 -57 7 -58 -31 -13 -30 -12 -55 4 -55 5 0 -74 0 -73 15 0 15 0 0 -11 0 -11 33 6 32 7 20 2 20 2 3 -37 3 -36 -21 -7 -21 -7 -48 7 -47 6 -11 -24 -12 -25 9 -59 8 -58 7 -16 6 -16 66 -6 65 -6 12 12 13 12 0 30 0 30 6 28 7 27 25 6 25 6 16 -6 16 -6 -6 -20 -6 -20 -5 -18 -5 -17 8 -12 7 -12 90 -14 90 -14 13 4 12 5 0 17 0 16 15 44 16 43 -6 18 -6 18 -68 4 -68 3 -16 17 -17 17 0 35 0 35 18 5 17 6 52 -3 51 -2 6 5 5 6 -6 69 -6 70 -66 3 -66 2 -34 11 -33 11 5 39 5 39 -15 15 -14 15 -12 -1 -12 -2 -24 -4z" transform="translate(0.000000,58.000000) scale(0.100000,-0.100000)"/></clipPath><clipPath id="piece-mask-35-12" shape-rendering="crispEdges"><path d="M292 470 l5 -50 -25 -7 -24 -6 -70 6 -71 6 7 -55 6 -55 -6 -23 -6 -24 -44 1 -45 2 -9 -15 -10 -15 0 -32 0 -31 30 -7 30 -7 10 -41 11 -42 16 -37 16 -38 214 0 213 0 0 6 0 6 -21 70 -22 70 -29 -6 -30 -6 -14 14 -14 15 0 44 0 45 6 15 5 15 60 -5 59 -6 2 29 2 29 0 46 1 47 -69 12 -70 13 -14 13 -13 14 6 20 6 20 -52 0 -52 0 5 -50z" transform="translate(0.000000,52.000000) scale(0.100000,-0.100000)"/></clipPath><clipPath id="piece-mask-35-13" shape-rendering="crispEdges"><path d="M124 482 l6 -57 -6 -34 -7 -34 -59 7 -58 6 0 -31 0 -30 14 -15 15 -14 45 0 46 0 6 -26 7 -26 -7 -59 -6 -59 70 0 71 0 5 -14 6 -14 -12 -22 -12 -22 21 -19 20 -19 30 0 30 0 26 26 27 27 -7 45 -7 45 46 -6 46 -7 25 -6 25 -6 -5 58 -6 59 -5 24 -5 23 -34 -6 -33 -7 -12 36 -12 36 6 24 6 24 34 7 35 6 10 -6 10 -7 10 20 11 20 0 50 0 51 -47 0 -48 0 -22 -6 -21 -6 5 -34 6 -34 -23 -20 -23 -20 -32 0 -32 0 -23 20 -23 20 6 45 7 45 -76 0 -77 0 7 -58z" transform="translate(0.000000,54.000000) scale(0.100000,-0.100000)"/></clipPath><clipPath id="piece-mask-35-14" shape-rendering="crispEdges"><path d="M120 538 l-1 -3 -2 -66 -2 -65 -18 -18 -18 -18 -22 5 -22 4 -15 4 -15 4 -3 -34 -3 -34 13 -8 13 -9 40 0 40 0 23 -6 22 -6 0 -32 -1 -31 -14 -40 -15 -40 0 -17 0 -18 70 0 69 0 -5 -15 -6 -15 6 -24 6 -25 16 -15 15 -16 25 0 25 0 13 13 13 12 12 24 13 23 -7 35 -6 36 38 -6 38 -6 36 -7 36 -6 6 15 6 15 -8 55 -7 55 -16 15 -16 16 -36 -6 -36 -6 0 36 0 36 19 11 20 10 31 0 31 0 15 14 14 15 0 70 0 71 -215 0 -215 0 0 -2z" transform="translate(0.000000,54.000000) scale(0.100000,-0.100000)"/></clipPath><clipPath id="piece-mask-35-15" shape-rendering="crispEdges"><path d="M316 675 l-16 -16 -2 -27 -1 -27 1 -18 2 -18 -14 -14 -14 -14 -71 6 -71 6 0 -76 0 -76 -48 6 -48 5 -17 -17 -17 -16 0 -24 0 -24 17 -16 17 -17 42 5 43 4 6 -66 6 -66 5 -22 4 -22 68 -3 67 -3 -1 -39 -2 -40 12 -11 11 -12 23 -12 23 -12 19 6 20 6 0 15 0 14 16 0 17 0 -6 61 -5 62 51 -8 52 -8 37 -1 37 0 5 5 5 5 9 55 8 55 -8 26 -9 27 -51 -6 -50 -6 -9 14 -9 14 0 22 0 22 16 15 15 16 39 0 38 0 6 15 6 16 -7 59 -6 59 -6 -3 -6 -4 -90 15 -90 14 -7 12 -8 12 6 20 6 20 1 20 2 20 -26 3 -26 3 -17 -16z" transform="translate(0.000000,69.000000) scale(0.100000,-0.100000)"/></clipPath><clipPath id="piece-mask-35-16" shape-rendering="crispEdges"><path d="M158 563 l-38 -4 0 -58 0 -58 -20 -23 -19 -22 -35 4 -34 4 -4 -21 -4 -20 6 -25 6 -25 32 3 31 3 7 -28 8 -28 10 -60 11 -60 71 -3 71 -3 -5 -49 -4 -49 15 -15 15 -15 26 -7 26 -6 30 12 30 13 -6 32 -6 31 58 13 58 13 24 11 23 11 -5 12 -4 11 -7 47 -7 46 6 26 7 26 35 -5 35 -6 20 20 19 19 0 40 0 40 -54 0 -54 0 -5 13 -5 12 6 63 5 62 -73 0 -73 0 7 -39 6 -38 -19 -22 -18 -21 -28 0 -28 0 -18 22 -19 21 0 44 0 43 -37 -2 -38 -1 -37 -4z" transform="translate(0.000000,57.000000) scale(0.100000,-0.100000)"/></clipPath><clipPath id="piece-mask-35-17" shape-rendering="crispEdges"><path d="M174 535 l-6 -26 6 -29 5 -30 -5 -15 -6 -14 -77 6 -78 6 -6 -69 -6 -69 17 -13 17 -13 21 5 20 5 37 -10 37 -10 0 -34 0 -35 -24 -6 -25 -6 -20 7 -21 6 -14 -14 -14 -14 -7 -56 -7 -57 6 -25 6 -25 71 0 70 0 15 14 14 14 -6 30 -6 29 16 32 17 31 12 0 12 0 23 -6 22 -6 0 -14 0 -14 -10 0 -10 0 0 -15 0 -15 15 0 15 0 0 -10 0 -9 43 -11 42 -11 24 -10 23 -10 18 6 19 6 6 63 7 64 -7 22 -7 22 -43 -6 -43 -7 -16 16 -16 16 0 23 0 22 34 0 33 0 18 18 18 18 7 38 7 38 -4 28 -5 29 -72 -3 -73 -4 -17 17 -17 18 5 23 6 23 -12 25 -11 26 -43 0 -44 0 -6 -25z" transform="translate(0.000000,56.000000) scale(0.100000,-0.100000)"/></clipPath><clipPath id="piece-mask-35-18" shape-rendering="crispEdges"><path d="M43 423 l-13 -5 0 -68 0 -68 16 -6 16 -6 29 0 30 0 20 -10 19 -11 0 -20 0 -20 -10 -20 -11 -19 -64 0 -65 0 -6 -24 -5 -23 10 -40 11 -40 19 -21 18 -22 69 0 69 0 14 9 14 9 -7 36 -7 37 6 19 6 20 36 0 35 0 -6 -25 -7 -26 16 -15 16 -16 76 -19 76 -19 3 0 4 0 0 75 0 75 -38 -6 -39 -6 -16 17 -17 16 -6 25 -6 24 13 31 12 31 44 -6 43 -6 5 23 4 22 3 53 3 52 -14 -5 -14 -6 -59 -6 -58 -6 0 -38 0 -38 -35 -7 -35 -6 -25 6 -25 6 0 40 0 39 -37 10 -38 11 -40 -1 -40 -1 -12 -5z" transform="translate(0.000000,44.000000) scale(0.100000,-0.100000)"/></clipPath><clipPath id="piece-mask-35-19" shape-rendering="crispEdges"><path d="M283 544 l-12 -5 6 -47 5 -47 -19 -22 -19 -22 -26 -6 -26 -7 -21 23 -21 23 0 10 0 11 9 32 9 32 -41 6 -42 7 -40 -4 -40 -3 -3 -213 -2 -213 78 6 78 7 -4 -39 -4 -40 17 -16 16 -17 39 0 39 0 9 32 8 32 40 8 39 8 36 10 36 10 11 25 12 26 0 44 0 43 -6 16 -6 16 -45 0 -44 0 -15 14 -14 15 0 30 0 31 58 -6 59 -7 7 34 6 34 -6 56 -6 57 -52 6 -51 7 -20 4 -20 4 -12 -5z" transform="translate(0.000000,55.000000) scale(0.100000,-0.100000)"/></clipPath><clipPath id="piece-mask-35-20" shape-rendering="crispEdges"><path d="M170 500 l-11 -21 6 -19 6 -20 -15 -16 -16 -15 -67 2 -68 3 -3 -59 -3 -59 6 -23 6 -24 34 7 35 6 25 -6 25 -6 0 -23 0 -22 -9 -14 -9 -14 -37 6 -37 6 -13 -13 -13 -13 -7 -81 -8 -82 227 0 226 0 -6 47 -6 48 -9 38 -10 37 -35 0 -35 0 3 38 3 37 41 -3 40 -3 12 26 12 26 0 61 0 60 -87 -6 -88 -7 -14 10 -14 9 6 32 7 32 -10 19 -11 19 -34 0 -34 0 -11 -20z" transform="translate(0.000000,52.000000) scale(0.100000,-0.100000)"/></clipPath><clipPath id="piece-mask-35-21" shape-rendering="crispEdges"><path d="M210 549 l-13 -31 1 -38 2 -38 -17 -7 -18 -6 -62 7 -63 6 -2 -28 -1 -29 2 -45 3 -44 20 -18 21 -18 38 6 39 7 0 -24 0 -24 -9 -14 -9 -14 -64 0 -63 0 -7 -11 -8 -11 6 -35 6 -35 15 -42 15 -41 22 -6 21 -6 42 0 42 0 25 12 26 11 5 18 6 18 -11 21 -12 22 6 14 5 14 35 0 36 0 6 -25 6 -26 -6 -30 -6 -31 16 -15 15 -16 64 5 64 6 15 15 15 15 -10 61 -11 60 -18 21 -19 22 -20 -7 -19 -6 -7 21 -7 22 7 35 6 36 54 -6 54 -5 5 16 5 17 -7 60 -7 60 -20 -3 -20 -3 -37 -6 -37 -5 -25 6 -26 6 0 60 0 59 -19 11 -20 10 -29 0 -30 0 -12 -31z" transform="translate(0.000000,58.000000) scale(0.100000,-0.100000)"/></clipPath><clipPath id="piece-mask-35-22" shape-rendering="crispEdges"><path d="M310 650 l-25 -6 1 -62 1 -62 -84 0 -83 0 0 -54 0 -54 -6 -16 -6 -15 -42 5 -43 6 -12 -31 -13 -31 6 -24 6 -25 17 -16 16 -17 39 6 38 6 0 -64 0 -64 6 -16 6 -16 69 0 69 0 0 -34 0 -34 6 -16 6 -16 44 0 44 0 0 10 0 10 15 0 16 0 -6 33 -7 34 72 6 72 6 6 6 6 6 -13 42 -12 42 -12 43 -11 44 -29 -6 -29 -6 -14 14 -14 15 0 30 0 30 15 15 16 15 34 7 35 6 20 -5 20 -5 0 69 0 69 -34 -14 -33 -14 -41 -7 -42 -7 -15 16 -16 16 6 44 7 44 -6 20 -7 20 -17 4 -17 4 -25 -6z" transform="translate(0.000000,66.000000) scale(0.100000,-0.100000)"/></clipPath><clipPath id="piece-mask-35-23" shape-rendering="crispEdges"><path d="M308 533 l12 -5 0 -23 0 -24 -25 -26 -26 -25 -59 0 -60 0 0 -44 0 -44 -6 -31 -6 -31 -14 0 -14 0 0 -11 0 -11 -49 7 -48 7 -5 -24 -4 -23 6 -25 6 -25 43 -1 43 0 8 -15 9 -14 12 -74 12 -73 78 4 77 5 17 17 18 17 -7 45 -6 44 35 0 34 0 7 -12 8 -12 -3 -40 -2 -39 13 -8 13 -9 58 0 58 0 15 14 14 14 -10 53 -10 52 0 14 0 15 49 -7 49 -7 24 13 23 12 7 11 8 11 0 22 0 22 -16 16 -17 17 -51 -4 -51 -3 -1 75 -1 75 -1 11 -2 11 -57 13 -57 12 -23 11 -23 10 0 24 0 23 -57 -1 -58 -1 13 -5z" transform="translate(0.000000,54.000000) scale(0.100000,-0.100000)"/></clipPath><clipPath id="piece-mask-35-24" shape-rendering="crispEdges"><path d="M262 643 l-10 -16 6 -40 5 -39 -14 -9 -14 -9 -52 0 -53 0 0 11 0 10 -11 -6 -10 -7 2 -32 2 -31 -2 -31 -1 -31 -20 -23 -21 -24 -34 0 -35 0 0 -22 0 -23 16 -16 16 -16 43 7 43 6 7 -21 7 -22 -7 -74 -7 -75 69 0 70 0 5 -6 6 -6 -9 -31 -9 -32 6 -17 5 -18 42 0 42 0 13 9 13 8 -6 26 -7 26 49 6 48 6 30 12 30 11 12 12 12 12 -10 59 -10 59 -9 14 -8 14 -43 0 -43 1 -6 25 -6 25 4 23 5 24 48 -7 49 -7 0 11 0 11 14 0 14 0 6 31 6 32 0 41 0 41 -9 14 -9 14 -11 -7 -10 -7 -57 15 -57 15 -8 13 -9 13 0 33 0 32 -55 0 -54 0 -9 -17z" transform="translate(0.000000,66.000000) scale(0.100000,-0.100000)"/></clipPath><clipPath id="piece-mask-35-25" shape-rendering="crispEdges"><path d="M298 674 l-6 -6 8 -28 8 -29 -5 -20 -5 -20 -43 -17 -43 -16 -46 4 -46 3 0 -42 0 -42 -12 -26 -11 -25 -14 0 -13 0 0 -11 0 -12 -35 6 -35 6 0 -34 0 -34 17 -16 17 -17 53 5 53 6 7 -27 6 -26 -13 -45 -13 -46 -4 -22 -5 -23 70 0 71 0 15 -15 15 -16 -11 -24 -11 -25 23 -20 23 -20 7 0 7 0 30 10 30 11 11 24 12 25 -7 31 -6 32 68 -5 68 -6 12 12 12 12 16 31 16 31 7 41 7 41 11 1 11 1 26 -1 25 -2 12 26 12 26 0 19 0 19 -16 16 -17 16 -50 -6 -49 -7 -9 13 -9 14 0 52 0 51 -5 15 -6 14 -49 -5 -49 -4 -25 6 -26 6 0 40 0 40 -20 20 -20 20 -23 0 -24 0 -5 -6z" transform="translate(0.000000,68.000000) scale(0.100000,-0.100000)"/></clipPath><clipPath id="piece-mask-35-26" shape-rendering="crispEdges"><path d="M283 554 l-12 -5 6 -32 5 -32 -20 -23 -19 -22 -62 -6 -61 -7 0 -74 0 -75 -37 2 -38 2 -17 -1 -17 -1 -6 -20 -6 -20 6 -29 6 -29 18 5 18 5 14 -15 15 -14 17 -75 18 -76 62 -4 62 -5 22 10 23 10 -6 37 -6 38 22 22 21 21 27 -3 27 -3 -3 -27 -3 -28 13 -13 13 -13 55 -13 55 -12 20 -2 20 -2 3 207 2 206 -52 -14 -53 -14 -27 0 -28 0 0 10 0 10 -16 0 -16 0 7 23 7 22 -1 23 -1 23 -10 20 -11 19 -22 -1 -22 -1 -12 -4z" transform="translate(0.000000,56.000000) scale(0.100000,-0.100000)"/></clipPath><clipPath id="piece-mask-35-27" shape-rendering="crispEdges"><path d="M27 433 l-5 -8 -7 -69 -7 -68 12 7 11 7 34 -6 34 -7 16 -15 15 -15 0 -25 0 -25 -14 -15 -14 -14 -28 -10 -27 -11 -11 11 -10 10 -14 0 -15 0 8 -58 8 -57 1 -32 1 -33 68 0 68 0 14 14 14 14 -2 58 -2 59 23 3 24 4 29 -13 30 -12 -6 -27 -6 -28 15 -15 16 -16 55 -11 55 -11 20 6 21 7 -7 36 -6 37 -9 38 -10 37 -38 0 -39 0 -6 16 -6 16 0 28 0 29 20 6 20 6 30 -6 30 -7 0 11 0 11 15 0 15 0 0 75 0 75 -214 0 -215 0 -4 -7z" transform="translate(0.000000,44.000000) scale(0.100000,-0.100000)"/></clipPath><clipPath id="piece-mask-35-28" shape-rendering="crispEdges"><path d="M40 515 l0 -54 11 -25 12 -25 49 2 49 2 9 -15 10 -15 0 -21 0 -21 -19 -22 -20 -22 -68 2 -68 2 3 -44 4 -44 10 -18 10 -19 -6 -14 -5 -14 78 0 78 0 6 -6 6 -7 -10 -19 -10 -19 10 -31 11 -31 21 -18 22 -19 13 0 13 0 15 15 15 15 10 0 11 0 6 24 5 23 -3 19 -3 19 65 13 64 13 8 12 8 12 0 204 0 203 -17 -7 -18 -7 -63 -15 -63 -15 6 -29 7 -29 -16 0 -16 0 0 -9 0 -10 -19 -6 -19 -6 -26 12 -26 12 0 6 0 6 9 31 9 31 -10 16 -9 17 -74 0 -75 0 0 -55z" transform="translate(0.000000,57.000000) scale(0.100000,-0.100000)"/></clipPath><clipPath id="piece-mask-35-29" shape-rendering="crispEdges"><path d="M297 703 l-17 -4 2 -60 3 -60 -15 -9 -15 -10 -67 0 -68 0 0 -51 0 -50 -11 -20 -10 -20 -10 7 -10 6 -35 -6 -34 -7 -6 -24 -6 -24 12 -36 12 -36 33 7 34 6 5 -23 5 -24 5 -54 5 -54 7 -6 6 -6 88 -3 89 -4 -6 -46 -5 -47 20 -22 19 -23 19 0 19 0 15 10 15 9 0 37 0 37 70 19 70 19 3 10 4 9 14 0 14 0 0 71 0 70 -15 15 -14 15 -25 -7 -25 -6 -21 7 -21 7 3 36 3 37 50 -1 50 -1 7 11 8 11 0 83 0 83 -10 -6 -11 -7 -72 12 -72 12 -7 12 -7 11 6 41 5 41 -23 6 -24 7 -20 -1 -20 -1 -18 -5z" transform="translate(0.000000,71.000000) scale(0.100000,-0.100000)"/></clipPath><clipPath id="piece-mask-35-30" shape-rendering="crispEdges"><path d="M216 635 l-15 -16 11 -24 11 -24 -18 -18 -19 -18 -72 0 -72 0 -6 -44 -6 -44 0 -33 0 -33 20 -11 20 -11 23 2 22 2 22 -1 22 -2 7 -22 6 -21 -18 -15 -19 -14 -55 5 -55 5 -13 -15 -14 -14 13 -64 13 -65 7 -12 8 -13 80 2 79 1 -5 -32 -5 -33 26 -26 27 -27 29 0 28 0 16 6 16 6 0 28 0 28 38 6 37 7 30 11 30 12 12 12 12 11 14 54 15 54 6 27 6 27 15 -5 15 -6 25 6 25 6 0 15 0 15 10 0 10 0 0 21 0 20 -15 15 -14 15 -53 -3 -53 -3 -5 80 -5 80 -72 -3 -73 -4 -16 16 -16 17 6 33 6 34 -16 6 -16 6 -28 0 -29 0 -15 -15z" transform="translate(0.000000,65.000000) scale(0.100000,-0.100000)"/></clipPath><clipPath id="piece-mask-35-31" shape-rendering="crispEdges"><path d="M137 553 l-7 -6 0 -67 0 -66 -12 -12 -12 -12 -34 0 -33 0 -20 -10 -19 -11 0 -36 0 -36 37 6 36 6 19 -21 18 -21 2 -41 2 -41 -1 -22 -2 -22 17 -5 17 -5 53 -6 52 -7 6 -23 6 -24 -7 -20 -6 -21 16 -16 16 -16 40 5 40 5 21 24 20 23 -6 53 -6 52 30 0 29 0 47 -16 47 -16 8 14 9 13 0 35 0 35 -11 38 -10 38 -34 -7 -34 -6 -16 15 -15 16 0 35 0 36 24 -6 23 -5 16 15 16 16 9 0 9 0 11 25 12 26 0 49 0 50 -208 0 -209 0 -6 -7z" transform="translate(0.000000,56.000000) scale(0.100000,-0.100000)"/></clipPath><clipPath id="piece-mask-35-32" shape-rendering="crispEdges"><path d="M185 680 l-6 -19 7 -37 7 -36 -14 -9 -14 -9 -82 0 -83 0 0 -39 0 -38 11 -32 11 -31 14 0 14 0 0 -11 0 -11 31 4 30 5 -3 -36 -3 -36 -32 -3 -31 -3 -6 -16 -6 -16 -10 -65 -9 -65 14 -13 14 -14 48 0 48 0 13 -9 14 -8 -6 -44 -7 -44 8 -11 8 -11 23 -12 23 -12 22 7 22 7 19 21 18 21 -6 63 -7 64 53 -7 53 -7 18 -10 18 -9 18 6 19 6 7 74 7 75 33 0 34 0 15 16 16 15 0 29 0 29 -12 26 -12 27 -48 -4 -48 -3 0 73 0 73 -9 -5 -9 -6 -76 19 -75 19 -16 16 -16 15 7 26 6 25 -35 0 -36 0 -6 -20z" transform="translate(0.000000,70.000000) scale(0.100000,-0.100000)"/></clipPath><clipPath id="piece-mask-35-33" shape-rendering="crispEdges"><path d="M297 403 l5 -50 -26 -26 -27 -27 -23 0 -23 0 -20 18 -20 17 -12 22 -11 23 5 23 6 23 -63 -4 -63 -4 -4 -4 -3 -3 -1 -58 0 -58 7 -22 7 -22 30 6 29 6 20 -23 20 -23 0 -2 0 -2 -11 -32 -11 -33 -24 6 -23 6 -11 -37 -10 -38 -6 -37 -6 -37 -17 -4 -16 -5 223 -1 222 -1 0 214 0 214 -27 6 -28 7 -47 6 -47 5 6 -49z" transform="translate(0.000000,45.000000) scale(0.100000,-0.100000)"/></clipPath><clipPath id="piece-mask-35-34" shape-rendering="crispEdges"><path d="M335 549 l-7 -10 6 -32 6 -32 -8 -11 -7 -11 -23 -12 -23 -12 -67 2 -67 3 -3 -55 -2 -54 -5 -22 -5 -22 -32 10 -33 9 -17 -6 -18 -5 0 -10 0 -9 -15 0 -15 0 0 -32 0 -33 8 -12 8 -12 38 -16 39 -16 40 6 40 7 -7 -38 -7 -39 -6 -43 -6 -42 51 0 51 0 25 11 25 12 6 28 6 29 -6 20 -6 20 34 0 35 0 31 -6 31 -6 -6 -9 -5 -9 6 -19 6 -19 27 -10 27 -10 32 -6 33 -5 14 5 14 5 -5 63 -5 63 31 -5 31 -4 23 6 23 5 12 34 12 33 0 16 0 15 -20 23 -19 22 -36 -6 -35 -7 0 68 0 68 -8 10 -7 10 -43 2 -44 3 -39 10 -39 11 0 38 0 39 -16 6 -16 6 -18 0 -19 0 -6 -11z" transform="translate(0.000000,56.000000) scale(0.100000,-0.100000)"/></clipPath><clipPath id="piece-mask-35-35" shape-rendering="crispEdges"><path d="M223 523 l6 -38 -9 -15 -9 -15 -88 0 -88 0 -3 -54 -3 -54 12 -29 11 -28 20 0 19 0 20 11 20 10 19 -6 20 -6 0 -34 0 -34 -39 -11 -40 -10 -40 6 -40 6 -6 -25 -7 -26 16 -62 15 -62 6 -6 6 -6 72 -3 72 -3 15 10 15 10 0 48 0 48 27 3 27 3 20 -20 21 -21 0 -49 0 -49 16 -6 15 -6 47 10 47 10 24 6 24 5 -7 69 -6 68 -6 17 -7 17 -38 -6 -39 -6 0 46 0 46 35 -6 35 -7 0 11 0 10 14 0 14 0 6 31 6 31 0 53 0 53 -64 -5 -64 -6 -27 7 -27 7 5 34 6 35 -15 15 -15 15 -36 0 -36 0 6 -37z" transform="translate(0.000000,56.000000) scale(0.100000,-0.100000)"/></clipPath><clipPath id="piece-mask-35-36" shape-rendering="crispEdges"><path d="M163 433 l-43 -4 0 -53 0 -53 -11 -31 -11 -31 -33 -7 -34 -6 -10 6 -10 6 -5 -17 -6 -18 9 -30 8 -30 40 3 40 3 13 -31 12 -30 -4 -55 -5 -55 46 0 46 0 39 10 39 9 9 13 9 13 -6 37 -5 38 46 0 46 0 -6 -34 -6 -34 17 -7 18 -7 63 -14 63 -13 12 5 12 4 2 52 2 51 12 29 12 29 25 -6 25 -6 8 13 9 13 0 49 0 49 -41 -6 -42 -5 -15 15 -16 15 -4 60 -5 60 -21 -6 -21 -6 -43 0 -44 0 7 -29 6 -29 -16 -16 -16 -16 -44 0 -44 0 -15 16 -16 15 0 40 0 39 -27 -2 -28 -1 -42 -4z" transform="translate(0.000000,44.000000) scale(0.100000,-0.100000)"/></clipPath><clipPath id="piece-mask-35-37" shape-rendering="crispEdges"><path d="M122 498 l6 -63 -5 -12 -4 -11 -54 5 -54 6 -6 -36 -7 -35 7 -22 7 -21 19 6 20 7 19 -22 18 -21 11 -61 10 -61 -5 -8 -5 -9 79 0 79 0 -5 -50 -5 -50 23 -20 23 -20 33 0 32 0 16 6 16 6 0 14 0 14 11 0 12 0 -7 56 -7 57 60 -6 60 -7 4 8 4 7 -15 78 -15 77 -38 0 -39 0 0 10 0 10 -15 0 -15 0 0 19 0 19 6 16 6 16 14 0 14 0 0 11 0 11 50 -7 50 -7 0 75 0 74 -52 -4 -53 -5 -13 -4 -14 -4 7 -30 7 -30 -11 0 -11 0 0 -15 0 -14 -35 -7 -35 -6 -26 6 -26 7 5 36 6 36 -10 18 -10 19 -71 0 -71 0 5 -62z" transform="translate(0.000000,56.000000) scale(0.100000,-0.100000)"/></clipPath><clipPath id="piece-mask-35-38" shape-rendering="crispEdges"><path d="M147 463 l-7 -6 0 -59 0 -58 -10 0 -10 0 0 -14 0 -14 -29 -7 -28 -6 -26 6 -26 7 -7 -26 -6 -26 12 -30 12 -29 19 -6 19 -6 44 6 44 7 7 -21 7 -22 -8 -66 -7 -66 58 7 58 7 19 21 18 21 0 23 0 22 -12 5 -13 5 47 1 47 1 15 -29 15 -28 -6 -36 -5 -35 21 -7 21 -6 33 6 32 6 38 16 39 17 -6 30 -6 31 -6 52 -7 53 15 0 14 0 10 -10 11 -11 27 11 28 10 14 14 14 15 0 25 0 25 -15 15 -16 15 -34 7 -34 6 -11 -7 -11 -7 7 76 7 76 -210 0 -210 0 -6 -7z" transform="translate(0.000000,47.000000) scale(0.100000,-0.100000)"/></clipPath><clipPath id="piece-mask-35-39" shape-rendering="crispEdges"><path d="M317 523 l-7 -7 6 -33 6 -34 -23 -20 -24 -21 -73 4 -73 3 6 -23 6 -24 -7 -45 -7 -46 -58 6 -58 5 -5 -15 -6 -15 0 -45 0 -44 14 -15 14 -14 30 6 30 6 22 -76 23 -76 226 2 226 3 -1 71 0 72 -17 16 -16 17 -25 -7 -25 -6 -16 15 -15 16 0 14 0 15 6 16 6 15 26 -12 25 -12 5 13 4 12 12 0 13 0 11 25 12 26 0 51 0 51 -79 -7 -78 -7 -17 16 -17 17 7 34 6 33 -15 16 -16 15 -29 0 -29 0 -6 -7z" transform="translate(0.000000,53.000000) scale(0.100000,-0.100000)"/></clipPath><clipPath id="piece-mask-35-40" shape-rendering="crispEdges"><path d="M181 571 l-14 -9 7 -51 7 -52 -16 -15 -15 -16 -75 4 -75 3 0 -47 0 -47 12 -28 13 -28 20 -18 20 -19 33 6 33 5 -3 -27 -3 -27 -29 2 -28 2 -16 -15 -15 -16 -13 -76 -14 -76 4 -4 4 -3 72 -10 73 -10 8 13 9 13 0 47 0 47 19 11 20 10 10 0 11 0 20 -20 21 -21 -7 -34 -6 -34 15 -16 16 -15 43 0 43 0 24 7 23 6 -5 51 -5 51 -13 28 -12 27 -28 0 -27 0 -6 16 -6 16 0 26 0 27 9 14 9 14 12 -8 11 -7 34 6 34 7 11 37 10 37 0 38 0 37 -22 10 -23 9 -57 11 -58 11 -16 16 -15 15 6 27 6 27 -26 12 -26 12 -17 0 -17 0 -14 -9z" transform="translate(0.000000,58.000000) scale(0.100000,-0.100000)"/></clipPath><clipPath id="piece-mask-35-41" shape-rendering="crispEdges"><path d="M110 429 l0 -10 10 6 10 6 0 5 0 4 -10 0 -10 0 0 -11z M530 422 l0 -8 -32 -11 -33 -11 -48 -7 -49 -6 7 -26 6 -26 -13 -8 -13 -9 -42 0 -42 0 -5 18 -6 17 9 32 9 31 -6 6 -5 6 -73 0 -72 0 5 -59 6 -59 -7 -26 -6 -25 -58 -3 -57 -3 -3 -25 -2 -25 9 -14 9 -15 73 2 72 1 -6 -62 -6 -62 -10 -3 -11 -4 0 -19 0 -19 203 0 202 0 -9 75 -10 75 -34 0 -33 0 -15 14 -14 15 0 30 0 31 25 5 25 5 25 5 25 5 5 23 5 22 8 63 9 62 -9 0 -8 0 0 -8z" transform="translate(0.000000,44.000000) scale(0.100000,-0.100000)"/></clipPath><clipPath id="piece-mask-35-42" shape-rendering="crispEdges"><path d="M285 538 l6 -33 -17 -40 -16 -40 -12 -7 -11 -8 -20 0 -20 0 -15 10 -15 9 0 58 0 58 -77 3 -78 3 0 -53 0 -53 -6 -22 -6 -22 36 -5 36 -6 34 -5 35 -6 6 -18 6 -19 -13 -27 -12 -27 -37 6 -37 6 -10 -28 -10 -27 -5 -44 -5 -43 5 -14 5 -14 74 0 74 0 -7 -45 -6 -45 23 -20 23 -20 32 0 32 0 23 20 23 20 -6 34 -5 34 21 6 22 6 51 0 52 0 5 27 5 28 15 52 15 52 16 16 16 16 17 -3 18 -3 3 22 3 22 -11 21 -11 21 -34 -7 -34 -6 -18 17 -17 17 -5 71 -6 71 -25 7 -25 7 -53 1 -53 1 6 -32z" transform="translate(0.000000,57.000000) scale(0.100000,-0.100000)"/></clipPath><clipPath id="piece-mask-35-43" shape-rendering="crispEdges"><path d="M120 474 l0 -75 -15 -16 -16 -15 -29 6 -30 5 -15 -5 -15 -6 0 -20 0 -19 11 -20 10 -20 28 6 29 6 15 -15 15 -15 7 -77 7 -77 74 7 75 6 -11 -19 -10 -20 0 -30 0 -30 16 -15 15 -16 40 0 40 0 14 13 13 14 4 29 3 29 25 3 25 3 53 16 52 16 0 4 0 4 -15 15 -14 15 -11 41 -11 41 5 23 6 24 65 0 64 0 11 19 10 20 0 20 0 20 -19 11 -20 10 -30 0 -29 0 -16 6 -16 6 0 69 0 70 -17 -10 -18 -9 -58 -13 -59 -13 6 -31 6 -32 -30 -13 -30 -12 -26 6 -26 7 -15 15 -15 15 4 50 5 49 -68 0 -69 0 0 -76z" transform="translate(0.000000,55.000000) scale(0.100000,-0.100000)"/></clipPath><clipPath id="piece-mask-35-44" shape-rendering="crispEdges"><path d="M305 516 l7 -35 -17 -17 -16 -17 -68 -5 -67 -4 4 -60 5 -60 -14 -9 -14 -9 -45 0 -45 0 -14 -9 -13 -8 0 -38 0 -38 14 -9 13 -9 36 6 37 5 10 -28 11 -27 6 -61 7 -61 60 -7 60 -6 15 15 15 16 -5 20 -5 19 9 35 10 35 12 0 12 0 22 6 21 6 21 -21 21 -21 -6 -44 -7 -45 17 -17 17 -16 52 6 52 7 13 7 12 8 -20 57 -20 57 0 17 0 18 10 15 9 14 56 -2 56 -2 19 10 20 11 0 44 0 45 -7 0 -8 0 -38 -11 -37 -10 -13 13 -13 13 -13 32 -13 33 4 30 5 30 -16 0 -16 0 -45 -11 -44 -10 -23 6 -22 5 -3 58 -3 57 -43 3 -43 3 6 -35z" transform="translate(0.000000,55.000000) scale(0.100000,-0.100000)"/></clipPath><clipPath id="piece-mask-35-45" shape-rendering="crispEdges"><path d="M291 571 l-13 -9 0 -43 1 -44 -12 -7 -12 -8 -73 0 -74 0 7 -73 7 -73 -39 4 -38 4 -23 -20 -22 -19 0 -27 0 -27 14 -15 15 -14 9 0 10 0 11 -30 11 -30 11 -30 11 -29 18 -21 17 -20 66 0 66 0 25 12 26 11 5 17 6 18 -13 27 -12 26 15 10 14 9 22 0 22 0 16 -17 17 -17 -5 -55 -5 -56 14 -13 13 -12 15 0 15 0 57 21 56 21 -7 22 -6 21 -17 60 -16 60 -13 13 -14 14 -14 -5 -14 -6 -3 17 -4 17 4 23 5 24 28 -6 29 -5 15 5 15 6 11 41 11 41 -7 43 -6 43 -2 0 -2 0 -40 -15 -40 -14 -38 -1 -38 0 -15 14 -14 14 6 31 6 30 -6 26 -6 25 -33 0 -32 0 -14 -9z" transform="translate(0.000000,58.000000) scale(0.100000,-0.100000)"/></clipPath><clipPath id="piece-mask-35-46" shape-rendering="crispEdges"><path d="M8 513 l-3 -48 5 -35 5 -35 41 3 42 3 16 -16 16 -16 0 -20 0 -20 -11 -22 -12 -22 -11 -7 -11 -8 -31 6 -31 6 -6 -59 -6 -60 -7 -16 -6 -17 68 0 69 0 14 -9 14 -9 -6 -23 -5 -24 -7 -20 -6 -21 33 -12 33 -11 23 5 22 6 0 14 0 14 11 0 12 0 -6 50 -6 50 22 1 22 1 35 -1 35 -2 28 -5 27 -6 0 216 0 215 -15 -6 -16 -5 -57 -12 -57 -11 3 -19 3 -19 -5 -23 -6 -24 -11 0 -10 0 -15 -15 -15 -15 -13 0 -13 0 -22 19 -21 18 -11 31 -10 31 10 19 10 19 -6 7 -6 6 -68 0 -67 0 -4 -47z" transform="translate(0.000000,56.000000) scale(0.100000,-0.100000)"/></clipPath><clipPath id="piece-mask-35-47" shape-rendering="crispEdges"><path d="M313 555 l-5 -16 6 -39 6 -39 -17 -16 -16 -17 -83 4 -83 3 -3 -70 -3 -70 -10 1 -10 2 -22 6 -21 7 -26 -26 -26 -26 0 -22 0 -22 9 -14 10 -15 43 0 43 -1 7 -10 8 -10 0 -76 0 -77 23 -6 22 -6 63 0 63 0 16 15 15 16 -6 35 -7 35 6 19 6 20 34 0 34 0 7 -12 8 -12 -3 -41 -2 -41 26 -12 26 -12 51 0 51 0 -7 61 -7 60 -6 14 -5 14 -33 7 -33 6 -6 30 -6 30 11 20 11 21 49 -6 48 -6 7 21 6 20 -7 66 -7 65 -64 -6 -65 -6 -27 11 -27 12 -4 3 -4 2 12 30 13 29 -16 31 -17 31 -25 0 -25 0 -6 -15z" transform="translate(0.000000,57.000000) scale(0.100000,-0.100000)"/></clipPath><clipPath id="piece-mask-35-48" shape-rendering="crispEdges"><path d="M130 387 l0 -58 -12 -22 -11 -22 -14 -14 -14 -13 -40 5 -39 5 0 -28 0 -28 6 -16 6 -16 54 0 54 0 6 -25 6 -26 -4 -58 -4 -58 70 -6 70 -6 8 12 8 12 -6 32 -6 33 6 25 6 25 44 0 43 0 11 -26 12 -25 -6 -23 -5 -23 16 -17 16 -16 57 0 57 0 22 6 23 6 -6 9 -5 9 11 42 11 43 11 28 11 28 21 -3 21 -3 3 34 3 34 -6 25 -6 26 -8 -13 -9 -13 -23 7 -23 8 -14 13 -13 14 -6 58 -6 57 -11 7 -11 8 -30 0 -30 0 -23 -6 -23 -7 5 -21 5 -22 -5 -21 -6 -21 -29 -12 -29 -12 -24 6 -23 6 -13 29 -12 29 11 20 11 21 0 5 0 5 -85 3 -85 3 0 -58z" transform="translate(0.000000,45.000000) scale(0.100000,-0.100000)"/></clipPath><clipPath id="piece-mask-35-49" shape-rendering="crispEdges"><path d="M140 467 l0 -79 -50 7 -50 7 0 -11 0 -11 -14 0 -14 0 -6 -16 -6 -16 0 -19 0 -19 15 0 15 0 0 -10 0 -10 39 0 39 0 12 -68 11 -68 9 -14 9 -15 91 -3 90 -4 0 -5 0 -4 -11 -21 -11 -20 12 -29 13 -29 23 -6 24 -6 29 12 29 12 6 22 5 22 -5 21 -6 22 36 6 36 7 33 -6 32 -6 15 10 15 10 -12 8 -12 8 9 65 10 66 6 16 6 16 31 3 32 3 3 36 3 36 -30 -5 -31 -4 0 11 0 11 -14 0 -14 0 -11 31 -11 32 0 39 0 39 -12 -8 -13 -7 -55 -11 -55 -11 -3 -29 -4 -28 -13 -14 -14 -13 -40 0 -40 0 -15 16 -16 15 0 30 0 30 10 18 9 18 -84 -1 -85 -1 0 -78z" transform="translate(0.000000,55.000000) scale(0.100000,-0.100000)"/></clipPath><clipPath id="piece-mask-35-50" shape-rendering="crispEdges"><path d="M297 410 l6 -60 -17 0 -16 0 0 -14 0 -15 -20 -6 -19 -6 -23 12 -23 12 -11 12 -12 11 2 40 1 39 -72 3 -73 3 0 -65 0 -65 16 -16 17 -16 29 3 29 3 9 -15 10 -15 0 -21 0 -22 -16 -6 -16 -6 -33 0 -34 0 -16 -17 -17 -16 6 -36 6 -36 0 -27 0 -27 16 -15 15 -16 72 0 72 0 15 10 15 9 0 58 0 58 27 3 27 3 16 -31 17 -32 -13 -29 -12 -30 4 -2 4 -3 28 -12 28 -12 55 6 54 7 0 3 0 3 -19 43 -19 43 -12 33 -12 32 -10 0 -9 0 -15 14 -14 15 0 27 0 27 22 19 23 20 38 -4 39 -4 -7 73 -7 73 13 0 12 0 -5 6 -6 5 -59 14 -58 14 -27 1 -26 0 5 -60z" transform="translate(0.000000,47.000000) scale(0.100000,-0.100000)"/></clipPath><clipPath id="piece-mask-35-51" shape-rendering="crispEdges"><path d="M280 500 l10 -20 -6 -24 -6 -23 -24 -12 -25 -11 -54 0 -55 0 0 -50 0 -49 -12 -26 -11 -25 -13 0 -12 0 -4 -12 -5 -13 -25 12 -26 12 -6 -15 -6 -16 0 -15 0 -14 15 -16 16 -15 25 6 25 7 16 -17 16 -16 5 -74 5 -74 206 2 206 3 -3 70 -4 70 58 0 57 0 5 13 4 12 13 0 13 0 6 16 6 16 0 15 0 14 -17 17 -17 17 -53 -1 -53 -2 0 79 0 78 -83 -2 -84 -2 -18 18 -18 18 10 22 10 22 -4 13 -5 12 -44 0 -45 0 11 -20z" transform="translate(0.000000,52.000000) scale(0.100000,-0.100000)"/></clipPath><clipPath id="piece-mask-35-52" shape-rendering="crispEdges"><path d="M306 640 l6 -39 -18 -18 -18 -18 -73 0 -74 0 3 -79 3 -80 -51 3 -51 2 -17 -16 -16 -16 0 -12 0 -12 8 -11 7 -12 41 -12 40 -12 37 10 37 10 0 -33 0 -34 -15 -45 -15 -44 6 -16 6 -15 66 -3 67 -3 0 -58 0 -58 15 -9 15 -10 20 0 20 0 11 8 12 7 16 40 17 40 -6 33 -6 32 48 0 48 0 39 -11 39 -11 7 12 8 12 7 70 6 70 30 -6 29 -5 15 5 15 6 0 14 0 14 10 0 10 0 0 23 0 24 -21 24 -21 24 -44 -2 -44 -1 0 72 0 73 -42 11 -43 12 -42 10 -42 10 -6 19 -5 18 6 17 6 16 -56 0 -56 0 6 -40z" transform="translate(0.000000,68.000000) scale(0.100000,-0.100000)"/></clipPath><clipPath id="piece-mask-35-53" shape-rendering="crispEdges"><path d="M287 412 l5 -48 -16 -16 -16 -17 0 -10 0 -11 -26 0 -25 0 -13 13 -13 12 -12 24 -13 23 6 31 6 30 -46 -7 -47 -6 -40 0 -39 0 4 -68 3 -69 18 -18 18 -17 34 6 34 7 11 -21 11 -21 -3 -22 -3 -22 -18 3 -17 3 -16 -16 -16 -16 -15 -52 -15 -52 -5 -28 -5 -27 63 0 64 0 15 10 15 9 -3 60 -2 59 30 7 30 7 31 -7 31 -7 -5 -42 -6 -41 7 -11 7 -11 66 -12 66 -11 9 0 9 0 -4 85 -3 85 16 0 16 0 0 9 0 9 53 -2 52 -1 3 49 3 49 -41 -7 -40 -6 -25 6 -24 6 -11 34 -12 34 7 38 6 38 -51 12 -52 12 -28 0 -29 0 6 -48z" transform="translate(0.000000,46.000000) scale(0.100000,-0.100000)"/></clipPath><clipPath id="piece-mask-35-54" shape-rendering="crispEdges"><path d="M275 381 l7 -49 -27 -26 -26 -26 -24 0 -24 0 -16 16 -17 17 4 51 3 51 -77 3 -78 3 0 -211 0 -210 210 0 210 0 0 5 0 4 -15 33 -14 33 -11 42 -10 41 -30 7 -30 7 0 31 0 32 10 15 9 15 45 -2 44 -1 6 24 6 23 -6 55 -6 54 -37 6 -36 6 -38 0 -39 0 7 -49z" transform="translate(0.000000,44.000000) scale(0.100000,-0.100000)"/></clipPath><clipPath id="piece-mask-35-55" shape-rendering="crispEdges"><path d="M284 501 l1 -40 -7 -6 -6 -7 -39 -9 -38 -9 -32 0 -33 0 0 -37 0 -38 -10 -37 -11 -37 -34 -7 -34 -6 -11 7 -12 8 -9 -14 -9 -14 0 -27 0 -26 6 -16 6 -16 27 0 28 0 12 -27 12 -27 6 -47 6 -47 21 -6 21 -5 47 -6 46 -7 20 7 21 6 -6 48 -5 49 21 21 21 21 24 0 25 0 6 -19 5 -18 -6 -16 -6 -16 15 -15 14 -14 54 -10 54 -11 19 -7 18 -7 -5 19 -6 19 -12 56 -12 57 14 15 14 15 55 -5 55 -5 19 14 18 15 -6 21 -7 22 -22 2 -22 1 -22 -2 -23 -2 -20 11 -20 11 0 42 1 42 8 42 8 42 -31 7 -31 6 -53 20 -54 20 5 19 5 19 -53 0 -52 0 1 -39z" transform="translate(0.000000,54.000000) scale(0.100000,-0.100000)"/></clipPath><clipPath id="piece-mask-35-56" shape-rendering="crispEdges"><path d="M305 680 l-6 -19 7 -35 6 -35 -16 -17 -17 -16 -85 4 -84 4 0 -65 0 -66 -10 -15 -9 -15 -34 3 -34 3 -13 -30 -12 -30 15 -16 15 -15 26 -10 26 -10 30 6 30 7 0 -20 0 -20 -12 -57 -11 -58 14 -9 14 -9 58 0 58 0 -6 -43 -7 -42 22 -25 21 -24 33 0 33 0 17 16 16 17 0 9 0 10 13 5 12 5 -12 13 -13 13 0 12 0 13 68 6 68 7 15 12 16 11 16 49 17 50 0 22 0 22 -6 15 -6 15 -52 -5 -52 -5 -17 17 -17 16 0 34 0 34 35 -6 35 -6 0 12 0 11 13 0 14 0 11 25 12 26 0 44 0 45 -60 0 -59 0 -26 12 -26 12 2 41 3 41 -8 12 -7 12 -34 0 -34 0 -6 -20z" transform="translate(0.000000,70.000000) scale(0.100000,-0.100000)"/></clipPath><clipPath id="piece-mask-35-57" shape-rendering="crispEdges"><path d="M302 683 l-13 -5 7 -34 6 -35 -22 -19 -22 -19 -42 -6 -42 -7 -20 4 -19 3 -3 -76 -3 -75 -30 4 -29 4 -30 -12 -29 -12 -7 -21 -7 -21 12 -4 11 -4 0 -13 0 -13 35 -12 35 -12 32 7 31 7 -6 -58 -6 -59 -6 -21 -7 -21 24 -6 23 -7 52 0 52 0 -6 -50 -6 -50 23 -20 23 -20 40 0 40 0 24 27 24 28 -6 54 -7 54 65 -7 65 -6 16 15 15 16 11 37 10 37 0 23 0 23 -14 14 -13 13 -40 -5 -40 -5 -22 12 -22 11 3 27 3 27 40 1 40 1 18 1 17 2 0 84 0 83 -57 -13 -58 -14 -17 0 -17 0 -14 15 -15 14 6 47 5 47 -18 14 -19 13 -30 -1 -31 -1 -13 -5z" transform="translate(0.000000,69.000000) scale(0.100000,-0.100000)"/></clipPath><clipPath id="piece-mask-35-58" shape-rendering="crispEdges"><path d="M314 536 l-6 -14 12 -22 11 -21 -6 -18 -6 -19 -30 -12 -30 -13 -59 6 -60 5 0 -48 0 -47 -6 -32 -7 -32 -47 6 -47 6 -17 -16 -16 -16 0 -24 0 -24 15 -15 15 -15 0 -9 0 -10 26 -6 25 -7 36 7 36 7 -6 -71 -7 -70 16 -6 16 -6 54 0 55 0 22 11 22 12 7 11 7 11 -6 37 -6 38 17 6 16 6 25 -6 25 -6 0 -40 0 -39 18 -5 17 -6 52 -10 53 -9 15 6 16 6 -7 79 -7 80 47 -7 46 -7 29 12 30 12 6 15 5 16 -5 17 -6 18 -24 6 -25 6 -40 -6 -40 -7 0 80 0 81 -14 11 -14 12 -4 -12 -4 -11 -66 -5 -67 -6 -15 16 -16 15 6 31 6 30 -6 26 -6 25 -36 0 -35 0 -5 -14z" transform="translate(0.000000,55.000000) scale(0.100000,-0.100000)"/></clipPath><clipPath id="piece-mask-35-59" shape-rendering="crispEdges"><path d="M120 428 l0 -33 -10 -37 -11 -37 -16 -17 -16 -16 -34 5 -34 6 3 -37 3 -37 50 1 50 1 12 -13 13 -13 0 -43 -1 -43 -8 -42 -8 -43 77 0 78 0 -5 59 -6 58 12 7 11 7 31 1 31 1 9 -14 10 -14 -6 -53 -5 -53 15 -15 15 -16 42 7 41 7 33 14 34 14 0 4 0 4 -20 47 -20 47 0 24 0 25 13 13 12 14 51 -5 50 -5 17 17 17 16 0 24 0 24 -49 -2 -49 -2 -7 7 -8 7 -8 43 -8 43 6 37 5 37 -33 -9 -34 -8 -37 -7 -38 -6 0 -27 0 -28 -34 -12 -34 -13 -25 12 -26 12 2 41 2 41 -77 3 -78 3 0 -33z" transform="translate(0.000000,46.000000) scale(0.100000,-0.100000)"/></clipPath><clipPath id="piece-mask-35-60" shape-rendering="crispEdges"><path d="M2 337 l3 -212 35 -3 35 -2 33 -6 33 -5 -7 -34 -6 -34 14 -14 13 -14 27 -6 27 -7 27 10 27 11 19 21 18 21 -6 35 -7 35 68 -6 67 -6 14 14 14 14 6 45 7 45 -7 25 -6 26 -54 0 -54 0 -6 16 -6 16 0 29 0 29 24 -6 25 -6 19 6 19 6 11 26 12 25 0 60 0 60 -220 -1 -220 -1 2 -212z" transform="translate(0.000000,55.000000) scale(0.100000,-0.100000)"/></clipPath><clipPath id="piece-mask-35-61" shape-rendering="crispEdges"><path d="M393 511 l7 -31 -12 -25 -11 -24 -30 -11 -30 -10 -7 0 -7 0 -23 20 -23 20 11 25 11 24 -15 16 -15 15 -70 0 -69 0 0 -55 0 -54 -12 -25 -11 -26 -19 -6 -19 -6 -25 6 -25 7 3 -38 3 -38 37 -3 37 -3 11 -37 10 -37 0 -30 0 -30 6 -22 6 -23 37 0 36 0 37 -10 37 -11 6 -18 5 -18 -6 -18 -7 -17 14 -9 14 -9 28 0 28 0 15 15 15 14 -6 24 -6 24 86 12 86 13 13 13 13 13 13 61 13 61 19 0 19 0 15 14 14 15 0 34 0 35 -6 16 -6 16 -43 0 -43 0 -6 23 -6 22 0 55 0 55 -76 3 -77 4 6 -31z" transform="translate(0.000000,54.000000) scale(0.100000,-0.100000)"/></clipPath><clipPath id="piece-mask-35-62" shape-rendering="crispEdges"><path d="M179 523 l-1 -8 2 -10 1 -9 -5 -32 -6 -31 -26 -11 -25 -12 -54 0 -55 0 -2 -27 -2 -28 3 -34 2 -35 17 -12 16 -12 29 11 30 10 14 -18 13 -19 0 -34 0 -34 -34 6 -33 6 -12 -27 -11 -28 -9 -45 -9 -45 -7 -22 -7 -23 229 0 229 0 11 43 12 42 6 28 5 27 23 -5 23 -6 12 26 12 26 0 29 0 29 -26 26 -26 26 -32 -3 -31 -3 3 63 3 63 -13 12 -13 12 -40 3 -40 3 -27 10 -27 11 -6 19 -6 19 5 9 6 9 -31 6 -31 6 -29 0 -29 0 -1 -7z" transform="translate(0.000000,53.000000) scale(0.100000,-0.100000)"/></clipPath><clipPath id="piece-mask-35-63" shape-rendering="crispEdges"><path d="M416 451 l-6 -8 -70 -7 -70 -7 0 -13 0 -12 13 -13 12 -14 -12 -4 -13 -5 0 -10 0 -9 -16 -17 -17 -16 -33 0 -33 0 -21 24 -22 25 7 42 6 43 -64 0 -64 0 -7 -52 -6 -53 0 -27 0 -28 27 11 26 10 29 -6 28 -7 15 -15 15 -14 0 -23 0 -23 -20 -23 -20 -23 -29 6 -30 6 -5 -17 -4 -17 -6 -40 -7 -40 -5 -27 -6 -28 86 0 86 0 2 13 1 12 1 40 1 39 15 3 15 3 13 -8 13 -9 6 -51 6 -52 18 -5 18 -6 62 11 62 11 12 12 12 12 -7 61 -7 60 -7 21 -7 22 -37 3 -37 3 -3 38 -3 38 25 -7 25 -6 19 6 19 6 11 26 12 25 0 59 0 60 -9 0 -10 0 -5 -9z" transform="translate(0.000000,46.000000) scale(0.100000,-0.100000)"/></clipPath><clipPath id="piece-mask-35-64" shape-rendering="crispEdges"><path d="M335 673 l-20 -5 -7 -12 -8 -11 6 -34 7 -33 -14 -9 -14 -9 -72 0 -72 0 -3 -76 -3 -76 -51 -2 -51 -1 -16 -17 -17 -17 0 -20 0 -21 14 0 14 0 4 -12 4 -12 37 0 36 0 5 -38 6 -38 6 -39 5 -39 22 -6 22 -6 46 0 45 0 19 -14 19 -14 -12 -27 -13 -27 6 -18 5 -17 26 -11 25 -12 25 0 25 0 16 15 15 16 -6 34 -7 34 23 5 23 5 61 11 62 12 5 42 6 41 7 39 7 38 -40 -7 -40 -6 -39 16 -38 16 -8 12 -8 12 0 33 0 32 15 0 15 0 0 9 0 10 18 5 17 6 32 -9 32 -9 5 15 6 15 0 59 0 59 -36 -15 -36 -15 -27 0 -26 0 -13 9 -14 8 7 46 7 45 -21 21 -21 21 -17 -1 -18 -1 -20 -5z" transform="translate(0.000000,68.000000) scale(0.100000,-0.100000)"/></clipPath><clipPath id="piece-mask-35-65" shape-rendering="crispEdges"><path d="M185 622 l6 -49 -31 -13 -31 -13 -59 6 -59 5 -6 -39 -7 -39 12 -34 11 -34 24 -6 25 -6 40 6 41 7 -3 -49 -3 -49 -52 1 -53 2 0 -9 0 -9 -15 0 -15 0 0 -71 0 -70 14 -15 15 -14 69 0 69 0 -5 -30 -4 -30 12 -29 12 -30 15 -5 15 -6 24 6 23 6 7 33 6 33 -7 32 -7 33 86 -8 86 -7 0 45 0 44 -6 45 -6 45 -42 -4 -42 -5 -17 17 -17 16 0 24 0 24 17 16 17 17 48 -5 48 -6 0 74 0 75 -5 0 -6 0 -36 -15 -35 -15 -27 0 -26 0 -14 9 -14 9 6 42 5 42 -10 24 -11 24 -45 0 -44 0 7 -48z" transform="translate(0.000000,67.000000) scale(0.100000,-0.100000)"/></clipPath><clipPath id="piece-mask-35-66" shape-rendering="crispEdges"><path d="M194 529 l-16 -32 6 -29 6 -30 -15 -15 -16 -15 -79 4 -80 3 0 -61 0 -61 19 -21 18 -22 17 0 17 0 20 10 19 11 0 -29 0 -29 -6 -31 -6 -31 -29 -6 -28 -6 -11 -37 -10 -37 0 -32 0 -33 215 0 216 0 6 18 7 17 9 6 9 6 5 61 6 61 -72 -1 -73 -2 -9 15 -9 14 2 25 3 25 55 3 55 3 7 12 8 12 0 52 0 52 -9 23 -9 23 -33 12 -34 12 -42 11 -43 11 0 9 0 10 -15 0 -15 0 0 15 0 15 10 0 10 0 0 14 0 14 -22 6 -23 6 -12 0 -12 0 -17 -31z" transform="translate(0.000000,56.000000) scale(0.100000,-0.100000)"/></clipPath><clipPath id="piece-mask-35-67" shape-rendering="crispEdges"><path d="M188 640 l4 -30 -11 0 -11 0 0 -13 0 -14 -25 -11 -26 -12 -59 0 -60 0 0 -197 0 -198 8 -12 8 -12 69 -3 70 -3 -3 -51 -4 -51 17 -17 16 -16 24 0 24 0 26 26 27 26 -7 51 -7 50 79 -7 80 -6 14 76 13 76 17 19 17 20 26 -7 25 -6 6 25 7 25 -4 23 -3 24 -20 -2 -20 -1 -20 -7 -21 -6 -22 19 -22 19 0 61 0 60 -62 -19 -62 -20 -29 12 -28 12 6 16 6 16 6 26 5 27 -11 21 -12 21 -28 0 -28 0 5 -30z" transform="translate(0.000000,67.000000) scale(0.100000,-0.100000)"/></clipPath><clipPath id="piece-mask-35-68" shape-rendering="crispEdges"><path d="M20 360 l0 -71 35 7 36 6 19 -22 20 -23 0 -15 0 -16 -12 -33 -12 -34 -23 -5 -23 -6 -30 4 -31 5 3 -73 3 -73 20 -5 20 -6 43 0 43 0 22 12 22 11 14 14 14 14 -12 25 -11 25 0 4 0 5 33 0 32 0 15 -10 15 -9 -3 -30 -3 -29 18 -5 18 -5 48 -7 47 -6 19 6 18 5 7 71 6 71 15 14 14 15 25 -7 25 -6 20 7 21 6 0 34 0 34 -39 11 -39 10 -15 -6 -15 -6 -21 11 -20 11 6 72 6 71 -18 -7 -18 -7 -46 -10 -46 -10 -17 -5 -17 -5 6 -33 5 -33 -17 -16 -16 -17 -25 0 -24 0 0 10 0 10 -15 0 -15 0 -6 25 -6 25 6 35 7 35 -76 0 -75 0 0 -70z" transform="translate(0.000000,43.000000) scale(0.100000,-0.100000)"/></clipPath><clipPath id="piece-mask-35-69" shape-rendering="crispEdges"><path d="M191 541 l-14 -9 7 -35 7 -35 -17 -17 -17 -17 -73 4 -72 3 -5 -58 -5 -59 10 -28 10 -29 48 6 48 6 12 -22 11 -22 -6 -20 -7 -21 -24 6 -25 7 -13 -13 -12 -13 -13 -60 -13 -60 -5 -21 -5 -21 24 -6 23 -7 43 0 43 0 14 14 14 14 -5 34 -6 35 17 16 16 17 20 0 20 0 20 -10 19 -11 0 -38 0 -39 14 -5 13 -5 47 -7 46 -7 26 6 26 7 -7 47 -6 47 -10 38 -10 38 -32 -3 -31 -3 -6 25 -6 25 4 20 4 21 34 -4 35 -4 19 22 20 23 0 61 0 61 -75 -3 -75 -4 0 11 0 11 -15 0 -15 0 0 15 0 15 9 0 8 0 -4 24 -5 24 -24 11 -25 11 -17 0 -17 0 -14 -9z" transform="translate(0.000000,55.000000) scale(0.100000,-0.100000)"/></clipPath><clipPath id="piece-mask-35-70" shape-rendering="crispEdges"><path d="M0 540 l0 -10 10 0 10 0 0 -69 0 -68 50 5 50 5 20 -23 20 -23 0 -20 0 -20 -22 -18 -21 -19 -33 6 -32 6 -7 -49 -6 -48 -5 -37 -6 -38 72 0 72 0 -7 -40 -7 -41 23 -19 22 -20 17 0 17 0 32 11 32 11 -6 27 -6 28 58 12 58 12 18 5 17 5 0 82 0 82 -8 10 -7 10 -43 1 -43 0 -10 15 -9 14 0 22 0 22 26 26 26 26 21 -7 22 -6 10 -2 10 -1 3 66 3 66 -53 -4 -53 -4 -23 -5 -22 -4 10 -20 10 -19 0 -10 0 -11 -14 0 -14 0 -4 -11 -3 -10 -30 -1 -30 -1 -32 7 -32 7 6 46 6 45 -72 -4 -71 -3 0 8 0 7 -10 0 -10 0 0 -10z" transform="translate(0.000000,55.000000) scale(0.100000,-0.100000)"/></clipPath><clipPath id="piece-mask-35-71" shape-rendering="crispEdges"><path d="M312 661 l-14 -8 0 -39 1 -39 -5 -17 -5 -18 -80 0 -79 0 0 -66 0 -65 -43 6 -42 6 -11 -8 -11 -8 -12 -22 -11 -22 0 -19 0 -19 20 -23 20 -23 25 11 26 12 3 -13 3 -12 17 -70 17 -69 12 -8 12 -8 73 6 72 6 0 -44 0 -45 19 -21 18 -22 28 0 28 0 18 21 19 22 -6 38 -7 39 59 0 59 0 23 6 23 7 -6 56 -6 56 -11 27 -10 28 -37 -5 -36 -6 -13 9 -14 9 0 38 0 38 14 8 13 9 42 0 41 0 16 6 16 6 -1 52 -1 51 -6 20 -7 20 -27 1 -28 0 -38 2 -39 2 -21 18 -21 19 6 36 6 37 -44 0 -44 0 -13 -9z" transform="translate(0.000000,67.000000) scale(0.100000,-0.100000)"/></clipPath><clipPath id="piece-mask-35-72" shape-rendering="crispEdges"><path d="M172 533 l-63 -4 6 -43 7 -42 -11 -41 -11 -41 -15 -6 -15 -5 -29 5 -28 6 -5 -24 -4 -23 4 -17 3 -17 14 6 14 5 14 -14 14 -13 7 -30 7 -30 16 -54 16 -53 69 6 68 7 0 -40 0 -40 16 -15 15 -16 44 0 44 0 16 16 16 16 -6 29 -7 29 40 0 40 0 29 6 30 6 12 50 11 50 0 35 0 35 -30 -7 -30 -7 -35 12 -35 12 0 13 0 13 -11 4 -12 4 7 21 7 21 29 12 30 12 30 -4 30 -5 0 74 0 74 -72 -7 -73 -7 -8 -4 -9 -5 6 -25 7 -24 -16 -16 -16 -15 -40 5 -40 5 -19 22 -19 21 6 35 6 34 -4 -2 -4 -2 -63 -3z" transform="translate(0.000000,54.000000) scale(0.100000,-0.100000)"/></clipPath><clipPath id="piece-mask-35-73" shape-rendering="crispEdges"><path d="M127 433 l-7 -6 0 -43 0 -43 -12 -26 -11 -25 -9 0 -9 0 -16 -16 -16 -15 -23 5 -24 6 0 -36 0 -35 15 -16 16 -15 34 6 34 7 11 -42 12 -42 -4 -46 -3 -46 49 -3 49 -3 29 12 29 12 -7 58 -7 59 14 0 14 0 21 6 21 6 16 -16 15 -16 -5 -39 -5 -39 33 -10 34 -10 57 -6 56 -6 16 6 15 6 6 53 7 53 -7 22 -7 22 -44 -7 -44 -6 -19 6 -19 6 -12 29 -12 30 6 26 7 25 28 -6 28 -6 27 7 26 6 0 14 0 14 10 0 10 0 0 65 0 65 -208 0 -209 0 -6 -7z" transform="translate(0.000000,44.000000) scale(0.100000,-0.100000)"/></clipPath><clipPath id="piece-mask-35-74" shape-rendering="crispEdges"><path d="M315 526 l7 -43 -27 -27 -26 -26 -30 0 -30 0 -20 19 -21 19 12 22 12 22 -6 14 -5 14 -81 0 -80 0 0 -72 0 -73 9 -14 10 -15 38 1 38 1 23 -4 22 -4 0 -24 0 -25 -17 -16 -17 -17 -45 5 -45 5 -19 -21 -18 -21 5 -21 6 -20 0 -21 0 -21 18 -21 19 -21 74 -3 74 -3 -3 -38 -3 -38 15 -15 16 -15 35 -6 35 -6 6 32 6 31 42 10 41 11 46 20 47 21 20 47 21 46 6 23 6 22 10 0 10 0 13 13 13 12 6 25 6 25 -12 16 -12 16 -37 12 -38 12 -10 -6 -10 -6 0 84 0 84 -64 11 -63 12 -17 0 -17 0 6 -44z" transform="translate(0.000000,57.000000) scale(0.100000,-0.100000)"/></clipPath><clipPath id="piece-mask-35-75" shape-rendering="crispEdges"><path d="M175 643 l6 -38 -9 -13 -9 -13 -39 -9 -39 -10 -42 0 -43 0 0 -57 0 -58 9 -14 9 -13 49 7 50 6 17 -16 16 -16 0 -19 0 -19 -12 -26 -12 -26 -25 2 -26 1 -11 -1 -11 -1 -7 -41 -7 -41 -14 -29 -15 -28 0 -17 0 -17 63 5 62 6 10 -4 10 -4 -3 -48 -4 -47 20 -23 19 -22 19 0 19 0 15 10 15 9 -1 51 0 50 30 4 31 5 44 5 44 4 9 14 9 13 -6 59 -6 59 -13 13 -14 13 -28 -2 -29 -2 -3 45 -3 45 45 0 44 0 7 7 7 6 9 39 9 38 0 49 0 48 -15 -5 -14 -6 -63 13 -63 14 -18 7 -17 7 6 34 6 34 -46 0 -46 0 5 -37z" transform="translate(0.000000,68.000000) scale(0.100000,-0.100000)"/></clipPath><clipPath id="piece-mask-35-76" shape-rendering="crispEdges"><path d="M276 439 l6 -54 -20 -23 -21 -24 -40 -5 -40 -5 -15 15 -15 15 5 33 5 34 -9 12 -8 12 -55 7 -56 6 -7 -32 -6 -33 0 -47 0 -47 49 -5 49 -5 16 -16 16 -16 0 -20 0 -21 -10 0 -10 0 0 -15 0 -15 -15 0 -15 0 0 -10 0 -11 -35 7 -34 6 -6 -23 -5 -24 2 -45 3 -45 10 -7 10 -8 47 0 47 0 26 12 26 12 -6 48 -7 48 44 0 45 0 11 -24 10 -24 -5 -42 -6 -42 14 -9 14 -9 24 0 23 0 49 17 49 18 -6 15 -6 15 -8 58 -9 59 12 25 11 24 47 -6 48 -7 21 7 21 7 -3 36 -3 37 -20 -2 -20 -2 -32 -7 -33 -6 0 11 0 11 -15 0 -15 0 0 73 0 74 -27 12 -27 12 -48 6 -49 6 7 -54z" transform="translate(0.000000,49.000000) scale(0.100000,-0.100000)"/></clipPath><clipPath id="piece-mask-35-77" shape-rendering="crispEdges"><path d="M7 463 l-7 -6 0 -209 0 -208 60 0 59 0 26 12 25 11 0 14 0 13 11 0 11 0 -4 30 -5 30 28 0 28 0 12 -21 11 -21 -5 -27 -6 -26 -6 -16 -6 -16 28 -12 29 -12 66 21 66 20 6 23 6 22 0 68 0 67 -15 0 -15 0 0 10 0 10 -40 -6 -39 -6 -6 25 -7 26 7 21 7 22 45 -7 46 -7 8 14 9 13 0 64 0 63 -22 -5 -23 -6 -55 -13 -55 -14 -1 -29 -1 -30 -1 -12 -2 -11 -31 -11 -32 -11 -7 0 -7 0 -22 19 -21 18 2 49 3 48 -25 7 -25 7 -51 1 -51 1 -6 -7z" transform="translate(0.000000,47.000000) scale(0.100000,-0.100000)"/></clipPath><clipPath id="piece-mask-35-78" shape-rendering="crispEdges"><path d="M177 514 l-6 -6 11 -24 11 -24 -23 -20 -24 -21 -23 -5 -23 -6 -44 3 -44 4 -7 -58 -6 -57 5 -8 5 -9 29 5 29 4 27 -27 26 -26 0 -29 0 -29 -12 -26 -12 -26 -23 6 -23 5 -5 -27 -6 -28 -9 -31 -10 -30 0 -12 0 -12 208 2 207 3 3 30 3 30 10 37 9 36 29 7 29 6 6 31 6 31 0 29 0 29 -19 -11 -20 -10 -17 0 -17 0 -19 22 -19 23 3 65 3 65 -56 1 -56 1 -27 7 -27 7 3 30 3 30 -15 9 -15 10 -26 0 -26 0 -6 -6z" transform="translate(0.000000,52.000000) scale(0.100000,-0.100000)"/></clipPath><clipPath id="piece-mask-35-79" shape-rendering="crispEdges"><path d="M137 433 l-7 -6 0 -69 0 -68 -15 0 -15 0 0 -11 0 -11 -30 7 -30 6 -20 -6 -20 -6 0 -29 0 -28 6 -16 6 -16 38 0 39 0 5 -17 6 -18 10 -54 10 -55 -12 -8 -13 -8 15 -10 15 -10 35 0 35 0 38 9 39 9 6 7 7 6 -1 40 -1 39 52 0 53 0 -5 -19 -5 -19 56 -21 56 -21 40 -6 39 -6 6 28 7 29 10 27 10 28 -6 25 -6 24 -60 -2 -61 -2 -9 15 -10 15 2 35 3 35 53 6 53 7 4 4 4 4 -6 72 -6 72 -207 0 -207 0 -6 -7z" transform="translate(0.000000,44.000000) scale(0.100000,-0.100000)"/></clipPath><clipPath id="piece-mask-35-80" shape-rendering="crispEdges"><path d="M120 355 l0 -85 -17 -2 -18 -1 -40 -1 -40 -1 -3 -27 -3 -27 22 -11 22 -12 40 5 40 5 13 -13 14 -14 0 -28 -1 -28 -13 -35 -13 -35 -7 -16 -7 -17 55 -6 56 -7 20 6 20 6 -2 39 -1 38 13 31 12 31 30 0 29 0 20 -10 19 -11 0 -58 0 -59 16 -6 16 -6 33 0 34 0 26 10 27 10 -7 18 -8 17 -10 63 -9 62 -33 0 -33 0 -6 16 -6 16 0 25 0 26 22 18 21 19 21 -6 21 -7 13 -4 12 -5 0 77 0 77 -22 -7 -23 -7 -48 -10 -48 -11 6 -28 7 -29 -16 0 -16 0 0 -11 0 -12 -45 6 -46 5 -6 6 -6 6 12 26 12 26 -6 18 -6 18 -31 6 -30 6 -49 0 -49 0 0 -85z" transform="translate(0.000000,44.000000) scale(0.100000,-0.100000)"/></clipPath><clipPath id="piece-mask-35-81" shape-rendering="crispEdges"><path d="M4 547 l-4 -13 2 -194 3 -195 40 -3 40 -2 42 -5 41 -6 -9 -32 -9 -32 0 -11 0 -10 21 -23 21 -23 26 7 26 6 19 22 19 22 -5 47 -6 46 15 6 14 5 51 -9 52 -10 13 0 13 0 6 58 6 57 11 27 10 28 37 -6 37 -6 12 27 13 27 -6 19 -6 18 -35 6 -34 5 -33 5 -34 5 5 77 5 76 -33 -6 -32 -7 -50 0 -50 0 6 -32 6 -33 -8 -11 -7 -11 -22 -12 -23 -11 -24 6 -24 6 -6 21 -6 22 0 22 0 22 -19 11 -20 10 -51 0 -51 0 -5 -13z" transform="translate(0.000000,57.000000) scale(0.100000,-0.100000)"/></clipPath><clipPath id="piece-mask-35-82" shape-rendering="crispEdges"><path d="M117 393 l-6 -68 -6 -17 -7 -17 -29 -6 -29 -6 -20 6 -21 7 3 -49 3 -48 29 2 28 2 14 -14 14 -13 6 -71 7 -71 71 0 71 0 14 9 14 9 -7 33 -6 34 8 12 7 11 37 7 36 7 22 -22 22 -22 -7 -45 -7 -46 14 -8 13 -9 25 0 24 0 41 15 40 16 3 76 3 75 -35 -6 -35 -7 -25 7 -26 6 0 10 0 9 -15 15 -15 15 0 24 0 24 16 16 17 16 47 -6 47 -6 7 32 6 32 0 38 0 39 -7 0 -8 0 -68 -17 -68 -18 6 -23 6 -24 -22 -19 -22 -19 -34 0 -33 0 0 10 0 10 -15 0 -15 0 0 8 0 7 11 39 11 40 -18 13 -18 13 -56 0 -57 0 -6 -67z" transform="translate(0.000000,46.000000) scale(0.100000,-0.100000)"/></clipPath><clipPath id="piece-mask-35-83" shape-rendering="crispEdges"><path d="M11 426 l-12 -14 3 -69 3 -68 43 -1 44 0 9 -15 9 -14 0 -27 0 -26 -6 -16 -6 -16 -34 0 -34 0 0 -28 0 -29 -15 -49 -15 -49 0 -2 0 -3 38 0 37 0 33 9 32 10 16 16 16 16 -5 22 -4 22 -4 15 -4 15 34 3 34 3 25 -6 24 -6 -6 -30 -6 -31 16 -16 16 -16 56 -7 57 -8 7 12 8 12 -6 20 -5 20 -10 40 -10 41 -30 11 -30 12 3 38 3 38 41 -3 40 -3 12 26 12 26 0 69 0 70 -209 0 -209 0 -11 -14z" transform="translate(0.000000,44.000000) scale(0.100000,-0.100000)"/></clipPath><clipPath id="piece-mask-35-84" shape-rendering="crispEdges"><path d="M198 649 l-18 -10 0 -47 0 -47 -9 -13 -8 -13 -69 9 -69 9 -12 -4 -13 -5 0 -59 0 -58 12 -26 12 -27 36 6 35 5 14 -8 14 -9 -1 -38 -2 -38 -11 -7 -12 -7 -39 6 -40 5 -9 -14 -9 -14 0 -62 0 -63 25 -6 24 -6 52 4 51 3 -5 -32 -6 -32 19 -21 19 -22 40 -5 40 -5 15 15 15 15 -2 28 -2 29 81 8 81 9 0 26 -1 27 9 54 8 54 -31 -6 -31 -6 -31 10 -30 11 0 9 0 9 -14 0 -14 0 -6 16 -6 16 0 19 0 19 15 0 15 0 0 11 0 11 54 -4 55 -3 3 83 3 82 -15 -6 -15 -7 -57 -5 -57 -4 -17 16 -16 17 6 34 7 34 -21 21 -20 20 -12 0 -13 -1 -17 -10z" transform="translate(0.000000,66.000000) scale(0.100000,-0.100000)"/></clipPath><clipPath id="piece-mask-35-85" shape-rendering="crispEdges"><path d="M375 424 l6 -37 -11 -27 -11 -27 -25 -12 -25 -11 -19 0 -19 0 -16 17 -17 16 6 38 6 38 -16 15 -15 16 -56 0 -56 0 7 -54 6 -54 -6 -16 -6 -16 -38 0 -39 0 -15 -16 -16 -15 0 -22 0 -22 9 -14 9 -14 51 6 51 6 7 -27 7 -27 -1 -10 -1 -10 -7 -48 -6 -47 -15 0 -14 0 0 -9 0 -9 16 -6 16 -6 56 0 57 0 12 8 12 7 -1 44 0 43 13 9 14 9 32 0 33 0 6 -25 6 -26 -6 -30 -6 -31 14 -14 15 -14 33 0 33 0 38 11 37 10 0 72 0 72 9 14 9 14 40 -5 39 -6 12 7 11 7 2 38 1 38 -14 9 -14 8 -35 -5 -36 -6 -12 27 -12 26 0 58 0 59 -31 6 -31 6 -45 0 -45 0 7 -36z" transform="translate(0.000000,46.000000) scale(0.100000,-0.100000)"/></clipPath><clipPath id="piece-mask-35-86" shape-rendering="crispEdges"><path d="M319 569 l-21 -21 5 -48 6 -48 -16 -7 -17 -6 -68 7 -68 7 0 -79 0 -79 -55 3 -55 4 0 -11 0 -11 -15 0 -15 0 0 -19 0 -19 6 -16 6 -16 14 0 14 0 0 -9 0 -9 30 -11 31 -10 29 6 30 6 0 -24 0 -24 -10 -43 -10 -43 14 -15 15 -14 23 0 23 0 33 9 32 10 16 16 16 16 -6 33 -6 34 16 6 16 6 27 0 27 0 19 -13 18 -14 -5 -47 -6 -47 15 -14 14 -15 13 0 13 0 55 11 56 11 21 58 21 57 0 24 0 24 -9 14 -9 14 -55 -7 -56 -7 -20 11 -21 11 0 39 0 40 9 0 10 0 25 -10 25 -9 30 10 30 11 6 42 7 42 -4 34 -3 34 -30 8 -30 9 -54 10 -54 11 -14 14 -14 14 6 19 5 18 -6 17 -6 16 -24 0 -24 0 -21 -21z" transform="translate(0.000000,59.000000) scale(0.100000,-0.100000)"/></clipPath><clipPath id="piece-mask-35-87" shape-rendering="crispEdges"><path d="M213 524 l-13 -6 0 -38 0 -39 -42 -12 -43 -11 -42 5 -42 4 -5 -14 -6 -15 0 -31 0 -32 9 -33 10 -32 13 -14 14 -14 40 2 39 1 3 -27 3 -26 -21 -7 -21 -7 -49 7 -48 7 -7 -21 -6 -21 6 -55 7 -55 18 -20 17 -20 61 0 61 0 26 25 25 26 0 24 0 23 -12 5 -13 5 58 1 57 1 0 -23 0 -24 23 -10 23 -11 57 -12 57 -13 5 5 5 5 6 62 7 63 31 -6 31 -6 11 8 11 7 12 22 11 22 0 20 0 20 -17 16 -16 17 -38 -6 -38 -6 -6 11 -7 10 1 75 1 74 -8 0 -7 0 -45 -16 -44 -15 -33 6 -33 6 0 47 0 47 -8 10 -7 11 -35 1 -35 2 -12 -5z" transform="translate(0.000000,53.000000) scale(0.100000,-0.100000)"/></clipPath><clipPath id="piece-mask-35-88" shape-rendering="crispEdges"><path d="M206 652 l-5 -8 10 -14 9 -15 0 -19 0 -19 -21 -18 -21 -18 -44 -7 -44 -6 -25 4 -24 5 -5 -14 -6 -15 0 -23 0 -24 12 -28 13 -28 12 -13 13 -13 37 10 38 11 8 0 7 0 0 -45 0 -44 -20 -11 -19 -10 -56 2 -56 2 -9 -14 -10 -15 0 -17 0 -17 16 -47 16 -47 13 -13 13 -13 78 -3 79 -3 -2 -41 -2 -41 26 -12 25 -12 34 13 34 12 0 28 0 27 38 6 37 7 38 9 37 10 0 7 0 7 -20 74 -19 74 -13 9 -13 8 -17 -4 -17 -4 -6 29 -6 29 6 20 6 20 17 1 17 1 38 -2 37 -2 0 86 0 86 -27 -2 -28 -2 -41 2 -41 2 -22 19 -22 19 7 27 7 27 -14 9 -14 9 -42 0 -42 0 -5 -8z" transform="translate(0.000000,66.000000) scale(0.100000,-0.100000)"/></clipPath><clipPath id="piece-mask-35-89" shape-rendering="crispEdges"><path d="M317 679 l-19 -11 7 -47 6 -47 -25 -13 -24 -14 -61 5 -61 4 0 -67 0 -67 -20 5 -20 5 -35 -6 -34 -7 -16 -15 -15 -15 0 -30 0 -30 14 -15 14 -14 31 6 31 7 0 -17 0 -16 22 -62 21 -63 13 -12 13 -13 75 0 75 0 9 -17 10 -16 -9 -31 -9 -31 0 -6 0 -6 26 -12 26 -12 19 6 19 6 0 10 0 9 16 0 16 0 -7 29 -6 29 53 12 53 12 28 10 27 10 0 209 0 209 -82 0 -83 0 -11 8 -12 7 1 50 1 51 -8 12 -7 12 -22 0 -22 -1 -18 -10z" transform="translate(0.000000,69.000000) scale(0.100000,-0.100000)"/></clipPath><clipPath id="piece-mask-35-90" shape-rendering="crispEdges"><path d="M301 551 l-15 -10 12 -26 13 -27 -6 -18 -5 -17 -26 -11 -25 -12 -65 0 -66 0 7 -64 7 -64 -6 -20 -7 -21 -48 6 -49 6 -11 -21 -11 -20 6 -30 6 -30 33 -6 33 -7 5 -14 6 -14 7 -59 6 -60 22 -6 21 -6 37 0 38 0 39 16 39 15 5 20 5 20 -8 29 -8 28 6 6 5 6 24 0 23 0 20 -20 20 -20 0 -39 0 -39 16 -6 16 -6 41 0 42 0 23 6 22 6 0 49 0 48 -12 26 -12 26 -39 -3 -40 -3 -8 30 -9 30 6 18 5 17 10 -6 10 -6 34 6 33 7 11 31 11 31 0 50 0 49 -22 -5 -23 -4 -46 -13 -46 -13 -15 14 -16 14 5 56 5 55 -17 17 -16 17 -22 0 -22 0 -14 -9z" transform="translate(0.000000,56.000000) scale(0.100000,-0.100000)"/></clipPath><clipPath id="piece-mask-35-91" shape-rendering="crispEdges"><path d="M0 352 l0 -83 10 6 10 6 38 -12 37 -12 12 -16 12 -16 -6 -25 -6 -25 -13 -12 -13 -13 -10 0 -11 0 -6 -27 -7 -28 -19 -39 -20 -39 14 -9 13 -9 63 4 63 3 9 15 9 14 -6 38 -6 37 36 0 36 0 15 -15 15 -16 -6 -30 -6 -31 14 -9 14 -9 55 0 55 0 22 6 22 6 5 36 5 37 6 48 7 49 32 -6 33 -6 21 19 22 18 0 20 0 20 -20 23 -20 23 -50 -5 -50 -5 0 68 0 69 -17 0 -18 -1 -65 -18 -65 -18 0 -37 0 -37 -15 -9 -15 -10 -19 0 -19 0 -19 23 -20 22 5 47 6 47 -85 3 -84 3 0 -83z" transform="translate(0.000000,44.000000) scale(0.100000,-0.100000)"/></clipPath><clipPath id="piece-mask-35-92" shape-rendering="crispEdges"><path d="M2 341 l3 -216 60 -5 60 -5 13 -8 12 -8 0 -22 0 -22 6 -22 6 -21 24 -6 24 -6 23 11 22 12 7 11 8 11 -6 33 -6 32 44 0 45 0 47 6 47 7 -6 14 -5 15 15 44 15 45 0 34 0 33 -37 -10 -37 -10 -40 12 -41 12 -7 12 -8 11 0 12 0 12 16 16 17 16 51 -2 51 -3 -3 79 -3 79 -4 4 -3 4 -63 5 -62 6 7 -35 6 -35 -18 -21 -19 -21 -27 -11 -27 -10 -27 7 -27 6 -13 14 -14 14 6 34 7 34 -33 5 -33 5 -38 4 -37 3 2 -215z" transform="translate(0.000000,56.000000) scale(0.100000,-0.100000)"/></clipPath><clipPath id="piece-mask-35-93" shape-rendering="crispEdges"><path d="M316 496 l7 -45 -19 -18 -18 -18 -82 0 -82 0 -7 -67 -6 -68 -15 -15 -15 -15 -24 0 -23 0 -16 -6 -16 -6 0 -30 0 -29 14 -15 15 -14 34 0 34 0 9 -72 9 -73 200 -3 200 -3 31 6 32 5 6 38 6 37 10 38 11 37 23 -6 24 -6 11 33 11 32 0 2 0 2 -20 23 -20 23 -30 -6 -30 -6 -7 27 -6 27 -1 60 -1 60 -67 -3 -67 -4 -21 7 -21 7 2 42 3 42 -8 12 -7 12 -34 0 -35 0 6 -44z" transform="translate(0.000000,54.000000) scale(0.100000,-0.100000)"/></clipPath><clipPath id="piece-mask-35-94" shape-rendering="crispEdges"><path d="M113 425 l-5 -16 6 -59 7 -59 -33 -5 -33 -6 -25 -2 -25 -3 -3 -35 -2 -35 10 -15 9 -15 61 2 60 2 6 -24 6 -25 -10 -28 -11 -27 -7 -39 -7 -39 61 6 61 5 17 17 17 16 -11 24 -11 24 15 16 15 15 29 0 28 0 16 -6 16 -6 -6 -34 -6 -33 15 -16 16 -15 60 0 61 0 6 24 6 24 -11 38 -11 39 0 18 0 17 55 -6 54 -7 30 13 30 12 6 18 5 17 -7 19 -7 19 -13 13 -13 14 -48 -4 -47 -3 -3 83 -3 82 -210 0 -210 0 -6 -15z" transform="translate(0.000000,44.000000) scale(0.100000,-0.100000)"/></clipPath><clipPath id="piece-mask-35-95" shape-rendering="crispEdges"><path d="M120 403 l0 -68 -9 -13 -8 -14 -46 7 -46 7 -6 -25 -7 -26 7 -21 7 -22 39 6 39 6 0 -10 0 -10 16 0 16 0 -3 -87 -3 -88 69 -7 70 -7 26 11 27 10 -5 59 -6 59 18 6 18 7 14 -19 15 -19 -6 -57 -6 -57 17 -16 16 -16 21 4 21 5 58 13 58 12 -7 16 -6 16 -15 58 -15 58 7 26 6 25 40 -6 40 -6 40 10 39 11 0 34 0 34 -20 6 -19 6 -20 -10 -20 -11 -19 0 -19 0 -11 25 -12 26 0 54 0 55 -32 -15 -33 -14 -41 -11 -42 -10 -6 -31 -6 -32 -35 6 -35 6 -16 15 -15 15 3 38 3 38 -77 3 -78 3 0 -68z" transform="translate(0.000000,49.000000) scale(0.100000,-0.100000)"/></clipPath><clipPath id="piece-mask-35-96" shape-rendering="crispEdges"><path d="M110 476 l0 -53 -6 -32 -6 -31 -14 0 -14 0 0 -10 0 -11 -35 7 -35 6 0 -46 0 -46 39 6 38 6 7 -17 6 -17 7 -70 6 -70 61 4 61 5 10 -4 11 -3 -4 -39 -4 -39 37 -12 36 -12 23 6 23 6 11 27 11 28 -2 25 -2 25 76 -3 75 -3 12 64 12 64 0 18 0 18 -30 -7 -30 -6 -26 10 -26 10 -15 15 -15 16 12 30 13 30 34 -3 34 -3 9 15 10 15 0 63 0 63 -17 -5 -18 -5 -58 -12 -58 -12 6 -28 6 -27 -32 -11 -32 -11 -17 0 -17 0 -22 20 -23 19 7 41 7 40 -71 0 -71 0 0 -54z" transform="translate(0.000000,53.000000) scale(0.100000,-0.100000)"/></clipPath><clipPath id="piece-mask-35-97" shape-rendering="crispEdges"><path d="M10 357 l0 -65 6 -16 6 -16 48 0 49 0 6 -20 6 -20 -6 -29 -6 -29 -15 -6 -16 -6 -25 6 -25 7 -9 -14 -9 -14 0 -42 0 -42 -10 -25 -10 -26 209 0 208 0 8 82 7 81 13 13 13 13 37 -6 37 -6 9 14 9 14 0 22 0 23 -25 6 -25 6 -34 -6 -34 -6 -6 16 -6 16 0 65 0 66 -29 -6 -28 -6 -52 -7 -52 -7 6 -24 6 -24 -15 -14 -15 -15 -28 0 -28 0 -14 9 -13 9 6 19 6 20 -6 16 -6 15 -16 7 -17 6 -57 6 -58 5 0 -65z" transform="translate(0.000000,42.000000) scale(0.100000,-0.100000)"/></clipPath><clipPath id="piece-mask-35-98" shape-rendering="crispEdges"><path d="M3 445 l-5 -16 4 -55 5 -56 13 -8 14 -9 18 10 19 10 22 -7 22 -7 18 -20 17 -20 0 -12 0 -12 -17 -19 -18 -19 -29 -13 -28 -13 -15 13 -15 12 -9 -15 -9 -14 0 -62 0 -61 -7 -18 -6 -17 71 5 71 5 16 17 17 17 -7 35 -6 35 43 -3 43 -3 3 -57 3 -57 19 -6 19 -6 63 12 63 13 12 11 11 12 11 39 11 39 0 28 0 27 34 0 34 0 6 16 6 16 0 26 0 27 -9 14 -9 15 -44 0 -43 1 0 83 0 82 -213 0 -213 0 -6 -15z" transform="translate(0.000000,46.000000) scale(0.100000,-0.100000)"/></clipPath><clipPath id="piece-mask-35-99" shape-rendering="crispEdges"><path d="M303 552 l-22 -3 6 -50 6 -49 -12 0 -11 0 0 -14 0 -14 -22 -6 -23 -5 -33 11 -33 12 6 21 7 20 5 24 6 23 -14 9 -14 9 -62 0 -62 0 -6 -53 -7 -53 4 -25 3 -24 51 3 51 4 17 -17 16 -16 0 -22 0 -22 -8 -11 -7 -11 -23 -12 -24 -13 -49 7 -49 7 0 -12 0 -11 12 -71 11 -70 69 4 69 4 -6 -23 -5 -23 11 -23 12 -22 20 -18 20 -17 23 0 23 0 27 27 26 26 -5 50 -6 49 47 -5 47 -6 25 -3 25 -3 3 202 2 202 -32 5 -33 5 -30 3 -30 3 -22 -3z" transform="translate(0.000000,56.000000) scale(0.100000,-0.100000)"/></clipPath><clipPath id="piece-mask-35-100" shape-rendering="crispEdges"><path d="M38 573 l-38 -4 0 -210 0 -209 58 -1 57 -1 25 -7 25 -7 -3 -48 -2 -49 21 -18 22 -19 7 0 7 0 32 11 31 11 2 11 1 12 1 29 1 30 35 8 35 8 38 12 37 11 0 9 0 9 -9 17 -8 17 -7 41 -6 41 18 21 18 20 45 -5 45 -5 17 17 17 16 0 25 0 24 -22 4 -23 4 -38 -1 -38 -1 -10 15 -9 14 0 71 0 71 -62 -15 -63 -14 -11 -3 -11 -3 -6 -31 -6 -31 -40 0 -40 0 -16 17 -17 16 4 39 4 38 -41 -2 -40 -1 -37 -4z" transform="translate(0.000000,58.000000) scale(0.100000,-0.100000)"/></clipPath><clipPath id="piece-mask-35-101" shape-rendering="crispEdges"><path d="M183 543 l-43 -4 0 -43 0 -43 -6 -31 -6 -31 -30 -10 -29 -10 -25 9 -25 10 -10 0 -9 0 0 -40 0 -39 21 -11 20 -11 56 7 55 7 9 -14 9 -14 0 -26 0 -27 -15 -35 -15 -36 0 -16 0 -15 49 0 49 0 30 -6 31 -6 6 -18 6 -18 -12 -26 -12 -26 6 -6 6 -6 46 -5 45 -6 0 12 0 11 16 0 16 0 -7 29 -6 29 42 7 42 7 32 14 31 13 17 69 17 70 0 12 0 11 15 15 14 15 25 -7 24 -6 7 21 6 20 -11 22 -12 22 -48 -6 -48 -6 -11 30 -10 29 6 52 6 51 -24 -7 -24 -8 -47 -10 -48 -11 0 -27 0 -28 -16 -6 -16 -6 -28 0 -29 0 -26 26 -26 26 3 32 3 31 -25 1 -25 1 -42 -4z" transform="translate(0.000000,55.000000) scale(0.100000,-0.100000)"/></clipPath><clipPath id="piece-mask-35-102" shape-rendering="crispEdges"><path d="M306 441 l-7 -11 6 -19 6 -19 -12 -26 -12 -26 -23 -6 -23 -6 -36 12 -37 12 4 39 3 39 -10 3 -10 4 -57 -5 -56 -4 -6 -22 -5 -21 8 -41 8 -41 7 -12 8 -13 47 7 47 6 12 -26 13 -27 -7 -21 -7 -21 -11 -11 -11 -12 -24 -13 -24 -12 -48 6 -49 7 0 -18 0 -18 9 -35 9 -35 6 -27 6 -28 60 0 59 0 25 11 24 12 6 23 6 24 -10 20 -11 20 45 0 44 0 5 -12 4 -13 -10 -22 -10 -22 18 -18 18 -18 80 2 80 1 7 13 8 12 7 55 7 55 5 13 5 13 29 -6 29 -6 20 23 20 23 0 23 0 23 -15 14 -15 15 -28 7 -29 6 -27 -11 -28 -10 4 82 3 83 -20 1 -20 2 -56 7 -56 7 -7 -11z" transform="translate(0.000000,45.000000) scale(0.100000,-0.100000)"/></clipPath><clipPath id="piece-mask-35-103" shape-rendering="crispEdges"><path d="M90 419 l0 -10 10 6 10 6 0 5 0 4 -10 0 -10 0 0 -11z M110 355 l0 -64 -12 -26 -12 -26 -40 3 -41 3 -3 -37 -3 -38 35 0 35 0 10 -38 11 -37 0 -25 0 -25 6 -22 6 -23 207 0 207 0 11 33 11 32 7 38 6 39 11 24 11 24 34 -6 33 -6 0 34 0 34 -13 19 -14 18 -30 -10 -29 -11 -19 14 -18 14 0 61 1 61 -25 -7 -25 -6 -32 -5 -31 -5 -23 -5 -23 -5 7 -34 6 -34 -15 -16 -16 -15 -25 0 -25 0 -25 12 -26 11 -5 17 -6 18 13 27 12 27 -19 14 -19 14 -53 0 -53 0 0 -65z" transform="translate(0.000000,43.000000) scale(0.100000,-0.100000)"/></clipPath><clipPath id="piece-mask-35-104" shape-rendering="crispEdges"><path d="M44 547 l-5 -14 3 -69 3 -69 47 3 48 4 14 -14 13 -14 7 -21 6 -20 -5 -16 -6 -15 -30 -12 -30 -13 -54 7 -55 6 0 -17 0 -18 9 -35 9 -35 6 -27 6 -28 71 0 71 0 -6 -33 -6 -34 17 -20 18 -20 23 -12 24 -13 28 12 27 11 12 25 11 25 -6 25 -6 24 75 0 75 0 5 14 6 14 -9 65 -10 64 -6 17 -7 17 -31 -3 -31 -3 -3 39 -3 39 16 -7 17 -6 24 6 24 6 0 14 0 14 10 0 10 0 0 75 0 75 -210 0 -211 0 -5 -13z" transform="translate(0.000000,56.000000) scale(0.100000,-0.100000)"/></clipPath><clipPath id="piece-mask-35-105" shape-rendering="crispEdges"><path d="M315 528 l6 -53 -24 -27 -24 -28 -40 0 -40 0 -23 20 -23 20 6 50 6 50 -59 1 -60 2 -17 1 -18 1 0 -61 0 -60 16 -16 16 -16 42 5 41 6 0 -49 0 -49 -9 -13 -8 -13 -25 6 -25 6 -11 -28 -10 -28 -7 -38 -6 -38 6 -19 6 -20 58 0 57 0 18 -13 18 -13 -11 -40 -11 -39 0 -7 0 -8 15 0 15 0 0 -10 0 -10 33 0 34 0 22 19 22 19 -6 24 -6 24 48 13 48 12 28 6 27 5 0 14 0 14 -14 37 -14 38 -6 35 -6 35 8 11 7 11 63 0 64 0 9 14 9 14 0 24 0 24 -39 -7 -38 -6 -22 19 -22 19 -1 59 -2 58 7 20 7 20 -71 3 -71 3 7 -53z" transform="translate(0.000000,58.000000) scale(0.100000,-0.100000)"/></clipPath><clipPath id="piece-mask-35-106" shape-rendering="crispEdges"><path d="M275 547 l7 -35 -13 -23 -12 -24 -13 -12 -13 -13 -25 0 -25 0 -15 16 -16 15 -6 25 -6 24 6 15 5 15 -74 0 -75 0 0 -74 0 -74 44 1 44 2 21 -24 21 -24 0 -24 0 -23 -10 0 -10 0 0 -14 0 -14 -15 -6 -15 -5 -29 5 -29 6 -7 -63 -6 -64 -6 -19 -5 -19 76 7 76 7 -6 -29 -6 -30 13 -23 12 -24 13 -12 13 -13 25 0 26 0 0 11 0 10 16 17 16 16 -5 48 -6 48 29 0 28 0 52 -12 51 -12 10 15 9 14 -6 32 -6 33 6 26 7 26 34 -6 35 -7 0 11 0 10 15 0 15 0 0 15 0 15 10 0 10 0 0 21 0 20 -16 16 -16 16 -50 5 -51 5 6 82 6 83 -42 5 -42 6 -43 7 -43 7 6 -36z" transform="translate(0.000000,58.000000) scale(0.100000,-0.100000)"/></clipPath><clipPath id="piece-mask-35-107" shape-rendering="crispEdges"><path d="M213 663 l-22 -4 -10 -34 -9 -35 5 -19 5 -20 -15 -15 -15 -15 -69 6 -70 6 -6 -63 -5 -63 5 -13 5 -14 54 0 54 0 0 -40 0 -40 -19 -19 -20 -20 -35 6 -35 5 -7 -26 -6 -26 7 -48 7 -47 11 -7 12 -8 40 0 40 0 38 -11 37 -10 0 -39 0 -40 25 -6 25 -6 35 6 35 7 0 39 0 40 30 0 29 0 49 11 49 10 7 46 6 46 0 34 0 34 -13 13 -12 13 -50 -1 -50 -1 -3 37 -3 37 34 -6 34 -5 16 16 16 17 11 40 11 40 -3 32 -3 32 -15 -4 -15 -4 -56 -10 -57 -10 -17 17 -18 17 7 45 6 44 -20 20 -20 20 -12 -1 -13 -2 -22 -4z" transform="translate(0.000000,67.000000) scale(0.100000,-0.100000)"/></clipPath><clipPath id="piece-mask-35-108" shape-rendering="crispEdges"><path d="M414 461 l6 -8 -47 -7 -46 -6 -35 0 -34 0 6 -35 7 -35 -16 0 -15 0 0 -10 0 -10 -44 0 -44 0 -6 16 -6 16 0 34 0 34 -70 0 -70 0 0 -62 0 -63 48 3 48 4 12 -27 12 -26 0 -29 0 -29 -16 -15 -15 -16 -33 0 -33 0 -7 -52 -6 -53 0 -32 0 -33 38 0 37 0 38 11 37 10 0 38 0 39 16 6 16 6 33 0 33 0 6 -16 6 -16 0 -43 0 -43 29 -7 30 -6 35 10 36 9 16 17 16 16 -11 27 -10 27 -3 39 -3 39 68 -2 68 -2 20 22 19 22 0 21 0 21 -10 15 -9 15 -49 -2 -49 -2 -12 25 -11 25 0 49 0 48 -6 16 -6 16 -10 0 -9 0 5 -9z" transform="translate(0.000000,47.000000) scale(0.100000,-0.100000)"/></clipPath><clipPath id="piece-mask-35-109" shape-rendering="crispEdges"><path d="M203 554 l-6 -15 6 -48 6 -48 -22 -10 -22 -10 -82 5 -83 5 0 -63 0 -63 22 -19 22 -19 21 6 20 7 20 1 20 2 3 -24 4 -23 -7 -25 -6 -25 -25 6 -25 7 -16 -16 -15 -16 -15 -75 -15 -75 6 -6 6 -7 60 -4 59 -4 24 6 24 6 -5 50 -5 50 52 0 52 0 -6 -20 -6 -20 13 -13 13 -13 59 -12 59 -12 22 0 22 0 16 43 15 42 6 28 6 27 24 0 24 0 11 31 11 32 0 18 0 18 -16 15 -15 16 -29 0 -29 0 -11 20 -10 19 -6 46 -7 45 -16 0 -16 -1 -60 -14 -60 -15 -7 0 -7 0 -15 16 -16 15 6 53 6 53 -11 21 -12 22 -15 0 -15 0 -6 -16z" transform="translate(0.000000,57.000000) scale(0.100000,-0.100000)"/></clipPath><clipPath id="piece-mask-35-110" shape-rendering="crispEdges"><path d="M286 399 l6 -64 -18 -21 -19 -21 -22 -7 -22 -7 -23 12 -23 12 -8 11 -7 11 6 47 6 47 -24 6 -24 6 -55 -3 -54 -3 1 -62 1 -61 14 -15 15 -14 23 -8 23 -7 9 13 8 13 6 -26 6 -25 -3 -34 -3 -34 -21 3 -21 3 -11 -28 -11 -28 -11 -43 -11 -43 15 -14 15 -15 48 0 48 0 14 9 14 9 -5 39 -6 40 10 16 9 17 54 0 55 0 0 -32 0 -33 9 -13 8 -13 57 -15 58 -15 4 4 4 3 -11 62 -11 62 6 26 7 26 49 -7 49 -7 21 7 21 7 -3 26 -3 27 -40 -1 -40 -2 -17 20 -17 20 -7 44 -6 45 5 28 6 27 -32 12 -32 11 -48 7 -48 6 7 -63z" transform="translate(0.000000,46.000000) scale(0.100000,-0.100000)"/></clipPath><clipPath id="piece-mask-35-111" shape-rendering="crispEdges"><path d="M285 653 l-17 -16 6 -35 5 -34 -15 -16 -15 -15 -70 6 -69 6 0 -80 0 -80 -22 7 -23 7 -11 4 -10 4 -22 -19 -22 -19 0 -26 0 -25 6 -16 6 -16 33 0 34 0 7 -57 7 -58 10 -20 10 -20 11 -7 11 -8 67 0 67 0 10 -19 10 -18 -6 -36 -5 -36 26 -7 26 -6 35 6 35 7 0 14 0 15 10 0 10 0 -2 33 -3 32 56 5 55 5 17 17 17 16 -7 62 -6 62 -15 14 -14 15 -29 -6 -28 -6 -10 20 -11 20 0 19 0 20 15 6 15 5 30 -5 29 -6 16 15 15 16 0 78 0 78 -62 0 -63 0 -27 8 -28 7 0 40 0 39 -19 11 -20 10 -20 0 -20 0 -16 -17z" transform="translate(0.000000,67.000000) scale(0.100000,-0.100000)"/></clipPath></defs></svg>