<svg baseProfile="full" height="208" preserveAspectRatio="none" shape-rendering="geometricPrecision" version="1.1" viewBox="0,0,1200,628" width="397" xmlns="http://www.w3.org/2000/svg" xmlns:ev="http://www.w3.org/2001/xml-events" xmlns:xlink="http://www.w3.org/1999/xlink"><title>Jigsaw puzzle piece clips</title><desc>Created with the piecemaker. Piece count: 15</desc><defs/><g><g><rect fill="white" height="628" width="1200" x="0" y="0"/></g></g><g><g><path d="M 0 0  L 240.000000 0  c 0.0,31.438301064030124 -12.0,98.15901271195789 1.6155298164867424,83.50567937862455
c 52.514484723697784,-12.56 63.53079380954637,0 63.53079380954637,21.160987288042122
c 0,24.642832089424004 -47.29647318300287,37.20283208942401 -65.65020186721587,24.642832089424004
c -31.200000000000003,-12.56 -19.2,43.96 0.5038782411827611,80.02383457724267 c 0.0,34.81454567163905 -12.0,101.35579564391328 8.126834960112108,86.70246231057995
c 49.12850310977567,-12.56 65.35429424419104,0 65.35429424419104,17.964204356086725
c 0,31.282241916149516 -17.072851409024764,43.84224191614952 -57.34864381082444,31.282241916149516
c -31.200000000000003,-12.56 -19.2,43.96 -16.132485393478703,73.38442475051716 c 0.0,51.279897925620936 -12.0,88.91419933507503 10.702647080896103,74.26086600174169
c 62.48937628397559,-12.56 67.1852095844762,0 67.1852095844762,30.405800664924982
c 0,26.883347098162275 -55.21351384909436,39.44334709816228 -65.23696372346394,26.883347098162275
c -31.200000000000003,-12.56 -19.2,43.96 -12.650892941908353,77.7833195685044 L 0 628 " fill="none" stroke="black" stroke-width="1.0" style="vector-effect:non-scaling-stroke;"/></g><g><path d="M 0 0  L 480.000000 0  c 0.0,39.36652798238132 -12.0,88.20345566847013 6.991847418391412,73.55012233513679
c 44.716778591564534,-12.56 53.92947238142678,0 53.92947238142678,31.11654433152988
c 0,32.45521463141661 -8.43478634663848,45.01521463141661 -38.290979364789514,32.45521463141661
c -31.200000000000003,-12.56 -19.2,43.96 -22.63034043502868,72.21145203525006 c 0.0,52.48247298697774 -12.0,103.48012799905345 2.3622494402747076,88.82679466572012
c 43.76834220733009,-12.56 73.29486708726083,0 73.29486708726083,15.839872000946556
c 0,16.257323307015568 -59.542256835391655,28.81732330701557 -63.530409984107465,16.257323307015568
c -31.200000000000003,-12.56 -19.2,43.96 -12.126706543428071,88.4093433596511 c -0.0,29.954283691055362 12.0,90.01046217579639 -42.72805838314069,75.35712884246306
c -13.036118708859735,-12.56 -24.31055259858691,0 -24.31055259858691,29.309537824203616
c 0,24.59068843631978 10.476172592244467,37.15068843631978 27.793852665518706,24.59068843631978
c 31.200000000000003,-12.56 19.2,43.96 39.244758316208895,80.07597823034689 L 0 628 " fill="none" stroke="black" stroke-width="1.0" style="vector-effect:non-scaling-stroke;"/></g><g><path d="M 0 0  L 720.000000 0  c -0.0,18.002876100846724 12.0,95.00542159112872 -3.6771685880357405,80.35208825779539
c -20.073302808245533,-12.56 -59.234632624479374,0 -59.234632624479374,24.314578408871284
c 0,18.8039558352377 21.08747367866584,31.363955835237704 26.296961533449306,18.8039558352377
c 31.200000000000003,-12.56 19.2,43.96 36.61483967906581,85.86271083142897 c -0.0,19.264881031644258 12.0,96.14027946442792 -1.2306976309467346,81.48694613109458
c -20.789587622851805,-12.56 -80.17011998796436,0 -80.17011998796436,23.179720535572088
c 0,30.153679798330856 17.78589140922742,42.71367979833086 29.266800967296852,30.153679798330856
c 31.200000000000003,-12.56 19.2,43.96 52.13401665161424,74.51298686833582 c -0.0,16.800472197049814 12.0,90.9205925207862 2.885821274962077,76.26725918745286
c -14.205153415152795,-12.56 -61.467390360030414,0 -61.467390360030414,28.399407479213806
c 0,33.230786583571316 13.379912205617835,45.79078658357132 19.39481487541355,33.230786583571316
c 31.200000000000003,-12.56 19.2,43.96 39.18675420965479,71.43588008309536 L 0 628 " fill="none" stroke="black" stroke-width="1.0" style="vector-effect:non-scaling-stroke;"/></g><g><path d="M 0 0  L 960.000000 0  c 0.0,46.38338587658194 -12.0,89.36880580032432 33.69130398969539,74.71547246699099
c 18.893857641216854,-12.56 31.04447727867518,0 31.04447727867518,29.951194199675683
c 0,22.77006610431134 -10.14905885889977,35.33006610431134 -45.85841395841445,22.77006610431134
c -31.200000000000003,-12.56 -19.2,43.96 -18.87736730995612,81.89660056235533 c -0.0,17.675171187950784 12.0,95.14321664087643 -45.746540523293945,80.4898833075431
c -8.52025836348896,-12.56 -25.697666499507818,0 -25.697666499507818,24.176783359123576
c 0,18.72008051480958 12.776723626529128,31.280080514809583 20.392392878807485,18.72008051480958
c 31.200000000000003,-12.56 19.2,43.96 51.05181414399428,85.94658615185709 c -0.0,39.16887546362674 12.0,95.77052643328321 -12.440380627878952,81.11719309994987
c -27.61716483538203,-12.56 -61.46163470728219,0 -61.46163470728219,23.5494735667168
c 0,21.507991074396728 10.48518081972761,34.06799107439673 28.912779516095767,21.507991074396728
c 31.200000000000003,-12.56 19.2,43.96 44.98923581906537,83.15867559226994 L 0 628 " fill="none" stroke="black" stroke-width="1.0" style="vector-effect:non-scaling-stroke;"/></g></g><g><g><path d="M 0 0  L 0 209.333333  c 61.48600969502686,-0.0 116.79543176617953,10.466666666666669 99.99543176617954,0.20232526122145814
c -14.399999999999999,-21.058653909540592 0,-62.3542411948395 20.004568233820464,-62.3542411948395
c 22.844817774109032,0 37.24481777410903,39.447835334092275 22.844817774109032,45.78031629984159
c -14.399999999999999,27.213333333333335 50.4,16.746666666666666 97.15518222589097,16.371599633776455 c 32.20992630775745,0.0 118.13784333507603,-10.466666666666669 101.33784333507603,3.598131630765816
c -14.399999999999999,34.48405287700973 0,65.77630009727855 18.66215666492397,65.77630009727855
c 17.31298512577166,0 31.71298512577166,-31.92699999795006 17.31298512577166,-45.89425265132345
c -14.399999999999999,-27.213333333333335 50.4,-16.746666666666666 102.68701487422834,-23.480179076720923 c 42.56443227772073,-0.0 112.64233967463177,10.466666666666669 95.84233967463177,-10.165747229380957
c -14.399999999999999,-27.74457254099422 0,-44.72649450717114 24.157660325368226,-44.72649450717114
c 21.896516694276983,0 36.29651669427698,8.480948680152496 21.896516694276983,21.759234326571274
c -14.399999999999999,27.213333333333335 50.4,16.746666666666666 98.10348330572302,33.13300740998082 c 24.88309829275239,-0.0 101.5528779025986,10.466666666666669 84.7528779025986,-25.81584862180012
c -14.399999999999999,-7.862383997070707 0,-28.607791168764052 35.2471220974014,-28.607791168764052
c 25.61767037148661,0 40.01767037148661,5.432559247353555 25.61767037148661,13.053867865046378
c -14.399999999999999,27.213333333333335 50.4,16.746666666666666 94.38232962851339,41.369771925517796 c 57.27384219840737,0.0 113.25391558308398,-10.466666666666669 96.45391558308398,43.93176277254765
c -14.399999999999999,15.57792861386339 0,16.20605389179621 23.546084416916017,16.20605389179621
c 22.770765383951726,0 37.170765383951725,-38.26772049247552 22.770765383951726,-57.28725369655222
c -14.399999999999999,-27.213333333333335 50.4,-16.746666666666666 97.22923461604827,-2.850562967791639 L 1200 0 " fill="none" stroke="black" stroke-width="1.0" style="vector-effect:non-scaling-stroke;"/></g><g><path d="M 0 0  L 0 418.666667  c 39.14661824373756,-0.0 99.84357605683947,10.466666666666669 83.04357605683947,-16.210646424018144
c -14.399999999999999,-14.632451790945408 0,-50.340864717449826 36.95642394316053,-50.340864717449826
c 34.65540969351869,0 49.05540969351869,21.358825555875125 34.65540969351869,30.961991595323035
c -14.399999999999999,27.213333333333335 50.4,16.746666666666666 85.34459030648131,35.589519546144935 c 66.50639926099193,0.0 113.25861871683,-10.466666666666669 96.45861871683,14.617428447433275
c -14.399999999999999,36.96142242434084 0,44.41688555589342 23.541381283169997,44.41688555589342
c 24.40437736481323,0 38.80437736481323,-16.6756891632753 24.40437736481323,-37.49895142161361
c -14.399999999999999,-27.213333333333335 50.4,-16.746666666666666 95.59562263518677,-21.535362581713088 c 18.881424376885825,-0.0 102.60162816169594,10.466666666666669 85.80162816169594,-28.591401098562898
c -14.399999999999999,-21.760665676848557 0,-36.56490414980067 34.198371838304055,-36.56490414980067
c 37.0862115621413,0 51.4862115621413,19.290081196067625 37.0862115621413,54.9914254756801
c -14.399999999999999,27.213333333333335 50.4,16.746666666666666 82.9137884378587,10.164879772683463 c 55.069121798741335,-0.0 118.53499204037907,10.466666666666669 101.73499204037907,-15.121818805767639
c -14.399999999999999,-37.05683191446918 0,-37.48733903199685 18.26500795962093,-37.48733903199685
c 31.28793977086923,0 45.68793977086923,26.075485841312126 31.28793977086923,52.61505483050147
c -14.399999999999999,27.213333333333335 50.4,16.746666666666666 88.71206022913077,-0.005896992736985851 c 38.84820126981602,0.0 108.16007573813347,-10.466666666666669 91.36007573813347,18.711702565168302
c -14.399999999999999,21.84805420484938 0,42.52113883537786 28.639924261866526,42.52113883537786
c 35.97916966468381,0 50.37916966468381,-16.632876935328976 35.97916966468381,-16.540534562216884
c -14.399999999999999,-27.213333333333335 50.4,-16.746666666666666 84.02083033531619,-44.69230683832928 L 1200 0 " fill="none" stroke="black" stroke-width="1.0" style="vector-effect:non-scaling-stroke;"/></g></g></svg>