<?xml version="1.0" standalone="no"?>
<!DOCTYPE svg PUBLIC "-//W3C//DTD SVG 20010904//EN"
 "http://www.w3.org/TR/2001/REC-SVG-20010904/DTD/svg10.dtd">
<svg version="1.0" xmlns="http://www.w3.org/2000/svg"
 width="66.000000pt" height="46.000000pt" viewBox="0 0 66.000000 46.000000"
 preserveAspectRatio="xMidYMid meet">
<metadata>
Created by potrace 1.16, written by Peter Selinger 2001-2019
</metadata>
<g transform="translate(0.000000,46.000000) scale(0.100000,-0.100000)"
fill="#000000" stroke="none">
<path d="M7 453 l-7 -6 0 -219 0 -218 93 0 92 0 13 9 13 8 -3 39 -3 39 24 3
24 4 23 -13 24 -12 -6 -23 -6 -23 7 -20 6 -21 80 0 80 0 15 14 14 15 0 18 -1
18 -14 25 -14 25 -1 23 0 24 28 -7 29 -6 44 10 44 10 3 10 4 11 10 0 9 0 15
14 14 15 0 29 0 29 -19 21 -18 22 -67 0 -67 0 7 65 7 65 -29 -1 -29 -1 -75
-17 -75 -16 2 -30 2 -29 -12 -8 -12 -8 -38 0 -38 0 -12 11 -12 12 4 40 3 39
-13 9 -14 9 -71 0 -71 0 -6 -7z"/>
</g>
</svg>
