<?xml version="1.0" standalone="no"?>
<!DOCTYPE svg PUBLIC "-//W3C//DTD SVG 20010904//EN"
 "http://www.w3.org/TR/2001/REC-SVG-20010904/DTD/svg10.dtd">
<svg version="1.0" xmlns="http://www.w3.org/2000/svg"
 width="64.000000pt" height="44.000000pt" viewBox="0 0 64.000000 44.000000"
 preserveAspectRatio="xMidYMid meet">
<metadata>
Created by potrace 1.16, written by Peter Selinger 2001-2019
</metadata>
<g transform="translate(0.000000,44.000000) scale(0.100000,-0.100000)"
fill="#000000" stroke="none">
<path d="M7 433 l-7 -6 0 -209 0 -208 83 0 82 0 14 9 14 9 -11 30 -10 30 11
11 11 11 35 0 36 -1 19 -14 18 -14 -6 -25 -6 -24 6 -16 6 -16 70 0 69 0 16 16
16 16 -17 34 -16 35 0 34 0 34 31 -9 32 -9 41 9 41 9 3 10 4 11 10 0 9 0 15
14 14 15 0 19 0 19 -19 22 -20 23 -66 -4 -67 -3 7 68 6 67 -18 -1 -18 -1 -75
-16 -75 -17 3 -29 4 -29 -14 -8 -13 -9 -48 0 -48 0 -14 14 -14 14 6 37 6 37
-14 9 -14 9 -61 0 -61 0 -6 -7z"/>
</g>
</svg>
