<?xml version="1.0" standalone="no"?>
<!DOCTYPE svg PUBLIC "-//W3C//DTD SVG 20010904//EN"
 "http://www.w3.org/TR/2001/REC-SVG-20010904/DTD/svg10.dtd">
<svg version="1.0" xmlns="http://www.w3.org/2000/svg"
 width="50.000000pt" height="55.000000pt" viewBox="0 0 50.000000 55.000000"
 preserveAspectRatio="xMidYMid meet">
<metadata>
Created by potrace 1.16, written by Peter Selinger 2001-2019
</metadata>
<g transform="translate(0.000000,55.000000) scale(0.100000,-0.100000)"
fill="#000000" stroke="none">
<path d="M2 473 l3 -78 40 2 40 2 21 -4 22 -5 6 -16 6 -16 -6 -24 -6 -24 -14
0 -14 0 0 -10 0 -11 -34 6 -34 7 -11 -64 -11 -65 0 -26 0 -27 58 0 57 0 14 -9
13 -9 -6 -29 -7 -29 19 -22 19 -22 30 0 30 0 23 20 23 20 0 27 1 28 -5 15 -4
15 92 0 91 0 4 5 4 5 17 38 17 38 0 34 0 33 -6 16 -6 16 -68 -6 -67 -7 -22 22
-21 21 10 20 11 20 74 0 75 0 0 24 0 23 -6 62 -7 62 -86 -3 -86 -3 3 -31 3
-31 -16 -16 -16 -16 -34 -7 -34 -6 -17 16 -16 17 6 33 6 33 -31 7 -31 6 -60 0
-59 0 3 -77z"/>
</g>
</svg>
