<?xml version="1.0" standalone="no"?>
<!DOCTYPE svg PUBLIC "-//W3C//DTD SVG 20010904//EN"
 "http://www.w3.org/TR/2001/REC-SVG-20010904/DTD/svg10.dtd">
<svg version="1.0" xmlns="http://www.w3.org/2000/svg"
 width="52.000000pt" height="57.000000pt" viewBox="0 0 52.000000 57.000000"
 preserveAspectRatio="xMidYMid meet">
<metadata>
Created by potrace 1.16, written by Peter Selinger 2001-2019
</metadata>
<g transform="translate(0.000000,57.000000) scale(0.100000,-0.100000)"
fill="#000000" stroke="none">
<path d="M2 483 l3 -88 58 0 58 0 8 -14 9 -13 -5 -19 -5 -19 -14 0 -14 0 0 -8
0 -8 -34 4 -34 4 -11 -64 -11 -65 0 -36 0 -37 54 0 54 0 15 -6 15 -6 -5 -31
-5 -32 20 -22 19 -23 40 0 40 0 24 21 24 21 0 45 0 45 66 -6 67 -7 23 6 24 6
18 42 17 42 0 45 0 45 -9 13 -8 14 -64 -7 -64 -6 -19 14 -19 14 6 17 6 16 76
0 75 0 0 34 0 33 -6 62 -7 62 -96 -3 -96 -3 -1 -30 -1 -30 -1 -12 -2 -11 -35
-12 -35 -12 -15 15 -14 15 6 34 5 35 -32 7 -32 6 -70 0 -69 0 3 -87z"/>
</g>
</svg>
