<?xml version="1.0" standalone="no"?>
<!DOCTYPE svg PUBLIC "-//W3C//DTD SVG 20010904//EN"
 "http://www.w3.org/TR/2001/REC-SVG-20010904/DTD/svg10.dtd">
<svg version="1.0" xmlns="http://www.w3.org/2000/svg"
 width="64.000000pt" height="54.000000pt" viewBox="0 0 64.000000 54.000000"
 preserveAspectRatio="xMidYMid meet">
<metadata>
Created by potrace 1.16, written by Peter Selinger 2001-2019
</metadata>
<g transform="translate(0.000000,54.000000) scale(0.100000,-0.100000)"
fill="#000000" stroke="none">
<path d="M186 527 l-19 -14 12 -21 11 -21 0 -10 0 -10 -38 -12 -38 -11 -57 3
-57 4 0 -72 0 -72 16 -16 17 -16 48 6 47 7 12 -22 11 -21 -6 -19 -6 -19 -43 5
-43 6 -10 -28 -10 -29 -16 -65 -15 -65 5 -5 5 -5 71 0 72 0 33 14 33 14 -3 41
-3 41 22 3 22 3 21 -11 21 -11 -7 -34 -6 -34 15 -16 16 -15 63 0 63 0 23 6 22
6 0 63 0 63 6 17 6 16 42 -6 41 -7 23 20 22 19 6 31 6 31 -18 18 -18 18 -53
-1 -52 -2 -7 21 -7 21 2 48 1 48 -18 0 -17 0 -49 -15 -49 -15 -24 0 -24 0 -15
15 -15 14 7 26 6 25 -12 30 -12 30 -32 0 -32 0 -18 -13z"/>
</g>
</svg>
