<?xml version="1.0" standalone="no"?>
<!DOCTYPE svg PUBLIC "-//W3C//DTD SVG 20010904//EN"
 "http://www.w3.org/TR/2001/REC-SVG-20010904/DTD/svg10.dtd">
<svg version="1.0" xmlns="http://www.w3.org/2000/svg"
 width="66.000000pt" height="56.000000pt" viewBox="0 0 66.000000 56.000000"
 preserveAspectRatio="xMidYMid meet">
<metadata>
Created by potrace 1.16, written by Peter Selinger 2001-2019
</metadata>
<g transform="translate(0.000000,56.000000) scale(0.100000,-0.100000)"
fill="#000000" stroke="none">
<path d="M184 546 l-19 -14 11 -31 12 -30 -35 -12 -36 -12 -58 6 -59 5 0 -83
0 -84 17 -16 17 -17 48 5 48 6 9 -17 8 -17 -3 -10 -4 -10 -43 3 -44 4 -10 -29
-10 -28 -18 -73 -17 -73 7 -7 7 -7 81 0 82 0 33 14 33 14 -3 40 -2 41 11 3 12
4 19 -10 18 -10 -4 -35 -4 -35 15 -16 16 -15 73 0 73 0 23 6 22 6 0 63 0 63 6
15 5 14 42 -4 42 -5 23 20 24 21 5 40 5 40 -18 18 -18 18 -50 0 -51 0 -7 10
-8 10 0 58 0 57 -22 0 -23 0 -66 -17 -66 -17 -14 14 -15 14 4 28 4 28 -12 30
-12 30 -42 0 -42 0 -20 -14z"/>
</g>
</svg>
