<?xml version="1.0" standalone="no"?>
<!DOCTYPE svg PUBLIC "-//W3C//DTD SVG 20010904//EN"
 "http://www.w3.org/TR/2001/REC-SVG-20010904/DTD/svg10.dtd">
<svg version="1.0" xmlns="http://www.w3.org/2000/svg"
 width="74.000000pt" height="69.000000pt" viewBox="0 0 74.000000 69.000000"
 preserveAspectRatio="xMidYMid meet">
<metadata>
Created by potrace 1.16, written by Peter Selinger 2001-2019
</metadata>
<g transform="translate(0.000000,69.000000) scale(0.100000,-0.100000)"
fill="#000000" stroke="none">
<path d="M341 681 l-14 -9 6 -46 7 -46 -15 0 -15 0 0 -10 0 -10 -95 0 -95 0 0
-73 0 -73 -38 4 -37 4 -23 -20 -22 -19 0 -40 0 -40 20 -23 19 -22 41 4 40 4 0
-62 0 -62 6 -16 6 -16 88 0 89 0 -6 -35 -6 -35 12 0 11 0 0 -14 0 -15 21 -6
20 -7 26 7 25 6 15 15 15 15 -5 41 -5 40 89 -7 89 -7 0 11 0 11 15 0 14 0 10
38 11 38 6 31 6 31 34 7 34 6 0 50 0 50 -15 15 -15 15 -42 7 -43 8 0 69 0 70
-70 11 -70 11 -18 8 -18 8 5 26 6 26 -9 14 -9 13 -43 5 -44 4 -14 -10z"/>
</g>
</svg>
