<?xml version="1.0" standalone="no"?>
<!DOCTYPE svg PUBLIC "-//W3C//DTD SVG 20010904//EN"
 "http://www.w3.org/TR/2001/REC-SVG-20010904/DTD/svg10.dtd">
<svg version="1.0" xmlns="http://www.w3.org/2000/svg"
 width="72.000000pt" height="67.000000pt" viewBox="0 0 72.000000 67.000000"
 preserveAspectRatio="xMidYMid meet">
<metadata>
Created by potrace 1.16, written by Peter Selinger 2001-2019
</metadata>
<g transform="translate(0.000000,67.000000) scale(0.100000,-0.100000)"
fill="#000000" stroke="none">
<path d="M342 662 l-14 -9 7 -47 7 -46 -16 0 -16 0 0 -10 0 -10 -95 0 -95 0 0
-80 0 -81 -19 11 -20 10 -19 0 -19 0 -21 -19 -22 -18 0 -30 0 -30 20 -23 20
-23 40 7 40 6 0 -64 0 -64 6 -16 6 -16 87 0 88 0 6 -6 6 -6 -12 -26 -12 -25
13 -5 12 -4 0 -13 0 -14 19 -6 18 -5 19 7 19 7 14 13 13 14 -5 22 -4 22 -4 15
-4 15 93 -2 92 -3 0 10 0 10 15 0 14 0 10 38 11 38 6 31 6 31 34 7 34 6 0 40
0 40 -16 17 -17 16 -38 1 -39 0 -6 18 -6 19 4 56 3 57 -70 11 -70 11 -18 8
-17 7 2 34 2 33 -6 6 -6 6 -33 5 -34 5 -13 -9z"/>
</g>
</svg>
