<?xml version="1.0" standalone="no"?>
<!DOCTYPE svg PUBLIC "-//W3C//DTD SVG 20010904//EN"
 "http://www.w3.org/TR/2001/REC-SVG-20010904/DTD/svg10.dtd">
<svg version="1.0" xmlns="http://www.w3.org/2000/svg"
 width="56.000000pt" height="67.000000pt" viewBox="0 0 56.000000 67.000000"
 preserveAspectRatio="xMidYMid meet">
<metadata>
Created by potrace 1.16, written by Peter Selinger 2001-2019
</metadata>
<g transform="translate(0.000000,67.000000) scale(0.100000,-0.100000)"
fill="#000000" stroke="none">
<path d="M245 659 l-7 -10 6 -33 6 -33 -32 -14 -33 -14 -76 1 -77 1 -6 -51 -6
-51 0 -41 0 -42 17 -6 16 -7 43 7 42 6 21 -11 21 -12 0 -14 0 -14 -21 -11 -20
-11 -54 6 -54 7 -16 -15 -15 -16 0 -31 0 -31 12 -47 11 -47 11 -7 11 -8 61 0
61 0 30 -6 29 -6 -4 -33 -4 -34 15 -16 16 -15 25 0 25 0 28 11 28 10 7 12 8
12 0 33 0 32 78 0 79 0 12 28 13 27 5 52 6 51 -7 26 -6 26 -58 0 -57 0 -14 9
-14 9 6 16 6 16 23 0 23 0 23 6 22 6 0 10 0 9 15 16 16 15 -3 62 -3 61 -82 -4
-82 -3 -16 15 -15 15 7 33 6 32 -18 14 -19 13 -32 0 -33 0 -6 -11z"/>
</g>
</svg>
