<?xml version="1.0" standalone="no"?>
<!DOCTYPE svg PUBLIC "-//W3C//DTD SVG 20010904//EN"
 "http://www.w3.org/TR/2001/REC-SVG-20010904/DTD/svg10.dtd">
<svg version="1.0" xmlns="http://www.w3.org/2000/svg"
 width="54.000000pt" height="65.000000pt" viewBox="0 0 54.000000 65.000000"
 preserveAspectRatio="xMidYMid meet">
<metadata>
Created by potrace 1.16, written by Peter Selinger 2001-2019
</metadata>
<g transform="translate(0.000000,65.000000) scale(0.100000,-0.100000)"
fill="#000000" stroke="none">
<path d="M247 643 l-7 -6 6 -37 6 -37 -33 -14 -34 -14 -76 0 -77 0 -6 -50 -6
-50 0 -32 0 -31 13 -5 12 -5 46 5 46 5 21 -11 22 -12 0 -24 0 -24 -22 -12 -21
-11 -54 6 -54 6 -15 -14 -14 -15 0 -21 0 -21 12 -47 11 -47 11 -7 11 -8 61 0
61 0 32 -6 31 -7 -6 -33 -6 -33 16 -17 17 -16 34 6 34 7 16 16 16 16 -3 31 -3
31 81 3 81 3 12 26 12 26 6 43 6 43 -7 25 -6 26 -54 0 -54 0 -16 6 -16 6 0 18
0 18 6 16 6 16 10 -6 9 -6 35 6 34 7 0 10 0 10 15 16 16 15 -3 51 -3 52 -82
-4 -83 -3 -16 16 -16 17 6 34 7 34 -20 10 -20 11 -19 0 -19 0 -6 -7z"/>
</g>
</svg>
