<?xml version="1.0" standalone="no"?>
<!DOCTYPE svg PUBLIC "-//W3C//DTD SVG 20010904//EN"
 "http://www.w3.org/TR/2001/REC-SVG-20010904/DTD/svg10.dtd">
<svg version="1.0" xmlns="http://www.w3.org/2000/svg"
 width="65.000000pt" height="45.000000pt" viewBox="0 0 65.000000 45.000000"
 preserveAspectRatio="xMidYMid meet">
<metadata>
Created by potrace 1.16, written by Peter Selinger 2001-2019
</metadata>
<g transform="translate(0.000000,45.000000) scale(0.100000,-0.100000)"
fill="#000000" stroke="none">
<path d="M425 440 l-7 -11 12 -29 12 -29 -14 -15 -15 -14 -14 -2 -14 -2 -12 1
-13 1 0 15 0 15 -10 0 -11 0 11 21 12 21 -6 14 -5 14 -106 0 -105 0 0 -65 0
-66 -35 7 -35 6 -23 -6 -24 -6 -11 -25 -12 -26 0 -24 0 -24 11 -25 12 -25 43
-17 43 -16 27 6 27 7 -7 -35 -6 -36 -6 -35 -7 -35 253 0 252 0 -5 28 -6 27
-14 60 -15 60 -7 18 -7 17 -39 0 -39 0 0 9 0 9 6 17 6 16 44 -7 43 -6 18 18
18 18 3 80 4 81 -110 3 -111 2 -6 -10z"/>
</g>
</svg>
