<?xml version="1.0" standalone="no"?>
<!DOCTYPE svg PUBLIC "-//W3C//DTD SVG 20010904//EN"
 "http://www.w3.org/TR/2001/REC-SVG-20010904/DTD/svg10.dtd">
<svg version="1.0" xmlns="http://www.w3.org/2000/svg"
 width="63.000000pt" height="43.000000pt" viewBox="0 0 63.000000 43.000000"
 preserveAspectRatio="xMidYMid meet">
<metadata>
Created by potrace 1.16, written by Peter Selinger 2001-2019
</metadata>
<g transform="translate(0.000000,43.000000) scale(0.100000,-0.100000)"
fill="#000000" stroke="none">
<path d="M426 422 l-5 -8 10 -14 9 -15 0 -18 0 -18 -12 -13 -13 -12 -19 -7
-19 -7 -18 5 -19 6 0 14 0 13 -12 4 -13 5 12 25 12 26 -6 6 -6 6 -94 0 -93 0
0 -66 0 -66 -49 7 -48 6 -17 -16 -16 -16 -6 -25 -6 -24 12 -29 12 -30 39 -15
38 -16 32 7 32 6 -6 -49 -6 -49 -7 -22 -6 -23 242 0 242 0 -7 23 -7 22 -13 55
-13 55 -7 18 -8 18 -26 -1 -26 -2 -12 1 -13 1 0 23 0 23 13 17 12 17 37 -12
37 -11 18 18 18 18 3 71 4 71 -100 3 -100 3 -6 -9z"/>
</g>
</svg>
