<?xml version="1.0" standalone="no"?>
<!DOCTYPE svg PUBLIC "-//W3C//DTD SVG 20010904//EN"
 "http://www.w3.org/TR/2001/REC-SVG-20010904/DTD/svg10.dtd">
<svg version="1.0" xmlns="http://www.w3.org/2000/svg"
 width="63.000000pt" height="46.000000pt" viewBox="0 0 63.000000 46.000000"
 preserveAspectRatio="xMidYMid meet">
<metadata>
Created by potrace 1.16, written by Peter Selinger 2001-2019
</metadata>
<g transform="translate(0.000000,46.000000) scale(0.100000,-0.100000)"
fill="#000000" stroke="none">
<path d="M135 382 l0 -78 -16 -17 -16 -16 -38 12 -37 11 -14 -19 -14 -19 0
-32 0 -32 16 -6 16 -6 22 6 23 5 11 -28 11 -28 6 -35 7 -35 11 -32 11 -33 244
0 244 0 -5 27 -6 28 -14 60 -15 60 -7 18 -7 17 -34 0 -34 0 0 28 0 27 45 -3
44 -4 17 17 17 16 5 68 4 68 -16 6 -15 6 -87 -11 -86 -12 6 -36 6 -37 -26 -11
-25 -12 -18 0 -18 0 -21 18 -20 18 10 18 10 18 -11 24 -11 24 -70 0 -70 0 0
10 0 10 -17 0 -18 0 0 -78z"/>
</g>
</svg>
