<?xml version="1.0" standalone="no"?>
<!DOCTYPE svg PUBLIC "-//W3C//DTD SVG 20010904//EN"
 "http://www.w3.org/TR/2001/REC-SVG-20010904/DTD/svg10.dtd">
<svg version="1.0" xmlns="http://www.w3.org/2000/svg"
 width="66.000000pt" height="57.000000pt" viewBox="0 0 66.000000 57.000000"
 preserveAspectRatio="xMidYMid meet">
<metadata>
Created by potrace 1.16, written by Peter Selinger 2001-2019
</metadata>
<g transform="translate(0.000000,57.000000) scale(0.100000,-0.100000)"
fill="#000000" stroke="none">
<path d="M145 558 l-3 -13 -5 -52 -4 -51 -16 -17 -17 -16 -17 0 -18 0 -33 7
-32 6 0 -53 0 -54 9 -14 9 -14 50 6 50 6 12 -30 13 -30 -6 -64 -6 -65 78 0 79
0 -5 -39 -5 -40 16 -17 17 -16 50 4 49 5 20 23 21 24 5 23 6 23 -6 16 -6 15
88 -6 88 -7 17 54 17 55 0 30 0 31 -22 6 -23 6 -44 0 -44 0 -18 22 -19 21 0
13 0 13 16 15 15 16 55 0 54 0 0 85 0 85 -240 0 -241 0 -4 -12z"/>
</g>
</svg>
