<?xml version="1.0" standalone="no"?>
<!DOCTYPE svg PUBLIC "-//W3C//DTD SVG 20010904//EN"
 "http://www.w3.org/TR/2001/REC-SVG-20010904/DTD/svg10.dtd">
<svg version="1.0" xmlns="http://www.w3.org/2000/svg"
 width="61.000000pt" height="57.000000pt" viewBox="0 0 61.000000 57.000000"
 preserveAspectRatio="xMidYMid meet">
<metadata>
Created by potrace 1.16, written by Peter Selinger 2001-2019
</metadata>
<g transform="translate(0.000000,57.000000) scale(0.100000,-0.100000)"
fill="#000000" stroke="none">
<path d="M288 508 l4 -53 -20 -22 -19 -23 -21 0 -21 0 -25 11 -25 12 -11 28
-12 29 4 30 5 30 -67 0 -67 0 -7 -31 -6 -31 0 -48 0 -48 20 5 20 5 35 -6 34
-7 16 -15 15 -15 0 -34 0 -34 -17 -16 -17 -17 -42 6 -42 5 -6 -31 -6 -31 0
-43 0 -44 80 0 81 0 6 -17 7 -17 -12 -4 -12 -4 0 -13 0 -14 25 -26 26 -25 34
0 35 0 0 10 0 10 16 0 16 0 -5 18 -5 17 -3 14 -4 15 65 12 65 12 23 7 22 7 0
14 0 14 14 0 14 0 5 28 6 27 8 35 9 35 31 -2 31 -3 11 32 11 31 0 14 0 14 -12
13 -13 12 -34 12 -33 12 -26 -7 -25 -6 5 75 5 76 -51 6 -51 6 -46 0 -46 0 5
-52z"/>
</g>
</svg>
