<?xml version="1.0" standalone="no"?>
<!DOCTYPE svg PUBLIC "-//W3C//DTD SVG 20010904//EN"
 "http://www.w3.org/TR/2001/REC-SVG-20010904/DTD/svg10.dtd">
<svg version="1.0" xmlns="http://www.w3.org/2000/svg"
 width="63.000000pt" height="59.000000pt" viewBox="0 0 63.000000 59.000000"
 preserveAspectRatio="xMidYMid meet">
<metadata>
Created by potrace 1.16, written by Peter Selinger 2001-2019
</metadata>
<g transform="translate(0.000000,59.000000) scale(0.100000,-0.100000)"
fill="#000000" stroke="none">
<path d="M6 544 l-6 -47 0 -54 0 -54 33 6 32 6 30 -11 30 -11 7 -12 8 -12 0
-22 0 -22 -16 -16 -16 -16 -43 6 -42 7 -7 -32 -6 -33 0 -53 0 -54 79 0 80 0 6
-10 6 -10 -10 0 -11 0 0 -25 0 -24 25 -26 26 -25 44 0 45 0 0 10 0 10 16 0 17
0 -6 34 -5 34 51 6 52 7 33 11 32 12 0 13 0 13 14 0 14 0 5 27 6 28 8 35 9 35
31 -3 31 -3 11 32 11 32 0 24 0 24 -13 13 -13 13 -37 12 -38 13 -21 -5 -21 -6
6 73 7 73 -53 7 -52 6 -58 0 -57 0 6 -52 6 -53 -20 -22 -19 -23 -11 0 -11 0
-25 11 -25 12 -11 28 -12 28 7 30 7 31 -66 0 -66 0 0 10 0 10 -14 0 -13 0 -7
-46z"/>
</g>
</svg>
