<?xml version="1.0" standalone="no"?>
<!DOCTYPE svg PUBLIC "-//W3C//DTD SVG 20010904//EN"
 "http://www.w3.org/TR/2001/REC-SVG-20010904/DTD/svg10.dtd">
<svg version="1.0" xmlns="http://www.w3.org/2000/svg"
 width="64.000000pt" height="55.000000pt" viewBox="0 0 64.000000 55.000000"
 preserveAspectRatio="xMidYMid meet">
<metadata>
Created by potrace 1.16, written by Peter Selinger 2001-2019
</metadata>
<g transform="translate(0.000000,55.000000) scale(0.100000,-0.100000)"
fill="#000000" stroke="none">
<path d="M145 538 l-3 -13 -5 -52 -4 -51 -17 -18 -18 -17 -26 0 -27 0 -22 8
-23 7 0 -43 0 -44 9 -14 9 -13 49 7 50 6 13 -30 12 -31 -4 -65 -4 -65 79 0 79
0 -7 -40 -7 -40 17 -16 16 -16 40 5 40 5 19 22 19 22 6 19 6 18 -12 22 -11 22
94 -7 94 -7 17 54 17 54 0 20 0 21 -22 6 -23 6 -44 0 -44 0 -18 22 -19 21 0
23 0 23 16 15 15 16 55 0 54 0 0 75 0 75 -230 0 -231 0 -4 -12z"/>
</g>
</svg>
