<?xml version="1.0" standalone="no"?>
<!DOCTYPE svg PUBLIC "-//W3C//DTD SVG 20010904//EN"
 "http://www.w3.org/TR/2001/REC-SVG-20010904/DTD/svg10.dtd">
<svg version="1.0" xmlns="http://www.w3.org/2000/svg"
 width="61.000000pt" height="44.000000pt" viewBox="0 0 61.000000 44.000000"
 preserveAspectRatio="xMidYMid meet">
<metadata>
Created by potrace 1.16, written by Peter Selinger 2001-2019
</metadata>
<g transform="translate(0.000000,44.000000) scale(0.100000,-0.100000)"
fill="#000000" stroke="none">
<path d="M138 352 l-3 -69 -18 -18 -18 -18 -37 11 -37 12 -12 -17 -13 -17 0
-23 0 -23 13 -1 12 -1 26 2 26 1 11 -28 11 -28 6 -35 7 -35 11 -33 11 -32 234
0 234 0 -7 23 -7 22 -13 55 -13 55 -7 18 -8 19 -33 -4 -34 -4 0 43 0 43 44 -6
45 -7 16 17 17 17 5 58 5 58 -13 5 -14 5 -77 -10 -78 -10 6 -37 6 -36 -27 -12
-26 -12 -28 0 -28 0 -23 20 -23 20 10 23 11 23 -10 17 -9 17 -73 0 -74 0 -4
-68z"/>
</g>
</svg>
