<?xml version="1.0" standalone="no"?>
<!DOCTYPE svg PUBLIC "-//W3C//DTD SVG 20010904//EN"
 "http://www.w3.org/TR/2001/REC-SVG-20010904/DTD/svg10.dtd">
<svg version="1.0" xmlns="http://www.w3.org/2000/svg"
 width="62.000000pt" height="57.000000pt" viewBox="0 0 62.000000 57.000000"
 preserveAspectRatio="xMidYMid meet">
<metadata>
Created by potrace 1.16, written by Peter Selinger 2001-2019
</metadata>
<g transform="translate(0.000000,57.000000) scale(0.100000,-0.100000)"
fill="#000000" stroke="none">
<path d="M153 564 l-23 -5 0 -49 0 -49 -15 -15 -15 -15 0 -9 0 -10 -24 -6 -24
-6 -17 6 -17 7 -9 -14 -9 -14 0 -31 0 -32 16 -6 16 -6 54 0 54 0 6 -26 7 -27
-12 -49 -11 -50 0 -19 0 -19 64 0 64 0 16 -6 15 -6 -6 -28 -5 -29 14 -14 13
-14 24 -12 23 -13 37 7 36 7 7 11 8 12 0 22 0 23 23 4 22 5 38 6 39 6 24 11
24 11 0 47 0 47 -6 47 -7 46 -13 0 -14 0 0 11 0 12 -34 -6 -34 -5 -5 12 -5 13
7 12 8 12 40 -7 40 -6 16 17 17 16 0 86 0 85 -97 -7 -98 -7 -8 -5 -9 -5 6 -25
7 -24 -14 -14 -14 -13 -19 -3 -19 -3 -21 7 -21 8 1 39 1 39 -7 6 -7 7 -63 3
-63 3 -22 -4z"/>
</g>
</svg>
