<?xml version="1.0" standalone="no"?>
<!DOCTYPE svg PUBLIC "-//W3C//DTD SVG 20010904//EN"
 "http://www.w3.org/TR/2001/REC-SVG-20010904/DTD/svg10.dtd">
<svg version="1.0" xmlns="http://www.w3.org/2000/svg"
 width="60.000000pt" height="55.000000pt" viewBox="0 0 60.000000 55.000000"
 preserveAspectRatio="xMidYMid meet">
<metadata>
Created by potrace 1.16, written by Peter Selinger 2001-2019
</metadata>
<g transform="translate(0.000000,55.000000) scale(0.100000,-0.100000)"
fill="#000000" stroke="none">
<path d="M153 544 l-23 -5 0 -49 0 -49 -15 -15 -15 -15 0 -10 0 -10 -34 -7
-35 -6 -9 6 -10 6 -6 -16 -6 -16 0 -18 0 -18 16 -6 16 -6 54 0 54 0 6 -26 6
-25 -5 -37 -5 -37 -7 -32 -7 -33 66 0 67 0 19 -10 19 -10 -11 -25 -11 -24 14
-14 14 -14 23 -12 22 -11 27 6 28 7 7 11 8 11 0 22 0 23 23 4 22 5 38 6 39 6
24 11 24 11 0 37 0 37 -6 47 -7 46 -13 0 -14 0 0 10 0 11 -34 -6 -34 -7 -6 20
-6 19 6 18 7 17 43 -6 43 -5 16 15 15 15 0 76 0 75 -87 -7 -88 -7 -6 -4 -6 -4
4 -24 5 -25 -14 -14 -13 -14 -27 -6 -27 -7 -25 11 -26 12 2 39 1 38 -5 6 -6 5
-53 4 -54 3 -22 -4z"/>
</g>
</svg>
