<?xml version="1.0" standalone="no"?>
<!DOCTYPE svg PUBLIC "-//W3C//DTD SVG 20010904//EN"
 "http://www.w3.org/TR/2001/REC-SVG-20010904/DTD/svg10.dtd">
<svg version="1.0" xmlns="http://www.w3.org/2000/svg"
 width="46.000000pt" height="54.000000pt" viewBox="0 0 46.000000 54.000000"
 preserveAspectRatio="xMidYMid meet">
<metadata>
Created by potrace 1.16, written by Peter Selinger 2001-2019
</metadata>
<g transform="translate(0.000000,54.000000) scale(0.100000,-0.100000)"
fill="#000000" stroke="none">
<path d="M9 508 l-1 -33 1 -15 2 -15 4 -21 5 -22 53 2 53 1 18 -18 18 -18 -6
-31 -6 -31 -22 -19 -23 -20 -42 7 -42 6 -5 -23 -5 -23 -3 -61 -3 -61 77 1 76
1 8 -7 7 -8 -1 -38 -2 -39 26 -12 25 -11 27 7 27 6 13 14 13 13 -3 27 -3 28
15 2 15 2 68 6 67 7 0 73 0 73 -6 17 -6 16 -44 -7 -44 -6 0 11 0 11 -15 0 -15
0 0 15 0 15 -10 0 -10 0 0 24 0 25 17 16 17 17 58 -6 58 -7 0 72 0 71 -17 -7
-18 -8 -57 -12 -56 -13 -11 -6 -11 -7 0 -29 0 -28 -16 -6 -16 -6 -35 0 -34 0
-15 15 -15 14 7 25 6 25 -6 19 -6 19 -75 2 -75 2 -1 -33z"/>
</g>
</svg>
