<?xml version="1.0" standalone="no"?>
<!DOCTYPE svg PUBLIC "-//W3C//DTD SVG 20010904//EN"
 "http://www.w3.org/TR/2001/REC-SVG-20010904/DTD/svg10.dtd">
<svg version="1.0" xmlns="http://www.w3.org/2000/svg"
 width="48.000000pt" height="56.000000pt" viewBox="0 0 48.000000 56.000000"
 preserveAspectRatio="xMidYMid meet">
<metadata>
Created by potrace 1.16, written by Peter Selinger 2001-2019
</metadata>
<g transform="translate(0.000000,56.000000) scale(0.100000,-0.100000)"
fill="#000000" stroke="none">
<path d="M8 528 l-2 -33 2 -25 1 -25 6 -22 5 -23 53 3 53 2 18 -17 17 -18 -7
-22 -7 -23 -20 -17 -19 -17 -44 6 -43 6 -5 -24 -5 -24 -4 -74 -5 -73 53 6 53
6 31 -6 31 -6 0 -43 0 -43 29 -12 30 -12 32 7 33 7 13 14 13 13 0 30 0 31 34
0 33 0 47 6 46 7 0 86 0 86 -9 14 -9 14 -41 -7 -41 -6 0 10 0 10 -15 0 -15 0
0 15 0 15 -10 0 -10 0 0 14 0 15 16 16 16 16 59 -7 59 -7 0 83 0 82 -22 -5
-23 -6 -62 -15 -61 -14 -11 -6 -11 -7 0 -29 0 -28 -16 -6 -16 -6 -24 0 -25 0
-13 12 -12 12 4 23 4 23 -6 25 -6 25 -85 0 -85 0 -2 -32z"/>
</g>
</svg>
