<?xml version="1.0" standalone="no"?>
<!DOCTYPE svg PUBLIC "-//W3C//DTD SVG 20010904//EN"
 "http://www.w3.org/TR/2001/REC-SVG-20010904/DTD/svg10.dtd">
<svg version="1.0" xmlns="http://www.w3.org/2000/svg"
 width="60.000000pt" height="57.000000pt" viewBox="0 0 60.000000 57.000000"
 preserveAspectRatio="xMidYMid meet">
<metadata>
Created by potrace 1.16, written by Peter Selinger 2001-2019
</metadata>
<g transform="translate(0.000000,57.000000) scale(0.100000,-0.100000)"
fill="#000000" stroke="none">
<path d="M6 548 l-6 -23 0 -50 0 -50 8 -11 7 -10 36 0 36 0 17 -16 16 -17 0
-30 0 -30 -33 -6 -34 -7 -16 -71 -17 -72 0 -17 0 -17 73 -3 72 -3 -3 -38 -3
-39 22 -19 22 -19 38 0 38 0 26 12 27 12 -4 37 -3 37 60 7 60 6 20 5 21 5 14
47 13 47 15 33 16 32 28 0 29 0 -3 58 -3 57 -54 1 -53 2 -10 13 -9 14 6 74 6
74 -28 -7 -28 -7 -64 -12 -64 -12 -4 -12 -4 -12 11 -20 11 -21 -16 0 -15 0 0
-10 0 -10 -25 0 -24 0 -26 26 -27 27 12 7 12 7 -4 24 -3 24 -91 3 -91 3 -7
-23z"/>
</g>
</svg>
