<?xml version="1.0" standalone="no"?>
<!DOCTYPE svg PUBLIC "-//W3C//DTD SVG 20010904//EN"
 "http://www.w3.org/TR/2001/REC-SVG-20010904/DTD/svg10.dtd">
<svg version="1.0" xmlns="http://www.w3.org/2000/svg"
 width="58.000000pt" height="55.000000pt" viewBox="0 0 58.000000 55.000000"
 preserveAspectRatio="xMidYMid meet">
<metadata>
Created by potrace 1.16, written by Peter Selinger 2001-2019
</metadata>
<g transform="translate(0.000000,55.000000) scale(0.100000,-0.100000)"
fill="#000000" stroke="none">
<path d="M6 528 l-6 -23 0 -40 0 -40 8 -10 7 -10 37 -1 37 -1 15 -16 16 -16 0
-40 0 -40 -33 -6 -34 -7 -16 -71 -17 -72 0 -7 0 -8 70 0 69 0 9 -17 10 -17
-11 -23 -10 -23 23 -20 23 -20 28 0 28 0 26 12 27 12 -6 37 -6 36 63 7 62 7
20 5 21 5 14 47 13 47 15 33 16 32 28 0 29 0 -3 48 -3 47 -53 0 -53 1 -10 14
-10 15 5 73 5 74 -17 -8 -17 -7 -65 -12 -65 -11 4 -15 3 -14 5 -17 5 -18 -16
0 -16 0 0 -10 0 -10 -35 0 -34 0 -26 25 -25 26 0 14 0 13 12 4 12 4 -7 17 -6
17 -80 0 -79 0 -6 -22z"/>
</g>
</svg>
