<?xml version="1.0" standalone="no"?>
<!DOCTYPE svg PUBLIC "-//W3C//DTD SVG 20010904//EN"
 "http://www.w3.org/TR/2001/REC-SVG-20010904/DTD/svg10.dtd">
<svg version="1.0" xmlns="http://www.w3.org/2000/svg"
 width="78.000000pt" height="57.000000pt" viewBox="0 0 78.000000 57.000000"
 preserveAspectRatio="xMidYMid meet">
<metadata>
Created by potrace 1.16, written by Peter Selinger 2001-2019
</metadata>
<g transform="translate(0.000000,57.000000) scale(0.100000,-0.100000)"
fill="#000000" stroke="none">
<path d="M450 550 l11 -21 -6 -18 -6 -19 -19 -22 -19 -22 -40 -5 -40 -5 -16
16 -17 16 7 40 7 40 -86 0 -86 0 0 -76 0 -76 -30 7 -30 7 -34 -12 -34 -11 -6
-15 -6 -16 6 -23 6 -23 21 -6 22 -6 31 0 32 0 6 -16 6 -16 0 -52 0 -53 19 -21
18 -22 71 0 72 0 6 -24 6 -25 -7 -20 -6 -21 15 -15 15 -15 34 0 35 0 16 6 16
6 0 29 0 28 19 11 20 10 19 0 20 0 50 16 50 16 16 42 16 42 0 19 0 20 6 22 6
23 39 -6 38 -6 16 15 15 16 6 30 6 30 -15 16 -15 15 -28 10 -28 11 -28 -12
-29 -12 -7 8 -7 7 0 71 0 72 -45 7 -45 7 -48 0 -48 1 11 -20z"/>
</g>
</svg>
