<?xml version="1.0" standalone="no"?>
<!DOCTYPE svg PUBLIC "-//W3C//DTD SVG 20010904//EN"
 "http://www.w3.org/TR/2001/REC-SVG-20010904/DTD/svg10.dtd">
<svg version="1.0" xmlns="http://www.w3.org/2000/svg"
 width="80.000000pt" height="59.000000pt" viewBox="0 0 80.000000 59.000000"
 preserveAspectRatio="xMidYMid meet">
<metadata>
Created by potrace 1.16, written by Peter Selinger 2001-2019
</metadata>
<g transform="translate(0.000000,59.000000) scale(0.100000,-0.100000)"
fill="#000000" stroke="none">
<path d="M440 579 l0 -14 9 -14 10 -15 -11 -20 -11 -21 -13 -12 -13 -13 -30
-6 -30 -6 -15 14 -14 15 5 42 6 41 -97 0 -96 0 0 -73 0 -74 -29 5 -29 4 -36
-12 -35 -11 -6 -20 -6 -19 6 -29 6 -29 22 -6 22 -6 31 0 32 0 6 -16 6 -16 0
-52 0 -53 19 -21 18 -22 71 0 70 0 6 -15 5 -15 -5 -30 -6 -29 15 -16 16 -15
44 0 45 0 16 6 16 6 0 29 0 28 19 11 20 10 19 0 20 0 50 16 50 16 16 42 16 42
0 19 0 20 6 20 5 20 39 -3 39 -4 17 16 16 17 5 39 6 40 -23 20 -23 20 -32 6
-33 6 -20 -11 -20 -11 -6 23 -6 22 6 51 6 51 -10 7 -11 6 -95 7 -96 6 0 -14z"/>
</g>
</svg>
