<?xml version="1.0" standalone="no"?>
<!DOCTYPE svg PUBLIC "-//W3C//DTD SVG 20010904//EN"
 "http://www.w3.org/TR/2001/REC-SVG-20010904/DTD/svg10.dtd">
<svg version="1.0" xmlns="http://www.w3.org/2000/svg"
 width="61.000000pt" height="45.000000pt" viewBox="0 0 61.000000 45.000000"
 preserveAspectRatio="xMidYMid meet">
<metadata>
Created by potrace 1.16, written by Peter Selinger 2001-2019
</metadata>
<g transform="translate(0.000000,45.000000) scale(0.100000,-0.100000)"
fill="#000000" stroke="none">
<path d="M317 395 l6 -55 -23 -20 -23 -20 -33 0 -33 0 -16 16 -17 17 4 51 3
51 -92 1 -93 1 0 -212 0 -213 16 -6 16 -6 55 0 54 0 15 15 15 15 -6 43 -7 44
17 16 16 17 27 0 27 0 14 -9 14 -9 -6 -43 -6 -43 21 -18 21 -18 69 0 69 0 16
15 15 15 -7 60 -7 59 49 -6 50 -5 26 26 27 27 0 31 0 31 -22 19 -23 20 -42 -7
-43 -6 0 74 0 74 -52 7 -53 6 -32 0 -32 0 6 -55z"/>
</g>
</svg>
