<?xml version="1.0" standalone="no"?>
<!DOCTYPE svg PUBLIC "-//W3C//DTD SVG 20010904//EN"
 "http://www.w3.org/TR/2001/REC-SVG-20010904/DTD/svg10.dtd">
<svg version="1.0" xmlns="http://www.w3.org/2000/svg"
 width="63.000000pt" height="47.000000pt" viewBox="0 0 63.000000 47.000000"
 preserveAspectRatio="xMidYMid meet">
<metadata>
Created by potrace 1.16, written by Peter Selinger 2001-2019
</metadata>
<g transform="translate(0.000000,47.000000) scale(0.100000,-0.100000)"
fill="#000000" stroke="none">
<path d="M315 415 l7 -56 -22 -19 -23 -20 -21 0 -21 0 -15 10 -15 9 0 58 0 58
-102 3 -103 3 0 -225 0 -224 16 -6 16 -6 65 0 64 0 16 16 16 15 -6 44 -6 44
15 16 15 15 17 0 17 0 14 -9 13 -9 -7 -41 -7 -42 23 -19 22 -20 79 0 79 0 16
16 16 15 -6 57 -6 57 48 -3 48 -4 27 27 26 26 0 41 0 41 -22 19 -23 20 -42 -5
-43 -5 0 73 0 72 -52 7 -53 6 -43 0 -43 0 6 -55z"/>
</g>
</svg>
