<?xml version="1.0" standalone="no"?>
<!DOCTYPE svg PUBLIC "-//W3C//DTD SVG 20010904//EN"
 "http://www.w3.org/TR/2001/REC-SVG-20010904/DTD/svg10.dtd">
<svg version="1.0" xmlns="http://www.w3.org/2000/svg"
 width="50.000000pt" height="61.000000pt" viewBox="0 0 50.000000 61.000000"
 preserveAspectRatio="xMidYMid meet">
<metadata>
Created by potrace 1.16, written by Peter Selinger 2001-2019
</metadata>
<g transform="translate(0.000000,61.000000) scale(0.100000,-0.100000)"
fill="#000000" stroke="none">
<path d="M173 569 l5 -41 -5 -14 -5 -14 -13 0 -13 0 -4 -12 -4 -12 -67 -4 -67
-4 2 -222 3 -221 75 -3 75 -3 23 6 23 6 -2 32 -3 32 13 23 12 22 24 0 24 0 10
-19 10 -18 -5 -35 -6 -35 18 -17 18 -18 58 6 58 7 30 10 30 11 0 19 0 18 -19
43 -19 43 -12 32 -12 33 -29 0 -29 0 0 34 0 34 13 5 14 5 14 -9 14 -9 19 0 19
0 18 22 19 21 0 74 0 74 -15 16 -16 15 -13 -5 -14 -6 -55 13 -55 13 -14 14
-13 14 0 30 0 30 -69 3 -69 3 6 -42z"/>
</g>
</svg>
