<?xml version="1.0" standalone="no"?>
<!DOCTYPE svg PUBLIC "-//W3C//DTD SVG 20010904//EN"
 "http://www.w3.org/TR/2001/REC-SVG-20010904/DTD/svg10.dtd">
<svg version="1.0" xmlns="http://www.w3.org/2000/svg"
 width="48.000000pt" height="59.000000pt" viewBox="0 0 48.000000 59.000000"
 preserveAspectRatio="xMidYMid meet">
<metadata>
Created by potrace 1.16, written by Peter Selinger 2001-2019
</metadata>
<g transform="translate(0.000000,59.000000) scale(0.100000,-0.100000)"
fill="#000000" stroke="none">
<path d="M174 555 l7 -36 -6 -19 -6 -20 -14 0 -13 0 -4 -12 -4 -12 -67 -4 -67
-4 2 -212 3 -211 65 -3 64 -3 24 6 24 6 -6 25 -6 24 15 30 16 30 34 0 34 0 12
-21 11 -21 -6 -33 -7 -33 17 -17 17 -17 46 7 46 6 32 10 33 11 0 9 0 8 -19 43
-19 43 -12 32 -12 33 -29 0 -29 0 0 44 0 45 19 6 19 6 26 -12 26 -12 20 23 20
23 0 64 0 64 -14 14 -14 14 -5 -5 -5 -5 -61 12 -61 12 -20 17 -19 17 2 29 2
29 -59 3 -58 3 6 -36z"/>
</g>
</svg>
