<?xml version="1.0" standalone="no"?>
<!DOCTYPE svg PUBLIC "-//W3C//DTD SVG 20010904//EN"
 "http://www.w3.org/TR/2001/REC-SVG-20010904/DTD/svg10.dtd">
<svg version="1.0" xmlns="http://www.w3.org/2000/svg"
 width="73.000000pt" height="57.000000pt" viewBox="0 0 73.000000 57.000000"
 preserveAspectRatio="xMidYMid meet">
<metadata>
Created by potrace 1.16, written by Peter Selinger 2001-2019
</metadata>
<g transform="translate(0.000000,57.000000) scale(0.100000,-0.100000)"
fill="#000000" stroke="none">
<path d="M165 485 l7 -85 -75 0 -76 0 -11 -20 -10 -20 21 -21 22 -22 67 7 68
6 6 -16 6 -16 0 -34 0 -35 -15 -29 -15 -29 6 -15 6 -16 62 0 63 0 -5 -30 -4
-30 12 -29 11 -28 25 -12 25 -11 21 0 21 0 19 23 20 22 -4 54 -5 54 99 -7 98
-6 0 20 0 20 17 63 17 62 13 13 13 13 17 -3 18 -3 3 33 3 32 -15 15 -15 15
-51 0 -52 0 4 73 3 73 -35 -13 -35 -12 -27 -1 -26 0 -16 -6 -16 -6 0 -22 0
-21 -8 -11 -7 -11 -28 -7 -27 -6 -22 11 -23 12 -14 14 -14 14 11 24 11 25 -19
10 -19 10 -66 0 -67 0 7 -85z"/>
</g>
</svg>
