<?xml version="1.0" standalone="no"?>
<!DOCTYPE svg PUBLIC "-//W3C//DTD SVG 20010904//EN"
 "http://www.w3.org/TR/2001/REC-SVG-20010904/DTD/svg10.dtd">
<svg version="1.0" xmlns="http://www.w3.org/2000/svg"
 width="75.000000pt" height="59.000000pt" viewBox="0 0 75.000000 59.000000"
 preserveAspectRatio="xMidYMid meet">
<metadata>
Created by potrace 1.16, written by Peter Selinger 2001-2019
</metadata>
<g transform="translate(0.000000,59.000000) scale(0.100000,-0.100000)"
fill="#000000" stroke="none">
<path d="M164 505 l7 -85 -76 0 -75 0 -11 -24 -11 -23 11 -22 12 -21 25 -6 26
-7 53 6 53 5 6 -15 6 -15 0 -24 0 -25 -16 -31 -16 -30 6 -24 6 -24 60 0 60 0
0 -35 0 -34 11 -24 11 -25 25 -11 24 -11 31 0 31 0 18 22 19 21 0 55 0 54 95
-7 95 -7 0 21 0 21 17 63 17 62 11 10 10 10 20 0 20 0 3 43 3 42 -15 15 -15
15 -52 0 -52 0 6 76 6 76 -22 -7 -22 -7 -45 -10 -45 -10 -22 -4 -23 -4 0 -23
0 -22 -8 -11 -7 -12 -20 -2 -20 -2 -10 1 -11 1 -21 17 -21 17 11 24 11 24 -19
14 -19 14 -79 0 -80 0 7 -85z"/>
</g>
</svg>
