<?xml version="1.0" standalone="no"?>
<!DOCTYPE svg PUBLIC "-//W3C//DTD SVG 20010904//EN"
 "http://www.w3.org/TR/2001/REC-SVG-20010904/DTD/svg10.dtd">
<svg version="1.0" xmlns="http://www.w3.org/2000/svg"
 width="62.000000pt" height="45.000000pt" viewBox="0 0 62.000000 45.000000"
 preserveAspectRatio="xMidYMid meet">
<metadata>
Created by potrace 1.16, written by Peter Selinger 2001-2019
</metadata>
<g transform="translate(0.000000,45.000000) scale(0.100000,-0.100000)"
fill="#000000" stroke="none">
<path d="M114 435 l-7 -17 13 -8 13 -8 -6 -47 -7 -46 -15 -15 -15 -15 -45 7
-45 6 0 -56 0 -57 33 6 33 6 12 -26 12 -26 0 -18 0 -19 17 -51 16 -51 246 2
246 3 3 83 3 83 -16 16 -16 16 -44 -6 -43 -6 -6 15 -6 16 0 18 0 19 33 -6 34
-5 16 16 16 16 9 0 10 0 6 31 6 31 0 43 0 43 -16 6 -16 6 -89 -16 -89 -17 0
-17 0 -18 -6 -16 -6 -16 -27 0 -28 0 -11 26 -12 25 6 25 6 24 -83 0 -84 0 -22
6 -23 6 -6 -17z"/>
</g>
</svg>
