<?xml version="1.0" standalone="no"?>
<!DOCTYPE svg PUBLIC "-//W3C//DTD SVG 20010904//EN"
 "http://www.w3.org/TR/2001/REC-SVG-20010904/DTD/svg10.dtd">
<svg version="1.0" xmlns="http://www.w3.org/2000/svg"
 width="76.000000pt" height="55.000000pt" viewBox="0 0 76.000000 55.000000"
 preserveAspectRatio="xMidYMid meet">
<metadata>
Created by potrace 1.16, written by Peter Selinger 2001-2019
</metadata>
<g transform="translate(0.000000,55.000000) scale(0.100000,-0.100000)"
fill="#000000" stroke="none">
<path d="M147 543 l-7 -6 0 -69 0 -68 -54 0 -55 0 -15 -16 -16 -15 0 -23 0
-23 19 -21 18 -22 44 0 44 0 23 -6 22 -6 0 -23 0 -22 -15 -43 -15 -43 0 -12 0
-12 66 -6 67 -5 8 -13 9 -14 -5 -23 -6 -23 15 -14 15 -15 30 0 31 0 0 10 0 10
13 0 14 0 11 25 12 25 -7 31 -6 32 85 -7 84 -7 17 7 17 6 0 70 0 71 39 -7 40
-6 24 11 24 11 12 33 12 33 -12 25 -12 26 -14 6 -15 5 -40 -11 -41 -10 -11 11
-11 11 0 70 0 69 -226 0 -226 0 -6 -7z"/>
</g>
</svg>
