<?xml version="1.0" standalone="no"?>
<!DOCTYPE svg PUBLIC "-//W3C//DTD SVG 20010904//EN"
 "http://www.w3.org/TR/2001/REC-SVG-20010904/DTD/svg10.dtd">
<svg version="1.0" xmlns="http://www.w3.org/2000/svg"
 width="78.000000pt" height="57.000000pt" viewBox="0 0 78.000000 57.000000"
 preserveAspectRatio="xMidYMid meet">
<metadata>
Created by potrace 1.16, written by Peter Selinger 2001-2019
</metadata>
<g transform="translate(0.000000,57.000000) scale(0.100000,-0.100000)"
fill="#000000" stroke="none">
<path d="M147 563 l-7 -6 0 -69 0 -68 -54 0 -55 0 -15 -16 -16 -15 0 -33 0
-33 17 -20 18 -20 62 -5 63 -4 7 -7 7 -7 -17 -54 -17 -53 0 -20 0 -20 66 -6
67 -5 7 -12 7 -11 -5 -24 -4 -24 15 -16 16 -15 40 0 41 0 0 10 0 10 14 0 14 0
12 30 12 30 -6 26 -7 26 80 -7 79 -7 21 7 21 6 0 70 0 70 35 -7 35 -6 29 11
28 12 13 39 13 39 -13 31 -13 30 -22 6 -23 6 -36 -10 -36 -10 -7 11 -8 12 1
68 1 67 -237 0 -237 0 -6 -7z"/>
</g>
</svg>
