<?xml version="1.0" standalone="no"?>
<!DOCTYPE svg PUBLIC "-//W3C//DTD SVG 20010904//EN"
 "http://www.w3.org/TR/2001/REC-SVG-20010904/DTD/svg10.dtd">
<svg version="1.0" xmlns="http://www.w3.org/2000/svg"
 width="60.000000pt" height="43.000000pt" viewBox="0 0 60.000000 43.000000"
 preserveAspectRatio="xMidYMid meet">
<metadata>
Created by potrace 1.16, written by Peter Selinger 2001-2019
</metadata>
<g transform="translate(0.000000,43.000000) scale(0.100000,-0.100000)"
fill="#000000" stroke="none">
<path d="M113 418 l-4 -8 12 0 12 0 -6 -60 -5 -59 -17 -17 -16 -17 -45 7 -44
6 0 -43 0 -43 33 4 33 4 12 -27 12 -26 0 -18 0 -19 17 -51 16 -51 236 2 236 3
3 73 3 73 -16 15 -15 16 -41 -7 -41 -7 -9 13 -9 14 0 39 0 38 18 -7 17 -7 16
-5 16 -5 16 16 16 16 9 0 10 0 6 31 6 31 0 33 0 33 -12 5 -13 4 -82 -14 -83
-15 0 -18 0 -18 -6 -16 -6 -16 -38 0 -38 0 -12 30 -12 30 5 19 5 20 -95 3 -95
3 -5 -7z"/>
</g>
</svg>
