<?xml version="1.0" standalone="no"?>
<!DOCTYPE svg PUBLIC "-//W3C//DTD SVG 20010904//EN"
 "http://www.w3.org/TR/2001/REC-SVG-20010904/DTD/svg10.dtd">
<svg version="1.0" xmlns="http://www.w3.org/2000/svg"
 width="48.000000pt" height="58.000000pt" viewBox="0 0 48.000000 58.000000"
 preserveAspectRatio="xMidYMid meet">
<metadata>
Created by potrace 1.16, written by Peter Selinger 2001-2019
</metadata>
<g transform="translate(0.000000,58.000000) scale(0.100000,-0.100000)"
fill="#000000" stroke="none">
<path d="M190 573 l-15 -6 -8 -11 -8 -11 6 -43 6 -42 -16 -16 -16 -16 -69 4
-70 4 0 -201 0 -200 9 -14 9 -14 62 2 63 2 21 11 21 11 13 14 14 14 -6 34 -7
35 40 0 40 0 10 -18 10 -18 -10 -15 -9 -14 0 -11 0 -12 28 -10 27 -10 56 -5
56 -5 13 8 13 8 -8 57 -7 58 -5 14 -5 13 -43 0 -43 0 -6 16 -6 16 0 36 0 37 9
14 9 14 33 -13 33 -14 4 12 4 12 13 0 13 0 6 16 6 16 0 43 0 43 -5 14 -5 13
-83 -3 -82 -4 -22 19 -22 19 6 43 6 43 -14 9 -14 9 -20 -1 -20 -1 -15 -5z"/>
</g>
</svg>
