<?xml version="1.0" standalone="no"?>
<!DOCTYPE svg PUBLIC "-//W3C//DTD SVG 20010904//EN"
 "http://www.w3.org/TR/2001/REC-SVG-20010904/DTD/svg10.dtd">
<svg version="1.0" xmlns="http://www.w3.org/2000/svg"
 width="50.000000pt" height="60.000000pt" viewBox="0 0 50.000000 60.000000"
 preserveAspectRatio="xMidYMid meet">
<metadata>
Created by potrace 1.16, written by Peter Selinger 2001-2019
</metadata>
<g transform="translate(0.000000,60.000000) scale(0.100000,-0.100000)"
fill="#000000" stroke="none">
<path d="M188 593 l-18 -4 -6 -25 -6 -25 6 -30 6 -31 -16 -15 -15 -16 -70 6
-69 6 0 -212 0 -212 10 -15 9 -15 72 3 72 3 21 11 21 11 13 14 14 14 -4 35 -4
35 30 -3 31 -3 -3 -41 -3 -41 28 -11 28 -10 65 -6 65 -6 14 9 14 9 -7 66 -7
66 -5 15 -6 15 -43 0 -43 0 -6 16 -6 16 0 26 0 27 8 12 8 12 14 -9 15 -10 23
0 22 0 0 10 0 10 14 0 14 0 6 16 6 16 0 53 0 53 -6 15 -5 15 -82 -5 -82 -5
-20 18 -20 19 3 44 3 44 -13 8 -13 9 -30 -1 -30 -1 -17 -5z"/>
</g>
</svg>
