<?xml version="1.0" standalone="no"?>
<!DOCTYPE svg PUBLIC "-//W3C//DTD SVG 20010904//EN"
 "http://www.w3.org/TR/2001/REC-SVG-20010904/DTD/svg10.dtd">
<svg version="1.0" xmlns="http://www.w3.org/2000/svg"
 width="61.000000pt" height="52.000000pt" viewBox="0 0 61.000000 52.000000"
 preserveAspectRatio="xMidYMid meet">
<metadata>
Created by potrace 1.16, written by Peter Selinger 2001-2019
</metadata>
<g transform="translate(0.000000,52.000000) scale(0.100000,-0.100000)"
fill="#000000" stroke="none">
<path d="M183 509 l-11 -11 10 -30 11 -30 -14 -9 -14 -9 -82 0 -83 0 0 -210 0
-210 234 0 235 0 14 14 13 14 18 48 18 49 4 13 3 12 29 0 29 0 6 36 6 35 -11
24 -10 23 -39 17 -38 18 -21 -6 -21 -6 6 63 7 63 -16 6 -16 6 0 -9 0 -10 -74
0 -74 0 -6 16 -6 16 6 24 6 25 -18 14 -19 14 -35 1 -36 0 -11 -11z"/>
</g>
</svg>
