<?xml version="1.0" standalone="no"?>
<!DOCTYPE svg PUBLIC "-//W3C//DTD SVG 20010904//EN"
 "http://www.w3.org/TR/2001/REC-SVG-20010904/DTD/svg10.dtd">
<svg version="1.0" xmlns="http://www.w3.org/2000/svg"
 width="63.000000pt" height="54.000000pt" viewBox="0 0 63.000000 54.000000"
 preserveAspectRatio="xMidYMid meet">
<metadata>
Created by potrace 1.16, written by Peter Selinger 2001-2019
</metadata>
<g transform="translate(0.000000,54.000000) scale(0.100000,-0.100000)"
fill="#000000" stroke="none">
<path d="M180 525 l-12 -15 10 -29 10 -29 -15 -6 -15 -6 -79 0 -79 0 0 -220 0
-220 244 0 245 0 14 14 13 14 18 48 18 49 4 13 3 12 30 0 29 0 6 44 7 43 -12
25 -11 25 -34 17 -35 16 -23 0 -24 0 5 59 6 59 -24 7 -23 8 -4 -12 -4 -11 -64
0 -64 0 -1 13 -1 12 2 28 2 29 -19 13 -18 14 -46 1 -47 0 -12 -15z"/>
</g>
</svg>
