<?xml version="1.0" standalone="no"?>
<!DOCTYPE svg PUBLIC "-//W3C//DTD SVG 20010904//EN"
 "http://www.w3.org/TR/2001/REC-SVG-20010904/DTD/svg10.dtd">
<svg version="1.0" xmlns="http://www.w3.org/2000/svg"
 width="50.000000pt" height="46.000000pt" viewBox="0 0 50.000000 46.000000"
 preserveAspectRatio="xMidYMid meet">
<metadata>
Created by potrace 1.16, written by Peter Selinger 2001-2019
</metadata>
<g transform="translate(0.000000,46.000000) scale(0.100000,-0.100000)"
fill="#000000" stroke="none">
<path d="M0 229 l0 -231 77 4 77 4 4 12 4 12 14 0 14 0 6 25 6 26 -6 30 -6 30
48 -3 47 -3 -3 -27 -3 -28 16 -16 17 -17 56 -13 57 -14 20 0 20 0 14 9 14 9
-12 64 -13 63 -10 28 -11 28 -41 -3 -41 -3 -3 25 -3 25 45 -3 45 -4 16 15 15
15 10 27 10 26 0 60 0 59 -250 0 -250 0 0 -231z"/>
</g>
</svg>
