<?xml version="1.0" standalone="no"?>
<!DOCTYPE svg PUBLIC "-//W3C//DTD SVG 20010904//EN"
 "http://www.w3.org/TR/2001/REC-SVG-20010904/DTD/svg10.dtd">
<svg version="1.0" xmlns="http://www.w3.org/2000/svg"
 width="48.000000pt" height="44.000000pt" viewBox="0 0 48.000000 44.000000"
 preserveAspectRatio="xMidYMid meet">
<metadata>
Created by potrace 1.16, written by Peter Selinger 2001-2019
</metadata>
<g transform="translate(0.000000,44.000000) scale(0.100000,-0.100000)"
fill="#000000" stroke="none">
<path d="M0 218 l0 -220 67 4 67 4 4 12 4 12 13 0 14 0 6 20 6 19 -7 36 -6 36
58 -3 59 -3 -2 -29 -2 -28 15 -16 16 -15 56 -13 57 -14 10 0 10 0 12 8 13 8
-14 65 -14 64 -7 18 -8 18 -41 -3 -41 -3 -3 37 -3 38 45 -6 45 -7 15 16 16 15
10 27 10 26 0 50 0 50 -240 -1 -240 -1 0 -221z"/>
</g>
</svg>
