<?xml version="1.0" standalone="no"?>
<!DOCTYPE svg PUBLIC "-//W3C//DTD SVG 20010904//EN"
 "http://www.w3.org/TR/2001/REC-SVG-20010904/DTD/svg10.dtd">
<svg version="1.0" xmlns="http://www.w3.org/2000/svg"
 width="74.000000pt" height="45.000000pt" viewBox="0 0 74.000000 45.000000"
 preserveAspectRatio="xMidYMid meet">
<metadata>
Created by potrace 1.16, written by Peter Selinger 2001-2019
</metadata>
<g transform="translate(0.000000,45.000000) scale(0.100000,-0.100000)"
fill="#000000" stroke="none">
<path d="M491 442 l-93 -3 6 -30 6 -31 -12 -21 -11 -22 -13 -12 -13 -13 -20 0
-20 0 -15 16 -16 15 0 7 0 7 9 33 10 32 -20 10 -19 11 -68 -3 -67 -3 -5 -83
-5 -83 -15 -9 -15 -9 -41 6 -41 5 -7 -17 -6 -18 6 -19 6 -20 34 7 34 6 0 -11
0 -10 14 0 13 0 7 -46 6 -47 0 -37 0 -38 16 -6 16 -6 65 0 64 0 15 15 15 14
-7 26 -6 25 12 30 12 30 22 0 21 0 14 -9 14 -9 -6 -32 -7 -32 13 -13 13 -13
89 -11 88 -12 8 13 9 13 0 50 0 50 6 22 6 23 39 -6 39 -7 0 12 0 11 15 0 15 0
0 15 0 15 10 0 10 0 0 19 0 19 -6 16 -6 16 -14 0 -14 0 0 11 0 11 -42 -7 -43
-7 -10 -2 -10 -1 -5 75 -5 75 -94 -3z"/>
</g>
</svg>
