<?xml version="1.0" standalone="no"?>
<!DOCTYPE svg PUBLIC "-//W3C//DTD SVG 20010904//EN"
 "http://www.w3.org/TR/2001/REC-SVG-20010904/DTD/svg10.dtd">
<svg version="1.0" xmlns="http://www.w3.org/2000/svg"
 width="76.000000pt" height="47.000000pt" viewBox="0 0 76.000000 47.000000"
 preserveAspectRatio="xMidYMid meet">
<metadata>
Created by potrace 1.16, written by Peter Selinger 2001-2019
</metadata>
<g transform="translate(0.000000,47.000000) scale(0.100000,-0.100000)"
fill="#000000" stroke="none">
<path d="M492 463 l-93 -4 1 -32 2 -32 -1 -11 -1 -11 -19 -21 -18 -22 -11 0
-11 0 -14 15 -15 15 10 37 10 37 -18 13 -19 14 -80 -3 -80 -3 -5 -82 -5 -81
-8 -8 -7 -8 -50 3 -49 2 -7 -25 -6 -25 7 -21 7 -22 34 4 34 4 0 -8 0 -8 14 0
13 0 7 -46 6 -47 0 -37 0 -38 16 -6 16 -6 75 0 74 0 16 15 15 16 -6 30 -6 29
12 25 11 25 8 0 7 0 16 -6 16 -6 -6 -34 -6 -33 14 -15 15 -14 97 -12 98 -13 9
14 9 14 0 50 0 50 6 20 5 20 40 -3 39 -4 0 11 0 11 15 0 15 0 0 15 0 15 10 0
10 0 0 29 0 29 -6 16 -6 16 -14 0 -14 0 0 11 0 11 -55 -7 -55 -6 0 75 0 76
-12 -2 -13 -2 -93 -3z"/>
</g>
</svg>
