<?xml version="1.0" standalone="no"?>
<!DOCTYPE svg PUBLIC "-//W3C//DTD SVG 20010904//EN"
 "http://www.w3.org/TR/2001/REC-SVG-20010904/DTD/svg10.dtd">
<svg version="1.0" xmlns="http://www.w3.org/2000/svg"
 width="67.000000pt" height="66.000000pt" viewBox="0 0 67.000000 66.000000"
 preserveAspectRatio="xMidYMid meet">
<metadata>
Created by potrace 1.16, written by Peter Selinger 2001-2019
</metadata>
<g transform="translate(0.000000,66.000000) scale(0.100000,-0.100000)"
fill="#000000" stroke="none">
<path d="M205 650 l-7 -11 7 -38 6 -39 -28 -9 -28 -10 -65 8 -64 9 -10 -10 -9
-9 -4 -78 -4 -78 10 -15 10 -15 53 0 53 0 3 -37 3 -38 -29 0 -29 0 -18 -42
-17 -43 -9 -23 -9 -23 0 -18 0 -19 16 -6 16 -6 74 0 74 0 0 -25 0 -24 12 -26
11 -25 48 0 47 0 6 16 6 16 0 18 0 17 85 16 85 16 14 13 14 14 6 50 7 50 7 9
7 10 37 1 37 1 14 14 14 15 7 38 7 39 -11 28 -12 28 -33 11 -34 11 -37 -7 -37
-7 6 70 7 70 -66 6 -66 6 -32 12 -33 12 5 24 5 25 -14 9 -14 9 -47 0 -47 0 -6
-10z"/>
</g>
</svg>
