<?xml version="1.0" standalone="no"?>
<!DOCTYPE svg PUBLIC "-//W3C//DTD SVG 20010904//EN"
 "http://www.w3.org/TR/2001/REC-SVG-20010904/DTD/svg10.dtd">
<svg version="1.0" xmlns="http://www.w3.org/2000/svg"
 width="65.000000pt" height="64.000000pt" viewBox="0 0 65.000000 64.000000"
 preserveAspectRatio="xMidYMid meet">
<metadata>
Created by potrace 1.16, written by Peter Selinger 2001-2019
</metadata>
<g transform="translate(0.000000,64.000000) scale(0.100000,-0.100000)"
fill="#000000" stroke="none">
<path d="M207 634 l-6 -7 6 -42 5 -43 -33 -11 -34 -10 -60 8 -60 9 -9 -8 -9
-9 -4 -68 -4 -68 10 -15 10 -14 53 -1 53 0 3 -47 3 -48 -29 0 -29 0 -12 -27
-13 -28 -15 -44 -15 -44 14 -8 13 -9 82 0 81 0 -5 -20 -5 -20 12 -30 12 -30
38 0 38 0 6 16 6 16 0 18 0 17 85 16 85 16 14 13 13 14 7 48 8 49 4 12 5 12
38 -1 38 -1 15 15 15 15 6 33 7 32 -12 25 -11 24 -31 11 -31 10 -33 -9 -33
-10 -6 15 -6 15 6 58 5 58 -65 6 -65 6 -35 13 -34 12 6 25 6 24 -13 8 -13 9
-36 0 -36 0 -6 -6z"/>
</g>
</svg>
