<?xml version="1.0" standalone="no"?>
<!DOCTYPE svg PUBLIC "-//W3C//DTD SVG 20010904//EN"
 "http://www.w3.org/TR/2001/REC-SVG-20010904/DTD/svg10.dtd">
<svg version="1.0" xmlns="http://www.w3.org/2000/svg"
 width="52.000000pt" height="70.000000pt" viewBox="0 0 52.000000 70.000000"
 preserveAspectRatio="xMidYMid meet">
<metadata>
Created by potrace 1.16, written by Peter Selinger 2001-2019
</metadata>
<g transform="translate(0.000000,70.000000) scale(0.100000,-0.100000)"
fill="#000000" stroke="none">
<path d="M210 670 l-12 -30 4 -28 4 -28 -14 -14 -14 -13 -83 6 -83 6 -6 -15
-6 -16 0 -69 0 -69 51 0 50 0 15 -14 14 -15 0 -20 0 -21 -21 0 -20 0 -13 -13
-12 -12 -17 -62 -17 -63 0 -28 0 -29 66 -6 67 -5 8 -13 8 -14 -9 -3 -10 -4 0
-20 0 -19 16 -17 16 -16 57 -4 56 -4 24 21 24 21 -6 39 -5 39 78 4 78 3 8 7 7
8 -12 62 -13 63 -10 27 -10 28 -39 0 -39 0 0 25 0 25 59 0 59 0 6 16 6 16 0
83 0 83 -96 12 -97 12 -11 10 -12 11 4 35 4 34 -13 9 -14 9 -31 0 -32 0 -12
-30z"/>
</g>
</svg>
