<?xml version="1.0" standalone="no"?>
<!DOCTYPE svg PUBLIC "-//W3C//DTD SVG 20010904//EN"
 "http://www.w3.org/TR/2001/REC-SVG-20010904/DTD/svg10.dtd">
<svg version="1.0" xmlns="http://www.w3.org/2000/svg"
 width="50.000000pt" height="68.000000pt" viewBox="0 0 50.000000 68.000000"
 preserveAspectRatio="xMidYMid meet">
<metadata>
Created by potrace 1.16, written by Peter Selinger 2001-2019
</metadata>
<g transform="translate(0.000000,68.000000) scale(0.100000,-0.100000)"
fill="#000000" stroke="none">
<path d="M210 650 l-12 -30 6 -25 7 -26 -16 -16 -16 -15 -84 4 -84 4 -6 -14
-5 -14 0 -59 0 -59 51 0 50 0 15 -15 15 -15 -3 -32 -3 -33 -18 3 -17 3 -13
-13 -13 -13 -17 -62 -17 -63 0 -20 0 -20 39 0 39 0 30 -6 31 -6 7 -21 7 -21
-12 -4 -11 -4 0 -10 0 -9 16 -16 16 -16 46 -5 47 -4 23 21 24 20 -7 39 -6 40
80 3 79 4 6 6 6 5 -14 65 -14 64 -7 18 -7 17 -39 0 -39 0 0 35 0 35 59 0 59 0
6 16 6 16 0 73 0 73 -97 12 -96 12 -14 13 -13 13 7 32 6 32 -14 9 -14 9 -21 0
-22 0 -12 -30z"/>
</g>
</svg>
