<?xml version="1.0" standalone="no"?>
<!DOCTYPE svg PUBLIC "-//W3C//DTD SVG 20010904//EN"
 "http://www.w3.org/TR/2001/REC-SVG-20010904/DTD/svg10.dtd">
<svg version="1.0" xmlns="http://www.w3.org/2000/svg"
 width="60.000000pt" height="68.000000pt" viewBox="0 0 60.000000 68.000000"
 preserveAspectRatio="xMidYMid meet">
<metadata>
Created by potrace 1.16, written by Peter Selinger 2001-2019
</metadata>
<g transform="translate(0.000000,68.000000) scale(0.100000,-0.100000)"
fill="#000000" stroke="none">
<path d="M185 650 l-16 -31 7 -21 6 -20 -13 -9 -14 -9 -77 0 -78 0 0 -202 0
-203 8 -10 7 -10 85 0 85 0 -3 -51 -4 -51 17 -17 16 -16 33 0 33 0 23 20 23
20 -6 56 -6 57 71 -6 70 -6 15 15 15 14 9 63 9 62 0 9 0 8 24 -6 24 -6 16 6
16 6 0 13 0 13 11 4 12 4 -7 22 -7 22 -15 0 -14 0 0 11 0 12 -39 -7 -39 -6 -5
28 -5 27 5 48 6 49 -13 8 -13 8 -21 -8 -21 -8 -51 -6 -51 -7 -17 16 -17 17 7
33 6 33 -11 21 -12 21 -34 0 -34 0 -16 -30z"/>
</g>
</svg>
