<?xml version="1.0" standalone="no"?>
<!DOCTYPE svg PUBLIC "-//W3C//DTD SVG 20010904//EN"
 "http://www.w3.org/TR/2001/REC-SVG-20010904/DTD/svg10.dtd">
<svg version="1.0" xmlns="http://www.w3.org/2000/svg"
 width="62.000000pt" height="70.000000pt" viewBox="0 0 62.000000 70.000000"
 preserveAspectRatio="xMidYMid meet">
<metadata>
Created by potrace 1.16, written by Peter Selinger 2001-2019
</metadata>
<g transform="translate(0.000000,70.000000) scale(0.100000,-0.100000)"
fill="#000000" stroke="none">
<path d="M184 669 l-16 -32 5 -23 4 -23 -14 -5 -15 -6 -74 0 -74 0 0 -212 0
-213 8 -11 7 -10 84 0 85 1 -3 -51 -2 -51 16 -17 16 -16 43 0 43 0 22 20 23
19 -4 57 -3 56 68 -7 67 -6 16 15 16 16 9 63 9 62 0 7 0 7 15 -5 15 -6 25 6
25 6 0 15 0 15 10 0 10 0 0 19 0 19 -6 16 -6 16 -14 0 -14 0 0 11 0 11 -40 -4
-40 -4 -1 21 -1 20 2 56 2 56 -18 7 -17 7 -31 -10 -31 -9 -35 -6 -35 -6 -14 9
-15 10 2 40 3 41 -11 20 -11 20 -44 0 -44 0 -17 -31z"/>
</g>
</svg>
