<?xml version="1.0" standalone="no"?>
<!DOCTYPE svg PUBLIC "-//W3C//DTD SVG 20010904//EN"
 "http://www.w3.org/TR/2001/REC-SVG-20010904/DTD/svg10.dtd">
<svg version="1.0" xmlns="http://www.w3.org/2000/svg"
 width="79.000000pt" height="69.000000pt" viewBox="0 0 79.000000 69.000000"
 preserveAspectRatio="xMidYMid meet">
<metadata>
Created by potrace 1.16, written by Peter Selinger 2001-2019
</metadata>
<g transform="translate(0.000000,69.000000) scale(0.100000,-0.100000)"
fill="#000000" stroke="none">
<path d="M351 681 l-13 -9 6 -28 6 -29 -8 -11 -7 -11 -24 -12 -23 -13 -67 4
-66 3 -3 -72 -3 -71 -57 5 -58 5 -17 -17 -17 -16 0 -35 0 -34 10 0 10 0 0 -15
0 -15 15 0 15 0 0 -11 0 -12 44 5 45 5 5 -14 6 -15 0 -59 0 -60 12 -13 13 -14
57 5 56 6 27 -7 26 -7 -6 -43 -7 -43 17 -16 16 -17 30 0 30 0 13 13 13 12 12
24 13 23 -6 29 -5 29 87 0 87 0 11 8 10 7 11 30 12 30 6 40 6 40 40 1 40 0 10
15 9 14 0 36 0 35 -21 23 -21 23 -50 -4 -50 -3 6 73 7 72 -15 6 -14 5 -46 -15
-47 -16 -35 0 -35 0 -12 11 -12 12 4 45 3 46 -18 13 -18 13 -25 0 -26 0 -14
-9z"/>
</g>
</svg>
