<?xml version="1.0" standalone="no"?>
<!DOCTYPE svg PUBLIC "-//W3C//DTD SVG 20010904//EN"
 "http://www.w3.org/TR/2001/REC-SVG-20010904/DTD/svg10.dtd">
<svg version="1.0" xmlns="http://www.w3.org/2000/svg"
 width="77.000000pt" height="67.000000pt" viewBox="0 0 77.000000 67.000000"
 preserveAspectRatio="xMidYMid meet">
<metadata>
Created by potrace 1.16, written by Peter Selinger 2001-2019
</metadata>
<g transform="translate(0.000000,67.000000) scale(0.100000,-0.100000)"
fill="#000000" stroke="none">
<path d="M352 662 l-13 -9 7 -16 6 -17 -6 -23 -6 -24 -27 -12 -27 -12 -65 2
-66 3 -3 -73 -3 -72 -58 7 -57 6 -17 -17 -17 -16 0 -25 0 -24 10 0 10 0 0 -15
0 -15 15 0 15 0 0 -11 0 -11 44 6 44 7 6 -16 6 -17 0 -59 0 -60 11 -12 11 -12
68 3 68 4 20 -11 21 -11 -10 -32 -9 -33 0 -7 0 -7 16 -15 15 -16 20 0 20 0 13
13 13 12 11 22 12 21 -6 31 -6 31 88 0 89 0 11 8 10 7 11 30 12 30 6 41 6 41
40 -1 40 -1 9 15 10 15 0 26 0 25 -22 23 -21 23 -50 -5 -50 -6 6 74 5 75 -7 4
-7 5 -40 -14 -39 -14 -48 -1 -48 0 -14 14 -13 13 5 43 6 43 -18 14 -19 13 -15
0 -16 0 -13 -8z"/>
</g>
</svg>
