<?xml version="1.0" standalone="no"?>
<!DOCTYPE svg PUBLIC "-//W3C//DTD SVG 20010904//EN"
 "http://www.w3.org/TR/2001/REC-SVG-20010904/DTD/svg10.dtd">
<svg version="1.0" xmlns="http://www.w3.org/2000/svg"
 width="50.000000pt" height="49.000000pt" viewBox="0 0 50.000000 49.000000"
 preserveAspectRatio="xMidYMid meet">
<metadata>
Created by potrace 1.16, written by Peter Selinger 2001-2019
</metadata>
<g transform="translate(0.000000,49.000000) scale(0.100000,-0.100000)"
fill="#000000" stroke="none">
<path d="M281 458 l3 -33 -8 -22 -7 -23 -15 0 -14 0 0 -10 0 -10 -20 0 -21 0
-12 12 -13 12 3 25 4 26 -10 14 -9 14 -75 5 -75 5 -7 -56 -7 -55 7 -31 7 -31
21 0 22 0 14 9 14 9 24 -9 25 -9 14 -15 15 -15 -7 -22 -7 -22 -13 -13 -13 -13
-40 6 -40 6 -6 -38 -6 -39 -9 -31 -10 -30 0 -27 0 -27 71 0 70 0 22 11 22 12
7 11 8 11 0 32 0 32 10 6 10 6 21 -11 21 -12 -7 -44 -6 -44 15 -15 15 -15 53
0 53 0 33 9 32 10 15 15 15 15 0 43 -1 43 -8 44 -9 43 -13 9 -14 10 -42 -6
-41 -6 -7 21 -7 22 6 5 5 5 43 -1 43 -1 28 6 27 6 0 92 0 93 -77 7 -76 6 -34
0 -35 0 3 -32z"/>
</g>
</svg>
