<?xml version="1.0" standalone="no"?>
<!DOCTYPE svg PUBLIC "-//W3C//DTD SVG 20010904//EN"
 "http://www.w3.org/TR/2001/REC-SVG-20010904/DTD/svg10.dtd">
<svg version="1.0" xmlns="http://www.w3.org/2000/svg"
 width="48.000000pt" height="47.000000pt" viewBox="0 0 48.000000 47.000000"
 preserveAspectRatio="xMidYMid meet">
<metadata>
Created by potrace 1.16, written by Peter Selinger 2001-2019
</metadata>
<g transform="translate(0.000000,47.000000) scale(0.100000,-0.100000)"
fill="#000000" stroke="none">
<path d="M283 442 l7 -32 -12 -25 -11 -25 -14 0 -13 0 0 -10 0 -10 -31 0 -30
0 -15 15 -15 14 6 23 5 23 -9 14 -8 13 -65 5 -65 6 -7 -47 -7 -47 6 -29 7 -30
9 0 10 0 20 11 20 10 30 -10 30 -10 15 -16 16 -16 -6 -30 -6 -30 -15 -16 -16
-15 -39 6 -39 6 -6 -37 -6 -38 -9 -31 -10 -30 0 -17 0 -17 60 0 59 0 26 12 25
11 6 23 6 23 -7 20 -6 20 25 7 24 6 22 -12 22 -12 -5 -46 -5 -45 13 -14 14
-13 43 0 43 0 33 9 32 10 15 15 15 15 0 33 -1 33 -8 44 -9 43 -13 9 -14 8 -39
-6 -38 -6 -9 14 -9 14 0 21 0 22 31 6 31 6 10 -6 9 -6 35 6 34 7 0 84 0 85
-23 0 -24 0 -78 7 -78 6 6 -31z"/>
</g>
</svg>
