<?xml version="1.0" standalone="no"?>
<!DOCTYPE svg PUBLIC "-//W3C//DTD SVG 20010904//EN"
 "http://www.w3.org/TR/2001/REC-SVG-20010904/DTD/svg10.dtd">
<svg version="1.0" xmlns="http://www.w3.org/2000/svg"
 width="61.000000pt" height="45.000000pt" viewBox="0 0 61.000000 45.000000"
 preserveAspectRatio="xMidYMid meet">
<metadata>
Created by potrace 1.16, written by Peter Selinger 2001-2019
</metadata>
<g transform="translate(0.000000,45.000000) scale(0.100000,-0.100000)"
fill="#000000" stroke="none">
<path d="M377 442 l-79 -3 7 -40 7 -40 -24 -20 -23 -21 -47 4 -46 5 -16 16
-16 16 0 9 0 10 11 4 12 4 -7 21 -7 21 -31 6 -30 6 -38 0 -38 0 -6 -22 -6 -23
0 -54 0 -53 24 6 24 6 33 -12 34 -12 13 -12 12 -13 0 -14 0 -14 -11 -31 -11
-32 -31 3 -31 2 -9 -35 -8 -35 -6 -27 -5 -28 -14 0 -14 0 0 -10 0 -10 22 -4
23 -5 41 -5 41 -6 32 11 32 11 -3 47 -3 46 29 3 28 4 25 -7 24 -6 -6 -27 -6
-28 33 -11 33 -11 42 -7 43 -7 28 7 28 6 17 52 16 52 6 23 6 22 34 0 35 0 6
25 6 25 -12 31 -13 30 -48 -6 -48 -7 -11 41 -10 40 6 39 6 39 -13 4 -14 4 -78
-3z"/>
</g>
</svg>
