<?xml version="1.0" standalone="no"?>
<!DOCTYPE svg PUBLIC "-//W3C//DTD SVG 20010904//EN"
 "http://www.w3.org/TR/2001/REC-SVG-20010904/DTD/svg10.dtd">
<svg version="1.0" xmlns="http://www.w3.org/2000/svg"
 width="63.000000pt" height="47.000000pt" viewBox="0 0 63.000000 47.000000"
 preserveAspectRatio="xMidYMid meet">
<metadata>
Created by potrace 1.16, written by Peter Selinger 2001-2019
</metadata>
<g transform="translate(0.000000,47.000000) scale(0.100000,-0.100000)"
fill="#000000" stroke="none">
<path d="M376 463 l-79 -4 6 -41 6 -42 -22 -19 -22 -19 -37 5 -37 5 -16 16
-16 16 10 0 11 0 0 23 0 22 -9 14 -9 14 -74 5 -75 4 -6 -23 -7 -24 0 -63 0
-63 33 2 32 2 25 -8 24 -8 14 -13 14 -14 -11 -33 -11 -32 -32 0 -32 0 -9 -35
-8 -35 -6 -27 -5 -28 -14 0 -14 0 0 -20 0 -20 23 -4 22 -5 48 -6 48 -6 35 11
35 12 -2 46 -3 47 18 3 18 4 22 -6 23 -6 -4 -27 -5 -28 34 -12 33 -12 47 -6
48 -7 33 6 33 6 17 53 16 52 6 23 6 22 34 0 33 0 6 16 6 16 0 23 0 24 -12 27
-12 26 -48 -5 -47 -6 -10 34 -9 34 5 42 6 41 -14 9 -14 9 -10 -2 -10 -2 -79
-3z"/>
</g>
</svg>
