<?xml version="1.0" standalone="no"?>
<!DOCTYPE svg PUBLIC "-//W3C//DTD SVG 20010904//EN"
 "http://www.w3.org/TR/2001/REC-SVG-20010904/DTD/svg10.dtd">
<svg version="1.0" xmlns="http://www.w3.org/2000/svg"
 width="73.000000pt" height="43.000000pt" viewBox="0 0 73.000000 43.000000"
 preserveAspectRatio="xMidYMid meet">
<metadata>
Created by potrace 1.16, written by Peter Selinger 2001-2019
</metadata>
<g transform="translate(0.000000,43.000000) scale(0.100000,-0.100000)"
fill="#000000" stroke="none">
<path d="M130 381 l0 -38 -6 -32 -6 -31 -10 0 -9 0 -16 -16 -16 -16 -16 5 -16
5 -17 7 -18 7 0 -38 0 -39 9 -14 9 -13 41 7 41 7 16 -16 16 -16 -4 -75 -3 -75
237 0 237 0 -5 14 -5 14 14 29 15 28 7 34 7 35 15 14 14 14 29 -5 28 -6 6 15
6 16 0 9 0 9 -20 20 -20 20 -54 0 -54 0 -6 16 -6 16 0 59 0 60 -47 -6 -48 -6
-27 -5 -28 -6 0 -32 0 -33 -45 -13 -45 -13 -31 13 -31 13 5 49 6 48 -74 0 -75
0 0 -39z"/>
</g>
</svg>
