<?xml version="1.0" standalone="no"?>
<!DOCTYPE svg PUBLIC "-//W3C//DTD SVG 20010904//EN"
 "http://www.w3.org/TR/2001/REC-SVG-20010904/DTD/svg10.dtd">
<svg version="1.0" xmlns="http://www.w3.org/2000/svg"
 width="75.000000pt" height="45.000000pt" viewBox="0 0 75.000000 45.000000"
 preserveAspectRatio="xMidYMid meet">
<metadata>
Created by potrace 1.16, written by Peter Selinger 2001-2019
</metadata>
<g transform="translate(0.000000,45.000000) scale(0.100000,-0.100000)"
fill="#000000" stroke="none">
<path d="M113 434 l-7 -18 12 -4 12 -4 0 -23 0 -22 -6 -32 -6 -31 -10 0 -9 0
-15 -15 -15 -15 -19 10 -19 10 -15 0 -16 0 0 -47 0 -48 9 -14 9 -14 42 6 43 5
15 -14 15 -15 -5 -75 -5 -74 249 0 249 0 -4 17 -3 18 12 25 12 25 7 34 7 35
14 13 13 14 27 -7 26 -7 9 14 9 14 0 23 0 22 -20 20 -20 20 -54 0 -54 0 -6 16
-6 16 0 60 0 60 -57 -6 -58 -7 -27 -5 -28 -6 0 -32 0 -33 -39 -12 -39 -11 -27
12 -26 12 6 48 7 48 -69 0 -68 0 -22 6 -23 6 -7 -18z"/>
</g>
</svg>
