<?xml version="1.0" standalone="no"?>
<!DOCTYPE svg PUBLIC "-//W3C//DTD SVG 20010904//EN"
 "http://www.w3.org/TR/2001/REC-SVG-20010904/DTD/svg10.dtd">
<svg version="1.0" xmlns="http://www.w3.org/2000/svg"
 width="60.000000pt" height="56.000000pt" viewBox="0 0 60.000000 56.000000"
 preserveAspectRatio="xMidYMid meet">
<metadata>
Created by potrace 1.16, written by Peter Selinger 2001-2019
</metadata>
<g transform="translate(0.000000,56.000000) scale(0.100000,-0.100000)"
fill="#000000" stroke="none">
<path d="M9 538 l-11 -21 6 -50 5 -50 9 -9 9 -9 41 10 40 11 15 -5 14 -6 12
-26 12 -25 -12 -33 -12 -33 -24 -11 -24 -11 -40 6 -39 7 0 -82 0 -81 80 0 81
0 5 -14 6 -14 -11 -21 -11 -21 12 -20 13 -20 18 -6 19 -6 34 7 34 6 0 14 0 15
11 0 11 0 -7 29 -6 30 48 6 48 6 32 5 31 5 6 15 6 16 -15 44 -15 45 0 30 0 30
45 -7 45 -6 29 12 29 12 6 23 6 23 -6 16 -6 16 -25 6 -24 6 -39 -5 -38 -5 3
32 4 31 5 53 5 52 -229 0 -229 0 -12 -22z"/>
</g>
</svg>
