<?xml version="1.0" standalone="no"?>
<!DOCTYPE svg PUBLIC "-//W3C//DTD SVG 20010904//EN"
 "http://www.w3.org/TR/2001/REC-SVG-20010904/DTD/svg10.dtd">
<svg version="1.0" xmlns="http://www.w3.org/2000/svg"
 width="62.000000pt" height="58.000000pt" viewBox="0 0 62.000000 58.000000"
 preserveAspectRatio="xMidYMid meet">
<metadata>
Created by potrace 1.16, written by Peter Selinger 2001-2019
</metadata>
<g transform="translate(0.000000,58.000000) scale(0.100000,-0.100000)"
fill="#000000" stroke="none">
<path d="M9 558 l-11 -21 5 -60 5 -59 11 -11 10 -10 45 10 45 10 9 -6 9 -6 10
-19 10 -19 -11 -28 -10 -29 -21 -7 -20 -7 -42 3 -43 3 0 -91 0 -90 83 -3 82
-3 -4 -15 -4 -15 -4 -20 -4 -20 21 -22 21 -23 32 0 32 0 23 6 22 6 0 14 0 14
11 0 11 0 -4 30 -4 29 45 6 46 6 32 5 33 5 6 23 6 24 -16 46 -16 47 0 18 0 19
45 -6 45 -5 29 13 29 12 6 21 6 22 0 17 0 17 -16 15 -15 16 -51 0 -51 0 6 80
6 80 -239 0 -239 0 -12 -22z"/>
</g>
</svg>
