<?xml version="1.0" standalone="no"?>
<!DOCTYPE svg PUBLIC "-//W3C//DTD SVG 20010904//EN"
 "http://www.w3.org/TR/2001/REC-SVG-20010904/DTD/svg10.dtd">
<svg version="1.0" xmlns="http://www.w3.org/2000/svg"
 width="46.000000pt" height="56.000000pt" viewBox="0 0 46.000000 56.000000"
 preserveAspectRatio="xMidYMid meet">
<metadata>
Created by potrace 1.16, written by Peter Selinger 2001-2019
</metadata>
<g transform="translate(0.000000,56.000000) scale(0.100000,-0.100000)"
fill="#000000" stroke="none">
<path d="M70 553 l-55 -4 -7 -12 -8 -12 0 -51 0 -51 6 -5 6 -6 31 9 32 9 31
-10 31 -11 11 -24 12 -25 -7 -32 -6 -33 -15 -15 -15 -15 -38 1 -38 1 -5 -16
-5 -16 -6 -40 -7 -40 -5 -17 -4 -18 75 0 75 0 -6 -48 -5 -49 31 -13 31 -13 45
13 45 13 0 33 0 33 38 6 37 6 40 7 40 7 -3 75 -3 75 -5 18 -6 18 -43 -7 -44
-6 -7 26 -6 26 6 26 7 26 43 -6 42 -7 12 26 12 26 0 57 0 58 -72 -4 -73 -3
-11 -4 -12 -3 5 -26 5 -25 -15 -16 -16 -15 -30 0 -30 0 -26 12 -25 11 0 14 0
13 -11 0 -11 0 4 30 5 30 -11 -2 -11 -2 -55 -3z"/>
</g>
</svg>
