<?xml version="1.0" standalone="no"?>
<!DOCTYPE svg PUBLIC "-//W3C//DTD SVG 20010904//EN"
 "http://www.w3.org/TR/2001/REC-SVG-20010904/DTD/svg10.dtd">
<svg version="1.0" xmlns="http://www.w3.org/2000/svg"
 width="48.000000pt" height="58.000000pt" viewBox="0 0 48.000000 58.000000"
 preserveAspectRatio="xMidYMid meet">
<metadata>
Created by potrace 1.16, written by Peter Selinger 2001-2019
</metadata>
<g transform="translate(0.000000,58.000000) scale(0.100000,-0.100000)"
fill="#000000" stroke="none">
<path d="M70 573 l-55 -4 -7 -12 -8 -12 0 -63 0 -63 13 -4 12 -5 30 8 30 9 27
-9 27 -10 7 -21 8 -22 -3 -24 -3 -24 -15 -15 -15 -15 -38 1 -39 2 -5 -18 -5
-17 -10 -59 -11 -60 0 -8 0 -8 73 0 72 0 -3 -48 -4 -48 27 -12 26 -12 21 0 21
0 38 12 39 11 0 33 0 33 38 6 37 6 40 7 40 7 -3 85 -3 85 -6 19 -5 18 -43 -6
-44 -5 -6 19 -6 20 6 20 6 19 42 -5 43 -6 12 26 12 27 0 69 0 68 -82 -5 -83
-5 -14 -4 -13 -4 6 -26 7 -25 -15 -14 -15 -15 -20 0 -20 0 -26 12 -25 11 0 14
0 13 -11 0 -11 0 7 30 7 30 -24 -2 -23 -2 -55 -3z"/>
</g>
</svg>
