<?xml version="1.0" standalone="no"?>
<!DOCTYPE svg PUBLIC "-//W3C//DTD SVG 20010904//EN"
 "http://www.w3.org/TR/2001/REC-SVG-20010904/DTD/svg10.dtd">
<svg version="1.0" xmlns="http://www.w3.org/2000/svg"
 width="71.000000pt" height="53.000000pt" viewBox="0 0 71.000000 53.000000"
 preserveAspectRatio="xMidYMid meet">
<metadata>
Created by potrace 1.16, written by Peter Selinger 2001-2019
</metadata>
<g transform="translate(0.000000,53.000000) scale(0.100000,-0.100000)"
fill="#000000" stroke="none">
<path d="M150 450 l0 -79 -34 -7 -35 -6 -9 6 -10 6 -31 -6 -31 -6 0 -22 0 -21
9 -14 9 -14 38 6 39 6 14 -8 13 -9 9 -43 8 -44 1 -46 0 -46 88 5 88 5 -4 -40
-4 -40 17 -16 16 -17 30 0 30 0 16 15 15 16 -6 16 -7 16 13 9 13 8 33 0 33 0
45 11 44 11 6 27 6 26 13 54 14 54 13 9 13 8 20 -3 20 -2 3 39 3 38 -5 14 -5
14 -27 -12 -27 -13 -5 13 -4 12 -13 0 -13 0 -12 36 -12 35 4 40 4 39 -31 -5
-30 -4 -48 -6 -48 -6 6 -30 7 -29 -11 0 -11 0 0 -15 0 -14 -34 -6 -34 -7 -19
6 -18 6 -13 20 -12 20 11 21 11 21 -6 14 -5 14 -81 0 -80 0 0 -80z"/>
</g>
</svg>
