<?xml version="1.0" standalone="no"?>
<!DOCTYPE svg PUBLIC "-//W3C//DTD SVG 20010904//EN"
 "http://www.w3.org/TR/2001/REC-SVG-20010904/DTD/svg10.dtd">
<svg version="1.0" xmlns="http://www.w3.org/2000/svg"
 width="46.000000pt" height="53.000000pt" viewBox="0 0 46.000000 53.000000"
 preserveAspectRatio="xMidYMid meet">
<metadata>
Created by potrace 1.16, written by Peter Selinger 2001-2019
</metadata>
<g transform="translate(0.000000,53.000000) scale(0.100000,-0.100000)"
fill="#000000" stroke="none">
<path d="M6 490 l-6 -41 10 -40 11 -41 48 7 48 6 13 -30 12 -31 -6 -25 -6 -25
-35 0 -35 0 -6 -27 -6 -28 -19 -53 -19 -53 0 -6 0 -6 68 5 68 5 -4 -28 -4 -29
11 0 11 0 0 -13 0 -14 25 -11 26 -12 30 0 30 0 15 15 15 15 -3 28 -3 27 77 5
76 5 6 6 6 5 -10 35 -10 34 0 35 0 35 -9 14 -9 14 -25 -7 -25 -6 -16 6 -16 6
0 14 0 14 -15 0 -15 0 0 13 0 14 20 22 19 23 53 -4 53 -3 3 83 3 82 -89 0 -89
0 10 -44 10 -44 -16 -16 -16 -16 -30 -6 -30 -6 -16 15 -15 16 3 48 2 48 -86 3
-86 3 -7 -41z"/>
</g>
</svg>
