<?xml version="1.0" standalone="no"?>
<!DOCTYPE svg PUBLIC "-//W3C//DTD SVG 20010904//EN"
 "http://www.w3.org/TR/2001/REC-SVG-20010904/DTD/svg10.dtd">
<svg version="1.0" xmlns="http://www.w3.org/2000/svg"
 width="73.000000pt" height="55.000000pt" viewBox="0 0 73.000000 55.000000"
 preserveAspectRatio="xMidYMid meet">
<metadata>
Created by potrace 1.16, written by Peter Selinger 2001-2019
</metadata>
<g transform="translate(0.000000,55.000000) scale(0.100000,-0.100000)"
fill="#000000" stroke="none">
<path d="M150 471 l0 -79 -25 -6 -26 -7 -10 7 -10 6 -39 -7 -40 -7 0 -31 0
-32 9 -13 8 -13 46 2 47 3 6 -7 7 -6 8 -43 8 -43 1 -48 0 -47 85 6 85 7 0 -41
0 -41 16 -15 15 -16 40 0 40 0 14 13 13 14 4 24 3 24 30 2 30 3 52 11 53 10 6
27 6 27 13 53 14 54 5 5 6 6 27 1 28 1 3 58 3 57 -15 6 -14 6 -21 -12 -21 -11
0 11 0 10 -14 0 -14 0 -12 36 -12 36 6 40 7 40 -53 -6 -53 -7 -38 -5 -39 -6 4
-29 5 -29 -9 0 -8 0 0 -14 0 -14 -26 -6 -26 -7 -19 6 -19 6 -2 12 -1 12 -1 40
-1 40 -92 3 -93 3 0 -80z"/>
</g>
</svg>
