<?xml version="1.0" standalone="no"?>
<!DOCTYPE svg PUBLIC "-//W3C//DTD SVG 20010904//EN"
 "http://www.w3.org/TR/2001/REC-SVG-20010904/DTD/svg10.dtd">
<svg version="1.0" xmlns="http://www.w3.org/2000/svg"
 width="62.000000pt" height="58.000000pt" viewBox="0 0 62.000000 58.000000"
 preserveAspectRatio="xMidYMid meet">
<metadata>
Created by potrace 1.16, written by Peter Selinger 2001-2019
</metadata>
<g transform="translate(0.000000,58.000000) scale(0.100000,-0.100000)"
fill="#000000" stroke="none">
<path d="M29 573 l-17 -4 -6 -31 -6 -30 0 -55 0 -55 49 7 49 7 21 -23 21 -23
0 -15 0 -16 -9 -14 -9 -14 -41 1 -40 2 -7 -47 -7 -48 -13 -32 -14 -32 0 -16 0
-16 85 7 85 7 0 -41 0 -41 25 -26 26 -25 24 0 25 0 0 10 0 10 15 0 15 0 6 24
6 25 -6 19 -7 20 86 7 85 7 0 75 0 74 12 13 12 12 23 -4 23 -4 24 6 25 6 15
16 16 15 0 46 0 46 -64 -7 -63 -6 -13 30 -13 31 6 51 6 51 -37 -7 -37 -7 -40
-5 -40 -5 -24 -5 -23 -5 4 -22 4 -23 -12 -12 -13 -12 -20 0 -20 0 -16 17 -17
16 6 39 6 38 -77 -1 -78 -1 -16 -5z"/>
</g>
</svg>
