<?xml version="1.0" standalone="no"?>
<!DOCTYPE svg PUBLIC "-//W3C//DTD SVG 20010904//EN"
 "http://www.w3.org/TR/2001/REC-SVG-20010904/DTD/svg10.dtd">
<svg version="1.0" xmlns="http://www.w3.org/2000/svg"
 width="60.000000pt" height="56.000000pt" viewBox="0 0 60.000000 56.000000"
 preserveAspectRatio="xMidYMid meet">
<metadata>
Created by potrace 1.16, written by Peter Selinger 2001-2019
</metadata>
<g transform="translate(0.000000,56.000000) scale(0.100000,-0.100000)"
fill="#000000" stroke="none">
<path d="M29 553 l-17 -4 -6 -31 -6 -30 0 -44 0 -43 48 6 49 5 21 -23 22 -23
0 -25 0 -26 -10 -15 -9 -15 -40 1 -40 1 -7 -46 -7 -46 -13 -32 -14 -32 0 -5 0
-4 98 4 97 4 -12 -6 -13 -6 0 -33 0 -34 25 -26 26 -25 14 0 15 0 0 10 0 10 14
0 14 0 6 15 5 15 -5 29 -6 29 86 7 86 7 0 75 0 74 14 15 14 14 30 -6 30 -6 23
12 24 13 7 11 8 11 0 33 0 34 -63 -7 -64 -7 -12 30 -13 31 4 51 3 51 -20 -6
-20 -5 -45 -6 -45 -5 -23 -5 -23 -5 6 -19 6 -20 -15 -15 -15 -15 -30 0 -30 0
-16 17 -17 16 4 39 4 38 -66 -1 -65 -1 -16 -5z"/>
</g>
</svg>
