<?xml version="1.0" standalone="no"?>
<!DOCTYPE svg PUBLIC "-//W3C//DTD SVG 20010904//EN"
 "http://www.w3.org/TR/2001/REC-SVG-20010904/DTD/svg10.dtd">
<svg version="1.0" xmlns="http://www.w3.org/2000/svg"
 width="51.000000pt" height="48.000000pt" viewBox="0 0 51.000000 48.000000"
 preserveAspectRatio="xMidYMid meet">
<metadata>
Created by potrace 1.16, written by Peter Selinger 2001-2019
</metadata>
<g transform="translate(0.000000,48.000000) scale(0.100000,-0.100000)"
fill="#000000" stroke="none">
<path d="M27 473 l-27 -4 0 -74 0 -74 9 -6 10 -5 43 9 43 10 3 -9 4 -10 13 0
14 0 7 -22 7 -22 -12 -4 -11 -4 0 -14 0 -14 -15 0 -15 0 0 -10 0 -10 -39 6
-40 6 -5 -33 -5 -34 -5 -62 -5 -61 15 -6 16 -6 73 0 74 0 26 12 27 12 -5 25
-5 26 -7 23 -7 22 30 0 31 0 14 -15 15 -15 -5 -38 -5 -38 17 -17 16 -17 27 0
27 1 58 14 59 14 3 3 4 4 7 66 7 66 -7 26 -6 26 -65 0 -64 0 -6 20 -6 20 6 10
6 10 42 0 42 0 23 6 22 6 0 95 0 96 -37 -6 -38 -6 -73 -7 -73 -7 1 -31 2 -31
-1 -12 -1 -13 -14 0 -14 0 -4 -12 -4 -11 -27 27 -27 27 0 24 0 25 10 0 10 0 0
15 0 15 -77 -1 -78 -2 -28 -4z"/>
</g>
</svg>
