<?xml version="1.0" standalone="no"?>
<!DOCTYPE svg PUBLIC "-//W3C//DTD SVG 20010904//EN"
 "http://www.w3.org/TR/2001/REC-SVG-20010904/DTD/svg10.dtd">
<svg version="1.0" xmlns="http://www.w3.org/2000/svg"
 width="49.000000pt" height="46.000000pt" viewBox="0 0 49.000000 46.000000"
 preserveAspectRatio="xMidYMid meet">
<metadata>
Created by potrace 1.16, written by Peter Selinger 2001-2019
</metadata>
<g transform="translate(0.000000,46.000000) scale(0.100000,-0.100000)"
fill="#000000" stroke="none">
<path d="M27 453 l-27 -4 0 -63 0 -63 5 -5 6 -5 46 10 47 10 4 -12 4 -11 13 0
13 0 6 -16 6 -16 0 -19 0 -19 -10 0 -10 0 0 -15 0 -15 -15 0 -15 0 0 -11 0
-12 -40 7 -39 6 -5 -32 -5 -33 -4 -52 -4 -52 14 -6 15 -5 63 0 64 0 26 12 26
12 -6 20 -7 21 -5 27 -5 28 40 0 41 0 16 -16 16 -17 -6 -37 -6 -37 16 -17 16
-16 17 0 17 0 35 9 35 9 27 6 26 6 7 64 7 64 -7 22 -7 21 -41 -1 -42 -2 -21 1
-21 1 -10 23 -11 23 10 17 9 17 42 0 42 0 23 6 22 6 0 85 0 85 -22 -5 -23 -5
-78 -7 -79 -8 6 -28 5 -29 -5 -15 -6 -15 -14 0 -14 0 0 -10 0 -10 -15 0 -14 0
-26 25 -25 26 0 34 0 33 13 5 12 5 -70 0 -70 -1 -28 -4z"/>
</g>
</svg>
