<?xml version="1.0" standalone="no"?>
<!DOCTYPE svg PUBLIC "-//W3C//DTD SVG 20010904//EN"
 "http://www.w3.org/TR/2001/REC-SVG-20010904/DTD/svg10.dtd">
<svg version="1.0" xmlns="http://www.w3.org/2000/svg"
 width="62.000000pt" height="69.000000pt" viewBox="0 0 62.000000 69.000000"
 preserveAspectRatio="xMidYMid meet">
<metadata>
Created by potrace 1.16, written by Peter Selinger 2001-2019
</metadata>
<g transform="translate(0.000000,69.000000) scale(0.100000,-0.100000)"
fill="#000000" stroke="none">
<path d="M310 659 l0 -30 10 -19 10 -18 -31 -12 -30 -13 -69 5 -70 5 0 -73 0
-72 -6 -16 -6 -16 -59 0 -59 0 0 -45 0 -45 39 0 39 0 10 -27 11 -28 7 -45 8
-45 -3 -17 -2 -17 98 -3 98 -3 -3 -47 -4 -48 17 -16 16 -16 39 5 39 5 17 17
17 16 -7 45 -6 44 84 0 84 0 6 16 6 16 0 68 0 69 -16 16 -17 16 -41 -3 -41 -3
-3 28 -3 27 43 0 43 0 23 6 22 6 0 94 0 94 -12 0 -13 0 -60 -15 -60 -14 -7 -1
-7 0 -14 15 -15 15 5 38 5 38 -17 17 -16 17 -50 0 -49 0 0 -31z"/>
</g>
</svg>
