<?xml version="1.0" standalone="no"?>
<!DOCTYPE svg PUBLIC "-//W3C//DTD SVG 20010904//EN"
 "http://www.w3.org/TR/2001/REC-SVG-20010904/DTD/svg10.dtd">
<svg version="1.0" xmlns="http://www.w3.org/2000/svg"
 width="60.000000pt" height="67.000000pt" viewBox="0 0 60.000000 67.000000"
 preserveAspectRatio="xMidYMid meet">
<metadata>
Created by potrace 1.16, written by Peter Selinger 2001-2019
</metadata>
<g transform="translate(0.000000,67.000000) scale(0.100000,-0.100000)"
fill="#000000" stroke="none">
<path d="M313 643 l5 -28 7 -21 7 -21 -30 -12 -30 -13 -71 4 -71 3 0 -72 0
-71 -6 -16 -6 -16 -59 0 -59 0 0 -35 0 -35 39 0 39 0 7 -17 7 -18 14 -64 14
-64 -6 -8 -5 -8 98 -3 98 -3 -2 -48 -3 -48 15 -16 16 -15 30 6 30 6 16 16 16
16 -10 44 -10 44 87 0 88 0 6 16 6 16 0 58 0 59 -16 16 -16 16 -42 -3 -41 -3
-3 38 -3 37 23 1 23 1 10 -2 9 -1 33 6 33 6 0 85 0 84 -27 -6 -28 -6 -35 -9
-35 -9 -17 0 -17 0 -16 16 -16 17 6 37 6 37 -16 17 -16 16 -41 0 -40 0 5 -27z"/>
</g>
</svg>
