<?xml version="1.0" standalone="no"?>
<!DOCTYPE svg PUBLIC "-//W3C//DTD SVG 20010904//EN"
 "http://www.w3.org/TR/2001/REC-SVG-20010904/DTD/svg10.dtd">
<svg version="1.0" xmlns="http://www.w3.org/2000/svg"
 width="49.000000pt" height="69.000000pt" viewBox="0 0 49.000000 69.000000"
 preserveAspectRatio="xMidYMid meet">
<metadata>
Created by potrace 1.16, written by Peter Selinger 2001-2019
</metadata>
<g transform="translate(0.000000,69.000000) scale(0.100000,-0.100000)"
fill="#000000" stroke="none">
<path d="M203 654 l6 -36 -12 -13 -12 -12 -22 -11 -22 -12 -70 0 -71 0 0 -225
0 -225 68 0 67 0 13 -9 13 -8 -6 -36 -7 -36 15 -16 16 -15 54 0 55 0 16 6 16
6 0 33 0 33 68 12 67 13 18 9 17 9 0 19 0 18 -9 4 -9 3 -13 70 -14 70 -30 1
-30 1 -12 1 -13 2 0 25 0 24 25 26 26 25 38 -6 38 -6 -1 90 -1 90 -67 1 -67 1
-25 11 -25 12 10 20 11 20 -11 23 -11 24 -51 0 -52 0 6 -36z"/>
</g>
</svg>
