<?xml version="1.0" standalone="no"?>
<!DOCTYPE svg PUBLIC "-//W3C//DTD SVG 20010904//EN"
 "http://www.w3.org/TR/2001/REC-SVG-20010904/DTD/svg10.dtd">
<svg version="1.0" xmlns="http://www.w3.org/2000/svg"
 width="47.000000pt" height="67.000000pt" viewBox="0 0 47.000000 67.000000"
 preserveAspectRatio="xMidYMid meet">
<metadata>
Created by potrace 1.16, written by Peter Selinger 2001-2019
</metadata>
<g transform="translate(0.000000,67.000000) scale(0.100000,-0.100000)"
fill="#000000" stroke="none">
<path d="M206 635 l6 -34 -14 -14 -13 -14 -22 -11 -22 -12 -70 -1 -71 -1 0
-214 0 -214 68 0 67 0 14 -9 14 -9 -6 -37 -6 -37 14 -14 14 -14 48 0 48 0 13
9 14 8 -4 29 -3 29 79 16 78 17 11 11 12 12 -12 7 -11 7 -12 65 -12 65 -4 7
-5 7 -25 -9 -25 -10 -15 14 -14 15 0 30 0 30 26 27 27 26 37 -6 36 -6 0 78 -1
77 -65 3 -65 2 -27 11 -28 11 0 12 0 11 9 14 10 15 -10 18 -10 18 -40 0 -40 0
7 -35z"/>
</g>
</svg>
