<?xml version="1.0" standalone="no"?>
<!DOCTYPE svg PUBLIC "-//W3C//DTD SVG 20010904//EN"
 "http://www.w3.org/TR/2001/REC-SVG-20010904/DTD/svg10.dtd">
<svg version="1.0" xmlns="http://www.w3.org/2000/svg"
 width="54.000000pt" height="58.000000pt" viewBox="0 0 54.000000 58.000000"
 preserveAspectRatio="xMidYMid meet">
<metadata>
Created by potrace 1.16, written by Peter Selinger 2001-2019
</metadata>
<g transform="translate(0.000000,58.000000) scale(0.100000,-0.100000)"
fill="#000000" stroke="none">
<path d="M42 563 l-10 -18 -4 -66 -4 -67 38 5 37 5 24 -6 25 -6 6 -16 6 -16
-6 -23 -6 -23 -29 -12 -29 -12 -45 6 -45 7 0 -33 1 -33 14 -40 15 -40 0 -19 0
-18 95 7 94 7 -8 -30 -9 -29 6 -29 5 -29 20 -17 20 -18 9 0 9 0 22 11 22 12 8
11 8 11 -7 64 -6 64 49 -7 48 -7 36 -6 36 -5 16 16 16 17 11 41 11 41 -6 24
-6 25 -58 -7 -58 -7 -16 17 -17 16 -6 26 -7 25 14 9 14 9 48 0 47 0 0 11 0 10
10 -6 10 -6 0 85 0 86 -230 0 -229 0 -9 -17z"/>
</g>
</svg>
