<?xml version="1.0" standalone="no"?>
<!DOCTYPE svg PUBLIC "-//W3C//DTD SVG 20010904//EN"
 "http://www.w3.org/TR/2001/REC-SVG-20010904/DTD/svg10.dtd">
<svg version="1.0" xmlns="http://www.w3.org/2000/svg"
 width="56.000000pt" height="60.000000pt" viewBox="0 0 56.000000 60.000000"
 preserveAspectRatio="xMidYMid meet">
<metadata>
Created by potrace 1.16, written by Peter Selinger 2001-2019
</metadata>
<g transform="translate(0.000000,60.000000) scale(0.100000,-0.100000)"
fill="#000000" stroke="none">
<path d="M42 583 l-9 -18 -6 -77 -5 -78 52 6 52 6 16 -16 16 -16 -5 -19 -5
-19 -25 -11 -25 -11 -49 6 -49 7 0 -44 1 -44 14 -40 15 -40 0 -19 0 -19 88 6
88 6 0 -54 1 -55 23 -20 23 -20 18 0 18 0 26 12 25 11 6 24 6 24 -6 51 -7 50
23 -5 23 -6 61 -6 60 -7 17 16 16 17 11 37 10 37 0 25 0 25 -9 14 -9 14 -54
-6 -53 -6 -11 7 -11 7 -13 24 -12 24 13 8 14 9 42 0 41 0 16 6 16 6 0 94 0 94
-240 0 -239 0 -9 -17z"/>
</g>
</svg>
