<?xml version="1.0" standalone="no"?>
<!DOCTYPE svg PUBLIC "-//W3C//DTD SVG 20010904//EN"
 "http://www.w3.org/TR/2001/REC-SVG-20010904/DTD/svg10.dtd">
<svg version="1.0" xmlns="http://www.w3.org/2000/svg"
 width="78.000000pt" height="57.000000pt" viewBox="0 0 78.000000 57.000000"
 preserveAspectRatio="xMidYMid meet">
<metadata>
Created by potrace 1.16, written by Peter Selinger 2001-2019
</metadata>
<g transform="translate(0.000000,57.000000) scale(0.100000,-0.100000)"
fill="#000000" stroke="none">
<path d="M163 563 l-13 -5 0 -78 0 -78 -22 -6 -23 -6 -42 0 -42 0 -11 -21 -12
-21 12 -28 12 -28 26 -5 26 -5 34 5 34 6 9 -14 9 -14 -6 -72 -6 -73 38 -1 39
0 35 -12 35 -12 -3 -31 -3 -31 16 -17 16 -16 40 0 40 0 22 12 22 11 12 13 13
13 0 41 0 42 74 -7 73 -6 7 16 6 17 -6 52 -6 53 56 5 56 5 20 22 19 23 7 20 6
19 -6 25 -6 24 -15 0 -15 0 0 11 0 12 -38 -7 -38 -6 -17 36 -17 35 0 39 0 40
-95 0 -95 0 0 -11 0 -10 9 -18 10 -17 -7 -11 -7 -12 -28 -10 -28 -11 -25 0
-25 0 -15 14 -14 14 7 32 6 32 -14 9 -14 9 -60 -1 -60 -1 -12 -5z"/>
</g>
</svg>
