<?xml version="1.0" standalone="no"?>
<!DOCTYPE svg PUBLIC "-//W3C//DTD SVG 20010904//EN"
 "http://www.w3.org/TR/2001/REC-SVG-20010904/DTD/svg10.dtd">
<svg version="1.0" xmlns="http://www.w3.org/2000/svg"
 width="76.000000pt" height="55.000000pt" viewBox="0 0 76.000000 55.000000"
 preserveAspectRatio="xMidYMid meet">
<metadata>
Created by potrace 1.16, written by Peter Selinger 2001-2019
</metadata>
<g transform="translate(0.000000,55.000000) scale(0.100000,-0.100000)"
fill="#000000" stroke="none">
<path d="M163 544 l-13 -6 0 -78 0 -78 -22 -6 -23 -6 -42 0 -42 0 -9 -17 -10
-17 11 -23 10 -23 21 -1 21 -1 42 2 41 1 7 -21 7 -22 -7 -64 -7 -64 39 -1 38
0 35 -12 35 -12 0 -38 0 -38 15 -9 15 -10 28 0 28 0 22 12 22 11 14 14 13 14
-5 41 -5 41 78 -6 79 -6 4 12 4 12 -5 60 -4 60 54 0 54 0 16 15 15 15 12 23
12 23 -6 19 -6 20 -15 0 -14 0 0 10 0 10 -38 -6 -37 -6 -18 36 -17 37 0 39 0
40 -85 0 -86 0 11 -20 11 -21 -6 -19 -6 -18 -31 -11 -31 -11 -34 0 -34 0 -16
15 -15 16 6 33 6 34 -12 4 -13 5 -50 1 -50 1 -12 -5z"/>
</g>
</svg>
