<?xml version="1.0" standalone="no"?>
<!DOCTYPE svg PUBLIC "-//W3C//DTD SVG 20010904//EN"
 "http://www.w3.org/TR/2001/REC-SVG-20010904/DTD/svg10.dtd">
<svg version="1.0" xmlns="http://www.w3.org/2000/svg"
 width="50.000000pt" height="56.000000pt" viewBox="0 0 50.000000 56.000000"
 preserveAspectRatio="xMidYMid meet">
<metadata>
Created by potrace 1.16, written by Peter Selinger 2001-2019
</metadata>
<g transform="translate(0.000000,56.000000) scale(0.100000,-0.100000)"
fill="#000000" stroke="none">
<path d="M224 552 l-11 -7 -7 -28 -6 -27 10 -20 11 -20 -3 -1 -3 -1 -105 -7
-105 -6 -3 -65 -3 -64 6 -23 5 -23 55 0 55 0 20 -20 21 -21 -6 -9 -6 -10 -30
0 -30 0 -13 -13 -12 -12 -11 -40 -11 -40 -13 -31 -12 -31 6 -17 6 -16 230 0
230 0 6 55 7 55 -6 35 -7 35 -39 0 -40 0 0 10 0 10 -14 0 -15 0 -6 19 -6 19
12 26 12 26 36 -5 36 -6 14 10 14 9 5 77 5 78 -29 -7 -29 -8 -36 -5 -36 -5
-16 17 -17 16 0 38 0 38 -25 11 -26 12 -27 0 -27 0 -11 -8z"/>
</g>
</svg>
