<?xml version="1.0" standalone="no"?>
<!DOCTYPE svg PUBLIC "-//W3C//DTD SVG 20010904//EN"
 "http://www.w3.org/TR/2001/REC-SVG-20010904/DTD/svg10.dtd">
<svg version="1.0" xmlns="http://www.w3.org/2000/svg"
 width="48.000000pt" height="54.000000pt" viewBox="0 0 48.000000 54.000000"
 preserveAspectRatio="xMidYMid meet">
<metadata>
Created by potrace 1.16, written by Peter Selinger 2001-2019
</metadata>
<g transform="translate(0.000000,54.000000) scale(0.100000,-0.100000)"
fill="#000000" stroke="none">
<path d="M223 532 l-13 -8 -1 -25 -1 -24 7 -21 7 -21 -29 -8 -28 -7 -80 -1
-80 -2 -3 -54 -3 -55 6 -23 5 -23 55 0 55 0 20 -20 20 -20 0 -9 0 -9 -6 -16
-6 -15 -28 6 -29 5 -14 -14 -15 -14 -7 -35 -7 -34 -15 -28 -14 -29 5 -14 5
-14 220 0 219 0 7 50 7 49 -7 31 -7 30 -39 0 -39 0 0 10 0 10 -15 0 -15 0 -6
25 -6 25 13 31 12 31 36 -6 36 -5 14 8 13 8 6 68 5 68 -19 -8 -19 -9 -46 -4
-46 -4 -16 17 -17 16 0 38 0 38 -25 11 -26 12 -17 0 -17 0 -12 -8z"/>
</g>
</svg>
