<?xml version="1.0" standalone="no"?>
<!DOCTYPE svg PUBLIC "-//W3C//DTD SVG 20010904//EN"
 "http://www.w3.org/TR/2001/REC-SVG-20010904/DTD/svg10.dtd">
<svg version="1.0" xmlns="http://www.w3.org/2000/svg"
 width="56.000000pt" height="66.000000pt" viewBox="0 0 56.000000 66.000000"
 preserveAspectRatio="xMidYMid meet">
<metadata>
Created by potrace 1.16, written by Peter Selinger 2001-2019
</metadata>
<g transform="translate(0.000000,66.000000) scale(0.100000,-0.100000)"
fill="#000000" stroke="none">
<path d="M214 645 l-6 -15 4 -30 4 -29 -28 -12 -29 -12 -74 6 -73 5 -6 -15 -6
-15 0 -53 0 -54 12 -27 12 -26 63 5 63 6 0 -22 0 -22 -8 -11 -7 -11 -22 -11
-21 -12 -31 6 -30 6 -16 -15 -15 -16 0 -79 0 -80 22 -5 22 -6 42 6 43 6 23 -6
24 -6 -4 -35 -4 -35 15 -16 16 -15 44 0 44 0 32 11 31 11 6 24 6 24 -6 15 -5
15 70 0 70 0 15 14 14 15 20 46 20 47 0 26 0 27 -9 14 -9 14 -43 -6 -44 -6
-32 11 -33 12 -6 18 -5 17 11 22 12 21 44 -7 44 -6 15 15 15 15 0 74 0 75 -72
17 -73 18 -20 11 -20 11 0 20 0 20 -58 3 -57 3 -6 -16z"/>
</g>
</svg>
