<?xml version="1.0" standalone="no"?>
<!DOCTYPE svg PUBLIC "-//W3C//DTD SVG 20010904//EN"
 "http://www.w3.org/TR/2001/REC-SVG-20010904/DTD/svg10.dtd">
<svg version="1.0" xmlns="http://www.w3.org/2000/svg"
 width="54.000000pt" height="64.000000pt" viewBox="0 0 54.000000 64.000000"
 preserveAspectRatio="xMidYMid meet">
<metadata>
Created by potrace 1.16, written by Peter Selinger 2001-2019
</metadata>
<g transform="translate(0.000000,64.000000) scale(0.100000,-0.100000)"
fill="#000000" stroke="none">
<path d="M215 630 l-7 -11 6 -33 6 -33 -30 -13 -29 -12 -76 4 -75 3 -5 -13 -5
-14 0 -43 0 -44 12 -26 12 -27 63 7 63 7 0 -34 0 -33 -8 -11 -7 -11 -24 -13
-23 -12 -30 6 -30 6 -14 -14 -14 -15 0 -70 0 -71 18 -1 17 -1 52 2 52 2 21 -7
21 -7 -7 -33 -6 -34 15 -16 16 -15 34 0 34 0 31 11 31 11 6 18 6 19 -11 21
-11 20 77 0 77 0 17 20 17 20 18 45 17 46 -6 25 -7 26 -45 -7 -44 -6 -35 13
-36 12 -6 24 -6 23 12 26 12 26 46 -6 46 -5 14 13 13 14 0 64 0 65 -67 16 -68
17 -28 11 -28 11 3 21 3 21 -47 3 -46 3 -7 -11z"/>
</g>
</svg>
