<?xml version="1.0" standalone="no"?>
<!DOCTYPE svg PUBLIC "-//W3C//DTD SVG 20010904//EN"
 "http://www.w3.org/TR/2001/REC-SVG-20010904/DTD/svg10.dtd">
<svg version="1.0" xmlns="http://www.w3.org/2000/svg"
 width="73.000000pt" height="58.000000pt" viewBox="0 0 73.000000 58.000000"
 preserveAspectRatio="xMidYMid meet">
<metadata>
Created by potrace 1.16, written by Peter Selinger 2001-2019
</metadata>
<g transform="translate(0.000000,58.000000) scale(0.100000,-0.100000)"
fill="#000000" stroke="none">
<path d="M333 573 l-23 -4 11 -21 11 -20 -6 -33 -6 -33 -29 -12 -29 -12 -71 4
-71 3 0 -62 0 -62 -12 -26 -12 -26 -42 7 -43 6 -7 -26 -6 -26 6 -26 7 -26 43
6 44 7 6 -16 6 -17 0 -61 0 -62 8 -12 7 -12 75 -1 75 -2 28 7 29 8 -5 16 -5
16 -2 10 -2 10 1 22 1 23 25 6 25 6 30 -12 30 -12 0 -38 0 -39 16 -15 15 -16
37 0 36 0 33 12 34 12 -6 21 -6 20 -6 60 -5 61 59 -1 59 0 18 18 18 17 -7 41
-7 41 -53 -7 -52 -6 -7 32 -6 32 0 39 0 40 -27 -5 -28 -6 -46 -12 -46 -12 -28
7 -27 7 6 42 6 42 -10 34 -10 35 -12 8 -13 8 -5 -2 -5 -1 -22 -4z"/>
</g>
</svg>
