<?xml version="1.0" standalone="no"?>
<!DOCTYPE svg PUBLIC "-//W3C//DTD SVG 20010904//EN"
 "http://www.w3.org/TR/2001/REC-SVG-20010904/DTD/svg10.dtd">
<svg version="1.0" xmlns="http://www.w3.org/2000/svg"
 width="75.000000pt" height="60.000000pt" viewBox="0 0 75.000000 60.000000"
 preserveAspectRatio="xMidYMid meet">
<metadata>
Created by potrace 1.16, written by Peter Selinger 2001-2019
</metadata>
<g transform="translate(0.000000,60.000000) scale(0.100000,-0.100000)"
fill="#000000" stroke="none">
<path d="M333 593 l-23 -4 0 -10 0 -10 10 -19 10 -20 -6 -24 -6 -24 -29 -12
-30 -13 -69 5 -70 5 0 -63 0 -63 -11 -24 -11 -25 -40 6 -40 5 -9 -14 -9 -14 0
-35 0 -35 9 -14 9 -14 40 6 41 5 5 -15 6 -15 0 -61 0 -62 8 -11 7 -12 85 -3
85 -2 28 8 29 8 -7 47 -7 48 20 6 20 7 26 -12 26 -12 0 -38 0 -38 16 -15 15
-16 47 0 46 0 34 12 34 13 -6 30 -6 30 -6 50 -6 50 59 0 59 0 17 17 17 17 0
19 0 20 -6 32 -7 32 -52 -5 -53 -5 -6 30 -6 30 0 39 0 39 -26 0 -25 0 -50 -16
-49 -16 -26 6 -25 7 6 30 7 29 -7 40 -7 40 -15 15 -14 15 -17 -1 -17 -2 -22
-4z"/>
</g>
</svg>
