<?xml version="1.0" standalone="no"?>
<!DOCTYPE svg PUBLIC "-//W3C//DTD SVG 20010904//EN"
 "http://www.w3.org/TR/2001/REC-SVG-20010904/DTD/svg10.dtd">
<svg version="1.0" xmlns="http://www.w3.org/2000/svg"
 width="66.000000pt" height="63.000000pt" viewBox="0 0 66.000000 63.000000"
 preserveAspectRatio="xMidYMid meet">
<metadata>
Created by potrace 1.16, written by Peter Selinger 2001-2019
</metadata>
<g transform="translate(0.000000,63.000000) scale(0.100000,-0.100000)"
fill="#000000" stroke="none">
<path d="M363 622 l-12 -8 -6 -44 -6 -45 -5 -24 -5 -24 -90 6 -89 6 0 -80 0
-79 -56 0 -57 0 -18 -22 -19 -21 0 -24 0 -23 15 0 15 0 0 -14 0 -15 21 -6 20
-7 24 6 25 6 4 -22 5 -23 5 -48 6 -48 14 -15 15 -14 75 0 75 0 25 12 26 11 6
34 6 33 -5 20 -5 20 23 0 24 0 10 -35 9 -34 -5 -42 -6 -41 14 -9 14 -9 37 0
37 0 47 16 47 16 14 14 14 14 -7 70 -7 70 -17 20 -18 21 -39 -3 -38 -3 0 40 0
40 20 -2 20 -2 26 -6 27 -7 21 18 21 18 0 79 0 79 -65 -7 -65 -7 -28 11 -27
11 4 56 3 57 -13 8 -14 9 -40 0 -40 0 -12 -8z"/>
</g>
</svg>
