<?xml version="1.0" standalone="no"?>
<!DOCTYPE svg PUBLIC "-//W3C//DTD SVG 20010904//EN"
 "http://www.w3.org/TR/2001/REC-SVG-20010904/DTD/svg10.dtd">
<svg version="1.0" xmlns="http://www.w3.org/2000/svg"
 width="64.000000pt" height="61.000000pt" viewBox="0 0 64.000000 61.000000"
 preserveAspectRatio="xMidYMid meet">
<metadata>
Created by potrace 1.16, written by Peter Selinger 2001-2019
</metadata>
<g transform="translate(0.000000,61.000000) scale(0.100000,-0.100000)"
fill="#000000" stroke="none">
<path d="M363 602 l-12 -8 -6 -44 -6 -45 -5 -24 -5 -23 -89 4 -89 4 -3 -80 -3
-81 -53 3 -53 4 -19 -23 -20 -22 0 -14 0 -13 15 0 15 0 0 -14 0 -14 15 -6 15
-5 30 5 29 6 5 -23 5 -24 5 -48 6 -48 14 -15 15 -14 65 0 65 0 25 12 26 11 6
32 6 33 -11 20 -11 20 27 5 27 5 13 -5 13 -5 10 -39 11 -39 -7 -36 -7 -36 14
-9 14 -9 27 0 27 0 47 16 47 16 14 13 13 13 -7 61 -6 61 -16 19 -16 19 -40 -2
-40 -1 -3 48 -3 47 17 7 17 6 33 -12 33 -12 20 18 21 17 0 68 0 67 -65 -6 -64
-6 -30 12 -29 13 5 55 6 55 -14 9 -14 9 -30 0 -30 0 -12 -8z"/>
</g>
</svg>
