<?xml version="1.0" standalone="no"?>
<!DOCTYPE svg PUBLIC "-//W3C//DTD SVG 20010904//EN"
 "http://www.w3.org/TR/2001/REC-SVG-20010904/DTD/svg10.dtd">
<svg version="1.0" xmlns="http://www.w3.org/2000/svg"
 width="63.000000pt" height="46.000000pt" viewBox="0 0 63.000000 46.000000"
 preserveAspectRatio="xMidYMid meet">
<metadata>
Created by potrace 1.16, written by Peter Selinger 2001-2019
</metadata>
<g transform="translate(0.000000,46.000000) scale(0.100000,-0.100000)"
fill="#000000" stroke="none">
<path d="M315 450 l-6 -10 6 -44 7 -44 -6 -19 -6 -20 -26 -11 -25 -12 -8 0 -8
0 -20 18 -20 17 -5 29 -6 29 9 29 8 30 -97 -7 -97 -7 -7 -5 -8 -4 0 -38 0 -38
11 -32 11 -31 13 0 13 0 4 -12 5 -13 27 13 27 12 5 -14 5 -14 -3 -38 -3 -39
-20 2 -20 3 -13 -8 -13 -9 -15 -58 -15 -58 5 -24 6 -23 70 0 69 0 25 11 25 12
-2 41 -2 41 50 0 50 0 -3 -21 -3 -21 28 -11 28 -11 61 -16 62 -15 5 0 4 0 16
43 16 42 11 43 11 42 22 0 22 0 11 8 11 7 8 24 7 23 -13 24 -12 24 -47 0 -47
0 -11 25 -12 26 0 52 0 52 -32 0 -33 0 -52 8 -52 7 -6 -10z"/>
</g>
</svg>
