<?xml version="1.0" standalone="no"?>
<!DOCTYPE svg PUBLIC "-//W3C//DTD SVG 20010904//EN"
 "http://www.w3.org/TR/2001/REC-SVG-20010904/DTD/svg10.dtd">
<svg version="1.0" xmlns="http://www.w3.org/2000/svg"
 width="65.000000pt" height="48.000000pt" viewBox="0 0 65.000000 48.000000"
 preserveAspectRatio="xMidYMid meet">
<metadata>
Created by potrace 1.16, written by Peter Selinger 2001-2019
</metadata>
<g transform="translate(0.000000,48.000000) scale(0.100000,-0.100000)"
fill="#000000" stroke="none">
<path d="M315 470 l-7 -12 6 -51 6 -52 -7 -11 -8 -11 -21 -11 -22 -11 -22 19
-23 20 6 56 6 56 -107 -7 -107 -7 -7 -5 -8 -4 0 -48 0 -48 11 -32 11 -31 14 0
14 0 0 -11 0 -12 35 6 35 6 0 -35 0 -34 -24 0 -25 0 -14 -14 -14 -14 -13 -61
-12 -60 6 -25 6 -26 80 0 79 0 26 12 26 12 -3 40 -3 41 38 3 37 3 0 -24 0 -25
28 -10 27 -11 61 -16 62 -15 15 0 14 0 16 43 16 42 11 43 11 42 19 0 18 0 16
6 15 6 7 35 7 35 -13 24 -13 24 -47 0 -47 0 -11 25 -12 26 0 54 0 54 -32 -2
-33 -1 -61 8 -62 8 -7 -12z"/>
</g>
</svg>
