<?xml version="1.0" standalone="no"?>
<!DOCTYPE svg PUBLIC "-//W3C//DTD SVG 20010904//EN"
 "http://www.w3.org/TR/2001/REC-SVG-20010904/DTD/svg10.dtd">
<svg version="1.0" xmlns="http://www.w3.org/2000/svg"
 width="70.000000pt" height="45.000000pt" viewBox="0 0 70.000000 45.000000"
 preserveAspectRatio="xMidYMid meet">
<metadata>
Created by potrace 1.16, written by Peter Selinger 2001-2019
</metadata>
<g transform="translate(0.000000,45.000000) scale(0.100000,-0.100000)"
fill="#000000" stroke="none">
<path d="M427 411 l5 -40 -13 -14 -14 -14 -22 -11 -22 -12 -28 0 -28 0 -15 10
-15 9 0 38 0 38 -35 12 -35 12 -37 0 -38 1 0 -85 0 -84 -33 -6 -33 -6 -9 1
-10 2 -23 -1 -23 -1 3 -37 3 -38 41 3 42 3 16 -16 16 -16 0 -74 0 -73 16 -6
16 -6 69 0 69 0 4 22 5 23 6 47 6 46 15 6 16 6 26 0 27 0 14 -9 14 -9 -6 -55
-5 -55 24 -11 25 -11 45 0 45 0 18 10 19 9 6 48 7 48 11 28 11 28 30 -3 31 -3
7 25 7 25 1 13 1 12 -21 21 -20 20 -45 -7 -44 -6 0 85 0 85 -31 6 -31 6 -43 0
-43 0 5 -39z"/>
</g>
</svg>
