<?xml version="1.0" standalone="no"?>
<!DOCTYPE svg PUBLIC "-//W3C//DTD SVG 20010904//EN"
 "http://www.w3.org/TR/2001/REC-SVG-20010904/DTD/svg10.dtd">
<svg version="1.0" xmlns="http://www.w3.org/2000/svg"
 width="72.000000pt" height="47.000000pt" viewBox="0 0 72.000000 47.000000"
 preserveAspectRatio="xMidYMid meet">
<metadata>
Created by potrace 1.16, written by Peter Selinger 2001-2019
</metadata>
<g transform="translate(0.000000,47.000000) scale(0.100000,-0.100000)"
fill="#000000" stroke="none">
<path d="M425 430 l7 -40 -14 -13 -13 -14 -22 -11 -22 -12 -18 0 -18 0 -14 9
-14 9 -1 39 -1 38 -35 12 -35 12 -47 0 -48 1 0 -85 0 -85 -17 -2 -18 -1 -25
-2 -25 -2 -23 -1 -23 -2 3 -47 3 -48 48 0 48 0 9 -15 10 -15 0 -71 0 -72 16
-6 16 -6 79 0 79 0 4 23 5 22 6 47 6 47 20 6 20 7 26 -7 25 -6 -6 -58 -7 -58
26 -11 26 -12 55 0 55 0 18 10 19 9 6 48 7 48 11 28 11 28 27 -6 28 -6 6 9 5
9 7 40 6 41 -22 22 -22 22 -44 -6 -44 -6 0 84 0 84 -31 6 -31 6 -55 0 -55 0 7
-40z"/>
</g>
</svg>
