<?xml version="1.0" standalone="no"?>
<!DOCTYPE svg PUBLIC "-//W3C//DTD SVG 20010904//EN"
 "http://www.w3.org/TR/2001/REC-SVG-20010904/DTD/svg10.dtd">
<svg version="1.0" xmlns="http://www.w3.org/2000/svg"
 width="60.000000pt" height="44.000000pt" viewBox="0 0 60.000000 44.000000"
 preserveAspectRatio="xMidYMid meet">
<metadata>
Created by potrace 1.16, written by Peter Selinger 2001-2019
</metadata>
<g transform="translate(0.000000,44.000000) scale(0.100000,-0.100000)"
fill="#000000" stroke="none">
<path d="M0 429 l0 -10 10 6 10 6 0 5 0 4 -10 0 -10 0 0 -11z M20 386 l0 -44
6 -31 7 -32 52 6 53 7 7 -41 7 -41 -18 -17 -18 -18 -58 0 -58 1 0 -37 0 -37
12 -51 11 -51 59 0 59 0 22 12 22 11 12 13 13 13 0 16 0 16 -11 21 -11 21 13
8 14 9 32 0 32 0 17 -17 17 -17 -12 -4 -11 -4 0 -14 0 -14 14 0 14 0 4 -10 3
-11 55 -14 55 -15 18 0 17 0 0 69 0 70 17 16 16 17 38 -6 38 -6 11 21 11 20
-6 30 -7 30 -16 -6 -17 -7 -17 -5 -18 -5 0 11 0 11 -13 0 -14 0 -11 25 -12 26
0 49 0 50 -89 0 -90 0 6 -33 5 -34 -17 -16 -16 -17 -25 0 -25 0 -15 15 -15 14
7 27 7 26 -14 9 -14 9 -77 0 -78 0 0 -44z"/>
</g>
</svg>
