<?xml version="1.0" standalone="no"?>
<!DOCTYPE svg PUBLIC "-//W3C//DTD SVG 20010904//EN"
 "http://www.w3.org/TR/2001/REC-SVG-20010904/DTD/svg10.dtd">
<svg version="1.0" xmlns="http://www.w3.org/2000/svg"
 width="62.000000pt" height="46.000000pt" viewBox="0 0 62.000000 46.000000"
 preserveAspectRatio="xMidYMid meet">
<metadata>
Created by potrace 1.16, written by Peter Selinger 2001-2019
</metadata>
<g transform="translate(0.000000,46.000000) scale(0.100000,-0.100000)"
fill="#000000" stroke="none">
<path d="M0 439 l0 -19 10 0 10 0 0 -39 0 -38 6 -33 7 -32 52 6 53 6 6 -31 6
-31 -17 -16 -17 -17 -58 2 -58 1 0 -48 0 -48 12 -51 11 -51 69 0 69 0 22 12
22 11 14 14 13 14 -5 40 -5 40 14 6 14 5 23 -6 24 -6 -5 -30 -4 -30 15 0 15 0
4 -10 3 -11 55 -14 55 -15 28 0 27 0 0 69 0 70 16 15 15 16 39 -6 39 -6 12 25
12 25 -7 36 -7 36 -15 0 -15 0 -20 -10 -19 -11 0 11 0 10 -13 0 -14 0 -11 25
-12 26 0 49 0 50 -101 0 -101 0 6 -34 7 -34 -16 -16 -16 -16 -15 0 -15 0 -12
12 -13 11 4 33 4 33 -23 5 -24 5 -87 4 -88 5 0 -19z"/>
</g>
</svg>
