<?xml version="1.0" standalone="no"?>
<!DOCTYPE svg PUBLIC "-//W3C//DTD SVG 20010904//EN"
 "http://www.w3.org/TR/2001/REC-SVG-20010904/DTD/svg10.dtd">
<svg version="1.0" xmlns="http://www.w3.org/2000/svg"
 width="63.000000pt" height="60.000000pt" viewBox="0 0 63.000000 60.000000"
 preserveAspectRatio="xMidYMid meet">
<metadata>
Created by potrace 1.16, written by Peter Selinger 2001-2019
</metadata>
<g transform="translate(0.000000,60.000000) scale(0.100000,-0.100000)"
fill="#000000" stroke="none">
<path d="M147 593 l-7 -6 0 -78 0 -77 -16 -6 -16 -6 -38 0 -38 0 -16 -6 -16
-6 0 -24 0 -23 12 -26 11 -25 24 -6 23 -6 44 6 44 7 6 -19 7 -20 -16 -43 -15
-44 0 -24 0 -24 74 7 75 7 -6 -35 -6 -36 13 -29 12 -29 29 -12 29 -12 26 6 26
7 14 14 14 13 10 27 10 26 0 41 0 40 33 -6 32 -5 41 -7 42 -6 12 37 12 37 -4
53 -4 53 -18 17 -17 17 -34 -6 -34 -7 -25 7 -26 6 0 25 0 25 40 -7 40 -7 29 7
29 6 11 31 11 31 0 48 0 47 -6 16 -6 16 -232 0 -233 0 -6 -7z"/>
</g>
</svg>
