<?xml version="1.0" standalone="no"?>
<!DOCTYPE svg PUBLIC "-//W3C//DTD SVG 20010904//EN"
 "http://www.w3.org/TR/2001/REC-SVG-20010904/DTD/svg10.dtd">
<svg version="1.0" xmlns="http://www.w3.org/2000/svg"
 width="61.000000pt" height="58.000000pt" viewBox="0 0 61.000000 58.000000"
 preserveAspectRatio="xMidYMid meet">
<metadata>
Created by potrace 1.16, written by Peter Selinger 2001-2019
</metadata>
<g transform="translate(0.000000,58.000000) scale(0.100000,-0.100000)"
fill="#000000" stroke="none">
<path d="M147 573 l-7 -6 0 -78 0 -77 -16 -6 -16 -6 -41 0 -42 0 -14 -9 -14
-9 7 -25 6 -26 17 -16 16 -17 58 7 58 7 7 -26 6 -26 -16 -49 -16 -50 0 -11 0
-12 76 7 77 8 -7 -38 -7 -38 11 -27 11 -27 26 -12 25 -12 22 7 21 7 17 20 18
20 6 33 6 34 -6 26 -7 27 58 -7 57 -7 22 -5 22 -6 12 37 12 37 -5 44 -4 43
-16 16 -16 16 -26 -7 -25 -6 -35 6 -35 7 0 33 0 34 16 6 15 6 21 -11 20 -11
33 6 33 7 11 31 11 31 0 38 0 37 -6 16 -6 16 -222 0 -223 0 -6 -7z"/>
</g>
</svg>
