<?xml version="1.0" standalone="no"?>
<!DOCTYPE svg PUBLIC "-//W3C//DTD SVG 20010904//EN"
 "http://www.w3.org/TR/2001/REC-SVG-20010904/DTD/svg10.dtd">
<svg version="1.0" xmlns="http://www.w3.org/2000/svg"
 width="61.000000pt" height="57.000000pt" viewBox="0 0 61.000000 57.000000"
 preserveAspectRatio="xMidYMid meet">
<metadata>
Created by potrace 1.16, written by Peter Selinger 2001-2019
</metadata>
<g transform="translate(0.000000,57.000000) scale(0.100000,-0.100000)"
fill="#000000" stroke="none">
<path d="M140 503 l0 -64 -11 -12 -12 -12 -45 4 -46 3 -13 -18 -13 -18 0 -30
0 -31 8 -11 7 -10 33 -13 33 -14 44 6 44 6 6 -18 6 -19 -26 -57 -25 -57 0 -13
0 -13 72 2 73 1 -3 -31 -3 -32 26 -26 26 -26 44 0 44 0 15 16 16 15 0 25 0 24
23 4 22 5 58 11 57 11 0 25 0 25 -14 27 -13 27 -7 48 -7 47 -34 0 -34 0 -15
16 -16 15 0 12 0 12 9 14 9 14 60 -2 59 -2 7 32 6 32 0 36 0 36 -7 23 -6 24
-21 -7 -21 -6 -74 -9 -74 -9 -5 -6 -5 -5 11 -25 11 -25 -26 -26 -25 -26 -25 7
-25 6 -14 13 -13 14 5 33 5 34 -8 11 -8 11 -72 5 -73 5 0 -64z"/>
</g>
</svg>
