<?xml version="1.0" standalone="no"?>
<!DOCTYPE svg PUBLIC "-//W3C//DTD SVG 20010904//EN"
 "http://www.w3.org/TR/2001/REC-SVG-20010904/DTD/svg10.dtd">
<svg version="1.0" xmlns="http://www.w3.org/2000/svg"
 width="70.000000pt" height="54.000000pt" viewBox="0 0 70.000000 54.000000"
 preserveAspectRatio="xMidYMid meet">
<metadata>
Created by potrace 1.16, written by Peter Selinger 2001-2019
</metadata>
<g transform="translate(0.000000,54.000000) scale(0.100000,-0.100000)"
fill="#000000" stroke="none">
<path d="M140 462 l0 -68 -21 -17 -20 -18 -33 12 -33 12 -17 -6 -17 -7 3 -47
3 -48 40 1 40 2 16 -19 16 -19 7 -70 7 -70 77 0 77 0 14 -9 14 -9 -7 -26 -7
-27 15 -14 15 -15 25 0 25 0 16 17 17 16 -5 34 -6 33 97 0 97 0 -3 68 -3 67
20 23 20 24 19 -6 19 -6 17 6 16 6 0 32 0 31 -9 14 -9 14 -37 -6 -37 -6 -14
14 -14 14 0 70 0 71 -68 0 -69 0 -6 -6 -6 -6 11 -24 11 -24 -23 -20 -24 -21
-23 -5 -24 -6 -30 6 -30 6 -14 14 -14 14 6 36 6 36 -72 0 -71 0 0 -68z"/>
</g>
</svg>
