<?xml version="1.0" standalone="no"?>
<!DOCTYPE svg PUBLIC "-//W3C//DTD SVG 20010904//EN"
 "http://www.w3.org/TR/2001/REC-SVG-20010904/DTD/svg10.dtd">
<svg version="1.0" xmlns="http://www.w3.org/2000/svg"
 width="59.000000pt" height="55.000000pt" viewBox="0 0 59.000000 55.000000"
 preserveAspectRatio="xMidYMid meet">
<metadata>
Created by potrace 1.16, written by Peter Selinger 2001-2019
</metadata>
<g transform="translate(0.000000,55.000000) scale(0.100000,-0.100000)"
fill="#000000" stroke="none">
<path d="M140 482 l0 -63 -13 -14 -14 -13 -46 5 -46 6 -12 -26 -12 -26 6 -23
6 -24 36 -12 35 -13 44 6 45 7 7 -26 6 -27 -22 -52 -22 -52 -4 -10 -4 -10 72
0 73 0 0 -37 0 -36 24 -21 24 -21 31 0 31 0 15 10 14 9 1 28 2 28 24 7 24 8
58 11 57 10 0 15 0 15 -14 27 -13 27 -7 48 -7 47 -34 0 -34 0 -15 16 -16 15 0
24 0 24 15 15 15 15 54 -6 54 -6 7 47 7 46 -6 35 -7 34 -25 -9 -25 -10 -33 0
-33 0 -31 -6 -31 -6 9 -19 10 -18 0 -10 0 -10 -27 -27 -26 -26 -34 5 -33 6
-16 16 -16 16 6 32 6 32 -8 11 -7 12 -63 3 -62 4 0 -63z"/>
</g>
</svg>
