<?xml version="1.0" standalone="no"?>
<!DOCTYPE svg PUBLIC "-//W3C//DTD SVG 20010904//EN"
 "http://www.w3.org/TR/2001/REC-SVG-20010904/DTD/svg10.dtd">
<svg version="1.0" xmlns="http://www.w3.org/2000/svg"
 width="72.000000pt" height="56.000000pt" viewBox="0 0 72.000000 56.000000"
 preserveAspectRatio="xMidYMid meet">
<metadata>
Created by potrace 1.16, written by Peter Selinger 2001-2019
</metadata>
<g transform="translate(0.000000,56.000000) scale(0.100000,-0.100000)"
fill="#000000" stroke="none">
<path d="M120 546 l0 -16 10 0 10 0 0 -58 0 -58 -19 -15 -18 -16 -17 9 -16 9
-33 -3 -32 -3 0 -60 0 -60 40 0 40 0 16 -18 16 -17 7 -70 7 -70 74 0 73 0 16
-6 15 -6 -6 -28 -5 -29 15 -16 16 -15 35 0 35 0 15 16 16 15 0 35 0 34 94 0
93 0 -4 68 -5 67 18 21 19 21 13 -5 13 -4 24 6 25 6 0 43 0 42 -9 14 -9 13
-39 -3 -40 -4 -12 12 -11 12 0 71 0 70 -80 0 -81 0 -5 -14 -6 -15 10 -17 10
-18 -12 -11 -11 -12 -24 -12 -23 -13 -29 6 -29 6 -13 11 -12 12 3 38 4 39 -60
0 -59 0 -32 6 -31 7 0 -17z"/>
</g>
</svg>
