<?xml version="1.0" standalone="no"?>
<!DOCTYPE svg PUBLIC "-//W3C//DTD SVG 20010904//EN"
 "http://www.w3.org/TR/2001/REC-SVG-20010904/DTD/svg10.dtd">
<svg version="1.0" xmlns="http://www.w3.org/2000/svg"
 width="64.000000pt" height="58.000000pt" viewBox="0 0 64.000000 58.000000"
 preserveAspectRatio="xMidYMid meet">
<metadata>
Created by potrace 1.16, written by Peter Selinger 2001-2019
</metadata>
<g transform="translate(0.000000,58.000000) scale(0.100000,-0.100000)"
fill="#000000" stroke="none">
<path d="M320 570 l-14 -9 13 -36 13 -36 -23 -20 -23 -20 -24 -6 -24 -6 -53 6
-52 5 -6 -64 -5 -65 -6 -6 -6 -7 -43 3 -43 2 -12 -26 -12 -26 0 -24 0 -23 6
-16 6 -16 14 0 14 0 0 -10 0 -10 39 0 39 0 6 -25 6 -24 -6 -56 -7 -55 249 2
249 3 -1 30 -2 30 -15 54 -16 53 -5 5 -5 6 -38 1 -38 1 -7 10 -8 10 0 21 0 22
14 5 14 6 57 -6 57 -6 9 14 9 14 0 82 0 82 -10 6 -11 7 -77 18 -76 18 -4 11
-4 11 -16 1 -17 1 13 5 12 5 0 13 0 14 -16 15 -15 16 -42 0 -42 0 -15 -10z"/>
</g>
</svg>
