<?xml version="1.0" standalone="no"?>
<!DOCTYPE svg PUBLIC "-//W3C//DTD SVG 20010904//EN"
 "http://www.w3.org/TR/2001/REC-SVG-20010904/DTD/svg10.dtd">
<svg version="1.0" xmlns="http://www.w3.org/2000/svg"
 width="62.000000pt" height="56.000000pt" viewBox="0 0 62.000000 56.000000"
 preserveAspectRatio="xMidYMid meet">
<metadata>
Created by potrace 1.16, written by Peter Selinger 2001-2019
</metadata>
<g transform="translate(0.000000,56.000000) scale(0.100000,-0.100000)"
fill="#000000" stroke="none">
<path d="M321 551 l-13 -8 11 -21 11 -21 0 -17 0 -17 -22 -19 -22 -19 -22 -5
-23 -6 -54 4 -55 3 -5 -64 -5 -64 -13 -8 -14 -8 -36 5 -36 6 -12 -31 -13 -31
6 -25 6 -25 15 0 15 0 0 -10 0 -10 39 0 39 0 7 -30 7 -31 -7 -50 -7 -49 239 2
238 3 -2 20 -1 20 -15 54 -16 53 -6 6 -6 6 -37 0 -37 0 -7 10 -8 11 0 31 0 32
17 6 17 7 54 -7 54 -7 9 14 9 14 0 72 0 72 -10 6 -11 7 -77 18 -76 18 -4 11
-4 11 -14 0 -14 0 0 14 0 14 11 4 12 4 -17 17 -17 17 -32 0 -32 0 -14 -9z"/>
</g>
</svg>
