<?xml version="1.0" standalone="no"?>
<!DOCTYPE svg PUBLIC "-//W3C//DTD SVG 20010904//EN"
 "http://www.w3.org/TR/2001/REC-SVG-20010904/DTD/svg10.dtd">
<svg version="1.0" xmlns="http://www.w3.org/2000/svg"
 width="53.000000pt" height="67.000000pt" viewBox="0 0 53.000000 67.000000"
 preserveAspectRatio="xMidYMid meet">
<metadata>
Created by potrace 1.16, written by Peter Selinger 2001-2019
</metadata>
<g transform="translate(0.000000,67.000000) scale(0.100000,-0.100000)"
fill="#000000" stroke="none">
<path d="M222 661 l-13 -8 6 -37 7 -37 -22 -19 -23 -20 -34 -6 -35 -7 -54 6
-54 6 0 -86 0 -85 44 6 45 7 20 -20 21 -21 -1 -12 -1 -13 -7 -25 -7 -25 -31 3
-30 3 -11 -28 -11 -28 -6 -44 -7 -43 13 -9 14 -9 64 0 64 0 -6 -36 -6 -36 14
-14 14 -14 30 -6 30 -6 24 6 23 5 24 21 23 20 -11 24 -11 24 6 6 6 6 61 0 61
0 21 6 22 6 16 42 16 42 0 23 0 22 -13 14 -14 13 -46 -5 -47 -6 -20 23 -20 23
0 23 0 23 19 11 20 10 45 0 46 0 0 63 0 62 -6 21 -5 20 -87 13 -87 12 -18 14
-19 14 6 19 6 19 -6 17 -6 16 -22 0 -21 0 -13 -9z"/>
</g>
</svg>
