<?xml version="1.0" standalone="no"?>
<!DOCTYPE svg PUBLIC "-//W3C//DTD SVG 20010904//EN"
 "http://www.w3.org/TR/2001/REC-SVG-20010904/DTD/svg10.dtd">
<svg version="1.0" xmlns="http://www.w3.org/2000/svg"
 width="55.000000pt" height="69.000000pt" viewBox="0 0 55.000000 69.000000"
 preserveAspectRatio="xMidYMid meet">
<metadata>
Created by potrace 1.16, written by Peter Selinger 2001-2019
</metadata>
<g transform="translate(0.000000,69.000000) scale(0.100000,-0.100000)"
fill="#000000" stroke="none">
<path d="M221 681 l-14 -9 6 -38 6 -37 -21 -18 -21 -19 -33 -6 -34 -6 -55 7
-55 6 0 -97 0 -97 46 6 46 5 18 -18 18 -18 -5 -26 -5 -26 -33 0 -32 0 -10 -23
-11 -24 -7 -58 -8 -57 14 -9 14 -9 63 0 63 0 -7 -35 -6 -34 16 -17 17 -16 39
-5 39 -5 24 5 23 6 23 21 24 20 -6 30 -6 30 62 0 62 0 21 6 22 6 16 42 16 42
0 33 0 32 -15 15 -15 15 -45 -7 -46 -6 -19 22 -20 23 0 13 0 13 19 11 20 10
45 0 46 0 0 73 0 72 -6 21 -5 20 -85 12 -86 13 -18 11 -18 12 5 13 5 13 -6 25
-6 25 -33 0 -32 0 -14 -9z"/>
</g>
</svg>
