<?xml version="1.0" standalone="no"?>
<!DOCTYPE svg PUBLIC "-//W3C//DTD SVG 20010904//EN"
 "http://www.w3.org/TR/2001/REC-SVG-20010904/DTD/svg10.dtd">
<svg version="1.0" xmlns="http://www.w3.org/2000/svg"
 width="48.000000pt" height="59.000000pt" viewBox="0 0 48.000000 59.000000"
 preserveAspectRatio="xMidYMid meet">
<metadata>
Created by potrace 1.16, written by Peter Selinger 2001-2019
</metadata>
<g transform="translate(0.000000,59.000000) scale(0.100000,-0.100000)"
fill="#000000" stroke="none">
<path d="M306 565 l6 -25 -6 -34 -6 -33 -18 -20 -17 -20 -21 -7 -22 -7 -25 12
-26 12 -11 27 -11 27 7 38 7 38 -73 -7 -73 -7 -8 13 -9 13 0 -57 0 -57 12 -26
11 -25 47 0 47 0 12 -24 13 -24 -7 -23 -8 -24 -11 -7 -11 -8 -22 0 -22 0 -11
-42 -11 -43 -15 -38 -14 -38 5 -10 6 -9 59 0 58 0 6 -15 5 -15 -5 -30 -6 -29
16 -16 16 -16 33 -6 34 -5 26 26 27 27 0 10 0 10 -10 18 -9 19 31 6 31 6 30 0
30 0 39 12 39 12 -6 20 -6 21 -13 57 -13 58 -7 7 -8 8 -36 0 -37 0 -3 38 -3
37 39 -6 39 -6 25 25 26 26 7 50 7 50 -7 19 -6 20 -63 11 -63 11 -22 0 -21 0
6 -25z"/>
</g>
</svg>
