<?xml version="1.0" standalone="no"?>
<!DOCTYPE svg PUBLIC "-//W3C//DTD SVG 20010904//EN"
 "http://www.w3.org/TR/2001/REC-SVG-20010904/DTD/svg10.dtd">
<svg version="1.0" xmlns="http://www.w3.org/2000/svg"
 width="50.000000pt" height="61.000000pt" viewBox="0 0 50.000000 61.000000"
 preserveAspectRatio="xMidYMid meet">
<metadata>
Created by potrace 1.16, written by Peter Selinger 2001-2019
</metadata>
<g transform="translate(0.000000,61.000000) scale(0.100000,-0.100000)"
fill="#000000" stroke="none">
<path d="M305 572 l6 -38 -11 -28 -10 -28 -14 -13 -13 -13 -14 -3 -14 -3 -21
7 -21 7 -11 24 -10 24 5 42 6 43 -76 -6 -77 -7 0 10 0 10 -15 0 -15 0 0 -65 0
-64 12 -26 11 -25 46 0 46 0 12 -20 13 -19 -7 -18 -7 -18 -10 -7 -11 -8 -22 0
-22 0 -11 -42 -11 -43 -16 -42 -15 -42 5 -16 6 -15 61 0 60 0 1 -12 1 -13 -2
-32 -2 -33 17 -16 16 -17 43 -4 43 -5 27 27 28 28 -4 28 -4 28 20 5 21 6 34 0
34 0 39 12 40 12 -5 25 -5 26 -15 63 -14 64 -14 9 -14 9 -30 -2 -30 -3 -3 25
-3 26 39 -4 39 -4 26 26 25 25 7 56 7 55 -6 24 -6 24 -63 11 -64 11 -32 0 -33
0 7 -38z"/>
</g>
</svg>
