<?xml version="1.0" standalone="no"?>
<!DOCTYPE svg PUBLIC "-//W3C//DTD SVG 20010904//EN"
 "http://www.w3.org/TR/2001/REC-SVG-20010904/DTD/svg10.dtd">
<svg version="1.0" xmlns="http://www.w3.org/2000/svg"
 width="54.000000pt" height="46.000000pt" viewBox="0 0 54.000000 46.000000"
 preserveAspectRatio="xMidYMid meet">
<metadata>
Created by potrace 1.16, written by Peter Selinger 2001-2019
</metadata>
<g transform="translate(0.000000,46.000000) scale(0.100000,-0.100000)"
fill="#000000" stroke="none">
<path d="M23 454 l-13 -6 0 -48 0 -49 17 -36 18 -37 37 4 38 4 0 -8 0 -8 14 0
14 0 5 -12 4 -13 -10 -20 -10 -20 -15 -15 -16 -15 -53 1 -53 2 1 -82 1 -81 12
-7 11 -8 62 0 62 0 26 10 27 10 15 16 15 15 -5 39 -5 39 20 7 20 6 6 -6 6 -7
-2 -33 -2 -32 22 -12 23 -11 59 -11 60 -10 36 0 37 0 11 24 11 24 6 36 7 36
-6 24 -6 24 -73 4 -74 3 -16 17 -17 17 0 31 0 32 23 -6 22 -7 30 -5 30 -6 23
21 24 20 4 58 5 58 -9 14 -10 14 -83 -13 -84 -13 -18 -9 -19 -10 5 -19 5 -19
-15 -15 -14 -15 -23 0 -23 0 -23 20 -23 20 -1 37 -1 38 -70 2 -70 2 -12 -5z"/>
</g>
</svg>
