<?xml version="1.0" standalone="no"?>
<!DOCTYPE svg PUBLIC "-//W3C//DTD SVG 20010904//EN"
 "http://www.w3.org/TR/2001/REC-SVG-20010904/DTD/svg10.dtd">
<svg version="1.0" xmlns="http://www.w3.org/2000/svg"
 width="52.000000pt" height="44.000000pt" viewBox="0 0 52.000000 44.000000"
 preserveAspectRatio="xMidYMid meet">
<metadata>
Created by potrace 1.16, written by Peter Selinger 2001-2019
</metadata>
<g transform="translate(0.000000,44.000000) scale(0.100000,-0.100000)"
fill="#000000" stroke="none">
<path d="M23 434 l-13 -6 0 -38 0 -39 17 -37 18 -36 37 6 38 6 0 -10 0 -10 14
0 15 0 6 -20 6 -19 -12 -23 -12 -23 -15 -15 -16 -15 -53 0 -54 0 3 -70 3 -70
10 -7 10 -8 52 0 52 0 26 10 27 10 15 15 15 16 -7 36 -6 36 13 8 13 9 21 0 22
0 6 -16 6 -16 -5 -21 -6 -22 20 -12 19 -12 87 -13 86 -12 10 14 9 15 11 39 10
39 -5 22 -6 23 -73 4 -74 3 -16 17 -17 17 0 42 0 42 33 -6 32 -6 20 -6 21 -6
22 19 23 20 5 48 5 49 -9 13 -9 13 -69 -11 -69 -11 -22 -9 -21 -9 5 -19 5 -19
-17 -17 -16 -16 -33 0 -33 0 -24 21 -24 21 0 36 0 37 -60 2 -60 2 -12 -5z"/>
</g>
</svg>
