<?xml version="1.0" standalone="no"?>
<!DOCTYPE svg PUBLIC "-//W3C//DTD SVG 20010904//EN"
 "http://www.w3.org/TR/2001/REC-SVG-20010904/DTD/svg10.dtd">
<svg version="1.0" xmlns="http://www.w3.org/2000/svg"
 width="76.000000pt" height="59.000000pt" viewBox="0 0 76.000000 59.000000"
 preserveAspectRatio="xMidYMid meet">
<metadata>
Created by potrace 1.16, written by Peter Selinger 2001-2019
</metadata>
<g transform="translate(0.000000,59.000000) scale(0.100000,-0.100000)"
fill="#000000" stroke="none">
<path d="M157 584 l-6 -7 6 -42 5 -43 -11 -35 -12 -35 -25 -6 -24 -6 -21 11
-21 11 -24 -6 -24 -6 0 -45 0 -44 35 -7 35 -6 28 4 28 4 15 -15 14 -16 -2 -50
-2 -50 -3 -30 -3 -30 65 -5 65 -5 13 -8 13 -9 -7 -33 -6 -34 15 -15 15 -15 41
-7 41 -7 30 13 30 13 6 23 6 23 -6 19 -7 20 70 7 70 7 19 16 19 17 7 67 8 67
28 -6 29 -5 16 15 15 16 0 10 0 11 10 0 10 0 0 41 0 40 -16 16 -15 16 -37 1
-37 1 -7 10 -8 10 0 63 0 62 -238 0 -239 0 -6 -6z"/>
</g>
</svg>
