<?xml version="1.0" standalone="no"?>
<!DOCTYPE svg PUBLIC "-//W3C//DTD SVG 20010904//EN"
 "http://www.w3.org/TR/2001/REC-SVG-20010904/DTD/svg10.dtd">
<svg version="1.0" xmlns="http://www.w3.org/2000/svg"
 width="74.000000pt" height="57.000000pt" viewBox="0 0 74.000000 57.000000"
 preserveAspectRatio="xMidYMid meet">
<metadata>
Created by potrace 1.16, written by Peter Selinger 2001-2019
</metadata>
<g transform="translate(0.000000,57.000000) scale(0.100000,-0.100000)"
fill="#000000" stroke="none">
<path d="M159 563 l-1 -8 2 -43 2 -42 -12 -35 -11 -34 -34 -7 -33 -6 -20 11
-21 11 -15 -6 -16 -6 0 -34 0 -33 35 -7 35 -6 25 6 26 7 17 -17 17 -18 -1 -60
-2 -61 -3 -20 -4 -20 65 -5 65 -5 14 -9 13 -9 -5 -34 -6 -35 13 -13 12 -13 33
-7 32 -7 29 12 29 12 6 19 6 18 -10 20 -11 20 7 4 8 5 67 7 68 7 18 17 19 16
8 69 7 68 30 -6 30 -6 14 14 14 15 0 10 0 11 10 0 10 0 0 31 0 30 -16 17 -17
16 -36 0 -36 0 -7 10 -8 11 0 63 0 62 -230 0 -230 0 -1 -7z"/>
</g>
</svg>
