<?xml version="1.0" standalone="no"?>
<!DOCTYPE svg PUBLIC "-//W3C//DTD SVG 20010904//EN"
 "http://www.w3.org/TR/2001/REC-SVG-20010904/DTD/svg10.dtd">
<svg version="1.0" xmlns="http://www.w3.org/2000/svg"
 width="63.000000pt" height="44.000000pt" viewBox="0 0 63.000000 44.000000"
 preserveAspectRatio="xMidYMid meet">
<metadata>
Created by potrace 1.16, written by Peter Selinger 2001-2019
</metadata>
<g transform="translate(0.000000,44.000000) scale(0.100000,-0.100000)"
fill="#000000" stroke="none">
<path d="M175 434 l-20 -5 0 -59 -1 -59 -24 -21 -24 -21 -21 6 -20 6 -32 6
-33 6 0 -42 0 -42 17 -17 16 -17 74 -3 73 -4 6 -24 6 -24 -16 -49 -16 -50 0
-12 0 -12 62 7 62 7 19 22 19 22 -5 31 -5 32 30 6 30 6 24 -6 24 -6 0 -38 0
-38 33 -10 32 -10 60 -6 61 -7 12 59 12 58 0 21 0 20 -64 -1 -64 -1 -21 24
-21 24 0 19 0 19 11 22 12 22 10 7 11 7 47 -6 46 -5 7 37 7 37 -6 29 -7 29
-74 0 -74 0 0 -14 0 -14 11 -4 12 -4 -7 -22 -8 -23 -24 -24 -25 -25 -44 0 -43
0 -5 13 -5 12 5 46 5 46 -8 6 -9 5 -55 5 -55 5 -20 -4z"/>
</g>
</svg>
