<?xml version="1.0" standalone="no"?>
<!DOCTYPE svg PUBLIC "-//W3C//DTD SVG 20010904//EN"
 "http://www.w3.org/TR/2001/REC-SVG-20010904/DTD/svg10.dtd">
<svg version="1.0" xmlns="http://www.w3.org/2000/svg"
 width="65.000000pt" height="46.000000pt" viewBox="0 0 65.000000 46.000000"
 preserveAspectRatio="xMidYMid meet">
<metadata>
Created by potrace 1.16, written by Peter Selinger 2001-2019
</metadata>
<g transform="translate(0.000000,46.000000) scale(0.100000,-0.100000)"
fill="#000000" stroke="none">
<path d="M174 454 l-21 -5 1 -59 1 -59 -23 -20 -24 -20 -25 10 -24 9 -30 0
-29 0 0 -51 0 -50 17 -17 16 -17 73 -3 73 -4 6 -18 6 -18 -16 -43 -15 -44 0
-24 0 -24 72 7 71 6 19 22 18 21 0 32 0 33 20 5 20 5 20 -5 20 -5 0 -38 0 -38
33 -11 32 -10 70 -6 71 -7 12 59 12 59 0 32 0 31 -64 -2 -64 -2 -21 24 -21 24
0 8 0 8 12 26 11 25 11 1 11 1 47 -2 47 -1 6 44 7 45 -7 31 -7 31 -84 0 -84 0
0 -25 0 -25 10 0 11 0 -12 -22 -12 -23 -20 -17 -20 -18 -34 0 -33 0 -1 13 -1
12 2 46 1 47 -9 6 -9 5 -64 5 -64 4 -21 -4z"/>
</g>
</svg>
