<?xml version="1.0" standalone="no"?>
<!DOCTYPE svg PUBLIC "-//W3C//DTD SVG 20010904//EN"
 "http://www.w3.org/TR/2001/REC-SVG-20010904/DTD/svg10.dtd">
<svg version="1.0" xmlns="http://www.w3.org/2000/svg"
 width="61.000000pt" height="57.000000pt" viewBox="0 0 61.000000 57.000000"
 preserveAspectRatio="xMidYMid meet">
<metadata>
Created by potrace 1.16, written by Peter Selinger 2001-2019
</metadata>
<g transform="translate(0.000000,57.000000) scale(0.100000,-0.100000)"
fill="#000000" stroke="none">
<path d="M213 563 l-23 -4 0 -20 0 -20 10 -20 11 -19 -16 0 -15 0 0 -11 0 -12
-77 5 -78 5 -12 -4 -13 -5 0 -58 0 -59 12 -26 11 -25 14 0 13 0 0 -11 0 -12
34 6 34 5 6 -15 6 -15 -9 -16 -9 -16 -40 2 -39 3 -17 -16 -16 -16 0 -84 0 -84
38 -7 37 -7 61 -1 60 -1 18 18 18 18 -6 33 -6 34 16 6 17 6 18 -5 18 -6 -6
-29 -5 -29 17 -18 18 -17 98 -4 99 -4 0 25 0 26 14 53 14 53 7 17 7 17 26 3
27 3 0 50 0 50 -40 -3 -40 -2 -15 10 -15 9 0 75 0 75 -65 16 -65 16 -26 10
-27 10 5 18 5 18 -24 6 -23 7 -20 -1 -20 -2 -22 -4z"/>
</g>
</svg>
