<?xml version="1.0" standalone="no"?>
<!DOCTYPE svg PUBLIC "-//W3C//DTD SVG 20010904//EN"
 "http://www.w3.org/TR/2001/REC-SVG-20010904/DTD/svg10.dtd">
<svg version="1.0" xmlns="http://www.w3.org/2000/svg"
 width="59.000000pt" height="55.000000pt" viewBox="0 0 59.000000 55.000000"
 preserveAspectRatio="xMidYMid meet">
<metadata>
Created by potrace 1.16, written by Peter Selinger 2001-2019
</metadata>
<g transform="translate(0.000000,55.000000) scale(0.100000,-0.100000)"
fill="#000000" stroke="none">
<path d="M212 543 l-24 -5 6 -19 6 -19 6 -20 6 -20 -15 0 -15 0 -4 -11 -4 -11
-62 1 -63 1 -9 5 -8 5 -16 -6 -16 -6 0 -49 0 -48 12 -26 11 -25 14 0 13 0 0
-11 0 -11 18 5 17 5 17 7 16 6 7 -30 6 -30 -11 -20 -11 -21 -38 6 -38 6 -16
-17 -17 -16 0 -74 0 -74 37 -7 36 -7 52 -1 52 0 16 16 16 16 -6 35 -5 36 25 6
26 7 21 -7 22 -7 -6 -30 -6 -30 16 -16 17 -16 88 -4 89 -4 0 25 0 26 14 53 14
53 7 17 7 17 26 3 27 3 3 28 3 29 -5 14 -5 14 -26 -10 -25 -10 -25 12 -24 11
-7 43 -6 44 4 34 4 35 -66 16 -65 16 -28 11 -29 11 5 18 5 17 -22 6 -21 6 -10
-1 -10 -2 -23 -4z"/>
</g>
</svg>
