<?xml version="1.0" standalone="no"?>
<!DOCTYPE svg PUBLIC "-//W3C//DTD SVG 20010904//EN"
 "http://www.w3.org/TR/2001/REC-SVG-20010904/DTD/svg10.dtd">
<svg version="1.0" xmlns="http://www.w3.org/2000/svg"
 width="80.000000pt" height="55.000000pt" viewBox="0 0 80.000000 55.000000"
 preserveAspectRatio="xMidYMid meet">
<metadata>
Created by potrace 1.16, written by Peter Selinger 2001-2019
</metadata>
<g transform="translate(0.000000,55.000000) scale(0.100000,-0.100000)"
fill="#000000" stroke="none">
<path d="M341 541 l-13 -9 4 -34 4 -35 -15 -13 -14 -13 -73 1 -74 2 0 -72 0
-73 -9 -13 -8 -14 -46 7 -47 7 -25 -6 -25 -6 0 -43 0 -42 8 -12 8 -13 37 2 37
1 6 -5 5 -6 16 -53 15 -54 -1 -22 -1 -23 260 0 260 0 0 34 0 33 6 47 7 47 41
-6 41 -7 23 20 22 19 6 31 6 31 -18 18 -18 18 -67 0 -67 0 5 76 6 76 -90 5
-90 4 -14 14 -15 14 4 29 5 29 -14 9 -14 9 -30 0 -30 0 -14 -9z"/>
</g>
</svg>
