<?xml version="1.0" standalone="no"?>
<!DOCTYPE svg PUBLIC "-//W3C//DTD SVG 20010904//EN"
 "http://www.w3.org/TR/2001/REC-SVG-20010904/DTD/svg10.dtd">
<svg version="1.0" xmlns="http://www.w3.org/2000/svg"
 width="73.000000pt" height="60.000000pt" viewBox="0 0 73.000000 60.000000"
 preserveAspectRatio="xMidYMid meet">
<metadata>
Created by potrace 1.16, written by Peter Selinger 2001-2019
</metadata>
<g transform="translate(0.000000,60.000000) scale(0.100000,-0.100000)"
fill="#000000" stroke="none">
<path d="M302 593 l-24 -5 6 -32 6 -33 -17 -20 -18 -20 -53 -8 -52 -7 0 11 0
11 -15 0 -14 0 6 -85 6 -85 -47 0 -47 0 -20 -10 -19 -11 0 -33 0 -33 20 -22
19 -23 49 4 49 3 12 -12 11 -12 0 -12 0 -11 -17 -49 -18 -48 13 -13 12 -12 59
-4 60 -4 26 6 25 6 0 56 0 55 14 15 15 14 10 0 10 0 7 -22 8 -23 -3 -57 -2
-57 26 -7 26 -6 52 6 52 7 38 10 37 10 0 22 -1 22 -14 25 -14 25 -1 25 0 25
50 -3 50 -4 0 11 0 11 13 0 14 0 11 25 12 26 0 25 0 25 -11 22 -12 22 -11 7
-11 8 -41 0 -41 0 5 68 4 68 -68 2 -68 2 -33 11 -33 11 0 38 0 38 -22 6 -23 6
-20 -1 -20 -2 -23 -4z"/>
</g>
</svg>
