<?xml version="1.0" standalone="no"?>
<!DOCTYPE svg PUBLIC "-//W3C//DTD SVG 20010904//EN"
 "http://www.w3.org/TR/2001/REC-SVG-20010904/DTD/svg10.dtd">
<svg version="1.0" xmlns="http://www.w3.org/2000/svg"
 width="78.000000pt" height="53.000000pt" viewBox="0 0 78.000000 53.000000"
 preserveAspectRatio="xMidYMid meet">
<metadata>
Created by potrace 1.16, written by Peter Selinger 2001-2019
</metadata>
<g transform="translate(0.000000,53.000000) scale(0.100000,-0.100000)"
fill="#000000" stroke="none">
<path d="M341 521 l-14 -9 6 -32 7 -32 -17 -16 -16 -17 -74 2 -73 3 0 -73 0
-72 -9 -14 -9 -14 -54 7 -54 7 -17 -7 -17 -6 0 -32 0 -31 8 -11 7 -10 37 0 37
0 6 -6 6 -6 16 -53 15 -54 2 -22 1 -23 248 0 247 0 1 43 0 42 8 40 7 40 10 -1
9 -2 31 -6 30 -7 21 18 20 18 7 23 7 22 -17 18 -18 17 -68 0 -68 0 6 76 7 76
-90 5 -90 4 -17 17 -17 16 7 27 7 26 -14 9 -14 9 -20 0 -20 0 -14 -9z"/>
</g>
</svg>
