<?xml version="1.0" standalone="no"?>
<!DOCTYPE svg PUBLIC "-//W3C//DTD SVG 20010904//EN"
 "http://www.w3.org/TR/2001/REC-SVG-20010904/DTD/svg10.dtd">
<svg version="1.0" xmlns="http://www.w3.org/2000/svg"
 width="65.000000pt" height="60.000000pt" viewBox="0 0 65.000000 60.000000"
 preserveAspectRatio="xMidYMid meet">
<metadata>
Created by potrace 1.16, written by Peter Selinger 2001-2019
</metadata>
<g transform="translate(0.000000,60.000000) scale(0.100000,-0.100000)"
fill="#000000" stroke="none">
<path d="M212 585 l-13 -15 -2 -52 -2 -53 -10 -7 -10 -8 -37 0 -37 0 -27 11
-28 10 -23 -6 -23 -5 0 -81 0 -80 15 -16 16 -15 36 7 36 6 8 -13 9 -13 0 -22
0 -23 -12 -1 -13 -1 -23 2 -23 2 -20 -23 -19 -22 0 -73 0 -72 31 -7 31 -7 61
-1 61 0 4 11 4 12 14 0 14 0 0 21 0 20 -10 19 -10 18 27 5 27 5 13 -5 13 -5 0
-18 0 -18 28 -10 27 -11 64 -16 64 -16 24 6 23 5 0 78 0 77 47 0 46 0 5 13 4
12 14 0 14 0 0 31 0 30 -14 15 -14 14 -56 6 -56 7 0 73 0 74 -7 0 -8 0 -75
-16 -74 -15 -24 6 -24 6 7 45 6 45 -11 34 -12 35 -31 0 -32 -1 -13 -14z"/>
</g>
</svg>
