<?xml version="1.0" standalone="no"?>
<!DOCTYPE svg PUBLIC "-//W3C//DTD SVG 20010904//EN"
 "http://www.w3.org/TR/2001/REC-SVG-20010904/DTD/svg10.dtd">
<svg version="1.0" xmlns="http://www.w3.org/2000/svg"
 width="71.000000pt" height="58.000000pt" viewBox="0 0 71.000000 58.000000"
 preserveAspectRatio="xMidYMid meet">
<metadata>
Created by potrace 1.16, written by Peter Selinger 2001-2019
</metadata>
<g transform="translate(0.000000,58.000000) scale(0.100000,-0.100000)"
fill="#000000" stroke="none">
<path d="M303 573 l-22 -4 6 -32 5 -32 -19 -22 -19 -21 -58 -7 -58 -8 -7 12
-7 11 4 -85 5 -85 -47 0 -47 0 -20 -10 -19 -11 0 -23 0 -23 20 -23 20 -23 47
6 46 5 14 -13 13 -14 0 -24 0 -25 -16 -37 -15 -38 10 -10 10 -10 50 -5 50 -4
25 6 25 6 0 55 0 55 15 15 15 15 19 0 20 0 11 -30 10 -30 -6 -50 -6 -49 26 -6
26 -7 68 12 69 11 14 9 14 9 -17 36 -17 36 0 34 0 34 50 -6 50 -6 0 12 0 11
14 0 14 0 12 30 12 30 -6 24 -6 25 -17 16 -17 17 -43 -5 -44 -5 7 72 6 71 -68
3 -69 2 -32 11 -33 11 0 38 0 38 -22 6 -23 6 -10 -1 -10 -2 -22 -4z"/>
</g>
</svg>
