<?xml version="1.0" standalone="no"?>
<!DOCTYPE svg PUBLIC "-//W3C//DTD SVG 20010904//EN"
 "http://www.w3.org/TR/2001/REC-SVG-20010904/DTD/svg10.dtd">
<svg version="1.0" xmlns="http://www.w3.org/2000/svg"
 width="63.000000pt" height="58.000000pt" viewBox="0 0 63.000000 58.000000"
 preserveAspectRatio="xMidYMid meet">
<metadata>
Created by potrace 1.16, written by Peter Selinger 2001-2019
</metadata>
<g transform="translate(0.000000,58.000000) scale(0.100000,-0.100000)"
fill="#000000" stroke="none">
<path d="M212 564 l-13 -14 -1 -53 0 -52 -11 -7 -12 -8 -47 0 -47 0 -25 10
-26 9 -15 -5 -15 -6 0 -70 0 -69 14 -14 14 -14 37 6 37 6 9 -14 9 -14 0 -32 0
-32 -19 -6 -18 -5 -17 6 -17 6 -19 -22 -20 -23 0 -63 0 -62 29 -7 29 -6 53 -1
53 0 4 11 4 11 15 0 15 0 -6 20 -6 20 -6 19 -6 18 32 7 32 6 23 -6 23 -6 -5
-17 -5 -18 29 -11 28 -11 62 -16 61 -15 16 6 16 6 0 78 0 78 47 -1 46 -2 4 13
5 12 14 0 14 0 0 21 0 20 -13 14 -13 13 -41 7 -42 7 -19 -11 -20 -11 6 87 5
86 -17 -6 -16 -6 -65 -12 -65 -11 -26 6 -27 7 6 49 6 50 -10 30 -11 30 -21 0
-22 -1 -13 -15z"/>
</g>
</svg>
