<?xml version="1.0" standalone="no"?>
<!DOCTYPE svg PUBLIC "-//W3C//DTD SVG 20010904//EN"
 "http://www.w3.org/TR/2001/REC-SVG-20010904/DTD/svg10.dtd">
<svg version="1.0" xmlns="http://www.w3.org/2000/svg"
 width="78.000000pt" height="68.000000pt" viewBox="0 0 78.000000 68.000000"
 preserveAspectRatio="xMidYMid meet">
<metadata>
Created by potrace 1.16, written by Peter Selinger 2001-2019
</metadata>
<g transform="translate(0.000000,68.000000) scale(0.100000,-0.100000)"
fill="#000000" stroke="none">
<path d="M348 670 l-17 -11 5 -14 6 -15 -6 -24 -6 -23 -30 -13 -30 -12 -65 4
-65 4 6 -33 6 -33 -7 -46 -7 -47 -54 6 -54 6 -15 -15 -15 -15 0 -24 0 -24 16
-15 15 -16 34 0 34 0 7 -48 7 -47 15 -30 15 -29 13 -14 14 -13 32 6 33 6 45
-9 45 -8 1 -49 1 -50 2 -12 1 -13 45 0 44 0 25 25 24 24 8 23 7 22 -12 4 -11
4 0 14 0 14 76 0 75 0 15 14 14 14 10 69 10 68 0 9 0 8 24 -6 24 -6 14 -5 14
-6 22 19 22 19 0 27 0 27 -13 13 -13 13 -34 11 -35 12 -32 -9 -31 -9 5 74 6
75 -96 -7 -96 -7 -14 14 -14 14 1 50 1 50 -25 2 -25 3 -17 -10z"/>
</g>
</svg>
