<?xml version="1.0" standalone="no"?>
<!DOCTYPE svg PUBLIC "-//W3C//DTD SVG 20010904//EN"
 "http://www.w3.org/TR/2001/REC-SVG-20010904/DTD/svg10.dtd">
<svg version="1.0" xmlns="http://www.w3.org/2000/svg"
 width="80.000000pt" height="70.000000pt" viewBox="0 0 80.000000 70.000000"
 preserveAspectRatio="xMidYMid meet">
<metadata>
Created by potrace 1.16, written by Peter Selinger 2001-2019
</metadata>
<g transform="translate(0.000000,70.000000) scale(0.100000,-0.100000)"
fill="#000000" stroke="none">
<path d="M347 689 l-18 -11 6 -28 6 -28 -16 -16 -16 -16 -26 -6 -25 -7 -60 7
-60 6 6 -45 7 -44 -7 -37 -7 -36 -52 7 -52 6 -17 -16 -16 -16 0 -34 0 -34 16
-15 15 -16 34 0 34 0 7 -47 7 -48 15 -30 15 -29 11 -12 12 -11 70 0 71 0 13
-8 12 -7 -6 -42 -7 -43 7 -16 6 -17 53 0 52 0 20 18 20 17 11 22 12 22 0 20 0
19 -12 5 -13 5 78 1 78 1 15 14 14 14 10 69 10 68 0 7 0 8 26 -10 25 -10 13 0
13 0 21 19 22 18 0 37 0 37 -13 13 -13 13 -37 12 -37 13 -28 -6 -27 -7 3 72 4
71 -96 -7 -95 -7 -13 13 -13 14 0 50 0 50 -35 2 -35 3 -18 -11z"/>
</g>
</svg>
