<?xml version="1.0" standalone="no"?>
<!DOCTYPE svg PUBLIC "-//W3C//DTD SVG 20010904//EN"
 "http://www.w3.org/TR/2001/REC-SVG-20010904/DTD/svg10.dtd">
<svg version="1.0" xmlns="http://www.w3.org/2000/svg"
 width="59.000000pt" height="44.000000pt" viewBox="0 0 59.000000 44.000000"
 preserveAspectRatio="xMidYMid meet">
<metadata>
Created by potrace 1.16, written by Peter Selinger 2001-2019
</metadata>
<g transform="translate(0.000000,44.000000) scale(0.100000,-0.100000)"
fill="#000000" stroke="none">
<path d="M135 429 l7 -11 -7 -54 -7 -55 -25 -25 -26 -26 -39 6 -39 6 3 -37 3
-38 38 0 38 0 9 -14 8 -15 7 -35 6 -36 11 -42 12 -43 58 0 57 0 26 12 25 11 6
22 5 22 -3 19 -3 18 26 10 27 9 17 -7 18 -6 -6 -47 -5 -46 15 -15 14 -15 80 6
81 5 4 5 5 5 -24 49 -24 48 -7 28 -6 27 -24 0 -25 0 -15 16 -16 15 0 19 0 18
6 16 6 16 14 0 14 0 0 11 0 12 38 -6 37 -6 12 7 13 8 5 60 6 59 -8 11 -8 11
-70 -9 -70 -9 -13 -5 -13 -4 11 -20 11 -21 -6 -18 -6 -19 -29 -12 -29 -12 -32
7 -33 7 -13 13 -13 13 7 33 6 32 -18 14 -19 13 -59 0 -58 0 6 -11z"/>
</g>
</svg>
