<?xml version="1.0" standalone="no"?>
<!DOCTYPE svg PUBLIC "-//W3C//DTD SVG 20010904//EN"
 "http://www.w3.org/TR/2001/REC-SVG-20010904/DTD/svg10.dtd">
<svg version="1.0" xmlns="http://www.w3.org/2000/svg"
 width="61.000000pt" height="46.000000pt" viewBox="0 0 61.000000 46.000000"
 preserveAspectRatio="xMidYMid meet">
<metadata>
Created by potrace 1.16, written by Peter Selinger 2001-2019
</metadata>
<g transform="translate(0.000000,46.000000) scale(0.100000,-0.100000)"
fill="#000000" stroke="none">
<path d="M135 432 l6 -29 -10 -42 -9 -42 -22 -19 -23 -20 -39 6 -39 7 3 -49 3
-49 38 -1 39 -1 8 -13 8 -14 7 -35 6 -36 11 -42 12 -43 69 0 68 0 22 11 22 12
7 11 8 11 0 32 0 32 20 6 20 6 11 -7 11 -6 -7 -44 -6 -44 15 -15 15 -15 58 0
58 0 38 6 37 7 0 14 0 14 -24 47 -23 47 -7 28 -6 27 -24 0 -25 0 -15 16 -16
15 0 9 0 8 6 16 6 16 14 0 14 0 0 10 0 10 38 -5 37 -6 13 9 13 9 5 69 5 69 -9
13 -8 12 -85 -11 -84 -12 -9 -8 -9 -8 10 -24 11 -24 -6 -10 -7 -10 -22 -12
-23 -11 -27 6 -27 7 -11 10 -11 10 4 35 5 35 -19 14 -18 13 -69 0 -69 0 7 -28z"/>
</g>
</svg>
