<?xml version="1.0" standalone="no"?>
<!DOCTYPE svg PUBLIC "-//W3C//DTD SVG 20010904//EN"
 "http://www.w3.org/TR/2001/REC-SVG-20010904/DTD/svg10.dtd">
<svg version="1.0" xmlns="http://www.w3.org/2000/svg"
 width="61.000000pt" height="46.000000pt" viewBox="0 0 61.000000 46.000000"
 preserveAspectRatio="xMidYMid meet">
<metadata>
Created by potrace 1.16, written by Peter Selinger 2001-2019
</metadata>
<g transform="translate(0.000000,46.000000) scale(0.100000,-0.100000)"
fill="#000000" stroke="none">
<path d="M17 453 l-7 -6 0 -66 0 -66 8 -12 8 -13 36 2 36 1 16 -16 16 -16 0
-20 0 -21 -10 0 -10 0 0 -10 0 -11 -12 -12 -11 -13 -32 4 -32 4 -7 -59 -7 -58
-6 -33 -5 -32 79 0 80 0 32 11 31 11 6 24 6 24 -6 15 -5 15 24 0 24 0 6 -20 6
-19 36 -10 36 -10 53 -12 53 -12 16 16 16 16 -7 49 -6 49 46 5 47 6 19 22 20
23 0 38 0 38 -17 16 -16 17 -39 -4 -38 -4 0 78 0 78 -238 0 -239 0 -6 -7z"/>
</g>
</svg>
