<?xml version="1.0" standalone="no"?>
<!DOCTYPE svg PUBLIC "-//W3C//DTD SVG 20010904//EN"
 "http://www.w3.org/TR/2001/REC-SVG-20010904/DTD/svg10.dtd">
<svg version="1.0" xmlns="http://www.w3.org/2000/svg"
 width="59.000000pt" height="44.000000pt" viewBox="0 0 59.000000 44.000000"
 preserveAspectRatio="xMidYMid meet">
<metadata>
Created by potrace 1.16, written by Peter Selinger 2001-2019
</metadata>
<g transform="translate(0.000000,44.000000) scale(0.100000,-0.100000)"
fill="#000000" stroke="none">
<path d="M17 433 l-7 -6 0 -56 0 -56 8 -11 7 -10 36 0 36 0 17 -16 16 -17 0
-30 0 -31 -10 0 -10 0 0 -11 0 -10 -14 -15 -14 -14 -30 6 -30 6 -7 -63 -6 -64
-5 -17 -5 -18 70 0 70 0 28 11 28 10 7 12 8 12 -6 28 -6 27 36 0 35 0 6 -20 6
-20 42 -10 42 -11 38 -10 37 -10 14 13 14 13 -5 55 -5 55 45 0 45 0 21 24 21
24 0 28 0 28 -17 16 -16 17 -39 -6 -38 -6 0 80 0 80 -228 0 -229 0 -6 -7z"/>
</g>
</svg>
