<?xml version="1.0" standalone="no"?>
<!DOCTYPE svg PUBLIC "-//W3C//DTD SVG 20010904//EN"
 "http://www.w3.org/TR/2001/REC-SVG-20010904/DTD/svg10.dtd">
<svg version="1.0" xmlns="http://www.w3.org/2000/svg"
 width="61.000000pt" height="46.000000pt" viewBox="0 0 61.000000 46.000000"
 preserveAspectRatio="xMidYMid meet">
<metadata>
Created by potrace 1.16, written by Peter Selinger 2001-2019
</metadata>
<g transform="translate(0.000000,46.000000) scale(0.100000,-0.100000)"
fill="#000000" stroke="none">
<path d="M44 453 l-31 -4 -6 -81 -7 -82 4 -4 4 -3 34 9 33 9 30 -10 30 -10 12
-13 13 -13 0 -16 0 -16 -15 -15 -15 -15 -44 6 -43 7 -6 -34 -6 -33 -7 -67 -7
-68 86 0 87 0 5 25 5 25 5 23 4 22 14 19 14 19 17 -6 18 -7 -7 -48 -6 -48 34
-12 33 -12 77 0 77 0 0 26 0 25 -12 22 -11 22 -7 31 -7 32 7 13 8 12 68 -2 67
-2 8 13 9 13 0 42 0 43 -24 6 -25 6 -20 -7 -21 -6 -16 16 -16 16 -6 64 -5 65
-61 0 -61 0 -23 -6 -23 -7 1 -26 2 -26 -1 -12 -1 -13 -15 0 -15 0 0 -9 0 -10
-20 -6 -20 -6 -15 14 -14 15 5 33 5 34 -8 11 -8 11 -65 5 -65 5 -31 -4z"/>
</g>
</svg>
