<?xml version="1.0" standalone="no"?>
<!DOCTYPE svg PUBLIC "-//W3C//DTD SVG 20010904//EN"
 "http://www.w3.org/TR/2001/REC-SVG-20010904/DTD/svg10.dtd">
<svg version="1.0" xmlns="http://www.w3.org/2000/svg"
 width="59.000000pt" height="44.000000pt" viewBox="0 0 59.000000 44.000000"
 preserveAspectRatio="xMidYMid meet">
<metadata>
Created by potrace 1.16, written by Peter Selinger 2001-2019
</metadata>
<g transform="translate(0.000000,44.000000) scale(0.100000,-0.100000)"
fill="#000000" stroke="none">
<path d="M43 433 l-33 -4 0 -43 0 -44 -6 -30 -6 -31 33 9 34 10 35 -12 34 -11
13 -13 13 -13 0 -27 0 -27 -22 -19 -22 -19 -14 6 -14 5 -23 6 -22 6 -6 -34 -6
-33 -7 -58 -6 -57 76 0 77 0 -6 10 -6 10 10 0 11 0 0 25 0 26 15 29 16 30 25
0 24 0 10 -26 10 -25 -10 -19 -10 -19 0 -8 0 -9 33 -12 33 -12 67 0 67 0 0 15
0 16 -14 27 -13 27 -7 37 -7 36 16 15 15 15 61 -5 61 -6 9 14 9 14 0 31 0 32
-15 6 -15 5 -30 -5 -29 -6 -17 16 -16 17 -6 64 -5 65 -51 0 -51 0 -23 -6 -23
-7 5 -23 6 -22 -6 -16 -6 -16 -10 0 -9 0 -15 -15 -15 -15 -20 0 -20 0 -16 15
-15 16 6 32 6 32 -8 10 -7 10 -25 3 -25 2 -30 4 -30 3 -32 -4z"/>
</g>
</svg>
