<?xml version="1.0" standalone="no"?>
<!DOCTYPE svg PUBLIC "-//W3C//DTD SVG 20010904//EN"
 "http://www.w3.org/TR/2001/REC-SVG-20010904/DTD/svg10.dtd">
<svg version="1.0" xmlns="http://www.w3.org/2000/svg"
 width="48.000000pt" height="54.000000pt" viewBox="0 0 48.000000 54.000000"
 preserveAspectRatio="xMidYMid meet">
<metadata>
Created by potrace 1.16, written by Peter Selinger 2001-2019
</metadata>
<g transform="translate(0.000000,54.000000) scale(0.100000,-0.100000)"
fill="#000000" stroke="none">
<path d="M205 533 l-20 -5 -12 -15 -11 -15 5 -35 6 -35 -14 -9 -14 -9 -67 7
-68 6 0 -35 0 -35 -6 -44 -6 -44 69 0 69 0 18 -17 17 -18 -7 -22 -7 -23 -20
-18 -21 -18 -30 7 -31 6 -9 2 -10 1 -7 -40 -8 -40 0 -42 -1 -43 219 0 220 0 6
10 6 9 -15 55 -14 55 -16 16 -15 16 -25 -7 -25 -6 -6 25 -7 25 4 23 3 24 47
-3 48 -4 15 15 15 16 0 75 0 76 -82 0 -83 1 -18 13 -18 14 6 25 7 25 -21 21
-21 21 -12 -1 -13 -1 -20 -5z"/>
</g>
</svg>
