<?xml version="1.0" standalone="no"?>
<!DOCTYPE svg PUBLIC "-//W3C//DTD SVG 20010904//EN"
 "http://www.w3.org/TR/2001/REC-SVG-20010904/DTD/svg10.dtd">
<svg version="1.0" xmlns="http://www.w3.org/2000/svg"
 width="50.000000pt" height="56.000000pt" viewBox="0 0 50.000000 56.000000"
 preserveAspectRatio="xMidYMid meet">
<metadata>
Created by potrace 1.16, written by Peter Selinger 2001-2019
</metadata>
<g transform="translate(0.000000,56.000000) scale(0.100000,-0.100000)"
fill="#000000" stroke="none">
<path d="M202 553 l-22 -4 -11 -20 -10 -20 6 -31 7 -30 -12 -8 -12 -7 -69 5
-69 5 0 -30 0 -30 -6 -60 -7 -61 70 2 69 1 15 -15 16 -15 -5 -15 -5 -15 -19
-17 -19 -16 -36 10 -35 10 -10 -10 -9 -9 -6 -86 -6 -87 231 0 231 0 7 11 6 11
-12 59 -13 59 -18 21 -18 21 -26 -4 -25 -5 -6 23 -6 23 4 13 4 12 47 -3 47 -3
15 16 15 15 0 85 0 86 -80 0 -80 0 -18 11 -18 11 4 28 4 28 -21 21 -21 21 -22
-1 -23 -2 -23 -4z"/>
</g>
</svg>
