<?xml version="1.0" standalone="no"?>
<!DOCTYPE svg PUBLIC "-//W3C//DTD SVG 20010904//EN"
 "http://www.w3.org/TR/2001/REC-SVG-20010904/DTD/svg10.dtd">
<svg version="1.0" xmlns="http://www.w3.org/2000/svg"
 width="66.000000pt" height="72.000000pt" viewBox="0 0 66.000000 72.000000"
 preserveAspectRatio="xMidYMid meet">
<metadata>
Created by potrace 1.16, written by Peter Selinger 2001-2019
</metadata>
<g transform="translate(0.000000,72.000000) scale(0.100000,-0.100000)"
fill="#000000" stroke="none">
<path d="M345 690 l-15 -29 0 -20 0 -19 -6 -16 -6 -16 -64 0 -64 0 0 10 0 10
-20 0 -20 0 -6 -25 -6 -25 6 -16 6 -17 -6 -34 -7 -35 -46 6 -46 6 -11 -7 -11
-8 -12 -22 -11 -22 0 -29 0 -29 21 -24 21 -24 64 0 64 0 0 -12 0 -11 -12 -50
-11 -50 16 -16 16 -16 73 0 74 0 -1 -58 0 -58 18 -18 18 -18 31 6 31 6 19 22
19 23 -3 62 -3 63 17 0 17 0 51 -11 51 -11 26 7 26 6 -6 78 -6 77 -7 17 -6 17
-53 0 -54 0 -6 20 -6 20 5 9 6 9 58 -5 58 -5 11 25 11 24 7 44 6 44 -10 26
-10 27 -66 -6 -66 -5 -38 13 -38 12 9 27 10 26 -11 28 -11 27 -34 0 -35 0 -16
-30z"/>
</g>
</svg>
