<?xml version="1.0" standalone="no"?>
<!DOCTYPE svg PUBLIC "-//W3C//DTD SVG 20010904//EN"
 "http://www.w3.org/TR/2001/REC-SVG-20010904/DTD/svg10.dtd">
<svg version="1.0" xmlns="http://www.w3.org/2000/svg"
 width="64.000000pt" height="70.000000pt" viewBox="0 0 64.000000 70.000000"
 preserveAspectRatio="xMidYMid meet">
<metadata>
Created by potrace 1.16, written by Peter Selinger 2001-2019
</metadata>
<g transform="translate(0.000000,70.000000) scale(0.100000,-0.100000)"
fill="#000000" stroke="none">
<path d="M345 670 l-15 -29 0 -20 0 -19 -6 -16 -6 -16 -73 0 -73 0 -5 13 -5
12 -11 -15 -11 -15 6 -27 5 -26 -7 -37 -7 -37 -46 5 -47 6 -11 -7 -10 -7 -12
-22 -11 -22 0 -19 0 -19 21 -24 21 -24 64 1 64 1 0 -26 0 -26 -11 -38 -10 -37
15 -15 15 -15 79 0 80 0 -10 -36 -10 -36 7 -25 6 -25 14 -15 15 -14 22 7 23 7
19 21 18 21 -5 63 -5 62 29 0 28 0 53 -11 52 -12 4 12 4 11 10 -7 11 -6 -6 71
-7 70 -6 16 -6 16 -54 0 -54 0 -6 25 -6 25 6 15 6 16 58 -7 59 -6 11 28 11 29
6 31 6 30 -9 24 -9 23 -71 -2 -72 -2 -35 12 -35 13 0 9 0 8 10 19 10 19 -10
25 -10 26 -24 0 -25 0 -16 -30z"/>
</g>
</svg>
