<?xml version="1.0" standalone="no"?>
<!DOCTYPE svg PUBLIC "-//W3C//DTD SVG 20010904//EN"
 "http://www.w3.org/TR/2001/REC-SVG-20010904/DTD/svg10.dtd">
<svg version="1.0" xmlns="http://www.w3.org/2000/svg"
 width="60.000000pt" height="58.000000pt" viewBox="0 0 60.000000 58.000000"
 preserveAspectRatio="xMidYMid meet">
<metadata>
Created by potrace 1.16, written by Peter Selinger 2001-2019
</metadata>
<g transform="translate(0.000000,58.000000) scale(0.100000,-0.100000)"
fill="#000000" stroke="none">
<path d="M205 563 l-17 -17 5 -45 5 -44 -15 -15 -14 -15 -85 7 -84 7 0 -44 0
-45 6 -30 6 -30 24 -11 24 -11 25 10 26 10 5 -14 5 -14 -3 -29 -3 -28 -27 -3
-26 -3 -7 -17 -7 -17 -14 -53 -14 -53 0 -23 0 -23 65 -6 65 -6 16 6 16 6 -5
38 -5 38 12 15 11 14 32 7 32 6 21 -21 22 -22 -7 -25 -6 -25 18 -14 18 -13 78
-1 77 0 2 13 2 12 0 70 1 70 38 -3 37 -4 0 11 0 11 14 0 14 0 6 16 6 16 0 31
0 32 -9 13 -8 14 -44 -4 -44 -3 -3 67 -3 66 -77 7 -77 6 -28 11 -27 11 6 32 6
33 -11 21 -12 21 -24 0 -24 0 -16 -17z"/>
</g>
</svg>
