<?xml version="1.0" standalone="no"?>
<!DOCTYPE svg PUBLIC "-//W3C//DTD SVG 20010904//EN"
 "http://www.w3.org/TR/2001/REC-SVG-20010904/DTD/svg10.dtd">
<svg version="1.0" xmlns="http://www.w3.org/2000/svg"
 width="62.000000pt" height="60.000000pt" viewBox="0 0 62.000000 60.000000"
 preserveAspectRatio="xMidYMid meet">
<metadata>
Created by potrace 1.16, written by Peter Selinger 2001-2019
</metadata>
<g transform="translate(0.000000,60.000000) scale(0.100000,-0.100000)"
fill="#000000" stroke="none">
<path d="M205 583 l-17 -16 4 -47 3 -47 -13 -13 -13 -12 -84 7 -85 7 0 -55 0
-55 6 -30 6 -30 28 -12 27 -11 27 7 28 7 -4 -29 -3 -29 -27 -3 -26 -3 -7 -17
-7 -17 -14 -53 -14 -53 0 -33 0 -33 73 -7 74 -7 16 7 16 6 3 51 3 51 28 7 28
8 19 -19 18 -18 -5 -26 -6 -27 19 -14 19 -14 86 -1 87 0 6 17 7 18 -7 62 -6
63 41 0 41 0 0 10 0 10 14 0 14 0 6 16 6 16 0 41 0 42 -9 13 -8 14 -44 -3 -44
-4 -3 67 -3 66 -77 7 -77 6 -25 10 -26 10 4 33 4 34 -11 21 -12 21 -34 0 -34
0 -16 -17z"/>
</g>
</svg>
