<?xml version="1.0" standalone="no"?>
<!DOCTYPE svg PUBLIC "-//W3C//DTD SVG 20010904//EN"
 "http://www.w3.org/TR/2001/REC-SVG-20010904/DTD/svg10.dtd">
<svg version="1.0" xmlns="http://www.w3.org/2000/svg"
 width="65.000000pt" height="60.000000pt" viewBox="0 0 65.000000 60.000000"
 preserveAspectRatio="xMidYMid meet">
<metadata>
Created by potrace 1.16, written by Peter Selinger 2001-2019
</metadata>
<g transform="translate(0.000000,60.000000) scale(0.100000,-0.100000)"
fill="#000000" stroke="none">
<path d="M209 579 l-21 -21 4 -49 3 -50 -24 -6 -23 -6 -69 6 -69 6 0 -48 0
-48 -7 -48 -6 -48 24 8 24 8 38 -1 38 -2 15 -14 14 -15 0 -10 0 -11 -14 0 -14
0 -4 -12 -4 -11 -46 1 -46 2 -4 -97 -5 -98 3 -3 2 -4 81 -5 80 -6 16 17 16 16
-6 43 -7 44 17 16 16 17 14 0 14 0 10 -19 10 -18 -5 -35 -6 -35 28 -11 29 -11
83 -6 83 -7 18 21 18 21 18 55 17 55 32 0 33 0 11 25 12 26 0 35 0 35 -25 24
-24 25 -20 0 -20 0 -24 -9 -25 -10 -6 15 -6 16 0 54 0 54 -19 0 -18 0 -43 -15
-43 -15 -23 0 -24 0 -1 13 -1 12 2 42 1 41 -15 30 -15 30 -16 6 -17 6 -19 0
-19 0 -21 -21z"/>
</g>
</svg>
