<?xml version="1.0" standalone="no"?>
<!DOCTYPE svg PUBLIC "-//W3C//DTD SVG 20010904//EN"
 "http://www.w3.org/TR/2001/REC-SVG-20010904/DTD/svg10.dtd">
<svg version="1.0" xmlns="http://www.w3.org/2000/svg"
 width="63.000000pt" height="58.000000pt" viewBox="0 0 63.000000 58.000000"
 preserveAspectRatio="xMidYMid meet">
<metadata>
Created by potrace 1.16, written by Peter Selinger 2001-2019
</metadata>
<g transform="translate(0.000000,58.000000) scale(0.100000,-0.100000)"
fill="#000000" stroke="none">
<path d="M209 559 l-21 -21 5 -49 6 -49 -25 -6 -24 -6 -70 4 -70 4 0 -52 0
-52 -6 -32 -7 -32 22 12 22 12 42 -7 41 -7 13 -13 13 -14 0 -20 0 -21 -14 0
-14 0 -5 -12 -4 -13 -46 2 -46 1 -3 -86 -3 -87 1 -3 2 -3 70 -6 71 -6 14 15
15 15 -5 44 -5 45 17 17 16 17 24 0 24 0 12 -21 11 -21 -6 -33 -6 -32 27 -11
28 -11 73 -6 73 -6 18 20 18 21 18 55 17 55 32 0 33 0 11 25 12 26 0 25 0 25
-26 26 -26 26 -40 -12 -41 -13 -8 14 -9 13 0 58 0 57 -9 0 -8 0 -43 -15 -43
-15 -32 0 -33 0 -5 14 -6 15 6 35 6 36 -13 30 -13 31 -18 9 -18 10 -10 0 -11
0 -21 -21z"/>
</g>
</svg>
