<?xml version="1.0" standalone="no"?>
<!DOCTYPE svg PUBLIC "-//W3C//DTD SVG 20010904//EN"
 "http://www.w3.org/TR/2001/REC-SVG-20010904/DTD/svg10.dtd">
<svg version="1.0" xmlns="http://www.w3.org/2000/svg"
 width="77.000000pt" height="65.000000pt" viewBox="0 0 77.000000 65.000000"
 preserveAspectRatio="xMidYMid meet">
<metadata>
Created by potrace 1.16, written by Peter Selinger 2001-2019
</metadata>
<g transform="translate(0.000000,65.000000) scale(0.100000,-0.100000)"
fill="#000000" stroke="none">
<path d="M355 621 l6 -29 -16 -15 -16 -16 -33 -7 -34 -6 -59 4 -58 3 0 -73 -1
-73 -14 -9 -15 -9 -37 6 -38 6 0 -12 0 -11 -14 0 -14 0 -6 -16 -6 -16 0 -18 0
-19 16 -15 15 -16 25 0 24 0 6 -27 7 -28 20 -39 19 -40 12 -12 12 -11 88 -1
89 -1 8 -13 9 -13 -6 -32 -6 -32 15 -16 16 -15 20 0 20 0 15 15 15 15 9 0 10
0 6 16 6 16 -6 22 -5 23 23 7 23 6 50 0 50 0 14 9 13 9 -10 57 -9 58 4 18 5
19 24 -6 23 -6 36 12 35 12 15 15 15 14 0 20 0 20 -17 17 -17 17 -50 0 -51 0
-5 75 -5 75 -8 13 -8 12 -9 -5 -9 -6 -77 20 -76 19 -15 21 -14 21 -30 0 -31 0
7 -29z"/>
</g>
</svg>
