<?xml version="1.0" standalone="no"?>
<!DOCTYPE svg PUBLIC "-//W3C//DTD SVG 20010904//EN"
 "http://www.w3.org/TR/2001/REC-SVG-20010904/DTD/svg10.dtd">
<svg version="1.0" xmlns="http://www.w3.org/2000/svg"
 width="79.000000pt" height="67.000000pt" viewBox="0 0 79.000000 67.000000"
 preserveAspectRatio="xMidYMid meet">
<metadata>
Created by potrace 1.16, written by Peter Selinger 2001-2019
</metadata>
<g transform="translate(0.000000,67.000000) scale(0.100000,-0.100000)"
fill="#000000" stroke="none">
<path d="M350 643 l2 -28 -1 -12 -1 -11 -36 -12 -37 -12 -67 4 -67 5 1 -73 1
-73 -8 -7 -7 -8 -45 3 -45 2 0 -11 0 -10 -14 0 -14 0 -6 -16 -6 -16 0 -28 0
-29 16 -15 15 -16 25 0 24 0 6 -27 7 -28 20 -39 19 -40 13 -12 13 -13 87 0 87
0 6 -6 6 -6 -2 -40 -3 -40 15 -14 15 -15 30 0 30 0 15 15 15 15 10 0 11 0 6
25 6 25 -5 14 -6 14 22 6 22 6 50 0 50 0 13 9 13 8 -7 72 -7 71 32 0 32 0 36
15 37 16 8 12 8 12 0 28 0 28 -17 17 -16 17 -51 1 -51 2 -5 74 -5 73 -8 12 -7
12 -28 -1 -27 0 -59 15 -58 16 -15 20 -14 21 -40 0 -41 0 2 -27z"/>
</g>
</svg>
