<?xml version="1.0" standalone="no"?>
<!DOCTYPE svg PUBLIC "-//W3C//DTD SVG 20010904//EN"
 "http://www.w3.org/TR/2001/REC-SVG-20010904/DTD/svg10.dtd">
<svg version="1.0" xmlns="http://www.w3.org/2000/svg"
 width="64.000000pt" height="50.000000pt" viewBox="0 0 64.000000 50.000000"
 preserveAspectRatio="xMidYMid meet">
<metadata>
Created by potrace 1.16, written by Peter Selinger 2001-2019
</metadata>
<g transform="translate(0.000000,50.000000) scale(0.100000,-0.100000)"
fill="#000000" stroke="none">
<path d="M307 439 l5 -64 -18 -21 -19 -21 -23 -7 -22 -7 -15 14 -14 15 -6 25
-7 25 10 36 10 36 -84 0 -84 0 0 10 0 10 -7 0 -8 0 -2 -79 -2 -78 43 4 42 5
17 -17 17 -16 6 -25 6 -24 -12 -30 -12 -30 -14 0 -14 0 0 -11 0 -12 -50 6 -50
6 0 -34 0 -34 18 -38 17 -38 10 -7 10 -8 67 0 66 0 16 6 16 6 -6 34 -6 34 6
25 6 24 20 11 21 11 19 -6 20 -6 16 -31 16 -31 -5 -40 -5 -39 5 -14 5 -14 32
0 32 0 47 16 47 16 1 11 2 12 2 20 2 20 1 43 2 42 15 0 15 0 0 11 0 12 36 -6
37 -6 18 10 19 10 0 42 0 42 -10 15 -9 14 -34 -12 -35 -13 -25 12 -25 11 -11
25 -11 24 0 57 0 57 -27 1 -28 1 -61 8 -62 8 5 -64z"/>
</g>
</svg>
