<?xml version="1.0" standalone="no"?>
<!DOCTYPE svg PUBLIC "-//W3C//DTD SVG 20010904//EN"
 "http://www.w3.org/TR/2001/REC-SVG-20010904/DTD/svg10.dtd">
<svg version="1.0" xmlns="http://www.w3.org/2000/svg"
 width="66.000000pt" height="52.000000pt" viewBox="0 0 66.000000 52.000000"
 preserveAspectRatio="xMidYMid meet">
<metadata>
Created by potrace 1.16, written by Peter Selinger 2001-2019
</metadata>
<g transform="translate(0.000000,52.000000) scale(0.100000,-0.100000)"
fill="#000000" stroke="none">
<path d="M306 459 l6 -64 -18 -21 -19 -21 -15 -5 -15 -5 -14 14 -14 15 -1 26
0 27 8 33 8 32 -86 0 -86 0 0 10 0 10 -17 0 -18 0 -2 -91 -2 -90 42 6 42 6 11
-8 11 -8 12 -23 13 -24 -12 -29 -12 -29 -14 0 -14 0 0 -11 0 -11 -50 7 -50 7
0 -46 0 -45 17 -38 18 -38 10 -7 10 -8 80 0 80 0 13 9 14 8 -7 46 -7 45 21 21
21 21 15 -6 16 -6 15 -30 16 -30 -7 -35 -6 -34 6 -19 6 -20 43 0 42 0 47 16
47 16 6 22 5 22 -2 10 -1 9 1 43 1 42 15 0 15 0 0 10 0 11 34 -6 34 -7 21 11
21 12 0 49 0 48 -6 16 -6 16 -27 0 -26 0 -14 -9 -14 -9 -22 10 -23 10 -11 25
-11 24 0 59 0 59 -27 0 -28 -1 -73 7 -73 8 7 -64z"/>
</g>
</svg>
