<?xml version="1.0" standalone="no"?>
<!DOCTYPE svg PUBLIC "-//W3C//DTD SVG 20010904//EN"
 "http://www.w3.org/TR/2001/REC-SVG-20010904/DTD/svg10.dtd">
<svg version="1.0" xmlns="http://www.w3.org/2000/svg"
 width="49.000000pt" height="57.000000pt" viewBox="0 0 49.000000 57.000000"
 preserveAspectRatio="xMidYMid meet">
<metadata>
Created by potrace 1.16, written by Peter Selinger 2001-2019
</metadata>
<g transform="translate(0.000000,57.000000) scale(0.100000,-0.100000)"
fill="#000000" stroke="none">
<path d="M27 563 l-7 -6 0 -74 0 -73 38 6 39 6 16 -17 17 -16 0 -28 0 -28 -21
-24 -21 -24 -44 0 -45 0 5 -75 5 -75 0 -4 1 -4 47 6 47 5 32 -5 32 -5 -10 -36
-10 -36 11 -4 11 -4 0 -10 0 -9 14 -15 15 -14 40 0 40 0 27 26 26 27 -6 26 -6
26 -6 24 -7 24 78 -6 78 -6 14 14 14 14 -7 49 -6 49 -9 14 -8 14 -38 0 -38 0
-3 53 -3 52 35 0 36 0 0 10 0 10 14 0 14 0 6 16 6 16 0 59 0 59 -228 0 -229 0
-6 -7z"/>
</g>
</svg>
