<?xml version="1.0" standalone="no"?>
<!DOCTYPE svg PUBLIC "-//W3C//DTD SVG 20010904//EN"
 "http://www.w3.org/TR/2001/REC-SVG-20010904/DTD/svg10.dtd">
<svg version="1.0" xmlns="http://www.w3.org/2000/svg"
 width="51.000000pt" height="59.000000pt" viewBox="0 0 51.000000 59.000000"
 preserveAspectRatio="xMidYMid meet">
<metadata>
Created by potrace 1.16, written by Peter Selinger 2001-2019
</metadata>
<g transform="translate(0.000000,59.000000) scale(0.100000,-0.100000)"
fill="#000000" stroke="none">
<path d="M27 583 l-7 -6 0 -85 0 -85 39 7 40 6 15 -16 16 -15 0 -18 0 -18 -21
-24 -21 -24 -44 2 -45 1 1 -71 2 -72 5 -18 5 -19 51 2 52 2 23 -1 22 -1 -6
-40 -7 -40 12 0 11 0 0 -11 0 -10 14 -15 15 -14 50 0 50 0 26 25 25 26 0 24 0
24 -10 27 -11 27 76 -7 76 -7 15 16 16 15 -7 61 -7 60 -15 15 -16 15 -31 -3
-31 -3 -3 43 -3 42 35 0 36 0 0 10 0 10 14 0 14 0 6 16 6 16 0 69 0 69 -238 0
-239 0 -6 -7z"/>
</g>
</svg>
