<?xml version="1.0" standalone="no"?>
<!DOCTYPE svg PUBLIC "-//W3C//DTD SVG 20010904//EN"
 "http://www.w3.org/TR/2001/REC-SVG-20010904/DTD/svg10.dtd">
<svg version="1.0" xmlns="http://www.w3.org/2000/svg"
 width="49.000000pt" height="54.000000pt" viewBox="0 0 49.000000 54.000000"
 preserveAspectRatio="xMidYMid meet">
<metadata>
Created by potrace 1.16, written by Peter Selinger 2001-2019
</metadata>
<g transform="translate(0.000000,54.000000) scale(0.100000,-0.100000)"
fill="#000000" stroke="none">
<path d="M36 488 l-6 -53 0 -20 0 -20 66 3 65 4 20 -23 19 -22 0 -19 0 -19
-14 -15 -15 -14 -9 0 -10 0 -4 -11 -3 -10 -41 -9 -41 -9 -32 9 -31 9 0 -35 0
-35 16 -30 15 -31 -5 -14 -5 -14 85 0 85 0 -11 -19 -10 -20 0 -10 0 -10 27
-27 26 -26 54 4 55 5 9 14 10 14 -6 38 -5 37 75 0 75 0 0 80 0 80 -40 -6 -40
-7 -20 23 -20 23 0 30 0 30 22 18 21 19 19 0 19 0 20 -10 19 -11 0 80 0 80
-32 -10 -33 -9 -35 0 -35 0 -12 -8 -12 -8 9 -14 10 -15 0 -12 0 -13 -11 0 -10
0 -15 -15 -15 -15 -30 0 -30 0 -16 16 -16 15 7 45 6 44 -89 0 -88 0 -7 -52z"/>
</g>
</svg>
