<?xml version="1.0" standalone="no"?>
<!DOCTYPE svg PUBLIC "-//W3C//DTD SVG 20010904//EN"
 "http://www.w3.org/TR/2001/REC-SVG-20010904/DTD/svg10.dtd">
<svg version="1.0" xmlns="http://www.w3.org/2000/svg"
 width="51.000000pt" height="56.000000pt" viewBox="0 0 51.000000 56.000000"
 preserveAspectRatio="xMidYMid meet">
<metadata>
Created by potrace 1.16, written by Peter Selinger 2001-2019
</metadata>
<g transform="translate(0.000000,56.000000) scale(0.100000,-0.100000)"
fill="#000000" stroke="none">
<path d="M20 545 l0 -15 9 0 10 0 -6 -69 -6 -69 67 5 66 6 20 -23 20 -23 0 -9
0 -9 -14 -15 -15 -14 -6 0 -6 0 -15 -15 -15 -15 -27 -1 -27 -1 -5 0 -5 0 -33
7 -32 7 0 -49 1 -48 13 -24 13 -24 -5 -19 -4 -18 79 0 80 0 -5 -29 -4 -28 28
-28 27 -27 64 4 64 4 10 15 10 14 -3 38 -4 37 73 0 73 0 0 91 0 92 -41 -7 -41
-7 -19 22 -19 22 0 20 0 20 22 19 22 19 18 -5 18 -6 20 -6 20 -6 0 92 0 92
-27 -7 -28 -7 -57 -7 -58 -7 -6 -7 -7 -7 11 -25 12 -25 -11 0 -10 0 -15 -15
-15 -15 -20 0 -20 0 -15 15 -15 15 7 45 6 45 -111 0 -111 0 0 -15z"/>
</g>
</svg>
