<?xml version="1.0" standalone="no"?>
<!DOCTYPE svg PUBLIC "-//W3C//DTD SVG 20010904//EN"
 "http://www.w3.org/TR/2001/REC-SVG-20010904/DTD/svg10.dtd">
<svg version="1.0" xmlns="http://www.w3.org/2000/svg"
 width="63.000000pt" height="46.000000pt" viewBox="0 0 63.000000 46.000000"
 preserveAspectRatio="xMidYMid meet">
<metadata>
Created by potrace 1.16, written by Peter Selinger 2001-2019
</metadata>
<g transform="translate(0.000000,46.000000) scale(0.100000,-0.100000)"
fill="#000000" stroke="none">
<path d="M163 452 l-11 -7 0 -47 1 -46 -13 -31 -12 -31 -62 3 -61 2 -3 -24 -4
-23 6 -24 6 -24 55 0 55 0 7 -27 7 -28 0 -65 0 -65 11 -7 10 -8 77 0 77 0 26
12 25 11 6 23 6 22 -10 36 -10 36 28 0 29 0 11 -21 12 -20 -7 -41 -7 -40 13
-9 14 -9 94 0 94 0 -7 31 -6 31 0 60 0 60 -32 -3 -33 -3 -21 7 -21 7 -12 26
-12 26 6 19 7 20 34 -7 34 -6 25 6 25 6 0 85 0 85 -42 0 -43 0 -38 -6 -37 -7
2 -32 2 -33 -15 -14 -14 -14 -19 -11 -20 -11 -23 11 -23 10 -1 11 -1 11 -1 40
-2 40 -30 6 -30 7 -55 1 -55 1 -12 -8z"/>
</g>
</svg>
