<?xml version="1.0" standalone="no"?>
<!DOCTYPE svg PUBLIC "-//W3C//DTD SVG 20010904//EN"
 "http://www.w3.org/TR/2001/REC-SVG-20010904/DTD/svg10.dtd">
<svg version="1.0" xmlns="http://www.w3.org/2000/svg"
 width="61.000000pt" height="44.000000pt" viewBox="0 0 61.000000 44.000000"
 preserveAspectRatio="xMidYMid meet">
<metadata>
Created by potrace 1.16, written by Peter Selinger 2001-2019
</metadata>
<g transform="translate(0.000000,44.000000) scale(0.100000,-0.100000)"
fill="#000000" stroke="none">
<path d="M165 432 l-10 -7 -1 -47 -1 -46 -13 -32 -13 -32 -59 6 -58 7 -6 -16
-6 -15 6 -25 6 -25 55 0 55 0 7 -27 7 -28 0 -65 1 -65 10 -7 10 -8 67 0 67 0
25 11 25 12 6 14 5 15 -11 40 -10 40 4 5 5 4 32 1 33 1 14 -19 15 -19 -6 -47
-5 -46 15 -6 16 -6 80 0 80 0 -6 16 -6 16 0 65 0 65 -30 -6 -30 -6 -24 12 -25
11 -11 28 -12 29 6 26 7 26 43 -6 43 -7 16 7 17 6 0 74 0 74 -32 0 -33 0 -38
-6 -38 -7 6 -26 6 -27 -18 -20 -18 -21 -23 -12 -24 -13 -29 12 -29 12 -2 12
-1 11 -1 40 -1 40 -30 6 -30 7 -45 1 -45 1 -10 -8z"/>
</g>
</svg>
