<?xml version="1.0" standalone="no"?>
<!DOCTYPE svg PUBLIC "-//W3C//DTD SVG 20010904//EN"
 "http://www.w3.org/TR/2001/REC-SVG-20010904/DTD/svg10.dtd">
<svg version="1.0" xmlns="http://www.w3.org/2000/svg"
 width="51.000000pt" height="60.000000pt" viewBox="0 0 51.000000 60.000000"
 preserveAspectRatio="xMidYMid meet">
<metadata>
Created by potrace 1.16, written by Peter Selinger 2001-2019
</metadata>
<g transform="translate(0.000000,60.000000) scale(0.100000,-0.100000)"
fill="#000000" stroke="none">
<path d="M223 593 l-23 -4 0 -17 0 -17 9 -33 10 -32 -15 -15 -15 -15 -26 -6
-25 -7 -69 6 -69 6 0 -59 0 -59 11 -25 12 -25 30 -12 29 -12 31 11 31 12 8
-13 8 -12 0 -32 0 -32 -12 -7 -12 -8 -43 3 -43 2 0 -11 0 -10 -14 0 -13 0 -6
-58 -6 -58 5 -21 6 -21 21 -6 22 -6 68 0 68 0 16 15 15 16 -6 33 -6 34 16 6
16 6 19 0 19 0 0 -11 0 -12 20 -17 19 -17 81 -18 82 -19 9 15 8 14 -5 55 -6
55 -10 28 -11 28 -51 -6 -52 -7 -11 24 -11 24 13 24 13 24 47 -3 46 -3 20 23
19 22 0 59 0 58 -84 0 -84 0 -14 5 -13 5 3 48 3 47 -13 17 -13 17 -25 4 -25 5
-22 -5z"/>
</g>
</svg>
