<?xml version="1.0" standalone="no"?>
<!DOCTYPE svg PUBLIC "-//W3C//DTD SVG 20010904//EN"
 "http://www.w3.org/TR/2001/REC-SVG-20010904/DTD/svg10.dtd">
<svg version="1.0" xmlns="http://www.w3.org/2000/svg"
 width="49.000000pt" height="58.000000pt" viewBox="0 0 49.000000 58.000000"
 preserveAspectRatio="xMidYMid meet">
<metadata>
Created by potrace 1.16, written by Peter Selinger 2001-2019
</metadata>
<g transform="translate(0.000000,58.000000) scale(0.100000,-0.100000)"
fill="#000000" stroke="none">
<path d="M223 572 l-23 -3 0 -7 0 -7 10 -35 10 -35 -5 -16 -6 -17 -29 -12 -29
-12 -76 4 -75 3 0 -47 0 -47 11 -24 11 -25 25 -11 25 -12 35 13 34 12 9 -14
10 -15 0 -42 0 -42 -19 -10 -18 -10 -37 6 -36 6 0 -12 0 -11 -14 0 -13 0 -5
-51 -5 -52 4 -18 5 -17 21 -6 22 -6 58 0 58 0 15 14 14 14 -7 32 -6 32 14 9
14 9 33 0 32 0 0 -11 0 -10 15 -16 16 -15 76 -20 76 -19 7 11 7 12 -4 46 -5
47 -10 27 -10 26 -52 -5 -53 -5 -12 30 -13 30 16 31 16 31 45 -7 45 -6 20 23
20 23 0 49 0 48 -84 0 -84 0 -16 6 -15 6 5 42 6 43 -11 20 -10 21 -18 4 -18 4
-22 -4z"/>
</g>
</svg>
