<?xml version="1.0" standalone="no"?>
<!DOCTYPE svg PUBLIC "-//W3C//DTD SVG 20010904//EN"
 "http://www.w3.org/TR/2001/REC-SVG-20010904/DTD/svg10.dtd">
<svg version="1.0" xmlns="http://www.w3.org/2000/svg"
 width="78.000000pt" height="56.000000pt" viewBox="0 0 78.000000 56.000000"
 preserveAspectRatio="xMidYMid meet">
<metadata>
Created by potrace 1.16, written by Peter Selinger 2001-2019
</metadata>
<g transform="translate(0.000000,56.000000) scale(0.100000,-0.100000)"
fill="#000000" stroke="none">
<path d="M147 553 l-7 -6 0 -43 0 -43 -10 -26 -10 -27 -15 -14 -15 -15 -46 7
-45 6 3 -48 3 -49 42 2 41 2 10 -27 11 -27 7 -45 8 -45 -3 -22 -2 -22 23 -6
23 -5 70 -2 70 -3 3 -40 3 -40 12 -7 12 -8 62 0 62 0 3 32 3 32 40 8 40 8 38
10 37 11 0 27 0 27 -15 40 -14 40 -1 12 0 12 35 -6 34 -5 43 16 42 17 18 21
18 21 0 21 0 21 -9 14 -9 14 -60 -6 -60 -6 -6 15 -6 16 0 74 0 74 -238 0 -239
0 -6 -7z"/>
</g>
</svg>
