<?xml version="1.0" standalone="no"?>
<!DOCTYPE svg PUBLIC "-//W3C//DTD SVG 20010904//EN"
 "http://www.w3.org/TR/2001/REC-SVG-20010904/DTD/svg10.dtd">
<svg version="1.0" xmlns="http://www.w3.org/2000/svg"
 width="76.000000pt" height="54.000000pt" viewBox="0 0 76.000000 54.000000"
 preserveAspectRatio="xMidYMid meet">
<metadata>
Created by potrace 1.16, written by Peter Selinger 2001-2019
</metadata>
<g transform="translate(0.000000,54.000000) scale(0.100000,-0.100000)"
fill="#000000" stroke="none">
<path d="M147 533 l-7 -6 0 -43 0 -43 -10 -26 -10 -27 -16 -15 -15 -16 -45 7
-45 6 3 -38 3 -37 41 3 41 3 8 -18 7 -18 14 -63 13 -63 -5 -14 -6 -14 24 -6
23 -5 70 -2 70 -3 3 -40 3 -40 12 -7 12 -8 52 0 52 0 3 32 3 32 40 8 40 8 38
10 37 11 0 17 0 17 -15 40 -14 40 -1 23 0 24 38 -7 37 -6 40 17 40 16 17 21
18 20 0 11 0 11 -9 14 -9 14 -57 -8 -58 -7 -8 14 -9 13 0 78 0 77 -228 0 -229
0 -6 -7z"/>
</g>
</svg>
