<?xml version="1.0" standalone="no"?>
<!DOCTYPE svg PUBLIC "-//W3C//DTD SVG 20010904//EN"
 "http://www.w3.org/TR/2001/REC-SVG-20010904/DTD/svg10.dtd">
<svg version="1.0" xmlns="http://www.w3.org/2000/svg"
 width="63.000000pt" height="53.000000pt" viewBox="0 0 63.000000 53.000000"
 preserveAspectRatio="xMidYMid meet">
<metadata>
Created by potrace 1.16, written by Peter Selinger 2001-2019
</metadata>
<g transform="translate(0.000000,53.000000) scale(0.100000,-0.100000)"
fill="#000000" stroke="none">
<path d="M327 524 l-7 -7 6 -36 6 -37 -27 -12 -26 -12 -74 0 -75 0 0 -76 0
-75 -15 -16 -15 -15 -48 4 -47 3 -3 -24 -4 -23 7 -25 6 -25 25 6 25 7 15 -16
16 -16 14 -55 15 -55 -6 -9 -6 -10 245 0 245 0 16 30 15 29 0 35 0 34 -6 16
-6 16 -62 -6 -62 -6 -12 26 -12 27 0 19 0 19 19 6 19 6 26 -12 26 -12 20 23
20 23 0 71 0 71 -8 10 -7 10 -20 2 -20 2 -60 14 -60 15 -18 7 -18 7 3 22 3 21
-30 3 -31 3 -7 -7z"/>
</g>
</svg>
