<?xml version="1.0" standalone="no"?>
<!DOCTYPE svg PUBLIC "-//W3C//DTD SVG 20010904//EN"
 "http://www.w3.org/TR/2001/REC-SVG-20010904/DTD/svg10.dtd">
<svg version="1.0" xmlns="http://www.w3.org/2000/svg"
 width="62.000000pt" height="53.000000pt" viewBox="0 0 62.000000 53.000000"
 preserveAspectRatio="xMidYMid meet">
<metadata>
Created by potrace 1.16, written by Peter Selinger 2001-2019
</metadata>
<g transform="translate(0.000000,53.000000) scale(0.100000,-0.100000)"
fill="#000000" stroke="none">
<path d="M201 521 l-14 -9 6 -32 7 -32 -14 -14 -15 -14 -60 0 -60 0 -26 10
-27 10 6 -16 6 -16 0 -51 0 -52 9 -13 8 -14 41 13 40 12 26 -26 26 -26 0 -25
0 -25 -12 -26 -11 -25 -32 0 -32 0 -20 -57 -21 -58 -7 -17 -7 -18 62 0 61 0
22 12 22 11 13 14 14 14 -6 29 -6 30 46 0 45 0 -6 -21 -7 -20 22 -19 21 -18
66 -12 65 -11 5 5 5 5 -12 65 -12 66 6 25 6 25 70 -6 69 -7 16 16 16 16 -21
21 -20 20 -46 0 -47 0 -18 21 -18 21 5 51 5 52 4 17 3 17 -76 18 -76 18 -27
27 -26 28 -24 0 -24 0 -14 -9z"/>
</g>
</svg>
