<?xml version="1.0" standalone="no"?>
<!DOCTYPE svg PUBLIC "-//W3C//DTD SVG 20010904//EN"
 "http://www.w3.org/TR/2001/REC-SVG-20010904/DTD/svg10.dtd">
<svg version="1.0" xmlns="http://www.w3.org/2000/svg"
 width="65.000000pt" height="55.000000pt" viewBox="0 0 65.000000 55.000000"
 preserveAspectRatio="xMidYMid meet">
<metadata>
Created by potrace 1.16, written by Peter Selinger 2001-2019
</metadata>
<g transform="translate(0.000000,55.000000) scale(0.100000,-0.100000)"
fill="#000000" stroke="none">
<path d="M325 540 l-7 -11 6 -33 6 -33 -25 -11 -26 -12 -74 0 -75 0 0 -76 0
-75 -14 -15 -15 -14 -48 3 -48 2 -3 -34 -3 -34 6 -24 6 -24 27 3 27 3 17 -18
16 -18 8 -42 8 -42 -3 -17 -2 -18 255 0 255 0 16 30 15 29 0 48 0 48 -9 14 -9
13 -59 -7 -60 -7 -13 32 -13 32 13 8 14 9 17 -10 18 -9 17 0 17 0 18 22 19 21
0 81 0 81 -8 12 -8 12 -19 0 -20 0 -60 14 -61 14 -14 9 -15 9 0 20 0 20 -42 3
-41 3 -7 -11z"/>
</g>
</svg>
