<?xml version="1.0" standalone="no"?>
<!DOCTYPE svg PUBLIC "-//W3C//DTD SVG 20010904//EN"
 "http://www.w3.org/TR/2001/REC-SVG-20010904/DTD/svg10.dtd">
<svg version="1.0" xmlns="http://www.w3.org/2000/svg"
 width="64.000000pt" height="55.000000pt" viewBox="0 0 64.000000 55.000000"
 preserveAspectRatio="xMidYMid meet">
<metadata>
Created by potrace 1.16, written by Peter Selinger 2001-2019
</metadata>
<g transform="translate(0.000000,55.000000) scale(0.100000,-0.100000)"
fill="#000000" stroke="none">
<path d="M201 541 l-13 -9 4 -34 4 -35 -13 -11 -12 -12 -49 0 -49 0 -32 11
-32 11 -4 -3 -3 -4 7 -82 7 -82 7 -7 8 -8 41 11 41 11 23 -24 24 -23 0 -15 0
-15 -12 -26 -11 -25 -32 0 -32 0 -22 -62 -23 -63 -5 -22 -5 -23 71 0 72 0 22
12 22 11 12 13 13 13 0 30 0 31 25 0 25 0 0 -21 0 -22 20 -17 21 -18 63 -11
63 -11 16 0 17 0 0 28 0 27 -11 45 -10 44 5 22 6 21 69 -5 70 -5 15 16 16 16
0 10 0 11 -20 20 -20 20 -46 0 -45 0 -17 16 -16 16 2 47 2 46 6 27 5 26 -78
18 -77 19 -27 27 -26 28 -34 0 -34 0 -14 -9z"/>
</g>
</svg>
