<?xml version="1.0" standalone="no"?>
<!DOCTYPE svg PUBLIC "-//W3C//DTD SVG 20010904//EN"
 "http://www.w3.org/TR/2001/REC-SVG-20010904/DTD/svg10.dtd">
<svg version="1.0" xmlns="http://www.w3.org/2000/svg"
 width="50.000000pt" height="54.000000pt" viewBox="0 0 50.000000 54.000000"
 preserveAspectRatio="xMidYMid meet">
<metadata>
Created by potrace 1.16, written by Peter Selinger 2001-2019
</metadata>
<g transform="translate(0.000000,54.000000) scale(0.100000,-0.100000)"
fill="#000000" stroke="none">
<path d="M206 510 l6 -29 -14 -14 -13 -14 -22 -11 -22 -12 -60 0 -59 0 -6 13
-5 12 2 -80 2 -80 44 3 44 4 8 -14 9 -13 0 -32 0 -31 -6 -16 -6 -16 -14 0 -14
0 0 -11 0 -11 -37 4 -38 3 0 -83 0 -82 77 0 77 0 26 12 26 12 -3 40 -3 41 38
3 38 3 -6 -24 -6 -24 18 -8 18 -7 60 -15 60 -15 28 -1 27 0 4 4 3 4 6 52 6 51
-18 21 -19 21 -53 -5 -54 -6 -13 9 -14 9 0 39 0 38 19 14 18 13 50 -5 50 -6
14 9 14 9 -7 68 -7 67 -4 7 -4 7 -75 12 -74 12 -22 19 -22 19 7 20 6 21 -45 0
-45 0 5 -30z"/>
</g>
</svg>
