<?xml version="1.0" standalone="no"?>
<!DOCTYPE svg PUBLIC "-//W3C//DTD SVG 20010904//EN"
 "http://www.w3.org/TR/2001/REC-SVG-20010904/DTD/svg10.dtd">
<svg version="1.0" xmlns="http://www.w3.org/2000/svg"
 width="52.000000pt" height="56.000000pt" viewBox="0 0 52.000000 56.000000"
 preserveAspectRatio="xMidYMid meet">
<metadata>
Created by potrace 1.16, written by Peter Selinger 2001-2019
</metadata>
<g transform="translate(0.000000,56.000000) scale(0.100000,-0.100000)"
fill="#000000" stroke="none">
<path d="M204 529 l6 -31 -13 -12 -12 -13 -22 -11 -22 -12 -50 0 -51 0 0 10 0
10 -15 0 -16 0 3 -87 3 -88 47 2 48 3 6 -25 6 -25 -6 -25 -6 -25 -15 0 -15 0
0 -10 0 -11 -38 3 -37 3 -1 -92 -1 -93 88 0 88 0 26 12 26 12 -3 40 -3 41 23
3 22 3 0 -24 0 -25 18 -7 17 -7 60 -16 60 -15 37 0 37 -1 4 4 4 5 7 61 7 60
-21 23 -20 24 -49 -7 -48 -6 -17 6 -16 6 0 34 0 33 20 11 20 11 35 -7 35 -6
25 6 25 6 -1 48 0 47 -7 40 -7 39 -80 16 -81 15 -15 15 -15 14 4 23 4 23 -57
0 -57 0 6 -31z"/>
</g>
</svg>
