<?xml version="1.0" standalone="no"?>
<!DOCTYPE svg PUBLIC "-//W3C//DTD SVG 20010904//EN"
 "http://www.w3.org/TR/2001/REC-SVG-20010904/DTD/svg10.dtd">
<svg version="1.0" xmlns="http://www.w3.org/2000/svg"
 width="64.000000pt" height="59.000000pt" viewBox="0 0 64.000000 59.000000"
 preserveAspectRatio="xMidYMid meet">
<metadata>
Created by potrace 1.16, written by Peter Selinger 2001-2019
</metadata>
<g transform="translate(0.000000,59.000000) scale(0.100000,-0.100000)"
fill="#000000" stroke="none">
<path d="M314 569 l6 -24 6 -26 6 -26 -26 -27 -27 -26 -40 0 -40 0 -15 14 -14
15 0 9 0 10 -11 4 -11 4 10 36 10 36 -33 5 -33 5 -41 -5 -42 -6 3 -71 3 -71
51 0 50 0 17 -17 17 -17 0 -20 0 -20 -15 -14 -15 -15 -35 -12 -36 -12 -23 6
-24 6 -5 -19 -5 -19 10 -52 9 -52 -5 -14 -5 -13 88 2 89 2 7 -6 6 -7 -10 -40
-11 -40 6 -16 6 -16 14 0 14 0 0 -10 0 -10 21 0 22 0 19 22 19 22 5 23 6 23
-6 35 -7 35 16 6 16 7 64 -11 64 -10 20 5 21 5 0 38 0 37 6 46 7 46 46 -6 47
-5 17 17 17 16 0 19 0 19 -12 25 -11 26 -33 6 -32 6 -31 -7 -31 -7 0 66 0 65
-9 6 -10 6 -82 6 -82 6 7 -24z"/>
</g>
</svg>
