<?xml version="1.0" standalone="no"?>
<!DOCTYPE svg PUBLIC "-//W3C//DTD SVG 20010904//EN"
 "http://www.w3.org/TR/2001/REC-SVG-20010904/DTD/svg10.dtd">
<svg version="1.0" xmlns="http://www.w3.org/2000/svg"
 width="66.000000pt" height="61.000000pt" viewBox="0 0 66.000000 61.000000"
 preserveAspectRatio="xMidYMid meet">
<metadata>
Created by potrace 1.16, written by Peter Selinger 2001-2019
</metadata>
<g transform="translate(0.000000,61.000000) scale(0.100000,-0.100000)"
fill="#000000" stroke="none">
<path d="M313 579 l5 -34 7 -16 6 -17 -26 -26 -26 -26 -30 0 -30 0 -15 14 -14
15 0 10 0 11 -9 0 -10 0 10 32 9 33 0 6 0 6 -39 7 -39 6 -46 -6 -47 -7 3 -81
3 -81 51 0 51 -1 17 -17 17 -17 -6 -19 -6 -19 -39 -16 -39 -16 -29 6 -29 6 -7
-25 -6 -25 10 -49 9 -50 -6 -23 -6 -23 74 6 74 6 22 -5 21 -6 -10 -35 -10 -35
6 -24 6 -24 15 0 15 0 0 -10 0 -10 31 0 30 0 13 13 13 12 12 23 12 23 -2 44
-3 44 6 7 7 6 65 -11 66 -12 25 7 25 6 0 38 0 37 6 44 6 44 47 -3 48 -4 16 17
17 16 0 29 0 29 -12 25 -11 26 -34 6 -33 6 -30 -4 -30 -5 0 63 0 63 -10 6 -10
6 -92 6 -91 6 6 -34z"/>
</g>
</svg>
