<?xml version="1.0" standalone="no"?>
<!DOCTYPE svg PUBLIC "-//W3C//DTD SVG 20010904//EN"
 "http://www.w3.org/TR/2001/REC-SVG-20010904/DTD/svg10.dtd">
<svg version="1.0" xmlns="http://www.w3.org/2000/svg"
 width="54.000000pt" height="59.000000pt" viewBox="0 0 54.000000 59.000000"
 preserveAspectRatio="xMidYMid meet">
<metadata>
Created by potrace 1.16, written by Peter Selinger 2001-2019
</metadata>
<g transform="translate(0.000000,59.000000) scale(0.100000,-0.100000)"
fill="#000000" stroke="none">
<path d="M347 584 l-7 -8 6 -33 6 -33 -6 -23 -5 -23 -19 -22 -19 -22 -22 0
-21 0 0 10 0 10 -14 0 -14 0 -6 16 -6 16 11 40 10 40 -6 7 -7 6 -95 0 -95 0 4
-67 5 -67 17 -16 17 -17 29 6 30 5 15 -5 15 -6 0 -32 0 -31 -9 -14 -9 -14 -61
6 -61 5 -16 -15 -15 -15 6 -32 6 -31 21 -47 21 -46 51 5 51 5 40 -9 40 -9 1
-40 1 -39 1 -11 2 -12 29 -12 29 -12 24 13 23 12 18 21 18 20 -6 27 -6 26 38
7 38 6 28 0 28 0 15 14 14 15 0 74 0 75 -6 17 -6 16 -58 -7 -58 -6 -7 20 -6
21 11 21 11 20 64 0 65 0 0 54 0 54 -6 29 -6 30 -26 0 -27 -1 -60 8 -60 8 -8
-8z"/>
</g>
</svg>
