<?xml version="1.0" standalone="no"?>
<!DOCTYPE svg PUBLIC "-//W3C//DTD SVG 20010904//EN"
 "http://www.w3.org/TR/2001/REC-SVG-20010904/DTD/svg10.dtd">
<svg version="1.0" xmlns="http://www.w3.org/2000/svg"
 width="56.000000pt" height="61.000000pt" viewBox="0 0 56.000000 61.000000"
 preserveAspectRatio="xMidYMid meet">
<metadata>
Created by potrace 1.16, written by Peter Selinger 2001-2019
</metadata>
<g transform="translate(0.000000,61.000000) scale(0.100000,-0.100000)"
fill="#000000" stroke="none">
<path d="M346 601 l-8 -12 7 -39 7 -39 -13 -23 -12 -23 -13 -12 -13 -13 -10 0
-11 0 0 10 0 10 -14 0 -14 0 -4 12 -4 12 10 43 9 43 -7 7 -8 8 -105 0 -105 1
4 -77 5 -77 16 -17 17 -17 33 2 32 2 13 -1 12 -1 0 -22 0 -23 -9 -14 -9 -14
-60 7 -60 7 -17 -17 -17 -17 7 -45 7 -45 21 -44 21 -44 56 6 55 5 35 -8 35 -8
-3 -30 -2 -29 5 -21 5 -21 30 -13 30 -12 24 6 25 6 27 26 26 27 -4 27 -4 28
35 6 36 6 28 0 28 0 15 14 14 15 0 88 0 88 -9 14 -9 14 -53 -7 -52 -7 -8 12
-8 13 10 18 10 18 64 0 65 0 0 64 0 64 -6 31 -7 31 -26 -1 -26 -1 -71 7 -71 8
-7 -12z"/>
</g>
</svg>
