<?xml version="1.0" standalone="no"?>
<!DOCTYPE svg PUBLIC "-//W3C//DTD SVG 20010904//EN"
 "http://www.w3.org/TR/2001/REC-SVG-20010904/DTD/svg10.dtd">
<svg version="1.0" xmlns="http://www.w3.org/2000/svg"
 width="72.000000pt" height="45.000000pt" viewBox="0 0 72.000000 45.000000"
 preserveAspectRatio="xMidYMid meet">
<metadata>
Created by potrace 1.16, written by Peter Selinger 2001-2019
</metadata>
<g transform="translate(0.000000,45.000000) scale(0.100000,-0.100000)"
fill="#000000" stroke="none">
<path d="M454 411 l1 -40 -24 -20 -24 -21 -27 0 -27 0 -32 11 -31 11 0 38 0
37 -37 5 -38 5 -35 -4 -35 -5 3 -74 4 -74 -66 0 -65 0 -11 -20 -11 -21 6 -21
7 -20 58 6 58 7 6 -16 6 -17 0 -89 0 -89 74 0 75 0 15 15 15 15 11 0 12 0 -5
18 -6 17 -6 22 -7 21 22 7 21 7 25 -6 24 -6 -6 -24 -5 -23 28 -11 28 -11 75
-16 75 -15 3 0 3 0 -6 10 -6 10 11 40 10 40 10 39 10 40 38 3 37 3 0 30 0 30
-50 -1 -50 -1 -12 13 -13 13 0 79 0 80 -31 6 -31 6 -38 0 -37 0 1 -39z"/>
</g>
</svg>
