<?xml version="1.0" standalone="no"?>
<!DOCTYPE svg PUBLIC "-//W3C//DTD SVG 20010904//EN"
 "http://www.w3.org/TR/2001/REC-SVG-20010904/DTD/svg10.dtd">
<svg version="1.0" xmlns="http://www.w3.org/2000/svg"
 width="74.000000pt" height="47.000000pt" viewBox="0 0 74.000000 47.000000"
 preserveAspectRatio="xMidYMid meet">
<metadata>
Created by potrace 1.16, written by Peter Selinger 2001-2019
</metadata>
<g transform="translate(0.000000,47.000000) scale(0.100000,-0.100000)"
fill="#000000" stroke="none">
<path d="M146 385 l7 -85 -67 0 -66 0 -11 -24 -12 -25 7 -27 7 -27 59 6 59 5
5 -15 6 -15 0 -89 0 -89 84 0 85 0 15 15 15 15 10 0 11 0 0 21 0 20 -10 19
-10 19 20 6 20 6 10 -6 10 -6 0 -23 0 -24 28 -11 27 -10 75 -16 75 -15 12 0
12 0 -1 28 -1 27 6 20 6 20 11 42 10 42 38 3 37 3 0 40 0 40 -50 0 -50 0 -12
12 -13 12 0 79 0 80 -31 6 -31 6 -49 0 -49 0 2 -40 1 -40 -23 -20 -23 -20 -17
0 -17 0 -32 11 -31 11 0 38 0 37 -46 7 -46 6 -24 -6 -24 -6 0 11 0 11 -15 0
-15 0 6 -85z"/>
</g>
</svg>
