<?xml version="1.0" standalone="no"?>
<!DOCTYPE svg PUBLIC "-//W3C//DTD SVG 20010904//EN"
 "http://www.w3.org/TR/2001/REC-SVG-20010904/DTD/svg10.dtd">
<svg version="1.0" xmlns="http://www.w3.org/2000/svg"
 width="73.000000pt" height="54.000000pt" viewBox="0 0 73.000000 54.000000"
 preserveAspectRatio="xMidYMid meet">
<metadata>
Created by potrace 1.16, written by Peter Selinger 2001-2019
</metadata>
<g transform="translate(0.000000,54.000000) scale(0.100000,-0.100000)"
fill="#000000" stroke="none">
<path d="M117 533 l-7 -6 0 -53 0 -52 -6 -16 -6 -16 -14 0 -14 0 0 -10 0 -10
-36 0 -35 0 3 -52 3 -53 38 0 38 0 8 -14 9 -14 6 -50 7 -50 -13 -9 -13 -8 15
-10 15 -10 88 7 88 6 -7 -40 -6 -40 17 -16 16 -17 22 0 22 0 11 8 11 7 12 23
12 23 -3 27 -3 27 70 -3 70 -3 21 5 20 5 -4 85 -4 84 42 -9 43 -10 32 11 33
11 6 15 6 16 0 15 0 16 -22 19 -23 20 -52 -6 -53 -6 0 80 0 80 -228 0 -229 0
-6 -7z"/>
</g>
</svg>
