<?xml version="1.0" standalone="no"?>
<!DOCTYPE svg PUBLIC "-//W3C//DTD SVG 20010904//EN"
 "http://www.w3.org/TR/2001/REC-SVG-20010904/DTD/svg10.dtd">
<svg version="1.0" xmlns="http://www.w3.org/2000/svg"
 width="75.000000pt" height="56.000000pt" viewBox="0 0 75.000000 56.000000"
 preserveAspectRatio="xMidYMid meet">
<metadata>
Created by potrace 1.16, written by Peter Selinger 2001-2019
</metadata>
<g transform="translate(0.000000,56.000000) scale(0.100000,-0.100000)"
fill="#000000" stroke="none">
<path d="M117 553 l-7 -6 0 -53 0 -52 -6 -16 -6 -16 -14 0 -14 0 0 -10 0 -10
-35 0 -36 0 3 -62 3 -63 38 -1 37 -1 6 -6 6 -6 9 -48 9 -48 -10 -3 -10 -4 0
-18 0 -19 20 -6 20 -6 78 6 78 7 -4 -39 -4 -40 17 -16 16 -17 32 0 32 0 11 8
11 7 12 22 11 22 0 31 0 31 64 -7 64 -7 26 7 25 6 -6 81 -6 81 44 -7 44 -6 30
11 30 11 7 12 8 12 0 29 0 29 -22 19 -23 20 -52 -4 -53 -5 0 79 0 78 -238 0
-239 0 -6 -7z"/>
</g>
</svg>
