<?xml version="1.0" standalone="no"?>
<!DOCTYPE svg PUBLIC "-//W3C//DTD SVG 20010904//EN"
 "http://www.w3.org/TR/2001/REC-SVG-20010904/DTD/svg10.dtd">
<svg version="1.0" xmlns="http://www.w3.org/2000/svg"
 width="64.000000pt" height="65.000000pt" viewBox="0 0 64.000000 65.000000"
 preserveAspectRatio="xMidYMid meet">
<metadata>
Created by potrace 1.16, written by Peter Selinger 2001-2019
</metadata>
<g transform="translate(0.000000,65.000000) scale(0.100000,-0.100000)"
fill="#000000" stroke="none">
<path d="M227 607 l5 -43 -25 -11 -25 -12 -35 -6 -34 -7 -39 11 -38 11 -7 -8
-7 -7 -5 -62 -5 -62 18 -21 17 -20 47 0 46 0 20 -20 21 -21 -16 -16 -16 -16
-69 7 -70 6 -6 -25 -6 -25 12 -68 13 -67 11 -7 11 -8 56 0 56 0 33 -6 32 -7
-5 -35 -6 -34 14 -14 14 -14 20 0 21 0 0 10 0 10 15 0 14 0 7 35 6 35 -6 26
-7 27 53 -6 53 -6 35 -6 35 -6 14 10 14 9 6 63 6 64 38 -3 39 -3 19 22 19 22
0 20 0 20 -22 19 -22 19 -41 -3 -40 -3 -3 84 -3 83 -22 -7 -22 -6 -35 -9 -35
-10 -49 0 -49 0 6 35 6 34 -10 36 -10 35 -33 0 -34 0 5 -43z"/>
</g>
</svg>
