<?xml version="1.0" standalone="no"?>
<!DOCTYPE svg PUBLIC "-//W3C//DTD SVG 20010904//EN"
 "http://www.w3.org/TR/2001/REC-SVG-20010904/DTD/svg10.dtd">
<svg version="1.0" xmlns="http://www.w3.org/2000/svg"
 width="66.000000pt" height="67.000000pt" viewBox="0 0 66.000000 67.000000"
 preserveAspectRatio="xMidYMid meet">
<metadata>
Created by potrace 1.16, written by Peter Selinger 2001-2019
</metadata>
<g transform="translate(0.000000,67.000000) scale(0.100000,-0.100000)"
fill="#000000" stroke="none">
<path d="M225 627 l7 -44 -29 -11 -28 -11 -22 -6 -21 -6 -47 12 -46 12 -8 -9
-8 -9 -7 -71 -6 -71 19 -22 18 -21 42 0 42 0 19 -10 19 -10 -6 -16 -6 -16 -73
7 -73 7 -7 -28 -7 -28 12 -76 13 -75 12 -7 11 -8 56 0 56 0 32 -6 31 -7 -6
-33 -6 -33 15 -16 16 -15 30 0 31 0 0 10 0 10 14 0 14 0 6 23 6 22 0 39 0 39
38 -7 37 -7 45 -5 45 -5 14 9 14 10 6 63 6 64 38 -3 38 -4 20 23 19 22 0 30 0
30 -22 19 -22 19 -41 -3 -40 -3 -3 84 -3 83 -27 -5 -27 -5 -40 -11 -40 -11
-38 0 -39 0 7 29 6 29 -11 41 -11 41 -45 0 -45 0 6 -43z"/>
</g>
</svg>
