<?xml version="1.0" standalone="no"?>
<!DOCTYPE svg PUBLIC "-//W3C//DTD SVG 20010904//EN"
 "http://www.w3.org/TR/2001/REC-SVG-20010904/DTD/svg10.dtd">
<svg version="1.0" xmlns="http://www.w3.org/2000/svg"
 width="77.000000pt" height="55.000000pt" viewBox="0 0 77.000000 55.000000"
 preserveAspectRatio="xMidYMid meet">
<metadata>
Created by potrace 1.16, written by Peter Selinger 2001-2019
</metadata>
<g transform="translate(0.000000,55.000000) scale(0.100000,-0.100000)"
fill="#000000" stroke="none">
<path d="M341 541 l-15 -10 12 -26 12 -26 0 -9 0 -10 -11 0 -10 0 -16 -16 -16
-16 -84 4 -83 3 0 -76 0 -77 -17 -6 -16 -7 -43 7 -43 6 -7 -26 -6 -26 12 -29
11 -28 25 -11 24 -12 30 6 30 7 0 -66 0 -65 6 -16 6 -16 70 0 69 0 22 11 22
12 7 11 7 11 -6 39 -6 38 14 9 14 9 33 0 32 0 0 -44 0 -45 18 -5 17 -5 74 -15
75 -16 8 13 8 12 0 78 0 77 40 -6 40 -7 29 13 29 12 6 21 6 22 0 16 0 17 -23
6 -24 6 -33 -10 -33 -9 -18 10 -19 10 0 74 0 75 -2 0 -3 0 -75 15 -75 16 -28
11 -28 11 5 22 6 23 -16 6 -16 6 -16 0 -17 0 -14 -9z"/>
</g>
</svg>
