<?xml version="1.0" standalone="no"?>
<!DOCTYPE svg PUBLIC "-//W3C//DTD SVG 20010904//EN"
 "http://www.w3.org/TR/2001/REC-SVG-20010904/DTD/svg10.dtd">
<svg version="1.0" xmlns="http://www.w3.org/2000/svg"
 width="79.000000pt" height="57.000000pt" viewBox="0 0 79.000000 57.000000"
 preserveAspectRatio="xMidYMid meet">
<metadata>
Created by potrace 1.16, written by Peter Selinger 2001-2019
</metadata>
<g transform="translate(0.000000,57.000000) scale(0.100000,-0.100000)"
fill="#000000" stroke="none">
<path d="M343 563 l-13 -5 0 -19 0 -20 10 -20 11 -19 -11 0 -11 0 -17 -16 -16
-17 -83 6 -83 5 0 -78 0 -78 -14 -5 -14 -5 -42 5 -42 6 -9 -14 -9 -14 0 -27 0
-27 11 -25 12 -25 28 -11 29 -12 25 6 25 6 0 -64 0 -64 6 -16 6 -16 79 0 78 0
25 12 26 11 6 19 5 18 -6 31 -7 31 13 9 14 9 23 0 22 0 0 -45 0 -44 38 -10 37
-9 63 -12 64 -13 9 14 9 14 0 75 0 76 40 -4 41 -4 28 12 29 12 6 21 6 22 0 28
0 27 -17 2 -18 2 -55 0 -55 1 -3 78 -3 77 -2 0 -2 0 -75 15 -75 16 -26 10 -27
10 6 21 5 20 -14 9 -14 9 -30 -1 -30 -1 -12 -5z"/>
</g>
</svg>
