<?xml version="1.0" standalone="no"?>
<!DOCTYPE svg PUBLIC "-//W3C//DTD SVG 20010904//EN"
 "http://www.w3.org/TR/2001/REC-SVG-20010904/DTD/svg10.dtd">
<svg version="1.0" xmlns="http://www.w3.org/2000/svg"
 width="79.000000pt" height="59.000000pt" viewBox="0 0 79.000000 59.000000"
 preserveAspectRatio="xMidYMid meet">
<metadata>
Created by potrace 1.16, written by Peter Selinger 2001-2019
</metadata>
<g transform="translate(0.000000,59.000000) scale(0.100000,-0.100000)"
fill="#000000" stroke="none">
<path d="M351 581 l-14 -9 6 -38 6 -39 -7 -11 -7 -11 -22 -12 -22 -11 -65 0
-66 0 0 -48 0 -49 -20 -23 -20 -23 -45 6 -45 7 -16 -31 -16 -31 13 -30 12 -30
53 5 52 5 11 -26 11 -27 2 -58 2 -57 40 -11 39 -11 34 7 35 6 25 12 25 11 -5
43 -5 43 34 0 33 0 10 -35 10 -36 -6 -36 -6 -36 74 6 74 6 33 13 32 12 0 13 0
13 10 0 9 0 11 43 11 42 6 18 5 19 31 -6 32 -6 11 8 11 7 12 22 11 22 0 19 0
19 -20 22 -19 23 -50 -7 -49 -7 -11 21 -11 20 0 59 0 59 -62 13 -63 12 -37 9
-38 10 0 44 0 45 -32 0 -33 0 -14 -9z"/>
</g>
</svg>
