<?xml version="1.0" standalone="no"?>
<!DOCTYPE svg PUBLIC "-//W3C//DTD SVG 20010904//EN"
 "http://www.w3.org/TR/2001/REC-SVG-20010904/DTD/svg10.dtd">
<svg version="1.0" xmlns="http://www.w3.org/2000/svg"
 width="81.000000pt" height="61.000000pt" viewBox="0 0 81.000000 61.000000"
 preserveAspectRatio="xMidYMid meet">
<metadata>
Created by potrace 1.16, written by Peter Selinger 2001-2019
</metadata>
<g transform="translate(0.000000,61.000000) scale(0.100000,-0.100000)"
fill="#000000" stroke="none">
<path d="M352 601 l-14 -8 2 -39 2 -39 -1 -11 -1 -11 -25 -11 -26 -12 -64 0
-65 0 0 -48 0 -49 -19 -22 -20 -22 -45 6 -44 7 -16 -30 -16 -31 0 -15 0 -15
12 -26 12 -27 53 4 52 3 11 -23 10 -23 0 -59 0 -59 42 -12 43 -11 41 6 41 5
27 12 26 12 0 44 0 43 19 0 20 0 7 -22 7 -23 -2 -49 -1 -49 82 6 83 6 33 12
32 13 0 13 0 13 9 0 10 0 5 18 5 17 11 43 11 42 24 -6 24 -6 19 6 19 6 11 26
12 25 0 28 0 28 -20 23 -20 23 -50 -6 -50 -6 -10 19 -10 19 0 59 0 59 -62 13
-63 12 -37 9 -38 10 0 44 0 45 -42 0 -43 0 -13 -9z"/>
</g>
</svg>
