<?xml version="1.0" standalone="no"?>
<!DOCTYPE svg PUBLIC "-//W3C//DTD SVG 20010904//EN"
 "http://www.w3.org/TR/2001/REC-SVG-20010904/DTD/svg10.dtd">
<svg version="1.0" xmlns="http://www.w3.org/2000/svg"
 width="65.000000pt" height="60.000000pt" viewBox="0 0 65.000000 60.000000"
 preserveAspectRatio="xMidYMid meet">
<metadata>
Created by potrace 1.16, written by Peter Selinger 2001-2019
</metadata>
<g transform="translate(0.000000,60.000000) scale(0.100000,-0.100000)"
fill="#000000" stroke="none">
<path d="M436 575 l6 -25 -6 -35 -7 -35 -14 0 -15 0 0 -10 0 -10 -21 0 -20 0
-14 14 -14 14 6 34 5 35 -32 7 -32 6 -60 0 -59 0 7 -71 7 -71 -14 -9 -14 -9
-50 6 -50 5 -19 -13 -18 -14 0 -38 0 -39 13 -9 14 -9 54 6 53 5 18 -20 18 -20
-6 -65 -5 -65 49 0 49 0 22 -6 22 -6 6 -18 6 -18 -12 -25 -12 -26 17 -16 16
-16 33 -6 34 -5 16 16 16 17 11 38 10 37 -10 33 -9 32 15 6 14 5 65 -16 64
-16 14 0 14 0 16 51 17 51 0 28 0 28 -65 -6 -65 -5 -20 23 -20 23 0 18 0 18
12 27 12 26 59 -5 60 -5 -7 51 -6 52 0 26 0 26 -64 11 -63 12 -27 0 -26 0 6
-25z"/>
</g>
</svg>
