<?xml version="1.0" standalone="no"?>
<!DOCTYPE svg PUBLIC "-//W3C//DTD SVG 20010904//EN"
 "http://www.w3.org/TR/2001/REC-SVG-20010904/DTD/svg10.dtd">
<svg version="1.0" xmlns="http://www.w3.org/2000/svg"
 width="67.000000pt" height="62.000000pt" viewBox="0 0 67.000000 62.000000"
 preserveAspectRatio="xMidYMid meet">
<metadata>
Created by potrace 1.16, written by Peter Selinger 2001-2019
</metadata>
<g transform="translate(0.000000,62.000000) scale(0.100000,-0.100000)"
fill="#000000" stroke="none">
<path d="M434 586 l7 -35 -7 -25 -6 -26 -14 0 -14 0 0 -10 0 -10 -10 0 -11 0
-12 11 -12 12 3 37 4 37 -32 7 -33 6 -70 0 -70 0 7 -71 7 -72 -12 -8 -12 -7
-51 5 -51 5 -19 -15 -19 -14 0 -47 0 -48 14 -9 14 -10 55 4 55 5 14 -15 14
-15 -2 -68 -2 -68 66 -4 66 -4 9 -14 9 -14 -10 -17 -9 -18 0 -16 0 -16 16 -16
15 -16 43 -4 42 -5 17 16 16 17 11 40 11 39 -7 35 -6 35 8 0 9 0 55 -15 55
-15 26 0 26 0 16 51 17 51 0 39 0 40 -65 -7 -65 -7 -20 23 -20 23 0 8 0 8 12
27 12 26 60 -7 59 -6 -6 68 -7 68 0 21 0 21 -64 11 -63 12 -38 0 -37 0 6 -34z"/>
</g>
</svg>
