<?xml version="1.0" standalone="no"?>
<!DOCTYPE svg PUBLIC "-//W3C//DTD SVG 20010904//EN"
 "http://www.w3.org/TR/2001/REC-SVG-20010904/DTD/svg10.dtd">
<svg version="1.0" xmlns="http://www.w3.org/2000/svg"
 width="78.000000pt" height="48.000000pt" viewBox="0 0 78.000000 48.000000"
 preserveAspectRatio="xMidYMid meet">
<metadata>
Created by potrace 1.16, written by Peter Selinger 2001-2019
</metadata>
<g transform="translate(0.000000,48.000000) scale(0.100000,-0.100000)"
fill="#000000" stroke="none">
<path d="M405 470 l-6 -10 9 -33 10 -34 -14 -38 -13 -38 -13 -9 -13 -8 -23 5
-24 6 -13 12 -12 12 10 22 10 22 -7 24 -6 25 -22 6 -23 6 -47 0 -48 0 0 10 0
10 -19 0 -19 0 5 -82 5 -83 -18 -21 -18 -22 -22 10 -23 11 -25 -7 -26 -6 0
-30 0 -29 12 -27 12 -26 63 5 62 5 5 -15 6 -15 0 -26 -1 -27 -14 -25 -14 -25
-1 -12 0 -13 246 0 246 0 -8 52 -7 53 -1 20 -1 20 64 5 64 5 5 13 4 12 13 0
13 0 6 16 6 16 0 24 0 25 -25 25 -24 24 -30 6 -29 6 -21 -11 -21 -11 -5 22 -5
23 -2 49 -3 49 -75 18 -75 18 -27 1 -27 0 -6 -10z"/>
</g>
</svg>
