<?xml version="1.0" standalone="no"?>
<!DOCTYPE svg PUBLIC "-//W3C//DTD SVG 20010904//EN"
 "http://www.w3.org/TR/2001/REC-SVG-20010904/DTD/svg10.dtd">
<svg version="1.0" xmlns="http://www.w3.org/2000/svg"
 width="76.000000pt" height="46.000000pt" viewBox="0 0 76.000000 46.000000"
 preserveAspectRatio="xMidYMid meet">
<metadata>
Created by potrace 1.16, written by Peter Selinger 2001-2019
</metadata>
<g transform="translate(0.000000,46.000000) scale(0.100000,-0.100000)"
fill="#000000" stroke="none">
<path d="M408 454 l-6 -6 9 -31 9 -31 -10 -37 -11 -38 -16 -17 -16 -16 -34 5
-33 6 -16 16 -17 16 12 26 12 25 -6 18 -6 18 -22 6 -22 6 -47 0 -48 0 0 10 0
10 -7 0 -8 0 3 -82 4 -83 -21 -24 -21 -24 -26 12 -26 12 -19 -6 -19 -6 0 -19
0 -19 12 -27 12 -26 62 6 62 6 6 -16 6 -16 0 -34 0 -35 -15 -29 -16 -30 236 0
235 0 0 3 0 3 -11 57 -10 58 6 18 5 18 53 -5 53 -4 16 16 17 16 9 0 10 0 6 16
6 16 0 14 0 15 -23 23 -24 24 -20 6 -21 7 -26 -12 -26 -12 -8 7 -7 8 -5 65 -5
66 -75 18 -75 18 -16 1 -16 0 -5 -6z"/>
</g>
</svg>
