<?xml version="1.0" standalone="no"?>
<!DOCTYPE svg PUBLIC "-//W3C//DTD SVG 20010904//EN"
 "http://www.w3.org/TR/2001/REC-SVG-20010904/DTD/svg10.dtd">
<svg version="1.0" xmlns="http://www.w3.org/2000/svg"
 width="62.000000pt" height="57.000000pt" viewBox="0 0 62.000000 57.000000"
 preserveAspectRatio="xMidYMid meet">
<metadata>
Created by potrace 1.16, written by Peter Selinger 2001-2019
</metadata>
<g transform="translate(0.000000,57.000000) scale(0.100000,-0.100000)"
fill="#000000" stroke="none">
<path d="M286 561 l-7 -11 6 -20 6 -19 -12 -23 -12 -23 -11 -7 -11 -8 -12 0
-12 0 -15 16 -16 15 6 40 7 39 -49 0 -49 0 -53 -6 -52 -7 0 -75 0 -75 40 7 40
6 24 -6 23 -6 12 -24 11 -25 0 -9 0 -9 -16 -16 -17 -16 -47 6 -47 6 -7 -47 -6
-47 0 -59 0 -60 37 2 38 2 33 -1 32 -1 0 -39 0 -39 31 -11 32 -11 37 0 37 0
23 20 24 21 1 40 0 41 68 -7 67 -6 15 14 14 15 6 44 6 43 5 22 4 22 30 -6 30
-6 20 23 20 23 0 22 0 23 -6 31 -6 31 -14 0 -14 0 0 11 0 12 -45 -5 -45 -6 0
69 0 69 -32 0 -33 0 -66 6 -66 7 -7 -12z"/>
</g>
</svg>
