<?xml version="1.0" standalone="no"?>
<!DOCTYPE svg PUBLIC "-//W3C//DTD SVG 20010904//EN"
 "http://www.w3.org/TR/2001/REC-SVG-20010904/DTD/svg10.dtd">
<svg version="1.0" xmlns="http://www.w3.org/2000/svg"
 width="60.000000pt" height="55.000000pt" viewBox="0 0 60.000000 55.000000"
 preserveAspectRatio="xMidYMid meet">
<metadata>
Created by potrace 1.16, written by Peter Selinger 2001-2019
</metadata>
<g transform="translate(0.000000,55.000000) scale(0.100000,-0.100000)"
fill="#000000" stroke="none">
<path d="M289 544 l-1 -9 2 -22 1 -22 -12 -23 -12 -23 -11 -7 -11 -8 -22 0
-22 0 -16 17 -17 16 6 39 6 38 -37 0 -38 0 -53 -6 -52 -7 0 -64 0 -64 34 7 34
6 30 -7 29 -6 12 -25 11 -25 0 -19 0 -19 -17 -16 -17 -17 -47 5 -46 6 -7 -46
-6 -46 0 -49 0 -49 37 2 38 3 33 -2 32 -2 0 -39 0 -39 31 -11 32 -11 27 0 27
0 24 21 24 20 -1 41 -2 41 70 -6 70 -6 14 13 13 14 6 44 6 43 5 24 5 23 31 -6
31 -6 18 22 19 21 0 12 0 13 -6 31 -6 31 -14 0 -14 0 0 11 0 11 -45 -6 -45 -7
0 70 0 71 -37 0 -38 0 -52 6 -53 7 -1 -9z"/>
</g>
</svg>
