<?xml version="1.0" standalone="no"?>
<!DOCTYPE svg PUBLIC "-//W3C//DTD SVG 20010904//EN"
 "http://www.w3.org/TR/2001/REC-SVG-20010904/DTD/svg10.dtd">
<svg version="1.0" xmlns="http://www.w3.org/2000/svg"
 width="49.000000pt" height="45.000000pt" viewBox="0 0 49.000000 45.000000"
 preserveAspectRatio="xMidYMid meet">
<metadata>
Created by potrace 1.16, written by Peter Selinger 2001-2019
</metadata>
<g transform="translate(0.000000,45.000000) scale(0.100000,-0.100000)"
fill="#000000" stroke="none">
<path d="M17 386 l4 -61 5 -24 5 -23 32 6 32 7 17 0 18 0 25 -26 26 -25 -6
-20 -6 -20 -10 0 -10 0 -17 -16 -16 -16 -52 6 -53 6 -6 -21 -7 -21 7 -46 6
-47 6 -23 5 -22 229 0 229 0 0 22 0 22 -22 69 -23 68 -32 -3 -32 -4 -11 27
-12 27 13 24 12 23 10 7 11 7 17 -10 18 -9 24 0 25 0 6 16 6 16 0 64 0 64 -8
0 -8 0 -57 -20 -57 -20 -16 0 -16 0 4 -29 4 -29 -36 -12 -37 -12 -24 7 -24 8
-7 11 -7 11 5 37 6 36 -18 10 -19 10 -81 4 -82 5 5 -61z"/>
</g>
</svg>
