<?xml version="1.0" standalone="no"?>
<!DOCTYPE svg PUBLIC "-//W3C//DTD SVG 20010904//EN"
 "http://www.w3.org/TR/2001/REC-SVG-20010904/DTD/svg10.dtd">
<svg version="1.0" xmlns="http://www.w3.org/2000/svg"
 width="49.000000pt" height="57.000000pt" viewBox="0 0 49.000000 57.000000"
 preserveAspectRatio="xMidYMid meet">
<metadata>
Created by potrace 1.16, written by Peter Selinger 2001-2019
</metadata>
<g transform="translate(0.000000,57.000000) scale(0.100000,-0.100000)"
fill="#000000" stroke="none">
<path d="M17 563 l-7 -6 0 -74 0 -73 53 6 52 6 23 -20 22 -19 0 -16 0 -15 -6
-16 -6 -15 -33 -11 -32 -11 -42 10 -41 9 0 -57 0 -56 6 -37 7 -38 68 0 68 0
10 -18 10 -18 -10 -15 -9 -14 0 -11 0 -11 19 -21 18 -22 25 0 25 0 31 11 31
11 10 31 11 32 -9 33 -10 33 16 6 16 6 53 -11 52 -11 20 6 20 5 6 48 6 48 -12
27 -12 27 -38 -6 -38 -6 -24 6 -24 6 -12 28 -12 28 11 21 11 20 49 -2 49 -2
21 24 21 24 0 64 0 63 -228 0 -229 0 -6 -7z"/>
</g>
</svg>
