<?xml version="1.0" standalone="no"?>
<!DOCTYPE svg PUBLIC "-//W3C//DTD SVG 20010904//EN"
 "http://www.w3.org/TR/2001/REC-SVG-20010904/DTD/svg10.dtd">
<svg version="1.0" xmlns="http://www.w3.org/2000/svg"
 width="47.000000pt" height="43.000000pt" viewBox="0 0 47.000000 43.000000"
 preserveAspectRatio="xMidYMid meet">
<metadata>
Created by potrace 1.16, written by Peter Selinger 2001-2019
</metadata>
<g transform="translate(0.000000,43.000000) scale(0.100000,-0.100000)"
fill="#000000" stroke="none">
<path d="M20 363 l0 -58 9 -14 10 -15 26 12 27 13 21 -7 20 -6 24 -24 23 -23
0 -15 0 -14 -6 -16 -6 -16 -10 0 -9 0 -17 -16 -16 -16 -53 4 -53 5 -5 -18 -6
-18 10 -58 11 -57 0 -3 0 -3 220 0 220 0 0 12 0 12 -22 69 -23 68 -31 -6 -31
-5 -11 25 -12 26 0 14 0 14 11 25 12 25 15 6 15 5 34 -12 34 -12 9 14 10 15 0
57 0 56 -55 -19 -55 -19 -16 0 -16 0 7 -28 6 -29 -40 -13 -39 -13 -35 7 -36 7
-6 20 -6 19 6 30 6 29 -20 10 -20 11 -65 0 -66 0 0 -57z"/>
</g>
</svg>
