<?xml version="1.0" standalone="no"?>
<!DOCTYPE svg PUBLIC "-//W3C//DTD SVG 20010904//EN"
 "http://www.w3.org/TR/2001/REC-SVG-20010904/DTD/svg10.dtd">
<svg version="1.0" xmlns="http://www.w3.org/2000/svg"
 width="51.000000pt" height="59.000000pt" viewBox="0 0 51.000000 59.000000"
 preserveAspectRatio="xMidYMid meet">
<metadata>
Created by potrace 1.16, written by Peter Selinger 2001-2019
</metadata>
<g transform="translate(0.000000,59.000000) scale(0.100000,-0.100000)"
fill="#000000" stroke="none">
<path d="M17 583 l-7 -6 0 -85 0 -84 53 6 53 7 23 -20 23 -20 -7 -20 -6 -19
-28 -10 -29 -10 -39 9 -38 9 -7 0 -8 0 0 -67 0 -68 6 -37 6 -37 72 -3 71 -3
-3 -40 -3 -41 19 -22 19 -22 35 0 35 0 31 11 31 11 11 33 11 34 -7 35 -6 36
18 0 19 0 38 -11 38 -10 29 6 28 6 7 55 7 56 -13 30 -12 30 -44 -5 -45 -5 -18
5 -18 5 -10 22 -10 23 9 14 8 14 50 0 49 0 21 24 21 24 0 74 0 73 -238 0 -239
0 -6 -7z"/>
</g>
</svg>
