<?xml version="1.0" standalone="no"?>
<!DOCTYPE svg PUBLIC "-//W3C//DTD SVG 20010904//EN"
 "http://www.w3.org/TR/2001/REC-SVG-20010904/DTD/svg10.dtd">
<svg version="1.0" xmlns="http://www.w3.org/2000/svg"
 width="52.000000pt" height="68.000000pt" viewBox="0 0 52.000000 68.000000"
 preserveAspectRatio="xMidYMid meet">
<metadata>
Created by potrace 1.16, written by Peter Selinger 2001-2019
</metadata>
<g transform="translate(0.000000,68.000000) scale(0.100000,-0.100000)"
fill="#000000" stroke="none">
<path d="M188 673 l-18 -4 0 -9 0 -9 11 -25 12 -25 -14 -14 -14 -14 -24 -12
-23 -13 -59 7 -59 7 0 -92 0 -91 14 -15 15 -14 48 3 48 2 0 -20 0 -20 -37 -3
-37 -3 -10 -36 -10 -36 -12 -55 -13 -54 15 -9 14 -9 46 0 46 0 32 -6 31 -6 0
-35 0 -34 14 -15 15 -14 40 0 41 0 0 10 0 10 11 0 10 0 16 15 15 16 -4 44 -3
45 30 0 30 -1 25 -14 25 -14 21 -1 22 0 6 16 6 16 0 66 0 67 -9 14 -9 14 -39
-5 -38 -5 -13 13 -12 13 0 31 0 30 49 0 50 0 15 16 16 15 -1 27 0 27 -7 45 -7
45 -87 -3 -87 -4 -13 13 -14 12 4 32 4 33 -11 21 -12 21 -42 -1 -42 -1 -17 -5z"/>
</g>
</svg>
