<?xml version="1.0" standalone="no"?>
<!DOCTYPE svg PUBLIC "-//W3C//DTD SVG 20010904//EN"
 "http://www.w3.org/TR/2001/REC-SVG-20010904/DTD/svg10.dtd">
<svg version="1.0" xmlns="http://www.w3.org/2000/svg"
 width="50.000000pt" height="66.000000pt" viewBox="0 0 50.000000 66.000000"
 preserveAspectRatio="xMidYMid meet">
<metadata>
Created by potrace 1.16, written by Peter Selinger 2001-2019
</metadata>
<g transform="translate(0.000000,66.000000) scale(0.100000,-0.100000)"
fill="#000000" stroke="none">
<path d="M188 652 l-17 -7 9 -15 10 -15 0 -19 0 -19 -22 -19 -22 -19 -23 -5
-24 -6 -50 6 -49 7 0 -81 0 -81 13 -13 12 -13 50 1 50 1 0 -30 0 -30 -37 -3
-38 -3 -10 -42 -11 -42 -10 -39 -11 -39 14 -8 13 -9 55 -1 55 -1 25 -7 25 -7
-3 -32 -3 -32 15 -15 15 -15 30 0 31 0 0 10 0 10 11 0 10 0 16 15 15 15 -4 48
-3 47 35 -3 35 -3 38 -16 39 -17 9 15 9 14 0 60 0 60 -9 14 -9 14 -36 -7 -36
-7 -15 15 -15 15 0 40 0 41 49 0 50 0 16 16 16 17 -7 56 -7 56 -3 4 -4 4 -85
-2 -85 -2 -15 15 -15 14 6 30 6 30 -11 21 -12 21 -32 -1 -32 0 -17 -7z"/>
</g>
</svg>
