<?xml version="1.0" standalone="no"?>
<!DOCTYPE svg PUBLIC "-//W3C//DTD SVG 20010904//EN"
 "http://www.w3.org/TR/2001/REC-SVG-20010904/DTD/svg10.dtd">
<svg version="1.0" xmlns="http://www.w3.org/2000/svg"
 width="50.000000pt" height="67.000000pt" viewBox="0 0 50.000000 67.000000"
 preserveAspectRatio="xMidYMid meet">
<metadata>
Created by potrace 1.16, written by Peter Selinger 2001-2019
</metadata>
<g transform="translate(0.000000,67.000000) scale(0.100000,-0.100000)"
fill="#000000" stroke="none">
<path d="M187 664 l-7 -7 6 -37 6 -37 -32 -12 -33 -11 -63 0 -64 0 0 -68 0
-68 14 -19 13 -18 48 6 48 7 18 -22 19 -21 0 -8 0 -8 -12 -26 -11 -25 -11 -1
-11 -1 -32 2 -31 1 -6 -18 -5 -18 -11 -42 -11 -43 -9 0 -10 0 0 -19 0 -19 16
-6 16 -6 71 0 72 0 -3 -50 -4 -50 16 0 16 0 0 -10 0 -10 35 0 34 0 27 27 26
26 -5 44 -5 44 54 -7 54 -6 25 6 25 6 0 20 0 19 -9 23 -9 23 -17 43 -18 42
-29 0 -28 0 0 23 0 22 9 14 9 14 46 -7 46 -7 15 15 15 15 0 34 0 34 -7 48 -6
47 -91 -6 -91 -7 -11 8 -11 8 1 50 1 50 -45 3 -46 3 -7 -7z"/>
</g>
</svg>
