<?xml version="1.0" standalone="no"?>
<!DOCTYPE svg PUBLIC "-//W3C//DTD SVG 20010904//EN"
 "http://www.w3.org/TR/2001/REC-SVG-20010904/DTD/svg10.dtd">
<svg version="1.0" xmlns="http://www.w3.org/2000/svg"
 width="48.000000pt" height="65.000000pt" viewBox="0 0 48.000000 65.000000"
 preserveAspectRatio="xMidYMid meet">
<metadata>
Created by potrace 1.16, written by Peter Selinger 2001-2019
</metadata>
<g transform="translate(0.000000,65.000000) scale(0.100000,-0.100000)"
fill="#000000" stroke="none">
<path d="M189 643 l-1 -8 2 -36 1 -37 -32 -11 -32 -11 -63 0 -64 0 0 -56 0
-55 11 -20 11 -21 49 7 50 7 19 -23 20 -22 0 -19 0 -19 -11 -22 -12 -22 -11
-7 -11 -8 -32 6 -32 6 -10 -39 -11 -38 0 -12 0 -12 -17 -16 -16 -17 14 -9 14
-9 77 0 77 0 -6 -50 -6 -50 17 0 16 0 0 -10 0 -10 25 0 24 0 26 26 27 27 -5
26 -4 26 -4 15 -4 15 70 -3 70 -2 13 9 14 8 -15 44 -15 44 -13 28 -12 27 -26
-2 -26 -3 -3 24 -4 23 7 25 6 26 52 -6 52 -5 13 14 12 13 0 24 0 24 -6 47 -7
48 -82 -7 -82 -7 -22 7 -21 6 2 52 3 52 -37 3 -38 3 -1 -8z"/>
</g>
</svg>
