<?xml version="1.0" standalone="no"?>
<!DOCTYPE svg PUBLIC "-//W3C//DTD SVG 20010904//EN"
 "http://www.w3.org/TR/2001/REC-SVG-20010904/DTD/svg10.dtd">
<svg version="1.0" xmlns="http://www.w3.org/2000/svg"
 width="61.000000pt" height="66.000000pt" viewBox="0 0 61.000000 66.000000"
 preserveAspectRatio="xMidYMid meet">
<metadata>
Created by potrace 1.16, written by Peter Selinger 2001-2019
</metadata>
<g transform="translate(0.000000,66.000000) scale(0.100000,-0.100000)"
fill="#000000" stroke="none">
<path d="M328 649 l-18 -10 0 -39 0 -39 -21 -6 -21 -7 -70 7 -71 7 7 -75 8
-75 -59 5 -59 5 -12 -26 -12 -27 0 -18 0 -18 20 -23 20 -23 65 5 65 6 0 -29 0
-28 -16 -47 -16 -47 14 -8 13 -9 58 0 58 0 20 -11 20 -10 -6 -29 -6 -30 6 -19
6 -20 36 -7 35 -7 39 13 40 13 -6 27 -6 27 33 7 33 6 40 16 41 15 -4 72 -3 72
-4 13 -5 13 -21 -11 -21 -12 -31 13 -32 13 -17 19 -18 20 0 33 0 33 22 21 22
20 15 -4 16 -5 29 -7 28 -7 9 14 9 14 0 58 0 57 -63 0 -64 0 -21 18 -21 19 2
29 2 29 -45 2 -45 3 -17 -11z"/>
</g>
</svg>
