<?xml version="1.0" standalone="no"?>
<!DOCTYPE svg PUBLIC "-//W3C//DTD SVG 20010904//EN"
 "http://www.w3.org/TR/2001/REC-SVG-20010904/DTD/svg10.dtd">
<svg version="1.0" xmlns="http://www.w3.org/2000/svg"
 width="63.000000pt" height="68.000000pt" viewBox="0 0 63.000000 68.000000"
 preserveAspectRatio="xMidYMid meet">
<metadata>
Created by potrace 1.16, written by Peter Selinger 2001-2019
</metadata>
<g transform="translate(0.000000,68.000000) scale(0.100000,-0.100000)"
fill="#000000" stroke="none">
<path d="M328 669 l-18 -10 0 -38 0 -39 -17 -6 -16 -7 -75 7 -75 7 6 -74 6
-74 -57 3 -58 4 -12 -27 -12 -26 0 -28 0 -28 19 -22 20 -23 65 4 66 3 0 -20
-1 -20 -14 -40 -15 -40 0 -16 0 -17 16 -6 16 -6 56 0 57 0 15 -10 14 -9 -2
-38 -2 -38 8 -13 9 -14 42 -5 42 -6 40 13 41 14 -4 27 -4 27 30 6 31 6 41 16
42 16 -5 86 -5 87 -9 9 -8 9 -23 -10 -23 -10 -25 11 -25 10 -17 20 -18 19 0
23 0 23 16 16 17 16 50 -6 49 -7 9 13 9 14 0 68 0 67 -63 0 -64 0 -19 18 -19
17 0 30 0 30 -55 2 -55 3 -17 -11z"/>
</g>
</svg>
