<?xml version="1.0" standalone="no"?>
<!DOCTYPE svg PUBLIC "-//W3C//DTD SVG 20010904//EN"
 "http://www.w3.org/TR/2001/REC-SVG-20010904/DTD/svg10.dtd">
<svg version="1.0" xmlns="http://www.w3.org/2000/svg"
 width="46.000000pt" height="46.000000pt" viewBox="0 0 46.000000 46.000000"
 preserveAspectRatio="xMidYMid meet">
<metadata>
Created by potrace 1.16, written by Peter Selinger 2001-2019
</metadata>
<g transform="translate(0.000000,46.000000) scale(0.100000,-0.100000)"
fill="#000000" stroke="none">
<path d="M286 452 l-5 -8 10 -14 9 -15 0 -22 0 -22 -25 -26 -26 -25 -24 0 -25
0 0 10 0 10 -16 0 -17 0 6 50 6 50 -74 0 -73 0 -17 6 -16 6 3 -88 3 -89 40 3
41 3 22 -19 22 -19 0 -20 0 -20 -20 -23 -19 -22 -36 6 -35 7 -4 -13 -4 -13 -6
-67 -6 -67 55 -6 55 -7 25 6 25 6 0 40 0 39 20 11 21 11 42 -3 42 -3 -2 -29
-2 -29 21 -19 21 -18 64 0 64 0 -9 18 -9 17 -13 63 -13 63 -27 -6 -26 -6 -22
19 -22 19 0 31 0 30 18 7 17 7 34 8 34 8 23 -9 24 -9 -1 38 -1 37 -6 53 -7 53
-77 5 -77 4 -5 -8z"/>
</g>
</svg>
