<?xml version="1.0" standalone="no"?>
<!DOCTYPE svg PUBLIC "-//W3C//DTD SVG 20010904//EN"
 "http://www.w3.org/TR/2001/REC-SVG-20010904/DTD/svg10.dtd">
<svg version="1.0" xmlns="http://www.w3.org/2000/svg"
 width="50.000000pt" height="48.000000pt" viewBox="0 0 50.000000 48.000000"
 preserveAspectRatio="xMidYMid meet">
<metadata>
Created by potrace 1.16, written by Peter Selinger 2001-2019
</metadata>
<g transform="translate(0.000000,48.000000) scale(0.100000,-0.100000)"
fill="#000000" stroke="none">
<path d="M305 469 l-5 -14 8 -30 9 -30 -9 -27 -9 -27 -31 -10 -31 -11 -15 0
-15 0 -18 21 -18 21 10 20 11 21 -11 23 -11 24 -80 0 -80 0 0 -76 0 -77 45 6
45 7 0 -10 0 -10 15 0 15 0 0 -12 0 -13 6 -20 5 -21 -18 -19 -18 -20 -32 3
-32 3 -5 -23 -5 -23 -6 -48 -6 -47 -10 0 -9 0 0 -19 0 -19 23 -6 22 -6 43 0
43 0 22 12 22 11 13 14 14 14 -4 34 -4 34 14 6 14 5 18 0 19 0 11 -19 10 -19
-6 -31 -6 -30 15 -16 16 -15 90 0 91 0 0 30 0 29 -9 23 -9 23 -17 43 -18 42
-17 0 -18 0 -4 23 -4 22 3 15 4 16 35 -4 35 -4 19 22 20 23 0 84 0 84 -32 -1
-33 -1 -62 7 -63 7 -5 -14z"/>
</g>
</svg>
