<?xml version="1.0" standalone="no"?>
<!DOCTYPE svg PUBLIC "-//W3C//DTD SVG 20010904//EN"
 "http://www.w3.org/TR/2001/REC-SVG-20010904/DTD/svg10.dtd">
<svg version="1.0" xmlns="http://www.w3.org/2000/svg"
 width="48.000000pt" height="46.000000pt" viewBox="0 0 48.000000 46.000000"
 preserveAspectRatio="xMidYMid meet">
<metadata>
Created by potrace 1.16, written by Peter Selinger 2001-2019
</metadata>
<g transform="translate(0.000000,46.000000) scale(0.100000,-0.100000)"
fill="#000000" stroke="none">
<path d="M308 455 l-6 -7 9 -31 9 -32 -11 -32 -10 -31 -31 -11 -31 -11 -25 0
-25 0 -18 22 -19 21 0 11 0 11 9 14 10 15 -10 18 -10 18 -69 0 -70 0 0 -66 0
-65 45 7 45 6 0 -11 0 -11 14 0 13 0 7 -31 6 -32 0 -12 0 -12 -19 -21 -18 -22
-31 6 -31 6 -5 -23 -5 -24 -6 -45 -6 -44 -12 -8 -11 -7 6 -6 6 -7 41 -5 40 -5
24 5 23 6 22 19 22 19 0 19 0 19 -10 15 -9 15 17 7 17 7 32 0 32 1 12 -21 11
-21 -6 -30 -6 -30 14 -14 15 -14 80 0 81 0 0 20 0 19 -9 23 -9 23 -17 43 -18
42 -17 0 -17 0 -6 29 -6 28 6 22 5 21 35 -6 34 -6 19 22 20 23 0 73 0 73 -32
-1 -33 -1 -50 8 -50 7 -7 -7z"/>
</g>
</svg>
