<?xml version="1.0" standalone="no"?>
<!DOCTYPE svg PUBLIC "-//W3C//DTD SVG 20010904//EN"
 "http://www.w3.org/TR/2001/REC-SVG-20010904/DTD/svg10.dtd">
<svg version="1.0" xmlns="http://www.w3.org/2000/svg"
 width="48.000000pt" height="48.000000pt" viewBox="0 0 48.000000 48.000000"
 preserveAspectRatio="xMidYMid meet">
<metadata>
Created by potrace 1.16, written by Peter Selinger 2001-2019
</metadata>
<g transform="translate(0.000000,48.000000) scale(0.100000,-0.100000)"
fill="#000000" stroke="none">
<path d="M284 466 l-6 -14 11 -21 11 -20 0 -10 0 -10 -25 -26 -26 -25 -14 0
-15 0 0 10 0 10 -16 0 -16 0 7 50 7 50 -70 0 -69 0 -32 6 -32 7 3 -99 3 -99
46 0 45 0 17 -17 17 -17 0 -9 0 -9 -18 -20 -17 -21 -40 2 -40 1 -8 -84 -8 -83
4 -4 4 -4 60 -6 61 -7 26 7 26 6 0 40 0 39 20 11 21 11 32 -3 32 -3 -3 -28 -4
-28 23 -20 22 -19 75 0 74 0 -7 23 -6 22 -16 68 -16 67 -32 -2 -33 -2 -16 16
-16 17 0 19 0 20 30 12 31 13 44 -6 45 -7 -1 48 -1 47 -6 54 -7 55 -88 3 -88
3 -5 -14z"/>
</g>
</svg>
