<?xml version="1.0" standalone="no"?>
<!DOCTYPE svg PUBLIC "-//W3C//DTD SVG 20010904//EN"
 "http://www.w3.org/TR/2001/REC-SVG-20010904/DTD/svg10.dtd">
<svg version="1.0" xmlns="http://www.w3.org/2000/svg"
 width="61.000000pt" height="49.000000pt" viewBox="0 0 61.000000 49.000000"
 preserveAspectRatio="xMidYMid meet">
<metadata>
Created by potrace 1.16, written by Peter Selinger 2001-2019
</metadata>
<g transform="translate(0.000000,49.000000) scale(0.100000,-0.100000)"
fill="#000000" stroke="none">
<path d="M317 483 l-6 -6 6 -43 6 -43 -16 -15 -16 -16 -10 0 -11 0 0 -10 0
-10 -31 0 -30 0 -16 15 -15 16 4 30 5 30 -9 5 -10 6 -79 7 -79 7 0 -78 0 -77
19 -10 18 -10 33 9 33 10 24 -6 23 -6 0 -17 0 -16 -6 -22 -6 -21 -29 -12 -29
-13 -40 7 -40 6 -1 -80 -2 -80 -1 -12 -1 -13 60 -3 60 -3 38 11 38 11 -3 42
-3 42 40 0 40 0 -3 -52 -3 -52 27 -7 26 -7 64 7 64 7 15 5 15 6 -6 9 -5 9 10
33 10 32 5 26 5 25 19 22 19 21 28 -2 29 -2 10 26 9 27 -6 16 -6 16 -65 0 -64
0 -6 16 -6 16 0 67 0 68 -37 16 -38 15 -31 6 -32 5 -5 -6z"/>
</g>
</svg>
