<?xml version="1.0" standalone="no"?>
<!DOCTYPE svg PUBLIC "-//W3C//DTD SVG 20010904//EN"
 "http://www.w3.org/TR/2001/REC-SVG-20010904/DTD/svg10.dtd">
<svg version="1.0" xmlns="http://www.w3.org/2000/svg"
 width="63.000000pt" height="51.000000pt" viewBox="0 0 63.000000 51.000000"
 preserveAspectRatio="xMidYMid meet">
<metadata>
Created by potrace 1.16, written by Peter Selinger 2001-2019
</metadata>
<g transform="translate(0.000000,51.000000) scale(0.100000,-0.100000)"
fill="#000000" stroke="none">
<path d="M315 500 l-7 -11 7 -39 7 -40 -15 -15 -16 -15 -10 0 -11 0 0 -10 0
-10 -21 0 -20 0 -15 14 -14 15 2 32 3 32 -30 8 -30 7 -67 5 -68 5 0 -89 0 -88
20 -11 20 -11 38 8 37 7 15 -3 15 -3 3 -3 3 -3 -6 -25 -7 -24 -25 -12 -26 -12
-42 7 -43 6 -4 -99 -5 -98 4 -7 4 -8 73 0 73 0 32 11 31 11 0 45 0 44 28 -3
27 -3 -3 -52 -4 -52 27 -7 27 -7 73 6 72 6 17 7 17 6 -2 17 -2 16 6 25 6 25 5
26 5 25 18 20 18 19 27 -3 27 -3 11 21 11 21 -3 32 -3 32 -65 3 -64 3 -8 12
-8 12 0 71 0 71 -37 16 -38 16 -41 6 -42 6 -7 -11z"/>
</g>
</svg>
