<?xml version="1.0" standalone="no"?>
<!DOCTYPE svg PUBLIC "-//W3C//DTD SVG 20010904//EN"
 "http://www.w3.org/TR/2001/REC-SVG-20010904/DTD/svg10.dtd">
<svg version="1.0" xmlns="http://www.w3.org/2000/svg"
 width="60.000000pt" height="59.000000pt" viewBox="0 0 60.000000 59.000000"
 preserveAspectRatio="xMidYMid meet">
<metadata>
Created by potrace 1.16, written by Peter Selinger 2001-2019
</metadata>
<g transform="translate(0.000000,59.000000) scale(0.100000,-0.100000)"
fill="#000000" stroke="none">
<path d="M568 585 l-5 -6 -79 -7 -79 -7 2 -41 2 -42 -22 -9 -22 -10 -22 10
-22 10 -3 46 -3 46 -97 3 -98 3 0 -64 0 -64 -18 -21 -19 -21 -35 5 -35 6 -7
-27 -7 -26 7 -35 6 -34 18 0 17 0 16 -37 16 -38 17 -48 17 -48 91 3 90 3 -3
-48 -3 -48 23 -20 22 -19 17 0 17 0 31 11 31 11 7 34 6 34 -5 20 -5 19 28 6
28 6 35 -6 35 -7 21 7 21 6 0 225 0 224 -13 0 -14 0 -5 -5z"/>
</g>
</svg>
