<?xml version="1.0" standalone="no"?>
<!DOCTYPE svg PUBLIC "-//W3C//DTD SVG 20010904//EN"
 "http://www.w3.org/TR/2001/REC-SVG-20010904/DTD/svg10.dtd">
<svg version="1.0" xmlns="http://www.w3.org/2000/svg"
 width="58.000000pt" height="57.000000pt" viewBox="0 0 58.000000 57.000000"
 preserveAspectRatio="xMidYMid meet">
<metadata>
Created by potrace 1.16, written by Peter Selinger 2001-2019
</metadata>
<g transform="translate(0.000000,57.000000) scale(0.100000,-0.100000)"
fill="#000000" stroke="none">
<path d="M569 565 l-6 -6 -79 -7 -79 -7 3 -41 3 -41 -29 -12 -29 -12 -26 12
-26 12 -3 46 -3 46 -87 3 -88 3 0 -64 0 -64 -20 -23 -19 -22 -34 6 -35 6 -5
-21 -6 -22 6 -28 6 -29 17 0 17 0 16 -37 16 -38 17 -48 17 -47 91 2 91 3 -3
-48 -4 -48 23 -20 22 -19 7 0 7 0 31 11 31 11 6 27 6 28 -6 26 -7 25 32 7 32
7 41 -6 42 -6 13 8 12 8 -2 213 -3 213 -6 -7z"/>
</g>
</svg>
