<?xml version="1.0" standalone="no"?>
<!DOCTYPE svg PUBLIC "-//W3C//DTD SVG 20010904//EN"
 "http://www.w3.org/TR/2001/REC-SVG-20010904/DTD/svg10.dtd">
<svg version="1.0" xmlns="http://www.w3.org/2000/svg"
 width="62.000000pt" height="58.000000pt" viewBox="0 0 62.000000 58.000000"
 preserveAspectRatio="xMidYMid meet">
<metadata>
Created by potrace 1.16, written by Peter Selinger 2001-2019
</metadata>
<g transform="translate(0.000000,58.000000) scale(0.100000,-0.100000)"
fill="#000000" stroke="none">
<path d="M336 564 l-16 -15 -2 -22 -1 -22 2 -26 2 -26 -16 -13 -15 -13 -59 6
-58 6 -18 7 -17 7 7 -92 7 -91 -25 9 -24 9 -34 -8 -34 -8 -17 -7 -18 -7 0 -30
0 -31 22 -19 22 -19 27 6 27 6 13 -65 13 -66 6 -11 7 -10 39 -9 39 -10 51 0
52 0 6 16 6 16 0 42 0 42 13 18 13 18 34 -4 35 -3 3 -42 3 -41 17 -7 17 -7 63
-14 63 -13 14 6 15 5 0 204 0 205 -17 -9 -18 -10 -42 -7 -43 -7 -30 7 -31 7 7
56 6 57 -20 23 -19 22 -31 0 -31 0 -15 -16z"/>
</g>
</svg>
