<?xml version="1.0" standalone="no"?>
<!DOCTYPE svg PUBLIC "-//W3C//DTD SVG 20010904//EN"
 "http://www.w3.org/TR/2001/REC-SVG-20010904/DTD/svg10.dtd">
<svg version="1.0" xmlns="http://www.w3.org/2000/svg"
 width="63.000000pt" height="61.000000pt" viewBox="0 0 63.000000 61.000000"
 preserveAspectRatio="xMidYMid meet">
<metadata>
Created by potrace 1.16, written by Peter Selinger 2001-2019
</metadata>
<g transform="translate(0.000000,61.000000) scale(0.100000,-0.100000)"
fill="#000000" stroke="none">
<path d="M351 591 l-11 -20 0 -43 0 -43 -9 -14 -9 -14 -86 7 -86 6 0 -57 0
-58 -9 -14 -9 -14 -28 7 -29 7 -16 5 -15 4 -22 -20 -22 -21 0 -33 0 -33 17
-20 18 -19 32 -13 31 -13 20 11 19 10 7 -6 6 -6 0 -68 0 -69 26 -6 26 -7 64 6
65 5 20 23 20 23 -6 23 -5 23 34 0 35 0 11 -19 10 -19 -6 -46 -7 -45 27 -7 26
-6 70 21 70 22 0 225 0 226 -15 -5 -14 -6 -63 13 -63 14 -17 7 -17 7 -3 41 -3
42 -37 3 -37 3 -10 -20z"/>
</g>
</svg>
