<?xml version="1.0" standalone="no"?>
<!DOCTYPE svg PUBLIC "-//W3C//DTD SVG 20010904//EN"
 "http://www.w3.org/TR/2001/REC-SVG-20010904/DTD/svg10.dtd">
<svg version="1.0" xmlns="http://www.w3.org/2000/svg"
 width="64.000000pt" height="60.000000pt" viewBox="0 0 64.000000 60.000000"
 preserveAspectRatio="xMidYMid meet">
<metadata>
Created by potrace 1.16, written by Peter Selinger 2001-2019
</metadata>
<g transform="translate(0.000000,60.000000) scale(0.100000,-0.100000)"
fill="#000000" stroke="none">
<path d="M343 593 l-13 -5 -10 -39 -11 -40 6 -18 5 -18 -15 -13 -15 -13 -43 6
-42 6 -34 7 -34 7 6 -84 7 -84 -44 -1 -44 -1 -31 -13 -31 -12 0 -41 0 -40 22
-19 23 -20 27 4 27 4 12 -63 13 -63 6 -11 7 -10 39 -9 39 -10 61 0 62 0 6 16
6 16 0 42 0 42 13 18 13 18 25 -4 24 -3 3 -42 3 -41 27 -10 27 -10 57 -12 58
-11 20 6 20 6 0 216 0 215 -22 -7 -23 -6 -39 -10 -39 -10 -28 6 -27 6 5 57 5
57 -20 23 -19 22 -39 -1 -39 -1 -12 -5z"/>
</g>
</svg>
