<?xml version="1.0" standalone="no"?>
<!DOCTYPE svg PUBLIC "-//W3C//DTD SVG 20010904//EN"
 "http://www.w3.org/TR/2001/REC-SVG-20010904/DTD/svg10.dtd">
<svg version="1.0" xmlns="http://www.w3.org/2000/svg"
 width="62.000000pt" height="52.000000pt" viewBox="0 0 62.000000 52.000000"
 preserveAspectRatio="xMidYMid meet">
<metadata>
Created by potrace 1.16, written by Peter Selinger 2001-2019
</metadata>
<g transform="translate(0.000000,52.000000) scale(0.100000,-0.100000)"
fill="#000000" stroke="none">
<path d="M359 518 l-1 -3 -2 -26 -2 -26 -18 -19 -19 -18 -81 -1 -81 0 -7 -10
-8 -10 0 -55 0 -55 -10 -15 -9 -14 -34 12 -34 12 -15 -5 -15 -6 -12 -25 -11
-25 0 -14 0 -14 12 -26 11 -25 31 5 31 6 26 -78 26 -78 241 -3 242 -2 0 211 0
211 -15 -6 -16 -6 -55 -16 -55 -16 -26 7 -26 6 7 45 6 46 -10 19 -11 19 -29 0
-30 0 -1 -2z"/>
</g>
</svg>
