<?xml version="1.0" standalone="no"?>
<!DOCTYPE svg PUBLIC "-//W3C//DTD SVG 20010904//EN"
 "http://www.w3.org/TR/2001/REC-SVG-20010904/DTD/svg10.dtd">
<svg version="1.0" xmlns="http://www.w3.org/2000/svg"
 width="64.000000pt" height="54.000000pt" viewBox="0 0 64.000000 54.000000"
 preserveAspectRatio="xMidYMid meet">
<metadata>
Created by potrace 1.16, written by Peter Selinger 2001-2019
</metadata>
<g transform="translate(0.000000,54.000000) scale(0.100000,-0.100000)"
fill="#000000" stroke="none">
<path d="M354 525 l-6 -14 6 -9 6 -9 -21 -24 -21 -24 -81 0 -82 0 -7 -10 -8
-10 0 -55 0 -55 -9 -13 -8 -13 -26 12 -26 12 -24 -6 -24 -7 -11 -25 -12 -26 0
-24 0 -24 12 -27 12 -26 31 5 30 5 26 -77 26 -76 251 -3 252 -2 0 220 0 220
-12 0 -13 0 -64 -20 -64 -20 -19 6 -19 6 6 43 7 43 -11 21 -12 21 -40 0 -40 0
-5 -15z"/>
</g>
</svg>
