<?xml version="1.0" standalone="no"?>
<!DOCTYPE svg PUBLIC "-//W3C//DTD SVG 20010904//EN"
 "http://www.w3.org/TR/2001/REC-SVG-20010904/DTD/svg10.dtd">
<svg version="1.0" xmlns="http://www.w3.org/2000/svg"
 width="65.000000pt" height="63.000000pt" viewBox="0 0 65.000000 63.000000"
 preserveAspectRatio="xMidYMid meet">
<metadata>
Created by potrace 1.16, written by Peter Selinger 2001-2019
</metadata>
<g transform="translate(0.000000,63.000000) scale(0.100000,-0.100000)"
fill="#000000" stroke="none">
<path d="M351 611 l-11 -20 0 -43 0 -43 -9 -14 -9 -14 -86 8 -86 7 0 -59 0
-58 -8 -12 -8 -13 -34 10 -35 10 -11 0 -10 0 -22 -20 -22 -21 0 -43 0 -43 17
-20 18 -19 32 -13 33 -13 25 6 25 6 0 -70 0 -70 26 -6 25 -7 75 5 74 5 20 23
20 23 0 24 0 23 20 0 19 0 9 -16 9 -17 -5 -44 -5 -45 14 -9 14 -9 26 0 27 0
66 20 66 21 0 235 0 235 -22 -2 -23 -3 -45 8 -45 7 -27 11 -27 10 -3 41 -3 42
-47 3 -47 3 -10 -20z"/>
</g>
</svg>
