<?xml version="1.0" standalone="no"?>
<!DOCTYPE svg PUBLIC "-//W3C//DTD SVG 20010904//EN"
 "http://www.w3.org/TR/2001/REC-SVG-20010904/DTD/svg10.dtd">
<svg version="1.0" xmlns="http://www.w3.org/2000/svg"
 width="50.000000pt" height="68.000000pt" viewBox="0 0 50.000000 68.000000"
 preserveAspectRatio="xMidYMid meet">
<metadata>
Created by potrace 1.16, written by Peter Selinger 2001-2019
</metadata>
<g transform="translate(0.000000,68.000000) scale(0.100000,-0.100000)"
fill="#000000" stroke="none">
<path d="M184 635 l7 -45 -17 -18 -18 -17 -78 0 -78 1 0 -77 0 -77 6 -16 6
-16 64 0 65 0 5 -14 6 -14 -11 -20 -10 -19 -26 5 -26 4 -20 -23 -20 -23 -5
-25 -5 -26 -9 -31 -10 -30 0 -17 0 -17 22 -5 23 -5 60 -2 60 -3 6 -42 5 -43 7
-6 7 -7 50 -5 50 -5 31 34 31 33 -5 43 -4 42 31 -6 31 -6 17 -8 17 -9 19 0 20
0 6 16 6 16 0 207 0 208 -57 7 -58 7 -37 10 -38 10 0 24 0 23 -6 16 -6 16 -60
0 -60 0 6 -45z"/>
</g>
</svg>
