<?xml version="1.0" standalone="no"?>
<!DOCTYPE svg PUBLIC "-//W3C//DTD SVG 20010904//EN"
 "http://www.w3.org/TR/2001/REC-SVG-20010904/DTD/svg10.dtd">
<svg version="1.0" xmlns="http://www.w3.org/2000/svg"
 width="48.000000pt" height="66.000000pt" viewBox="0 0 48.000000 66.000000"
 preserveAspectRatio="xMidYMid meet">
<metadata>
Created by potrace 1.16, written by Peter Selinger 2001-2019
</metadata>
<g transform="translate(0.000000,66.000000) scale(0.100000,-0.100000)"
fill="#000000" stroke="none">
<path d="M186 616 l7 -45 -19 -18 -18 -18 -78 0 -78 0 0 -67 0 -66 6 -16 6
-16 64 0 65 0 6 -16 6 -16 -9 -27 -10 -26 -29 2 -28 2 -19 -21 -19 -22 -5 -25
-5 -26 -10 -34 -11 -33 13 -9 14 -9 62 0 61 0 15 -6 15 -6 -4 -31 -5 -32 9
-13 9 -14 41 -5 42 -6 31 34 31 33 -5 25 -4 26 -4 15 -4 15 40 -2 40 -3 28
-12 29 -11 9 14 9 14 0 201 0 201 -57 7 -58 7 -37 10 -38 10 0 24 0 23 -6 16
-6 16 -49 0 -49 0 6 -44z"/>
</g>
</svg>
