<?xml version="1.0" standalone="no"?>
<!DOCTYPE svg PUBLIC "-//W3C//DTD SVG 20010904//EN"
 "http://www.w3.org/TR/2001/REC-SVG-20010904/DTD/svg10.dtd">
<svg version="1.0" xmlns="http://www.w3.org/2000/svg"
 width="60.000000pt" height="55.000000pt" viewBox="0 0 60.000000 55.000000"
 preserveAspectRatio="xMidYMid meet">
<metadata>
Created by potrace 1.16, written by Peter Selinger 2001-2019
</metadata>
<g transform="translate(0.000000,55.000000) scale(0.100000,-0.100000)"
fill="#000000" stroke="none">
<path d="M130 487 l0 -64 -20 -23 -20 -23 -26 12 -26 12 -19 -6 -19 -6 0 -45
0 -44 29 0 29 0 12 -32 12 -33 20 -46 20 -47 -6 -11 -7 -10 83 1 83 2 13 -7
12 -8 -6 -38 -6 -38 17 -16 16 -17 29 0 29 0 16 17 17 17 -6 54 -6 54 90 -7
90 -7 0 28 -1 29 -8 42 -8 41 -17 17 -17 17 -14 -6 -15 -5 -10 19 -10 19 0 30
0 30 33 -6 32 -5 24 21 24 21 1 63 1 62 -15 -2 -15 -1 -65 -14 -65 -14 -3 -32
-3 -32 -52 0 -52 0 -12 8 -12 7 -3 40 -3 40 -82 3 -83 3 0 -64z"/>
</g>
</svg>
