<?xml version="1.0" standalone="no"?>
<!DOCTYPE svg PUBLIC "-//W3C//DTD SVG 20010904//EN"
 "http://www.w3.org/TR/2001/REC-SVG-20010904/DTD/svg10.dtd">
<svg version="1.0" xmlns="http://www.w3.org/2000/svg"
 width="62.000000pt" height="57.000000pt" viewBox="0 0 62.000000 57.000000"
 preserveAspectRatio="xMidYMid meet">
<metadata>
Created by potrace 1.16, written by Peter Selinger 2001-2019
</metadata>
<g transform="translate(0.000000,57.000000) scale(0.100000,-0.100000)"
fill="#000000" stroke="none">
<path d="M130 507 l0 -63 -17 -21 -17 -21 -22 10 -23 11 -25 -7 -26 -6 0 -55
0 -55 29 0 29 0 12 -32 12 -33 16 -40 17 -39 -3 -18 -3 -18 86 1 85 2 7 -7 7
-7 -3 -38 -2 -38 16 -17 16 -16 39 0 39 0 16 17 17 17 -4 53 -5 53 89 -6 88
-7 0 39 -1 39 -8 42 -8 41 -16 16 -16 16 -19 0 -20 0 -6 16 -6 16 0 14 0 14
33 0 34 0 23 20 24 21 0 72 1 72 -25 -1 -25 -1 -65 -15 -65 -14 -3 -32 -3 -32
-42 0 -42 0 -12 8 -12 7 -3 40 -3 40 -92 3 -93 3 0 -64z"/>
</g>
</svg>
