<?xml version="1.0" standalone="no"?>
<!DOCTYPE svg PUBLIC "-//W3C//DTD SVG 20010904//EN"
 "http://www.w3.org/TR/2001/REC-SVG-20010904/DTD/svg10.dtd">
<svg version="1.0" xmlns="http://www.w3.org/2000/svg"
 width="59.000000pt" height="50.000000pt" viewBox="0 0 59.000000 50.000000"
 preserveAspectRatio="xMidYMid meet">
<metadata>
Created by potrace 1.16, written by Peter Selinger 2001-2019
</metadata>
<g transform="translate(0.000000,50.000000) scale(0.100000,-0.100000)"
fill="#000000" stroke="none">
<path d="M437 493 l-6 -9 10 -14 9 -15 0 -21 0 -22 -30 -32 -30 -33 -42 6 -41
5 -9 14 -9 13 5 32 5 32 -17 5 -17 5 -65 1 -65 2 -15 -1 -15 -1 12 -8 12 -8 7
-66 7 -66 -14 -15 -14 -15 -52 5 -52 6 -6 -26 -7 -25 4 -23 3 -24 26 3 26 2
12 -27 13 -28 14 -43 15 -42 -6 -9 -5 -9 50 -11 51 -11 30 0 30 0 15 15 15 14
-2 23 -2 23 1 22 2 22 16 15 15 16 31 0 31 0 19 -22 20 -23 -6 -57 -7 -56 31
-7 30 -7 43 7 42 7 18 10 17 9 0 224 0 224 -14 -5 -14 -6 -19 10 -18 10 -41 7
-42 6 -5 -8z"/>
</g>
</svg>
