<?xml version="1.0" standalone="no"?>
<!DOCTYPE svg PUBLIC "-//W3C//DTD SVG 20010904//EN"
 "http://www.w3.org/TR/2001/REC-SVG-20010904/DTD/svg10.dtd">
<svg version="1.0" xmlns="http://www.w3.org/2000/svg"
 width="61.000000pt" height="52.000000pt" viewBox="0 0 61.000000 52.000000"
 preserveAspectRatio="xMidYMid meet">
<metadata>
Created by potrace 1.16, written by Peter Selinger 2001-2019
</metadata>
<g transform="translate(0.000000,52.000000) scale(0.100000,-0.100000)"
fill="#000000" stroke="none">
<path d="M434 506 l-6 -14 11 -21 11 -20 0 -9 0 -10 -30 -32 -30 -32 -34 6
-34 7 -6 14 -5 15 5 29 6 29 -18 5 -19 6 -75 2 -75 2 -12 -2 -13 -1 0 -15 0
-15 9 0 9 0 7 -59 7 -60 -12 -13 -12 -13 -54 3 -53 4 -6 -25 -6 -24 3 -34 3
-34 25 0 25 0 12 -20 13 -20 11 -40 12 -40 -2 -17 -2 -16 51 -11 51 -11 40 0
40 0 15 14 14 15 0 45 0 45 16 15 15 16 21 0 21 0 19 -22 19 -22 -7 -57 -6
-58 36 -6 36 -7 48 7 47 7 18 9 17 10 0 234 0 235 -22 -1 -23 -1 -40 11 -40
11 -23 0 -23 0 -5 -14z"/>
</g>
</svg>
