<?xml version="1.0" standalone="no"?>
<!DOCTYPE svg PUBLIC "-//W3C//DTD SVG 20010904//EN"
 "http://www.w3.org/TR/2001/REC-SVG-20010904/DTD/svg10.dtd">
<svg version="1.0" xmlns="http://www.w3.org/2000/svg"
 width="58.000000pt" height="44.000000pt" viewBox="0 0 58.000000 44.000000"
 preserveAspectRatio="xMidYMid meet">
<metadata>
Created by potrace 1.16, written by Peter Selinger 2001-2019
</metadata>
<g transform="translate(0.000000,44.000000) scale(0.100000,-0.100000)"
fill="#000000" stroke="none">
<path d="M156 433 l-38 -4 6 -59 7 -58 -16 -16 -16 -16 -50 0 -49 0 0 -41 0
-40 14 -15 15 -14 39 6 40 6 7 -22 7 -21 -4 -67 -3 -67 71 0 70 0 19 18 18 18
-7 45 -6 44 49 0 49 0 6 -16 6 -16 0 -23 0 -24 38 -10 37 -10 58 -7 57 -7 0
209 0 209 -53 3 -52 2 -33 -6 -33 -5 6 -28 6 -28 -6 -26 -7 -26 -30 -10 -31
-11 -7 0 -7 0 -22 19 -23 20 4 48 3 48 -50 1 -50 1 -39 -4z"/>
</g>
</svg>
