<?xml version="1.0" standalone="no"?>
<!DOCTYPE svg PUBLIC "-//W3C//DTD SVG 20010904//EN"
 "http://www.w3.org/TR/2001/REC-SVG-20010904/DTD/svg10.dtd">
<svg version="1.0" xmlns="http://www.w3.org/2000/svg"
 width="60.000000pt" height="46.000000pt" viewBox="0 0 60.000000 46.000000"
 preserveAspectRatio="xMidYMid meet">
<metadata>
Created by potrace 1.16, written by Peter Selinger 2001-2019
</metadata>
<g transform="translate(0.000000,46.000000) scale(0.100000,-0.100000)"
fill="#000000" stroke="none">
<path d="M156 453 l-39 -4 6 -60 5 -59 -15 -15 -14 -15 -50 0 -49 0 0 -51 0
-50 15 -16 16 -15 39 6 39 6 6 -21 7 -21 -4 -66 -3 -67 81 0 80 0 18 18 18 18
-4 44 -3 45 36 0 37 0 6 -16 6 -16 0 -23 0 -24 38 -11 37 -10 68 -6 67 -7 0
219 0 220 -67 2 -68 2 -29 -6 -28 -6 5 -33 6 -34 -6 -20 -5 -20 -28 -10 -29
-9 -20 17 -21 18 2 49 3 49 -60 1 -60 1 -39 -4z"/>
</g>
</svg>
