<?xml version="1.0" standalone="no"?>
<!DOCTYPE svg PUBLIC "-//W3C//DTD SVG 20010904//EN"
 "http://www.w3.org/TR/2001/REC-SVG-20010904/DTD/svg10.dtd">
<svg version="1.0" xmlns="http://www.w3.org/2000/svg"
 width="64.000000pt" height="58.000000pt" viewBox="0 0 64.000000 58.000000"
 preserveAspectRatio="xMidYMid meet">
<metadata>
Created by potrace 1.16, written by Peter Selinger 2001-2019
</metadata>
<g transform="translate(0.000000,58.000000) scale(0.100000,-0.100000)"
fill="#000000" stroke="none">
<path d="M160 517 l0 -64 -20 -23 -19 -22 -53 -2 -53 -1 -9 -27 -9 -26 12 -30
13 -31 30 -6 30 -7 32 6 33 6 10 -22 10 -23 -5 -62 -4 -62 88 -3 89 -3 3 -46
3 -46 25 -12 25 -11 14 0 14 0 26 12 26 12 -3 40 -3 41 73 6 72 7 15 6 15 6
-2 222 -3 223 -237 3 -238 2 0 -63z"/>
</g>
</svg>
