<?xml version="1.0" standalone="no"?>
<!DOCTYPE svg PUBLIC "-//W3C//DTD SVG 20010904//EN"
 "http://www.w3.org/TR/2001/REC-SVG-20010904/DTD/svg10.dtd">
<svg version="1.0" xmlns="http://www.w3.org/2000/svg"
 width="62.000000pt" height="56.000000pt" viewBox="0 0 62.000000 56.000000"
 preserveAspectRatio="xMidYMid meet">
<metadata>
Created by potrace 1.16, written by Peter Selinger 2001-2019
</metadata>
<g transform="translate(0.000000,56.000000) scale(0.100000,-0.100000)"
fill="#000000" stroke="none">
<path d="M160 497 l0 -64 -21 -24 -21 -24 -49 2 -49 2 -11 -20 -11 -21 12 -28
12 -28 24 -6 24 -6 38 6 38 6 12 -26 12 -26 -7 -60 -6 -59 89 -3 89 -3 3 -46
3 -47 28 -12 28 -11 27 12 27 13 -3 40 -3 41 73 6 72 7 15 6 15 6 -2 212 -3
213 -227 3 -228 2 0 -63z"/>
</g>
</svg>
