<?xml version="1.0" standalone="no"?>
<!DOCTYPE svg PUBLIC "-//W3C//DTD SVG 20010904//EN"
 "http://www.w3.org/TR/2001/REC-SVG-20010904/DTD/svg10.dtd">
<svg version="1.0" xmlns="http://www.w3.org/2000/svg"
 width="78.000000pt" height="70.000000pt" viewBox="0 0 78.000000 70.000000"
 preserveAspectRatio="xMidYMid meet">
<metadata>
Created by potrace 1.16, written by Peter Selinger 2001-2019
</metadata>
<g transform="translate(0.000000,70.000000) scale(0.100000,-0.100000)"
fill="#000000" stroke="none">
<path d="M303 684 l-6 -17 9 -26 10 -26 -4 -17 -3 -17 -35 -11 -35 -12 -50 12
-51 12 -10 -10 -10 -10 4 -69 3 -68 -36 3 -36 4 -27 -27 -26 -26 0 -40 0 -40
15 -15 15 -16 29 7 29 6 11 -67 12 -66 14 -14 14 -14 88 0 88 0 -3 -45 -4 -44
15 -16 16 -15 40 0 40 0 15 15 15 15 11 0 12 0 -4 33 -3 32 55 6 55 6 23 7 22
7 0 17 0 17 -15 54 -14 54 50 -6 50 -6 27 12 27 12 18 19 17 19 0 28 0 28 -12
27 -12 26 -63 -4 -63 -4 -2 21 -1 20 2 58 3 57 -8 0 -9 0 -69 -14 -68 -15 -18
11 -18 12 5 54 6 55 -18 13 -19 14 -53 0 -54 0 -6 -16z"/>
</g>
</svg>
