<?xml version="1.0" standalone="no"?>
<!DOCTYPE svg PUBLIC "-//W3C//DTD SVG 20010904//EN"
 "http://www.w3.org/TR/2001/REC-SVG-20010904/DTD/svg10.dtd">
<svg version="1.0" xmlns="http://www.w3.org/2000/svg"
 width="76.000000pt" height="68.000000pt" viewBox="0 0 76.000000 68.000000"
 preserveAspectRatio="xMidYMid meet">
<metadata>
Created by potrace 1.16, written by Peter Selinger 2001-2019
</metadata>
<g transform="translate(0.000000,68.000000) scale(0.100000,-0.100000)"
fill="#000000" stroke="none">
<path d="M304 666 l-6 -14 11 -21 11 -21 -6 -25 -6 -25 -39 -12 -39 -11 -48
11 -47 10 -9 -5 -9 -6 6 -73 5 -74 -37 6 -38 6 -27 -26 -26 -27 0 -30 0 -30
14 -15 15 -14 25 10 25 9 5 -7 4 -7 12 -64 11 -64 14 -13 14 -14 90 0 91 0 -6
-44 -7 -45 16 -15 16 -16 30 0 30 0 15 15 15 15 10 0 11 0 0 13 0 12 -10 15
-9 14 12 8 12 8 35 0 35 0 37 11 38 10 0 6 0 5 -15 59 -16 60 5 8 5 8 48 -7
48 -8 25 12 25 11 18 19 17 19 0 18 0 18 -12 27 -12 26 -62 -5 -62 -6 -5 29
-6 29 6 52 6 52 -16 -6 -16 -6 -60 -11 -60 -11 -21 13 -20 13 6 57 6 56 -20
11 -21 11 -41 0 -41 0 -5 -14z"/>
</g>
</svg>
