<?xml version="1.0" standalone="no"?>
<!DOCTYPE svg PUBLIC "-//W3C//DTD SVG 20010904//EN"
 "http://www.w3.org/TR/2001/REC-SVG-20010904/DTD/svg10.dtd">
<svg version="1.0" xmlns="http://www.w3.org/2000/svg"
 width="76.000000pt" height="59.000000pt" viewBox="0 0 76.000000 59.000000"
 preserveAspectRatio="xMidYMid meet">
<metadata>
Created by potrace 1.16, written by Peter Selinger 2001-2019
</metadata>
<g transform="translate(0.000000,59.000000) scale(0.100000,-0.100000)"
fill="#000000" stroke="none">
<path d="M312 565 l-12 -26 0 -19 0 -18 -6 -16 -6 -16 -79 0 -79 0 0 -49 0
-49 -6 -16 -6 -16 -14 0 -14 0 0 -10 0 -11 -19 11 -20 10 -19 0 -20 0 -6 -16
-6 -16 0 -43 0 -43 6 -16 6 -16 43 0 43 0 5 -14 6 -15 7 -60 7 -61 36 -10 36
-10 31 0 31 0 31 11 31 11 7 33 6 33 -11 20 -10 19 6 7 6 6 29 0 29 0 20 -11
20 -10 -7 -57 -6 -58 25 -13 25 -13 71 12 71 12 15 15 15 14 0 16 0 16 11 63
11 62 34 -5 34 -6 0 12 0 11 14 0 14 0 6 23 6 22 0 17 0 17 -16 16 -17 17 -51
-4 -51 -3 -3 78 -3 78 -12 3 -12 3 -35 11 -35 10 -57 17 -58 18 0 23 0 24 -43
0 -44 0 -11 -25z"/>
</g>
</svg>
