<?xml version="1.0" standalone="no"?>
<!DOCTYPE svg PUBLIC "-//W3C//DTD SVG 20010904//EN"
 "http://www.w3.org/TR/2001/REC-SVG-20010904/DTD/svg10.dtd">
<svg version="1.0" xmlns="http://www.w3.org/2000/svg"
 width="74.000000pt" height="57.000000pt" viewBox="0 0 74.000000 57.000000"
 preserveAspectRatio="xMidYMid meet">
<metadata>
Created by potrace 1.16, written by Peter Selinger 2001-2019
</metadata>
<g transform="translate(0.000000,57.000000) scale(0.100000,-0.100000)"
fill="#000000" stroke="none">
<path d="M312 545 l-12 -26 0 -19 0 -18 -6 -16 -6 -16 -79 0 -79 0 0 -49 0
-49 -6 -16 -6 -16 -13 0 -13 0 -4 -12 -4 -12 -33 14 -33 13 -9 -14 -9 -14 0
-37 0 -36 6 -16 6 -16 43 0 43 0 5 -14 6 -15 7 -60 7 -61 36 -10 36 -10 21 0
21 0 31 11 30 10 6 25 6 24 -11 21 -11 21 6 14 5 14 41 0 41 0 21 -11 20 -11
-6 -56 -6 -57 20 -13 21 -12 65 11 65 11 14 15 15 14 0 16 0 16 11 65 11 64
34 -7 34 -6 0 11 0 10 14 0 14 0 6 24 6 24 -6 16 -6 16 -22 5 -21 4 -40 -2
-40 -2 -3 78 -3 78 -12 3 -12 3 -35 11 -35 10 -57 17 -58 18 0 23 0 24 -33 0
-34 0 -11 -25z"/>
</g>
</svg>
