<?xml version="1.0" standalone="no"?>
<!DOCTYPE svg PUBLIC "-//W3C//DTD SVG 20010904//EN"
 "http://www.w3.org/TR/2001/REC-SVG-20010904/DTD/svg10.dtd">
<svg version="1.0" xmlns="http://www.w3.org/2000/svg"
 width="64.000000pt" height="57.000000pt" viewBox="0 0 64.000000 57.000000"
 preserveAspectRatio="xMidYMid meet">
<metadata>
Created by potrace 1.16, written by Peter Selinger 2001-2019
</metadata>
<g transform="translate(0.000000,57.000000) scale(0.100000,-0.100000)"
fill="#000000" stroke="none">
<path d="M294 516 l7 -53 -16 -17 -16 -16 -17 0 -17 0 -15 10 -15 9 0 48 0 47
-35 8 -35 7 -56 -5 -56 -6 -7 -59 -6 -58 7 -32 6 -31 38 6 39 6 0 -10 0 -10
14 0 14 0 6 -15 5 -15 -9 0 -10 0 0 -15 0 -15 -12 -1 -13 -1 -27 2 -27 1 -6
-48 -6 -48 -5 -28 -6 -27 -9 0 -9 0 0 -19 0 -19 16 -6 16 -6 38 6 39 6 45 -6
45 -7 -6 -33 -5 -33 17 -16 16 -17 29 0 29 0 26 12 25 11 6 24 6 23 -5 14 -6
14 22 6 21 5 56 -6 57 -6 16 60 17 59 0 17 0 16 12 26 12 26 42 -7 43 -6 7 27
7 26 -12 26 -12 26 -49 -6 -50 -6 -15 15 -15 15 0 73 0 73 -67 6 -68 7 -34 0
-33 0 6 -54z"/>
</g>
</svg>
