<?xml version="1.0" standalone="no"?>
<!DOCTYPE svg PUBLIC "-//W3C//DTD SVG 20010904//EN"
 "http://www.w3.org/TR/2001/REC-SVG-20010904/DTD/svg10.dtd">
<svg version="1.0" xmlns="http://www.w3.org/2000/svg"
 width="62.000000pt" height="55.000000pt" viewBox="0 0 62.000000 55.000000"
 preserveAspectRatio="xMidYMid meet">
<metadata>
Created by potrace 1.16, written by Peter Selinger 2001-2019
</metadata>
<g transform="translate(0.000000,55.000000) scale(0.100000,-0.100000)"
fill="#000000" stroke="none">
<path d="M296 497 l6 -53 -17 -17 -16 -17 -29 0 -29 0 -16 16 -16 16 3 41 3
41 -35 7 -35 7 -46 -5 -46 -5 -6 -52 -5 -51 5 -28 5 -27 39 6 39 7 0 -12 0
-11 14 0 15 0 7 -22 7 -22 -12 -4 -11 -4 0 -13 0 -13 -16 -6 -16 -6 -24 6 -24
6 0 -8 0 -9 -10 -64 -9 -64 -13 -9 -13 -8 13 -9 14 -8 43 5 44 4 46 -7 47 -7
-6 -33 -7 -33 16 -16 16 -16 19 0 19 0 25 12 26 11 5 18 6 18 -10 20 -11 19
35 6 34 7 49 -7 49 -6 16 59 17 59 0 17 0 16 12 27 12 26 43 -6 42 -5 6 19 6
19 -11 21 -12 22 -47 -7 -48 -6 -17 16 -16 16 0 73 0 73 -67 6 -68 7 -23 0
-22 0 6 -53z"/>
</g>
</svg>
