<?xml version="1.0" standalone="no"?>
<!DOCTYPE svg PUBLIC "-//W3C//DTD SVG 20010904//EN"
 "http://www.w3.org/TR/2001/REC-SVG-20010904/DTD/svg10.dtd">
<svg version="1.0" xmlns="http://www.w3.org/2000/svg"
 width="50.000000pt" height="44.000000pt" viewBox="0 0 50.000000 44.000000"
 preserveAspectRatio="xMidYMid meet">
<metadata>
Created by potrace 1.16, written by Peter Selinger 2001-2019
</metadata>
<g transform="translate(0.000000,44.000000) scale(0.100000,-0.100000)"
fill="#000000" stroke="none">
<path d="M6 388 l-6 -53 0 -24 0 -23 25 6 24 6 35 -16 34 -17 9 -21 8 -21 -3
-27 -3 -27 -30 -3 -31 -3 -20 -55 -20 -55 -5 -27 -5 -28 230 0 230 0 11 44 11
45 0 36 0 36 -38 -2 -39 -3 -31 13 -30 13 -12 28 -12 28 13 24 12 23 10 7 11
7 48 -6 48 -6 0 77 0 76 -86 0 -87 0 6 -37 6 -38 -8 -14 -9 -13 -44 -5 -45 -5
-26 26 -27 27 10 19 10 19 0 10 0 11 -84 0 -83 0 -7 -52z"/>
</g>
</svg>
