<?xml version="1.0" standalone="no"?>
<!DOCTYPE svg PUBLIC "-//W3C//DTD SVG 20010904//EN"
 "http://www.w3.org/TR/2001/REC-SVG-20010904/DTD/svg10.dtd">
<svg version="1.0" xmlns="http://www.w3.org/2000/svg"
 width="48.000000pt" height="42.000000pt" viewBox="0 0 48.000000 42.000000"
 preserveAspectRatio="xMidYMid meet">
<metadata>
Created by potrace 1.16, written by Peter Selinger 2001-2019
</metadata>
<g transform="translate(0.000000,42.000000) scale(0.100000,-0.100000)"
fill="#000000" stroke="none">
<path d="M10 401 l0 -18 -6 -46 -7 -46 22 6 22 6 38 -18 39 -17 10 -23 11 -24
-6 -35 -5 -35 -30 -3 -30 -3 -20 -55 -20 -55 -5 -17 -5 -18 220 0 220 0 11 44
11 45 0 27 0 26 -30 -6 -31 -6 -38 16 -39 15 -12 30 -12 29 6 24 6 25 16 16
17 16 48 -6 49 -7 0 66 0 66 -75 0 -75 0 5 -37 6 -38 -10 -14 -9 -14 -55 -5
-54 -4 -26 26 -27 27 0 10 0 10 10 20 11 19 -76 0 -75 0 0 -19z"/>
</g>
</svg>
