<?xml version="1.0" standalone="no"?>
<!DOCTYPE svg PUBLIC "-//W3C//DTD SVG 20010904//EN"
 "http://www.w3.org/TR/2001/REC-SVG-20010904/DTD/svg10.dtd">
<svg version="1.0" xmlns="http://www.w3.org/2000/svg"
 width="64.000000pt" height="46.000000pt" viewBox="0 0 64.000000 46.000000"
 preserveAspectRatio="xMidYMid meet">
<metadata>
Created by potrace 1.16, written by Peter Selinger 2001-2019
</metadata>
<g transform="translate(0.000000,46.000000) scale(0.100000,-0.100000)"
fill="#000000" stroke="none">
<path d="M33 453 l-13 -5 0 -80 0 -81 44 6 44 6 21 -18 21 -18 0 -21 0 -21
-26 -26 -26 -27 -49 7 -49 7 4 -84 4 -83 1 -7 1 -8 94 0 94 0 6 16 6 16 0 18
0 19 12 26 11 25 24 0 23 0 0 -24 0 -23 58 -17 57 -17 23 -10 23 -9 19 0 20 0
0 19 0 19 -11 50 -12 50 14 15 14 15 56 -5 56 -5 21 11 22 12 0 34 0 34 -21
11 -20 11 -47 -1 -47 -2 -14 1 -13 1 7 79 7 78 -57 8 -56 7 -40 -7 -39 -7 0
-10 0 -9 9 -18 10 -17 -7 -11 -7 -10 -23 -12 -23 -12 -19 6 -20 6 -1 12 -1 12
2 31 1 31 -32 7 -31 6 -57 -1 -56 -1 -12 -5z"/>
</g>
</svg>
