<?xml version="1.0" standalone="no"?>
<!DOCTYPE svg PUBLIC "-//W3C//DTD SVG 20010904//EN"
 "http://www.w3.org/TR/2001/REC-SVG-20010904/DTD/svg10.dtd">
<svg version="1.0" xmlns="http://www.w3.org/2000/svg"
 width="62.000000pt" height="44.000000pt" viewBox="0 0 62.000000 44.000000"
 preserveAspectRatio="xMidYMid meet">
<metadata>
Created by potrace 1.16, written by Peter Selinger 2001-2019
</metadata>
<g transform="translate(0.000000,44.000000) scale(0.100000,-0.100000)"
fill="#000000" stroke="none">
<path d="M33 433 l-13 -5 0 -69 0 -70 43 6 42 7 23 -20 22 -19 0 -31 0 -31
-27 -27 -26 -26 -48 5 -48 6 4 -72 5 -72 0 -7 0 -8 84 0 84 0 6 16 6 16 0 18
0 19 12 26 11 25 34 0 33 0 0 -24 0 -23 58 -17 57 -18 28 -10 28 -11 6 6 6 6
-12 45 -11 45 0 21 0 21 14 15 15 14 54 -6 54 -6 21 11 22 12 0 24 0 24 -22
12 -21 11 -47 -5 -46 -6 -14 9 -13 8 7 75 7 74 -51 7 -51 7 -34 -7 -35 -6 11
-19 10 -20 -6 -18 -5 -18 -26 -11 -25 -12 -19 0 -19 0 -16 16 -16 16 7 33 6
32 -32 7 -32 6 -47 -1 -46 -1 -12 -5z"/>
</g>
</svg>
