<?xml version="1.0" standalone="no"?>
<!DOCTYPE svg PUBLIC "-//W3C//DTD SVG 20010904//EN"
 "http://www.w3.org/TR/2001/REC-SVG-20010904/DTD/svg10.dtd">
<svg version="1.0" xmlns="http://www.w3.org/2000/svg"
 width="57.000000pt" height="46.000000pt" viewBox="0 0 57.000000 46.000000"
 preserveAspectRatio="xMidYMid meet">
<metadata>
Created by potrace 1.16, written by Peter Selinger 2001-2019
</metadata>
<g transform="translate(0.000000,46.000000) scale(0.100000,-0.100000)"
fill="#000000" stroke="none">
<path d="M115 395 l-1 -64 -24 -21 -25 -22 -33 5 -32 6 0 -30 0 -30 10 -19 10
-19 15 5 14 6 18 -17 17 -18 11 -71 11 -71 54 -3 55 -3 37 11 38 11 0 10 0 10
-11 21 -12 21 19 14 18 13 32 0 32 0 12 -30 12 -30 -6 -25 -7 -26 15 -14 15
-15 22 0 23 0 57 16 58 16 -5 67 -5 66 -5 23 -4 22 -33 0 -32 0 -22 6 -21 6
-6 23 -6 23 6 16 6 15 34 11 34 12 30 -7 30 -7 0 76 0 76 -37 -5 -38 -4 -47
-6 -47 -6 6 -29 5 -29 -15 -16 -16 -15 -30 -6 -30 -6 -25 6 -26 6 7 46 6 46
-14 9 -14 9 -70 0 -70 0 0 -65z"/>
</g>
</svg>
