<?xml version="1.0" standalone="no"?>
<!DOCTYPE svg PUBLIC "-//W3C//DTD SVG 20010904//EN"
 "http://www.w3.org/TR/2001/REC-SVG-20010904/DTD/svg10.dtd">
<svg version="1.0" xmlns="http://www.w3.org/2000/svg"
 width="59.000000pt" height="48.000000pt" viewBox="0 0 59.000000 48.000000"
 preserveAspectRatio="xMidYMid meet">
<metadata>
Created by potrace 1.16, written by Peter Selinger 2001-2019
</metadata>
<g transform="translate(0.000000,48.000000) scale(0.100000,-0.100000)"
fill="#000000" stroke="none">
<path d="M115 416 l0 -64 -24 -21 -24 -21 -34 6 -33 6 0 -44 0 -44 13 -18 14
-19 14 5 14 5 15 -15 14 -15 11 -71 11 -71 64 -3 65 -3 39 11 38 11 -6 39 -6
38 16 6 16 6 17 0 18 0 11 -25 12 -25 -6 -29 -6 -30 15 -16 16 -15 32 0 33 0
58 16 59 17 -6 76 -6 76 -5 23 -4 22 -33 0 -32 0 -22 6 -21 6 -5 18 -5 18 7
10 6 11 27 10 27 10 35 -6 36 -6 0 87 0 87 -57 -6 -58 -6 -39 -6 -38 -5 6 -30
6 -30 -13 -12 -13 -13 -23 -8 -22 -7 -22 6 -22 5 3 47 4 46 -13 9 -14 9 -80 0
-80 0 0 -64z"/>
</g>
</svg>
