<?xml version="1.0" standalone="no"?>
<!DOCTYPE svg PUBLIC "-//W3C//DTD SVG 20010904//EN"
 "http://www.w3.org/TR/2001/REC-SVG-20010904/DTD/svg10.dtd">
<svg version="1.0" xmlns="http://www.w3.org/2000/svg"
 width="51.000000pt" height="56.000000pt" viewBox="0 0 51.000000 56.000000"
 preserveAspectRatio="xMidYMid meet">
<metadata>
Created by potrace 1.16, written by Peter Selinger 2001-2019
</metadata>
<g transform="translate(0.000000,56.000000) scale(0.100000,-0.100000)"
fill="#000000" stroke="none">
<path d="M47 553 l-7 -6 0 -71 0 -71 9 -13 8 -14 58 7 57 8 9 -14 9 -14 0 -11
0 -11 -18 -20 -17 -21 -40 -16 -40 -17 -37 6 -38 7 0 -24 1 -23 14 -40 15 -40
0 -17 0 -18 73 0 72 0 14 -9 14 -9 -6 -46 -7 -46 26 -6 25 -6 30 6 30 6 16 15
15 16 -6 29 -5 30 2 0 2 0 84 10 85 10 8 12 8 13 0 57 0 57 -12 26 -12 26 -49
-6 -49 -7 -9 13 -9 14 0 44 0 43 23 -7 22 -8 27 0 26 0 18 18 18 18 4 63 4 64
-229 0 -230 0 -6 -7z"/>
</g>
</svg>
