<?xml version="1.0" standalone="no"?>
<!DOCTYPE svg PUBLIC "-//W3C//DTD SVG 20010904//EN"
 "http://www.w3.org/TR/2001/REC-SVG-20010904/DTD/svg10.dtd">
<svg version="1.0" xmlns="http://www.w3.org/2000/svg"
 width="53.000000pt" height="58.000000pt" viewBox="0 0 53.000000 58.000000"
 preserveAspectRatio="xMidYMid meet">
<metadata>
Created by potrace 1.16, written by Peter Selinger 2001-2019
</metadata>
<g transform="translate(0.000000,58.000000) scale(0.100000,-0.100000)"
fill="#000000" stroke="none">
<path d="M47 573 l-7 -6 0 -81 0 -81 9 -14 9 -14 60 7 60 7 5 -15 6 -14 -17
-20 -17 -20 -37 -15 -36 -15 -41 5 -41 6 0 -34 1 -34 14 -40 15 -40 0 -17 0
-18 73 0 72 0 13 -9 14 -8 -7 -46 -7 -46 27 -7 26 -6 39 5 39 5 16 15 15 16 0
30 0 30 33 5 32 5 49 6 50 5 8 13 8 12 0 67 0 67 -12 27 -12 26 -52 -6 -52 -6
-6 16 -6 16 0 29 0 30 21 -12 21 -11 30 6 29 6 17 17 17 16 3 74 4 73 -239 0
-240 0 -6 -7z"/>
</g>
</svg>
