<?xml version="1.0" standalone="no"?>
<!DOCTYPE svg PUBLIC "-//W3C//DTD SVG 20010904//EN"
 "http://www.w3.org/TR/2001/REC-SVG-20010904/DTD/svg10.dtd">
<svg version="1.0" xmlns="http://www.w3.org/2000/svg"
 width="64.000000pt" height="45.000000pt" viewBox="0 0 64.000000 45.000000"
 preserveAspectRatio="xMidYMid meet">
<metadata>
Created by potrace 1.16, written by Peter Selinger 2001-2019
</metadata>
<g transform="translate(0.000000,45.000000) scale(0.100000,-0.100000)"
fill="#000000" stroke="none">
<path d="M317 434 l-6 -7 10 -19 10 -19 -7 -22 -7 -22 -20 -17 -20 -18 -30 0
-30 0 -19 22 -19 22 7 29 6 29 -13 9 -14 9 -61 0 -61 0 -6 -51 -6 -50 6 -29 5
-29 62 6 62 5 12 -26 12 -27 0 -18 0 -18 -17 -19 -18 -19 -25 -11 -25 -12 -48
8 -48 7 -5 -8 -4 -8 16 -65 16 -66 89 0 89 0 0 10 0 10 16 0 16 0 -7 49 -7 49
21 7 21 6 30 -6 30 -7 1 -11 1 -12 -1 -26 -2 -25 24 -11 24 -11 66 -7 67 -7 0
40 0 39 6 31 6 31 42 -5 42 -6 17 17 17 16 0 34 0 34 -15 15 -16 15 -34 7 -35
6 -22 -5 -21 -6 6 82 6 82 -93 2 -93 3 -6 -6z"/>
</g>
</svg>
