<svg baseProfile="full" height="340" preserveAspectRatio="none" shape-rendering="geometricPrecision" version="1.1" viewBox="0,0,1024,575" width="605" xmlns="http://www.w3.org/2000/svg" xmlns:ev="http://www.w3.org/2001/xml-events" xmlns:xlink="http://www.w3.org/1999/xlink"><title>Jigsaw puzzle piece clips</title><desc>Created with the piecemaker. Piece count: 112</desc><defs/><g><g><rect fill="white" height="575" width="1024" x="0" y="0"/></g></g><g><g><path d="M 0 0  L 73.142857 0  c -0.0,11.444490348784043 3.657142857142857,33.39487124743159 -14.77938860783527,28.36362124743159
c -1.046842276023454,-4.3125 -4.550947215233332,0 -4.550947215233332,7.573878752568412
c 0,8.898654683581803 6.357805179445598,13.211154683581803 16.57960333723558,8.898654683581803
c 9.508571428571429,-4.3125 5.851428571428571,15.09375 2.750732485833023,27.038845316418197 c -0.0,19.04444703202978 3.657142857142857,35.679025098490094 -3.538566515828498,30.647775098490094
c -12.64228877829558,-4.3125 -19.322921232569485,0 -19.322921232569485,5.289724901509906
c 0,5.076698205139699 10.618176166303657,9.3891982051397 23.847295638902207,5.076698205139699
c 9.508571428571429,-4.3125 5.851428571428571,15.09375 -0.9858078905042227,30.8608017948603 c 0.0,15.24831742025842 -3.657142857142857,33.34193668349972 0.7753090259684182,28.310686683499714
c 5.048344574092461,-4.3125 21.98389653933965,0 21.98389653933965,7.626813316500286
c 0,9.920455653868856 -10.206919486144765,14.232955653868856 -12.18019288332695,9.920455653868856
c -9.508571428571429,-4.3125 -5.851428571428571,15.09375 -10.57901268198112,26.017044346131144 c -0.0,10.615325629214876 3.657142857142857,35.15896496257872 -4.733432776808633,30.127714962578718
c -15.68813410479571,-4.3125 -16.005977347271973,0 -16.005977347271973,5.809785037421282
c 0,9.367089844546818 14.345013666191019,13.679589844546818 15.434069963600287,9.367089844546818
c 9.508571428571429,-4.3125 5.851428571428571,15.09375 5.30534016048032,26.57041015545318 c 0.0,17.335427122696075 -3.657142857142857,35.32744707529942 7.270216903044923,30.296197075299414
c 4.121861294995194,-4.3125 16.12313108458276,0 16.12313108458276,5.641302924700586
c 0,10.069799240471127 -12.045152616810524,14.382299240471127 -20.329275782488494,10.069799240471127
c -9.508571428571429,-4.3125 -5.851428571428571,15.09375 -3.064072205139187,25.867700759528873 c -0.0,18.98280973667514 3.657142857142857,30.883593095226114 -8.185286464699752,25.852343095226114
c -4.157841315697657,-4.3125 -12.830245740804687,0 -12.830245740804687,10.085156904773886
c 0,5.69903556008434 10.977033887361253,10.01153556008434 14.371160200139006,5.69903556008434
c 9.508571428571429,-4.3125 5.851428571428571,15.09375 6.644372005365433,30.23846443991566 c 0.0,15.808752805657287 -3.657142857142857,30.596668149297386 11.518622556811602,25.565418149297386
c 6.22607723405177,-4.3125 10.817705382921828,0 10.817705382921828,10.372081850702614
c 0,5.7918279574774445 -7.993663334973357,10.104327957477444 -10.159159428437626,5.7918279574774445
c -9.508571428571429,-4.3125 -5.851428571428571,15.09375 -12.177168511295804,30.145672042522556 c -0.0,14.20154160546841 3.657142857142857,34.33633553928324 -6.3507572847165035,29.30508553928324
c -7.689358665746944,-4.3125 -13.522261169203311,0 -13.522261169203311,6.63241446071676
c 0,7.2446409034159345 4.578905739815989,11.557140903415934 4.956269963662759,7.2446409034159345
c 9.508571428571429,-4.3125 5.851428571428571,15.09375 14.916748490257056,28.692859096584066 L 0 575 " fill="none" stroke="black" stroke-width="1.0" style="vector-effect:non-scaling-stroke;"/></g><g><path d="M 0 0  L 146.285714 0  c -0.0,16.783328974379344 3.657142857142857,31.00481525469077 -10.715977542623294,25.97356525469077
c -6.2966773740238295,-4.3125 -8.919336914179665,0 -8.919336914179665,9.963934745309231
c 0,5.450431382125636 15.63667286789513,9.762931382125636 19.89548955191296,5.450431382125636
c 9.508571428571429,-4.3125 5.851428571428571,15.09375 -0.26017509511000014,30.487068617874364 c 0.0,7.474153568317202 -3.657142857142857,33.185825231275544 5.567114981243169,28.15457523127554
c 6.336327365930119,-4.3125 15.621176646921299,0 15.621176646921299,7.78292476872446
c 0,8.82879244918879 -6.071301301843396,13.14129244918879 -12.004192882508997,8.82879244918879
c -9.508571428571429,-4.3125 -5.851428571428571,15.09375 -9.18409874565547,27.10870755081121 c 0.0,10.540520492137691 -3.657142857142857,34.02942962632786 9.291295630822848,28.99817962632786
c 3.9580765657711137,-4.3125 12.074627102374656,0 12.074627102374656,6.939320373672139
c 0,7.860103044750858 -1.485150561333153,12.172603044750858 -5.905951491184686,7.860103044750858
c -9.508571428571429,-4.3125 -5.851428571428571,15.09375 -15.459971242012818,28.077396955249142 c -0.0,5.269759450353322 3.657142857142857,32.1187678144437 -6.903667577915094,27.087517814443697
c -11.342813261873086,-4.3125 -12.459331476198376,0 -12.459331476198376,8.849982185556303
c 0,7.273960494483099 4.994961844941995,11.586460494483099 9.422149409174645,7.273960494483099
c 9.508571428571429,-4.3125 5.851428571428571,15.09375 9.940849644938824,28.6635395055169 c 0.0,3.6528166066755747 -3.657142857142857,35.92309176828356 0.559015692515929,30.891841768283562
c 4.631528423119677,-4.3125 18.296508976214966,0 18.296508976214966,5.045658231716438
c 0,11.16904820283326 -2.095934852213254,15.48154820283326 -3.268312415399814,11.16904820283326
c -9.508571428571429,-4.3125 -5.851428571428571,15.09375 -15.58721225333108,24.76845179716674 c 0.0,20.56798485886449 -3.657142857142857,31.618137645956477 9.751221456743407,26.586887645956477
c 4.955066527889424,-4.3125 14.085258392748306,0 14.085258392748306,9.350612354043523
c 0,6.639956197690232 -18.50462222807471,10.952456197690232 -23.626922279492838,6.639956197690232
c -9.508571428571429,-4.3125 -5.851428571428571,15.09375 -0.20955756999887498,29.297543802309768 c 0.0,7.642033528228129 -3.657142857142857,31.189572393547618 15.807134983121607,26.158322393547618
c 1.7534171823603453,-4.3125 3.3083662706015495,0 3.3083662706015495,9.779177606452382
c 0,9.441119903207777 -3.8895007566483604,13.753619903207777 -4.3499040077278455,9.441119903207777
c -9.508571428571429,-4.3125 -5.851428571428571,15.09375 -14.76559724599531,26.496380096792223 c -0.0,15.591470431068458 3.657142857142857,30.854438604731836 -15.893251938587559,25.823188604731836
c -6.806901273904389,-4.3125 -7.545940975933865,0 -7.545940975933865,10.114311395268164
c 0,9.221325181492091 5.180836634526585,13.533825181492091 9.591986449815499,9.221325181492091
c 9.508571428571429,-4.3125 5.851428571428571,15.09375 13.847206464705925,26.71617481850791 L 0 575 " fill="none" stroke="black" stroke-width="1.0" style="vector-effect:non-scaling-stroke;"/></g><g><path d="M 0 0  L 219.428571 0  c -0.0,17.60983187264672 3.657142857142857,33.59560991580573 -0.22805865705766387,28.564359915805728
c -7.75205659603818,-4.3125 -21.464134411873584,0 -21.464134411873584,7.373140084194272
c 0,8.208158542702513 3.4494307650358573,12.520658542702513 11.266912937196132,8.208158542702513
c 9.508571428571429,-4.3125 5.851428571428571,15.09375 10.425280131735114,27.729341457297487 c 0.0,19.406588393098453 -3.657142857142857,35.35484584086806 1.8967346907044407,30.32359584086806
c 8.502149520866608,-4.3125 19.28465472741164,0 19.28465472741164,5.613904159131941
c 0,10.653858584577527 -10.107061015786845,14.966358584577527 -15.026890402771405,10.653858584577527
c -9.508571428571429,-4.3125 -5.851428571428571,15.09375 -6.154499015344678,25.283641415422473 c 0.0,14.899198504116125 -3.657142857142857,30.12177714449811 11.332249151870318,25.09052714449811
c 11.762440777284132,-4.3125 13.47350474165864,0 13.47350474165864,10.846972855501889
c 0,6.378874579909414 -6.871635639206064,10.691374579909414 -17.670066380245096,6.378874579909414
c -9.508571428571429,-4.3125 -5.851428571428571,15.09375 -7.135687513283862,29.558625420090586 c -0.0,10.161729594423468 3.657142857142857,34.500811373331196 -1.5623938783496103,29.469561373331192
c -12.637530510898515,-4.3125 -18.694018210691866,0 -18.694018210691866,6.467938626668808
c 0,9.286814893616025 9.417897079695436,13.599314893616025 15.034947541467792,9.286814893616025
c 9.508571428571429,-4.3125 5.851428571428571,15.09375 5.221464547573683,26.650685106383975 c 0.0,6.944533662917179 -3.657142857142857,32.928354948989224 3.5132603271614378,27.89710494898922
c 14.380621624871425,-4.3125 19.280106804988932,0 19.280106804988932,8.04039505101078
c 0,6.3457243385601885 -8.18231273455898,10.658224338560188 -12.261235871220682,6.3457243385601885
c -9.508571428571429,-4.3125 -5.851428571428571,15.09375 -10.532131260929686,29.59177566143981 c -0.0,10.194348966591411 3.657142857142857,35.81194195245167 -9.585853739100413,30.78069195245167
c -7.378987601943311,-4.3125 -9.122855460624768,0 -9.122855460624768,5.156808047548331
c 0,10.00351551103256 2.5017129168229895,14.31601551103256 9.346414058858004,10.00351551103256
c 9.508571428571429,-4.3125 5.851428571428571,15.09375 9.362295140867177,25.93398448896744 c 0.0,5.207359918861904 -3.657142857142857,32.96216678570636 13.792889262952672,27.93091678570636
c 6.1472939864485,-4.3125 10.213357162182307,0 10.213357162182307,8.006583214293642
c 0,10.286845735833204 -14.06007066039982,14.599345735833204 -23.813683229229028,10.286845735833204
c -9.508571428571429,-4.3125 -5.851428571428571,15.09375 -0.19256319590595083,25.650654264166796 c -0.0,9.867281271647245 3.657142857142857,33.576372814160614 -11.453119608576367,28.54512281416061
c -2.8624215646897078,-4.3125 -7.977916194638718,0 -7.977916194638718,7.39237718583939
c 0,6.772776051423662 12.346027499635875,11.085276051423662 12.591707315381719,6.772776051423662
c 9.508571428571429,-4.3125 5.851428571428571,15.09375 6.839328487833367,29.164723948576338 L 0 575 " fill="none" stroke="black" stroke-width="1.0" style="vector-effect:non-scaling-stroke;"/></g><g><path d="M 0 0  L 292.571429 0  c -0.0,5.510882342487607 3.657142857142857,32.73761791688767 -15.467329500303851,27.70636791688767
c -4.1976473735134725,-4.3125 -5.14822175887328,0 -5.14822175887328,8.231132083112328
c 0,10.039108719805412 13.237504966783034,14.351608719805412 13.354589647762651,10.039108719805412
c 9.508571428571429,-4.3125 5.851428571428571,15.09375 7.26096161141448,25.898391280194588 c 0.0,19.062641898982463 -3.657142857142857,31.707981248205975 12.080058393613587,26.676731248205975
c 9.78030003814373,-4.3125 12.358086376442916,0 12.358086376442916,9.260768751794025
c 0,5.4151233384185815 -11.912494688010431,9.727623338418582 -20.594244851719274,5.4151233384185815
c -9.508571428571429,-4.3125 -5.851428571428571,15.09375 -3.843899918337229,30.52237666158142 c -0.0,10.951856747271814 3.657142857142857,33.42078177425524 -4.681721895850202,28.389531774255236
c -15.740440776234664,-4.3125 -18.08357220618944,0 -18.08357220618944,7.547968225744764
c 0,5.529765958682432 7.518791691528242,9.842265958682432 15.43307333708975,5.529765958682432
c 9.508571428571429,-4.3125 5.851428571428571,15.09375 7.332220764949893,30.407734041317568 c 0.0,13.616031497669296 -3.657142857142857,31.16464416272557 11.204900890117393,26.13339416272557
c 1.951926938127859,-4.3125 7.67953901486732,0 7.67953901486732,9.804105837274431
c 0,6.2162307972015896 -13.768062080223087,10.52873079720159 -15.286652687754131,6.2162307972015896
c -9.508571428571429,-4.3125 -5.851428571428571,15.09375 -3.5977872172305823,29.72126920279841 c -0.0,6.78240687179454 3.657142857142857,31.014589313807736 -6.03580366004728,25.983339313807736
c -6.553760169736626,-4.3125 -14.43777859471201,0 -14.43777859471201,9.954160686192264
c 0,5.19091554743131 7.2129189117786705,9.50341554743131 13.669885448739988,5.19091554743131
c 9.508571428571429,-4.3125 5.851428571428571,15.09375 6.8036968060193015,30.74658445256869 c -0.0,4.550795678230621 3.657142857142857,35.243461155064885 -8.941133305927908,30.212211155064885
c -2.898451890144377,-4.3125 -9.143492381488711,0 -9.143492381488711,5.725288844935115
c 0,7.248053574785217 13.71043323985451,11.560553574785217 17.145765552357098,7.248053574785217
c 9.508571428571429,-4.3125 5.851428571428571,15.09375 0.9388601350595209,28.689446425214783 c 0.0,12.064588370938624 -3.657142857142857,34.04640541953826 2.391119335966582,29.01515541953826
c 15.130142669910521,-4.3125 20.075439973015403,0 20.075439973015403,6.92234458046174
c 0,8.994798303071171 -7.846725031460899,13.307298303071171 -11.953444264106032,8.994798303071171
c -9.508571428571429,-4.3125 -5.851428571428571,15.09375 -10.513115044875953,26.94270169692883 c 0.0,20.768948500096226 -3.657142857142857,33.51034219953487 8.577741825272804,28.479092199534865
c 3.604331112523184,-4.3125 15.33810954902732,0 15.33810954902732,7.458407800465135
c 0,9.744953045632904 -15.667758787193655,14.057453045632904 -21.854325922532393,9.744953045632904
c -9.508571428571429,-4.3125 -5.851428571428571,15.09375 -2.061525451767732,26.192546954367096 L 0 575 " fill="none" stroke="black" stroke-width="1.0" style="vector-effect:non-scaling-stroke;"/></g><g><path d="M 0 0  L 365.714286 0  c -0.0,10.986176655596095 3.657142857142857,31.569031338508957 -14.446148606744488,26.537781338508957
c -2.5930650101290156,-4.3125 -9.175323715222133,0 -9.175323715222133,9.399718661491043
c 0,11.473768793497726 15.2444529791057,15.786268793497726 20.936845244919496,11.473768793497726
c 9.508571428571429,-4.3125 5.851428571428571,15.09375 2.684627077047125,24.463731206502274 c -0.0,19.6585047014003 3.657142857142857,29.83894885662018 -1.6842915367488085,24.80769885662018
c -20.047889486299756,-4.3125 -22.036553474659026,0 -22.036553474659026,11.129801143379819
c 0,8.855248210619777 19.043276680810685,13.167748210619777 24.041746059590675,8.855248210619777
c 9.508571428571429,-4.3125 5.851428571428571,15.09375 -0.32090104818284004,27.082251789380223 c -0.0,16.873657302361654 3.657142857142857,29.895541695586378 1.1179657320296492,24.864291695586378
c -5.27683098056031,-4.3125 -20.331058957980105,0 -20.331058957980105,11.073208304413622
c 0,6.631187530442979 14.28992952655288,10.943687530442979 17.368756735118925,6.631187530442979
c 9.508571428571429,-4.3125 5.851428571428571,15.09375 1.8443364908315303,29.30631246955702 c -0.0,13.15479875048117 3.657142857142857,34.51997548336281 0.9983349762226446,29.488725483362813
c -16.072493271716795,-4.3125 -19.670914476358195,0 -19.670914476358195,6.448774516637187
c 0,8.80520222755625 2.5494575833403235,13.11770222755625 2.6177753298739503,8.80520222755625
c 9.508571428571429,-4.3125 5.851428571428571,15.09375 16.0548041702616,27.13229777244375 c -0.0,3.7580938678703775 3.657142857142857,33.73699606386972 -1.5085628738745676,28.705746063869718
c -12.942290359365488,-4.3125 -18.316315735868884,0 -18.316315735868884,7.231753936130282
c 0,10.628300047999929 2.0341963691445506,14.940800047999929 6.890991128542405,10.628300047999929
c 9.508571428571429,-4.3125 5.851428571428571,15.09375 12.933887481201046,25.30919995200007 c -0.0,7.631827612818649 3.657142857142857,30.811414124724042 -14.740669851114706,25.780164124724042
c -3.819047220949145,-4.3125 -5.780434962264671,0 -5.780434962264671,10.157335875275958
c 0,7.81833113691939 19.91633224948774,12.13083113691939 20.020860857702083,7.81833113691939
c 9.508571428571429,-4.3125 5.851428571428571,15.09375 0.5002439556772948,28.11916886308061 c -0.0,15.406620649535618 3.657142857142857,33.290275992107446 -14.351951422023589,28.259025992107443
c -2.500466627319512,-4.3125 -3.9884740908944956,0 -3.9884740908944956,7.678474007892557
c 0,7.232041027062621 2.6856712349585505,11.544541027062621 8.502913872168568,7.232041027062621
c 9.508571428571429,-4.3125 5.851428571428571,15.09375 9.837511640749517,28.70545897293738 c 0.0,17.712108907371388 -3.657142857142857,34.29012919515468 12.408587515928687,29.258879195154673
c 4.288146324211913,-4.3125 8.293873591792167,0 8.293873591792167,6.678620804845327
c 0,6.980174592389446 -4.221310862321691,11.292674592389446 -11.633279197584109,6.980174592389446
c -9.508571428571429,-4.3125 -5.851428571428571,15.09375 -9.069181910136745,28.957325407610554 L 0 575 " fill="none" stroke="black" stroke-width="1.0" style="vector-effect:non-scaling-stroke;"/></g><g><path d="M 0 0  L 438.857143 0  c 0.0,4.458325297161884 -3.657142857142857,31.660043885065907 -0.6188175507710938,26.628793885065907
c 7.740043408107172,-4.3125 20.1797637824381,0 20.1797637824381,9.308706114934093
c 0,7.59290016323591 -14.661198800162412,11.90540016323591 -16.89347612007983,7.59290016323591
c -9.508571428571429,-4.3125 -5.851428571428571,15.09375 -2.6674701115871784,28.34459983676409 c 0.0,13.643614630333225 -3.657142857142857,35.63643877378424 16.03720365629452,30.60518877378424
c 1.3729377531081366,-4.3125 5.201513880313648,0 5.201513880313648,5.3323112262157615
c 0,5.614642571178194 -4.925601163352422,9.927142571178194 -8.967283383084705,5.614642571178194
c -9.508571428571429,-4.3125 -5.851428571428571,15.09375 -12.271434153523462,30.322857428821806 c 0.0,10.879216161152387 -3.657142857142857,34.09019138054698 8.813805406115135,29.05894138054698
c 2.7172446920645164,-4.3125 11.953223276592423,0 11.953223276592423,6.87855861945302
c 0,10.738387443964584 -5.865493375843051,15.050887443964584 -15.578522686199799,10.738387443964584
c -9.508571428571429,-4.3125 -5.851428571428571,15.09375 -5.188505996507759,25.199112556035416 c -0.0,5.8777319841486415 3.657142857142857,34.91269753896633 -7.7599867281275765,29.881447538966327
c -3.6786453198369604,-4.3125 -10.563402170913232,0 -10.563402170913232,6.056052461033673
c 0,6.961287103072529 1.0051372434768928,11.273787103072529 4.511999942654876,6.961287103072529
c 9.508571428571429,-4.3125 5.851428571428571,15.09375 13.811388956385931,28.97621289692747 c -0.0,15.431365460278942 3.657142857142857,35.20177073498511 -14.870818231072096,30.170520734985107
c -3.51711978228889,-4.3125 -5.2693401266418185,0 -5.2693401266418185,5.766979265014893
c 0,11.163355395490619 4.018120899030468,15.475855395490619 12.572944996198007,11.163355395490619
c 9.508571428571429,-4.3125 5.851428571428571,15.09375 7.567213361515908,24.77414460450938 c 0.0,18.38526498032133 -3.657142857142857,32.11666786501708 11.698804504181242,27.085417865017078
c 12.306286102606608,-4.3125 12.855857495452911,0 12.855857495452911,8.852082134982922
c 0,6.370394864033031 -3.962612252147975,10.682894864033031 -8.578493813250958,6.370394864033031
c -9.508571428571429,-4.3125 -5.851428571428571,15.09375 -15.976168186383195,29.56710513596697 c 0.0,10.573661869898231 -3.657142857142857,33.70586396524828 11.091941823578628,28.674613965248273
c 5.8074725471306,-4.3125 7.178724414070585,0 7.178724414070585,7.262886034751727
c 0,11.267362145584208 -3.184417915651863,15.579862145584208 -5.244653292848984,11.267362145584208
c -9.508571428571429,-4.3125 -5.851428571428571,15.09375 -13.026012944800229,24.670137854415792 c 0.0,15.451212078702877 -3.657142857142857,32.41370010461026 4.553213086646346,27.382450104610257
c 7.283036413573061,-4.3125 17.54276496512379,0 17.54276496512379,8.555049895389743
c 0,5.326748659097433 -12.74854944008841,9.639248659097433 -14.940586942355598,5.326748659097433
c -9.508571428571429,-4.3125 -5.851428571428571,15.09375 -7.155391109414538,30.610751340902567 L 0 575 " fill="none" stroke="black" stroke-width="1.0" style="vector-effect:non-scaling-stroke;"/></g><g><path d="M 0 0  L 512.000000 0  c -0.0,15.77077343456286 3.657142857142857,31.3355415190126 -5.93725759709087,26.3042915190126
c -7.130753992773093,-4.3125 -15.906043372336296,0 -15.906043372336296,9.633208480987399
c 0,8.416703363434273 9.22218766621288,12.729203363434273 11.201722015475331,8.416703363434273
c 9.508571428571429,-4.3125 5.851428571428571,15.09375 10.641578953951834,27.520796636565727 c -0.0,15.105694697941733 3.657142857142857,32.92547742090057 -14.75091047004478,27.89422742090057
c -3.1659930600723514,-4.3125 -6.234445947688361,0 -6.234445947688361,8.04327257909943
c 0,10.766002396876324 2.304770485412216,15.078502396876324 6.721343505909537,10.766002396876324
c 9.508571428571429,-4.3125 5.851428571428571,15.09375 14.264012911823603,25.171497603123676 c -0.0,16.844510205469696 3.657142857142857,34.6229292441264 -1.5293324159507844,29.591679244126396
c -15.48213210783458,-4.3125 -21.615880275656544,0 -21.615880275656544,6.3458207558736035
c 0,9.718974958963557 20.172049261380117,14.031474958963557 20.929237724603453,9.718974958963557
c 9.508571428571429,-4.3125 5.851428571428571,15.09375 2.2159749670038735,26.218525041036443 c -0.0,5.908315913324233 3.657142857142857,34.92438734151545 0.24183587943824492,29.893137341515445
c -12.876371461329626,-4.3125 -21.608208998009943,0 -21.608208998009943,6.044362658484555
c 0,7.021158681120845 10.223706701291864,11.333658681120845 20.524606586529508,7.021158681120845
c 9.508571428571429,-4.3125 5.851428571428571,15.09375 0.8417665320421897,28.916341318879155 c 0.0,9.696447294434973 -3.657142857142857,29.64659850491873 9.605086367311443,24.61534850491873
c 9.803605421831687,-4.3125 10.280476527297733,0 10.280476527297733,11.322151495081268
c 0,9.985885920250944 -7.773764740126812,14.298385920250944 -7.949586429838924,9.985885920250944
c -9.508571428571429,-4.3125 -5.851428571428571,15.09375 -11.935976464770253,25.951614079749056 c -0.0,17.749861618352956 3.657142857142857,34.55478690569296 -13.765985137540355,29.523536905692957
c -3.4480499161740785,-4.3125 -5.9006372504707265,0 -5.9006372504707265,6.413963094307043
c 0,11.106345807222333 4.059811751827766,15.418845807222333 8.758491768045314,11.106345807222333
c 9.508571428571429,-4.3125 5.851428571428571,15.09375 10.908130619965767,24.831154192777667 c -0.0,15.613081898295047 3.657142857142857,34.63826716562838 -5.8350670825316024,29.607017165628374
c -7.185434988723239,-4.3125 -17.2325357930684,0 -17.2325357930684,6.330482834371626
c 0,6.751194218103741 12.335821185831374,11.063694218103741 12.845847562487972,6.751194218103741
c 9.508571428571429,-4.3125 5.851428571428571,15.09375 10.22175531311203,29.18630578189626 c -0.0,11.072468551005619 3.657142857142857,34.9815947058629 -8.241159486555642,29.9503447058629
c -4.3600695031736025,-4.3125 -10.24660068281225,0 -10.24660068281225,5.9871552941371
c 0,7.880343237462725 4.703062037741904,12.192843237462725 7.701149088679921,7.880343237462725
c 9.508571428571429,-4.3125 5.851428571428571,15.09375 10.78661108068797,28.057156762537275 L 0 575 " fill="none" stroke="black" stroke-width="1.0" style="vector-effect:non-scaling-stroke;"/></g><g><path d="M 0 0  L 585.142857 0  c -0.0,6.390858493106425 3.657142857142857,31.242814844550047 0.3852318118943426,26.211564844550047
c -12.444102788805457,-4.3125 -19.190704673263195,0 -19.190704673263195,9.725935155449953
c 0,9.125449328528184 12.919515232385692,13.437949328528184 20.266690318237934,9.125449328528184
c 9.508571428571429,-4.3125 5.851428571428571,15.09375 -1.4612174568690826,26.812050671471816 c 0.0,20.357861439783225 -3.657142857142857,35.35496039050419 5.3382320998430615,30.323710390504186
c 4.100506166718975,-4.3125 16.92707153291958,0 16.92707153291958,5.613789609495814
c 0,7.891571229357744 -11.752865545032698,12.204071229357744 -22.351064469623115,7.891571229357744
c -9.508571428571429,-4.3125 -5.851428571428571,15.09375 0.08576083686047298,28.045928770642256 c -0.0,19.517520163887205 3.657142857142857,32.1409909663536 -15.279022798251813,27.1097409663536
c -7.05303303526619,-4.3125 -8.492106756531985,0 -8.492106756531985,8.827759033646402
c 0,7.694614199420968 10.027896293368835,12.007114199420968 23.345857550034324,7.694614199420968
c 9.508571428571429,-4.3125 5.851428571428571,15.09375 0.42527200474947335,28.24288580057903 c -0.0,15.154531703475246 3.657142857142857,34.777130785698816 -5.472480217751436,29.745880785698816
c -7.478101831389264,-4.3125 -14.935831401943872,0 -14.935831401943872,6.191619214301184
c 0,7.491152800018327 15.732034398872546,11.803652800018327 20.21708412137879,7.491152800018327
c 9.508571428571429,-4.3125 5.851428571428571,15.09375 0.1912274983165183,28.446347199981673 c 0.0,8.302258125106167 -3.657142857142857,34.63334678595496 10.354081301230247,29.60209678595496
c 11.128522856366102,-4.3125 11.332089245279613,0 11.332089245279613,6.335403214045041
c 0,7.581760960067051 -18.84369147191639,11.89426096006705 -21.48241077049888,7.581760960067051
c -9.508571428571429,-4.3125 -5.851428571428571,15.09375 -0.20375977601097972,28.35573903993295 c -0.0,12.787921917904908 3.657142857142857,33.99050028069704 -11.881799181238563,28.95925028069704
c -8.73263180369605,-4.3125 -10.994590625460695,0 -10.994590625460695,6.9782497193029585
c 0,10.64851410727345 5.954133195885464,14.96101410727345 18.88279661579274,10.64851410727345
c 9.508571428571429,-4.3125 5.851428571428571,15.09375 3.9935931909065197,25.28898589272655 c -0.0,5.289651947423533 3.657142857142857,32.569479809437595 -6.956628289796417,27.538229809437595
c -10.95594652096906,-4.3125 -16.603735522413487,0 -16.603735522413487,8.399270190562405
c 0,9.80346203686009 13.87694762573924,14.11596203686009 22.910071228496438,9.80346203686009
c 9.508571428571429,-4.3125 5.851428571428571,15.09375 0.6502925837134654,26.13403796313991 c 0.0,15.05182529210378 -3.657142857142857,29.528701224250877 8.68691442636766,24.497451224250877
c 3.175009224889598,-4.3125 12.411677911239595,0 12.411677911239595,11.440048775749123
c 0,6.385816656642021 -4.374820119367704,10.698316656642021 -8.592223858656592,6.385816656642021
c -9.508571428571429,-4.3125 -5.851428571428571,15.09375 -12.506368478950662,29.55168334335798 L 0 575 " fill="none" stroke="black" stroke-width="1.0" style="vector-effect:non-scaling-stroke;"/></g><g><path d="M 0 0  L 658.285714 0  c 0.0,13.85889244994249 -3.657142857142857,35.183910894017984 7.959008957339002,30.152660894017984
c 6.30552068695849,-4.3125 16.788631695218815,0 16.788631695218815,5.784839105982016
c 0,8.381418946025882 -10.6013912054205,12.693918946025882 -25.406028614365837,8.381418946025882
c -9.508571428571429,-4.3125 -5.851428571428571,15.09375 0.6583879618080211,27.55608105397412 c 0.0,14.677996581308227 -3.657142857142857,33.607075887370115 11.153487318593816,28.575825887370115
c 10.283202209918048,-4.3125 12.673572425302995,0 12.673572425302995,7.361674112629885
c 0,6.654285196128619 -10.646618787408146,10.966785196128619 -11.294191178412923,6.654285196128619
c -9.508571428571429,-4.3125 -5.851428571428571,15.09375 -12.532868565483888,29.28321480387138 c 0.0,9.915509393161175 -3.657142857142857,33.67724129593896 3.3535250987977645,28.645991295938963
c 10.69311529452142,-4.3125 18.704527506846816,0 18.704527506846816,7.291508704061037
c 0,5.9791823265346125 -5.873216692636703,10.291682326534612 -7.875668527517002,5.9791823265346125
c -9.508571428571429,-4.3125 -5.851428571428571,15.09375 -14.182384078127578,29.958317673465388 c -0.0,14.54528697865705 3.657142857142857,33.614057810097826 -5.76651612635665,28.582807810097826
c -8.157587502117016,-4.3125 -13.229621972845873,0 -13.229621972845873,7.354692189902174
c 0,7.781668234255484 5.6331701294273495,12.094168234255484 6.8214211250390715,7.781668234255484
c 9.508571428571429,-4.3125 5.851428571428571,15.09375 12.17471697416345,28.155831765744516 c -0.0,18.28204389271067 3.657142857142857,30.376717612174456 -0.11276135939258808,25.345467612174456
c -13.358584651771384,-4.3125 -19.57616213982646,0 -19.57616213982646,10.592032387825544
c 0,8.100916846917592 3.796200685218569,12.413416846917592 7.348088497305467,8.100916846917592
c 9.508571428571429,-4.3125 5.851428571428571,15.09375 12.340835001913584,27.836583153082408 c 0.0,14.44217544269711 -3.657142857142857,35.88191083637524 9.006598324700146,30.85066083637524
c 13.286322067916029,-4.3125 15.097918575782575,0 15.097918575782575,5.086839163624759
c 0,5.964563317707928 -15.395936193299995,10.277063317707928 -21.30701484569837,5.964563317707928
c -9.508571428571429,-4.3125 -5.851428571428571,15.09375 -2.7975020547843528,29.972936682292072 c 0.0,20.142169945094455 -3.657142857142857,31.42481114575884 5.63988506748853,26.39356114575884
c 8.05567323212149,-4.3125 12.649868217754635,0 12.649868217754635,9.543938854241159
c 0,11.051288695737796 -6.38044218755291,15.363788695737796 -16.273728070113055,11.051288695737796
c -9.508571428571429,-4.3125 -5.851428571428571,15.09375 -2.01602521513011,24.886211304262204 c 0.0,11.976081099060226 -3.657142857142857,30.382238284344282 3.79783686026281,25.350988284344282
c 6.291488193514825,-4.3125 14.612693288346067,0 14.612693288346067,10.586511715655718
c 0,11.219343928527202 -3.4474692267059828,15.531843928527202 -5.400715485388778,11.219343928527202
c -9.508571428571429,-4.3125 -5.851428571428571,15.09375 -13.0098146632201,24.718156071472798 L 0 575 " fill="none" stroke="black" stroke-width="1.0" style="vector-effect:non-scaling-stroke;"/></g><g><path d="M 0 0  L 731.428571 0  c -0.0,5.96162904726907 3.657142857142857,35.33997667961191 -10.026435213352451,30.308726679611905
c -7.421127083634732,-4.3125 -7.631991455409144,0 -7.631991455409144,5.628773320388095
c 0,7.845848707969175 1.645660194996086,12.158348707969175 7.824488381690786,7.845848707969175
c 9.508571428571429,-4.3125 5.851428571428571,15.09375 9.83393828707081,28.091651292030825 c -0.0,19.728646655539517 3.657142857142857,30.32251431627983 -9.465469192632325,25.29126431627983
c -6.469930840292469,-4.3125 -12.787570756077974,0 -12.787570756077974,10.646235683720171
c 0,6.791319822303741 2.777149700532187,11.103819822303741 9.809303226281655,6.791319822303741
c 9.508571428571429,-4.3125 5.851428571428571,15.09375 12.443736722428644,29.14618017769626 c -0.0,3.8213370503053388 3.657142857142857,32.65234012896954 -12.103012922053342,27.621090128969538
c -7.6721945209379765,-4.3125 -7.626531021084496,0 -7.626531021084496,8.316409871030462
c 0,7.403053937890945 3.715700177898521,11.715553937890945 7.88318374264543,7.403053937890945
c 9.508571428571429,-4.3125 5.851428571428571,15.09375 11.846360200492407,28.534446062109055 c -0.0,9.80449428572913 3.657142857142857,35.13251151855649 -8.554282172540546,30.101261518556488
c -3.3716987015132656,-4.3125 -12.070655545733505,0 -12.070655545733505,5.836238481443512
c 0,9.10156153964266 9.22441328554208,13.41406153964266 12.10367263151345,9.10156153964266
c 9.508571428571429,-4.3125 5.851428571428571,15.09375 8.5212650867606,26.83593846035734 c -0.0,16.2719044919787 3.657142857142857,33.39099782207698 -10.022694403466277,28.359747822076983
c -7.635278047481402,-4.3125 -14.623299589575174,0 -14.623299589575174,7.577752177923017
c 0,6.362988615537212 11.425612796656367,10.675488615537212 12.747283670274292,6.362988615537212
c 9.508571428571429,-4.3125 5.851428571428571,15.09375 11.898710322767158,29.574511384462788 c -0.0,7.5666205254576475 3.657142857142857,34.64622634907842 -14.807209881656615,29.614976349078415
c -6.246769072168409,-4.3125 -7.7786288013697344,0 -7.7786288013697344,6.322523650921585
c 0,9.499915222286113 12.679618805761809,13.812415222286113 15.98834297347873,9.499915222286113
c 9.508571428571429,-4.3125 5.851428571428571,15.09375 6.597495709547619,26.437584777713887 c 0.0,8.60874773016041 -3.657142857142857,32.73268633806117 1.493575704450649,27.70143633806117
c 5.787114115008393,-4.3125 22.8642194415034,0 22.8642194415034,8.236063661938829
c 0,7.811217984726419 -11.324478922440559,12.123717984726419 -14.668633001305583,7.811217984726419
c -9.508571428571429,-4.3125 -5.851428571428571,15.09375 -9.689162144648467,28.12628201527358 c 0.0,17.22316343241909 -3.657142857142857,31.903348369688782 10.985793784550472,26.872098369688782
c 6.759467297047742,-4.3125 6.816257234703249,0 6.816257234703249,9.065401630311218
c 0,11.46686375690183 -3.6924499391672603,15.77936375690183 -5.493779049331865,11.46686375690183
c -9.508571428571429,-4.3125 -5.851428571428571,15.09375 -12.308271969921856,24.47063624309817 L 0 575 " fill="none" stroke="black" stroke-width="1.0" style="vector-effect:non-scaling-stroke;"/></g><g><path d="M 0 0  L 804.571429 0  c 0.0,11.2775809441213 -3.657142857142857,32.248561710323926 11.02852760600854,27.217311710323926
c 4.129363801105427,-4.3125 13.358326550000735,0 13.358326550000735,8.720188289676074
c 0,7.426870581394546 -16.18670163570581,11.739370581394546 -16.19127407736176,7.426870581394546
c -9.508571428571429,-4.3125 -5.851428571428571,15.09375 -8.195580078647513,28.510629418605454 c -0.0,13.176797697935989 3.657142857142857,30.740603748352388 -0.7735133428386407,25.709353748352388
c -14.07075658177633,-4.3125 -22.739859551878087,0 -22.739859551878087,10.228146251647612
c 0,8.663912494738085 10.576136382901465,12.976412494738085 14.041795511611946,8.663912494738085
c 9.508571428571429,-4.3125 5.851428571428571,15.09375 9.471577383104782,27.273587505261915 c 0.0,6.509183327093033 -3.657142857142857,31.25895160368183 -1.1472300829277167,26.22770160368183
c 12.949561247806194,-4.3125 19.496937145525994,0 19.496937145525994,9.70979839631817
c 0,10.813252873601769 -12.25928893026741,15.125752873601769 -14.19317505225321,10.813252873601769
c -9.508571428571429,-4.3125 -5.851428571428571,15.09375 -4.156532010345067,25.12424712639823 c 0.0,10.426417767491744 -3.657142857142857,32.52672026968898 3.131788054374847,27.49547026968898
c 9.007926667931336,-4.3125 18.67709660429411,0 18.67709660429411,8.44202973031102
c 0,9.776411676688575 -11.502825293041614,14.088911676688575 -21.139742797180734,9.776411676688575
c -9.508571428571429,-4.3125 -5.851428571428571,15.09375 -0.6691418614882245,26.161088323311425 c 0.0,10.917256514507761 -3.657142857142857,31.734814069773464 15.72028799987174,26.703564069773464
c 0.9357438095370983,-4.3125 3.1371689942499543,0 3.1371689942499543,9.233935930226536
c 0,5.086233193927789 -6.234691795004173,9.39873319392779 -7.680550880882512,5.086233193927789
c -9.508571428571429,-4.3125 -5.851428571428571,15.09375 -11.176906113239182,30.85126680607221 c 0.0,5.042847281988693 -3.657142857142857,31.999615032836775 12.443180285222965,26.968365032836775
c 2.185363773985404,-4.3125 5.766128415774922,0 5.766128415774922,8.969134967163225
c 0,10.137515985262162 -3.245255413272997,14.450015985262162 -4.163918744383258,10.137515985262162
c -9.508571428571429,-4.3125 -5.851428571428571,15.09375 -14.04538995661463,25.799984014737838 c -0.0,10.38453259124059 3.657142857142857,33.01980982657906 -14.530965179278075,27.988559826579063
c -1.194645671768941,-4.3125 -4.50931573970888,0 -4.50931573970888,7.948940173420937
c 0,5.79301213669514 14.244692180308508,10.10551213669514 15.590658439190456,5.79301213669514
c 9.508571428571429,-4.3125 5.851428571428571,15.09375 3.449622479796499,30.14448786330486 c -0.0,13.826704282484998 3.657142857142857,34.13841357880067 -4.260006955864106,29.107163578800673
c -11.104792065081279,-4.3125 -16.76148737361396,0 -16.76148737361396,6.830336421199327
c 0,8.283424973423934 13.176047155800816,12.595924973423934 22.305917237093308,8.283424973423934
c 9.508571428571429,-4.3125 5.851428571428571,15.09375 -1.284422907615241,27.654075026576066 L 0 575 " fill="none" stroke="black" stroke-width="1.0" style="vector-effect:non-scaling-stroke;"/></g><g><path d="M 0 0  L 877.714286 0  c 0.0,15.386133537042625 -3.657142857142857,35.41211602301961 5.388999588255978,30.380866023019607
c 10.284612593160677,-4.3125 13.169654109644174,0 13.169654109644174,5.556633976980393
c 0,9.55236585190152 -6.405543161673722,13.86486585190152 -6.997132478549172,9.55236585190152
c -9.508571428571429,-4.3125 -5.851428571428571,15.09375 -11.561521219350979,26.38513414809848 c 0.0,10.70237292647935 -3.657142857142857,29.89639535970793 11.981468581079945,24.86514535970793
c 10.781686294884478,-4.3125 11.020314305355964,0 11.020314305355964,11.072354640292069
c 0,7.376420190564417 -11.242926346434123,11.688920190564417 -22.909988382406514,7.376420190564417
c -9.508571428571429,-4.3125 -5.851428571428571,15.09375 -0.09179450402939437,28.561079809435583 c -0.0,4.312325342333918 3.657142857142857,33.75392799488143 -13.950290630440202,28.72267799488143
c -3.2723081618368983,-4.3125 -6.375051912155618,0 -6.375051912155618,7.21482200511857
c 0,6.9226784953776885 8.68804959407536,11.235178495377689 17.275775868802437,6.9226784953776885
c 9.508571428571429,-4.3125 5.851428571428571,15.09375 3.0495666737933824,29.01482150462231 c -0.0,18.488899719536022 3.657142857142857,31.150040486006127 -12.06628561164417,26.118790486006127
c -2.6999628853312143,-4.3125 -7.0733540942054365,0 -7.0733540942054365,9.818709513993873
c 0,9.647641105341613 6.9111745087169725,13.960141105341613 13.495440010289283,9.647641105341613
c 9.508571428571429,-4.3125 5.851428571428571,15.09375 5.644199695560324,26.289858894658387 c 0.0,14.797268361809808 -3.657142857142857,29.51470132131797 1.5952946932677765,24.48345132131797
c 14.016405838328614,-4.3125 18.5573262328772,0 18.5573262328772,11.454048678682032
c 0,7.915040012356805 -10.815006836286797,12.227540012356805 -11.401370096501756,7.915040012356805
c -9.508571428571429,-4.3125 -5.851428571428571,15.09375 -8.75125082964322,28.022459987643195 c 0.0,12.622941294292255 -3.657142857142857,35.560307619008334 10.916116145175648,30.529057619008334
c 2.8304623291574855,-4.3125 10.919604469578191,0 10.919604469578191,5.408442380991666
c 0,7.46282311999942 -12.798221486873603,11.77532311999942 -20.19314490496042,7.46282311999942
c -9.508571428571429,-4.3125 -5.851428571428571,15.09375 -1.6425757097934195,28.47467688000058 c -0.0,17.438855592324938 3.657142857142857,33.49075127378515 -12.947059351142688,28.459501273785147
c -4.335553888481255,-4.3125 -10.926840459102227,0 -10.926840459102227,7.477998726214853
c 0,9.516623981998606 3.4268724070275196,13.829123981998606 12.666317801745274,9.516623981998606
c 9.508571428571429,-4.3125 5.851428571428571,15.09375 11.20758200849964,26.420876018001394 c -0.0,4.121405304536141 3.657142857142857,35.66368680669356 -14.871053940038115,30.632436806693562
c -2.038311074069808,-4.3125 -5.745474327617048,0 -5.745474327617048,5.305063193306438
c 0,8.819915341047285 8.633169109462216,13.132415341047285 11.262195950562822,8.819915341047285
c 9.508571428571429,-4.3125 5.851428571428571,15.09375 9.354332317092341,27.117584658952715 L 0 575 " fill="none" stroke="black" stroke-width="1.0" style="vector-effect:non-scaling-stroke;"/></g><g><path d="M 0 0  L 950.857143 0  c -0.0,5.890727354986987 3.657142857142857,35.76276739485186 -6.836762229886284,30.731517394851863
c -4.772416660886485,-4.3125 -11.578949258453015,0 -11.578949258453015,5.205982605148137
c 0,9.759441395422293 2.6866040519981933,14.071941395422293 3.7078150119998448,9.759441395422293
c 9.508571428571429,-4.3125 5.851428571428571,15.09375 14.707896476339453,26.178058604577707 c -0.0,19.461407210373768 3.657142857142857,31.964377278751414 -0.9824479591250798,26.933127278751414
c -15.944249669774008,-4.3125 -18.31426872948739,0 -18.31426872948739,9.004372721248586
c 0,9.525359149250384 2.4265311415149475,13.837859149250384 6.068495116692933,9.525359149250384
c 9.508571428571429,-4.3125 5.851428571428571,15.09375 13.228221571919537,26.412140850749616 c 0.0,5.646579634630195 -3.657142857142857,35.37276991933199 7.648495098932927,30.34151991933199
c 7.409196969216283,-4.3125 13.52515683003666,0 13.52515683003666,5.59598008066801
c 0,7.956627892408747 -14.52300684163963,12.269127892408747 -22.165761227246634,7.956627892408747
c -9.508571428571429,-4.3125 -5.851428571428571,15.09375 0.9921092982770467,27.980872107591253 c -0.0,20.679244343770584 3.657142857142857,30.692135444247842 -1.9984091517334042,25.660885444247842
c -13.989438588104646,-4.3125 -22.053604150006276,0 -22.053604150006276,10.276614555752158
c 0,5.264599023138096 2.071044952802902,9.577099023138096 9.26938617274553,5.264599023138096
c 9.508571428571429,-4.3125 5.851428571428571,15.09375 14.78262712899415,30.672900976861904 c 0.0,6.678029048640241 -3.657142857142857,34.71485293122785 13.065767316910632,29.68360293122785
c 8.941776023483072,-4.3125 11.128271885060412,0 11.128271885060412,6.253897068772151
c 0,8.886727535771627 -6.976890464348027,13.199227535771627 -24.15602067643362,8.886727535771627
c -9.508571428571429,-4.3125 -5.851428571428571,15.09375 -0.03801852553742435,27.050772464228373 c 0.0,14.578974683421029 -3.657142857142857,35.547326255807945 8.337234827946878,30.516076255807945
c 9.985118171020781,-4.3125 12.472855272088358,0 12.472855272088358,5.4214237441920545
c 0,10.357444204167848 -4.162503888702487,14.669944204167848 -11.834035678239957,10.357444204167848
c -9.508571428571429,-4.3125 -5.851428571428571,15.09375 -8.97605442179528,25.580055795832152 c 0.0,14.756733026926717 -3.657142857142857,35.22197397026334 4.560201529125789,30.190723970263342
c 13.230467029252672,-4.3125 18.54093891223932,0 18.54093891223932,5.746776029736658
c 0,7.9212640028668275 -8.317120847620043,12.233764002866828 -21.332264280723507,7.9212640028668275
c -9.508571428571429,-4.3125 -5.851428571428571,15.09375 -1.7688761606416001,28.016235997133172 c 0.0,5.85785368811264 -3.657142857142857,35.25753035397502 7.76098729519551,30.22628035397502
c 3.716665184563997,-4.3125 10.54035892865485,0 10.54035892865485,5.711219646024979
c 0,7.930204469563833 -1.7774624475310543,12.242704469563833 -5.5052736866659355,7.930204469563833
c -9.508571428571429,-4.3125 -5.851428571428571,15.09375 -12.796072537184424,28.007295530436167 L 0 575 " fill="none" stroke="black" stroke-width="1.0" style="vector-effect:non-scaling-stroke;"/></g></g><g><g><path d="M 0 0  L 0 71.875000  c 9.208695323679024,0.0 30.03668478124307,-3.59375 24.91668478124307,8.370002823443311
c -4.388571428571428,6.332139593460572 0,10.72123307884764 11.654743790185499,10.72123307884764
c 11.162075748796823,0 15.550647177368251,-13.999662721572482 11.162075748796823,-15.467550810447058
c -4.388571428571428,-9.34375 15.36,-5.75 25.409352822631746,-3.6236850918438925 c 12.773619056809544,-0.0 32.18359944545581,3.59375 27.063599445455814,-12.444316848918872
c -4.388571428571428,-5.39144414555311 0,-7.597646662269378 9.507829125972755,-7.597646662269378
c 9.134063507295828,0 13.522634935867256,2.93187392046124 9.134063507295828,7.400011935850154
c -4.388571428571428,9.34375 15.36,5.75 27.43736506413274,12.641951575338096 c 12.300277864893198,0.0 33.337451030014506,-3.59375 28.21745103001451,0.42049365028802677
c -4.388571428571428,7.068073197620837 0,18.960980000691993 8.35397754141406,18.960980000691993
c 8.401934031945622,0 12.79050546051705,-19.175509792211408 8.401934031945622,-19.49441018323208
c -4.388571428571428,-9.34375 15.36,-5.75 28.169494539482947,0.11293653225206057 c 6.94075945205943,0.0 30.63494781254285,-3.59375 25.51494781254285,14.253795012437822
c -4.388571428571428,6.748417701555346 0,6.7862637243009925 11.05648075888572,6.7862637243009925
c 8.315840565736877,0 12.704411994308305,-11.852501951840527 8.315840565736877,-21.844638703984515
c -4.388571428571428,-9.34375 15.36,-5.75 28.255588005691692,0.8045799672457008 c 13.107116203297409,-0.0 30.39337610304912,3.59375 25.27337610304912,-9.028159940265693
c -4.388571428571428,-10.923765555572752 0,-14.8008890087845 11.29805246837945,-14.8008890087845
c 5.2895861502429895,0 9.678157578814417,6.350085609471976 5.2895861502429895,13.64372776028847
c -4.388571428571428,9.34375 15.36,5.75 31.28184242118558,10.185321188761723 c 14.569157612824462,-0.0 31.037556768950637,3.59375 25.917556768950636,-14.058351154176068
c -4.388571428571428,-1.5908885747965988 0,-4.004441199739988 10.653871802477934,-4.004441199739988
c 8.757134355349855,0 13.145705783921283,15.971842024940127 8.757134355349855,18.272442177881725
c -4.388571428571428,9.34375 15.36,5.75 27.814294216078714,-0.20964982396566967 c 12.455971681315248,-0.0 31.83556982615077,3.59375 26.71556982615077,-4.937233648904911
c -4.388571428571428,-18.97183582507253 0,-18.970367097341807 9.8558587452778,-18.970367097341807
c 8.285905391225434,0 12.674476819796862,6.329660913863728 8.285905391225434,11.372192825877997
c -4.388571428571428,9.34375 15.36,5.75 28.285523180203135,12.535407920368721 c 12.594970776260158,-0.0 32.47942537582178,3.59375 27.359425375821786,-11.955082869695378
c -4.388571428571428,-5.518483624584235 0,-6.444613951071506 9.212003195606783,-6.444613951071506
c 10.184935077979112,0 14.57350650655054,0.8259344322803056 10.184935077979112,3.5573007154062726
c -4.388571428571428,9.34375 15.36,5.75 26.386493493449457,14.842396105360612 c 7.812978414123646,-0.0 31.773395237872887,3.59375 26.653395237872886,-8.048876163395187
c -4.388571428571428,-4.3033908832149335 0,-11.228303623179444 9.918033333555684,-11.228303623179444
c 9.294822040083346,0 13.683393468654774,3.1279414091591775 9.294822040083346,12.345378912802115
c -4.388571428571428,9.34375 15.36,5.75 27.276606531345223,6.9318008737725165 c 6.685773765400623,0.0 30.787191903944038,-3.59375 25.667191903944037,4.280013295696453
c -4.388571428571428,4.943132960358329 0,16.67067430376957 10.904236667484533,16.67067430376957
c 9.10184472736534,0 13.490416155936767,-10.904325219895679 9.10184472736534,-13.98102167373223
c -4.388571428571428,-9.34375 15.36,-5.75 27.46958384406323,-6.969665925733793 c 8.349647551663141,-0.0 30.950210855775374,3.59375 25.830210855775373,-2.339549994392711
c -4.388571428571428,-10.487313126738842 0,-19.307438735638385 10.741217715653196,-19.307438735638385
c 9.382873116459287,0 13.771444545030715,4.530278771175721 9.382873116459287,11.981579115228513
c -4.388571428571428,9.34375 15.36,5.75 27.188555454969283,9.665409614802584 c 4.676770248522193,-0.0 33.10815110980238,3.59375 27.988151109802377,-9.479045588942302
c -4.388571428571428,-7.327078182245814 0,-8.701715324211914 8.583277461626192,-8.701715324211914
c 7.241390413706107,0 11.629961842277535,6.910661288116369 7.241390413706107,16.166635059339626
c -4.388571428571428,9.34375 15.36,5.75 29.330038157722463,2.0141258538145905 c 8.991492265942558,-0.0 32.00378654804522,3.59375 26.883786548045222,-12.178015420063929
c -4.388571428571428,-7.008743752226947 0,-8.867157385209218 9.687642023383347,-8.867157385209218
c 10.654972079255074,0 15.043543507826502,6.229401940259003 10.654972079255074,11.21368204925164
c -4.388571428571428,9.34375 15.36,5.75 25.916456492173495,9.831490756021507 c 7.99013988034388,-0.0 32.602424266906105,3.59375 27.482424266906108,-13.62333888788544
c -4.388571428571428,-4.551748731468176 0,-7.404195886086674 9.089004304522462,-7.404195886086674
c 6.971799578503365,0 11.360371007074793,16.01535218164334 6.971799578503365,19.295245333158228
c -4.388571428571428,9.34375 15.36,5.75 29.599628992925204,1.7322894408138865 L 1024 0 " fill="none" stroke="black" stroke-width="1.0" style="vector-effect:non-scaling-stroke;"/></g><g><path d="M 0 0  L 0 143.750000  c 4.536266289832743,0.0 32.369246830634964,-3.59375 27.249246830634966,14.88176621384388
c -4.388571428571428,4.367365099093578 0,4.834119710859808 9.322181740793603,4.834119710859808
c 5.645336663904679,0 10.033908092476107,-9.43458095079293 5.645336663904679,-11.45532715130769
c -4.388571428571428,-9.34375 15.36,-5.75 30.92609190752389,-8.260558773395998 c 7.153521691982553,0.0 31.3330507782568,-3.59375 26.2130507782568,10.19168574043242
c -4.388571428571428,13.597461809699784 0,13.858331639536056 10.358377793171769,13.858331639536056
c 5.326732404906245,0 9.715303833477673,-22.226664053748753 5.326732404906245,-22.364446395878513
c -4.388571428571428,-9.34375 15.36,-5.75 31.244696166522324,-1.6855709840899635 c 13.394604026427563,0.0 33.66891201613065,-3.59375 28.54891201613065,1.3011197569228907
c -4.388571428571428,5.447362919455115 0,20.69786637792094 8.02251655529792,20.69786637792094
c 7.107643596684731,0 11.49621502525616,-13.659148209694159 7.107643596684731,-21.400648503975567
c -4.388571428571428,-9.34375 15.36,-5.75 29.463784974743838,-0.5983376308682615 c 8.449490205528155,-0.0 32.30386077151058,3.59375 27.18386077151058,-8.443705365929615
c -4.388571428571428,-8.61809513847331 0,-12.591653921064777 9.387567799917989,-12.591653921064777
c 9.143002565289429,0 13.531573993860857,10.33339127453198 9.143002565289429,20.6816476325312
c -4.388571428571428,9.34375 15.36,5.75 27.42842600613914,0.3537116544631935 c 11.655514170323883,-0.0 31.459683509902646,3.59375 26.339683509902645,0.0515707370299708
c -4.388571428571428,-6.7831218629075565 0,-23.89755483228271 10.231745061525924,-23.89755483228271
c 5.200717606176802,0 9.58928903474823,3.6498204091291075 5.200717606176802,13.26937951575941
c -4.388571428571428,9.34375 15.36,5.75 31.370710965251767,10.576604579493333 c 4.86564634119475,0.0 31.013200005002318,-3.59375 25.893200005002317,14.290323545281254
c -4.388571428571428,8.913746826656595 0,8.8642431691968 10.678228566426252,8.8642431691968
c 7.357853829933845,0 11.746425258505273,-11.99325710419124 7.357853829933845,-18.675321457374796
c -4.388571428571428,-9.34375 15.36,-5.75 29.213574741494725,-4.479245257103258 c 19.517519196370113,-0.0 33.158361630826626,3.59375 28.038361630826625,-0.4874773549709325
c -4.388571428571428,-16.097522262683405 0,-20.827962254810313 8.533066940601945,-20.827962254810313
c 8.206659433113984,0 12.595230861685412,7.852853955100556 8.206659433113984,17.604747094799134
c -4.388571428571428,9.34375 15.36,5.75 28.364769138314585,3.71069251498211 c 9.63592970026227,-0.0 31.509324873893537,3.59375 26.389324873893536,0.75084272179793
c -4.388571428571428,-12.467229096156467 0,-24.65365078168331 10.182103697535034,-24.65365078168331
c 6.678766184183495,0 11.067337612754923,8.509194866421247 6.678766184183495,10.514175359088219
c -4.388571428571428,9.34375 15.36,5.75 29.892662387245075,13.388632700797162 c 10.462700050378375,0.0 31.983119564782474,-3.59375 26.863119564782473,2.1408972719299975
c -4.388571428571428,5.350109046465431 0,17.268971693132855 9.708309006646097,17.268971693132855
c 9.550884760192815,0 13.939456188764243,-4.744957582448783 9.550884760192815,-5.504422514137968
c -4.388571428571428,-9.34375 15.36,-5.75 27.020543811235754,-13.905446450924885 c 16.114878247654595,-0.0 31.50347502607634,3.59375 26.38347502607634,-8.108896443854368
c -4.388571428571428,-3.788277192735265 0,-12.05601440289516 10.18795354535223,-12.05601440289516
c 10.199183672340205,0 14.587755100911632,13.850281221767801 10.199183672340205,14.103618449779422
c -4.388571428571428,9.34375 15.36,5.75 26.372244899088365,6.0612923969701065 c 6.45122655070612,0.0 34.513814168256054,-3.59375 29.393814168256057,1.5007960547163457
c -4.388571428571428,9.716454251417606 0,18.831961912180148 7.177614403172512,18.831961912180148
c 8.659828347682549,0 13.048399776253977,-3.6081548845719804 8.659828347682549,-14.186359359765717
c -4.388571428571428,-9.34375 15.36,-5.75 27.91160022374602,-6.146398607130777 c 11.435223604933814,-0.0 30.529854740596203,3.59375 25.409854740596202,-0.9521435496275024
c -4.388571428571428,-9.795542008713674 0,-22.141421963798457 11.161573830832367,-22.141421963798457
c 9.561222919075007,0 13.949794347646435,5.0610130044133905 9.561222919075007,20.927603214803202
c -4.388571428571428,9.34375 15.36,5.75 27.010205652353562,2.165962298622759 c 11.281858321995205,0.0 36.392620713932686,-3.59375 31.27262071393269,9.834099291955352
c -4.388571428571428,7.3123839594831095 0,8.11731246790796 5.298807857495881,8.11731246790796
c 9.97400333874824,0 14.362574767319668,-6.205977506571766 9.97400333874824,-6.698820602508723
c -4.388571428571428,-9.34375 15.36,-5.75 26.59742523268033,-11.252591157354589 c 10.524125034865468,-0.0 32.930333908038264,3.59375 27.810333908038267,-3.2075338342196664
c -4.388571428571428,-6.709980417779443 0,-18.740402455810607 8.761094663390303,-18.740402455810607
c 7.260141458220097,0 11.648712886791525,2.530031693742305 7.260141458220097,8.029997115055314
c -4.388571428571428,9.34375 15.36,5.75 29.311287113208472,13.91793917497496 L 1024 0 " fill="none" stroke="black" stroke-width="1.0" style="vector-effect:non-scaling-stroke;"/></g><g><path d="M 0 0  L 0 215.625000  c 5.145429738078663,0.0 34.32551740106356,-3.59375 29.20551740106356,6.697407720780379
c -4.388571428571428,12.235168271337475 0,15.93308774748299 7.36591117036501,15.93308774748299
c 7.427599157626048,0 11.816170586197476,-7.585145778937344 7.427599157626048,-20.215108381434863
c -4.388571428571428,-9.34375 15.36,-5.75 29.14382941380252,-2.415387086828506 c 16.436125856003155,0.0 32.95789650035185,-3.59375 27.83789650035185,3.670069337088524
c -4.388571428571428,13.283699728625612 0,17.529827573111035 8.73353207107672,17.529827573111035
c 11.459986253503068,0 15.848557682074496,-3.392482046145675 11.459986253503068,-13.085758887289627
c -4.388571428571428,-9.34375 15.36,-5.75 25.1114423179255,-8.114138022909932 c 14.586371437301766,-0.0 31.027575766566525,3.59375 25.907575766566524,-7.108906358219499
c -4.388571428571428,-15.717984289661729 0,-16.919909718394297 10.663852804862046,-16.919909718394297
c 10.0862062141993,0 14.474777642770729,9.03650288019846 10.0862062141993,13.817006083110412
c -4.388571428571428,9.34375 15.36,5.75 26.48522235722927,10.211809993503385 c 7.0068290082981886,0.0 34.07048368025347,-3.59375 28.950483680253466,3.0676565847848543
c -4.388571428571428,6.333073811053964 0,18.429362364836045 7.620944891175103,18.429362364836045
c 5.444237502774868,0 9.832808931346296,-6.0982071744441875 5.444237502774868,-17.465951935424748
c -4.388571428571428,-9.34375 15.36,-5.75 31.1271910686537,-4.03106701419615 c 14.918798023744147,0.0 30.62772927564572,-3.59375 25.50772927564572,10.784347640407747
c -4.388571428571428,2.2871554583053038 0,10.164180473188322 11.06369929578285,10.164180473188322
c 6.862968835692833,0 11.25154026426426,-15.88382039776807 6.862968835692833,-21.026078174844024
c -4.388571428571428,-9.34375 15.36,-5.75 29.708459735735737,0.07755006124795472 c 13.02349700604114,-0.0 31.202147879282702,3.59375 26.0821478792827,0.6036028552567719
c -4.388571428571428,-13.443723372584952 0,-20.335654769929953 10.489280692145869,-20.335654769929953
c 8.127933489338183,0 12.51650491790961,9.618678477820088 8.127933489338183,18.51151609423713
c -4.388571428571428,9.34375 15.36,5.75 28.443495082090386,1.2205358204360515 c 8.12635689878672,0.0 30.774982588261356,-3.59375 25.654982588261355,-0.7599482636897976
c -4.388571428571428,15.706195914354502 0,18.911668476734597 10.916445983167215,18.911668476734597
c 6.741430803500528,0 11.130002232071956,-1.9176999827980132 6.741430803500528,-8.305814015094215
c -4.388571428571428,-9.34375 15.36,-5.75 29.82999776792804,-9.845906197950585 c 7.468580017915069,-0.0 31.708180224359918,3.59375 26.588180224359917,-12.853309820403112
c -4.388571428571428,-3.5408707364835306 0,-8.15898408866806 9.983248347068653,-8.15898408866806
c 10.550313930285611,0 14.93888535885704,7.182559768317359 10.550313930285611,19.365358761991008
c -4.388571428571428,9.34375 15.36,5.75 26.021114641142958,1.646935147080164 c 20.111025789165957,0.0 36.18025850990778,-3.59375 31.060258509907783,14.874130228351127
c -4.388571428571428,2.5447255457672835 0,4.879908298905043 5.511170061520787,4.879908298905043
c 9.878857956917642,0 14.26742938548907,-3.667066924242156 9.878857956917642,-6.923762262749426
c -4.388571428571428,-9.34375 15.36,-5.75 26.692570614510927,-12.830276264506745 c 20.1458672823913,-0.0 30.366730481090034,3.59375 25.246730481090033,-6.461210216016295
c -4.388571428571428,-4.054275230955341 0,-14.537956928675705 11.324698090338536,-14.537956928675705
c 8.376633016329968,0 12.765204444901396,11.76552181982816 8.376633016329968,12.326039807285905
c -4.388571428571428,9.34375 15.36,5.75 28.1947955550986,8.673127337406093 c 18.6028085082046,0.0 31.234969721803633,-3.59375 26.114969721803632,5.121877860471553
c -4.388571428571428,16.141105228815594 0,17.238262630979868 10.456458849624937,17.238262630979868
c 7.230616177117227,0 11.619187605688655,-4.039438740406453 7.230616177117227,-8.098734528279655
c -4.388571428571428,-9.34375 15.36,-5.75 29.340812394311342,-14.261405963171766 c 12.05144828103649,0.0 34.65981362633751,-3.59375 29.539813626337512,14.985352713053887
c -4.388571428571428,2.7787907737605453 0,3.5090586832579245 7.031614945091057,3.5090586832579245
c 9.935262000366436,0 14.323833428937863,-3.5329821320839785 9.935262000366436,-9.069302941814252
c -4.388571428571428,-9.34375 15.36,-5.75 26.636166571062134,-9.42510845449756 c 4.867907632510055,-0.0 31.21818477060634,3.59375 26.098184770606338,1.0315029230188533
c -4.388571428571428,-19.21031180538703 0,-23.138535355839387 10.473243800822232,-23.138535355839387
c 6.5171982913290165,0 10.905769719900444,7.170035654753373 6.5171982913290165,21.977442393384816
c -4.388571428571428,9.34375 15.36,5.75 30.054230280099553,0.129590039435719 c 14.614048458601303,-0.0 31.153051186187835,3.59375 26.033051186187834,-7.928947181435945
c -4.388571428571428,-7.6919646151304475 0,-15.010922999562915 10.538377385240736,-15.010922999562915
c 5.490183927700734,0 9.878755356272162,12.758428909350123 5.490183927700734,18.350224493536498
c -4.388571428571428,9.34375 15.36,5.75 31.081244643727835,4.589645687462362 L 1024 0 " fill="none" stroke="black" stroke-width="1.0" style="vector-effect:non-scaling-stroke;"/></g><g><path d="M 0 0  L 0 287.500000  c 7.605275706908804,0.0 33.02921560891019,-3.59375 27.90921560891019,0.7320756326254889
c -4.388571428571428,13.898982504379127 0,17.049767072379037 8.662212962518378,17.049767072379037
c 8.164600753283366,0 12.553172181854794,-3.839054699685542 8.164600753283366,-5.329082032435297
c -4.388571428571428,-9.34375 15.36,-5.75 28.406827818145203,-12.452760672569228 c 15.812224713643184,0.0 32.52639866710005,-3.59375 27.406398667100046,7.287840622138265
c -4.388571428571428,11.74594335771256 0,11.653293868116087 9.165029904328524,11.653293868116087
c 9.192220739757673,0 13.5807921683291,-8.997096646288696 9.192220739757673,-17.857802714534586
c -4.388571428571428,-9.34375 15.36,-5.75 27.379207831670897,-1.083331775719767 c 18.223027131412504,0.0 36.54182356621814,-3.59375 31.42182356621814,4.4639799436489245
c -4.388571428571428,6.438706602685401 0,19.297123318773117 5.149605005210429,19.297123318773117
c 6.782435451156097,0 11.171006879727525,-3.4770126330355993 6.782435451156097,-9.672834069991218
c -4.388571428571428,-9.34375 15.36,-5.75 29.788993120272472,-14.088269192430822 c 20.90232437554281,0.0 30.16674791717142,-3.59375 25.04674791717142,12.320480409363281
c -4.388571428571428,3.5208925155298485 0,5.528555140485661 11.52468065425715,5.528555140485661
c 9.278960283758806,0 13.667531712330234,-2.3349979336960014 9.278960283758806,-8.736334567850234
c -4.388571428571428,-9.34375 15.36,-5.75 27.292468287669763,-9.112700981998708 c 7.669807712688383,-0.0 35.50884312966246,3.59375 30.38884312966246,-7.077208856088831
c -4.388571428571428,-12.136328404490758 0,-16.32761724015469 6.182585441766108,-16.32761724015469
c 8.782439319778838,0 13.171010748350266,12.925033510397057 8.782439319778838,18.175225874730366
c -4.388571428571428,9.34375 15.36,5.75 27.78898925164973,5.229600221513156 c 18.92218265440705,-0.0 35.85344052606435,3.59375 30.733440526064346,-12.297024210180075
c -4.388571428571428,-3.11748929574432 0,-9.461507267899963 5.837988045364224,-9.461507267899963
c 11.445406572492615,0 15.833978001064043,12.321941458028745 11.445406572492615,22.900944938640073
c -4.388571428571428,9.34375 15.36,5.75 25.126021998935954,-1.1424134605600358 c 15.139924038624745,0.0 32.42785517417249,-3.59375 27.30785517417249,-0.9907211027377272
c -4.388571428571428,16.957651043690934 0,18.254274982789866 9.263573397256078,18.254274982789866
c 11.527067640849857,0 15.915639069421285,-2.2986461903207878 11.527067640849857,-9.093423998366717
c -4.388571428571428,-9.34375 15.36,-5.75 25.044360930578712,-8.170129881685423 c 11.369928315814665,0.0 30.705251348544838,-3.59375 25.585251348544837,5.948227757468323
c -4.388571428571428,14.076527477917347 0,18.309503888308747 10.986177222883732,18.309503888308747
c 11.382377927325841,0 15.770949355897269,-5.74651445047659 11.382377927325841,-21.92313559912619
c -4.388571428571428,-9.34375 15.36,-5.75 25.18905064410273,-2.33459604665088 c 4.765550188314759,-0.0 30.046826432110866,3.59375 24.926826432110865,-0.37529805536224614
c -4.388571428571428,-8.621966510911387 0,-23.94197722747235 11.644602139317705,-23.94197722747235
c 10.457173095900025,0 14.845744524471453,10.871161033861622 10.457173095900025,19.82150314857389
c -4.388571428571428,9.34375 15.36,5.75 26.114255475528545,4.495772134260708 c 18.156164775717492,0.0 34.320121665653126,-3.59375 29.20012166565313,14.824793796324398
c -4.388571428571428,1.7944899011066628 0,6.084327644632166 7.371306905775441,6.084327644632166
c 11.319075484916276,0 15.707646913487704,-5.949668796171268 11.319075484916276,-12.130200840100148
c -4.388571428571428,-9.34375 15.36,-5.75 25.252353086512294,-8.778920600856416 c 20.75654756108322,0.0 31.984719165680595,-3.59375 26.864719165680594,1.8964092637039838
c -4.388571428571428,17.822445694838986 0,18.712143684131362 9.706709405747976,18.712143684131362
c 8.778475041741864,0 13.167046470313291,-6.310069903459587 8.778475041741864,-8.270251220852602
c -4.388571428571428,-9.34375 15.36,-5.75 27.792953529686706,-12.338301726982744 c 20.635892541982873,-0.0 32.612557624874725,3.59375 27.492557624874728,-6.784699558954428
c -4.388571428571428,-6.699569332406581 0,-15.744325031720852 9.078870946553842,-15.744325031720852
c 5.557944698740634,0 9.946516127312062,8.268064441923702 5.557944698740634,8.26991838988359
c -4.388571428571428,9.34375 15.36,5.75 31.013483872687935,14.25910620079169 c 18.34689814781479,0.0 30.954359223279226,-3.59375 25.834359223279225,13.91179227785476
c -4.388571428571428,2.3781538136773217 0,3.379945534757864 10.737069348149344,3.379945534757864
c 6.785731977246691,0 11.174303405818119,-2.4756488573547624 6.785731977246691,-9.170086170938305
c -4.388571428571428,-9.34375 15.36,-5.75 29.78569659418188,-8.121651641674319 c 13.663940620107272,0.0 36.357735174138945,-3.59375 31.237735174138948,11.663251850376497
c -4.388571428571428,8.326974049058235 0,9.94581915597021 5.333693397289622,9.94581915597021
c 7.486737595933491,0 11.875309024504919,-5.185621160220085 7.486737595933491,-8.380597162802738
c -4.388571428571428,-9.34375 15.36,-5.75 29.08469097549508,-13.228473843543968 L 1024 0 " fill="none" stroke="black" stroke-width="1.0" style="vector-effect:non-scaling-stroke;"/></g><g><path d="M 0 0  L 0 359.375000  c 8.45114189851937,0.0 35.87660007323335,-3.59375 30.756600073233347,9.820680364873734
c -4.388571428571428,11.279802323313783 0,14.222526009284813 5.814828498195222,14.222526009284813
c 9.434673239461944,0 13.823244668033372,-3.7694400558606644 9.434673239461944,-10.734331733398335
c -4.388571428571428,-9.34375 15.36,-5.75 27.136755331966626,-13.308874640760212 c 18.644510617452347,0.0 34.306012486304304,-3.59375 29.186012486304303,8.62060756018154
c -4.388571428571428,4.086572213108603 0,10.44605685276564 7.385416085124266,10.44605685276564
c 8.032034074706111,0 12.420605503277539,-1.0224885880339136 8.032034074706111,-3.9598441125853903
c -4.388571428571428,-9.34375 15.36,-5.75 28.53939449672246,-15.10682030036179 c 18.501798780832075,-0.0 34.85859408996775,3.59375 29.73859408996775,-6.914233014127591
c -4.388571428571428,-8.186797710854231 0,-11.338982887192467 6.832834481460818,-11.338982887192467
c 9.409062477891155,0 13.797633906462583,7.131682892340469 9.409062477891155,13.078027366784294
c -4.388571428571428,9.34375 15.36,5.75 27.162366093537415,5.1751885345357636 c 15.67920008236596,0.0 32.78594338356378,-3.59375 27.665943383563786,4.4682656916775585
c -4.388571428571428,12.157350083803674 0,15.405589614543434 8.905485187864784,15.405589614543434
c 8.736068869574538,0 13.124640298145966,-6.214127329670009 8.736068869574538,-7.475436397085113
c -4.388571428571428,-9.34375 15.36,-5.75 27.83535970185403,-12.398418909135879 c 19.471291722121688,-0.0 35.779733356089004,3.59375 30.659733356089006,-6.4983996034862725
c -4.388571428571428,-4.7248164752342054 0,-16.659669310953518 5.911695215339563,-16.659669310953518
c 10.431639101682649,0 14.820210530254077,4.395029343582892 10.431639101682649,14.870179367885775
c -4.388571428571428,9.34375 15.36,5.75 26.13978946974592,8.287889546554016 c 18.50094900260772,-0.0 35.57298700584691,3.59375 30.45298700584691,-15.42800152777042
c -4.388571428571428,-3.556569364700184 0,-7.011299982960228 6.118441565581659,-7.011299982960228
c 11.5564494256854,0 15.945020854256828,14.19654099854764 11.5564494256854,15.068743224162125
c -4.388571428571428,9.34375 15.36,5.75 25.01497914574317,7.370558286568523 c 9.448492914405058,-0.0 35.23119847236424,3.59375 30.11119847236424,-10.89579864924378
c -4.388571428571428,-4.7598261491093234 0,-8.711893274269649 6.460230099064329,-8.711893274269649
c 9.301090755918345,0 13.689662184489773,2.729075909732912 9.301090755918345,7.864089256598014
c -4.388571428571428,9.34375 15.36,5.75 27.270337815510224,11.743602666915415 c 16.88991203609967,0.0 33.51596784332504,-3.59375 28.395967843325046,10.380979531365437
c -4.388571428571428,12.270515202389403 0,12.51406706917615 8.175460728103523,12.51406706917615
c 9.377789373838198,0 13.766360802409626,-4.937778454113836 9.377789373838198,-8.6387521473848
c -4.388571428571428,-9.34375 15.36,-5.75 27.19363919759037,-14.256294453156787 c 20.464609808221727,-0.0 32.811572818205605,3.59375 27.691572818205607,-12.161072851905587
c -4.388571428571428,-7.900259427392418 0,-9.438783766248584 8.879855753222962,-9.438783766248584
c 6.2867186517585125,0 10.67529008032994,10.477693404538508 6.2867186517585125,18.591669152696888
c -4.388571428571428,9.34375 15.36,5.75 30.284709919670057,3.008187465457283 c 17.220120324618005,0.0 31.341285727508232,-3.59375 26.22128572750823,3.1923231581451845
c -4.388571428571428,12.037786382974312 0,20.623089562539 10.350142843920338,20.623089562539
c 11.254930343607597,0 15.643501772179025,-7.639911777108595 11.254930343607597,-19.919117265344568
c -4.388571428571428,-9.34375 15.36,-5.75 25.316498227820972,-3.8962954553396187 c 20.208488172839008,0.0 35.65747180154358,-3.59375 30.53747180154358,4.556842480995902
c -4.388571428571428,7.48626818154468 0,14.80814529275535 6.033956769884988,14.80814529275535
c 11.481339567644355,0 15.869910996215783,-6.100537498297355 11.481339567644355,-12.940249732485693
c -4.388571428571428,-9.34375 15.36,-5.75 25.090089003784215,-6.4247380412655595 c 14.86056975525955,0.0 30.60306168928492,-3.59375 25.48306168928492,12.19334640578908
c -4.388571428571428,7.976194155707361 0,11.85041616707088 11.08836688214365,11.85041616707088
c 6.8425599597922115,0 11.23113138836364,-7.052497795073541 6.8425599597922115,-23.663525147627542
c -4.388571428571428,-9.34375 15.36,-5.75 29.728868611636358,-0.3802374252324192 c 4.106051257478214,-0.0 32.195778985084075,3.59375 27.075778985084074,-8.741609688706006
c -4.388571428571428,-3.148329131280219 0,-9.377371719015315 9.495649586344495,-9.377371719015315
c 10.681340155985609,0 15.069911584557037,12.205839248871397 10.681340155985609,16.001567935564406
c -4.388571428571428,9.34375 15.36,5.75 25.89008841544296,2.1174134721569153 c 8.11376552627552,0.0 33.00547281564561,-3.59375 27.885472815645613,4.324638148817676
c -4.388571428571428,8.725523896433057 0,19.657867701807547 8.685955755782956,19.657867701807547
c 10.697717510695796,0 15.086288939267224,-13.201047074112385 10.697717510695796,-13.206456332505356
c -4.388571428571428,-9.34375 15.36,-5.75 25.873711060732774,-10.776049518119867 L 1024 0 " fill="none" stroke="black" stroke-width="1.0" style="vector-effect:non-scaling-stroke;"/></g><g><path d="M 0 0  L 0 431.250000  c 10.434684933530592,-0.0 35.46007605334362,3.59375 30.34007605334362,-14.109261771744768
c -4.388571428571428,-2.7063381976246794 0,-5.210749288868234 6.23135251808495,-5.210749288868234
c 6.976223390355692,0 11.36479481892712,11.21332961438856 6.976223390355692,19.829749495664107
c -4.388571428571428,9.34375 15.36,5.75 29.595205181072878,-0.5097384350511049 c 14.275161401124517,-0.0 36.55027062721695,3.59375 31.430270627216952,-2.812250838977055
c -4.388571428571428,-14.801505538038889 0,-20.619484361041575 5.141157944211617,-20.619484361041575
c 5.2758476291553436,0 9.664419057726771,8.86553367033881 5.2758476291553436,24.06497145627889
c -4.388571428571428,9.34375 15.36,5.75 31.295580942273226,-0.6332362562602611 c 10.672647726726598,-0.0 32.48182513649338,3.59375 27.361825136493376,-7.78965767642859
c -4.388571428571428,-7.701407984841945 0,-12.381507011338801 9.209603434935193,-12.381507011338801
c 8.538169752714012,0 12.92674118128544,18.51391618849814 8.538169752714012,18.896457170983638
c -4.388571428571428,9.34375 15.36,5.75 28.033258818714557,1.274707516783753 c 11.389985072637844,0.0 32.32947900177013,-3.59375 27.20947900177013,3.0353560665225334
c -4.388571428571428,9.92236338735144 0,14.384797840296772 9.361949569658439,14.384797840296772
c 8.191106872191597,0 12.579678300763025,-9.459439047112184 8.191106872191597,-14.610282886466916
c -4.388571428571428,-9.34375 15.36,-5.75 28.380321699236973,-2.8098710203523893 c 4.560176904936086,0.0 30.370289082082987,-3.59375 25.250289082082986,5.876682755768973
c -4.388571428571428,8.991791560132341 0,18.238882410239775 11.321139489345583,18.238882410239775
c 8.73047820795999,0 13.119049636531418,-13.15028048156252 8.73047820795999,-14.208385959400632
c -4.388571428571428,-9.34375 15.36,-5.75 27.84095036346858,-9.907179206608118 c 7.936282390864188,0.0 35.85503973738955,-3.59375 30.735039737389553,11.570186317167316
c -4.388571428571428,5.106427409116818 0,8.783796464931779 5.836388834039017,8.783796464931779
c 10.925669093821085,0 15.314240522392513,-12.208560664690832 10.925669093821085,-15.694740054499839
c -4.388571428571428,-9.34375 15.36,-5.75 25.645759477607484,-4.659242727599256 c 12.827825237521624,0.0 34.44219394463091,-3.59375 29.32219394463091,3.3044259754613643
c -4.388571428571428,12.673612868160442 0,20.611425693102767 7.249234626797659,20.611425693102767
c 5.767251882793076,0 10.155823311364504,-5.430558249266426 5.767251882793076,-14.68031410111679
c -4.388571428571428,-9.34375 15.36,-5.75 30.804176688635494,-9.23553756744734 c 16.84095228725019,-0.0 31.55970207044336,3.59375 26.43970207044336,-7.575929209721911
c -4.388571428571428,-4.143867921091644 0,-12.1875068144733 10.13172650098521,-12.1875068144733
c 11.38359412987144,0 15.772165558442868,7.815867195744392 11.38359412987144,19.83574895160745
c -4.388571428571428,9.34375 15.36,5.75 25.18783444155713,-0.07231292741223783 c 7.971289299532064,-0.0 35.375790762815434,3.59375 30.255790762815437,-9.13458801929439
c -4.388571428571428,-7.973697773156694 0,-12.57519451951728 6.315637808613133,-12.57519451951728
c 8.136106752751495,0 12.524678181322923,9.33964134040119 8.136106752751495,9.83113810482889
c -4.388571428571428,9.34375 15.36,5.75 28.435321818677075,11.87864443398278 c 11.138328913874338,0.0 33.14737076323497,-3.59375 28.02737076323497,7.619762669010478
c -4.388571428571428,7.431231083401821 0,16.760163837266443 8.5440578081936,16.760163837266443
c 6.181057921431581,0 10.569629350003009,-5.720767446066418 6.181057921431581,-12.082126820252403
c -4.388571428571428,-9.34375 15.36,-5.75 30.39037064999699,-12.297799686024517 c 18.685481696519233,-0.0 30.205311829382904,3.59375 25.085311829382903,-1.0631094564824002
c -4.388571428571428,-17.00199292288127 0,-21.767646559051233 11.486116742045667,-21.767646559051233
c 8.3015253506858,0 12.690096779257228,12.267627949363211 8.3015253506858,15.994560307667328
c -4.388571428571428,9.34375 15.36,5.75 28.26990322074277,6.836195707866306 c 8.035978076869041,-0.0 30.418534405627522,3.59375 25.29853440562752,-7.064207292677228
c -4.388571428571428,-10.816797066119316 0,-15.269429718021392 11.272894165801048,-15.269429718021392
c 11.16275460071369,0 15.551326029285118,3.1926943940684143 11.16275460071369,10.527766803044265
c -4.388571428571428,9.34375 15.36,5.75 25.40867397071488,11.805870207654355 c 11.981180570024938,-0.0 33.73888378460314,3.59375 28.61888378460314,-14.94240715944083
c -4.388571428571428,-2.9734573742141843 0,-3.795981837688281 7.952544786825431,-3.795981837688281
c 10.652617845065308,0 15.041189273636736,2.179101534972883 10.652617845065308,3.9391982872670557
c -4.388571428571428,9.34375 15.36,5.75 25.91881072636326,14.799190709862055 c 21.09981667594577,0.0 32.91978609957255,-3.59375 27.79978609957255,15.104058629962964
c -4.388571428571428,4.350166658102875 0,6.392100784189104 8.771642471856019,6.392100784189104
c 6.9698234129918575,0 11.358394841563285,-4.548682619639895 6.9698234129918575,-17.95331752523068
c -4.388571428571428,-9.34375 15.36,-5.75 29.601605158436712,-3.5428418889213873 L 1024 0 " fill="none" stroke="black" stroke-width="1.0" style="vector-effect:non-scaling-stroke;"/></g><g><path d="M 0 0  L 0 503.125000  c 8.426614308473372,0.0 33.31745109184582,-3.59375 28.19745109184582,5.364340192876054
c -4.388571428571428,17.272331943590764 0,17.590140395061574 8.373977479582749,17.590140395061574
c 7.368445787554727,0 11.757017216126155,-8.470440861781832 7.368445787554727,-19.90963167905102
c -4.388571428571428,-9.34375 15.36,-5.75 29.202982783873843,-3.044848908886607 c 20.953050335481333,-0.0 33.02168556165175,3.59375 27.90168556165175,-1.0173239365603197
c -4.388571428571428,-16.421369325330794 0,-17.457162560084992 8.66974300977682,-17.457162560084992
c 9.368625114650818,0 13.757196543222246,4.183802648010223 9.368625114650818,5.7858691867572976
c -4.388571428571428,9.34375 15.36,5.75 27.20280345677775,12.688617309888015 c 17.411207339215252,-0.0 32.51273337585676,3.59375 27.392733375856764,-8.91990685781694
c -4.388571428571428,-9.30347331701053 0,-10.65548439037343 9.178695195571805,-10.65548439037343
c 8.601036764824435,0 12.989608193395863,11.695384257681406 8.601036764824435,16.0113854266475
c -4.388571428571428,9.34375 15.36,5.75 27.970391806604134,3.564005821542871 c 16.628176585621613,-0.0 33.520395924071956,3.59375 28.400395924071958,-9.852013727545987
c -4.388571428571428,-6.234072856693483 0,-8.39558498478296 8.171032647356611,-8.39558498478296
c 7.303916490865177,0 11.692487919436605,7.448113987015856 7.303916490865177,11.828789654680236
c -4.388571428571428,9.34375 15.36,5.75 29.267512080563392,6.418809057648712 c 5.291668338872191,-0.0 35.72651017558096,3.59375 30.60651017558096,-2.987066289849657
c -4.388571428571428,-10.395108865815983 0,-14.361753458350439 5.964918395847608,-14.361753458350439
c 5.63166304037081,0 10.020234468942238,15.108981282106566 5.63166304037081,15.120650886023663
c -4.388571428571428,9.34375 15.36,5.75 30.93976553105776,2.2281688621764335 c 6.36912942799165,0.0 34.4220956327355,-3.59375 29.3020956327355,15.149049104071421
c -4.388571428571428,0.7175284508773855 0,3.0036052519405114 7.2693329386930685,3.0036052519405114
c 6.761125872640896,0 11.149697301212324,-7.468388706176946 6.761125872640896,-7.431372852840434
c -4.388571428571428,-9.34375 15.36,-5.75 29.810302698787673,-10.721281503171499 c 4.336576674117638,-0.0 30.31267851403267,3.59375 25.192678514032668,-3.4500007441653047
c -4.388571428571428,-7.825253204657692 0,-14.544411881795412 11.378750057395902,-14.544411881795412
c 6.214793403249935,0 10.603364831821363,8.738853541876825 6.214793403249935,15.049798656271316
c -4.388571428571428,9.34375 15.36,5.75 30.356635168178634,2.944613969689401 c 14.189306836435293,0.0 31.704071221609812,-3.59375 26.58407122160981,11.982144230535766
c -4.388571428571428,5.149692697498893 0,10.979960820208206 9.987357349818758,10.979960820208206
c 7.5355383822772595,0 11.924109810848687,-4.764910994048723 7.5355383822772595,-10.985688204629898
c -4.388571428571428,-9.34375 15.36,-5.75 29.03589018915131,-11.976416846114073 c 16.463588890966832,-0.0 30.813838771637084,3.59375 25.693838771637083,-14.308905452908293
c -4.388571428571428,-3.3993948691366467 0,-5.049476775886584 10.877589799791487,-5.049476775886584
c 11.02794685795238,0 15.416518286523807,6.678670126617862 11.02794685795238,6.892485637252044
c -4.388571428571428,9.34375 15.36,5.75 25.54348171347619,12.465896591542833 c 14.52876839267189,-0.0 34.41348212491493,3.59375 29.29348212491493,-10.995486630250351
c -4.388571428571428,-5.671056081406584 0,-6.562845123070474 7.2779464465136385,-6.562845123070474
c 8.722635013571939,0 13.111206442143367,3.8122776166561447 8.722635013571939,8.654556697767157
c -4.388571428571428,9.34375 15.36,5.75 27.84879355785663,8.903775055553668 c 13.445462337608221,-0.0 33.60122753679348,3.59375 28.481227536793483,-2.705979410699587
c -4.388571428571428,-7.232421272231659 0,-21.3473779665973 8.090201034635086,-21.3473779665973
c 8.372458188463028,0 12.761029617034456,4.788968157239488 8.372458188463028,8.330124394202699
c -4.388571428571428,9.34375 15.36,5.75 28.19897038296554,15.723232983094189 c 17.295760068736488,0.0 33.30832758165378,-3.59375 28.188327581653777,6.888768234289839
c -4.388571428571428,10.813527063974774 0,11.658170076949045 8.383100989774793,11.658170076949045
c 5.937910911773621,0 10.326482340345049,-5.7246389162913465 5.937910911773621,-5.92029187902131
c -4.388571428571428,-9.34375 15.36,-5.75 30.63351765965495,-12.626646432217573 c 14.99428831072775,-0.0 36.47014741810199,3.59375 31.350147418101987,-10.943602794372628
c -4.388571428571428,-8.269332197219597 0,-10.514620749623253 5.221281153326583,-10.514620749623253
c 9.224105320425238,0 13.612676748996666,5.4945922698763345 9.224105320425238,14.311523926085847
c -4.388571428571428,9.34375 15.36,5.75 27.34732325100333,7.146699617910034 c 9.19487503684964,0.0 31.401522207880937,-3.59375 26.281522207880936,-1.0765623931753265
c -4.388571428571428,8.875746835470968 0,20.753544360965183 10.289906363547633,20.753544360965183
c 9.811318696340159,0 14.199890124911587,-10.654129054984852 9.811318696340159,-20.577286169004513
c -4.388571428571428,-9.34375 15.36,-5.75 26.76010987508841,0.9003042012146558 L 1024 0 " fill="none" stroke="black" stroke-width="1.0" style="vector-effect:non-scaling-stroke;"/></g></g></svg>