<svg baseProfile="full" height="1066" preserveAspectRatio="none" shape-rendering="geometricPrecision" version="1.1" viewBox="0,0,1600,1066" width="1600" xmlns="http://www.w3.org/2000/svg" xmlns:ev="http://www.w3.org/2001/xml-events" xmlns:xlink="http://www.w3.org/1999/xlink"><title>Jigsaw puzzle piece clips</title><desc>Created with the piecemaker. Piece count: 117</desc><defs /><g><g><rect fill="white" height="1066" width="1600" x="0" y="0" /></g></g><g><g><path d="M 0 0  L 123.076923 0  c 0.0,19.843962774675866 -6.153846153846154,51.613688669677245 2.9891261156348947,43.32257755856613&#10;c 17.622229393342014,-7.1066666666666665 29.819296971323517,0 29.819296971323517,15.89964466365609&#10;c 0,15.73325205259787 -27.370118038049135,22.839918719264535 -34.7235117484523,15.73325205259787&#10;c -16.0,-7.1066666666666665 -9.846153846153847,24.87333333333333 1.9150886614938898,43.48897016962435 c 0.0,26.200177482313094 -6.153846153846154,55.302889645516295 10.284534299460734,47.01177853440518&#10;c 18.462153919657123,-7.1066666666666665 19.556866797434168,0 19.556866797434168,12.21044368781704&#10;c 0,18.620824079874716 -8.30014184872605,25.72749074654138 -16.407801422872062,18.620824079874716&#10;c -16.0,-7.1066666666666665 -9.846153846153847,24.87333333333333 -13.43359967402284,40.601398142347506 c -0.0,28.121336111414852 6.153846153846154,56.16286539091357 -11.054931096030593,47.87175427980246&#10;c -20.70508358100096,-7.1066666666666665 -21.4583266351858,0 -21.4583266351858,11.350467942419762&#10;c 0,17.172395610582406 16.954495201602,24.27906227724907 32.06267427353274,17.172395610582406&#10;c 16.0,-7.1066666666666665 9.846153846153847,24.87333333333333 0.45058345768364916,42.049826611639816 c 0.0,29.92762404156135 -6.153846153846154,50.22168840195822 -0.1729153126355213,41.930577290847104&#10;c 32.880622255971836,-7.1066666666666665 41.26220591358273,0 41.26220591358273,17.291644931375117&#10;c 0,10.60447833264842 -12.825304253762548,17.711144999315085 -34.6773717892322,10.60447833264842&#10;c -16.0,-7.1066666666666665 -9.846153846153847,24.87333333333333 -6.411918811715012,48.6177438895738 c -0.0,28.932173434862953 6.153846153846154,49.709118770505995 1.1720904512014185,41.41800765939488&#10;c -8.159028909843167,-7.1066666666666665 -31.064210245959792,0 -31.064210245959792,17.80421456282734&#10;c 0,15.973738611366635 6.392912037192748,23.0804052780333 28.811760291922486,15.973738611366635&#10;c 16.0,-7.1066666666666665 9.846153846153847,24.87333333333333 1.0803595028358863,43.24848361085559 c 0.0,13.405817122469063 -6.153846153846154,53.319514118116366 1.0494905816468316,45.02840300700525&#10;c 24.87166933602363,-7.1066666666666665 37.77051455083501,0 37.77051455083501,14.193819215216969&#10;c 0,9.253070958658348 -13.64333041375402,16.359737625325014 -24.487215578069417,9.253070958658348&#10;c -16.0,-7.1066666666666665 -9.846153846153847,24.87333333333333 -14.332789554412422,49.96915126356387 c 0.0,28.389306184315117 -6.153846153846154,50.37401711072058 3.519822195890785,42.082905999609466&#10;c 16.7258267226663,-7.1066666666666665 26.673919016468634,0 26.673919016468634,17.139316222612756&#10;c 0,14.967288758937322 -8.31740985649958,22.073955425603987 -8.477803403163932,14.967288758937322&#10;c -16.0,-7.1066666666666665 -9.846153846153847,24.87333333333333 -21.715937809195488,44.2549334632849 c 0.0,21.04480603731039 -6.153846153846154,58.15165123277194 14.136183064509405,49.860540121660826&#10;c 23.502442033933562,-7.1066666666666665 26.788039446033437,0 26.788039446033437,9.361682100561396&#10;c 0,14.846494856058932 -5.989808710288767,21.953161522725598 -25.929426297337322,14.846494856058932&#10;c -16.0,-7.1066666666666665 -9.846153846153847,24.87333333333333 -14.994796213205518,44.37572736616329 c -0.0,27.625617624050353 6.153846153846154,54.35490021761738 -15.282057823334059,46.06378910650626&#10;c -12.486608581684512,-7.1066666666666665 -24.121947101157282,0 -24.121947101157282,13.158433115715958&#10;c 0,9.89881884778999 8.30071461422731,17.005485514456655 36.99340979165747,9.89881884778999&#10;c 16.0,-7.1066666666666665 9.846153846153847,24.87333333333333 2.410595132833869,49.32340337443223 L 0 1066 " fill="none" stroke="black" stroke-width="1.0" style="vector-effect:non-scaling-stroke;" /></g><g><path d="M 0 0  L 246.153846 0  c 0.0,17.800307227221413 -6.153846153846154,53.66604097522159 20.255958964447657,45.37492986411048&#10;c 6.775952586808586,-7.1066666666666665 20.798718979257565,0 20.798718979257565,13.847292358111744&#10;c 0,11.210152667923033 -15.04499542673653,18.3168193345897 -33.35259818712424,11.210152667923033&#10;c -16.0,-7.1066666666666665 -9.846153846153847,24.87333333333333 -7.702079756580986,48.01206955429919 c -0.0,21.955531786328937 6.153846153846154,49.76712305783988 -24.969490392776066,41.47601194672877&#10;c -1.6440823133521631,-7.1066666666666665 -7.7562797972389035,0 -7.7562797972389035,17.746210275493453&#10;c 0,11.143185582573317 11.986156798970944,18.249852249239982 26.58728996811378,11.143185582573317&#10;c 16.0,-7.1066666666666665 9.846153846153847,24.87333333333333 6.13848022190119,48.079036639648905 c -0.0,12.765132113839508 6.153846153846154,58.56376937848144 -6.81087413116973,50.272658267370325&#10;c -9.500579956350956,-7.1066666666666665 -32.60984506602696,0 -32.60984506602696,8.949563954851897&#10;c 0,9.020743665026934 20.490702958165397,16.1274103316936 24.764488468774623,9.020743665026934&#10;c 16.0,-7.1066666666666665 9.846153846153847,24.87333333333333 14.656230728422074,50.20147855719529 c 0.0,16.36665727704438 -6.153846153846154,49.23665882957704 4.848468397336214,40.945547718465924&#10;c 23.98322957513385,-7.1066666666666665 28.78960281178673,0 28.78960281178673,18.276674503756297&#10;c 0,15.365292301766651 -5.749097379485413,22.471958968433317 -12.116399181137787,15.365292301766651&#10;c -16.0,-7.1066666666666665 -9.846153846153847,24.87333333333333 -21.521672027985154,43.85692992045557 c -0.0,33.596653148137136 6.153846153846154,58.6430513479416 -22.713898815493167,50.35194023683049&#10;c -4.747161193294177,-7.1066666666666665 -14.138292739373014,0 -14.138292739373014,8.870281985391735&#10;c 0,17.52887276544437 10.8431182134834,24.635539432111035 11.336669246254438,17.52887276544437&#10;c 16.0,-7.1066666666666665 9.846153846153847,24.87333333333333 25.515522308611743,41.69334945677785 c 0.0,18.226523491032378 -6.153846153846154,58.85830606620869 5.073581200469901,50.56719495509758&#10;c 31.383069289165988,-7.1066666666666665 35.79517704093885,0 35.79517704093885,8.655027267124645&#10;c 0,12.36417366707321 -10.986027577124124,19.470840333739876 -22.557145748547995,12.36417366707321&#10;c -16.0,-7.1066666666666665 -9.846153846153847,24.87333333333333 -18.31161249286076,46.85804855514901 c 0.0,24.684048513214275 -6.153846153846154,49.804486587759506 1.7021417196335162,41.51337547664839&#10;c 29.60077048436575,-7.1066666666666665 31.15036184943242,0 31.15036184943242,17.70884674557383&#10;c 0,12.732649169906928 -6.211231878202574,19.839315836573594 -7.802445727125253,12.732649169906928&#10;c -16.0,-7.1066666666666665 -9.846153846153847,24.87333333333333 -25.050057841940685,46.48957305231529 c 0.0,33.07210949032438 -6.153846153846154,57.82989839071655 8.319109509518846,49.53878727960544&#10;c 17.3591383346524,-7.1066666666666665 32.01688051851554,0 32.01688051851554,9.683434942616785&#10;c 0,11.07751540697948 -38.63276774213525,18.184182073646145 -41.29468461307554,11.07751540697948&#10;c -16.0,-7.1066666666666665 -9.846153846153847,24.87333333333333 0.958694585041151,48.14470681524274 c -0.0,8.640208409737022 6.153846153846154,57.399199138144944 -15.654643839984349,49.10808802703383&#10;c -16.777948738538402,-7.1066666666666665 -18.943276724174854,0 -18.943276724174854,10.114134195188392&#10;c 0,10.892789219694784 4.841204737318586,17.99945588636145 16.19697383207428,10.892789219694784&#10;c 16.0,-7.1066666666666665 9.846153846153847,24.87333333333333 18.400946732084922,48.32943300252744 L 0 1066 " fill="none" stroke="black" stroke-width="1.0" style="vector-effect:non-scaling-stroke;" /></g><g><path d="M 0 0  L 369.230769 0  c -0.0,13.113444583594598 6.153846153846154,49.533193830119686 -14.435620694154318,41.24208271900857&#10;c -7.208985355023163,-7.1066666666666665 -22.326231696657125,0 -22.326231696657125,17.98013950321365&#10;c 0,9.68066349598596 13.53086448608403,16.787330162652626 20.168928752567282,9.68066349598596&#10;c 16.0,-7.1066666666666665 9.846153846153847,24.87333333333333 16.59292363824416,49.54155872623626 c -0.0,9.829543291371149 6.153846153846154,53.014941810671004 -23.512977321038274,44.72383069955989&#10;c -9.067777549855153,-7.1066666666666665 -9.195624950584271,0 -9.195624950584271,14.498391522662331&#10;c 0,9.697967016188564 4.134371326123966,16.80463368285523 16.78143062994667,9.697967016188564&#10;c 16.0,-7.1066666666666665 9.846153846153847,24.87333333333333 15.927171641675876,49.52425520603366 c 0.0,31.294881182204037 -6.153846153846154,49.544664175770805 24.972694736881234,41.25355306465969&#10;c 10.250817274574807,-7.1066666666666665 16.366650378157136,0 16.366650378157136,17.96866915756253&#10;c 0,13.322641901349819 -18.54831907420309,20.429308568016484 -19.154518983421685,13.322641901349819&#10;c -16.0,-7.1066666666666665 -9.846153846153847,24.87333333333333 -22.184826131616685,45.8995803208724 c -0.0,30.503962452487254 6.153846153846154,58.0952854853349 -16.021829551493337,49.804174374223784&#10;c -19.624533401052055,-7.1066666666666665 -25.163593839550902,0 -25.163593839550902,9.418047847998437&#10;c 0,14.612453949024676 23.71733094385471,21.71912061569134 25.749143451275145,14.612453949024676&#10;c 16.0,-7.1066666666666665 9.846153846153847,24.87333333333333 15.436279939769094,44.609768273197545 c -0.0,33.70810058508651 6.153846153846154,51.05192915624289 -23.24064704756946,42.76081804513178&#10;c -7.230925606227863,-7.1066666666666665 -10.056865960386858,0 -10.056865960386858,16.461404177090444&#10;c 0,9.515128750082617 7.7748529835878974,16.621795416749283 11.775466166898653,9.515128750082617&#10;c 16.0,-7.1066666666666665 9.846153846153847,24.87333333333333 21.522046841057666,49.707093472139604 c 0.0,16.515904178052587 -6.153846153846154,52.30793361894827 3.693556176709693,44.016822507837155&#10;c 18.572230417140936,-7.1066666666666665 29.02638409303554,0 29.02638409303554,15.205399714385067&#10;c 0,11.591977318676093 -3.505460631120086,18.69864398534276 -7.395291454280649,11.591977318676093&#10;c -16.0,-7.1066666666666665 -9.846153846153847,24.87333333333333 -25.32464881546458,47.63024490354613 c -0.0,21.795026065267948 6.153846153846154,49.00330263516581 -0.5896008430694032,40.712191524054695&#10;c -34.25122704654168,-7.1066666666666665 -37.108702527673515,0 -37.108702527673515,18.510030698167526&#10;c 0,9.410144473697649 14.041399677908373,16.516811140364315 27.87453484529133,9.410144473697649&#10;c 16.0,-7.1066666666666665 9.846153846153847,24.87333333333333 9.823768525451591,49.81207774852457 c -0.0,20.468223498613025 6.153846153846154,50.12575844426306 -9.893299698385675,41.83464733315195&#10;c -13.248848612270473,-7.1066666666666665 -29.41481324247669,0 -29.41481324247669,17.387574889070272&#10;c 0,16.298679753470118 14.890573345887155,23.405346420136784 20.754039838756352,16.298679753470118&#10;c 16.0,-7.1066666666666665 9.846153846153847,24.87333333333333 18.554073102106013,42.9235424687521 c 0.0,32.42324611255889 -6.153846153846154,54.83169557803063 24.92788603386754,46.54058446691952&#10;c 3.5653789064592147,-7.1066666666666665 5.119696364696942,0 5.119696364696942,12.681637755302702&#10;c 0,15.03616684379923 -12.390359978964229,22.142833510465895 -12.923764806654617,15.03616684379923&#10;c -16.0,-7.1066666666666665 -9.846153846153847,24.87333333333333 -17.123817591909866,44.18605537842299 L 0 1066 " fill="none" stroke="black" stroke-width="1.0" style="vector-effect:non-scaling-stroke;" /></g><g><path d="M 0 0  L 492.307692 0  c 0.0,19.288156370171876 -6.153846153846154,54.78320898058623 26.133899678038844,46.49209786947512&#10;c 12.222635292891534,-7.1066666666666665 15.6339717249109,0 15.6339717249109,12.730124352747104&#10;c 0,9.17987390086656 -41.11295786929543,16.286540567533226 -40.95380176847944,9.17987390086656&#10;c -16.0,-7.1066666666666665 -9.846153846153847,24.87333333333333 -0.8140696344703073,50.04234832135566 c -0.0,30.182694542432937 6.153846153846154,53.86183068270356 -11.113426622286497,45.57071957159245&#10;c -5.2769750826179616,-7.1066666666666665 -22.479169665659498,0 -22.479169665659498,13.651502650629773&#10;c 0,11.775459792587576 10.196858155893173,18.88212645925424 14.41974127383947,11.775459792587576&#10;c 16.0,-7.1066666666666665 9.846153846153847,24.87333333333333 19.172855014106524,47.446762429634646 c 0.0,24.04497176515546 -6.153846153846154,59.04058987455868 15.79637532428841,50.74947876344756&#10;c 6.529131054155727,-7.1066666666666665 15.523282874466586,0 15.523282874466586,8.472743458774659&#10;c 0,15.739370801500378 -13.527190719533136,22.846037468167044 -25.187769904957825,15.739370801500378&#10;c -16.0,-7.1066666666666665 -9.846153846153847,24.87333333333333 -6.1318882937971715,43.48285142072184 c -0.0,6.2034587121571825 6.153846153846154,50.268618326607616 -17.910322638410126,41.9775072154965&#10;c -4.710352565677998,-7.1066666666666665 -14.385893039628353,0 -14.385893039628353,17.24471500672572&#10;c 0,10.507803676809083 3.395298531234257,17.614470343475748 9.97479787211432,10.507803676809083&#10;c 16.0,-7.1066666666666665 9.846153846153847,24.87333333333333 22.32141780592416,48.71441854541314 c -0.0,28.10585579519691 6.153846153846154,58.25040964623152 -10.628758856571178,49.9592985351204&#10;c -13.724950681151087,-7.1066666666666665 -22.961378725963645,0 -22.961378725963645,9.262923687101818&#10;c 0,10.187653585551622 5.775601746610073,17.294320252218288 15.47856876459879,10.187653585551622&#10;c 16.0,-7.1066666666666665 9.846153846153847,24.87333333333333 18.111568817936032,49.0345686366706 c -0.0,17.278124618526764 6.153846153846154,56.16188440190467 -5.487544924548976,47.87077329079356&#10;c -7.707775210629505,-7.1066666666666665 -31.874491438819284,0 -31.874491438819284,11.351448931428664&#10;c 0,13.607037567023589 14.333445684396269,20.713704233690255 16.468782033896264,13.607037567023589&#10;c 16.0,-7.1066666666666665 9.846153846153847,24.87333333333333 20.893254329471997,45.61518465519863 c 0.0,20.761314684883374 -6.153846153846154,53.80174841339958 -1.048260675064901,45.510637302288465&#10;c 18.6808146519268,-7.1066666666666665 37.18590977952613,0 37.18590977952613,13.711584919933756&#10;c 0,16.432266090826253 -3.0555016583380787,23.53893275749292 -11.699036764200073,16.432266090826253&#10;c -16.0,-7.1066666666666665 -9.846153846153847,24.87333333333333 -24.43861234026115,42.78995613139597 c -0.0,9.595154687635613 6.153846153846154,51.906870381283554 -3.270363199302551,43.61575927017244&#10;c -19.494716620804663,-7.1066666666666665 -28.61446333948684,0 -28.61446333948684,15.606462952049782&#10;c 0,18.93803339096467 23.540940613117016,26.044700057631335 23.882900915421118,18.93803339096467&#10;c 16.0,-7.1066666666666665 9.846153846153847,24.87333333333333 8.001925623368273,40.28418883125755 c -0.0,27.953702832816287 6.153846153846154,55.49799708148161 -14.297630462155784,47.20688597037049&#10;c -9.782210865925347,-7.1066666666666665 -27.25444785903493,0 -27.25444785903493,12.015336251851728&#10;c 0,9.453877762665577 19.557466557936692,16.560544429332243 39.587683385912335,9.453877762665577&#10;c 16.0,-7.1066666666666665 9.846153846153847,24.87333333333333 1.9643949352783778,49.768344459556644 L 0 1066 " fill="none" stroke="black" stroke-width="1.0" style="vector-effect:non-scaling-stroke;" /></g><g><path d="M 0 0  L 615.384615 0  c 0.0,27.624845618192687 -6.153846153846154,52.75807590621035 11.339610150776155,44.46696479509924&#10;c 13.436818033691612,-7.1066666666666665 22.00926880345667,0 22.00926880345667,14.755257427122984&#10;c 0,11.97082035345425 -6.964063648275993,19.077487020120916 -31.24261283368322,11.97082035345425&#10;c -16.0,-7.1066666666666665 -9.846153846153847,24.87333333333333 -2.106266120549602,47.25140186876797 c -0.0,29.57949856049631 6.153846153846154,48.8952378578411 -5.139768364448171,40.60412674672999&#10;c -8.293964246333116,-7.1066666666666665 -35.14107058547458,0 -35.14107058547458,18.618095475492233&#10;c 0,10.418385582302925 16.87591457480576,17.52505224896959 33.99784642371921,10.418385582302925&#10;c 16.0,-7.1066666666666665 9.846153846153847,24.87333333333333 6.282992526203543,48.8038366399193 c 0.0,21.623414474539473 -6.153846153846154,49.357552734225706 19.073457058758386,41.06644162311459&#10;c 11.913784835976156,-7.1066666666666665 18.353736382598186,0 18.353736382598186,18.15578059910763&#10;c 0,8.66049714696073 -16.674123816814973,15.767163813627395 -21.797468860086266,8.66049714696073&#10;c -16.0,-7.1066666666666665 -9.846153846153847,24.87333333333333 -15.629724581270306,50.56172507526149 c 0.0,17.00326136396654 -6.153846153846154,56.284765203777866 5.755040652523579,47.99365409266675&#10;c 33.21073717446826,-7.1066666666666665 33.06860267996373,0 33.06860267996373,11.22856812955547&#10;c 0,16.795422602129825 -21.607194297826208,23.90208926879649 -27.608004056265266,16.795422602129825&#10;c -16.0,-7.1066666666666665 -9.846153846153847,24.87333333333333 -11.215639276222042,42.426799620092396 c 0.0,22.73773548443092 -6.153846153846154,52.16631856772808 17.5046245567229,43.87520745661696&#10;c 5.674784779706034,-7.1066666666666665 16.648583068196114,0 16.648583068196114,15.347014765605259&#10;c 0,13.545324709055429 -8.532934458352857,20.651991375722094 -32.336509316824475,13.545324709055429&#10;c -16.0,-7.1066666666666665 -9.846153846153847,24.87333333333333 -1.8166983080945371,45.67689751316679 c 0.0,30.455657000703134 -6.153846153846154,58.97538208214857 -0.5922560887189636,50.684270971037456&#10;c 20.01047767536847,-7.1066666666666665 37.657986638778354,0 37.657986638778354,8.537951251184765&#10;c 0,16.50279387050781 -22.65299407630477,23.609460537174474 -24.123995657200823,16.50279387050781&#10;c -16.0,-7.1066666666666665 -9.846153846153847,24.87333333333333 -12.94173489285857,42.71942835171441 c -0.0,19.56275106129066 6.153846153846154,55.18002060506568 -3.272591255353343,46.888909493954564&#10;c -26.584168428098504,-7.1066666666666665 -38.196318236861984,0 -38.196318236861984,12.333312728267657&#10;c 0,10.348724263625407 24.95126852440449,17.455390930292072 26.758008124732697,10.348724263625407&#10;c 16.0,-7.1066666666666665 9.846153846153847,24.87333333333333 14.710901367482627,48.873497958596815 c 0.0,18.979852445507404 -6.153846153846154,58.53501554271002 4.174997534688403,50.24390443159891&#10;c 9.674159149264321,-7.1066666666666665 32.50570073977951,0 32.50570073977951,8.978317790623315&#10;c 0,11.558941987569845 -27.656526882695182,18.66560865423651 -28.466824603567485,11.558941987569845&#10;c -16.0,-7.1066666666666665 -9.846153846153847,24.87333333333333 -8.21387367090043,47.663280234652376 c -0.0,9.793704117375478 6.153846153846154,56.707243235857874 0.6868167763598819,48.41613212474676&#10;c -32.0752279175514,-7.1066666666666665 -38.72753065817732,0 -38.72753065817732,10.806090097475462&#10;c 0,9.736293319376223 14.201497326407216,16.84295998604289 25.675692920409276,9.736293319376223&#10;c 16.0,-7.1066666666666665 9.846153846153847,24.87333333333333 12.365020961408163,49.485928902846 L 0 1066 " fill="none" stroke="black" stroke-width="1.0" style="vector-effect:non-scaling-stroke;" /></g><g><path d="M 0 0  L 738.461538 0  c -0.0,16.01440111619665 6.153846153846154,53.4048116005077 -4.676954835756412,45.113700489396585&#10;c -28.97229199362619,-7.1066666666666665 -30.72567791313636,0 -30.72567791313636,14.108521732825636&#10;c 0,11.97621434074501 9.611437523896594,19.082881007411675 26.38091134656809,11.97621434074501&#10;c 16.0,-7.1066666666666665 9.846153846153847,24.87333333333333 9.02172140232468,47.24600788147721 c 0.0,16.821214499810175 -6.153846153846154,48.69687443958327 26.897320274491126,40.405763328472155&#10;c 8.529099044076238,-7.1066666666666665 13.108048122668212,0 13.108048122668212,18.816458893750067&#10;c 0,15.410093912066053 -18.65006743160258,22.51676057873272 -23.03939010063768,15.410093912066053&#10;c -16.0,-7.1066666666666665 -9.846153846153847,24.87333333333333 -16.96597829652166,43.81212831015617 c 0.0,32.22135776275657 -6.153846153846154,48.68774365004997 5.892874166444945,40.39663253893885&#10;c 18.12698881067834,-7.1066666666666665 28.7387577687656,0 28.7387577687656,18.82558968328337&#10;c 0,10.298247917614681 -10.335818273990649,17.404914584281347 -13.533641697284953,10.298247917614681&#10;c -16.0,-7.1066666666666665 -9.846153846153847,24.87333333333333 -21.09799023792559,48.92397430460754 c 0.0,32.6928136849845 -6.153846153846154,54.31512823030254 20.371826553412188,46.02401711919143&#10;c 14.228315254740151,-7.1066666666666665 16.165823035016306,0 16.165823035016306,13.198205103030794&#10;c 0,18.723355421988067 -6.069354105642441,25.830022088654733 -12.340836142127038,18.723355421988067&#10;c -16.0,-7.1066666666666665 -9.846153846153847,24.87333333333333 -24.196813446301455,40.498866800234154 c 0.0,7.683163165946091 -6.153846153846154,54.60015245977455 16.34098590298573,46.309041348663435&#10;c 8.988491170195918,-7.1066666666666665 20.669986564081746,0 20.669986564081746,12.913180873558787&#10;c 0,16.624126254155392 -14.6674890491336,23.730792920822058 -32.20108154305714,16.624126254155392&#10;c -16.0,-7.1066666666666665 -9.846153846153847,24.87333333333333 -4.8098909240103325,42.59809596806683 c 0.0,26.741945199743974 -6.153846153846154,52.94329686375972 26.573586372893935,44.652185752648606&#10;c 1.9550516396913509,-7.1066666666666665 3.820847266485604,0 3.820847266485604,14.570036469573616&#10;c 0,8.704527813293431 -13.387305012396732,15.811194479960097 -13.822040025074632,8.704527813293431&#10;c -16.0,-7.1066666666666665 -9.846153846153847,24.87333333333333 -16.572393614304907,50.51769440892879 c -0.0,18.61652840692889 6.153846153846154,53.07559030280543 -8.056112878749394,44.78447919169432&#10;c -8.024228217747018,-7.1066666666666665 -25.984987756782097,0 -25.984987756782097,14.437743030527905&#10;c 0,18.632326895863876 6.4781389316259785,25.738993562530542 13.013084002693564,18.632326895863876&#10;c 16.0,-7.1066666666666665 9.846153846153847,24.87333333333333 21.02801663283793,40.589895326358345 c 0.0,16.609360995874308 -6.153846153846154,57.125153385708366 21.857993786535943,48.83404227459725&#10;c 9.114287083975535,-7.1066666666666665 11.052399132836264,0 11.052399132836264,10.38817994762497&#10;c 0,18.74479237313833 -16.278562339620763,25.851459039804997 -16.364602187268844,18.74479237313833&#10;c -16.0,-7.1066666666666665 -9.846153846153847,24.87333333333333 -16.545790732103363,40.47742984908389 c -0.0,31.107079519847247 6.153846153846154,58.35187871744702 -22.276849463480932,50.06076760633591&#10;c -4.755520009004519,-7.1066666666666665 -8.42053795136728,0 -8.42053795136728,9.161454615886313&#10;c 0,13.871447813485794 9.463318499075886,20.97811448015246 26.202511396947642,13.871447813485794&#10;c 16.0,-7.1066666666666665 9.846153846153847,24.87333333333333 4.49487601790057,45.35077440873643 L 0 1066 " fill="none" stroke="black" stroke-width="1.0" style="vector-effect:non-scaling-stroke;" /></g><g><path d="M 0 0  L 861.538462 0  c -0.0,33.9503718172121 6.153846153846154,53.17972692364342 -25.060305710742277,44.88861581253231&#10;c -3.434788128636656,-7.1066666666666665 -4.8999711034368865,0 -4.8999711034368865,14.333606409689914&#10;c 0,17.372098882232173 10.143812738372691,24.47876554889884 19.15710597286434,17.372098882232173&#10;c 16.0,-7.1066666666666665 9.846153846153847,24.87333333333333 10.803170841314824,41.85012333999005 c -0.0,24.744606885177994 6.153846153846154,52.90096474377476 -10.519646494554088,44.60985363266364&#10;c -11.34905871010585,-7.1066666666666665 -26.68027440727046,0 -26.68027440727046,14.612368589558578&#10;c 0,12.93793563822397 7.1291909547745425,20.044602304890635 11.452184732125431,12.93793563822397&#10;c 16.0,-7.1066666666666665 9.846153846153847,24.87333333333333 25.747736169699117,46.28428658399825 c -0.0,6.838493051338012 6.153846153846154,57.68409244695611 -1.1275746249327756,49.39298133584499&#10;c -26.280998773738233,-7.1066666666666665 -28.473668072598926,0 -28.473668072598926,9.829240886377228&#10;c 0,16.22565274061639 13.775189744575068,23.332319407283055 15.46435923174833,16.22565274061639&#10;c 16.0,-7.1066666666666665 9.846153846153847,24.87333333333333 14.136883465783372,42.99656948160583 c -0.0,8.97928519531177 6.153846153846154,57.13952606987971 -13.7018019576591,48.84841495876859&#10;c -4.609782971933194,-7.1066666666666665 -16.32476766805355,0 -16.32476766805355,10.373807263453628&#10;c 0,10.83510103065904 3.135517521522235,17.941767697325705 14.665986390614087,10.83510103065904&#10;c 16.0,-7.1066666666666665 9.846153846153847,24.87333333333333 15.360583235098563,48.38712119156318 c 0.0,26.420094346903753 -6.153846153846154,58.839706023938696 23.668886987405454,50.54859491282758&#10;c 6.735450759468284,-7.1066666666666665 16.761531856466835,0 16.761531856466835,8.67362730939464&#10;c 0,11.303567822087906 -22.38279274099913,18.410234488754572 -35.39842885315391,11.303567822087906&#10;c -16.0,-7.1066666666666665 -9.846153846153847,24.87333333333333 -5.03198999071838,47.918654400134315 c -0.0,22.71033942489273 6.153846153846154,58.97471299995663 -2.3595259844470458,50.683601888845516&#10;c -13.235070782422984,-7.1066666666666665 -31.83773159700744,0 -31.83773159700744,8.538620333376706&#10;c 0,17.791477316030942 5.433322169715275,24.898143982697608 7.848823702471488,17.791477316030942&#10;c 16.0,-7.1066666666666665 9.846153846153847,24.87333333333333 26.348433878983,41.43074490619128 c -0.0,17.746976389230795 6.153846153846154,52.07096436055793 -0.9130754371964422,43.779853249446816&#10;c -28.428649492306263,-7.1066666666666665 -39.26886970681597,0 -39.26886970681597,15.442368972775405&#10;c 0,15.997559378191077 12.484444745045973,23.104226044857743 18.900321196968882,15.997559378191077&#10;c 16.0,-7.1066666666666665 9.846153846153847,24.87333333333333 21.281623947043528,43.224662844031144 c 0.0,20.671783897950647 -6.153846153846154,55.34136394059509 4.577640078095293,47.05025282948397&#10;c 24.61385739422535,-7.1066666666666665 30.52751096749772,0 30.52751096749772,12.171969392738248&#10;c 0,11.978496515747615 -4.529559737791766,19.08516318241428 -20.528706002118344,11.978496515747615&#10;c -16.0,-7.1066666666666665 -9.846153846153847,24.87333333333333 -14.576445043474667,47.243725706474606 c 0.0,10.362605203016907 -6.153846153846154,49.6410257688305 23.90883841007377,41.34991465771939&#10;c 8.626004040772864,-7.1066666666666665 14.893209083934607,0 14.893209083934607,17.872307564502833&#10;c 0,17.45771306264944 -13.30188064610699,24.564379729316105 -27.019943862043608,17.45771306264944&#10;c -16.0,-7.1066666666666665 -9.846153846153847,24.87333333333333 -11.78210363196477,41.76450915957278 L 0 1066 " fill="none" stroke="black" stroke-width="1.0" style="vector-effect:non-scaling-stroke;" /></g><g><path d="M 0 0  L 984.615385 0  c -0.0,30.89327993172132 6.153846153846154,48.65497296313592 0.05596370494349749,40.363861852024804&#10;c -27.965852721295956,-7.1066666666666665 -33.90010406689825,0 -33.90010406689825,18.858360370197417&#10;c 0,9.499886764132278 15.65250539480507,16.606553430798943 16.780326414692325,9.499886764132278&#10;c 16.0,-7.1066666666666665 9.846153846153847,24.87333333333333 17.06381394726243,49.722335458089944 c 0.0,8.259779682631098 -6.153846153846154,49.20208870486919 4.270478851119465,40.910977593758076&#10;c 23.68390498360187,-7.1066666666666665 32.17485343737878,0 32.17485343737878,18.311244628464145&#10;c 0,17.50826822527815 -18.13218561849013,24.614934891944817 -21.42396156174131,17.50826822527815&#10;c -16.0,-7.1066666666666665 -9.846153846153847,24.87333333333333 -15.021370726756931,41.71395399694407 c 0.0,6.053654517242812 -6.153846153846154,51.921042513772655 16.267049437884786,43.62993140266154&#10;c 4.763910479985234,-7.1066666666666665 17.010057260985818,0 17.010057260985818,15.59229081956068&#10;c 0,17.889007173556443 -14.65586846580113,24.99567384022311 -23.715537627748244,17.889007173556443&#10;c -16.0,-7.1066666666666665 -9.846153846153847,24.87333333333333 -9.56156907112236,41.33321504866578 c 0.0,33.202480065673264 -6.153846153846154,58.054331768039255 9.203847769918614,49.76322065692814&#10;c 8.727933853505718,-7.1066666666666665 21.659523248619127,0 21.659523248619127,9.45900156529408&#10;c 0,10.563905891990622 -5.164854430736059,17.670572558657287 -6.239943272112402,10.563905891990622&#10;c -16.0,-7.1066666666666665 -9.846153846153847,24.87333333333333 -24.62342774642534,48.6583163302316 c 0.0,14.002144571635917 -6.153846153846154,51.30574500758291 1.507727670646781,43.01463389647179&#10;c 11.530094663800751,-7.1066666666666665 31.391463352673178,0 31.391463352673178,16.20758832575043&#10;c 0,14.731751783665509 -17.22826113697034,21.838418450332174 -18.926003984030125,14.731751783665509&#10;c -16.0,-7.1066666666666665 -9.846153846153847,24.87333333333333 -13.973187039289833,44.49047043855671 c -0.0,6.9665521859992365 6.153846153846154,58.721150804664205 -10.163925896603137,50.43003969355309&#10;c -9.001492073610674,-7.1066666666666665 -27.42220985129819,0 -27.42220985129819,8.79218252866913&#10;c 0,12.035190837322936 23.360768080095948,19.141857503989602 33.78909189688383,12.035190837322936&#10;c 16.0,-7.1066666666666665 9.846153846153847,24.87333333333333 3.7970438510174986,47.187031384899285 c -0.0,11.082530315572354 6.153846153846154,54.220715142278145 -5.596657137314011,45.92960403116703&#10;c -31.146890909226777,-7.1066666666666665 -32.052848740573744,0 -32.052848740573744,13.29261819105519&#10;c 0,18.487632254519035 10.537318929315372,25.5942989211857 19.14357873310012,18.487632254519035&#10;c 16.0,-7.1066666666666665 9.846153846153847,24.87333333333333 18.505927144787634,40.73458996770319 c -0.0,14.582463772612613 6.153846153846154,49.32725562675896 -19.85241917910724,41.03614451564785&#10;c -9.103687624271865,-7.1066666666666665 -10.980306470141404,0 -10.980306470141404,18.186077706574373&#10;c 0,15.598349627868181 13.868543128108,22.705016294534847 31.00563319814635,15.598349627868181&#10;c 16.0,-7.1066666666666665 9.846153846153847,24.87333333333333 -0.17290754889770454,43.62387259435404 c 0.0,8.653245135242448 -6.153846153846154,50.10460353975894 25.457573383487965,41.81349242864783&#10;c 3.636018212791793,-7.1066666666666665 6.5024697806243665,0 6.5024697806243665,17.408729793574395&#10;c 0,17.80110767096047 -8.97258380885839,24.907774337627135 -27.264594361835375,17.80110767096047&#10;c -16.0,-7.1066666666666665 -9.846153846153847,24.87333333333333 -4.695448802276957,41.42111455126175 L 0 1066 " fill="none" stroke="black" stroke-width="1.0" style="vector-effect:non-scaling-stroke;" /></g><g><path d="M 0 0  L 1107.692308 0  c -0.0,16.11046649471386 6.153846153846154,57.04328273472973 -21.45776698602861,48.752171623618615&#10;c -4.542847990254704,-7.1066666666666665 -10.725706622980802,0 -10.725706622980802,10.470050598603606&#10;c 0,15.243442248462848 21.151922565694118,22.350108915129514 30.003146252433325,15.243442248462848&#10;c 16.0,-7.1066666666666665 9.846153846153847,24.87333333333333 2.180327356576086,43.97877997375937 c 0.0,32.911334322269596 -6.153846153846154,51.1052006991423 6.925373425585302,42.81408958803119&#10;c 31.15723901249077,-7.1066666666666665 33.98773548682053,0 33.98773548682053,16.408132634191034&#10;c 0,15.07635573928166 -13.870961169981772,22.183022405948325 -21.842389062800244,15.07635573928166&#10;c -16.0,-7.1066666666666665 -9.846153846153847,24.87333333333333 -19.070719849605588,44.14586648294056 c -0.0,17.202952546590527 6.153846153846154,54.97376158459403 -17.201396657451777,46.682650473482916&#10;c -5.219462566113499,-7.1066666666666665 -13.421514496019409,0 -13.421514496019409,12.539571748739306&#10;c 0,11.725695104392734 13.755677481759246,18.8323617710594 31.219577804490317,11.725695104392734&#10;c 16.0,-7.1066666666666665 9.846153846153847,24.87333333333333 -0.596666651019131,47.49652711782949 c 0.0,20.34427845835281 -6.153846153846154,48.58306161076093 10.061464424652668,40.291950499649815&#10;c 8.379427789496942,-7.1066666666666665 27.566334737203313,0 27.566334737203313,18.930271722572407&#10;c 0,10.070764714899617 -18.2486055958014,17.177431381566283 -30.577899974711702,10.070764714899617&#10;c -16.0,-7.1066666666666665 -9.846153846153847,24.87333333333333 -7.04989918714428,49.151457507322604 c -0.0,21.670881192264442 6.153846153846154,56.09658652424549 -15.979175442619916,47.805475413134374&#10;c -14.36772429107416,-7.1066666666666665 -17.299662414144937,0 -17.299662414144937,11.416746809087847&#10;c 0,10.871209860062443 7.619645228372888,17.97787652672911 12.4942530663672,10.871209860062443&#10;c 16.0,-7.1066666666666665 9.846153846153847,24.87333333333333 20.784584790397652,48.35101236215978 c 0.0,7.298840041504651 -6.153846153846154,49.039103658537314 20.14958979604732,40.7479925474262&#10;c 6.276976046720235,-7.1066666666666665 18.81517468596461,0 18.81517468596461,18.47422967479602&#10;c 0,14.612171862396245 -11.339334200883718,21.71883852906291 -12.345573126981694,14.612171862396245&#10;c -16.0,-7.1066666666666665 -9.846153846153847,24.87333333333333 -26.619191355030235,44.610050359825976 c -0.0,26.87131759479214 6.153846153846154,54.771698126058 -16.67520997206439,46.480587014946884&#10;c -12.069144379011135,-7.1066666666666665 -21.78413557498909,0 -21.78413557498909,12.741635207275337&#10;c 0,11.210162667568362 18.16573343361593,18.316829334235027 22.505551250503366,11.210162667568362&#10;c 16.0,-7.1066666666666665 9.846153846153847,24.87333333333333 15.953794296550114,48.01205955465386 c 0.0,9.59343151748365 -6.153846153846154,51.748464452403795 19.031806505576945,43.45735334129268&#10;c 5.150216700944747,-7.1066666666666665 18.73496246347368,0 18.73496246347368,15.76486888092954&#10;c 0,17.614611955662205 -12.673230637855607,24.72127862232887 -36.20673221592199,17.614611955662205&#10;c -16.0,-7.1066666666666665 -9.846153846153847,24.87333333333333 -1.5600367531286352,41.607610266560016 c -0.0,31.647568667749876 6.153846153846154,55.685187497728 -1.1442403169810405,47.39407638661689&#10;c -9.274924880595023,-7.1066666666666665 -35.39376513489664,0 -35.39376513489664,11.828145835605334&#10;c 0,9.095425314632386 24.623275667824558,16.202091981299052 29.485801549540714,9.095425314632386&#10;c 16.0,-7.1066666666666665 9.846153846153847,24.87333333333333 7.0522039023369665,50.126796907589835 L 0 1066 " fill="none" stroke="black" stroke-width="1.0" style="vector-effect:non-scaling-stroke;" /></g><g><path d="M 0 0  L 1230.769231 0  c 0.0,8.600543554918646 -6.153846153846154,49.4725762866904 5.205213404799545,41.181465175579284&#10;c 13.013104603064164,-7.1066666666666665 28.112492038908528,0 28.112492038908528,18.040757046642938&#10;c 0,9.579408188863063 -6.019707077462421,16.68607485552973 -9.414871335116025,9.579408188863063&#10;c -16.0,-7.1066666666666665 -9.846153846153847,24.87333333333333 -23.902834108592046,49.64281403335916 c -0.0,8.22480585851408 6.153846153846154,52.79835354770636 -23.73571984544756,44.50724243659525&#10;c -2.5686022256305345,-7.1066666666666665 -7.745208561188516,0 -7.745208561188516,14.714979785626973&#10;c 0,9.770435352154259 4.068587337530783,16.877102018820924 8.940785373914554,9.770435352154259&#10;c 16.0,-7.1066666666666665 9.846153846153847,24.87333333333333 22.54014303272152,49.45178687006796 c 0.0,22.95326393845355 -6.153846153846154,51.92787955082003 25.082747030857384,43.636768439708916&#10;c 3.6860474278438096,-7.1066666666666665 4.47011473369507,0 4.47011473369507,15.585453782513305&#10;c 0,11.032462505950669 -6.946421826456193,18.139129172617334 -11.054437566057459,11.032462505950669&#10;c -16.0,-7.1066666666666665 -9.846153846153847,24.87333333333333 -18.498424198494995,48.18975971627155 c 0.0,30.346757445403718 -6.153846153846154,54.218715985424446 18.085800008914056,45.92760487431333&#10;c 16.636035998421143,-7.1066666666666665 21.777163345853623,0 21.777163345853623,13.29461734790889&#10;c 0,14.611368431235597 -12.857405170038032,21.718035097902263 -18.8035843601936,14.611368431235597&#10;c -16.0,-7.1066666666666665 -9.846153846153847,24.87333333333333 -21.05937899457408,44.610853790986624 c 0.0,26.39074680141099 -6.153846153846154,54.79323791405407 9.80095533736594,46.50212680294295&#10;c 30.649794063580586,-7.1066666666666665 31.808136247170317,0 31.808136247170317,12.720095419279268&#10;c 0,17.321682730813286 -31.75969287743069,24.428349397479952 -40.03137607869264,17.321682730813286&#10;c -16.0,-7.1066666666666665 -9.846153846153847,24.87333333333333 -1.5777155058436207,41.900539491408935 c 0.0,30.100982218519068 -6.153846153846154,58.43636627270161 8.360912954919113,50.1452551615905&#10;c 25.748420243711504,-7.1066666666666665 26.9199478764913,0 26.9199478764913,9.076967060631723&#10;c 0,18.351564349369788 -7.68789881284111,25.458231016036454 -9.028381554096072,18.351564349369788&#10;c -16.0,-7.1066666666666665 -9.846153846153847,24.87333333333333 -26.252479277314343,40.87065787285243 c 0.0,25.682274561857568 -6.153846153846154,56.1196874600226 1.7959277789906825,47.82857634891148&#10;c 10.88144354481445,-7.1066666666666665 31.346597537445398,0 31.346597537445398,11.393645873310739&#10;c 0,18.479328643686294 -28.94970867906048,25.58599531035296 -30.848223010191276,18.479328643686294&#10;c -16.0,-7.1066666666666665 -9.846153846153847,24.87333333333333 -2.294302306244802,40.74289357853593 c -0.0,6.120590363147144 6.153846153846154,52.69997940211433 -11.921782242955832,44.408868291003216&#10;c -19.61644859714657,-7.1066666666666665 -22.835673489136855,0 -22.835673489136855,14.813353931219005&#10;c 0,9.620365614448495 4.194899129538057,16.72703228111516 8.528192505581448,9.620365614448495&#10;c 16.0,-7.1066666666666665 9.846153846153847,24.87333333333333 26.22926322651124,49.601856607773726 c 0.0,26.372750025591028 -6.153846153846154,52.442371471254184 23.476220308611897,44.15126036014307&#10;c 2.8792638237719514,-7.1066666666666665 6.45138419919855,0 6.45138419919855,15.070961862079152&#10;c 0,18.101924170792877 -6.704098510599248,25.208590837459543 -22.029308901903992,18.101924170792877&#10;c -16.0,-7.1066666666666665 -9.846153846153847,24.87333333333333 -7.898295605906455,41.120298051429344 L 0 1066 " fill="none" stroke="black" stroke-width="1.0" style="vector-effect:non-scaling-stroke;" /></g><g><path d="M 0 0  L 1353.846154 0  c -0.0,22.81199603369767 6.153846153846154,56.238765450908375 -2.845611306451964,47.94765433979726&#10;c -28.201465425443814,-7.1066666666666665 -30.93095626802495,0 -30.93095626802495,11.27456788242496&#10;c 0,13.996909864519573 10.809642485995559,21.10357653118624 11.480328047181274,13.996909864519573&#10;c 16.0,-7.1066666666666665 9.846153846153847,24.87333333333333 22.29623952729564,45.22531235770265 c -0.0,23.683219386439266 6.153846153846154,57.72043183249331 -26.88686871062517,49.4293207213822&#10;c -6.464735582002807,-7.1066666666666665 -11.784356993491127,0 -11.784356993491127,9.792901500840024&#10;c 0,13.270409313036204 12.416835564047673,20.37707597970287 33.96261494061112,13.270409313036204&#10;c 16.0,-7.1066666666666665 9.846153846153847,24.87333333333333 4.7086107635051775,45.95181290918602 c -0.0,14.318096929669892 6.153846153846154,58.30850699370861 -13.57531854782389,50.0173958825975&#10;c -9.33161020049165,-7.1066666666666665 -21.308359030148587,0 -21.308359030148587,9.204826339624724&#10;c 0,16.05803661633879 10.385443273906306,23.164703283005455 31.06895779131645,16.05803661633879&#10;c 16.0,-7.1066666666666665 9.846153846153847,24.87333333333333 3.8147197866560276,43.16418560588343 c 0.0,24.236118571381482 -6.153846153846154,56.716884895685325 1.1979870852068732,48.42577378457421&#10;c 12.221114543294926,-7.1066666666666665 31.333309292983113,0 31.333309292983113,10.79644843764801&#10;c 0,11.897148846990937 -5.077239733419617,19.003815513657603 -22.0498547845272,11.897148846990937&#10;c -16.0,-7.1066666666666665 -9.846153846153847,24.87333333333333 -10.481441593662787,47.325073375231284 c 0.0,33.43282699932365 -6.153846153846154,50.71552183384916 14.175611234048722,42.424410722738045&#10;c 5.232992786004299,-7.1066666666666665 22.95343045961136,0 22.95343045961136,16.797811499484176&#10;c 0,9.481968408586901 -24.877147136322506,16.588635075253567 -26.200780088205562,9.481968408586901&#10;c -16.0,-7.1066666666666665 -9.846153846153847,24.87333333333333 -10.928261605454523,49.74025381363532 c -0.0,33.0636135623914 6.153846153846154,54.195185503172546 2.1930689969445916,45.90407439206143&#10;c -31.172844539367794,-7.1066666666666665 -42.8379849816888,0 -42.8379849816888,13.31814783016079&#10;c 0,10.89904861365914 19.739793098219575,18.005715280325806 26.00197524977379,10.89904861365914&#10;c 16.0,-7.1066666666666665 9.846153846153847,24.87333333333333 14.64294073497042,48.32317360856308 c -0.0,17.16047718957118 6.153846153846154,58.978383824304814 -9.427571098887947,50.6872727131937&#10;c -22.989156901425165,-7.1066666666666665 -25.98699480862848,0 -25.98699480862848,8.534949509028522&#10;c 0,8.627362028012733 16.191445928050573,15.734028694679399 23.411758799451242,8.627362028012733&#10;c 16.0,-7.1066666666666665 9.846153846153847,24.87333333333333 12.002807108065184,50.59486019420949 c -0.0,11.396692933192604 6.153846153846154,52.44463486381041 -10.657802464105835,44.15352375269929&#10;c -13.928913941501103,-7.1066666666666665 -25.137661065899913,0 -25.137661065899913,15.068698469522928&#10;c 0,18.63022479020355 20.14052504749752,25.736891456870215 29.621063580929395,18.63022479020355&#10;c 16.0,-7.1066666666666665 9.846153846153847,24.87333333333333 6.174399949076353,40.59199743201867 c 0.0,10.501581421529991 -6.153846153846154,58.60125675508633 24.14732706617483,50.31014564397522&#10;c 11.596345279800609,-7.1066666666666665 15.01858761221748,0 15.01858761221748,8.912076578247003&#10;c 0,11.27294625297008 -13.916881414133146,18.379612919636745 -20.041335602282892,11.27294625297008&#10;c -16.0,-7.1066666666666665 -9.846153846153847,24.87333333333333 -19.12457907610942,47.94927596925214 L 0 1066 " fill="none" stroke="black" stroke-width="1.0" style="vector-effect:non-scaling-stroke;" /></g><g><path d="M 0 0  L 1476.923077 0  c 0.0,17.135475248280848 -6.153846153846154,48.76737828105814 16.79314795037266,40.47626716994703&#10;c 9.777337788621677,-7.1066666666666665 14.135190518781325,0 14.135190518781325,18.745955052275193&#10;c 0,15.393513744825547 -4.216846173168629,22.500180411492213 -18.214277888830168,15.393513744825547&#10;c -16.0,-7.1066666666666665 -9.846153846153847,24.87333333333333 -12.714060580323817,43.828708477396674 c 0.0,23.1265093463776 -6.153846153846154,55.09507826440656 11.26060864356728,46.803967153295446&#10;c 22.248053152047945,-7.1066666666666665 29.338193737556367,0 29.338193737556367,12.418255068926776&#10;c 0,18.143786237532844 -5.6735972233979615,25.25045290419951 -15.994991504143698,18.143786237532844&#10;c -16.0,-7.1066666666666665 -9.846153846153847,24.87333333333333 -24.60381087697995,41.07843598468938 c 0.0,32.5472975829333 -6.153846153846154,56.4310934028673 2.4896889903216013,48.13998229175618&#10;c 22.152154563416996,-7.1066666666666665 32.77008639676319,0 32.77008639676319,11.082239930466038&#10;c 0,12.763262533075753 -6.124504602436806,19.86992919974242 -24.818915446613964,12.763262533075753&#10;c -16.0,-7.1066666666666665 -9.846153846153847,24.87333333333333 -10.44085994047083,46.45895968914647 c 0.0,12.126963836779495 -6.153846153846154,53.29545865374473 13.801748377859889,45.00434754263362&#10;c 7.520851720082514,-7.1066666666666665 20.41256287188144,0 20.41256287188144,14.217874679588604&#10;c 0,12.606381026058664 -19.861834633986387,19.71304769272533 -32.86967871419534,12.606381026058664&#10;c -16.0,-7.1066666666666665 -9.846153846153847,24.87333333333333 -1.3446325355459905,46.61584119616356 c 0.0,15.930273344326267 -6.153846153846154,58.32425011049973 10.157440871066646,50.03313899938862&#10;c 10.620311480968972,-7.1066666666666665 31.305447819503854,0 31.305447819503854,9.189083222833602&#10;c 0,10.596436943931714 -18.04491046302008,17.70310361059838 -22.543173582536205,10.596436943931714&#10;c -16.0,-7.1066666666666665 -9.846153846153847,24.87333333333333 -18.919715108034296,48.62578527829051 c -0.0,21.02233832564374 6.153846153846154,52.009392026883816 -19.921797228359285,43.7182809157727&#10;c -13.35076697444445,-7.1066666666666665 -16.466521272484993,0 -16.466521272484993,15.50394130644952&#10;c 0,8.726923947140797 25.319846662719627,15.833590613807463 37.30988680808352,8.726923947140797&#10;c 16.0,-7.1066666666666665 9.846153846153847,24.87333333333333 -0.9215683072392409,50.495298275081424 c -0.0,15.616367047776476 6.153846153846154,53.499447790539016 1.6283707569190518,45.2083366794279&#10;c -34.61223981771738,-7.1066666666666665 -43.22785751407706,0 -43.22785751407706,14.01388554279432&#10;c 0,10.87335732711815 17.90191628778437,17.980023993784815 28.85711239891124,10.87335732711815&#10;c 16.0,-7.1066666666666665 9.846153846153847,24.87333333333333 12.742374358246764,48.34886489510407 c 0.0,29.01560216775804 -6.153846153846154,55.909070949174826 6.150017100842616,47.61795983806371&#10;c 23.0940209731042,-7.1066666666666665 28.8259756052364,0 28.8259756052364,11.60426238415851&#10;c 0,14.218156662359043 -5.258419331665777,21.32482332902571 -20.39274851985893,14.218156662359043&#10;c -16.0,-7.1066666666666665 -9.846153846153847,24.87333333333333 -14.583244186220089,45.00406555986318 c -0.0,15.381351200622772 6.153846153846154,55.04258815863521 -2.2663033333202005,46.7514770475241&#10;c -29.178495747693123,-7.1066666666666665 -36.25587110001074,0 -36.25587110001074,12.470745174698123&#10;c 0,11.994420780357082 4.914247234662346,19.101087447023748 16.523055258368835,11.994420780357082&#10;c 16.0,-7.1066666666666665 9.846153846153847,24.87333333333333 21.999119174962104,47.22780144186514 L 0 1066 " fill="none" stroke="black" stroke-width="1.0" style="vector-effect:non-scaling-stroke;" /></g></g><g><g><path d="M 0 0  L 0 118.444444  c 34.21510091388325,0.0 54.691832151861135,-5.9222222222222225 46.07644753647652,6.8287884654492235&#10;c -7.384615384615384,10.660506520091365 0,26.993087793280466 15.462014001985018,26.993087793280466&#10;c 15.504942559900577,0 22.88955794451596,-21.510683937779476 15.504942559900577,-23.146915512111516&#10;c -7.384615384615384,-15.397777777777778 25.846153846153847,-9.475555555555555 46.03351897856096,-10.674960746618172 c 7.336184379806306,0.0 55.5959699793425,-5.9222222222222225 46.980585363957886,10.188213584934305&#10;c -7.384615384615384,21.982481866248026 0,28.33757867337758 14.557876174503654,28.33757867337758&#10;c 13.6012885253323,0 20.985903909947684,-17.924303079692205 13.6012885253323,-20.955878594921586&#10;c -7.384615384615384,-15.397777777777778 25.846153846153847,-9.475555555555555 47.93717301312924,-17.569913663390295 c 7.995666104865833,-0.0 60.02930585276458,5.9222222222222225 51.41392123737997,-16.249577120135992&#10;c -7.384615384615384,-19.46737379544372 0,-21.30360228214094 10.124540301081574,-21.30360228214094&#10;c 12.57424021164777,0 19.958855596263152,36.46547285509179 12.57424021164777,37.27741584405061&#10;c -7.384615384615384,15.397777777777778 25.846153846153847,9.475555555555555 48.96422132681377,0.27576355822632337 c 8.327918058255854,0.0 58.349076603731646,-5.9222222222222225 49.73369198834703,8.593740354608121&#10;c -7.384615384615384,18.131961071107266 0,31.628293982880145 11.804769550114507,31.628293982880145&#10;c 15.545053170072514,0 22.929668554687897,-9.621536972364977 15.545053170072514,-16.35887171192747&#10;c -7.384615384615384,-15.397777777777778 25.846153846153847,-9.475555555555555 45.99340836838903,-23.863162625560797 c 16.30315758053471,0.0 59.94301857920628,-5.9222222222222225 51.32763396382166,20.087897974864735&#10;c -7.384615384615384,5.946486741702066 0,11.947177676532068 10.210827574639879,11.947177676532068&#10;c 12.137751920439449,0 19.522367305054832,-29.86400577157058 12.137751920439449,-30.212208812747644&#10;c -7.384615384615384,-15.397777777777778 25.846153846153847,-9.475555555555555 49.40070961802209,-1.8228668386491584 c 31.42111625829559,0.0 60.17856967682805,-5.9222222222222225 51.563185061443434,9.512337688336942&#10;c -7.384615384615384,22.22274887050407 0,26.19535587748029 9.975276477018106,26.19535587748029&#10;c 9.996933968786898,0 17.38154935340228,-8.094534349084109 9.996933968786898,-11.859094852628601&#10;c -7.384615384615384,-15.397777777777778 25.846153846153847,-9.475555555555555 51.54152756967464,-23.84859871318863 c 29.908145344589254,-0.0 58.734002283829554,5.9222222222222225 50.118617668444934,-20.766024705400376&#10;c -7.384615384615384,-17.708565748295747 0,-19.338364722437383 11.419843870016607,-19.338364722437383&#10;c 9.95637218759159,0 17.340987572206974,7.97032234982138 9.95637218759159,14.69769979034007&#10;c -7.384615384615384,15.397777777777778 25.846153846153847,9.475555555555555 51.58208935086995,25.40668963749769 c 24.003009912199456,0.0 60.39864931513149,-5.9222222222222225 51.78326469974687,22.571801949938454&#10;c -7.384615384615384,9.237674345300919 0,12.318496168232656 9.755196838714667,12.318496168232656&#10;c 14.027255575649967,0 21.41187096026535,-5.054020334853591 14.027255575649967,-23.6454872159703&#10;c -7.384615384615384,-15.397777777777778 25.846153846153847,-9.475555555555555 47.51120596281157,-11.244810902200811 c 30.424686747847232,-0.0 54.22171176387472,5.9222222222222225 45.6063271484901,-21.772252774200556&#10;c -7.384615384615384,-9.180193323729192 0,-13.41990895121872 15.932134389971438,-13.41990895121872&#10;c 19.311821597476005,0 26.696436982091388,9.186921577590699 19.311821597476005,13.919050328403536&#10;c -7.384615384615384,15.397777777777778 25.846153846153847,9.475555555555555 42.226639940985535,21.27311139701574 c 9.905329730496854,-0.0 54.87228989713539,5.9222222222222225 46.25690528175077,-1.6613720055486383&#10;c -7.384615384615384,-29.861717558941155 0,-36.48300371743144 15.281556256710772,-36.48300371743144&#10;c 15.04752703818432,0 22.432142422799703,17.684828910445535 15.04752703818432,40.17925065069283&#10;c -7.384615384615384,15.397777777777778 25.846153846153847,9.475555555555555 46.49093450027722,-2.0348749277127567 c 28.784567776298697,0.0 53.09003715796645,-5.9222222222222225 44.47465254258183,24.324027006546334&#10;c -7.384615384615384,3.7582872109337835 0,7.8556927809579555 17.06380899587971,7.8556927809579555&#10;c 12.703991224737727,0 20.08860660935311,-3.742307577974786 12.703991224737727,-6.163716295030138&#10;c -7.384615384615384,-15.397777777777778 25.846153846153847,-9.475555555555555 48.83447031372381,-26.01600349247415 c 11.088984433794923,-0.0 51.01648154752205,5.9222222222222225 42.401096932137435,-10.254518270134943&#10;c -7.384615384615384,-6.552537393773235 0,-22.960643833698086 19.137364606324105,-22.960643833698086&#10;c 14.474915976810117,0 21.8595313614255,9.354036044152489 14.474915976810117,31.44930049184256&#10;c -7.384615384615384,15.397777777777778 25.846153846153847,9.475555555555555 47.063545561651424,1.76586161199047 c 21.593335288459553,0.0 56.48817035953387,-5.9222222222222225 47.87278574414925,16.24796781068084&#10;c -7.384615384615384,13.37367008609508 0,13.38031607008607 13.665675794312293,13.38031607008607&#10;c 13.55910664917915,0 20.943722033794533,-29.81746565974821 13.55910664917915,-29.89546098112046&#10;c -7.384615384615384,-15.397777777777778 25.846153846153847,-9.475555555555555 47.97935488928239,0.2671771003535497 L 1600 0 " fill="none" stroke="black" stroke-width="1.0" style="vector-effect:non-scaling-stroke;" /></g><g><path d="M 0 0  L 0 236.888889  c 16.943287297556136,-0.0 57.36340299092363,5.9222222222222225 48.74801837553902,-8.420724188854894&#10;c -7.384615384615384,-12.353317960839206 0,-29.13097307170577 12.790443162922521,-29.13097307170577&#10;c 8.674830668731055,0 16.059446053346438,15.233810927896696 8.674830668731055,16.057617929385145&#10;c -7.384615384615384,15.397777777777778 25.846153846153847,9.475555555555555 52.863630869730486,21.49407933117552 c 31.67646913543991,-0.0 51.992276379971315,5.9222222222222225 43.376891764586695,-16.335167277754422&#10;c -7.384615384615384,-13.040270577601065 0,-19.5238086973189 18.161569773874845,-19.5238086973189&#10;c 8.66497792495958,0 16.049593309574963,7.120502049099616 8.66497792495958,25.076309282316352&#10;c -7.384615384615384,15.397777777777778 25.846153846153847,9.475555555555555 52.87348361350196,10.782666692756969 c 24.88386434380751,-0.0 53.2847943465229,5.9222222222222225 44.66940973113829,-15.710682601163512&#10;c -7.384615384615384,-14.22864768613191 0,-14.677046580440884 16.869051807323252,-14.677046580440884&#10;c 14.920135219022349,0 22.304750603637732,13.096753946200808 14.920135219022349,27.624947397246384&#10;c -7.384615384615384,15.397777777777778 25.846153846153847,9.475555555555555 46.61832631943919,2.762781784358012 c 12.198723308488717,0.0 55.734027630482416,-5.9222222222222225 47.118643015097796,17.711011338164404&#10;c -7.384615384615384,9.652742317379676 0,19.636125716668623 14.419818523363745,19.636125716668623&#10;c 18.546547240377627,0 25.93116262499301,-17.50395411042793 18.546547240377627,-36.70730682149496&#10;c -7.384615384615384,-15.397777777777778 25.846153846153847,-9.475555555555555 42.99191429808391,-0.639830233338067 c 14.79565823635272,0.0 60.772696897010064,-5.9222222222222225 52.157312281625444,7.643172515094708&#10;c -7.384615384615384,19.542371602663955 0,27.84235991201678 9.381149256836096,27.84235991201678&#10;c 8.637207116506666,0 16.02182250112205,-18.373504100007406 8.637207116506666,-26.02012073554713&#10;c -7.384615384615384,-15.397777777777778 25.846153846153847,-9.475555555555555 52.901254421954874,-9.465411691564356 c 21.47736759420239,-0.0 53.9547177754672,5.9222222222222225 45.33933316008258,-25.30361309534809&#10;c -7.384615384615384,-4.5452709508535305 0,-12.922666454762798 16.19912837837896,-12.922666454762798&#10;c 14.218868435489107,0 21.60348382010449,18.815847990200208 14.218868435489107,33.071744127644855&#10;c -7.384615384615384,15.397777777777778 25.846153846153847,9.475555555555555 47.31959310297243,5.154535422466033 c 23.442785747408294,0.0 56.99692838573432,-5.9222222222222225 48.38154377034971,5.0098555244115195&#10;c -7.384615384615384,23.414419104506933 0,29.192012311053944 13.156917768111832,29.192012311053944&#10;c 17.949884164641567,0 25.33449954925695,-3.4589852390292735 17.949884164641567,-13.669231224103282&#10;c -7.384615384615384,-15.397777777777778 25.846153846153847,-9.475555555555555 43.58857737381997,-20.532636611362182 c 20.51333382378641,-0.0 58.224428109485075,5.9222222222222225 49.609043494100455,-5.371340354720538&#10;c -7.384615384615384,-19.18072287906789 0,-27.373355175042875 11.929418044361086,-27.373355175042875&#10;c 13.515873884680865,0 20.900489269296248,8.145047612080196 13.515873884680865,15.317371637291252&#10;c -7.384615384615384,15.397777777777778 25.846153846153847,9.475555555555555 48.022587653780676,17.42732389247216 c 23.267662831565968,0.0 59.5759179250486,-5.9222222222222225 50.96053330966399,13.40875301234496&#10;c -7.384615384615384,5.912583974367641 0,18.579941142202575 10.577928228797553,18.579941142202575&#10;c 10.190922110026982,0 17.575537494642365,-4.969049493996 10.190922110026982,-13.439104933576932&#10;c -7.384615384615384,-15.397777777777778 25.846153846153847,-9.475555555555555 51.34753942843456,-18.549589220970603 c 31.713173103350837,-0.0 52.56670048569096,5.9222222222222225 43.95131587030634,-18.304790725199467&#10;c -7.384615384615384,-7.892037415243385 0,-20.58266245028775 17.587145668155202,-20.58266245028775&#10;c 18.16167097158486,0 25.546286356200245,26.079448245527093 18.16167097158486,32.88309091506416&#10;c -7.384615384615384,15.397777777777778 25.846153846153847,9.475555555555555 43.37679056687668,6.004362260423058 c 21.446311805192735,0.0 52.93222604157407,-5.9222222222222225 44.316841426189455,6.909111231685174&#10;c -7.384615384615384,14.540094842433481 0,29.257873069538412 17.221620112272085,29.257873069538412&#10;c 18.531895832707512,0 25.916511217322896,-13.122123122892631 18.531895832707512,-18.824882203042403&#10;c -7.384615384615384,-15.397777777777778 25.846153846153847,-9.475555555555555 43.00656570575403,-17.342102098181183 c 16.480155953743335,-0.0 53.11369717206476,5.9222222222222225 44.49831255668014,-0.27832546503772093&#10;c -7.384615384615384,-31.032314397233947 0,-33.22205223731099 17.0401489817814,-33.22205223731099&#10;c 8.907198337144628,0 16.29181372176001,16.338580222030608 8.907198337144628,20.602860640483257&#10;c -7.384615384615384,15.397777777777778 25.846153846153847,9.475555555555555 52.63126320131691,12.897517061865457 c 15.355802701996062,-0.0 52.06451057490334,5.9222222222222225 43.44912595951872,-25.351248892971938&#10;c -7.384615384615384,-8.514490856847868 0,-12.784284880354669 18.089335578942823,-12.784284880354669&#10;c 16.61528041920831,0 23.999895803823694,17.337185960687172 16.61528041920831,17.195967844541315&#10;c -7.384615384615384,15.397777777777778 25.846153846153847,9.475555555555555 44.92318111925323,20.939565928785292 L 1600 0 " fill="none" stroke="black" stroke-width="1.0" style="vector-effect:non-scaling-stroke;" /></g><g><path d="M 0 0  L 0 355.333333  c 27.141207961712798,-0.0 57.34924961770673,5.9222222222222225 48.73386500232212,1.597403470500512&#10;c -7.384615384615384,-31.10871647951246 0,-36.03463302979144 12.804596536139421,-36.03463302979144&#10;c 17.174148919786013,0 24.558764304401397,4.0068243863359845 17.174148919786013,8.606330300389356&#10;c -7.384615384615384,15.397777777777778 25.846153846153847,9.475555555555555 44.36431261867553,25.830899258901578 c 9.073306621811467,0.0 58.19208745175996,-5.9222222222222225 49.57670283637535,20.714370771433902&#10;c -7.384615384615384,8.126715896907093 0,8.297702400581649 11.961758702086193,8.297702400581649&#10;c 12.38540391538131,0 19.770019299996694,-8.525027855103612 12.38540391538131,-20.42586345132341&#10;c -7.384615384615384,-15.397777777777778 25.846153846153847,-9.475555555555555 49.15305762308023,-8.586209720692143 c 22.367887111982355,-0.0 60.15544823158871,5.9222222222222225 51.54006361620409,-2.9148952523958287&#10;c -7.384615384615384,-15.083053887691134 0,-35.21073921479414 9.998397922257453,-35.21073921479414&#10;c 17.112953117056584,0 24.497568501671967,4.153976936994762 17.112953117056584,13.791996590319549&#10;c -7.384615384615384,15.397777777777778 25.846153846153847,9.475555555555555 44.425508421404956,24.33363787687042 c 19.54606075283205,-0.0 50.93905936080968,5.9222222222222225 42.32367474542506,-5.59946166020273&#10;c -7.384615384615384,-20.311680250599647 0,-24.18401830256203 19.21478679303648,-24.18401830256203&#10;c 17.894433917931273,0 25.279049302546657,3.993408719386773 17.894433917931273,11.955795866875008&#10;c -7.384615384615384,15.397777777777778 25.846153846153847,9.475555555555555 43.64402762053027,17.82768409588975 c 33.0437157911645,0.0 50.90156992576581,-5.9222222222222225 42.28618531038119,17.035257033662678&#10;c -7.384615384615384,6.119294505039762 0,12.755625579441734 19.252276228080348,12.755625579441734&#10;c 12.984458810213049,0 20.369074194828432,-9.77608172664289 12.984458810213049,-16.863499462110248&#10;c -7.384615384615384,-15.397777777777778 25.846153846153847,-9.475555555555555 48.55400272824849,-12.927383150994164 c 14.949284192664894,-0.0 51.86225703021795,5.9222222222222225 43.24687241483333,-8.645500837414826&#10;c -7.384615384615384,-15.351463489912954 0,-20.384965250339 18.291589123628214,-20.384965250339&#10;c 10.129397264524592,0 17.514012649139975,11.654930600702771 10.129397264524592,18.8114193674672&#10;c -7.384615384615384,15.397777777777778 25.846153846153847,9.475555555555555 51.40906427393695,10.219046720286627 c 19.525060848436805,-0.0 59.873310427661394,5.9222222222222225 51.257925812276774,-0.9138294296995674&#10;c -7.384615384615384,-7.978199412294833 0,-30.26888788949517 10.280535726184766,-30.26888788949517&#10;c 19.232110204250766,0 26.61672558886615,3.6430339516462062 19.232110204250766,10.76884407128134&#10;c -7.384615384615384,15.397777777777778 25.846153846153847,9.475555555555555 42.306351334210774,20.413873247913397 c 21.918659643836694,0.0 52.46548642401277,-5.9222222222222225 43.850101808628146,5.807396993537998&#10;c -7.384615384615384,10.143947765000172 0,32.68709254208644 17.688359729833394,32.68709254208644&#10;c 8.78427077993154,0 16.168886164546922,-13.69886003573726 8.78427077993154,-14.744143275314041&#10;c -7.384615384615384,-15.397777777777778 25.846153846153847,-9.475555555555555 52.75419075853,-23.750346260310398 c 8.273671094480003,0.0 53.03423832442378,-5.9222222222222225 44.41885370903916,24.45193415778083&#10;c -7.384615384615384,12.105597258377607 0,15.00231882176848 17.119607829422378,15.00231882176848&#10;c 13.695888306818937,0 21.08050369143432,-23.416090355716733 13.695888306818937,-25.94820020332463&#10;c -7.384615384615384,-15.397777777777778 25.846153846153847,-9.475555555555555 47.842573231642604,-13.506052776224678 c 28.376704814192408,0.0 58.01975255267982,-5.9222222222222225 49.404367937295206,3.8599859730025727&#10;c -7.384615384615384,10.45813409972564 0,24.902037670367037 12.134093601166335,24.902037670367037&#10;c 12.139325050175621,0 19.523940434791005,-1.9603713655074841 12.139325050175621,-9.084031501275081&#10;c -7.384615384615384,-15.397777777777778 25.846153846153847,-9.475555555555555 49.39913648828592,-19.677992142094528 c 19.136986598223668,0.0 60.13695101883299,-5.9222222222222225 51.521566403448375,25.312032177638958&#10;c -7.384615384615384,3.259871348245041 0,3.403034078546323 10.016895135013165,3.403034078546323&#10;c 14.590421100202,0 21.975036484817384,-7.573889034541113 14.590421100202,-17.6261943457046&#10;c -7.384615384615384,-15.397777777777778 25.846153846153847,-9.475555555555555 46.94804043825954,-11.08887191048068 c 21.301273068665157,-0.0 58.35907202047159,5.9222222222222225 49.74368740508697,-6.401550657197691&#10;c -7.384615384615384,-7.189326361440928 0,-23.207726751136757 11.794774133374567,-23.207726751136757&#10;c 15.43319698129121,0 22.817812365906594,4.464301646902385 15.43319698129121,12.478521990698948&#10;c -7.384615384615384,15.397777777777778 25.846153846153847,9.475555555555555 46.10526455717033,17.130755417635502 c 12.864790078095819,0.0 51.81779098078722,-5.9222222222222225 43.20240636540261,8.539930086057973&#10;c -7.384615384615384,13.086185309112597 0,27.24084495662541 18.33605517305893,27.24084495662541&#10;c 10.941623250778555,0 18.32623863539394,-9.063503808591191 10.941623250778555,-28.811411867031556&#10;c -7.384615384615384,-15.397777777777778 25.846153846153847,-9.475555555555555 50.596838287682985,-6.969363175651825 L 1600 0 " fill="none" stroke="black" stroke-width="1.0" style="vector-effect:non-scaling-stroke;" /></g><g><path d="M 0 0  L 0 473.777778  c 22.150033780883998,-0.0 60.21601961244157,5.9222222222222225 51.60063499705695,-13.17936722910579&#10;c -7.384615384615384,-12.35601482043754 0,-16.821522131881945 9.93782654140459,-16.821522131881945&#10;c 14.371925609958176,0 21.75654099457356,11.37759546158326 14.371925609958176,12.886449164854497&#10;c -7.384615384615384,15.397777777777778 25.846153846153847,9.475555555555555 47.166535928503365,17.114440196133238 c 14.092610394254796,0.0 52.69607168346576,-5.9222222222222225 44.08068706808114,17.55718266990989&#10;c -7.384615384615384,16.04496887859323 0,16.164283452187927 17.4577744703804,16.164283452187927&#10;c 16.978305927567824,0 24.362921312183207,-23.01330406701857 16.978305927567824,-25.923875185327784&#10;c -7.384615384615384,-15.397777777777778 25.846153846153847,-9.475555555555555 44.560155610893716,-7.797590936770032 c 30.835829906694386,-0.0 57.21896323240004,5.9222222222222225 48.60357861701542,-22.445071490806036&#10;c -7.384615384615384,-5.369386189225896 0,-12.731300321440287 12.934882921446118,-12.731300321440287&#10;c 14.840721750391246,0 22.22533713500663,24.01085109493446 14.840721750391246,24.709430040886975&#10;c -7.384615384615384,15.397777777777778 25.846153846153847,9.475555555555555 46.697739788070294,10.466941771359348 c 17.260671436466158,-0.0 52.56837282410616,5.9222222222222225 43.95298820872154,-1.0106061335745222&#10;c -7.384615384615384,-33.774895393962055 0,-39.12087460798615 17.585473329739997,-39.12087460798615&#10;c 13.929043913538798,0 21.31365929815418,29.703830789712633 13.929043913538798,37.45790195258066&#10;c -7.384615384615384,15.397777777777778 25.846153846153847,9.475555555555555 47.60941762492274,2.6735787889800093 c 11.951310113160385,-0.0 53.839010956530245,5.9222222222222225 45.22362634114563,-15.189743930398492&#10;c -7.384615384615384,-10.461041448777754 0,-17.22484094910427 16.314835197315908,-17.22484094910427&#10;c 15.120295848957333,0 22.504911233572717,9.159562533876656 15.120295848957333,11.705584110373351&#10;c -7.384615384615384,15.397777777777778 25.846153846153847,9.475555555555555 46.41816568950421,20.70900076912941 c 12.834943432004538,-0.0 57.74354118957358,5.9222222222222225 49.128156574188964,-2.315736474132024&#10;c -7.384615384615384,-28.29732438729582 0,-34.417096037138975 12.410304964272576,-34.417096037138975&#10;c 9.842119068240585,0 17.22673445285597,12.96224949337014 9.842119068240585,29.43224412676899&#10;c -7.384615384615384,15.397777777777778 25.846153846153847,9.475555555555555 51.696342470220955,7.30058838450201 c 31.640295005898192,-0.0 58.586662847502254,5.9222222222222225 49.97127823211764,-1.5217362823735818&#10;c -7.384615384615384,-26.552993450389685 0,-37.34357038337794 11.5671833063439,-37.34357038337794&#10;c 14.267740612741854,0 21.652355997357237,10.56086365965279 14.267740612741854,17.11122831468152&#10;c -7.384615384615384,15.397777777777778 25.846153846153847,9.475555555555555 47.27072092571969,21.75407835107 c 8.531457405574406,0.0 54.14664324950921,-5.9222222222222225 45.5312586341246,-1.2978546779522377&#10;c -7.384615384615384,22.593275158097228 0,34.5953439574838 16.007202904336943,34.5953439574838&#10;c 17.639760850011534,0 25.024376234626917,-5.041934708064943 17.639760850011534,-7.40997398834968&#10;c -7.384615384615384,-15.397777777777778 25.846153846153847,-9.475555555555555 43.898700688450006,-25.88751529118188 c 30.79807581364473,0.0 55.87934577546379,-5.9222222222222225 47.26396116007917,11.801800361918124&#10;c -7.384615384615384,5.713782183628406 0,21.847983094478472 14.27450037838237,21.847983094478472&#10;c 8.77215019065202,0 16.156765575267404,-3.098539469884375 8.77215019065202,-14.456961347452175&#10;c -7.384615384615384,-15.397777777777778 25.846153846153847,-9.475555555555555 52.76631134780952,-19.192822108944423 c 25.7106338744734,-0.0 56.132692224088615,5.9222222222222225 47.517307608703995,-18.73188855620127&#10;c -7.384615384615384,-7.060254493546957 0,-16.967636870648086 14.021153929757546,-16.967636870648086&#10;c 18.16961415930937,0 25.55422954392475,9.81903835233917 18.16961415930937,13.204648204788409&#10;c -7.384615384615384,15.397777777777778 25.846153846153847,9.475555555555555 43.36884737915217,22.494877222060946 c 26.887304020852206,-0.0 51.593272296163335,5.9222222222222225 42.97788768077872,-24.064992312748043&#10;c -7.384615384615384,-5.886758356236891 0,-11.55134447452075 18.56057385768282,-11.55134447452075&#10;c 8.995837478185656,0 16.38045286280104,6.092965555472571 8.995837478185656,14.475481479218484&#10;c -7.384615384615384,15.397777777777778 25.846153846153847,9.475555555555555 52.542624060275884,21.14085530805031 c 27.828514278434817,-0.0 51.73123918507319,5.9222222222222225 43.11585456968857,-21.448198219096067&#10;c -7.384615384615384,-15.411542558339958 0,-17.6899324607044 18.422606968772968,-17.6899324607044&#10;c 10.598162692264246,0 17.98277807687963,9.198865070529918 10.598162692264246,33.58749368529467&#10;c -7.384615384615384,15.397777777777778 25.846153846153847,9.475555555555555 50.940298846197294,5.550636994505801 c 9.734493469635687,0.0 51.79976664383075,-5.9222222222222225 43.18438202844614,20.590036323625384&#10;c -7.384615384615384,9.807767421041271 0,12.886454744213346 18.354079510015403,12.886454744213346&#10;c 9.918777935510342,0 17.303393320125725,-12.944684463648299 9.918777935510342,-22.434117465726533&#10;c -7.384615384615384,-15.397777777777778 25.846153846153847,-9.475555555555555 51.6196836029512,-11.042373602112196 L 1600 0 " fill="none" stroke="black" stroke-width="1.0" style="vector-effect:non-scaling-stroke;" /></g><g><path d="M 0 0  L 0 592.222222  c 14.158222265288462,0.0 56.34229023652284,-5.9222222222222225 47.72690562113822,9.087959582054665&#10;c -7.384615384615384,17.00250000656306 0,27.594502216418 13.811555917323318,27.594502216418&#10;c 12.363468627671814,0 19.748084012287197,-16.17221548754 12.363468627671814,-21.617138540480763&#10;c -7.384615384615384,-15.397777777777778 25.846153846153847,-9.475555555555555 49.174992910789726,-15.065323257991903 c 14.769964986201579,0.0 52.32629018374152,-5.9222222222222225 43.7109055683569,-2.338098384743234&#10;c -7.384615384615384,11.964821097639115 0,37.464574690630045 17.82755597010464,37.464574690630045&#10;c 15.817602285042632,0 23.202217669658015,-27.463517946691024 15.817602285042632,-36.33039822113286&#10;c -7.384615384615384,-15.397777777777778 25.846153846153847,-9.475555555555555 45.72085925341891,1.203921915246049 c 34.87361878955734,-0.0 55.40961020131334,5.9222222222222225 46.79422558592873,-14.368410944511373&#10;c -7.384615384615384,-15.493159402097588 0,-25.39875134573247 14.744235952532811,-25.39875134573247&#10;c 9.997622527369082,0 17.382237911984465,6.308337141080767 9.997622527369082,26.94194516409501&#10;c -7.384615384615384,15.397777777777778 25.846153846153847,9.475555555555555 51.54083901109246,12.825217126148836 c 25.858207786011963,0.0 51.674251086528486,-5.9222222222222225 43.058866471143865,13.95868266134567&#10;c -7.384615384615384,5.629203367095477 0,25.444854973992086 18.479595067317675,25.444854973992086&#10;c 16.361828455900827,0 23.74644384051621,-8.402147200020815 16.361828455900827,-15.56974923037735&#10;c -7.384615384615384,-15.397777777777778 25.846153846153847,-9.475555555555555 45.17663308256071,-23.833788404960405 c 17.157258938263276,0.0 58.274394624516475,-5.9222222222222225 49.65901000913186,23.85236765799064&#10;c -7.384615384615384,2.3807607838206337 0,6.370061578070306 11.879451529329678,6.370061578070306&#10;c 12.499880810650247,0 19.88449619526563,-16.308572132518556 12.499880810650247,-19.44105392558101&#10;c -7.384615384615384,-15.397777777777778 25.846153846153847,-9.475555555555555 49.03858072781129,-10.781375310479937 c 6.21189747858254,0.0 52.76767469265198,-5.9222222222222225 44.15229007726736,11.874550418035932&#10;c -7.384615384615384,14.045322013225537 0,22.72061303410741 17.38617146119418,22.72061303410741&#10;c 15.731955222328729,0 23.116570606944112,-14.073279919512887 15.731955222328729,-21.73452183929774&#10;c -7.384615384615384,-15.397777777777778 25.846153846153847,-9.475555555555555 45.80650631613281,-12.860641612845598 c 29.0327857545262,0.0 60.28803914881193,-5.9222222222222225 51.67265453342732,9.550387171323072&#10;c -7.384615384615384,11.785218009926828 0,20.836046314970076 9.86580700503422,20.836046314970076&#10;c 16.87430546191998,0 24.258920846535364,-4.478003545166251 16.87430546191998,-8.140098844356917&#10;c -7.384615384615384,-15.397777777777778 25.846153846153847,-9.475555555555555 44.66415607654156,-22.246334641936233 c 10.899300844134926,0.0 59.13909608682803,-5.9222222222222225 50.52371147144341,-1.5865284366725483&#10;c -7.384615384615384,13.53735727719179 0,31.85010092216284 11.014750067018127,31.85010092216284&#10;c 12.543833798211857,0 19.92844918282724,-12.617873268993861 12.543833798211857,-26.300722781758655&#10;c -7.384615384615384,-15.397777777777778 25.846153846153847,-9.475555555555555 48.99462774024968,-3.9628497037316386 c 26.200602848122053,0.0 53.49870494906759,-5.9222222222222225 44.88332033368297,-1.8839003959886684&#10;c -7.384615384615384,27.697669761762608 0,36.56564035976566 16.655141204778573,36.56564035976566&#10;c 14.541696994436343,0 21.926312379051726,-12.11100704481743 14.541696994436343,-19.642145951386148&#10;c -7.384615384615384,-15.397777777777778 25.846153846153847,-9.475555555555555 46.9967645440252,-15.039594012390843 c 31.827094569927226,-0.0 55.98032726076765,5.9222222222222225 47.36494264538303,-6.026245245923943&#10;c -7.384615384615384,-14.701110556186382 0,-32.890563877149404 14.173518893078509,-32.890563877149404&#10;c 10.306388396056484,0 17.691003780671867,22.871824302521443 10.306388396056484,24.174811656877083&#10;c -7.384615384615384,15.397777777777778 25.846153846153847,9.475555555555555 51.232073142405056,14.741997466196267 c 27.375599743001846,-0.0 53.5660733004422,5.9222222222222225 44.95068868505758,-8.757080534699854&#10;c -7.384615384615384,-16.28062880241757 0,-26.347073005351405 16.587772853403962,-26.347073005351405&#10;c 10.05911050279699,0 17.443725887412374,7.927302211417189 10.05911050279699,14.23365607947122&#10;c -7.384615384615384,15.397777777777778 25.846153846153847,9.475555555555555 51.47935103566455,20.870497460580037 c 27.447288368793583,-0.0 52.765582654135216,5.9222222222222225 44.150198038750595,-25.476880848964143&#10;c -7.384615384615384,-5.076406874116664 0,-5.0610786344432555 17.388263499710945,-5.0610786344432555&#10;c 12.259808427878731,0 19.644423812494114,12.99790503066395 12.259808427878731,30.78231650544564&#10;c -7.384615384615384,15.397777777777778 25.846153846153847,9.475555555555555 49.27865311058281,-0.2443570220382405 c 17.592666460335742,-0.0 58.34534021081697,5.9222222222222225 49.72995559543235,-12.17502401156141&#10;c -7.384615384615384,-5.654605742429904 0,-19.818093246368832 11.80850594302919,-19.818093246368832&#10;c 13.278181646739505,0 20.662797031354888,9.354520388407783 13.278181646739505,9.603149479275302&#10;c -7.384615384615384,15.397777777777778 25.846153846153847,9.475555555555555 48.260279891722035,22.389967778654942 L 1600 0 " fill="none" stroke="black" stroke-width="1.0" style="vector-effect:non-scaling-stroke;" /></g><g><path d="M 0 0  L 0 710.666667  c 35.60094097815977,0.0 60.97676141500746,-5.9222222222222225 52.36137679962284,14.869820224248347&#10;c -7.384615384615384,8.361027578245043 0,13.713087364339184 9.177084738838701,13.713087364339184&#10;c 12.179190859402802,0 19.563806244018185,-3.786636388928599 12.179190859402802,-14.025228974749885&#10;c -7.384615384615384,-15.397777777777778 25.846153846153847,-9.475555555555555 49.35927067905874,-14.557678613837647 c 12.772405430994308,-0.0 51.57905307344184,5.9222222222222225 42.96366845805722,-4.485158846841268&#10;c -7.384615384615384,-24.99630240616409 0,-28.668202126429268 18.57479308040432,-28.668202126429268&#10;c 9.928029058500421,0 17.312644443115804,3.6023671369027808 9.928029058500421,9.883747180147619&#10;c -7.384615384615384,15.397777777777778 25.846153846153847,9.475555555555555 51.61043247996112,23.269613793122918 c 24.83439768538773,0.0 52.705486785602105,-5.9222222222222225 44.090102170217484,24.960202753997226&#10;c -7.384615384615384,7.107843538053931 0,8.818783771047276 17.448359368244056,8.818783771047276&#10;c 12.396153709935298,0 19.78076909455068,-34.77603314230152 12.396153709935298,-35.35082140798288&#10;c -7.384615384615384,-15.397777777777778 25.846153846153847,-9.475555555555555 49.14230782852624,1.5718348829383757 c 33.83231411850967,-0.0 54.14288411309539,5.9222222222222225 45.52749949771078,-17.006362021570077&#10;c -7.384615384615384,-4.551798914272966 0,-13.111382318645038 16.010962040750762,-13.111382318645038&#10;c 19.107471785365355,0 26.49208716998074,4.415129400840894 19.107471785365355,19.407784135061046&#10;c -7.384615384615384,15.397777777777778 25.846153846153847,9.475555555555555 42.430989753096185,10.709960205154069 c 19.576522098685448,0.0 57.04963069217699,-5.9222222222222225 48.43424607679237,13.372671678182773&#10;c -7.384615384615384,11.930495233706308 0,15.314841863781204 13.10421546166917,15.314841863781204&#10;c 14.66008892018106,0 22.044704304796443,-3.0981227495947605 14.66008892018106,-11.443610304308056&#10;c -7.384615384615384,-15.397777777777778 25.846153846153847,-9.475555555555555 46.87837261828048,-17.24390323765592 c 10.409207867098722,0.0 56.791892625986705,-5.9222222222222225 48.17650801060209,3.0383311909199504&#10;c -7.384615384615384,32.508554802945866 0,32.68837333469966 13.361953527859448,32.68837333469966&#10;c 14.00375511708878,0 21.388370501704163,-4.784118308265585 14.00375511708878,-22.633535689986914&#10;c -7.384615384615384,-15.397777777777778 25.846153846153847,-9.475555555555555 47.53470642137276,-13.093168835632696 c 26.84683432944457,0.0 56.80382793023931,-5.9222222222222225 48.188443314854695,22.197028347974115&#10;c -7.384615384615384,5.7791820623903405 0,9.832580183282719 13.350018223606845,9.832580183282719&#10;c 12.810478638458399,0 20.195094023073782,-2.8673998491921693 12.810478638458399,-6.781989237947762&#10;c -7.384615384615384,-15.397777777777778 25.846153846153847,-9.475555555555555 48.72798290000314,-25.24761929330907 c 14.377486451729904,-0.0 55.87319981644653,5.9222222222222225 47.25781520106191,-17.51892862297601&#10;c -7.384615384615384,-4.819843180888341 0,-16.7660638646617 14.28064633739963,-16.7660638646617&#10;c 16.96149428846173,0 24.346109673077112,11.769902019905585 16.96149428846173,24.487681656308496&#10;c -7.384615384615384,15.397777777777778 25.846153846153847,9.475555555555555 44.57696724999981,9.797310831329213 c 31.710679527340968,-0.0 57.042423149881856,5.9222222222222225 48.42703853449724,-14.578672190801724&#10;c -7.384615384615384,-15.256163748155997 0,-17.318480537250757 13.111423003964298,-17.318480537250757&#10;c 13.254907616299754,0 20.639523000915137,4.116719161452143 13.254907616299754,8.697144622557076&#10;c -7.384615384615384,15.397777777777778 25.846153846153847,9.475555555555555 48.283553922161786,23.200008105495407 c 29.4976601739286,0.0 54.35635095342225,-5.9222222222222225 45.74096633803763,-1.9627124466518955&#10;c -7.384615384615384,11.844882682652061 0,36.23686061492115 15.79749520042391,36.23686061492115&#10;c 8.961258734842325,0 16.345874119457708,-16.596405137271784 8.961258734842325,-33.68782049243851&#10;c -7.384615384615384,-15.397777777777778 25.846153846153847,-9.475555555555555 52.577202803619215,-0.586327675830745 c 33.87540143202837,-0.0 58.24900975204807,5.9222222222222225 49.63362513666345,-13.539779520029938&#10;c -7.384615384615384,-12.234887552676993 0,-21.004276104677935 11.904836401798093,-21.004276104677935&#10;c 12.036166530592446,0 19.42078191520783,3.5412546632939774 12.036166530592446,15.000622668386367&#10;c -7.384615384615384,15.397777777777778 25.846153846153847,9.475555555555555 49.502295007869094,19.543432956321507 c 21.437549819312068,0.0 61.46726937212958,-5.9222222222222225 52.851884756744965,-0.15884981096909506&#10;c -7.384615384615384,38.585724506450084 0,38.9514793123357 8.686576781716575,38.9514793123357&#10;c 8.821258257271772,0 16.205873641887155,-16.83090798019816 8.821258257271772,-27.18467131715547&#10;c -7.384615384615384,-15.397777777777778 25.846153846153847,-9.475555555555555 52.71720328118977,-11.607958184211135 c 24.202897237661652,0.0 55.11510238835328,-5.9222222222222225 46.499717772968665,20.539164072223777&#10;c -7.384615384615384,2.25057106770256 0,9.835089914588021 15.038743765492875,9.835089914588021&#10;c 16.6425741328084,0 24.027189517423782,-7.302025486306179 16.6425741328084,-31.73261962371044&#10;c -7.384615384615384,-15.397777777777778 25.846153846153847,-9.475555555555555 44.89588740565314,1.3583656368986432 L 1600 0 " fill="none" stroke="black" stroke-width="1.0" style="vector-effect:non-scaling-stroke;" /></g><g><path d="M 0 0  L 0 829.111111  c 23.531943121566307,-0.0 58.241472717419896,5.9222222222222225 49.626088102035276,2.06549805419095&#10;c -7.384615384615384,-31.783129399512685 0,-35.310777371314146 11.912373436426265,-35.310777371314146&#10;c 16.96427189887506,0 24.348887283490445,22.5045931039715 16.96427189887506,25.56448398068441&#10;c -7.384615384615384,15.397777777777778 25.846153846153847,9.475555555555555 44.57418963958648,7.680795336438788 c 7.8657602928872485,-0.0 51.740519811316204,5.9222222222222225 43.12513519593159,0.15579838666341064&#10;c -7.384615384615384,-19.924418384417457 0,-36.93994571311555 18.41332634252995,-36.93994571311555&#10;c 18.600427783572705,0 25.98504316818809,14.147599225294632 18.600427783572705,17.042180184415315&#10;c -7.384615384615384,15.397777777777778 25.846153846153847,9.475555555555555 42.938033754888835,19.74196714203682 c 15.611892089125252,0.0 52.35145646404381,-5.9222222222222225 43.736071848659186,4.446188390501882&#10;c -7.384615384615384,21.49852988937699 0,32.95201370087414 17.802389689802354,32.95201370087414&#10;c 9.660118799432233,0 17.044734184047616,-8.143980783820146 9.660118799432233,-35.03960599549554&#10;c -7.384615384615384,-15.397777777777778 25.846153846153847,-9.475555555555555 51.87834273902931,-2.358596095880479 c 33.937002160550236,0.0 55.092725253415125,-5.9222222222222225 46.47734063803051,25.585331758564546&#10;c -7.384615384615384,1.5003076384629457 0,2.9430953919109974 15.061120900431028,2.9430953919109974&#10;c 15.593525982727563,0 22.978141367342946,-3.0982152933090816 15.593525982727563,-3.4629966158687076&#10;c -7.384615384615384,-15.397777777777778 25.846153846153847,-9.475555555555555 45.94493555573398,-25.065430534606836 c 21.893049774781325,0.0 56.59422630419358,-5.9222222222222225 47.97884168880896,14.630648915257979&#10;c -7.384615384615384,3.5151811698460134 0,14.53209597584053 13.559619849652577,14.53209597584053&#10;c 10.426186437684699,0 17.810801822300082,-2.9181375031585968 10.426186437684699,-3.4808748512413743&#10;c -7.384615384615384,-15.397777777777778 25.846153846153847,-9.475555555555555 51.11227510077684,-25.681870039857134 c 10.372937127903077,-0.0 52.39713073370609,5.9222222222222225 43.78174611832147,-19.566007204792214&#10;c -7.384615384615384,-5.86528534065353 0,-14.035639660277297 17.75671542014007,-14.035639660277297&#10;c 15.324579165922238,0 22.70919455053762,19.08544114459163 15.324579165922238,20.486277586234035&#10;c -7.384615384615384,15.397777777777778 25.846153846153847,9.475555555555555 46.2138823725393,13.115369278835477 c 30.949586104729242,0.0 53.72141443467915,-5.9222222222222225 45.106029819294534,17.898868998345176&#10;c -7.384615384615384,10.866430909236566 0,11.949203223362804 16.432431719167006,11.949203223362804&#10;c 8.8659042231698,0 16.250519607785183,-6.204851937542202 8.8659042231698,-7.211101006315527&#10;c -7.384615384615384,-15.397777777777778 25.846153846153847,-9.475555555555555 52.67255731529174,-22.636971215392453 c 35.05313030042555,0.0 55.351314572433196,-5.9222222222222225 46.735929957048576,11.12212222489599&#10;c -7.384615384615384,16.151780138809364 0,25.67224208810756 14.802531581412964,25.67224208810756&#10;c 8.883933216333936,0 16.26854860094932,-8.8259587936018 8.883933216333936,-30.154996320037352&#10;c -7.384615384615384,-15.397777777777778 25.846153846153847,-9.475555555555555 52.654528322127604,-6.639367992966196 c 27.00367293649753,0.0 56.08323558887908,-5.9222222222222225 47.467850973494464,17.627908395531673&#10;c -7.384615384615384,12.025918184182634 0,17.722948771707348 14.070610564967076,17.722948771707348&#10;c 16.27680819266373,0 23.661423577279113,-16.7976213996977 16.27680819266373,-19.639193169038577&#10;c -7.384615384615384,-15.397777777777778 25.846153846153847,-9.475555555555555 45.26165334579781,-15.711663998200443 c 9.611050797758086,0.0 58.56626117598235,-5.9222222222222225 49.950876560597735,0.3007661858409547&#10;c -7.384615384615384,21.15924693615003 0,38.79430063710878 11.587584977863806,38.79430063710878&#10;c 10.100441234053271,0 17.485056618668654,-3.1498345555105134 10.100441234053271,-13.092087418531765&#10;c -7.384615384615384,-15.397777777777778 25.846153846153847,-9.475555555555555 51.43802030440827,-26.002979404417975 c 20.124546293326947,-0.0 61.17383671323472,5.9222222222222225 52.55845209785011,-20.208650385147774&#10;c -7.384615384615384,-9.844125119503607 0,-12.196288500682233 8.980009440611433,-12.196288500682233&#10;c 10.627944066790654,0 18.012559451406037,22.943807481870873 10.627944066790654,32.79049089763085&#10;c -7.384615384615384,15.397777777777778 25.846153846153847,9.475555555555555 50.910517471670886,-0.3855520118008471 c 28.141430866279368,-0.0 52.18947185665117,5.9222222222222225 43.574087241266554,-1.4073056488628737&#10;c -7.384615384615384,-12.256928228677262 0,-37.78817424712898 17.964374297194986,-37.78817424712898&#10;c 14.98286227442599,0 22.367477659041374,20.39149765510426 14.98286227442599,20.197700885145164&#10;c -7.384615384615384,15.397777777777778 25.846153846153847,9.475555555555555 46.55559926403555,18.99777901084669 c 27.42297885923681,0.0 57.04155582721336,-5.9222222222222225 48.426171211828745,23.635049127270328&#10;c -7.384615384615384,7.4143989365905965 0,10.163661248998366 13.112290326632795,10.163661248998366&#10;c 17.085824345560233,0 24.470439730175617,-16.540644951549602 17.085824345560233,-25.810566423889238&#10;c -7.384615384615384,-15.397777777777778 25.846153846153847,-9.475555555555555 44.45263719290131,-7.988143952379456 L 1600 0 " fill="none" stroke="black" stroke-width="1.0" style="vector-effect:non-scaling-stroke;" /></g><g><path d="M 0 0  L 0 947.555556  c 15.825950088879937,0.0 56.76825986567023,-5.9222222222222225 48.15287525028561,21.46168683950303&#10;c -7.384615384615384,5.16069763458198 0,15.704866987407307 13.38558628817593,15.704866987407307&#10;c 11.068013460945558,0 18.45262884556094,-5.88278355023831 11.068013460945558,-12.833469531696096&#10;c -7.384615384615384,-15.397777777777778 25.846153846153847,-9.475555555555555 50.47044807751598,-24.333084295214242 c 7.446966992438536,-0.0 58.569623537705084,5.9222222222222225 49.95423892232047,-6.281304995337682&#10;c -7.384615384615384,-19.636914941873638 0,-29.598864465393522 11.58422261614107,-29.598864465393522&#10;c 17.873740065660606,0 25.25835545027599,27.25596901323376 17.873740065660606,32.80601094647294&#10;c -7.384615384615384,15.397777777777778 25.846153846153847,9.475555555555555 43.664721472800935,3.074158514258265 c 12.658381660591877,0.0 51.95776514960238,-5.9222222222222225 43.34238053421776,22.651805800095886&#10;c -7.384615384615384,8.811419334294795 0,17.057810859744613 18.19608100424378,17.057810859744613&#10;c 11.729231302263592,0 19.113846686878976,-11.162113586041087 11.729231302263592,-17.710533035412485&#10;c -7.384615384615384,-15.397777777777778 25.846153846153847,-9.475555555555555 49.80923023619795,-21.999083624428014 c 12.622892568972595,-0.0 59.3383145177808,5.9222222222222225 50.72292990239618,-17.798411226201086&#10;c -7.384615384615384,-11.364663586520965 0,-11.608067009928455 10.815531636065359,-11.608067009928455&#10;c 15.01151117711391,0 22.396126561729293,11.682612135812354 15.01151117711391,16.294804780313875&#10;c -7.384615384615384,15.397777777777778 25.846153846153847,9.475555555555555 46.52695036134763,13.111673455815666 c 28.170750358097965,-0.0 56.13986085195329,5.9222222222222225 47.524476236568674,-7.606751097420778&#10;c -7.384615384615384,-10.146510143047756 0,-26.581221659303502 14.013985301892866,-26.581221659303502&#10;c 18.58928319868155,0 25.973898583296933,10.216019339507673 18.58928319868155,24.17336157100269&#10;c -7.384615384615384,15.397777777777778 25.846153846153847,9.475555555555555 42.94917833977999,10.014611185721588 c 15.234963469696766,-0.0 59.3894245918563,5.9222222222222225 50.774039976471684,-7.027083375618767&#10;c -7.384615384615384,-6.957740881982834 0,-30.68950740917046 10.764421561989856,-30.68950740917046&#10;c 18.27806887950097,0 25.662684264116354,19.152906619387675 18.27806887950097,29.167332393291836&#10;c -7.384615384615384,15.397777777777778 25.846153846153847,9.475555555555555 43.26039265896057,8.54925839149739 c 32.08944411729753,0.0 55.654786266157444,-5.9222222222222225 47.039401650772824,2.7023252194019207&#10;c -7.384615384615384,12.58364087520277 0,36.93593637653852 14.499059887688716,36.93593637653852&#10;c 15.539466025872223,0 22.924081410487606,-18.94085539971343 15.539466025872223,-27.238116289803585&#10;c -7.384615384615384,-15.397777777777778 25.846153846153847,-9.475555555555555 45.99899551258932,-12.400145306136857 c 10.86294293572426,0.0 59.850605618213976,-5.9222222222222225 51.23522100282936,22.901627064157402&#10;c -7.384615384615384,5.173327899208674 0,15.15251270543056 10.303240535632177,15.15251270543056&#10;c 17.591922499640823,0 24.976537884256206,-29.63941163555282 17.591922499640823,-38.5244516207559&#10;c -7.384615384615384,-15.397777777777778 25.846153846153847,-9.475555555555555 43.94653903882072,0.47031185116793495 c 30.517258064271154,-0.0 51.61053972439916,5.9222222222222225 42.99515510901455,-1.1151887088668708&#10;c -7.384615384615384,-19.027367805815587 0,-36.89090100989344 18.543306429446993,-36.89090100989344&#10;c 19.01591108891585,0 26.400526473531233,6.315327014116097 19.01591108891585,23.34837006813458&#10;c -7.384615384615384,15.397777777777778 25.846153846153847,9.475555555555555 42.52255044954569,14.657719650625726 c 26.434073046577417,0.0 50.63463096382527,-5.9222222222222225 42.01924634844066,17.03465379350916&#10;c -7.384615384615384,12.603998282066346 0,19.229553476813383 19.51921519002088,19.229553476813383&#10;c 17.50800175617855,0 24.892617140793934,-14.523954088611609 17.50800175617855,-36.938249467033145&#10;c -7.384615384615384,-15.397777777777778 25.846153846153847,-9.475555555555555 44.03045978228299,0.6740421967106016 c 31.31976262396917,-0.0 54.37611592576482,5.9222222222222225 45.76073131038021,-19.670060340223003&#10;c -7.384615384615384,-6.78168644819654 0,-12.25539035868793 15.777730228081332,-12.25539035868793&#10;c 13.795825228769608,0 21.18044061338499,17.248743359770135 13.795825228769608,26.535336283978342&#10;c -7.384615384615384,15.397777777777778 25.846153846153847,9.475555555555555 47.74263630969193,5.39011441493259 c 8.848736465580378,-0.0 61.49589254152707,5.9222222222222225 52.88050792614245,1.7160884192066623&#10;c -7.384615384615384,-16.136034309630904 0,-34.3433807801814 8.65795361231909,-34.3433807801814&#10;c 17.123269432211053,0 24.507884816826436,21.86653076145612 17.123269432211053,32.31221946863472&#10;c -7.384615384615384,15.397777777777778 25.846153846153847,9.475555555555555 44.41519210625049,0.31507289234001234 c 11.369872161812868,0.0 59.99515905804289,-5.9222222222222225 51.37977444265827,17.762281034566847&#10;c -7.384615384615384,6.821147345559834 0,17.664435651005654 10.158687095803273,17.664435651005654&#10;c 18.599074722670117,0 25.9836901072855,-12.88415660242233 18.599074722670117,-33.700572017924074&#10;c -7.384615384615384,-15.397777777777778 25.846153846153847,-9.475555555555555 42.93938681579142,-1.726144667648427 L 1600 0 " fill="none" stroke="black" stroke-width="1.0" style="vector-effect:non-scaling-stroke;" /></g></g></svg>