<?xml version="1.0" standalone="no"?>
<!DOCTYPE svg PUBLIC "-//W3C//DTD SVG 20010904//EN"
 "http://www.w3.org/TR/2001/REC-SVG-20010904/DTD/svg10.dtd">
<svg version="1.0" xmlns="http://www.w3.org/2000/svg"
 width="82.000000pt" height="71.000000pt" viewBox="0 0 82.000000 71.000000"
 preserveAspectRatio="xMidYMid meet">
<metadata>
Created by potrace 1.16, written by Peter Selinger 2001-2019
</metadata>
<g transform="translate(0.000000,71.000000) scale(0.100000,-0.100000)"
fill="#000000" stroke="none">
<path d="M64 703 l-41 -4 -6 -117 -7 -116 10 -10 10 -10 51 12 51 12 38 0 39
0 24 -11 25 -11 11 -25 11 -24 0 -28 0 -28 -19 -21 -18 -22 -11 0 -10 0 -4
-10 -3 -11 -40 -14 -40 -14 -22 -1 -23 0 0 10 0 10 -40 0 -40 0 -6 -26 -7 -26
8 -82 7 -81 -1 -27 0 -28 404 0 405 0 0 10 0 11 -15 28 -14 29 -12 74 -11 73
-10 28 -10 27 -32 0 -31 0 -14 -9 -13 -9 -19 5 -19 5 0 14 0 14 -10 0 -10 0 0
51 0 50 12 22 11 22 12 11 12 12 14 -9 14 -9 56 0 55 0 17 35 17 36 0 89 0 90
-117 -1 -118 0 -40 -7 -40 -8 2 -44 2 -45 1 -18 1 -17 -13 -14 -13 -13 -22
-11 -22 -12 -25 0 -25 0 -25 11 -25 12 -7 29 -6 30 12 44 12 43 -5 16 -6 15
-118 -2 -118 -1 -41 -4z"/>
</g>
</svg>
