<?xml version="1.0" standalone="no"?>
<!DOCTYPE svg PUBLIC "-//W3C//DTD SVG 20010904//EN"
 "http://www.w3.org/TR/2001/REC-SVG-20010904/DTD/svg10.dtd">
<svg version="1.0" xmlns="http://www.w3.org/2000/svg"
 width="80.000000pt" height="69.000000pt" viewBox="0 0 80.000000 69.000000"
 preserveAspectRatio="xMidYMid meet">
<metadata>
Created by potrace 1.16, written by Peter Selinger 2001-2019
</metadata>
<g transform="translate(0.000000,69.000000) scale(0.100000,-0.100000)"
fill="#000000" stroke="none">
<path d="M64 683 l-41 -4 -6 -107 -5 -107 8 -8 8 -9 38 11 39 11 52 0 52 0 24
-11 25 -11 11 -25 11 -24 0 -38 0 -38 -19 -21 -18 -22 -11 0 -10 0 -4 -10 -3
-11 -40 -14 -40 -14 -32 -1 -33 0 0 10 0 10 -30 0 -30 0 -6 -26 -7 -26 8 -72
7 -71 2 -27 1 -28 393 0 393 0 -15 29 -15 29 -12 74 -11 73 -10 28 -10 27 -20
0 -19 0 -19 -10 -20 -10 -25 6 -25 6 0 14 0 14 -10 0 -10 0 0 61 0 60 12 22
11 22 14 14 14 14 25 -12 25 -11 43 0 42 0 17 35 17 36 0 79 0 80 -107 -1
-108 0 -40 -7 -40 -8 3 -34 3 -35 1 -27 1 -26 -14 -15 -14 -14 -22 -11 -22
-12 -35 0 -35 0 -25 12 -26 11 -6 36 -7 35 12 44 11 43 -5 10 -6 9 -107 -2
-107 -1 -41 -4z"/>
</g>
</svg>
