<?xml version="1.0" standalone="no"?>
<!DOCTYPE svg PUBLIC "-//W3C//DTD SVG 20010904//EN"
 "http://www.w3.org/TR/2001/REC-SVG-20010904/DTD/svg10.dtd">
<svg version="1.0" xmlns="http://www.w3.org/2000/svg"
 width="82.000000pt" height="71.000000pt" viewBox="0 0 82.000000 71.000000"
 preserveAspectRatio="xMidYMid meet">
<metadata>
Created by potrace 1.16, written by Peter Selinger 2001-2019
</metadata>
<g transform="translate(0.000000,71.000000) scale(0.100000,-0.100000)"
fill="#000000" stroke="none">
<path d="M14 699 l-7 -11 -5 -109 -5 -108 39 10 38 11 43 -5 42 -4 14 -14 14
-14 11 -22 12 -22 0 -43 0 -43 -10 -37 -10 -36 -31 -11 -30 -10 -50 11 -49 11
-7 -6 -7 -7 -6 -113 -6 -112 3 -4 3 -4 119 -5 119 -5 36 7 37 7 -6 72 -6 72
10 15 10 15 58 0 58 0 17 -7 18 -7 -17 -35 -17 -36 24 -20 24 -21 20 -4 21 -4
119 -17 118 -16 9 13 9 14 -5 20 -5 20 -11 75 -10 75 -5 16 -5 17 -18 21 -18
21 -17 0 -17 0 -19 -10 -19 -10 -15 6 -15 6 -10 28 -9 29 5 23 6 23 21 18 20
18 23 5 24 6 59 -6 58 -7 7 20 6 21 -6 72 -6 73 -5 43 -5 42 -389 0 -389 0 -7
-11z"/>
</g>
</svg>
