<?xml version="1.0" standalone="no"?>
<!DOCTYPE svg PUBLIC "-//W3C//DTD SVG 20010904//EN"
 "http://www.w3.org/TR/2001/REC-SVG-20010904/DTD/svg10.dtd">
<svg version="1.0" xmlns="http://www.w3.org/2000/svg"
 width="84.000000pt" height="73.000000pt" viewBox="0 0 84.000000 73.000000"
 preserveAspectRatio="xMidYMid meet">
<metadata>
Created by potrace 1.16, written by Peter Selinger 2001-2019
</metadata>
<g transform="translate(0.000000,73.000000) scale(0.100000,-0.100000)"
fill="#000000" stroke="none">
<path d="M14 719 l-7 -12 -5 -120 -5 -119 34 8 34 9 46 0 45 0 16 -15 15 -15
11 -22 12 -22 0 -33 0 -33 -10 -37 -10 -36 -28 -9 -27 -10 -25 8 -25 7 -32 1
-32 1 -5 -42 -5 -43 -4 -86 -5 -87 46 -6 45 -6 101 0 101 0 24 7 23 6 -6 67
-7 66 6 16 7 17 28 6 28 6 37 -7 36 -6 -7 -17 -7 -16 -4 -22 -5 -22 14 -14 13
-14 20 -10 20 -10 138 -18 139 -19 9 15 10 14 -6 35 -6 35 -9 65 -10 65 -5 21
-4 20 -21 23 -20 24 -49 -7 -49 -6 -6 16 -6 16 0 25 0 24 13 13 12 13 24 12
23 13 68 -7 68 -7 7 22 7 21 -7 87 -6 87 -5 38 -6 37 -398 0 -399 0 -7 -11z"/>
</g>
</svg>
