<?xml version="1.0" standalone="no"?>
<!DOCTYPE svg PUBLIC "-//W3C//DTD SVG 20010904//EN"
 "http://www.w3.org/TR/2001/REC-SVG-20010904/DTD/svg10.dtd">
<svg version="1.0" xmlns="http://www.w3.org/2000/svg"
 width="86.000000pt" height="90.000000pt" viewBox="0 0 86.000000 90.000000"
 preserveAspectRatio="xMidYMid meet">
<metadata>
Created by potrace 1.16, written by Peter Selinger 2001-2019
</metadata>
<g transform="translate(0.000000,90.000000) scale(0.100000,-0.100000)"
fill="#000000" stroke="none">
<path d="M383 894 l-22 -5 -7 -21 -6 -20 7 -64 6 -63 -37 -7 -37 -7 -128 6
-127 5 -6 -76 -6 -77 -6 -66 -6 -66 16 -6 15 -6 53 11 53 11 57 -7 56 -7 12
-29 12 -29 -16 -17 -16 -16 -65 -11 -65 -11 -34 12 -33 12 -15 -5 -15 -6 -12
-25 -11 -25 1 -42 0 -42 13 -72 13 -71 16 -16 16 -16 83 0 83 0 36 10 36 10
22 19 21 18 0 17 0 17 -16 31 -16 31 11 23 10 23 38 10 38 11 30 0 30 0 38
-11 39 -10 13 -32 13 -32 -8 -45 -9 -45 -1 -22 0 -23 15 0 15 0 0 -12 0 -11
93 7 92 6 28 6 27 6 0 20 0 19 -14 14 -14 14 -18 58 -17 58 -15 30 -15 29 -13
13 -13 13 -23 0 -23 0 -14 -9 -15 -10 -18 10 -17 9 -11 38 -10 37 0 16 0 16
18 21 19 22 53 11 54 11 62 -5 62 -5 12 8 13 8 -7 88 -6 89 -6 41 -6 40 -141
18 -142 19 -20 10 -20 10 -14 14 -14 15 16 33 16 34 -9 6 -10 6 -47 4 -48 3
-22 -4z"/>
</g>
</svg>
