<?xml version="1.0" standalone="no"?>
<!DOCTYPE svg PUBLIC "-//W3C//DTD SVG 20010904//EN"
 "http://www.w3.org/TR/2001/REC-SVG-20010904/DTD/svg10.dtd">
<svg version="1.0" xmlns="http://www.w3.org/2000/svg"
 width="88.000000pt" height="92.000000pt" viewBox="0 0 88.000000 92.000000"
 preserveAspectRatio="xMidYMid meet">
<metadata>
Created by potrace 1.16, written by Peter Selinger 2001-2019
</metadata>
<g transform="translate(0.000000,92.000000) scale(0.100000,-0.100000)"
fill="#000000" stroke="none">
<path d="M383 914 l-23 -5 -6 -26 -7 -25 6 -59 7 -58 -37 -7 -37 -7 -127 7
-127 6 -6 -73 -6 -72 -6 -81 -6 -82 21 -7 22 -7 50 12 50 12 53 -6 53 -7 10
-22 10 -22 -13 -13 -14 -13 -55 -11 -56 -11 -38 13 -38 12 -20 -6 -20 -6 -11
-26 -12 -25 1 -52 0 -52 13 -72 13 -71 16 -16 16 -16 93 0 93 0 36 10 36 10
22 19 21 18 0 27 0 27 -15 29 -15 30 19 19 20 20 43 6 44 7 42 -11 42 -12 11
-20 11 -21 -7 -79 -7 -79 16 0 16 0 0 -12 0 -11 103 7 102 6 28 6 27 6 0 30 0
29 -14 14 -14 14 -18 58 -17 58 -15 30 -15 29 -14 14 -14 15 -50 -6 -49 -6 -9
17 -9 17 -6 31 -7 30 19 22 19 22 53 11 53 11 61 -6 61 -6 14 9 14 9 -7 104
-7 103 -5 36 -6 35 -141 18 -142 19 -19 10 -20 10 -12 11 -11 11 15 32 16 33
-11 11 -11 11 -58 3 -59 3 -22 -4z"/>
</g>
</svg>
