<?xml version="1.0" standalone="no"?>
<!DOCTYPE svg PUBLIC "-//W3C//DTD SVG 20010904//EN"
 "http://www.w3.org/TR/2001/REC-SVG-20010904/DTD/svg10.dtd">
<svg version="1.0" xmlns="http://www.w3.org/2000/svg"
 width="102.000000pt" height="72.000000pt" viewBox="0 0 102.000000 72.000000"
 preserveAspectRatio="xMidYMid meet">
<metadata>
Created by potrace 1.16, written by Peter Selinger 2001-2019
</metadata>
<g transform="translate(0.000000,72.000000) scale(0.100000,-0.100000)"
fill="#000000" stroke="none">
<path d="M0 370 l0 -350 18 0 17 -1 129 -9 130 -9 24 6 24 6 -8 21 -7 21 -1
45 -1 45 14 33 14 32 23 6 24 6 29 -12 28 -11 12 -25 11 -25 0 -29 0 -30 -10
0 -10 0 0 -25 0 -25 11 0 10 0 17 -16 16 -16 128 4 129 4 10 14 9 15 -4 15 -5
15 -17 45 -17 45 -1 60 -1 60 25 -3 25 -3 48 -6 48 -5 40 16 41 17 14 14 14
13 10 28 11 28 -12 28 -11 28 -10 0 -9 0 -15 15 -15 15 -37 0 -37 -1 -44 -8
-43 -9 7 134 7 134 -401 0 -401 -1 0 -349z"/>
</g>
</svg>
