<?xml version="1.0" standalone="no"?>
<!DOCTYPE svg PUBLIC "-//W3C//DTD SVG 20010904//EN"
 "http://www.w3.org/TR/2001/REC-SVG-20010904/DTD/svg10.dtd">
<svg version="1.0" xmlns="http://www.w3.org/2000/svg"
 width="104.000000pt" height="74.000000pt" viewBox="0 0 104.000000 74.000000"
 preserveAspectRatio="xMidYMid meet">
<metadata>
Created by potrace 1.16, written by Peter Selinger 2001-2019
</metadata>
<g transform="translate(0.000000,74.000000) scale(0.100000,-0.100000)"
fill="#000000" stroke="none">
<path d="M0 380 l0 -360 13 0 12 0 140 -10 140 -10 28 6 29 6 -7 32 -7 31 -1
35 -1 36 13 32 13 31 18 6 18 6 25 -12 25 -11 11 -25 11 -24 0 -19 0 -20 -10
0 -10 0 0 -35 0 -35 11 0 10 0 17 -16 16 -16 138 4 139 3 10 15 10 15 -5 25
-4 25 -17 45 -17 45 -2 50 -1 50 15 -4 15 -5 58 -4 58 -4 41 17 42 16 17 21
18 20 6 29 7 30 -12 30 -12 29 -10 0 -9 0 -17 16 -16 17 -79 -6 -78 -6 7 129
7 130 -412 0 -411 0 0 -360z"/>
</g>
</svg>
