<?xml version="1.0" standalone="no"?>
<!DOCTYPE svg PUBLIC "-//W3C//DTD SVG 20010904//EN"
 "http://www.w3.org/TR/2001/REC-SVG-20010904/DTD/svg10.dtd">
<svg version="1.0" xmlns="http://www.w3.org/2000/svg"
 width="107.000000pt" height="92.000000pt" viewBox="0 0 107.000000 92.000000"
 preserveAspectRatio="xMidYMid meet">
<metadata>
Created by potrace 1.16, written by Peter Selinger 2001-2019
</metadata>
<g transform="translate(0.000000,92.000000) scale(0.100000,-0.100000)"
fill="#000000" stroke="none">
<path d="M550 907 l-35 -12 -9 -27 -10 -27 19 -40 18 -41 -23 -20 -23 -20 -41
-11 -40 -11 -90 4 -91 3 -5 -90 -6 -90 -14 -28 -14 -29 -40 5 -41 5 -27 7 -27
7 -14 -14 -14 -13 -11 -22 -12 -22 0 -70 0 -71 10 0 10 0 0 -15 0 -14 34 -6
34 -7 20 11 21 11 9 0 10 0 10 -27 11 -28 6 -50 6 -50 10 -37 10 -37 15 -16
15 -15 392 0 392 0 14 9 14 9 -6 23 -6 24 -21 84 -21 84 -15 14 -14 14 -35 6
-35 6 -1 -14 -1 -14 -13 30 -14 30 -1 32 0 32 11 24 11 25 49 16 49 15 30 -5
29 -6 17 17 17 17 -10 115 -11 114 -6 6 -5 6 -47 -12 -46 -12 -79 -6 -79 -6 0
12 0 11 -15 0 -15 0 0 8 0 8 10 57 11 56 -15 35 -14 35 -39 10 -38 11 -45 -1
-45 0 -35 -12z"/>
</g>
</svg>
