<?xml version="1.0" standalone="no"?>
<!DOCTYPE svg PUBLIC "-//W3C//DTD SVG 20010904//EN"
 "http://www.w3.org/TR/2001/REC-SVG-20010904/DTD/svg10.dtd">
<svg version="1.0" xmlns="http://www.w3.org/2000/svg"
 width="105.000000pt" height="90.000000pt" viewBox="0 0 105.000000 90.000000"
 preserveAspectRatio="xMidYMid meet">
<metadata>
Created by potrace 1.16, written by Peter Selinger 2001-2019
</metadata>
<g transform="translate(0.000000,90.000000) scale(0.100000,-0.100000)"
fill="#000000" stroke="none">
<path d="M552 889 l-33 -10 -10 -23 -11 -23 16 -31 16 -31 0 -17 0 -17 -22
-18 -21 -19 -39 -11 -39 -10 -92 2 -92 2 -5 -89 -6 -89 -13 -27 -14 -28 -43 0
-43 0 -25 11 -25 12 -14 -14 -14 -14 -11 -22 -12 -22 0 -60 0 -61 10 0 10 0 0
-14 0 -14 25 -6 25 -6 20 10 19 10 19 0 20 0 10 -28 11 -27 6 -50 6 -50 10
-37 10 -37 15 -16 15 -15 382 0 382 0 14 9 14 9 -11 29 -12 28 -15 69 -16 68
-13 14 -14 13 -26 7 -26 6 0 -11 0 -11 -14 0 -14 0 -11 31 -11 32 0 38 0 38
11 25 11 24 54 17 55 17 25 -6 25 -7 16 16 16 16 -11 106 -11 105 -3 4 -4 4
-35 -10 -34 -10 -92 -7 -93 -6 0 11 0 12 -15 0 -15 0 0 23 1 22 9 45 8 45 -13
32 -13 32 -39 10 -38 11 -35 -1 -35 -1 -33 -9z"/>
</g>
</svg>
