<?xml version="1.0" standalone="no"?>
<!DOCTYPE svg PUBLIC "-//W3C//DTD SVG 20010904//EN"
 "http://www.w3.org/TR/2001/REC-SVG-20010904/DTD/svg10.dtd">
<svg version="1.0" xmlns="http://www.w3.org/2000/svg"
 width="122.000000pt" height="71.000000pt" viewBox="0 0 122.000000 71.000000"
 preserveAspectRatio="xMidYMid meet">
<metadata>
Created by potrace 1.16, written by Peter Selinger 2001-2019
</metadata>
<g transform="translate(0.000000,71.000000) scale(0.100000,-0.100000)"
fill="#000000" stroke="none">
<path d="M217 703 l-5 -8 9 -105 10 -105 -6 -23 -6 -23 -59 7 -59 6 -24 -6
-23 -5 -20 -18 -21 -18 -6 -23 -5 -23 9 -29 10 -28 15 -6 15 -6 19 10 19 10
17 0 17 0 18 -21 18 -21 5 -17 5 -16 12 -80 12 -80 0 -26 0 -27 37 -11 37 -11
54 0 54 0 40 10 40 9 3 10 4 11 13 0 14 0 6 20 6 19 -15 30 -16 30 16 15 15
15 41 12 42 11 53 -7 53 -6 0 -10 0 -9 -10 0 -10 0 0 -25 0 -25 11 0 10 0 14
-13 13 -14 64 -12 63 -13 67 -19 66 -19 7 0 6 0 -6 10 -6 10 10 0 11 0 0 108
0 107 9 14 10 15 63 -13 64 -12 26 11 26 12 11 25 11 24 0 32 0 32 -11 37 -10
38 -25 6 -24 6 -45 -11 -44 -11 -15 0 -15 0 -17 32 -17 32 5 93 5 93 -393 0
-393 0 -4 -7z"/>
</g>
</svg>
