<?xml version="1.0" standalone="no"?>
<!DOCTYPE svg PUBLIC "-//W3C//DTD SVG 20010904//EN"
 "http://www.w3.org/TR/2001/REC-SVG-20010904/DTD/svg10.dtd">
<svg version="1.0" xmlns="http://www.w3.org/2000/svg"
 width="124.000000pt" height="73.000000pt" viewBox="0 0 124.000000 73.000000"
 preserveAspectRatio="xMidYMid meet">
<metadata>
Created by potrace 1.16, written by Peter Selinger 2001-2019
</metadata>
<g transform="translate(0.000000,73.000000) scale(0.100000,-0.100000)"
fill="#000000" stroke="none">
<path d="M216 721 l-5 -8 9 -111 10 -110 -6 -15 -5 -15 -59 5 -58 6 -24 -6
-24 -6 -21 -18 -20 -18 -7 -29 -7 -28 11 -34 11 -33 20 -6 20 -7 30 12 29 13
20 -23 19 -22 5 -17 5 -16 12 -80 11 -80 -1 -26 -1 -26 39 -11 38 -12 64 0 64
0 40 10 40 9 3 10 4 11 14 0 14 0 6 25 6 25 -12 31 -13 31 14 9 14 9 39 11 39
11 34 -7 33 -6 0 -34 0 -35 11 0 10 0 14 -13 13 -14 64 -12 63 -13 67 -19 66
-19 15 0 15 0 6 16 6 16 0 101 0 102 9 13 8 13 60 -12 60 -12 30 12 30 12 12
25 11 25 0 42 0 42 -11 37 -10 38 -25 6 -25 6 -37 -6 -37 -6 -22 -6 -21 -6
-18 33 -17 33 6 93 6 93 -404 0 -404 0 -5 -9z"/>
</g>
</svg>
