<?xml version="1.0" standalone="no"?>
<!DOCTYPE svg PUBLIC "-//W3C//DTD SVG 20010904//EN"
 "http://www.w3.org/TR/2001/REC-SVG-20010904/DTD/svg10.dtd">
<svg version="1.0" xmlns="http://www.w3.org/2000/svg"
 width="107.000000pt" height="93.000000pt" viewBox="0 0 107.000000 93.000000"
 preserveAspectRatio="xMidYMid meet">
<metadata>
Created by potrace 1.16, written by Peter Selinger 2001-2019
</metadata>
<g transform="translate(0.000000,93.000000) scale(0.100000,-0.100000)"
fill="#000000" stroke="none">
<path d="M586 916 l-39 -15 -8 -12 -8 -13 15 -28 15 -29 -6 -19 -6 -20 -14 0
-13 0 -4 -11 -3 -10 -40 -9 -40 -10 -57 0 -57 0 -27 10 -26 10 6 -42 6 -43 6
-89 7 -88 -13 -8 -12 -8 -62 5 -62 5 -54 -11 -53 -11 -19 -22 -18 -21 0 -16 0
-16 10 -37 11 -38 17 -9 18 -10 15 10 14 9 23 0 23 0 13 -13 13 -13 15 -29 15
-30 17 -58 18 -58 14 -14 14 -14 0 -6 0 -6 14 -15 15 -14 150 0 151 0 0 10 0
10 15 0 15 0 0 14 0 14 -12 52 -12 52 20 15 19 15 49 -6 48 -5 25 -27 25 -28
-6 -45 -5 -46 -7 -21 -6 -21 17 -17 16 -16 49 0 48 0 64 20 63 20 17 0 17 0 6
20 6 19 -16 32 -17 31 -23 78 -23 79 -13 23 -12 23 -11 7 -11 8 -22 0 -23 0 0
-10 0 -10 -13 0 -14 0 -11 25 -12 26 0 25 0 25 15 29 16 30 10 0 10 0 31 -16
30 -16 32 13 31 13 24 24 24 24 8 42 8 41 1 68 0 67 -16 0 -16 0 -66 19 -67
19 -63 13 -64 12 -13 14 -14 13 -10 0 -11 0 0 24 0 24 13 5 12 4 -6 7 -6 6
-59 5 -59 5 -39 -14z"/>
</g>
</svg>
