<?xml version="1.0" standalone="no"?>
<!DOCTYPE svg PUBLIC "-//W3C//DTD SVG 20010904//EN"
 "http://www.w3.org/TR/2001/REC-SVG-20010904/DTD/svg10.dtd">
<svg version="1.0" xmlns="http://www.w3.org/2000/svg"
 width="109.000000pt" height="95.000000pt" viewBox="0 0 109.000000 95.000000"
 preserveAspectRatio="xMidYMid meet">
<metadata>
Created by potrace 1.16, written by Peter Selinger 2001-2019
</metadata>
<g transform="translate(0.000000,95.000000) scale(0.100000,-0.100000)"
fill="#000000" stroke="none">
<path d="M586 935 l-39 -14 -8 -13 -9 -13 1 -10 0 -10 13 -24 14 -25 -5 -13
-5 -13 -13 0 -13 0 -4 -11 -3 -10 -40 -9 -40 -10 -46 0 -46 0 -32 11 -32 11
-5 -5 -5 -5 12 -126 12 -127 -6 -6 -7 -6 -73 2 -73 2 -49 -11 -48 -11 -19 -21
-18 -21 0 -26 0 -26 10 -37 11 -38 20 -10 20 -11 33 12 34 12 15 -14 14 -15
15 -29 15 -30 17 -58 18 -58 14 -14 14 -14 0 -6 0 -6 14 -15 15 -14 160 0 161
0 0 10 0 10 15 0 15 0 0 28 0 27 -11 39 -11 40 19 14 18 13 39 -6 39 -6 25
-26 24 -26 -6 -34 -6 -33 -6 -33 -6 -34 17 -16 16 -17 59 0 58 0 64 20 63 20
17 0 18 0 6 26 7 26 -18 37 -17 36 -23 77 -23 77 -13 23 -12 23 -11 7 -11 8
-32 0 -33 0 0 -12 -1 -13 -14 25 -14 25 -1 18 0 18 15 29 15 30 35 -17 35 -17
37 13 36 14 25 24 25 25 8 42 8 41 1 78 0 77 -16 0 -16 0 -66 19 -67 19 -63
13 -64 12 -13 14 -14 13 -10 0 -11 0 0 15 0 15 10 0 10 0 0 19 0 18 -37 7 -38
6 -35 -1 -35 0 -39 -14z"/>
</g>
</svg>
