<?xml version="1.0" standalone="no"?>
<!DOCTYPE svg PUBLIC "-//W3C//DTD SVG 20010904//EN"
 "http://www.w3.org/TR/2001/REC-SVG-20010904/DTD/svg10.dtd">
<svg version="1.0" xmlns="http://www.w3.org/2000/svg"
 width="100.000000pt" height="86.000000pt" viewBox="0 0 100.000000 86.000000"
 preserveAspectRatio="xMidYMid meet">
<metadata>
Created by potrace 1.16, written by Peter Selinger 2001-2019
</metadata>
<g transform="translate(0.000000,86.000000) scale(0.100000,-0.100000)"
fill="#000000" stroke="none">
<path d="M526 847 l-20 -15 12 -52 12 -52 0 -14 0 -14 -15 0 -15 0 0 -10 0
-10 -156 0 -156 0 6 -27 5 -28 7 -77 6 -77 -15 -16 -16 -16 -25 7 -25 6 -55
-17 -54 -17 -11 -24 -11 -25 0 -38 0 -38 11 -32 11 -31 14 0 14 0 0 11 0 11
26 -6 26 -7 14 -13 13 -13 21 -84 22 -84 1 -22 2 -23 392 0 392 0 6 10 6 10
-19 58 -20 57 -7 39 -6 38 -16 33 -16 34 -24 6 -23 5 -20 -10 -19 -10 -19 0
-19 0 -12 26 -12 27 7 42 6 42 38 13 39 13 48 -6 48 -6 20 -6 20 -5 14 9 14 9
-2 123 -1 123 -11 11 -11 10 -5 -12 -5 -13 -16 0 -17 0 -63 -20 -64 -20 -48 0
-49 0 -16 16 -17 17 6 21 7 21 5 46 6 45 -25 28 -25 27 -48 5 -49 6 -19 -15z"/>
</g>
</svg>
