<?xml version="1.0" standalone="no"?>
<!DOCTYPE svg PUBLIC "-//W3C//DTD SVG 20010904//EN"
 "http://www.w3.org/TR/2001/REC-SVG-20010904/DTD/svg10.dtd">
<svg version="1.0" xmlns="http://www.w3.org/2000/svg"
 width="102.000000pt" height="88.000000pt" viewBox="0 0 102.000000 88.000000"
 preserveAspectRatio="xMidYMid meet">
<metadata>
Created by potrace 1.16, written by Peter Selinger 2001-2019
</metadata>
<g transform="translate(0.000000,88.000000) scale(0.100000,-0.100000)"
fill="#000000" stroke="none">
<path d="M526 867 l-19 -14 6 -44 7 -44 6 -22 6 -23 -16 0 -16 0 0 -10 0 -10
-156 0 -156 0 6 -47 6 -48 6 -57 6 -57 -13 -13 -13 -14 -27 4 -28 4 -54 -17
-55 -17 -11 -24 -11 -25 0 -48 0 -48 11 -32 11 -31 24 0 24 0 0 10 0 9 18 -6
17 -7 12 -12 12 -11 21 -84 21 -84 0 -22 -1 -23 405 0 406 0 6 16 6 16 -20 62
-21 61 -7 39 -6 38 -16 34 -17 34 -32 6 -32 6 -20 -11 -21 -11 -9 0 -9 0 -11
24 -11 25 6 34 5 35 40 13 39 12 62 -12 62 -12 16 6 16 6 5 47 5 47 -6 95 -6
95 -22 3 -23 3 0 -10 0 -11 -17 0 -18 0 -63 -20 -64 -20 -38 0 -39 0 -15 15
-15 15 10 32 9 33 0 37 0 37 -24 26 -25 27 -58 5 -58 5 -19 -15z"/>
</g>
</svg>
