<?xml version="1.0" standalone="no"?>
<!DOCTYPE svg PUBLIC "-//W3C//DTD SVG 20010904//EN"
 "http://www.w3.org/TR/2001/REC-SVG-20010904/DTD/svg10.dtd">
<svg version="1.0" xmlns="http://www.w3.org/2000/svg"
 width="108.000000pt" height="92.000000pt" viewBox="0 0 108.000000 92.000000"
 preserveAspectRatio="xMidYMid meet">
<metadata>
Created by potrace 1.16, written by Peter Selinger 2001-2019
</metadata>
<g transform="translate(0.000000,92.000000) scale(0.100000,-0.100000)"
fill="#000000" stroke="none">
<path d="M323 903 l-31 -16 -11 -24 -11 -24 0 -35 0 -35 10 -19 10 -19 -16
-15 -15 -16 -115 0 -114 0 0 10 0 10 -15 0 -15 0 0 -360 0 -360 408 2 407 3
-1 35 -1 35 -8 62 -8 61 7 26 6 26 20 0 20 0 0 -10 0 -10 43 0 42 1 40 14 40
14 3 11 4 10 10 0 11 0 18 22 19 21 0 48 0 48 -11 25 -12 25 -28 12 -29 12
-78 -5 -77 -5 -15 -4 -15 -4 4 120 3 120 -104 19 -103 18 -32 8 -33 8 -15 15
-15 16 0 10 0 11 10 0 10 0 0 33 0 33 -35 17 -36 17 -57 -1 -57 0 -32 -16z"/>
</g>
</svg>
