<?xml version="1.0" standalone="no"?>
<!DOCTYPE svg PUBLIC "-//W3C//DTD SVG 20010904//EN"
 "http://www.w3.org/TR/2001/REC-SVG-20010904/DTD/svg10.dtd">
<svg version="1.0" xmlns="http://www.w3.org/2000/svg"
 width="106.000000pt" height="90.000000pt" viewBox="0 0 106.000000 90.000000"
 preserveAspectRatio="xMidYMid meet">
<metadata>
Created by potrace 1.16, written by Peter Selinger 2001-2019
</metadata>
<g transform="translate(0.000000,90.000000) scale(0.100000,-0.100000)"
fill="#000000" stroke="none">
<path d="M323 883 l-32 -16 -12 -28 -11 -29 5 -27 5 -28 7 -21 7 -21 -17 -17
-16 -16 -124 0 -123 0 -5 13 -5 12 -1 -353 -1 -352 398 2 397 3 -2 25 -1 25
-7 71 -8 72 7 26 6 26 30 0 30 0 0 -10 0 -10 33 0 32 1 40 14 40 14 3 11 4 10
10 0 11 0 18 22 19 21 0 38 0 38 -11 25 -12 25 -29 12 -29 12 -67 -7 -67 -6
-25 -2 -25 -3 4 120 3 120 -103 19 -104 18 -32 8 -33 8 -15 15 -15 16 0 20 0
21 10 0 10 0 0 23 0 23 -35 17 -36 17 -47 -1 -47 0 -32 -16z"/>
</g>
</svg>
