<?xml version="1.0" standalone="no"?>
<!DOCTYPE svg PUBLIC "-//W3C//DTD SVG 20010904//EN"
 "http://www.w3.org/TR/2001/REC-SVG-20010904/DTD/svg10.dtd">
<svg version="1.0" xmlns="http://www.w3.org/2000/svg"
 width="103.000000pt" height="69.000000pt" viewBox="0 0 103.000000 69.000000"
 preserveAspectRatio="xMidYMid meet">
<metadata>
Created by potrace 1.16, written by Peter Selinger 2001-2019
</metadata>
<g transform="translate(0.000000,69.000000) scale(0.100000,-0.100000)"
fill="#000000" stroke="none">
<path d="M272 683 l-22 -4 1 -126 2 -125 -14 -9 -14 -9 -20 5 -20 6 -48 6 -48
6 -39 -13 -38 -13 -6 -42 -7 -42 12 -27 12 -26 19 0 19 0 19 10 20 10 23 -5
24 -6 15 -32 15 -32 7 -35 7 -35 22 -72 22 -73 398 0 397 0 0 340 0 340 -15 0
-15 0 0 -9 0 -8 -57 -21 -58 -20 -35 -7 -35 -6 -27 -11 -28 -10 0 -19 0 -19
10 0 10 0 0 -13 0 -14 -42 -19 -43 -19 -62 1 -62 1 -31 32 -30 33 0 19 0 18
17 36 17 35 -13 13 -12 12 -112 2 -112 1 -23 -5z"/>
</g>
</svg>
