<?xml version="1.0" standalone="no"?>
<!DOCTYPE svg PUBLIC "-//W3C//DTD SVG 20010904//EN"
 "http://www.w3.org/TR/2001/REC-SVG-20010904/DTD/svg10.dtd">
<svg version="1.0" xmlns="http://www.w3.org/2000/svg"
 width="105.000000pt" height="71.000000pt" viewBox="0 0 105.000000 71.000000"
 preserveAspectRatio="xMidYMid meet">
<metadata>
Created by potrace 1.16, written by Peter Selinger 2001-2019
</metadata>
<g transform="translate(0.000000,71.000000) scale(0.100000,-0.100000)"
fill="#000000" stroke="none">
<path d="M272 703 l-22 -4 1 -126 1 -126 -13 -7 -12 -8 -31 9 -31 9 -44 0 -45
0 -32 -12 -33 -12 -6 -48 -7 -49 12 -29 12 -30 32 0 31 0 14 9 13 9 18 -5 17
-5 15 -31 15 -32 7 -35 7 -35 22 -72 22 -73 408 0 407 0 0 350 0 350 -25 0
-25 0 0 -9 0 -8 -57 -21 -58 -20 -35 -7 -35 -6 -27 -11 -28 -10 0 -29 0 -29
13 0 12 -1 -40 -21 -40 -22 -57 0 -57 1 -30 32 -31 33 0 10 0 9 16 30 15 30
-3 22 -3 21 -25 7 -25 7 -105 0 -105 -1 -23 -4z"/>
</g>
</svg>
