<?xml version="1.0" standalone="no"?>
<!DOCTYPE svg PUBLIC "-//W3C//DTD SVG 20010904//EN"
 "http://www.w3.org/TR/2001/REC-SVG-20010904/DTD/svg10.dtd">
<svg version="1.0" xmlns="http://www.w3.org/2000/svg"
 width="104.000000pt" height="96.000000pt" viewBox="0 0 104.000000 96.000000"
 preserveAspectRatio="xMidYMid meet">
<metadata>
Created by potrace 1.16, written by Peter Selinger 2001-2019
</metadata>
<g transform="translate(0.000000,96.000000) scale(0.100000,-0.100000)"
fill="#000000" stroke="none">
<path d="M707 953 l-7 -6 0 -19 0 -19 15 -30 16 -30 -10 -35 -10 -35 -31 -29
-32 -30 -40 0 -39 0 -14 13 -13 14 9 14 9 14 0 50 0 50 -9 13 -8 13 -39 9 -39
10 -112 0 -113 0 0 -62 -1 -63 -8 -41 -8 -42 -24 -23 -24 -24 -26 -11 -25 -12
-25 14 -24 13 -22 1 -22 0 -16 -30 -15 -29 0 -35 0 -35 12 -26 11 -25 23 0 22
0 4 11 4 12 21 -7 20 -6 16 -38 16 -37 16 -55 16 -55 22 -50 21 -50 4 -5 3 -4
137 -1 137 0 12 -8 13 -8 -15 -29 -15 -29 0 -29 0 -30 31 -33 31 -33 71 0 72
-1 43 19 42 19 0 24 0 23 -10 0 -10 0 0 9 0 9 28 10 27 11 35 6 35 7 58 20 57
21 0 8 0 9 15 0 15 0 0 363 0 363 -88 17 -89 17 -75 0 -75 0 -6 -7z"/>
</g>
</svg>
