<?xml version="1.0" standalone="no"?>
<!DOCTYPE svg PUBLIC "-//W3C//DTD SVG 20010904//EN"
 "http://www.w3.org/TR/2001/REC-SVG-20010904/DTD/svg10.dtd">
<svg version="1.0" xmlns="http://www.w3.org/2000/svg"
 width="102.000000pt" height="94.000000pt" viewBox="0 0 102.000000 94.000000"
 preserveAspectRatio="xMidYMid meet">
<metadata>
Created by potrace 1.16, written by Peter Selinger 2001-2019
</metadata>
<g transform="translate(0.000000,94.000000) scale(0.100000,-0.100000)"
fill="#000000" stroke="none">
<path d="M704 926 l-5 -14 16 -32 16 -32 -6 -40 -7 -39 -34 -35 -35 -34 -50 0
-50 0 -16 16 -16 15 12 25 11 25 0 37 0 37 -9 13 -8 13 -39 9 -39 10 -102 0
-103 0 0 -62 -1 -63 -8 -41 -8 -42 -24 -24 -24 -24 -31 -13 -32 -13 -30 16
-31 16 -10 0 -10 0 -16 -30 -15 -29 0 -25 0 -25 12 -26 11 -25 14 0 13 0 0 10
0 10 23 0 22 0 11 -8 11 -7 12 -23 13 -23 23 -77 23 -77 18 -40 18 -40 3 -4 3
-4 139 -1 140 -1 12 -12 13 -13 -17 -35 -17 -36 0 -18 0 -19 30 -33 31 -32 62
-1 62 -1 43 19 42 19 0 14 0 13 -10 0 -10 0 0 19 0 19 28 10 27 11 35 6 35 7
58 20 57 21 0 8 0 9 15 0 15 0 0 353 0 353 -88 17 -89 17 -67 0 -67 0 -5 -14z"/>
</g>
</svg>
