<?xml version="1.0" standalone="no"?>
<!DOCTYPE svg PUBLIC "-//W3C//DTD SVG 20010904//EN"
 "http://www.w3.org/TR/2001/REC-SVG-20010904/DTD/svg10.dtd">
<svg version="1.0" xmlns="http://www.w3.org/2000/svg"
 width="105.000000pt" height="90.000000pt" viewBox="0 0 105.000000 90.000000"
 preserveAspectRatio="xMidYMid meet">
<metadata>
Created by potrace 1.16, written by Peter Selinger 2001-2019
</metadata>
<g transform="translate(0.000000,90.000000) scale(0.100000,-0.100000)"
fill="#000000" stroke="none">
<path d="M356 885 l-15 -16 -12 -41 -11 -42 5 -25 5 -26 7 -21 7 -21 -24 -6
-24 -6 -130 9 -129 9 -17 1 -18 0 0 -334 0 -334 6 -16 6 -16 123 0 124 0 16
16 17 17 -7 21 -7 21 -5 28 -5 27 11 29 12 28 35 16 35 17 44 0 44 0 36 -17
35 -17 0 -23 0 -23 -10 0 -10 0 0 -21 0 -22 21 -18 20 -17 72 -12 72 -12 35
-9 35 -9 22 0 22 0 -6 115 -6 115 23 0 24 0 57 -12 56 -11 32 12 31 13 0 14 0
14 8 0 9 0 11 38 11 37 -6 28 -5 27 -14 0 -14 0 0 8 0 9 -37 11 -38 11 -45 -6
-45 -6 -19 -9 -19 -10 -8 13 -9 14 6 127 7 126 -145 -5 -144 -6 -16 17 -17 16
-10 0 -11 0 0 25 0 25 10 0 10 0 0 30 0 29 -11 24 -11 25 -25 11 -24 11 -19 0
-19 0 -15 -15z"/>
</g>
</svg>
