<?xml version="1.0" standalone="no"?>
<!DOCTYPE svg PUBLIC "-//W3C//DTD SVG 20010904//EN"
 "http://www.w3.org/TR/2001/REC-SVG-20010904/DTD/svg10.dtd">
<svg version="1.0" xmlns="http://www.w3.org/2000/svg"
 width="107.000000pt" height="92.000000pt" viewBox="0 0 107.000000 92.000000"
 preserveAspectRatio="xMidYMid meet">
<metadata>
Created by potrace 1.16, written by Peter Selinger 2001-2019
</metadata>
<g transform="translate(0.000000,92.000000) scale(0.100000,-0.100000)"
fill="#000000" stroke="none">
<path d="M356 905 l-15 -16 -11 -37 -10 -37 0 -33 0 -33 10 -19 10 -18 -21 -5
-20 -5 -122 9 -122 8 -27 1 -28 0 0 -344 0 -344 6 -16 6 -16 133 0 134 0 15
16 16 15 0 17 0 16 -12 32 -11 32 12 29 12 30 35 16 35 17 34 0 34 0 36 -17
35 -17 0 -13 0 -13 -10 0 -10 0 0 -31 0 -32 21 -18 20 -17 72 -12 72 -12 35
-9 35 -9 33 0 33 0 -7 117 -7 116 39 -7 39 -7 42 -6 43 -6 30 13 30 12 0 14 0
14 8 0 9 0 12 40 12 40 -7 35 -6 35 -14 0 -14 0 0 9 0 8 -42 12 -43 12 -60 -9
-60 -10 -8 5 -7 4 7 129 6 130 -144 -7 -145 -6 -16 17 -17 16 -10 0 -11 0 0
15 0 15 10 0 10 0 0 40 0 39 -11 24 -11 25 -25 11 -24 11 -29 0 -29 0 -15 -15z"/>
</g>
</svg>
