<?xml version="1.0" standalone="no"?>
<!DOCTYPE svg PUBLIC "-//W3C//DTD SVG 20010904//EN"
 "http://www.w3.org/TR/2001/REC-SVG-20010904/DTD/svg10.dtd">
<svg version="1.0" xmlns="http://www.w3.org/2000/svg"
 width="82.000000pt" height="92.000000pt" viewBox="0 0 82.000000 92.000000"
 preserveAspectRatio="xMidYMid meet">
<metadata>
Created by potrace 1.16, written by Peter Selinger 2001-2019
</metadata>
<g transform="translate(0.000000,92.000000) scale(0.100000,-0.100000)"
fill="#000000" stroke="none">
<path d="M16 889 l-6 -31 0 -75 0 -74 16 -31 16 -31 46 7 47 6 26 6 26 6 16
-16 16 -16 7 -45 6 -45 -12 -29 -12 -29 -26 -11 -27 -11 -35 10 -35 10 -32 0
-33 0 -4 -22 -5 -23 -4 -117 -3 -117 14 -6 14 -5 96 0 97 0 39 -10 39 -9 9
-13 9 -13 -5 -35 -4 -35 -7 -27 -7 -27 15 -16 16 -15 60 0 60 0 35 35 35 34 7
47 7 46 -16 33 -16 33 6 6 6 6 61 0 61 -1 65 -14 65 -14 28 -1 27 0 -2 353 -3
352 -396 3 -396 2 -7 -31z"/>
</g>
</svg>
