<?xml version="1.0" standalone="no"?>
<!DOCTYPE svg PUBLIC "-//W3C//DTD SVG 20010904//EN"
 "http://www.w3.org/TR/2001/REC-SVG-20010904/DTD/svg10.dtd">
<svg version="1.0" xmlns="http://www.w3.org/2000/svg"
 width="80.000000pt" height="90.000000pt" viewBox="0 0 80.000000 90.000000"
 preserveAspectRatio="xMidYMid meet">
<metadata>
Created by potrace 1.16, written by Peter Selinger 2001-2019
</metadata>
<g transform="translate(0.000000,90.000000) scale(0.100000,-0.100000)"
fill="#000000" stroke="none">
<path d="M16 869 l-6 -31 0 -65 0 -64 15 -29 16 -30 15 0 15 0 44 11 45 11 24
-6 25 -6 10 -38 11 -37 0 -32 0 -32 -11 -24 -11 -25 -26 -12 -26 -11 -63 12
-63 13 -7 -8 -8 -8 -5 -121 -5 -122 10 -7 10 -8 100 0 100 0 39 -10 39 -9 8
-13 9 -13 0 -37 0 -37 -11 -25 -12 -25 16 -15 16 -16 50 0 50 0 35 34 34 35 7
39 6 40 -16 32 -16 32 5 14 5 14 73 0 73 -1 65 -14 65 -14 18 -1 17 0 -2 343
-3 342 -386 3 -386 2 -7 -31z"/>
</g>
</svg>
