<?xml version="1.0" standalone="no"?>
<!DOCTYPE svg PUBLIC "-//W3C//DTD SVG 20010904//EN"
 "http://www.w3.org/TR/2001/REC-SVG-20010904/DTD/svg10.dtd">
<svg version="1.0" xmlns="http://www.w3.org/2000/svg"
 width="106.000000pt" height="93.000000pt" viewBox="0 0 106.000000 93.000000"
 preserveAspectRatio="xMidYMid meet">
<metadata>
Created by potrace 1.16, written by Peter Selinger 2001-2019
</metadata>
<g transform="translate(0.000000,93.000000) scale(0.100000,-0.100000)"
fill="#000000" stroke="none">
<path d="M66 922 l-4 -7 -7 -126 -8 -127 44 9 44 8 37 1 37 0 15 -15 15 -15 9
0 10 0 11 -28 12 -28 -11 -28 -10 -28 -14 -13 -14 -14 -41 -17 -40 -16 -48 5
-48 6 -25 3 -25 3 1 -60 1 -60 18 -45 17 -45 2 -22 1 -22 25 -6 24 -6 145 7
144 7 -7 -24 -7 -24 -6 -42 -5 -42 6 -24 6 -25 29 -31 29 -31 21 0 21 0 0 10
0 10 11 0 12 0 19 22 19 22 6 23 5 24 -17 40 -18 39 7 7 7 7 57 7 57 7 95 1
95 1 15 10 15 9 6 110 5 111 7 7 7 6 49 -11 50 -11 30 10 31 11 10 36 10 37 0
43 0 43 -12 22 -11 22 -14 14 -14 14 -42 4 -43 5 -38 -11 -39 -10 6 119 6 120
-394 0 -394 0 -5 -8z"/>
</g>
</svg>
