<?xml version="1.0" standalone="no"?>
<!DOCTYPE svg PUBLIC "-//W3C//DTD SVG 20010904//EN"
 "http://www.w3.org/TR/2001/REC-SVG-20010904/DTD/svg10.dtd">
<svg version="1.0" xmlns="http://www.w3.org/2000/svg"
 width="108.000000pt" height="95.000000pt" viewBox="0 0 108.000000 95.000000"
 preserveAspectRatio="xMidYMid meet">
<metadata>
Created by potrace 1.16, written by Peter Selinger 2001-2019
</metadata>
<g transform="translate(0.000000,95.000000) scale(0.100000,-0.100000)"
fill="#000000" stroke="none">
<path d="M66 942 l-5 -8 -7 -138 -7 -139 24 6 25 6 55 7 55 6 16 -16 17 -16 9
0 9 0 10 -22 10 -23 -8 -23 -9 -23 -14 -14 -14 -14 -41 -17 -41 -16 -42 6 -43
7 -30 2 -30 2 1 -70 1 -70 17 -45 18 -45 -1 -22 -1 -21 31 -7 31 -7 139 7 139
7 -10 -27 -10 -26 0 -50 0 -50 11 -21 12 -21 23 -24 23 -23 31 0 30 0 0 10 0
10 11 0 10 0 13 13 13 12 11 22 12 22 0 26 0 26 -15 29 -15 28 18 7 17 6 142
6 142 6 13 8 13 8 6 110 5 111 6 5 6 6 45 -12 46 -11 35 12 35 11 11 37 10 37
0 53 0 53 -12 22 -11 22 -15 15 -16 15 -79 0 -80 0 7 113 7 112 -405 0 -405 0
-5 -8z"/>
</g>
</svg>
