<?xml version="1.0" standalone="no"?>
<!DOCTYPE svg PUBLIC "-//W3C//DTD SVG 20010904//EN"
 "http://www.w3.org/TR/2001/REC-SVG-20010904/DTD/svg10.dtd">
<svg version="1.0" xmlns="http://www.w3.org/2000/svg"
 width="107.000000pt" height="92.000000pt" viewBox="0 0 107.000000 92.000000"
 preserveAspectRatio="xMidYMid meet">
<metadata>
Created by potrace 1.16, written by Peter Selinger 2001-2019
</metadata>
<g transform="translate(0.000000,92.000000) scale(0.100000,-0.100000)"
fill="#000000" stroke="none">
<path d="M0 903 l0 -13 11 0 11 0 -6 -127 -7 -128 10 -14 9 -15 39 12 38 11
28 4 29 5 34 -11 34 -10 0 -9 0 -8 14 0 15 0 3 -22 4 -23 -10 -32 -9 -33 -9 0
-8 0 0 -14 0 -14 -30 -12 -30 -12 -44 11 -45 11 -35 0 -36 0 0 -67 0 -68 6
-67 7 -67 151 2 151 2 -4 -15 -3 -15 -5 -37 -5 -37 6 -34 6 -34 26 -11 25 -12
45 0 45 0 22 12 22 11 14 15 15 15 -1 36 -1 36 -4 25 -3 24 40 8 40 7 114 0
113 1 -7 27 -6 28 -16 91 -16 90 6 26 7 27 16 15 15 16 19 -10 19 -10 43 0 43
0 43 11 44 10 14 14 14 14 0 15 0 15 -11 24 -11 25 -37 6 -36 6 -45 0 -45 0
-31 -9 -31 -9 -11 7 -11 7 11 137 10 138 -3 3 -4 3 -153 -8 -153 -8 -20 -6
-19 -6 0 -20 0 -20 16 -30 15 -30 -6 -18 -6 -19 -18 -21 -18 -21 -12 0 -11 0
0 -10 0 -10 -11 0 -11 0 -29 31 -29 31 -6 25 -6 24 7 37 7 37 5 28 5 27 -181
-2 -181 -3 0 -12z"/>
</g>
</svg>
