<?xml version="1.0" standalone="no"?>
<!DOCTYPE svg PUBLIC "-//W3C//DTD SVG 20010904//EN"
 "http://www.w3.org/TR/2001/REC-SVG-20010904/DTD/svg10.dtd">
<svg version="1.0" xmlns="http://www.w3.org/2000/svg"
 width="105.000000pt" height="90.000000pt" viewBox="0 0 105.000000 90.000000"
 preserveAspectRatio="xMidYMid meet">
<metadata>
Created by potrace 1.16, written by Peter Selinger 2001-2019
</metadata>
<g transform="translate(0.000000,90.000000) scale(0.100000,-0.100000)"
fill="#000000" stroke="none">
<path d="M104 893 l-81 -4 -7 -123 -7 -122 7 -18 7 -17 16 7 16 7 50 8 49 8
38 -11 38 -11 0 -9 0 -8 14 0 14 0 5 -27 6 -28 -11 -37 -11 -38 -9 0 -8 0 0
-14 0 -14 -31 -13 -32 -12 -56 11 -57 12 -22 0 -22 0 0 -57 0 -58 6 -67 7 -66
147 5 147 6 7 -11 6 -11 -11 -43 -12 -44 7 -35 6 -36 26 -11 25 -12 35 0 35 0
22 12 22 11 14 14 14 15 -1 26 -1 27 -3 35 -3 34 40 8 40 7 114 0 113 1 -7 18
-8 17 -13 70 -13 70 0 42 -1 42 11 25 12 25 15 6 15 5 33 -12 34 -12 65 11 65
11 16 16 16 17 -12 29 -12 29 -56 7 -57 7 -53 -11 -53 -11 -15 6 -16 6 6 66 6
66 6 75 6 75 -129 -7 -128 -6 -25 -1 -25 -1 -14 -9 -15 -9 18 -41 18 -40 -5
-24 -6 -23 -19 -22 -19 -22 -12 0 -11 0 0 -10 0 -10 -21 0 -21 0 -29 31 -29
31 -6 25 -6 24 5 42 6 42 7 23 6 22 -78 -2 -79 -2 -81 -3z"/>
</g>
</svg>
